<?xml version="1.0" encoding="UTF-8" standalone="no"?>
<!DOCTYPE svg PUBLIC "-//W3C//DTD SVG 1.1//EN"
 "http://www.w3.org/Graphics/SVG/1.1/DTD/svg11.dtd">
<!-- Generated by graphviz version 2.38.0 (20140413.2041)
 -->
<!-- Title: prolog.fluents.HashDict Pages: 1 -->
<!--zoomable 656 -->
<svg id="main" version="1.1" xmlns="http://www.w3.org/2000/svg" xmlns:xlink="http://www.w3.org/1999/xlink" xml:space="preserve" onload="init(evt)">
<style type="text/css"><![CDATA[
.edge:hover path { stroke: red; }
.edge:hover polygon { stroke: red; fill: red; }
]]></style>
<script type="text/javascript"><![CDATA[
var edges = document.getElementsByTagName('g');
if (edges && edges.length) {
  for (var i=0;i<edges.length;i++) {
    if (edges[i].id.substr(0,4)=='edge') {
      edges[i].setAttribute('class','edge');
    }
  }
}
]]></script>
        <defs>
                <circle id="rim" cx="0" cy="0" r="7"/>
                <circle id="rim2" cx="0" cy="0" r="3.5"/>
                <g id="zoomPlus">
                        <use xlink:href="#rim" fill="#404040">
                                <set attributeName="fill" to="#808080" begin="zoomplus.mouseover" end="zoomplus.mouseout"/>
                        </use>
                        <path d="M-4,0h8M0,-4v8" fill="none" stroke="white" stroke-width="1.5" pointer-events="none"/>
                </g>
                <g id="zoomMin">
                        <use xlink:href="#rim" fill="#404040">
                                <set attributeName="fill" to="#808080" begin="zoomminus.mouseover" end="zoomminus.mouseout"/>
                        </use>
                        <path d="M-4,0h8" fill="none" stroke="white" stroke-width="1.5" pointer-events="none"/>
                </g>
                <g id="dirArrow">
                        <path fill="none" stroke="white" stroke-width="1.5" d="M0,-3.0v7 M-2.5,-0.5L0,-3.0L2.5,-0.5"/>
                </g>
               <g id="resetDef">
                       <use xlink:href="#rim2" fill="#404040">
                               <set attributeName="fill" to="#808080" begin="reset.mouseover" end="reset.mouseout"/>
                       </use>
               </g>
        </defs>

<script type="text/javascript">
var viewWidth = 266;
var viewHeight = 656;
var sectionId = 'dynsection-0';
</script>
<script xlink:href="../../svgpan.js"/>
<svg id="graph" class="graph">
<g id="viewport">
<title>prolog.fluents.HashDict</title>
<!-- Node1 -->
<g id="node1" class="node"><title>Node1</title>
<polygon fill="#bfbfbf" stroke="black" points="65.5,-485.5 65.5,-553.5 184.5,-553.5 184.5,-485.5 65.5,-485.5"/>
<text text-anchor="middle" x="125" y="-541.5" font-family="Helvetica,sans-Serif" font-size="10.00">prolog.fluents.HashDict</text>
<polyline fill="none" stroke="black" points="65.5,-534.5 184.5,-534.5 "/>
<text text-anchor="middle" x="125" y="-522.5" font-family="Helvetica,sans-Serif" font-size="10.00"> </text>
<polyline fill="none" stroke="black" points="65.5,-515.5 184.5,-515.5 "/>
<text text-anchor="start" x="73.5" y="-503.5" font-family="Helvetica,sans-Serif" font-size="10.00">+ name()</text>
<text text-anchor="start" x="73.5" y="-492.5" font-family="Helvetica,sans-Serif" font-size="10.00">+ stat()</text>
</g>
<!-- Node3 -->
<g id="node3" class="node"><title>Node3</title>
<g id="a_node3"><a xlink:href="../../d7/d2b/classprolog_1_1builtins_1_1Builtins.html" target="_top" xlink:title="This class contains a dictionary of all builtins i.e. ">
<polygon fill="none" stroke="black" points="0,-336.5 0,-437.5 112,-437.5 112,-336.5 0,-336.5"/>
<text text-anchor="middle" x="56" y="-425.5" font-family="Helvetica,sans-Serif" font-size="10.00">prolog.builtins.Builtins</text>
<polyline fill="none" stroke="black" points="0,-418.5 112,-418.5 "/>
<text text-anchor="middle" x="56" y="-406.5" font-family="Helvetica,sans-Serif" font-size="10.00"> </text>
<polyline fill="none" stroke="black" points="0,-399.5 112,-399.5 "/>
<text text-anchor="start" x="8" y="-387.5" font-family="Helvetica,sans-Serif" font-size="10.00">+ Builtins()</text>
<text text-anchor="start" x="8" y="-376.5" font-family="Helvetica,sans-Serif" font-size="10.00">+ register()</text>
<text text-anchor="start" x="8" y="-365.5" font-family="Helvetica,sans-Serif" font-size="10.00">+ newBuiltin()</text>
<text text-anchor="start" x="8" y="-354.5" font-family="Helvetica,sans-Serif" font-size="10.00">+ toConstBuiltin()</text>
<text text-anchor="start" x="8" y="-343.5" font-family="Helvetica,sans-Serif" font-size="10.00">+ toFunBuiltin()</text>
</a>
</g>
</g>
<!-- Node1&#45;&gt;Node3 -->
<g id="edge2" class="edge"><title>Node1&#45;&gt;Node3</title>
<path fill="none" stroke="midnightblue" d="M102.625,-476.183C96.1806,-463.994 89.0891,-450.581 82.4236,-437.975"/>
<polygon fill="none" stroke="midnightblue" points="99.6415,-478.027 107.41,-485.232 105.83,-474.755 99.6415,-478.027"/>
</g>
<!-- Node4 -->
<g id="node4" class="node"><title>Node4</title>
<g id="a_node4"><a xlink:href="../../d2/d8d/classprolog_1_1fluents_1_1BlackBoard.html" target="_top" xlink:title="This class implementes generic multiple tuples by key operations for use by the PrologBlackBoard clas...">
<polygon fill="none" stroke="black" points="130,-325.5 130,-448.5 258,-448.5 258,-325.5 130,-325.5"/>
<text text-anchor="middle" x="194" y="-436.5" font-family="Helvetica,sans-Serif" font-size="10.00">prolog.fluents.BlackBoard</text>
<polyline fill="none" stroke="black" points="130,-429.5 258,-429.5 "/>
<text text-anchor="middle" x="194" y="-417.5" font-family="Helvetica,sans-Serif" font-size="10.00"> </text>
<polyline fill="none" stroke="black" points="130,-410.5 258,-410.5 "/>
<text text-anchor="start" x="138" y="-398.5" font-family="Helvetica,sans-Serif" font-size="10.00">+ BlackBoard()</text>
<text text-anchor="start" x="138" y="-387.5" font-family="Helvetica,sans-Serif" font-size="10.00">+ toEnumerationFor()</text>
<text text-anchor="start" x="138" y="-376.5" font-family="Helvetica,sans-Serif" font-size="10.00">+ toEnumeration()</text>
<text text-anchor="start" x="138" y="-365.5" font-family="Helvetica,sans-Serif" font-size="10.00"># take()</text>
<text text-anchor="start" x="138" y="-354.5" font-family="Helvetica,sans-Serif" font-size="10.00"># add()</text>
<text text-anchor="start" x="138" y="-343.5" font-family="Helvetica,sans-Serif" font-size="10.00">&#45; pick()</text>
<text text-anchor="start" x="138" y="-332.5" font-family="Helvetica,sans-Serif" font-size="10.00">&#45; addBack()</text>
</a>
</g>
</g>
<!-- Node1&#45;&gt;Node4 -->
<g id="edge3" class="edge"><title>Node1&#45;&gt;Node4</title>
<path fill="none" stroke="midnightblue" d="M147.319,-476.288C151.992,-467.451 157.007,-457.966 161.954,-448.609"/>
<polygon fill="none" stroke="midnightblue" points="144.17,-474.755 142.59,-485.232 150.359,-478.027 144.17,-474.755"/>
</g>
<!-- Node2 -->
<g id="node2" class="node"><title>Node2</title>
<polygon fill="none" stroke="#bfbfbf" points="95.5,-590.5 95.5,-647.5 154.5,-647.5 154.5,-590.5 95.5,-590.5"/>
<text text-anchor="middle" x="125" y="-635.5" font-family="Helvetica,sans-Serif" font-size="10.00">HashMap</text>
<polyline fill="none" stroke="#bfbfbf" points="95.5,-628.5 154.5,-628.5 "/>
<text text-anchor="middle" x="125" y="-616.5" font-family="Helvetica,sans-Serif" font-size="10.00"> </text>
<polyline fill="none" stroke="#bfbfbf" points="95.5,-609.5 154.5,-609.5 "/>
<text text-anchor="middle" x="125" y="-597.5" font-family="Helvetica,sans-Serif" font-size="10.00"> </text>
</g>
<!-- Node2&#45;&gt;Node1 -->
<g id="edge1" class="edge"><title>Node2&#45;&gt;Node1</title>
<path fill="none" stroke="midnightblue" d="M125,-580.063C125,-571.393 125,-562.243 125,-553.786"/>
<polygon fill="none" stroke="midnightblue" points="121.5,-580.321 125,-590.321 128.5,-580.321 121.5,-580.321"/>
</g>
<!-- Node5 -->
<g id="node5" class="node"><title>Node5</title>
<g id="a_node5"><a xlink:href="../../da/dd9/classprolog_1_1fluents_1_1DataBase.html" target="_top" xlink:title="Implements a Term and Clause objects based blackboard (database). ">
<polygon fill="none" stroke="black" points="133,-0.5 133,-288.5 255,-288.5 255,-0.5 133,-0.5"/>
<text text-anchor="middle" x="194" y="-276.5" font-family="Helvetica,sans-Serif" font-size="10.00">prolog.fluents.DataBase</text>
<polyline fill="none" stroke="black" points="133,-269.5 255,-269.5 "/>
<text text-anchor="start" x="141" y="-257.5" font-family="Helvetica,sans-Serif" font-size="10.00">&#45; yes</text>
<text text-anchor="start" x="141" y="-246.5" font-family="Helvetica,sans-Serif" font-size="10.00">&#45; no</text>
<text text-anchor="start" x="141" y="-235.5" font-family="Helvetica,sans-Serif" font-size="10.00">&#45; lastFile</text>
<polyline fill="none" stroke="black" points="133,-228.5 255,-228.5 "/>
<text text-anchor="start" x="141" y="-216.5" font-family="Helvetica,sans-Serif" font-size="10.00">+ DataBase()</text>
<text text-anchor="start" x="141" y="-205.5" font-family="Helvetica,sans-Serif" font-size="10.00">+ cin()</text>
<text text-anchor="start" x="141" y="-194.5" font-family="Helvetica,sans-Serif" font-size="10.00">+ out()</text>
<text text-anchor="start" x="141" y="-183.5" font-family="Helvetica,sans-Serif" font-size="10.00">+ out()</text>
<text text-anchor="start" x="141" y="-172.5" font-family="Helvetica,sans-Serif" font-size="10.00">+ all()</text>
<text text-anchor="start" x="141" y="-161.5" font-family="Helvetica,sans-Serif" font-size="10.00">+ toEnumerationFor()</text>
<text text-anchor="start" x="141" y="-150.5" font-family="Helvetica,sans-Serif" font-size="10.00">+ pprint()</text>
<text text-anchor="start" x="141" y="-139.5" font-family="Helvetica,sans-Serif" font-size="10.00">+ pred_to_string()</text>
<text text-anchor="start" x="141" y="-128.5" font-family="Helvetica,sans-Serif" font-size="10.00">+ fromFile()</text>
<text text-anchor="start" x="141" y="-117.5" font-family="Helvetica,sans-Serif" font-size="10.00">+ fromFile()</text>
<text text-anchor="start" x="141" y="-106.5" font-family="Helvetica,sans-Serif" font-size="10.00">+ fromFile()</text>
<text text-anchor="start" x="141" y="-95.5" font-family="Helvetica,sans-Serif" font-size="10.00">+ streamToProg()</text>
<text text-anchor="start" x="141" y="-84.5" font-family="Helvetica,sans-Serif" font-size="10.00">+ addClause()</text>
<text text-anchor="start" x="141" y="-73.5" font-family="Helvetica,sans-Serif" font-size="10.00">+ processClause()</text>
<text text-anchor="start" x="141" y="-62.5" font-family="Helvetica,sans-Serif" font-size="10.00">&#45; all0()</text>
<text text-anchor="start" x="141" y="-51.5" font-family="Helvetica,sans-Serif" font-size="10.00">&#45; all1()</text>
<text text-anchor="start" x="141" y="-40.5" font-family="Helvetica,sans-Serif" font-size="10.00">&#45; all2()</text>
<text text-anchor="start" x="141" y="-29.5" font-family="Helvetica,sans-Serif" font-size="10.00">&#45; fileToProg()</text>
<text text-anchor="start" x="141" y="-18.5" font-family="Helvetica,sans-Serif" font-size="10.00">&#45; streamToProg()</text>
<text text-anchor="start" x="141" y="-7.5" font-family="Helvetica,sans-Serif" font-size="10.00">&#45; apply_parser()</text>
</a>
</g>
</g>
<!-- Node4&#45;&gt;Node5 -->
<g id="edge4" class="edge"><title>Node4&#45;&gt;Node5</title>
<path fill="none" stroke="midnightblue" d="M194,-315.191C194,-306.721 194,-297.855 194,-288.808"/>
<polygon fill="none" stroke="midnightblue" points="190.5,-315.312 194,-325.312 197.5,-315.312 190.5,-315.312"/>
</g>
</g>
</svg>
        <g id="navigator" transform="translate(0 0)" fill="#404254">
                <rect fill="#f2f5e9" fill-opacity="0.5" stroke="#606060" stroke-width=".5" x="0" y="0" width="60" height="60"/>
                <use id="zoomplus" xlink:href="#zoomPlus" x="17" y="9" onmousedown="handleZoom(evt,'in')"/>
                <use id="zoomminus" xlink:href="#zoomMin" x="42" y="9" onmousedown="handleZoom(evt,'out')"/>
                <use id="reset" xlink:href="#resetDef" x="30" y="36" onmousedown="handleReset()"/>
                <g id="arrowUp" xlink:href="#dirArrow" transform="translate(30 24)" onmousedown="handlePan(0,-1)">
                  <use xlink:href="#rim" fill="#404040">
                        <set attributeName="fill" to="#808080" begin="arrowUp.mouseover" end="arrowUp.mouseout"/>
                  </use>
                  <path fill="none" stroke="white" stroke-width="1.5" d="M0,-3.0v7 M-2.5,-0.5L0,-3.0L2.5,-0.5"/>
                </g>
                <g id="arrowRight" xlink:href="#dirArrow" transform="rotate(90) translate(36 -43)" onmousedown="handlePan(1,0)">
                  <use xlink:href="#rim" fill="#404040">
                        <set attributeName="fill" to="#808080" begin="arrowRight.mouseover" end="arrowRight.mouseout"/>
                  </use>
                  <path fill="none" stroke="white" stroke-width="1.5" d="M0,-3.0v7 M-2.5,-0.5L0,-3.0L2.5,-0.5"/>
                </g>
                <g id="arrowDown" xlink:href="#dirArrow" transform="rotate(180) translate(-30 -48)" onmousedown="handlePan(0,1)">
                  <use xlink:href="#rim" fill="#404040">
                        <set attributeName="fill" to="#808080" begin="arrowDown.mouseover" end="arrowDown.mouseout"/>
                  </use>
                  <path fill="none" stroke="white" stroke-width="1.5" d="M0,-3.0v7 M-2.5,-0.5L0,-3.0L2.5,-0.5"/>
                </g>
                <g id="arrowLeft" xlink:href="#dirArrow" transform="rotate(270) translate(-36 17)" onmousedown="handlePan(-1,0)">
                  <use xlink:href="#rim" fill="#404040">
                        <set attributeName="fill" to="#808080" begin="arrowLeft.mouseover" end="arrowLeft.mouseout"/>
                  </use>
                  <path fill="none" stroke="white" stroke-width="1.5" d="M0,-3.0v7 M-2.5,-0.5L0,-3.0L2.5,-0.5"/>
                </g>
        </g>
        <svg viewBox="0 0 15 15" width="100%" height="30px" preserveAspectRatio="xMaxYMin meet">
         <g id="arrow_out" transform="scale(0.3 0.3)">
          <a xlink:href="classprolog_1_1fluents_1_1HashDict__inherit__graph_org.svg" target="_base">
           <rect id="button" ry="5" rx="5" y="6" x="6" height="38" width="38"
                fill="#f2f5e9" fill-opacity="0.5" stroke="#606060" stroke-width="1.0"/>
           <path id="arrow"
             d="M 11.500037,31.436501 C 11.940474,20.09759 22.043105,11.32322 32.158766,21.979434 L 37.068811,17.246167 C 37.068811,17.246167 37.088388,32 37.088388,32 L 22.160133,31.978069 C 22.160133,31.978069 26.997745,27.140456 26.997745,27.140456 C 18.528582,18.264221 13.291696,25.230495 11.500037,31.436501 z"
             style="fill:#404040;"/>
          </a>
         </g>
        </svg>
</svg>
