<?xml version="1.0" encoding="UTF-8" standalone="no"?>
<!DOCTYPE svg PUBLIC "-//W3C//DTD SVG 1.1//EN"
 "http://www.w3.org/Graphics/SVG/1.1/DTD/svg11.dtd">
<!-- Generated by graphviz version 2.38.0 (20140413.2041)
 -->
<!-- Title: prolog.terms.Nil Pages: 1 -->
<svg width="132pt" height="937pt"
 viewBox="0.00 0.00 131.50 937.00" xmlns="http://www.w3.org/2000/svg" xmlns:xlink="http://www.w3.org/1999/xlink">
<g id="graph0" class="graph" transform="scale(1 1) rotate(0) translate(4 933)">
<title>prolog.terms.Nil</title>
<!-- Node1 -->
<g id="node1" class="node"><title>Node1</title>
<polygon fill="#bfbfbf" stroke="black" points="14.5,-0.5 14.5,-68.5 100.5,-68.5 100.5,-0.5 14.5,-0.5"/>
<text text-anchor="middle" x="57.5" y="-56.5" font-family="Helvetica,sans-Serif" font-size="10.00">prolog.terms.Nil</text>
<polyline fill="none" stroke="black" points="14.5,-49.5 100.5,-49.5 "/>
<text text-anchor="middle" x="57.5" y="-37.5" font-family="Helvetica,sans-Serif" font-size="10.00"> </text>
<polyline fill="none" stroke="black" points="14.5,-30.5 100.5,-30.5 "/>
<text text-anchor="start" x="22.5" y="-18.5" font-family="Helvetica,sans-Serif" font-size="10.00">+ Nil()</text>
<text text-anchor="start" x="22.5" y="-7.5" font-family="Helvetica,sans-Serif" font-size="10.00">+ Nil()</text>
</g>
<!-- Node2 -->
<g id="node2" class="node"><title>Node2</title>
<g id="a_node2"><a xlink:href="../../d0/d3f/classprolog_1_1terms_1_1Const.html" target="_top" xlink:title="Symbolic constant, of arity 0. ">
<polygon fill="none" stroke="black" points="7.5,-105.5 7.5,-316.5 107.5,-316.5 107.5,-105.5 7.5,-105.5"/>
<text text-anchor="middle" x="57.5" y="-304.5" font-family="Helvetica,sans-Serif" font-size="10.00">prolog.terms.Const</text>
<polyline fill="none" stroke="black" points="7.5,-297.5 107.5,-297.5 "/>
<text text-anchor="start" x="15.5" y="-285.5" font-family="Helvetica,sans-Serif" font-size="10.00">+ aNil</text>
<text text-anchor="start" x="15.5" y="-274.5" font-family="Helvetica,sans-Serif" font-size="10.00">+ aTrue</text>
<text text-anchor="start" x="15.5" y="-263.5" font-family="Helvetica,sans-Serif" font-size="10.00">+ aFail</text>
<text text-anchor="start" x="15.5" y="-252.5" font-family="Helvetica,sans-Serif" font-size="10.00">+ aYes</text>
<text text-anchor="start" x="15.5" y="-241.5" font-family="Helvetica,sans-Serif" font-size="10.00">+ aNo</text>
<text text-anchor="start" x="15.5" y="-230.5" font-family="Helvetica,sans-Serif" font-size="10.00">+ anEof</text>
<text text-anchor="start" x="15.5" y="-219.5" font-family="Helvetica,sans-Serif" font-size="10.00">&#45; sym</text>
<polyline fill="none" stroke="black" points="7.5,-212.5 107.5,-212.5 "/>
<text text-anchor="start" x="15.5" y="-200.5" font-family="Helvetica,sans-Serif" font-size="10.00">+ Const()</text>
<text text-anchor="start" x="15.5" y="-189.5" font-family="Helvetica,sans-Serif" font-size="10.00">+ name()</text>
<text text-anchor="start" x="15.5" y="-178.5" font-family="Helvetica,sans-Serif" font-size="10.00">+ qname()</text>
<text text-anchor="start" x="15.5" y="-167.5" font-family="Helvetica,sans-Serif" font-size="10.00">+ toString()</text>
<text text-anchor="start" x="15.5" y="-156.5" font-family="Helvetica,sans-Serif" font-size="10.00">+ getKey()</text>
<text text-anchor="start" x="15.5" y="-145.5" font-family="Helvetica,sans-Serif" font-size="10.00">+ getArity()</text>
<text text-anchor="start" x="15.5" y="-134.5" font-family="Helvetica,sans-Serif" font-size="10.00">+ toUnquoted()</text>
<text text-anchor="start" x="15.5" y="-123.5" font-family="Helvetica,sans-Serif" font-size="10.00">+ the()</text>
<text text-anchor="start" x="15.5" y="-112.5" font-family="Helvetica,sans-Serif" font-size="10.00">~ bind_to()</text>
</a>
</g>
</g>
<!-- Node2&#45;&gt;Node1 -->
<g id="edge1" class="edge"><title>Node2&#45;&gt;Node1</title>
<path fill="none" stroke="midnightblue" d="M57.5,-95.3845C57.5,-85.8535 57.5,-76.8073 57.5,-68.7682"/>
<polygon fill="none" stroke="midnightblue" points="54.0001,-95.4703 57.5,-105.47 61.0001,-95.4704 54.0001,-95.4703"/>
</g>
<!-- Node3 -->
<g id="node3" class="node"><title>Node3</title>
<g id="a_node3"><a xlink:href="../../d4/de0/classprolog_1_1terms_1_1Nonvar.html" target="_top" xlink:title="Part of the Prolog Term hierarchy. ">
<polygon fill="none" stroke="black" points="5,-353.5 5,-443.5 110,-443.5 110,-353.5 5,-353.5"/>
<text text-anchor="middle" x="57.5" y="-431.5" font-family="Helvetica,sans-Serif" font-size="10.00">prolog.terms.Nonvar</text>
<polyline fill="none" stroke="black" points="5,-424.5 110,-424.5 "/>
<text text-anchor="middle" x="57.5" y="-412.5" font-family="Helvetica,sans-Serif" font-size="10.00"> </text>
<polyline fill="none" stroke="black" points="5,-405.5 110,-405.5 "/>
<text text-anchor="start" x="13" y="-393.5" font-family="Helvetica,sans-Serif" font-size="10.00">+ name()</text>
<text text-anchor="start" x="13" y="-382.5" font-family="Helvetica,sans-Serif" font-size="10.00">~ bind_to()</text>
<text text-anchor="start" x="13" y="-371.5" font-family="Helvetica,sans-Serif" font-size="10.00">~ unify_to()</text>
<text text-anchor="start" x="13" y="-360.5" font-family="Helvetica,sans-Serif" font-size="10.00">~ listify()</text>
</a>
</g>
</g>
<!-- Node3&#45;&gt;Node2 -->
<g id="edge2" class="edge"><title>Node3&#45;&gt;Node2</title>
<path fill="none" stroke="midnightblue" d="M57.5,-342.824C57.5,-334.508 57.5,-325.698 57.5,-316.736"/>
<polygon fill="none" stroke="midnightblue" points="54.0001,-343.068 57.5,-353.068 61.0001,-343.068 54.0001,-343.068"/>
</g>
<!-- Node4 -->
<g id="node4" class="node"><title>Node4</title>
<g id="a_node4"><a xlink:href="../../d3/ded/classprolog_1_1terms_1_1Term.html" target="_top" xlink:title="Top element of the Prolog term hierarchy. ">
<polygon fill="none" stroke="black" points="8.5,-480.5 8.5,-834.5 106.5,-834.5 106.5,-480.5 8.5,-480.5"/>
<text text-anchor="middle" x="57.5" y="-822.5" font-family="Helvetica,sans-Serif" font-size="10.00">prolog.terms.Term</text>
<polyline fill="none" stroke="black" points="8.5,-815.5 106.5,-815.5 "/>
<text text-anchor="start" x="16.5" y="-803.5" font-family="Helvetica,sans-Serif" font-size="10.00">+ JAVA</text>
<text text-anchor="start" x="16.5" y="-792.5" font-family="Helvetica,sans-Serif" font-size="10.00">+ REAL</text>
<text text-anchor="start" x="16.5" y="-781.5" font-family="Helvetica,sans-Serif" font-size="10.00">+ INT</text>
<text text-anchor="start" x="16.5" y="-770.5" font-family="Helvetica,sans-Serif" font-size="10.00">+ VAR</text>
<text text-anchor="start" x="16.5" y="-759.5" font-family="Helvetica,sans-Serif" font-size="10.00">+ CONST</text>
<polyline fill="none" stroke="black" points="8.5,-752.5 106.5,-752.5 "/>
<text text-anchor="start" x="16.5" y="-740.5" font-family="Helvetica,sans-Serif" font-size="10.00">+ getArity()</text>
<text text-anchor="start" x="16.5" y="-729.5" font-family="Helvetica,sans-Serif" font-size="10.00">+ ref()</text>
<text text-anchor="start" x="16.5" y="-718.5" font-family="Helvetica,sans-Serif" font-size="10.00">+ token()</text>
<text text-anchor="start" x="16.5" y="-707.5" font-family="Helvetica,sans-Serif" font-size="10.00">+ toClause()</text>
<text text-anchor="start" x="16.5" y="-696.5" font-family="Helvetica,sans-Serif" font-size="10.00">+ matches()</text>
<text text-anchor="start" x="16.5" y="-685.5" font-family="Helvetica,sans-Serif" font-size="10.00">+ matches()</text>
<text text-anchor="start" x="16.5" y="-674.5" font-family="Helvetica,sans-Serif" font-size="10.00">+ matching_copy()</text>
<text text-anchor="start" x="16.5" y="-663.5" font-family="Helvetica,sans-Serif" font-size="10.00">+ copy()</text>
<text text-anchor="start" x="16.5" y="-652.5" font-family="Helvetica,sans-Serif" font-size="10.00">+ varsOf()</text>
<text text-anchor="start" x="16.5" y="-641.5" font-family="Helvetica,sans-Serif" font-size="10.00">+ numbervars()</text>
<text text-anchor="start" x="16.5" y="-630.5" font-family="Helvetica,sans-Serif" font-size="10.00">and 6 more...</text>
<text text-anchor="start" x="16.5" y="-619.5" font-family="Helvetica,sans-Serif" font-size="10.00">+ fromString()</text>
<text text-anchor="start" x="16.5" y="-608.5" font-family="Helvetica,sans-Serif" font-size="10.00">+ charsToString()</text>
<text text-anchor="start" x="16.5" y="-597.5" font-family="Helvetica,sans-Serif" font-size="10.00">~ bind_to()</text>
<text text-anchor="start" x="16.5" y="-586.5" font-family="Helvetica,sans-Serif" font-size="10.00">~ unify_to()</text>
<text text-anchor="start" x="16.5" y="-575.5" font-family="Helvetica,sans-Serif" font-size="10.00">~ toTerm()</text>
<text text-anchor="start" x="16.5" y="-564.5" font-family="Helvetica,sans-Serif" font-size="10.00">~ isClause()</text>
<text text-anchor="start" x="16.5" y="-553.5" font-family="Helvetica,sans-Serif" font-size="10.00">~ reaction()</text>
<text text-anchor="start" x="16.5" y="-542.5" font-family="Helvetica,sans-Serif" font-size="10.00">~ action()</text>
<text text-anchor="start" x="16.5" y="-531.5" font-family="Helvetica,sans-Serif" font-size="10.00">~ exec()</text>
<text text-anchor="start" x="16.5" y="-520.5" font-family="Helvetica,sans-Serif" font-size="10.00">~ stringToChars()</text>
<text text-anchor="start" x="16.5" y="-509.5" font-family="Helvetica,sans-Serif" font-size="10.00"># unify()</text>
<text text-anchor="start" x="16.5" y="-498.5" font-family="Helvetica,sans-Serif" font-size="10.00"># undo()</text>
<text text-anchor="start" x="16.5" y="-487.5" font-family="Helvetica,sans-Serif" font-size="10.00"># exec()</text>
</a>
</g>
</g>
<!-- Node4&#45;&gt;Node3 -->
<g id="edge3" class="edge"><title>Node4&#45;&gt;Node3</title>
<path fill="none" stroke="midnightblue" d="M57.5,-470.431C57.5,-460.975 57.5,-452.043 57.5,-443.912"/>
<polygon fill="none" stroke="midnightblue" points="54.0001,-470.464 57.5,-480.464 61.0001,-470.464 54.0001,-470.464"/>
</g>
<!-- Node5 -->
<g id="node5" class="node"><title>Node5</title>
<polygon fill="none" stroke="#bfbfbf" points="0,-871.5 0,-928.5 45,-928.5 45,-871.5 0,-871.5"/>
<text text-anchor="middle" x="22.5" y="-916.5" font-family="Helvetica,sans-Serif" font-size="10.00">Object</text>
<polyline fill="none" stroke="#bfbfbf" points="0,-909.5 45,-909.5 "/>
<text text-anchor="middle" x="22.5" y="-897.5" font-family="Helvetica,sans-Serif" font-size="10.00"> </text>
<polyline fill="none" stroke="#bfbfbf" points="0,-890.5 45,-890.5 "/>
<text text-anchor="middle" x="22.5" y="-878.5" font-family="Helvetica,sans-Serif" font-size="10.00"> </text>
</g>
<!-- Node5&#45;&gt;Node4 -->
<g id="edge4" class="edge"><title>Node5&#45;&gt;Node4</title>
<path fill="none" stroke="midnightblue" d="M27.9653,-861.446C29.1323,-853.426 30.4379,-844.455 31.8327,-834.871"/>
<polygon fill="none" stroke="midnightblue" points="24.4916,-861.012 26.5149,-871.412 31.4187,-862.02 24.4916,-861.012"/>
</g>
<!-- Node6 -->
<g id="node6" class="node"><title>Node6</title>
<polygon fill="none" stroke="#bfbfbf" points="63.5,-871.5 63.5,-928.5 123.5,-928.5 123.5,-871.5 63.5,-871.5"/>
<text text-anchor="middle" x="93.5" y="-916.5" font-family="Helvetica,sans-Serif" font-size="10.00">Cloneable</text>
<polyline fill="none" stroke="#bfbfbf" points="63.5,-909.5 123.5,-909.5 "/>
<text text-anchor="middle" x="93.5" y="-897.5" font-family="Helvetica,sans-Serif" font-size="10.00"> </text>
<polyline fill="none" stroke="#bfbfbf" points="63.5,-890.5 123.5,-890.5 "/>
<text text-anchor="middle" x="93.5" y="-878.5" font-family="Helvetica,sans-Serif" font-size="10.00"> </text>
</g>
<!-- Node6&#45;&gt;Node4 -->
<g id="edge5" class="edge"><title>Node6&#45;&gt;Node4</title>
<path fill="none" stroke="midnightblue" d="M87.8786,-861.446C86.6782,-853.426 85.3353,-844.455 83.9007,-834.871"/>
<polygon fill="none" stroke="midnightblue" points="84.4284,-862.04 89.3703,-871.412 91.3513,-861.004 84.4284,-862.04"/>
</g>
</g>
</svg>
