<?xml version="1.0" encoding="UTF-8" standalone="no"?>
<!DOCTYPE svg PUBLIC "-//W3C//DTD SVG 1.1//EN"
 "http://www.w3.org/Graphics/SVG/1.1/DTD/svg11.dtd">
<!-- Generated by graphviz version 2.38.0 (20140413.2041)
 -->
<!-- Title: prolog.builtins.set_max_answers.exec Pages: 1 -->
<svg width="588pt" height="39pt"
 viewBox="0.00 0.00 588.00 39.00" xmlns="http://www.w3.org/2000/svg" xmlns:xlink="http://www.w3.org/1999/xlink">
<g id="graph0" class="graph" transform="scale(1 1) rotate(0) translate(4 35)">
<title>prolog.builtins.set_max_answers.exec</title>
<!-- Node1 -->
<g id="node1" class="node"><title>Node1</title>
<polygon fill="#bfbfbf" stroke="black" points="0,-0.5 0,-30.5 107,-30.5 107,-0.5 0,-0.5"/>
<text text-anchor="start" x="8" y="-18.5" font-family="Helvetica,sans-Serif" font-size="10.00">prolog.builtins.set</text>
<text text-anchor="middle" x="53.5" y="-7.5" font-family="Helvetica,sans-Serif" font-size="10.00">_max_answers.exec</text>
</g>
<!-- Node2 -->
<g id="node2" class="node"><title>Node2</title>
<g id="a_node2"><a xlink:href="../../de/d8d/classprolog_1_1terms_1_1Fun_a5f3eb69aa2e809615f0eec1bc33b9d82.html#a5f3eb69aa2e809615f0eec1bc33b9d82" target="_top" xlink:title="prolog.terms.Fun.getIntArg">
<polygon fill="none" stroke="black" points="143,-6 143,-25 276,-25 276,-6 143,-6"/>
<text text-anchor="middle" x="209.5" y="-13" font-family="Helvetica,sans-Serif" font-size="10.00">prolog.terms.Fun.getIntArg</text>
</a>
</g>
</g>
<!-- Node1&#45;&gt;Node2 -->
<g id="edge1" class="edge"><title>Node1&#45;&gt;Node2</title>
<path fill="none" stroke="midnightblue" d="M107.067,-15.5C115.334,-15.5 124.02,-15.5 132.686,-15.5"/>
<polygon fill="midnightblue" stroke="midnightblue" points="132.824,-19.0001 142.824,-15.5 132.824,-12.0001 132.824,-19.0001"/>
</g>
<!-- Node3 -->
<g id="node3" class="node"><title>Node3</title>
<g id="a_node3"><a xlink:href="../../de/d8d/classprolog_1_1terms_1_1Fun_a95f487cd7555adbc0ae1a08076a0404d.html#a95f487cd7555adbc0ae1a08076a0404d" target="_top" xlink:title="prolog.terms.Fun.getArg">
<polygon fill="none" stroke="black" points="312,-6 312,-25 434,-25 434,-6 312,-6"/>
<text text-anchor="middle" x="373" y="-13" font-family="Helvetica,sans-Serif" font-size="10.00">prolog.terms.Fun.getArg</text>
</a>
</g>
</g>
<!-- Node2&#45;&gt;Node3 -->
<g id="edge2" class="edge"><title>Node2&#45;&gt;Node3</title>
<path fill="none" stroke="midnightblue" d="M276.188,-15.5C284.57,-15.5 293.176,-15.5 301.627,-15.5"/>
<polygon fill="midnightblue" stroke="midnightblue" points="301.835,-19.0001 311.835,-15.5 301.835,-12.0001 301.835,-19.0001"/>
</g>
<!-- Node4 -->
<g id="node4" class="node"><title>Node4</title>
<g id="a_node4"><a xlink:href="../../d3/ded/classprolog_1_1terms_1_1Term_ae140fac2c9d066dc897fcfa723060a7a.html#ae140fac2c9d066dc897fcfa723060a7a" target="_top" xlink:title="Dereferences if necessary. ">
<polygon fill="none" stroke="black" points="470,-6 470,-25 580,-25 580,-6 470,-6"/>
<text text-anchor="middle" x="525" y="-13" font-family="Helvetica,sans-Serif" font-size="10.00">prolog.terms.Term.ref</text>
</a>
</g>
</g>
<!-- Node3&#45;&gt;Node4 -->
<g id="edge3" class="edge"><title>Node3&#45;&gt;Node4</title>
<path fill="none" stroke="midnightblue" d="M434.146,-15.5C442.491,-15.5 451.09,-15.5 459.51,-15.5"/>
<polygon fill="midnightblue" stroke="midnightblue" points="459.661,-19.0001 469.661,-15.5 459.661,-12.0001 459.661,-19.0001"/>
</g>
</g>
</svg>
