<?xml version="1.0" encoding="UTF-8" standalone="no"?>
<!DOCTYPE svg PUBLIC "-//W3C//DTD SVG 1.1//EN"
 "http://www.w3.org/Graphics/SVG/1.1/DTD/svg11.dtd">
<!-- Generated by graphviz version 2.38.0 (20140413.2041)
 -->
<!-- Title: prolog.fluents.SourceMerger Pages: 1 -->
<svg width="147pt" height="1252pt"
 viewBox="0.00 0.00 147.00 1252.00" xmlns="http://www.w3.org/2000/svg" xmlns:xlink="http://www.w3.org/1999/xlink">
<g id="graph0" class="graph" transform="scale(1 1) rotate(0) translate(4 1248)">
<title>prolog.fluents.SourceMerger</title>
<!-- Node1 -->
<g id="node1" class="node"><title>Node1</title>
<polygon fill="#bfbfbf" stroke="black" points="0,-0.5 0,-68.5 139,-68.5 139,-0.5 0,-0.5"/>
<text text-anchor="middle" x="69.5" y="-56.5" font-family="Helvetica,sans-Serif" font-size="10.00">prolog.fluents.SourceMerger</text>
<polyline fill="none" stroke="black" points="0,-49.5 139,-49.5 "/>
<text text-anchor="start" x="8" y="-37.5" font-family="Helvetica,sans-Serif" font-size="10.00">&#45; Q</text>
<polyline fill="none" stroke="black" points="0,-30.5 139,-30.5 "/>
<text text-anchor="start" x="8" y="-18.5" font-family="Helvetica,sans-Serif" font-size="10.00">+ SourceMerger()</text>
<text text-anchor="start" x="8" y="-7.5" font-family="Helvetica,sans-Serif" font-size="10.00">+ getElement()</text>
</g>
<!-- Node2 -->
<g id="node2" class="node"><title>Node2</title>
<g id="a_node2"><a xlink:href="../../d3/d7c/classprolog_1_1fluents_1_1JavaSource.html" target="_top" xlink:title="Builds Prolog Iterators from Java Sequences and Iterator type classes. ">
<polygon fill="none" stroke="black" points="4.5,-105.5 4.5,-206.5 134.5,-206.5 134.5,-105.5 4.5,-105.5"/>
<text text-anchor="middle" x="69.5" y="-194.5" font-family="Helvetica,sans-Serif" font-size="10.00">prolog.fluents.JavaSource</text>
<polyline fill="none" stroke="black" points="4.5,-187.5 134.5,-187.5 "/>
<text text-anchor="start" x="12.5" y="-175.5" font-family="Helvetica,sans-Serif" font-size="10.00">&#45; e</text>
<polyline fill="none" stroke="black" points="4.5,-168.5 134.5,-168.5 "/>
<text text-anchor="start" x="12.5" y="-156.5" font-family="Helvetica,sans-Serif" font-size="10.00">+ JavaSource()</text>
<text text-anchor="start" x="12.5" y="-145.5" font-family="Helvetica,sans-Serif" font-size="10.00">+ JavaSource()</text>
<text text-anchor="start" x="12.5" y="-134.5" font-family="Helvetica,sans-Serif" font-size="10.00">+ JavaSource()</text>
<text text-anchor="start" x="12.5" y="-123.5" font-family="Helvetica,sans-Serif" font-size="10.00">+ getElement()</text>
<text text-anchor="start" x="12.5" y="-112.5" font-family="Helvetica,sans-Serif" font-size="10.00">+ stop()</text>
</a>
</g>
</g>
<!-- Node2&#45;&gt;Node1 -->
<g id="edge1" class="edge"><title>Node2&#45;&gt;Node1</title>
<path fill="none" stroke="midnightblue" d="M69.5,-95.1717C69.5,-86.1099 69.5,-77.0504 69.5,-68.8271"/>
<polygon fill="none" stroke="midnightblue" points="66.0001,-95.3594 69.5,-105.359 73.0001,-95.3594 66.0001,-95.3594"/>
</g>
<!-- Node3 -->
<g id="node3" class="node"><title>Node3</title>
<g id="a_node3"><a xlink:href="../../d2/d07/classprolog_1_1terms_1_1Source.html" target="_top" xlink:title="{prolog.terms.Source\n||+ Source()\l+ getElement()\l+ toList()\l+ toFun()\l}">
<polygon fill="none" stroke="black" points="17.5,-243.5 17.5,-333.5 121.5,-333.5 121.5,-243.5 17.5,-243.5"/>
<text text-anchor="middle" x="69.5" y="-321.5" font-family="Helvetica,sans-Serif" font-size="10.00">prolog.terms.Source</text>
<polyline fill="none" stroke="black" points="17.5,-314.5 121.5,-314.5 "/>
<text text-anchor="middle" x="69.5" y="-302.5" font-family="Helvetica,sans-Serif" font-size="10.00"> </text>
<polyline fill="none" stroke="black" points="17.5,-295.5 121.5,-295.5 "/>
<text text-anchor="start" x="25.5" y="-283.5" font-family="Helvetica,sans-Serif" font-size="10.00">+ Source()</text>
<text text-anchor="start" x="25.5" y="-272.5" font-family="Helvetica,sans-Serif" font-size="10.00">+ getElement()</text>
<text text-anchor="start" x="25.5" y="-261.5" font-family="Helvetica,sans-Serif" font-size="10.00">+ toList()</text>
<text text-anchor="start" x="25.5" y="-250.5" font-family="Helvetica,sans-Serif" font-size="10.00">+ toFun()</text>
</a>
</g>
</g>
<!-- Node3&#45;&gt;Node2 -->
<g id="edge2" class="edge"><title>Node3&#45;&gt;Node2</title>
<path fill="none" stroke="midnightblue" d="M69.5,-233.131C69.5,-224.311 69.5,-215.219 69.5,-206.523"/>
<polygon fill="none" stroke="midnightblue" points="66.0001,-233.319 69.5,-243.319 73.0001,-233.319 66.0001,-233.319"/>
</g>
<!-- Node4 -->
<g id="node4" class="node"><title>Node4</title>
<g id="a_node4"><a xlink:href="../../d9/d3b/classprolog_1_1terms_1_1Fluent.html" target="_top" xlink:title="A Fluent is a Prolog Object which has its own state, subject to changes over time. ">
<polygon fill="none" stroke="black" points="19,-370.5 19,-482.5 120,-482.5 120,-370.5 19,-370.5"/>
<text text-anchor="middle" x="69.5" y="-470.5" font-family="Helvetica,sans-Serif" font-size="10.00">prolog.terms.Fluent</text>
<polyline fill="none" stroke="black" points="19,-463.5 120,-463.5 "/>
<text text-anchor="start" x="27" y="-451.5" font-family="Helvetica,sans-Serif" font-size="10.00">&#45; persistent</text>
<polyline fill="none" stroke="black" points="19,-444.5 120,-444.5 "/>
<text text-anchor="start" x="27" y="-432.5" font-family="Helvetica,sans-Serif" font-size="10.00">+ Fluent()</text>
<text text-anchor="start" x="27" y="-421.5" font-family="Helvetica,sans-Serif" font-size="10.00">+ setPersistent()</text>
<text text-anchor="start" x="27" y="-410.5" font-family="Helvetica,sans-Serif" font-size="10.00">+ getPersistent()</text>
<text text-anchor="start" x="27" y="-399.5" font-family="Helvetica,sans-Serif" font-size="10.00">+ stop()</text>
<text text-anchor="start" x="27" y="-388.5" font-family="Helvetica,sans-Serif" font-size="10.00"># trailMe()</text>
<text text-anchor="start" x="27" y="-377.5" font-family="Helvetica,sans-Serif" font-size="10.00"># undo()</text>
</a>
</g>
</g>
<!-- Node4&#45;&gt;Node3 -->
<g id="edge3" class="edge"><title>Node4&#45;&gt;Node3</title>
<path fill="none" stroke="midnightblue" d="M69.5,-360.076C69.5,-351.072 69.5,-342.007 69.5,-333.514"/>
<polygon fill="none" stroke="midnightblue" points="66.0001,-360.184 69.5,-370.184 73.0001,-360.184 66.0001,-360.184"/>
</g>
<!-- Node5 -->
<g id="node5" class="node"><title>Node5</title>
<g id="a_node5"><a xlink:href="../../d6/dc1/classprolog_1_1terms_1_1SystemObject.html" target="_top" xlink:title="A SystemObject is a Nonvar with system assigned name. ">
<polygon fill="none" stroke="black" points="1.5,-519.5 1.5,-631.5 137.5,-631.5 137.5,-519.5 1.5,-519.5"/>
<text text-anchor="middle" x="69.5" y="-619.5" font-family="Helvetica,sans-Serif" font-size="10.00">prolog.terms.SystemObject</text>
<polyline fill="none" stroke="black" points="1.5,-612.5 137.5,-612.5 "/>
<text text-anchor="start" x="9.5" y="-600.5" font-family="Helvetica,sans-Serif" font-size="10.00">~ ctr</text>
<text text-anchor="start" x="9.5" y="-589.5" font-family="Helvetica,sans-Serif" font-size="10.00">&#45; ordinal</text>
<polyline fill="none" stroke="black" points="1.5,-582.5 137.5,-582.5 "/>
<text text-anchor="start" x="9.5" y="-570.5" font-family="Helvetica,sans-Serif" font-size="10.00">+ SystemObject()</text>
<text text-anchor="start" x="9.5" y="-559.5" font-family="Helvetica,sans-Serif" font-size="10.00">+ name()</text>
<text text-anchor="start" x="9.5" y="-548.5" font-family="Helvetica,sans-Serif" font-size="10.00">+ toString()</text>
<text text-anchor="start" x="9.5" y="-537.5" font-family="Helvetica,sans-Serif" font-size="10.00">+ getArity()</text>
<text text-anchor="start" x="9.5" y="-526.5" font-family="Helvetica,sans-Serif" font-size="10.00">~ bind_to()</text>
</a>
</g>
</g>
<!-- Node5&#45;&gt;Node4 -->
<g id="edge4" class="edge"><title>Node5&#45;&gt;Node4</title>
<path fill="none" stroke="midnightblue" d="M69.5,-509.176C69.5,-500.427 69.5,-491.522 69.5,-482.965"/>
<polygon fill="none" stroke="midnightblue" points="66.0001,-509.344 69.5,-519.344 73.0001,-509.344 66.0001,-509.344"/>
</g>
<!-- Node6 -->
<g id="node6" class="node"><title>Node6</title>
<g id="a_node6"><a xlink:href="../../d4/de0/classprolog_1_1terms_1_1Nonvar.html" target="_top" xlink:title="Part of the Prolog Term hierarchy. ">
<polygon fill="none" stroke="black" points="17,-668.5 17,-758.5 122,-758.5 122,-668.5 17,-668.5"/>
<text text-anchor="middle" x="69.5" y="-746.5" font-family="Helvetica,sans-Serif" font-size="10.00">prolog.terms.Nonvar</text>
<polyline fill="none" stroke="black" points="17,-739.5 122,-739.5 "/>
<text text-anchor="middle" x="69.5" y="-727.5" font-family="Helvetica,sans-Serif" font-size="10.00"> </text>
<polyline fill="none" stroke="black" points="17,-720.5 122,-720.5 "/>
<text text-anchor="start" x="25" y="-708.5" font-family="Helvetica,sans-Serif" font-size="10.00">+ name()</text>
<text text-anchor="start" x="25" y="-697.5" font-family="Helvetica,sans-Serif" font-size="10.00">~ bind_to()</text>
<text text-anchor="start" x="25" y="-686.5" font-family="Helvetica,sans-Serif" font-size="10.00">~ unify_to()</text>
<text text-anchor="start" x="25" y="-675.5" font-family="Helvetica,sans-Serif" font-size="10.00">~ listify()</text>
</a>
</g>
</g>
<!-- Node6&#45;&gt;Node5 -->
<g id="edge5" class="edge"><title>Node6&#45;&gt;Node5</title>
<path fill="none" stroke="midnightblue" d="M69.5,-658.312C69.5,-649.611 69.5,-640.595 69.5,-631.867"/>
<polygon fill="none" stroke="midnightblue" points="66.0001,-658.345 69.5,-668.345 73.0001,-658.345 66.0001,-658.345"/>
</g>
<!-- Node7 -->
<g id="node7" class="node"><title>Node7</title>
<g id="a_node7"><a xlink:href="../../d3/ded/classprolog_1_1terms_1_1Term.html" target="_top" xlink:title="Top element of the Prolog term hierarchy. ">
<polygon fill="none" stroke="black" points="20.5,-795.5 20.5,-1149.5 118.5,-1149.5 118.5,-795.5 20.5,-795.5"/>
<text text-anchor="middle" x="69.5" y="-1137.5" font-family="Helvetica,sans-Serif" font-size="10.00">prolog.terms.Term</text>
<polyline fill="none" stroke="black" points="20.5,-1130.5 118.5,-1130.5 "/>
<text text-anchor="start" x="28.5" y="-1118.5" font-family="Helvetica,sans-Serif" font-size="10.00">+ JAVA</text>
<text text-anchor="start" x="28.5" y="-1107.5" font-family="Helvetica,sans-Serif" font-size="10.00">+ REAL</text>
<text text-anchor="start" x="28.5" y="-1096.5" font-family="Helvetica,sans-Serif" font-size="10.00">+ INT</text>
<text text-anchor="start" x="28.5" y="-1085.5" font-family="Helvetica,sans-Serif" font-size="10.00">+ VAR</text>
<text text-anchor="start" x="28.5" y="-1074.5" font-family="Helvetica,sans-Serif" font-size="10.00">+ CONST</text>
<polyline fill="none" stroke="black" points="20.5,-1067.5 118.5,-1067.5 "/>
<text text-anchor="start" x="28.5" y="-1055.5" font-family="Helvetica,sans-Serif" font-size="10.00">+ getArity()</text>
<text text-anchor="start" x="28.5" y="-1044.5" font-family="Helvetica,sans-Serif" font-size="10.00">+ ref()</text>
<text text-anchor="start" x="28.5" y="-1033.5" font-family="Helvetica,sans-Serif" font-size="10.00">+ token()</text>
<text text-anchor="start" x="28.5" y="-1022.5" font-family="Helvetica,sans-Serif" font-size="10.00">+ toClause()</text>
<text text-anchor="start" x="28.5" y="-1011.5" font-family="Helvetica,sans-Serif" font-size="10.00">+ matches()</text>
<text text-anchor="start" x="28.5" y="-1000.5" font-family="Helvetica,sans-Serif" font-size="10.00">+ matches()</text>
<text text-anchor="start" x="28.5" y="-989.5" font-family="Helvetica,sans-Serif" font-size="10.00">+ matching_copy()</text>
<text text-anchor="start" x="28.5" y="-978.5" font-family="Helvetica,sans-Serif" font-size="10.00">+ copy()</text>
<text text-anchor="start" x="28.5" y="-967.5" font-family="Helvetica,sans-Serif" font-size="10.00">+ varsOf()</text>
<text text-anchor="start" x="28.5" y="-956.5" font-family="Helvetica,sans-Serif" font-size="10.00">+ numbervars()</text>
<text text-anchor="start" x="28.5" y="-945.5" font-family="Helvetica,sans-Serif" font-size="10.00">and 6 more...</text>
<text text-anchor="start" x="28.5" y="-934.5" font-family="Helvetica,sans-Serif" font-size="10.00">+ fromString()</text>
<text text-anchor="start" x="28.5" y="-923.5" font-family="Helvetica,sans-Serif" font-size="10.00">+ charsToString()</text>
<text text-anchor="start" x="28.5" y="-912.5" font-family="Helvetica,sans-Serif" font-size="10.00">~ bind_to()</text>
<text text-anchor="start" x="28.5" y="-901.5" font-family="Helvetica,sans-Serif" font-size="10.00">~ unify_to()</text>
<text text-anchor="start" x="28.5" y="-890.5" font-family="Helvetica,sans-Serif" font-size="10.00">~ toTerm()</text>
<text text-anchor="start" x="28.5" y="-879.5" font-family="Helvetica,sans-Serif" font-size="10.00">~ isClause()</text>
<text text-anchor="start" x="28.5" y="-868.5" font-family="Helvetica,sans-Serif" font-size="10.00">~ reaction()</text>
<text text-anchor="start" x="28.5" y="-857.5" font-family="Helvetica,sans-Serif" font-size="10.00">~ action()</text>
<text text-anchor="start" x="28.5" y="-846.5" font-family="Helvetica,sans-Serif" font-size="10.00">~ exec()</text>
<text text-anchor="start" x="28.5" y="-835.5" font-family="Helvetica,sans-Serif" font-size="10.00">~ stringToChars()</text>
<text text-anchor="start" x="28.5" y="-824.5" font-family="Helvetica,sans-Serif" font-size="10.00"># unify()</text>
<text text-anchor="start" x="28.5" y="-813.5" font-family="Helvetica,sans-Serif" font-size="10.00"># undo()</text>
<text text-anchor="start" x="28.5" y="-802.5" font-family="Helvetica,sans-Serif" font-size="10.00"># exec()</text>
</a>
</g>
</g>
<!-- Node7&#45;&gt;Node6 -->
<g id="edge6" class="edge"><title>Node7&#45;&gt;Node6</title>
<path fill="none" stroke="midnightblue" d="M69.5,-785.431C69.5,-775.975 69.5,-767.043 69.5,-758.912"/>
<polygon fill="none" stroke="midnightblue" points="66.0001,-785.464 69.5,-795.464 73.0001,-785.464 66.0001,-785.464"/>
</g>
<!-- Node8 -->
<g id="node8" class="node"><title>Node8</title>
<polygon fill="none" stroke="#bfbfbf" points="12,-1186.5 12,-1243.5 57,-1243.5 57,-1186.5 12,-1186.5"/>
<text text-anchor="middle" x="34.5" y="-1231.5" font-family="Helvetica,sans-Serif" font-size="10.00">Object</text>
<polyline fill="none" stroke="#bfbfbf" points="12,-1224.5 57,-1224.5 "/>
<text text-anchor="middle" x="34.5" y="-1212.5" font-family="Helvetica,sans-Serif" font-size="10.00"> </text>
<polyline fill="none" stroke="#bfbfbf" points="12,-1205.5 57,-1205.5 "/>
<text text-anchor="middle" x="34.5" y="-1193.5" font-family="Helvetica,sans-Serif" font-size="10.00"> </text>
</g>
<!-- Node8&#45;&gt;Node7 -->
<g id="edge7" class="edge"><title>Node8&#45;&gt;Node7</title>
<path fill="none" stroke="midnightblue" d="M39.9653,-1176.45C41.1323,-1168.43 42.4379,-1159.46 43.8327,-1149.87"/>
<polygon fill="none" stroke="midnightblue" points="36.4916,-1176.01 38.5149,-1186.41 43.4187,-1177.02 36.4916,-1176.01"/>
</g>
<!-- Node9 -->
<g id="node9" class="node"><title>Node9</title>
<polygon fill="none" stroke="#bfbfbf" points="75.5,-1186.5 75.5,-1243.5 135.5,-1243.5 135.5,-1186.5 75.5,-1186.5"/>
<text text-anchor="middle" x="105.5" y="-1231.5" font-family="Helvetica,sans-Serif" font-size="10.00">Cloneable</text>
<polyline fill="none" stroke="#bfbfbf" points="75.5,-1224.5 135.5,-1224.5 "/>
<text text-anchor="middle" x="105.5" y="-1212.5" font-family="Helvetica,sans-Serif" font-size="10.00"> </text>
<polyline fill="none" stroke="#bfbfbf" points="75.5,-1205.5 135.5,-1205.5 "/>
<text text-anchor="middle" x="105.5" y="-1193.5" font-family="Helvetica,sans-Serif" font-size="10.00"> </text>
</g>
<!-- Node9&#45;&gt;Node7 -->
<g id="edge8" class="edge"><title>Node9&#45;&gt;Node7</title>
<path fill="none" stroke="midnightblue" d="M99.8786,-1176.45C98.6782,-1168.43 97.3353,-1159.46 95.9007,-1149.87"/>
<polygon fill="none" stroke="midnightblue" points="96.4284,-1177.04 101.37,-1186.41 103.351,-1176 96.4284,-1177.04"/>
</g>
</g>
</svg>
