<?xml version="1.0" encoding="UTF-8" standalone="no"?>
<!DOCTYPE svg PUBLIC "-//W3C//DTD SVG 1.1//EN"
 "http://www.w3.org/Graphics/SVG/1.1/DTD/svg11.dtd">
<!-- Generated by graphviz version 2.38.0 (20140413.2041)
 -->
<!-- Title: prolog.terms.Term.matching_copy Pages: 1 -->
<svg width="997pt" height="88pt"
 viewBox="0.00 0.00 997.00 88.00" xmlns="http://www.w3.org/2000/svg" xmlns:xlink="http://www.w3.org/1999/xlink">
<g id="graph0" class="graph" transform="scale(1 1) rotate(0) translate(4 84)">
<title>prolog.terms.Term.matching_copy</title>
<!-- Node1 -->
<g id="node1" class="node"><title>Node1</title>
<polygon fill="#bfbfbf" stroke="black" points="0,-30 0,-49 165,-49 165,-30 0,-30"/>
<text text-anchor="middle" x="82.5" y="-37" font-family="Helvetica,sans-Serif" font-size="10.00">prolog.terms.Term.matching_copy</text>
</g>
<!-- Node2 -->
<g id="node2" class="node"><title>Node2</title>
<g id="a_node2"><a xlink:href="../../da/dd9/classprolog_1_1fluents_1_1DataBase_a610cc1f35df4467fbb1fac1052091915.html#a610cc1f35df4467fbb1fac1052091915" target="_top" xlink:title="prolog.fluents.DataBase.all0">
<polygon fill="none" stroke="black" points="201,-30 201,-49 341,-49 341,-30 201,-30"/>
<text text-anchor="middle" x="271" y="-37" font-family="Helvetica,sans-Serif" font-size="10.00">prolog.fluents.DataBase.all0</text>
</a>
</g>
</g>
<!-- Node1&#45;&gt;Node2 -->
<g id="edge1" class="edge"><title>Node1&#45;&gt;Node2</title>
<path fill="none" stroke="midnightblue" d="M175.164,-39.5C183.819,-39.5 192.492,-39.5 200.885,-39.5"/>
<polygon fill="midnightblue" stroke="midnightblue" points="175.03,-36.0001 165.03,-39.5 175.03,-43.0001 175.03,-36.0001"/>
</g>
<!-- Node3 -->
<g id="node3" class="node"><title>Node3</title>
<g id="a_node3"><a xlink:href="../../da/dd9/classprolog_1_1fluents_1_1DataBase_a4b4a68ddd60d87276cd7f9befd237ad9.html#a4b4a68ddd60d87276cd7f9befd237ad9" target="_top" xlink:title="prolog.fluents.DataBase.all1">
<polygon fill="none" stroke="black" points="377,-49 377,-68 517,-68 517,-49 377,-49"/>
<text text-anchor="middle" x="447" y="-56" font-family="Helvetica,sans-Serif" font-size="10.00">prolog.fluents.DataBase.all1</text>
</a>
</g>
</g>
<!-- Node2&#45;&gt;Node3 -->
<g id="edge2" class="edge"><title>Node2&#45;&gt;Node3</title>
<path fill="none" stroke="midnightblue" d="M351.035,-48.1303C359.625,-49.0682 368.319,-50.0176 376.779,-50.9414"/>
<polygon fill="midnightblue" stroke="midnightblue" points="351.34,-44.6429 341.019,-47.0366 350.58,-51.6015 351.34,-44.6429"/>
</g>
<!-- Node4 -->
<g id="node4" class="node"><title>Node4</title>
<g id="a_node4"><a xlink:href="../../da/dd9/classprolog_1_1fluents_1_1DataBase_a16bb9f309e161ca656d8aef483ba7e5f.html#a16bb9f309e161ca656d8aef483ba7e5f" target="_top" xlink:title="prolog.fluents.DataBase.all2">
<polygon fill="none" stroke="black" points="553,-30 553,-49 693,-49 693,-30 553,-30"/>
<text text-anchor="middle" x="623" y="-37" font-family="Helvetica,sans-Serif" font-size="10.00">prolog.fluents.DataBase.all2</text>
</a>
</g>
</g>
<!-- Node2&#45;&gt;Node4 -->
<g id="edge7" class="edge"><title>Node2&#45;&gt;Node4</title>
<path fill="none" stroke="midnightblue" d="M351.456,-39.5C412.178,-39.5 495.032,-39.5 552.995,-39.5"/>
<polygon fill="midnightblue" stroke="midnightblue" points="351.149,-36.0001 341.149,-39.5 351.149,-43.0001 351.149,-36.0001"/>
</g>
<!-- Node3&#45;&gt;Node4 -->
<g id="edge3" class="edge"><title>Node3&#45;&gt;Node4</title>
<path fill="none" stroke="midnightblue" d="M527.035,-49.8697C535.625,-48.9318 544.319,-47.9824 552.779,-47.0586"/>
<polygon fill="midnightblue" stroke="midnightblue" points="526.58,-46.3985 517.019,-50.9634 527.34,-53.3571 526.58,-46.3985"/>
</g>
<!-- Node5 -->
<g id="node5" class="node"><title>Node5</title>
<g id="a_node5"><a xlink:href="../../da/dd9/classprolog_1_1fluents_1_1DataBase_ac93f1bf928f7e64f000726f764891ea9.html#ac93f1bf928f7e64f000726f764891ea9" target="_top" xlink:title="Returns a (possibly empty) list of matching Term objects. ">
<polygon fill="none" stroke="black" points="729,-30 729,-49 863,-49 863,-30 729,-30"/>
<text text-anchor="middle" x="796" y="-37" font-family="Helvetica,sans-Serif" font-size="10.00">prolog.fluents.DataBase.all</text>
</a>
</g>
</g>
<!-- Node4&#45;&gt;Node5 -->
<g id="edge4" class="edge"><title>Node4&#45;&gt;Node5</title>
<path fill="none" stroke="midnightblue" d="M703.074,-39.5C711.656,-39.5 720.325,-39.5 728.733,-39.5"/>
<polygon fill="midnightblue" stroke="midnightblue" points="703.059,-36.0001 693.059,-39.5 703.059,-43.0001 703.059,-36.0001"/>
</g>
<!-- Node6 -->
<g id="node6" class="node"><title>Node6</title>
<g id="a_node6"><a xlink:href="../../df/dfb/classprolog_1_1builtins_1_1db__collect_a2c65ced6ccab65917066acd22e05c2ee.html#a2c65ced6ccab65917066acd22e05c2ee" target="_top" xlink:title="prolog.builtins.db\l_collect.exec">
<polygon fill="none" stroke="black" points="899,-49.5 899,-79.5 989,-79.5 989,-49.5 899,-49.5"/>
<text text-anchor="start" x="907" y="-67.5" font-family="Helvetica,sans-Serif" font-size="10.00">prolog.builtins.db</text>
<text text-anchor="middle" x="944" y="-56.5" font-family="Helvetica,sans-Serif" font-size="10.00">_collect.exec</text>
</a>
</g>
</g>
<!-- Node5&#45;&gt;Node6 -->
<g id="edge5" class="edge"><title>Node5&#45;&gt;Node6</title>
<path fill="none" stroke="midnightblue" d="M862.786,-50.7647C875.009,-52.8577 887.505,-54.9974 898.884,-56.9459"/>
<polygon fill="midnightblue" stroke="midnightblue" points="863.06,-47.2608 852.613,-49.0227 861.879,-54.1604 863.06,-47.2608"/>
</g>
<!-- Node7 -->
<g id="node7" class="node"><title>Node7</title>
<g id="a_node7"><a xlink:href="../../de/db4/classprolog_1_1builtins_1_1at__key_acf52ce169f8e3b064dbca64fcf06fcab.html#acf52ce169f8e3b064dbca64fcf06fcab" target="_top" xlink:title="prolog.builtins.at\l_key.exec">
<polygon fill="none" stroke="black" points="900,-0.5 900,-30.5 988,-30.5 988,-0.5 900,-0.5"/>
<text text-anchor="start" x="908" y="-18.5" font-family="Helvetica,sans-Serif" font-size="10.00">prolog.builtins.at</text>
<text text-anchor="middle" x="944" y="-7.5" font-family="Helvetica,sans-Serif" font-size="10.00">_key.exec</text>
</a>
</g>
</g>
<!-- Node5&#45;&gt;Node7 -->
<g id="edge6" class="edge"><title>Node5&#45;&gt;Node7</title>
<path fill="none" stroke="midnightblue" d="M865.03,-28.3169C876.908,-26.3644 888.962,-24.383 899.926,-22.5806"/>
<polygon fill="midnightblue" stroke="midnightblue" points="864.422,-24.8698 855.123,-29.9456 865.558,-31.7771 864.422,-24.8698"/>
</g>
</g>
</svg>
