<?xml version="1.0" encoding="UTF-8" standalone="no"?>
<!DOCTYPE svg PUBLIC "-//W3C//DTD SVG 1.1//EN"
 "http://www.w3.org/Graphics/SVG/1.1/DTD/svg11.dtd">
<!-- Generated by graphviz version 2.38.0 (20140413.2041)
 -->
<!-- Title: prolog.terms.Term.bind_to Pages: 1 -->
<svg width="318pt" height="104pt"
 viewBox="0.00 0.00 318.00 104.00" xmlns="http://www.w3.org/2000/svg" xmlns:xlink="http://www.w3.org/1999/xlink">
<g id="graph0" class="graph" transform="scale(1 1) rotate(0) translate(4 100)">
<title>prolog.terms.Term.bind_to</title>
<!-- Node1 -->
<g id="node1" class="node"><title>Node1</title>
<polygon fill="#bfbfbf" stroke="black" points="0,-38.5 0,-57.5 131,-57.5 131,-38.5 0,-38.5"/>
<text text-anchor="middle" x="65.5" y="-45.5" font-family="Helvetica,sans-Serif" font-size="10.00">prolog.terms.Term.bind_to</text>
</g>
<!-- Node2 -->
<g id="node2" class="node"><title>Node2</title>
<g id="a_node2"><a xlink:href="../../d4/de0/classprolog_1_1terms_1_1Nonvar_a6933ed63df99016dbd1b69d842ec738c.html#a6933ed63df99016dbd1b69d842ec738c" target="_top" xlink:title="prolog.terms.Nonvar.unify_to">
<polygon fill="none" stroke="black" points="167,-76.5 167,-95.5 310,-95.5 310,-76.5 167,-76.5"/>
<text text-anchor="middle" x="238.5" y="-83.5" font-family="Helvetica,sans-Serif" font-size="10.00">prolog.terms.Nonvar.unify_to</text>
</a>
</g>
</g>
<!-- Node1&#45;&gt;Node2 -->
<g id="edge1" class="edge"><title>Node1&#45;&gt;Node2</title>
<path fill="none" stroke="midnightblue" d="M119.709,-59.8243C143.817,-65.1816 171.94,-71.4311 194.66,-76.4799"/>
<polygon fill="midnightblue" stroke="midnightblue" points="120.172,-56.3417 109.651,-57.589 118.653,-63.175 120.172,-56.3417"/>
</g>
<!-- Node3 -->
<g id="node3" class="node"><title>Node3</title>
<g id="a_node3"><a xlink:href="../../d1/d12/classprolog_1_1terms_1_1Var_adc67540985b9489fba3c9c34222aeb7d.html#adc67540985b9489fba3c9c34222aeb7d" target="_top" xlink:title="prolog.terms.Var.unify_to">
<polygon fill="none" stroke="black" points="175.5,-38.5 175.5,-57.5 301.5,-57.5 301.5,-38.5 175.5,-38.5"/>
<text text-anchor="middle" x="238.5" y="-45.5" font-family="Helvetica,sans-Serif" font-size="10.00">prolog.terms.Var.unify_to</text>
</a>
</g>
</g>
<!-- Node1&#45;&gt;Node3 -->
<g id="edge2" class="edge"><title>Node1&#45;&gt;Node3</title>
<path fill="none" stroke="midnightblue" d="M141.439,-48C152.747,-48 164.305,-48 175.306,-48"/>
<polygon fill="midnightblue" stroke="midnightblue" points="141.148,-44.5001 131.148,-48 141.148,-51.5001 141.148,-44.5001"/>
</g>
<!-- Node4 -->
<g id="node4" class="node"><title>Node4</title>
<g id="a_node4"><a xlink:href="../../de/d8d/classprolog_1_1terms_1_1Fun_a8effbc46f2c14d252bb5c68a399d96a8.html#a8effbc46f2c14d252bb5c68a399d96a8" target="_top" xlink:title="prolog.terms.Fun.unify_to">
<polygon fill="none" stroke="black" points="174.5,-0.5 174.5,-19.5 302.5,-19.5 302.5,-0.5 174.5,-0.5"/>
<text text-anchor="middle" x="238.5" y="-7.5" font-family="Helvetica,sans-Serif" font-size="10.00">prolog.terms.Fun.unify_to</text>
</a>
</g>
</g>
<!-- Node1&#45;&gt;Node4 -->
<g id="edge3" class="edge"><title>Node1&#45;&gt;Node4</title>
<path fill="none" stroke="midnightblue" d="M119.709,-36.1757C143.817,-30.8184 171.94,-24.5689 194.66,-19.5201"/>
<polygon fill="midnightblue" stroke="midnightblue" points="118.653,-32.825 109.651,-38.411 120.172,-39.6583 118.653,-32.825"/>
</g>
</g>
</svg>
