<?xml version="1.0" encoding="UTF-8" standalone="no"?>
<!DOCTYPE svg PUBLIC "-//W3C//DTD SVG 1.1//EN"
 "http://www.w3.org/Graphics/SVG/1.1/DTD/svg11.dtd">
<!-- Generated by graphviz version 2.38.0 (20140413.2041)
 -->
<!-- Title: prolog.terms.Term.matching_copy Pages: 1 -->
<svg width="678pt" height="180pt"
 viewBox="0.00 0.00 678.00 180.00" xmlns="http://www.w3.org/2000/svg" xmlns:xlink="http://www.w3.org/1999/xlink">
<g id="graph0" class="graph" transform="scale(1 1) rotate(0) translate(4 176)">
<title>prolog.terms.Term.matching_copy</title>
<!-- Node1 -->
<g id="node1" class="node"><title>Node1</title>
<polygon fill="#bfbfbf" stroke="black" points="0,-95.5 0,-114.5 165,-114.5 165,-95.5 0,-95.5"/>
<text text-anchor="middle" x="82.5" y="-102.5" font-family="Helvetica,sans-Serif" font-size="10.00">prolog.terms.Term.matching_copy</text>
</g>
<!-- Node2 -->
<g id="node2" class="node"><title>Node2</title>
<g id="a_node2"><a xlink:href="../../d3/ded/classprolog_1_1terms_1_1Term_a01e5a83e648ee3f89415c0142c4220d4.html#a01e5a83e648ee3f89415c0142c4220d4" target="_top" xlink:title="Returns a copy of a term with variables standardized apart (`fresh variables&#39;). ">
<polygon fill="none" stroke="black" points="204,-142.5 204,-161.5 324,-161.5 324,-142.5 204,-142.5"/>
<text text-anchor="middle" x="264" y="-149.5" font-family="Helvetica,sans-Serif" font-size="10.00">prolog.terms.Term.copy</text>
</a>
</g>
</g>
<!-- Node1&#45;&gt;Node2 -->
<g id="edge1" class="edge"><title>Node1&#45;&gt;Node2</title>
<path fill="none" stroke="midnightblue" d="M119.825,-114.511C147.712,-121.813 186.42,-131.948 216.558,-139.84"/>
<polygon fill="midnightblue" stroke="midnightblue" points="215.861,-143.275 226.422,-142.422 217.635,-136.504 215.861,-143.275"/>
</g>
<!-- Node5 -->
<g id="node5" class="node"><title>Node5</title>
<g id="a_node5"><a xlink:href="../../d3/ded/classprolog_1_1terms_1_1Term_a84d8fb7e1f816d0dbe3c2c56ed28fdb9.html#a84d8fb7e1f816d0dbe3c2c56ed28fdb9" target="_top" xlink:title="Dereference and unify_to. ">
<polygon fill="none" stroke="black" points="204,-95.5 204,-114.5 324,-114.5 324,-95.5 204,-95.5"/>
<text text-anchor="middle" x="264" y="-102.5" font-family="Helvetica,sans-Serif" font-size="10.00">prolog.terms.Term.unify</text>
</a>
</g>
</g>
<!-- Node1&#45;&gt;Node5 -->
<g id="edge4" class="edge"><title>Node1&#45;&gt;Node5</title>
<path fill="none" stroke="midnightblue" d="M165.109,-105C174.699,-105 184.413,-105 193.81,-105"/>
<polygon fill="midnightblue" stroke="midnightblue" points="193.861,-108.5 203.861,-105 193.861,-101.5 193.861,-108.5"/>
</g>
<!-- Node8 -->
<g id="node8" class="node"><title>Node8</title>
<g id="a_node8"><a xlink:href="../../dd/dad/classprolog_1_1terms_1_1Trail_adab6fa04fe8e0da6e1870bd1b37a654b.html#adab6fa04fe8e0da6e1870bd1b37a654b" target="_top" xlink:title="Used to undo bindings after unification, if we intend to leave no side effects. ">
<polygon fill="none" stroke="black" points="201,-38.5 201,-57.5 327,-57.5 327,-38.5 201,-38.5"/>
<text text-anchor="middle" x="264" y="-45.5" font-family="Helvetica,sans-Serif" font-size="10.00">prolog.terms.Trail.unwind</text>
</a>
</g>
</g>
<!-- Node1&#45;&gt;Node8 -->
<g id="edge7" class="edge"><title>Node1&#45;&gt;Node8</title>
<path fill="none" stroke="midnightblue" d="M113.544,-95.4595C143.573,-85.924 189.92,-71.2064 223.037,-60.6901"/>
<polygon fill="midnightblue" stroke="midnightblue" points="224.386,-63.9341 232.858,-57.5716 222.267,-57.2624 224.386,-63.9341"/>
</g>
<!-- Node3 -->
<g id="node3" class="node"><title>Node3</title>
<g id="a_node3"><a xlink:href="../../d3/ded/classprolog_1_1terms_1_1Term_a0a660e6cd55f12e49d328e1b84b478a4.html#a0a660e6cd55f12e49d328e1b84b478a4" target="_top" xlink:title="Defines the reaction to an agent recursing over the structure of a term. ">
<polygon fill="none" stroke="black" points="369,-152.5 369,-171.5 503,-171.5 503,-152.5 369,-152.5"/>
<text text-anchor="middle" x="436" y="-159.5" font-family="Helvetica,sans-Serif" font-size="10.00">prolog.terms.Term.reaction</text>
</a>
</g>
</g>
<!-- Node2&#45;&gt;Node3 -->
<g id="edge2" class="edge"><title>Node2&#45;&gt;Node3</title>
<path fill="none" stroke="midnightblue" d="M324.458,-155.498C335.566,-156.151 347.316,-156.842 358.846,-157.52"/>
<polygon fill="midnightblue" stroke="midnightblue" points="358.713,-161.018 368.901,-158.112 359.124,-154.031 358.713,-161.018"/>
</g>
<!-- Node4 -->
<g id="node4" class="node"><title>Node4</title>
<g id="a_node4"><a xlink:href="../../d3/ded/classprolog_1_1terms_1_1Term_aa52e271c0f6784dbde9aa4f5f3ab0268.html#aa52e271c0f6784dbde9aa4f5f3ab0268" target="_top" xlink:title="Identity action. ">
<polygon fill="none" stroke="black" points="545,-152.5 545,-171.5 670,-171.5 670,-152.5 545,-152.5"/>
<text text-anchor="middle" x="607.5" y="-159.5" font-family="Helvetica,sans-Serif" font-size="10.00">prolog.terms.Term.action</text>
</a>
</g>
</g>
<!-- Node3&#45;&gt;Node4 -->
<g id="edge3" class="edge"><title>Node3&#45;&gt;Node4</title>
<path fill="none" stroke="midnightblue" d="M503.018,-162C513.444,-162 524.267,-162 534.814,-162"/>
<polygon fill="midnightblue" stroke="midnightblue" points="534.82,-165.5 544.82,-162 534.82,-158.5 534.82,-165.5"/>
</g>
<!-- Node6 -->
<g id="node6" class="node"><title>Node6</title>
<g id="a_node6"><a xlink:href="../../d3/ded/classprolog_1_1terms_1_1Term_ae140fac2c9d066dc897fcfa723060a7a.html#ae140fac2c9d066dc897fcfa723060a7a" target="_top" xlink:title="Dereferences if necessary. ">
<polygon fill="none" stroke="black" points="381,-114.5 381,-133.5 491,-133.5 491,-114.5 381,-114.5"/>
<text text-anchor="middle" x="436" y="-121.5" font-family="Helvetica,sans-Serif" font-size="10.00">prolog.terms.Term.ref</text>
</a>
</g>
</g>
<!-- Node5&#45;&gt;Node6 -->
<g id="edge5" class="edge"><title>Node5&#45;&gt;Node6</title>
<path fill="none" stroke="midnightblue" d="M324.458,-111.645C339.394,-113.315 355.491,-115.114 370.655,-116.808"/>
<polygon fill="midnightblue" stroke="midnightblue" points="370.65,-120.33 380.977,-117.962 371.428,-113.373 370.65,-120.33"/>
</g>
<!-- Node7 -->
<g id="node7" class="node"><title>Node7</title>
<g id="a_node7"><a xlink:href="../../d3/ded/classprolog_1_1terms_1_1Term_a866b2cca50e77e99b560578b2fa3a91a.html#a866b2cca50e77e99b560578b2fa3a91a" target="_top" xlink:title="Unify dereferenced. ">
<polygon fill="none" stroke="black" points="369,-76.5 369,-95.5 503,-95.5 503,-76.5 369,-76.5"/>
<text text-anchor="middle" x="436" y="-83.5" font-family="Helvetica,sans-Serif" font-size="10.00">prolog.terms.Term.unify_to</text>
</a>
</g>
</g>
<!-- Node5&#45;&gt;Node7 -->
<g id="edge6" class="edge"><title>Node5&#45;&gt;Node7</title>
<path fill="none" stroke="midnightblue" d="M324.458,-98.3547C335.566,-97.1132 347.316,-95.8 358.846,-94.5113"/>
<polygon fill="midnightblue" stroke="midnightblue" points="359.352,-97.9767 368.901,-93.3875 358.574,-91.02 359.352,-97.9767"/>
</g>
<!-- Node9 -->
<g id="node9" class="node"><title>Node9</title>
<g id="a_node9"><a xlink:href="../../da/d93/classprolog_1_1terms_1_1ObjectStack_aaa01178e10f20beab62b1410ba720606.html#aaa01178e10f20beab62b1410ba720606" target="_top" xlink:title="prolog.terms.ObjectStack.pop">
<polygon fill="none" stroke="black" points="363,-38.5 363,-57.5 509,-57.5 509,-38.5 363,-38.5"/>
<text text-anchor="middle" x="436" y="-45.5" font-family="Helvetica,sans-Serif" font-size="10.00">prolog.terms.ObjectStack.pop</text>
</a>
</g>
</g>
<!-- Node8&#45;&gt;Node9 -->
<g id="edge8" class="edge"><title>Node8&#45;&gt;Node9</title>
<path fill="none" stroke="midnightblue" d="M327.336,-48C335.646,-48 344.267,-48 352.849,-48"/>
<polygon fill="midnightblue" stroke="midnightblue" points="352.885,-51.5001 362.885,-48 352.885,-44.5001 352.885,-51.5001"/>
</g>
<!-- Node10 -->
<g id="node10" class="node"><title>Node10</title>
<g id="a_node10"><a xlink:href="../../d3/ded/classprolog_1_1terms_1_1Term_ac710eec3650309d160ca04e364804e47.html#ac710eec3650309d160ca04e364804e47" target="_top" xlink:title="prolog.terms.Term.undo">
<polygon fill="none" stroke="black" points="376,-0.5 376,-19.5 496,-19.5 496,-0.5 376,-0.5"/>
<text text-anchor="middle" x="436" y="-7.5" font-family="Helvetica,sans-Serif" font-size="10.00">prolog.terms.Term.undo</text>
</a>
</g>
</g>
<!-- Node8&#45;&gt;Node10 -->
<g id="edge9" class="edge"><title>Node8&#45;&gt;Node10</title>
<path fill="none" stroke="midnightblue" d="M307.898,-38.411C330.534,-33.3513 358.498,-27.1004 382.429,-21.7512"/>
<polygon fill="midnightblue" stroke="midnightblue" points="383.415,-25.1173 392.41,-19.5201 381.888,-18.2859 383.415,-25.1173"/>
</g>
</g>
</svg>
