<?xml version="1.0" encoding="UTF-8" standalone="no"?>
<!DOCTYPE svg PUBLIC "-//W3C//DTD SVG 1.1//EN"
 "http://www.w3.org/Graphics/SVG/1.1/DTD/svg11.dtd">
<!-- Generated by graphviz version 2.38.0 (20140413.2041)
 -->
<!-- Title: prolog.terms.Term.pprint Pages: 1 -->
<!--zoomable 188 -->
<svg id="main" version="1.1" xmlns="http://www.w3.org/2000/svg" xmlns:xlink="http://www.w3.org/1999/xlink" xml:space="preserve" onload="init(evt)">
<style type="text/css"><![CDATA[
.edge:hover path { stroke: red; }
.edge:hover polygon { stroke: red; fill: red; }
]]></style>
<script type="text/javascript"><![CDATA[
var edges = document.getElementsByTagName('g');
if (edges && edges.length) {
  for (var i=0;i<edges.length;i++) {
    if (edges[i].id.substr(0,4)=='edge') {
      edges[i].setAttribute('class','edge');
    }
  }
}
]]></script>
        <defs>
                <circle id="rim" cx="0" cy="0" r="7"/>
                <circle id="rim2" cx="0" cy="0" r="3.5"/>
                <g id="zoomPlus">
                        <use xlink:href="#rim" fill="#404040">
                                <set attributeName="fill" to="#808080" begin="zoomplus.mouseover" end="zoomplus.mouseout"/>
                        </use>
                        <path d="M-4,0h8M0,-4v8" fill="none" stroke="white" stroke-width="1.5" pointer-events="none"/>
                </g>
                <g id="zoomMin">
                        <use xlink:href="#rim" fill="#404040">
                                <set attributeName="fill" to="#808080" begin="zoomminus.mouseover" end="zoomminus.mouseout"/>
                        </use>
                        <path d="M-4,0h8" fill="none" stroke="white" stroke-width="1.5" pointer-events="none"/>
                </g>
                <g id="dirArrow">
                        <path fill="none" stroke="white" stroke-width="1.5" d="M0,-3.0v7 M-2.5,-0.5L0,-3.0L2.5,-0.5"/>
                </g>
               <g id="resetDef">
                       <use xlink:href="#rim2" fill="#404040">
                               <set attributeName="fill" to="#808080" begin="reset.mouseover" end="reset.mouseout"/>
                       </use>
               </g>
        </defs>

<script type="text/javascript">
var viewWidth = 662;
var viewHeight = 188;
var sectionId = 'dynsection-1';
</script>
<script xlink:href="../../svgpan.js"/>
<svg id="graph" class="graph">
<g id="viewport">
<title>prolog.terms.Term.pprint</title>
<!-- Node1 -->
<g id="node1" class="node"><title>Node1</title>
<polygon fill="#bfbfbf" stroke="black" points="0,-94.5 0,-113.5 123,-113.5 123,-94.5 0,-94.5"/>
<text text-anchor="middle" x="61.5" y="-101.5" font-family="Helvetica,sans-Serif" font-size="10.00">prolog.terms.Term.pprint</text>
</g>
<!-- Node2 -->
<g id="node2" class="node"><title>Node2</title>
<g id="a_node2"><a xlink:href="../../d8/d35/classprolog_1_1Init_a4a827a2cfd90b291c538b46573b83d2f.html#a4a827a2cfd90b291c538b46573b83d2f" target="_top" xlink:title="Asks Prolog a String query and gets back a string Answer of the form &quot;the(&#39;[]&#39;(VarsOfQuery))&quot; contain...">
<polygon fill="none" stroke="black" points="180.5,-160.5 180.5,-179.5 286.5,-179.5 286.5,-160.5 180.5,-160.5"/>
<text text-anchor="middle" x="233.5" y="-167.5" font-family="Helvetica,sans-Serif" font-size="10.00">prolog.Init.askProlog</text>
</a>
</g>
</g>
<!-- Node1&#45;&gt;Node2 -->
<g id="edge1" class="edge"><title>Node1&#45;&gt;Node2</title>
<path fill="none" stroke="midnightblue" d="M88.4374,-118.399C107.518,-128.55 134.319,-141.904 159,-151 168.77,-154.601 179.509,-157.788 189.689,-160.475"/>
<polygon fill="midnightblue" stroke="midnightblue" points="89.938,-115.231 79.4753,-113.564 86.6144,-121.392 89.938,-115.231"/>
</g>
<!-- Node3 -->
<g id="node3" class="node"><title>Node3</title>
<g id="a_node3"><a xlink:href="../../d4/dcc/classprolog_1_1io_1_1ClauseWriter_af1f1fc520c2c2116f8d3a147eb0acd5f.html#af1f1fc520c2c2116f8d3a147eb0acd5f" target="_top" xlink:title="prolog.io.ClauseWriter.put\lElement">
<polygon fill="none" stroke="black" points="168.5,-111 168.5,-141 298.5,-141 298.5,-111 168.5,-111"/>
<text text-anchor="start" x="176.5" y="-129" font-family="Helvetica,sans-Serif" font-size="10.00">prolog.io.ClauseWriter.put</text>
<text text-anchor="middle" x="233.5" y="-118" font-family="Helvetica,sans-Serif" font-size="10.00">Element</text>
</a>
</g>
</g>
<!-- Node1&#45;&gt;Node3 -->
<g id="edge2" class="edge"><title>Node1&#45;&gt;Node3</title>
<path fill="none" stroke="midnightblue" d="M133.438,-113.18C144.997,-114.676 156.914,-116.218 168.299,-117.692"/>
<polygon fill="midnightblue" stroke="midnightblue" points="133.76,-109.693 123.394,-111.88 132.862,-116.635 133.76,-109.693"/>
</g>
<!-- Node4 -->
<g id="node4" class="node"><title>Node4</title>
<g id="a_node4"><a xlink:href="../../d3/ded/classprolog_1_1terms_1_1Term_ad0dfa6b55c89214714125c00533f19db.html#ad0dfa6b55c89214714125c00533f19db" target="_top" xlink:title="prolog.terms.Term.toUnquoted">
<polygon fill="none" stroke="black" points="159,-72.5 159,-91.5 308,-91.5 308,-72.5 159,-72.5"/>
<text text-anchor="middle" x="233.5" y="-79.5" font-family="Helvetica,sans-Serif" font-size="10.00">prolog.terms.Term.toUnquoted</text>
</a>
</g>
</g>
<!-- Node1&#45;&gt;Node4 -->
<g id="edge3" class="edge"><title>Node1&#45;&gt;Node4</title>
<path fill="none" stroke="midnightblue" d="M133.529,-94.808C141.934,-93.7203 150.526,-92.6085 158.964,-91.5164"/>
<polygon fill="midnightblue" stroke="midnightblue" points="132.862,-91.3651 123.394,-96.1196 133.76,-98.3072 132.862,-91.3651"/>
</g>
<!-- Node10 -->
<g id="node10" class="node"><title>Node10</title>
<g id="a_node10"><a xlink:href="../../df/d94/classprolog_1_1terms_1_1Unfolder_a504653c2b9cc9831c54c277cfb6c051f.html#a504653c2b9cc9831c54c277cfb6c051f" target="_top" xlink:title="Tracer for undefined predicates. ">
<polygon fill="none" stroke="black" points="166,-14 166,-44 301,-44 301,-14 166,-14"/>
<text text-anchor="start" x="174" y="-32" font-family="Helvetica,sans-Serif" font-size="10.00">prolog.terms.Unfolder.trace</text>
<text text-anchor="middle" x="233.5" y="-21" font-family="Helvetica,sans-Serif" font-size="10.00">_nomatch</text>
</a>
</g>
</g>
<!-- Node1&#45;&gt;Node10 -->
<g id="edge9" class="edge"><title>Node1&#45;&gt;Node10</title>
<path fill="none" stroke="midnightblue" d="M93.8223,-90.1813C123.463,-77.1044 167.845,-57.5242 198.374,-44.0555"/>
<polygon fill="midnightblue" stroke="midnightblue" points="92.1129,-87.1099 84.3765,-94.3486 94.9384,-93.5144 92.1129,-87.1099"/>
</g>
<!-- Node5 -->
<g id="node5" class="node"><title>Node5</title>
<g id="a_node5"><a xlink:href="../../d5/db0/classprolog_1_1io_1_1CharReader_afca64ed6560a777f13befdf8081b2f49.html#afca64ed6560a777f13befdf8081b2f49" target="_top" xlink:title="prolog.io.CharReader.Char\lReader">
<polygon fill="none" stroke="black" points="352.5,-126 352.5,-156 485.5,-156 485.5,-126 352.5,-126"/>
<text text-anchor="start" x="360.5" y="-144" font-family="Helvetica,sans-Serif" font-size="10.00">prolog.io.CharReader.Char</text>
<text text-anchor="middle" x="419" y="-133" font-family="Helvetica,sans-Serif" font-size="10.00">Reader</text>
</a>
</g>
</g>
<!-- Node4&#45;&gt;Node5 -->
<g id="edge4" class="edge"><title>Node4&#45;&gt;Node5</title>
<path fill="none" stroke="midnightblue" d="M283.017,-94.2472C291.405,-96.6359 299.998,-99.2569 308,-102 324.397,-107.621 327.743,-110.988 344,-117 352.234,-120.045 361.057,-123.091 369.64,-125.941"/>
<polygon fill="midnightblue" stroke="midnightblue" points="283.884,-90.8555 273.312,-91.5565 282.014,-97.6011 283.884,-90.8555"/>
</g>
<!-- Node6 -->
<g id="node6" class="node"><title>Node6</title>
<g id="a_node6"><a xlink:href="../../df/de7/classprolog_1_1fluents_1_1StringSink_a1b2838ec64ad6bc6e77f8e6c46e1bfe2.html#a1b2838ec64ad6bc6e77f8e6c46e1bfe2" target="_top" xlink:title="prolog.fluents.StringSink.put\lElement">
<polygon fill="none" stroke="black" points="349,-77 349,-107 489,-107 489,-77 349,-77"/>
<text text-anchor="start" x="357" y="-95" font-family="Helvetica,sans-Serif" font-size="10.00">prolog.fluents.StringSink.put</text>
<text text-anchor="middle" x="419" y="-84" font-family="Helvetica,sans-Serif" font-size="10.00">Element</text>
</a>
</g>
</g>
<!-- Node4&#45;&gt;Node6 -->
<g id="edge5" class="edge"><title>Node4&#45;&gt;Node6</title>
<path fill="none" stroke="midnightblue" d="M318.258,-86.5644C328.5,-87.1226 338.876,-87.688 348.87,-88.2327"/>
<polygon fill="midnightblue" stroke="midnightblue" points="318.255,-83.0592 308.079,-86.0098 317.874,-90.0488 318.255,-83.0592"/>
</g>
<!-- Node7 -->
<g id="node7" class="node"><title>Node7</title>
<g id="a_node7"><a xlink:href="../../d3/ded/classprolog_1_1terms_1_1Term_ae8200608f033511843ee4eae348103ed.html#ae8200608f033511843ee4eae348103ed" target="_top" xlink:title="prolog.terms.Term.toChars">
<polygon fill="none" stroke="black" points="352,-38.5 352,-57.5 486,-57.5 486,-38.5 352,-38.5"/>
<text text-anchor="middle" x="419" y="-45.5" font-family="Helvetica,sans-Serif" font-size="10.00">prolog.terms.Term.toChars</text>
</a>
</g>
</g>
<!-- Node4&#45;&gt;Node7 -->
<g id="edge6" class="edge"><title>Node4&#45;&gt;Node7</title>
<path fill="none" stroke="midnightblue" d="M296.047,-70.5962C318.91,-66.36 344.59,-61.6019 366.466,-57.5485"/>
<polygon fill="midnightblue" stroke="midnightblue" points="295.298,-67.1753 286.103,-72.4386 296.574,-74.0581 295.298,-67.1753"/>
</g>
<!-- Node8 -->
<g id="node8" class="node"><title>Node8</title>
<g id="a_node8"><a xlink:href="../../db/d97/classprolog_1_1builtins_1_1name__to__chars_a7e21a55985c27994587765755c2d3744.html#a7e21a55985c27994587765755c2d3744" target="_top" xlink:title="prolog.builtins.name\l_to_chars.exec">
<polygon fill="none" stroke="black" points="540,-55 540,-85 644,-85 644,-55 540,-55"/>
<text text-anchor="start" x="548" y="-73" font-family="Helvetica,sans-Serif" font-size="10.00">prolog.builtins.name</text>
<text text-anchor="middle" x="592" y="-62" font-family="Helvetica,sans-Serif" font-size="10.00">_to_chars.exec</text>
</a>
</g>
</g>
<!-- Node7&#45;&gt;Node8 -->
<g id="edge7" class="edge"><title>Node7&#45;&gt;Node8</title>
<path fill="none" stroke="midnightblue" d="M496.261,-57.8114C511.037,-59.7124 526.186,-61.6613 539.913,-63.4274"/>
<polygon fill="midnightblue" stroke="midnightblue" points="496.478,-54.3105 486.113,-56.5058 495.585,-61.2533 496.478,-54.3105"/>
</g>
<!-- Node9 -->
<g id="node9" class="node"><title>Node9</title>
<g id="a_node9"><a xlink:href="../../d7/df1/classprolog_1_1io_1_1Parser_a2266a192306644bbc8e9bb4b4839708e.html#a2266a192306644bbc8e9bb4b4839708e" target="_top" xlink:title="prolog.io.Parser.getTerm">
<polygon fill="none" stroke="black" points="530,-16.5 530,-35.5 654,-35.5 654,-16.5 530,-16.5"/>
<text text-anchor="middle" x="592" y="-23.5" font-family="Helvetica,sans-Serif" font-size="10.00">prolog.io.Parser.getTerm</text>
</a>
</g>
</g>
<!-- Node7&#45;&gt;Node9 -->
<g id="edge8" class="edge"><title>Node7&#45;&gt;Node9</title>
<path fill="none" stroke="midnightblue" d="M496.328,-38.18C507.541,-36.7374 518.967,-35.2674 529.823,-33.8708"/>
<polygon fill="midnightblue" stroke="midnightblue" points="495.585,-34.7467 486.113,-39.4942 496.478,-41.6895 495.585,-34.7467"/>
</g>
<!-- Node11 -->
<g id="node11" class="node"><title>Node11</title>
<g id="a_node11"><a xlink:href="../../df/d94/classprolog_1_1terms_1_1Unfolder_a82021b31093362b5f28314f871cb3f85.html#a82021b31093362b5f28314f871cb3f85" target="_top" xlink:title="Creates an Unfolder based on goal clause g for resolution step in program p. ">
<polygon fill="none" stroke="black" points="344,-0.5 344,-19.5 494,-19.5 494,-0.5 344,-0.5"/>
<text text-anchor="middle" x="419" y="-7.5" font-family="Helvetica,sans-Serif" font-size="10.00">prolog.terms.Unfolder.Unfolder</text>
</a>
</g>
</g>
<!-- Node10&#45;&gt;Node11 -->
<g id="edge10" class="edge"><title>Node10&#45;&gt;Node11</title>
<path fill="none" stroke="midnightblue" d="M311.27,-21.051C322.087,-19.931 333.19,-18.7814 343.954,-17.6668"/>
<polygon fill="midnightblue" stroke="midnightblue" points="310.593,-17.6023 301.007,-22.1137 311.314,-24.5651 310.593,-17.6023"/>
</g>
</g>
</svg>
        <g id="navigator" transform="translate(0 0)" fill="#404254">
                <rect fill="#f2f5e9" fill-opacity="0.5" stroke="#606060" stroke-width=".5" x="0" y="0" width="60" height="60"/>
                <use id="zoomplus" xlink:href="#zoomPlus" x="17" y="9" onmousedown="handleZoom(evt,'in')"/>
                <use id="zoomminus" xlink:href="#zoomMin" x="42" y="9" onmousedown="handleZoom(evt,'out')"/>
                <use id="reset" xlink:href="#resetDef" x="30" y="36" onmousedown="handleReset()"/>
                <g id="arrowUp" xlink:href="#dirArrow" transform="translate(30 24)" onmousedown="handlePan(0,-1)">
                  <use xlink:href="#rim" fill="#404040">
                        <set attributeName="fill" to="#808080" begin="arrowUp.mouseover" end="arrowUp.mouseout"/>
                  </use>
                  <path fill="none" stroke="white" stroke-width="1.5" d="M0,-3.0v7 M-2.5,-0.5L0,-3.0L2.5,-0.5"/>
                </g>
                <g id="arrowRight" xlink:href="#dirArrow" transform="rotate(90) translate(36 -43)" onmousedown="handlePan(1,0)">
                  <use xlink:href="#rim" fill="#404040">
                        <set attributeName="fill" to="#808080" begin="arrowRight.mouseover" end="arrowRight.mouseout"/>
                  </use>
                  <path fill="none" stroke="white" stroke-width="1.5" d="M0,-3.0v7 M-2.5,-0.5L0,-3.0L2.5,-0.5"/>
                </g>
                <g id="arrowDown" xlink:href="#dirArrow" transform="rotate(180) translate(-30 -48)" onmousedown="handlePan(0,1)">
                  <use xlink:href="#rim" fill="#404040">
                        <set attributeName="fill" to="#808080" begin="arrowDown.mouseover" end="arrowDown.mouseout"/>
                  </use>
                  <path fill="none" stroke="white" stroke-width="1.5" d="M0,-3.0v7 M-2.5,-0.5L0,-3.0L2.5,-0.5"/>
                </g>
                <g id="arrowLeft" xlink:href="#dirArrow" transform="rotate(270) translate(-36 17)" onmousedown="handlePan(-1,0)">
                  <use xlink:href="#rim" fill="#404040">
                        <set attributeName="fill" to="#808080" begin="arrowLeft.mouseover" end="arrowLeft.mouseout"/>
                  </use>
                  <path fill="none" stroke="white" stroke-width="1.5" d="M0,-3.0v7 M-2.5,-0.5L0,-3.0L2.5,-0.5"/>
                </g>
        </g>
        <svg viewBox="0 0 15 15" width="100%" height="30px" preserveAspectRatio="xMaxYMin meet">
         <g id="arrow_out" transform="scale(0.3 0.3)">
          <a xlink:href="classprolog_1_1terms_1_1Term_af1569a19ab5774ae5658b74cbacdbc11_af1569a19ab5774ae5658b74cbacdbc11_icgraph_org.svg" target="_base">
           <rect id="button" ry="5" rx="5" y="6" x="6" height="38" width="38"
                fill="#f2f5e9" fill-opacity="0.5" stroke="#606060" stroke-width="1.0"/>
           <path id="arrow"
             d="M 11.500037,31.436501 C 11.940474,20.09759 22.043105,11.32322 32.158766,21.979434 L 37.068811,17.246167 C 37.068811,17.246167 37.088388,32 37.088388,32 L 22.160133,31.978069 C 22.160133,31.978069 26.997745,27.140456 26.997745,27.140456 C 18.528582,18.264221 13.291696,25.230495 11.500037,31.436501 z"
             style="fill:#404040;"/>
          </a>
         </g>
        </svg>
</svg>
