<?xml version="1.0" encoding="UTF-8" standalone="no"?>
<!DOCTYPE svg PUBLIC "-//W3C//DTD SVG 1.1//EN"
 "http://www.w3.org/Graphics/SVG/1.1/DTD/svg11.dtd">
<!-- Generated by graphviz version 2.38.0 (20140413.2041)
 -->
<!-- Title: prolog.terms.Term.toChars Pages: 1 -->
<svg width="1159pt" height="78pt"
 viewBox="0.00 0.00 1159.00 77.50" xmlns="http://www.w3.org/2000/svg" xmlns:xlink="http://www.w3.org/1999/xlink">
<g id="graph0" class="graph" transform="scale(1 1) rotate(0) translate(4 73.5)">
<title>prolog.terms.Term.toChars</title>
<!-- Node1 -->
<g id="node1" class="node"><title>Node1</title>
<polygon fill="#bfbfbf" stroke="black" points="0,-22.5 0,-41.5 134,-41.5 134,-22.5 0,-22.5"/>
<text text-anchor="middle" x="67" y="-29.5" font-family="Helvetica,sans-Serif" font-size="10.00">prolog.terms.Term.toChars</text>
</g>
<!-- Node2 -->
<g id="node2" class="node"><title>Node2</title>
<g id="a_node2"><a xlink:href="../../d3/ded/classprolog_1_1terms_1_1Term_a3dae9908b121dbd8d0f95f058c1a4e63.html#a3dae9908b121dbd8d0f95f058c1a4e63" target="_top" xlink:title="prolog.terms.Term.string\lToChars">
<polygon fill="none" stroke="black" points="183,-39 183,-69 306,-69 306,-39 183,-39"/>
<text text-anchor="start" x="191" y="-57" font-family="Helvetica,sans-Serif" font-size="10.00">prolog.terms.Term.string</text>
<text text-anchor="middle" x="244.5" y="-46" font-family="Helvetica,sans-Serif" font-size="10.00">ToChars</text>
</a>
</g>
</g>
<!-- Node1&#45;&gt;Node2 -->
<g id="edge1" class="edge"><title>Node1&#45;&gt;Node2</title>
<path fill="none" stroke="midnightblue" d="M134.349,-40.3173C146.91,-41.8919 160.094,-43.5446 172.784,-45.1354"/>
<polygon fill="midnightblue" stroke="midnightblue" points="172.476,-48.6241 182.834,-46.3952 173.347,-41.6784 172.476,-48.6241"/>
</g>
<!-- Node3 -->
<g id="node3" class="node"><title>Node3</title>
<g id="a_node3"><a xlink:href="../../d3/ded/classprolog_1_1terms_1_1Term_ad0dfa6b55c89214714125c00533f19db.html#ad0dfa6b55c89214714125c00533f19db" target="_top" xlink:title="prolog.terms.Term.toUnquoted">
<polygon fill="none" stroke="black" points="170,-0.5 170,-19.5 319,-19.5 319,-0.5 170,-0.5"/>
<text text-anchor="middle" x="244.5" y="-7.5" font-family="Helvetica,sans-Serif" font-size="10.00">prolog.terms.Term.toUnquoted</text>
</a>
</g>
</g>
<!-- Node1&#45;&gt;Node3 -->
<g id="edge2" class="edge"><title>Node1&#45;&gt;Node3</title>
<path fill="none" stroke="midnightblue" d="M134.349,-23.6827C142.651,-22.642 151.226,-21.5671 159.75,-20.4986"/>
<polygon fill="midnightblue" stroke="midnightblue" points="160.227,-23.9663 169.714,-19.2495 159.356,-17.0206 160.227,-23.9663"/>
</g>
<!-- Node4 -->
<g id="node4" class="node"><title>Node4</title>
<g id="a_node4"><a xlink:href="../../d3/ded/classprolog_1_1terms_1_1Term_af1569a19ab5774ae5658b74cbacdbc11.html#af1569a19ab5774ae5658b74cbacdbc11" target="_top" xlink:title="Prints out a term to a String with variables named in order V1, V2,.... ">
<polygon fill="none" stroke="black" points="355,-0.5 355,-19.5 478,-19.5 478,-0.5 355,-0.5"/>
<text text-anchor="middle" x="416.5" y="-7.5" font-family="Helvetica,sans-Serif" font-size="10.00">prolog.terms.Term.pprint</text>
</a>
</g>
</g>
<!-- Node3&#45;&gt;Node4 -->
<g id="edge3" class="edge"><title>Node3&#45;&gt;Node4</title>
<path fill="none" stroke="midnightblue" d="M319.076,-10C327.561,-10 336.2,-10 344.648,-10"/>
<polygon fill="midnightblue" stroke="midnightblue" points="344.834,-13.5001 354.834,-10 344.834,-6.5001 344.834,-13.5001"/>
</g>
<!-- Node5 -->
<g id="node5" class="node"><title>Node5</title>
<g id="a_node5"><a xlink:href="../../d3/ded/classprolog_1_1terms_1_1Term_a50d0b69d48782ff4bcf433c70c1472a0.html#a50d0b69d48782ff4bcf433c70c1472a0" target="_top" xlink:title="Replaces variables with uppercase constants named `V1&#39;, &#39;V2&#39;, etc. ">
<polygon fill="none" stroke="black" points="514,-0.5 514,-19.5 664,-19.5 664,-0.5 514,-0.5"/>
<text text-anchor="middle" x="589" y="-7.5" font-family="Helvetica,sans-Serif" font-size="10.00">prolog.terms.Term.numbervars</text>
</a>
</g>
</g>
<!-- Node4&#45;&gt;Node5 -->
<g id="edge4" class="edge"><title>Node4&#45;&gt;Node5</title>
<path fill="none" stroke="midnightblue" d="M478.092,-10C486.416,-10 495.084,-10 503.738,-10"/>
<polygon fill="midnightblue" stroke="midnightblue" points="503.869,-13.5001 513.869,-10 503.869,-6.5001 503.869,-13.5001"/>
</g>
<!-- Node6 -->
<g id="node6" class="node"><title>Node6</title>
<g id="a_node6"><a xlink:href="../../d3/ded/classprolog_1_1terms_1_1Term_a01e5a83e648ee3f89415c0142c4220d4.html#a01e5a83e648ee3f89415c0142c4220d4" target="_top" xlink:title="Returns a copy of a term with variables standardized apart (`fresh variables&#39;). ">
<polygon fill="none" stroke="black" points="700,-19.5 700,-38.5 820,-38.5 820,-19.5 700,-19.5"/>
<text text-anchor="middle" x="760" y="-26.5" font-family="Helvetica,sans-Serif" font-size="10.00">prolog.terms.Term.copy</text>
</a>
</g>
</g>
<!-- Node5&#45;&gt;Node6 -->
<g id="edge5" class="edge"><title>Node5&#45;&gt;Node6</title>
<path fill="none" stroke="midnightblue" d="M664.126,-18.3337C672.638,-19.2906 681.292,-20.2636 689.737,-21.213"/>
<polygon fill="midnightblue" stroke="midnightblue" points="689.581,-24.7175 699.91,-22.3567 690.363,-17.7613 689.581,-24.7175"/>
</g>
<!-- Node7 -->
<g id="node7" class="node"><title>Node7</title>
<g id="a_node7"><a xlink:href="../../d3/ded/classprolog_1_1terms_1_1Term_a0a660e6cd55f12e49d328e1b84b478a4.html#a0a660e6cd55f12e49d328e1b84b478a4" target="_top" xlink:title="Defines the reaction to an agent recursing over the structure of a term. ">
<polygon fill="none" stroke="black" points="856,-0.5 856,-19.5 990,-19.5 990,-0.5 856,-0.5"/>
<text text-anchor="middle" x="923" y="-7.5" font-family="Helvetica,sans-Serif" font-size="10.00">prolog.terms.Term.reaction</text>
</a>
</g>
</g>
<!-- Node5&#45;&gt;Node7 -->
<g id="edge8" class="edge"><title>Node5&#45;&gt;Node7</title>
<path fill="none" stroke="midnightblue" d="M664.094,-10C718.045,-10 790.909,-10 845.428,-10"/>
<polygon fill="midnightblue" stroke="midnightblue" points="845.731,-13.5001 855.731,-10 845.731,-6.5001 845.731,-13.5001"/>
</g>
<!-- Node6&#45;&gt;Node7 -->
<g id="edge6" class="edge"><title>Node6&#45;&gt;Node7</title>
<path fill="none" stroke="midnightblue" d="M820.036,-22.033C828.422,-21.0434 837.143,-20.0142 845.797,-18.9929"/>
<polygon fill="midnightblue" stroke="midnightblue" points="846.381,-22.4484 855.902,-17.8004 845.56,-15.4966 846.381,-22.4484"/>
</g>
<!-- Node8 -->
<g id="node8" class="node"><title>Node8</title>
<g id="a_node8"><a xlink:href="../../d3/ded/classprolog_1_1terms_1_1Term_aa52e271c0f6784dbde9aa4f5f3ab0268.html#aa52e271c0f6784dbde9aa4f5f3ab0268" target="_top" xlink:title="Identity action. ">
<polygon fill="none" stroke="black" points="1026,-0.5 1026,-19.5 1151,-19.5 1151,-0.5 1026,-0.5"/>
<text text-anchor="middle" x="1088.5" y="-7.5" font-family="Helvetica,sans-Serif" font-size="10.00">prolog.terms.Term.action</text>
</a>
</g>
</g>
<!-- Node7&#45;&gt;Node8 -->
<g id="edge7" class="edge"><title>Node7&#45;&gt;Node8</title>
<path fill="none" stroke="midnightblue" d="M990.03,-10C998.566,-10 1007.34,-10 1015.96,-10"/>
<polygon fill="midnightblue" stroke="midnightblue" points="1015.98,-13.5001 1025.98,-10 1015.98,-6.5001 1015.98,-13.5001"/>
</g>
</g>
</svg>
