<?xml version="1.0" encoding="UTF-8" standalone="no"?>
<!DOCTYPE svg PUBLIC "-//W3C//DTD SVG 1.1//EN"
 "http://www.w3.org/Graphics/SVG/1.1/DTD/svg11.dtd">
<!-- Generated by graphviz version 2.38.0 (20140413.2041)
 -->
<!-- Title: prolog.terms.Term.fromString Pages: 1 -->
<!--zoomable 360 -->
<svg id="main" version="1.1" xmlns="http://www.w3.org/2000/svg" xmlns:xlink="http://www.w3.org/1999/xlink" xml:space="preserve" onload="init(evt)">
<style type="text/css"><![CDATA[
.edge:hover path { stroke: red; }
.edge:hover polygon { stroke: red; fill: red; }
]]></style>
<script type="text/javascript"><![CDATA[
var edges = document.getElementsByTagName('g');
if (edges && edges.length) {
  for (var i=0;i<edges.length;i++) {
    if (edges[i].id.substr(0,4)=='edge') {
      edges[i].setAttribute('class','edge');
    }
  }
}
]]></script>
        <defs>
                <circle id="rim" cx="0" cy="0" r="7"/>
                <circle id="rim2" cx="0" cy="0" r="3.5"/>
                <g id="zoomPlus">
                        <use xlink:href="#rim" fill="#404040">
                                <set attributeName="fill" to="#808080" begin="zoomplus.mouseover" end="zoomplus.mouseout"/>
                        </use>
                        <path d="M-4,0h8M0,-4v8" fill="none" stroke="white" stroke-width="1.5" pointer-events="none"/>
                </g>
                <g id="zoomMin">
                        <use xlink:href="#rim" fill="#404040">
                                <set attributeName="fill" to="#808080" begin="zoomminus.mouseover" end="zoomminus.mouseout"/>
                        </use>
                        <path d="M-4,0h8" fill="none" stroke="white" stroke-width="1.5" pointer-events="none"/>
                </g>
                <g id="dirArrow">
                        <path fill="none" stroke="white" stroke-width="1.5" d="M0,-3.0v7 M-2.5,-0.5L0,-3.0L2.5,-0.5"/>
                </g>
               <g id="resetDef">
                       <use xlink:href="#rim2" fill="#404040">
                               <set attributeName="fill" to="#808080" begin="reset.mouseover" end="reset.mouseout"/>
                       </use>
               </g>
        </defs>

<script type="text/javascript">
var viewWidth = 2191;
var viewHeight = 360;
var sectionId = 'dynsection-0';
</script>
<script xlink:href="../../svgpan.js"/>
<svg id="graph" class="graph">
<g id="viewport">
<title>prolog.terms.Term.fromString</title>
<!-- Node1 -->
<g id="node1" class="node"><title>Node1</title>
<polygon fill="#bfbfbf" stroke="black" points="0,-53.5 0,-72.5 144,-72.5 144,-53.5 0,-53.5"/>
<text text-anchor="middle" x="72" y="-60.5" font-family="Helvetica,sans-Serif" font-size="10.00">prolog.terms.Term.fromString</text>
</g>
<!-- Node2 -->
<g id="node2" class="node"><title>Node2</title>
<g id="a_node2"><a xlink:href="../../d6/dc4/classprolog_1_1terms_1_1Clause_a253e30217e7c206f42b947ba0dc7d754.html#a253e30217e7c206f42b947ba0dc7d754" target="_top" xlink:title="Extracts a clause from its String representation. ">
<polygon fill="none" stroke="black" points="180,-111 180,-141 316,-141 316,-111 180,-111"/>
<text text-anchor="start" x="188" y="-129" font-family="Helvetica,sans-Serif" font-size="10.00">prolog.terms.Clause.clause</text>
<text text-anchor="middle" x="248" y="-118" font-family="Helvetica,sans-Serif" font-size="10.00">FromString</text>
</a>
</g>
</g>
<!-- Node1&#45;&gt;Node2 -->
<g id="edge1" class="edge"><title>Node1&#45;&gt;Node2</title>
<path fill="none" stroke="midnightblue" d="M99.4269,-72.5683C124.929,-81.802 164.218,-96.0271 195.846,-107.479"/>
<polygon fill="midnightblue" stroke="midnightblue" points="194.798,-110.821 205.392,-110.935 197.181,-104.24 194.798,-110.821"/>
</g>
<!-- Node37 -->
<g id="node37" class="node"><title>Node37</title>
<g id="a_node37"><a xlink:href="../../d6/dc4/classprolog_1_1terms_1_1Clause_a35e53a0cac4684660a6e3093ea7baf06.html#a35e53a0cac4684660a6e3093ea7baf06" target="_top" xlink:title="Converts a clause to a term. ">
<polygon fill="none" stroke="black" points="1701,-9.5 1701,-28.5 1839,-28.5 1839,-9.5 1701,-9.5"/>
<text text-anchor="middle" x="1770" y="-16.5" font-family="Helvetica,sans-Serif" font-size="10.00">prolog.terms.Clause.toTerm</text>
</a>
</g>
</g>
<!-- Node1&#45;&gt;Node37 -->
<g id="edge45" class="edge"><title>Node1&#45;&gt;Node37</title>
<path fill="none" stroke="midnightblue" d="M103.542,-53.4317C162.592,-35.8076 296.802,-0 412.5,-0 412.5,-0 412.5,-0 1436.5,-0 1523.67,-0 1623.48,-6.58947 1690.82,-12.0072"/>
<polygon fill="midnightblue" stroke="midnightblue" points="1690.68,-15.507 1700.93,-12.8312 1691.24,-8.53011 1690.68,-15.507"/>
</g>
<!-- Node3 -->
<g id="node3" class="node"><title>Node3</title>
<g id="a_node3"><a xlink:href="../../d7/df1/classprolog_1_1io_1_1Parser_acd7f700bcb96620b8c6770c2fcae5802.html#acd7f700bcb96620b8c6770c2fcae5802" target="_top" xlink:title="prolog.io.Parser.clsFrom\lString">
<polygon fill="none" stroke="black" points="352,-194 352,-224 475,-224 475,-194 352,-194"/>
<text text-anchor="start" x="360" y="-212" font-family="Helvetica,sans-Serif" font-size="10.00">prolog.io.Parser.clsFrom</text>
<text text-anchor="middle" x="413.5" y="-201" font-family="Helvetica,sans-Serif" font-size="10.00">String</text>
</a>
</g>
</g>
<!-- Node2&#45;&gt;Node3 -->
<g id="edge2" class="edge"><title>Node2&#45;&gt;Node3</title>
<path fill="none" stroke="midnightblue" d="M278.609,-141.031C305.264,-154.562 344.611,-174.537 373.76,-189.334"/>
<polygon fill="midnightblue" stroke="midnightblue" points="372.335,-192.535 382.836,-193.941 375.503,-186.294 372.335,-192.535"/>
</g>
<!-- Node4 -->
<g id="node4" class="node"><title>Node4</title>
<g id="a_node4"><a xlink:href="../../d4/dc2/classprolog_1_1io_1_1IO_ab6e0553457312c4804472cbe1c646a28.html#ab6e0553457312c4804472cbe1c646a28" target="_top" xlink:title="prolog.io.IO.errmes">
<polygon fill="none" stroke="black" points="900.5,-256.5 900.5,-275.5 1000.5,-275.5 1000.5,-256.5 900.5,-256.5"/>
<text text-anchor="middle" x="950.5" y="-263.5" font-family="Helvetica,sans-Serif" font-size="10.00">prolog.io.IO.errmes</text>
</a>
</g>
</g>
<!-- Node3&#45;&gt;Node4 -->
<g id="edge3" class="edge"><title>Node3&#45;&gt;Node4</title>
<path fill="none" stroke="midnightblue" d="M458.101,-224.158C514.331,-242.831 615.55,-273.493 705,-285 765.832,-292.826 781.905,-290.407 843,-285 860.352,-283.464 879.11,-280.547 895.978,-277.452"/>
<polygon fill="midnightblue" stroke="midnightblue" points="897.034,-280.814 906.207,-275.512 895.73,-273.936 897.034,-280.814"/>
</g>
<!-- Node9 -->
<g id="node9" class="node"><title>Node9</title>
<g id="a_node9"><a xlink:href="../../d7/df1/classprolog_1_1io_1_1Parser_a805ee6cac7b9b310a79a5449f8ce516b.html#a805ee6cac7b9b310a79a5449f8ce516b" target="_top" xlink:title="prolog.io.Parser.Parser">
<polygon fill="none" stroke="black" points="532,-161.5 532,-180.5 648,-180.5 648,-161.5 532,-161.5"/>
<text text-anchor="middle" x="590" y="-168.5" font-family="Helvetica,sans-Serif" font-size="10.00">prolog.io.Parser.Parser</text>
</a>
</g>
</g>
<!-- Node3&#45;&gt;Node9 -->
<g id="edge8" class="edge"><title>Node3&#45;&gt;Node9</title>
<path fill="none" stroke="midnightblue" d="M475.042,-195.816C494.65,-191.546 516.251,-186.842 535.325,-182.689"/>
<polygon fill="midnightblue" stroke="midnightblue" points="536.312,-186.056 545.338,-180.508 534.823,-179.216 536.312,-186.056"/>
</g>
<!-- Node10 -->
<g id="node10" class="node"><title>Node10</title>
<g id="a_node10"><a xlink:href="../../d7/df1/classprolog_1_1io_1_1Parser_af7c0029aaf5a91f51780e12ce99cf277.html#af7c0029aaf5a91f51780e12ce99cf277" target="_top" xlink:title="prolog.io.Parser.patchEOFString">
<polygon fill="none" stroke="black" points="511,-332.5 511,-351.5 669,-351.5 669,-332.5 511,-332.5"/>
<text text-anchor="middle" x="590" y="-339.5" font-family="Helvetica,sans-Serif" font-size="10.00">prolog.io.Parser.patchEOFString</text>
</a>
</g>
</g>
<!-- Node3&#45;&gt;Node10 -->
<g id="edge9" class="edge"><title>Node3&#45;&gt;Node10</title>
<path fill="none" stroke="midnightblue" d="M423.829,-224.039C439.158,-247.523 471.906,-292.814 511,-318 517.859,-322.419 525.579,-326.064 533.425,-329.06"/>
<polygon fill="midnightblue" stroke="midnightblue" points="532.415,-332.414 543.01,-332.401 534.719,-325.804 532.415,-332.414"/>
</g>
<!-- Node11 -->
<g id="node11" class="node"><title>Node11</title>
<g id="a_node11"><a xlink:href="../../d7/df1/classprolog_1_1io_1_1Parser_ad0255f716753ec63c0f4e7cf9a8d2d38.html#ad0255f716753ec63c0f4e7cf9a8d2d38" target="_top" xlink:title="Main Parser interface: reads a clause together with variable name information. ">
<polygon fill="none" stroke="black" points="521.5,-199.5 521.5,-218.5 658.5,-218.5 658.5,-199.5 521.5,-199.5"/>
<text text-anchor="middle" x="590" y="-206.5" font-family="Helvetica,sans-Serif" font-size="10.00">prolog.io.Parser.readClause</text>
</a>
</g>
</g>
<!-- Node3&#45;&gt;Node11 -->
<g id="edge10" class="edge"><title>Node3&#45;&gt;Node11</title>
<path fill="none" stroke="midnightblue" d="M475.042,-209C486.731,-209 499.129,-209 511.276,-209"/>
<polygon fill="midnightblue" stroke="midnightblue" points="511.401,-212.5 521.401,-209 511.401,-205.5 511.401,-212.5"/>
</g>
<!-- Node5 -->
<g id="node5" class="node"><title>Node5</title>
<g id="a_node5"><a xlink:href="../../d4/dc2/classprolog_1_1io_1_1IO_a22a9a2bfe9fa6e00257369f5bf078a44.html#a22a9a2bfe9fa6e00257369f5bf078a44" target="_top" xlink:title="prolog.io.IO.getStdOutput">
<polygon fill="none" stroke="black" points="1063,-256.5 1063,-275.5 1191,-275.5 1191,-256.5 1063,-256.5"/>
<text text-anchor="middle" x="1127" y="-263.5" font-family="Helvetica,sans-Serif" font-size="10.00">prolog.io.IO.getStdOutput</text>
</a>
</g>
</g>
<!-- Node4&#45;&gt;Node5 -->
<g id="edge4" class="edge"><title>Node4&#45;&gt;Node5</title>
<path fill="none" stroke="midnightblue" d="M1000.57,-266C1016.75,-266 1035.11,-266 1052.7,-266"/>
<polygon fill="midnightblue" stroke="midnightblue" points="1052.94,-269.5 1062.94,-266 1052.94,-262.5 1052.94,-269.5"/>
</g>
<!-- Node6 -->
<g id="node6" class="node"><title>Node6</title>
<g id="a_node6"><a xlink:href="../../d4/dc2/classprolog_1_1io_1_1IO_ad851906c6ebd6559eb1b1fa52e26dabb.html#ad851906c6ebd6559eb1b1fa52e26dabb" target="_top" xlink:title="prolog.io.IO.println">
<polygon fill="none" stroke="black" points="1079,-294.5 1079,-313.5 1175,-313.5 1175,-294.5 1079,-294.5"/>
<text text-anchor="middle" x="1127" y="-301.5" font-family="Helvetica,sans-Serif" font-size="10.00">prolog.io.IO.println</text>
</a>
</g>
</g>
<!-- Node4&#45;&gt;Node6 -->
<g id="edge5" class="edge"><title>Node4&#45;&gt;Node6</title>
<path fill="none" stroke="midnightblue" d="M995.534,-275.589C1018.87,-280.671 1047.73,-286.955 1072.37,-292.32"/>
<polygon fill="midnightblue" stroke="midnightblue" points="1071.77,-295.772 1082.28,-294.48 1073.26,-288.932 1071.77,-295.772"/>
</g>
<!-- Node7 -->
<g id="node7" class="node"><title>Node7</title>
<g id="a_node7"><a xlink:href="../../d4/dc2/classprolog_1_1io_1_1IO_aab64872af087c6cd9c5dd13e9f4eda00.html#aab64872af087c6cd9c5dd13e9f4eda00" target="_top" xlink:title="prolog.io.IO.print">
<polygon fill="none" stroke="black" points="1238.5,-294.5 1238.5,-313.5 1327.5,-313.5 1327.5,-294.5 1238.5,-294.5"/>
<text text-anchor="middle" x="1283" y="-301.5" font-family="Helvetica,sans-Serif" font-size="10.00">prolog.io.IO.print</text>
</a>
</g>
</g>
<!-- Node6&#45;&gt;Node7 -->
<g id="edge6" class="edge"><title>Node6&#45;&gt;Node7</title>
<path fill="none" stroke="midnightblue" d="M1175.04,-304C1191.74,-304 1210.67,-304 1227.91,-304"/>
<polygon fill="midnightblue" stroke="midnightblue" points="1228.4,-307.5 1238.4,-304 1228.4,-300.5 1228.4,-307.5"/>
</g>
<!-- Node8 -->
<g id="node8" class="node"><title>Node8</title>
<g id="a_node8"><a xlink:href="../../d6/d92/interfaceprolog_1_1io_1_1IOPeer_abc1f90b85b358011e2595069d38ac25f.html#abc1f90b85b358011e2595069d38ac25f" target="_top" xlink:title="prolog.io.IOPeer.print">
<polygon fill="none" stroke="black" points="1381,-294.5 1381,-313.5 1490,-313.5 1490,-294.5 1381,-294.5"/>
<text text-anchor="middle" x="1435.5" y="-301.5" font-family="Helvetica,sans-Serif" font-size="10.00">prolog.io.IOPeer.print</text>
</a>
</g>
</g>
<!-- Node7&#45;&gt;Node8 -->
<g id="edge7" class="edge"><title>Node7&#45;&gt;Node8</title>
<path fill="none" stroke="midnightblue" d="M1327.53,-304C1340.94,-304 1356,-304 1370.49,-304"/>
<polygon fill="midnightblue" stroke="midnightblue" points="1370.91,-307.5 1380.91,-304 1370.91,-300.5 1370.91,-307.5"/>
</g>
<!-- Node12 -->
<g id="node12" class="node"><title>Node12</title>
<g id="a_node12"><a xlink:href="../../d9/d79/classprolog_1_1io_1_1Lexer_a90d92dba0d750fe7cd01d42ac09af5dd.html#a90d92dba0d750fe7cd01d42ac09af5dd" target="_top" xlink:title="prolog.io.Lexer.atEOC">
<polygon fill="none" stroke="black" points="717.5,-142.5 717.5,-161.5 830.5,-161.5 830.5,-142.5 717.5,-142.5"/>
<text text-anchor="middle" x="774" y="-149.5" font-family="Helvetica,sans-Serif" font-size="10.00">prolog.io.Lexer.atEOC</text>
</a>
</g>
</g>
<!-- Node11&#45;&gt;Node12 -->
<g id="edge11" class="edge"><title>Node11&#45;&gt;Node12</title>
<path fill="none" stroke="midnightblue" d="M634.601,-199.455C645.887,-196.691 657.965,-193.473 669,-190 685.375,-184.846 688.904,-181.969 705,-176 714.86,-172.344 725.571,-168.503 735.512,-164.992"/>
<polygon fill="midnightblue" stroke="midnightblue" points="736.863,-168.228 745.137,-161.611 734.543,-161.623 736.863,-168.228"/>
</g>
<!-- Node13 -->
<g id="node13" class="node"><title>Node13</title>
<g id="a_node13"><a xlink:href="../../d9/d79/classprolog_1_1io_1_1Lexer_a78f1607b4ab73e4e1bc28415dbe83cc0.html#a78f1607b4ab73e4e1bc28415dbe83cc0" target="_top" xlink:title="prolog.io.Lexer.atEOF">
<polygon fill="none" stroke="black" points="718,-256.5 718,-275.5 830,-275.5 830,-256.5 718,-256.5"/>
<text text-anchor="middle" x="774" y="-263.5" font-family="Helvetica,sans-Serif" font-size="10.00">prolog.io.Lexer.atEOF</text>
</a>
</g>
</g>
<!-- Node11&#45;&gt;Node13 -->
<g id="edge12" class="edge"><title>Node11&#45;&gt;Node13</title>
<path fill="none" stroke="midnightblue" d="M618.521,-218.597C641.535,-226.52 675.277,-237.9 705,-247 712.335,-249.246 720.147,-251.529 727.764,-253.697"/>
<polygon fill="midnightblue" stroke="midnightblue" points="727.036,-257.128 737.61,-256.468 728.933,-250.389 727.036,-257.128"/>
</g>
<!-- Node16 -->
<g id="node16" class="node"><title>Node16</title>
<g id="a_node16"><a xlink:href="../../d7/df1/classprolog_1_1io_1_1Parser_aafef312f551e1239883d8befd06b6b1b.html#aafef312f551e1239883d8befd06b6b1b" target="_top" xlink:title="prolog.io.Parser.errorClause">
<polygon fill="none" stroke="black" points="705,-218.5 705,-237.5 843,-237.5 843,-218.5 705,-218.5"/>
<text text-anchor="middle" x="774" y="-225.5" font-family="Helvetica,sans-Serif" font-size="10.00">prolog.io.Parser.errorClause</text>
</a>
</g>
</g>
<!-- Node11&#45;&gt;Node16 -->
<g id="edge17" class="edge"><title>Node11&#45;&gt;Node16</title>
<path fill="none" stroke="midnightblue" d="M658.511,-216.048C670.366,-217.286 682.792,-218.583 694.907,-219.847"/>
<polygon fill="midnightblue" stroke="midnightblue" points="694.681,-223.343 704.99,-220.9 695.408,-216.381 694.681,-223.343"/>
</g>
<!-- Node18 -->
<g id="node18" class="node"><title>Node18</title>
<g id="a_node18"><a xlink:href="../../d9/d79/classprolog_1_1io_1_1Lexer_af90567b8e92b07af09c8f60a587d8404.html#af90567b8e92b07af09c8f60a587d8404" target="_top" xlink:title="prolog.io.Lexer.next">
<polygon fill="none" stroke="black" points="1232,-91.5 1232,-110.5 1334,-110.5 1334,-91.5 1232,-91.5"/>
<text text-anchor="middle" x="1283" y="-98.5" font-family="Helvetica,sans-Serif" font-size="10.00">prolog.io.Lexer.next</text>
</a>
</g>
</g>
<!-- Node11&#45;&gt;Node18 -->
<g id="edge20" class="edge"><title>Node11&#45;&gt;Node18</title>
<path fill="none" stroke="midnightblue" d="M658.703,-207.076C806.152,-202.551 1147.06,-190.15 1196,-171 1224.81,-159.727 1251.34,-135.023 1267.1,-118.192"/>
<polygon fill="midnightblue" stroke="midnightblue" points="1269.81,-120.415 1273.93,-110.656 1264.62,-115.713 1269.81,-120.415"/>
</g>
<!-- Node32 -->
<g id="node32" class="node"><title>Node32</title>
<g id="a_node32"><a xlink:href="../../d7/df1/classprolog_1_1io_1_1Parser_a79322090cfbd908b02c83db6c65806d2.html#a79322090cfbd908b02c83db6c65806d2" target="_top" xlink:title="prolog.io.Parser.readClause\lOrEOF">
<polygon fill="none" stroke="black" points="705.5,-93 705.5,-123 842.5,-123 842.5,-93 705.5,-93"/>
<text text-anchor="start" x="713.5" y="-111" font-family="Helvetica,sans-Serif" font-size="10.00">prolog.io.Parser.readClause</text>
<text text-anchor="middle" x="774" y="-100" font-family="Helvetica,sans-Serif" font-size="10.00">OrEOF</text>
</a>
</g>
</g>
<!-- Node11&#45;&gt;Node32 -->
<g id="edge36" class="edge"><title>Node11&#45;&gt;Node32</title>
<path fill="none" stroke="midnightblue" d="M651.043,-199.486C657.43,-197.013 663.568,-193.905 669,-190 693.33,-172.512 681.7,-151.838 705,-133 707.247,-131.184 709.638,-129.492 712.129,-127.917"/>
<polygon fill="midnightblue" stroke="midnightblue" points="713.9,-130.937 720.921,-123.002 710.484,-124.827 713.9,-130.937"/>
</g>
<!-- Node14 -->
<g id="node14" class="node"><title>Node14</title>
<g id="a_node14"><a xlink:href="../../d4/dc2/classprolog_1_1io_1_1IO_aaa553b2e5bb8b5de129d38fe67293316.html#aaa553b2e5bb8b5de129d38fe67293316" target="_top" xlink:title="prolog.io.IO.trace">
<polygon fill="none" stroke="black" points="904.5,-294.5 904.5,-313.5 996.5,-313.5 996.5,-294.5 904.5,-294.5"/>
<text text-anchor="middle" x="950.5" y="-301.5" font-family="Helvetica,sans-Serif" font-size="10.00">prolog.io.IO.trace</text>
</a>
</g>
</g>
<!-- Node13&#45;&gt;Node14 -->
<g id="edge13" class="edge"><title>Node13&#45;&gt;Node14</title>
<path fill="none" stroke="midnightblue" d="M819.034,-275.589C842.372,-280.671 871.23,-286.955 895.866,-292.32"/>
<polygon fill="midnightblue" stroke="midnightblue" points="895.267,-295.772 905.783,-294.48 896.757,-288.932 895.267,-295.772"/>
</g>
<!-- Node14&#45;&gt;Node5 -->
<g id="edge14" class="edge"><title>Node14&#45;&gt;Node5</title>
<path fill="none" stroke="midnightblue" d="M995.534,-294.411C1018.87,-289.329 1047.73,-283.045 1072.37,-277.68"/>
<polygon fill="midnightblue" stroke="midnightblue" points="1073.26,-281.068 1082.28,-275.52 1071.77,-274.228 1073.26,-281.068"/>
</g>
<!-- Node14&#45;&gt;Node6 -->
<g id="edge15" class="edge"><title>Node14&#45;&gt;Node6</title>
<path fill="none" stroke="midnightblue" d="M996.892,-304C1018.8,-304 1045.31,-304 1068.6,-304"/>
<polygon fill="midnightblue" stroke="midnightblue" points="1068.7,-307.5 1078.7,-304 1068.7,-300.5 1068.7,-307.5"/>
</g>
<!-- Node15 -->
<g id="node15" class="node"><title>Node15</title>
<g id="a_node15"><a xlink:href="../../d6/d92/interfaceprolog_1_1io_1_1IOPeer_a780dd51c62dba4c266286171101b2cee.html#a780dd51c62dba4c266286171101b2cee" target="_top" xlink:title="prolog.io.IOPeer.traceln">
<polygon fill="none" stroke="black" points="1067.5,-332.5 1067.5,-351.5 1186.5,-351.5 1186.5,-332.5 1067.5,-332.5"/>
<text text-anchor="middle" x="1127" y="-339.5" font-family="Helvetica,sans-Serif" font-size="10.00">prolog.io.IOPeer.traceln</text>
</a>
</g>
</g>
<!-- Node14&#45;&gt;Node15 -->
<g id="edge16" class="edge"><title>Node14&#45;&gt;Node15</title>
<path fill="none" stroke="midnightblue" d="M995.534,-313.589C1018.87,-318.671 1047.73,-324.955 1072.37,-330.32"/>
<polygon fill="midnightblue" stroke="midnightblue" points="1071.77,-333.772 1082.28,-332.48 1073.26,-326.932 1071.77,-333.772"/>
</g>
<!-- Node16&#45;&gt;Node4 -->
<g id="edge18" class="edge"><title>Node16&#45;&gt;Node4</title>
<path fill="none" stroke="midnightblue" d="M819.034,-237.589C842.372,-242.671 871.23,-248.955 895.866,-254.32"/>
<polygon fill="midnightblue" stroke="midnightblue" points="895.267,-257.772 905.783,-256.48 896.757,-250.932 895.267,-257.772"/>
</g>
<!-- Node17 -->
<g id="node17" class="node"><title>Node17</title>
<g id="a_node17"><a xlink:href="../../d6/dc4/classprolog_1_1terms_1_1Clause_a42d56fcb3bedfc14a0ab04dacf08d9e0.html#a42d56fcb3bedfc14a0ab04dacf08d9e0" target="_top" xlink:title="Pretty prints a clause after replacing ugly variable names. ">
<polygon fill="none" stroke="black" points="885,-218.5 885,-237.5 1016,-237.5 1016,-218.5 885,-218.5"/>
<text text-anchor="middle" x="950.5" y="-225.5" font-family="Helvetica,sans-Serif" font-size="10.00">prolog.terms.Clause.pprint</text>
</a>
</g>
</g>
<!-- Node16&#45;&gt;Node17 -->
<g id="edge19" class="edge"><title>Node16&#45;&gt;Node17</title>
<path fill="none" stroke="midnightblue" d="M843.216,-228C853.468,-228 864.089,-228 874.474,-228"/>
<polygon fill="midnightblue" stroke="midnightblue" points="874.758,-231.5 884.758,-228 874.758,-224.5 874.758,-231.5"/>
</g>
<!-- Node19 -->
<g id="node19" class="node"><title>Node19</title>
<g id="a_node19"><a xlink:href="../../d9/d79/classprolog_1_1io_1_1Lexer_a4cfb6744572df2bf663b200438b38f6f.html#a4cfb6744572df2bf663b200438b38f6f" target="_top" xlink:title="prolog.io.Lexer.char2string">
<polygon fill="none" stroke="black" points="1370,-34.5 1370,-53.5 1501,-53.5 1501,-34.5 1370,-34.5"/>
<text text-anchor="middle" x="1435.5" y="-41.5" font-family="Helvetica,sans-Serif" font-size="10.00">prolog.io.Lexer.char2string</text>
</a>
</g>
</g>
<!-- Node18&#45;&gt;Node19 -->
<g id="edge21" class="edge"><title>Node18&#45;&gt;Node19</title>
<path fill="none" stroke="midnightblue" d="M1303.86,-91.3462C1321.09,-83.1779 1346.86,-71.4811 1370,-63 1376.11,-60.7594 1382.63,-58.5931 1389.07,-56.5752"/>
<polygon fill="midnightblue" stroke="midnightblue" points="1390.53,-59.7908 1399.08,-53.5369 1388.5,-53.0926 1390.53,-59.7908"/>
</g>
<!-- Node20 -->
<g id="node20" class="node"><title>Node20</title>
<g id="a_node20"><a xlink:href="../../d9/d79/classprolog_1_1io_1_1Lexer_a9fbdd67572706c48a026047f818f2e7a.html#a9fbdd67572706c48a026047f818f2e7a" target="_top" xlink:title="prolog.io.Lexer.getWord">
<polygon fill="none" stroke="black" points="1375.5,-129.5 1375.5,-148.5 1495.5,-148.5 1495.5,-129.5 1375.5,-129.5"/>
<text text-anchor="middle" x="1435.5" y="-136.5" font-family="Helvetica,sans-Serif" font-size="10.00">prolog.io.Lexer.getWord</text>
</a>
</g>
</g>
<!-- Node18&#45;&gt;Node20 -->
<g id="edge22" class="edge"><title>Node18&#45;&gt;Node20</title>
<path fill="none" stroke="midnightblue" d="M1321.98,-110.589C1341.66,-115.558 1365.89,-121.677 1386.82,-126.961"/>
<polygon fill="midnightblue" stroke="midnightblue" points="1386.24,-130.425 1396.8,-129.48 1387.96,-123.638 1386.24,-130.425"/>
</g>
<!-- Node21 -->
<g id="node21" class="node"><title>Node21</title>
<g id="a_node21"><a xlink:href="../../d9/d79/classprolog_1_1io_1_1Lexer_ae4ec88cd8a3650b3d9af2b4f5e7a9bbc.html#ae4ec88cd8a3650b3d9af2b4f5e7a9bbc" target="_top" xlink:title="prolog.io.Lexer.make\l_const">
<polygon fill="none" stroke="black" points="1547.5,-181 1547.5,-211 1654.5,-211 1654.5,-181 1547.5,-181"/>
<text text-anchor="start" x="1555.5" y="-199" font-family="Helvetica,sans-Serif" font-size="10.00">prolog.io.Lexer.make</text>
<text text-anchor="middle" x="1601" y="-188" font-family="Helvetica,sans-Serif" font-size="10.00">_const</text>
</a>
</g>
</g>
<!-- Node18&#45;&gt;Node21 -->
<g id="edge32" class="edge"><title>Node18&#45;&gt;Node21</title>
<path fill="none" stroke="midnightblue" d="M1295.08,-110.621C1310.68,-123.593 1340.49,-146.401 1370,-158 1424.04,-179.242 1489.75,-188.61 1537.07,-192.741"/>
<polygon fill="midnightblue" stroke="midnightblue" points="1536.93,-196.241 1547.18,-193.569 1537.5,-189.264 1536.93,-196.241"/>
</g>
<!-- Node29 -->
<g id="node29" class="node"><title>Node29</title>
<g id="a_node29"><a xlink:href="../../d9/d79/classprolog_1_1io_1_1Lexer_a0575f9ce24d7bdce0ed6f08903d57061.html#a0575f9ce24d7bdce0ed6f08903d57061" target="_top" xlink:title="prolog.io.Lexer.make\l_number">
<polygon fill="none" stroke="black" points="1382,-73 1382,-103 1489,-103 1489,-73 1382,-73"/>
<text text-anchor="start" x="1390" y="-91" font-family="Helvetica,sans-Serif" font-size="10.00">prolog.io.Lexer.make</text>
<text text-anchor="middle" x="1435.5" y="-80" font-family="Helvetica,sans-Serif" font-size="10.00">_number</text>
</a>
</g>
</g>
<!-- Node18&#45;&gt;Node29 -->
<g id="edge33" class="edge"><title>Node18&#45;&gt;Node29</title>
<path fill="none" stroke="midnightblue" d="M1334.11,-96.6712C1346.07,-95.6383 1358.99,-94.5227 1371.44,-93.4467"/>
<polygon fill="midnightblue" stroke="midnightblue" points="1372.11,-96.9026 1381.77,-92.5549 1371.5,-89.9286 1372.11,-96.9026"/>
</g>
<!-- Node20&#45;&gt;Node21 -->
<g id="edge23" class="edge"><title>Node20&#45;&gt;Node21</title>
<path fill="none" stroke="midnightblue" d="M1463.87,-148.541C1486.55,-156.45 1519.47,-167.925 1547.25,-177.611"/>
<polygon fill="midnightblue" stroke="midnightblue" points="1546.24,-180.966 1556.84,-180.953 1548.55,-174.356 1546.24,-180.966"/>
</g>
<!-- Node22 -->
<g id="node22" class="node"><title>Node22</title>
<g id="a_node22"><a xlink:href="../../d9/d79/classprolog_1_1io_1_1Lexer_a6c9bf5b9540046d85bedfd6b9cf12d39.html#a6c9bf5b9540046d85bedfd6b9cf12d39" target="_top" xlink:title="prolog.io.Lexer.make_fun">
<polygon fill="none" stroke="black" points="1538,-104.5 1538,-123.5 1664,-123.5 1664,-104.5 1538,-104.5"/>
<text text-anchor="middle" x="1601" y="-111.5" font-family="Helvetica,sans-Serif" font-size="10.00">prolog.io.Lexer.make_fun</text>
</a>
</g>
</g>
<!-- Node20&#45;&gt;Node22 -->
<g id="edge24" class="edge"><title>Node20&#45;&gt;Node22</title>
<path fill="none" stroke="midnightblue" d="M1495.53,-129.974C1505.92,-128.385 1516.86,-126.713 1527.57,-125.075"/>
<polygon fill="midnightblue" stroke="midnightblue" points="1528.39,-128.49 1537.75,-123.518 1527.34,-121.57 1528.39,-128.49"/>
</g>
<!-- Node23 -->
<g id="node23" class="node"><title>Node23</title>
<g id="a_node23"><a xlink:href="../../d9/d79/classprolog_1_1io_1_1Lexer_acdaa35637088cc7ae8decb0f6e0f8caa.html#acdaa35637088cc7ae8decb0f6e0f8caa" target="_top" xlink:title="prolog.io.Lexer.make_var">
<polygon fill="none" stroke="black" points="1538,-142.5 1538,-161.5 1664,-161.5 1664,-142.5 1538,-142.5"/>
<text text-anchor="middle" x="1601" y="-149.5" font-family="Helvetica,sans-Serif" font-size="10.00">prolog.io.Lexer.make_var</text>
</a>
</g>
</g>
<!-- Node20&#45;&gt;Node23 -->
<g id="edge25" class="edge"><title>Node20&#45;&gt;Node23</title>
<path fill="none" stroke="midnightblue" d="M1495.53,-143.693C1505.92,-144.52 1516.86,-145.389 1527.57,-146.241"/>
<polygon fill="midnightblue" stroke="midnightblue" points="1527.5,-149.747 1537.75,-147.05 1528.06,-142.769 1527.5,-149.747"/>
</g>
<!-- Node24 -->
<g id="node24" class="node"><title>Node24</title>
<g id="a_node24"><a xlink:href="../../d1/d12/classprolog_1_1terms_1_1Var_acfca7d3a30509a6a0761be57e408cfad.html#acfca7d3a30509a6a0761be57e408cfad" target="_top" xlink:title="prolog.terms.Var.toString">
<polygon fill="none" stroke="black" points="1707.5,-137.5 1707.5,-156.5 1832.5,-156.5 1832.5,-137.5 1707.5,-137.5"/>
<text text-anchor="middle" x="1770" y="-144.5" font-family="Helvetica,sans-Serif" font-size="10.00">prolog.terms.Var.toString</text>
</a>
</g>
</g>
<!-- Node23&#45;&gt;Node24 -->
<g id="edge26" class="edge"><title>Node23&#45;&gt;Node24</title>
<path fill="none" stroke="midnightblue" d="M1664.18,-150.138C1674.98,-149.815 1686.28,-149.477 1697.3,-149.147"/>
<polygon fill="midnightblue" stroke="midnightblue" points="1697.43,-152.645 1707.32,-148.847 1697.22,-145.648 1697.43,-152.645"/>
</g>
<!-- Node25 -->
<g id="node25" class="node"><title>Node25</title>
<g id="a_node25"><a xlink:href="../../d1/d12/classprolog_1_1terms_1_1Var_a2194ec6eec940cc349b828f6fefcf242.html#a2194ec6eec940cc349b828f6fefcf242" target="_top" xlink:title="prolog.terms.Var.unbound">
<polygon fill="none" stroke="black" points="2055,-147.5 2055,-166.5 2183,-166.5 2183,-147.5 2055,-147.5"/>
<text text-anchor="middle" x="2119" y="-154.5" font-family="Helvetica,sans-Serif" font-size="10.00">prolog.terms.Var.unbound</text>
</a>
</g>
</g>
<!-- Node24&#45;&gt;Node25 -->
<g id="edge27" class="edge"><title>Node24&#45;&gt;Node25</title>
<path fill="none" stroke="midnightblue" d="M1832.52,-153.9C1846.47,-155.19 1861.23,-156.34 1875,-157 1931.95,-159.731 1996.48,-159.579 2044.73,-158.827"/>
<polygon fill="midnightblue" stroke="midnightblue" points="2044.83,-162.325 2054.77,-158.658 2044.71,-155.326 2044.83,-162.325"/>
</g>
<!-- Node26 -->
<g id="node26" class="node"><title>Node26</title>
<g id="a_node26"><a xlink:href="../../d1/d12/classprolog_1_1terms_1_1Var_ac525ffcba1be06da9b81dcdb2605eaf6.html#ac525ffcba1be06da9b81dcdb2605eaf6" target="_top" xlink:title="prolog.terms.Var.name">
<polygon fill="none" stroke="black" points="1889,-90.5 1889,-109.5 2005,-109.5 2005,-90.5 1889,-90.5"/>
<text text-anchor="middle" x="1947" y="-97.5" font-family="Helvetica,sans-Serif" font-size="10.00">prolog.terms.Var.name</text>
</a>
</g>
</g>
<!-- Node24&#45;&gt;Node26 -->
<g id="edge28" class="edge"><title>Node24&#45;&gt;Node26</title>
<path fill="none" stroke="midnightblue" d="M1806.62,-137.397C1826.7,-131.986 1852.25,-125.108 1875,-119 1883.24,-116.789 1892.01,-114.437 1900.49,-112.169"/>
<polygon fill="midnightblue" stroke="midnightblue" points="1901.49,-115.524 1910.24,-109.558 1899.68,-108.762 1901.49,-115.524"/>
</g>
<!-- Node27 -->
<g id="node27" class="node"><title>Node27</title>
<g id="a_node27"><a xlink:href="../../d1/d12/classprolog_1_1terms_1_1Var_a87e5778e2b3535a88d8750f0776fb900.html#a87e5778e2b3535a88d8750f0776fb900" target="_top" xlink:title="prolog.terms.Var.ref">
<polygon fill="none" stroke="black" points="1895.5,-128.5 1895.5,-147.5 1998.5,-147.5 1998.5,-128.5 1895.5,-128.5"/>
<text text-anchor="middle" x="1947" y="-135.5" font-family="Helvetica,sans-Serif" font-size="10.00">prolog.terms.Var.ref</text>
</a>
</g>
</g>
<!-- Node24&#45;&gt;Node27 -->
<g id="edge29" class="edge"><title>Node24&#45;&gt;Node27</title>
<path fill="none" stroke="midnightblue" d="M1832.7,-143.827C1849.65,-142.955 1868.02,-142.011 1884.93,-141.141"/>
<polygon fill="midnightblue" stroke="midnightblue" points="1885.44,-144.619 1895.25,-140.61 1885.08,-137.628 1885.44,-144.619"/>
</g>
<!-- Node27&#45;&gt;Node25 -->
<g id="edge30" class="edge"><title>Node27&#45;&gt;Node25</title>
<path fill="none" stroke="midnightblue" d="M1998.55,-143.649C2013.08,-145.273 2029.23,-147.078 2044.83,-148.823"/>
<polygon fill="midnightblue" stroke="midnightblue" points="2044.66,-152.325 2054.99,-149.957 2045.44,-145.368 2044.66,-152.325"/>
</g>
<!-- Node28 -->
<g id="node28" class="node"><title>Node28</title>
<g id="a_node28"><a xlink:href="../../d3/ded/classprolog_1_1terms_1_1Term_ae140fac2c9d066dc897fcfa723060a7a.html#ae140fac2c9d066dc897fcfa723060a7a" target="_top" xlink:title="Dereferences if necessary. ">
<polygon fill="none" stroke="black" points="2064,-47.5 2064,-66.5 2174,-66.5 2174,-47.5 2064,-47.5"/>
<text text-anchor="middle" x="2119" y="-54.5" font-family="Helvetica,sans-Serif" font-size="10.00">prolog.terms.Term.ref</text>
</a>
</g>
</g>
<!-- Node27&#45;&gt;Node28 -->
<g id="edge31" class="edge"><title>Node27&#45;&gt;Node28</title>
<path fill="none" stroke="midnightblue" d="M1991.88,-128.452C2001.02,-125.859 2010.46,-122.717 2019,-119 2047.86,-106.438 2078.12,-86.3146 2097.47,-72.4184"/>
<polygon fill="midnightblue" stroke="midnightblue" points="2099.54,-75.2442 2105.55,-66.5214 2095.41,-69.5903 2099.54,-75.2442"/>
</g>
<!-- Node30 -->
<g id="node30" class="node"><title>Node30</title>
<g id="a_node30"><a xlink:href="../../d9/d79/classprolog_1_1io_1_1Lexer_aa7b44ceb64d095b1342b77ff73e28e58.html#aa7b44ceb64d095b1342b77ff73e28e58" target="_top" xlink:title="prolog.io.Lexer.make_int">
<polygon fill="none" stroke="black" points="1539.5,-28.5 1539.5,-47.5 1662.5,-47.5 1662.5,-28.5 1539.5,-28.5"/>
<text text-anchor="middle" x="1601" y="-35.5" font-family="Helvetica,sans-Serif" font-size="10.00">prolog.io.Lexer.make_int</text>
</a>
</g>
</g>
<!-- Node29&#45;&gt;Node30 -->
<g id="edge34" class="edge"><title>Node29&#45;&gt;Node30</title>
<path fill="none" stroke="midnightblue" d="M1485.04,-72.9592C1501.53,-67.8694 1520.06,-62.1673 1537,-57 1543.99,-54.869 1551.41,-52.6173 1558.62,-50.438"/>
<polygon fill="midnightblue" stroke="midnightblue" points="1559.7,-53.7695 1568.26,-47.5295 1557.68,-47.068 1559.7,-53.7695"/>
</g>
<!-- Node31 -->
<g id="node31" class="node"><title>Node31</title>
<g id="a_node31"><a xlink:href="../../d9/d79/classprolog_1_1io_1_1Lexer_aa712569cb1f11c42f18982b57dd13832.html#aa712569cb1f11c42f18982b57dd13832" target="_top" xlink:title="prolog.io.Lexer.make_real">
<polygon fill="none" stroke="black" points="1537,-66.5 1537,-85.5 1665,-85.5 1665,-66.5 1537,-66.5"/>
<text text-anchor="middle" x="1601" y="-73.5" font-family="Helvetica,sans-Serif" font-size="10.00">prolog.io.Lexer.make_real</text>
</a>
</g>
</g>
<!-- Node29&#45;&gt;Node31 -->
<g id="edge35" class="edge"><title>Node29&#45;&gt;Node31</title>
<path fill="none" stroke="midnightblue" d="M1489.13,-84.1371C1501.14,-83.2558 1514.11,-82.3039 1526.8,-81.3723"/>
<polygon fill="midnightblue" stroke="midnightblue" points="1527.18,-84.854 1536.9,-80.6313 1526.67,-77.8728 1527.18,-84.854"/>
</g>
<!-- Node32&#45;&gt;Node18 -->
<g id="edge42" class="edge"><title>Node32&#45;&gt;Node18</title>
<path fill="none" stroke="midnightblue" d="M817.705,-92.9459C894.41,-68.0807 1060.18,-24.2738 1196,-57 1219.11,-62.569 1243,-75.461 1259.71,-85.8589"/>
<polygon fill="midnightblue" stroke="midnightblue" points="1257.9,-88.8579 1268.21,-91.3166 1261.69,-82.9679 1257.9,-88.8579"/>
</g>
<!-- Node33 -->
<g id="node33" class="node"><title>Node33</title>
<g id="a_node33"><a xlink:href="../../d7/df1/classprolog_1_1io_1_1Parser_aa7e461fd858ff34bac99d032f61e52da.html#aa7e461fd858ff34bac99d032f61e52da" target="_top" xlink:title="prolog.io.Parser.getConjCont">
<polygon fill="none" stroke="black" points="879,-104.5 879,-123.5 1022,-123.5 1022,-104.5 879,-104.5"/>
<text text-anchor="middle" x="950.5" y="-111.5" font-family="Helvetica,sans-Serif" font-size="10.00">prolog.io.Parser.getConjCont</text>
</a>
</g>
</g>
<!-- Node32&#45;&gt;Node33 -->
<g id="edge37" class="edge"><title>Node32&#45;&gt;Node33</title>
<path fill="none" stroke="midnightblue" d="M842.966,-110.337C851.426,-110.628 860.141,-110.927 868.77,-111.224"/>
<polygon fill="midnightblue" stroke="midnightblue" points="868.726,-114.725 878.841,-111.57 868.967,-107.729 868.726,-114.725"/>
</g>
<!-- Node34 -->
<g id="node34" class="node"><title>Node34</title>
<g id="a_node34"><a xlink:href="../../d7/df1/classprolog_1_1io_1_1Parser_ae301f1d607ff1269917a097eda95199a.html#ae301f1d607ff1269917a097eda95199a" target="_top" xlink:title="prolog.io.Parser.getTerm">
<polygon fill="none" stroke="black" points="1065,-66.5 1065,-85.5 1189,-85.5 1189,-66.5 1065,-66.5"/>
<text text-anchor="middle" x="1127" y="-73.5" font-family="Helvetica,sans-Serif" font-size="10.00">prolog.io.Parser.getTerm</text>
</a>
</g>
</g>
<!-- Node32&#45;&gt;Node34 -->
<g id="edge41" class="edge"><title>Node32&#45;&gt;Node34</title>
<path fill="none" stroke="midnightblue" d="M842.639,-99.0716C854.736,-97.6099 867.232,-96.1874 879,-95 938.026,-89.0441 1005.15,-83.9903 1054.52,-80.5956"/>
<polygon fill="midnightblue" stroke="midnightblue" points="1055.03,-84.0687 1064.77,-79.8967 1054.56,-77.0849 1055.03,-84.0687"/>
</g>
<!-- Node35 -->
<g id="node35" class="node"><title>Node35</title>
<g id="a_node35"><a xlink:href="../../d7/df1/classprolog_1_1io_1_1Parser_a1b471775e839ca62d69e46fa3928154d.html#a1b471775e839ca62d69e46fa3928154d" target="_top" xlink:title="prolog.io.Parser.toClause">
<polygon fill="none" stroke="black" points="887,-142.5 887,-161.5 1014,-161.5 1014,-142.5 887,-142.5"/>
<text text-anchor="middle" x="950.5" y="-149.5" font-family="Helvetica,sans-Serif" font-size="10.00">prolog.io.Parser.toClause</text>
</a>
</g>
</g>
<!-- Node32&#45;&gt;Node35 -->
<g id="edge43" class="edge"><title>Node32&#45;&gt;Node35</title>
<path fill="none" stroke="midnightblue" d="M834.565,-123.019C856.541,-128.56 881.131,-134.761 901.909,-140"/>
<polygon fill="midnightblue" stroke="midnightblue" points="901.222,-143.436 911.775,-142.488 902.934,-136.649 901.222,-143.436"/>
</g>
<!-- Node33&#45;&gt;Node18 -->
<g id="edge40" class="edge"><title>Node33&#45;&gt;Node18</title>
<path fill="none" stroke="midnightblue" d="M1022.4,-111.211C1081.77,-108.876 1165.58,-105.579 1221.75,-103.37"/>
<polygon fill="midnightblue" stroke="midnightblue" points="1222.05,-106.861 1231.9,-102.97 1221.77,-99.8663 1222.05,-106.861"/>
</g>
<!-- Node33&#45;&gt;Node34 -->
<g id="edge38" class="edge"><title>Node33&#45;&gt;Node34</title>
<path fill="none" stroke="midnightblue" d="M995.534,-104.411C1018.87,-99.3287 1047.73,-93.0446 1072.37,-87.6797"/>
<polygon fill="midnightblue" stroke="midnightblue" points="1073.26,-91.0678 1082.28,-85.5201 1071.77,-84.2281 1073.26,-91.0678"/>
</g>
<!-- Node34&#45;&gt;Node18 -->
<g id="edge39" class="edge"><title>Node34&#45;&gt;Node18</title>
<path fill="none" stroke="midnightblue" d="M1186.66,-85.5227C1198.1,-87.3798 1210.11,-89.3299 1221.61,-91.1958"/>
<polygon fill="midnightblue" stroke="midnightblue" points="1221.11,-94.6618 1231.55,-92.8095 1222.24,-87.7522 1221.11,-94.6618"/>
</g>
<!-- Node36 -->
<g id="node36" class="node"><title>Node36</title>
<g id="a_node36"><a xlink:href="../../d3/ded/classprolog_1_1terms_1_1Term_a8ea1883429587f5ffa2d7aa6c272039c.html#a8ea1883429587f5ffa2d7aa6c272039c" target="_top" xlink:title="prolog.terms.Term.toClause">
<polygon fill="none" stroke="black" points="1058,-142.5 1058,-161.5 1196,-161.5 1196,-142.5 1058,-142.5"/>
<text text-anchor="middle" x="1127" y="-149.5" font-family="Helvetica,sans-Serif" font-size="10.00">prolog.terms.Term.toClause</text>
</a>
</g>
</g>
<!-- Node35&#45;&gt;Node36 -->
<g id="edge44" class="edge"><title>Node35&#45;&gt;Node36</title>
<path fill="none" stroke="midnightblue" d="M1014.01,-152C1024.86,-152 1036.28,-152 1047.5,-152"/>
<polygon fill="midnightblue" stroke="midnightblue" points="1047.72,-155.5 1057.72,-152 1047.72,-148.5 1047.72,-155.5"/>
</g>
<!-- Node38 -->
<g id="node38" class="node"><title>Node38</title>
<g id="a_node38"><a xlink:href="../../d6/dc4/classprolog_1_1terms_1_1Clause_ab690dc7c5a2d5b6007fbf559a537d262.html#ab690dc7c5a2d5b6007fbf559a537d262" target="_top" xlink:title="Extracts the body of a clause. ">
<polygon fill="none" stroke="black" points="1875.5,-47.5 1875.5,-66.5 2018.5,-66.5 2018.5,-47.5 1875.5,-47.5"/>
<text text-anchor="middle" x="1947" y="-54.5" font-family="Helvetica,sans-Serif" font-size="10.00">prolog.terms.Clause.getBody</text>
</a>
</g>
</g>
<!-- Node37&#45;&gt;Node38 -->
<g id="edge46" class="edge"><title>Node37&#45;&gt;Node38</title>
<path fill="none" stroke="midnightblue" d="M1815.16,-28.589C1838.57,-33.6713 1867.51,-39.9554 1892.21,-45.3203"/>
<polygon fill="midnightblue" stroke="midnightblue" points="1891.64,-48.7782 1902.16,-47.4799 1893.13,-41.9376 1891.64,-48.7782"/>
</g>
<!-- Node39 -->
<g id="node39" class="node"><title>Node39</title>
<g id="a_node39"><a xlink:href="../../d6/dc4/classprolog_1_1terms_1_1Clause_a5e5502c9619429232fcb310406256830.html#a5e5502c9619429232fcb310406256830" target="_top" xlink:title="Extracts the head of a clause (a Term). ">
<polygon fill="none" stroke="black" points="1875,-9.5 1875,-28.5 2019,-28.5 2019,-9.5 1875,-9.5"/>
<text text-anchor="middle" x="1947" y="-16.5" font-family="Helvetica,sans-Serif" font-size="10.00">prolog.terms.Clause.getHead</text>
</a>
</g>
</g>
<!-- Node37&#45;&gt;Node39 -->
<g id="edge48" class="edge"><title>Node37&#45;&gt;Node39</title>
<path fill="none" stroke="midnightblue" d="M1839.16,-19C1847.58,-19 1856.24,-19 1864.83,-19"/>
<polygon fill="midnightblue" stroke="midnightblue" points="1864.85,-22.5001 1874.85,-19 1864.85,-15.5001 1864.85,-22.5001"/>
</g>
<!-- Node38&#45;&gt;Node28 -->
<g id="edge47" class="edge"><title>Node38&#45;&gt;Node28</title>
<path fill="none" stroke="midnightblue" d="M2018.62,-57C2030.21,-57 2042.17,-57 2053.61,-57"/>
<polygon fill="midnightblue" stroke="midnightblue" points="2053.93,-60.5001 2063.93,-57 2053.93,-53.5001 2053.93,-60.5001"/>
</g>
<!-- Node39&#45;&gt;Node28 -->
<g id="edge49" class="edge"><title>Node39&#45;&gt;Node28</title>
<path fill="none" stroke="midnightblue" d="M1990.9,-28.589C2013.53,-33.6487 2041.5,-39.8996 2065.43,-45.2488"/>
<polygon fill="midnightblue" stroke="midnightblue" points="2064.89,-48.7141 2075.41,-47.4799 2066.41,-41.8827 2064.89,-48.7141"/>
</g>
</g>
</svg>
        <g id="navigator" transform="translate(0 0)" fill="#404254">
                <rect fill="#f2f5e9" fill-opacity="0.5" stroke="#606060" stroke-width=".5" x="0" y="0" width="60" height="60"/>
                <use id="zoomplus" xlink:href="#zoomPlus" x="17" y="9" onmousedown="handleZoom(evt,'in')"/>
                <use id="zoomminus" xlink:href="#zoomMin" x="42" y="9" onmousedown="handleZoom(evt,'out')"/>
                <use id="reset" xlink:href="#resetDef" x="30" y="36" onmousedown="handleReset()"/>
                <g id="arrowUp" xlink:href="#dirArrow" transform="translate(30 24)" onmousedown="handlePan(0,-1)">
                  <use xlink:href="#rim" fill="#404040">
                        <set attributeName="fill" to="#808080" begin="arrowUp.mouseover" end="arrowUp.mouseout"/>
                  </use>
                  <path fill="none" stroke="white" stroke-width="1.5" d="M0,-3.0v7 M-2.5,-0.5L0,-3.0L2.5,-0.5"/>
                </g>
                <g id="arrowRight" xlink:href="#dirArrow" transform="rotate(90) translate(36 -43)" onmousedown="handlePan(1,0)">
                  <use xlink:href="#rim" fill="#404040">
                        <set attributeName="fill" to="#808080" begin="arrowRight.mouseover" end="arrowRight.mouseout"/>
                  </use>
                  <path fill="none" stroke="white" stroke-width="1.5" d="M0,-3.0v7 M-2.5,-0.5L0,-3.0L2.5,-0.5"/>
                </g>
                <g id="arrowDown" xlink:href="#dirArrow" transform="rotate(180) translate(-30 -48)" onmousedown="handlePan(0,1)">
                  <use xlink:href="#rim" fill="#404040">
                        <set attributeName="fill" to="#808080" begin="arrowDown.mouseover" end="arrowDown.mouseout"/>
                  </use>
                  <path fill="none" stroke="white" stroke-width="1.5" d="M0,-3.0v7 M-2.5,-0.5L0,-3.0L2.5,-0.5"/>
                </g>
                <g id="arrowLeft" xlink:href="#dirArrow" transform="rotate(270) translate(-36 17)" onmousedown="handlePan(-1,0)">
                  <use xlink:href="#rim" fill="#404040">
                        <set attributeName="fill" to="#808080" begin="arrowLeft.mouseover" end="arrowLeft.mouseout"/>
                  </use>
                  <path fill="none" stroke="white" stroke-width="1.5" d="M0,-3.0v7 M-2.5,-0.5L0,-3.0L2.5,-0.5"/>
                </g>
        </g>
        <svg viewBox="0 0 15 15" width="100%" height="30px" preserveAspectRatio="xMaxYMin meet">
         <g id="arrow_out" transform="scale(0.3 0.3)">
          <a xlink:href="classprolog_1_1terms_1_1Term_a837eb66c18c36b2a0a4ecce8ad7cd144_a837eb66c18c36b2a0a4ecce8ad7cd144_cgraph_org.svg" target="_base">
           <rect id="button" ry="5" rx="5" y="6" x="6" height="38" width="38"
                fill="#f2f5e9" fill-opacity="0.5" stroke="#606060" stroke-width="1.0"/>
           <path id="arrow"
             d="M 11.500037,31.436501 C 11.940474,20.09759 22.043105,11.32322 32.158766,21.979434 L 37.068811,17.246167 C 37.068811,17.246167 37.088388,32 37.088388,32 L 22.160133,31.978069 C 22.160133,31.978069 26.997745,27.140456 26.997745,27.140456 C 18.528582,18.264221 13.291696,25.230495 11.500037,31.436501 z"
             style="fill:#404040;"/>
          </a>
         </g>
        </svg>
</svg>
