<?xml version="1.0" encoding="UTF-8" standalone="no"?>
<!DOCTYPE svg PUBLIC "-//W3C//DTD SVG 1.1//EN"
 "http://www.w3.org/Graphics/SVG/1.1/DTD/svg11.dtd">
<!-- Generated by graphviz version 2.38.0 (20140413.2041)
 -->
<!-- Title: prolog.terms.Term.getArity Pages: 1 -->
<svg width="776pt" height="116pt"
 viewBox="0.00 0.00 776.00 115.50" xmlns="http://www.w3.org/2000/svg" xmlns:xlink="http://www.w3.org/1999/xlink">
<g id="graph0" class="graph" transform="scale(1 1) rotate(0) translate(4 111.5)">
<title>prolog.terms.Term.getArity</title>
<!-- Node1 -->
<g id="node1" class="node"><title>Node1</title>
<polygon fill="#bfbfbf" stroke="black" points="0,-60.5 0,-79.5 133,-79.5 133,-60.5 0,-60.5"/>
<text text-anchor="middle" x="66.5" y="-67.5" font-family="Helvetica,sans-Serif" font-size="10.00">prolog.terms.Term.getArity</text>
</g>
<!-- Node2 -->
<g id="node2" class="node"><title>Node2</title>
<g id="a_node2"><a xlink:href="../../d6/dc4/classprolog_1_1terms_1_1Clause_a5334e8934d6aa83d3bd13b7b38d3992a.html#a5334e8934d6aa83d3bd13b7b38d3992a" target="_top" xlink:title="Detects that a clause is ground (i.e. ">
<polygon fill="none" stroke="black" points="169,-77 169,-107 303,-107 303,-77 169,-77"/>
<text text-anchor="start" x="177" y="-95" font-family="Helvetica,sans-Serif" font-size="10.00">prolog.terms.Clause.check</text>
<text text-anchor="middle" x="236" y="-84" font-family="Helvetica,sans-Serif" font-size="10.00">IfGround</text>
</a>
</g>
</g>
<!-- Node1&#45;&gt;Node2 -->
<g id="edge1" class="edge"><title>Node1&#45;&gt;Node2</title>
<path fill="none" stroke="midnightblue" d="M143.214,-79.9445C151.791,-81.071 160.481,-82.2124 168.92,-83.3208"/>
<polygon fill="midnightblue" stroke="midnightblue" points="143.59,-76.464 133.22,-78.6318 142.679,-83.4044 143.59,-76.464"/>
</g>
<!-- Node6 -->
<g id="node6" class="node"><title>Node6</title>
<g id="a_node6"><a xlink:href="../../d8/d35/classprolog_1_1Init_a34d43d3123bb194902cbcb1c06194cce.html#a34d43d3123bb194902cbcb1c06194cce" target="_top" xlink:title="evalutes a query ">
<polygon fill="none" stroke="black" points="185.5,-38.5 185.5,-57.5 286.5,-57.5 286.5,-38.5 185.5,-38.5"/>
<text text-anchor="middle" x="236" y="-45.5" font-family="Helvetica,sans-Serif" font-size="10.00">prolog.Init.evalGoal</text>
</a>
</g>
</g>
<!-- Node1&#45;&gt;Node6 -->
<g id="edge5" class="edge"><title>Node1&#45;&gt;Node6</title>
<path fill="none" stroke="midnightblue" d="M143.47,-60.0219C157.651,-58.1592 172.133,-56.2571 185.27,-54.5317"/>
<polygon fill="midnightblue" stroke="midnightblue" points="142.679,-56.5956 133.22,-61.3682 143.59,-63.536 142.679,-56.5956"/>
</g>
<!-- Node3 -->
<g id="node3" class="node"><title>Node3</title>
<g id="a_node3"><a xlink:href="../../d6/dc4/classprolog_1_1terms_1_1Clause_a00d8b13e5351a9f8c1ef80de688cd266.html#a00d8b13e5351a9f8c1ef80de688cd266" target="_top" xlink:title="Reads a goal as a clause containing a dummy header with all variables in it. ">
<polygon fill="none" stroke="black" points="339,-82.5 339,-101.5 475,-101.5 475,-82.5 339,-82.5"/>
<text text-anchor="middle" x="407" y="-89.5" font-family="Helvetica,sans-Serif" font-size="10.00">prolog.terms.Clause.toGoal</text>
</a>
</g>
</g>
<!-- Node2&#45;&gt;Node3 -->
<g id="edge2" class="edge"><title>Node2&#45;&gt;Node3</title>
<path fill="none" stroke="midnightblue" d="M313.511,-92C321.938,-92 330.471,-92 338.772,-92"/>
<polygon fill="midnightblue" stroke="midnightblue" points="313.308,-88.5001 303.308,-92 313.308,-95.5001 313.308,-88.5001"/>
</g>
<!-- Node4 -->
<g id="node4" class="node"><title>Node4</title>
<g id="a_node4"><a xlink:href="../../d6/dc4/classprolog_1_1terms_1_1Clause_aff298dbb79a27341afb0860f82ad1464.html#aff298dbb79a27341afb0860f82ad1464" target="_top" xlink:title="prolog.terms.Clause.goal\lFromString">
<polygon fill="none" stroke="black" points="511,-77 511,-107 636,-107 636,-77 511,-77"/>
<text text-anchor="start" x="519" y="-95" font-family="Helvetica,sans-Serif" font-size="10.00">prolog.terms.Clause.goal</text>
<text text-anchor="middle" x="573.5" y="-84" font-family="Helvetica,sans-Serif" font-size="10.00">FromString</text>
</a>
</g>
</g>
<!-- Node3&#45;&gt;Node4 -->
<g id="edge3" class="edge"><title>Node3&#45;&gt;Node4</title>
<path fill="none" stroke="midnightblue" d="M485.62,-92C494.059,-92 502.562,-92 510.775,-92"/>
<polygon fill="midnightblue" stroke="midnightblue" points="485.383,-88.5001 475.383,-92 485.383,-95.5001 485.383,-88.5001"/>
</g>
<!-- Node5 -->
<g id="node5" class="node"><title>Node5</title>
<g id="a_node5"><a xlink:href="../../d8/d35/classprolog_1_1Init_a0f6db95b70444cd1b933f24ec44814e4.html#a0f6db95b70444cd1b933f24ec44814e4" target="_top" xlink:title="prolog.Init.getGoal">
<polygon fill="none" stroke="black" points="672,-82.5 672,-101.5 768,-101.5 768,-82.5 672,-82.5"/>
<text text-anchor="middle" x="720" y="-89.5" font-family="Helvetica,sans-Serif" font-size="10.00">prolog.Init.getGoal</text>
</a>
</g>
</g>
<!-- Node4&#45;&gt;Node5 -->
<g id="edge4" class="edge"><title>Node4&#45;&gt;Node5</title>
<path fill="none" stroke="midnightblue" d="M646.36,-92C655.044,-92 663.735,-92 671.932,-92"/>
<polygon fill="midnightblue" stroke="midnightblue" points="646.2,-88.5001 636.2,-92 646.2,-95.5001 646.2,-88.5001"/>
</g>
<!-- Node7 -->
<g id="node7" class="node"><title>Node7</title>
<g id="a_node7"><a xlink:href="../../d8/d35/classprolog_1_1Init_a2471811f50fbed4de5df26ee530f1e2e.html#a2471811f50fbed4de5df26ee530f1e2e" target="_top" xlink:title="evaluates and times a Goal querying program P ">
<polygon fill="none" stroke="black" points="356.5,-38.5 356.5,-57.5 457.5,-57.5 457.5,-38.5 356.5,-38.5"/>
<text text-anchor="middle" x="407" y="-45.5" font-family="Helvetica,sans-Serif" font-size="10.00">prolog.Init.timeGoal</text>
</a>
</g>
</g>
<!-- Node6&#45;&gt;Node7 -->
<g id="edge6" class="edge"><title>Node6&#45;&gt;Node7</title>
<path fill="none" stroke="midnightblue" d="M297.039,-48C316.434,-48 337.709,-48 356.273,-48"/>
<polygon fill="midnightblue" stroke="midnightblue" points="296.792,-44.5001 286.792,-48 296.791,-51.5001 296.792,-44.5001"/>
</g>
<!-- Node8 -->
<g id="node8" class="node"><title>Node8</title>
<g id="a_node8"><a xlink:href="../../d8/d35/classprolog_1_1Init_a0348efff7140aed75f8364f90b7c2b8b.html#a0348efff7140aed75f8364f90b7c2b8b" target="_top" xlink:title="prolog.Init.run_query">
<polygon fill="none" stroke="black" points="521,-38.5 521,-57.5 626,-57.5 626,-38.5 521,-38.5"/>
<text text-anchor="middle" x="573.5" y="-45.5" font-family="Helvetica,sans-Serif" font-size="10.00">prolog.Init.run_query</text>
</a>
</g>
</g>
<!-- Node7&#45;&gt;Node8 -->
<g id="edge7" class="edge"><title>Node7&#45;&gt;Node8</title>
<path fill="none" stroke="midnightblue" d="M467.841,-48C485.221,-48 504.045,-48 520.873,-48"/>
<polygon fill="midnightblue" stroke="midnightblue" points="467.802,-44.5001 457.802,-48 467.802,-51.5001 467.802,-44.5001"/>
</g>
<!-- Node9 -->
<g id="node9" class="node"><title>Node9</title>
<g id="a_node9"><a xlink:href="../../d8/d35/classprolog_1_1Init_a3e8704cf8b2d909fccc79e967dd48171.html#a3e8704cf8b2d909fccc79e967dd48171" target="_top" xlink:title="prolog.Init.standardTop">
<polygon fill="none" stroke="black" points="515.5,-0.5 515.5,-19.5 631.5,-19.5 631.5,-0.5 515.5,-0.5"/>
<text text-anchor="middle" x="573.5" y="-7.5" font-family="Helvetica,sans-Serif" font-size="10.00">prolog.Init.standardTop</text>
</a>
</g>
</g>
<!-- Node7&#45;&gt;Node9 -->
<g id="edge8" class="edge"><title>Node7&#45;&gt;Node9</title>
<path fill="none" stroke="midnightblue" d="M459.497,-36.1039C482.62,-30.7626 509.53,-24.5463 531.288,-19.5201"/>
<polygon fill="midnightblue" stroke="midnightblue" points="458.466,-32.75 449.51,-38.411 460.042,-39.5704 458.466,-32.75"/>
</g>
</g>
</svg>
