<?xml version="1.0" encoding="UTF-8" standalone="no"?>
<!DOCTYPE svg PUBLIC "-//W3C//DTD SVG 1.1//EN"
 "http://www.w3.org/Graphics/SVG/1.1/DTD/svg11.dtd">
<!-- Generated by graphviz version 2.38.0 (20140413.2041)
 -->
<!-- Title: prolog.terms.Term.toClause Pages: 1 -->
<svg width="1419pt" height="327pt"
 viewBox="0.00 0.00 1419.00 326.50" xmlns="http://www.w3.org/2000/svg" xmlns:xlink="http://www.w3.org/1999/xlink">
<g id="graph0" class="graph" transform="scale(1 1) rotate(0) translate(4 322.5)">
<title>prolog.terms.Term.toClause</title>
<!-- Node1 -->
<g id="node1" class="node"><title>Node1</title>
<polygon fill="#bfbfbf" stroke="black" points="0,-156 0,-175 138,-175 138,-156 0,-156"/>
<text text-anchor="middle" x="69" y="-163" font-family="Helvetica,sans-Serif" font-size="10.00">prolog.terms.Term.toClause</text>
</g>
<!-- Node2 -->
<g id="node2" class="node"><title>Node2</title>
<g id="a_node2"><a xlink:href="../../d1/d04/classprolog_1_1builtins_1_1unfolder__source_a10b264cf5cea76d538c7d6d731e401e5.html#a10b264cf5cea76d538c7d6d731e401e5" target="_top" xlink:title="prolog.builtins.unfolder\l_source.exec">
<polygon fill="none" stroke="black" points="180.5,-199.5 180.5,-229.5 294.5,-229.5 294.5,-199.5 180.5,-199.5"/>
<text text-anchor="start" x="188.5" y="-217.5" font-family="Helvetica,sans-Serif" font-size="10.00">prolog.builtins.unfolder</text>
<text text-anchor="middle" x="237.5" y="-206.5" font-family="Helvetica,sans-Serif" font-size="10.00">_source.exec</text>
</a>
</g>
</g>
<!-- Node1&#45;&gt;Node2 -->
<g id="edge1" class="edge"><title>Node1&#45;&gt;Node2</title>
<path fill="none" stroke="midnightblue" d="M112.318,-177.954C134.559,-184.499 161.987,-192.571 185.405,-199.463"/>
<polygon fill="midnightblue" stroke="midnightblue" points="113.079,-174.53 102.498,-175.064 111.103,-181.245 113.079,-174.53"/>
</g>
<!-- Node3 -->
<g id="node3" class="node"><title>Node3</title>
<g id="a_node3"><a xlink:href="../../df/d94/classprolog_1_1terms_1_1Unfolder_a261a28665ab541b974afb636c3fec84b.html#a261a28665ab541b974afb636c3fec84b" target="_top" xlink:title="Returns a new clause by unfolding the goal with a matching clause in the database, or null if no such clause exists. ">
<polygon fill="none" stroke="black" points="174,-150.5 174,-180.5 301,-180.5 301,-150.5 174,-150.5"/>
<text text-anchor="start" x="182" y="-168.5" font-family="Helvetica,sans-Serif" font-size="10.00">prolog.terms.Unfolder.get</text>
<text text-anchor="middle" x="237.5" y="-157.5" font-family="Helvetica,sans-Serif" font-size="10.00">Element</text>
</a>
</g>
</g>
<!-- Node1&#45;&gt;Node3 -->
<g id="edge2" class="edge"><title>Node1&#45;&gt;Node3</title>
<path fill="none" stroke="midnightblue" d="M148.205,-165.5C156.773,-165.5 165.412,-165.5 173.758,-165.5"/>
<polygon fill="midnightblue" stroke="midnightblue" points="148.202,-162 138.202,-165.5 148.202,-169 148.202,-162"/>
</g>
<!-- Node20 -->
<g id="node20" class="node"><title>Node20</title>
<g id="a_node20"><a xlink:href="../../d7/df1/classprolog_1_1io_1_1Parser_a1b471775e839ca62d69e46fa3928154d.html#a1b471775e839ca62d69e46fa3928154d" target="_top" xlink:title="prolog.io.Parser.toClause">
<polygon fill="none" stroke="black" points="174,-90 174,-109 301,-109 301,-90 174,-90"/>
<text text-anchor="middle" x="237.5" y="-97" font-family="Helvetica,sans-Serif" font-size="10.00">prolog.io.Parser.toClause</text>
</a>
</g>
</g>
<!-- Node1&#45;&gt;Node20 -->
<g id="edge21" class="edge"><title>Node1&#45;&gt;Node20</title>
<path fill="none" stroke="midnightblue" d="M103.694,-152.144C135.997,-139.339 183.949,-120.331 212.53,-109.001"/>
<polygon fill="midnightblue" stroke="midnightblue" points="102.217,-148.964 94.2105,-155.903 104.797,-155.472 102.217,-148.964"/>
</g>
<!-- Node4 -->
<g id="node4" class="node"><title>Node4</title>
<g id="a_node4"><a xlink:href="../../d4/d26/classprolog_1_1terms_1_1Prog_ac5d988b907a2843fcfcba4d1fd1e0deb.html#ac5d988b907a2843fcfcba4d1fd1e0deb" target="_top" xlink:title="Here is where actual LD&#45;resolution computation happens. ">
<polygon fill="none" stroke="black" points="337,-167 337,-186 483,-186 483,-167 337,-167"/>
<text text-anchor="middle" x="410" y="-174" font-family="Helvetica,sans-Serif" font-size="10.00">prolog.terms.Prog.getElement</text>
</a>
</g>
</g>
<!-- Node3&#45;&gt;Node4 -->
<g id="edge3" class="edge"><title>Node3&#45;&gt;Node4</title>
<path fill="none" stroke="midnightblue" d="M311.008,-170.178C319.603,-170.732 328.376,-171.298 336.965,-171.853"/>
<polygon fill="midnightblue" stroke="midnightblue" points="311.224,-166.685 301.02,-169.534 310.774,-173.67 311.224,-166.685"/>
</g>
<!-- Node5 -->
<g id="node5" class="node"><title>Node5</title>
<g id="a_node5"><a xlink:href="../../d4/d26/classprolog_1_1terms_1_1Prog_a696a0c92a1814ecf4f21fb09fbc854a0.html#a696a0c92a1814ecf4f21fb09fbc854a0" target="_top" xlink:title="asks a logic engine to return a solution ">
<polygon fill="none" stroke="black" points="531,-208.5 531,-238.5 644,-238.5 644,-208.5 531,-208.5"/>
<text text-anchor="start" x="539" y="-226.5" font-family="Helvetica,sans-Serif" font-size="10.00">prolog.terms.Prog.ask</text>
<text text-anchor="middle" x="587.5" y="-215.5" font-family="Helvetica,sans-Serif" font-size="10.00">_engine</text>
</a>
</g>
</g>
<!-- Node4&#45;&gt;Node5 -->
<g id="edge4" class="edge"><title>Node4&#45;&gt;Node5</title>
<path fill="none" stroke="midnightblue" d="M456.277,-188.625C479.076,-194.731 506.915,-202.187 530.993,-208.635"/>
<polygon fill="midnightblue" stroke="midnightblue" points="457.08,-185.217 446.515,-186.011 455.269,-191.979 457.08,-185.217"/>
</g>
<!-- Node19 -->
<g id="node19" class="node"><title>Node19</title>
<g id="a_node19"><a xlink:href="../../d4/d26/classprolog_1_1terms_1_1Prog_a45a00a5df54d8c378930f320020b457f.html#a45a00a5df54d8c378930f320020b457f" target="_top" xlink:title="usable for launching on a separate thread ">
<polygon fill="none" stroke="black" points="532.5,-167 532.5,-186 642.5,-186 642.5,-167 532.5,-167"/>
<text text-anchor="middle" x="587.5" y="-174" font-family="Helvetica,sans-Serif" font-size="10.00">prolog.terms.Prog.run</text>
</a>
</g>
</g>
<!-- Node4&#45;&gt;Node19 -->
<g id="edge20" class="edge"><title>Node4&#45;&gt;Node19</title>
<path fill="none" stroke="midnightblue" d="M493.24,-176.5C506.514,-176.5 519.957,-176.5 532.348,-176.5"/>
<polygon fill="midnightblue" stroke="midnightblue" points="493.142,-173 483.142,-176.5 493.142,-180 493.142,-173"/>
</g>
<!-- Node6 -->
<g id="node6" class="node"><title>Node6</title>
<g id="a_node6"><a xlink:href="../../d8/d35/classprolog_1_1Init_a34d43d3123bb194902cbcb1c06194cce.html#a34d43d3123bb194902cbcb1c06194cce" target="_top" xlink:title="evalutes a query ">
<polygon fill="none" stroke="black" points="906,-252 906,-271 1007,-271 1007,-252 906,-252"/>
<text text-anchor="middle" x="956.5" y="-259" font-family="Helvetica,sans-Serif" font-size="10.00">prolog.Init.evalGoal</text>
</a>
</g>
</g>
<!-- Node5&#45;&gt;Node6 -->
<g id="edge5" class="edge"><title>Node5&#45;&gt;Node6</title>
<path fill="none" stroke="midnightblue" d="M654.112,-236.663C666.652,-238.861 679.702,-240.933 692,-242.5 766.161,-251.952 852.708,-257.07 905.803,-259.542"/>
<polygon fill="midnightblue" stroke="midnightblue" points="654.65,-233.204 644.188,-234.88 653.412,-240.093 654.65,-233.204"/>
</g>
<!-- Node10 -->
<g id="node10" class="node"><title>Node10</title>
<g id="a_node10"><a xlink:href="../../d4/d26/classprolog_1_1terms_1_1Prog_afb6f86119db8ba133de23f8bfe24ba2e.html#afb6f86119db8ba133de23f8bfe24ba2e" target="_top" xlink:title="Computes a copy of the first solution X of Goal G. ">
<polygon fill="none" stroke="black" points="692,-214 692,-233 841,-233 841,-214 692,-214"/>
<text text-anchor="middle" x="766.5" y="-221" font-family="Helvetica,sans-Serif" font-size="10.00">prolog.terms.Prog.firstSolution</text>
</a>
</g>
</g>
<!-- Node5&#45;&gt;Node10 -->
<g id="edge9" class="edge"><title>Node5&#45;&gt;Node10</title>
<path fill="none" stroke="midnightblue" d="M654.193,-223.5C666.51,-223.5 679.46,-223.5 691.996,-223.5"/>
<polygon fill="midnightblue" stroke="midnightblue" points="654.018,-220 644.018,-223.5 654.018,-227 654.018,-220"/>
</g>
<!-- Node7 -->
<g id="node7" class="node"><title>Node7</title>
<g id="a_node7"><a xlink:href="../../d8/d35/classprolog_1_1Init_a2471811f50fbed4de5df26ee530f1e2e.html#a2471811f50fbed4de5df26ee530f1e2e" target="_top" xlink:title="evaluates and times a Goal querying program P ">
<polygon fill="none" stroke="black" points="1095.5,-290 1095.5,-309 1196.5,-309 1196.5,-290 1095.5,-290"/>
<text text-anchor="middle" x="1146" y="-297" font-family="Helvetica,sans-Serif" font-size="10.00">prolog.Init.timeGoal</text>
</a>
</g>
</g>
<!-- Node6&#45;&gt;Node7 -->
<g id="edge6" class="edge"><title>Node6&#45;&gt;Node7</title>
<path fill="none" stroke="midnightblue" d="M1014.78,-273.11C1041.45,-278.514 1072.78,-284.864 1098.03,-289.98"/>
<polygon fill="midnightblue" stroke="midnightblue" points="1015.31,-269.645 1004.81,-271.089 1013.92,-276.506 1015.31,-269.645"/>
</g>
<!-- Node8 -->
<g id="node8" class="node"><title>Node8</title>
<g id="a_node8"><a xlink:href="../../d8/d35/classprolog_1_1Init_a0348efff7140aed75f8364f90b7c2b8b.html#a0348efff7140aed75f8364f90b7c2b8b" target="_top" xlink:title="prolog.Init.run_query">
<polygon fill="none" stroke="black" points="1281,-299 1281,-318 1386,-318 1386,-299 1281,-299"/>
<text text-anchor="middle" x="1333.5" y="-306" font-family="Helvetica,sans-Serif" font-size="10.00">prolog.Init.run_query</text>
</a>
</g>
</g>
<!-- Node7&#45;&gt;Node8 -->
<g id="edge7" class="edge"><title>Node7&#45;&gt;Node8</title>
<path fill="none" stroke="midnightblue" d="M1206.7,-302.396C1230.54,-303.553 1257.72,-304.872 1280.71,-305.987"/>
<polygon fill="midnightblue" stroke="midnightblue" points="1206.87,-298.901 1196.71,-301.912 1206.53,-305.892 1206.87,-298.901"/>
</g>
<!-- Node9 -->
<g id="node9" class="node"><title>Node9</title>
<g id="a_node9"><a xlink:href="../../d8/d35/classprolog_1_1Init_a3e8704cf8b2d909fccc79e967dd48171.html#a3e8704cf8b2d909fccc79e967dd48171" target="_top" xlink:title="prolog.Init.standardTop">
<polygon fill="none" stroke="black" points="1275.5,-261 1275.5,-280 1391.5,-280 1391.5,-261 1275.5,-261"/>
<text text-anchor="middle" x="1333.5" y="-268" font-family="Helvetica,sans-Serif" font-size="10.00">prolog.Init.standardTop</text>
</a>
</g>
</g>
<!-- Node7&#45;&gt;Node9 -->
<g id="edge8" class="edge"><title>Node7&#45;&gt;Node9</title>
<path fill="none" stroke="midnightblue" d="M1206.62,-290.179C1228.67,-286.731 1253.61,-282.834 1275.43,-279.422"/>
<polygon fill="midnightblue" stroke="midnightblue" points="1206.05,-286.726 1196.71,-291.729 1207.13,-293.642 1206.05,-286.726"/>
</g>
<!-- Node10&#45;&gt;Node6 -->
<g id="edge16" class="edge"><title>Node10&#45;&gt;Node6</title>
<path fill="none" stroke="midnightblue" d="M824.937,-235.11C851.674,-240.514 883.088,-246.864 908.401,-251.98"/>
<polygon fill="midnightblue" stroke="midnightblue" points="825.436,-231.64 814.94,-233.089 824.049,-238.501 825.436,-231.64"/>
</g>
<!-- Node11 -->
<g id="node11" class="node"><title>Node11</title>
<g id="a_node11"><a xlink:href="../../d8/d35/classprolog_1_1Init_a4a7b9ae1dc4d489e657326f3ed5a4b7e.html#a4a7b9ae1dc4d489e657326f3ed5a4b7e" target="_top" xlink:title="Asks Prolog a query Answer, Goal and returns the first solution of the form &quot;the(Answer)&quot; or the cons...">
<polygon fill="none" stroke="black" points="903.5,-214 903.5,-233 1009.5,-233 1009.5,-214 903.5,-214"/>
<text text-anchor="middle" x="956.5" y="-221" font-family="Helvetica,sans-Serif" font-size="10.00">prolog.Init.askProlog</text>
</a>
</g>
</g>
<!-- Node10&#45;&gt;Node11 -->
<g id="edge10" class="edge"><title>Node10&#45;&gt;Node11</title>
<path fill="none" stroke="midnightblue" d="M851.583,-223.5C869.236,-223.5 887.361,-223.5 903.43,-223.5"/>
<polygon fill="midnightblue" stroke="midnightblue" points="851.263,-220 841.263,-223.5 851.263,-227 851.263,-220"/>
</g>
<!-- Node16 -->
<g id="node16" class="node"><title>Node16</title>
<g id="a_node16"><a xlink:href="../../da/dd9/classprolog_1_1fluents_1_1DataBase_a6f8041bc2bcb5cdd8a376e81a3dc4dca.html#a6f8041bc2bcb5cdd8a376e81a3dc4dca" target="_top" xlink:title="adds a Clause to the joint Linda and Predicate table ">
<polygon fill="none" stroke="black" points="877,-164.5 877,-194.5 1036,-194.5 1036,-164.5 877,-164.5"/>
<text text-anchor="start" x="885" y="-182.5" font-family="Helvetica,sans-Serif" font-size="10.00">prolog.fluents.DataBase.process</text>
<text text-anchor="middle" x="956.5" y="-171.5" font-family="Helvetica,sans-Serif" font-size="10.00">Clause</text>
</a>
</g>
</g>
<!-- Node10&#45;&gt;Node16 -->
<g id="edge17" class="edge"><title>Node10&#45;&gt;Node16</title>
<path fill="none" stroke="midnightblue" d="M818.277,-211.616C840.705,-206.367 867.329,-200.136 891.13,-194.565"/>
<polygon fill="midnightblue" stroke="midnightblue" points="817.232,-208.266 808.293,-213.953 818.828,-215.082 817.232,-208.266"/>
</g>
<!-- Node12 -->
<g id="node12" class="node"><title>Node12</title>
<g id="a_node12"><a xlink:href="../../d8/d35/classprolog_1_1Init_ae5fe9e2dc533d32690edbbec3b1c279b.html#ae5fe9e2dc533d32690edbbec3b1c279b" target="_top" xlink:title="Asks Prolog a query Goal and returns the first solution of the form &quot;the(Answer)&quot; ...">
<polygon fill="none" stroke="black" points="1093,-252 1093,-271 1199,-271 1199,-252 1093,-252"/>
<text text-anchor="middle" x="1146" y="-259" font-family="Helvetica,sans-Serif" font-size="10.00">prolog.Init.askProlog</text>
</a>
</g>
</g>
<!-- Node11&#45;&gt;Node12 -->
<g id="edge11" class="edge"><title>Node11&#45;&gt;Node12</title>
<path fill="none" stroke="midnightblue" d="M1014.78,-235.11C1041.45,-240.514 1072.78,-246.864 1098.03,-251.98"/>
<polygon fill="midnightblue" stroke="midnightblue" points="1015.31,-231.645 1004.81,-233.089 1013.92,-238.506 1015.31,-231.645"/>
</g>
<!-- Node13 -->
<g id="node13" class="node"><title>Node13</title>
<g id="a_node13"><a xlink:href="../../da/dde/classprolog_1_1Main_aca445add96cb95be654213f0e42d5b76.html#aca445add96cb95be654213f0e42d5b76" target="_top" xlink:title="prolog.Main.init">
<polygon fill="none" stroke="black" points="1104.5,-214 1104.5,-233 1187.5,-233 1187.5,-214 1104.5,-214"/>
<text text-anchor="middle" x="1146" y="-221" font-family="Helvetica,sans-Serif" font-size="10.00">prolog.Main.init</text>
</a>
</g>
</g>
<!-- Node11&#45;&gt;Node13 -->
<g id="edge12" class="edge"><title>Node11&#45;&gt;Node13</title>
<path fill="none" stroke="midnightblue" d="M1019.77,-223.5C1047.61,-223.5 1079.64,-223.5 1104.34,-223.5"/>
<polygon fill="midnightblue" stroke="midnightblue" points="1019.73,-220 1009.73,-223.5 1019.73,-227 1019.73,-220"/>
</g>
<!-- Node15 -->
<g id="node15" class="node"><title>Node15</title>
<g id="a_node15"><a xlink:href="../../d8/d35/classprolog_1_1Init_a7293b6db1f53eca4730418c54ab07109.html#a7293b6db1f53eca4730418c54ab07109" target="_top" xlink:title="prolog.Init.run">
<polygon fill="none" stroke="black" points="1108,-176 1108,-195 1184,-195 1184,-176 1108,-176"/>
<text text-anchor="middle" x="1146" y="-183" font-family="Helvetica,sans-Serif" font-size="10.00">prolog.Init.run</text>
</a>
</g>
</g>
<!-- Node11&#45;&gt;Node15 -->
<g id="edge14" class="edge"><title>Node11&#45;&gt;Node15</title>
<path fill="none" stroke="midnightblue" d="M1014.81,-211.886C1045.01,-205.764 1081.2,-198.43 1107.75,-193.05"/>
<polygon fill="midnightblue" stroke="midnightblue" points="1013.92,-208.494 1004.81,-213.911 1015.31,-215.355 1013.92,-208.494"/>
</g>
<!-- Node14 -->
<g id="node14" class="node"><title>Node14</title>
<g id="a_node14"><a xlink:href="../../da/dde/classprolog_1_1Main_ab0b3345fa72bd3b96c565437b962efa3.html#ab0b3345fa72bd3b96c565437b962efa3" target="_top" xlink:title="prolog.Main.main">
<polygon fill="none" stroke="black" points="1288,-204 1288,-223 1379,-223 1379,-204 1288,-204"/>
<text text-anchor="middle" x="1333.5" y="-211" font-family="Helvetica,sans-Serif" font-size="10.00">prolog.Main.main</text>
</a>
</g>
</g>
<!-- Node13&#45;&gt;Node14 -->
<g id="edge13" class="edge"><title>Node13&#45;&gt;Node14</title>
<path fill="none" stroke="midnightblue" d="M1197.79,-220.762C1226.02,-219.24 1260.83,-217.364 1287.99,-215.899"/>
<polygon fill="midnightblue" stroke="midnightblue" points="1197.51,-217.272 1187.71,-221.305 1197.88,-224.262 1197.51,-217.272"/>
</g>
<!-- Node15&#45;&gt;Node14 -->
<g id="edge15" class="edge"><title>Node15&#45;&gt;Node14</title>
<path fill="none" stroke="midnightblue" d="M1194.32,-192.643C1223.12,-196.989 1259.67,-202.507 1287.95,-206.775"/>
<polygon fill="midnightblue" stroke="midnightblue" points="1194.5,-189.131 1184.09,-191.099 1193.46,-196.052 1194.5,-189.131"/>
</g>
<!-- Node17 -->
<g id="node17" class="node"><title>Node17</title>
<g id="a_node17"><a xlink:href="../../da/dd9/classprolog_1_1fluents_1_1DataBase_a83885e10b61d6bf129307d9bf50d93de.html#a83885e10b61d6bf129307d9bf50d93de" target="_top" xlink:title="prolog.fluents.DataBase.apply\l_parser">
<polygon fill="none" stroke="black" points="1072,-126.5 1072,-156.5 1220,-156.5 1220,-126.5 1072,-126.5"/>
<text text-anchor="start" x="1080" y="-144.5" font-family="Helvetica,sans-Serif" font-size="10.00">prolog.fluents.DataBase.apply</text>
<text text-anchor="middle" x="1146" y="-133.5" font-family="Helvetica,sans-Serif" font-size="10.00">_parser</text>
</a>
</g>
</g>
<!-- Node16&#45;&gt;Node17 -->
<g id="edge18" class="edge"><title>Node16&#45;&gt;Node17</title>
<path fill="none" stroke="midnightblue" d="M1041.59,-162.457C1051.65,-160.419 1061.85,-158.351 1071.74,-156.347"/>
<polygon fill="midnightblue" stroke="midnightblue" points="1040.71,-159.065 1031.6,-164.481 1042.1,-165.925 1040.71,-159.065"/>
</g>
<!-- Node18 -->
<g id="node18" class="node"><title>Node18</title>
<g id="a_node18"><a xlink:href="../../da/dd9/classprolog_1_1fluents_1_1DataBase_af8b26948ded7bba6386b984f463bf166.html#af8b26948ded7bba6386b984f463bf166" target="_top" xlink:title="prolog.fluents.DataBase.stream\lToProg">
<polygon fill="none" stroke="black" points="1256,-126.5 1256,-156.5 1411,-156.5 1411,-126.5 1256,-126.5"/>
<text text-anchor="start" x="1264" y="-144.5" font-family="Helvetica,sans-Serif" font-size="10.00">prolog.fluents.DataBase.stream</text>
<text text-anchor="middle" x="1333.5" y="-133.5" font-family="Helvetica,sans-Serif" font-size="10.00">ToProg</text>
</a>
</g>
</g>
<!-- Node17&#45;&gt;Node18 -->
<g id="edge19" class="edge"><title>Node17&#45;&gt;Node18</title>
<path fill="none" stroke="midnightblue" d="M1230.06,-141.5C1238.65,-141.5 1247.34,-141.5 1255.86,-141.5"/>
<polygon fill="midnightblue" stroke="midnightblue" points="1230.05,-138 1220.05,-141.5 1230.05,-145 1230.05,-138"/>
</g>
<!-- Node21 -->
<g id="node21" class="node"><title>Node21</title>
<g id="a_node21"><a xlink:href="../../d7/df1/classprolog_1_1io_1_1Parser_a79322090cfbd908b02c83db6c65806d2.html#a79322090cfbd908b02c83db6c65806d2" target="_top" xlink:title="prolog.io.Parser.readClause\lOrEOF">
<polygon fill="none" stroke="black" points="341.5,-82.5 341.5,-112.5 478.5,-112.5 478.5,-82.5 341.5,-82.5"/>
<text text-anchor="start" x="349.5" y="-100.5" font-family="Helvetica,sans-Serif" font-size="10.00">prolog.io.Parser.readClause</text>
<text text-anchor="middle" x="410" y="-89.5" font-family="Helvetica,sans-Serif" font-size="10.00">OrEOF</text>
</a>
</g>
</g>
<!-- Node20&#45;&gt;Node21 -->
<g id="edge22" class="edge"><title>Node20&#45;&gt;Node21</title>
<path fill="none" stroke="midnightblue" d="M311.295,-98.6461C321.258,-98.5292 331.453,-98.4096 341.319,-98.2939"/>
<polygon fill="midnightblue" stroke="midnightblue" points="310.978,-95.1495 301.02,-98.7666 311.06,-102.149 310.978,-95.1495"/>
</g>
<!-- Node22 -->
<g id="node22" class="node"><title>Node22</title>
<g id="a_node22"><a xlink:href="../../d7/df1/classprolog_1_1io_1_1Parser_ad0255f716753ec63c0f4e7cf9a8d2d38.html#ad0255f716753ec63c0f4e7cf9a8d2d38" target="_top" xlink:title="Main Parser interface: reads a clause together with variable name information. ">
<polygon fill="none" stroke="black" points="519,-83 519,-102 656,-102 656,-83 519,-83"/>
<text text-anchor="middle" x="587.5" y="-90" font-family="Helvetica,sans-Serif" font-size="10.00">prolog.io.Parser.readClause</text>
</a>
</g>
</g>
<!-- Node21&#45;&gt;Node22 -->
<g id="edge23" class="edge"><title>Node21&#45;&gt;Node22</title>
<path fill="none" stroke="midnightblue" d="M488.624,-95.2885C498.728,-95.0006 509.012,-94.7076 518.933,-94.425"/>
<polygon fill="midnightblue" stroke="midnightblue" points="488.498,-91.7906 478.602,-95.574 488.697,-98.7877 488.498,-91.7906"/>
</g>
<!-- Node22&#45;&gt;Node17 -->
<g id="edge24" class="edge"><title>Node22&#45;&gt;Node17</title>
<path fill="none" stroke="midnightblue" d="M634.757,-104.453C652.538,-108.605 673.101,-112.875 692,-115.5 825.035,-133.976 981.803,-139.375 1071.68,-140.92"/>
<polygon fill="midnightblue" stroke="midnightblue" points="635.183,-100.956 624.643,-102.035 633.555,-107.764 635.183,-100.956"/>
</g>
<!-- Node23 -->
<g id="node23" class="node"><title>Node23</title>
<g id="a_node23"><a xlink:href="../../d7/df1/classprolog_1_1io_1_1Parser_acd7f700bcb96620b8c6770c2fcae5802.html#acd7f700bcb96620b8c6770c2fcae5802" target="_top" xlink:title="prolog.io.Parser.clsFrom\lString">
<polygon fill="none" stroke="black" points="705,-76.5 705,-106.5 828,-106.5 828,-76.5 705,-76.5"/>
<text text-anchor="start" x="713" y="-94.5" font-family="Helvetica,sans-Serif" font-size="10.00">prolog.io.Parser.clsFrom</text>
<text text-anchor="middle" x="766.5" y="-83.5" font-family="Helvetica,sans-Serif" font-size="10.00">String</text>
</a>
</g>
</g>
<!-- Node22&#45;&gt;Node23 -->
<g id="edge25" class="edge"><title>Node22&#45;&gt;Node23</title>
<path fill="none" stroke="midnightblue" d="M666.41,-92.0598C679.28,-91.9871 692.454,-91.9127 704.821,-91.8428"/>
<polygon fill="midnightblue" stroke="midnightblue" points="666.154,-88.5611 656.174,-92.1177 666.193,-95.561 666.154,-88.5611"/>
</g>
<!-- Node29 -->
<g id="node29" class="node"><title>Node29</title>
<g id="a_node29"><a xlink:href="../../d4/d09/classprolog_1_1io_1_1ClauseReader_a805e9a5ebc401e1099f39af9b3f6fb47.html#a805e9a5ebc401e1099f39af9b3f6fb47" target="_top" xlink:title="prolog.io.ClauseReader.get\lElement">
<polygon fill="none" stroke="black" points="699,-27.5 699,-57.5 834,-57.5 834,-27.5 699,-27.5"/>
<text text-anchor="start" x="707" y="-45.5" font-family="Helvetica,sans-Serif" font-size="10.00">prolog.io.ClauseReader.get</text>
<text text-anchor="middle" x="766.5" y="-34.5" font-family="Helvetica,sans-Serif" font-size="10.00">Element</text>
</a>
</g>
</g>
<!-- Node22&#45;&gt;Node29 -->
<g id="edge31" class="edge"><title>Node22&#45;&gt;Node29</title>
<path fill="none" stroke="midnightblue" d="M631.835,-80.2584C656.042,-73.4203 686.408,-64.8425 712.076,-57.5915"/>
<polygon fill="midnightblue" stroke="midnightblue" points="630.881,-76.891 622.209,-82.9777 632.784,-83.6273 630.881,-76.891"/>
</g>
<!-- Node24 -->
<g id="node24" class="node"><title>Node24</title>
<g id="a_node24"><a xlink:href="../../d6/dc4/classprolog_1_1terms_1_1Clause_a253e30217e7c206f42b947ba0dc7d754.html#a253e30217e7c206f42b947ba0dc7d754" target="_top" xlink:title="Extracts a clause from its String representation. ">
<polygon fill="none" stroke="black" points="888.5,-60.5 888.5,-90.5 1024.5,-90.5 1024.5,-60.5 888.5,-60.5"/>
<text text-anchor="start" x="896.5" y="-78.5" font-family="Helvetica,sans-Serif" font-size="10.00">prolog.terms.Clause.clause</text>
<text text-anchor="middle" x="956.5" y="-67.5" font-family="Helvetica,sans-Serif" font-size="10.00">FromString</text>
</a>
</g>
</g>
<!-- Node23&#45;&gt;Node24 -->
<g id="edge26" class="edge"><title>Node23&#45;&gt;Node24</title>
<path fill="none" stroke="midnightblue" d="M838.097,-85.4917C854.526,-84.0936 871.973,-82.6087 888.252,-81.2232"/>
<polygon fill="midnightblue" stroke="midnightblue" points="837.686,-82.0139 828.019,-86.3494 838.28,-88.9887 837.686,-82.0139"/>
</g>
<!-- Node25 -->
<g id="node25" class="node"><title>Node25</title>
<g id="a_node25"><a xlink:href="../../d6/dc4/classprolog_1_1terms_1_1Clause_a59a965be3fc2e88226d5202dca1b2a26.html#a59a965be3fc2e88226d5202dca1b2a26" target="_top" xlink:title="Constructs a clause by parsing its string representation. ">
<polygon fill="none" stroke="black" points="1077,-88 1077,-107 1215,-107 1215,-88 1077,-88"/>
<text text-anchor="middle" x="1146" y="-95" font-family="Helvetica,sans-Serif" font-size="10.00">prolog.terms.Clause.Clause</text>
</a>
</g>
</g>
<!-- Node24&#45;&gt;Node25 -->
<g id="edge27" class="edge"><title>Node24&#45;&gt;Node25</title>
<path fill="none" stroke="midnightblue" d="M1034.7,-84.5582C1048.63,-86.1931 1063.07,-87.8871 1076.73,-89.4895"/>
<polygon fill="midnightblue" stroke="midnightblue" points="1035,-81.0696 1024.66,-83.3804 1034.19,-88.0219 1035,-81.0696"/>
</g>
<!-- Node26 -->
<g id="node26" class="node"><title>Node26</title>
<g id="a_node26"><a xlink:href="../../d3/ded/classprolog_1_1terms_1_1Term_a837eb66c18c36b2a0a4ecce8ad7cd144.html#a837eb66c18c36b2a0a4ecce8ad7cd144" target="_top" xlink:title="prolog.terms.Term.fromString">
<polygon fill="none" stroke="black" points="1074,-50 1074,-69 1218,-69 1218,-50 1074,-50"/>
<text text-anchor="middle" x="1146" y="-57" font-family="Helvetica,sans-Serif" font-size="10.00">prolog.terms.Term.fromString</text>
</a>
</g>
</g>
<!-- Node24&#45;&gt;Node26 -->
<g id="edge28" class="edge"><title>Node24&#45;&gt;Node26</title>
<path fill="none" stroke="midnightblue" d="M1034.9,-68.8952C1047.8,-67.7941 1061.13,-66.6565 1073.87,-65.5696"/>
<polygon fill="midnightblue" stroke="midnightblue" points="1034.33,-65.4312 1024.66,-69.7688 1034.92,-72.4058 1034.33,-65.4312"/>
</g>
<!-- Node27 -->
<g id="node27" class="node"><title>Node27</title>
<g id="a_node27"><a xlink:href="../../d6/dc4/classprolog_1_1terms_1_1Clause_aff298dbb79a27341afb0860f82ad1464.html#aff298dbb79a27341afb0860f82ad1464" target="_top" xlink:title="prolog.terms.Clause.goal\lFromString">
<polygon fill="none" stroke="black" points="1083.5,-0.5 1083.5,-30.5 1208.5,-30.5 1208.5,-0.5 1083.5,-0.5"/>
<text text-anchor="start" x="1091.5" y="-18.5" font-family="Helvetica,sans-Serif" font-size="10.00">prolog.terms.Clause.goal</text>
<text text-anchor="middle" x="1146" y="-7.5" font-family="Helvetica,sans-Serif" font-size="10.00">FromString</text>
</a>
</g>
</g>
<!-- Node24&#45;&gt;Node27 -->
<g id="edge29" class="edge"><title>Node24&#45;&gt;Node27</title>
<path fill="none" stroke="midnightblue" d="M1014.43,-57.2819C1041.17,-48.7242 1072.67,-38.6458 1098.03,-30.5317"/>
<polygon fill="midnightblue" stroke="midnightblue" points="1013.27,-53.9782 1004.81,-60.3595 1015.41,-60.6451 1013.27,-53.9782"/>
</g>
<!-- Node28 -->
<g id="node28" class="node"><title>Node28</title>
<g id="a_node28"><a xlink:href="../../d8/d35/classprolog_1_1Init_a0f6db95b70444cd1b933f24ec44814e4.html#a0f6db95b70444cd1b933f24ec44814e4" target="_top" xlink:title="prolog.Init.getGoal">
<polygon fill="none" stroke="black" points="1285.5,-6 1285.5,-25 1381.5,-25 1381.5,-6 1285.5,-6"/>
<text text-anchor="middle" x="1333.5" y="-13" font-family="Helvetica,sans-Serif" font-size="10.00">prolog.Init.getGoal</text>
</a>
</g>
</g>
<!-- Node27&#45;&gt;Node28 -->
<g id="edge30" class="edge"><title>Node27&#45;&gt;Node28</title>
<path fill="none" stroke="midnightblue" d="M1218.63,-15.5C1240.97,-15.5 1265.03,-15.5 1285.25,-15.5"/>
<polygon fill="midnightblue" stroke="midnightblue" points="1218.51,-12.0001 1208.51,-15.5 1218.51,-19.0001 1218.51,-12.0001"/>
</g>
</g>
</svg>
