<?xml version="1.0" encoding="UTF-8" standalone="no"?>
<!DOCTYPE svg PUBLIC "-//W3C//DTD SVG 1.1//EN"
 "http://www.w3.org/Graphics/SVG/1.1/DTD/svg11.dtd">
<!-- Generated by graphviz version 2.38.0 (20140413.2041)
 -->
<!-- Title: prolog.terms.Term.exec Pages: 1 -->
<svg width="493pt" height="39pt"
 viewBox="0.00 0.00 493.00 39.00" xmlns="http://www.w3.org/2000/svg" xmlns:xlink="http://www.w3.org/1999/xlink">
<g id="graph0" class="graph" transform="scale(1 1) rotate(0) translate(4 35)">
<title>prolog.terms.Term.exec</title>
<!-- Node1 -->
<g id="node1" class="node"><title>Node1</title>
<polygon fill="#bfbfbf" stroke="black" points="0,-6 0,-25 120,-25 120,-6 0,-6"/>
<text text-anchor="middle" x="60" y="-13" font-family="Helvetica,sans-Serif" font-size="10.00">prolog.terms.Term.exec</text>
</g>
<!-- Node2 -->
<g id="node2" class="node"><title>Node2</title>
<g id="a_node2"><a xlink:href="../../df/d94/classprolog_1_1terms_1_1Unfolder_ae1840746f212e74a2beb717c3a794d3a.html#ae1840746f212e74a2beb717c3a794d3a" target="_top" xlink:title="Reduces builtin functions after the neck of a clause, before a &quot;real&quot; atom is unfolded. ">
<polygon fill="none" stroke="black" points="156,-0.5 156,-30.5 299,-30.5 299,-0.5 156,-0.5"/>
<text text-anchor="start" x="164" y="-18.5" font-family="Helvetica,sans-Serif" font-size="10.00">prolog.terms.Unfolder.reduce</text>
<text text-anchor="middle" x="227.5" y="-7.5" font-family="Helvetica,sans-Serif" font-size="10.00">Builtins</text>
</a>
</g>
</g>
<!-- Node1&#45;&gt;Node2 -->
<g id="edge1" class="edge"><title>Node1&#45;&gt;Node2</title>
<path fill="none" stroke="midnightblue" d="M130.397,-15.5C138.785,-15.5 147.362,-15.5 155.769,-15.5"/>
<polygon fill="midnightblue" stroke="midnightblue" points="130.282,-12.0001 120.282,-15.5 130.282,-19.0001 130.282,-12.0001"/>
</g>
<!-- Node3 -->
<g id="node3" class="node"><title>Node3</title>
<g id="a_node3"><a xlink:href="../../df/d94/classprolog_1_1terms_1_1Unfolder_a82021b31093362b5f28314f871cb3f85.html#a82021b31093362b5f28314f871cb3f85" target="_top" xlink:title="Creates an Unfolder based on goal clause g for resolution step in program p. ">
<polygon fill="none" stroke="black" points="335,-6 335,-25 485,-25 485,-6 335,-6"/>
<text text-anchor="middle" x="410" y="-13" font-family="Helvetica,sans-Serif" font-size="10.00">prolog.terms.Unfolder.Unfolder</text>
</a>
</g>
</g>
<!-- Node2&#45;&gt;Node3 -->
<g id="edge2" class="edge"><title>Node2&#45;&gt;Node3</title>
<path fill="none" stroke="midnightblue" d="M309.082,-15.5C317.68,-15.5 326.397,-15.5 334.915,-15.5"/>
<polygon fill="midnightblue" stroke="midnightblue" points="309.062,-12.0001 299.062,-15.5 309.061,-19.0001 309.062,-12.0001"/>
</g>
</g>
</svg>
