<?xml version="1.0" encoding="UTF-8" standalone="no"?>
<!DOCTYPE svg PUBLIC "-//W3C//DTD SVG 1.1//EN"
 "http://www.w3.org/Graphics/SVG/1.1/DTD/svg11.dtd">
<!-- Generated by graphviz version 2.38.0 (20140413.2041)
 -->
<!-- Title: prolog.terms.Term.toUnquoted Pages: 1 -->
<svg width="989pt" height="47pt"
 viewBox="0.00 0.00 989.00 47.00" xmlns="http://www.w3.org/2000/svg" xmlns:xlink="http://www.w3.org/1999/xlink">
<g id="graph0" class="graph" transform="scale(1 1) rotate(0) translate(4 43)">
<title>prolog.terms.Term.toUnquoted</title>
<!-- Node1 -->
<g id="node1" class="node"><title>Node1</title>
<polygon fill="#bfbfbf" stroke="black" points="0,-0.5 0,-19.5 149,-19.5 149,-0.5 0,-0.5"/>
<text text-anchor="middle" x="74.5" y="-7.5" font-family="Helvetica,sans-Serif" font-size="10.00">prolog.terms.Term.toUnquoted</text>
</g>
<!-- Node2 -->
<g id="node2" class="node"><title>Node2</title>
<g id="a_node2"><a xlink:href="../../d3/ded/classprolog_1_1terms_1_1Term_af1569a19ab5774ae5658b74cbacdbc11.html#af1569a19ab5774ae5658b74cbacdbc11" target="_top" xlink:title="Prints out a term to a String with variables named in order V1, V2,.... ">
<polygon fill="none" stroke="black" points="185,-0.5 185,-19.5 308,-19.5 308,-0.5 185,-0.5"/>
<text text-anchor="middle" x="246.5" y="-7.5" font-family="Helvetica,sans-Serif" font-size="10.00">prolog.terms.Term.pprint</text>
</a>
</g>
</g>
<!-- Node1&#45;&gt;Node2 -->
<g id="edge1" class="edge"><title>Node1&#45;&gt;Node2</title>
<path fill="none" stroke="midnightblue" d="M149.076,-10C157.561,-10 166.2,-10 174.648,-10"/>
<polygon fill="midnightblue" stroke="midnightblue" points="174.834,-13.5001 184.834,-10 174.834,-6.5001 174.834,-13.5001"/>
</g>
<!-- Node3 -->
<g id="node3" class="node"><title>Node3</title>
<g id="a_node3"><a xlink:href="../../d3/ded/classprolog_1_1terms_1_1Term_a50d0b69d48782ff4bcf433c70c1472a0.html#a50d0b69d48782ff4bcf433c70c1472a0" target="_top" xlink:title="Replaces variables with uppercase constants named `V1&#39;, &#39;V2&#39;, etc. ">
<polygon fill="none" stroke="black" points="344,-0.5 344,-19.5 494,-19.5 494,-0.5 344,-0.5"/>
<text text-anchor="middle" x="419" y="-7.5" font-family="Helvetica,sans-Serif" font-size="10.00">prolog.terms.Term.numbervars</text>
</a>
</g>
</g>
<!-- Node2&#45;&gt;Node3 -->
<g id="edge2" class="edge"><title>Node2&#45;&gt;Node3</title>
<path fill="none" stroke="midnightblue" d="M308.092,-10C316.416,-10 325.084,-10 333.738,-10"/>
<polygon fill="midnightblue" stroke="midnightblue" points="333.869,-13.5001 343.869,-10 333.869,-6.5001 333.869,-13.5001"/>
</g>
<!-- Node4 -->
<g id="node4" class="node"><title>Node4</title>
<g id="a_node4"><a xlink:href="../../d3/ded/classprolog_1_1terms_1_1Term_a01e5a83e648ee3f89415c0142c4220d4.html#a01e5a83e648ee3f89415c0142c4220d4" target="_top" xlink:title="Returns a copy of a term with variables standardized apart (`fresh variables&#39;). ">
<polygon fill="none" stroke="black" points="530,-19.5 530,-38.5 650,-38.5 650,-19.5 530,-19.5"/>
<text text-anchor="middle" x="590" y="-26.5" font-family="Helvetica,sans-Serif" font-size="10.00">prolog.terms.Term.copy</text>
</a>
</g>
</g>
<!-- Node3&#45;&gt;Node4 -->
<g id="edge3" class="edge"><title>Node3&#45;&gt;Node4</title>
<path fill="none" stroke="midnightblue" d="M494.126,-18.3337C502.638,-19.2906 511.292,-20.2636 519.737,-21.213"/>
<polygon fill="midnightblue" stroke="midnightblue" points="519.581,-24.7175 529.91,-22.3567 520.363,-17.7613 519.581,-24.7175"/>
</g>
<!-- Node5 -->
<g id="node5" class="node"><title>Node5</title>
<g id="a_node5"><a xlink:href="../../d3/ded/classprolog_1_1terms_1_1Term_a0a660e6cd55f12e49d328e1b84b478a4.html#a0a660e6cd55f12e49d328e1b84b478a4" target="_top" xlink:title="Defines the reaction to an agent recursing over the structure of a term. ">
<polygon fill="none" stroke="black" points="686,-0.5 686,-19.5 820,-19.5 820,-0.5 686,-0.5"/>
<text text-anchor="middle" x="753" y="-7.5" font-family="Helvetica,sans-Serif" font-size="10.00">prolog.terms.Term.reaction</text>
</a>
</g>
</g>
<!-- Node3&#45;&gt;Node5 -->
<g id="edge6" class="edge"><title>Node3&#45;&gt;Node5</title>
<path fill="none" stroke="midnightblue" d="M494.094,-10C548.045,-10 620.909,-10 675.428,-10"/>
<polygon fill="midnightblue" stroke="midnightblue" points="675.731,-13.5001 685.731,-10 675.731,-6.5001 675.731,-13.5001"/>
</g>
<!-- Node4&#45;&gt;Node5 -->
<g id="edge4" class="edge"><title>Node4&#45;&gt;Node5</title>
<path fill="none" stroke="midnightblue" d="M650.036,-22.033C658.422,-21.0434 667.143,-20.0142 675.797,-18.9929"/>
<polygon fill="midnightblue" stroke="midnightblue" points="676.381,-22.4484 685.902,-17.8004 675.56,-15.4966 676.381,-22.4484"/>
</g>
<!-- Node6 -->
<g id="node6" class="node"><title>Node6</title>
<g id="a_node6"><a xlink:href="../../d3/ded/classprolog_1_1terms_1_1Term_aa52e271c0f6784dbde9aa4f5f3ab0268.html#aa52e271c0f6784dbde9aa4f5f3ab0268" target="_top" xlink:title="Identity action. ">
<polygon fill="none" stroke="black" points="856,-0.5 856,-19.5 981,-19.5 981,-0.5 856,-0.5"/>
<text text-anchor="middle" x="918.5" y="-7.5" font-family="Helvetica,sans-Serif" font-size="10.00">prolog.terms.Term.action</text>
</a>
</g>
</g>
<!-- Node5&#45;&gt;Node6 -->
<g id="edge5" class="edge"><title>Node5&#45;&gt;Node6</title>
<path fill="none" stroke="midnightblue" d="M820.03,-10C828.566,-10 837.34,-10 845.96,-10"/>
<polygon fill="midnightblue" stroke="midnightblue" points="845.984,-13.5001 855.984,-10 845.984,-6.5001 845.984,-13.5001"/>
</g>
</g>
</svg>
