<?xml version="1.0" encoding="UTF-8" standalone="no"?>
<!DOCTYPE svg PUBLIC "-//W3C//DTD SVG 1.1//EN"
 "http://www.w3.org/Graphics/SVG/1.1/DTD/svg11.dtd">
<!-- Generated by graphviz version 2.38.0 (20140413.2041)
 -->
<!-- Title: prolog.terms.Term.undo Pages: 1 -->
<!--zoomable 436 -->
<svg id="main" version="1.1" xmlns="http://www.w3.org/2000/svg" xmlns:xlink="http://www.w3.org/1999/xlink" xml:space="preserve" onload="init(evt)">
<style type="text/css"><![CDATA[
.edge:hover path { stroke: red; }
.edge:hover polygon { stroke: red; fill: red; }
]]></style>
<script type="text/javascript"><![CDATA[
var edges = document.getElementsByTagName('g');
if (edges && edges.length) {
  for (var i=0;i<edges.length;i++) {
    if (edges[i].id.substr(0,4)=='edge') {
      edges[i].setAttribute('class','edge');
    }
  }
}
]]></script>
        <defs>
                <circle id="rim" cx="0" cy="0" r="7"/>
                <circle id="rim2" cx="0" cy="0" r="3.5"/>
                <g id="zoomPlus">
                        <use xlink:href="#rim" fill="#404040">
                                <set attributeName="fill" to="#808080" begin="zoomplus.mouseover" end="zoomplus.mouseout"/>
                        </use>
                        <path d="M-4,0h8M0,-4v8" fill="none" stroke="white" stroke-width="1.5" pointer-events="none"/>
                </g>
                <g id="zoomMin">
                        <use xlink:href="#rim" fill="#404040">
                                <set attributeName="fill" to="#808080" begin="zoomminus.mouseover" end="zoomminus.mouseout"/>
                        </use>
                        <path d="M-4,0h8" fill="none" stroke="white" stroke-width="1.5" pointer-events="none"/>
                </g>
                <g id="dirArrow">
                        <path fill="none" stroke="white" stroke-width="1.5" d="M0,-3.0v7 M-2.5,-0.5L0,-3.0L2.5,-0.5"/>
                </g>
               <g id="resetDef">
                       <use xlink:href="#rim2" fill="#404040">
                               <set attributeName="fill" to="#808080" begin="reset.mouseover" end="reset.mouseout"/>
                       </use>
               </g>
        </defs>

<script type="text/javascript">
var viewWidth = 1631;
var viewHeight = 436;
var sectionId = 'dynsection-0';
</script>
<script xlink:href="../../svgpan.js"/>
<svg id="graph" class="graph">
<g id="viewport">
<title>prolog.terms.Term.undo</title>
<!-- Node1 -->
<g id="node1" class="node"><title>Node1</title>
<polygon fill="#bfbfbf" stroke="black" points="0,-127 0,-146 120,-146 120,-127 0,-127"/>
<text text-anchor="middle" x="60" y="-134" font-family="Helvetica,sans-Serif" font-size="10.00">prolog.terms.Term.undo</text>
</g>
<!-- Node2 -->
<g id="node2" class="node"><title>Node2</title>
<g id="a_node2"><a xlink:href="../../dd/dad/classprolog_1_1terms_1_1Trail_adab6fa04fe8e0da6e1870bd1b37a654b.html#adab6fa04fe8e0da6e1870bd1b37a654b" target="_top" xlink:title="Used to undo bindings after unification, if we intend to leave no side effects. ">
<polygon fill="none" stroke="black" points="156,-127 156,-146 282,-146 282,-127 156,-127"/>
<text text-anchor="middle" x="219" y="-134" font-family="Helvetica,sans-Serif" font-size="10.00">prolog.terms.Trail.unwind</text>
</a>
</g>
</g>
<!-- Node1&#45;&gt;Node2 -->
<g id="edge1" class="edge"><title>Node1&#45;&gt;Node2</title>
<path fill="none" stroke="midnightblue" d="M130.569,-136.5C139.021,-136.5 147.613,-136.5 155.946,-136.5"/>
<polygon fill="midnightblue" stroke="midnightblue" points="130.355,-133 120.355,-136.5 130.355,-140 130.355,-133"/>
</g>
<!-- Node3 -->
<g id="node3" class="node"><title>Node3</title>
<g id="a_node3"><a xlink:href="../../d6/dc4/classprolog_1_1terms_1_1Clause_a616eb2dbf395587a4029c19bdc492745.html#a616eb2dbf395587a4029c19bdc492745" target="_top" xlink:title="Replaces varibles with nice looking upper case constants for printing purposes. ">
<polygon fill="none" stroke="black" points="318.5,-127 318.5,-146 482.5,-146 482.5,-127 318.5,-127"/>
<text text-anchor="middle" x="400.5" y="-134" font-family="Helvetica,sans-Serif" font-size="10.00">prolog.terms.Clause.cnumbervars</text>
</a>
</g>
</g>
<!-- Node2&#45;&gt;Node3 -->
<g id="edge2" class="edge"><title>Node2&#45;&gt;Node3</title>
<path fill="none" stroke="midnightblue" d="M292.09,-136.5C300.771,-136.5 309.681,-136.5 318.478,-136.5"/>
<polygon fill="midnightblue" stroke="midnightblue" points="292.025,-133 282.025,-136.5 292.025,-140 292.025,-133"/>
</g>
<!-- Node11 -->
<g id="node11" class="node"><title>Node11</title>
<g id="a_node11"><a xlink:href="../../d4/d26/classprolog_1_1terms_1_1Prog_a58deb818dfa50ebe37ac32eb2aae9ac9.html#a58deb818dfa50ebe37ac32eb2aae9ac9" target="_top" xlink:title="prolog.terms.Prog.stop">
<polygon fill="none" stroke="black" points="342.5,-224 342.5,-243 458.5,-243 458.5,-224 342.5,-224"/>
<text text-anchor="middle" x="400.5" y="-231" font-family="Helvetica,sans-Serif" font-size="10.00">prolog.terms.Prog.stop</text>
</a>
</g>
</g>
<!-- Node2&#45;&gt;Node11 -->
<g id="edge10" class="edge"><title>Node2&#45;&gt;Node11</title>
<path fill="none" stroke="midnightblue" d="M237.416,-152.884C256.03,-169.578 287.062,-195.137 318,-210.5 329.324,-216.123 342.238,-220.564 354.395,-223.982"/>
<polygon fill="midnightblue" stroke="midnightblue" points="239.752,-150.278 230.008,-146.117 235.03,-155.446 239.752,-150.278"/>
</g>
<!-- Node24 -->
<g id="node24" class="node"><title>Node24</title>
<g id="a_node24"><a xlink:href="../../d3/ded/classprolog_1_1terms_1_1Term_afa1571a4fe304fc39d789d481e68b83c.html#afa1571a4fe304fc39d789d481e68b83c" target="_top" xlink:title="prolog.terms.Term.matches">
<polygon fill="none" stroke="black" points="332,-89 332,-108 469,-108 469,-89 332,-89"/>
<text text-anchor="middle" x="400.5" y="-96" font-family="Helvetica,sans-Serif" font-size="10.00">prolog.terms.Term.matches</text>
</a>
</g>
</g>
<!-- Node2&#45;&gt;Node24 -->
<g id="edge28" class="edge"><title>Node2&#45;&gt;Node24</title>
<path fill="none" stroke="midnightblue" d="M275.177,-124.819C300.633,-119.43 330.468,-113.114 354.53,-108.02"/>
<polygon fill="midnightblue" stroke="midnightblue" points="274.354,-121.416 265.295,-126.911 275.804,-128.264 274.354,-121.416"/>
</g>
<!-- Node25 -->
<g id="node25" class="node"><title>Node25</title>
<g id="a_node25"><a xlink:href="../../d3/ded/classprolog_1_1terms_1_1Term_ae44d814e035858ebc67573a97886511d.html#ae44d814e035858ebc67573a97886511d" target="_top" xlink:title="Returns a copy of the result if the unification of this and that. ">
<polygon fill="none" stroke="black" points="318,-50 318,-69 483,-69 483,-50 318,-50"/>
<text text-anchor="middle" x="400.5" y="-57" font-family="Helvetica,sans-Serif" font-size="10.00">prolog.terms.Term.matching_copy</text>
</a>
</g>
</g>
<!-- Node2&#45;&gt;Node25 -->
<g id="edge29" class="edge"><title>Node2&#45;&gt;Node25</title>
<path fill="none" stroke="midnightblue" d="M241.998,-121.233C261.268,-108.476 290.427,-90.6321 318,-79.5 328.402,-75.3002 339.92,-71.8174 350.942,-69.0003"/>
<polygon fill="midnightblue" stroke="midnightblue" points="239.973,-118.377 233.632,-126.865 243.882,-124.184 239.973,-118.377"/>
</g>
<!-- Node32 -->
<g id="node32" class="node"><title>Node32</title>
<g id="a_node32"><a xlink:href="../../df/d94/classprolog_1_1terms_1_1Unfolder_a261a28665ab541b974afb636c3fec84b.html#a261a28665ab541b974afb636c3fec84b" target="_top" xlink:title="Returns a new clause by unfolding the goal with a matching clause in the database, or null if no such clause exists. ">
<polygon fill="none" stroke="black" points="337,-171.5 337,-201.5 464,-201.5 464,-171.5 337,-171.5"/>
<text text-anchor="start" x="345" y="-189.5" font-family="Helvetica,sans-Serif" font-size="10.00">prolog.terms.Unfolder.get</text>
<text text-anchor="middle" x="400.5" y="-178.5" font-family="Helvetica,sans-Serif" font-size="10.00">Element</text>
</a>
</g>
</g>
<!-- Node2&#45;&gt;Node32 -->
<g id="edge37" class="edge"><title>Node2&#45;&gt;Node32</title>
<path fill="none" stroke="midnightblue" d="M263.947,-148.742C288.496,-155.58 319.29,-164.158 345.322,-171.409"/>
<polygon fill="midnightblue" stroke="midnightblue" points="264.758,-145.334 254.185,-146.022 262.879,-152.077 264.758,-145.334"/>
</g>
<!-- Node4 -->
<g id="node4" class="node"><title>Node4</title>
<g id="a_node4"><a xlink:href="../../d8/d35/classprolog_1_1Init_a34d43d3123bb194902cbcb1c06194cce.html#a34d43d3123bb194902cbcb1c06194cce" target="_top" xlink:title="evalutes a query ">
<polygon fill="none" stroke="black" points="1118,-225 1118,-244 1219,-244 1219,-225 1118,-225"/>
<text text-anchor="middle" x="1168.5" y="-232" font-family="Helvetica,sans-Serif" font-size="10.00">prolog.Init.evalGoal</text>
</a>
</g>
</g>
<!-- Node3&#45;&gt;Node4 -->
<g id="edge3" class="edge"><title>Node3&#45;&gt;Node4</title>
<path fill="none" stroke="midnightblue" d="M454.161,-125.04C474.335,-121.19 497.634,-117.394 519,-115.5 673.505,-101.802 715.654,-86.3429 868,-115.5 980.929,-137.113 1105.55,-200.709 1150.32,-224.958"/>
<polygon fill="midnightblue" stroke="midnightblue" points="453.367,-121.629 444.227,-126.987 454.714,-128.498 453.367,-121.629"/>
</g>
<!-- Node8 -->
<g id="node8" class="node"><title>Node8</title>
<g id="a_node8"><a xlink:href="../../d4/d09/classprolog_1_1io_1_1ClauseReader_ac713387538e0471c0795c8a664f398d1.html#ac713387538e0471c0795c8a664f398d1" target="_top" xlink:title="prolog.io.ClauseReader.extract_info">
<polygon fill="none" stroke="black" points="519,-163 519,-182 692,-182 692,-163 519,-163"/>
<text text-anchor="middle" x="605.5" y="-170" font-family="Helvetica,sans-Serif" font-size="10.00">prolog.io.ClauseReader.extract_info</text>
</a>
</g>
</g>
<!-- Node3&#45;&gt;Node8 -->
<g id="edge7" class="edge"><title>Node3&#45;&gt;Node8</title>
<path fill="none" stroke="midnightblue" d="M465.009,-147.763C492.483,-152.635 524.296,-158.277 550.598,-162.941"/>
<polygon fill="midnightblue" stroke="midnightblue" points="465.559,-144.306 455.101,-146.006 464.337,-151.198 465.559,-144.306"/>
</g>
<!-- Node10 -->
<g id="node10" class="node"><title>Node10</title>
<g id="a_node10"><a xlink:href="../../d6/dc4/classprolog_1_1terms_1_1Clause_ac13bc534da7f02536d4741318443dd27.html#ac13bc534da7f02536d4741318443dd27" target="_top" xlink:title="Pretty prints a clause after replacing ugly variable names. ">
<polygon fill="none" stroke="black" points="540,-125 540,-144 671,-144 671,-125 540,-125"/>
<text text-anchor="middle" x="605.5" y="-132" font-family="Helvetica,sans-Serif" font-size="10.00">prolog.terms.Clause.pprint</text>
</a>
</g>
</g>
<!-- Node3&#45;&gt;Node10 -->
<g id="edge9" class="edge"><title>Node3&#45;&gt;Node10</title>
<path fill="none" stroke="midnightblue" d="M492.926,-135.599C508.726,-135.444 524.855,-135.285 539.762,-135.138"/>
<polygon fill="midnightblue" stroke="midnightblue" points="492.571,-132.102 482.606,-135.701 492.64,-139.102 492.571,-132.102"/>
</g>
<!-- Node5 -->
<g id="node5" class="node"><title>Node5</title>
<g id="a_node5"><a xlink:href="../../d8/d35/classprolog_1_1Init_a2471811f50fbed4de5df26ee530f1e2e.html#a2471811f50fbed4de5df26ee530f1e2e" target="_top" xlink:title="evaluates and times a Goal querying program P ">
<polygon fill="none" stroke="black" points="1307.5,-225 1307.5,-244 1408.5,-244 1408.5,-225 1307.5,-225"/>
<text text-anchor="middle" x="1358" y="-232" font-family="Helvetica,sans-Serif" font-size="10.00">prolog.Init.timeGoal</text>
</a>
</g>
</g>
<!-- Node4&#45;&gt;Node5 -->
<g id="edge4" class="edge"><title>Node4&#45;&gt;Node5</title>
<path fill="none" stroke="midnightblue" d="M1229.41,-234.5C1254.54,-234.5 1283.42,-234.5 1307.34,-234.5"/>
<polygon fill="midnightblue" stroke="midnightblue" points="1229.25,-231 1219.25,-234.5 1229.25,-238 1229.25,-231"/>
</g>
<!-- Node6 -->
<g id="node6" class="node"><title>Node6</title>
<g id="a_node6"><a xlink:href="../../d8/d35/classprolog_1_1Init_a0348efff7140aed75f8364f90b7c2b8b.html#a0348efff7140aed75f8364f90b7c2b8b" target="_top" xlink:title="prolog.Init.run_query">
<polygon fill="none" stroke="black" points="1493,-238 1493,-257 1598,-257 1598,-238 1493,-238"/>
<text text-anchor="middle" x="1545.5" y="-245" font-family="Helvetica,sans-Serif" font-size="10.00">prolog.Init.run_query</text>
</a>
</g>
</g>
<!-- Node5&#45;&gt;Node6 -->
<g id="edge5" class="edge"><title>Node5&#45;&gt;Node6</title>
<path fill="none" stroke="midnightblue" d="M1418.7,-238.684C1442.54,-240.354 1469.72,-242.259 1492.71,-243.87"/>
<polygon fill="midnightblue" stroke="midnightblue" points="1418.93,-235.192 1408.71,-237.984 1418.44,-242.174 1418.93,-235.192"/>
</g>
<!-- Node7 -->
<g id="node7" class="node"><title>Node7</title>
<g id="a_node7"><a xlink:href="../../d8/d35/classprolog_1_1Init_a3e8704cf8b2d909fccc79e967dd48171.html#a3e8704cf8b2d909fccc79e967dd48171" target="_top" xlink:title="prolog.Init.standardTop">
<polygon fill="none" stroke="black" points="1487.5,-200 1487.5,-219 1603.5,-219 1603.5,-200 1487.5,-200"/>
<text text-anchor="middle" x="1545.5" y="-207" font-family="Helvetica,sans-Serif" font-size="10.00">prolog.Init.standardTop</text>
</a>
</g>
</g>
<!-- Node5&#45;&gt;Node7 -->
<g id="edge6" class="edge"><title>Node5&#45;&gt;Node7</title>
<path fill="none" stroke="midnightblue" d="M1418.92,-226.425C1440.9,-223.462 1465.7,-220.119 1487.43,-217.191"/>
<polygon fill="midnightblue" stroke="midnightblue" points="1418.15,-222.996 1408.71,-227.8 1419.09,-229.933 1418.15,-222.996"/>
</g>
<!-- Node9 -->
<g id="node9" class="node"><title>Node9</title>
<g id="a_node9"><a xlink:href="../../d4/d09/classprolog_1_1io_1_1ClauseReader_a805e9a5ebc401e1099f39af9b3f6fb47.html#a805e9a5ebc401e1099f39af9b3f6fb47" target="_top" xlink:title="prolog.io.ClauseReader.get\lElement">
<polygon fill="none" stroke="black" points="730.5,-125.5 730.5,-155.5 865.5,-155.5 865.5,-125.5 730.5,-125.5"/>
<text text-anchor="start" x="738.5" y="-143.5" font-family="Helvetica,sans-Serif" font-size="10.00">prolog.io.ClauseReader.get</text>
<text text-anchor="middle" x="798" y="-132.5" font-family="Helvetica,sans-Serif" font-size="10.00">Element</text>
</a>
</g>
</g>
<!-- Node8&#45;&gt;Node9 -->
<g id="edge8" class="edge"><title>Node8&#45;&gt;Node9</title>
<path fill="none" stroke="midnightblue" d="M673.213,-161.294C691.672,-158.193 711.706,-154.828 730.172,-151.726"/>
<polygon fill="midnightblue" stroke="midnightblue" points="672.423,-157.877 663.141,-162.986 673.582,-164.781 672.423,-157.877"/>
</g>
<!-- Node11&#45;&gt;Node4 -->
<g id="edge11" class="edge"><title>Node11&#45;&gt;Node4</title>
<path fill="none" stroke="midnightblue" d="M468.831,-241.903C485.224,-243.685 502.723,-245.368 519,-246.5 755.762,-262.968 816.196,-261.342 1053,-245.5 1074.32,-244.074 1097.82,-241.918 1117.95,-239.892"/>
<polygon fill="midnightblue" stroke="midnightblue" points="469.115,-238.413 458.789,-240.785 468.34,-245.37 469.115,-238.413"/>
</g>
<!-- Node12 -->
<g id="node12" class="node"><title>Node12</title>
<g id="a_node12"><a xlink:href="../../d4/d26/classprolog_1_1terms_1_1Prog_afb6f86119db8ba133de23f8bfe24ba2e.html#afb6f86119db8ba133de23f8bfe24ba2e" target="_top" xlink:title="Computes a copy of the first solution X of Goal G. ">
<polygon fill="none" stroke="black" points="904,-301 904,-320 1053,-320 1053,-301 904,-301"/>
<text text-anchor="middle" x="978.5" y="-308" font-family="Helvetica,sans-Serif" font-size="10.00">prolog.terms.Prog.firstSolution</text>
</a>
</g>
</g>
<!-- Node11&#45;&gt;Node12 -->
<g id="edge12" class="edge"><title>Node11&#45;&gt;Node12</title>
<path fill="none" stroke="midnightblue" d="M426.336,-247.997C449.472,-260.689 485.359,-278.338 519,-286.5 651.654,-318.684 812.005,-318.549 903.636,-314.932"/>
<polygon fill="midnightblue" stroke="midnightblue" points="427.974,-244.903 417.539,-243.072 424.554,-251.011 427.974,-244.903"/>
</g>
<!-- Node21 -->
<g id="node21" class="node"><title>Node21</title>
<g id="a_node21"><a xlink:href="../../d4/d26/classprolog_1_1terms_1_1Prog_ac5d988b907a2843fcfcba4d1fd1e0deb.html#ac5d988b907a2843fcfcba4d1fd1e0deb" target="_top" xlink:title="Here is where actual LD&#45;resolution computation happens. ">
<polygon fill="none" stroke="black" points="532.5,-218 532.5,-237 678.5,-237 678.5,-218 532.5,-218"/>
<text text-anchor="middle" x="605.5" y="-225" font-family="Helvetica,sans-Serif" font-size="10.00">prolog.terms.Prog.getElement</text>
</a>
</g>
</g>
<!-- Node11&#45;&gt;Node21 -->
<g id="edge23" class="edge"><title>Node11&#45;&gt;Node21</title>
<path fill="none" stroke="midnightblue" d="M468.718,-231.513C489.097,-230.911 511.565,-230.247 532.259,-229.635"/>
<polygon fill="midnightblue" stroke="midnightblue" points="468.479,-228.019 458.587,-231.813 468.686,-235.016 468.479,-228.019"/>
</g>
<!-- Node12&#45;&gt;Node4 -->
<g id="edge19" class="edge"><title>Node12&#45;&gt;Node4</title>
<path fill="none" stroke="midnightblue" d="M1021.05,-297.82C1031.56,-294.372 1042.76,-290.483 1053,-286.5 1086.98,-273.283 1125.35,-255.181 1147.93,-244.192"/>
<polygon fill="midnightblue" stroke="midnightblue" points="1019.69,-294.581 1011.25,-300.98 1021.84,-301.244 1019.69,-294.581"/>
</g>
<!-- Node13 -->
<g id="node13" class="node"><title>Node13</title>
<g id="a_node13"><a xlink:href="../../d8/d35/classprolog_1_1Init_a4a7b9ae1dc4d489e657326f3ed5a4b7e.html#a4a7b9ae1dc4d489e657326f3ed5a4b7e" target="_top" xlink:title="Asks Prolog a query Answer, Goal and returns the first solution of the form &quot;the(Answer)&quot; or the cons...">
<polygon fill="none" stroke="black" points="1115.5,-360 1115.5,-379 1221.5,-379 1221.5,-360 1115.5,-360"/>
<text text-anchor="middle" x="1168.5" y="-367" font-family="Helvetica,sans-Serif" font-size="10.00">prolog.Init.askProlog</text>
</a>
</g>
</g>
<!-- Node12&#45;&gt;Node13 -->
<g id="edge13" class="edge"><title>Node12&#45;&gt;Node13</title>
<path fill="none" stroke="midnightblue" d="M1020.08,-323.234C1055.27,-334.278 1105.41,-350.015 1137.2,-359.991"/>
<polygon fill="midnightblue" stroke="midnightblue" points="1020.71,-319.766 1010.12,-320.111 1018.62,-326.444 1020.71,-319.766"/>
</g>
<!-- Node18 -->
<g id="node18" class="node"><title>Node18</title>
<g id="a_node18"><a xlink:href="../../da/dd9/classprolog_1_1fluents_1_1DataBase_a6f8041bc2bcb5cdd8a376e81a3dc4dca.html#a6f8041bc2bcb5cdd8a376e81a3dc4dca" target="_top" xlink:title="adds a Clause to the joint Linda and Predicate table ">
<polygon fill="none" stroke="black" points="1089,-291.5 1089,-321.5 1248,-321.5 1248,-291.5 1089,-291.5"/>
<text text-anchor="start" x="1097" y="-309.5" font-family="Helvetica,sans-Serif" font-size="10.00">prolog.fluents.DataBase.process</text>
<text text-anchor="middle" x="1168.5" y="-298.5" font-family="Helvetica,sans-Serif" font-size="10.00">Clause</text>
</a>
</g>
</g>
<!-- Node12&#45;&gt;Node18 -->
<g id="edge20" class="edge"><title>Node12&#45;&gt;Node18</title>
<path fill="none" stroke="midnightblue" d="M1063.52,-308.712C1072,-308.532 1080.58,-308.349 1088.99,-308.17"/>
<polygon fill="midnightblue" stroke="midnightblue" points="1063.19,-305.219 1053.26,-308.931 1063.34,-312.217 1063.19,-305.219"/>
</g>
<!-- Node14 -->
<g id="node14" class="node"><title>Node14</title>
<g id="a_node14"><a xlink:href="../../d8/d35/classprolog_1_1Init_ae5fe9e2dc533d32690edbbec3b1c279b.html#ae5fe9e2dc533d32690edbbec3b1c279b" target="_top" xlink:title="Asks Prolog a query Goal and returns the first solution of the form &quot;the(Answer)&quot; ...">
<polygon fill="none" stroke="black" points="1305,-408 1305,-427 1411,-427 1411,-408 1305,-408"/>
<text text-anchor="middle" x="1358" y="-415" font-family="Helvetica,sans-Serif" font-size="10.00">prolog.Init.askProlog</text>
</a>
</g>
</g>
<!-- Node13&#45;&gt;Node14 -->
<g id="edge14" class="edge"><title>Node13&#45;&gt;Node14</title>
<path fill="none" stroke="midnightblue" d="M1216.96,-381.65C1248.77,-389.794 1290.08,-400.369 1319.57,-407.918"/>
<polygon fill="midnightblue" stroke="midnightblue" points="1217.55,-378.188 1206.99,-379.098 1215.81,-384.969 1217.55,-378.188"/>
</g>
<!-- Node15 -->
<g id="node15" class="node"><title>Node15</title>
<g id="a_node15"><a xlink:href="../../da/dde/classprolog_1_1Main_aca445add96cb95be654213f0e42d5b76.html#aca445add96cb95be654213f0e42d5b76" target="_top" xlink:title="prolog.Main.init">
<polygon fill="none" stroke="black" points="1316.5,-332 1316.5,-351 1399.5,-351 1399.5,-332 1316.5,-332"/>
<text text-anchor="middle" x="1358" y="-339" font-family="Helvetica,sans-Serif" font-size="10.00">prolog.Main.init</text>
</a>
</g>
</g>
<!-- Node13&#45;&gt;Node15 -->
<g id="edge15" class="edge"><title>Node13&#45;&gt;Node15</title>
<path fill="none" stroke="midnightblue" d="M1231.77,-360.2C1259.61,-356.043 1291.64,-351.26 1316.34,-347.572"/>
<polygon fill="midnightblue" stroke="midnightblue" points="1231.1,-356.762 1221.73,-361.7 1232.14,-363.685 1231.1,-356.762"/>
</g>
<!-- Node17 -->
<g id="node17" class="node"><title>Node17</title>
<g id="a_node17"><a xlink:href="../../d8/d35/classprolog_1_1Init_a7293b6db1f53eca4730418c54ab07109.html#a7293b6db1f53eca4730418c54ab07109" target="_top" xlink:title="prolog.Init.run">
<polygon fill="none" stroke="black" points="1320,-370 1320,-389 1396,-389 1396,-370 1320,-370"/>
<text text-anchor="middle" x="1358" y="-377" font-family="Helvetica,sans-Serif" font-size="10.00">prolog.Init.run</text>
</a>
</g>
</g>
<!-- Node13&#45;&gt;Node17 -->
<g id="edge17" class="edge"><title>Node13&#45;&gt;Node17</title>
<path fill="none" stroke="midnightblue" d="M1231.84,-372.825C1261.02,-374.381 1294.8,-376.182 1319.9,-377.521"/>
<polygon fill="midnightblue" stroke="midnightblue" points="1231.9,-369.323 1221.73,-372.286 1231.53,-376.313 1231.9,-369.323"/>
</g>
<!-- Node16 -->
<g id="node16" class="node"><title>Node16</title>
<g id="a_node16"><a xlink:href="../../da/dde/classprolog_1_1Main_ab0b3345fa72bd3b96c565437b962efa3.html#ab0b3345fa72bd3b96c565437b962efa3" target="_top" xlink:title="prolog.Main.main">
<polygon fill="none" stroke="black" points="1500,-351 1500,-370 1591,-370 1591,-351 1500,-351"/>
<text text-anchor="middle" x="1545.5" y="-358" font-family="Helvetica,sans-Serif" font-size="10.00">prolog.Main.main</text>
</a>
</g>
</g>
<!-- Node15&#45;&gt;Node16 -->
<g id="edge16" class="edge"><title>Node15&#45;&gt;Node16</title>
<path fill="none" stroke="midnightblue" d="M1409.79,-346.702C1438.02,-349.594 1472.83,-353.159 1499.99,-355.941"/>
<polygon fill="midnightblue" stroke="midnightblue" points="1410.01,-343.207 1399.71,-345.67 1409.3,-350.17 1410.01,-343.207"/>
</g>
<!-- Node17&#45;&gt;Node16 -->
<g id="edge18" class="edge"><title>Node17&#45;&gt;Node16</title>
<path fill="none" stroke="midnightblue" d="M1406.32,-374.653C1435.12,-371.704 1471.67,-367.959 1499.95,-365.063"/>
<polygon fill="midnightblue" stroke="midnightblue" points="1405.68,-371.2 1396.09,-375.701 1406.4,-378.164 1405.68,-371.2"/>
</g>
<!-- Node19 -->
<g id="node19" class="node"><title>Node19</title>
<g id="a_node19"><a xlink:href="../../da/dd9/classprolog_1_1fluents_1_1DataBase_a83885e10b61d6bf129307d9bf50d93de.html#a83885e10b61d6bf129307d9bf50d93de" target="_top" xlink:title="prolog.fluents.DataBase.apply\l_parser">
<polygon fill="none" stroke="black" points="1284,-282.5 1284,-312.5 1432,-312.5 1432,-282.5 1284,-282.5"/>
<text text-anchor="start" x="1292" y="-300.5" font-family="Helvetica,sans-Serif" font-size="10.00">prolog.fluents.DataBase.apply</text>
<text text-anchor="middle" x="1358" y="-289.5" font-family="Helvetica,sans-Serif" font-size="10.00">_parser</text>
</a>
</g>
</g>
<!-- Node18&#45;&gt;Node19 -->
<g id="edge21" class="edge"><title>Node18&#45;&gt;Node19</title>
<path fill="none" stroke="midnightblue" d="M1258.24,-302.24C1266.83,-301.828 1275.47,-301.413 1283.88,-301.01"/>
<polygon fill="midnightblue" stroke="midnightblue" points="1258.02,-298.747 1248.2,-302.722 1258.36,-305.739 1258.02,-298.747"/>
</g>
<!-- Node20 -->
<g id="node20" class="node"><title>Node20</title>
<g id="a_node20"><a xlink:href="../../da/dd9/classprolog_1_1fluents_1_1DataBase_af8b26948ded7bba6386b984f463bf166.html#af8b26948ded7bba6386b984f463bf166" target="_top" xlink:title="prolog.fluents.DataBase.stream\lToProg">
<polygon fill="none" stroke="black" points="1468,-282.5 1468,-312.5 1623,-312.5 1623,-282.5 1468,-282.5"/>
<text text-anchor="start" x="1476" y="-300.5" font-family="Helvetica,sans-Serif" font-size="10.00">prolog.fluents.DataBase.stream</text>
<text text-anchor="middle" x="1545.5" y="-289.5" font-family="Helvetica,sans-Serif" font-size="10.00">ToProg</text>
</a>
</g>
</g>
<!-- Node19&#45;&gt;Node20 -->
<g id="edge22" class="edge"><title>Node19&#45;&gt;Node20</title>
<path fill="none" stroke="midnightblue" d="M1442.06,-297.5C1450.65,-297.5 1459.34,-297.5 1467.86,-297.5"/>
<polygon fill="midnightblue" stroke="midnightblue" points="1442.05,-294 1432.05,-297.5 1442.05,-301 1442.05,-294"/>
</g>
<!-- Node22 -->
<g id="node22" class="node"><title>Node22</title>
<g id="a_node22"><a xlink:href="../../d4/d26/classprolog_1_1terms_1_1Prog_a696a0c92a1814ecf4f21fb09fbc854a0.html#a696a0c92a1814ecf4f21fb09fbc854a0" target="_top" xlink:title="asks a logic engine to return a solution ">
<polygon fill="none" stroke="black" points="741.5,-213.5 741.5,-243.5 854.5,-243.5 854.5,-213.5 741.5,-213.5"/>
<text text-anchor="start" x="749.5" y="-231.5" font-family="Helvetica,sans-Serif" font-size="10.00">prolog.terms.Prog.ask</text>
<text text-anchor="middle" x="798" y="-220.5" font-family="Helvetica,sans-Serif" font-size="10.00">_engine</text>
</a>
</g>
</g>
<!-- Node21&#45;&gt;Node22 -->
<g id="edge24" class="edge"><title>Node21&#45;&gt;Node22</title>
<path fill="none" stroke="midnightblue" d="M688.844,-227.932C706.529,-228.025 724.818,-228.121 741.213,-228.207"/>
<polygon fill="midnightblue" stroke="midnightblue" points="688.538,-224.431 678.52,-227.878 688.501,-231.431 688.538,-224.431"/>
</g>
<!-- Node23 -->
<g id="node23" class="node"><title>Node23</title>
<g id="a_node23"><a xlink:href="../../d4/d26/classprolog_1_1terms_1_1Prog_a45a00a5df54d8c378930f320020b457f.html#a45a00a5df54d8c378930f320020b457f" target="_top" xlink:title="usable for launching on a separate thread ">
<polygon fill="none" stroke="black" points="743,-175 743,-194 853,-194 853,-175 743,-175"/>
<text text-anchor="middle" x="798" y="-182" font-family="Helvetica,sans-Serif" font-size="10.00">prolog.terms.Prog.run</text>
</a>
</g>
</g>
<!-- Node21&#45;&gt;Node23 -->
<g id="edge27" class="edge"><title>Node21&#45;&gt;Node23</title>
<path fill="none" stroke="midnightblue" d="M658.725,-215.712C688.954,-208.888 726.503,-200.413 754.84,-194.016"/>
<polygon fill="midnightblue" stroke="midnightblue" points="657.762,-212.341 648.778,-217.957 659.303,-219.169 657.762,-212.341"/>
</g>
<!-- Node22&#45;&gt;Node4 -->
<g id="edge25" class="edge"><title>Node22&#45;&gt;Node4</title>
<path fill="none" stroke="midnightblue" d="M864.963,-229.574C937.587,-230.757 1052.69,-232.631 1117.98,-233.694"/>
<polygon fill="midnightblue" stroke="midnightblue" points="864.623,-226.068 854.567,-229.405 864.509,-233.067 864.623,-226.068"/>
</g>
<!-- Node22&#45;&gt;Node12 -->
<g id="edge26" class="edge"><title>Node22&#45;&gt;Node12</title>
<path fill="none" stroke="midnightblue" d="M841.11,-247.845C877.471,-264.548 928.473,-287.978 956.68,-300.936"/>
<polygon fill="midnightblue" stroke="midnightblue" points="842.288,-244.534 831.74,-243.54 839.366,-250.895 842.288,-244.534"/>
</g>
<!-- Node26 -->
<g id="node26" class="node"><title>Node26</title>
<g id="a_node26"><a xlink:href="../../da/dd9/classprolog_1_1fluents_1_1DataBase_a610cc1f35df4467fbb1fac1052091915.html#a610cc1f35df4467fbb1fac1052091915" target="_top" xlink:title="prolog.fluents.DataBase.all0">
<polygon fill="none" stroke="black" points="535.5,-49 535.5,-68 675.5,-68 675.5,-49 535.5,-49"/>
<text text-anchor="middle" x="605.5" y="-56" font-family="Helvetica,sans-Serif" font-size="10.00">prolog.fluents.DataBase.all0</text>
</a>
</g>
</g>
<!-- Node25&#45;&gt;Node26 -->
<g id="edge30" class="edge"><title>Node25&#45;&gt;Node26</title>
<path fill="none" stroke="midnightblue" d="M493.401,-59.0473C507.506,-58.9778 521.86,-58.9071 535.361,-58.8406"/>
<polygon fill="midnightblue" stroke="midnightblue" points="493.173,-55.5483 483.19,-59.0976 493.208,-62.5482 493.173,-55.5483"/>
</g>
<!-- Node27 -->
<g id="node27" class="node"><title>Node27</title>
<g id="a_node27"><a xlink:href="../../da/dd9/classprolog_1_1fluents_1_1DataBase_a4b4a68ddd60d87276cd7f9befd237ad9.html#a4b4a68ddd60d87276cd7f9befd237ad9" target="_top" xlink:title="prolog.fluents.DataBase.all1">
<polygon fill="none" stroke="black" points="728,-11 728,-30 868,-30 868,-11 728,-11"/>
<text text-anchor="middle" x="798" y="-18" font-family="Helvetica,sans-Serif" font-size="10.00">prolog.fluents.DataBase.all1</text>
</a>
</g>
</g>
<!-- Node26&#45;&gt;Node27 -->
<g id="edge31" class="edge"><title>Node26&#45;&gt;Node27</title>
<path fill="none" stroke="midnightblue" d="M664.7,-46.8905C691.794,-41.486 723.625,-35.1365 749.274,-30.0201"/>
<polygon fill="midnightblue" stroke="midnightblue" points="663.693,-43.5223 654.571,-48.911 665.063,-50.3871 663.693,-43.5223"/>
</g>
<!-- Node28 -->
<g id="node28" class="node"><title>Node28</title>
<g id="a_node28"><a xlink:href="../../da/dd9/classprolog_1_1fluents_1_1DataBase_a16bb9f309e161ca656d8aef483ba7e5f.html#a16bb9f309e161ca656d8aef483ba7e5f" target="_top" xlink:title="prolog.fluents.DataBase.all2">
<polygon fill="none" stroke="black" points="908.5,-30 908.5,-49 1048.5,-49 1048.5,-30 908.5,-30"/>
<text text-anchor="middle" x="978.5" y="-37" font-family="Helvetica,sans-Serif" font-size="10.00">prolog.fluents.DataBase.all2</text>
</a>
</g>
</g>
<!-- Node26&#45;&gt;Node28 -->
<g id="edge36" class="edge"><title>Node26&#45;&gt;Node28</title>
<path fill="none" stroke="midnightblue" d="M686.224,-54.4171C752.38,-51.0291 845.494,-46.2604 908.493,-43.034"/>
<polygon fill="midnightblue" stroke="midnightblue" points="685.655,-50.9416 675.847,-54.9485 686.013,-57.9324 685.655,-50.9416"/>
</g>
<!-- Node27&#45;&gt;Node28 -->
<g id="edge32" class="edge"><title>Node27&#45;&gt;Node28</title>
<path fill="none" stroke="midnightblue" d="M878.044,-28.9137C888.154,-29.9898 898.441,-31.0847 908.376,-32.1423"/>
<polygon fill="midnightblue" stroke="midnightblue" points="878.327,-25.4241 868.013,-27.8459 877.586,-32.3848 878.327,-25.4241"/>
</g>
<!-- Node29 -->
<g id="node29" class="node"><title>Node29</title>
<g id="a_node29"><a xlink:href="../../da/dd9/classprolog_1_1fluents_1_1DataBase_ac93f1bf928f7e64f000726f764891ea9.html#ac93f1bf928f7e64f000726f764891ea9" target="_top" xlink:title="Returns a (possibly empty) list of matching Term objects. ">
<polygon fill="none" stroke="black" points="1101.5,-30 1101.5,-49 1235.5,-49 1235.5,-30 1101.5,-30"/>
<text text-anchor="middle" x="1168.5" y="-37" font-family="Helvetica,sans-Serif" font-size="10.00">prolog.fluents.DataBase.all</text>
</a>
</g>
</g>
<!-- Node28&#45;&gt;Node29 -->
<g id="edge33" class="edge"><title>Node28&#45;&gt;Node29</title>
<path fill="none" stroke="midnightblue" d="M1058.88,-39.5C1072.99,-39.5 1087.56,-39.5 1101.26,-39.5"/>
<polygon fill="midnightblue" stroke="midnightblue" points="1058.7,-36.0001 1048.7,-39.5 1058.7,-43.0001 1058.7,-36.0001"/>
</g>
<!-- Node30 -->
<g id="node30" class="node"><title>Node30</title>
<g id="a_node30"><a xlink:href="../../df/dfb/classprolog_1_1builtins_1_1db__collect_a2c65ced6ccab65917066acd22e05c2ee.html#a2c65ced6ccab65917066acd22e05c2ee" target="_top" xlink:title="prolog.builtins.db\l_collect.exec">
<polygon fill="none" stroke="black" points="1313,-0.5 1313,-30.5 1403,-30.5 1403,-0.5 1313,-0.5"/>
<text text-anchor="start" x="1321" y="-18.5" font-family="Helvetica,sans-Serif" font-size="10.00">prolog.builtins.db</text>
<text text-anchor="middle" x="1358" y="-7.5" font-family="Helvetica,sans-Serif" font-size="10.00">_collect.exec</text>
</a>
</g>
</g>
<!-- Node29&#45;&gt;Node30 -->
<g id="edge34" class="edge"><title>Node29&#45;&gt;Node30</title>
<path fill="none" stroke="midnightblue" d="M1245.65,-29.7533C1268.52,-26.8257 1292.84,-23.7125 1312.9,-21.1448"/>
<polygon fill="midnightblue" stroke="midnightblue" points="1245.08,-26.2971 1235.61,-31.0385 1245.97,-33.2404 1245.08,-26.2971"/>
</g>
<!-- Node31 -->
<g id="node31" class="node"><title>Node31</title>
<g id="a_node31"><a xlink:href="../../de/db4/classprolog_1_1builtins_1_1at__key_acf52ce169f8e3b064dbca64fcf06fcab.html#acf52ce169f8e3b064dbca64fcf06fcab" target="_top" xlink:title="prolog.builtins.at\l_key.exec">
<polygon fill="none" stroke="black" points="1314,-49.5 1314,-79.5 1402,-79.5 1402,-49.5 1314,-49.5"/>
<text text-anchor="start" x="1322" y="-67.5" font-family="Helvetica,sans-Serif" font-size="10.00">prolog.builtins.at</text>
<text text-anchor="middle" x="1358" y="-56.5" font-family="Helvetica,sans-Serif" font-size="10.00">_key.exec</text>
</a>
</g>
</g>
<!-- Node29&#45;&gt;Node31 -->
<g id="edge35" class="edge"><title>Node29&#45;&gt;Node31</title>
<path fill="none" stroke="midnightblue" d="M1245.77,-49.6695C1268.93,-52.7575 1293.57,-56.0422 1313.75,-58.7333"/>
<polygon fill="midnightblue" stroke="midnightblue" points="1245.98,-46.1665 1235.61,-48.3141 1245.06,-53.1051 1245.98,-46.1665"/>
</g>
<!-- Node32&#45;&gt;Node21 -->
<g id="edge38" class="edge"><title>Node32&#45;&gt;Node21</title>
<path fill="none" stroke="midnightblue" d="M474.101,-201.163C501.777,-206.753 532.58,-212.974 557.296,-217.966"/>
<polygon fill="midnightblue" stroke="midnightblue" points="474.558,-197.685 464.063,-199.136 473.172,-204.546 474.558,-197.685"/>
</g>
</g>
</svg>
        <g id="navigator" transform="translate(0 0)" fill="#404254">
                <rect fill="#f2f5e9" fill-opacity="0.5" stroke="#606060" stroke-width=".5" x="0" y="0" width="60" height="60"/>
                <use id="zoomplus" xlink:href="#zoomPlus" x="17" y="9" onmousedown="handleZoom(evt,'in')"/>
                <use id="zoomminus" xlink:href="#zoomMin" x="42" y="9" onmousedown="handleZoom(evt,'out')"/>
                <use id="reset" xlink:href="#resetDef" x="30" y="36" onmousedown="handleReset()"/>
                <g id="arrowUp" xlink:href="#dirArrow" transform="translate(30 24)" onmousedown="handlePan(0,-1)">
                  <use xlink:href="#rim" fill="#404040">
                        <set attributeName="fill" to="#808080" begin="arrowUp.mouseover" end="arrowUp.mouseout"/>
                  </use>
                  <path fill="none" stroke="white" stroke-width="1.5" d="M0,-3.0v7 M-2.5,-0.5L0,-3.0L2.5,-0.5"/>
                </g>
                <g id="arrowRight" xlink:href="#dirArrow" transform="rotate(90) translate(36 -43)" onmousedown="handlePan(1,0)">
                  <use xlink:href="#rim" fill="#404040">
                        <set attributeName="fill" to="#808080" begin="arrowRight.mouseover" end="arrowRight.mouseout"/>
                  </use>
                  <path fill="none" stroke="white" stroke-width="1.5" d="M0,-3.0v7 M-2.5,-0.5L0,-3.0L2.5,-0.5"/>
                </g>
                <g id="arrowDown" xlink:href="#dirArrow" transform="rotate(180) translate(-30 -48)" onmousedown="handlePan(0,1)">
                  <use xlink:href="#rim" fill="#404040">
                        <set attributeName="fill" to="#808080" begin="arrowDown.mouseover" end="arrowDown.mouseout"/>
                  </use>
                  <path fill="none" stroke="white" stroke-width="1.5" d="M0,-3.0v7 M-2.5,-0.5L0,-3.0L2.5,-0.5"/>
                </g>
                <g id="arrowLeft" xlink:href="#dirArrow" transform="rotate(270) translate(-36 17)" onmousedown="handlePan(-1,0)">
                  <use xlink:href="#rim" fill="#404040">
                        <set attributeName="fill" to="#808080" begin="arrowLeft.mouseover" end="arrowLeft.mouseout"/>
                  </use>
                  <path fill="none" stroke="white" stroke-width="1.5" d="M0,-3.0v7 M-2.5,-0.5L0,-3.0L2.5,-0.5"/>
                </g>
        </g>
        <svg viewBox="0 0 15 15" width="100%" height="30px" preserveAspectRatio="xMaxYMin meet">
         <g id="arrow_out" transform="scale(0.3 0.3)">
          <a xlink:href="classprolog_1_1terms_1_1Term_ac710eec3650309d160ca04e364804e47_ac710eec3650309d160ca04e364804e47_icgraph_org.svg" target="_base">
           <rect id="button" ry="5" rx="5" y="6" x="6" height="38" width="38"
                fill="#f2f5e9" fill-opacity="0.5" stroke="#606060" stroke-width="1.0"/>
           <path id="arrow"
             d="M 11.500037,31.436501 C 11.940474,20.09759 22.043105,11.32322 32.158766,21.979434 L 37.068811,17.246167 C 37.068811,17.246167 37.088388,32 37.088388,32 L 22.160133,31.978069 C 22.160133,31.978069 26.997745,27.140456 26.997745,27.140456 C 18.528582,18.264221 13.291696,25.230495 11.500037,31.436501 z"
             style="fill:#404040;"/>
          </a>
         </g>
        </svg>
</svg>
