<?xml version="1.0" encoding="UTF-8" standalone="no"?>
<!DOCTYPE svg PUBLIC "-//W3C//DTD SVG 1.1//EN"
 "http://www.w3.org/Graphics/SVG/1.1/DTD/svg11.dtd">
<!-- Generated by graphviz version 2.38.0 (20140413.2041)
 -->
<!-- Title: prolog.terms.Term.matches Pages: 1 -->
<svg width="1753pt" height="192pt"
 viewBox="0.00 0.00 1753.00 191.50" xmlns="http://www.w3.org/2000/svg" xmlns:xlink="http://www.w3.org/1999/xlink">
<g id="graph0" class="graph" transform="scale(1 1) rotate(0) translate(4 187.5)">
<title>prolog.terms.Term.matches</title>
<!-- Node1 -->
<g id="node1" class="node"><title>Node1</title>
<polygon fill="#bfbfbf" stroke="black" points="0,-107.5 0,-126.5 137,-126.5 137,-107.5 0,-107.5"/>
<text text-anchor="middle" x="68.5" y="-114.5" font-family="Helvetica,sans-Serif" font-size="10.00">prolog.terms.Term.matches</text>
</g>
<!-- Node2 -->
<g id="node2" class="node"><title>Node2</title>
<g id="a_node2"><a xlink:href="../../da/dd9/classprolog_1_1fluents_1_1DataBase_a6f8041bc2bcb5cdd8a376e81a3dc4dca.html#a6f8041bc2bcb5cdd8a376e81a3dc4dca" target="_top" xlink:title="adds a Clause to the joint Linda and Predicate table ">
<polygon fill="none" stroke="black" points="1211,-146 1211,-176 1370,-176 1370,-146 1211,-146"/>
<text text-anchor="start" x="1219" y="-164" font-family="Helvetica,sans-Serif" font-size="10.00">prolog.fluents.DataBase.process</text>
<text text-anchor="middle" x="1290.5" y="-153" font-family="Helvetica,sans-Serif" font-size="10.00">Clause</text>
</a>
</g>
</g>
<!-- Node1&#45;&gt;Node2 -->
<g id="edge1" class="edge"><title>Node1&#45;&gt;Node2</title>
<path fill="none" stroke="midnightblue" d="M126.6,-128.421C196.864,-141.458 319.958,-161 426.5,-161 426.5,-161 426.5,-161 934.5,-161 1029.57,-161 1138.95,-161 1210.89,-161"/>
<polygon fill="midnightblue" stroke="midnightblue" points="127.099,-124.953 116.625,-126.547 125.807,-131.833 127.099,-124.953"/>
</g>
<!-- Node5 -->
<g id="node5" class="node"><title>Node5</title>
<g id="a_node5"><a xlink:href="../../d2/d8d/classprolog_1_1fluents_1_1BlackBoard_a4b49c266b7b7abbc698841281e426bfe.html#a4b49c266b7b7abbc698841281e426bfe" target="_top" xlink:title="Removes the first matching Term or Clause from the blackboard, to be used by Linda in/1 operation in ...">
<polygon fill="none" stroke="black" points="173,-107.5 173,-126.5 323,-126.5 323,-107.5 173,-107.5"/>
<text text-anchor="middle" x="248" y="-114.5" font-family="Helvetica,sans-Serif" font-size="10.00">prolog.fluents.BlackBoard.take</text>
</a>
</g>
</g>
<!-- Node1&#45;&gt;Node5 -->
<g id="edge4" class="edge"><title>Node1&#45;&gt;Node5</title>
<path fill="none" stroke="midnightblue" d="M147.33,-117C155.779,-117 164.363,-117 172.768,-117"/>
<polygon fill="midnightblue" stroke="midnightblue" points="147.112,-113.5 137.111,-117 147.111,-120.5 147.112,-113.5"/>
</g>
<!-- Node8 -->
<g id="node8" class="node"><title>Node8</title>
<g id="a_node8"><a xlink:href="../../d6/dc4/classprolog_1_1terms_1_1Clause_a9c5f957d0240113f4328ebbc73d3b31d.html#a9c5f957d0240113f4328ebbc73d3b31d" target="_top" xlink:title="Algebraic composition operation of 2 Clauses, doing the basic resolution step Prolog is based on...">
<polygon fill="none" stroke="black" points="181,-65.5 181,-84.5 315,-84.5 315,-65.5 181,-65.5"/>
<text text-anchor="middle" x="248" y="-72.5" font-family="Helvetica,sans-Serif" font-size="10.00">prolog.terms.Clause.unfold</text>
</a>
</g>
</g>
<!-- Node1&#45;&gt;Node8 -->
<g id="edge7" class="edge"><title>Node1&#45;&gt;Node8</title>
<path fill="none" stroke="midnightblue" d="M119.606,-105.144C147.109,-98.6362 180.764,-90.6726 206.575,-84.5653"/>
<polygon fill="midnightblue" stroke="midnightblue" points="118.703,-101.761 109.777,-107.47 120.315,-108.573 118.703,-101.761"/>
</g>
<!-- Node3 -->
<g id="node3" class="node"><title>Node3</title>
<g id="a_node3"><a xlink:href="../../da/dd9/classprolog_1_1fluents_1_1DataBase_a83885e10b61d6bf129307d9bf50d93de.html#a83885e10b61d6bf129307d9bf50d93de" target="_top" xlink:title="prolog.fluents.DataBase.apply\l_parser">
<polygon fill="none" stroke="black" points="1406,-153 1406,-183 1554,-183 1554,-153 1406,-153"/>
<text text-anchor="start" x="1414" y="-171" font-family="Helvetica,sans-Serif" font-size="10.00">prolog.fluents.DataBase.apply</text>
<text text-anchor="middle" x="1480" y="-160" font-family="Helvetica,sans-Serif" font-size="10.00">_parser</text>
</a>
</g>
</g>
<!-- Node2&#45;&gt;Node3 -->
<g id="edge2" class="edge"><title>Node2&#45;&gt;Node3</title>
<path fill="none" stroke="midnightblue" d="M1380.24,-164.313C1388.83,-164.634 1397.47,-164.956 1405.88,-165.27"/>
<polygon fill="midnightblue" stroke="midnightblue" points="1380.33,-160.814 1370.2,-163.938 1380.06,-167.809 1380.33,-160.814"/>
</g>
<!-- Node4 -->
<g id="node4" class="node"><title>Node4</title>
<g id="a_node4"><a xlink:href="../../da/dd9/classprolog_1_1fluents_1_1DataBase_af8b26948ded7bba6386b984f463bf166.html#af8b26948ded7bba6386b984f463bf166" target="_top" xlink:title="prolog.fluents.DataBase.stream\lToProg">
<polygon fill="none" stroke="black" points="1590,-153 1590,-183 1745,-183 1745,-153 1590,-153"/>
<text text-anchor="start" x="1598" y="-171" font-family="Helvetica,sans-Serif" font-size="10.00">prolog.fluents.DataBase.stream</text>
<text text-anchor="middle" x="1667.5" y="-160" font-family="Helvetica,sans-Serif" font-size="10.00">ToProg</text>
</a>
</g>
</g>
<!-- Node3&#45;&gt;Node4 -->
<g id="edge3" class="edge"><title>Node3&#45;&gt;Node4</title>
<path fill="none" stroke="midnightblue" d="M1564.06,-168C1572.65,-168 1581.34,-168 1589.86,-168"/>
<polygon fill="midnightblue" stroke="midnightblue" points="1564.05,-164.5 1554.05,-168 1564.05,-171.5 1564.05,-164.5"/>
</g>
<!-- Node6 -->
<g id="node6" class="node"><title>Node6</title>
<g id="a_node6"><a xlink:href="../../da/dd9/classprolog_1_1fluents_1_1DataBase_a5cc308e3a32da4266de44e52764501ca.html#a5cc308e3a32da4266de44e52764501ca" target="_top" xlink:title="Removes a matching Term from the blackboards and signals failure if no such term is found...">
<polygon fill="none" stroke="black" points="359,-107.5 359,-126.5 496,-126.5 496,-107.5 359,-107.5"/>
<text text-anchor="middle" x="427.5" y="-114.5" font-family="Helvetica,sans-Serif" font-size="10.00">prolog.fluents.DataBase.cin</text>
</a>
</g>
</g>
<!-- Node5&#45;&gt;Node6 -->
<g id="edge5" class="edge"><title>Node5&#45;&gt;Node6</title>
<path fill="none" stroke="midnightblue" d="M333.251,-117C341.81,-117 350.426,-117 358.778,-117"/>
<polygon fill="midnightblue" stroke="midnightblue" points="333.248,-113.5 323.248,-117 333.247,-120.5 333.248,-113.5"/>
</g>
<!-- Node7 -->
<g id="node7" class="node"><title>Node7</title>
<g id="a_node7"><a xlink:href="../../d1/dd4/classprolog_1_1builtins_1_1db__remove_a5a3ab57bdfd925e9cc119d213cd23163.html#a5a3ab57bdfd925e9cc119d213cd23163" target="_top" xlink:title="prolog.builtins.db\l_remove.exec">
<polygon fill="none" stroke="black" points="550.5,-102 550.5,-132 640.5,-132 640.5,-102 550.5,-102"/>
<text text-anchor="start" x="558.5" y="-120" font-family="Helvetica,sans-Serif" font-size="10.00">prolog.builtins.db</text>
<text text-anchor="middle" x="595.5" y="-109" font-family="Helvetica,sans-Serif" font-size="10.00">_remove.exec</text>
</a>
</g>
</g>
<!-- Node6&#45;&gt;Node7 -->
<g id="edge6" class="edge"><title>Node6&#45;&gt;Node7</title>
<path fill="none" stroke="midnightblue" d="M506.404,-117C521.493,-117 536.807,-117 550.342,-117"/>
<polygon fill="midnightblue" stroke="midnightblue" points="506.019,-113.5 496.019,-117 506.019,-120.5 506.019,-113.5"/>
</g>
<!-- Node9 -->
<g id="node9" class="node"><title>Node9</title>
<g id="a_node9"><a xlink:href="../../d6/dc4/classprolog_1_1terms_1_1Clause_a0d8b6d3c8de70326ab416be12688896b.html#a0d8b6d3c8de70326ab416be12688896b" target="_top" xlink:title="prolog.terms.Clause.unfold\l_with_goal">
<polygon fill="none" stroke="black" points="360.5,-56 360.5,-86 494.5,-86 494.5,-56 360.5,-56"/>
<text text-anchor="start" x="368.5" y="-74" font-family="Helvetica,sans-Serif" font-size="10.00">prolog.terms.Clause.unfold</text>
<text text-anchor="middle" x="427.5" y="-63" font-family="Helvetica,sans-Serif" font-size="10.00">_with_goal</text>
</a>
</g>
</g>
<!-- Node8&#45;&gt;Node9 -->
<g id="edge8" class="edge"><title>Node8&#45;&gt;Node9</title>
<path fill="none" stroke="midnightblue" d="M325.261,-73.2814C336.94,-73.0183 348.913,-72.7484 360.35,-72.4907"/>
<polygon fill="midnightblue" stroke="midnightblue" points="325.013,-69.786 315.094,-73.5105 325.171,-76.7843 325.013,-69.786"/>
</g>
<!-- Node10 -->
<g id="node10" class="node"><title>Node10</title>
<g id="a_node10"><a xlink:href="../../df/d94/classprolog_1_1terms_1_1Unfolder_a261a28665ab541b974afb636c3fec84b.html#a261a28665ab541b974afb636c3fec84b" target="_top" xlink:title="Returns a new clause by unfolding the goal with a matching clause in the database, or null if no such clause exists. ">
<polygon fill="none" stroke="black" points="532,-53 532,-83 659,-83 659,-53 532,-53"/>
<text text-anchor="start" x="540" y="-71" font-family="Helvetica,sans-Serif" font-size="10.00">prolog.terms.Unfolder.get</text>
<text text-anchor="middle" x="595.5" y="-60" font-family="Helvetica,sans-Serif" font-size="10.00">Element</text>
</a>
</g>
</g>
<!-- Node9&#45;&gt;Node10 -->
<g id="edge9" class="edge"><title>Node9&#45;&gt;Node10</title>
<path fill="none" stroke="midnightblue" d="M504.764,-69.6217C513.842,-69.4577 523.027,-69.2917 531.883,-69.1316"/>
<polygon fill="midnightblue" stroke="midnightblue" points="504.52,-66.1255 494.585,-69.8057 504.646,-73.1243 504.52,-66.1255"/>
</g>
<!-- Node11 -->
<g id="node11" class="node"><title>Node11</title>
<g id="a_node11"><a xlink:href="../../d4/d26/classprolog_1_1terms_1_1Prog_ac5d988b907a2843fcfcba4d1fd1e0deb.html#ac5d988b907a2843fcfcba4d1fd1e0deb" target="_top" xlink:title="Here is where actual LD&#45;resolution computation happens. ">
<polygon fill="none" stroke="black" points="695,-58.5 695,-77.5 841,-77.5 841,-58.5 695,-58.5"/>
<text text-anchor="middle" x="768" y="-65.5" font-family="Helvetica,sans-Serif" font-size="10.00">prolog.terms.Prog.getElement</text>
</a>
</g>
</g>
<!-- Node10&#45;&gt;Node11 -->
<g id="edge10" class="edge"><title>Node10&#45;&gt;Node11</title>
<path fill="none" stroke="midnightblue" d="M669.288,-68C677.794,-68 686.469,-68 694.965,-68"/>
<polygon fill="midnightblue" stroke="midnightblue" points="669.02,-64.5001 659.02,-68 669.02,-71.5001 669.02,-64.5001"/>
</g>
<!-- Node12 -->
<g id="node12" class="node"><title>Node12</title>
<g id="a_node12"><a xlink:href="../../d4/d26/classprolog_1_1terms_1_1Prog_a696a0c92a1814ecf4f21fb09fbc854a0.html#a696a0c92a1814ecf4f21fb09fbc854a0" target="_top" xlink:title="asks a logic engine to return a solution ">
<polygon fill="none" stroke="black" points="877,-40 877,-70 990,-70 990,-40 877,-40"/>
<text text-anchor="start" x="885" y="-58" font-family="Helvetica,sans-Serif" font-size="10.00">prolog.terms.Prog.ask</text>
<text text-anchor="middle" x="933.5" y="-47" font-family="Helvetica,sans-Serif" font-size="10.00">_engine</text>
</a>
</g>
</g>
<!-- Node11&#45;&gt;Node12 -->
<g id="edge11" class="edge"><title>Node11&#45;&gt;Node12</title>
<path fill="none" stroke="midnightblue" d="M851.337,-61.4533C859.998,-60.7647 868.65,-60.0768 876.904,-59.4205"/>
<polygon fill="midnightblue" stroke="midnightblue" points="850.881,-57.9785 841.189,-62.2602 851.435,-64.9565 850.881,-57.9785"/>
</g>
<!-- Node23 -->
<g id="node23" class="node"><title>Node23</title>
<g id="a_node23"><a xlink:href="../../d4/d26/classprolog_1_1terms_1_1Prog_a45a00a5df54d8c378930f320020b457f.html#a45a00a5df54d8c378930f320020b457f" target="_top" xlink:title="usable for launching on a separate thread ">
<polygon fill="none" stroke="black" points="878.5,-89.5 878.5,-108.5 988.5,-108.5 988.5,-89.5 878.5,-89.5"/>
<text text-anchor="middle" x="933.5" y="-96.5" font-family="Helvetica,sans-Serif" font-size="10.00">prolog.terms.Prog.run</text>
</a>
</g>
</g>
<!-- Node11&#45;&gt;Node23 -->
<g id="edge25" class="edge"><title>Node11&#45;&gt;Node23</title>
<path fill="none" stroke="midnightblue" d="M829.438,-79.4592C846.82,-82.7549 865.584,-86.3126 882.277,-89.4776"/>
<polygon fill="midnightblue" stroke="midnightblue" points="829.866,-75.9782 819.389,-77.554 828.562,-82.8556 829.866,-75.9782"/>
</g>
<!-- Node13 -->
<g id="node13" class="node"><title>Node13</title>
<g id="a_node13"><a xlink:href="../../d8/d35/classprolog_1_1Init_a34d43d3123bb194902cbcb1c06194cce.html#a34d43d3123bb194902cbcb1c06194cce" target="_top" xlink:title="evalutes a query ">
<polygon fill="none" stroke="black" points="1240,-38.5 1240,-57.5 1341,-57.5 1341,-38.5 1240,-38.5"/>
<text text-anchor="middle" x="1290.5" y="-45.5" font-family="Helvetica,sans-Serif" font-size="10.00">prolog.Init.evalGoal</text>
</a>
</g>
</g>
<!-- Node12&#45;&gt;Node13 -->
<g id="edge12" class="edge"><title>Node12&#45;&gt;Node13</title>
<path fill="none" stroke="midnightblue" d="M1000.74,-53.6939C1070.14,-52.3254 1177.58,-50.2068 1239.98,-48.9765"/>
<polygon fill="midnightblue" stroke="midnightblue" points="1000.29,-50.202 990.359,-53.8985 1000.43,-57.2006 1000.29,-50.202"/>
</g>
<!-- Node17 -->
<g id="node17" class="node"><title>Node17</title>
<g id="a_node17"><a xlink:href="../../d4/d26/classprolog_1_1terms_1_1Prog_afb6f86119db8ba133de23f8bfe24ba2e.html#afb6f86119db8ba133de23f8bfe24ba2e" target="_top" xlink:title="Computes a copy of the first solution X of Goal G. ">
<polygon fill="none" stroke="black" points="1026,-76.5 1026,-95.5 1175,-95.5 1175,-76.5 1026,-76.5"/>
<text text-anchor="middle" x="1100.5" y="-83.5" font-family="Helvetica,sans-Serif" font-size="10.00">prolog.terms.Prog.firstSolution</text>
</a>
</g>
</g>
<!-- Node12&#45;&gt;Node17 -->
<g id="edge16" class="edge"><title>Node12&#45;&gt;Node17</title>
<path fill="none" stroke="midnightblue" d="M1000.26,-67.3551C1016.38,-70.3839 1033.39,-73.5799 1048.69,-76.454"/>
<polygon fill="midnightblue" stroke="midnightblue" points="1000.84,-63.9019 990.361,-65.4952 999.543,-70.7816 1000.84,-63.9019"/>
</g>
<!-- Node14 -->
<g id="node14" class="node"><title>Node14</title>
<g id="a_node14"><a xlink:href="../../d8/d35/classprolog_1_1Init_a2471811f50fbed4de5df26ee530f1e2e.html#a2471811f50fbed4de5df26ee530f1e2e" target="_top" xlink:title="evaluates and times a Goal querying program P ">
<polygon fill="none" stroke="black" points="1429.5,-0.5 1429.5,-19.5 1530.5,-19.5 1530.5,-0.5 1429.5,-0.5"/>
<text text-anchor="middle" x="1480" y="-7.5" font-family="Helvetica,sans-Serif" font-size="10.00">prolog.Init.timeGoal</text>
</a>
</g>
</g>
<!-- Node13&#45;&gt;Node14 -->
<g id="edge13" class="edge"><title>Node13&#45;&gt;Node14</title>
<path fill="none" stroke="midnightblue" d="M1348.78,-36.3905C1375.45,-30.986 1406.78,-24.6365 1432.03,-19.5201"/>
<polygon fill="midnightblue" stroke="midnightblue" points="1347.92,-32.9944 1338.81,-38.411 1349.31,-39.8549 1347.92,-32.9944"/>
</g>
<!-- Node15 -->
<g id="node15" class="node"><title>Node15</title>
<g id="a_node15"><a xlink:href="../../d8/d35/classprolog_1_1Init_a0348efff7140aed75f8364f90b7c2b8b.html#a0348efff7140aed75f8364f90b7c2b8b" target="_top" xlink:title="prolog.Init.run_query">
<polygon fill="none" stroke="black" points="1615,-0.5 1615,-19.5 1720,-19.5 1720,-0.5 1615,-0.5"/>
<text text-anchor="middle" x="1667.5" y="-7.5" font-family="Helvetica,sans-Serif" font-size="10.00">prolog.Init.run_query</text>
</a>
</g>
</g>
<!-- Node14&#45;&gt;Node15 -->
<g id="edge14" class="edge"><title>Node14&#45;&gt;Node15</title>
<path fill="none" stroke="midnightblue" d="M1541.02,-10C1564.78,-10 1591.82,-10 1614.71,-10"/>
<polygon fill="midnightblue" stroke="midnightblue" points="1540.71,-6.5001 1530.71,-10 1540.71,-13.5001 1540.71,-6.5001"/>
</g>
<!-- Node16 -->
<g id="node16" class="node"><title>Node16</title>
<g id="a_node16"><a xlink:href="../../d8/d35/classprolog_1_1Init_a3e8704cf8b2d909fccc79e967dd48171.html#a3e8704cf8b2d909fccc79e967dd48171" target="_top" xlink:title="prolog.Init.standardTop">
<polygon fill="none" stroke="black" points="1609.5,-38.5 1609.5,-57.5 1725.5,-57.5 1725.5,-38.5 1609.5,-38.5"/>
<text text-anchor="middle" x="1667.5" y="-45.5" font-family="Helvetica,sans-Serif" font-size="10.00">prolog.Init.standardTop</text>
</a>
</g>
</g>
<!-- Node14&#45;&gt;Node16 -->
<g id="edge15" class="edge"><title>Node14&#45;&gt;Node16</title>
<path fill="none" stroke="midnightblue" d="M1537.67,-21.6095C1564.06,-27.014 1595.05,-33.3635 1620.03,-38.4799"/>
<polygon fill="midnightblue" stroke="midnightblue" points="1538.31,-18.1671 1527.81,-19.589 1536.9,-25.0247 1538.31,-18.1671"/>
</g>
<!-- Node17&#45;&gt;Node2 -->
<g id="edge24" class="edge"><title>Node17&#45;&gt;Node2</title>
<path fill="none" stroke="midnightblue" d="M1135.29,-99.479C1168.06,-112.555 1217.71,-132.359 1251.76,-145.945"/>
<polygon fill="midnightblue" stroke="midnightblue" points="1136.28,-96.106 1125.69,-95.6514 1133.68,-102.608 1136.28,-96.106"/>
</g>
<!-- Node17&#45;&gt;Node13 -->
<g id="edge23" class="edge"><title>Node17&#45;&gt;Node13</title>
<path fill="none" stroke="midnightblue" d="M1158.94,-74.3905C1185.67,-68.986 1217.09,-62.6365 1242.4,-57.5201"/>
<polygon fill="midnightblue" stroke="midnightblue" points="1158.05,-70.9991 1148.94,-76.411 1159.44,-77.8603 1158.05,-70.9991"/>
</g>
<!-- Node18 -->
<g id="node18" class="node"><title>Node18</title>
<g id="a_node18"><a xlink:href="../../d8/d35/classprolog_1_1Init_a4a7b9ae1dc4d489e657326f3ed5a4b7e.html#a4a7b9ae1dc4d489e657326f3ed5a4b7e" target="_top" xlink:title="Asks Prolog a query Answer, Goal and returns the first solution of the form &quot;the(Answer)&quot; or the cons...">
<polygon fill="none" stroke="black" points="1237.5,-76.5 1237.5,-95.5 1343.5,-95.5 1343.5,-76.5 1237.5,-76.5"/>
<text text-anchor="middle" x="1290.5" y="-83.5" font-family="Helvetica,sans-Serif" font-size="10.00">prolog.Init.askProlog</text>
</a>
</g>
</g>
<!-- Node17&#45;&gt;Node18 -->
<g id="edge17" class="edge"><title>Node17&#45;&gt;Node18</title>
<path fill="none" stroke="midnightblue" d="M1185.58,-86C1203.24,-86 1221.36,-86 1237.43,-86"/>
<polygon fill="midnightblue" stroke="midnightblue" points="1185.26,-82.5001 1175.26,-86 1185.26,-89.5001 1185.26,-82.5001"/>
</g>
<!-- Node19 -->
<g id="node19" class="node"><title>Node19</title>
<g id="a_node19"><a xlink:href="../../d8/d35/classprolog_1_1Init_ae5fe9e2dc533d32690edbbec3b1c279b.html#ae5fe9e2dc533d32690edbbec3b1c279b" target="_top" xlink:title="Asks Prolog a query Goal and returns the first solution of the form &quot;the(Answer)&quot; ...">
<polygon fill="none" stroke="black" points="1427,-38.5 1427,-57.5 1533,-57.5 1533,-38.5 1427,-38.5"/>
<text text-anchor="middle" x="1480" y="-45.5" font-family="Helvetica,sans-Serif" font-size="10.00">prolog.Init.askProlog</text>
</a>
</g>
</g>
<!-- Node18&#45;&gt;Node19 -->
<g id="edge18" class="edge"><title>Node18&#45;&gt;Node19</title>
<path fill="none" stroke="midnightblue" d="M1348.78,-74.3905C1375.45,-68.986 1406.78,-62.6365 1432.03,-57.5201"/>
<polygon fill="midnightblue" stroke="midnightblue" points="1347.92,-70.9944 1338.81,-76.411 1349.31,-77.8549 1347.92,-70.9944"/>
</g>
<!-- Node20 -->
<g id="node20" class="node"><title>Node20</title>
<g id="a_node20"><a xlink:href="../../da/dde/classprolog_1_1Main_aca445add96cb95be654213f0e42d5b76.html#aca445add96cb95be654213f0e42d5b76" target="_top" xlink:title="prolog.Main.init">
<polygon fill="none" stroke="black" points="1438.5,-114.5 1438.5,-133.5 1521.5,-133.5 1521.5,-114.5 1438.5,-114.5"/>
<text text-anchor="middle" x="1480" y="-121.5" font-family="Helvetica,sans-Serif" font-size="10.00">prolog.Main.init</text>
</a>
</g>
</g>
<!-- Node18&#45;&gt;Node20 -->
<g id="edge19" class="edge"><title>Node18&#45;&gt;Node20</title>
<path fill="none" stroke="midnightblue" d="M1348.8,-97.6133C1377.75,-103.48 1412.19,-110.461 1438.38,-115.768"/>
<polygon fill="midnightblue" stroke="midnightblue" points="1349.31,-94.1451 1338.81,-95.589 1347.92,-101.006 1349.31,-94.1451"/>
</g>
<!-- Node22 -->
<g id="node22" class="node"><title>Node22</title>
<g id="a_node22"><a xlink:href="../../d8/d35/classprolog_1_1Init_a7293b6db1f53eca4730418c54ab07109.html#a7293b6db1f53eca4730418c54ab07109" target="_top" xlink:title="prolog.Init.run">
<polygon fill="none" stroke="black" points="1442,-76.5 1442,-95.5 1518,-95.5 1518,-76.5 1442,-76.5"/>
<text text-anchor="middle" x="1480" y="-83.5" font-family="Helvetica,sans-Serif" font-size="10.00">prolog.Init.run</text>
</a>
</g>
</g>
<!-- Node18&#45;&gt;Node22 -->
<g id="edge21" class="edge"><title>Node18&#45;&gt;Node22</title>
<path fill="none" stroke="midnightblue" d="M1353.84,-86C1383.02,-86 1416.8,-86 1441.9,-86"/>
<polygon fill="midnightblue" stroke="midnightblue" points="1353.73,-82.5001 1343.73,-86 1353.73,-89.5001 1353.73,-82.5001"/>
</g>
<!-- Node21 -->
<g id="node21" class="node"><title>Node21</title>
<g id="a_node21"><a xlink:href="../../da/dde/classprolog_1_1Main_ab0b3345fa72bd3b96c565437b962efa3.html#ab0b3345fa72bd3b96c565437b962efa3" target="_top" xlink:title="prolog.Main.main">
<polygon fill="none" stroke="black" points="1622,-95.5 1622,-114.5 1713,-114.5 1713,-95.5 1622,-95.5"/>
<text text-anchor="middle" x="1667.5" y="-102.5" font-family="Helvetica,sans-Serif" font-size="10.00">prolog.Main.main</text>
</a>
</g>
</g>
<!-- Node20&#45;&gt;Node21 -->
<g id="edge20" class="edge"><title>Node20&#45;&gt;Node21</title>
<path fill="none" stroke="midnightblue" d="M1531.79,-118.798C1560.02,-115.906 1594.83,-112.341 1621.99,-109.559"/>
<polygon fill="midnightblue" stroke="midnightblue" points="1531.3,-115.33 1521.71,-119.83 1532.01,-122.293 1531.3,-115.33"/>
</g>
<!-- Node22&#45;&gt;Node21 -->
<g id="edge22" class="edge"><title>Node22&#45;&gt;Node21</title>
<path fill="none" stroke="midnightblue" d="M1528.32,-90.8469C1557.12,-93.7964 1593.67,-97.5405 1621.95,-100.437"/>
<polygon fill="midnightblue" stroke="midnightblue" points="1528.4,-87.3365 1518.09,-89.7993 1527.68,-94.3001 1528.4,-87.3365"/>
</g>
</g>
</svg>
