<?xml version="1.0" encoding="UTF-8" standalone="no"?>
<!DOCTYPE svg PUBLIC "-//W3C//DTD SVG 1.1//EN"
 "http://www.w3.org/Graphics/SVG/1.1/DTD/svg11.dtd">
<!-- Generated by graphviz version 2.38.0 (20140413.2041)
 -->
<!-- Title: prolog.terms.Term.stringToChars Pages: 1 -->
<svg width="461pt" height="78pt"
 viewBox="0.00 0.00 461.00 77.50" xmlns="http://www.w3.org/2000/svg" xmlns:xlink="http://www.w3.org/1999/xlink">
<g id="graph0" class="graph" transform="scale(1 1) rotate(0) translate(4 73.5)">
<title>prolog.terms.Term.stringToChars</title>
<!-- Node1 -->
<g id="node1" class="node"><title>Node1</title>
<polygon fill="#bfbfbf" stroke="black" points="0,-17 0,-47 123,-47 123,-17 0,-17"/>
<text text-anchor="start" x="8" y="-35" font-family="Helvetica,sans-Serif" font-size="10.00">prolog.terms.Term.string</text>
<text text-anchor="middle" x="61.5" y="-24" font-family="Helvetica,sans-Serif" font-size="10.00">ToChars</text>
</g>
<!-- Node2 -->
<g id="node2" class="node"><title>Node2</title>
<g id="a_node2"><a xlink:href="../../d3/ded/classprolog_1_1terms_1_1Term_ae8200608f033511843ee4eae348103ed.html#ae8200608f033511843ee4eae348103ed" target="_top" xlink:title="prolog.terms.Term.toChars">
<polygon fill="none" stroke="black" points="159,-22.5 159,-41.5 293,-41.5 293,-22.5 159,-22.5"/>
<text text-anchor="middle" x="226" y="-29.5" font-family="Helvetica,sans-Serif" font-size="10.00">prolog.terms.Term.toChars</text>
</a>
</g>
</g>
<!-- Node1&#45;&gt;Node2 -->
<g id="edge1" class="edge"><title>Node1&#45;&gt;Node2</title>
<path fill="none" stroke="midnightblue" d="M133.03,-32C141.65,-32 150.435,-32 158.986,-32"/>
<polygon fill="midnightblue" stroke="midnightblue" points="133.009,-28.5001 123.009,-32 133.009,-35.5001 133.009,-28.5001"/>
</g>
<!-- Node3 -->
<g id="node3" class="node"><title>Node3</title>
<g id="a_node3"><a xlink:href="../../db/d97/classprolog_1_1builtins_1_1name__to__chars_a7e21a55985c27994587765755c2d3744.html#a7e21a55985c27994587765755c2d3744" target="_top" xlink:title="prolog.builtins.name\l_to_chars.exec">
<polygon fill="none" stroke="black" points="339,-39 339,-69 443,-69 443,-39 339,-39"/>
<text text-anchor="start" x="347" y="-57" font-family="Helvetica,sans-Serif" font-size="10.00">prolog.builtins.name</text>
<text text-anchor="middle" x="391" y="-46" font-family="Helvetica,sans-Serif" font-size="10.00">_to_chars.exec</text>
</a>
</g>
</g>
<!-- Node2&#45;&gt;Node3 -->
<g id="edge2" class="edge"><title>Node2&#45;&gt;Node3</title>
<path fill="none" stroke="midnightblue" d="M303.329,-42.302C315.339,-43.923 327.499,-45.5643 338.761,-47.0843"/>
<polygon fill="midnightblue" stroke="midnightblue" points="303.677,-38.8173 293.298,-40.9482 302.74,-45.7544 303.677,-38.8173"/>
</g>
<!-- Node4 -->
<g id="node4" class="node"><title>Node4</title>
<g id="a_node4"><a xlink:href="../../d7/df1/classprolog_1_1io_1_1Parser_a2266a192306644bbc8e9bb4b4839708e.html#a2266a192306644bbc8e9bb4b4839708e" target="_top" xlink:title="prolog.io.Parser.getTerm">
<polygon fill="none" stroke="black" points="329,-0.5 329,-19.5 453,-19.5 453,-0.5 329,-0.5"/>
<text text-anchor="middle" x="391" y="-7.5" font-family="Helvetica,sans-Serif" font-size="10.00">prolog.io.Parser.getTerm</text>
</a>
</g>
</g>
<!-- Node2&#45;&gt;Node4 -->
<g id="edge3" class="edge"><title>Node2&#45;&gt;Node4</title>
<path fill="none" stroke="midnightblue" d="M303.27,-21.7059C311.813,-20.5528 320.434,-19.3893 328.754,-18.2663"/>
<polygon fill="midnightblue" stroke="midnightblue" points="302.74,-18.2456 293.298,-23.0518 303.677,-25.1827 302.74,-18.2456"/>
</g>
</g>
</svg>
