<?xml version="1.0" encoding="UTF-8" standalone="no"?>
<!DOCTYPE svg PUBLIC "-//W3C//DTD SVG 1.1//EN"
 "http://www.w3.org/Graphics/SVG/1.1/DTD/svg11.dtd">
<!-- Generated by graphviz version 2.38.0 (20140413.2041)
 -->
<!-- Title: prolog.terms.Term.varsOf Pages: 1 -->
<svg width="810pt" height="121pt"
 viewBox="0.00 0.00 810.00 121.00" xmlns="http://www.w3.org/2000/svg" xmlns:xlink="http://www.w3.org/1999/xlink">
<g id="graph0" class="graph" transform="scale(1 1) rotate(0) translate(4 117)">
<title>prolog.terms.Term.varsOf</title>
<!-- Node1 -->
<g id="node1" class="node"><title>Node1</title>
<polygon fill="#bfbfbf" stroke="black" points="0,-44 0,-63 128,-63 128,-44 0,-44"/>
<text text-anchor="middle" x="64" y="-51" font-family="Helvetica,sans-Serif" font-size="10.00">prolog.terms.Term.varsOf</text>
</g>
<!-- Node2 -->
<g id="node2" class="node"><title>Node2</title>
<g id="a_node2"><a xlink:href="../../d6/dc4/classprolog_1_1terms_1_1Clause_a5334e8934d6aa83d3bd13b7b38d3992a.html#a5334e8934d6aa83d3bd13b7b38d3992a" target="_top" xlink:title="Detects that a clause is ground (i.e. ">
<polygon fill="none" stroke="black" points="183.5,-82.5 183.5,-112.5 317.5,-112.5 317.5,-82.5 183.5,-82.5"/>
<text text-anchor="start" x="191.5" y="-100.5" font-family="Helvetica,sans-Serif" font-size="10.00">prolog.terms.Clause.check</text>
<text text-anchor="middle" x="250.5" y="-89.5" font-family="Helvetica,sans-Serif" font-size="10.00">IfGround</text>
</a>
</g>
</g>
<!-- Node1&#45;&gt;Node2 -->
<g id="edge1" class="edge"><title>Node1&#45;&gt;Node2</title>
<path fill="none" stroke="midnightblue" d="M114.832,-65.384C136.842,-70.6331 162.97,-76.8642 186.328,-82.4346"/>
<polygon fill="midnightblue" stroke="midnightblue" points="115.573,-61.9627 105.034,-63.0473 113.949,-68.7717 115.573,-61.9627"/>
</g>
<!-- Node3 -->
<g id="node3" class="node"><title>Node3</title>
<g id="a_node3"><a xlink:href="../../d6/dc4/classprolog_1_1terms_1_1Clause_a00d8b13e5351a9f8c1ef80de688cd266.html#a00d8b13e5351a9f8c1ef80de688cd266" target="_top" xlink:title="Reads a goal as a clause containing a dummy header with all variables in it. ">
<polygon fill="none" stroke="black" points="373,-69 373,-88 509,-88 509,-69 373,-69"/>
<text text-anchor="middle" x="441" y="-76" font-family="Helvetica,sans-Serif" font-size="10.00">prolog.terms.Clause.toGoal</text>
</a>
</g>
</g>
<!-- Node1&#45;&gt;Node3 -->
<g id="edge7" class="edge"><title>Node1&#45;&gt;Node3</title>
<path fill="none" stroke="midnightblue" d="M138.401,-58.3934C206.421,-62.9281 306.768,-69.6178 372.749,-74.0166"/>
<polygon fill="midnightblue" stroke="midnightblue" points="138.4,-54.8857 128.19,-57.7126 137.935,-61.8702 138.4,-54.8857"/>
</g>
<!-- Node6 -->
<g id="node6" class="node"><title>Node6</title>
<g id="a_node6"><a xlink:href="../../d4/d09/classprolog_1_1io_1_1ClauseReader_ac713387538e0471c0795c8a664f398d1.html#ac713387538e0471c0795c8a664f398d1" target="_top" xlink:title="prolog.io.ClauseReader.extract_info">
<polygon fill="none" stroke="black" points="164,-6 164,-25 337,-25 337,-6 164,-6"/>
<text text-anchor="middle" x="250.5" y="-13" font-family="Helvetica,sans-Serif" font-size="10.00">prolog.io.ClauseReader.extract_info</text>
</a>
</g>
</g>
<!-- Node1&#45;&gt;Node6 -->
<g id="edge5" class="edge"><title>Node1&#45;&gt;Node6</title>
<path fill="none" stroke="midnightblue" d="M121.367,-41.8905C147.607,-36.486 178.436,-30.1365 203.278,-25.0201"/>
<polygon fill="midnightblue" stroke="midnightblue" points="120.645,-38.4656 111.557,-43.911 122.058,-45.3217 120.645,-38.4656"/>
</g>
<!-- Node2&#45;&gt;Node3 -->
<g id="edge2" class="edge"><title>Node2&#45;&gt;Node3</title>
<path fill="none" stroke="midnightblue" d="M327.854,-89.8038C342.701,-88.3074 358.162,-86.7489 372.692,-85.2844"/>
<polygon fill="midnightblue" stroke="midnightblue" points="327.292,-86.3427 317.693,-90.828 327.994,-93.3074 327.292,-86.3427"/>
</g>
<!-- Node4 -->
<g id="node4" class="node"><title>Node4</title>
<g id="a_node4"><a xlink:href="../../d6/dc4/classprolog_1_1terms_1_1Clause_aff298dbb79a27341afb0860f82ad1464.html#aff298dbb79a27341afb0860f82ad1464" target="_top" xlink:title="prolog.terms.Clause.goal\lFromString">
<polygon fill="none" stroke="black" points="545,-63.5 545,-93.5 670,-93.5 670,-63.5 545,-63.5"/>
<text text-anchor="start" x="553" y="-81.5" font-family="Helvetica,sans-Serif" font-size="10.00">prolog.terms.Clause.goal</text>
<text text-anchor="middle" x="607.5" y="-70.5" font-family="Helvetica,sans-Serif" font-size="10.00">FromString</text>
</a>
</g>
</g>
<!-- Node3&#45;&gt;Node4 -->
<g id="edge3" class="edge"><title>Node3&#45;&gt;Node4</title>
<path fill="none" stroke="midnightblue" d="M519.62,-78.5C528.059,-78.5 536.562,-78.5 544.775,-78.5"/>
<polygon fill="midnightblue" stroke="midnightblue" points="519.383,-75.0001 509.383,-78.5 519.383,-82.0001 519.383,-75.0001"/>
</g>
<!-- Node5 -->
<g id="node5" class="node"><title>Node5</title>
<g id="a_node5"><a xlink:href="../../d8/d35/classprolog_1_1Init_a0f6db95b70444cd1b933f24ec44814e4.html#a0f6db95b70444cd1b933f24ec44814e4" target="_top" xlink:title="prolog.Init.getGoal">
<polygon fill="none" stroke="black" points="706,-69 706,-88 802,-88 802,-69 706,-69"/>
<text text-anchor="middle" x="754" y="-76" font-family="Helvetica,sans-Serif" font-size="10.00">prolog.Init.getGoal</text>
</a>
</g>
</g>
<!-- Node4&#45;&gt;Node5 -->
<g id="edge4" class="edge"><title>Node4&#45;&gt;Node5</title>
<path fill="none" stroke="midnightblue" d="M680.36,-78.5C689.044,-78.5 697.735,-78.5 705.932,-78.5"/>
<polygon fill="midnightblue" stroke="midnightblue" points="680.2,-75.0001 670.2,-78.5 680.2,-82.0001 680.2,-75.0001"/>
</g>
<!-- Node7 -->
<g id="node7" class="node"><title>Node7</title>
<g id="a_node7"><a xlink:href="../../d4/d09/classprolog_1_1io_1_1ClauseReader_a805e9a5ebc401e1099f39af9b3f6fb47.html#a805e9a5ebc401e1099f39af9b3f6fb47" target="_top" xlink:title="prolog.io.ClauseReader.get\lElement">
<polygon fill="none" stroke="black" points="373.5,-0.5 373.5,-30.5 508.5,-30.5 508.5,-0.5 373.5,-0.5"/>
<text text-anchor="start" x="381.5" y="-18.5" font-family="Helvetica,sans-Serif" font-size="10.00">prolog.io.ClauseReader.get</text>
<text text-anchor="middle" x="441" y="-7.5" font-family="Helvetica,sans-Serif" font-size="10.00">Element</text>
</a>
</g>
</g>
<!-- Node6&#45;&gt;Node7 -->
<g id="edge6" class="edge"><title>Node6&#45;&gt;Node7</title>
<path fill="none" stroke="midnightblue" d="M347.485,-15.5C356.254,-15.5 365.003,-15.5 373.427,-15.5"/>
<polygon fill="midnightblue" stroke="midnightblue" points="347.201,-12.0001 337.201,-15.5 347.201,-19.0001 347.201,-12.0001"/>
</g>
</g>
</svg>
