<?xml version="1.0" encoding="UTF-8" standalone="no"?>
<!DOCTYPE svg PUBLIC "-//W3C//DTD SVG 1.1//EN"
 "http://www.w3.org/Graphics/SVG/1.1/DTD/svg11.dtd">
<!-- Generated by graphviz version 2.38.0 (20140413.2041)
 -->
<!-- Title: prolog.terms.Term.numbervars Pages: 1 -->
<!--zoomable 324 -->
<svg id="main" version="1.1" xmlns="http://www.w3.org/2000/svg" xmlns:xlink="http://www.w3.org/1999/xlink" xml:space="preserve" onload="init(evt)">
<style type="text/css"><![CDATA[
.edge:hover path { stroke: red; }
.edge:hover polygon { stroke: red; fill: red; }
]]></style>
<script type="text/javascript"><![CDATA[
var edges = document.getElementsByTagName('g');
if (edges && edges.length) {
  for (var i=0;i<edges.length;i++) {
    if (edges[i].id.substr(0,4)=='edge') {
      edges[i].setAttribute('class','edge');
    }
  }
}
]]></script>
        <defs>
                <circle id="rim" cx="0" cy="0" r="7"/>
                <circle id="rim2" cx="0" cy="0" r="3.5"/>
                <g id="zoomPlus">
                        <use xlink:href="#rim" fill="#404040">
                                <set attributeName="fill" to="#808080" begin="zoomplus.mouseover" end="zoomplus.mouseout"/>
                        </use>
                        <path d="M-4,0h8M0,-4v8" fill="none" stroke="white" stroke-width="1.5" pointer-events="none"/>
                </g>
                <g id="zoomMin">
                        <use xlink:href="#rim" fill="#404040">
                                <set attributeName="fill" to="#808080" begin="zoomminus.mouseover" end="zoomminus.mouseout"/>
                        </use>
                        <path d="M-4,0h8" fill="none" stroke="white" stroke-width="1.5" pointer-events="none"/>
                </g>
                <g id="dirArrow">
                        <path fill="none" stroke="white" stroke-width="1.5" d="M0,-3.0v7 M-2.5,-0.5L0,-3.0L2.5,-0.5"/>
                </g>
               <g id="resetDef">
                       <use xlink:href="#rim2" fill="#404040">
                               <set attributeName="fill" to="#808080" begin="reset.mouseover" end="reset.mouseout"/>
                       </use>
               </g>
        </defs>

<script type="text/javascript">
var viewWidth = 913;
var viewHeight = 324;
var sectionId = 'dynsection-1';
</script>
<script xlink:href="../../svgpan.js"/>
<svg id="graph" class="graph">
<g id="viewport">
<title>prolog.terms.Term.numbervars</title>
<!-- Node1 -->
<g id="node1" class="node"><title>Node1</title>
<polygon fill="#bfbfbf" stroke="black" points="0,-217.5 0,-236.5 150,-236.5 150,-217.5 0,-217.5"/>
<text text-anchor="middle" x="75" y="-224.5" font-family="Helvetica,sans-Serif" font-size="10.00">prolog.terms.Term.numbervars</text>
</g>
<!-- Node2 -->
<g id="node2" class="node"><title>Node2</title>
<g id="a_node2"><a xlink:href="../../d6/dc4/classprolog_1_1terms_1_1Clause_a616eb2dbf395587a4029c19bdc492745.html#a616eb2dbf395587a4029c19bdc492745" target="_top" xlink:title="Replaces varibles with nice looking upper case constants for printing purposes. ">
<polygon fill="none" stroke="black" points="186,-236.5 186,-255.5 350,-255.5 350,-236.5 186,-236.5"/>
<text text-anchor="middle" x="268" y="-243.5" font-family="Helvetica,sans-Serif" font-size="10.00">prolog.terms.Clause.cnumbervars</text>
</a>
</g>
</g>
<!-- Node1&#45;&gt;Node2 -->
<g id="edge1" class="edge"><title>Node1&#45;&gt;Node2</title>
<path fill="none" stroke="midnightblue" d="M160.119,-235.368C168.701,-236.222 177.407,-237.088 185.956,-237.938"/>
<polygon fill="midnightblue" stroke="midnightblue" points="160.416,-231.88 150.119,-234.373 159.723,-238.846 160.416,-231.88"/>
</g>
<!-- Node3 -->
<g id="node3" class="node"><title>Node3</title>
<g id="a_node3"><a xlink:href="../../d8/d35/classprolog_1_1Init_a34d43d3123bb194902cbcb1c06194cce.html#a34d43d3123bb194902cbcb1c06194cce" target="_top" xlink:title="evalutes a query ">
<polygon fill="none" stroke="black" points="422,-274.5 422,-293.5 523,-293.5 523,-274.5 422,-274.5"/>
<text text-anchor="middle" x="472.5" y="-281.5" font-family="Helvetica,sans-Serif" font-size="10.00">prolog.Init.evalGoal</text>
</a>
</g>
</g>
<!-- Node1&#45;&gt;Node3 -->
<g id="edge9" class="edge"><title>Node1&#45;&gt;Node3</title>
<path fill="none" stroke="midnightblue" d="M107.614,-240.44C129.267,-249.014 158.866,-259.513 186,-265 267.556,-281.493 364.612,-284.537 421.97,-284.671"/>
<polygon fill="midnightblue" stroke="midnightblue" points="108.845,-237.162 98.2619,-236.661 106.222,-243.652 108.845,-237.162"/>
</g>
<!-- Node10 -->
<g id="node10" class="node"><title>Node10</title>
<g id="a_node10"><a xlink:href="../../da/da3/classprolog_1_1builtins_1_1numbervars_a37d77d90e64d049b792b9a39257e203f.html#a37d77d90e64d049b792b9a39257e203f" target="_top" xlink:title="prolog.builtins.numbervars.exec">
<polygon fill="none" stroke="black" points="190.5,-198.5 190.5,-217.5 345.5,-217.5 345.5,-198.5 190.5,-198.5"/>
<text text-anchor="middle" x="268" y="-205.5" font-family="Helvetica,sans-Serif" font-size="10.00">prolog.builtins.numbervars.exec</text>
</a>
</g>
</g>
<!-- Node1&#45;&gt;Node10 -->
<g id="edge10" class="edge"><title>Node1&#45;&gt;Node10</title>
<path fill="none" stroke="midnightblue" d="M160.119,-218.632C170.194,-217.63 180.439,-216.611 190.4,-215.62"/>
<polygon fill="midnightblue" stroke="midnightblue" points="159.723,-215.154 150.119,-219.627 160.416,-222.12 159.723,-215.154"/>
</g>
<!-- Node11 -->
<g id="node11" class="node"><title>Node11</title>
<g id="a_node11"><a xlink:href="../../d3/ded/classprolog_1_1terms_1_1Term_af1569a19ab5774ae5658b74cbacdbc11.html#af1569a19ab5774ae5658b74cbacdbc11" target="_top" xlink:title="Prints out a term to a String with variables named in order V1, V2,.... ">
<polygon fill="none" stroke="black" points="206.5,-116.5 206.5,-135.5 329.5,-135.5 329.5,-116.5 206.5,-116.5"/>
<text text-anchor="middle" x="268" y="-123.5" font-family="Helvetica,sans-Serif" font-size="10.00">prolog.terms.Term.pprint</text>
</a>
</g>
</g>
<!-- Node1&#45;&gt;Node11 -->
<g id="edge11" class="edge"><title>Node1&#45;&gt;Node11</title>
<path fill="none" stroke="midnightblue" d="M103.294,-212.567C142.92,-191.613 215.31,-153.333 248.94,-135.55"/>
<polygon fill="midnightblue" stroke="midnightblue" points="101.173,-209.729 93.9688,-217.498 104.445,-215.918 101.173,-209.729"/>
</g>
<!-- Node2&#45;&gt;Node3 -->
<g id="edge2" class="edge"><title>Node2&#45;&gt;Node3</title>
<path fill="none" stroke="midnightblue" d="M329.964,-257.44C359.282,-262.942 393.987,-269.454 421.692,-274.653"/>
<polygon fill="midnightblue" stroke="midnightblue" points="330.312,-253.944 319.838,-255.54 329.021,-260.824 330.312,-253.944"/>
</g>
<!-- Node7 -->
<g id="node7" class="node"><title>Node7</title>
<g id="a_node7"><a xlink:href="../../d4/d09/classprolog_1_1io_1_1ClauseReader_ac713387538e0471c0795c8a664f398d1.html#ac713387538e0471c0795c8a664f398d1" target="_top" xlink:title="prolog.io.ClauseReader.extract_info">
<polygon fill="none" stroke="black" points="386,-236.5 386,-255.5 559,-255.5 559,-236.5 386,-236.5"/>
<text text-anchor="middle" x="472.5" y="-243.5" font-family="Helvetica,sans-Serif" font-size="10.00">prolog.io.ClauseReader.extract_info</text>
</a>
</g>
</g>
<!-- Node2&#45;&gt;Node7 -->
<g id="edge6" class="edge"><title>Node2&#45;&gt;Node7</title>
<path fill="none" stroke="midnightblue" d="M360.206,-246C368.783,-246 377.456,-246 385.977,-246"/>
<polygon fill="midnightblue" stroke="midnightblue" points="360.198,-242.5 350.198,-246 360.198,-249.5 360.198,-242.5"/>
</g>
<!-- Node9 -->
<g id="node9" class="node"><title>Node9</title>
<g id="a_node9"><a xlink:href="../../d6/dc4/classprolog_1_1terms_1_1Clause_ac13bc534da7f02536d4741318443dd27.html#ac13bc534da7f02536d4741318443dd27" target="_top" xlink:title="Pretty prints a clause after replacing ugly variable names. ">
<polygon fill="none" stroke="black" points="407,-198.5 407,-217.5 538,-217.5 538,-198.5 407,-198.5"/>
<text text-anchor="middle" x="472.5" y="-205.5" font-family="Helvetica,sans-Serif" font-size="10.00">prolog.terms.Clause.pprint</text>
</a>
</g>
</g>
<!-- Node2&#45;&gt;Node9 -->
<g id="edge8" class="edge"><title>Node2&#45;&gt;Node9</title>
<path fill="none" stroke="midnightblue" d="M329.847,-234.582C358.821,-229.145 393.075,-222.717 420.641,-217.544"/>
<polygon fill="midnightblue" stroke="midnightblue" points="329.021,-231.176 319.838,-236.46 330.312,-238.056 329.021,-231.176"/>
</g>
<!-- Node4 -->
<g id="node4" class="node"><title>Node4</title>
<g id="a_node4"><a xlink:href="../../d8/d35/classprolog_1_1Init_a2471811f50fbed4de5df26ee530f1e2e.html#a2471811f50fbed4de5df26ee530f1e2e" target="_top" xlink:title="evaluates and times a Goal querying program P ">
<polygon fill="none" stroke="black" points="619.5,-277.5 619.5,-296.5 720.5,-296.5 720.5,-277.5 619.5,-277.5"/>
<text text-anchor="middle" x="670" y="-284.5" font-family="Helvetica,sans-Serif" font-size="10.00">prolog.Init.timeGoal</text>
</a>
</g>
</g>
<!-- Node3&#45;&gt;Node4 -->
<g id="edge3" class="edge"><title>Node3&#45;&gt;Node4</title>
<path fill="none" stroke="midnightblue" d="M533.398,-284.919C560.97,-285.342 593.295,-285.838 619.467,-286.24"/>
<polygon fill="midnightblue" stroke="midnightblue" points="533.138,-281.415 523.086,-284.761 533.031,-288.414 533.138,-281.415"/>
</g>
<!-- Node5 -->
<g id="node5" class="node"><title>Node5</title>
<g id="a_node5"><a xlink:href="../../d8/d35/classprolog_1_1Init_a0348efff7140aed75f8364f90b7c2b8b.html#a0348efff7140aed75f8364f90b7c2b8b" target="_top" xlink:title="prolog.Init.run_query">
<polygon fill="none" stroke="black" points="790.5,-296.5 790.5,-315.5 895.5,-315.5 895.5,-296.5 790.5,-296.5"/>
<text text-anchor="middle" x="843" y="-303.5" font-family="Helvetica,sans-Serif" font-size="10.00">prolog.Init.run_query</text>
</a>
</g>
</g>
<!-- Node4&#45;&gt;Node5 -->
<g id="edge4" class="edge"><title>Node4&#45;&gt;Node5</title>
<path fill="none" stroke="midnightblue" d="M731.112,-293.679C750.405,-295.823 771.594,-298.177 790.235,-300.248"/>
<polygon fill="midnightblue" stroke="midnightblue" points="731.245,-290.172 720.92,-292.547 730.472,-297.13 731.245,-290.172"/>
</g>
<!-- Node6 -->
<g id="node6" class="node"><title>Node6</title>
<g id="a_node6"><a xlink:href="../../d8/d35/classprolog_1_1Init_a3e8704cf8b2d909fccc79e967dd48171.html#a3e8704cf8b2d909fccc79e967dd48171" target="_top" xlink:title="prolog.Init.standardTop">
<polygon fill="none" stroke="black" points="785,-258.5 785,-277.5 901,-277.5 901,-258.5 785,-258.5"/>
<text text-anchor="middle" x="843" y="-265.5" font-family="Helvetica,sans-Serif" font-size="10.00">prolog.Init.standardTop</text>
</a>
</g>
</g>
<!-- Node4&#45;&gt;Node6 -->
<g id="edge5" class="edge"><title>Node4&#45;&gt;Node6</title>
<path fill="none" stroke="midnightblue" d="M731,-280.333C748.47,-278.392 767.502,-276.278 784.795,-274.356"/>
<polygon fill="midnightblue" stroke="midnightblue" points="730.472,-276.87 720.92,-281.453 731.245,-283.828 730.472,-276.87"/>
</g>
<!-- Node8 -->
<g id="node8" class="node"><title>Node8</title>
<g id="a_node8"><a xlink:href="../../d4/d09/classprolog_1_1io_1_1ClauseReader_a805e9a5ebc401e1099f39af9b3f6fb47.html#a805e9a5ebc401e1099f39af9b3f6fb47" target="_top" xlink:title="prolog.io.ClauseReader.get\lElement">
<polygon fill="none" stroke="black" points="602.5,-228 602.5,-258 737.5,-258 737.5,-228 602.5,-228"/>
<text text-anchor="start" x="610.5" y="-246" font-family="Helvetica,sans-Serif" font-size="10.00">prolog.io.ClauseReader.get</text>
<text text-anchor="middle" x="670" y="-235" font-family="Helvetica,sans-Serif" font-size="10.00">Element</text>
</a>
</g>
</g>
<!-- Node7&#45;&gt;Node8 -->
<g id="edge7" class="edge"><title>Node7&#45;&gt;Node8</title>
<path fill="none" stroke="midnightblue" d="M569.462,-244.527C580.611,-244.356 591.791,-244.185 602.421,-244.022"/>
<polygon fill="midnightblue" stroke="midnightblue" points="569.194,-241.031 559.249,-244.684 569.302,-248.03 569.194,-241.031"/>
</g>
<!-- Node12 -->
<g id="node12" class="node"><title>Node12</title>
<g id="a_node12"><a xlink:href="../../d8/d35/classprolog_1_1Init_a4a827a2cfd90b291c538b46573b83d2f.html#a4a827a2cfd90b291c538b46573b83d2f" target="_top" xlink:title="Asks Prolog a String query and gets back a string Answer of the form &quot;the(&#39;[]&#39;(VarsOfQuery))&quot; contain...">
<polygon fill="none" stroke="black" points="419.5,-160.5 419.5,-179.5 525.5,-179.5 525.5,-160.5 419.5,-160.5"/>
<text text-anchor="middle" x="472.5" y="-167.5" font-family="Helvetica,sans-Serif" font-size="10.00">prolog.Init.askProlog</text>
</a>
</g>
</g>
<!-- Node11&#45;&gt;Node12 -->
<g id="edge12" class="edge"><title>Node11&#45;&gt;Node12</title>
<path fill="none" stroke="midnightblue" d="M322.81,-137.692C355.567,-144.81 396.884,-153.787 427.646,-160.471"/>
<polygon fill="midnightblue" stroke="midnightblue" points="323.455,-134.251 312.939,-135.547 321.968,-141.091 323.455,-134.251"/>
</g>
<!-- Node13 -->
<g id="node13" class="node"><title>Node13</title>
<g id="a_node13"><a xlink:href="../../d4/dcc/classprolog_1_1io_1_1ClauseWriter_af1f1fc520c2c2116f8d3a147eb0acd5f.html#af1f1fc520c2c2116f8d3a147eb0acd5f" target="_top" xlink:title="prolog.io.ClauseWriter.put\lElement">
<polygon fill="none" stroke="black" points="407.5,-111 407.5,-141 537.5,-141 537.5,-111 407.5,-111"/>
<text text-anchor="start" x="415.5" y="-129" font-family="Helvetica,sans-Serif" font-size="10.00">prolog.io.ClauseWriter.put</text>
<text text-anchor="middle" x="472.5" y="-118" font-family="Helvetica,sans-Serif" font-size="10.00">Element</text>
</a>
</g>
</g>
<!-- Node11&#45;&gt;Node13 -->
<g id="edge13" class="edge"><title>Node11&#45;&gt;Node13</title>
<path fill="none" stroke="midnightblue" d="M339.984,-126C361.879,-126 385.854,-126 407.267,-126"/>
<polygon fill="midnightblue" stroke="midnightblue" points="339.757,-122.5 329.757,-126 339.757,-129.5 339.757,-122.5"/>
</g>
<!-- Node14 -->
<g id="node14" class="node"><title>Node14</title>
<g id="a_node14"><a xlink:href="../../d3/ded/classprolog_1_1terms_1_1Term_ad0dfa6b55c89214714125c00533f19db.html#ad0dfa6b55c89214714125c00533f19db" target="_top" xlink:title="prolog.terms.Term.toUnquoted">
<polygon fill="none" stroke="black" points="398,-72.5 398,-91.5 547,-91.5 547,-72.5 398,-72.5"/>
<text text-anchor="middle" x="472.5" y="-79.5" font-family="Helvetica,sans-Serif" font-size="10.00">prolog.terms.Term.toUnquoted</text>
</a>
</g>
</g>
<!-- Node11&#45;&gt;Node14 -->
<g id="edge14" class="edge"><title>Node11&#45;&gt;Node14</title>
<path fill="none" stroke="midnightblue" d="M322.81,-114.308C355.567,-107.19 396.884,-98.2128 427.646,-91.5287"/>
<polygon fill="midnightblue" stroke="midnightblue" points="321.968,-110.909 312.939,-116.453 323.455,-117.749 321.968,-110.909"/>
</g>
<!-- Node20 -->
<g id="node20" class="node"><title>Node20</title>
<g id="a_node20"><a xlink:href="../../df/d94/classprolog_1_1terms_1_1Unfolder_a504653c2b9cc9831c54c277cfb6c051f.html#a504653c2b9cc9831c54c277cfb6c051f" target="_top" xlink:title="Tracer for undefined predicates. ">
<polygon fill="none" stroke="black" points="405,-14 405,-44 540,-44 540,-14 405,-14"/>
<text text-anchor="start" x="413" y="-32" font-family="Helvetica,sans-Serif" font-size="10.00">prolog.terms.Unfolder.trace</text>
<text text-anchor="middle" x="472.5" y="-21" font-family="Helvetica,sans-Serif" font-size="10.00">_nomatch</text>
</a>
</g>
</g>
<!-- Node11&#45;&gt;Node20 -->
<g id="edge20" class="edge"><title>Node11&#45;&gt;Node20</title>
<path fill="none" stroke="midnightblue" d="M294.272,-111.293C317.681,-97.9365 353.655,-78.0779 386,-63 400.334,-56.3181 416.368,-49.7195 430.644,-44.1391"/>
<polygon fill="midnightblue" stroke="midnightblue" points="292.284,-108.399 285.355,-116.414 295.769,-114.469 292.284,-108.399"/>
</g>
<!-- Node15 -->
<g id="node15" class="node"><title>Node15</title>
<g id="a_node15"><a xlink:href="../../d5/db0/classprolog_1_1io_1_1CharReader_afca64ed6560a777f13befdf8081b2f49.html#afca64ed6560a777f13befdf8081b2f49" target="_top" xlink:title="prolog.io.CharReader.Char\lReader">
<polygon fill="none" stroke="black" points="603.5,-126 603.5,-156 736.5,-156 736.5,-126 603.5,-126"/>
<text text-anchor="start" x="611.5" y="-144" font-family="Helvetica,sans-Serif" font-size="10.00">prolog.io.CharReader.Char</text>
<text text-anchor="middle" x="670" y="-133" font-family="Helvetica,sans-Serif" font-size="10.00">Reader</text>
</a>
</g>
</g>
<!-- Node14&#45;&gt;Node15 -->
<g id="edge15" class="edge"><title>Node14&#45;&gt;Node15</title>
<path fill="none" stroke="midnightblue" d="M533.623,-93.9553C542.205,-96.0682 550.873,-98.426 559,-101 575.524,-106.234 578.78,-109.889 595,-116 603.883,-119.347 613.441,-122.732 622.64,-125.885"/>
<polygon fill="midnightblue" stroke="midnightblue" points="534.163,-90.4864 523.625,-91.5892 532.55,-97.2982 534.163,-90.4864"/>
</g>
<!-- Node16 -->
<g id="node16" class="node"><title>Node16</title>
<g id="a_node16"><a xlink:href="../../df/de7/classprolog_1_1fluents_1_1StringSink_a1b2838ec64ad6bc6e77f8e6c46e1bfe2.html#a1b2838ec64ad6bc6e77f8e6c46e1bfe2" target="_top" xlink:title="prolog.fluents.StringSink.put\lElement">
<polygon fill="none" stroke="black" points="600,-77 600,-107 740,-107 740,-77 600,-77"/>
<text text-anchor="start" x="608" y="-95" font-family="Helvetica,sans-Serif" font-size="10.00">prolog.fluents.StringSink.put</text>
<text text-anchor="middle" x="670" y="-84" font-family="Helvetica,sans-Serif" font-size="10.00">Element</text>
</a>
</g>
</g>
<!-- Node14&#45;&gt;Node16 -->
<g id="edge16" class="edge"><title>Node14&#45;&gt;Node16</title>
<path fill="none" stroke="midnightblue" d="M557.385,-86.2908C571.586,-87.0172 586.187,-87.764 599.954,-88.4682"/>
<polygon fill="midnightblue" stroke="midnightblue" points="557.297,-82.7818 547.132,-85.7663 556.94,-89.7727 557.297,-82.7818"/>
</g>
<!-- Node17 -->
<g id="node17" class="node"><title>Node17</title>
<g id="a_node17"><a xlink:href="../../d3/ded/classprolog_1_1terms_1_1Term_ae8200608f033511843ee4eae348103ed.html#ae8200608f033511843ee4eae348103ed" target="_top" xlink:title="prolog.terms.Term.toChars">
<polygon fill="none" stroke="black" points="603,-38.5 603,-57.5 737,-57.5 737,-38.5 603,-38.5"/>
<text text-anchor="middle" x="670" y="-45.5" font-family="Helvetica,sans-Serif" font-size="10.00">prolog.terms.Term.toChars</text>
</a>
</g>
</g>
<!-- Node14&#45;&gt;Node17 -->
<g id="edge17" class="edge"><title>Node14&#45;&gt;Node17</title>
<path fill="none" stroke="midnightblue" d="M538.204,-70.7472C562.848,-66.4612 590.668,-61.6229 614.296,-57.5138"/>
<polygon fill="midnightblue" stroke="midnightblue" points="537.47,-67.3222 528.218,-72.4839 538.669,-74.2186 537.47,-67.3222"/>
</g>
<!-- Node18 -->
<g id="node18" class="node"><title>Node18</title>
<g id="a_node18"><a xlink:href="../../db/d97/classprolog_1_1builtins_1_1name__to__chars_a7e21a55985c27994587765755c2d3744.html#a7e21a55985c27994587765755c2d3744" target="_top" xlink:title="prolog.builtins.name\l_to_chars.exec">
<polygon fill="none" stroke="black" points="791,-55 791,-85 895,-85 895,-55 791,-55"/>
<text text-anchor="start" x="799" y="-73" font-family="Helvetica,sans-Serif" font-size="10.00">prolog.builtins.name</text>
<text text-anchor="middle" x="843" y="-62" font-family="Helvetica,sans-Serif" font-size="10.00">_to_chars.exec</text>
</a>
</g>
</g>
<!-- Node17&#45;&gt;Node18 -->
<g id="edge18" class="edge"><title>Node17&#45;&gt;Node18</title>
<path fill="none" stroke="midnightblue" d="M747.261,-57.8114C762.037,-59.7124 777.186,-61.6613 790.913,-63.4274"/>
<polygon fill="midnightblue" stroke="midnightblue" points="747.478,-54.3105 737.113,-56.5058 746.585,-61.2533 747.478,-54.3105"/>
</g>
<!-- Node19 -->
<g id="node19" class="node"><title>Node19</title>
<g id="a_node19"><a xlink:href="../../d7/df1/classprolog_1_1io_1_1Parser_a2266a192306644bbc8e9bb4b4839708e.html#a2266a192306644bbc8e9bb4b4839708e" target="_top" xlink:title="prolog.io.Parser.getTerm">
<polygon fill="none" stroke="black" points="781,-16.5 781,-35.5 905,-35.5 905,-16.5 781,-16.5"/>
<text text-anchor="middle" x="843" y="-23.5" font-family="Helvetica,sans-Serif" font-size="10.00">prolog.io.Parser.getTerm</text>
</a>
</g>
</g>
<!-- Node17&#45;&gt;Node19 -->
<g id="edge19" class="edge"><title>Node17&#45;&gt;Node19</title>
<path fill="none" stroke="midnightblue" d="M747.328,-38.18C758.541,-36.7374 769.967,-35.2674 780.823,-33.8708"/>
<polygon fill="midnightblue" stroke="midnightblue" points="746.585,-34.7467 737.113,-39.4942 747.478,-41.6895 746.585,-34.7467"/>
</g>
<!-- Node21 -->
<g id="node21" class="node"><title>Node21</title>
<g id="a_node21"><a xlink:href="../../df/d94/classprolog_1_1terms_1_1Unfolder_a82021b31093362b5f28314f871cb3f85.html#a82021b31093362b5f28314f871cb3f85" target="_top" xlink:title="Creates an Unfolder based on goal clause g for resolution step in program p. ">
<polygon fill="none" stroke="black" points="595,-0.5 595,-19.5 745,-19.5 745,-0.5 595,-0.5"/>
<text text-anchor="middle" x="670" y="-7.5" font-family="Helvetica,sans-Serif" font-size="10.00">prolog.terms.Unfolder.Unfolder</text>
</a>
</g>
</g>
<!-- Node20&#45;&gt;Node21 -->
<g id="edge21" class="edge"><title>Node20&#45;&gt;Node21</title>
<path fill="none" stroke="midnightblue" d="M550.267,-21.5393C564.937,-20.1135 580.269,-18.6234 594.856,-17.2058"/>
<polygon fill="midnightblue" stroke="midnightblue" points="549.848,-18.0634 540.233,-22.5144 550.525,-25.0306 549.848,-18.0634"/>
</g>
</g>
</svg>
        <g id="navigator" transform="translate(0 0)" fill="#404254">
                <rect fill="#f2f5e9" fill-opacity="0.5" stroke="#606060" stroke-width=".5" x="0" y="0" width="60" height="60"/>
                <use id="zoomplus" xlink:href="#zoomPlus" x="17" y="9" onmousedown="handleZoom(evt,'in')"/>
                <use id="zoomminus" xlink:href="#zoomMin" x="42" y="9" onmousedown="handleZoom(evt,'out')"/>
                <use id="reset" xlink:href="#resetDef" x="30" y="36" onmousedown="handleReset()"/>
                <g id="arrowUp" xlink:href="#dirArrow" transform="translate(30 24)" onmousedown="handlePan(0,-1)">
                  <use xlink:href="#rim" fill="#404040">
                        <set attributeName="fill" to="#808080" begin="arrowUp.mouseover" end="arrowUp.mouseout"/>
                  </use>
                  <path fill="none" stroke="white" stroke-width="1.5" d="M0,-3.0v7 M-2.5,-0.5L0,-3.0L2.5,-0.5"/>
                </g>
                <g id="arrowRight" xlink:href="#dirArrow" transform="rotate(90) translate(36 -43)" onmousedown="handlePan(1,0)">
                  <use xlink:href="#rim" fill="#404040">
                        <set attributeName="fill" to="#808080" begin="arrowRight.mouseover" end="arrowRight.mouseout"/>
                  </use>
                  <path fill="none" stroke="white" stroke-width="1.5" d="M0,-3.0v7 M-2.5,-0.5L0,-3.0L2.5,-0.5"/>
                </g>
                <g id="arrowDown" xlink:href="#dirArrow" transform="rotate(180) translate(-30 -48)" onmousedown="handlePan(0,1)">
                  <use xlink:href="#rim" fill="#404040">
                        <set attributeName="fill" to="#808080" begin="arrowDown.mouseover" end="arrowDown.mouseout"/>
                  </use>
                  <path fill="none" stroke="white" stroke-width="1.5" d="M0,-3.0v7 M-2.5,-0.5L0,-3.0L2.5,-0.5"/>
                </g>
                <g id="arrowLeft" xlink:href="#dirArrow" transform="rotate(270) translate(-36 17)" onmousedown="handlePan(-1,0)">
                  <use xlink:href="#rim" fill="#404040">
                        <set attributeName="fill" to="#808080" begin="arrowLeft.mouseover" end="arrowLeft.mouseout"/>
                  </use>
                  <path fill="none" stroke="white" stroke-width="1.5" d="M0,-3.0v7 M-2.5,-0.5L0,-3.0L2.5,-0.5"/>
                </g>
        </g>
        <svg viewBox="0 0 15 15" width="100%" height="30px" preserveAspectRatio="xMaxYMin meet">
         <g id="arrow_out" transform="scale(0.3 0.3)">
          <a xlink:href="classprolog_1_1terms_1_1Term_a50d0b69d48782ff4bcf433c70c1472a0_a50d0b69d48782ff4bcf433c70c1472a0_icgraph_org.svg" target="_base">
           <rect id="button" ry="5" rx="5" y="6" x="6" height="38" width="38"
                fill="#f2f5e9" fill-opacity="0.5" stroke="#606060" stroke-width="1.0"/>
           <path id="arrow"
             d="M 11.500037,31.436501 C 11.940474,20.09759 22.043105,11.32322 32.158766,21.979434 L 37.068811,17.246167 C 37.068811,17.246167 37.088388,32 37.088388,32 L 22.160133,31.978069 C 22.160133,31.978069 26.997745,27.140456 26.997745,27.140456 C 18.528582,18.264221 13.291696,25.230495 11.500037,31.436501 z"
             style="fill:#404040;"/>
          </a>
         </g>
        </svg>
</svg>
