<?xml version="1.0" encoding="UTF-8" standalone="no"?>
<!DOCTYPE svg PUBLIC "-//W3C//DTD SVG 1.1//EN"
 "http://www.w3.org/Graphics/SVG/1.1/DTD/svg11.dtd">
<!-- Generated by graphviz version 2.38.0 (20140413.2041)
 -->
<!-- Title: prolog.builtins.at_key Pages: 1 -->
<svg width="133pt" height="1356pt"
 viewBox="0.00 0.00 132.50 1356.00" xmlns="http://www.w3.org/2000/svg" xmlns:xlink="http://www.w3.org/1999/xlink">
<g id="graph0" class="graph" transform="scale(1 1) rotate(0) translate(4 1352)">
<title>prolog.builtins.at_key</title>
<!-- Node1 -->
<g id="node1" class="node"><title>Node1</title>
<polygon fill="#bfbfbf" stroke="black" points="4,-0.5 4,-68.5 113,-68.5 113,-0.5 4,-0.5"/>
<text text-anchor="middle" x="58.5" y="-56.5" font-family="Helvetica,sans-Serif" font-size="10.00">prolog.builtins.at_key</text>
<polyline fill="none" stroke="black" points="4,-49.5 113,-49.5 "/>
<text text-anchor="middle" x="58.5" y="-37.5" font-family="Helvetica,sans-Serif" font-size="10.00"> </text>
<polyline fill="none" stroke="black" points="4,-30.5 113,-30.5 "/>
<text text-anchor="start" x="12" y="-18.5" font-family="Helvetica,sans-Serif" font-size="10.00">+ exec()</text>
<text text-anchor="start" x="12" y="-7.5" font-family="Helvetica,sans-Serif" font-size="10.00">~ at_key()</text>
</g>
<!-- Node2 -->
<g id="node2" class="node"><title>Node2</title>
<g id="a_node2"><a xlink:href="../../d3/df5/classprolog_1_1terms_1_1FunBuiltin.html" target="_top" xlink:title="Template for builtins of arity &gt;0. ">
<polygon fill="none" stroke="black" points="0,-105.5 0,-184.5 117,-184.5 117,-105.5 0,-105.5"/>
<text text-anchor="middle" x="58.5" y="-172.5" font-family="Helvetica,sans-Serif" font-size="10.00">prolog.terms.FunBuiltin</text>
<polyline fill="none" stroke="black" points="0,-165.5 117,-165.5 "/>
<text text-anchor="middle" x="58.5" y="-153.5" font-family="Helvetica,sans-Serif" font-size="10.00"> </text>
<polyline fill="none" stroke="black" points="0,-146.5 117,-146.5 "/>
<text text-anchor="start" x="8" y="-134.5" font-family="Helvetica,sans-Serif" font-size="10.00">+ FunBuiltin()</text>
<text text-anchor="start" x="8" y="-123.5" font-family="Helvetica,sans-Serif" font-size="10.00">+ exec()</text>
<text text-anchor="start" x="8" y="-112.5" font-family="Helvetica,sans-Serif" font-size="10.00">+ isBuiltin()</text>
</a>
</g>
</g>
<!-- Node2&#45;&gt;Node1 -->
<g id="edge1" class="edge"><title>Node2&#45;&gt;Node1</title>
<path fill="none" stroke="midnightblue" d="M58.5,-95.3492C58.5,-86.2824 58.5,-77.0048 58.5,-68.5439"/>
<polygon fill="none" stroke="midnightblue" points="55.0001,-95.4414 58.5,-105.441 62.0001,-95.4415 55.0001,-95.4414"/>
</g>
<!-- Node3 -->
<g id="node3" class="node"><title>Node3</title>
<g id="a_node3"><a xlink:href="../../de/d8d/classprolog_1_1terms_1_1Fun.html" target="_top" xlink:title="Implements compound terms. ">
<polygon fill="none" stroke="black" points="4.5,-221.5 4.5,-487.5 112.5,-487.5 112.5,-221.5 4.5,-221.5"/>
<text text-anchor="middle" x="58.5" y="-475.5" font-family="Helvetica,sans-Serif" font-size="10.00">prolog.terms.Fun</text>
<polyline fill="none" stroke="black" points="4.5,-468.5 112.5,-468.5 "/>
<text text-anchor="start" x="12.5" y="-456.5" font-family="Helvetica,sans-Serif" font-size="10.00">+ args</text>
<polyline fill="none" stroke="black" points="4.5,-449.5 112.5,-449.5 "/>
<text text-anchor="start" x="12.5" y="-437.5" font-family="Helvetica,sans-Serif" font-size="10.00">+ getArity()</text>
<text text-anchor="start" x="12.5" y="-426.5" font-family="Helvetica,sans-Serif" font-size="10.00">+ Fun()</text>
<text text-anchor="start" x="12.5" y="-415.5" font-family="Helvetica,sans-Serif" font-size="10.00">+ Fun()</text>
<text text-anchor="start" x="12.5" y="-404.5" font-family="Helvetica,sans-Serif" font-size="10.00">+ Fun()</text>
<text text-anchor="start" x="12.5" y="-393.5" font-family="Helvetica,sans-Serif" font-size="10.00">+ init()</text>
<text text-anchor="start" x="12.5" y="-382.5" font-family="Helvetica,sans-Serif" font-size="10.00">+ getArg()</text>
<text text-anchor="start" x="12.5" y="-371.5" font-family="Helvetica,sans-Serif" font-size="10.00">+ getIntArg()</text>
<text text-anchor="start" x="12.5" y="-360.5" font-family="Helvetica,sans-Serif" font-size="10.00">+ setArg()</text>
<text text-anchor="start" x="12.5" y="-349.5" font-family="Helvetica,sans-Serif" font-size="10.00">+ putArg()</text>
<text text-anchor="start" x="12.5" y="-338.5" font-family="Helvetica,sans-Serif" font-size="10.00">+ Fun()</text>
<text text-anchor="start" x="12.5" y="-327.5" font-family="Helvetica,sans-Serif" font-size="10.00">and 7 more...</text>
<text text-anchor="start" x="12.5" y="-316.5" font-family="Helvetica,sans-Serif" font-size="10.00">~ bind_to()</text>
<text text-anchor="start" x="12.5" y="-305.5" font-family="Helvetica,sans-Serif" font-size="10.00">~ unify_to()</text>
<text text-anchor="start" x="12.5" y="-294.5" font-family="Helvetica,sans-Serif" font-size="10.00">~ reaction()</text>
<text text-anchor="start" x="12.5" y="-283.5" font-family="Helvetica,sans-Serif" font-size="10.00">~ isClause()</text>
<text text-anchor="start" x="12.5" y="-272.5" font-family="Helvetica,sans-Serif" font-size="10.00"># funToString()</text>
<text text-anchor="start" x="12.5" y="-261.5" font-family="Helvetica,sans-Serif" font-size="10.00"># unInitializedClone()</text>
<text text-anchor="start" x="12.5" y="-250.5" font-family="Helvetica,sans-Serif" font-size="10.00"># initializedClone()</text>
<text text-anchor="start" x="12.5" y="-239.5" font-family="Helvetica,sans-Serif" font-size="10.00"># watchNull()</text>
<text text-anchor="start" x="12.5" y="-228.5" font-family="Helvetica,sans-Serif" font-size="10.00">&#45; show_args()</text>
</a>
</g>
</g>
<!-- Node3&#45;&gt;Node2 -->
<g id="edge2" class="edge"><title>Node3&#45;&gt;Node2</title>
<path fill="none" stroke="midnightblue" d="M58.5,-211.387C58.5,-201.842 58.5,-192.802 58.5,-184.659"/>
<polygon fill="none" stroke="midnightblue" points="55.0001,-211.499 58.5,-221.499 62.0001,-211.499 55.0001,-211.499"/>
</g>
<!-- Node4 -->
<g id="node4" class="node"><title>Node4</title>
<g id="a_node4"><a xlink:href="../../d0/d3f/classprolog_1_1terms_1_1Const.html" target="_top" xlink:title="Symbolic constant, of arity 0. ">
<polygon fill="none" stroke="black" points="8.5,-524.5 8.5,-735.5 108.5,-735.5 108.5,-524.5 8.5,-524.5"/>
<text text-anchor="middle" x="58.5" y="-723.5" font-family="Helvetica,sans-Serif" font-size="10.00">prolog.terms.Const</text>
<polyline fill="none" stroke="black" points="8.5,-716.5 108.5,-716.5 "/>
<text text-anchor="start" x="16.5" y="-704.5" font-family="Helvetica,sans-Serif" font-size="10.00">+ aNil</text>
<text text-anchor="start" x="16.5" y="-693.5" font-family="Helvetica,sans-Serif" font-size="10.00">+ aTrue</text>
<text text-anchor="start" x="16.5" y="-682.5" font-family="Helvetica,sans-Serif" font-size="10.00">+ aFail</text>
<text text-anchor="start" x="16.5" y="-671.5" font-family="Helvetica,sans-Serif" font-size="10.00">+ aYes</text>
<text text-anchor="start" x="16.5" y="-660.5" font-family="Helvetica,sans-Serif" font-size="10.00">+ aNo</text>
<text text-anchor="start" x="16.5" y="-649.5" font-family="Helvetica,sans-Serif" font-size="10.00">+ anEof</text>
<text text-anchor="start" x="16.5" y="-638.5" font-family="Helvetica,sans-Serif" font-size="10.00">&#45; sym</text>
<polyline fill="none" stroke="black" points="8.5,-631.5 108.5,-631.5 "/>
<text text-anchor="start" x="16.5" y="-619.5" font-family="Helvetica,sans-Serif" font-size="10.00">+ Const()</text>
<text text-anchor="start" x="16.5" y="-608.5" font-family="Helvetica,sans-Serif" font-size="10.00">+ name()</text>
<text text-anchor="start" x="16.5" y="-597.5" font-family="Helvetica,sans-Serif" font-size="10.00">+ qname()</text>
<text text-anchor="start" x="16.5" y="-586.5" font-family="Helvetica,sans-Serif" font-size="10.00">+ toString()</text>
<text text-anchor="start" x="16.5" y="-575.5" font-family="Helvetica,sans-Serif" font-size="10.00">+ getKey()</text>
<text text-anchor="start" x="16.5" y="-564.5" font-family="Helvetica,sans-Serif" font-size="10.00">+ getArity()</text>
<text text-anchor="start" x="16.5" y="-553.5" font-family="Helvetica,sans-Serif" font-size="10.00">+ toUnquoted()</text>
<text text-anchor="start" x="16.5" y="-542.5" font-family="Helvetica,sans-Serif" font-size="10.00">+ the()</text>
<text text-anchor="start" x="16.5" y="-531.5" font-family="Helvetica,sans-Serif" font-size="10.00">~ bind_to()</text>
</a>
</g>
</g>
<!-- Node4&#45;&gt;Node3 -->
<g id="edge3" class="edge"><title>Node4&#45;&gt;Node3</title>
<path fill="none" stroke="midnightblue" d="M58.5,-514.177C58.5,-505.385 58.5,-496.47 58.5,-487.581"/>
<polygon fill="none" stroke="midnightblue" points="55.0001,-514.431 58.5,-524.431 62.0001,-514.431 55.0001,-514.431"/>
</g>
<!-- Node5 -->
<g id="node5" class="node"><title>Node5</title>
<g id="a_node5"><a xlink:href="../../d4/de0/classprolog_1_1terms_1_1Nonvar.html" target="_top" xlink:title="Part of the Prolog Term hierarchy. ">
<polygon fill="none" stroke="black" points="6,-772.5 6,-862.5 111,-862.5 111,-772.5 6,-772.5"/>
<text text-anchor="middle" x="58.5" y="-850.5" font-family="Helvetica,sans-Serif" font-size="10.00">prolog.terms.Nonvar</text>
<polyline fill="none" stroke="black" points="6,-843.5 111,-843.5 "/>
<text text-anchor="middle" x="58.5" y="-831.5" font-family="Helvetica,sans-Serif" font-size="10.00"> </text>
<polyline fill="none" stroke="black" points="6,-824.5 111,-824.5 "/>
<text text-anchor="start" x="14" y="-812.5" font-family="Helvetica,sans-Serif" font-size="10.00">+ name()</text>
<text text-anchor="start" x="14" y="-801.5" font-family="Helvetica,sans-Serif" font-size="10.00">~ bind_to()</text>
<text text-anchor="start" x="14" y="-790.5" font-family="Helvetica,sans-Serif" font-size="10.00">~ unify_to()</text>
<text text-anchor="start" x="14" y="-779.5" font-family="Helvetica,sans-Serif" font-size="10.00">~ listify()</text>
</a>
</g>
</g>
<!-- Node5&#45;&gt;Node4 -->
<g id="edge4" class="edge"><title>Node5&#45;&gt;Node4</title>
<path fill="none" stroke="midnightblue" d="M58.5,-761.824C58.5,-753.508 58.5,-744.698 58.5,-735.736"/>
<polygon fill="none" stroke="midnightblue" points="55.0001,-762.068 58.5,-772.068 62.0001,-762.068 55.0001,-762.068"/>
</g>
<!-- Node6 -->
<g id="node6" class="node"><title>Node6</title>
<g id="a_node6"><a xlink:href="../../d3/ded/classprolog_1_1terms_1_1Term.html" target="_top" xlink:title="Top element of the Prolog term hierarchy. ">
<polygon fill="none" stroke="black" points="9.5,-899.5 9.5,-1253.5 107.5,-1253.5 107.5,-899.5 9.5,-899.5"/>
<text text-anchor="middle" x="58.5" y="-1241.5" font-family="Helvetica,sans-Serif" font-size="10.00">prolog.terms.Term</text>
<polyline fill="none" stroke="black" points="9.5,-1234.5 107.5,-1234.5 "/>
<text text-anchor="start" x="17.5" y="-1222.5" font-family="Helvetica,sans-Serif" font-size="10.00">+ JAVA</text>
<text text-anchor="start" x="17.5" y="-1211.5" font-family="Helvetica,sans-Serif" font-size="10.00">+ REAL</text>
<text text-anchor="start" x="17.5" y="-1200.5" font-family="Helvetica,sans-Serif" font-size="10.00">+ INT</text>
<text text-anchor="start" x="17.5" y="-1189.5" font-family="Helvetica,sans-Serif" font-size="10.00">+ VAR</text>
<text text-anchor="start" x="17.5" y="-1178.5" font-family="Helvetica,sans-Serif" font-size="10.00">+ CONST</text>
<polyline fill="none" stroke="black" points="9.5,-1171.5 107.5,-1171.5 "/>
<text text-anchor="start" x="17.5" y="-1159.5" font-family="Helvetica,sans-Serif" font-size="10.00">+ getArity()</text>
<text text-anchor="start" x="17.5" y="-1148.5" font-family="Helvetica,sans-Serif" font-size="10.00">+ ref()</text>
<text text-anchor="start" x="17.5" y="-1137.5" font-family="Helvetica,sans-Serif" font-size="10.00">+ token()</text>
<text text-anchor="start" x="17.5" y="-1126.5" font-family="Helvetica,sans-Serif" font-size="10.00">+ toClause()</text>
<text text-anchor="start" x="17.5" y="-1115.5" font-family="Helvetica,sans-Serif" font-size="10.00">+ matches()</text>
<text text-anchor="start" x="17.5" y="-1104.5" font-family="Helvetica,sans-Serif" font-size="10.00">+ matches()</text>
<text text-anchor="start" x="17.5" y="-1093.5" font-family="Helvetica,sans-Serif" font-size="10.00">+ matching_copy()</text>
<text text-anchor="start" x="17.5" y="-1082.5" font-family="Helvetica,sans-Serif" font-size="10.00">+ copy()</text>
<text text-anchor="start" x="17.5" y="-1071.5" font-family="Helvetica,sans-Serif" font-size="10.00">+ varsOf()</text>
<text text-anchor="start" x="17.5" y="-1060.5" font-family="Helvetica,sans-Serif" font-size="10.00">+ numbervars()</text>
<text text-anchor="start" x="17.5" y="-1049.5" font-family="Helvetica,sans-Serif" font-size="10.00">and 6 more...</text>
<text text-anchor="start" x="17.5" y="-1038.5" font-family="Helvetica,sans-Serif" font-size="10.00">+ fromString()</text>
<text text-anchor="start" x="17.5" y="-1027.5" font-family="Helvetica,sans-Serif" font-size="10.00">+ charsToString()</text>
<text text-anchor="start" x="17.5" y="-1016.5" font-family="Helvetica,sans-Serif" font-size="10.00">~ bind_to()</text>
<text text-anchor="start" x="17.5" y="-1005.5" font-family="Helvetica,sans-Serif" font-size="10.00">~ unify_to()</text>
<text text-anchor="start" x="17.5" y="-994.5" font-family="Helvetica,sans-Serif" font-size="10.00">~ toTerm()</text>
<text text-anchor="start" x="17.5" y="-983.5" font-family="Helvetica,sans-Serif" font-size="10.00">~ isClause()</text>
<text text-anchor="start" x="17.5" y="-972.5" font-family="Helvetica,sans-Serif" font-size="10.00">~ reaction()</text>
<text text-anchor="start" x="17.5" y="-961.5" font-family="Helvetica,sans-Serif" font-size="10.00">~ action()</text>
<text text-anchor="start" x="17.5" y="-950.5" font-family="Helvetica,sans-Serif" font-size="10.00">~ exec()</text>
<text text-anchor="start" x="17.5" y="-939.5" font-family="Helvetica,sans-Serif" font-size="10.00">~ stringToChars()</text>
<text text-anchor="start" x="17.5" y="-928.5" font-family="Helvetica,sans-Serif" font-size="10.00"># unify()</text>
<text text-anchor="start" x="17.5" y="-917.5" font-family="Helvetica,sans-Serif" font-size="10.00"># undo()</text>
<text text-anchor="start" x="17.5" y="-906.5" font-family="Helvetica,sans-Serif" font-size="10.00"># exec()</text>
</a>
</g>
</g>
<!-- Node6&#45;&gt;Node5 -->
<g id="edge5" class="edge"><title>Node6&#45;&gt;Node5</title>
<path fill="none" stroke="midnightblue" d="M58.5,-889.431C58.5,-879.975 58.5,-871.043 58.5,-862.912"/>
<polygon fill="none" stroke="midnightblue" points="55.0001,-889.464 58.5,-899.464 62.0001,-889.464 55.0001,-889.464"/>
</g>
<!-- Node7 -->
<g id="node7" class="node"><title>Node7</title>
<polygon fill="none" stroke="#bfbfbf" points="1,-1290.5 1,-1347.5 46,-1347.5 46,-1290.5 1,-1290.5"/>
<text text-anchor="middle" x="23.5" y="-1335.5" font-family="Helvetica,sans-Serif" font-size="10.00">Object</text>
<polyline fill="none" stroke="#bfbfbf" points="1,-1328.5 46,-1328.5 "/>
<text text-anchor="middle" x="23.5" y="-1316.5" font-family="Helvetica,sans-Serif" font-size="10.00"> </text>
<polyline fill="none" stroke="#bfbfbf" points="1,-1309.5 46,-1309.5 "/>
<text text-anchor="middle" x="23.5" y="-1297.5" font-family="Helvetica,sans-Serif" font-size="10.00"> </text>
</g>
<!-- Node7&#45;&gt;Node6 -->
<g id="edge6" class="edge"><title>Node7&#45;&gt;Node6</title>
<path fill="none" stroke="midnightblue" d="M28.9653,-1280.45C30.1323,-1272.43 31.4379,-1263.46 32.8327,-1253.87"/>
<polygon fill="none" stroke="midnightblue" points="25.4916,-1280.01 27.5149,-1290.41 32.4187,-1281.02 25.4916,-1280.01"/>
</g>
<!-- Node8 -->
<g id="node8" class="node"><title>Node8</title>
<polygon fill="none" stroke="#bfbfbf" points="64.5,-1290.5 64.5,-1347.5 124.5,-1347.5 124.5,-1290.5 64.5,-1290.5"/>
<text text-anchor="middle" x="94.5" y="-1335.5" font-family="Helvetica,sans-Serif" font-size="10.00">Cloneable</text>
<polyline fill="none" stroke="#bfbfbf" points="64.5,-1328.5 124.5,-1328.5 "/>
<text text-anchor="middle" x="94.5" y="-1316.5" font-family="Helvetica,sans-Serif" font-size="10.00"> </text>
<polyline fill="none" stroke="#bfbfbf" points="64.5,-1309.5 124.5,-1309.5 "/>
<text text-anchor="middle" x="94.5" y="-1297.5" font-family="Helvetica,sans-Serif" font-size="10.00"> </text>
</g>
<!-- Node8&#45;&gt;Node6 -->
<g id="edge7" class="edge"><title>Node8&#45;&gt;Node6</title>
<path fill="none" stroke="midnightblue" d="M88.8786,-1280.45C87.6782,-1272.43 86.3353,-1263.46 84.9007,-1253.87"/>
<polygon fill="none" stroke="midnightblue" points="85.4284,-1281.04 90.3703,-1290.41 92.3513,-1280 85.4284,-1281.04"/>
</g>
</g>
</svg>
