<?xml version="1.0" encoding="UTF-8" standalone="no"?>
<!DOCTYPE svg PUBLIC "-//W3C//DTD SVG 1.1//EN"
 "http://www.w3.org/Graphics/SVG/1.1/DTD/svg11.dtd">
<!-- Generated by graphviz version 2.38.0 (20140413.2041)
 -->
<!-- Title: prolog.terms.Num Pages: 1 -->
<svg width="206pt" height="849pt"
 viewBox="0.00 0.00 205.50 849.00" xmlns="http://www.w3.org/2000/svg" xmlns:xlink="http://www.w3.org/1999/xlink">
<g id="graph0" class="graph" transform="scale(1 1) rotate(0) translate(4 845)">
<title>prolog.terms.Num</title>
<!-- Node1 -->
<g id="node1" class="node"><title>Node1</title>
<polygon fill="#bfbfbf" stroke="black" points="49,-160.5 49,-228.5 144,-228.5 144,-160.5 49,-160.5"/>
<text text-anchor="middle" x="96.5" y="-216.5" font-family="Helvetica,sans-Serif" font-size="10.00">prolog.terms.Num</text>
<polyline fill="none" stroke="black" points="49,-209.5 144,-209.5 "/>
<text text-anchor="middle" x="96.5" y="-197.5" font-family="Helvetica,sans-Serif" font-size="10.00"> </text>
<polyline fill="none" stroke="black" points="49,-190.5 144,-190.5 "/>
<text text-anchor="start" x="57" y="-178.5" font-family="Helvetica,sans-Serif" font-size="10.00">+ toString()</text>
<text text-anchor="start" x="57" y="-167.5" font-family="Helvetica,sans-Serif" font-size="10.00">+ getValue()</text>
</g>
<!-- Node6 -->
<g id="node6" class="node"><title>Node6</title>
<g id="a_node6"><a xlink:href="../../d3/db9/classprolog_1_1terms_1_1Int.html" target="_top" xlink:title="{prolog.terms.Int\n|~ val\l|+ Int()\l+ name()\l+ getArity()\l+ longValue()\l+ intValue()\l+ getValue()\l~ bind_to()\l}">
<polygon fill="none" stroke="black" points="0,-0.5 0,-123.5 85,-123.5 85,-0.5 0,-0.5"/>
<text text-anchor="middle" x="42.5" y="-111.5" font-family="Helvetica,sans-Serif" font-size="10.00">prolog.terms.Int</text>
<polyline fill="none" stroke="black" points="0,-104.5 85,-104.5 "/>
<text text-anchor="start" x="8" y="-92.5" font-family="Helvetica,sans-Serif" font-size="10.00">~ val</text>
<polyline fill="none" stroke="black" points="0,-85.5 85,-85.5 "/>
<text text-anchor="start" x="8" y="-73.5" font-family="Helvetica,sans-Serif" font-size="10.00">+ Int()</text>
<text text-anchor="start" x="8" y="-62.5" font-family="Helvetica,sans-Serif" font-size="10.00">+ name()</text>
<text text-anchor="start" x="8" y="-51.5" font-family="Helvetica,sans-Serif" font-size="10.00">+ getArity()</text>
<text text-anchor="start" x="8" y="-40.5" font-family="Helvetica,sans-Serif" font-size="10.00">+ longValue()</text>
<text text-anchor="start" x="8" y="-29.5" font-family="Helvetica,sans-Serif" font-size="10.00">+ intValue()</text>
<text text-anchor="start" x="8" y="-18.5" font-family="Helvetica,sans-Serif" font-size="10.00">+ getValue()</text>
<text text-anchor="start" x="8" y="-7.5" font-family="Helvetica,sans-Serif" font-size="10.00">~ bind_to()</text>
</a>
</g>
</g>
<!-- Node1&#45;&gt;Node6 -->
<g id="edge5" class="edge"><title>Node1&#45;&gt;Node6</title>
<path fill="none" stroke="midnightblue" d="M78.8018,-150.729C75.2108,-142.051 71.3698,-132.769 67.5795,-123.609"/>
<polygon fill="none" stroke="midnightblue" points="75.6762,-152.33 82.7338,-160.232 82.1443,-149.653 75.6762,-152.33"/>
</g>
<!-- Node7 -->
<g id="node7" class="node"><title>Node7</title>
<g id="a_node7"><a xlink:href="../../d0/ded/classprolog_1_1terms_1_1Real.html" target="_top" xlink:title="Part of the Term hierarchy, implementing double float point numbers. ">
<polygon fill="none" stroke="black" points="103.5,-11.5 103.5,-112.5 197.5,-112.5 197.5,-11.5 103.5,-11.5"/>
<text text-anchor="middle" x="150.5" y="-100.5" font-family="Helvetica,sans-Serif" font-size="10.00">prolog.terms.Real</text>
<polyline fill="none" stroke="black" points="103.5,-93.5 197.5,-93.5 "/>
<text text-anchor="start" x="111.5" y="-81.5" font-family="Helvetica,sans-Serif" font-size="10.00">~ val</text>
<polyline fill="none" stroke="black" points="103.5,-74.5 197.5,-74.5 "/>
<text text-anchor="start" x="111.5" y="-62.5" font-family="Helvetica,sans-Serif" font-size="10.00">+ Real()</text>
<text text-anchor="start" x="111.5" y="-51.5" font-family="Helvetica,sans-Serif" font-size="10.00">+ name()</text>
<text text-anchor="start" x="111.5" y="-40.5" font-family="Helvetica,sans-Serif" font-size="10.00">+ getArity()</text>
<text text-anchor="start" x="111.5" y="-29.5" font-family="Helvetica,sans-Serif" font-size="10.00">+ getValue()</text>
<text text-anchor="start" x="111.5" y="-18.5" font-family="Helvetica,sans-Serif" font-size="10.00">~ bind_to()</text>
</a>
</g>
</g>
<!-- Node1&#45;&gt;Node7 -->
<g id="edge6" class="edge"><title>Node1&#45;&gt;Node7</title>
<path fill="none" stroke="midnightblue" d="M114.159,-150.824C119.163,-138.731 124.655,-125.458 129.821,-112.975"/>
<polygon fill="none" stroke="midnightblue" points="110.856,-149.653 110.266,-160.232 117.324,-152.33 110.856,-149.653"/>
</g>
<!-- Node2 -->
<g id="node2" class="node"><title>Node2</title>
<g id="a_node2"><a xlink:href="../../d4/de0/classprolog_1_1terms_1_1Nonvar.html" target="_top" xlink:title="Part of the Prolog Term hierarchy. ">
<polygon fill="none" stroke="black" points="44,-265.5 44,-355.5 149,-355.5 149,-265.5 44,-265.5"/>
<text text-anchor="middle" x="96.5" y="-343.5" font-family="Helvetica,sans-Serif" font-size="10.00">prolog.terms.Nonvar</text>
<polyline fill="none" stroke="black" points="44,-336.5 149,-336.5 "/>
<text text-anchor="middle" x="96.5" y="-324.5" font-family="Helvetica,sans-Serif" font-size="10.00"> </text>
<polyline fill="none" stroke="black" points="44,-317.5 149,-317.5 "/>
<text text-anchor="start" x="52" y="-305.5" font-family="Helvetica,sans-Serif" font-size="10.00">+ name()</text>
<text text-anchor="start" x="52" y="-294.5" font-family="Helvetica,sans-Serif" font-size="10.00">~ bind_to()</text>
<text text-anchor="start" x="52" y="-283.5" font-family="Helvetica,sans-Serif" font-size="10.00">~ unify_to()</text>
<text text-anchor="start" x="52" y="-272.5" font-family="Helvetica,sans-Serif" font-size="10.00">~ listify()</text>
</a>
</g>
</g>
<!-- Node2&#45;&gt;Node1 -->
<g id="edge1" class="edge"><title>Node2&#45;&gt;Node1</title>
<path fill="none" stroke="midnightblue" d="M96.5,-255.316C96.5,-246.285 96.5,-237.159 96.5,-228.848"/>
<polygon fill="none" stroke="midnightblue" points="93.0001,-255.425 96.5,-265.425 100,-255.425 93.0001,-255.425"/>
</g>
<!-- Node3 -->
<g id="node3" class="node"><title>Node3</title>
<g id="a_node3"><a xlink:href="../../d3/ded/classprolog_1_1terms_1_1Term.html" target="_top" xlink:title="Top element of the Prolog term hierarchy. ">
<polygon fill="none" stroke="black" points="47.5,-392.5 47.5,-746.5 145.5,-746.5 145.5,-392.5 47.5,-392.5"/>
<text text-anchor="middle" x="96.5" y="-734.5" font-family="Helvetica,sans-Serif" font-size="10.00">prolog.terms.Term</text>
<polyline fill="none" stroke="black" points="47.5,-727.5 145.5,-727.5 "/>
<text text-anchor="start" x="55.5" y="-715.5" font-family="Helvetica,sans-Serif" font-size="10.00">+ JAVA</text>
<text text-anchor="start" x="55.5" y="-704.5" font-family="Helvetica,sans-Serif" font-size="10.00">+ REAL</text>
<text text-anchor="start" x="55.5" y="-693.5" font-family="Helvetica,sans-Serif" font-size="10.00">+ INT</text>
<text text-anchor="start" x="55.5" y="-682.5" font-family="Helvetica,sans-Serif" font-size="10.00">+ VAR</text>
<text text-anchor="start" x="55.5" y="-671.5" font-family="Helvetica,sans-Serif" font-size="10.00">+ CONST</text>
<polyline fill="none" stroke="black" points="47.5,-664.5 145.5,-664.5 "/>
<text text-anchor="start" x="55.5" y="-652.5" font-family="Helvetica,sans-Serif" font-size="10.00">+ getArity()</text>
<text text-anchor="start" x="55.5" y="-641.5" font-family="Helvetica,sans-Serif" font-size="10.00">+ ref()</text>
<text text-anchor="start" x="55.5" y="-630.5" font-family="Helvetica,sans-Serif" font-size="10.00">+ token()</text>
<text text-anchor="start" x="55.5" y="-619.5" font-family="Helvetica,sans-Serif" font-size="10.00">+ toClause()</text>
<text text-anchor="start" x="55.5" y="-608.5" font-family="Helvetica,sans-Serif" font-size="10.00">+ matches()</text>
<text text-anchor="start" x="55.5" y="-597.5" font-family="Helvetica,sans-Serif" font-size="10.00">+ matches()</text>
<text text-anchor="start" x="55.5" y="-586.5" font-family="Helvetica,sans-Serif" font-size="10.00">+ matching_copy()</text>
<text text-anchor="start" x="55.5" y="-575.5" font-family="Helvetica,sans-Serif" font-size="10.00">+ copy()</text>
<text text-anchor="start" x="55.5" y="-564.5" font-family="Helvetica,sans-Serif" font-size="10.00">+ varsOf()</text>
<text text-anchor="start" x="55.5" y="-553.5" font-family="Helvetica,sans-Serif" font-size="10.00">+ numbervars()</text>
<text text-anchor="start" x="55.5" y="-542.5" font-family="Helvetica,sans-Serif" font-size="10.00">and 6 more...</text>
<text text-anchor="start" x="55.5" y="-531.5" font-family="Helvetica,sans-Serif" font-size="10.00">+ fromString()</text>
<text text-anchor="start" x="55.5" y="-520.5" font-family="Helvetica,sans-Serif" font-size="10.00">+ charsToString()</text>
<text text-anchor="start" x="55.5" y="-509.5" font-family="Helvetica,sans-Serif" font-size="10.00">~ bind_to()</text>
<text text-anchor="start" x="55.5" y="-498.5" font-family="Helvetica,sans-Serif" font-size="10.00">~ unify_to()</text>
<text text-anchor="start" x="55.5" y="-487.5" font-family="Helvetica,sans-Serif" font-size="10.00">~ toTerm()</text>
<text text-anchor="start" x="55.5" y="-476.5" font-family="Helvetica,sans-Serif" font-size="10.00">~ isClause()</text>
<text text-anchor="start" x="55.5" y="-465.5" font-family="Helvetica,sans-Serif" font-size="10.00">~ reaction()</text>
<text text-anchor="start" x="55.5" y="-454.5" font-family="Helvetica,sans-Serif" font-size="10.00">~ action()</text>
<text text-anchor="start" x="55.5" y="-443.5" font-family="Helvetica,sans-Serif" font-size="10.00">~ exec()</text>
<text text-anchor="start" x="55.5" y="-432.5" font-family="Helvetica,sans-Serif" font-size="10.00">~ stringToChars()</text>
<text text-anchor="start" x="55.5" y="-421.5" font-family="Helvetica,sans-Serif" font-size="10.00"># unify()</text>
<text text-anchor="start" x="55.5" y="-410.5" font-family="Helvetica,sans-Serif" font-size="10.00"># undo()</text>
<text text-anchor="start" x="55.5" y="-399.5" font-family="Helvetica,sans-Serif" font-size="10.00"># exec()</text>
</a>
</g>
</g>
<!-- Node3&#45;&gt;Node2 -->
<g id="edge2" class="edge"><title>Node3&#45;&gt;Node2</title>
<path fill="none" stroke="midnightblue" d="M96.5,-382.431C96.5,-372.975 96.5,-364.043 96.5,-355.912"/>
<polygon fill="none" stroke="midnightblue" points="93.0001,-382.464 96.5,-392.464 100,-382.464 93.0001,-382.464"/>
</g>
<!-- Node4 -->
<g id="node4" class="node"><title>Node4</title>
<polygon fill="none" stroke="#bfbfbf" points="39,-783.5 39,-840.5 84,-840.5 84,-783.5 39,-783.5"/>
<text text-anchor="middle" x="61.5" y="-828.5" font-family="Helvetica,sans-Serif" font-size="10.00">Object</text>
<polyline fill="none" stroke="#bfbfbf" points="39,-821.5 84,-821.5 "/>
<text text-anchor="middle" x="61.5" y="-809.5" font-family="Helvetica,sans-Serif" font-size="10.00"> </text>
<polyline fill="none" stroke="#bfbfbf" points="39,-802.5 84,-802.5 "/>
<text text-anchor="middle" x="61.5" y="-790.5" font-family="Helvetica,sans-Serif" font-size="10.00"> </text>
</g>
<!-- Node4&#45;&gt;Node3 -->
<g id="edge3" class="edge"><title>Node4&#45;&gt;Node3</title>
<path fill="none" stroke="midnightblue" d="M66.9653,-773.446C68.1323,-765.426 69.4379,-756.455 70.8327,-746.871"/>
<polygon fill="none" stroke="midnightblue" points="63.4916,-773.012 65.5149,-783.412 70.4187,-774.02 63.4916,-773.012"/>
</g>
<!-- Node5 -->
<g id="node5" class="node"><title>Node5</title>
<polygon fill="none" stroke="#bfbfbf" points="102.5,-783.5 102.5,-840.5 162.5,-840.5 162.5,-783.5 102.5,-783.5"/>
<text text-anchor="middle" x="132.5" y="-828.5" font-family="Helvetica,sans-Serif" font-size="10.00">Cloneable</text>
<polyline fill="none" stroke="#bfbfbf" points="102.5,-821.5 162.5,-821.5 "/>
<text text-anchor="middle" x="132.5" y="-809.5" font-family="Helvetica,sans-Serif" font-size="10.00"> </text>
<polyline fill="none" stroke="#bfbfbf" points="102.5,-802.5 162.5,-802.5 "/>
<text text-anchor="middle" x="132.5" y="-790.5" font-family="Helvetica,sans-Serif" font-size="10.00"> </text>
</g>
<!-- Node5&#45;&gt;Node3 -->
<g id="edge4" class="edge"><title>Node5&#45;&gt;Node3</title>
<path fill="none" stroke="midnightblue" d="M126.879,-773.446C125.678,-765.426 124.335,-756.455 122.901,-746.871"/>
<polygon fill="none" stroke="midnightblue" points="123.428,-774.04 128.37,-783.412 130.351,-773.004 123.428,-774.04"/>
</g>
</g>
</svg>
