<?xml version="1.0" encoding="UTF-8" standalone="no"?>
<!DOCTYPE svg PUBLIC "-//W3C//DTD SVG 1.1//EN"
 "http://www.w3.org/Graphics/SVG/1.1/DTD/svg11.dtd">
<!-- Generated by graphviz version 2.38.0 (20140413.2041)
 -->
<!-- Title: prolog.terms.Sink Pages: 1 -->
<svg width="416pt" height="1252pt"
 viewBox="0.00 0.00 416.00 1252.00" xmlns="http://www.w3.org/2000/svg" xmlns:xlink="http://www.w3.org/1999/xlink">
<g id="graph0" class="graph" transform="scale(1 1) rotate(0) translate(4 1248)">
<title>prolog.terms.Sink</title>
<!-- Node1 -->
<g id="node1" class="node"><title>Node1</title>
<polygon fill="#bfbfbf" stroke="black" points="165,-254.5 165,-333.5 258,-333.5 258,-254.5 165,-254.5"/>
<text text-anchor="middle" x="211.5" y="-321.5" font-family="Helvetica,sans-Serif" font-size="10.00">prolog.terms.Sink</text>
<polyline fill="none" stroke="black" points="165,-314.5 258,-314.5 "/>
<text text-anchor="middle" x="211.5" y="-302.5" font-family="Helvetica,sans-Serif" font-size="10.00"> </text>
<polyline fill="none" stroke="black" points="165,-295.5 258,-295.5 "/>
<text text-anchor="start" x="173" y="-283.5" font-family="Helvetica,sans-Serif" font-size="10.00">+ Sink()</text>
<text text-anchor="start" x="173" y="-272.5" font-family="Helvetica,sans-Serif" font-size="10.00">+ putElement()</text>
<text text-anchor="start" x="173" y="-261.5" font-family="Helvetica,sans-Serif" font-size="10.00">+ collect()</text>
</g>
<!-- Node8 -->
<g id="node8" class="node"><title>Node8</title>
<g id="a_node8"><a xlink:href="../../df/de7/classprolog_1_1fluents_1_1StringSink.html" target="_top" xlink:title="Builds Fluents from Java Streams. ">
<polygon fill="none" stroke="black" points="0,-122 0,-212 123,-212 123,-122 0,-122"/>
<text text-anchor="middle" x="61.5" y="-200" font-family="Helvetica,sans-Serif" font-size="10.00">prolog.fluents.StringSink</text>
<polyline fill="none" stroke="black" points="0,-193 123,-193 "/>
<text text-anchor="start" x="8" y="-181" font-family="Helvetica,sans-Serif" font-size="10.00"># buffer</text>
<polyline fill="none" stroke="black" points="0,-174 123,-174 "/>
<text text-anchor="start" x="8" y="-162" font-family="Helvetica,sans-Serif" font-size="10.00">+ StringSink()</text>
<text text-anchor="start" x="8" y="-151" font-family="Helvetica,sans-Serif" font-size="10.00">+ putElement()</text>
<text text-anchor="start" x="8" y="-140" font-family="Helvetica,sans-Serif" font-size="10.00">+ stop()</text>
<text text-anchor="start" x="8" y="-129" font-family="Helvetica,sans-Serif" font-size="10.00">+ collect()</text>
</a>
</g>
</g>
<!-- Node1&#45;&gt;Node8 -->
<g id="edge7" class="edge"><title>Node1&#45;&gt;Node8</title>
<path fill="none" stroke="midnightblue" d="M157.587,-248.072C143.531,-236.359 128.399,-223.75 114.397,-212.081"/>
<polygon fill="none" stroke="midnightblue" points="155.348,-250.763 165.271,-254.476 159.83,-245.385 155.348,-250.763"/>
</g>
<!-- Node9 -->
<g id="node9" class="node"><title>Node9</title>
<g id="a_node9"><a xlink:href="../../dd/d70/classprolog_1_1fluents_1_1TermCollector.html" target="_top" xlink:title="Builds Fluents from Java Streams. ">
<polygon fill="none" stroke="black" points="141.5,-116.5 141.5,-217.5 281.5,-217.5 281.5,-116.5 141.5,-116.5"/>
<text text-anchor="middle" x="211.5" y="-205.5" font-family="Helvetica,sans-Serif" font-size="10.00">prolog.fluents.TermCollector</text>
<polyline fill="none" stroke="black" points="141.5,-198.5 281.5,-198.5 "/>
<text text-anchor="start" x="149.5" y="-186.5" font-family="Helvetica,sans-Serif" font-size="10.00"># buffer</text>
<text text-anchor="start" x="149.5" y="-175.5" font-family="Helvetica,sans-Serif" font-size="10.00">&#45; p</text>
<polyline fill="none" stroke="black" points="141.5,-168.5 281.5,-168.5 "/>
<text text-anchor="start" x="149.5" y="-156.5" font-family="Helvetica,sans-Serif" font-size="10.00">+ TermCollector()</text>
<text text-anchor="start" x="149.5" y="-145.5" font-family="Helvetica,sans-Serif" font-size="10.00">+ putElement()</text>
<text text-anchor="start" x="149.5" y="-134.5" font-family="Helvetica,sans-Serif" font-size="10.00">+ stop()</text>
<text text-anchor="start" x="149.5" y="-123.5" font-family="Helvetica,sans-Serif" font-size="10.00">+ collect()</text>
</a>
</g>
</g>
<!-- Node1&#45;&gt;Node9 -->
<g id="edge8" class="edge"><title>Node1&#45;&gt;Node9</title>
<path fill="none" stroke="midnightblue" d="M211.5,-244.406C211.5,-235.639 211.5,-226.488 211.5,-217.691"/>
<polygon fill="none" stroke="midnightblue" points="208,-244.476 211.5,-254.476 215,-244.476 208,-244.476"/>
</g>
<!-- Node10 -->
<g id="node10" class="node"><title>Node10</title>
<g id="a_node10"><a xlink:href="../../db/de8/classprolog_1_1io_1_1CharWriter.html" target="_top" xlink:title="Writer. ">
<polygon fill="none" stroke="black" points="299.5,-122 299.5,-212 403.5,-212 403.5,-122 299.5,-122"/>
<text text-anchor="middle" x="351.5" y="-200" font-family="Helvetica,sans-Serif" font-size="10.00">prolog.io.CharWriter</text>
<polyline fill="none" stroke="black" points="299.5,-193 403.5,-193 "/>
<text text-anchor="start" x="307.5" y="-181" font-family="Helvetica,sans-Serif" font-size="10.00"># writer</text>
<polyline fill="none" stroke="black" points="299.5,-174 403.5,-174 "/>
<text text-anchor="start" x="307.5" y="-162" font-family="Helvetica,sans-Serif" font-size="10.00">+ CharWriter()</text>
<text text-anchor="start" x="307.5" y="-151" font-family="Helvetica,sans-Serif" font-size="10.00">+ CharWriter()</text>
<text text-anchor="start" x="307.5" y="-140" font-family="Helvetica,sans-Serif" font-size="10.00">+ putElement()</text>
<text text-anchor="start" x="307.5" y="-129" font-family="Helvetica,sans-Serif" font-size="10.00">+ stop()</text>
</a>
</g>
</g>
<!-- Node1&#45;&gt;Node10 -->
<g id="edge9" class="edge"><title>Node1&#45;&gt;Node10</title>
<path fill="none" stroke="midnightblue" d="M262.143,-247.783C275.087,-236.226 288.989,-223.813 301.881,-212.303"/>
<polygon fill="none" stroke="midnightblue" points="259.775,-245.205 254.647,-254.476 264.437,-250.427 259.775,-245.205"/>
</g>
<!-- Node2 -->
<g id="node2" class="node"><title>Node2</title>
<g id="a_node2"><a xlink:href="../../d9/d3b/classprolog_1_1terms_1_1Fluent.html" target="_top" xlink:title="A Fluent is a Prolog Object which has its own state, subject to changes over time. ">
<polygon fill="none" stroke="black" points="161,-370.5 161,-482.5 262,-482.5 262,-370.5 161,-370.5"/>
<text text-anchor="middle" x="211.5" y="-470.5" font-family="Helvetica,sans-Serif" font-size="10.00">prolog.terms.Fluent</text>
<polyline fill="none" stroke="black" points="161,-463.5 262,-463.5 "/>
<text text-anchor="start" x="169" y="-451.5" font-family="Helvetica,sans-Serif" font-size="10.00">&#45; persistent</text>
<polyline fill="none" stroke="black" points="161,-444.5 262,-444.5 "/>
<text text-anchor="start" x="169" y="-432.5" font-family="Helvetica,sans-Serif" font-size="10.00">+ Fluent()</text>
<text text-anchor="start" x="169" y="-421.5" font-family="Helvetica,sans-Serif" font-size="10.00">+ setPersistent()</text>
<text text-anchor="start" x="169" y="-410.5" font-family="Helvetica,sans-Serif" font-size="10.00">+ getPersistent()</text>
<text text-anchor="start" x="169" y="-399.5" font-family="Helvetica,sans-Serif" font-size="10.00">+ stop()</text>
<text text-anchor="start" x="169" y="-388.5" font-family="Helvetica,sans-Serif" font-size="10.00"># trailMe()</text>
<text text-anchor="start" x="169" y="-377.5" font-family="Helvetica,sans-Serif" font-size="10.00"># undo()</text>
</a>
</g>
</g>
<!-- Node2&#45;&gt;Node1 -->
<g id="edge1" class="edge"><title>Node2&#45;&gt;Node1</title>
<path fill="none" stroke="midnightblue" d="M211.5,-360.056C211.5,-351.081 211.5,-342.11 211.5,-333.823"/>
<polygon fill="none" stroke="midnightblue" points="208,-360.156 211.5,-370.156 215,-360.156 208,-360.156"/>
</g>
<!-- Node3 -->
<g id="node3" class="node"><title>Node3</title>
<g id="a_node3"><a xlink:href="../../d6/dc1/classprolog_1_1terms_1_1SystemObject.html" target="_top" xlink:title="A SystemObject is a Nonvar with system assigned name. ">
<polygon fill="none" stroke="black" points="143.5,-519.5 143.5,-631.5 279.5,-631.5 279.5,-519.5 143.5,-519.5"/>
<text text-anchor="middle" x="211.5" y="-619.5" font-family="Helvetica,sans-Serif" font-size="10.00">prolog.terms.SystemObject</text>
<polyline fill="none" stroke="black" points="143.5,-612.5 279.5,-612.5 "/>
<text text-anchor="start" x="151.5" y="-600.5" font-family="Helvetica,sans-Serif" font-size="10.00">~ ctr</text>
<text text-anchor="start" x="151.5" y="-589.5" font-family="Helvetica,sans-Serif" font-size="10.00">&#45; ordinal</text>
<polyline fill="none" stroke="black" points="143.5,-582.5 279.5,-582.5 "/>
<text text-anchor="start" x="151.5" y="-570.5" font-family="Helvetica,sans-Serif" font-size="10.00">+ SystemObject()</text>
<text text-anchor="start" x="151.5" y="-559.5" font-family="Helvetica,sans-Serif" font-size="10.00">+ name()</text>
<text text-anchor="start" x="151.5" y="-548.5" font-family="Helvetica,sans-Serif" font-size="10.00">+ toString()</text>
<text text-anchor="start" x="151.5" y="-537.5" font-family="Helvetica,sans-Serif" font-size="10.00">+ getArity()</text>
<text text-anchor="start" x="151.5" y="-526.5" font-family="Helvetica,sans-Serif" font-size="10.00">~ bind_to()</text>
</a>
</g>
</g>
<!-- Node3&#45;&gt;Node2 -->
<g id="edge2" class="edge"><title>Node3&#45;&gt;Node2</title>
<path fill="none" stroke="midnightblue" d="M211.5,-509.176C211.5,-500.427 211.5,-491.522 211.5,-482.965"/>
<polygon fill="none" stroke="midnightblue" points="208,-509.344 211.5,-519.344 215,-509.344 208,-509.344"/>
</g>
<!-- Node4 -->
<g id="node4" class="node"><title>Node4</title>
<g id="a_node4"><a xlink:href="../../d4/de0/classprolog_1_1terms_1_1Nonvar.html" target="_top" xlink:title="Part of the Prolog Term hierarchy. ">
<polygon fill="none" stroke="black" points="159,-668.5 159,-758.5 264,-758.5 264,-668.5 159,-668.5"/>
<text text-anchor="middle" x="211.5" y="-746.5" font-family="Helvetica,sans-Serif" font-size="10.00">prolog.terms.Nonvar</text>
<polyline fill="none" stroke="black" points="159,-739.5 264,-739.5 "/>
<text text-anchor="middle" x="211.5" y="-727.5" font-family="Helvetica,sans-Serif" font-size="10.00"> </text>
<polyline fill="none" stroke="black" points="159,-720.5 264,-720.5 "/>
<text text-anchor="start" x="167" y="-708.5" font-family="Helvetica,sans-Serif" font-size="10.00">+ name()</text>
<text text-anchor="start" x="167" y="-697.5" font-family="Helvetica,sans-Serif" font-size="10.00">~ bind_to()</text>
<text text-anchor="start" x="167" y="-686.5" font-family="Helvetica,sans-Serif" font-size="10.00">~ unify_to()</text>
<text text-anchor="start" x="167" y="-675.5" font-family="Helvetica,sans-Serif" font-size="10.00">~ listify()</text>
</a>
</g>
</g>
<!-- Node4&#45;&gt;Node3 -->
<g id="edge3" class="edge"><title>Node4&#45;&gt;Node3</title>
<path fill="none" stroke="midnightblue" d="M211.5,-658.312C211.5,-649.611 211.5,-640.595 211.5,-631.867"/>
<polygon fill="none" stroke="midnightblue" points="208,-658.345 211.5,-668.345 215,-658.345 208,-658.345"/>
</g>
<!-- Node5 -->
<g id="node5" class="node"><title>Node5</title>
<g id="a_node5"><a xlink:href="../../d3/ded/classprolog_1_1terms_1_1Term.html" target="_top" xlink:title="Top element of the Prolog term hierarchy. ">
<polygon fill="none" stroke="black" points="162.5,-795.5 162.5,-1149.5 260.5,-1149.5 260.5,-795.5 162.5,-795.5"/>
<text text-anchor="middle" x="211.5" y="-1137.5" font-family="Helvetica,sans-Serif" font-size="10.00">prolog.terms.Term</text>
<polyline fill="none" stroke="black" points="162.5,-1130.5 260.5,-1130.5 "/>
<text text-anchor="start" x="170.5" y="-1118.5" font-family="Helvetica,sans-Serif" font-size="10.00">+ JAVA</text>
<text text-anchor="start" x="170.5" y="-1107.5" font-family="Helvetica,sans-Serif" font-size="10.00">+ REAL</text>
<text text-anchor="start" x="170.5" y="-1096.5" font-family="Helvetica,sans-Serif" font-size="10.00">+ INT</text>
<text text-anchor="start" x="170.5" y="-1085.5" font-family="Helvetica,sans-Serif" font-size="10.00">+ VAR</text>
<text text-anchor="start" x="170.5" y="-1074.5" font-family="Helvetica,sans-Serif" font-size="10.00">+ CONST</text>
<polyline fill="none" stroke="black" points="162.5,-1067.5 260.5,-1067.5 "/>
<text text-anchor="start" x="170.5" y="-1055.5" font-family="Helvetica,sans-Serif" font-size="10.00">+ getArity()</text>
<text text-anchor="start" x="170.5" y="-1044.5" font-family="Helvetica,sans-Serif" font-size="10.00">+ ref()</text>
<text text-anchor="start" x="170.5" y="-1033.5" font-family="Helvetica,sans-Serif" font-size="10.00">+ token()</text>
<text text-anchor="start" x="170.5" y="-1022.5" font-family="Helvetica,sans-Serif" font-size="10.00">+ toClause()</text>
<text text-anchor="start" x="170.5" y="-1011.5" font-family="Helvetica,sans-Serif" font-size="10.00">+ matches()</text>
<text text-anchor="start" x="170.5" y="-1000.5" font-family="Helvetica,sans-Serif" font-size="10.00">+ matches()</text>
<text text-anchor="start" x="170.5" y="-989.5" font-family="Helvetica,sans-Serif" font-size="10.00">+ matching_copy()</text>
<text text-anchor="start" x="170.5" y="-978.5" font-family="Helvetica,sans-Serif" font-size="10.00">+ copy()</text>
<text text-anchor="start" x="170.5" y="-967.5" font-family="Helvetica,sans-Serif" font-size="10.00">+ varsOf()</text>
<text text-anchor="start" x="170.5" y="-956.5" font-family="Helvetica,sans-Serif" font-size="10.00">+ numbervars()</text>
<text text-anchor="start" x="170.5" y="-945.5" font-family="Helvetica,sans-Serif" font-size="10.00">and 6 more...</text>
<text text-anchor="start" x="170.5" y="-934.5" font-family="Helvetica,sans-Serif" font-size="10.00">+ fromString()</text>
<text text-anchor="start" x="170.5" y="-923.5" font-family="Helvetica,sans-Serif" font-size="10.00">+ charsToString()</text>
<text text-anchor="start" x="170.5" y="-912.5" font-family="Helvetica,sans-Serif" font-size="10.00">~ bind_to()</text>
<text text-anchor="start" x="170.5" y="-901.5" font-family="Helvetica,sans-Serif" font-size="10.00">~ unify_to()</text>
<text text-anchor="start" x="170.5" y="-890.5" font-family="Helvetica,sans-Serif" font-size="10.00">~ toTerm()</text>
<text text-anchor="start" x="170.5" y="-879.5" font-family="Helvetica,sans-Serif" font-size="10.00">~ isClause()</text>
<text text-anchor="start" x="170.5" y="-868.5" font-family="Helvetica,sans-Serif" font-size="10.00">~ reaction()</text>
<text text-anchor="start" x="170.5" y="-857.5" font-family="Helvetica,sans-Serif" font-size="10.00">~ action()</text>
<text text-anchor="start" x="170.5" y="-846.5" font-family="Helvetica,sans-Serif" font-size="10.00">~ exec()</text>
<text text-anchor="start" x="170.5" y="-835.5" font-family="Helvetica,sans-Serif" font-size="10.00">~ stringToChars()</text>
<text text-anchor="start" x="170.5" y="-824.5" font-family="Helvetica,sans-Serif" font-size="10.00"># unify()</text>
<text text-anchor="start" x="170.5" y="-813.5" font-family="Helvetica,sans-Serif" font-size="10.00"># undo()</text>
<text text-anchor="start" x="170.5" y="-802.5" font-family="Helvetica,sans-Serif" font-size="10.00"># exec()</text>
</a>
</g>
</g>
<!-- Node5&#45;&gt;Node4 -->
<g id="edge4" class="edge"><title>Node5&#45;&gt;Node4</title>
<path fill="none" stroke="midnightblue" d="M211.5,-785.431C211.5,-775.975 211.5,-767.043 211.5,-758.912"/>
<polygon fill="none" stroke="midnightblue" points="208,-785.464 211.5,-795.464 215,-785.464 208,-785.464"/>
</g>
<!-- Node6 -->
<g id="node6" class="node"><title>Node6</title>
<polygon fill="none" stroke="#bfbfbf" points="154,-1186.5 154,-1243.5 199,-1243.5 199,-1186.5 154,-1186.5"/>
<text text-anchor="middle" x="176.5" y="-1231.5" font-family="Helvetica,sans-Serif" font-size="10.00">Object</text>
<polyline fill="none" stroke="#bfbfbf" points="154,-1224.5 199,-1224.5 "/>
<text text-anchor="middle" x="176.5" y="-1212.5" font-family="Helvetica,sans-Serif" font-size="10.00"> </text>
<polyline fill="none" stroke="#bfbfbf" points="154,-1205.5 199,-1205.5 "/>
<text text-anchor="middle" x="176.5" y="-1193.5" font-family="Helvetica,sans-Serif" font-size="10.00"> </text>
</g>
<!-- Node6&#45;&gt;Node5 -->
<g id="edge5" class="edge"><title>Node6&#45;&gt;Node5</title>
<path fill="none" stroke="midnightblue" d="M181.965,-1176.45C183.132,-1168.43 184.438,-1159.46 185.833,-1149.87"/>
<polygon fill="none" stroke="midnightblue" points="178.492,-1176.01 180.515,-1186.41 185.419,-1177.02 178.492,-1176.01"/>
</g>
<!-- Node7 -->
<g id="node7" class="node"><title>Node7</title>
<polygon fill="none" stroke="#bfbfbf" points="217.5,-1186.5 217.5,-1243.5 277.5,-1243.5 277.5,-1186.5 217.5,-1186.5"/>
<text text-anchor="middle" x="247.5" y="-1231.5" font-family="Helvetica,sans-Serif" font-size="10.00">Cloneable</text>
<polyline fill="none" stroke="#bfbfbf" points="217.5,-1224.5 277.5,-1224.5 "/>
<text text-anchor="middle" x="247.5" y="-1212.5" font-family="Helvetica,sans-Serif" font-size="10.00"> </text>
<polyline fill="none" stroke="#bfbfbf" points="217.5,-1205.5 277.5,-1205.5 "/>
<text text-anchor="middle" x="247.5" y="-1193.5" font-family="Helvetica,sans-Serif" font-size="10.00"> </text>
</g>
<!-- Node7&#45;&gt;Node5 -->
<g id="edge6" class="edge"><title>Node7&#45;&gt;Node5</title>
<path fill="none" stroke="midnightblue" d="M241.879,-1176.45C240.678,-1168.43 239.335,-1159.46 237.901,-1149.87"/>
<polygon fill="none" stroke="midnightblue" points="238.428,-1177.04 243.37,-1186.41 245.351,-1176 238.428,-1177.04"/>
</g>
<!-- Node11 -->
<g id="node11" class="node"><title>Node11</title>
<g id="a_node11"><a xlink:href="../../d4/dcc/classprolog_1_1io_1_1ClauseWriter.html" target="_top" xlink:title="Writer. ">
<polygon fill="none" stroke="black" points="295,-0.5 295,-79.5 408,-79.5 408,-0.5 295,-0.5"/>
<text text-anchor="middle" x="351.5" y="-67.5" font-family="Helvetica,sans-Serif" font-size="10.00">prolog.io.ClauseWriter</text>
<polyline fill="none" stroke="black" points="295,-60.5 408,-60.5 "/>
<text text-anchor="middle" x="351.5" y="-48.5" font-family="Helvetica,sans-Serif" font-size="10.00"> </text>
<polyline fill="none" stroke="black" points="295,-41.5 408,-41.5 "/>
<text text-anchor="start" x="303" y="-29.5" font-family="Helvetica,sans-Serif" font-size="10.00">+ ClauseWriter()</text>
<text text-anchor="start" x="303" y="-18.5" font-family="Helvetica,sans-Serif" font-size="10.00">+ ClauseWriter()</text>
<text text-anchor="start" x="303" y="-7.5" font-family="Helvetica,sans-Serif" font-size="10.00">+ putElement()</text>
</a>
</g>
</g>
<!-- Node10&#45;&gt;Node11 -->
<g id="edge10" class="edge"><title>Node10&#45;&gt;Node11</title>
<path fill="none" stroke="midnightblue" d="M351.5,-111.732C351.5,-100.945 351.5,-89.8243 351.5,-79.6867"/>
<polygon fill="none" stroke="midnightblue" points="348,-111.93 351.5,-121.93 355,-111.93 348,-111.93"/>
</g>
</g>
</svg>
