<?xml version="1.0" encoding="UTF-8" standalone="no"?>
<!DOCTYPE svg PUBLIC "-//W3C//DTD SVG 1.1//EN"
 "http://www.w3.org/Graphics/SVG/1.1/DTD/svg11.dtd">
<!-- Generated by graphviz version 2.38.0 (20140413.2041)
 -->
<!-- Title: prolog.builtins.is_builtin.exec Pages: 1 -->
<svg width="411pt" height="66pt"
 viewBox="0.00 0.00 411.00 66.00" xmlns="http://www.w3.org/2000/svg" xmlns:xlink="http://www.w3.org/1999/xlink">
<g id="graph0" class="graph" transform="scale(1 1) rotate(0) translate(4 62)">
<title>prolog.builtins.is_builtin.exec</title>
<!-- Node1 -->
<g id="node1" class="node"><title>Node1</title>
<polygon fill="#bfbfbf" stroke="black" points="0,-14 0,-44 87,-44 87,-14 0,-14"/>
<text text-anchor="start" x="8" y="-32" font-family="Helvetica,sans-Serif" font-size="10.00">prolog.builtins.is</text>
<text text-anchor="middle" x="43.5" y="-21" font-family="Helvetica,sans-Serif" font-size="10.00">_builtin.exec</text>
</g>
<!-- Node2 -->
<g id="node2" class="node"><title>Node2</title>
<g id="a_node2"><a xlink:href="../../de/d8d/classprolog_1_1terms_1_1Fun_a95f487cd7555adbc0ae1a08076a0404d.html#a95f487cd7555adbc0ae1a08076a0404d" target="_top" xlink:title="prolog.terms.Fun.getArg">
<polygon fill="none" stroke="black" points="129,-38.5 129,-57.5 251,-57.5 251,-38.5 129,-38.5"/>
<text text-anchor="middle" x="190" y="-45.5" font-family="Helvetica,sans-Serif" font-size="10.00">prolog.terms.Fun.getArg</text>
</a>
</g>
</g>
<!-- Node1&#45;&gt;Node2 -->
<g id="edge1" class="edge"><title>Node1&#45;&gt;Node2</title>
<path fill="none" stroke="midnightblue" d="M87.0732,-34.5979C97.0801,-35.9136 108.006,-37.3503 118.869,-38.7786"/>
<polygon fill="midnightblue" stroke="midnightblue" points="118.427,-42.2506 128.798,-40.0842 119.34,-35.3103 118.427,-42.2506"/>
</g>
<!-- Node4 -->
<g id="node4" class="node"><title>Node4</title>
<g id="a_node4"><a xlink:href="../../d3/ded/classprolog_1_1terms_1_1Term_abdf14a847c1c7b0ef64008c9863d300a.html#abdf14a847c1c7b0ef64008c9863d300a" target="_top" xlink:title="prolog.terms.Term.isBuiltin">
<polygon fill="none" stroke="black" points="123,-0.5 123,-19.5 257,-19.5 257,-0.5 123,-0.5"/>
<text text-anchor="middle" x="190" y="-7.5" font-family="Helvetica,sans-Serif" font-size="10.00">prolog.terms.Term.isBuiltin</text>
</a>
</g>
</g>
<!-- Node1&#45;&gt;Node4 -->
<g id="edge3" class="edge"><title>Node1&#45;&gt;Node4</title>
<path fill="none" stroke="midnightblue" d="M87.0732,-23.4021C95.2389,-22.3285 104.017,-21.1743 112.872,-20.0099"/>
<polygon fill="midnightblue" stroke="midnightblue" points="113.417,-23.4685 122.875,-18.6946 112.504,-16.5282 113.417,-23.4685"/>
</g>
<!-- Node3 -->
<g id="node3" class="node"><title>Node3</title>
<g id="a_node3"><a xlink:href="../../d3/ded/classprolog_1_1terms_1_1Term_ae140fac2c9d066dc897fcfa723060a7a.html#ae140fac2c9d066dc897fcfa723060a7a" target="_top" xlink:title="Dereferences if necessary. ">
<polygon fill="none" stroke="black" points="293,-38.5 293,-57.5 403,-57.5 403,-38.5 293,-38.5"/>
<text text-anchor="middle" x="348" y="-45.5" font-family="Helvetica,sans-Serif" font-size="10.00">prolog.terms.Term.ref</text>
</a>
</g>
</g>
<!-- Node2&#45;&gt;Node3 -->
<g id="edge2" class="edge"><title>Node2&#45;&gt;Node3</title>
<path fill="none" stroke="midnightblue" d="M251.314,-48C261.602,-48 272.324,-48 282.712,-48"/>
<polygon fill="midnightblue" stroke="midnightblue" points="282.959,-51.5001 292.959,-48 282.959,-44.5001 282.959,-51.5001"/>
</g>
</g>
</svg>
