<?xml version="1.0" encoding="UTF-8" standalone="no"?>
<!DOCTYPE svg PUBLIC "-//W3C//DTD SVG 1.1//EN"
 "http://www.w3.org/Graphics/SVG/1.1/DTD/svg11.dtd">
<!-- Generated by graphviz version 2.38.0 (20140413.2041)
 -->
<!-- Title: prolog.terms.Source.getElement Pages: 1 -->
<!--zoomable 301 -->
<svg id="main" version="1.1" xmlns="http://www.w3.org/2000/svg" xmlns:xlink="http://www.w3.org/1999/xlink" xml:space="preserve" onload="init(evt)">
<style type="text/css"><![CDATA[
.edge:hover path { stroke: red; }
.edge:hover polygon { stroke: red; fill: red; }
]]></style>
<script type="text/javascript"><![CDATA[
var edges = document.getElementsByTagName('g');
if (edges && edges.length) {
  for (var i=0;i<edges.length;i++) {
    if (edges[i].id.substr(0,4)=='edge') {
      edges[i].setAttribute('class','edge');
    }
  }
}
]]></script>
        <defs>
                <circle id="rim" cx="0" cy="0" r="7"/>
                <circle id="rim2" cx="0" cy="0" r="3.5"/>
                <g id="zoomPlus">
                        <use xlink:href="#rim" fill="#404040">
                                <set attributeName="fill" to="#808080" begin="zoomplus.mouseover" end="zoomplus.mouseout"/>
                        </use>
                        <path d="M-4,0h8M0,-4v8" fill="none" stroke="white" stroke-width="1.5" pointer-events="none"/>
                </g>
                <g id="zoomMin">
                        <use xlink:href="#rim" fill="#404040">
                                <set attributeName="fill" to="#808080" begin="zoomminus.mouseover" end="zoomminus.mouseout"/>
                        </use>
                        <path d="M-4,0h8" fill="none" stroke="white" stroke-width="1.5" pointer-events="none"/>
                </g>
                <g id="dirArrow">
                        <path fill="none" stroke="white" stroke-width="1.5" d="M0,-3.0v7 M-2.5,-0.5L0,-3.0L2.5,-0.5"/>
                </g>
               <g id="resetDef">
                       <use xlink:href="#rim2" fill="#404040">
                               <set attributeName="fill" to="#808080" begin="reset.mouseover" end="reset.mouseout"/>
                       </use>
               </g>
        </defs>

<script type="text/javascript">
var viewWidth = 501;
var viewHeight = 301;
var sectionId = 'dynsection-0';
</script>
<script xlink:href="../../svgpan.js"/>
<svg id="graph" class="graph">
<g id="viewport">
<title>prolog.terms.Source.getElement</title>
<!-- Node1 -->
<g id="node1" class="node"><title>Node1</title>
<polygon fill="#bfbfbf" stroke="black" points="0,-166 0,-185 157,-185 157,-166 0,-166"/>
<text text-anchor="middle" x="78.5" y="-173" font-family="Helvetica,sans-Serif" font-size="10.00">prolog.terms.Source.getElement</text>
</g>
<!-- Node2 -->
<g id="node2" class="node"><title>Node2</title>
<g id="a_node2"><a xlink:href="../../d0/d8e/classprolog_1_1builtins_1_1get_a8b86310e87bb906a05f252a8dfd2e6af.html#a8b86310e87bb906a05f252a8dfd2e6af" target="_top" xlink:title="prolog.builtins.get.exec">
<polygon fill="none" stroke="black" points="212,-273 212,-292 329,-292 329,-273 212,-273"/>
<text text-anchor="middle" x="270.5" y="-280" font-family="Helvetica,sans-Serif" font-size="10.00">prolog.builtins.get.exec</text>
</a>
</g>
</g>
<!-- Node1&#45;&gt;Node2 -->
<g id="edge1" class="edge"><title>Node1&#45;&gt;Node2</title>
<path fill="none" stroke="midnightblue" d="M96.2669,-192.225C117.154,-212.121 154.774,-244.965 193,-263.5 200.881,-267.321 209.602,-270.419 218.252,-272.917"/>
<polygon fill="midnightblue" stroke="midnightblue" points="98.4857,-189.502 88.8711,-185.051 93.6116,-194.526 98.4857,-189.502"/>
</g>
<!-- Node3 -->
<g id="node3" class="node"><title>Node3</title>
<g id="a_node3"><a xlink:href="../../d5/dba/classprolog_1_1builtins_1_1discharge_ac8fdc1dab32e95058ea028f4edd1716c.html#ac8fdc1dab32e95058ea028f4edd1716c" target="_top" xlink:title="prolog.builtins.discharge.exec">
<polygon fill="none" stroke="black" points="197.5,-235 197.5,-254 343.5,-254 343.5,-235 197.5,-235"/>
<text text-anchor="middle" x="270.5" y="-242" font-family="Helvetica,sans-Serif" font-size="10.00">prolog.builtins.discharge.exec</text>
</a>
</g>
</g>
<!-- Node1&#45;&gt;Node3 -->
<g id="edge2" class="edge"><title>Node1&#45;&gt;Node3</title>
<path fill="none" stroke="midnightblue" d="M107.417,-189.409C130.069,-200.3 163.047,-215.267 193,-225.5 203.36,-229.039 214.716,-232.222 225.433,-234.925"/>
<polygon fill="midnightblue" stroke="midnightblue" points="108.904,-186.24 98.3795,-185.017 105.844,-192.536 108.904,-186.24"/>
</g>
<!-- Node4 -->
<g id="node4" class="node"><title>Node4</title>
<g id="a_node4"><a xlink:href="../../d9/dc9/classprolog_1_1fluents_1_1SourceMerger_a0efcba19e4678b70041342889357e43b.html#a0efcba19e4678b70041342889357e43b" target="_top" xlink:title="prolog.fluents.SourceMerger.get\lElement">
<polygon fill="none" stroke="black" points="193,-185.5 193,-215.5 348,-215.5 348,-185.5 193,-185.5"/>
<text text-anchor="start" x="201" y="-203.5" font-family="Helvetica,sans-Serif" font-size="10.00">prolog.fluents.SourceMerger.get</text>
<text text-anchor="middle" x="270.5" y="-192.5" font-family="Helvetica,sans-Serif" font-size="10.00">Element</text>
</a>
</g>
</g>
<!-- Node1&#45;&gt;Node4 -->
<g id="edge3" class="edge"><title>Node1&#45;&gt;Node4</title>
<path fill="none" stroke="midnightblue" d="M162.042,-186.361C172.296,-187.71 182.746,-189.085 192.904,-190.422"/>
<polygon fill="midnightblue" stroke="midnightblue" points="162.244,-182.857 151.873,-185.023 161.331,-189.797 162.244,-182.857"/>
</g>
<!-- Node5 -->
<g id="node5" class="node"><title>Node5</title>
<g id="a_node5"><a xlink:href="../../d6/d98/classprolog_1_1fluents_1_1SourceLoop_a1553eb3991e506417840bd1a5d037928.html#a1553eb3991e506417840bd1a5d037928" target="_top" xlink:title="prolog.fluents.SourceLoop.get\lElement">
<polygon fill="none" stroke="black" points="197.5,-136.5 197.5,-166.5 343.5,-166.5 343.5,-136.5 197.5,-136.5"/>
<text text-anchor="start" x="205.5" y="-154.5" font-family="Helvetica,sans-Serif" font-size="10.00">prolog.fluents.SourceLoop.get</text>
<text text-anchor="middle" x="270.5" y="-143.5" font-family="Helvetica,sans-Serif" font-size="10.00">Element</text>
</a>
</g>
</g>
<!-- Node1&#45;&gt;Node5 -->
<g id="edge4" class="edge"><title>Node1&#45;&gt;Node5</title>
<path fill="none" stroke="midnightblue" d="M165.115,-164.686C175.875,-163.326 186.797,-161.947 197.323,-160.617"/>
<polygon fill="midnightblue" stroke="midnightblue" points="164.348,-161.254 154.866,-165.98 165.226,-168.199 164.348,-161.254"/>
</g>
<!-- Node6 -->
<g id="node6" class="node"><title>Node6</title>
<g id="a_node6"><a xlink:href="../../d2/d07/classprolog_1_1terms_1_1Source_a40b2c3eaa8bb3a405446556fd265c5aa.html#a40b2c3eaa8bb3a405446556fd265c5aa" target="_top" xlink:title="prolog.terms.Source.toFun">
<polygon fill="none" stroke="black" points="204.5,-98 204.5,-117 336.5,-117 336.5,-98 204.5,-98"/>
<text text-anchor="middle" x="270.5" y="-105" font-family="Helvetica,sans-Serif" font-size="10.00">prolog.terms.Source.toFun</text>
</a>
</g>
</g>
<!-- Node1&#45;&gt;Node6 -->
<g id="edge5" class="edge"><title>Node1&#45;&gt;Node6</title>
<path fill="none" stroke="midnightblue" d="M109.044,-161.616C131.688,-151.317 163.888,-137.404 193,-127.5 204.437,-123.609 217.05,-120.03 228.68,-117.008"/>
<polygon fill="midnightblue" stroke="midnightblue" points="107.287,-158.572 99.6602,-165.926 110.208,-164.933 107.287,-158.572"/>
</g>
<!-- Node8 -->
<g id="node8" class="node"><title>Node8</title>
<g id="a_node8"><a xlink:href="../../d2/d07/classprolog_1_1terms_1_1Source_aa40a822d3598499665728d7ae0e46d34.html#aa40a822d3598499665728d7ae0e46d34" target="_top" xlink:title="prolog.terms.Source.toList">
<polygon fill="none" stroke="black" points="205,-55 205,-74 336,-74 336,-55 205,-55"/>
<text text-anchor="middle" x="270.5" y="-62" font-family="Helvetica,sans-Serif" font-size="10.00">prolog.terms.Source.toList</text>
</a>
</g>
</g>
<!-- Node1&#45;&gt;Node8 -->
<g id="edge7" class="edge"><title>Node1&#45;&gt;Node8</title>
<path fill="none" stroke="midnightblue" d="M97.1585,-158.754C118.397,-139.416 155.848,-107.795 193,-88.5 204.488,-82.5337 217.726,-77.735 229.925,-74.0428"/>
<polygon fill="midnightblue" stroke="midnightblue" points="94.561,-156.389 89.5964,-165.749 99.3142,-161.528 94.561,-156.389"/>
</g>
<!-- Node7 -->
<g id="node7" class="node"><title>Node7</title>
<g id="a_node7"><a xlink:href="../../d9/d47/classprolog_1_1builtins_1_1source__term_a52ab1b08efdb52116de75b9ea92fa00e.html#a52ab1b08efdb52116de75b9ea92fa00e" target="_top" xlink:title="prolog.builtins.source\l_term.exec">
<polygon fill="none" stroke="black" points="384,-98.5 384,-128.5 493,-128.5 493,-98.5 384,-98.5"/>
<text text-anchor="start" x="392" y="-116.5" font-family="Helvetica,sans-Serif" font-size="10.00">prolog.builtins.source</text>
<text text-anchor="middle" x="438.5" y="-105.5" font-family="Helvetica,sans-Serif" font-size="10.00">_term.exec</text>
</a>
</g>
</g>
<!-- Node6&#45;&gt;Node7 -->
<g id="edge6" class="edge"><title>Node6&#45;&gt;Node7</title>
<path fill="none" stroke="midnightblue" d="M346.986,-110.228C359.407,-110.677 372.053,-111.134 383.802,-111.559"/>
<polygon fill="midnightblue" stroke="midnightblue" points="346.751,-106.718 336.631,-109.854 346.498,-113.713 346.751,-106.718"/>
</g>
<!-- Node9 -->
<g id="node9" class="node"><title>Node9</title>
<g id="a_node9"><a xlink:href="../../d0/da6/classprolog_1_1builtins_1_1source__list_a287e1d432c2e6af65aa19d1384614f59.html#a287e1d432c2e6af65aa19d1384614f59" target="_top" xlink:title="prolog.builtins.source\l_list.exec">
<polygon fill="none" stroke="black" points="384,-49.5 384,-79.5 493,-79.5 493,-49.5 384,-49.5"/>
<text text-anchor="start" x="392" y="-67.5" font-family="Helvetica,sans-Serif" font-size="10.00">prolog.builtins.source</text>
<text text-anchor="middle" x="438.5" y="-56.5" font-family="Helvetica,sans-Serif" font-size="10.00">_list.exec</text>
</a>
</g>
</g>
<!-- Node8&#45;&gt;Node9 -->
<g id="edge8" class="edge"><title>Node8&#45;&gt;Node9</title>
<path fill="none" stroke="midnightblue" d="M346.223,-64.5C358.873,-64.5 371.783,-64.5 383.76,-64.5"/>
<polygon fill="midnightblue" stroke="midnightblue" points="346.155,-61.0001 336.155,-64.5 346.155,-68.0001 346.155,-61.0001"/>
</g>
<!-- Node10 -->
<g id="node10" class="node"><title>Node10</title>
<g id="a_node10"><a xlink:href="../../d1/df0/classprolog_1_1builtins_1_1split__source_a1bd4e948e03b910ffb952d5af5bde182.html#a1bd4e948e03b910ffb952d5af5bde182" target="_top" xlink:title="prolog.builtins.split\l_source.exec">
<polygon fill="none" stroke="black" points="389.5,-0.5 389.5,-30.5 487.5,-30.5 487.5,-0.5 389.5,-0.5"/>
<text text-anchor="start" x="397.5" y="-18.5" font-family="Helvetica,sans-Serif" font-size="10.00">prolog.builtins.split</text>
<text text-anchor="middle" x="438.5" y="-7.5" font-family="Helvetica,sans-Serif" font-size="10.00">_source.exec</text>
</a>
</g>
</g>
<!-- Node8&#45;&gt;Node10 -->
<g id="edge9" class="edge"><title>Node8&#45;&gt;Node10</title>
<path fill="none" stroke="midnightblue" d="M313.749,-52.0289C336.837,-45.2138 365.52,-36.7472 389.456,-29.6816"/>
<polygon fill="midnightblue" stroke="midnightblue" points="312.501,-48.7481 303.901,-54.936 314.482,-55.4617 312.501,-48.7481"/>
</g>
</g>
</svg>
        <g id="navigator" transform="translate(0 0)" fill="#404254">
                <rect fill="#f2f5e9" fill-opacity="0.5" stroke="#606060" stroke-width=".5" x="0" y="0" width="60" height="60"/>
                <use id="zoomplus" xlink:href="#zoomPlus" x="17" y="9" onmousedown="handleZoom(evt,'in')"/>
                <use id="zoomminus" xlink:href="#zoomMin" x="42" y="9" onmousedown="handleZoom(evt,'out')"/>
                <use id="reset" xlink:href="#resetDef" x="30" y="36" onmousedown="handleReset()"/>
                <g id="arrowUp" xlink:href="#dirArrow" transform="translate(30 24)" onmousedown="handlePan(0,-1)">
                  <use xlink:href="#rim" fill="#404040">
                        <set attributeName="fill" to="#808080" begin="arrowUp.mouseover" end="arrowUp.mouseout"/>
                  </use>
                  <path fill="none" stroke="white" stroke-width="1.5" d="M0,-3.0v7 M-2.5,-0.5L0,-3.0L2.5,-0.5"/>
                </g>
                <g id="arrowRight" xlink:href="#dirArrow" transform="rotate(90) translate(36 -43)" onmousedown="handlePan(1,0)">
                  <use xlink:href="#rim" fill="#404040">
                        <set attributeName="fill" to="#808080" begin="arrowRight.mouseover" end="arrowRight.mouseout"/>
                  </use>
                  <path fill="none" stroke="white" stroke-width="1.5" d="M0,-3.0v7 M-2.5,-0.5L0,-3.0L2.5,-0.5"/>
                </g>
                <g id="arrowDown" xlink:href="#dirArrow" transform="rotate(180) translate(-30 -48)" onmousedown="handlePan(0,1)">
                  <use xlink:href="#rim" fill="#404040">
                        <set attributeName="fill" to="#808080" begin="arrowDown.mouseover" end="arrowDown.mouseout"/>
                  </use>
                  <path fill="none" stroke="white" stroke-width="1.5" d="M0,-3.0v7 M-2.5,-0.5L0,-3.0L2.5,-0.5"/>
                </g>
                <g id="arrowLeft" xlink:href="#dirArrow" transform="rotate(270) translate(-36 17)" onmousedown="handlePan(-1,0)">
                  <use xlink:href="#rim" fill="#404040">
                        <set attributeName="fill" to="#808080" begin="arrowLeft.mouseover" end="arrowLeft.mouseout"/>
                  </use>
                  <path fill="none" stroke="white" stroke-width="1.5" d="M0,-3.0v7 M-2.5,-0.5L0,-3.0L2.5,-0.5"/>
                </g>
        </g>
        <svg viewBox="0 0 15 15" width="100%" height="30px" preserveAspectRatio="xMaxYMin meet">
         <g id="arrow_out" transform="scale(0.3 0.3)">
          <a xlink:href="classprolog_1_1terms_1_1Source_a80edbb7a5e2e465563e161990957b736_a80edbb7a5e2e465563e161990957b736_icgraph_org.svg" target="_base">
           <rect id="button" ry="5" rx="5" y="6" x="6" height="38" width="38"
                fill="#f2f5e9" fill-opacity="0.5" stroke="#606060" stroke-width="1.0"/>
           <path id="arrow"
             d="M 11.500037,31.436501 C 11.940474,20.09759 22.043105,11.32322 32.158766,21.979434 L 37.068811,17.246167 C 37.068811,17.246167 37.088388,32 37.088388,32 L 22.160133,31.978069 C 22.160133,31.978069 26.997745,27.140456 26.997745,27.140456 C 18.528582,18.264221 13.291696,25.230495 11.500037,31.436501 z"
             style="fill:#404040;"/>
          </a>
         </g>
        </svg>
</svg>
