<?xml version="1.0" encoding="UTF-8" standalone="no"?>
<!DOCTYPE svg PUBLIC "-//W3C//DTD SVG 1.1//EN"
 "http://www.w3.org/Graphics/SVG/1.1/DTD/svg11.dtd">
<!-- Generated by graphviz version 2.38.0 (20140413.2041)
 -->
<!-- Title: prolog.terms.Fun Pages: 1 -->
<!--zoomable 1093 -->
<svg id="main" version="1.1" xmlns="http://www.w3.org/2000/svg" xmlns:xlink="http://www.w3.org/1999/xlink" xml:space="preserve" onload="init(evt)">
<style type="text/css"><![CDATA[
.edge:hover path { stroke: red; }
.edge:hover polygon { stroke: red; fill: red; }
]]></style>
<script type="text/javascript"><![CDATA[
var edges = document.getElementsByTagName('g');
if (edges && edges.length) {
  for (var i=0;i<edges.length;i++) {
    if (edges[i].id.substr(0,4)=='edge') {
      edges[i].setAttribute('class','edge');
    }
  }
}
]]></script>
        <defs>
                <circle id="rim" cx="0" cy="0" r="7"/>
                <circle id="rim2" cx="0" cy="0" r="3.5"/>
                <g id="zoomPlus">
                        <use xlink:href="#rim" fill="#404040">
                                <set attributeName="fill" to="#808080" begin="zoomplus.mouseover" end="zoomplus.mouseout"/>
                        </use>
                        <path d="M-4,0h8M0,-4v8" fill="none" stroke="white" stroke-width="1.5" pointer-events="none"/>
                </g>
                <g id="zoomMin">
                        <use xlink:href="#rim" fill="#404040">
                                <set attributeName="fill" to="#808080" begin="zoomminus.mouseover" end="zoomminus.mouseout"/>
                        </use>
                        <path d="M-4,0h8" fill="none" stroke="white" stroke-width="1.5" pointer-events="none"/>
                </g>
                <g id="dirArrow">
                        <path fill="none" stroke="white" stroke-width="1.5" d="M0,-3.0v7 M-2.5,-0.5L0,-3.0L2.5,-0.5"/>
                </g>
               <g id="resetDef">
                       <use xlink:href="#rim2" fill="#404040">
                               <set attributeName="fill" to="#808080" begin="reset.mouseover" end="reset.mouseout"/>
                       </use>
               </g>
        </defs>

<script type="text/javascript">
var viewWidth = 245;
var viewHeight = 1093;
var sectionId = 'dynsection-1';
</script>
<script xlink:href="../../svgpan.js"/>
<svg id="graph" class="graph">
<g id="viewport">
<title>prolog.terms.Fun</title>
<!-- Node1 -->
<g id="node1" class="node"><title>Node1</title>
<polygon fill="#bfbfbf" stroke="black" points="0,-0.5 0,-266.5 108,-266.5 108,-0.5 0,-0.5"/>
<text text-anchor="middle" x="54" y="-254.5" font-family="Helvetica,sans-Serif" font-size="10.00">prolog.terms.Fun</text>
<polyline fill="none" stroke="black" points="0,-247.5 108,-247.5 "/>
<text text-anchor="middle" x="54" y="-235.5" font-family="Helvetica,sans-Serif" font-size="10.00"> </text>
<polyline fill="none" stroke="black" points="0,-228.5 108,-228.5 "/>
<text text-anchor="start" x="8" y="-216.5" font-family="Helvetica,sans-Serif" font-size="10.00">+ getArity()</text>
<text text-anchor="start" x="8" y="-205.5" font-family="Helvetica,sans-Serif" font-size="10.00">+ Fun()</text>
<text text-anchor="start" x="8" y="-194.5" font-family="Helvetica,sans-Serif" font-size="10.00">+ Fun()</text>
<text text-anchor="start" x="8" y="-183.5" font-family="Helvetica,sans-Serif" font-size="10.00">+ Fun()</text>
<text text-anchor="start" x="8" y="-172.5" font-family="Helvetica,sans-Serif" font-size="10.00">+ init()</text>
<text text-anchor="start" x="8" y="-161.5" font-family="Helvetica,sans-Serif" font-size="10.00">+ getArg()</text>
<text text-anchor="start" x="8" y="-150.5" font-family="Helvetica,sans-Serif" font-size="10.00">+ getIntArg()</text>
<text text-anchor="start" x="8" y="-139.5" font-family="Helvetica,sans-Serif" font-size="10.00">+ setArg()</text>
<text text-anchor="start" x="8" y="-128.5" font-family="Helvetica,sans-Serif" font-size="10.00">+ putArg()</text>
<text text-anchor="start" x="8" y="-117.5" font-family="Helvetica,sans-Serif" font-size="10.00">+ Fun()</text>
<text text-anchor="start" x="8" y="-106.5" font-family="Helvetica,sans-Serif" font-size="10.00">and 7 more...</text>
<text text-anchor="start" x="8" y="-95.5" font-family="Helvetica,sans-Serif" font-size="10.00">~ bind_to()</text>
<text text-anchor="start" x="8" y="-84.5" font-family="Helvetica,sans-Serif" font-size="10.00">~ unify_to()</text>
<text text-anchor="start" x="8" y="-73.5" font-family="Helvetica,sans-Serif" font-size="10.00">~ reaction()</text>
<text text-anchor="start" x="8" y="-62.5" font-family="Helvetica,sans-Serif" font-size="10.00">~ isClause()</text>
<text text-anchor="start" x="8" y="-51.5" font-family="Helvetica,sans-Serif" font-size="10.00"># funToString()</text>
<text text-anchor="start" x="8" y="-40.5" font-family="Helvetica,sans-Serif" font-size="10.00"># unInitializedClone()</text>
<text text-anchor="start" x="8" y="-29.5" font-family="Helvetica,sans-Serif" font-size="10.00"># initializedClone()</text>
<text text-anchor="start" x="8" y="-18.5" font-family="Helvetica,sans-Serif" font-size="10.00"># watchNull()</text>
<text text-anchor="start" x="8" y="-7.5" font-family="Helvetica,sans-Serif" font-size="10.00">&#45; show_args()</text>
</g>
<!-- Node2 -->
<g id="node2" class="node"><title>Node2</title>
<g id="a_node2"><a xlink:href="../../d0/d3f/classprolog_1_1terms_1_1Const.html" target="_top" xlink:title="Symbolic constant, of arity 0. ">
<polygon fill="none" stroke="black" points="85,-314.5 85,-459.5 185,-459.5 185,-314.5 85,-314.5"/>
<text text-anchor="middle" x="135" y="-447.5" font-family="Helvetica,sans-Serif" font-size="10.00">prolog.terms.Const</text>
<polyline fill="none" stroke="black" points="85,-440.5 185,-440.5 "/>
<text text-anchor="start" x="93" y="-428.5" font-family="Helvetica,sans-Serif" font-size="10.00">&#45; sym</text>
<polyline fill="none" stroke="black" points="85,-421.5 185,-421.5 "/>
<text text-anchor="start" x="93" y="-409.5" font-family="Helvetica,sans-Serif" font-size="10.00">+ Const()</text>
<text text-anchor="start" x="93" y="-398.5" font-family="Helvetica,sans-Serif" font-size="10.00">+ name()</text>
<text text-anchor="start" x="93" y="-387.5" font-family="Helvetica,sans-Serif" font-size="10.00">+ qname()</text>
<text text-anchor="start" x="93" y="-376.5" font-family="Helvetica,sans-Serif" font-size="10.00">+ toString()</text>
<text text-anchor="start" x="93" y="-365.5" font-family="Helvetica,sans-Serif" font-size="10.00">+ getKey()</text>
<text text-anchor="start" x="93" y="-354.5" font-family="Helvetica,sans-Serif" font-size="10.00">+ getArity()</text>
<text text-anchor="start" x="93" y="-343.5" font-family="Helvetica,sans-Serif" font-size="10.00">+ toUnquoted()</text>
<text text-anchor="start" x="93" y="-332.5" font-family="Helvetica,sans-Serif" font-size="10.00">+ the()</text>
<text text-anchor="start" x="93" y="-321.5" font-family="Helvetica,sans-Serif" font-size="10.00">~ bind_to()</text>
</a>
</g>
</g>
<!-- Node2&#45;&gt;Node1 -->
<g id="edge1" class="edge"><title>Node2&#45;&gt;Node1</title>
<path fill="none" stroke="midnightblue" d="M108.798,-304.646C104.876,-292.466 100.748,-279.649 96.5902,-266.74"/>
<polygon fill="none" stroke="midnightblue" points="105.5,-305.821 111.897,-314.267 112.163,-303.675 105.5,-305.821"/>
</g>
<!-- Node2&#45;&gt;Node2 -->
<g id="edge8" class="edge"><title>Node2&#45;&gt;Node2</title>
<path fill="none" stroke="#404040" d="M185.114,-404.367C195.518,-402.539 203,-396.75 203,-387 203,-381.363 200.499,-377.05 196.379,-374.061"/>
<polygon fill="none" stroke="#404040" points="196.282,-374.023 189.234,-375.551 185.114,-369.633 192.161,-368.105 196.282,-374.023"/>
<text text-anchor="middle" x="220" y="-406.5" font-family="Helvetica,sans-Serif" font-size="10.00"> +aTrue</text>
<text text-anchor="middle" x="220" y="-395.5" font-family="Helvetica,sans-Serif" font-size="10.00">+aNo</text>
<text text-anchor="middle" x="220" y="-384.5" font-family="Helvetica,sans-Serif" font-size="10.00">+anEof</text>
<text text-anchor="middle" x="220" y="-373.5" font-family="Helvetica,sans-Serif" font-size="10.00">+aYes</text>
<text text-anchor="middle" x="220" y="-362.5" font-family="Helvetica,sans-Serif" font-size="10.00">+aFail</text>
</g>
<!-- Node7 -->
<g id="node7" class="node"><title>Node7</title>
<g id="a_node7"><a xlink:href="../../d8/dad/classprolog_1_1terms_1_1Nil.html" target="_top" xlink:title="Special constant terminating a list. ">
<polygon fill="none" stroke="black" points="126,-99.5 126,-167.5 212,-167.5 212,-99.5 126,-99.5"/>
<text text-anchor="middle" x="169" y="-155.5" font-family="Helvetica,sans-Serif" font-size="10.00">prolog.terms.Nil</text>
<polyline fill="none" stroke="black" points="126,-148.5 212,-148.5 "/>
<text text-anchor="middle" x="169" y="-136.5" font-family="Helvetica,sans-Serif" font-size="10.00"> </text>
<polyline fill="none" stroke="black" points="126,-129.5 212,-129.5 "/>
<text text-anchor="start" x="134" y="-117.5" font-family="Helvetica,sans-Serif" font-size="10.00">+ Nil()</text>
<text text-anchor="start" x="134" y="-106.5" font-family="Helvetica,sans-Serif" font-size="10.00">+ Nil()</text>
</a>
</g>
</g>
<!-- Node2&#45;&gt;Node7 -->
<g id="edge7" class="edge"><title>Node2&#45;&gt;Node7</title>
<path fill="none" stroke="midnightblue" d="M146.057,-304.21C152.331,-257.799 159.841,-202.25 164.517,-167.66"/>
<polygon fill="none" stroke="midnightblue" points="142.569,-303.888 144.698,-314.267 149.506,-304.826 142.569,-303.888"/>
</g>
<!-- Node3 -->
<g id="node3" class="node"><title>Node3</title>
<g id="a_node3"><a xlink:href="../../d4/de0/classprolog_1_1terms_1_1Nonvar.html" target="_top" xlink:title="Part of the Prolog Term hierarchy. ">
<polygon fill="none" stroke="black" points="82.5,-507.5 82.5,-597.5 187.5,-597.5 187.5,-507.5 82.5,-507.5"/>
<text text-anchor="middle" x="135" y="-585.5" font-family="Helvetica,sans-Serif" font-size="10.00">prolog.terms.Nonvar</text>
<polyline fill="none" stroke="black" points="82.5,-578.5 187.5,-578.5 "/>
<text text-anchor="middle" x="135" y="-566.5" font-family="Helvetica,sans-Serif" font-size="10.00"> </text>
<polyline fill="none" stroke="black" points="82.5,-559.5 187.5,-559.5 "/>
<text text-anchor="start" x="90.5" y="-547.5" font-family="Helvetica,sans-Serif" font-size="10.00">+ name()</text>
<text text-anchor="start" x="90.5" y="-536.5" font-family="Helvetica,sans-Serif" font-size="10.00">~ bind_to()</text>
<text text-anchor="start" x="90.5" y="-525.5" font-family="Helvetica,sans-Serif" font-size="10.00">~ unify_to()</text>
<text text-anchor="start" x="90.5" y="-514.5" font-family="Helvetica,sans-Serif" font-size="10.00">~ listify()</text>
</a>
</g>
</g>
<!-- Node3&#45;&gt;Node2 -->
<g id="edge2" class="edge"><title>Node3&#45;&gt;Node2</title>
<path fill="none" stroke="midnightblue" d="M135,-497.005C135,-485.05 135,-472.217 135,-459.703"/>
<polygon fill="none" stroke="midnightblue" points="131.5,-497.255 135,-507.255 138.5,-497.255 131.5,-497.255"/>
</g>
<!-- Node4 -->
<g id="node4" class="node"><title>Node4</title>
<g id="a_node4"><a xlink:href="../../d3/ded/classprolog_1_1terms_1_1Term.html" target="_top" xlink:title="Top element of the Prolog term hierarchy. ">
<polygon fill="none" stroke="black" points="17,-635.5 17,-989.5 115,-989.5 115,-635.5 17,-635.5"/>
<text text-anchor="middle" x="66" y="-977.5" font-family="Helvetica,sans-Serif" font-size="10.00">prolog.terms.Term</text>
<polyline fill="none" stroke="black" points="17,-970.5 115,-970.5 "/>
<text text-anchor="start" x="25" y="-958.5" font-family="Helvetica,sans-Serif" font-size="10.00">+ JAVA</text>
<text text-anchor="start" x="25" y="-947.5" font-family="Helvetica,sans-Serif" font-size="10.00">+ REAL</text>
<text text-anchor="start" x="25" y="-936.5" font-family="Helvetica,sans-Serif" font-size="10.00">+ INT</text>
<text text-anchor="start" x="25" y="-925.5" font-family="Helvetica,sans-Serif" font-size="10.00">+ VAR</text>
<text text-anchor="start" x="25" y="-914.5" font-family="Helvetica,sans-Serif" font-size="10.00">+ CONST</text>
<polyline fill="none" stroke="black" points="17,-907.5 115,-907.5 "/>
<text text-anchor="start" x="25" y="-895.5" font-family="Helvetica,sans-Serif" font-size="10.00">+ getArity()</text>
<text text-anchor="start" x="25" y="-884.5" font-family="Helvetica,sans-Serif" font-size="10.00">+ ref()</text>
<text text-anchor="start" x="25" y="-873.5" font-family="Helvetica,sans-Serif" font-size="10.00">+ token()</text>
<text text-anchor="start" x="25" y="-862.5" font-family="Helvetica,sans-Serif" font-size="10.00">+ toClause()</text>
<text text-anchor="start" x="25" y="-851.5" font-family="Helvetica,sans-Serif" font-size="10.00">+ matches()</text>
<text text-anchor="start" x="25" y="-840.5" font-family="Helvetica,sans-Serif" font-size="10.00">+ matches()</text>
<text text-anchor="start" x="25" y="-829.5" font-family="Helvetica,sans-Serif" font-size="10.00">+ matching_copy()</text>
<text text-anchor="start" x="25" y="-818.5" font-family="Helvetica,sans-Serif" font-size="10.00">+ copy()</text>
<text text-anchor="start" x="25" y="-807.5" font-family="Helvetica,sans-Serif" font-size="10.00">+ varsOf()</text>
<text text-anchor="start" x="25" y="-796.5" font-family="Helvetica,sans-Serif" font-size="10.00">+ numbervars()</text>
<text text-anchor="start" x="25" y="-785.5" font-family="Helvetica,sans-Serif" font-size="10.00">and 6 more...</text>
<text text-anchor="start" x="25" y="-774.5" font-family="Helvetica,sans-Serif" font-size="10.00">+ fromString()</text>
<text text-anchor="start" x="25" y="-763.5" font-family="Helvetica,sans-Serif" font-size="10.00">+ charsToString()</text>
<text text-anchor="start" x="25" y="-752.5" font-family="Helvetica,sans-Serif" font-size="10.00">~ bind_to()</text>
<text text-anchor="start" x="25" y="-741.5" font-family="Helvetica,sans-Serif" font-size="10.00">~ unify_to()</text>
<text text-anchor="start" x="25" y="-730.5" font-family="Helvetica,sans-Serif" font-size="10.00">~ toTerm()</text>
<text text-anchor="start" x="25" y="-719.5" font-family="Helvetica,sans-Serif" font-size="10.00">~ isClause()</text>
<text text-anchor="start" x="25" y="-708.5" font-family="Helvetica,sans-Serif" font-size="10.00">~ reaction()</text>
<text text-anchor="start" x="25" y="-697.5" font-family="Helvetica,sans-Serif" font-size="10.00">~ action()</text>
<text text-anchor="start" x="25" y="-686.5" font-family="Helvetica,sans-Serif" font-size="10.00">~ exec()</text>
<text text-anchor="start" x="25" y="-675.5" font-family="Helvetica,sans-Serif" font-size="10.00">~ stringToChars()</text>
<text text-anchor="start" x="25" y="-664.5" font-family="Helvetica,sans-Serif" font-size="10.00"># unify()</text>
<text text-anchor="start" x="25" y="-653.5" font-family="Helvetica,sans-Serif" font-size="10.00"># undo()</text>
<text text-anchor="start" x="25" y="-642.5" font-family="Helvetica,sans-Serif" font-size="10.00"># exec()</text>
</a>
</g>
</g>
<!-- Node4&#45;&gt;Node1 -->
<g id="edge9" class="edge"><title>Node4&#45;&gt;Node1</title>
<path fill="none" stroke="#404040" d="M62.8785,-635.394C60.9129,-524.502 58.4072,-383.139 56.5593,-278.885"/>
<polygon fill="none" stroke="#404040" points="56.5557,-278.678 52.4499,-272.75 56.3429,-266.68 60.4487,-272.608 56.5557,-278.678"/>
<text text-anchor="middle" x="75" y="-481" font-family="Helvetica,sans-Serif" font-size="10.00"> +args</text>
</g>
<!-- Node4&#45;&gt;Node3 -->
<g id="edge3" class="edge"><title>Node4&#45;&gt;Node3</title>
<path fill="none" stroke="midnightblue" d="M115.692,-625.695C118.378,-615.653 120.91,-606.186 123.201,-597.617"/>
<polygon fill="none" stroke="midnightblue" points="112.276,-624.923 113.073,-635.487 119.038,-626.731 112.276,-624.923"/>
</g>
<!-- Node5 -->
<g id="node5" class="node"><title>Node5</title>
<polygon fill="none" stroke="#bfbfbf" points="8.5,-1027.5 8.5,-1084.5 53.5,-1084.5 53.5,-1027.5 8.5,-1027.5"/>
<text text-anchor="middle" x="31" y="-1072.5" font-family="Helvetica,sans-Serif" font-size="10.00">Object</text>
<polyline fill="none" stroke="#bfbfbf" points="8.5,-1065.5 53.5,-1065.5 "/>
<text text-anchor="middle" x="31" y="-1053.5" font-family="Helvetica,sans-Serif" font-size="10.00"> </text>
<polyline fill="none" stroke="#bfbfbf" points="8.5,-1046.5 53.5,-1046.5 "/>
<text text-anchor="middle" x="31" y="-1034.5" font-family="Helvetica,sans-Serif" font-size="10.00"> </text>
</g>
<!-- Node5&#45;&gt;Node4 -->
<g id="edge4" class="edge"><title>Node5&#45;&gt;Node4</title>
<path fill="none" stroke="midnightblue" d="M36.4619,-1017.31C37.6703,-1008.97 39.0272,-999.612 40.478,-989.602"/>
<polygon fill="none" stroke="midnightblue" points="32.9855,-1016.9 35.0149,-1027.3 39.9131,-1017.9 32.9855,-1016.9"/>
</g>
<!-- Node6 -->
<g id="node6" class="node"><title>Node6</title>
<polygon fill="none" stroke="#bfbfbf" points="72,-1027.5 72,-1084.5 132,-1084.5 132,-1027.5 72,-1027.5"/>
<text text-anchor="middle" x="102" y="-1072.5" font-family="Helvetica,sans-Serif" font-size="10.00">Cloneable</text>
<polyline fill="none" stroke="#bfbfbf" points="72,-1065.5 132,-1065.5 "/>
<text text-anchor="middle" x="102" y="-1053.5" font-family="Helvetica,sans-Serif" font-size="10.00"> </text>
<polyline fill="none" stroke="#bfbfbf" points="72,-1046.5 132,-1046.5 "/>
<text text-anchor="middle" x="102" y="-1034.5" font-family="Helvetica,sans-Serif" font-size="10.00"> </text>
</g>
<!-- Node6&#45;&gt;Node4 -->
<g id="edge5" class="edge"><title>Node6&#45;&gt;Node4</title>
<path fill="none" stroke="midnightblue" d="M96.382,-1017.31C95.1391,-1008.97 93.7434,-999.612 92.2512,-989.602"/>
<polygon fill="none" stroke="midnightblue" points="92.9341,-1017.92 97.8703,-1027.3 99.8576,-1016.89 92.9341,-1017.92"/>
</g>
<!-- Node7&#45;&gt;Node2 -->
<g id="edge6" class="edge"><title>Node7&#45;&gt;Node2</title>
<path fill="none" stroke="#404040" d="M164.517,-167.66C159.91,-201.742 152.551,-256.173 146.334,-302.161"/>
<polygon fill="none" stroke="#404040" points="146.305,-302.375 149.465,-308.857 144.698,-314.267 141.537,-307.785 146.305,-302.375"/>
<text text-anchor="middle" x="161.5" y="-288" font-family="Helvetica,sans-Serif" font-size="10.00"> +aNil</text>
</g>
</g>
</svg>
        <g id="navigator" transform="translate(0 0)" fill="#404254">
                <rect fill="#f2f5e9" fill-opacity="0.5" stroke="#606060" stroke-width=".5" x="0" y="0" width="60" height="60"/>
                <use id="zoomplus" xlink:href="#zoomPlus" x="17" y="9" onmousedown="handleZoom(evt,'in')"/>
                <use id="zoomminus" xlink:href="#zoomMin" x="42" y="9" onmousedown="handleZoom(evt,'out')"/>
                <use id="reset" xlink:href="#resetDef" x="30" y="36" onmousedown="handleReset()"/>
                <g id="arrowUp" xlink:href="#dirArrow" transform="translate(30 24)" onmousedown="handlePan(0,-1)">
                  <use xlink:href="#rim" fill="#404040">
                        <set attributeName="fill" to="#808080" begin="arrowUp.mouseover" end="arrowUp.mouseout"/>
                  </use>
                  <path fill="none" stroke="white" stroke-width="1.5" d="M0,-3.0v7 M-2.5,-0.5L0,-3.0L2.5,-0.5"/>
                </g>
                <g id="arrowRight" xlink:href="#dirArrow" transform="rotate(90) translate(36 -43)" onmousedown="handlePan(1,0)">
                  <use xlink:href="#rim" fill="#404040">
                        <set attributeName="fill" to="#808080" begin="arrowRight.mouseover" end="arrowRight.mouseout"/>
                  </use>
                  <path fill="none" stroke="white" stroke-width="1.5" d="M0,-3.0v7 M-2.5,-0.5L0,-3.0L2.5,-0.5"/>
                </g>
                <g id="arrowDown" xlink:href="#dirArrow" transform="rotate(180) translate(-30 -48)" onmousedown="handlePan(0,1)">
                  <use xlink:href="#rim" fill="#404040">
                        <set attributeName="fill" to="#808080" begin="arrowDown.mouseover" end="arrowDown.mouseout"/>
                  </use>
                  <path fill="none" stroke="white" stroke-width="1.5" d="M0,-3.0v7 M-2.5,-0.5L0,-3.0L2.5,-0.5"/>
                </g>
                <g id="arrowLeft" xlink:href="#dirArrow" transform="rotate(270) translate(-36 17)" onmousedown="handlePan(-1,0)">
                  <use xlink:href="#rim" fill="#404040">
                        <set attributeName="fill" to="#808080" begin="arrowLeft.mouseover" end="arrowLeft.mouseout"/>
                  </use>
                  <path fill="none" stroke="white" stroke-width="1.5" d="M0,-3.0v7 M-2.5,-0.5L0,-3.0L2.5,-0.5"/>
                </g>
        </g>
        <svg viewBox="0 0 15 15" width="100%" height="30px" preserveAspectRatio="xMaxYMin meet">
         <g id="arrow_out" transform="scale(0.3 0.3)">
          <a xlink:href="classprolog_1_1terms_1_1Fun__coll__graph_org.svg" target="_base">
           <rect id="button" ry="5" rx="5" y="6" x="6" height="38" width="38"
                fill="#f2f5e9" fill-opacity="0.5" stroke="#606060" stroke-width="1.0"/>
           <path id="arrow"
             d="M 11.500037,31.436501 C 11.940474,20.09759 22.043105,11.32322 32.158766,21.979434 L 37.068811,17.246167 C 37.068811,17.246167 37.088388,32 37.088388,32 L 22.160133,31.978069 C 22.160133,31.978069 26.997745,27.140456 26.997745,27.140456 C 18.528582,18.264221 13.291696,25.230495 11.500037,31.436501 z"
             style="fill:#404040;"/>
          </a>
         </g>
        </svg>
</svg>
