<?xml version="1.0" encoding="UTF-8" standalone="no"?>
<!DOCTYPE svg PUBLIC "-//W3C//DTD SVG 1.1//EN"
 "http://www.w3.org/Graphics/SVG/1.1/DTD/svg11.dtd">
<!-- Generated by graphviz version 2.38.0 (20140413.2041)
 -->
<!-- Title: prolog.fluents.HashDict.name Pages: 1 -->
<svg width="652pt" height="88pt"
 viewBox="0.00 0.00 652.00 88.00" xmlns="http://www.w3.org/2000/svg" xmlns:xlink="http://www.w3.org/1999/xlink">
<g id="graph0" class="graph" transform="scale(1 1) rotate(0) translate(4 84)">
<title>prolog.fluents.HashDict.name</title>
<!-- Node1 -->
<g id="node1" class="node"><title>Node1</title>
<polygon fill="#bfbfbf" stroke="black" points="0,-6 0,-25 146,-25 146,-6 0,-6"/>
<text text-anchor="middle" x="73" y="-13" font-family="Helvetica,sans-Serif" font-size="10.00">prolog.fluents.HashDict.name</text>
</g>
<!-- Node2 -->
<g id="node2" class="node"><title>Node2</title>
<g id="a_node2"><a xlink:href="../../da/dd9/classprolog_1_1fluents_1_1DataBase_abee194bd51b63bf7758b4ae2b2795b04.html#abee194bd51b63bf7758b4ae2b2795b04" target="_top" xlink:title="Returns a formatted String representation of this PrologBlackboard object. ">
<polygon fill="none" stroke="black" points="182,-6 182,-25 331,-25 331,-6 182,-6"/>
<text text-anchor="middle" x="256.5" y="-13" font-family="Helvetica,sans-Serif" font-size="10.00">prolog.fluents.DataBase.pprint</text>
</a>
</g>
</g>
<!-- Node1&#45;&gt;Node2 -->
<g id="edge1" class="edge"><title>Node1&#45;&gt;Node2</title>
<path fill="none" stroke="midnightblue" d="M156.458,-15.5C164.878,-15.5 173.393,-15.5 181.712,-15.5"/>
<polygon fill="midnightblue" stroke="midnightblue" points="156.255,-12.0001 146.255,-15.5 156.255,-19.0001 156.255,-12.0001"/>
</g>
<!-- Node3 -->
<g id="node3" class="node"><title>Node3</title>
<g id="a_node3"><a xlink:href="../../d7/d12/classprolog_1_1builtins_1_1db__to__string_a9ce40787f8196bff94e7b1393e0dc51b.html#a9ce40787f8196bff94e7b1393e0dc51b" target="_top" xlink:title="prolog.builtins.db\l_to_string.exec">
<polygon fill="none" stroke="black" points="393.5,-49.5 393.5,-79.5 483.5,-79.5 483.5,-49.5 393.5,-49.5"/>
<text text-anchor="start" x="401.5" y="-67.5" font-family="Helvetica,sans-Serif" font-size="10.00">prolog.builtins.db</text>
<text text-anchor="middle" x="438.5" y="-56.5" font-family="Helvetica,sans-Serif" font-size="10.00">_to_string.exec</text>
</a>
</g>
</g>
<!-- Node2&#45;&gt;Node3 -->
<g id="edge2" class="edge"><title>Node2&#45;&gt;Node3</title>
<path fill="none" stroke="midnightblue" d="M302.471,-27.7422C330.196,-35.2895 365.6,-44.9272 393.2,-52.4404"/>
<polygon fill="midnightblue" stroke="midnightblue" points="303.201,-24.3136 292.633,-25.064 301.363,-31.0678 303.201,-24.3136"/>
</g>
<!-- Node4 -->
<g id="node4" class="node"><title>Node4</title>
<g id="a_node4"><a xlink:href="../../da/dd9/classprolog_1_1fluents_1_1DataBase_a2943c1694ea86572574a57f1a31f11c2.html#a2943c1694ea86572574a57f1a31f11c2" target="_top" xlink:title="prolog.fluents.DataBase.pred\l_to_string">
<polygon fill="none" stroke="black" points="367,-0.5 367,-30.5 510,-30.5 510,-0.5 367,-0.5"/>
<text text-anchor="start" x="375" y="-18.5" font-family="Helvetica,sans-Serif" font-size="10.00">prolog.fluents.DataBase.pred</text>
<text text-anchor="middle" x="438.5" y="-7.5" font-family="Helvetica,sans-Serif" font-size="10.00">_to_string</text>
</a>
</g>
</g>
<!-- Node2&#45;&gt;Node4 -->
<g id="edge3" class="edge"><title>Node2&#45;&gt;Node4</title>
<path fill="none" stroke="midnightblue" d="M341.495,-8.76337C349.955,-8.72565 358.485,-8.76775 366.786,-8.88968"/>
<polygon fill="midnightblue" stroke="midnightblue" points="341.203,-5.26559 331.232,-8.84898 341.261,-12.2654 341.203,-5.26559"/>
</g>
<!-- Node4&#45;&gt;Node2 -->
<g id="edge5" class="edge"><title>Node4&#45;&gt;Node2</title>
<path fill="none" stroke="midnightblue" d="M356.567,-22.2195C348.129,-22.2765 339.584,-22.2537 331.232,-22.151"/>
<polygon fill="midnightblue" stroke="midnightblue" points="356.824,-25.717 366.786,-22.1103 356.749,-18.7174 356.824,-25.717"/>
</g>
<!-- Node5 -->
<g id="node5" class="node"><title>Node5</title>
<g id="a_node5"><a xlink:href="../../d8/d56/classprolog_1_1builtins_1_1pred__to__string_a444ec2879d6ff36fff485e9fea05c43c.html#a444ec2879d6ff36fff485e9fea05c43c" target="_top" xlink:title="prolog.builtins.pred\l_to_string.exec">
<polygon fill="none" stroke="black" points="546,-0.5 546,-30.5 644,-30.5 644,-0.5 546,-0.5"/>
<text text-anchor="start" x="554" y="-18.5" font-family="Helvetica,sans-Serif" font-size="10.00">prolog.builtins.pred</text>
<text text-anchor="middle" x="595" y="-7.5" font-family="Helvetica,sans-Serif" font-size="10.00">_to_string.exec</text>
</a>
</g>
</g>
<!-- Node4&#45;&gt;Node5 -->
<g id="edge4" class="edge"><title>Node4&#45;&gt;Node5</title>
<path fill="none" stroke="midnightblue" d="M520.482,-15.5C529.051,-15.5 537.559,-15.5 545.582,-15.5"/>
<polygon fill="midnightblue" stroke="midnightblue" points="520.419,-12.0001 510.419,-15.5 520.419,-19.0001 520.419,-12.0001"/>
</g>
</g>
</svg>
