<?xml version="1.0" encoding="UTF-8" standalone="no"?>
<!DOCTYPE svg PUBLIC "-//W3C//DTD SVG 1.1//EN"
 "http://www.w3.org/Graphics/SVG/1.1/DTD/svg11.dtd">
<!-- Generated by graphviz version 2.38.0 (20140413.2041)
 -->
<!-- Title: prolog.builtins.get_arity.exec Pages: 1 -->
<svg width="599pt" height="104pt"
 viewBox="0.00 0.00 599.00 104.00" xmlns="http://www.w3.org/2000/svg" xmlns:xlink="http://www.w3.org/1999/xlink">
<g id="graph0" class="graph" transform="scale(1 1) rotate(0) translate(4 100)">
<title>prolog.builtins.get_arity.exec</title>
<!-- Node1 -->
<g id="node1" class="node"><title>Node1</title>
<polygon fill="#bfbfbf" stroke="black" points="0,-33 0,-63 93,-63 93,-33 0,-33"/>
<text text-anchor="start" x="8" y="-51" font-family="Helvetica,sans-Serif" font-size="10.00">prolog.builtins.get</text>
<text text-anchor="middle" x="46.5" y="-40" font-family="Helvetica,sans-Serif" font-size="10.00">_arity.exec</text>
</g>
<!-- Node2 -->
<g id="node2" class="node"><title>Node2</title>
<g id="a_node2"><a xlink:href="../../de/d8d/classprolog_1_1terms_1_1Fun_a95f487cd7555adbc0ae1a08076a0404d.html#a95f487cd7555adbc0ae1a08076a0404d" target="_top" xlink:title="prolog.terms.Fun.getArg">
<polygon fill="none" stroke="black" points="295.5,-76.5 295.5,-95.5 417.5,-95.5 417.5,-76.5 295.5,-76.5"/>
<text text-anchor="middle" x="356.5" y="-83.5" font-family="Helvetica,sans-Serif" font-size="10.00">prolog.terms.Fun.getArg</text>
</a>
</g>
</g>
<!-- Node1&#45;&gt;Node2 -->
<g id="edge1" class="edge"><title>Node1&#45;&gt;Node2</title>
<path fill="none" stroke="midnightblue" d="M93.389,-59.9281C104.948,-62.5923 117.375,-65.1674 129,-67 180.894,-75.181 240.068,-79.9915 284.917,-82.7246"/>
<polygon fill="midnightblue" stroke="midnightblue" points="284.938,-86.2318 295.127,-83.3261 285.35,-79.2439 284.938,-86.2318"/>
</g>
<!-- Node4 -->
<g id="node4" class="node"><title>Node4</title>
<g id="a_node4"><a xlink:href="../../de/d8d/classprolog_1_1terms_1_1Fun_a17d595f2ab8b5c173c519ad5341015c5.html#a17d595f2ab8b5c173c519ad5341015c5" target="_top" xlink:title="prolog.terms.Fun.getArity">
<polygon fill="none" stroke="black" points="129,-38.5 129,-57.5 256,-57.5 256,-38.5 129,-38.5"/>
<text text-anchor="middle" x="192.5" y="-45.5" font-family="Helvetica,sans-Serif" font-size="10.00">prolog.terms.Fun.getArity</text>
</a>
</g>
</g>
<!-- Node1&#45;&gt;Node4 -->
<g id="edge3" class="edge"><title>Node1&#45;&gt;Node4</title>
<path fill="none" stroke="midnightblue" d="M93.0625,-48C101.235,-48 109.936,-48 118.653,-48"/>
<polygon fill="midnightblue" stroke="midnightblue" points="118.863,-51.5001 128.863,-48 118.863,-44.5001 118.863,-51.5001"/>
</g>
<!-- Node5 -->
<g id="node5" class="node"><title>Node5</title>
<g id="a_node5"><a xlink:href="../../de/d8d/classprolog_1_1terms_1_1Fun_a408f688b791b731a83c6a41a8ee32fb0.html#a408f688b791b731a83c6a41a8ee32fb0" target="_top" xlink:title="prolog.terms.Fun.putArg">
<polygon fill="none" stroke="black" points="131.5,-0.5 131.5,-19.5 253.5,-19.5 253.5,-0.5 131.5,-0.5"/>
<text text-anchor="middle" x="192.5" y="-7.5" font-family="Helvetica,sans-Serif" font-size="10.00">prolog.terms.Fun.putArg</text>
</a>
</g>
</g>
<!-- Node1&#45;&gt;Node5 -->
<g id="edge4" class="edge"><title>Node1&#45;&gt;Node5</title>
<path fill="none" stroke="midnightblue" d="M93.0625,-35.9766C109.712,-31.583 128.552,-26.6114 145.26,-22.2023"/>
<polygon fill="midnightblue" stroke="midnightblue" points="146.573,-25.4757 155.349,-19.54 144.787,-18.7074 146.573,-25.4757"/>
</g>
<!-- Node3 -->
<g id="node3" class="node"><title>Node3</title>
<g id="a_node3"><a xlink:href="../../d3/ded/classprolog_1_1terms_1_1Term_ae140fac2c9d066dc897fcfa723060a7a.html#ae140fac2c9d066dc897fcfa723060a7a" target="_top" xlink:title="Dereferences if necessary. ">
<polygon fill="none" stroke="black" points="469,-76.5 469,-95.5 579,-95.5 579,-76.5 469,-76.5"/>
<text text-anchor="middle" x="524" y="-83.5" font-family="Helvetica,sans-Serif" font-size="10.00">prolog.terms.Term.ref</text>
</a>
</g>
</g>
<!-- Node2&#45;&gt;Node3 -->
<g id="edge2" class="edge"><title>Node2&#45;&gt;Node3</title>
<path fill="none" stroke="midnightblue" d="M417.717,-86C431.048,-86 445.223,-86 458.709,-86"/>
<polygon fill="midnightblue" stroke="midnightblue" points="458.862,-89.5001 468.862,-86 458.862,-82.5001 458.862,-89.5001"/>
</g>
<!-- Node6 -->
<g id="node6" class="node"><title>Node6</title>
<g id="a_node6"><a xlink:href="../../d3/ded/classprolog_1_1terms_1_1Term_a84d8fb7e1f816d0dbe3c2c56ed28fdb9.html#a84d8fb7e1f816d0dbe3c2c56ed28fdb9" target="_top" xlink:title="Dereference and unify_to. ">
<polygon fill="none" stroke="black" points="296.5,-38.5 296.5,-57.5 416.5,-57.5 416.5,-38.5 296.5,-38.5"/>
<text text-anchor="middle" x="356.5" y="-45.5" font-family="Helvetica,sans-Serif" font-size="10.00">prolog.terms.Term.unify</text>
</a>
</g>
</g>
<!-- Node5&#45;&gt;Node6 -->
<g id="edge5" class="edge"><title>Node5&#45;&gt;Node6</title>
<path fill="none" stroke="midnightblue" d="M234.379,-19.589C255.853,-24.6261 282.36,-30.8438 305.097,-36.1771"/>
<polygon fill="midnightblue" stroke="midnightblue" points="304.379,-39.6037 314.915,-38.4799 305.978,-32.7887 304.379,-39.6037"/>
</g>
<!-- Node8 -->
<g id="node8" class="node"><title>Node8</title>
<g id="a_node8"><a xlink:href="../../d4/d26/classprolog_1_1terms_1_1Prog_a41eac8617a5002806d7137eb36183405.html#a41eac8617a5002806d7137eb36183405" target="_top" xlink:title="prolog.terms.Prog.getTrail">
<polygon fill="none" stroke="black" points="292,-0.5 292,-19.5 421,-19.5 421,-0.5 292,-0.5"/>
<text text-anchor="middle" x="356.5" y="-7.5" font-family="Helvetica,sans-Serif" font-size="10.00">prolog.terms.Prog.getTrail</text>
</a>
</g>
</g>
<!-- Node5&#45;&gt;Node8 -->
<g id="edge8" class="edge"><title>Node5&#45;&gt;Node8</title>
<path fill="none" stroke="midnightblue" d="M253.823,-10C262.94,-10 272.431,-10 281.791,-10"/>
<polygon fill="midnightblue" stroke="midnightblue" points="281.873,-13.5001 291.873,-10 281.873,-6.5001 281.873,-13.5001"/>
</g>
<!-- Node6&#45;&gt;Node3 -->
<g id="edge6" class="edge"><title>Node6&#45;&gt;Node3</title>
<path fill="none" stroke="midnightblue" d="M399.263,-57.589C421.201,-62.6261 448.28,-68.8438 471.508,-74.1771"/>
<polygon fill="midnightblue" stroke="midnightblue" points="471.008,-77.6533 481.538,-76.4799 472.575,-70.8308 471.008,-77.6533"/>
</g>
<!-- Node7 -->
<g id="node7" class="node"><title>Node7</title>
<g id="a_node7"><a xlink:href="../../d3/ded/classprolog_1_1terms_1_1Term_a866b2cca50e77e99b560578b2fa3a91a.html#a866b2cca50e77e99b560578b2fa3a91a" target="_top" xlink:title="Unify dereferenced. ">
<polygon fill="none" stroke="black" points="457,-38.5 457,-57.5 591,-57.5 591,-38.5 457,-38.5"/>
<text text-anchor="middle" x="524" y="-45.5" font-family="Helvetica,sans-Serif" font-size="10.00">prolog.terms.Term.unify_to</text>
</a>
</g>
</g>
<!-- Node6&#45;&gt;Node7 -->
<g id="edge7" class="edge"><title>Node6&#45;&gt;Node7</title>
<path fill="none" stroke="midnightblue" d="M416.782,-48C426.521,-48 436.732,-48 446.813,-48"/>
<polygon fill="midnightblue" stroke="midnightblue" points="446.828,-51.5001 456.828,-48 446.828,-44.5001 446.828,-51.5001"/>
</g>
</g>
</svg>
