<?xml version="1.0" encoding="UTF-8" standalone="no"?>
<!DOCTYPE svg PUBLIC "-//W3C//DTD SVG 1.1//EN"
 "http://www.w3.org/Graphics/SVG/1.1/DTD/svg11.dtd">
<!-- Generated by graphviz version 2.38.0 (20140413.2041)
 -->
<!-- Title: prolog.terms.Clause.toTerm Pages: 1 -->
<svg width="472pt" height="66pt"
 viewBox="0.00 0.00 472.00 66.00" xmlns="http://www.w3.org/2000/svg" xmlns:xlink="http://www.w3.org/1999/xlink">
<g id="graph0" class="graph" transform="scale(1 1) rotate(0) translate(4 62)">
<title>prolog.terms.Clause.toTerm</title>
<!-- Node1 -->
<g id="node1" class="node"><title>Node1</title>
<polygon fill="#bfbfbf" stroke="black" points="0,-19.5 0,-38.5 138,-38.5 138,-19.5 0,-19.5"/>
<text text-anchor="middle" x="69" y="-26.5" font-family="Helvetica,sans-Serif" font-size="10.00">prolog.terms.Clause.toTerm</text>
</g>
<!-- Node2 -->
<g id="node2" class="node"><title>Node2</title>
<g id="a_node2"><a xlink:href="../../d6/dc4/classprolog_1_1terms_1_1Clause_ab690dc7c5a2d5b6007fbf559a537d262.html#ab690dc7c5a2d5b6007fbf559a537d262" target="_top" xlink:title="Extracts the body of a clause. ">
<polygon fill="none" stroke="black" points="174.5,-38.5 174.5,-57.5 317.5,-57.5 317.5,-38.5 174.5,-38.5"/>
<text text-anchor="middle" x="246" y="-45.5" font-family="Helvetica,sans-Serif" font-size="10.00">prolog.terms.Clause.getBody</text>
</a>
</g>
</g>
<!-- Node1&#45;&gt;Node2 -->
<g id="edge1" class="edge"><title>Node1&#45;&gt;Node2</title>
<path fill="none" stroke="midnightblue" d="M138.161,-36.4003C146.714,-37.329 155.527,-38.2858 164.25,-39.2329"/>
<polygon fill="midnightblue" stroke="midnightblue" points="164.108,-42.738 174.428,-40.3379 164.864,-35.7788 164.108,-42.738"/>
</g>
<!-- Node4 -->
<g id="node4" class="node"><title>Node4</title>
<g id="a_node4"><a xlink:href="../../d6/dc4/classprolog_1_1terms_1_1Clause_a5e5502c9619429232fcb310406256830.html#a5e5502c9619429232fcb310406256830" target="_top" xlink:title="Extracts the head of a clause (a Term). ">
<polygon fill="none" stroke="black" points="174,-0.5 174,-19.5 318,-19.5 318,-0.5 174,-0.5"/>
<text text-anchor="middle" x="246" y="-7.5" font-family="Helvetica,sans-Serif" font-size="10.00">prolog.terms.Clause.getHead</text>
</a>
</g>
</g>
<!-- Node1&#45;&gt;Node4 -->
<g id="edge3" class="edge"><title>Node1&#45;&gt;Node4</title>
<path fill="none" stroke="midnightblue" d="M138.161,-21.5997C146.576,-20.686 155.243,-19.7451 163.828,-18.813"/>
<polygon fill="midnightblue" stroke="midnightblue" points="164.285,-22.284 173.848,-17.725 163.529,-15.3249 164.285,-22.284"/>
</g>
<!-- Node3 -->
<g id="node3" class="node"><title>Node3</title>
<g id="a_node3"><a xlink:href="../../d3/ded/classprolog_1_1terms_1_1Term_ae140fac2c9d066dc897fcfa723060a7a.html#ae140fac2c9d066dc897fcfa723060a7a" target="_top" xlink:title="Dereferences if necessary. ">
<polygon fill="none" stroke="black" points="354,-19.5 354,-38.5 464,-38.5 464,-19.5 354,-19.5"/>
<text text-anchor="middle" x="409" y="-26.5" font-family="Helvetica,sans-Serif" font-size="10.00">prolog.terms.Term.ref</text>
</a>
</g>
</g>
<!-- Node2&#45;&gt;Node3 -->
<g id="edge2" class="edge"><title>Node2&#45;&gt;Node3</title>
<path fill="none" stroke="midnightblue" d="M317.617,-39.6663C326.362,-38.6343 335.264,-37.5837 343.904,-36.5642"/>
<polygon fill="midnightblue" stroke="midnightblue" points="344.379,-40.0325 353.899,-35.3845 343.558,-33.0807 344.379,-40.0325"/>
</g>
<!-- Node4&#45;&gt;Node3 -->
<g id="edge4" class="edge"><title>Node4&#45;&gt;Node3</title>
<path fill="none" stroke="midnightblue" d="M318.086,-18.389C326.59,-19.3926 335.236,-20.4129 343.637,-21.4044"/>
<polygon fill="midnightblue" stroke="midnightblue" points="343.397,-24.9002 353.738,-22.5964 344.217,-17.9485 343.397,-24.9002"/>
</g>
</g>
</svg>
