<?xml version="1.0" encoding="UTF-8" standalone="no"?>
<!DOCTYPE svg PUBLIC "-//W3C//DTD SVG 1.1//EN"
 "http://www.w3.org/Graphics/SVG/1.1/DTD/svg11.dtd">
<!-- Generated by graphviz version 2.38.0 (20140413.2041)
 -->
<!-- Title: prolog.terms.Clause.getRest Pages: 1 -->
<svg width="475pt" height="28pt"
 viewBox="0.00 0.00 475.00 28.00" xmlns="http://www.w3.org/2000/svg" xmlns:xlink="http://www.w3.org/1999/xlink">
<g id="graph0" class="graph" transform="scale(1 1) rotate(0) translate(4 24)">
<title>prolog.terms.Clause.getRest</title>
<!-- Node1 -->
<g id="node1" class="node"><title>Node1</title>
<polygon fill="#bfbfbf" stroke="black" points="0,-0.5 0,-19.5 142,-19.5 142,-0.5 0,-0.5"/>
<text text-anchor="middle" x="71" y="-7.5" font-family="Helvetica,sans-Serif" font-size="10.00">prolog.terms.Clause.getRest</text>
</g>
<!-- Node2 -->
<g id="node2" class="node"><title>Node2</title>
<g id="a_node2"><a xlink:href="../../d6/dc4/classprolog_1_1terms_1_1Clause_ab690dc7c5a2d5b6007fbf559a537d262.html#ab690dc7c5a2d5b6007fbf559a537d262" target="_top" xlink:title="Extracts the body of a clause. ">
<polygon fill="none" stroke="black" points="178,-0.5 178,-19.5 321,-19.5 321,-0.5 178,-0.5"/>
<text text-anchor="middle" x="249.5" y="-7.5" font-family="Helvetica,sans-Serif" font-size="10.00">prolog.terms.Clause.getBody</text>
</a>
</g>
</g>
<!-- Node1&#45;&gt;Node2 -->
<g id="edge1" class="edge"><title>Node1&#45;&gt;Node2</title>
<path fill="none" stroke="midnightblue" d="M142.011,-10C150.52,-10 159.265,-10 167.911,-10"/>
<polygon fill="midnightblue" stroke="midnightblue" points="167.996,-13.5001 177.996,-10 167.996,-6.5001 167.996,-13.5001"/>
</g>
<!-- Node3 -->
<g id="node3" class="node"><title>Node3</title>
<g id="a_node3"><a xlink:href="../../d3/ded/classprolog_1_1terms_1_1Term_ae140fac2c9d066dc897fcfa723060a7a.html#ae140fac2c9d066dc897fcfa723060a7a" target="_top" xlink:title="Dereferences if necessary. ">
<polygon fill="none" stroke="black" points="357,-0.5 357,-19.5 467,-19.5 467,-0.5 357,-0.5"/>
<text text-anchor="middle" x="412" y="-7.5" font-family="Helvetica,sans-Serif" font-size="10.00">prolog.terms.Term.ref</text>
</a>
</g>
</g>
<!-- Node2&#45;&gt;Node3 -->
<g id="edge2" class="edge"><title>Node2&#45;&gt;Node3</title>
<path fill="none" stroke="midnightblue" d="M321.365,-10C329.842,-10 338.462,-10 346.837,-10"/>
<polygon fill="midnightblue" stroke="midnightblue" points="346.907,-13.5001 356.907,-10 346.907,-6.5001 346.907,-13.5001"/>
</g>
</g>
</svg>
