<?xml version="1.0" encoding="UTF-8" standalone="no"?>
<!DOCTYPE svg PUBLIC "-//W3C//DTD SVG 1.1//EN"
 "http://www.w3.org/Graphics/SVG/1.1/DTD/svg11.dtd">
<!-- Generated by graphviz version 2.38.0 (20140413.2041)
 -->
<!-- Title: prolog.terms.Clause.unfold Pages: 1 -->
<svg width="846pt" height="332pt"
 viewBox="0.00 0.00 846.00 332.00" xmlns="http://www.w3.org/2000/svg" xmlns:xlink="http://www.w3.org/1999/xlink">
<g id="graph0" class="graph" transform="scale(1 1) rotate(0) translate(4 328)">
<title>prolog.terms.Clause.unfold</title>
<!-- Node1 -->
<g id="node1" class="node"><title>Node1</title>
<polygon fill="#bfbfbf" stroke="black" points="0,-152.5 0,-171.5 134,-171.5 134,-152.5 0,-152.5"/>
<text text-anchor="middle" x="67" y="-159.5" font-family="Helvetica,sans-Serif" font-size="10.00">prolog.terms.Clause.unfold</text>
</g>
<!-- Node2 -->
<g id="node2" class="node"><title>Node2</title>
<g id="a_node2"><a xlink:href="../../d6/dc4/classprolog_1_1terms_1_1Clause_af03de53b32948f858e2cbfeb697eaf4b.html#af03de53b32948f858e2cbfeb697eaf4b" target="_top" xlink:title="Concatenates 2 Conjunctions. ">
<polygon fill="none" stroke="black" points="348,-76.5 348,-95.5 507,-95.5 507,-76.5 348,-76.5"/>
<text text-anchor="middle" x="427.5" y="-83.5" font-family="Helvetica,sans-Serif" font-size="10.00">prolog.terms.Clause.appendConj</text>
</a>
</g>
</g>
<!-- Node1&#45;&gt;Node2 -->
<g id="edge1" class="edge"><title>Node1&#45;&gt;Node2</title>
<path fill="none" stroke="midnightblue" d="M91.1206,-152.458C111.553,-144.362 142.322,-132.979 170,-126 224.99,-112.135 287.892,-102.236 337.643,-95.7538"/>
<polygon fill="midnightblue" stroke="midnightblue" points="338.256,-99.2039 347.731,-94.4626 337.368,-92.2605 338.256,-99.2039"/>
</g>
<!-- Node4 -->
<g id="node4" class="node"><title>Node4</title>
<g id="a_node4"><a xlink:href="../../d6/dc4/classprolog_1_1terms_1_1Clause_ad1a287e7c18ca6880e5d8f7d97c6acd9.html#ad1a287e7c18ca6880e5d8f7d97c6acd9" target="_top" xlink:title="Creates a copy of the clause with variables standardized apart, i.e. ">
<polygon fill="none" stroke="black" points="174,-304.5 174,-323.5 308,-323.5 308,-304.5 174,-304.5"/>
<text text-anchor="middle" x="241" y="-311.5" font-family="Helvetica,sans-Serif" font-size="10.00">prolog.terms.Clause.ccopy</text>
</a>
</g>
</g>
<!-- Node1&#45;&gt;Node4 -->
<g id="edge3" class="edge"><title>Node1&#45;&gt;Node4</title>
<path fill="none" stroke="midnightblue" d="M73.0518,-171.564C85.9831,-195.149 122.625,-256.597 170,-290 176.064,-294.275 182.954,-297.843 189.989,-300.805"/>
<polygon fill="midnightblue" stroke="midnightblue" points="189.017,-304.18 199.608,-304.478 191.514,-297.641 189.017,-304.18"/>
</g>
<!-- Node5 -->
<g id="node5" class="node"><title>Node5</title>
<g id="a_node5"><a xlink:href="../../d6/dc4/classprolog_1_1terms_1_1Clause_a414492a8d9d648788aadfd423ee32fb0.html#a414492a8d9d648788aadfd423ee32fb0" target="_top" xlink:title="Builds a clause given its head and its body. ">
<polygon fill="none" stroke="black" points="358.5,-266.5 358.5,-285.5 496.5,-285.5 496.5,-266.5 358.5,-266.5"/>
<text text-anchor="middle" x="427.5" y="-273.5" font-family="Helvetica,sans-Serif" font-size="10.00">prolog.terms.Clause.Clause</text>
</a>
</g>
</g>
<!-- Node1&#45;&gt;Node5 -->
<g id="edge8" class="edge"><title>Node1&#45;&gt;Node5</title>
<path fill="none" stroke="midnightblue" d="M77.3824,-171.602C94.2284,-188.194 131.456,-221.988 170,-238 226.806,-261.597 296.046,-270.83 348.263,-274.31"/>
<polygon fill="midnightblue" stroke="midnightblue" points="348.276,-277.817 358.471,-274.932 348.702,-270.83 348.276,-277.817"/>
</g>
<!-- Node9 -->
<g id="node9" class="node"><title>Node9</title>
<g id="a_node9"><a xlink:href="../../d6/dc4/classprolog_1_1terms_1_1Clause_ab690dc7c5a2d5b6007fbf559a537d262.html#ab690dc7c5a2d5b6007fbf559a537d262" target="_top" xlink:title="Extracts the body of a clause. ">
<polygon fill="none" stroke="black" points="356,-171.5 356,-190.5 499,-190.5 499,-171.5 356,-171.5"/>
<text text-anchor="middle" x="427.5" y="-178.5" font-family="Helvetica,sans-Serif" font-size="10.00">prolog.terms.Clause.getBody</text>
</a>
</g>
</g>
<!-- Node1&#45;&gt;Node9 -->
<g id="edge9" class="edge"><title>Node1&#45;&gt;Node9</title>
<path fill="none" stroke="midnightblue" d="M80.2887,-171.655C98.5923,-185.356 134.664,-209.797 170,-219 231.074,-234.907 249.697,-229.068 312,-219 340.998,-214.314 372.588,-203.357 395.227,-194.407"/>
<polygon fill="midnightblue" stroke="midnightblue" points="396.695,-197.589 404.652,-190.593 394.069,-191.1 396.695,-197.589"/>
</g>
<!-- Node10 -->
<g id="node10" class="node"><title>Node10</title>
<g id="a_node10"><a xlink:href="../../d6/dc4/classprolog_1_1terms_1_1Clause_abb4cb737b264c815c48f32a431ec6f5a.html#abb4cb737b264c815c48f32a431ec6f5a" target="_top" xlink:title="Gets the leftmost (first) goal in the body of a clause, i.e. ">
<polygon fill="none" stroke="black" points="171,-190.5 171,-209.5 311,-209.5 311,-190.5 171,-190.5"/>
<text text-anchor="middle" x="241" y="-197.5" font-family="Helvetica,sans-Serif" font-size="10.00">prolog.terms.Clause.getFirst</text>
</a>
</g>
</g>
<!-- Node1&#45;&gt;Node10 -->
<g id="edge11" class="edge"><title>Node1&#45;&gt;Node10</title>
<path fill="none" stroke="midnightblue" d="M111.403,-171.589C134.407,-176.671 162.851,-182.955 187.134,-188.32"/>
<polygon fill="midnightblue" stroke="midnightblue" points="186.39,-191.74 196.909,-190.48 187.9,-184.905 186.39,-191.74"/>
</g>
<!-- Node11 -->
<g id="node11" class="node"><title>Node11</title>
<g id="a_node11"><a xlink:href="../../d6/dc4/classprolog_1_1terms_1_1Clause_a5e5502c9619429232fcb310406256830.html#a5e5502c9619429232fcb310406256830" target="_top" xlink:title="Extracts the head of a clause (a Term). ">
<polygon fill="none" stroke="black" points="355.5,-114.5 355.5,-133.5 499.5,-133.5 499.5,-114.5 355.5,-114.5"/>
<text text-anchor="middle" x="427.5" y="-121.5" font-family="Helvetica,sans-Serif" font-size="10.00">prolog.terms.Clause.getHead</text>
</a>
</g>
</g>
<!-- Node1&#45;&gt;Node11 -->
<g id="edge13" class="edge"><title>Node1&#45;&gt;Node11</title>
<path fill="none" stroke="midnightblue" d="M113.274,-152.458C130.91,-149.033 151.333,-145.422 170,-143 228.31,-135.433 294.497,-130.624 345.032,-127.737"/>
<polygon fill="midnightblue" stroke="midnightblue" points="345.456,-131.219 355.245,-127.167 345.066,-124.23 345.456,-131.219"/>
</g>
<!-- Node12 -->
<g id="node12" class="node"><title>Node12</title>
<g id="a_node12"><a xlink:href="../../d6/dc4/classprolog_1_1terms_1_1Clause_a60e4c0d7e8a9b03c5b073f3c2f023011.html#a60e4c0d7e8a9b03c5b073f3c2f023011" target="_top" xlink:title="Gets all but the leftmost goal in the body of a clause, i.e. ">
<polygon fill="none" stroke="black" points="170,-152.5 170,-171.5 312,-171.5 312,-152.5 170,-152.5"/>
<text text-anchor="middle" x="241" y="-159.5" font-family="Helvetica,sans-Serif" font-size="10.00">prolog.terms.Clause.getRest</text>
</a>
</g>
</g>
<!-- Node1&#45;&gt;Node12 -->
<g id="edge15" class="edge"><title>Node1&#45;&gt;Node12</title>
<path fill="none" stroke="midnightblue" d="M134.008,-162C142.451,-162 151.167,-162 159.804,-162"/>
<polygon fill="midnightblue" stroke="midnightblue" points="159.886,-165.5 169.886,-162 159.886,-158.5 159.886,-165.5"/>
</g>
<!-- Node13 -->
<g id="node13" class="node"><title>Node13</title>
<g id="a_node13"><a xlink:href="../../d3/ded/classprolog_1_1terms_1_1Term_a0a9b83bb831ed6ac6dd508c099007ac0.html#a0a9b83bb831ed6ac6dd508c099007ac0" target="_top" xlink:title="Tests if this term unifies with that. ">
<polygon fill="none" stroke="black" points="172.5,-38.5 172.5,-57.5 309.5,-57.5 309.5,-38.5 172.5,-38.5"/>
<text text-anchor="middle" x="241" y="-45.5" font-family="Helvetica,sans-Serif" font-size="10.00">prolog.terms.Term.matches</text>
</a>
</g>
</g>
<!-- Node1&#45;&gt;Node13 -->
<g id="edge17" class="edge"><title>Node1&#45;&gt;Node13</title>
<path fill="none" stroke="midnightblue" d="M76.3325,-152.493C92.6319,-134.429 130.597,-94.9095 170,-72 177.344,-67.73 185.565,-64.0647 193.719,-60.9765"/>
<polygon fill="midnightblue" stroke="midnightblue" points="194.948,-64.2543 203.204,-57.6147 192.609,-57.6564 194.948,-64.2543"/>
</g>
<!-- Node14 -->
<g id="node14" class="node"><title>Node14</title>
<g id="a_node14"><a xlink:href="../../d3/ded/classprolog_1_1terms_1_1Term_a84d8fb7e1f816d0dbe3c2c56ed28fdb9.html#a84d8fb7e1f816d0dbe3c2c56ed28fdb9" target="_top" xlink:title="Dereference and unify_to. ">
<polygon fill="none" stroke="black" points="181,-0.5 181,-19.5 301,-19.5 301,-0.5 181,-0.5"/>
<text text-anchor="middle" x="241" y="-7.5" font-family="Helvetica,sans-Serif" font-size="10.00">prolog.terms.Term.unify</text>
</a>
</g>
</g>
<!-- Node1&#45;&gt;Node14 -->
<g id="edge18" class="edge"><title>Node1&#45;&gt;Node14</title>
<path fill="none" stroke="midnightblue" d="M72.633,-152.224C84.8533,-127.526 120.459,-62.2281 170,-29 173.056,-26.9505 176.326,-25.1213 179.721,-23.4889"/>
<polygon fill="midnightblue" stroke="midnightblue" points="181.081,-26.714 188.942,-19.611 178.368,-20.2614 181.081,-26.714"/>
</g>
<!-- Node3 -->
<g id="node3" class="node"><title>Node3</title>
<g id="a_node3"><a xlink:href="../../d3/ded/classprolog_1_1terms_1_1Term_ae140fac2c9d066dc897fcfa723060a7a.html#ae140fac2c9d066dc897fcfa723060a7a" target="_top" xlink:title="Dereferences if necessary. ">
<polygon fill="none" stroke="black" points="555,-95.5 555,-114.5 665,-114.5 665,-95.5 555,-95.5"/>
<text text-anchor="middle" x="610" y="-102.5" font-family="Helvetica,sans-Serif" font-size="10.00">prolog.terms.Term.ref</text>
</a>
</g>
</g>
<!-- Node2&#45;&gt;Node3 -->
<g id="edge2" class="edge"><title>Node2&#45;&gt;Node3</title>
<path fill="none" stroke="midnightblue" d="M507.145,-94.2784C519.762,-95.6066 532.687,-96.9671 544.912,-98.2539"/>
<polygon fill="midnightblue" stroke="midnightblue" points="544.682,-101.749 554.993,-99.3151 545.414,-94.7874 544.682,-101.749"/>
</g>
<!-- Node4&#45;&gt;Node5 -->
<g id="edge4" class="edge"><title>Node4&#45;&gt;Node5</title>
<path fill="none" stroke="midnightblue" d="M288.557,-304.411C313.343,-299.306 344.015,-292.989 370.139,-287.608"/>
<polygon fill="midnightblue" stroke="midnightblue" points="371.189,-290.965 380.278,-285.52 369.777,-284.109 371.189,-290.965"/>
</g>
<!-- Node6 -->
<g id="node6" class="node"><title>Node6</title>
<g id="a_node6"><a xlink:href="../../d3/ded/classprolog_1_1terms_1_1Term_a01e5a83e648ee3f89415c0142c4220d4.html#a01e5a83e648ee3f89415c0142c4220d4" target="_top" xlink:title="Returns a copy of a term with variables standardized apart (`fresh variables&#39;). ">
<polygon fill="none" stroke="black" points="367.5,-304.5 367.5,-323.5 487.5,-323.5 487.5,-304.5 367.5,-304.5"/>
<text text-anchor="middle" x="427.5" y="-311.5" font-family="Helvetica,sans-Serif" font-size="10.00">prolog.terms.Term.copy</text>
</a>
</g>
</g>
<!-- Node4&#45;&gt;Node6 -->
<g id="edge5" class="edge"><title>Node4&#45;&gt;Node6</title>
<path fill="none" stroke="midnightblue" d="M308.088,-314C323.949,-314 340.935,-314 356.948,-314"/>
<polygon fill="midnightblue" stroke="midnightblue" points="357.309,-317.5 367.309,-314 357.309,-310.5 357.309,-317.5"/>
</g>
<!-- Node7 -->
<g id="node7" class="node"><title>Node7</title>
<g id="a_node7"><a xlink:href="../../d3/ded/classprolog_1_1terms_1_1Term_a0a660e6cd55f12e49d328e1b84b478a4.html#a0a660e6cd55f12e49d328e1b84b478a4" target="_top" xlink:title="Defines the reaction to an agent recursing over the structure of a term. ">
<polygon fill="none" stroke="black" points="543,-304.5 543,-323.5 677,-323.5 677,-304.5 543,-304.5"/>
<text text-anchor="middle" x="610" y="-311.5" font-family="Helvetica,sans-Serif" font-size="10.00">prolog.terms.Term.reaction</text>
</a>
</g>
</g>
<!-- Node6&#45;&gt;Node7 -->
<g id="edge6" class="edge"><title>Node6&#45;&gt;Node7</title>
<path fill="none" stroke="midnightblue" d="M487.602,-314C501.971,-314 517.54,-314 532.584,-314"/>
<polygon fill="midnightblue" stroke="midnightblue" points="532.893,-317.5 542.893,-314 532.893,-310.5 532.893,-317.5"/>
</g>
<!-- Node8 -->
<g id="node8" class="node"><title>Node8</title>
<g id="a_node8"><a xlink:href="../../d3/ded/classprolog_1_1terms_1_1Term_aa52e271c0f6784dbde9aa4f5f3ab0268.html#aa52e271c0f6784dbde9aa4f5f3ab0268" target="_top" xlink:title="Identity action. ">
<polygon fill="none" stroke="black" points="713,-304.5 713,-323.5 838,-323.5 838,-304.5 713,-304.5"/>
<text text-anchor="middle" x="775.5" y="-311.5" font-family="Helvetica,sans-Serif" font-size="10.00">prolog.terms.Term.action</text>
</a>
</g>
</g>
<!-- Node7&#45;&gt;Node8 -->
<g id="edge7" class="edge"><title>Node7&#45;&gt;Node8</title>
<path fill="none" stroke="midnightblue" d="M677.03,-314C685.566,-314 694.34,-314 702.96,-314"/>
<polygon fill="midnightblue" stroke="midnightblue" points="702.984,-317.5 712.984,-314 702.984,-310.5 702.984,-317.5"/>
</g>
<!-- Node9&#45;&gt;Node3 -->
<g id="edge10" class="edge"><title>Node9&#45;&gt;Node3</title>
<path fill="none" stroke="midnightblue" d="M451.36,-171.375C483.097,-158.012 540.663,-133.773 576.754,-118.577"/>
<polygon fill="midnightblue" stroke="midnightblue" points="578.467,-121.654 586.325,-114.547 575.751,-115.202 578.467,-121.654"/>
</g>
<!-- Node10&#45;&gt;Node9 -->
<g id="edge12" class="edge"><title>Node10&#45;&gt;Node9</title>
<path fill="none" stroke="midnightblue" d="M311.226,-192.871C322.535,-191.706 334.337,-190.491 345.892,-189.301"/>
<polygon fill="midnightblue" stroke="midnightblue" points="346.375,-192.77 355.964,-188.264 345.658,-185.807 346.375,-192.77"/>
</g>
<!-- Node11&#45;&gt;Node3 -->
<g id="edge14" class="edge"><title>Node11&#45;&gt;Node3</title>
<path fill="none" stroke="midnightblue" d="M499.579,-116.518C514.488,-114.949 530.129,-113.302 544.771,-111.761"/>
<polygon fill="midnightblue" stroke="midnightblue" points="545.148,-115.241 554.726,-110.713 544.415,-108.279 545.148,-115.241"/>
</g>
<!-- Node12&#45;&gt;Node9 -->
<g id="edge16" class="edge"><title>Node12&#45;&gt;Node9</title>
<path fill="none" stroke="midnightblue" d="M312.015,-169.21C323.019,-170.343 334.473,-171.523 345.697,-172.679"/>
<polygon fill="midnightblue" stroke="midnightblue" points="345.615,-176.189 355.921,-173.732 346.332,-169.226 345.615,-176.189"/>
</g>
<!-- Node14&#45;&gt;Node3 -->
<g id="edge19" class="edge"><title>Node14&#45;&gt;Node3</title>
<path fill="none" stroke="midnightblue" d="M301.108,-4.94116C356.173,-2.359 439.664,-3.96413 507,-29 541.412,-41.7946 574.146,-70.0233 592.869,-88.244"/>
<polygon fill="midnightblue" stroke="midnightblue" points="590.45,-90.7752 599.999,-95.3659 595.397,-85.8226 590.45,-90.7752"/>
</g>
<!-- Node15 -->
<g id="node15" class="node"><title>Node15</title>
<g id="a_node15"><a xlink:href="../../d3/ded/classprolog_1_1terms_1_1Term_a866b2cca50e77e99b560578b2fa3a91a.html#a866b2cca50e77e99b560578b2fa3a91a" target="_top" xlink:title="Unify dereferenced. ">
<polygon fill="none" stroke="black" points="360.5,-38.5 360.5,-57.5 494.5,-57.5 494.5,-38.5 360.5,-38.5"/>
<text text-anchor="middle" x="427.5" y="-45.5" font-family="Helvetica,sans-Serif" font-size="10.00">prolog.terms.Term.unify_to</text>
</a>
</g>
</g>
<!-- Node14&#45;&gt;Node15 -->
<g id="edge20" class="edge"><title>Node14&#45;&gt;Node15</title>
<path fill="none" stroke="midnightblue" d="M288.557,-19.589C313.343,-24.6939 344.015,-31.0113 370.139,-36.3918"/>
<polygon fill="midnightblue" stroke="midnightblue" points="369.777,-39.8906 380.278,-38.4799 371.189,-33.0345 369.777,-39.8906"/>
</g>
</g>
</svg>
