<?xml version="1.0" encoding="UTF-8" standalone="no"?>
<!DOCTYPE svg PUBLIC "-//W3C//DTD SVG 1.1//EN"
 "http://www.w3.org/Graphics/SVG/1.1/DTD/svg11.dtd">
<!-- Generated by graphviz version 2.38.0 (20140413.2041)
 -->
<!-- Title: prolog.terms.Clause.Clause Pages: 1 -->
<!--zoomable 370 -->
<svg id="main" version="1.1" xmlns="http://www.w3.org/2000/svg" xmlns:xlink="http://www.w3.org/1999/xlink" xml:space="preserve" onload="init(evt)">
<style type="text/css"><![CDATA[
.edge:hover path { stroke: red; }
.edge:hover polygon { stroke: red; fill: red; }
]]></style>
<script type="text/javascript"><![CDATA[
var edges = document.getElementsByTagName('g');
if (edges && edges.length) {
  for (var i=0;i<edges.length;i++) {
    if (edges[i].id.substr(0,4)=='edge') {
      edges[i].setAttribute('class','edge');
    }
  }
}
]]></script>
        <defs>
                <circle id="rim" cx="0" cy="0" r="7"/>
                <circle id="rim2" cx="0" cy="0" r="3.5"/>
                <g id="zoomPlus">
                        <use xlink:href="#rim" fill="#404040">
                                <set attributeName="fill" to="#808080" begin="zoomplus.mouseover" end="zoomplus.mouseout"/>
                        </use>
                        <path d="M-4,0h8M0,-4v8" fill="none" stroke="white" stroke-width="1.5" pointer-events="none"/>
                </g>
                <g id="zoomMin">
                        <use xlink:href="#rim" fill="#404040">
                                <set attributeName="fill" to="#808080" begin="zoomminus.mouseover" end="zoomminus.mouseout"/>
                        </use>
                        <path d="M-4,0h8" fill="none" stroke="white" stroke-width="1.5" pointer-events="none"/>
                </g>
                <g id="dirArrow">
                        <path fill="none" stroke="white" stroke-width="1.5" d="M0,-3.0v7 M-2.5,-0.5L0,-3.0L2.5,-0.5"/>
                </g>
               <g id="resetDef">
                       <use xlink:href="#rim2" fill="#404040">
                               <set attributeName="fill" to="#808080" begin="reset.mouseover" end="reset.mouseout"/>
                       </use>
               </g>
        </defs>

<script type="text/javascript">
var viewWidth = 2144;
var viewHeight = 370;
var sectionId = 'dynsection-0';
</script>
<script xlink:href="../../svgpan.js"/>
<svg id="graph" class="graph">
<g id="viewport">
<title>prolog.terms.Clause.Clause</title>
<!-- Node1 -->
<g id="node1" class="node"><title>Node1</title>
<polygon fill="#bfbfbf" stroke="black" points="0,-228.5 0,-247.5 138,-247.5 138,-228.5 0,-228.5"/>
<text text-anchor="middle" x="69" y="-235.5" font-family="Helvetica,sans-Serif" font-size="10.00">prolog.terms.Clause.Clause</text>
</g>
<!-- Node2 -->
<g id="node2" class="node"><title>Node2</title>
<g id="a_node2"><a xlink:href="../../d6/dc4/classprolog_1_1terms_1_1Clause_a253e30217e7c206f42b947ba0dc7d754.html#a253e30217e7c206f42b947ba0dc7d754" target="_top" xlink:title="Extracts a clause from its String representation. ">
<polygon fill="none" stroke="black" points="174,-223 174,-253 310,-253 310,-223 174,-223"/>
<text text-anchor="start" x="182" y="-241" font-family="Helvetica,sans-Serif" font-size="10.00">prolog.terms.Clause.clause</text>
<text text-anchor="middle" x="242" y="-230" font-family="Helvetica,sans-Serif" font-size="10.00">FromString</text>
</a>
</g>
</g>
<!-- Node1&#45;&gt;Node2 -->
<g id="edge1" class="edge"><title>Node1&#45;&gt;Node2</title>
<path fill="none" stroke="midnightblue" d="M138.075,-238C146.577,-238 155.319,-238 163.945,-238"/>
<polygon fill="midnightblue" stroke="midnightblue" points="163.996,-241.5 173.996,-238 163.996,-234.5 163.996,-241.5"/>
</g>
<!-- Node3 -->
<g id="node3" class="node"><title>Node3</title>
<g id="a_node3"><a xlink:href="../../d7/df1/classprolog_1_1io_1_1Parser_acd7f700bcb96620b8c6770c2fcae5802.html#acd7f700bcb96620b8c6770c2fcae5802" target="_top" xlink:title="prolog.io.Parser.clsFrom\lString">
<polygon fill="none" stroke="black" points="346,-223 346,-253 469,-253 469,-223 346,-223"/>
<text text-anchor="start" x="354" y="-241" font-family="Helvetica,sans-Serif" font-size="10.00">prolog.io.Parser.clsFrom</text>
<text text-anchor="middle" x="407.5" y="-230" font-family="Helvetica,sans-Serif" font-size="10.00">String</text>
</a>
</g>
</g>
<!-- Node2&#45;&gt;Node3 -->
<g id="edge2" class="edge"><title>Node2&#45;&gt;Node3</title>
<path fill="none" stroke="midnightblue" d="M310.446,-238C318.763,-238 327.285,-238 335.651,-238"/>
<polygon fill="midnightblue" stroke="midnightblue" points="335.755,-241.5 345.755,-238 335.755,-234.5 335.755,-241.5"/>
</g>
<!-- Node4 -->
<g id="node4" class="node"><title>Node4</title>
<g id="a_node4"><a xlink:href="../../d4/dc2/classprolog_1_1io_1_1IO_ab6e0553457312c4804472cbe1c646a28.html#ab6e0553457312c4804472cbe1c646a28" target="_top" xlink:title="prolog.io.IO.errmes">
<polygon fill="none" stroke="black" points="894.5,-342.5 894.5,-361.5 994.5,-361.5 994.5,-342.5 894.5,-342.5"/>
<text text-anchor="middle" x="944.5" y="-349.5" font-family="Helvetica,sans-Serif" font-size="10.00">prolog.io.IO.errmes</text>
</a>
</g>
</g>
<!-- Node3&#45;&gt;Node4 -->
<g id="edge3" class="edge"><title>Node3&#45;&gt;Node4</title>
<path fill="none" stroke="midnightblue" d="M444.417,-253.027C462.456,-260.348 484.733,-269.048 505,-276 590.005,-305.159 610.612,-316.764 699,-333 761.551,-344.49 834.35,-349.04 884.141,-350.837"/>
<polygon fill="midnightblue" stroke="midnightblue" points="884.293,-354.344 894.404,-351.18 884.527,-347.348 884.293,-354.344"/>
</g>
<!-- Node9 -->
<g id="node9" class="node"><title>Node9</title>
<g id="a_node9"><a xlink:href="../../d7/df1/classprolog_1_1io_1_1Parser_a805ee6cac7b9b310a79a5449f8ce516b.html#a805ee6cac7b9b310a79a5449f8ce516b" target="_top" xlink:title="prolog.io.Parser.Parser">
<polygon fill="none" stroke="black" points="526,-209.5 526,-228.5 642,-228.5 642,-209.5 526,-209.5"/>
<text text-anchor="middle" x="584" y="-216.5" font-family="Helvetica,sans-Serif" font-size="10.00">prolog.io.Parser.Parser</text>
</a>
</g>
</g>
<!-- Node3&#45;&gt;Node9 -->
<g id="edge8" class="edge"><title>Node3&#45;&gt;Node9</title>
<path fill="none" stroke="midnightblue" d="M469.042,-231.408C484.142,-229.764 500.423,-227.991 515.822,-226.314"/>
<polygon fill="midnightblue" stroke="midnightblue" points="516.231,-229.791 525.793,-225.229 515.473,-222.832 516.231,-229.791"/>
</g>
<!-- Node10 -->
<g id="node10" class="node"><title>Node10</title>
<g id="a_node10"><a xlink:href="../../d7/df1/classprolog_1_1io_1_1Parser_af7c0029aaf5a91f51780e12ce99cf277.html#af7c0029aaf5a91f51780e12ce99cf277" target="_top" xlink:title="prolog.io.Parser.patchEOFString">
<polygon fill="none" stroke="black" points="505,-171.5 505,-190.5 663,-190.5 663,-171.5 505,-171.5"/>
<text text-anchor="middle" x="584" y="-178.5" font-family="Helvetica,sans-Serif" font-size="10.00">prolog.io.Parser.patchEOFString</text>
</a>
</g>
</g>
<!-- Node3&#45;&gt;Node10 -->
<g id="edge9" class="edge"><title>Node3&#45;&gt;Node10</title>
<path fill="none" stroke="midnightblue" d="M443.378,-222.936C461.538,-215.434 484.232,-206.585 505,-200 512.84,-197.514 521.209,-195.165 529.448,-193.021"/>
<polygon fill="midnightblue" stroke="midnightblue" points="530.549,-196.354 539.389,-190.513 528.836,-189.566 530.549,-196.354"/>
</g>
<!-- Node11 -->
<g id="node11" class="node"><title>Node11</title>
<g id="a_node11"><a xlink:href="../../d7/df1/classprolog_1_1io_1_1Parser_ad0255f716753ec63c0f4e7cf9a8d2d38.html#ad0255f716753ec63c0f4e7cf9a8d2d38" target="_top" xlink:title="Main Parser interface: reads a clause together with variable name information. ">
<polygon fill="none" stroke="black" points="515.5,-247.5 515.5,-266.5 652.5,-266.5 652.5,-247.5 515.5,-247.5"/>
<text text-anchor="middle" x="584" y="-254.5" font-family="Helvetica,sans-Serif" font-size="10.00">prolog.io.Parser.readClause</text>
</a>
</g>
</g>
<!-- Node3&#45;&gt;Node11 -->
<g id="edge10" class="edge"><title>Node3&#45;&gt;Node11</title>
<path fill="none" stroke="midnightblue" d="M469.042,-244.592C480.731,-245.865 493.129,-247.215 505.276,-248.537"/>
<polygon fill="midnightblue" stroke="midnightblue" points="505.081,-252.037 515.401,-249.64 505.839,-245.078 505.081,-252.037"/>
</g>
<!-- Node5 -->
<g id="node5" class="node"><title>Node5</title>
<g id="a_node5"><a xlink:href="../../d4/dc2/classprolog_1_1io_1_1IO_a22a9a2bfe9fa6e00257369f5bf078a44.html#a22a9a2bfe9fa6e00257369f5bf078a44" target="_top" xlink:title="prolog.io.IO.getStdOutput">
<polygon fill="none" stroke="black" points="1057,-342.5 1057,-361.5 1185,-361.5 1185,-342.5 1057,-342.5"/>
<text text-anchor="middle" x="1121" y="-349.5" font-family="Helvetica,sans-Serif" font-size="10.00">prolog.io.IO.getStdOutput</text>
</a>
</g>
</g>
<!-- Node4&#45;&gt;Node5 -->
<g id="edge4" class="edge"><title>Node4&#45;&gt;Node5</title>
<path fill="none" stroke="midnightblue" d="M994.572,-352C1010.75,-352 1029.11,-352 1046.7,-352"/>
<polygon fill="midnightblue" stroke="midnightblue" points="1046.94,-355.5 1056.94,-352 1046.94,-348.5 1046.94,-355.5"/>
</g>
<!-- Node6 -->
<g id="node6" class="node"><title>Node6</title>
<g id="a_node6"><a xlink:href="../../d4/dc2/classprolog_1_1io_1_1IO_ad851906c6ebd6559eb1b1fa52e26dabb.html#ad851906c6ebd6559eb1b1fa52e26dabb" target="_top" xlink:title="prolog.io.IO.println">
<polygon fill="none" stroke="black" points="1073,-304.5 1073,-323.5 1169,-323.5 1169,-304.5 1073,-304.5"/>
<text text-anchor="middle" x="1121" y="-311.5" font-family="Helvetica,sans-Serif" font-size="10.00">prolog.io.IO.println</text>
</a>
</g>
</g>
<!-- Node4&#45;&gt;Node6 -->
<g id="edge5" class="edge"><title>Node4&#45;&gt;Node6</title>
<path fill="none" stroke="midnightblue" d="M989.534,-342.411C1012.87,-337.329 1041.73,-331.045 1066.37,-325.68"/>
<polygon fill="midnightblue" stroke="midnightblue" points="1067.26,-329.068 1076.28,-323.52 1065.77,-322.228 1067.26,-329.068"/>
</g>
<!-- Node7 -->
<g id="node7" class="node"><title>Node7</title>
<g id="a_node7"><a xlink:href="../../d4/dc2/classprolog_1_1io_1_1IO_aab64872af087c6cd9c5dd13e9f4eda00.html#aab64872af087c6cd9c5dd13e9f4eda00" target="_top" xlink:title="prolog.io.IO.print">
<polygon fill="none" stroke="black" points="1232.5,-304.5 1232.5,-323.5 1321.5,-323.5 1321.5,-304.5 1232.5,-304.5"/>
<text text-anchor="middle" x="1277" y="-311.5" font-family="Helvetica,sans-Serif" font-size="10.00">prolog.io.IO.print</text>
</a>
</g>
</g>
<!-- Node6&#45;&gt;Node7 -->
<g id="edge6" class="edge"><title>Node6&#45;&gt;Node7</title>
<path fill="none" stroke="midnightblue" d="M1169.04,-314C1185.74,-314 1204.67,-314 1221.91,-314"/>
<polygon fill="midnightblue" stroke="midnightblue" points="1222.4,-317.5 1232.4,-314 1222.4,-310.5 1222.4,-317.5"/>
</g>
<!-- Node8 -->
<g id="node8" class="node"><title>Node8</title>
<g id="a_node8"><a xlink:href="../../d6/d92/interfaceprolog_1_1io_1_1IOPeer_abc1f90b85b358011e2595069d38ac25f.html#abc1f90b85b358011e2595069d38ac25f" target="_top" xlink:title="prolog.io.IOPeer.print">
<polygon fill="none" stroke="black" points="1375,-304.5 1375,-323.5 1484,-323.5 1484,-304.5 1375,-304.5"/>
<text text-anchor="middle" x="1429.5" y="-311.5" font-family="Helvetica,sans-Serif" font-size="10.00">prolog.io.IOPeer.print</text>
</a>
</g>
</g>
<!-- Node7&#45;&gt;Node8 -->
<g id="edge7" class="edge"><title>Node7&#45;&gt;Node8</title>
<path fill="none" stroke="midnightblue" d="M1321.53,-314C1334.94,-314 1350,-314 1364.49,-314"/>
<polygon fill="midnightblue" stroke="midnightblue" points="1364.91,-317.5 1374.91,-314 1364.91,-310.5 1364.91,-317.5"/>
</g>
<!-- Node12 -->
<g id="node12" class="node"><title>Node12</title>
<g id="a_node12"><a xlink:href="../../d9/d79/classprolog_1_1io_1_1Lexer_a90d92dba0d750fe7cd01d42ac09af5dd.html#a90d92dba0d750fe7cd01d42ac09af5dd" target="_top" xlink:title="prolog.io.Lexer.atEOC">
<polygon fill="none" stroke="black" points="711.5,-228.5 711.5,-247.5 824.5,-247.5 824.5,-228.5 711.5,-228.5"/>
<text text-anchor="middle" x="768" y="-235.5" font-family="Helvetica,sans-Serif" font-size="10.00">prolog.io.Lexer.atEOC</text>
</a>
</g>
</g>
<!-- Node11&#45;&gt;Node12 -->
<g id="edge11" class="edge"><title>Node11&#45;&gt;Node12</title>
<path fill="none" stroke="midnightblue" d="M652.511,-249.952C668.445,-248.289 685.409,-246.518 701.262,-244.863"/>
<polygon fill="midnightblue" stroke="midnightblue" points="701.915,-248.314 711.498,-243.794 701.189,-241.351 701.915,-248.314"/>
</g>
<!-- Node13 -->
<g id="node13" class="node"><title>Node13</title>
<g id="a_node13"><a xlink:href="../../d9/d79/classprolog_1_1io_1_1Lexer_a78f1607b4ab73e4e1bc28415dbe83cc0.html#a78f1607b4ab73e4e1bc28415dbe83cc0" target="_top" xlink:title="prolog.io.Lexer.atEOF">
<polygon fill="none" stroke="black" points="712,-266.5 712,-285.5 824,-285.5 824,-266.5 712,-266.5"/>
<text text-anchor="middle" x="768" y="-273.5" font-family="Helvetica,sans-Serif" font-size="10.00">prolog.io.Lexer.atEOF</text>
</a>
</g>
</g>
<!-- Node11&#45;&gt;Node13 -->
<g id="edge12" class="edge"><title>Node11&#45;&gt;Node13</title>
<path fill="none" stroke="midnightblue" d="M652.511,-264.048C668.528,-265.72 685.586,-267.501 701.51,-269.163"/>
<polygon fill="midnightblue" stroke="midnightblue" points="701.479,-272.679 711.789,-270.236 702.206,-265.717 701.479,-272.679"/>
</g>
<!-- Node16 -->
<g id="node16" class="node"><title>Node16</title>
<g id="a_node16"><a xlink:href="../../d7/df1/classprolog_1_1io_1_1Parser_aafef312f551e1239883d8befd06b6b1b.html#aafef312f551e1239883d8befd06b6b1b" target="_top" xlink:title="prolog.io.Parser.errorClause">
<polygon fill="none" stroke="black" points="699,-304.5 699,-323.5 837,-323.5 837,-304.5 699,-304.5"/>
<text text-anchor="middle" x="768" y="-311.5" font-family="Helvetica,sans-Serif" font-size="10.00">prolog.io.Parser.errorClause</text>
</a>
</g>
</g>
<!-- Node11&#45;&gt;Node16 -->
<g id="edge17" class="edge"><title>Node11&#45;&gt;Node16</title>
<path fill="none" stroke="midnightblue" d="M612.521,-266.597C635.535,-274.52 669.277,-285.9 699,-295 706.335,-297.246 714.147,-299.529 721.764,-301.697"/>
<polygon fill="midnightblue" stroke="midnightblue" points="721.036,-305.128 731.61,-304.468 722.933,-298.389 721.036,-305.128"/>
</g>
<!-- Node18 -->
<g id="node18" class="node"><title>Node18</title>
<g id="a_node18"><a xlink:href="../../d9/d79/classprolog_1_1io_1_1Lexer_af90567b8e92b07af09c8f60a587d8404.html#af90567b8e92b07af09c8f60a587d8404" target="_top" xlink:title="prolog.io.Lexer.next">
<polygon fill="none" stroke="black" points="1226,-133.5 1226,-152.5 1328,-152.5 1328,-133.5 1226,-133.5"/>
<text text-anchor="middle" x="1277" y="-140.5" font-family="Helvetica,sans-Serif" font-size="10.00">prolog.io.Lexer.next</text>
</a>
</g>
</g>
<!-- Node11&#45;&gt;Node18 -->
<g id="edge20" class="edge"><title>Node11&#45;&gt;Node18</title>
<path fill="none" stroke="midnightblue" d="M632.179,-247.493C642.483,-244.869 653.225,-241.705 663,-238 679.917,-231.588 681.714,-224.339 699,-219 908.854,-154.178 973.568,-200.382 1190,-163 1202.75,-160.797 1216.45,-157.872 1229.08,-154.941"/>
<polygon fill="midnightblue" stroke="midnightblue" points="1230.02,-158.315 1238.94,-152.602 1228.4,-151.504 1230.02,-158.315"/>
</g>
<!-- Node32 -->
<g id="node32" class="node"><title>Node32</title>
<g id="a_node32"><a xlink:href="../../d7/df1/classprolog_1_1io_1_1Parser_a79322090cfbd908b02c83db6c65806d2.html#a79322090cfbd908b02c83db6c65806d2" target="_top" xlink:title="prolog.io.Parser.readClause\lOrEOF">
<polygon fill="none" stroke="black" points="699.5,-109 699.5,-139 836.5,-139 836.5,-109 699.5,-109"/>
<text text-anchor="start" x="707.5" y="-127" font-family="Helvetica,sans-Serif" font-size="10.00">prolog.io.Parser.readClause</text>
<text text-anchor="middle" x="768" y="-116" font-family="Helvetica,sans-Serif" font-size="10.00">OrEOF</text>
</a>
</g>
</g>
<!-- Node11&#45;&gt;Node32 -->
<g id="edge36" class="edge"><title>Node11&#45;&gt;Node32</title>
<path fill="none" stroke="midnightblue" d="M644.481,-247.409C651.04,-244.951 657.372,-241.868 663,-238 686.166,-222.08 680.496,-207.16 699,-186 711.628,-171.559 727.371,-157.025 740.527,-145.661"/>
<polygon fill="midnightblue" stroke="midnightblue" points="742.982,-148.169 748.334,-139.025 738.448,-142.835 742.982,-148.169"/>
</g>
<!-- Node14 -->
<g id="node14" class="node"><title>Node14</title>
<g id="a_node14"><a xlink:href="../../d4/dc2/classprolog_1_1io_1_1IO_aaa553b2e5bb8b5de129d38fe67293316.html#aaa553b2e5bb8b5de129d38fe67293316" target="_top" xlink:title="prolog.io.IO.trace">
<polygon fill="none" stroke="black" points="898.5,-266.5 898.5,-285.5 990.5,-285.5 990.5,-266.5 898.5,-266.5"/>
<text text-anchor="middle" x="944.5" y="-273.5" font-family="Helvetica,sans-Serif" font-size="10.00">prolog.io.IO.trace</text>
</a>
</g>
</g>
<!-- Node13&#45;&gt;Node14 -->
<g id="edge13" class="edge"><title>Node13&#45;&gt;Node14</title>
<path fill="none" stroke="midnightblue" d="M824.213,-276C844.628,-276 867.76,-276 888.184,-276"/>
<polygon fill="midnightblue" stroke="midnightblue" points="888.278,-279.5 898.278,-276 888.278,-272.5 888.278,-279.5"/>
</g>
<!-- Node14&#45;&gt;Node5 -->
<g id="edge14" class="edge"><title>Node14&#45;&gt;Node5</title>
<path fill="none" stroke="midnightblue" d="M990.63,-284.203C999.406,-286.875 1008.27,-290.389 1016,-295 1035.98,-306.918 1032.08,-320.99 1052,-333 1055.6,-335.171 1059.46,-337.102 1063.44,-338.817"/>
<polygon fill="midnightblue" stroke="midnightblue" points="1062.3,-342.128 1072.89,-342.441 1064.81,-335.592 1062.3,-342.128"/>
</g>
<!-- Node14&#45;&gt;Node6 -->
<g id="edge15" class="edge"><title>Node14&#45;&gt;Node6</title>
<path fill="none" stroke="midnightblue" d="M989.534,-285.589C1012.87,-290.671 1041.73,-296.955 1066.37,-302.32"/>
<polygon fill="midnightblue" stroke="midnightblue" points="1065.77,-305.772 1076.28,-304.48 1067.26,-298.932 1065.77,-305.772"/>
</g>
<!-- Node15 -->
<g id="node15" class="node"><title>Node15</title>
<g id="a_node15"><a xlink:href="../../d6/d92/interfaceprolog_1_1io_1_1IOPeer_a780dd51c62dba4c266286171101b2cee.html#a780dd51c62dba4c266286171101b2cee" target="_top" xlink:title="prolog.io.IOPeer.traceln">
<polygon fill="none" stroke="black" points="1061.5,-266.5 1061.5,-285.5 1180.5,-285.5 1180.5,-266.5 1061.5,-266.5"/>
<text text-anchor="middle" x="1121" y="-273.5" font-family="Helvetica,sans-Serif" font-size="10.00">prolog.io.IOPeer.traceln</text>
</a>
</g>
</g>
<!-- Node14&#45;&gt;Node15 -->
<g id="edge16" class="edge"><title>Node14&#45;&gt;Node15</title>
<path fill="none" stroke="midnightblue" d="M990.892,-276C1009.29,-276 1030.95,-276 1051.21,-276"/>
<polygon fill="midnightblue" stroke="midnightblue" points="1051.34,-279.5 1061.34,-276 1051.34,-272.5 1051.34,-279.5"/>
</g>
<!-- Node16&#45;&gt;Node4 -->
<g id="edge18" class="edge"><title>Node16&#45;&gt;Node4</title>
<path fill="none" stroke="midnightblue" d="M813.034,-323.589C836.372,-328.671 865.23,-334.955 889.866,-340.32"/>
<polygon fill="midnightblue" stroke="midnightblue" points="889.267,-343.772 899.783,-342.48 890.757,-336.932 889.267,-343.772"/>
</g>
<!-- Node17 -->
<g id="node17" class="node"><title>Node17</title>
<g id="a_node17"><a xlink:href="../../d6/dc4/classprolog_1_1terms_1_1Clause_a42d56fcb3bedfc14a0ab04dacf08d9e0.html#a42d56fcb3bedfc14a0ab04dacf08d9e0" target="_top" xlink:title="Pretty prints a clause after replacing ugly variable names. ">
<polygon fill="none" stroke="black" points="879,-304.5 879,-323.5 1010,-323.5 1010,-304.5 879,-304.5"/>
<text text-anchor="middle" x="944.5" y="-311.5" font-family="Helvetica,sans-Serif" font-size="10.00">prolog.terms.Clause.pprint</text>
</a>
</g>
</g>
<!-- Node16&#45;&gt;Node17 -->
<g id="edge19" class="edge"><title>Node16&#45;&gt;Node17</title>
<path fill="none" stroke="midnightblue" d="M837.216,-314C847.468,-314 858.089,-314 868.474,-314"/>
<polygon fill="midnightblue" stroke="midnightblue" points="868.758,-317.5 878.758,-314 868.758,-310.5 868.758,-317.5"/>
</g>
<!-- Node19 -->
<g id="node19" class="node"><title>Node19</title>
<g id="a_node19"><a xlink:href="../../d9/d79/classprolog_1_1io_1_1Lexer_a4cfb6744572df2bf663b200438b38f6f.html#a4cfb6744572df2bf663b200438b38f6f" target="_top" xlink:title="prolog.io.Lexer.char2string">
<polygon fill="none" stroke="black" points="1364,-190.5 1364,-209.5 1495,-209.5 1495,-190.5 1364,-190.5"/>
<text text-anchor="middle" x="1429.5" y="-197.5" font-family="Helvetica,sans-Serif" font-size="10.00">prolog.io.Lexer.char2string</text>
</a>
</g>
</g>
<!-- Node18&#45;&gt;Node19 -->
<g id="edge21" class="edge"><title>Node18&#45;&gt;Node19</title>
<path fill="none" stroke="midnightblue" d="M1302.81,-152.598C1319.98,-159.219 1343.36,-168.199 1364,-176 1373.46,-179.574 1383.71,-183.407 1393.2,-186.937"/>
<polygon fill="midnightblue" stroke="midnightblue" points="1392.15,-190.282 1402.74,-190.483 1394.59,-183.72 1392.15,-190.282"/>
</g>
<!-- Node20 -->
<g id="node20" class="node"><title>Node20</title>
<g id="a_node20"><a xlink:href="../../d9/d79/classprolog_1_1io_1_1Lexer_a9fbdd67572706c48a026047f818f2e7a.html#a9fbdd67572706c48a026047f818f2e7a" target="_top" xlink:title="prolog.io.Lexer.getWord">
<polygon fill="none" stroke="black" points="1369.5,-114.5 1369.5,-133.5 1489.5,-133.5 1489.5,-114.5 1369.5,-114.5"/>
<text text-anchor="middle" x="1429.5" y="-121.5" font-family="Helvetica,sans-Serif" font-size="10.00">prolog.io.Lexer.getWord</text>
</a>
</g>
</g>
<!-- Node18&#45;&gt;Node20 -->
<g id="edge22" class="edge"><title>Node18&#45;&gt;Node20</title>
<path fill="none" stroke="midnightblue" d="M1328.11,-136.673C1338.16,-135.405 1348.88,-134.052 1359.43,-132.719"/>
<polygon fill="midnightblue" stroke="midnightblue" points="1359.99,-136.177 1369.48,-131.452 1359.12,-129.232 1359.99,-136.177"/>
</g>
<!-- Node21 -->
<g id="node21" class="node"><title>Node21</title>
<g id="a_node21"><a xlink:href="../../d9/d79/classprolog_1_1io_1_1Lexer_ae4ec88cd8a3650b3d9af2b4f5e7a9bbc.html#ae4ec88cd8a3650b3d9af2b4f5e7a9bbc" target="_top" xlink:title="prolog.io.Lexer.make\l_const">
<polygon fill="none" stroke="black" points="1541.5,-153 1541.5,-183 1648.5,-183 1648.5,-153 1541.5,-153"/>
<text text-anchor="start" x="1549.5" y="-171" font-family="Helvetica,sans-Serif" font-size="10.00">prolog.io.Lexer.make</text>
<text text-anchor="middle" x="1595" y="-160" font-family="Helvetica,sans-Serif" font-size="10.00">_const</text>
</a>
</g>
</g>
<!-- Node18&#45;&gt;Node21 -->
<g id="edge32" class="edge"><title>Node18&#45;&gt;Node21</title>
<path fill="none" stroke="midnightblue" d="M1328.07,-146.961C1383.1,-151.315 1471.59,-158.316 1531.22,-163.033"/>
<polygon fill="midnightblue" stroke="midnightblue" points="1531.02,-166.528 1541.27,-163.828 1531.57,-159.55 1531.02,-166.528"/>
</g>
<!-- Node29 -->
<g id="node29" class="node"><title>Node29</title>
<g id="a_node29"><a xlink:href="../../d9/d79/classprolog_1_1io_1_1Lexer_a0575f9ce24d7bdce0ed6f08903d57061.html#a0575f9ce24d7bdce0ed6f08903d57061" target="_top" xlink:title="prolog.io.Lexer.make\l_number">
<polygon fill="none" stroke="black" points="1376,-33 1376,-63 1483,-63 1483,-33 1376,-33"/>
<text text-anchor="start" x="1384" y="-51" font-family="Helvetica,sans-Serif" font-size="10.00">prolog.io.Lexer.make</text>
<text text-anchor="middle" x="1429.5" y="-40" font-family="Helvetica,sans-Serif" font-size="10.00">_number</text>
</a>
</g>
</g>
<!-- Node18&#45;&gt;Node29 -->
<g id="edge33" class="edge"><title>Node18&#45;&gt;Node29</title>
<path fill="none" stroke="midnightblue" d="M1293.26,-133.368C1317.23,-118.234 1364.27,-88.5454 1396.05,-68.4859"/>
<polygon fill="midnightblue" stroke="midnightblue" points="1397.98,-71.401 1404.57,-63.1035 1394.25,-65.4816 1397.98,-71.401"/>
</g>
<!-- Node20&#45;&gt;Node21 -->
<g id="edge23" class="edge"><title>Node20&#45;&gt;Node21</title>
<path fill="none" stroke="midnightblue" d="M1465.98,-133.547C1485.12,-138.699 1509.31,-145.21 1531.5,-151.18"/>
<polygon fill="midnightblue" stroke="midnightblue" points="1530.63,-154.57 1541.19,-153.789 1532.45,-147.811 1530.63,-154.57"/>
</g>
<!-- Node22 -->
<g id="node22" class="node"><title>Node22</title>
<g id="a_node22"><a xlink:href="../../d9/d79/classprolog_1_1io_1_1Lexer_a6c9bf5b9540046d85bedfd6b9cf12d39.html#a6c9bf5b9540046d85bedfd6b9cf12d39" target="_top" xlink:title="prolog.io.Lexer.make_fun">
<polygon fill="none" stroke="black" points="1532,-114.5 1532,-133.5 1658,-133.5 1658,-114.5 1532,-114.5"/>
<text text-anchor="middle" x="1595" y="-121.5" font-family="Helvetica,sans-Serif" font-size="10.00">prolog.io.Lexer.make_fun</text>
</a>
</g>
</g>
<!-- Node20&#45;&gt;Node22 -->
<g id="edge24" class="edge"><title>Node20&#45;&gt;Node22</title>
<path fill="none" stroke="midnightblue" d="M1489.53,-124C1499.92,-124 1510.86,-124 1521.57,-124"/>
<polygon fill="midnightblue" stroke="midnightblue" points="1521.75,-127.5 1531.75,-124 1521.75,-120.5 1521.75,-127.5"/>
</g>
<!-- Node23 -->
<g id="node23" class="node"><title>Node23</title>
<g id="a_node23"><a xlink:href="../../d9/d79/classprolog_1_1io_1_1Lexer_acdaa35637088cc7ae8decb0f6e0f8caa.html#acdaa35637088cc7ae8decb0f6e0f8caa" target="_top" xlink:title="prolog.io.Lexer.make_var">
<polygon fill="none" stroke="black" points="1532,-76.5 1532,-95.5 1658,-95.5 1658,-76.5 1532,-76.5"/>
<text text-anchor="middle" x="1595" y="-83.5" font-family="Helvetica,sans-Serif" font-size="10.00">prolog.io.Lexer.make_var</text>
</a>
</g>
</g>
<!-- Node20&#45;&gt;Node23 -->
<g id="edge25" class="edge"><title>Node20&#45;&gt;Node23</title>
<path fill="none" stroke="midnightblue" d="M1471.76,-114.411C1493.43,-109.374 1520.18,-103.156 1543.13,-97.8229"/>
<polygon fill="midnightblue" stroke="midnightblue" points="1544.09,-101.193 1553.04,-95.5201 1542.51,-94.3748 1544.09,-101.193"/>
</g>
<!-- Node24 -->
<g id="node24" class="node"><title>Node24</title>
<g id="a_node24"><a xlink:href="../../d1/d12/classprolog_1_1terms_1_1Var_acfca7d3a30509a6a0761be57e408cfad.html#acfca7d3a30509a6a0761be57e408cfad" target="_top" xlink:title="prolog.terms.Var.toString">
<polygon fill="none" stroke="black" points="1695,-76.5 1695,-95.5 1820,-95.5 1820,-76.5 1695,-76.5"/>
<text text-anchor="middle" x="1757.5" y="-83.5" font-family="Helvetica,sans-Serif" font-size="10.00">prolog.terms.Var.toString</text>
</a>
</g>
</g>
<!-- Node23&#45;&gt;Node24 -->
<g id="edge26" class="edge"><title>Node23&#45;&gt;Node24</title>
<path fill="none" stroke="midnightblue" d="M1658.05,-86C1666.83,-86 1675.92,-86 1684.86,-86"/>
<polygon fill="midnightblue" stroke="midnightblue" points="1684.88,-89.5001 1694.88,-86 1684.88,-82.5001 1684.88,-89.5001"/>
</g>
<!-- Node25 -->
<g id="node25" class="node"><title>Node25</title>
<g id="a_node25"><a xlink:href="../../d1/d12/classprolog_1_1terms_1_1Var_a2194ec6eec940cc349b828f6fefcf242.html#a2194ec6eec940cc349b828f6fefcf242" target="_top" xlink:title="prolog.terms.Var.unbound">
<polygon fill="none" stroke="black" points="2008,-114.5 2008,-133.5 2136,-133.5 2136,-114.5 2008,-114.5"/>
<text text-anchor="middle" x="2072" y="-121.5" font-family="Helvetica,sans-Serif" font-size="10.00">prolog.terms.Var.unbound</text>
</a>
</g>
</g>
<!-- Node24&#45;&gt;Node25 -->
<g id="edge27" class="edge"><title>Node24&#45;&gt;Node25</title>
<path fill="none" stroke="midnightblue" d="M1802.5,-95.586C1819.19,-98.9551 1838.41,-102.516 1856,-105 1902.96,-111.632 1956.04,-116.351 1997.71,-119.426"/>
<polygon fill="midnightblue" stroke="midnightblue" points="1997.54,-122.924 2007.77,-120.154 1998.05,-115.942 1997.54,-122.924"/>
</g>
<!-- Node26 -->
<g id="node26" class="node"><title>Node26</title>
<g id="a_node26"><a xlink:href="../../d1/d12/classprolog_1_1terms_1_1Var_ac525ffcba1be06da9b81dcdb2605eaf6.html#ac525ffcba1be06da9b81dcdb2605eaf6" target="_top" xlink:title="prolog.terms.Var.name">
<polygon fill="none" stroke="black" points="1856,-38.5 1856,-57.5 1972,-57.5 1972,-38.5 1856,-38.5"/>
<text text-anchor="middle" x="1914" y="-45.5" font-family="Helvetica,sans-Serif" font-size="10.00">prolog.terms.Var.name</text>
</a>
</g>
</g>
<!-- Node24&#45;&gt;Node26 -->
<g id="edge28" class="edge"><title>Node24&#45;&gt;Node26</title>
<path fill="none" stroke="midnightblue" d="M1797.49,-76.411C1817.78,-71.4191 1842.79,-65.2676 1864.35,-59.9666"/>
<polygon fill="midnightblue" stroke="midnightblue" points="1865.42,-63.3072 1874.29,-57.5201 1863.75,-56.5098 1865.42,-63.3072"/>
</g>
<!-- Node27 -->
<g id="node27" class="node"><title>Node27</title>
<g id="a_node27"><a xlink:href="../../d1/d12/classprolog_1_1terms_1_1Var_a87e5778e2b3535a88d8750f0776fb900.html#a87e5778e2b3535a88d8750f0776fb900" target="_top" xlink:title="prolog.terms.Var.ref">
<polygon fill="none" stroke="black" points="1862.5,-76.5 1862.5,-95.5 1965.5,-95.5 1965.5,-76.5 1862.5,-76.5"/>
<text text-anchor="middle" x="1914" y="-83.5" font-family="Helvetica,sans-Serif" font-size="10.00">prolog.terms.Var.ref</text>
</a>
</g>
</g>
<!-- Node24&#45;&gt;Node27 -->
<g id="edge29" class="edge"><title>Node24&#45;&gt;Node27</title>
<path fill="none" stroke="midnightblue" d="M1820.01,-86C1830.48,-86 1841.36,-86 1851.83,-86"/>
<polygon fill="midnightblue" stroke="midnightblue" points="1852.13,-89.5001 1862.13,-86 1852.13,-82.5001 1852.13,-89.5001"/>
</g>
<!-- Node27&#45;&gt;Node25 -->
<g id="edge30" class="edge"><title>Node27&#45;&gt;Node25</title>
<path fill="none" stroke="midnightblue" d="M1954.37,-95.589C1974.95,-100.604 2000.34,-106.788 2022.17,-112.105"/>
<polygon fill="midnightblue" stroke="midnightblue" points="2021.37,-115.514 2031.92,-114.48 2023.03,-108.713 2021.37,-115.514"/>
</g>
<!-- Node28 -->
<g id="node28" class="node"><title>Node28</title>
<g id="a_node28"><a xlink:href="../../d3/ded/classprolog_1_1terms_1_1Term_ae140fac2c9d066dc897fcfa723060a7a.html#ae140fac2c9d066dc897fcfa723060a7a" target="_top" xlink:title="Dereferences if necessary. ">
<polygon fill="none" stroke="black" points="2017,-76.5 2017,-95.5 2127,-95.5 2127,-76.5 2017,-76.5"/>
<text text-anchor="middle" x="2072" y="-83.5" font-family="Helvetica,sans-Serif" font-size="10.00">prolog.terms.Term.ref</text>
</a>
</g>
</g>
<!-- Node27&#45;&gt;Node28 -->
<g id="edge31" class="edge"><title>Node27&#45;&gt;Node28</title>
<path fill="none" stroke="midnightblue" d="M1965.65,-86C1978.69,-86 1992.91,-86 2006.55,-86"/>
<polygon fill="midnightblue" stroke="midnightblue" points="2006.84,-89.5001 2016.84,-86 2006.84,-82.5001 2006.84,-89.5001"/>
</g>
<!-- Node30 -->
<g id="node30" class="node"><title>Node30</title>
<g id="a_node30"><a xlink:href="../../d9/d79/classprolog_1_1io_1_1Lexer_aa7b44ceb64d095b1342b77ff73e28e58.html#aa7b44ceb64d095b1342b77ff73e28e58" target="_top" xlink:title="prolog.io.Lexer.make_int">
<polygon fill="none" stroke="black" points="1533.5,-38.5 1533.5,-57.5 1656.5,-57.5 1656.5,-38.5 1533.5,-38.5"/>
<text text-anchor="middle" x="1595" y="-45.5" font-family="Helvetica,sans-Serif" font-size="10.00">prolog.io.Lexer.make_int</text>
</a>
</g>
</g>
<!-- Node29&#45;&gt;Node30 -->
<g id="edge34" class="edge"><title>Node29&#45;&gt;Node30</title>
<path fill="none" stroke="midnightblue" d="M1483.13,-48C1495.85,-48 1509.66,-48 1523.06,-48"/>
<polygon fill="midnightblue" stroke="midnightblue" points="1523.21,-51.5001 1533.21,-48 1523.21,-44.5001 1523.21,-51.5001"/>
</g>
<!-- Node31 -->
<g id="node31" class="node"><title>Node31</title>
<g id="a_node31"><a xlink:href="../../d9/d79/classprolog_1_1io_1_1Lexer_aa712569cb1f11c42f18982b57dd13832.html#aa712569cb1f11c42f18982b57dd13832" target="_top" xlink:title="prolog.io.Lexer.make_real">
<polygon fill="none" stroke="black" points="1531,-0.5 1531,-19.5 1659,-19.5 1659,-0.5 1531,-0.5"/>
<text text-anchor="middle" x="1595" y="-7.5" font-family="Helvetica,sans-Serif" font-size="10.00">prolog.io.Lexer.make_real</text>
</a>
</g>
</g>
<!-- Node29&#45;&gt;Node31 -->
<g id="edge35" class="edge"><title>Node29&#45;&gt;Node31</title>
<path fill="none" stroke="midnightblue" d="M1483.13,-35.7674C1502.28,-31.3167 1523.88,-26.2962 1542.9,-21.8768"/>
<polygon fill="midnightblue" stroke="midnightblue" points="1543.92,-25.2321 1552.87,-19.5591 1542.34,-18.4139 1543.92,-25.2321"/>
</g>
<!-- Node32&#45;&gt;Node18 -->
<g id="edge42" class="edge"><title>Node32&#45;&gt;Node18</title>
<path fill="none" stroke="midnightblue" d="M836.755,-137.92C848.783,-139.95 861.226,-141.767 873,-143 994.036,-155.672 1136.64,-151.124 1215.63,-146.906"/>
<polygon fill="midnightblue" stroke="midnightblue" points="1216.09,-150.386 1225.88,-146.341 1215.7,-143.397 1216.09,-150.386"/>
</g>
<!-- Node33 -->
<g id="node33" class="node"><title>Node33</title>
<g id="a_node33"><a xlink:href="../../d7/df1/classprolog_1_1io_1_1Parser_aa7e461fd858ff34bac99d032f61e52da.html#aa7e461fd858ff34bac99d032f61e52da" target="_top" xlink:title="prolog.io.Parser.getConjCont">
<polygon fill="none" stroke="black" points="873,-114.5 873,-133.5 1016,-133.5 1016,-114.5 873,-114.5"/>
<text text-anchor="middle" x="944.5" y="-121.5" font-family="Helvetica,sans-Serif" font-size="10.00">prolog.io.Parser.getConjCont</text>
</a>
</g>
</g>
<!-- Node32&#45;&gt;Node33 -->
<g id="edge37" class="edge"><title>Node32&#45;&gt;Node33</title>
<path fill="none" stroke="midnightblue" d="M836.966,-124C845.426,-124 854.141,-124 862.77,-124"/>
<polygon fill="midnightblue" stroke="midnightblue" points="862.841,-127.5 872.841,-124 862.841,-120.5 862.841,-127.5"/>
</g>
<!-- Node34 -->
<g id="node34" class="node"><title>Node34</title>
<g id="a_node34"><a xlink:href="../../d7/df1/classprolog_1_1io_1_1Parser_ae301f1d607ff1269917a097eda95199a.html#ae301f1d607ff1269917a097eda95199a" target="_top" xlink:title="prolog.io.Parser.getTerm">
<polygon fill="none" stroke="black" points="1059,-76.5 1059,-95.5 1183,-95.5 1183,-76.5 1059,-76.5"/>
<text text-anchor="middle" x="1121" y="-83.5" font-family="Helvetica,sans-Serif" font-size="10.00">prolog.io.Parser.getTerm</text>
</a>
</g>
</g>
<!-- Node32&#45;&gt;Node34 -->
<g id="edge41" class="edge"><title>Node32&#45;&gt;Node34</title>
<path fill="none" stroke="midnightblue" d="M836.532,-110.61C848.64,-108.51 861.168,-106.532 873,-105 931.934,-97.3709 999.205,-92.4422 1048.65,-89.5214"/>
<polygon fill="midnightblue" stroke="midnightblue" points="1049.13,-92.9991 1058.91,-88.9284 1048.73,-86.0108 1049.13,-92.9991"/>
</g>
<!-- Node35 -->
<g id="node35" class="node"><title>Node35</title>
<g id="a_node35"><a xlink:href="../../d7/df1/classprolog_1_1io_1_1Parser_a1b471775e839ca62d69e46fa3928154d.html#a1b471775e839ca62d69e46fa3928154d" target="_top" xlink:title="prolog.io.Parser.toClause">
<polygon fill="none" stroke="black" points="881,-38.5 881,-57.5 1008,-57.5 1008,-38.5 881,-38.5"/>
<text text-anchor="middle" x="944.5" y="-45.5" font-family="Helvetica,sans-Serif" font-size="10.00">prolog.io.Parser.toClause</text>
</a>
</g>
</g>
<!-- Node32&#45;&gt;Node35 -->
<g id="edge43" class="edge"><title>Node32&#45;&gt;Node35</title>
<path fill="none" stroke="midnightblue" d="M796.769,-108.825C817.446,-97.8442 846.552,-83.054 873,-72 882.573,-67.9988 893.072,-64.1478 902.976,-60.7459"/>
<polygon fill="midnightblue" stroke="midnightblue" points="904.26,-64.0069 912.625,-57.5049 902.031,-57.3712 904.26,-64.0069"/>
</g>
<!-- Node33&#45;&gt;Node18 -->
<g id="edge40" class="edge"><title>Node33&#45;&gt;Node18</title>
<path fill="none" stroke="midnightblue" d="M1016.4,-128.076C1075.77,-131.489 1159.58,-136.307 1215.75,-139.536"/>
<polygon fill="midnightblue" stroke="midnightblue" points="1215.72,-143.04 1225.9,-140.12 1216.12,-136.052 1215.72,-143.04"/>
</g>
<!-- Node33&#45;&gt;Node34 -->
<g id="edge38" class="edge"><title>Node33&#45;&gt;Node34</title>
<path fill="none" stroke="midnightblue" d="M989.534,-114.411C1012.87,-109.329 1041.73,-103.045 1066.37,-97.6797"/>
<polygon fill="midnightblue" stroke="midnightblue" points="1067.26,-101.068 1076.28,-95.5201 1065.77,-94.2281 1067.26,-101.068"/>
</g>
<!-- Node34&#45;&gt;Node18 -->
<g id="edge39" class="edge"><title>Node34&#45;&gt;Node18</title>
<path fill="none" stroke="midnightblue" d="M1149.52,-95.5235C1161.92,-99.8623 1176.72,-105.111 1190,-110 1207.27,-116.361 1226.4,-123.674 1242.22,-129.796"/>
<polygon fill="midnightblue" stroke="midnightblue" points="1241.01,-133.08 1251.6,-133.435 1243.54,-126.555 1241.01,-133.08"/>
</g>
<!-- Node36 -->
<g id="node36" class="node"><title>Node36</title>
<g id="a_node36"><a xlink:href="../../d3/ded/classprolog_1_1terms_1_1Term_a8ea1883429587f5ffa2d7aa6c272039c.html#a8ea1883429587f5ffa2d7aa6c272039c" target="_top" xlink:title="prolog.terms.Term.toClause">
<polygon fill="none" stroke="black" points="1052,-38.5 1052,-57.5 1190,-57.5 1190,-38.5 1052,-38.5"/>
<text text-anchor="middle" x="1121" y="-45.5" font-family="Helvetica,sans-Serif" font-size="10.00">prolog.terms.Term.toClause</text>
</a>
</g>
</g>
<!-- Node35&#45;&gt;Node36 -->
<g id="edge44" class="edge"><title>Node35&#45;&gt;Node36</title>
<path fill="none" stroke="midnightblue" d="M1008.01,-48C1018.86,-48 1030.28,-48 1041.5,-48"/>
<polygon fill="midnightblue" stroke="midnightblue" points="1041.72,-51.5001 1051.72,-48 1041.72,-44.5001 1041.72,-51.5001"/>
</g>
</g>
</svg>
        <g id="navigator" transform="translate(0 0)" fill="#404254">
                <rect fill="#f2f5e9" fill-opacity="0.5" stroke="#606060" stroke-width=".5" x="0" y="0" width="60" height="60"/>
                <use id="zoomplus" xlink:href="#zoomPlus" x="17" y="9" onmousedown="handleZoom(evt,'in')"/>
                <use id="zoomminus" xlink:href="#zoomMin" x="42" y="9" onmousedown="handleZoom(evt,'out')"/>
                <use id="reset" xlink:href="#resetDef" x="30" y="36" onmousedown="handleReset()"/>
                <g id="arrowUp" xlink:href="#dirArrow" transform="translate(30 24)" onmousedown="handlePan(0,-1)">
                  <use xlink:href="#rim" fill="#404040">
                        <set attributeName="fill" to="#808080" begin="arrowUp.mouseover" end="arrowUp.mouseout"/>
                  </use>
                  <path fill="none" stroke="white" stroke-width="1.5" d="M0,-3.0v7 M-2.5,-0.5L0,-3.0L2.5,-0.5"/>
                </g>
                <g id="arrowRight" xlink:href="#dirArrow" transform="rotate(90) translate(36 -43)" onmousedown="handlePan(1,0)">
                  <use xlink:href="#rim" fill="#404040">
                        <set attributeName="fill" to="#808080" begin="arrowRight.mouseover" end="arrowRight.mouseout"/>
                  </use>
                  <path fill="none" stroke="white" stroke-width="1.5" d="M0,-3.0v7 M-2.5,-0.5L0,-3.0L2.5,-0.5"/>
                </g>
                <g id="arrowDown" xlink:href="#dirArrow" transform="rotate(180) translate(-30 -48)" onmousedown="handlePan(0,1)">
                  <use xlink:href="#rim" fill="#404040">
                        <set attributeName="fill" to="#808080" begin="arrowDown.mouseover" end="arrowDown.mouseout"/>
                  </use>
                  <path fill="none" stroke="white" stroke-width="1.5" d="M0,-3.0v7 M-2.5,-0.5L0,-3.0L2.5,-0.5"/>
                </g>
                <g id="arrowLeft" xlink:href="#dirArrow" transform="rotate(270) translate(-36 17)" onmousedown="handlePan(-1,0)">
                  <use xlink:href="#rim" fill="#404040">
                        <set attributeName="fill" to="#808080" begin="arrowLeft.mouseover" end="arrowLeft.mouseout"/>
                  </use>
                  <path fill="none" stroke="white" stroke-width="1.5" d="M0,-3.0v7 M-2.5,-0.5L0,-3.0L2.5,-0.5"/>
                </g>
        </g>
        <svg viewBox="0 0 15 15" width="100%" height="30px" preserveAspectRatio="xMaxYMin meet">
         <g id="arrow_out" transform="scale(0.3 0.3)">
          <a xlink:href="classprolog_1_1terms_1_1Clause_a59a965be3fc2e88226d5202dca1b2a26_a59a965be3fc2e88226d5202dca1b2a26_cgraph_org.svg" target="_base">
           <rect id="button" ry="5" rx="5" y="6" x="6" height="38" width="38"
                fill="#f2f5e9" fill-opacity="0.5" stroke="#606060" stroke-width="1.0"/>
           <path id="arrow"
             d="M 11.500037,31.436501 C 11.940474,20.09759 22.043105,11.32322 32.158766,21.979434 L 37.068811,17.246167 C 37.068811,17.246167 37.088388,32 37.088388,32 L 22.160133,31.978069 C 22.160133,31.978069 26.997745,27.140456 26.997745,27.140456 C 18.528582,18.264221 13.291696,25.230495 11.500037,31.436501 z"
             style="fill:#404040;"/>
          </a>
         </g>
        </svg>
</svg>
