<?xml version="1.0" encoding="UTF-8" standalone="no"?>
<!DOCTYPE svg PUBLIC "-//W3C//DTD SVG 1.1//EN"
 "http://www.w3.org/Graphics/SVG/1.1/DTD/svg11.dtd">
<!-- Generated by graphviz version 2.38.0 (20140413.2041)
 -->
<!-- Title: prolog.terms.Clause.getHead Pages: 1 -->
<!--zoomable 488 -->
<svg id="main" version="1.1" xmlns="http://www.w3.org/2000/svg" xmlns:xlink="http://www.w3.org/1999/xlink" xml:space="preserve" onload="init(evt)">
<style type="text/css"><![CDATA[
.edge:hover path { stroke: red; }
.edge:hover polygon { stroke: red; fill: red; }
]]></style>
<script type="text/javascript"><![CDATA[
var edges = document.getElementsByTagName('g');
if (edges && edges.length) {
  for (var i=0;i<edges.length;i++) {
    if (edges[i].id.substr(0,4)=='edge') {
      edges[i].setAttribute('class','edge');
    }
  }
}
]]></script>
        <defs>
                <circle id="rim" cx="0" cy="0" r="7"/>
                <circle id="rim2" cx="0" cy="0" r="3.5"/>
                <g id="zoomPlus">
                        <use xlink:href="#rim" fill="#404040">
                                <set attributeName="fill" to="#808080" begin="zoomplus.mouseover" end="zoomplus.mouseout"/>
                        </use>
                        <path d="M-4,0h8M0,-4v8" fill="none" stroke="white" stroke-width="1.5" pointer-events="none"/>
                </g>
                <g id="zoomMin">
                        <use xlink:href="#rim" fill="#404040">
                                <set attributeName="fill" to="#808080" begin="zoomminus.mouseover" end="zoomminus.mouseout"/>
                        </use>
                        <path d="M-4,0h8" fill="none" stroke="white" stroke-width="1.5" pointer-events="none"/>
                </g>
                <g id="dirArrow">
                        <path fill="none" stroke="white" stroke-width="1.5" d="M0,-3.0v7 M-2.5,-0.5L0,-3.0L2.5,-0.5"/>
                </g>
               <g id="resetDef">
                       <use xlink:href="#rim2" fill="#404040">
                               <set attributeName="fill" to="#808080" begin="reset.mouseover" end="reset.mouseout"/>
                       </use>
               </g>
        </defs>

<script type="text/javascript">
var viewWidth = 1807;
var viewHeight = 488;
var sectionId = 'dynsection-1';
</script>
<script xlink:href="../../svgpan.js"/>
<svg id="graph" class="graph">
<g id="viewport">
<title>prolog.terms.Clause.getHead</title>
<!-- Node1 -->
<g id="node1" class="node"><title>Node1</title>
<polygon fill="#bfbfbf" stroke="black" points="0,-227.5 0,-246.5 144,-246.5 144,-227.5 0,-227.5"/>
<text text-anchor="middle" x="72" y="-234.5" font-family="Helvetica,sans-Serif" font-size="10.00">prolog.terms.Clause.getHead</text>
</g>
<!-- Node2 -->
<g id="node2" class="node"><title>Node2</title>
<g id="a_node2"><a xlink:href="../../d6/dc4/classprolog_1_1terms_1_1Clause_a705c0264ac6e7a497084edc5a61e3cbe.html#a705c0264ac6e7a497084edc5a61e3cbe" target="_top" xlink:title="Prints out a clause as Head:&#45;Body. ">
<polygon fill="none" stroke="black" points="195,-449 195,-479 338,-479 338,-449 195,-449"/>
<text text-anchor="start" x="203" y="-467" font-family="Helvetica,sans-Serif" font-size="10.00">prolog.terms.Clause.Clause2</text>
<text text-anchor="middle" x="266.5" y="-456" font-family="Helvetica,sans-Serif" font-size="10.00">String</text>
</a>
</g>
</g>
<!-- Node1&#45;&gt;Node2 -->
<g id="edge1" class="edge"><title>Node1&#45;&gt;Node2</title>
<path fill="none" stroke="midnightblue" d="M78.3767,-256.476C90.1797,-295.696 122.034,-384.644 180,-434 187.186,-440.119 195.701,-445.018 204.526,-448.932"/>
<polygon fill="midnightblue" stroke="midnightblue" points="81.7198,-255.438 75.5743,-246.808 74.9965,-257.387 81.7198,-255.438"/>
</g>
<!-- Node4 -->
<g id="node4" class="node"><title>Node4</title>
<g id="a_node4"><a xlink:href="../../d8/d35/classprolog_1_1Init_a34d43d3123bb194902cbcb1c06194cce.html#a34d43d3123bb194902cbcb1c06194cce" target="_top" xlink:title="evalutes a query ">
<polygon fill="none" stroke="black" points="1294,-369.5 1294,-388.5 1395,-388.5 1395,-369.5 1294,-369.5"/>
<text text-anchor="middle" x="1344.5" y="-376.5" font-family="Helvetica,sans-Serif" font-size="10.00">prolog.Init.evalGoal</text>
</a>
</g>
</g>
<!-- Node1&#45;&gt;Node4 -->
<g id="edge3" class="edge"><title>Node1&#45;&gt;Node4</title>
<path fill="none" stroke="midnightblue" d="M80.9756,-256.033C95.4841,-288.044 129.441,-352.086 180,-382 289.221,-446.623 336.093,-420 463,-420 463,-420 463,-420 988.5,-420 1098,-420 1225.26,-400.511 1293.74,-388.406"/>
<polygon fill="midnightblue" stroke="midnightblue" points="84.02,-254.259 76.805,-246.501 77.6069,-257.065 84.02,-254.259"/>
</g>
<!-- Node8 -->
<g id="node8" class="node"><title>Node8</title>
<g id="a_node8"><a xlink:href="../../d4/d09/classprolog_1_1io_1_1ClauseReader_ac713387538e0471c0795c8a664f398d1.html#ac713387538e0471c0795c8a664f398d1" target="_top" xlink:title="prolog.io.ClauseReader.extract_info">
<polygon fill="none" stroke="black" points="180,-132.5 180,-151.5 353,-151.5 353,-132.5 180,-132.5"/>
<text text-anchor="middle" x="266.5" y="-139.5" font-family="Helvetica,sans-Serif" font-size="10.00">prolog.io.ClauseReader.extract_info</text>
</a>
</g>
</g>
<!-- Node1&#45;&gt;Node8 -->
<g id="edge7" class="edge"><title>Node1&#45;&gt;Node8</title>
<path fill="none" stroke="midnightblue" d="M92.7886,-221.103C113.462,-205.181 147.37,-180.955 180,-166 193.034,-160.026 207.882,-155.225 221.506,-151.534"/>
<polygon fill="midnightblue" stroke="midnightblue" points="90.5014,-218.448 84.7814,-227.366 94.8143,-223.962 90.5014,-218.448"/>
</g>
<!-- Node9 -->
<g id="node9" class="node"><title>Node9</title>
<g id="a_node9"><a xlink:href="../../d4/d09/classprolog_1_1io_1_1ClauseReader_a805e9a5ebc401e1099f39af9b3f6fb47.html#a805e9a5ebc401e1099f39af9b3f6fb47" target="_top" xlink:title="prolog.io.ClauseReader.get\lElement">
<polygon fill="none" stroke="black" points="396.5,-143 396.5,-173 531.5,-173 531.5,-143 396.5,-143"/>
<text text-anchor="start" x="404.5" y="-161" font-family="Helvetica,sans-Serif" font-size="10.00">prolog.io.ClauseReader.get</text>
<text text-anchor="middle" x="464" y="-150" font-family="Helvetica,sans-Serif" font-size="10.00">Element</text>
</a>
</g>
</g>
<!-- Node1&#45;&gt;Node9 -->
<g id="edge9" class="edge"><title>Node1&#45;&gt;Node9</title>
<path fill="none" stroke="midnightblue" d="M109.987,-224.211C130.439,-217.491 156.415,-209.526 180,-204 253.302,-186.826 338.774,-173.888 396.448,-166.176"/>
<polygon fill="midnightblue" stroke="midnightblue" points="108.808,-220.915 100.425,-227.394 111.019,-227.557 108.808,-220.915"/>
</g>
<!-- Node10 -->
<g id="node10" class="node"><title>Node10</title>
<g id="a_node10"><a xlink:href="../../d4/d26/classprolog_1_1terms_1_1Prog_ac5d988b907a2843fcfcba4d1fd1e0deb.html#ac5d988b907a2843fcfcba4d1fd1e0deb" target="_top" xlink:title="Here is where actual LD&#45;resolution computation happens. ">
<polygon fill="none" stroke="black" points="749,-347.5 749,-366.5 895,-366.5 895,-347.5 749,-347.5"/>
<text text-anchor="middle" x="822" y="-354.5" font-family="Helvetica,sans-Serif" font-size="10.00">prolog.terms.Prog.getElement</text>
</a>
</g>
</g>
<!-- Node1&#45;&gt;Node10 -->
<g id="edge10" class="edge"><title>Node1&#45;&gt;Node10</title>
<path fill="none" stroke="midnightblue" d="M83.3446,-255.535C99.7629,-282.855 134.628,-332.964 180,-354 279.069,-399.932 602.947,-377.204 748.735,-364.092"/>
<polygon fill="midnightblue" stroke="midnightblue" points="86.1989,-253.481 78.1451,-246.597 80.1483,-257.001 86.1989,-253.481"/>
</g>
<!-- Node13 -->
<g id="node13" class="node"><title>Node13</title>
<g id="a_node13"><a xlink:href="../../da/dd9/classprolog_1_1fluents_1_1DataBase_a6f8041bc2bcb5cdd8a376e81a3dc4dca.html#a6f8041bc2bcb5cdd8a376e81a3dc4dca" target="_top" xlink:title="adds a Clause to the joint Linda and Predicate table ">
<polygon fill="none" stroke="black" points="1265,-247 1265,-277 1424,-277 1424,-247 1265,-247"/>
<text text-anchor="start" x="1273" y="-265" font-family="Helvetica,sans-Serif" font-size="10.00">prolog.fluents.DataBase.process</text>
<text text-anchor="middle" x="1344.5" y="-254" font-family="Helvetica,sans-Serif" font-size="10.00">Clause</text>
</a>
</g>
</g>
<!-- Node1&#45;&gt;Node13 -->
<g id="edge30" class="edge"><title>Node1&#45;&gt;Node13</title>
<path fill="none" stroke="midnightblue" d="M121.932,-248.814C195.491,-265.51 339.155,-294 463,-294 463,-294 463,-294 988.5,-294 1083.8,-294 1192.91,-282.42 1264.72,-273.192"/>
<polygon fill="midnightblue" stroke="midnightblue" points="122.557,-245.366 112.027,-246.541 120.991,-252.189 122.557,-245.366"/>
</g>
<!-- Node22 -->
<g id="node22" class="node"><title>Node22</title>
<g id="a_node22"><a xlink:href="../../d6/dc4/classprolog_1_1terms_1_1Clause_aec09b63e801aeda7a6594bd6ea16d8bc.html#aec09b63e801aeda7a6594bd6ea16d8bc" target="_top" xlink:title="Returns a key based on the principal functor of the head of the clause and its arity. ">
<polygon fill="none" stroke="black" points="575,-246.5 575,-265.5 713,-265.5 713,-246.5 575,-246.5"/>
<text text-anchor="middle" x="644" y="-253.5" font-family="Helvetica,sans-Serif" font-size="10.00">prolog.terms.Clause.getKey</text>
</a>
</g>
</g>
<!-- Node1&#45;&gt;Node22 -->
<g id="edge25" class="edge"><title>Node1&#45;&gt;Node22</title>
<path fill="none" stroke="midnightblue" d="M154.339,-239.711C267.165,-243.472 469.154,-250.205 574.63,-253.721"/>
<polygon fill="midnightblue" stroke="midnightblue" points="154.149,-236.203 144.038,-239.368 153.916,-243.199 154.149,-236.203"/>
</g>
<!-- Node24 -->
<g id="node24" class="node"><title>Node24</title>
<g id="a_node24"><a xlink:href="../../d7/df1/classprolog_1_1io_1_1Parser_a6574340e5a916e3ca50b58cc999ccc69.html#a6574340e5a916e3ca50b58cc999ccc69" target="_top" xlink:title="prolog.io.Parser.isError">
<polygon fill="none" stroke="black" points="764,-202.5 764,-221.5 880,-221.5 880,-202.5 764,-202.5"/>
<text text-anchor="middle" x="822" y="-209.5" font-family="Helvetica,sans-Serif" font-size="10.00">prolog.io.Parser.isError</text>
</a>
</g>
</g>
<!-- Node1&#45;&gt;Node24 -->
<g id="edge28" class="edge"><title>Node1&#45;&gt;Node24</title>
<path fill="none" stroke="midnightblue" d="M154.266,-234.284C306.59,-229.193 631.549,-218.332 763.512,-213.921"/>
<polygon fill="midnightblue" stroke="midnightblue" points="153.922,-230.793 144.044,-234.626 154.156,-237.789 153.922,-230.793"/>
</g>
<!-- Node25 -->
<g id="node25" class="node"><title>Node25</title>
<g id="a_node25"><a xlink:href="../../df/d94/classprolog_1_1terms_1_1Unfolder_ae1840746f212e74a2beb717c3a794d3a.html#ae1840746f212e74a2beb717c3a794d3a" target="_top" xlink:title="Reduces builtin functions after the neck of a clause, before a &quot;real&quot; atom is unfolded. ">
<polygon fill="none" stroke="black" points="195,-83 195,-113 338,-113 338,-83 195,-83"/>
<text text-anchor="start" x="203" y="-101" font-family="Helvetica,sans-Serif" font-size="10.00">prolog.terms.Unfolder.reduce</text>
<text text-anchor="middle" x="266.5" y="-90" font-family="Helvetica,sans-Serif" font-size="10.00">Builtins</text>
</a>
</g>
</g>
<!-- Node1&#45;&gt;Node25 -->
<g id="edge31" class="edge"><title>Node1&#45;&gt;Node25</title>
<path fill="none" stroke="midnightblue" d="M84.9757,-219.172C102.774,-194.04 138.594,-148.43 180,-123 186.194,-119.196 192.995,-115.946 199.972,-113.175"/>
<polygon fill="midnightblue" stroke="midnightblue" points="82.0732,-217.215 79.2567,-227.429 87.8278,-221.201 82.0732,-217.215"/>
</g>
<!-- Node27 -->
<g id="node27" class="node"><title>Node27</title>
<g id="a_node27"><a xlink:href="../../d6/dc4/classprolog_1_1terms_1_1Clause_a00d8b13e5351a9f8c1ef80de688cd266.html#a00d8b13e5351a9f8c1ef80de688cd266" target="_top" xlink:title="Reads a goal as a clause containing a dummy header with all variables in it. ">
<polygon fill="none" stroke="black" points="198.5,-44.5 198.5,-63.5 334.5,-63.5 334.5,-44.5 198.5,-44.5"/>
<text text-anchor="middle" x="266.5" y="-51.5" font-family="Helvetica,sans-Serif" font-size="10.00">prolog.terms.Clause.toGoal</text>
</a>
</g>
</g>
<!-- Node1&#45;&gt;Node27 -->
<g id="edge33" class="edge"><title>Node1&#45;&gt;Node27</title>
<path fill="none" stroke="midnightblue" d="M79.8209,-217.92C93.2535,-183.232 126.557,-110.011 180,-73 185.625,-69.1043 191.915,-65.9911 198.461,-63.5057"/>
<polygon fill="midnightblue" stroke="midnightblue" points="76.5132,-216.772 76.2897,-227.365 83.07,-219.224 76.5132,-216.772"/>
</g>
<!-- Node30 -->
<g id="node30" class="node"><title>Node30</title>
<g id="a_node30"><a xlink:href="../../d6/dc4/classprolog_1_1terms_1_1Clause_a35e53a0cac4684660a6e3093ea7baf06.html#a35e53a0cac4684660a6e3093ea7baf06" target="_top" xlink:title="Converts a clause to a term. ">
<polygon fill="none" stroke="black" points="197.5,-3.5 197.5,-22.5 335.5,-22.5 335.5,-3.5 197.5,-3.5"/>
<text text-anchor="middle" x="266.5" y="-10.5" font-family="Helvetica,sans-Serif" font-size="10.00">prolog.terms.Clause.toTerm</text>
</a>
</g>
</g>
<!-- Node1&#45;&gt;Node30 -->
<g id="edge36" class="edge"><title>Node1&#45;&gt;Node30</title>
<path fill="none" stroke="midnightblue" d="M77.6576,-217.437C88.3581,-176.881 118.629,-83.3977 180,-35 186.74,-29.685 194.622,-25.6426 202.825,-22.5703"/>
<polygon fill="midnightblue" stroke="midnightblue" points="74.2518,-216.629 75.1991,-227.181 81.0391,-218.341 74.2518,-216.629"/>
</g>
<!-- Node32 -->
<g id="node32" class="node"><title>Node32</title>
<g id="a_node32"><a xlink:href="../../d6/dc4/classprolog_1_1terms_1_1Clause_a9c5f957d0240113f4328ebbc73d3b31d.html#a9c5f957d0240113f4328ebbc73d3b31d" target="_top" xlink:title="Algebraic composition operation of 2 Clauses, doing the basic resolution step Prolog is based on...">
<polygon fill="none" stroke="black" points="199.5,-325.5 199.5,-344.5 333.5,-344.5 333.5,-325.5 199.5,-325.5"/>
<text text-anchor="middle" x="266.5" y="-332.5" font-family="Helvetica,sans-Serif" font-size="10.00">prolog.terms.Clause.unfold</text>
</a>
</g>
</g>
<!-- Node1&#45;&gt;Node32 -->
<g id="edge38" class="edge"><title>Node1&#45;&gt;Node32</title>
<path fill="none" stroke="midnightblue" d="M93.2295,-252.939C114.013,-268.692 147.792,-292.606 180,-308 194.887,-315.115 212.105,-320.968 227.17,-325.383"/>
<polygon fill="midnightblue" stroke="midnightblue" points="95.2216,-250.055 85.1603,-246.736 90.9554,-255.605 95.2216,-250.055"/>
</g>
<!-- Node3 -->
<g id="node3" class="node"><title>Node3</title>
<g id="a_node3"><a xlink:href="../../d6/dc4/classprolog_1_1terms_1_1Clause_ac13bc534da7f02536d4741318443dd27.html#ac13bc534da7f02536d4741318443dd27" target="_top" xlink:title="Pretty prints a clause after replacing ugly variable names. ">
<polygon fill="none" stroke="black" points="398.5,-454.5 398.5,-473.5 529.5,-473.5 529.5,-454.5 398.5,-454.5"/>
<text text-anchor="middle" x="464" y="-461.5" font-family="Helvetica,sans-Serif" font-size="10.00">prolog.terms.Clause.pprint</text>
</a>
</g>
</g>
<!-- Node2&#45;&gt;Node3 -->
<g id="edge2" class="edge"><title>Node2&#45;&gt;Node3</title>
<path fill="none" stroke="midnightblue" d="M348.355,-464C365.026,-464 382.373,-464 398.376,-464"/>
<polygon fill="midnightblue" stroke="midnightblue" points="348.08,-460.5 338.08,-464 348.08,-467.5 348.08,-460.5"/>
</g>
<!-- Node5 -->
<g id="node5" class="node"><title>Node5</title>
<g id="a_node5"><a xlink:href="../../d8/d35/classprolog_1_1Init_a2471811f50fbed4de5df26ee530f1e2e.html#a2471811f50fbed4de5df26ee530f1e2e" target="_top" xlink:title="evaluates and times a Goal querying program P ">
<polygon fill="none" stroke="black" points="1483.5,-369.5 1483.5,-388.5 1584.5,-388.5 1584.5,-369.5 1483.5,-369.5"/>
<text text-anchor="middle" x="1534" y="-376.5" font-family="Helvetica,sans-Serif" font-size="10.00">prolog.Init.timeGoal</text>
</a>
</g>
</g>
<!-- Node4&#45;&gt;Node5 -->
<g id="edge4" class="edge"><title>Node4&#45;&gt;Node5</title>
<path fill="none" stroke="midnightblue" d="M1405.41,-379C1430.54,-379 1459.42,-379 1483.34,-379"/>
<polygon fill="midnightblue" stroke="midnightblue" points="1405.25,-375.5 1395.25,-379 1405.25,-382.5 1405.25,-375.5"/>
</g>
<!-- Node6 -->
<g id="node6" class="node"><title>Node6</title>
<g id="a_node6"><a xlink:href="../../d8/d35/classprolog_1_1Init_a0348efff7140aed75f8364f90b7c2b8b.html#a0348efff7140aed75f8364f90b7c2b8b" target="_top" xlink:title="prolog.Init.run_query">
<polygon fill="none" stroke="black" points="1669,-397.5 1669,-416.5 1774,-416.5 1774,-397.5 1669,-397.5"/>
<text text-anchor="middle" x="1721.5" y="-404.5" font-family="Helvetica,sans-Serif" font-size="10.00">prolog.Init.run_query</text>
</a>
</g>
</g>
<!-- Node5&#45;&gt;Node6 -->
<g id="edge5" class="edge"><title>Node5&#45;&gt;Node6</title>
<path fill="none" stroke="midnightblue" d="M1594.7,-388.011C1618.54,-391.609 1645.72,-395.713 1668.71,-399.182"/>
<polygon fill="midnightblue" stroke="midnightblue" points="1595.12,-384.535 1584.71,-386.503 1594.08,-391.457 1595.12,-384.535"/>
</g>
<!-- Node7 -->
<g id="node7" class="node"><title>Node7</title>
<g id="a_node7"><a xlink:href="../../d8/d35/classprolog_1_1Init_a3e8704cf8b2d909fccc79e967dd48171.html#a3e8704cf8b2d909fccc79e967dd48171" target="_top" xlink:title="prolog.Init.standardTop">
<polygon fill="none" stroke="black" points="1663.5,-359.5 1663.5,-378.5 1779.5,-378.5 1779.5,-359.5 1663.5,-359.5"/>
<text text-anchor="middle" x="1721.5" y="-366.5" font-family="Helvetica,sans-Serif" font-size="10.00">prolog.Init.standardTop</text>
</a>
</g>
</g>
<!-- Node5&#45;&gt;Node7 -->
<g id="edge6" class="edge"><title>Node5&#45;&gt;Node7</title>
<path fill="none" stroke="midnightblue" d="M1594.92,-375.77C1616.9,-374.585 1641.7,-373.248 1663.43,-372.077"/>
<polygon fill="midnightblue" stroke="midnightblue" points="1594.51,-372.287 1584.71,-376.32 1594.88,-379.277 1594.51,-372.287"/>
</g>
<!-- Node8&#45;&gt;Node9 -->
<g id="edge8" class="edge"><title>Node8&#45;&gt;Node9</title>
<path fill="none" stroke="midnightblue" d="M363.462,-149.854C374.611,-150.766 385.791,-151.681 396.421,-152.551"/>
<polygon fill="midnightblue" stroke="midnightblue" points="363.501,-146.345 353.249,-149.018 362.93,-153.322 363.501,-146.345"/>
</g>
<!-- Node11 -->
<g id="node11" class="node"><title>Node11</title>
<g id="a_node11"><a xlink:href="../../d4/d26/classprolog_1_1terms_1_1Prog_a696a0c92a1814ecf4f21fb09fbc854a0.html#a696a0c92a1814ecf4f21fb09fbc854a0" target="_top" xlink:title="asks a logic engine to return a solution ">
<polygon fill="none" stroke="black" points="931,-361 931,-391 1044,-391 1044,-361 931,-361"/>
<text text-anchor="start" x="939" y="-379" font-family="Helvetica,sans-Serif" font-size="10.00">prolog.terms.Prog.ask</text>
<text text-anchor="middle" x="987.5" y="-368" font-family="Helvetica,sans-Serif" font-size="10.00">_engine</text>
</a>
</g>
</g>
<!-- Node10&#45;&gt;Node11 -->
<g id="edge11" class="edge"><title>Node10&#45;&gt;Node11</title>
<path fill="none" stroke="midnightblue" d="M905.337,-366.568C913.998,-367.575 922.65,-368.58 930.904,-369.539"/>
<polygon fill="midnightblue" stroke="midnightblue" points="905.527,-363.067 895.189,-365.389 904.719,-370.02 905.527,-363.067"/>
</g>
<!-- Node21 -->
<g id="node21" class="node"><title>Node21</title>
<g id="a_node21"><a xlink:href="../../d4/d26/classprolog_1_1terms_1_1Prog_a45a00a5df54d8c378930f320020b457f.html#a45a00a5df54d8c378930f320020b457f" target="_top" xlink:title="usable for launching on a separate thread ">
<polygon fill="none" stroke="black" points="932.5,-322.5 932.5,-341.5 1042.5,-341.5 1042.5,-322.5 932.5,-322.5"/>
<text text-anchor="middle" x="987.5" y="-329.5" font-family="Helvetica,sans-Serif" font-size="10.00">prolog.terms.Prog.run</text>
</a>
</g>
</g>
<!-- Node10&#45;&gt;Node21 -->
<g id="edge24" class="edge"><title>Node10&#45;&gt;Node21</title>
<path fill="none" stroke="midnightblue" d="M895.211,-345.959C907.705,-344.048 920.5,-342.092 932.408,-340.271"/>
<polygon fill="midnightblue" stroke="midnightblue" points="894.635,-342.506 885.279,-347.477 895.693,-349.425 894.635,-342.506"/>
</g>
<!-- Node11&#45;&gt;Node4 -->
<g id="edge12" class="edge"><title>Node11&#45;&gt;Node4</title>
<path fill="none" stroke="midnightblue" d="M1054.74,-376.56C1124.14,-377.146 1231.58,-378.054 1293.98,-378.581"/>
<polygon fill="midnightblue" stroke="midnightblue" points="1054.39,-373.057 1044.36,-376.472 1054.33,-380.057 1054.39,-373.057"/>
</g>
<!-- Node12 -->
<g id="node12" class="node"><title>Node12</title>
<g id="a_node12"><a xlink:href="../../d4/d26/classprolog_1_1terms_1_1Prog_afb6f86119db8ba133de23f8bfe24ba2e.html#afb6f86119db8ba133de23f8bfe24ba2e" target="_top" xlink:title="Computes a copy of the first solution X of Goal G. ">
<polygon fill="none" stroke="black" points="1080,-331.5 1080,-350.5 1229,-350.5 1229,-331.5 1080,-331.5"/>
<text text-anchor="middle" x="1154.5" y="-338.5" font-family="Helvetica,sans-Serif" font-size="10.00">prolog.terms.Prog.firstSolution</text>
</a>
</g>
</g>
<!-- Node11&#45;&gt;Node12 -->
<g id="edge13" class="edge"><title>Node11&#45;&gt;Node12</title>
<path fill="none" stroke="midnightblue" d="M1054.34,-362.033C1072.56,-358.169 1091.91,-354.065 1108.63,-350.518"/>
<polygon fill="midnightblue" stroke="midnightblue" points="1053.42,-358.652 1044.36,-364.151 1054.87,-365.499 1053.42,-358.652"/>
</g>
<!-- Node12&#45;&gt;Node4 -->
<g id="edge17" class="edge"><title>Node12&#45;&gt;Node4</title>
<path fill="none" stroke="midnightblue" d="M1212.94,-352.61C1239.67,-358.014 1271.09,-364.364 1296.4,-369.48"/>
<polygon fill="midnightblue" stroke="midnightblue" points="1213.44,-349.14 1202.94,-350.589 1212.05,-356.001 1213.44,-349.14"/>
</g>
<!-- Node12&#45;&gt;Node13 -->
<g id="edge14" class="edge"><title>Node12&#45;&gt;Node13</title>
<path fill="none" stroke="midnightblue" d="M1187.46,-327.572C1220.76,-313.578 1272.84,-291.694 1307.55,-277.106"/>
<polygon fill="midnightblue" stroke="midnightblue" points="1186.04,-324.37 1178.18,-331.471 1188.75,-330.823 1186.04,-324.37"/>
</g>
<!-- Node16 -->
<g id="node16" class="node"><title>Node16</title>
<g id="a_node16"><a xlink:href="../../d8/d35/classprolog_1_1Init_a4a7b9ae1dc4d489e657326f3ed5a4b7e.html#a4a7b9ae1dc4d489e657326f3ed5a4b7e" target="_top" xlink:title="Asks Prolog a query Answer, Goal and returns the first solution of the form &quot;the(Answer)&quot; or the cons...">
<polygon fill="none" stroke="black" points="1291.5,-312.5 1291.5,-331.5 1397.5,-331.5 1397.5,-312.5 1291.5,-312.5"/>
<text text-anchor="middle" x="1344.5" y="-319.5" font-family="Helvetica,sans-Serif" font-size="10.00">prolog.Init.askProlog</text>
</a>
</g>
</g>
<!-- Node12&#45;&gt;Node16 -->
<g id="edge18" class="edge"><title>Node12&#45;&gt;Node16</title>
<path fill="none" stroke="midnightblue" d="M1239.58,-332.502C1257.24,-330.718 1275.36,-328.886 1291.43,-327.262"/>
<polygon fill="midnightblue" stroke="midnightblue" points="1238.86,-329.057 1229.26,-333.545 1239.56,-336.022 1238.86,-329.057"/>
</g>
<!-- Node14 -->
<g id="node14" class="node"><title>Node14</title>
<g id="a_node14"><a xlink:href="../../da/dd9/classprolog_1_1fluents_1_1DataBase_a83885e10b61d6bf129307d9bf50d93de.html#a83885e10b61d6bf129307d9bf50d93de" target="_top" xlink:title="prolog.fluents.DataBase.apply\l_parser">
<polygon fill="none" stroke="black" points="1460,-200 1460,-230 1608,-230 1608,-200 1460,-200"/>
<text text-anchor="start" x="1468" y="-218" font-family="Helvetica,sans-Serif" font-size="10.00">prolog.fluents.DataBase.apply</text>
<text text-anchor="middle" x="1534" y="-207" font-family="Helvetica,sans-Serif" font-size="10.00">_parser</text>
</a>
</g>
</g>
<!-- Node13&#45;&gt;Node14 -->
<g id="edge15" class="edge"><title>Node13&#45;&gt;Node14</title>
<path fill="none" stroke="midnightblue" d="M1415.15,-244.541C1434.18,-239.77 1454.64,-234.642 1473.08,-230.019"/>
<polygon fill="midnightblue" stroke="midnightblue" points="1414.19,-241.173 1405.34,-247 1415.89,-247.963 1414.19,-241.173"/>
</g>
<!-- Node15 -->
<g id="node15" class="node"><title>Node15</title>
<g id="a_node15"><a xlink:href="../../da/dd9/classprolog_1_1fluents_1_1DataBase_af8b26948ded7bba6386b984f463bf166.html#af8b26948ded7bba6386b984f463bf166" target="_top" xlink:title="prolog.fluents.DataBase.stream\lToProg">
<polygon fill="none" stroke="black" points="1644,-200 1644,-230 1799,-230 1799,-200 1644,-200"/>
<text text-anchor="start" x="1652" y="-218" font-family="Helvetica,sans-Serif" font-size="10.00">prolog.fluents.DataBase.stream</text>
<text text-anchor="middle" x="1721.5" y="-207" font-family="Helvetica,sans-Serif" font-size="10.00">ToProg</text>
</a>
</g>
</g>
<!-- Node14&#45;&gt;Node15 -->
<g id="edge16" class="edge"><title>Node14&#45;&gt;Node15</title>
<path fill="none" stroke="midnightblue" d="M1618.06,-215C1626.65,-215 1635.34,-215 1643.86,-215"/>
<polygon fill="midnightblue" stroke="midnightblue" points="1618.05,-211.5 1608.05,-215 1618.05,-218.5 1618.05,-211.5"/>
</g>
<!-- Node17 -->
<g id="node17" class="node"><title>Node17</title>
<g id="a_node17"><a xlink:href="../../d8/d35/classprolog_1_1Init_ae5fe9e2dc533d32690edbbec3b1c279b.html#ae5fe9e2dc533d32690edbbec3b1c279b" target="_top" xlink:title="Asks Prolog a query Goal and returns the first solution of the form &quot;the(Answer)&quot; ...">
<polygon fill="none" stroke="black" points="1481,-255.5 1481,-274.5 1587,-274.5 1587,-255.5 1481,-255.5"/>
<text text-anchor="middle" x="1534" y="-262.5" font-family="Helvetica,sans-Serif" font-size="10.00">prolog.Init.askProlog</text>
</a>
</g>
</g>
<!-- Node16&#45;&gt;Node17 -->
<g id="edge19" class="edge"><title>Node16&#45;&gt;Node17</title>
<path fill="none" stroke="midnightblue" d="M1382.39,-309.071C1404.74,-301.412 1433.87,-291.726 1460,-284 1471.05,-280.732 1483.13,-277.465 1494.23,-274.586"/>
<polygon fill="midnightblue" stroke="midnightblue" points="1380.95,-305.865 1372.64,-312.433 1383.23,-312.482 1380.95,-305.865"/>
</g>
<!-- Node18 -->
<g id="node18" class="node"><title>Node18</title>
<g id="a_node18"><a xlink:href="../../da/dde/classprolog_1_1Main_aca445add96cb95be654213f0e42d5b76.html#aca445add96cb95be654213f0e42d5b76" target="_top" xlink:title="prolog.Main.init">
<polygon fill="none" stroke="black" points="1492.5,-331.5 1492.5,-350.5 1575.5,-350.5 1575.5,-331.5 1492.5,-331.5"/>
<text text-anchor="middle" x="1534" y="-338.5" font-family="Helvetica,sans-Serif" font-size="10.00">prolog.Main.init</text>
</a>
</g>
</g>
<!-- Node16&#45;&gt;Node18 -->
<g id="edge20" class="edge"><title>Node16&#45;&gt;Node18</title>
<path fill="none" stroke="midnightblue" d="M1407.77,-328.31C1435.61,-331.131 1467.64,-334.377 1492.34,-336.879"/>
<polygon fill="midnightblue" stroke="midnightblue" points="1408.03,-324.819 1397.73,-327.293 1407.33,-331.783 1408.03,-324.819"/>
</g>
<!-- Node20 -->
<g id="node20" class="node"><title>Node20</title>
<g id="a_node20"><a xlink:href="../../d8/d35/classprolog_1_1Init_a7293b6db1f53eca4730418c54ab07109.html#a7293b6db1f53eca4730418c54ab07109" target="_top" xlink:title="prolog.Init.run">
<polygon fill="none" stroke="black" points="1496,-293.5 1496,-312.5 1572,-312.5 1572,-293.5 1496,-293.5"/>
<text text-anchor="middle" x="1534" y="-300.5" font-family="Helvetica,sans-Serif" font-size="10.00">prolog.Init.run</text>
</a>
</g>
</g>
<!-- Node16&#45;&gt;Node20 -->
<g id="edge22" class="edge"><title>Node16&#45;&gt;Node20</title>
<path fill="none" stroke="midnightblue" d="M1407.84,-315.683C1437.02,-312.726 1470.8,-309.303 1495.9,-306.759"/>
<polygon fill="midnightblue" stroke="midnightblue" points="1407.33,-312.217 1397.73,-316.707 1408.03,-319.181 1407.33,-312.217"/>
</g>
<!-- Node19 -->
<g id="node19" class="node"><title>Node19</title>
<g id="a_node19"><a xlink:href="../../da/dde/classprolog_1_1Main_ab0b3345fa72bd3b96c565437b962efa3.html#ab0b3345fa72bd3b96c565437b962efa3" target="_top" xlink:title="prolog.Main.main">
<polygon fill="none" stroke="black" points="1676,-302.5 1676,-321.5 1767,-321.5 1767,-302.5 1676,-302.5"/>
<text text-anchor="middle" x="1721.5" y="-309.5" font-family="Helvetica,sans-Serif" font-size="10.00">prolog.Main.main</text>
</a>
</g>
</g>
<!-- Node18&#45;&gt;Node19 -->
<g id="edge21" class="edge"><title>Node18&#45;&gt;Node19</title>
<path fill="none" stroke="midnightblue" d="M1585.79,-333.06C1614.02,-328.646 1648.83,-323.204 1675.99,-318.958"/>
<polygon fill="midnightblue" stroke="midnightblue" points="1585.05,-329.633 1575.71,-334.636 1586.13,-336.549 1585.05,-329.633"/>
</g>
<!-- Node20&#45;&gt;Node19 -->
<g id="edge23" class="edge"><title>Node20&#45;&gt;Node19</title>
<path fill="none" stroke="midnightblue" d="M1582.32,-305.296C1611.12,-306.693 1647.67,-308.467 1675.95,-309.839"/>
<polygon fill="midnightblue" stroke="midnightblue" points="1582.25,-301.788 1572.09,-304.8 1581.91,-308.78 1582.25,-301.788"/>
</g>
<!-- Node23 -->
<g id="node23" class="node"><title>Node23</title>
<g id="a_node23"><a xlink:href="../../da/dd9/classprolog_1_1fluents_1_1DataBase_a7922dc4eb05ca6cccd4c8bb38563814e.html#a7922dc4eb05ca6cccd4c8bb38563814e" target="_top" xlink:title="adds a Clause to the joint Linda and Predicate table ">
<polygon fill="none" stroke="black" points="1084.5,-235 1084.5,-265 1224.5,-265 1224.5,-235 1084.5,-235"/>
<text text-anchor="start" x="1092.5" y="-253" font-family="Helvetica,sans-Serif" font-size="10.00">prolog.fluents.DataBase.add</text>
<text text-anchor="middle" x="1154.5" y="-242" font-family="Helvetica,sans-Serif" font-size="10.00">Clause</text>
</a>
</g>
</g>
<!-- Node22&#45;&gt;Node23 -->
<g id="edge26" class="edge"><title>Node22&#45;&gt;Node23</title>
<path fill="none" stroke="midnightblue" d="M723.259,-255.077C821.925,-253.912 990.006,-251.929 1084.22,-250.817"/>
<polygon fill="midnightblue" stroke="midnightblue" points="723.009,-251.579 713.051,-255.197 723.092,-258.579 723.009,-251.579"/>
</g>
<!-- Node23&#45;&gt;Node13 -->
<g id="edge27" class="edge"><title>Node23&#45;&gt;Node13</title>
<path fill="none" stroke="midnightblue" d="M1234.94,-255.071C1244.87,-255.704 1255.01,-256.352 1264.92,-256.984"/>
<polygon fill="midnightblue" stroke="midnightblue" points="1234.91,-251.561 1224.7,-254.417 1234.46,-258.547 1234.91,-251.561"/>
</g>
<!-- Node24&#45;&gt;Node14 -->
<g id="edge29" class="edge"><title>Node24&#45;&gt;Node14</title>
<path fill="none" stroke="midnightblue" d="M890.3,-212.284C1023.86,-212.849 1321.43,-214.106 1459.73,-214.69"/>
<polygon fill="midnightblue" stroke="midnightblue" points="890.216,-208.784 880.201,-212.242 890.186,-215.784 890.216,-208.784"/>
</g>
<!-- Node26 -->
<g id="node26" class="node"><title>Node26</title>
<g id="a_node26"><a xlink:href="../../df/d94/classprolog_1_1terms_1_1Unfolder_a82021b31093362b5f28314f871cb3f85.html#a82021b31093362b5f28314f871cb3f85" target="_top" xlink:title="Creates an Unfolder based on goal clause g for resolution step in program p. ">
<polygon fill="none" stroke="black" points="389,-88.5 389,-107.5 539,-107.5 539,-88.5 389,-88.5"/>
<text text-anchor="middle" x="464" y="-95.5" font-family="Helvetica,sans-Serif" font-size="10.00">prolog.terms.Unfolder.Unfolder</text>
</a>
</g>
</g>
<!-- Node25&#45;&gt;Node26 -->
<g id="edge32" class="edge"><title>Node25&#45;&gt;Node26</title>
<path fill="none" stroke="midnightblue" d="M348.265,-98C361.721,-98 375.619,-98 388.898,-98"/>
<polygon fill="midnightblue" stroke="midnightblue" points="348.08,-94.5001 338.08,-98 348.08,-101.5 348.08,-94.5001"/>
</g>
<!-- Node28 -->
<g id="node28" class="node"><title>Node28</title>
<g id="a_node28"><a xlink:href="../../d6/dc4/classprolog_1_1terms_1_1Clause_aff298dbb79a27341afb0860f82ad1464.html#aff298dbb79a27341afb0860f82ad1464" target="_top" xlink:title="prolog.terms.Clause.goal\lFromString">
<polygon fill="none" stroke="black" points="401.5,-39 401.5,-69 526.5,-69 526.5,-39 401.5,-39"/>
<text text-anchor="start" x="409.5" y="-57" font-family="Helvetica,sans-Serif" font-size="10.00">prolog.terms.Clause.goal</text>
<text text-anchor="middle" x="464" y="-46" font-family="Helvetica,sans-Serif" font-size="10.00">FromString</text>
</a>
</g>
</g>
<!-- Node27&#45;&gt;Node28 -->
<g id="edge34" class="edge"><title>Node27&#45;&gt;Node28</title>
<path fill="none" stroke="midnightblue" d="M344.547,-54C363.394,-54 383.318,-54 401.338,-54"/>
<polygon fill="midnightblue" stroke="midnightblue" points="344.507,-50.5001 334.506,-54 344.506,-57.5001 344.507,-50.5001"/>
</g>
<!-- Node29 -->
<g id="node29" class="node"><title>Node29</title>
<g id="a_node29"><a xlink:href="../../d8/d35/classprolog_1_1Init_a0f6db95b70444cd1b933f24ec44814e4.html#a0f6db95b70444cd1b933f24ec44814e4" target="_top" xlink:title="prolog.Init.getGoal">
<polygon fill="none" stroke="black" points="596,-44.5 596,-63.5 692,-63.5 692,-44.5 596,-44.5"/>
<text text-anchor="middle" x="644" y="-51.5" font-family="Helvetica,sans-Serif" font-size="10.00">prolog.Init.getGoal</text>
</a>
</g>
</g>
<!-- Node28&#45;&gt;Node29 -->
<g id="edge35" class="edge"><title>Node28&#45;&gt;Node29</title>
<path fill="none" stroke="midnightblue" d="M537.013,-54C556.872,-54 577.903,-54 595.951,-54"/>
<polygon fill="midnightblue" stroke="midnightblue" points="536.756,-50.5001 526.756,-54 536.756,-57.5001 536.756,-50.5001"/>
</g>
<!-- Node31 -->
<g id="node31" class="node"><title>Node31</title>
<g id="a_node31"><a xlink:href="../../d3/ded/classprolog_1_1terms_1_1Term_a837eb66c18c36b2a0a4ecce8ad7cd144.html#a837eb66c18c36b2a0a4ecce8ad7cd144" target="_top" xlink:title="prolog.terms.Term.fromString">
<polygon fill="none" stroke="black" points="392,-0.5 392,-19.5 536,-19.5 536,-0.5 392,-0.5"/>
<text text-anchor="middle" x="464" y="-7.5" font-family="Helvetica,sans-Serif" font-size="10.00">prolog.terms.Term.fromString</text>
</a>
</g>
</g>
<!-- Node30&#45;&gt;Node31 -->
<g id="edge37" class="edge"><title>Node30&#45;&gt;Node31</title>
<path fill="none" stroke="midnightblue" d="M345.97,-11.7959C361.122,-11.5633 376.918,-11.3209 391.822,-11.0922"/>
<polygon fill="midnightblue" stroke="midnightblue" points="345.547,-8.30184 335.602,-11.955 345.655,-15.301 345.547,-8.30184"/>
</g>
<!-- Node33 -->
<g id="node33" class="node"><title>Node33</title>
<g id="a_node33"><a xlink:href="../../d6/dc4/classprolog_1_1terms_1_1Clause_a0d8b6d3c8de70326ab416be12688896b.html#a0d8b6d3c8de70326ab416be12688896b" target="_top" xlink:title="prolog.terms.Clause.unfold\l_with_goal">
<polygon fill="none" stroke="black" points="397,-323 397,-353 531,-353 531,-323 397,-323"/>
<text text-anchor="start" x="405" y="-341" font-family="Helvetica,sans-Serif" font-size="10.00">prolog.terms.Clause.unfold</text>
<text text-anchor="middle" x="464" y="-330" font-family="Helvetica,sans-Serif" font-size="10.00">_with_goal</text>
</a>
</g>
</g>
<!-- Node32&#45;&gt;Node33 -->
<g id="edge39" class="edge"><title>Node32&#45;&gt;Node33</title>
<path fill="none" stroke="midnightblue" d="M343.867,-336.172C361.375,-336.441 379.846,-336.724 396.881,-336.985"/>
<polygon fill="midnightblue" stroke="midnightblue" points="343.74,-332.67 333.687,-336.016 343.632,-339.669 343.74,-332.67"/>
</g>
<!-- Node34 -->
<g id="node34" class="node"><title>Node34</title>
<g id="a_node34"><a xlink:href="../../df/d94/classprolog_1_1terms_1_1Unfolder_a261a28665ab541b974afb636c3fec84b.html#a261a28665ab541b974afb636c3fec84b" target="_top" xlink:title="Returns a new clause by unfolding the goal with a matching clause in the database, or null if no such clause exists. ">
<polygon fill="none" stroke="black" points="580.5,-323 580.5,-353 707.5,-353 707.5,-323 580.5,-323"/>
<text text-anchor="start" x="588.5" y="-341" font-family="Helvetica,sans-Serif" font-size="10.00">prolog.terms.Unfolder.get</text>
<text text-anchor="middle" x="644" y="-330" font-family="Helvetica,sans-Serif" font-size="10.00">Element</text>
</a>
</g>
</g>
<!-- Node33&#45;&gt;Node34 -->
<g id="edge40" class="edge"><title>Node33&#45;&gt;Node34</title>
<path fill="none" stroke="midnightblue" d="M541.356,-338C554.359,-338 567.73,-338 580.327,-338"/>
<polygon fill="midnightblue" stroke="midnightblue" points="541.028,-334.5 531.028,-338 541.028,-341.5 541.028,-334.5"/>
</g>
<!-- Node34&#45;&gt;Node10 -->
<g id="edge41" class="edge"><title>Node34&#45;&gt;Node10</title>
<path fill="none" stroke="midnightblue" d="M717.689,-345.847C727.948,-346.955 738.494,-348.093 748.745,-349.2"/>
<polygon fill="midnightblue" stroke="midnightblue" points="717.864,-342.346 707.547,-344.752 717.113,-349.305 717.864,-342.346"/>
</g>
</g>
</svg>
        <g id="navigator" transform="translate(0 0)" fill="#404254">
                <rect fill="#f2f5e9" fill-opacity="0.5" stroke="#606060" stroke-width=".5" x="0" y="0" width="60" height="60"/>
                <use id="zoomplus" xlink:href="#zoomPlus" x="17" y="9" onmousedown="handleZoom(evt,'in')"/>
                <use id="zoomminus" xlink:href="#zoomMin" x="42" y="9" onmousedown="handleZoom(evt,'out')"/>
                <use id="reset" xlink:href="#resetDef" x="30" y="36" onmousedown="handleReset()"/>
                <g id="arrowUp" xlink:href="#dirArrow" transform="translate(30 24)" onmousedown="handlePan(0,-1)">
                  <use xlink:href="#rim" fill="#404040">
                        <set attributeName="fill" to="#808080" begin="arrowUp.mouseover" end="arrowUp.mouseout"/>
                  </use>
                  <path fill="none" stroke="white" stroke-width="1.5" d="M0,-3.0v7 M-2.5,-0.5L0,-3.0L2.5,-0.5"/>
                </g>
                <g id="arrowRight" xlink:href="#dirArrow" transform="rotate(90) translate(36 -43)" onmousedown="handlePan(1,0)">
                  <use xlink:href="#rim" fill="#404040">
                        <set attributeName="fill" to="#808080" begin="arrowRight.mouseover" end="arrowRight.mouseout"/>
                  </use>
                  <path fill="none" stroke="white" stroke-width="1.5" d="M0,-3.0v7 M-2.5,-0.5L0,-3.0L2.5,-0.5"/>
                </g>
                <g id="arrowDown" xlink:href="#dirArrow" transform="rotate(180) translate(-30 -48)" onmousedown="handlePan(0,1)">
                  <use xlink:href="#rim" fill="#404040">
                        <set attributeName="fill" to="#808080" begin="arrowDown.mouseover" end="arrowDown.mouseout"/>
                  </use>
                  <path fill="none" stroke="white" stroke-width="1.5" d="M0,-3.0v7 M-2.5,-0.5L0,-3.0L2.5,-0.5"/>
                </g>
                <g id="arrowLeft" xlink:href="#dirArrow" transform="rotate(270) translate(-36 17)" onmousedown="handlePan(-1,0)">
                  <use xlink:href="#rim" fill="#404040">
                        <set attributeName="fill" to="#808080" begin="arrowLeft.mouseover" end="arrowLeft.mouseout"/>
                  </use>
                  <path fill="none" stroke="white" stroke-width="1.5" d="M0,-3.0v7 M-2.5,-0.5L0,-3.0L2.5,-0.5"/>
                </g>
        </g>
        <svg viewBox="0 0 15 15" width="100%" height="30px" preserveAspectRatio="xMaxYMin meet">
         <g id="arrow_out" transform="scale(0.3 0.3)">
          <a xlink:href="classprolog_1_1terms_1_1Clause_a5e5502c9619429232fcb310406256830_a5e5502c9619429232fcb310406256830_icgraph_org.svg" target="_base">
           <rect id="button" ry="5" rx="5" y="6" x="6" height="38" width="38"
                fill="#f2f5e9" fill-opacity="0.5" stroke="#606060" stroke-width="1.0"/>
           <path id="arrow"
             d="M 11.500037,31.436501 C 11.940474,20.09759 22.043105,11.32322 32.158766,21.979434 L 37.068811,17.246167 C 37.068811,17.246167 37.088388,32 37.088388,32 L 22.160133,31.978069 C 22.160133,31.978069 26.997745,27.140456 26.997745,27.140456 C 18.528582,18.264221 13.291696,25.230495 11.500037,31.436501 z"
             style="fill:#404040;"/>
          </a>
         </g>
        </svg>
</svg>
