<?xml version="1.0" encoding="UTF-8" standalone="no"?>
<!DOCTYPE svg PUBLIC "-//W3C//DTD SVG 1.1//EN"
 "http://www.w3.org/Graphics/SVG/1.1/DTD/svg11.dtd">
<!-- Generated by graphviz version 2.38.0 (20140413.2041)
 -->
<!-- Title: prolog.terms.Clause.pprint Pages: 1 -->
<!--zoomable 323 -->
<svg id="main" version="1.1" xmlns="http://www.w3.org/2000/svg" xmlns:xlink="http://www.w3.org/1999/xlink" xml:space="preserve" onload="init(evt)">
<style type="text/css"><![CDATA[
.edge:hover path { stroke: red; }
.edge:hover polygon { stroke: red; fill: red; }
]]></style>
<script type="text/javascript"><![CDATA[
var edges = document.getElementsByTagName('g');
if (edges && edges.length) {
  for (var i=0;i<edges.length;i++) {
    if (edges[i].id.substr(0,4)=='edge') {
      edges[i].setAttribute('class','edge');
    }
  }
}
]]></script>
        <defs>
                <circle id="rim" cx="0" cy="0" r="7"/>
                <circle id="rim2" cx="0" cy="0" r="3.5"/>
                <g id="zoomPlus">
                        <use xlink:href="#rim" fill="#404040">
                                <set attributeName="fill" to="#808080" begin="zoomplus.mouseover" end="zoomplus.mouseout"/>
                        </use>
                        <path d="M-4,0h8M0,-4v8" fill="none" stroke="white" stroke-width="1.5" pointer-events="none"/>
                </g>
                <g id="zoomMin">
                        <use xlink:href="#rim" fill="#404040">
                                <set attributeName="fill" to="#808080" begin="zoomminus.mouseover" end="zoomminus.mouseout"/>
                        </use>
                        <path d="M-4,0h8" fill="none" stroke="white" stroke-width="1.5" pointer-events="none"/>
                </g>
                <g id="dirArrow">
                        <path fill="none" stroke="white" stroke-width="1.5" d="M0,-3.0v7 M-2.5,-0.5L0,-3.0L2.5,-0.5"/>
                </g>
               <g id="resetDef">
                       <use xlink:href="#rim2" fill="#404040">
                               <set attributeName="fill" to="#808080" begin="reset.mouseover" end="reset.mouseout"/>
                       </use>
               </g>
        </defs>

<script type="text/javascript">
var viewWidth = 1206;
var viewHeight = 323;
var sectionId = 'dynsection-0';
</script>
<script xlink:href="../../svgpan.js"/>
<svg id="graph" class="graph">
<g id="viewport">
<title>prolog.terms.Clause.pprint</title>
<!-- Node1 -->
<g id="node1" class="node"><title>Node1</title>
<polygon fill="#bfbfbf" stroke="black" points="0,-115.5 0,-134.5 131,-134.5 131,-115.5 0,-115.5"/>
<text text-anchor="middle" x="65.5" y="-122.5" font-family="Helvetica,sans-Serif" font-size="10.00">prolog.terms.Clause.pprint</text>
</g>
<!-- Node2 -->
<g id="node2" class="node"><title>Node2</title>
<g id="a_node2"><a xlink:href="../../d7/df1/classprolog_1_1io_1_1Parser_aafef312f551e1239883d8befd06b6b1b.html#aafef312f551e1239883d8befd06b6b1b" target="_top" xlink:title="prolog.io.Parser.errorClause">
<polygon fill="none" stroke="black" points="177,-232.5 177,-251.5 315,-251.5 315,-232.5 177,-232.5"/>
<text text-anchor="middle" x="246" y="-239.5" font-family="Helvetica,sans-Serif" font-size="10.00">prolog.io.Parser.errorClause</text>
</a>
</g>
</g>
<!-- Node1&#45;&gt;Node2 -->
<g id="edge1" class="edge"><title>Node1&#45;&gt;Node2</title>
<path fill="none" stroke="midnightblue" d="M84.6065,-141.176C104.083,-158.099 136.393,-184.821 167,-204 184.742,-215.118 206.213,-225.365 222.133,-232.41"/>
<polygon fill="midnightblue" stroke="midnightblue" points="86.911,-138.541 77.0872,-134.573 82.2924,-143.801 86.911,-138.541"/>
</g>
<!-- Node13 -->
<g id="node13" class="node"><title>Node13</title>
<g id="a_node13"><a xlink:href="../../d8/d35/classprolog_1_1Init_a2471811f50fbed4de5df26ee530f1e2e.html#a2471811f50fbed4de5df26ee530f1e2e" target="_top" xlink:title="evaluates and times a Goal querying program P ">
<polygon fill="none" stroke="black" points="195.5,-175.5 195.5,-194.5 296.5,-194.5 296.5,-175.5 195.5,-175.5"/>
<text text-anchor="middle" x="246" y="-182.5" font-family="Helvetica,sans-Serif" font-size="10.00">prolog.Init.timeGoal</text>
</a>
</g>
</g>
<!-- Node1&#45;&gt;Node13 -->
<g id="edge12" class="edge"><title>Node1&#45;&gt;Node13</title>
<path fill="none" stroke="midnightblue" d="M101.956,-138.145C121.138,-145.144 145.286,-153.774 167,-161 181.922,-165.966 198.568,-171.137 212.638,-175.402"/>
<polygon fill="midnightblue" stroke="midnightblue" points="103.01,-134.804 92.4164,-134.65 100.602,-141.376 103.01,-134.804"/>
</g>
<!-- Node16 -->
<g id="node16" class="node"><title>Node16</title>
<g id="a_node16"><a xlink:href="../../d6/dc4/classprolog_1_1terms_1_1Clause_a00d8b13e5351a9f8c1ef80de688cd266.html#a00d8b13e5351a9f8c1ef80de688cd266" target="_top" xlink:title="Reads a goal as a clause containing a dummy header with all variables in it. ">
<polygon fill="none" stroke="black" points="740.5,-141.5 740.5,-160.5 876.5,-160.5 876.5,-141.5 740.5,-141.5"/>
<text text-anchor="middle" x="808.5" y="-148.5" font-family="Helvetica,sans-Serif" font-size="10.00">prolog.terms.Clause.toGoal</text>
</a>
</g>
</g>
<!-- Node1&#45;&gt;Node16 -->
<g id="edge15" class="edge"><title>Node1&#45;&gt;Node16</title>
<path fill="none" stroke="midnightblue" d="M141.404,-127.628C286.106,-132.705 601.983,-143.789 740.333,-148.643"/>
<polygon fill="midnightblue" stroke="midnightblue" points="141.402,-124.126 131.286,-127.273 141.157,-131.122 141.402,-124.126"/>
</g>
<!-- Node17 -->
<g id="node17" class="node"><title>Node17</title>
<g id="a_node17"><a xlink:href="../../df/d94/classprolog_1_1terms_1_1Unfolder_a2cf38e58b7aea18b62e307b5ce128121.html#a2cf38e58b7aea18b62e307b5ce128121" target="_top" xlink:title="Returns a string representation of this unfolder, based on the original clause it is based on...">
<polygon fill="none" stroke="black" points="185,-88 185,-118 307,-118 307,-88 185,-88"/>
<text text-anchor="start" x="193" y="-106" font-family="Helvetica,sans-Serif" font-size="10.00">prolog.terms.Unfolder.to</text>
<text text-anchor="middle" x="246" y="-95" font-family="Helvetica,sans-Serif" font-size="10.00">String</text>
</a>
</g>
</g>
<!-- Node1&#45;&gt;Node17 -->
<g id="edge17" class="edge"><title>Node1&#45;&gt;Node17</title>
<path fill="none" stroke="midnightblue" d="M141.198,-115.794C155.798,-113.994 170.932,-112.129 184.98,-110.397"/>
<polygon fill="midnightblue" stroke="midnightblue" points="140.692,-112.329 131.195,-117.026 141.548,-119.277 140.692,-112.329"/>
</g>
<!-- Node18 -->
<g id="node18" class="node"><title>Node18</title>
<g id="a_node18"><a xlink:href="../../df/d94/classprolog_1_1terms_1_1Unfolder_aa582e02b2fe0debc9cdee377c11dc401.html#aa582e02b2fe0debc9cdee377c11dc401" target="_top" xlink:title="Tracer on exiting g. ">
<polygon fill="none" stroke="black" points="178.5,-39 178.5,-69 313.5,-69 313.5,-39 178.5,-39"/>
<text text-anchor="start" x="186.5" y="-57" font-family="Helvetica,sans-Serif" font-size="10.00">prolog.terms.Unfolder.trace</text>
<text text-anchor="middle" x="246" y="-46" font-family="Helvetica,sans-Serif" font-size="10.00">_failing</text>
</a>
</g>
</g>
<!-- Node1&#45;&gt;Node18 -->
<g id="edge18" class="edge"><title>Node1&#45;&gt;Node18</title>
<path fill="none" stroke="midnightblue" d="M94.1725,-110.787C114.11,-100.862 141.825,-87.7058 167,-78 175.196,-74.8401 183.998,-71.803 192.63,-69.0147"/>
<polygon fill="midnightblue" stroke="midnightblue" points="92.4176,-107.751 85.0549,-115.37 95.5616,-114.006 92.4176,-107.751"/>
</g>
<!-- Node20 -->
<g id="node20" class="node"><title>Node20</title>
<g id="a_node20"><a xlink:href="../../df/d94/classprolog_1_1terms_1_1Unfolder_ac163a708c1c928bc040e66ed88addefc.html#ac163a708c1c928bc040e66ed88addefc" target="_top" xlink:title="Tracer on entering g. ">
<polygon fill="none" stroke="black" points="167,-0.5 167,-19.5 325,-19.5 325,-0.5 167,-0.5"/>
<text text-anchor="middle" x="246" y="-7.5" font-family="Helvetica,sans-Serif" font-size="10.00">prolog.terms.Unfolder.trace_goal</text>
</a>
</g>
</g>
<!-- Node1&#45;&gt;Node20 -->
<g id="edge20" class="edge"><title>Node1&#45;&gt;Node20</title>
<path fill="none" stroke="midnightblue" d="M80.0194,-107.311C97.6391,-85.5233 130.537,-48.954 167,-29 174.091,-25.1193 181.973,-22.0218 189.924,-19.5517"/>
<polygon fill="midnightblue" stroke="midnightblue" points="77.088,-105.376 73.6372,-115.393 82.5816,-109.714 77.088,-105.376"/>
</g>
<!-- Node3 -->
<g id="node3" class="node"><title>Node3</title>
<g id="a_node3"><a xlink:href="../../d7/df1/classprolog_1_1io_1_1Parser_ad0255f716753ec63c0f4e7cf9a8d2d38.html#ad0255f716753ec63c0f4e7cf9a8d2d38" target="_top" xlink:title="Main Parser interface: reads a clause together with variable name information. ">
<polygon fill="none" stroke="black" points="367.5,-251.5 367.5,-270.5 504.5,-270.5 504.5,-251.5 367.5,-251.5"/>
<text text-anchor="middle" x="436" y="-258.5" font-family="Helvetica,sans-Serif" font-size="10.00">prolog.io.Parser.readClause</text>
</a>
</g>
</g>
<!-- Node2&#45;&gt;Node3 -->
<g id="edge2" class="edge"><title>Node2&#45;&gt;Node3</title>
<path fill="none" stroke="midnightblue" d="M325.235,-249.907C339.243,-251.322 353.732,-252.787 367.409,-254.169"/>
<polygon fill="midnightblue" stroke="midnightblue" points="325.439,-246.41 315.138,-248.886 324.735,-253.374 325.439,-246.41"/>
</g>
<!-- Node4 -->
<g id="node4" class="node"><title>Node4</title>
<g id="a_node4"><a xlink:href="../../da/dd9/classprolog_1_1fluents_1_1DataBase_a83885e10b61d6bf129307d9bf50d93de.html#a83885e10b61d6bf129307d9bf50d93de" target="_top" xlink:title="prolog.fluents.DataBase.apply\l_parser">
<polygon fill="none" stroke="black" points="547,-284 547,-314 695,-314 695,-284 547,-284"/>
<text text-anchor="start" x="555" y="-302" font-family="Helvetica,sans-Serif" font-size="10.00">prolog.fluents.DataBase.apply</text>
<text text-anchor="middle" x="621" y="-291" font-family="Helvetica,sans-Serif" font-size="10.00">_parser</text>
</a>
</g>
</g>
<!-- Node3&#45;&gt;Node4 -->
<g id="edge3" class="edge"><title>Node3&#45;&gt;Node4</title>
<path fill="none" stroke="midnightblue" d="M493.041,-272.637C510.217,-276.204 529.366,-280.18 547.476,-283.94"/>
<polygon fill="midnightblue" stroke="midnightblue" points="493.681,-269.195 483.179,-270.589 492.258,-276.049 493.681,-269.195"/>
</g>
<!-- Node6 -->
<g id="node6" class="node"><title>Node6</title>
<g id="a_node6"><a xlink:href="../../d7/df1/classprolog_1_1io_1_1Parser_acd7f700bcb96620b8c6770c2fcae5802.html#acd7f700bcb96620b8c6770c2fcae5802" target="_top" xlink:title="prolog.io.Parser.clsFrom\lString">
<polygon fill="none" stroke="black" points="559.5,-235 559.5,-265 682.5,-265 682.5,-235 559.5,-235"/>
<text text-anchor="start" x="567.5" y="-253" font-family="Helvetica,sans-Serif" font-size="10.00">prolog.io.Parser.clsFrom</text>
<text text-anchor="middle" x="621" y="-242" font-family="Helvetica,sans-Serif" font-size="10.00">String</text>
</a>
</g>
</g>
<!-- Node3&#45;&gt;Node6 -->
<g id="edge5" class="edge"><title>Node3&#45;&gt;Node6</title>
<path fill="none" stroke="midnightblue" d="M514.821,-256.322C529.695,-255.428 545.062,-254.504 559.302,-253.649"/>
<polygon fill="midnightblue" stroke="midnightblue" points="514.394,-252.841 504.623,-256.935 514.815,-259.829 514.394,-252.841"/>
</g>
<!-- Node12 -->
<g id="node12" class="node"><title>Node12</title>
<g id="a_node12"><a xlink:href="../../d4/d09/classprolog_1_1io_1_1ClauseReader_a805e9a5ebc401e1099f39af9b3f6fb47.html#a805e9a5ebc401e1099f39af9b3f6fb47" target="_top" xlink:title="prolog.io.ClauseReader.get\lElement">
<polygon fill="none" stroke="black" points="553.5,-186 553.5,-216 688.5,-216 688.5,-186 553.5,-186"/>
<text text-anchor="start" x="561.5" y="-204" font-family="Helvetica,sans-Serif" font-size="10.00">prolog.io.ClauseReader.get</text>
<text text-anchor="middle" x="621" y="-193" font-family="Helvetica,sans-Serif" font-size="10.00">Element</text>
</a>
</g>
</g>
<!-- Node3&#45;&gt;Node12 -->
<g id="edge11" class="edge"><title>Node3&#45;&gt;Node12</title>
<path fill="none" stroke="midnightblue" d="M488.953,-248.834C496.412,-246.749 503.944,-244.454 511,-242 527.537,-236.247 530.702,-232.398 547,-226 555.604,-222.622 564.873,-219.249 573.824,-216.124"/>
<polygon fill="midnightblue" stroke="midnightblue" points="487.983,-245.471 479.237,-251.451 489.804,-252.23 487.983,-245.471"/>
</g>
<!-- Node5 -->
<g id="node5" class="node"><title>Node5</title>
<g id="a_node5"><a xlink:href="../../da/dd9/classprolog_1_1fluents_1_1DataBase_af8b26948ded7bba6386b984f463bf166.html#af8b26948ded7bba6386b984f463bf166" target="_top" xlink:title="prolog.fluents.DataBase.stream\lToProg">
<polygon fill="none" stroke="black" points="731,-284 731,-314 886,-314 886,-284 731,-284"/>
<text text-anchor="start" x="739" y="-302" font-family="Helvetica,sans-Serif" font-size="10.00">prolog.fluents.DataBase.stream</text>
<text text-anchor="middle" x="808.5" y="-291" font-family="Helvetica,sans-Serif" font-size="10.00">ToProg</text>
</a>
</g>
</g>
<!-- Node4&#45;&gt;Node5 -->
<g id="edge4" class="edge"><title>Node4&#45;&gt;Node5</title>
<path fill="none" stroke="midnightblue" d="M705.059,-299C713.645,-299 722.344,-299 730.856,-299"/>
<polygon fill="midnightblue" stroke="midnightblue" points="705.048,-295.5 695.048,-299 705.048,-302.5 705.048,-295.5"/>
</g>
<!-- Node7 -->
<g id="node7" class="node"><title>Node7</title>
<g id="a_node7"><a xlink:href="../../d6/dc4/classprolog_1_1terms_1_1Clause_a253e30217e7c206f42b947ba0dc7d754.html#a253e30217e7c206f42b947ba0dc7d754" target="_top" xlink:title="Extracts a clause from its String representation. ">
<polygon fill="none" stroke="black" points="740.5,-206 740.5,-236 876.5,-236 876.5,-206 740.5,-206"/>
<text text-anchor="start" x="748.5" y="-224" font-family="Helvetica,sans-Serif" font-size="10.00">prolog.terms.Clause.clause</text>
<text text-anchor="middle" x="808.5" y="-213" font-family="Helvetica,sans-Serif" font-size="10.00">FromString</text>
</a>
</g>
</g>
<!-- Node6&#45;&gt;Node7 -->
<g id="edge6" class="edge"><title>Node6&#45;&gt;Node7</title>
<path fill="none" stroke="midnightblue" d="M692.816,-238.929C708.371,-236.497 724.799,-233.929 740.211,-231.52"/>
<polygon fill="midnightblue" stroke="midnightblue" points="692.079,-235.502 682.74,-240.504 693.16,-242.418 692.079,-235.502"/>
</g>
<!-- Node8 -->
<g id="node8" class="node"><title>Node8</title>
<g id="a_node8"><a xlink:href="../../d6/dc4/classprolog_1_1terms_1_1Clause_a59a965be3fc2e88226d5202dca1b2a26.html#a59a965be3fc2e88226d5202dca1b2a26" target="_top" xlink:title="Constructs a clause by parsing its string representation. ">
<polygon fill="none" stroke="black" points="925,-234.5 925,-253.5 1063,-253.5 1063,-234.5 925,-234.5"/>
<text text-anchor="middle" x="994" y="-241.5" font-family="Helvetica,sans-Serif" font-size="10.00">prolog.terms.Clause.Clause</text>
</a>
</g>
</g>
<!-- Node7&#45;&gt;Node8 -->
<g id="edge7" class="edge"><title>Node7&#45;&gt;Node8</title>
<path fill="none" stroke="midnightblue" d="M886.625,-230.667C899.344,-232.261 912.448,-233.904 924.925,-235.467"/>
<polygon fill="midnightblue" stroke="midnightblue" points="886.884,-227.172 876.527,-229.401 886.014,-234.118 886.884,-227.172"/>
</g>
<!-- Node9 -->
<g id="node9" class="node"><title>Node9</title>
<g id="a_node9"><a xlink:href="../../d3/ded/classprolog_1_1terms_1_1Term_a837eb66c18c36b2a0a4ecce8ad7cd144.html#a837eb66c18c36b2a0a4ecce8ad7cd144" target="_top" xlink:title="prolog.terms.Term.fromString">
<polygon fill="none" stroke="black" points="922,-196.5 922,-215.5 1066,-215.5 1066,-196.5 922,-196.5"/>
<text text-anchor="middle" x="994" y="-203.5" font-family="Helvetica,sans-Serif" font-size="10.00">prolog.terms.Term.fromString</text>
</a>
</g>
</g>
<!-- Node7&#45;&gt;Node9 -->
<g id="edge8" class="edge"><title>Node7&#45;&gt;Node9</title>
<path fill="none" stroke="midnightblue" d="M886.669,-214.692C898.328,-213.739 910.309,-212.76 921.833,-211.818"/>
<polygon fill="midnightblue" stroke="midnightblue" points="886.208,-211.218 876.527,-215.521 886.779,-218.195 886.208,-211.218"/>
</g>
<!-- Node10 -->
<g id="node10" class="node"><title>Node10</title>
<g id="a_node10"><a xlink:href="../../d6/dc4/classprolog_1_1terms_1_1Clause_aff298dbb79a27341afb0860f82ad1464.html#aff298dbb79a27341afb0860f82ad1464" target="_top" xlink:title="prolog.terms.Clause.goal\lFromString">
<polygon fill="none" stroke="black" points="931.5,-140 931.5,-170 1056.5,-170 1056.5,-140 931.5,-140"/>
<text text-anchor="start" x="939.5" y="-158" font-family="Helvetica,sans-Serif" font-size="10.00">prolog.terms.Clause.goal</text>
<text text-anchor="middle" x="994" y="-147" font-family="Helvetica,sans-Serif" font-size="10.00">FromString</text>
</a>
</g>
</g>
<!-- Node7&#45;&gt;Node10 -->
<g id="edge9" class="edge"><title>Node7&#45;&gt;Node10</title>
<path fill="none" stroke="midnightblue" d="M861.351,-202.351C889.734,-192.142 924.445,-179.657 951.097,-170.071"/>
<polygon fill="midnightblue" stroke="midnightblue" points="859.824,-199.18 851.599,-205.858 862.193,-205.767 859.824,-199.18"/>
</g>
<!-- Node11 -->
<g id="node11" class="node"><title>Node11</title>
<g id="a_node11"><a xlink:href="../../d8/d35/classprolog_1_1Init_a0f6db95b70444cd1b933f24ec44814e4.html#a0f6db95b70444cd1b933f24ec44814e4" target="_top" xlink:title="prolog.Init.getGoal">
<polygon fill="none" stroke="black" points="1102,-145.5 1102,-164.5 1198,-164.5 1198,-145.5 1102,-145.5"/>
<text text-anchor="middle" x="1150" y="-152.5" font-family="Helvetica,sans-Serif" font-size="10.00">prolog.Init.getGoal</text>
</a>
</g>
</g>
<!-- Node10&#45;&gt;Node11 -->
<g id="edge10" class="edge"><title>Node10&#45;&gt;Node11</title>
<path fill="none" stroke="midnightblue" d="M1067.08,-155C1078.92,-155 1090.92,-155 1101.94,-155"/>
<polygon fill="midnightblue" stroke="midnightblue" points="1066.75,-151.5 1056.75,-155 1066.75,-158.5 1066.75,-151.5"/>
</g>
<!-- Node14 -->
<g id="node14" class="node"><title>Node14</title>
<g id="a_node14"><a xlink:href="../../d8/d35/classprolog_1_1Init_a0348efff7140aed75f8364f90b7c2b8b.html#a0348efff7140aed75f8364f90b7c2b8b" target="_top" xlink:title="prolog.Init.run_query">
<polygon fill="none" stroke="black" points="383.5,-213.5 383.5,-232.5 488.5,-232.5 488.5,-213.5 383.5,-213.5"/>
<text text-anchor="middle" x="436" y="-220.5" font-family="Helvetica,sans-Serif" font-size="10.00">prolog.Init.run_query</text>
</a>
</g>
</g>
<!-- Node13&#45;&gt;Node14 -->
<g id="edge13" class="edge"><title>Node13&#45;&gt;Node14</title>
<path fill="none" stroke="midnightblue" d="M304.437,-196.61C331.174,-202.014 362.588,-208.364 387.901,-213.48"/>
<polygon fill="midnightblue" stroke="midnightblue" points="304.936,-193.14 294.44,-194.589 303.549,-200.001 304.936,-193.14"/>
</g>
<!-- Node15 -->
<g id="node15" class="node"><title>Node15</title>
<g id="a_node15"><a xlink:href="../../d8/d35/classprolog_1_1Init_a3e8704cf8b2d909fccc79e967dd48171.html#a3e8704cf8b2d909fccc79e967dd48171" target="_top" xlink:title="prolog.Init.standardTop">
<polygon fill="none" stroke="black" points="378,-175.5 378,-194.5 494,-194.5 494,-175.5 378,-175.5"/>
<text text-anchor="middle" x="436" y="-182.5" font-family="Helvetica,sans-Serif" font-size="10.00">prolog.Init.standardTop</text>
</a>
</g>
</g>
<!-- Node13&#45;&gt;Node15 -->
<g id="edge14" class="edge"><title>Node13&#45;&gt;Node15</title>
<path fill="none" stroke="midnightblue" d="M307.072,-185C329.757,-185 355.486,-185 377.891,-185"/>
<polygon fill="midnightblue" stroke="midnightblue" points="306.887,-181.5 296.887,-185 306.887,-188.5 306.887,-181.5"/>
</g>
<!-- Node16&#45;&gt;Node10 -->
<g id="edge16" class="edge"><title>Node16&#45;&gt;Node10</title>
<path fill="none" stroke="midnightblue" d="M886.728,-152.683C901.613,-153.008 917.022,-153.344 931.332,-153.656"/>
<polygon fill="midnightblue" stroke="midnightblue" points="886.601,-149.18 876.527,-152.461 886.448,-156.178 886.601,-149.18"/>
</g>
<!-- Node19 -->
<g id="node19" class="node"><title>Node19</title>
<g id="a_node19"><a xlink:href="../../df/d94/classprolog_1_1terms_1_1Unfolder_a82021b31093362b5f28314f871cb3f85.html#a82021b31093362b5f28314f871cb3f85" target="_top" xlink:title="Creates an Unfolder based on goal clause g for resolution step in program p. ">
<polygon fill="none" stroke="black" points="361,-22.5 361,-41.5 511,-41.5 511,-22.5 361,-22.5"/>
<text text-anchor="middle" x="436" y="-29.5" font-family="Helvetica,sans-Serif" font-size="10.00">prolog.terms.Unfolder.Unfolder</text>
</a>
</g>
</g>
<!-- Node18&#45;&gt;Node19 -->
<g id="edge19" class="edge"><title>Node18&#45;&gt;Node19</title>
<path fill="none" stroke="midnightblue" d="M323.731,-45.0208C335.993,-43.5859 348.66,-42.1036 360.86,-40.6759"/>
<polygon fill="midnightblue" stroke="midnightblue" points="323.072,-41.574 313.546,-46.2127 323.885,-48.5266 323.072,-41.574"/>
</g>
<!-- Node20&#45;&gt;Node19 -->
<g id="edge21" class="edge"><title>Node20&#45;&gt;Node19</title>
<path fill="none" stroke="midnightblue" d="M335.119,-20.3118C343.698,-21.3158 352.343,-22.3274 360.766,-23.313"/>
<polygon fill="midnightblue" stroke="midnightblue" points="335.435,-16.8249 325.096,-19.1389 334.621,-23.7775 335.435,-16.8249"/>
</g>
</g>
</svg>
        <g id="navigator" transform="translate(0 0)" fill="#404254">
                <rect fill="#f2f5e9" fill-opacity="0.5" stroke="#606060" stroke-width=".5" x="0" y="0" width="60" height="60"/>
                <use id="zoomplus" xlink:href="#zoomPlus" x="17" y="9" onmousedown="handleZoom(evt,'in')"/>
                <use id="zoomminus" xlink:href="#zoomMin" x="42" y="9" onmousedown="handleZoom(evt,'out')"/>
                <use id="reset" xlink:href="#resetDef" x="30" y="36" onmousedown="handleReset()"/>
                <g id="arrowUp" xlink:href="#dirArrow" transform="translate(30 24)" onmousedown="handlePan(0,-1)">
                  <use xlink:href="#rim" fill="#404040">
                        <set attributeName="fill" to="#808080" begin="arrowUp.mouseover" end="arrowUp.mouseout"/>
                  </use>
                  <path fill="none" stroke="white" stroke-width="1.5" d="M0,-3.0v7 M-2.5,-0.5L0,-3.0L2.5,-0.5"/>
                </g>
                <g id="arrowRight" xlink:href="#dirArrow" transform="rotate(90) translate(36 -43)" onmousedown="handlePan(1,0)">
                  <use xlink:href="#rim" fill="#404040">
                        <set attributeName="fill" to="#808080" begin="arrowRight.mouseover" end="arrowRight.mouseout"/>
                  </use>
                  <path fill="none" stroke="white" stroke-width="1.5" d="M0,-3.0v7 M-2.5,-0.5L0,-3.0L2.5,-0.5"/>
                </g>
                <g id="arrowDown" xlink:href="#dirArrow" transform="rotate(180) translate(-30 -48)" onmousedown="handlePan(0,1)">
                  <use xlink:href="#rim" fill="#404040">
                        <set attributeName="fill" to="#808080" begin="arrowDown.mouseover" end="arrowDown.mouseout"/>
                  </use>
                  <path fill="none" stroke="white" stroke-width="1.5" d="M0,-3.0v7 M-2.5,-0.5L0,-3.0L2.5,-0.5"/>
                </g>
                <g id="arrowLeft" xlink:href="#dirArrow" transform="rotate(270) translate(-36 17)" onmousedown="handlePan(-1,0)">
                  <use xlink:href="#rim" fill="#404040">
                        <set attributeName="fill" to="#808080" begin="arrowLeft.mouseover" end="arrowLeft.mouseout"/>
                  </use>
                  <path fill="none" stroke="white" stroke-width="1.5" d="M0,-3.0v7 M-2.5,-0.5L0,-3.0L2.5,-0.5"/>
                </g>
        </g>
        <svg viewBox="0 0 15 15" width="100%" height="30px" preserveAspectRatio="xMaxYMin meet">
         <g id="arrow_out" transform="scale(0.3 0.3)">
          <a xlink:href="classprolog_1_1terms_1_1Clause_a42d56fcb3bedfc14a0ab04dacf08d9e0_a42d56fcb3bedfc14a0ab04dacf08d9e0_icgraph_org.svg" target="_base">
           <rect id="button" ry="5" rx="5" y="6" x="6" height="38" width="38"
                fill="#f2f5e9" fill-opacity="0.5" stroke="#606060" stroke-width="1.0"/>
           <path id="arrow"
             d="M 11.500037,31.436501 C 11.940474,20.09759 22.043105,11.32322 32.158766,21.979434 L 37.068811,17.246167 C 37.068811,17.246167 37.088388,32 37.088388,32 L 22.160133,31.978069 C 22.160133,31.978069 26.997745,27.140456 26.997745,27.140456 C 18.528582,18.264221 13.291696,25.230495 11.500037,31.436501 z"
             style="fill:#404040;"/>
          </a>
         </g>
        </svg>
</svg>
