<?xml version="1.0" encoding="UTF-8" standalone="no"?>
<!DOCTYPE svg PUBLIC "-//W3C//DTD SVG 1.1//EN"
 "http://www.w3.org/Graphics/SVG/1.1/DTD/svg11.dtd">
<!-- Generated by graphviz version 2.38.0 (20140413.2041)
 -->
<!-- Title: prolog.terms.Clause.ccopy Pages: 1 -->
<!--zoomable 220 -->
<svg id="main" version="1.1" xmlns="http://www.w3.org/2000/svg" xmlns:xlink="http://www.w3.org/1999/xlink" xml:space="preserve" onload="init(evt)">
<style type="text/css"><![CDATA[
.edge:hover path { stroke: red; }
.edge:hover polygon { stroke: red; fill: red; }
]]></style>
<script type="text/javascript"><![CDATA[
var edges = document.getElementsByTagName('g');
if (edges && edges.length) {
  for (var i=0;i<edges.length;i++) {
    if (edges[i].id.substr(0,4)=='edge') {
      edges[i].setAttribute('class','edge');
    }
  }
}
]]></script>
        <defs>
                <circle id="rim" cx="0" cy="0" r="7"/>
                <circle id="rim2" cx="0" cy="0" r="3.5"/>
                <g id="zoomPlus">
                        <use xlink:href="#rim" fill="#404040">
                                <set attributeName="fill" to="#808080" begin="zoomplus.mouseover" end="zoomplus.mouseout"/>
                        </use>
                        <path d="M-4,0h8M0,-4v8" fill="none" stroke="white" stroke-width="1.5" pointer-events="none"/>
                </g>
                <g id="zoomMin">
                        <use xlink:href="#rim" fill="#404040">
                                <set attributeName="fill" to="#808080" begin="zoomminus.mouseover" end="zoomminus.mouseout"/>
                        </use>
                        <path d="M-4,0h8" fill="none" stroke="white" stroke-width="1.5" pointer-events="none"/>
                </g>
                <g id="dirArrow">
                        <path fill="none" stroke="white" stroke-width="1.5" d="M0,-3.0v7 M-2.5,-0.5L0,-3.0L2.5,-0.5"/>
                </g>
               <g id="resetDef">
                       <use xlink:href="#rim2" fill="#404040">
                               <set attributeName="fill" to="#808080" begin="reset.mouseover" end="reset.mouseout"/>
                       </use>
               </g>
        </defs>

<script type="text/javascript">
var viewWidth = 1731;
var viewHeight = 220;
var sectionId = 'dynsection-1';
</script>
<script xlink:href="../../svgpan.js"/>
<svg id="graph" class="graph">
<g id="viewport">
<title>prolog.terms.Clause.ccopy</title>
<!-- Node1 -->
<g id="node1" class="node"><title>Node1</title>
<polygon fill="#bfbfbf" stroke="black" points="0,-129 0,-148 134,-148 134,-129 0,-129"/>
<text text-anchor="middle" x="67" y="-136" font-family="Helvetica,sans-Serif" font-size="10.00">prolog.terms.Clause.ccopy</text>
</g>
<!-- Node2 -->
<g id="node2" class="node"><title>Node2</title>
<g id="a_node2"><a xlink:href="../../df/d94/classprolog_1_1terms_1_1Unfolder_aecb7a5d616b5375d40405f66c9401637.html#aecb7a5d616b5375d40405f66c9401637" target="_top" xlink:title="Extracts an answer at the end of an AND&#45;derivation. ">
<polygon fill="none" stroke="black" points="510,-123.5 510,-153.5 637,-153.5 637,-123.5 510,-123.5"/>
<text text-anchor="start" x="518" y="-141.5" font-family="Helvetica,sans-Serif" font-size="10.00">prolog.terms.Unfolder.get</text>
<text text-anchor="middle" x="573.5" y="-130.5" font-family="Helvetica,sans-Serif" font-size="10.00">Answer</text>
</a>
</g>
</g>
<!-- Node1&#45;&gt;Node2 -->
<g id="edge1" class="edge"><title>Node1&#45;&gt;Node2</title>
<path fill="none" stroke="midnightblue" d="M144.232,-138.5C244.042,-138.5 417.16,-138.5 509.777,-138.5"/>
<polygon fill="midnightblue" stroke="midnightblue" points="144.214,-135 134.214,-138.5 144.214,-142 144.214,-135"/>
</g>
<!-- Node19 -->
<g id="node19" class="node"><title>Node19</title>
<g id="a_node19"><a xlink:href="../../d4/d26/classprolog_1_1terms_1_1Prog_a9e9f1fcf979c833292d594d709d0f689.html#a9e9f1fcf979c833292d594d709d0f689" target="_top" xlink:title="Creates a Prog starting execution with argument &quot;goal&quot;. ">
<polygon fill="none" stroke="black" points="348.5,-86 348.5,-105 465.5,-105 465.5,-86 348.5,-86"/>
<text text-anchor="middle" x="407" y="-93" font-family="Helvetica,sans-Serif" font-size="10.00">prolog.terms.Prog.Prog</text>
</a>
</g>
</g>
<!-- Node1&#45;&gt;Node19 -->
<g id="edge20" class="edge"><title>Node1&#45;&gt;Node19</title>
<path fill="none" stroke="midnightblue" d="M144.247,-127.915C152.93,-126.745 161.655,-125.585 170,-124.5 230.789,-116.594 300.465,-108.102 348.263,-102.364"/>
<polygon fill="midnightblue" stroke="midnightblue" points="143.538,-124.479 134.098,-129.289 144.477,-131.415 143.538,-124.479"/>
</g>
<!-- Node21 -->
<g id="node21" class="node"><title>Node21</title>
<g id="a_node21"><a xlink:href="../../d6/dc4/classprolog_1_1terms_1_1Clause_a9c5f957d0240113f4328ebbc73d3b31d.html#a9c5f957d0240113f4328ebbc73d3b31d" target="_top" xlink:title="Algebraic composition operation of 2 Clauses, doing the basic resolution step Prolog is based on...">
<polygon fill="none" stroke="black" points="170,-170 170,-189 304,-189 304,-170 170,-170"/>
<text text-anchor="middle" x="237" y="-177" font-family="Helvetica,sans-Serif" font-size="10.00">prolog.terms.Clause.unfold</text>
</a>
</g>
</g>
<!-- Node1&#45;&gt;Node21 -->
<g id="edge23" class="edge"><title>Node1&#45;&gt;Node21</title>
<path fill="none" stroke="midnightblue" d="M116.808,-150.412C142.298,-156.632 173.066,-164.141 196.956,-169.971"/>
<polygon fill="midnightblue" stroke="midnightblue" points="117.51,-146.98 106.965,-148.009 115.85,-153.78 117.51,-146.98"/>
</g>
<!-- Node3 -->
<g id="node3" class="node"><title>Node3</title>
<g id="a_node3"><a xlink:href="../../d4/d26/classprolog_1_1terms_1_1Prog_ac5d988b907a2843fcfcba4d1fd1e0deb.html#ac5d988b907a2843fcfcba4d1fd1e0deb" target="_top" xlink:title="Here is where actual LD&#45;resolution computation happens. ">
<polygon fill="none" stroke="black" points="673,-151 673,-170 819,-170 819,-151 673,-151"/>
<text text-anchor="middle" x="746" y="-158" font-family="Helvetica,sans-Serif" font-size="10.00">prolog.terms.Prog.getElement</text>
</a>
</g>
</g>
<!-- Node2&#45;&gt;Node3 -->
<g id="edge2" class="edge"><title>Node2&#45;&gt;Node3</title>
<path fill="none" stroke="midnightblue" d="M647.008,-147.856C655.603,-148.965 664.376,-150.097 672.965,-151.205"/>
<polygon fill="midnightblue" stroke="midnightblue" points="647.385,-144.376 637.02,-146.567 646.49,-151.318 647.385,-144.376"/>
</g>
<!-- Node4 -->
<g id="node4" class="node"><title>Node4</title>
<g id="a_node4"><a xlink:href="../../d4/d26/classprolog_1_1terms_1_1Prog_a696a0c92a1814ecf4f21fb09fbc854a0.html#a696a0c92a1814ecf4f21fb09fbc854a0" target="_top" xlink:title="asks a logic engine to return a solution ">
<polygon fill="none" stroke="black" points="855,-123.5 855,-153.5 968,-153.5 968,-123.5 855,-123.5"/>
<text text-anchor="start" x="863" y="-141.5" font-family="Helvetica,sans-Serif" font-size="10.00">prolog.terms.Prog.ask</text>
<text text-anchor="middle" x="911.5" y="-130.5" font-family="Helvetica,sans-Serif" font-size="10.00">_engine</text>
</a>
</g>
</g>
<!-- Node3&#45;&gt;Node4 -->
<g id="edge3" class="edge"><title>Node3&#45;&gt;Node4</title>
<path fill="none" stroke="midnightblue" d="M827.717,-149.639C836.917,-148.401 846.135,-147.161 854.904,-145.981"/>
<polygon fill="midnightblue" stroke="midnightblue" points="827.206,-146.176 817.763,-150.978 828.14,-153.114 827.206,-146.176"/>
</g>
<!-- Node18 -->
<g id="node18" class="node"><title>Node18</title>
<g id="a_node18"><a xlink:href="../../d4/d26/classprolog_1_1terms_1_1Prog_a45a00a5df54d8c378930f320020b457f.html#a45a00a5df54d8c378930f320020b457f" target="_top" xlink:title="usable for launching on a separate thread ">
<polygon fill="none" stroke="black" points="856.5,-173 856.5,-192 966.5,-192 966.5,-173 856.5,-173"/>
<text text-anchor="middle" x="911.5" y="-180" font-family="Helvetica,sans-Serif" font-size="10.00">prolog.terms.Prog.run</text>
</a>
</g>
</g>
<!-- Node3&#45;&gt;Node18 -->
<g id="edge19" class="edge"><title>Node3&#45;&gt;Node18</title>
<path fill="none" stroke="midnightblue" d="M827.827,-171.376C837.513,-172.679 847.216,-173.985 856.392,-175.219"/>
<polygon fill="midnightblue" stroke="midnightblue" points="828.14,-167.886 817.763,-170.022 827.206,-174.824 828.14,-167.886"/>
</g>
<!-- Node5 -->
<g id="node5" class="node"><title>Node5</title>
<g id="a_node5"><a xlink:href="../../d8/d35/classprolog_1_1Init_a34d43d3123bb194902cbcb1c06194cce.html#a34d43d3123bb194902cbcb1c06194cce" target="_top" xlink:title="evalutes a query ">
<polygon fill="none" stroke="black" points="1218,-129 1218,-148 1319,-148 1319,-129 1218,-129"/>
<text text-anchor="middle" x="1268.5" y="-136" font-family="Helvetica,sans-Serif" font-size="10.00">prolog.Init.evalGoal</text>
</a>
</g>
</g>
<!-- Node4&#45;&gt;Node5 -->
<g id="edge4" class="edge"><title>Node4&#45;&gt;Node5</title>
<path fill="none" stroke="midnightblue" d="M978.736,-138.5C1048.14,-138.5 1155.58,-138.5 1217.98,-138.5"/>
<polygon fill="midnightblue" stroke="midnightblue" points="978.359,-135 968.359,-138.5 978.359,-142 978.359,-135"/>
</g>
<!-- Node9 -->
<g id="node9" class="node"><title>Node9</title>
<g id="a_node9"><a xlink:href="../../d4/d26/classprolog_1_1terms_1_1Prog_afb6f86119db8ba133de23f8bfe24ba2e.html#afb6f86119db8ba133de23f8bfe24ba2e" target="_top" xlink:title="Computes a copy of the first solution X of Goal G. ">
<polygon fill="none" stroke="black" points="1004,-88 1004,-107 1153,-107 1153,-88 1004,-88"/>
<text text-anchor="middle" x="1078.5" y="-95" font-family="Helvetica,sans-Serif" font-size="10.00">prolog.terms.Prog.firstSolution</text>
</a>
</g>
</g>
<!-- Node4&#45;&gt;Node9 -->
<g id="edge8" class="edge"><title>Node4&#45;&gt;Node9</title>
<path fill="none" stroke="midnightblue" d="M978.347,-122.138C998.973,-117.013 1021.05,-111.528 1039.12,-107.037"/>
<polygon fill="midnightblue" stroke="midnightblue" points="977.222,-118.811 968.361,-124.619 978.91,-125.604 977.222,-118.811"/>
</g>
<!-- Node6 -->
<g id="node6" class="node"><title>Node6</title>
<g id="a_node6"><a xlink:href="../../d8/d35/classprolog_1_1Init_a2471811f50fbed4de5df26ee530f1e2e.html#a2471811f50fbed4de5df26ee530f1e2e" target="_top" xlink:title="evaluates and times a Goal querying program P ">
<polygon fill="none" stroke="black" points="1407.5,-164 1407.5,-183 1508.5,-183 1508.5,-164 1407.5,-164"/>
<text text-anchor="middle" x="1458" y="-171" font-family="Helvetica,sans-Serif" font-size="10.00">prolog.Init.timeGoal</text>
</a>
</g>
</g>
<!-- Node5&#45;&gt;Node6 -->
<g id="edge5" class="edge"><title>Node5&#45;&gt;Node6</title>
<path fill="none" stroke="midnightblue" d="M1329.41,-149.682C1354.54,-154.374 1383.42,-159.765 1407.34,-164.23"/>
<polygon fill="midnightblue" stroke="midnightblue" points="1329.73,-146.182 1319.25,-147.787 1328.44,-153.063 1329.73,-146.182"/>
</g>
<!-- Node7 -->
<g id="node7" class="node"><title>Node7</title>
<g id="a_node7"><a xlink:href="../../d8/d35/classprolog_1_1Init_a0348efff7140aed75f8364f90b7c2b8b.html#a0348efff7140aed75f8364f90b7c2b8b" target="_top" xlink:title="prolog.Init.run_query">
<polygon fill="none" stroke="black" points="1593,-192 1593,-211 1698,-211 1698,-192 1593,-192"/>
<text text-anchor="middle" x="1645.5" y="-199" font-family="Helvetica,sans-Serif" font-size="10.00">prolog.Init.run_query</text>
</a>
</g>
</g>
<!-- Node6&#45;&gt;Node7 -->
<g id="edge6" class="edge"><title>Node6&#45;&gt;Node7</title>
<path fill="none" stroke="midnightblue" d="M1518.7,-182.511C1542.54,-186.109 1569.72,-190.213 1592.71,-193.682"/>
<polygon fill="midnightblue" stroke="midnightblue" points="1519.12,-179.035 1508.71,-181.003 1518.08,-185.957 1519.12,-179.035"/>
</g>
<!-- Node8 -->
<g id="node8" class="node"><title>Node8</title>
<g id="a_node8"><a xlink:href="../../d8/d35/classprolog_1_1Init_a3e8704cf8b2d909fccc79e967dd48171.html#a3e8704cf8b2d909fccc79e967dd48171" target="_top" xlink:title="prolog.Init.standardTop">
<polygon fill="none" stroke="black" points="1587.5,-154 1587.5,-173 1703.5,-173 1703.5,-154 1587.5,-154"/>
<text text-anchor="middle" x="1645.5" y="-161" font-family="Helvetica,sans-Serif" font-size="10.00">prolog.Init.standardTop</text>
</a>
</g>
</g>
<!-- Node6&#45;&gt;Node8 -->
<g id="edge7" class="edge"><title>Node6&#45;&gt;Node8</title>
<path fill="none" stroke="midnightblue" d="M1518.92,-170.27C1540.9,-169.085 1565.7,-167.748 1587.43,-166.577"/>
<polygon fill="midnightblue" stroke="midnightblue" points="1518.51,-166.787 1508.71,-170.82 1518.88,-173.777 1518.51,-166.787"/>
</g>
<!-- Node9&#45;&gt;Node5 -->
<g id="edge12" class="edge"><title>Node9&#45;&gt;Node5</title>
<path fill="none" stroke="midnightblue" d="M1132.99,-109.165C1161.73,-115.433 1196.72,-123.064 1223.81,-128.971"/>
<polygon fill="midnightblue" stroke="midnightblue" points="1133.62,-105.72 1123.1,-107.009 1132.13,-112.56 1133.62,-105.72"/>
</g>
<!-- Node10 -->
<g id="node10" class="node"><title>Node10</title>
<g id="a_node10"><a xlink:href="../../da/dd9/classprolog_1_1fluents_1_1DataBase_a6f8041bc2bcb5cdd8a376e81a3dc4dca.html#a6f8041bc2bcb5cdd8a376e81a3dc4dca" target="_top" xlink:title="adds a Clause to the joint Linda and Predicate table ">
<polygon fill="none" stroke="black" points="1189,-19.5 1189,-49.5 1348,-49.5 1348,-19.5 1189,-19.5"/>
<text text-anchor="start" x="1197" y="-37.5" font-family="Helvetica,sans-Serif" font-size="10.00">prolog.fluents.DataBase.process</text>
<text text-anchor="middle" x="1268.5" y="-26.5" font-family="Helvetica,sans-Serif" font-size="10.00">Clause</text>
</a>
</g>
</g>
<!-- Node9&#45;&gt;Node10 -->
<g id="edge9" class="edge"><title>Node9&#45;&gt;Node10</title>
<path fill="none" stroke="midnightblue" d="M1117.85,-84.6501C1148.18,-74.4836 1190.61,-60.2666 1222.54,-49.565"/>
<polygon fill="midnightblue" stroke="midnightblue" points="1116.42,-81.4356 1108.05,-87.9317 1118.65,-88.0728 1116.42,-81.4356"/>
</g>
<!-- Node13 -->
<g id="node13" class="node"><title>Node13</title>
<g id="a_node13"><a xlink:href="../../d8/d35/classprolog_1_1Init_a4a7b9ae1dc4d489e657326f3ed5a4b7e.html#a4a7b9ae1dc4d489e657326f3ed5a4b7e" target="_top" xlink:title="Asks Prolog a query Answer, Goal and returns the first solution of the form &quot;the(Answer)&quot; or the cons...">
<polygon fill="none" stroke="black" points="1215.5,-88 1215.5,-107 1321.5,-107 1321.5,-88 1215.5,-88"/>
<text text-anchor="middle" x="1268.5" y="-95" font-family="Helvetica,sans-Serif" font-size="10.00">prolog.Init.askProlog</text>
</a>
</g>
</g>
<!-- Node9&#45;&gt;Node13 -->
<g id="edge13" class="edge"><title>Node9&#45;&gt;Node13</title>
<path fill="none" stroke="midnightblue" d="M1163.58,-97.5C1181.24,-97.5 1199.36,-97.5 1215.43,-97.5"/>
<polygon fill="midnightblue" stroke="midnightblue" points="1163.26,-94.0001 1153.26,-97.5 1163.26,-101 1163.26,-94.0001"/>
</g>
<!-- Node11 -->
<g id="node11" class="node"><title>Node11</title>
<g id="a_node11"><a xlink:href="../../da/dd9/classprolog_1_1fluents_1_1DataBase_a83885e10b61d6bf129307d9bf50d93de.html#a83885e10b61d6bf129307d9bf50d93de" target="_top" xlink:title="prolog.fluents.DataBase.apply\l_parser">
<polygon fill="none" stroke="black" points="1384,-0.5 1384,-30.5 1532,-30.5 1532,-0.5 1384,-0.5"/>
<text text-anchor="start" x="1392" y="-18.5" font-family="Helvetica,sans-Serif" font-size="10.00">prolog.fluents.DataBase.apply</text>
<text text-anchor="middle" x="1458" y="-7.5" font-family="Helvetica,sans-Serif" font-size="10.00">_parser</text>
</a>
</g>
</g>
<!-- Node10&#45;&gt;Node11 -->
<g id="edge10" class="edge"><title>Node10&#45;&gt;Node11</title>
<path fill="none" stroke="midnightblue" d="M1358.24,-25.5076C1366.83,-24.6374 1375.47,-23.7614 1383.88,-22.9091"/>
<polygon fill="midnightblue" stroke="midnightblue" points="1357.8,-22.0344 1348.2,-26.5249 1358.5,-28.9988 1357.8,-22.0344"/>
</g>
<!-- Node12 -->
<g id="node12" class="node"><title>Node12</title>
<g id="a_node12"><a xlink:href="../../da/dd9/classprolog_1_1fluents_1_1DataBase_af8b26948ded7bba6386b984f463bf166.html#af8b26948ded7bba6386b984f463bf166" target="_top" xlink:title="prolog.fluents.DataBase.stream\lToProg">
<polygon fill="none" stroke="black" points="1568,-0.5 1568,-30.5 1723,-30.5 1723,-0.5 1568,-0.5"/>
<text text-anchor="start" x="1576" y="-18.5" font-family="Helvetica,sans-Serif" font-size="10.00">prolog.fluents.DataBase.stream</text>
<text text-anchor="middle" x="1645.5" y="-7.5" font-family="Helvetica,sans-Serif" font-size="10.00">ToProg</text>
</a>
</g>
</g>
<!-- Node11&#45;&gt;Node12 -->
<g id="edge11" class="edge"><title>Node11&#45;&gt;Node12</title>
<path fill="none" stroke="midnightblue" d="M1542.06,-15.5C1550.65,-15.5 1559.34,-15.5 1567.86,-15.5"/>
<polygon fill="midnightblue" stroke="midnightblue" points="1542.05,-12.0001 1532.05,-15.5 1542.05,-19.0001 1542.05,-12.0001"/>
</g>
<!-- Node14 -->
<g id="node14" class="node"><title>Node14</title>
<g id="a_node14"><a xlink:href="../../d8/d35/classprolog_1_1Init_ae5fe9e2dc533d32690edbbec3b1c279b.html#ae5fe9e2dc533d32690edbbec3b1c279b" target="_top" xlink:title="Asks Prolog a query Goal and returns the first solution of the form &quot;the(Answer)&quot; ...">
<polygon fill="none" stroke="black" points="1405,-50 1405,-69 1511,-69 1511,-50 1405,-50"/>
<text text-anchor="middle" x="1458" y="-57" font-family="Helvetica,sans-Serif" font-size="10.00">prolog.Init.askProlog</text>
</a>
</g>
</g>
<!-- Node13&#45;&gt;Node14 -->
<g id="edge14" class="edge"><title>Node13&#45;&gt;Node14</title>
<path fill="none" stroke="midnightblue" d="M1326.78,-85.8905C1353.45,-80.486 1384.78,-74.1365 1410.03,-69.0201"/>
<polygon fill="midnightblue" stroke="midnightblue" points="1325.92,-82.4944 1316.81,-87.911 1327.31,-89.3549 1325.92,-82.4944"/>
</g>
<!-- Node15 -->
<g id="node15" class="node"><title>Node15</title>
<g id="a_node15"><a xlink:href="../../da/dde/classprolog_1_1Main_aca445add96cb95be654213f0e42d5b76.html#aca445add96cb95be654213f0e42d5b76" target="_top" xlink:title="prolog.Main.init">
<polygon fill="none" stroke="black" points="1416.5,-88 1416.5,-107 1499.5,-107 1499.5,-88 1416.5,-88"/>
<text text-anchor="middle" x="1458" y="-95" font-family="Helvetica,sans-Serif" font-size="10.00">prolog.Main.init</text>
</a>
</g>
</g>
<!-- Node13&#45;&gt;Node15 -->
<g id="edge15" class="edge"><title>Node13&#45;&gt;Node15</title>
<path fill="none" stroke="midnightblue" d="M1331.77,-97.5C1359.61,-97.5 1391.64,-97.5 1416.34,-97.5"/>
<polygon fill="midnightblue" stroke="midnightblue" points="1331.73,-94.0001 1321.73,-97.5 1331.73,-101 1331.73,-94.0001"/>
</g>
<!-- Node17 -->
<g id="node17" class="node"><title>Node17</title>
<g id="a_node17"><a xlink:href="../../d8/d35/classprolog_1_1Init_a7293b6db1f53eca4730418c54ab07109.html#a7293b6db1f53eca4730418c54ab07109" target="_top" xlink:title="prolog.Init.run">
<polygon fill="none" stroke="black" points="1420,-126 1420,-145 1496,-145 1496,-126 1420,-126"/>
<text text-anchor="middle" x="1458" y="-133" font-family="Helvetica,sans-Serif" font-size="10.00">prolog.Init.run</text>
</a>
</g>
</g>
<!-- Node13&#45;&gt;Node17 -->
<g id="edge17" class="edge"><title>Node13&#45;&gt;Node17</title>
<path fill="none" stroke="midnightblue" d="M1326.81,-109.114C1357.01,-115.236 1393.2,-122.57 1419.75,-127.95"/>
<polygon fill="midnightblue" stroke="midnightblue" points="1327.31,-105.645 1316.81,-107.089 1325.92,-112.506 1327.31,-105.645"/>
</g>
<!-- Node16 -->
<g id="node16" class="node"><title>Node16</title>
<g id="a_node16"><a xlink:href="../../da/dde/classprolog_1_1Main_ab0b3345fa72bd3b96c565437b962efa3.html#ab0b3345fa72bd3b96c565437b962efa3" target="_top" xlink:title="prolog.Main.main">
<polygon fill="none" stroke="black" points="1600,-97 1600,-116 1691,-116 1691,-97 1600,-97"/>
<text text-anchor="middle" x="1645.5" y="-104" font-family="Helvetica,sans-Serif" font-size="10.00">prolog.Main.main</text>
</a>
</g>
</g>
<!-- Node15&#45;&gt;Node16 -->
<g id="edge16" class="edge"><title>Node15&#45;&gt;Node16</title>
<path fill="none" stroke="midnightblue" d="M1509.79,-99.9641C1538.02,-101.334 1572.83,-103.023 1599.99,-104.341"/>
<polygon fill="midnightblue" stroke="midnightblue" points="1509.87,-96.4639 1499.71,-99.4751 1509.53,-103.456 1509.87,-96.4639"/>
</g>
<!-- Node17&#45;&gt;Node16 -->
<g id="edge18" class="edge"><title>Node17&#45;&gt;Node16</title>
<path fill="none" stroke="midnightblue" d="M1506.32,-128.102C1535.12,-123.6 1571.67,-117.886 1599.95,-113.465"/>
<polygon fill="midnightblue" stroke="midnightblue" points="1505.43,-124.698 1496.09,-129.701 1506.51,-131.614 1505.43,-124.698"/>
</g>
<!-- Node20 -->
<g id="node20" class="node"><title>Node20</title>
<g id="a_node20"><a xlink:href="../../d4/d26/classprolog_1_1terms_1_1Prog_afb9691e6cce6f75afc1c67ac0b28d107.html#afb9691e6cce6f75afc1c67ac0b28d107" target="_top" xlink:title="creates a new logic engine ">
<polygon fill="none" stroke="black" points="688.5,-79.5 688.5,-109.5 803.5,-109.5 803.5,-79.5 688.5,-79.5"/>
<text text-anchor="start" x="696.5" y="-97.5" font-family="Helvetica,sans-Serif" font-size="10.00">prolog.terms.Prog.new</text>
<text text-anchor="middle" x="746" y="-86.5" font-family="Helvetica,sans-Serif" font-size="10.00">_engine</text>
</a>
</g>
</g>
<!-- Node19&#45;&gt;Node20 -->
<g id="edge21" class="edge"><title>Node19&#45;&gt;Node20</title>
<path fill="none" stroke="midnightblue" d="M475.686,-95.2992C538.068,-95.114 629.603,-94.8424 688.25,-94.6684"/>
<polygon fill="midnightblue" stroke="midnightblue" points="475.539,-91.7995 465.549,-95.3292 475.56,-98.7994 475.539,-91.7995"/>
</g>
<!-- Node20&#45;&gt;Node9 -->
<g id="edge22" class="edge"><title>Node20&#45;&gt;Node9</title>
<path fill="none" stroke="midnightblue" d="M813.819,-95.1065C868.883,-95.6063 946.888,-96.3144 1003.77,-96.8307"/>
<polygon fill="midnightblue" stroke="midnightblue" points="813.846,-91.6067 803.815,-95.0157 813.783,-98.6064 813.846,-91.6067"/>
</g>
<!-- Node22 -->
<g id="node22" class="node"><title>Node22</title>
<g id="a_node22"><a xlink:href="../../d6/dc4/classprolog_1_1terms_1_1Clause_a0d8b6d3c8de70326ab416be12688896b.html#a0d8b6d3c8de70326ab416be12688896b" target="_top" xlink:title="prolog.terms.Clause.unfold\l_with_goal">
<polygon fill="none" stroke="black" points="340,-169.5 340,-199.5 474,-199.5 474,-169.5 340,-169.5"/>
<text text-anchor="start" x="348" y="-187.5" font-family="Helvetica,sans-Serif" font-size="10.00">prolog.terms.Clause.unfold</text>
<text text-anchor="middle" x="407" y="-176.5" font-family="Helvetica,sans-Serif" font-size="10.00">_with_goal</text>
</a>
</g>
</g>
<!-- Node21&#45;&gt;Node22 -->
<g id="edge24" class="edge"><title>Node21&#45;&gt;Node22</title>
<path fill="none" stroke="midnightblue" d="M314.595,-181.78C323.013,-182.03 331.532,-182.284 339.809,-182.53"/>
<polygon fill="midnightblue" stroke="midnightblue" points="314.498,-178.275 304.398,-181.476 314.289,-185.272 314.498,-178.275"/>
</g>
<!-- Node23 -->
<g id="node23" class="node"><title>Node23</title>
<g id="a_node23"><a xlink:href="../../df/d94/classprolog_1_1terms_1_1Unfolder_a261a28665ab541b974afb636c3fec84b.html#a261a28665ab541b974afb636c3fec84b" target="_top" xlink:title="Returns a new clause by unfolding the goal with a matching clause in the database, or null if no such clause exists. ">
<polygon fill="none" stroke="black" points="510,-172.5 510,-202.5 637,-202.5 637,-172.5 510,-172.5"/>
<text text-anchor="start" x="518" y="-190.5" font-family="Helvetica,sans-Serif" font-size="10.00">prolog.terms.Unfolder.get</text>
<text text-anchor="middle" x="573.5" y="-179.5" font-family="Helvetica,sans-Serif" font-size="10.00">Element</text>
</a>
</g>
</g>
<!-- Node22&#45;&gt;Node23 -->
<g id="edge25" class="edge"><title>Node22&#45;&gt;Node23</title>
<path fill="none" stroke="midnightblue" d="M484.651,-185.898C493.079,-186.052 501.585,-186.207 509.814,-186.357"/>
<polygon fill="midnightblue" stroke="midnightblue" points="484.496,-182.395 474.434,-185.712 484.369,-189.393 484.496,-182.395"/>
</g>
<!-- Node23&#45;&gt;Node3 -->
<g id="edge26" class="edge"><title>Node23&#45;&gt;Node3</title>
<path fill="none" stroke="midnightblue" d="M647.008,-176.018C659.59,-174.025 672.551,-171.973 684.761,-170.039"/>
<polygon fill="midnightblue" stroke="midnightblue" points="646.349,-172.578 637.02,-177.6 647.444,-179.492 646.349,-172.578"/>
</g>
</g>
</svg>
        <g id="navigator" transform="translate(0 0)" fill="#404254">
                <rect fill="#f2f5e9" fill-opacity="0.5" stroke="#606060" stroke-width=".5" x="0" y="0" width="60" height="60"/>
                <use id="zoomplus" xlink:href="#zoomPlus" x="17" y="9" onmousedown="handleZoom(evt,'in')"/>
                <use id="zoomminus" xlink:href="#zoomMin" x="42" y="9" onmousedown="handleZoom(evt,'out')"/>
                <use id="reset" xlink:href="#resetDef" x="30" y="36" onmousedown="handleReset()"/>
                <g id="arrowUp" xlink:href="#dirArrow" transform="translate(30 24)" onmousedown="handlePan(0,-1)">
                  <use xlink:href="#rim" fill="#404040">
                        <set attributeName="fill" to="#808080" begin="arrowUp.mouseover" end="arrowUp.mouseout"/>
                  </use>
                  <path fill="none" stroke="white" stroke-width="1.5" d="M0,-3.0v7 M-2.5,-0.5L0,-3.0L2.5,-0.5"/>
                </g>
                <g id="arrowRight" xlink:href="#dirArrow" transform="rotate(90) translate(36 -43)" onmousedown="handlePan(1,0)">
                  <use xlink:href="#rim" fill="#404040">
                        <set attributeName="fill" to="#808080" begin="arrowRight.mouseover" end="arrowRight.mouseout"/>
                  </use>
                  <path fill="none" stroke="white" stroke-width="1.5" d="M0,-3.0v7 M-2.5,-0.5L0,-3.0L2.5,-0.5"/>
                </g>
                <g id="arrowDown" xlink:href="#dirArrow" transform="rotate(180) translate(-30 -48)" onmousedown="handlePan(0,1)">
                  <use xlink:href="#rim" fill="#404040">
                        <set attributeName="fill" to="#808080" begin="arrowDown.mouseover" end="arrowDown.mouseout"/>
                  </use>
                  <path fill="none" stroke="white" stroke-width="1.5" d="M0,-3.0v7 M-2.5,-0.5L0,-3.0L2.5,-0.5"/>
                </g>
                <g id="arrowLeft" xlink:href="#dirArrow" transform="rotate(270) translate(-36 17)" onmousedown="handlePan(-1,0)">
                  <use xlink:href="#rim" fill="#404040">
                        <set attributeName="fill" to="#808080" begin="arrowLeft.mouseover" end="arrowLeft.mouseout"/>
                  </use>
                  <path fill="none" stroke="white" stroke-width="1.5" d="M0,-3.0v7 M-2.5,-0.5L0,-3.0L2.5,-0.5"/>
                </g>
        </g>
        <svg viewBox="0 0 15 15" width="100%" height="30px" preserveAspectRatio="xMaxYMin meet">
         <g id="arrow_out" transform="scale(0.3 0.3)">
          <a xlink:href="classprolog_1_1terms_1_1Clause_ad1a287e7c18ca6880e5d8f7d97c6acd9_ad1a287e7c18ca6880e5d8f7d97c6acd9_icgraph_org.svg" target="_base">
           <rect id="button" ry="5" rx="5" y="6" x="6" height="38" width="38"
                fill="#f2f5e9" fill-opacity="0.5" stroke="#606060" stroke-width="1.0"/>
           <path id="arrow"
             d="M 11.500037,31.436501 C 11.940474,20.09759 22.043105,11.32322 32.158766,21.979434 L 37.068811,17.246167 C 37.068811,17.246167 37.088388,32 37.088388,32 L 22.160133,31.978069 C 22.160133,31.978069 26.997745,27.140456 26.997745,27.140456 C 18.528582,18.264221 13.291696,25.230495 11.500037,31.436501 z"
             style="fill:#404040;"/>
          </a>
         </g>
        </svg>
</svg>
