<?xml version="1.0" encoding="UTF-8" standalone="no"?>
<!DOCTYPE svg PUBLIC "-//W3C//DTD SVG 1.1//EN"
 "http://www.w3.org/Graphics/SVG/1.1/DTD/svg11.dtd">
<!-- Generated by graphviz version 2.38.0 (20140413.2041)
 -->
<!-- Title: prolog.terms.Clause.cnumbervars Pages: 1 -->
<svg width="871pt" height="230pt"
 viewBox="0.00 0.00 871.00 230.00" xmlns="http://www.w3.org/2000/svg" xmlns:xlink="http://www.w3.org/1999/xlink">
<g id="graph0" class="graph" transform="scale(1 1) rotate(0) translate(4 226)">
<title>prolog.terms.Clause.cnumbervars</title>
<!-- Node1 -->
<g id="node1" class="node"><title>Node1</title>
<polygon fill="#bfbfbf" stroke="black" points="0,-120.5 0,-139.5 164,-139.5 164,-120.5 0,-120.5"/>
<text text-anchor="middle" x="82" y="-127.5" font-family="Helvetica,sans-Serif" font-size="10.00">prolog.terms.Clause.cnumbervars</text>
</g>
<!-- Node2 -->
<g id="node2" class="node"><title>Node2</title>
<g id="a_node2"><a xlink:href="../../d6/dc4/classprolog_1_1terms_1_1Clause_a414492a8d9d648788aadfd423ee32fb0.html#a414492a8d9d648788aadfd423ee32fb0" target="_top" xlink:title="Builds a clause given its head and its body. ">
<polygon fill="none" stroke="black" points="206,-202.5 206,-221.5 344,-221.5 344,-202.5 206,-202.5"/>
<text text-anchor="middle" x="275" y="-209.5" font-family="Helvetica,sans-Serif" font-size="10.00">prolog.terms.Clause.Clause</text>
</a>
</g>
</g>
<!-- Node1&#45;&gt;Node2 -->
<g id="edge1" class="edge"><title>Node1&#45;&gt;Node2</title>
<path fill="none" stroke="midnightblue" d="M97.9485,-139.59C119.661,-153.155 161.539,-177.966 200,-193 206.308,-195.466 213.044,-197.704 219.786,-199.707"/>
<polygon fill="midnightblue" stroke="midnightblue" points="219.044,-203.134 229.618,-202.473 220.94,-196.396 219.044,-203.134"/>
</g>
<!-- Node3 -->
<g id="node3" class="node"><title>Node3</title>
<g id="a_node3"><a xlink:href="../../d3/ded/classprolog_1_1terms_1_1Term_a50d0b69d48782ff4bcf433c70c1472a0.html#a50d0b69d48782ff4bcf433c70c1472a0" target="_top" xlink:title="Replaces variables with uppercase constants named `V1&#39;, &#39;V2&#39;, etc. ">
<polygon fill="none" stroke="black" points="200,-164.5 200,-183.5 350,-183.5 350,-164.5 200,-164.5"/>
<text text-anchor="middle" x="275" y="-171.5" font-family="Helvetica,sans-Serif" font-size="10.00">prolog.terms.Term.numbervars</text>
</a>
</g>
</g>
<!-- Node1&#45;&gt;Node3 -->
<g id="edge2" class="edge"><title>Node1&#45;&gt;Node3</title>
<path fill="none" stroke="midnightblue" d="M124.444,-139.547C153.227,-146.178 191.779,-155.059 222.532,-162.143"/>
<polygon fill="midnightblue" stroke="midnightblue" points="222.106,-165.637 232.637,-164.471 223.678,-158.816 222.106,-165.637"/>
</g>
<!-- Node7 -->
<g id="node7" class="node"><title>Node7</title>
<g id="a_node7"><a xlink:href="../../d6/dc4/classprolog_1_1terms_1_1Clause_ade3c5f25239d6a2d095f65367986e312.html#ade3c5f25239d6a2d095f65367986e312" target="_top" xlink:title="Checks if a Clause has been proven ground after beeing read in or created. ">
<polygon fill="none" stroke="black" points="206.5,-115 206.5,-145 343.5,-145 343.5,-115 206.5,-115"/>
<text text-anchor="start" x="214.5" y="-133" font-family="Helvetica,sans-Serif" font-size="10.00">prolog.terms.Clause.proven</text>
<text text-anchor="middle" x="275" y="-122" font-family="Helvetica,sans-Serif" font-size="10.00">Ground</text>
</a>
</g>
</g>
<!-- Node1&#45;&gt;Node7 -->
<g id="edge7" class="edge"><title>Node1&#45;&gt;Node7</title>
<path fill="none" stroke="midnightblue" d="M164.001,-130C174.711,-130 185.67,-130 196.322,-130"/>
<polygon fill="midnightblue" stroke="midnightblue" points="196.423,-133.5 206.423,-130 196.423,-126.5 196.423,-133.5"/>
</g>
<!-- Node8 -->
<g id="node8" class="node"><title>Node8</title>
<g id="a_node8"><a xlink:href="../../d3/ded/classprolog_1_1terms_1_1Term_a84d8fb7e1f816d0dbe3c2c56ed28fdb9.html#a84d8fb7e1f816d0dbe3c2c56ed28fdb9" target="_top" xlink:title="Dereference and unify_to. ">
<polygon fill="none" stroke="black" points="215,-76.5 215,-95.5 335,-95.5 335,-76.5 215,-76.5"/>
<text text-anchor="middle" x="275" y="-83.5" font-family="Helvetica,sans-Serif" font-size="10.00">prolog.terms.Term.unify</text>
</a>
</g>
</g>
<!-- Node1&#45;&gt;Node8 -->
<g id="edge8" class="edge"><title>Node1&#45;&gt;Node8</title>
<path fill="none" stroke="midnightblue" d="M124.444,-120.453C153.227,-113.822 191.779,-104.941 222.532,-97.8565"/>
<polygon fill="midnightblue" stroke="midnightblue" points="223.678,-101.184 232.637,-95.5287 222.106,-94.363 223.678,-101.184"/>
</g>
<!-- Node11 -->
<g id="node11" class="node"><title>Node11</title>
<g id="a_node11"><a xlink:href="../../dd/dad/classprolog_1_1terms_1_1Trail_adab6fa04fe8e0da6e1870bd1b37a654b.html#adab6fa04fe8e0da6e1870bd1b37a654b" target="_top" xlink:title="Used to undo bindings after unification, if we intend to leave no side effects. ">
<polygon fill="none" stroke="black" points="212,-38.5 212,-57.5 338,-57.5 338,-38.5 212,-38.5"/>
<text text-anchor="middle" x="275" y="-45.5" font-family="Helvetica,sans-Serif" font-size="10.00">prolog.terms.Trail.unwind</text>
</a>
</g>
</g>
<!-- Node1&#45;&gt;Node11 -->
<g id="edge11" class="edge"><title>Node1&#45;&gt;Node11</title>
<path fill="none" stroke="midnightblue" d="M97.9485,-120.41C119.661,-106.845 161.539,-82.0344 200,-67 206.308,-64.5342 213.044,-62.2961 219.786,-60.2931"/>
<polygon fill="midnightblue" stroke="midnightblue" points="220.94,-63.6043 229.618,-57.5273 219.044,-56.8658 220.94,-63.6043"/>
</g>
<!-- Node4 -->
<g id="node4" class="node"><title>Node4</title>
<g id="a_node4"><a xlink:href="../../d3/ded/classprolog_1_1terms_1_1Term_a01e5a83e648ee3f89415c0142c4220d4.html#a01e5a83e648ee3f89415c0142c4220d4" target="_top" xlink:title="Returns a copy of a term with variables standardized apart (`fresh variables&#39;). ">
<polygon fill="none" stroke="black" points="399,-196.5 399,-215.5 519,-215.5 519,-196.5 399,-196.5"/>
<text text-anchor="middle" x="459" y="-203.5" font-family="Helvetica,sans-Serif" font-size="10.00">prolog.terms.Term.copy</text>
</a>
</g>
</g>
<!-- Node3&#45;&gt;Node4 -->
<g id="edge3" class="edge"><title>Node3&#45;&gt;Node4</title>
<path fill="none" stroke="midnightblue" d="M330.113,-183.514C350.104,-187.029 372.953,-191.047 393.755,-194.704"/>
<polygon fill="midnightblue" stroke="midnightblue" points="393.326,-198.182 403.781,-196.467 394.538,-191.288 393.326,-198.182"/>
</g>
<!-- Node5 -->
<g id="node5" class="node"><title>Node5</title>
<g id="a_node5"><a xlink:href="../../d3/ded/classprolog_1_1terms_1_1Term_a0a660e6cd55f12e49d328e1b84b478a4.html#a0a660e6cd55f12e49d328e1b84b478a4" target="_top" xlink:title="Defines the reaction to an agent recursing over the structure of a term. ">
<polygon fill="none" stroke="black" points="568,-177.5 568,-196.5 702,-196.5 702,-177.5 568,-177.5"/>
<text text-anchor="middle" x="635" y="-184.5" font-family="Helvetica,sans-Serif" font-size="10.00">prolog.terms.Term.reaction</text>
</a>
</g>
</g>
<!-- Node3&#45;&gt;Node5 -->
<g id="edge6" class="edge"><title>Node3&#45;&gt;Node5</title>
<path fill="none" stroke="midnightblue" d="M350.178,-176.694C410.901,-178.899 496.475,-182.006 557.754,-184.231"/>
<polygon fill="midnightblue" stroke="midnightblue" points="557.633,-187.729 567.754,-184.594 557.887,-180.734 557.633,-187.729"/>
</g>
<!-- Node4&#45;&gt;Node5 -->
<g id="edge4" class="edge"><title>Node4&#45;&gt;Node5</title>
<path fill="none" stroke="midnightblue" d="M519.394,-199.514C531.668,-198.174 544.76,-196.745 557.544,-195.349"/>
<polygon fill="midnightblue" stroke="midnightblue" points="558.147,-198.804 567.708,-194.239 557.387,-191.845 558.147,-198.804"/>
</g>
<!-- Node6 -->
<g id="node6" class="node"><title>Node6</title>
<g id="a_node6"><a xlink:href="../../d3/ded/classprolog_1_1terms_1_1Term_aa52e271c0f6784dbde9aa4f5f3ab0268.html#aa52e271c0f6784dbde9aa4f5f3ab0268" target="_top" xlink:title="Identity action. ">
<polygon fill="none" stroke="black" points="738,-177.5 738,-196.5 863,-196.5 863,-177.5 738,-177.5"/>
<text text-anchor="middle" x="800.5" y="-184.5" font-family="Helvetica,sans-Serif" font-size="10.00">prolog.terms.Term.action</text>
</a>
</g>
</g>
<!-- Node5&#45;&gt;Node6 -->
<g id="edge5" class="edge"><title>Node5&#45;&gt;Node6</title>
<path fill="none" stroke="midnightblue" d="M702.03,-187C710.566,-187 719.34,-187 727.96,-187"/>
<polygon fill="midnightblue" stroke="midnightblue" points="727.984,-190.5 737.984,-187 727.984,-183.5 727.984,-190.5"/>
</g>
<!-- Node9 -->
<g id="node9" class="node"><title>Node9</title>
<g id="a_node9"><a xlink:href="../../d3/ded/classprolog_1_1terms_1_1Term_ae140fac2c9d066dc897fcfa723060a7a.html#ae140fac2c9d066dc897fcfa723060a7a" target="_top" xlink:title="Dereferences if necessary. ">
<polygon fill="none" stroke="black" points="404,-114.5 404,-133.5 514,-133.5 514,-114.5 404,-114.5"/>
<text text-anchor="middle" x="459" y="-121.5" font-family="Helvetica,sans-Serif" font-size="10.00">prolog.terms.Term.ref</text>
</a>
</g>
</g>
<!-- Node8&#45;&gt;Node9 -->
<g id="edge9" class="edge"><title>Node8&#45;&gt;Node9</title>
<path fill="none" stroke="midnightblue" d="M321.926,-95.589C346.376,-100.694 376.633,-107.011 402.403,-112.392"/>
<polygon fill="midnightblue" stroke="midnightblue" points="401.9,-115.862 412.404,-114.48 403.33,-109.01 401.9,-115.862"/>
</g>
<!-- Node10 -->
<g id="node10" class="node"><title>Node10</title>
<g id="a_node10"><a xlink:href="../../d3/ded/classprolog_1_1terms_1_1Term_a866b2cca50e77e99b560578b2fa3a91a.html#a866b2cca50e77e99b560578b2fa3a91a" target="_top" xlink:title="Unify dereferenced. ">
<polygon fill="none" stroke="black" points="392,-76.5 392,-95.5 526,-95.5 526,-76.5 392,-76.5"/>
<text text-anchor="middle" x="459" y="-83.5" font-family="Helvetica,sans-Serif" font-size="10.00">prolog.terms.Term.unify_to</text>
</a>
</g>
</g>
<!-- Node8&#45;&gt;Node10 -->
<g id="edge10" class="edge"><title>Node8&#45;&gt;Node10</title>
<path fill="none" stroke="midnightblue" d="M335.09,-86C349.99,-86 366.197,-86 381.807,-86"/>
<polygon fill="midnightblue" stroke="midnightblue" points="381.959,-89.5001 391.959,-86 381.959,-82.5001 381.959,-89.5001"/>
</g>
<!-- Node12 -->
<g id="node12" class="node"><title>Node12</title>
<g id="a_node12"><a xlink:href="../../da/d93/classprolog_1_1terms_1_1ObjectStack_aaa01178e10f20beab62b1410ba720606.html#aaa01178e10f20beab62b1410ba720606" target="_top" xlink:title="prolog.terms.ObjectStack.pop">
<polygon fill="none" stroke="black" points="386,-38.5 386,-57.5 532,-57.5 532,-38.5 386,-38.5"/>
<text text-anchor="middle" x="459" y="-45.5" font-family="Helvetica,sans-Serif" font-size="10.00">prolog.terms.ObjectStack.pop</text>
</a>
</g>
</g>
<!-- Node11&#45;&gt;Node12 -->
<g id="edge12" class="edge"><title>Node11&#45;&gt;Node12</title>
<path fill="none" stroke="midnightblue" d="M338.125,-48C350.232,-48 363.1,-48 375.74,-48"/>
<polygon fill="midnightblue" stroke="midnightblue" points="375.81,-51.5001 385.81,-48 375.81,-44.5001 375.81,-51.5001"/>
</g>
<!-- Node13 -->
<g id="node13" class="node"><title>Node13</title>
<g id="a_node13"><a xlink:href="../../d3/ded/classprolog_1_1terms_1_1Term_ac710eec3650309d160ca04e364804e47.html#ac710eec3650309d160ca04e364804e47" target="_top" xlink:title="prolog.terms.Term.undo">
<polygon fill="none" stroke="black" points="399,-0.5 399,-19.5 519,-19.5 519,-0.5 399,-0.5"/>
<text text-anchor="middle" x="459" y="-7.5" font-family="Helvetica,sans-Serif" font-size="10.00">prolog.terms.Term.undo</text>
</a>
</g>
</g>
<!-- Node11&#45;&gt;Node13 -->
<g id="edge13" class="edge"><title>Node11&#45;&gt;Node13</title>
<path fill="none" stroke="midnightblue" d="M321.926,-38.411C346.376,-33.3061 376.633,-26.9887 402.403,-21.6082"/>
<polygon fill="midnightblue" stroke="midnightblue" points="403.33,-24.9901 412.404,-19.5201 401.9,-18.1378 403.33,-24.9901"/>
</g>
</g>
</svg>
