<?xml version="1.0" encoding="UTF-8" standalone="no"?>
<!DOCTYPE svg PUBLIC "-//W3C//DTD SVG 1.1//EN"
 "http://www.w3.org/Graphics/SVG/1.1/DTD/svg11.dtd">
<!-- Generated by graphviz version 2.38.0 (20140413.2041)
 -->
<!-- Title: prolog.terms.Clause.pprint Pages: 1 -->
<svg width="1038pt" height="268pt"
 viewBox="0.00 0.00 1038.00 267.50" xmlns="http://www.w3.org/2000/svg" xmlns:xlink="http://www.w3.org/1999/xlink">
<g id="graph0" class="graph" transform="scale(1 1) rotate(0) translate(4 263.5)">
<title>prolog.terms.Clause.pprint</title>
<!-- Node1 -->
<g id="node1" class="node"><title>Node1</title>
<polygon fill="#bfbfbf" stroke="black" points="0,-164 0,-183 131,-183 131,-164 0,-164"/>
<text text-anchor="middle" x="65.5" y="-171" font-family="Helvetica,sans-Serif" font-size="10.00">prolog.terms.Clause.pprint</text>
</g>
<!-- Node2 -->
<g id="node2" class="node"><title>Node2</title>
<g id="a_node2"><a xlink:href="../../d6/dc4/classprolog_1_1terms_1_1Clause_a705c0264ac6e7a497084edc5a61e3cbe.html#a705c0264ac6e7a497084edc5a61e3cbe" target="_top" xlink:title="Prints out a clause as Head:&#45;Body. ">
<polygon fill="none" stroke="black" points="177.5,-196.5 177.5,-226.5 320.5,-226.5 320.5,-196.5 177.5,-196.5"/>
<text text-anchor="start" x="185.5" y="-214.5" font-family="Helvetica,sans-Serif" font-size="10.00">prolog.terms.Clause.Clause2</text>
<text text-anchor="middle" x="249" y="-203.5" font-family="Helvetica,sans-Serif" font-size="10.00">String</text>
</a>
</g>
</g>
<!-- Node1&#45;&gt;Node2 -->
<g id="edge1" class="edge"><title>Node1&#45;&gt;Node2</title>
<path fill="none" stroke="midnightblue" d="M112.3,-183.089C129.112,-186.609 148.678,-190.705 167.632,-194.674"/>
<polygon fill="midnightblue" stroke="midnightblue" points="166.965,-198.11 177.47,-196.733 168.4,-191.258 166.965,-198.11"/>
</g>
<!-- Node6 -->
<g id="node6" class="node"><title>Node6</title>
<g id="a_node6"><a xlink:href="../../d6/dc4/classprolog_1_1terms_1_1Clause_a616eb2dbf395587a4029c19bdc492745.html#a616eb2dbf395587a4029c19bdc492745" target="_top" xlink:title="Replaces varibles with nice looking upper case constants for printing purposes. ">
<polygon fill="none" stroke="black" points="167,-107 167,-126 331,-126 331,-107 167,-107"/>
<text text-anchor="middle" x="249" y="-114" font-family="Helvetica,sans-Serif" font-size="10.00">prolog.terms.Clause.cnumbervars</text>
</a>
</g>
</g>
<!-- Node1&#45;&gt;Node6 -->
<g id="edge6" class="edge"><title>Node1&#45;&gt;Node6</title>
<path fill="none" stroke="midnightblue" d="M96.879,-163.959C127.242,-154.424 174.106,-139.706 207.592,-129.19"/>
<polygon fill="midnightblue" stroke="midnightblue" points="209.03,-132.407 217.522,-126.072 206.933,-125.729 209.03,-132.407"/>
</g>
<!-- Node3 -->
<g id="node3" class="node"><title>Node3</title>
<g id="a_node3"><a xlink:href="../../d6/dc4/classprolog_1_1terms_1_1Clause_ab690dc7c5a2d5b6007fbf559a537d262.html#ab690dc7c5a2d5b6007fbf559a537d262" target="_top" xlink:title="Extracts the body of a clause. ">
<polygon fill="none" stroke="black" points="370.5,-202 370.5,-221 513.5,-221 513.5,-202 370.5,-202"/>
<text text-anchor="middle" x="442" y="-209" font-family="Helvetica,sans-Serif" font-size="10.00">prolog.terms.Clause.getBody</text>
</a>
</g>
</g>
<!-- Node2&#45;&gt;Node3 -->
<g id="edge2" class="edge"><title>Node2&#45;&gt;Node3</title>
<path fill="none" stroke="midnightblue" d="M320.579,-211.5C333.535,-211.5 347.149,-211.5 360.373,-211.5"/>
<polygon fill="midnightblue" stroke="midnightblue" points="360.393,-215 370.393,-211.5 360.393,-208 360.393,-215"/>
</g>
<!-- Node5 -->
<g id="node5" class="node"><title>Node5</title>
<g id="a_node5"><a xlink:href="../../d6/dc4/classprolog_1_1terms_1_1Clause_a5e5502c9619429232fcb310406256830.html#a5e5502c9619429232fcb310406256830" target="_top" xlink:title="Extracts the head of a clause (a Term). ">
<polygon fill="none" stroke="black" points="370,-240 370,-259 514,-259 514,-240 370,-240"/>
<text text-anchor="middle" x="442" y="-247" font-family="Helvetica,sans-Serif" font-size="10.00">prolog.terms.Clause.getHead</text>
</a>
</g>
</g>
<!-- Node2&#45;&gt;Node5 -->
<g id="edge4" class="edge"><title>Node2&#45;&gt;Node5</title>
<path fill="none" stroke="midnightblue" d="M320.579,-225.542C341.121,-229.629 363.317,-234.045 382.99,-237.959"/>
<polygon fill="midnightblue" stroke="midnightblue" points="382.534,-241.437 393.025,-239.955 383.9,-234.571 382.534,-241.437"/>
</g>
<!-- Node4 -->
<g id="node4" class="node"><title>Node4</title>
<g id="a_node4"><a xlink:href="../../d3/ded/classprolog_1_1terms_1_1Term_ae140fac2c9d066dc897fcfa723060a7a.html#ae140fac2c9d066dc897fcfa723060a7a" target="_top" xlink:title="Dereferences if necessary. ">
<polygon fill="none" stroke="black" points="571,-202 571,-221 681,-221 681,-202 571,-202"/>
<text text-anchor="middle" x="626" y="-209" font-family="Helvetica,sans-Serif" font-size="10.00">prolog.terms.Term.ref</text>
</a>
</g>
</g>
<!-- Node3&#45;&gt;Node4 -->
<g id="edge3" class="edge"><title>Node3&#45;&gt;Node4</title>
<path fill="none" stroke="midnightblue" d="M513.626,-211.5C529.052,-211.5 545.3,-211.5 560.473,-211.5"/>
<polygon fill="midnightblue" stroke="midnightblue" points="560.782,-215 570.782,-211.5 560.782,-208 560.782,-215"/>
</g>
<!-- Node5&#45;&gt;Node4 -->
<g id="edge5" class="edge"><title>Node5&#45;&gt;Node4</title>
<path fill="none" stroke="midnightblue" d="M488.926,-239.911C513.376,-234.806 543.633,-228.489 569.403,-223.108"/>
<polygon fill="midnightblue" stroke="midnightblue" points="570.33,-226.49 579.404,-221.02 568.9,-219.638 570.33,-226.49"/>
</g>
<!-- Node7 -->
<g id="node7" class="node"><title>Node7</title>
<g id="a_node7"><a xlink:href="../../d6/dc4/classprolog_1_1terms_1_1Clause_a414492a8d9d648788aadfd423ee32fb0.html#a414492a8d9d648788aadfd423ee32fb0" target="_top" xlink:title="Builds a clause given its head and its body. ">
<polygon fill="none" stroke="black" points="373,-88 373,-107 511,-107 511,-88 373,-88"/>
<text text-anchor="middle" x="442" y="-95" font-family="Helvetica,sans-Serif" font-size="10.00">prolog.terms.Clause.Clause</text>
</a>
</g>
</g>
<!-- Node6&#45;&gt;Node7 -->
<g id="edge7" class="edge"><title>Node6&#45;&gt;Node7</title>
<path fill="none" stroke="midnightblue" d="M331.001,-108.442C341.557,-107.392 352.355,-106.318 362.862,-105.273"/>
<polygon fill="midnightblue" stroke="midnightblue" points="363.226,-108.754 372.83,-104.281 362.533,-101.788 363.226,-108.754"/>
</g>
<!-- Node8 -->
<g id="node8" class="node"><title>Node8</title>
<g id="a_node8"><a xlink:href="../../d3/ded/classprolog_1_1terms_1_1Term_a50d0b69d48782ff4bcf433c70c1472a0.html#a50d0b69d48782ff4bcf433c70c1472a0" target="_top" xlink:title="Replaces variables with uppercase constants named `V1&#39;, &#39;V2&#39;, etc. ">
<polygon fill="none" stroke="black" points="367,-50 367,-69 517,-69 517,-50 367,-50"/>
<text text-anchor="middle" x="442" y="-57" font-family="Helvetica,sans-Serif" font-size="10.00">prolog.terms.Term.numbervars</text>
</a>
</g>
</g>
<!-- Node6&#45;&gt;Node8 -->
<g id="edge8" class="edge"><title>Node6&#45;&gt;Node8</title>
<path fill="none" stroke="midnightblue" d="M277.743,-106.946C301.355,-98.9462 336.236,-87.4358 367,-78.5 375.148,-76.1333 383.844,-73.7631 392.307,-71.5388"/>
<polygon fill="midnightblue" stroke="midnightblue" points="393.284,-74.9012 402.086,-69.0037 391.527,-68.1251 393.284,-74.9012"/>
</g>
<!-- Node12 -->
<g id="node12" class="node"><title>Node12</title>
<g id="a_node12"><a xlink:href="../../d6/dc4/classprolog_1_1terms_1_1Clause_ade3c5f25239d6a2d095f65367986e312.html#ade3c5f25239d6a2d095f65367986e312" target="_top" xlink:title="Checks if a Clause has been proven ground after beeing read in or created. ">
<polygon fill="none" stroke="black" points="373.5,-0.5 373.5,-30.5 510.5,-30.5 510.5,-0.5 373.5,-0.5"/>
<text text-anchor="start" x="381.5" y="-18.5" font-family="Helvetica,sans-Serif" font-size="10.00">prolog.terms.Clause.proven</text>
<text text-anchor="middle" x="442" y="-7.5" font-family="Helvetica,sans-Serif" font-size="10.00">Ground</text>
</a>
</g>
</g>
<!-- Node6&#45;&gt;Node12 -->
<g id="edge13" class="edge"><title>Node6&#45;&gt;Node12</title>
<path fill="none" stroke="midnightblue" d="M262.364,-106.964C283.061,-91.3573 326.451,-60.1342 367,-40.5 371.537,-38.3032 376.316,-36.2173 381.172,-34.2563"/>
<polygon fill="midnightblue" stroke="midnightblue" points="382.486,-37.5012 390.562,-30.6431 379.972,-30.9682 382.486,-37.5012"/>
</g>
<!-- Node13 -->
<g id="node13" class="node"><title>Node13</title>
<g id="a_node13"><a xlink:href="../../d3/ded/classprolog_1_1terms_1_1Term_a84d8fb7e1f816d0dbe3c2c56ed28fdb9.html#a84d8fb7e1f816d0dbe3c2c56ed28fdb9" target="_top" xlink:title="Dereference and unify_to. ">
<polygon fill="none" stroke="black" points="382,-164 382,-183 502,-183 502,-164 382,-164"/>
<text text-anchor="middle" x="442" y="-171" font-family="Helvetica,sans-Serif" font-size="10.00">prolog.terms.Term.unify</text>
</a>
</g>
</g>
<!-- Node6&#45;&gt;Node13 -->
<g id="edge14" class="edge"><title>Node6&#45;&gt;Node13</title>
<path fill="none" stroke="midnightblue" d="M277.743,-126.054C301.355,-134.054 336.236,-145.564 367,-154.5 375.148,-156.867 383.844,-159.237 392.307,-161.461"/>
<polygon fill="midnightblue" stroke="midnightblue" points="391.527,-164.875 402.086,-163.996 393.284,-158.099 391.527,-164.875"/>
</g>
<!-- Node15 -->
<g id="node15" class="node"><title>Node15</title>
<g id="a_node15"><a xlink:href="../../dd/dad/classprolog_1_1terms_1_1Trail_adab6fa04fe8e0da6e1870bd1b37a654b.html#adab6fa04fe8e0da6e1870bd1b37a654b" target="_top" xlink:title="Used to undo bindings after unification, if we intend to leave no side effects. ">
<polygon fill="none" stroke="black" points="379,-126 379,-145 505,-145 505,-126 379,-126"/>
<text text-anchor="middle" x="442" y="-133" font-family="Helvetica,sans-Serif" font-size="10.00">prolog.terms.Trail.unwind</text>
</a>
</g>
</g>
<!-- Node6&#45;&gt;Node15 -->
<g id="edge17" class="edge"><title>Node6&#45;&gt;Node15</title>
<path fill="none" stroke="midnightblue" d="M331.001,-124.558C343.472,-125.798 356.281,-127.072 368.55,-128.293"/>
<polygon fill="midnightblue" stroke="midnightblue" points="368.412,-131.796 378.709,-129.304 369.105,-124.831 368.412,-131.796"/>
</g>
<!-- Node9 -->
<g id="node9" class="node"><title>Node9</title>
<g id="a_node9"><a xlink:href="../../d3/ded/classprolog_1_1terms_1_1Term_a01e5a83e648ee3f89415c0142c4220d4.html#a01e5a83e648ee3f89415c0142c4220d4" target="_top" xlink:title="Returns a copy of a term with variables standardized apart (`fresh variables&#39;). ">
<polygon fill="none" stroke="black" points="566,-12 566,-31 686,-31 686,-12 566,-12"/>
<text text-anchor="middle" x="626" y="-19" font-family="Helvetica,sans-Serif" font-size="10.00">prolog.terms.Term.copy</text>
</a>
</g>
</g>
<!-- Node8&#45;&gt;Node9 -->
<g id="edge9" class="edge"><title>Node8&#45;&gt;Node9</title>
<path fill="none" stroke="midnightblue" d="M488.926,-49.911C513.376,-44.8061 543.633,-38.4887 569.403,-33.1082"/>
<polygon fill="midnightblue" stroke="midnightblue" points="570.33,-36.4901 579.404,-31.0201 568.9,-29.6378 570.33,-36.4901"/>
</g>
<!-- Node10 -->
<g id="node10" class="node"><title>Node10</title>
<g id="a_node10"><a xlink:href="../../d3/ded/classprolog_1_1terms_1_1Term_a0a660e6cd55f12e49d328e1b84b478a4.html#a0a660e6cd55f12e49d328e1b84b478a4" target="_top" xlink:title="Defines the reaction to an agent recursing over the structure of a term. ">
<polygon fill="none" stroke="black" points="735,-31 735,-50 869,-50 869,-31 735,-31"/>
<text text-anchor="middle" x="802" y="-38" font-family="Helvetica,sans-Serif" font-size="10.00">prolog.terms.Term.reaction</text>
</a>
</g>
</g>
<!-- Node8&#45;&gt;Node10 -->
<g id="edge12" class="edge"><title>Node8&#45;&gt;Node10</title>
<path fill="none" stroke="midnightblue" d="M517.178,-55.5632C577.901,-52.3404 663.475,-47.7988 724.754,-44.5466"/>
<polygon fill="midnightblue" stroke="midnightblue" points="724.953,-48.041 734.754,-44.0159 724.582,-41.0509 724.953,-48.041"/>
</g>
<!-- Node9&#45;&gt;Node10 -->
<g id="edge10" class="edge"><title>Node9&#45;&gt;Node10</title>
<path fill="none" stroke="midnightblue" d="M686.394,-27.9856C698.668,-29.3258 711.76,-30.7554 724.544,-32.1513"/>
<polygon fill="midnightblue" stroke="midnightblue" points="724.387,-35.655 734.708,-33.2612 725.147,-28.6963 724.387,-35.655"/>
</g>
<!-- Node11 -->
<g id="node11" class="node"><title>Node11</title>
<g id="a_node11"><a xlink:href="../../d3/ded/classprolog_1_1terms_1_1Term_aa52e271c0f6784dbde9aa4f5f3ab0268.html#aa52e271c0f6784dbde9aa4f5f3ab0268" target="_top" xlink:title="Identity action. ">
<polygon fill="none" stroke="black" points="905,-31 905,-50 1030,-50 1030,-31 905,-31"/>
<text text-anchor="middle" x="967.5" y="-38" font-family="Helvetica,sans-Serif" font-size="10.00">prolog.terms.Term.action</text>
</a>
</g>
</g>
<!-- Node10&#45;&gt;Node11 -->
<g id="edge11" class="edge"><title>Node10&#45;&gt;Node11</title>
<path fill="none" stroke="midnightblue" d="M869.03,-40.5C877.566,-40.5 886.34,-40.5 894.96,-40.5"/>
<polygon fill="midnightblue" stroke="midnightblue" points="894.984,-44.0001 904.984,-40.5 894.984,-37.0001 894.984,-44.0001"/>
</g>
<!-- Node13&#45;&gt;Node4 -->
<g id="edge15" class="edge"><title>Node13&#45;&gt;Node4</title>
<path fill="none" stroke="midnightblue" d="M488.926,-183.089C513.376,-188.194 543.633,-194.511 569.403,-199.892"/>
<polygon fill="midnightblue" stroke="midnightblue" points="568.9,-203.362 579.404,-201.98 570.33,-196.51 568.9,-203.362"/>
</g>
<!-- Node14 -->
<g id="node14" class="node"><title>Node14</title>
<g id="a_node14"><a xlink:href="../../d3/ded/classprolog_1_1terms_1_1Term_a866b2cca50e77e99b560578b2fa3a91a.html#a866b2cca50e77e99b560578b2fa3a91a" target="_top" xlink:title="Unify dereferenced. ">
<polygon fill="none" stroke="black" points="559,-164 559,-183 693,-183 693,-164 559,-164"/>
<text text-anchor="middle" x="626" y="-171" font-family="Helvetica,sans-Serif" font-size="10.00">prolog.terms.Term.unify_to</text>
</a>
</g>
</g>
<!-- Node13&#45;&gt;Node14 -->
<g id="edge16" class="edge"><title>Node13&#45;&gt;Node14</title>
<path fill="none" stroke="midnightblue" d="M502.09,-173.5C516.99,-173.5 533.197,-173.5 548.807,-173.5"/>
<polygon fill="midnightblue" stroke="midnightblue" points="548.959,-177 558.959,-173.5 548.959,-170 548.959,-177"/>
</g>
<!-- Node16 -->
<g id="node16" class="node"><title>Node16</title>
<g id="a_node16"><a xlink:href="../../da/d93/classprolog_1_1terms_1_1ObjectStack_aaa01178e10f20beab62b1410ba720606.html#aaa01178e10f20beab62b1410ba720606" target="_top" xlink:title="prolog.terms.ObjectStack.pop">
<polygon fill="none" stroke="black" points="553,-126 553,-145 699,-145 699,-126 553,-126"/>
<text text-anchor="middle" x="626" y="-133" font-family="Helvetica,sans-Serif" font-size="10.00">prolog.terms.ObjectStack.pop</text>
</a>
</g>
</g>
<!-- Node15&#45;&gt;Node16 -->
<g id="edge18" class="edge"><title>Node15&#45;&gt;Node16</title>
<path fill="none" stroke="midnightblue" d="M505.125,-135.5C517.232,-135.5 530.1,-135.5 542.74,-135.5"/>
<polygon fill="midnightblue" stroke="midnightblue" points="542.81,-139 552.81,-135.5 542.81,-132 542.81,-139"/>
</g>
<!-- Node17 -->
<g id="node17" class="node"><title>Node17</title>
<g id="a_node17"><a xlink:href="../../d3/ded/classprolog_1_1terms_1_1Term_ac710eec3650309d160ca04e364804e47.html#ac710eec3650309d160ca04e364804e47" target="_top" xlink:title="prolog.terms.Term.undo">
<polygon fill="none" stroke="black" points="566,-88 566,-107 686,-107 686,-88 566,-88"/>
<text text-anchor="middle" x="626" y="-95" font-family="Helvetica,sans-Serif" font-size="10.00">prolog.terms.Term.undo</text>
</a>
</g>
</g>
<!-- Node15&#45;&gt;Node17 -->
<g id="edge19" class="edge"><title>Node15&#45;&gt;Node17</title>
<path fill="none" stroke="midnightblue" d="M488.926,-125.911C513.376,-120.806 543.633,-114.489 569.403,-109.108"/>
<polygon fill="midnightblue" stroke="midnightblue" points="570.33,-112.49 579.404,-107.02 568.9,-105.638 570.33,-112.49"/>
</g>
</g>
</svg>
