<?xml version="1.0" encoding="UTF-8" standalone="no"?>
<!DOCTYPE svg PUBLIC "-//W3C//DTD SVG 1.1//EN"
 "http://www.w3.org/Graphics/SVG/1.1/DTD/svg11.dtd">
<!-- Generated by graphviz version 2.38.0 (20140413.2041)
 -->
<!-- Title: prolog.terms.Clause.getFirst Pages: 1 -->
<!--zoomable 324 -->
<svg id="main" version="1.1" xmlns="http://www.w3.org/2000/svg" xmlns:xlink="http://www.w3.org/1999/xlink" xml:space="preserve" onload="init(evt)">
<style type="text/css"><![CDATA[
.edge:hover path { stroke: red; }
.edge:hover polygon { stroke: red; fill: red; }
]]></style>
<script type="text/javascript"><![CDATA[
var edges = document.getElementsByTagName('g');
if (edges && edges.length) {
  for (var i=0;i<edges.length;i++) {
    if (edges[i].id.substr(0,4)=='edge') {
      edges[i].setAttribute('class','edge');
    }
  }
}
]]></script>
        <defs>
                <circle id="rim" cx="0" cy="0" r="7"/>
                <circle id="rim2" cx="0" cy="0" r="3.5"/>
                <g id="zoomPlus">
                        <use xlink:href="#rim" fill="#404040">
                                <set attributeName="fill" to="#808080" begin="zoomplus.mouseover" end="zoomplus.mouseout"/>
                        </use>
                        <path d="M-4,0h8M0,-4v8" fill="none" stroke="white" stroke-width="1.5" pointer-events="none"/>
                </g>
                <g id="zoomMin">
                        <use xlink:href="#rim" fill="#404040">
                                <set attributeName="fill" to="#808080" begin="zoomminus.mouseover" end="zoomminus.mouseout"/>
                        </use>
                        <path d="M-4,0h8" fill="none" stroke="white" stroke-width="1.5" pointer-events="none"/>
                </g>
                <g id="dirArrow">
                        <path fill="none" stroke="white" stroke-width="1.5" d="M0,-3.0v7 M-2.5,-0.5L0,-3.0L2.5,-0.5"/>
                </g>
               <g id="resetDef">
                       <use xlink:href="#rim2" fill="#404040">
                               <set attributeName="fill" to="#808080" begin="reset.mouseover" end="reset.mouseout"/>
                       </use>
               </g>
        </defs>

<script type="text/javascript">
var viewWidth = 1777;
var viewHeight = 324;
var sectionId = 'dynsection-1';
</script>
<script xlink:href="../../svgpan.js"/>
<svg id="graph" class="graph">
<g id="viewport">
<title>prolog.terms.Clause.getFirst</title>
<!-- Node1 -->
<g id="node1" class="node"><title>Node1</title>
<polygon fill="#bfbfbf" stroke="black" points="0,-202.5 0,-221.5 140,-221.5 140,-202.5 0,-202.5"/>
<text text-anchor="middle" x="70" y="-209.5" font-family="Helvetica,sans-Serif" font-size="10.00">prolog.terms.Clause.getFirst</text>
</g>
<!-- Node2 -->
<g id="node2" class="node"><title>Node2</title>
<g id="a_node2"><a xlink:href="../../df/d94/classprolog_1_1terms_1_1Unfolder_ae1840746f212e74a2beb717c3a794d3a.html#ae1840746f212e74a2beb717c3a794d3a" target="_top" xlink:title="Reduces builtin functions after the neck of a clause, before a &quot;real&quot; atom is unfolded. ">
<polygon fill="none" stroke="black" points="183.5,-285 183.5,-315 326.5,-315 326.5,-285 183.5,-285"/>
<text text-anchor="start" x="191.5" y="-303" font-family="Helvetica,sans-Serif" font-size="10.00">prolog.terms.Unfolder.reduce</text>
<text text-anchor="middle" x="255" y="-292" font-family="Helvetica,sans-Serif" font-size="10.00">Builtins</text>
</a>
</g>
</g>
<!-- Node1&#45;&gt;Node2 -->
<g id="edge1" class="edge"><title>Node1&#45;&gt;Node2</title>
<path fill="none" stroke="midnightblue" d="M95.5238,-226.807C116.492,-239.159 147.679,-256.808 176,-270 187.311,-275.269 199.825,-280.383 211.457,-284.852"/>
<polygon fill="midnightblue" stroke="midnightblue" points="97.0412,-223.637 86.6561,-221.54 93.4663,-229.656 97.0412,-223.637"/>
</g>
<!-- Node3 -->
<g id="node3" class="node"><title>Node3</title>
<g id="a_node3"><a xlink:href="../../df/d94/classprolog_1_1terms_1_1Unfolder_a82021b31093362b5f28314f871cb3f85.html#a82021b31093362b5f28314f871cb3f85" target="_top" xlink:title="Creates an Unfolder based on goal clause g for resolution step in program p. ">
<polygon fill="none" stroke="black" points="370,-224.5 370,-243.5 520,-243.5 520,-224.5 370,-224.5"/>
<text text-anchor="middle" x="445" y="-231.5" font-family="Helvetica,sans-Serif" font-size="10.00">prolog.terms.Unfolder.Unfolder</text>
</a>
</g>
</g>
<!-- Node1&#45;&gt;Node3 -->
<g id="edge28" class="edge"><title>Node1&#45;&gt;Node3</title>
<path fill="none" stroke="midnightblue" d="M112.704,-224.298C131.809,-229.317 154.861,-234.518 176,-237 241.161,-244.65 315.843,-242.963 369.792,-239.904"/>
<polygon fill="midnightblue" stroke="midnightblue" points="113.387,-220.857 102.82,-221.627 111.56,-227.615 113.387,-220.857"/>
</g>
<!-- Node4 -->
<g id="node4" class="node"><title>Node4</title>
<g id="a_node4"><a xlink:href="../../df/d94/classprolog_1_1terms_1_1Unfolder_aa582e02b2fe0debc9cdee377c11dc401.html#aa582e02b2fe0debc9cdee377c11dc401" target="_top" xlink:title="Tracer on exiting g. ">
<polygon fill="none" stroke="black" points="187.5,-197 187.5,-227 322.5,-227 322.5,-197 187.5,-197"/>
<text text-anchor="start" x="195.5" y="-215" font-family="Helvetica,sans-Serif" font-size="10.00">prolog.terms.Unfolder.trace</text>
<text text-anchor="middle" x="255" y="-204" font-family="Helvetica,sans-Serif" font-size="10.00">_failing</text>
</a>
</g>
</g>
<!-- Node1&#45;&gt;Node4 -->
<g id="edge3" class="edge"><title>Node1&#45;&gt;Node4</title>
<path fill="none" stroke="midnightblue" d="M150.457,-212C162.794,-212 175.428,-212 187.441,-212"/>
<polygon fill="midnightblue" stroke="midnightblue" points="150.184,-208.5 140.184,-212 150.184,-215.5 150.184,-208.5"/>
</g>
<!-- Node5 -->
<g id="node5" class="node"><title>Node5</title>
<g id="a_node5"><a xlink:href="../../df/d94/classprolog_1_1terms_1_1Unfolder_ac163a708c1c928bc040e66ed88addefc.html#ac163a708c1c928bc040e66ed88addefc" target="_top" xlink:title="Tracer on entering g. ">
<polygon fill="none" stroke="black" points="176,-158.5 176,-177.5 334,-177.5 334,-158.5 176,-158.5"/>
<text text-anchor="middle" x="255" y="-165.5" font-family="Helvetica,sans-Serif" font-size="10.00">prolog.terms.Unfolder.trace_goal</text>
</a>
</g>
</g>
<!-- Node1&#45;&gt;Node5 -->
<g id="edge5" class="edge"><title>Node1&#45;&gt;Node5</title>
<path fill="none" stroke="midnightblue" d="M120.78,-200.031C150.195,-192.959 186.929,-184.126 214.369,-177.529"/>
<polygon fill="midnightblue" stroke="midnightblue" points="119.613,-196.712 110.708,-202.453 121.249,-203.518 119.613,-196.712"/>
</g>
<!-- Node6 -->
<g id="node6" class="node"><title>Node6</title>
<g id="a_node6"><a xlink:href="../../d6/dc4/classprolog_1_1terms_1_1Clause_a9c5f957d0240113f4328ebbc73d3b31d.html#a9c5f957d0240113f4328ebbc73d3b31d" target="_top" xlink:title="Algebraic composition operation of 2 Clauses, doing the basic resolution step Prolog is based on...">
<polygon fill="none" stroke="black" points="188,-120.5 188,-139.5 322,-139.5 322,-120.5 188,-120.5"/>
<text text-anchor="middle" x="255" y="-127.5" font-family="Helvetica,sans-Serif" font-size="10.00">prolog.terms.Clause.unfold</text>
</a>
</g>
</g>
<!-- Node1&#45;&gt;Node6 -->
<g id="edge7" class="edge"><title>Node1&#45;&gt;Node6</title>
<path fill="none" stroke="midnightblue" d="M92.1914,-196.655C112.713,-182.448 145.166,-161.663 176,-149 185.154,-145.241 195.23,-142.105 205.013,-139.537"/>
<polygon fill="midnightblue" stroke="midnightblue" points="90.0733,-193.866 83.9087,-202.483 94.1013,-199.591 90.0733,-193.866"/>
</g>
<!-- Node2&#45;&gt;Node3 -->
<g id="edge2" class="edge"><title>Node2&#45;&gt;Node3</title>
<path fill="none" stroke="midnightblue" d="M308.763,-281.477C343.892,-269.144 388.604,-253.447 416.775,-243.558"/>
<polygon fill="midnightblue" stroke="midnightblue" points="307.407,-278.243 299.131,-284.858 309.726,-284.848 307.407,-278.243"/>
</g>
<!-- Node4&#45;&gt;Node3 -->
<g id="edge4" class="edge"><title>Node4&#45;&gt;Node3</title>
<path fill="none" stroke="midnightblue" d="M332.731,-220.979C344.993,-222.414 357.66,-223.896 369.86,-225.324"/>
<polygon fill="midnightblue" stroke="midnightblue" points="332.885,-217.473 322.546,-219.787 332.072,-224.426 332.885,-217.473"/>
</g>
<!-- Node5&#45;&gt;Node3 -->
<g id="edge6" class="edge"><title>Node5&#45;&gt;Node3</title>
<path fill="none" stroke="midnightblue" d="M307.827,-180.164C316.625,-182.549 325.622,-185.191 334,-188 365.99,-198.727 401.838,-214.443 423.662,-224.446"/>
<polygon fill="midnightblue" stroke="midnightblue" points="308.583,-176.744 298.021,-177.585 306.802,-183.514 308.583,-176.744"/>
</g>
<!-- Node7 -->
<g id="node7" class="node"><title>Node7</title>
<g id="a_node7"><a xlink:href="../../d6/dc4/classprolog_1_1terms_1_1Clause_a0d8b6d3c8de70326ab416be12688896b.html#a0d8b6d3c8de70326ab416be12688896b" target="_top" xlink:title="prolog.terms.Clause.unfold\l_with_goal">
<polygon fill="none" stroke="black" points="378,-115 378,-145 512,-145 512,-115 378,-115"/>
<text text-anchor="start" x="386" y="-133" font-family="Helvetica,sans-Serif" font-size="10.00">prolog.terms.Clause.unfold</text>
<text text-anchor="middle" x="445" y="-122" font-family="Helvetica,sans-Serif" font-size="10.00">_with_goal</text>
</a>
</g>
</g>
<!-- Node6&#45;&gt;Node7 -->
<g id="edge8" class="edge"><title>Node6&#45;&gt;Node7</title>
<path fill="none" stroke="midnightblue" d="M332.335,-130C347.411,-130 363.117,-130 377.824,-130"/>
<polygon fill="midnightblue" stroke="midnightblue" points="332.017,-126.5 322.017,-130 332.017,-133.5 332.017,-126.5"/>
</g>
<!-- Node8 -->
<g id="node8" class="node"><title>Node8</title>
<g id="a_node8"><a xlink:href="../../df/d94/classprolog_1_1terms_1_1Unfolder_a261a28665ab541b974afb636c3fec84b.html#a261a28665ab541b974afb636c3fec84b" target="_top" xlink:title="Returns a new clause by unfolding the goal with a matching clause in the database, or null if no such clause exists. ">
<polygon fill="none" stroke="black" points="556,-115 556,-145 683,-145 683,-115 556,-115"/>
<text text-anchor="start" x="564" y="-133" font-family="Helvetica,sans-Serif" font-size="10.00">prolog.terms.Unfolder.get</text>
<text text-anchor="middle" x="619.5" y="-122" font-family="Helvetica,sans-Serif" font-size="10.00">Element</text>
</a>
</g>
</g>
<!-- Node7&#45;&gt;Node8 -->
<g id="edge9" class="edge"><title>Node7&#45;&gt;Node8</title>
<path fill="none" stroke="midnightblue" d="M522.394,-130C533.588,-130 545.006,-130 555.881,-130"/>
<polygon fill="midnightblue" stroke="midnightblue" points="522.2,-126.5 512.2,-130 522.2,-133.5 522.2,-126.5"/>
</g>
<!-- Node9 -->
<g id="node9" class="node"><title>Node9</title>
<g id="a_node9"><a xlink:href="../../d4/d26/classprolog_1_1terms_1_1Prog_ac5d988b907a2843fcfcba4d1fd1e0deb.html#ac5d988b907a2843fcfcba4d1fd1e0deb" target="_top" xlink:title="Here is where actual LD&#45;resolution computation happens. ">
<polygon fill="none" stroke="black" points="719,-120.5 719,-139.5 865,-139.5 865,-120.5 719,-120.5"/>
<text text-anchor="middle" x="792" y="-127.5" font-family="Helvetica,sans-Serif" font-size="10.00">prolog.terms.Prog.getElement</text>
</a>
</g>
</g>
<!-- Node8&#45;&gt;Node9 -->
<g id="edge10" class="edge"><title>Node8&#45;&gt;Node9</title>
<path fill="none" stroke="midnightblue" d="M693.288,-130C701.794,-130 710.469,-130 718.965,-130"/>
<polygon fill="midnightblue" stroke="midnightblue" points="693.02,-126.5 683.02,-130 693.02,-133.5 693.02,-126.5"/>
</g>
<!-- Node10 -->
<g id="node10" class="node"><title>Node10</title>
<g id="a_node10"><a xlink:href="../../d4/d26/classprolog_1_1terms_1_1Prog_a696a0c92a1814ecf4f21fb09fbc854a0.html#a696a0c92a1814ecf4f21fb09fbc854a0" target="_top" xlink:title="asks a logic engine to return a solution ">
<polygon fill="none" stroke="black" points="901,-137 901,-167 1014,-167 1014,-137 901,-137"/>
<text text-anchor="start" x="909" y="-155" font-family="Helvetica,sans-Serif" font-size="10.00">prolog.terms.Prog.ask</text>
<text text-anchor="middle" x="957.5" y="-144" font-family="Helvetica,sans-Serif" font-size="10.00">_engine</text>
</a>
</g>
</g>
<!-- Node9&#45;&gt;Node10 -->
<g id="edge11" class="edge"><title>Node9&#45;&gt;Node10</title>
<path fill="none" stroke="midnightblue" d="M873.717,-140.861C882.917,-142.099 892.135,-143.339 900.904,-144.519"/>
<polygon fill="midnightblue" stroke="midnightblue" points="874.14,-137.386 863.763,-139.522 873.206,-144.324 874.14,-137.386"/>
</g>
<!-- Node24 -->
<g id="node24" class="node"><title>Node24</title>
<g id="a_node24"><a xlink:href="../../d4/d26/classprolog_1_1terms_1_1Prog_a45a00a5df54d8c378930f320020b457f.html#a45a00a5df54d8c378930f320020b457f" target="_top" xlink:title="usable for launching on a separate thread ">
<polygon fill="none" stroke="black" points="902.5,-98.5 902.5,-117.5 1012.5,-117.5 1012.5,-98.5 902.5,-98.5"/>
<text text-anchor="middle" x="957.5" y="-105.5" font-family="Helvetica,sans-Serif" font-size="10.00">prolog.terms.Prog.run</text>
</a>
</g>
</g>
<!-- Node9&#45;&gt;Node24 -->
<g id="edge27" class="edge"><title>Node9&#45;&gt;Node24</title>
<path fill="none" stroke="midnightblue" d="M873.827,-119.124C883.513,-117.821 893.216,-116.515 902.392,-115.281"/>
<polygon fill="midnightblue" stroke="midnightblue" points="873.206,-115.676 863.763,-120.478 874.14,-122.614 873.206,-115.676"/>
</g>
<!-- Node11 -->
<g id="node11" class="node"><title>Node11</title>
<g id="a_node11"><a xlink:href="../../d8/d35/classprolog_1_1Init_a34d43d3123bb194902cbcb1c06194cce.html#a34d43d3123bb194902cbcb1c06194cce" target="_top" xlink:title="evalutes a query ">
<polygon fill="none" stroke="black" points="1264,-164.5 1264,-183.5 1365,-183.5 1365,-164.5 1264,-164.5"/>
<text text-anchor="middle" x="1314.5" y="-171.5" font-family="Helvetica,sans-Serif" font-size="10.00">prolog.Init.evalGoal</text>
</a>
</g>
</g>
<!-- Node10&#45;&gt;Node11 -->
<g id="edge12" class="edge"><title>Node10&#45;&gt;Node11</title>
<path fill="none" stroke="midnightblue" d="M1024.74,-156.105C1094.14,-160.406 1201.58,-167.064 1263.98,-170.931"/>
<polygon fill="midnightblue" stroke="midnightblue" points="1024.56,-152.587 1014.36,-155.462 1024.12,-159.574 1024.56,-152.587"/>
</g>
<!-- Node15 -->
<g id="node15" class="node"><title>Node15</title>
<g id="a_node15"><a xlink:href="../../d4/d26/classprolog_1_1terms_1_1Prog_afb6f86119db8ba133de23f8bfe24ba2e.html#afb6f86119db8ba133de23f8bfe24ba2e" target="_top" xlink:title="Computes a copy of the first solution X of Goal G. ">
<polygon fill="none" stroke="black" points="1050,-121.5 1050,-140.5 1199,-140.5 1199,-121.5 1050,-121.5"/>
<text text-anchor="middle" x="1124.5" y="-128.5" font-family="Helvetica,sans-Serif" font-size="10.00">prolog.terms.Prog.firstSolution</text>
</a>
</g>
</g>
<!-- Node10&#45;&gt;Node15 -->
<g id="edge16" class="edge"><title>Node10&#45;&gt;Node15</title>
<path fill="none" stroke="midnightblue" d="M1024.42,-143.61C1032.78,-142.546 1041.38,-141.452 1049.85,-140.373"/>
<polygon fill="midnightblue" stroke="midnightblue" points="1023.84,-140.156 1014.36,-144.89 1024.72,-147.1 1023.84,-140.156"/>
</g>
<!-- Node12 -->
<g id="node12" class="node"><title>Node12</title>
<g id="a_node12"><a xlink:href="../../d8/d35/classprolog_1_1Init_a2471811f50fbed4de5df26ee530f1e2e.html#a2471811f50fbed4de5df26ee530f1e2e" target="_top" xlink:title="evaluates and times a Goal querying program P ">
<polygon fill="none" stroke="black" points="1453.5,-164.5 1453.5,-183.5 1554.5,-183.5 1554.5,-164.5 1453.5,-164.5"/>
<text text-anchor="middle" x="1504" y="-171.5" font-family="Helvetica,sans-Serif" font-size="10.00">prolog.Init.timeGoal</text>
</a>
</g>
</g>
<!-- Node11&#45;&gt;Node12 -->
<g id="edge13" class="edge"><title>Node11&#45;&gt;Node12</title>
<path fill="none" stroke="midnightblue" d="M1375.41,-174C1400.54,-174 1429.42,-174 1453.34,-174"/>
<polygon fill="midnightblue" stroke="midnightblue" points="1375.25,-170.5 1365.25,-174 1375.25,-177.5 1375.25,-170.5"/>
</g>
<!-- Node13 -->
<g id="node13" class="node"><title>Node13</title>
<g id="a_node13"><a xlink:href="../../d8/d35/classprolog_1_1Init_a0348efff7140aed75f8364f90b7c2b8b.html#a0348efff7140aed75f8364f90b7c2b8b" target="_top" xlink:title="prolog.Init.run_query">
<polygon fill="none" stroke="black" points="1639,-202.5 1639,-221.5 1744,-221.5 1744,-202.5 1639,-202.5"/>
<text text-anchor="middle" x="1691.5" y="-209.5" font-family="Helvetica,sans-Serif" font-size="10.00">prolog.Init.run_query</text>
</a>
</g>
</g>
<!-- Node12&#45;&gt;Node13 -->
<g id="edge14" class="edge"><title>Node12&#45;&gt;Node13</title>
<path fill="none" stroke="midnightblue" d="M1561.67,-185.61C1588.06,-191.014 1619.05,-197.364 1644.03,-202.48"/>
<polygon fill="midnightblue" stroke="midnightblue" points="1562.31,-182.167 1551.81,-183.589 1560.9,-189.025 1562.31,-182.167"/>
</g>
<!-- Node14 -->
<g id="node14" class="node"><title>Node14</title>
<g id="a_node14"><a xlink:href="../../d8/d35/classprolog_1_1Init_a3e8704cf8b2d909fccc79e967dd48171.html#a3e8704cf8b2d909fccc79e967dd48171" target="_top" xlink:title="prolog.Init.standardTop">
<polygon fill="none" stroke="black" points="1633.5,-164.5 1633.5,-183.5 1749.5,-183.5 1749.5,-164.5 1633.5,-164.5"/>
<text text-anchor="middle" x="1691.5" y="-171.5" font-family="Helvetica,sans-Serif" font-size="10.00">prolog.Init.standardTop</text>
</a>
</g>
</g>
<!-- Node12&#45;&gt;Node14 -->
<g id="edge15" class="edge"><title>Node12&#45;&gt;Node14</title>
<path fill="none" stroke="midnightblue" d="M1564.92,-174C1586.9,-174 1611.7,-174 1633.43,-174"/>
<polygon fill="midnightblue" stroke="midnightblue" points="1564.71,-170.5 1554.71,-174 1564.71,-177.5 1564.71,-170.5"/>
</g>
<!-- Node15&#45;&gt;Node11 -->
<g id="edge20" class="edge"><title>Node15&#45;&gt;Node11</title>
<path fill="none" stroke="midnightblue" d="M1177.04,-142.788C1206.87,-149.612 1243.93,-158.087 1271.89,-164.484"/>
<polygon fill="midnightblue" stroke="midnightblue" points="1177.75,-139.361 1167.22,-140.543 1176.19,-146.185 1177.75,-139.361"/>
</g>
<!-- Node16 -->
<g id="node16" class="node"><title>Node16</title>
<g id="a_node16"><a xlink:href="../../da/dd9/classprolog_1_1fluents_1_1DataBase_a6f8041bc2bcb5cdd8a376e81a3dc4dca.html#a6f8041bc2bcb5cdd8a376e81a3dc4dca" target="_top" xlink:title="adds a Clause to the joint Linda and Predicate table ">
<polygon fill="none" stroke="black" points="1235,-115 1235,-145 1394,-145 1394,-115 1235,-115"/>
<text text-anchor="start" x="1243" y="-133" font-family="Helvetica,sans-Serif" font-size="10.00">prolog.fluents.DataBase.process</text>
<text text-anchor="middle" x="1314.5" y="-122" font-family="Helvetica,sans-Serif" font-size="10.00">Clause</text>
</a>
</g>
</g>
<!-- Node15&#45;&gt;Node16 -->
<g id="edge17" class="edge"><title>Node15&#45;&gt;Node16</title>
<path fill="none" stroke="midnightblue" d="M1209.52,-130.553C1218,-130.508 1226.58,-130.462 1234.99,-130.418"/>
<polygon fill="midnightblue" stroke="midnightblue" points="1209.24,-127.054 1199.26,-130.608 1209.28,-134.054 1209.24,-127.054"/>
</g>
<!-- Node19 -->
<g id="node19" class="node"><title>Node19</title>
<g id="a_node19"><a xlink:href="../../d8/d35/classprolog_1_1Init_a4a7b9ae1dc4d489e657326f3ed5a4b7e.html#a4a7b9ae1dc4d489e657326f3ed5a4b7e" target="_top" xlink:title="Asks Prolog a query Answer, Goal and returns the first solution of the form &quot;the(Answer)&quot; or the cons...">
<polygon fill="none" stroke="black" points="1261.5,-57.5 1261.5,-76.5 1367.5,-76.5 1367.5,-57.5 1261.5,-57.5"/>
<text text-anchor="middle" x="1314.5" y="-64.5" font-family="Helvetica,sans-Serif" font-size="10.00">prolog.Init.askProlog</text>
</a>
</g>
</g>
<!-- Node15&#45;&gt;Node19 -->
<g id="edge21" class="edge"><title>Node15&#45;&gt;Node19</title>
<path fill="none" stroke="midnightblue" d="M1163.34,-118.119C1199.45,-105.825 1253.03,-87.5856 1285.47,-76.5423"/>
<polygon fill="midnightblue" stroke="midnightblue" points="1161.98,-114.883 1153.65,-121.419 1164.24,-121.509 1161.98,-114.883"/>
</g>
<!-- Node17 -->
<g id="node17" class="node"><title>Node17</title>
<g id="a_node17"><a xlink:href="../../da/dd9/classprolog_1_1fluents_1_1DataBase_a83885e10b61d6bf129307d9bf50d93de.html#a83885e10b61d6bf129307d9bf50d93de" target="_top" xlink:title="prolog.fluents.DataBase.apply\l_parser">
<polygon fill="none" stroke="black" points="1430,-115 1430,-145 1578,-145 1578,-115 1430,-115"/>
<text text-anchor="start" x="1438" y="-133" font-family="Helvetica,sans-Serif" font-size="10.00">prolog.fluents.DataBase.apply</text>
<text text-anchor="middle" x="1504" y="-122" font-family="Helvetica,sans-Serif" font-size="10.00">_parser</text>
</a>
</g>
</g>
<!-- Node16&#45;&gt;Node17 -->
<g id="edge18" class="edge"><title>Node16&#45;&gt;Node17</title>
<path fill="none" stroke="midnightblue" d="M1404.24,-130C1412.83,-130 1421.47,-130 1429.88,-130"/>
<polygon fill="midnightblue" stroke="midnightblue" points="1404.2,-126.5 1394.2,-130 1404.2,-133.5 1404.2,-126.5"/>
</g>
<!-- Node18 -->
<g id="node18" class="node"><title>Node18</title>
<g id="a_node18"><a xlink:href="../../da/dd9/classprolog_1_1fluents_1_1DataBase_af8b26948ded7bba6386b984f463bf166.html#af8b26948ded7bba6386b984f463bf166" target="_top" xlink:title="prolog.fluents.DataBase.stream\lToProg">
<polygon fill="none" stroke="black" points="1614,-115 1614,-145 1769,-145 1769,-115 1614,-115"/>
<text text-anchor="start" x="1622" y="-133" font-family="Helvetica,sans-Serif" font-size="10.00">prolog.fluents.DataBase.stream</text>
<text text-anchor="middle" x="1691.5" y="-122" font-family="Helvetica,sans-Serif" font-size="10.00">ToProg</text>
</a>
</g>
</g>
<!-- Node17&#45;&gt;Node18 -->
<g id="edge19" class="edge"><title>Node17&#45;&gt;Node18</title>
<path fill="none" stroke="midnightblue" d="M1588.06,-130C1596.65,-130 1605.34,-130 1613.86,-130"/>
<polygon fill="midnightblue" stroke="midnightblue" points="1588.05,-126.5 1578.05,-130 1588.05,-133.5 1588.05,-126.5"/>
</g>
<!-- Node20 -->
<g id="node20" class="node"><title>Node20</title>
<g id="a_node20"><a xlink:href="../../d8/d35/classprolog_1_1Init_ae5fe9e2dc533d32690edbbec3b1c279b.html#ae5fe9e2dc533d32690edbbec3b1c279b" target="_top" xlink:title="Asks Prolog a query Goal and returns the first solution of the form &quot;the(Answer)&quot; ...">
<polygon fill="none" stroke="black" points="1451,-76.5 1451,-95.5 1557,-95.5 1557,-76.5 1451,-76.5"/>
<text text-anchor="middle" x="1504" y="-83.5" font-family="Helvetica,sans-Serif" font-size="10.00">prolog.Init.askProlog</text>
</a>
</g>
</g>
<!-- Node19&#45;&gt;Node20 -->
<g id="edge22" class="edge"><title>Node19&#45;&gt;Node20</title>
<path fill="none" stroke="midnightblue" d="M1377.99,-73.3319C1401.58,-75.7229 1428.16,-78.4163 1450.73,-80.7029"/>
<polygon fill="midnightblue" stroke="midnightblue" points="1378.03,-69.8186 1367.73,-72.2926 1377.33,-76.783 1378.03,-69.8186"/>
</g>
<!-- Node21 -->
<g id="node21" class="node"><title>Node21</title>
<g id="a_node21"><a xlink:href="../../da/dde/classprolog_1_1Main_aca445add96cb95be654213f0e42d5b76.html#aca445add96cb95be654213f0e42d5b76" target="_top" xlink:title="prolog.Main.init">
<polygon fill="none" stroke="black" points="1462.5,-38.5 1462.5,-57.5 1545.5,-57.5 1545.5,-38.5 1462.5,-38.5"/>
<text text-anchor="middle" x="1504" y="-45.5" font-family="Helvetica,sans-Serif" font-size="10.00">prolog.Main.init</text>
</a>
</g>
</g>
<!-- Node19&#45;&gt;Node21 -->
<g id="edge23" class="edge"><title>Node19&#45;&gt;Node21</title>
<path fill="none" stroke="midnightblue" d="M1377.77,-60.6895C1405.61,-57.8685 1437.64,-54.6231 1462.34,-52.1205"/>
<polygon fill="midnightblue" stroke="midnightblue" points="1377.33,-57.217 1367.73,-61.7074 1378.03,-64.1813 1377.33,-57.217"/>
</g>
<!-- Node23 -->
<g id="node23" class="node"><title>Node23</title>
<g id="a_node23"><a xlink:href="../../d8/d35/classprolog_1_1Init_a7293b6db1f53eca4730418c54ab07109.html#a7293b6db1f53eca4730418c54ab07109" target="_top" xlink:title="prolog.Init.run">
<polygon fill="none" stroke="black" points="1466,-0.5 1466,-19.5 1542,-19.5 1542,-0.5 1466,-0.5"/>
<text text-anchor="middle" x="1504" y="-7.5" font-family="Helvetica,sans-Serif" font-size="10.00">prolog.Init.run</text>
</a>
</g>
</g>
<!-- Node19&#45;&gt;Node23 -->
<g id="edge25" class="edge"><title>Node19&#45;&gt;Node23</title>
<path fill="none" stroke="midnightblue" d="M1352.39,-54.0706C1374.74,-46.4117 1403.87,-36.7261 1430,-29 1441.55,-25.5833 1454.23,-22.1685 1465.73,-19.1955"/>
<polygon fill="midnightblue" stroke="midnightblue" points="1350.95,-50.8646 1342.64,-57.4327 1353.23,-57.4825 1350.95,-50.8646"/>
</g>
<!-- Node22 -->
<g id="node22" class="node"><title>Node22</title>
<g id="a_node22"><a xlink:href="../../da/dde/classprolog_1_1Main_ab0b3345fa72bd3b96c565437b962efa3.html#ab0b3345fa72bd3b96c565437b962efa3" target="_top" xlink:title="prolog.Main.main">
<polygon fill="none" stroke="black" points="1646,-19.5 1646,-38.5 1737,-38.5 1737,-19.5 1646,-19.5"/>
<text text-anchor="middle" x="1691.5" y="-26.5" font-family="Helvetica,sans-Serif" font-size="10.00">prolog.Main.main</text>
</a>
</g>
</g>
<!-- Node21&#45;&gt;Node22 -->
<g id="edge24" class="edge"><title>Node21&#45;&gt;Node22</title>
<path fill="none" stroke="midnightblue" d="M1555.79,-42.7981C1584.02,-39.906 1618.83,-36.3407 1645.99,-33.5587"/>
<polygon fill="midnightblue" stroke="midnightblue" points="1555.3,-39.3296 1545.71,-43.8304 1556.01,-46.2931 1555.3,-39.3296"/>
</g>
<!-- Node23&#45;&gt;Node22 -->
<g id="edge26" class="edge"><title>Node23&#45;&gt;Node22</title>
<path fill="none" stroke="midnightblue" d="M1552.32,-14.8469C1581.12,-17.7964 1617.67,-21.5405 1645.95,-24.4368"/>
<polygon fill="midnightblue" stroke="midnightblue" points="1552.4,-11.3365 1542.09,-13.7993 1551.68,-18.3001 1552.4,-11.3365"/>
</g>
</g>
</svg>
        <g id="navigator" transform="translate(0 0)" fill="#404254">
                <rect fill="#f2f5e9" fill-opacity="0.5" stroke="#606060" stroke-width=".5" x="0" y="0" width="60" height="60"/>
                <use id="zoomplus" xlink:href="#zoomPlus" x="17" y="9" onmousedown="handleZoom(evt,'in')"/>
                <use id="zoomminus" xlink:href="#zoomMin" x="42" y="9" onmousedown="handleZoom(evt,'out')"/>
                <use id="reset" xlink:href="#resetDef" x="30" y="36" onmousedown="handleReset()"/>
                <g id="arrowUp" xlink:href="#dirArrow" transform="translate(30 24)" onmousedown="handlePan(0,-1)">
                  <use xlink:href="#rim" fill="#404040">
                        <set attributeName="fill" to="#808080" begin="arrowUp.mouseover" end="arrowUp.mouseout"/>
                  </use>
                  <path fill="none" stroke="white" stroke-width="1.5" d="M0,-3.0v7 M-2.5,-0.5L0,-3.0L2.5,-0.5"/>
                </g>
                <g id="arrowRight" xlink:href="#dirArrow" transform="rotate(90) translate(36 -43)" onmousedown="handlePan(1,0)">
                  <use xlink:href="#rim" fill="#404040">
                        <set attributeName="fill" to="#808080" begin="arrowRight.mouseover" end="arrowRight.mouseout"/>
                  </use>
                  <path fill="none" stroke="white" stroke-width="1.5" d="M0,-3.0v7 M-2.5,-0.5L0,-3.0L2.5,-0.5"/>
                </g>
                <g id="arrowDown" xlink:href="#dirArrow" transform="rotate(180) translate(-30 -48)" onmousedown="handlePan(0,1)">
                  <use xlink:href="#rim" fill="#404040">
                        <set attributeName="fill" to="#808080" begin="arrowDown.mouseover" end="arrowDown.mouseout"/>
                  </use>
                  <path fill="none" stroke="white" stroke-width="1.5" d="M0,-3.0v7 M-2.5,-0.5L0,-3.0L2.5,-0.5"/>
                </g>
                <g id="arrowLeft" xlink:href="#dirArrow" transform="rotate(270) translate(-36 17)" onmousedown="handlePan(-1,0)">
                  <use xlink:href="#rim" fill="#404040">
                        <set attributeName="fill" to="#808080" begin="arrowLeft.mouseover" end="arrowLeft.mouseout"/>
                  </use>
                  <path fill="none" stroke="white" stroke-width="1.5" d="M0,-3.0v7 M-2.5,-0.5L0,-3.0L2.5,-0.5"/>
                </g>
        </g>
        <svg viewBox="0 0 15 15" width="100%" height="30px" preserveAspectRatio="xMaxYMin meet">
         <g id="arrow_out" transform="scale(0.3 0.3)">
          <a xlink:href="classprolog_1_1terms_1_1Clause_abb4cb737b264c815c48f32a431ec6f5a_abb4cb737b264c815c48f32a431ec6f5a_icgraph_org.svg" target="_base">
           <rect id="button" ry="5" rx="5" y="6" x="6" height="38" width="38"
                fill="#f2f5e9" fill-opacity="0.5" stroke="#606060" stroke-width="1.0"/>
           <path id="arrow"
             d="M 11.500037,31.436501 C 11.940474,20.09759 22.043105,11.32322 32.158766,21.979434 L 37.068811,17.246167 C 37.068811,17.246167 37.088388,32 37.088388,32 L 22.160133,31.978069 C 22.160133,31.978069 26.997745,27.140456 26.997745,27.140456 C 18.528582,18.264221 13.291696,25.230495 11.500037,31.436501 z"
             style="fill:#404040;"/>
          </a>
         </g>
        </svg>
</svg>
