<?xml version="1.0" encoding="UTF-8" standalone="no"?>
<!DOCTYPE svg PUBLIC "-//W3C//DTD SVG 1.1//EN"
 "http://www.w3.org/Graphics/SVG/1.1/DTD/svg11.dtd">
<!-- Generated by graphviz version 2.38.0 (20140413.2041)
 -->
<!-- Title: prolog.terms.Clause.toGoal Pages: 1 -->
<svg width="763pt" height="268pt"
 viewBox="0.00 0.00 763.00 267.50" xmlns="http://www.w3.org/2000/svg" xmlns:xlink="http://www.w3.org/1999/xlink">
<g id="graph0" class="graph" transform="scale(1 1) rotate(0) translate(4 263.5)">
<title>prolog.terms.Clause.toGoal</title>
<!-- Node1 -->
<g id="node1" class="node"><title>Node1</title>
<polygon fill="#bfbfbf" stroke="black" points="0,-133.5 0,-152.5 136,-152.5 136,-133.5 0,-133.5"/>
<text text-anchor="middle" x="68" y="-140.5" font-family="Helvetica,sans-Serif" font-size="10.00">prolog.terms.Clause.toGoal</text>
</g>
<!-- Node2 -->
<g id="node2" class="node"><title>Node2</title>
<g id="a_node2"><a xlink:href="../../d6/dc4/classprolog_1_1terms_1_1Clause_a5334e8934d6aa83d3bd13b7b38d3992a.html#a5334e8934d6aa83d3bd13b7b38d3992a" target="_top" xlink:title="Detects that a clause is ground (i.e. ">
<polygon fill="none" stroke="black" points="177,-229 177,-259 311,-259 311,-229 177,-229"/>
<text text-anchor="start" x="185" y="-247" font-family="Helvetica,sans-Serif" font-size="10.00">prolog.terms.Clause.check</text>
<text text-anchor="middle" x="244" y="-236" font-family="Helvetica,sans-Serif" font-size="10.00">IfGround</text>
</a>
</g>
</g>
<!-- Node1&#45;&gt;Node2 -->
<g id="edge1" class="edge"><title>Node1&#45;&gt;Node2</title>
<path fill="none" stroke="midnightblue" d="M81.1559,-152.603C99.9039,-167.125 137.342,-194.992 172,-214 178.93,-217.801 186.441,-221.444 193.897,-224.801"/>
<polygon fill="midnightblue" stroke="midnightblue" points="192.698,-228.097 203.263,-228.89 195.499,-221.682 192.698,-228.097"/>
</g>
<!-- Node4 -->
<g id="node4" class="node"><title>Node4</title>
<g id="a_node4"><a xlink:href="../../d3/ded/classprolog_1_1terms_1_1Term_ac42ec640f377593fd9bee606478b6984.html#ac42ec640f377593fd9bee606478b6984" target="_top" xlink:title="Returns &#39;[]&#39;(V1,V2,..Vn) where Vi is a variable occuring in this Term. ">
<polygon fill="none" stroke="black" points="354.5,-193.5 354.5,-212.5 482.5,-212.5 482.5,-193.5 354.5,-193.5"/>
<text text-anchor="middle" x="418.5" y="-200.5" font-family="Helvetica,sans-Serif" font-size="10.00">prolog.terms.Term.varsOf</text>
</a>
</g>
</g>
<!-- Node1&#45;&gt;Node4 -->
<g id="edge14" class="edge"><title>Node1&#45;&gt;Node4</title>
<path fill="none" stroke="midnightblue" d="M89.8096,-152.535C110.271,-161.462 142.62,-174.387 172,-181 229.002,-193.831 295.035,-199.233 344.252,-201.481"/>
<polygon fill="midnightblue" stroke="midnightblue" points="344.35,-204.988 354.489,-201.915 344.646,-197.995 344.35,-204.988"/>
</g>
<!-- Node5 -->
<g id="node5" class="node"><title>Node5</title>
<g id="a_node5"><a xlink:href="../../d6/dc4/classprolog_1_1terms_1_1Clause_a414492a8d9d648788aadfd423ee32fb0.html#a414492a8d9d648788aadfd423ee32fb0" target="_top" xlink:title="Builds a clause given its head and its body. ">
<polygon fill="none" stroke="black" points="175,-152.5 175,-171.5 313,-171.5 313,-152.5 175,-152.5"/>
<text text-anchor="middle" x="244" y="-159.5" font-family="Helvetica,sans-Serif" font-size="10.00">prolog.terms.Clause.Clause</text>
</a>
</g>
</g>
<!-- Node1&#45;&gt;Node5 -->
<g id="edge4" class="edge"><title>Node1&#45;&gt;Node5</title>
<path fill="none" stroke="midnightblue" d="M136.273,-150.346C145.543,-151.358 155.129,-152.405 164.578,-153.437"/>
<polygon fill="midnightblue" stroke="midnightblue" points="164.436,-156.942 174.757,-154.548 165.196,-149.983 164.436,-156.942"/>
</g>
<!-- Node6 -->
<g id="node6" class="node"><title>Node6</title>
<g id="a_node6"><a xlink:href="../../d6/dc4/classprolog_1_1terms_1_1Clause_a5e5502c9619429232fcb310406256830.html#a5e5502c9619429232fcb310406256830" target="_top" xlink:title="Extracts the head of a clause (a Term). ">
<polygon fill="none" stroke="black" points="172,-114.5 172,-133.5 316,-133.5 316,-114.5 172,-114.5"/>
<text text-anchor="middle" x="244" y="-121.5" font-family="Helvetica,sans-Serif" font-size="10.00">prolog.terms.Clause.getHead</text>
</a>
</g>
</g>
<!-- Node1&#45;&gt;Node6 -->
<g id="edge5" class="edge"><title>Node1&#45;&gt;Node6</title>
<path fill="none" stroke="midnightblue" d="M136.273,-135.654C144.659,-134.738 153.303,-133.795 161.87,-132.859"/>
<polygon fill="midnightblue" stroke="midnightblue" points="162.312,-136.332 171.873,-131.767 161.552,-129.373 162.312,-136.332"/>
</g>
<!-- Node8 -->
<g id="node8" class="node"><title>Node8</title>
<g id="a_node8"><a xlink:href="../../d6/dc4/classprolog_1_1terms_1_1Clause_a42d56fcb3bedfc14a0ab04dacf08d9e0.html#a42d56fcb3bedfc14a0ab04dacf08d9e0" target="_top" xlink:title="Pretty prints a clause after replacing ugly variable names. ">
<polygon fill="none" stroke="black" points="178.5,-76.5 178.5,-95.5 309.5,-95.5 309.5,-76.5 178.5,-76.5"/>
<text text-anchor="middle" x="244" y="-83.5" font-family="Helvetica,sans-Serif" font-size="10.00">prolog.terms.Clause.pprint</text>
</a>
</g>
</g>
<!-- Node1&#45;&gt;Node8 -->
<g id="edge7" class="edge"><title>Node1&#45;&gt;Node8</title>
<path fill="none" stroke="midnightblue" d="M92.9245,-133.462C113.663,-125.366 144.569,-113.71 172,-105 179.44,-102.638 187.378,-100.32 195.151,-98.1592"/>
<polygon fill="midnightblue" stroke="midnightblue" points="196.131,-101.52 204.86,-95.5158 194.292,-94.7659 196.131,-101.52"/>
</g>
<!-- Node9 -->
<g id="node9" class="node"><title>Node9</title>
<g id="a_node9"><a xlink:href="../../d4/dc2/classprolog_1_1io_1_1IO_aaa553b2e5bb8b5de129d38fe67293316.html#aaa553b2e5bb8b5de129d38fe67293316" target="_top" xlink:title="prolog.io.IO.trace">
<polygon fill="none" stroke="black" points="198,-38.5 198,-57.5 290,-57.5 290,-38.5 198,-38.5"/>
<text text-anchor="middle" x="244" y="-45.5" font-family="Helvetica,sans-Serif" font-size="10.00">prolog.io.IO.trace</text>
</a>
</g>
</g>
<!-- Node1&#45;&gt;Node9 -->
<g id="edge8" class="edge"><title>Node1&#45;&gt;Node9</title>
<path fill="none" stroke="midnightblue" d="M79.2535,-133.341C96.8554,-117.268 134.555,-85.0228 172,-67 177.03,-64.5789 182.415,-62.4304 187.886,-60.5321"/>
<polygon fill="midnightblue" stroke="midnightblue" points="189.305,-63.7533 197.769,-57.3803 187.178,-57.0842 189.305,-63.7533"/>
</g>
<!-- Node3 -->
<g id="node3" class="node"><title>Node3</title>
<g id="a_node3"><a xlink:href="../../d3/ded/classprolog_1_1terms_1_1Term_a9b2d3afe2dde56b3e2cba78e9280636c.html#a9b2d3afe2dde56b3e2cba78e9280636c" target="_top" xlink:title="returns or fakes an arity for all subtypes ">
<polygon fill="none" stroke="black" points="352,-234.5 352,-253.5 485,-253.5 485,-234.5 352,-234.5"/>
<text text-anchor="middle" x="418.5" y="-241.5" font-family="Helvetica,sans-Serif" font-size="10.00">prolog.terms.Term.getArity</text>
</a>
</g>
</g>
<!-- Node2&#45;&gt;Node3 -->
<g id="edge2" class="edge"><title>Node2&#45;&gt;Node3</title>
<path fill="none" stroke="midnightblue" d="M311.2,-244C321.176,-244 331.531,-244 341.69,-244"/>
<polygon fill="midnightblue" stroke="midnightblue" points="341.762,-247.5 351.762,-244 341.762,-240.5 341.762,-247.5"/>
</g>
<!-- Node2&#45;&gt;Node4 -->
<g id="edge3" class="edge"><title>Node2&#45;&gt;Node4</title>
<path fill="none" stroke="midnightblue" d="M308.253,-228.966C327.725,-224.338 348.883,-219.309 367.348,-214.92"/>
<polygon fill="midnightblue" stroke="midnightblue" points="368.382,-218.272 377.301,-212.554 366.763,-211.462 368.382,-218.272"/>
</g>
<!-- Node7 -->
<g id="node7" class="node"><title>Node7</title>
<g id="a_node7"><a xlink:href="../../d3/ded/classprolog_1_1terms_1_1Term_ae140fac2c9d066dc897fcfa723060a7a.html#ae140fac2c9d066dc897fcfa723060a7a" target="_top" xlink:title="Dereferences if necessary. ">
<polygon fill="none" stroke="black" points="363.5,-114.5 363.5,-133.5 473.5,-133.5 473.5,-114.5 363.5,-114.5"/>
<text text-anchor="middle" x="418.5" y="-121.5" font-family="Helvetica,sans-Serif" font-size="10.00">prolog.terms.Term.ref</text>
</a>
</g>
</g>
<!-- Node6&#45;&gt;Node7 -->
<g id="edge6" class="edge"><title>Node6&#45;&gt;Node7</title>
<path fill="none" stroke="midnightblue" d="M316.158,-124C328.484,-124 341.234,-124 353.36,-124"/>
<polygon fill="midnightblue" stroke="midnightblue" points="353.375,-127.5 363.375,-124 353.375,-120.5 353.375,-127.5"/>
</g>
<!-- Node10 -->
<g id="node10" class="node"><title>Node10</title>
<g id="a_node10"><a xlink:href="../../d4/dc2/classprolog_1_1io_1_1IO_a22a9a2bfe9fa6e00257369f5bf078a44.html#a22a9a2bfe9fa6e00257369f5bf078a44" target="_top" xlink:title="prolog.io.IO.getStdOutput">
<polygon fill="none" stroke="black" points="354.5,-76.5 354.5,-95.5 482.5,-95.5 482.5,-76.5 354.5,-76.5"/>
<text text-anchor="middle" x="418.5" y="-83.5" font-family="Helvetica,sans-Serif" font-size="10.00">prolog.io.IO.getStdOutput</text>
</a>
</g>
</g>
<!-- Node9&#45;&gt;Node10 -->
<g id="edge9" class="edge"><title>Node9&#45;&gt;Node10</title>
<path fill="none" stroke="midnightblue" d="M288.529,-57.589C311.6,-62.6713 340.127,-68.9554 364.481,-74.3203"/>
<polygon fill="midnightblue" stroke="midnightblue" points="363.765,-77.7466 374.284,-76.4799 365.271,-70.9105 363.765,-77.7466"/>
</g>
<!-- Node11 -->
<g id="node11" class="node"><title>Node11</title>
<g id="a_node11"><a xlink:href="../../d4/dc2/classprolog_1_1io_1_1IO_ad851906c6ebd6559eb1b1fa52e26dabb.html#ad851906c6ebd6559eb1b1fa52e26dabb" target="_top" xlink:title="prolog.io.IO.println">
<polygon fill="none" stroke="black" points="370.5,-38.5 370.5,-57.5 466.5,-57.5 466.5,-38.5 370.5,-38.5"/>
<text text-anchor="middle" x="418.5" y="-45.5" font-family="Helvetica,sans-Serif" font-size="10.00">prolog.io.IO.println</text>
</a>
</g>
</g>
<!-- Node9&#45;&gt;Node11 -->
<g id="edge10" class="edge"><title>Node9&#45;&gt;Node11</title>
<path fill="none" stroke="midnightblue" d="M290.322,-48C311.704,-48 337.454,-48 360.175,-48"/>
<polygon fill="midnightblue" stroke="midnightblue" points="360.374,-51.5001 370.374,-48 360.374,-44.5001 360.374,-51.5001"/>
</g>
<!-- Node14 -->
<g id="node14" class="node"><title>Node14</title>
<g id="a_node14"><a xlink:href="../../d6/d92/interfaceprolog_1_1io_1_1IOPeer_a780dd51c62dba4c266286171101b2cee.html#a780dd51c62dba4c266286171101b2cee" target="_top" xlink:title="prolog.io.IOPeer.traceln">
<polygon fill="none" stroke="black" points="359,-0.5 359,-19.5 478,-19.5 478,-0.5 359,-0.5"/>
<text text-anchor="middle" x="418.5" y="-7.5" font-family="Helvetica,sans-Serif" font-size="10.00">prolog.io.IOPeer.traceln</text>
</a>
</g>
</g>
<!-- Node9&#45;&gt;Node14 -->
<g id="edge13" class="edge"><title>Node9&#45;&gt;Node14</title>
<path fill="none" stroke="midnightblue" d="M288.529,-38.411C311.6,-33.3287 340.127,-27.0446 364.481,-21.6797"/>
<polygon fill="midnightblue" stroke="midnightblue" points="365.271,-25.0895 374.284,-19.5201 363.765,-18.2534 365.271,-25.0895"/>
</g>
<!-- Node12 -->
<g id="node12" class="node"><title>Node12</title>
<g id="a_node12"><a xlink:href="../../d4/dc2/classprolog_1_1io_1_1IO_aab64872af087c6cd9c5dd13e9f4eda00.html#aab64872af087c6cd9c5dd13e9f4eda00" target="_top" xlink:title="prolog.io.IO.print">
<polygon fill="none" stroke="black" points="521,-38.5 521,-57.5 610,-57.5 610,-38.5 521,-38.5"/>
<text text-anchor="middle" x="565.5" y="-45.5" font-family="Helvetica,sans-Serif" font-size="10.00">prolog.io.IO.print</text>
</a>
</g>
</g>
<!-- Node11&#45;&gt;Node12 -->
<g id="edge11" class="edge"><title>Node11&#45;&gt;Node12</title>
<path fill="none" stroke="midnightblue" d="M466.577,-48C480.551,-48 495.968,-48 510.353,-48"/>
<polygon fill="midnightblue" stroke="midnightblue" points="510.609,-51.5001 520.609,-48 510.609,-44.5001 510.609,-51.5001"/>
</g>
<!-- Node13 -->
<g id="node13" class="node"><title>Node13</title>
<g id="a_node13"><a xlink:href="../../d6/d92/interfaceprolog_1_1io_1_1IOPeer_abc1f90b85b358011e2595069d38ac25f.html#abc1f90b85b358011e2595069d38ac25f" target="_top" xlink:title="prolog.io.IOPeer.print">
<polygon fill="none" stroke="black" points="646,-38.5 646,-57.5 755,-57.5 755,-38.5 646,-38.5"/>
<text text-anchor="middle" x="700.5" y="-45.5" font-family="Helvetica,sans-Serif" font-size="10.00">prolog.io.IOPeer.print</text>
</a>
</g>
</g>
<!-- Node12&#45;&gt;Node13 -->
<g id="edge12" class="edge"><title>Node12&#45;&gt;Node13</title>
<path fill="none" stroke="midnightblue" d="M610.049,-48C618.217,-48 626.911,-48 635.548,-48"/>
<polygon fill="midnightblue" stroke="midnightblue" points="635.626,-51.5001 645.625,-48 635.625,-44.5001 635.626,-51.5001"/>
</g>
</g>
</svg>
