<?xml version="1.0" encoding="UTF-8" standalone="no"?>
<!DOCTYPE svg PUBLIC "-//W3C//DTD SVG 1.1//EN"
 "http://www.w3.org/Graphics/SVG/1.1/DTD/svg11.dtd">
<!-- Generated by graphviz version 2.38.0 (20140413.2041)
 -->
<!-- Title: prolog.terms.Clause.Clause Pages: 1 -->
<!--zoomable 325 -->
<svg id="main" version="1.1" xmlns="http://www.w3.org/2000/svg" xmlns:xlink="http://www.w3.org/1999/xlink" xml:space="preserve" onload="init(evt)">
<style type="text/css"><![CDATA[
.edge:hover path { stroke: red; }
.edge:hover polygon { stroke: red; fill: red; }
]]></style>
<script type="text/javascript"><![CDATA[
var edges = document.getElementsByTagName('g');
if (edges && edges.length) {
  for (var i=0;i<edges.length;i++) {
    if (edges[i].id.substr(0,4)=='edge') {
      edges[i].setAttribute('class','edge');
    }
  }
}
]]></script>
        <defs>
                <circle id="rim" cx="0" cy="0" r="7"/>
                <circle id="rim2" cx="0" cy="0" r="3.5"/>
                <g id="zoomPlus">
                        <use xlink:href="#rim" fill="#404040">
                                <set attributeName="fill" to="#808080" begin="zoomplus.mouseover" end="zoomplus.mouseout"/>
                        </use>
                        <path d="M-4,0h8M0,-4v8" fill="none" stroke="white" stroke-width="1.5" pointer-events="none"/>
                </g>
                <g id="zoomMin">
                        <use xlink:href="#rim" fill="#404040">
                                <set attributeName="fill" to="#808080" begin="zoomminus.mouseover" end="zoomminus.mouseout"/>
                        </use>
                        <path d="M-4,0h8" fill="none" stroke="white" stroke-width="1.5" pointer-events="none"/>
                </g>
                <g id="dirArrow">
                        <path fill="none" stroke="white" stroke-width="1.5" d="M0,-3.0v7 M-2.5,-0.5L0,-3.0L2.5,-0.5"/>
                </g>
               <g id="resetDef">
                       <use xlink:href="#rim2" fill="#404040">
                               <set attributeName="fill" to="#808080" begin="reset.mouseover" end="reset.mouseout"/>
                       </use>
               </g>
        </defs>

<script type="text/javascript">
var viewWidth = 1975;
var viewHeight = 325;
var sectionId = 'dynsection-0';
</script>
<script xlink:href="../../svgpan.js"/>
<svg id="graph" class="graph">
<g id="viewport">
<title>prolog.terms.Clause.Clause</title>
<!-- Node1 -->
<g id="node1" class="node"><title>Node1</title>
<polygon fill="#bfbfbf" stroke="black" points="0,-125 0,-144 138,-144 138,-125 0,-125"/>
<text text-anchor="middle" x="69" y="-132" font-family="Helvetica,sans-Serif" font-size="10.00">prolog.terms.Clause.Clause</text>
</g>
<!-- Node2 -->
<g id="node2" class="node"><title>Node2</title>
<g id="a_node2"><a xlink:href="../../d6/dc4/classprolog_1_1terms_1_1Clause_ad1a287e7c18ca6880e5d8f7d97c6acd9.html#ad1a287e7c18ca6880e5d8f7d97c6acd9" target="_top" xlink:title="Creates a copy of the clause with variables standardized apart, i.e. ">
<polygon fill="none" stroke="black" points="189,-201 189,-220 323,-220 323,-201 189,-201"/>
<text text-anchor="middle" x="256" y="-208" font-family="Helvetica,sans-Serif" font-size="10.00">prolog.terms.Clause.ccopy</text>
</a>
</g>
</g>
<!-- Node1&#45;&gt;Node2 -->
<g id="edge1" class="edge"><title>Node1&#45;&gt;Node2</title>
<path fill="none" stroke="midnightblue" d="M102.61,-148.034C123.096,-156.523 150.079,-167.682 174,-177.5 193.245,-185.399 215.09,-194.294 231.24,-200.858"/>
<polygon fill="midnightblue" stroke="midnightblue" points="103.695,-144.695 93.1174,-144.098 101.015,-151.161 103.695,-144.695"/>
</g>
<!-- Node22 -->
<g id="node22" class="node"><title>Node22</title>
<g id="a_node22"><a xlink:href="../../d6/dc4/classprolog_1_1terms_1_1Clause_a9c5f957d0240113f4328ebbc73d3b31d.html#a9c5f957d0240113f4328ebbc73d3b31d" target="_top" xlink:title="Algebraic composition operation of 2 Clauses, doing the basic resolution step Prolog is based on...">
<polygon fill="none" stroke="black" points="393.5,-168 393.5,-187 527.5,-187 527.5,-168 393.5,-168"/>
<text text-anchor="middle" x="460.5" y="-175" font-family="Helvetica,sans-Serif" font-size="10.00">prolog.terms.Clause.unfold</text>
</a>
</g>
</g>
<!-- Node1&#45;&gt;Node22 -->
<g id="edge36" class="edge"><title>Node1&#45;&gt;Node22</title>
<path fill="none" stroke="midnightblue" d="M148.643,-143.182C220.496,-151.115 325.561,-162.713 393.24,-170.185"/>
<polygon fill="midnightblue" stroke="midnightblue" points="148.615,-139.658 138.291,-142.039 147.847,-146.615 148.615,-139.658"/>
</g>
<!-- Node25 -->
<g id="node25" class="node"><title>Node25</title>
<g id="a_node25"><a xlink:href="../../d6/dc4/classprolog_1_1terms_1_1Clause_a616eb2dbf395587a4029c19bdc492745.html#a616eb2dbf395587a4029c19bdc492745" target="_top" xlink:title="Replaces varibles with nice looking upper case constants for printing purposes. ">
<polygon fill="none" stroke="black" points="174,-97 174,-116 338,-116 338,-97 174,-97"/>
<text text-anchor="middle" x="256" y="-104" font-family="Helvetica,sans-Serif" font-size="10.00">prolog.terms.Clause.cnumbervars</text>
</a>
</g>
</g>
<!-- Node1&#45;&gt;Node25 -->
<g id="edge28" class="edge"><title>Node1&#45;&gt;Node25</title>
<path fill="none" stroke="midnightblue" d="M142.868,-123.471C159.098,-121.015 176.174,-118.43 191.969,-116.04"/>
<polygon fill="midnightblue" stroke="midnightblue" points="142.254,-120.024 132.891,-124.981 143.302,-126.945 142.254,-120.024"/>
</g>
<!-- Node29 -->
<g id="node29" class="node"><title>Node29</title>
<g id="a_node29"><a xlink:href="../../d6/dc4/classprolog_1_1terms_1_1Clause_a00d8b13e5351a9f8c1ef80de688cd266.html#a00d8b13e5351a9f8c1ef80de688cd266" target="_top" xlink:title="Reads a goal as a clause containing a dummy header with all variables in it. ">
<polygon fill="none" stroke="black" points="188,-35 188,-54 324,-54 324,-35 188,-35"/>
<text text-anchor="middle" x="256" y="-42" font-family="Helvetica,sans-Serif" font-size="10.00">prolog.terms.Clause.toGoal</text>
</a>
</g>
</g>
<!-- Node1&#45;&gt;Node29 -->
<g id="edge33" class="edge"><title>Node1&#45;&gt;Node29</title>
<path fill="none" stroke="midnightblue" d="M98.8176,-120.481C136.798,-102.003 202.614,-69.9849 235.344,-54.0623"/>
<polygon fill="midnightblue" stroke="midnightblue" points="97.2595,-117.346 89.7982,-124.868 100.322,-123.641 97.2595,-117.346"/>
</g>
<!-- Node3 -->
<g id="node3" class="node"><title>Node3</title>
<g id="a_node3"><a xlink:href="../../df/d94/classprolog_1_1terms_1_1Unfolder_aecb7a5d616b5375d40405f66c9401637.html#aecb7a5d616b5375d40405f66c9401637" target="_top" xlink:title="Extracts an answer at the end of an AND&#45;derivation. ">
<polygon fill="none" stroke="black" points="754,-197.5 754,-227.5 881,-227.5 881,-197.5 754,-197.5"/>
<text text-anchor="start" x="762" y="-215.5" font-family="Helvetica,sans-Serif" font-size="10.00">prolog.terms.Unfolder.get</text>
<text text-anchor="middle" x="817.5" y="-204.5" font-family="Helvetica,sans-Serif" font-size="10.00">Answer</text>
</a>
</g>
</g>
<!-- Node2&#45;&gt;Node3 -->
<g id="edge2" class="edge"><title>Node2&#45;&gt;Node3</title>
<path fill="none" stroke="midnightblue" d="M333.278,-210.773C444.925,-211.172 650.752,-211.908 753.996,-212.277"/>
<polygon fill="midnightblue" stroke="midnightblue" points="333.115,-207.272 323.103,-210.736 333.09,-214.272 333.115,-207.272"/>
</g>
<!-- Node20 -->
<g id="node20" class="node"><title>Node20</title>
<g id="a_node20"><a xlink:href="../../d4/d26/classprolog_1_1terms_1_1Prog_a9e9f1fcf979c833292d594d709d0f689.html#a9e9f1fcf979c833292d594d709d0f689" target="_top" xlink:title="Creates a Prog starting execution with argument &quot;goal&quot;. ">
<polygon fill="none" stroke="black" points="759,-247 759,-266 876,-266 876,-247 759,-247"/>
<text text-anchor="middle" x="817.5" y="-254" font-family="Helvetica,sans-Serif" font-size="10.00">prolog.terms.Prog.Prog</text>
</a>
</g>
</g>
<!-- Node2&#45;&gt;Node20 -->
<g id="edge21" class="edge"><title>Node2&#45;&gt;Node20</title>
<path fill="none" stroke="midnightblue" d="M333.366,-220.934C346.887,-222.598 360.846,-224.197 374,-225.5 511.754,-239.144 674.218,-248.911 758.778,-253.519"/>
<polygon fill="midnightblue" stroke="midnightblue" points="333.489,-217.422 323.131,-219.653 332.619,-224.368 333.489,-217.422"/>
</g>
<!-- Node2&#45;&gt;Node22 -->
<g id="edge24" class="edge"><title>Node2&#45;&gt;Node22</title>
<path fill="none" stroke="midnightblue" d="M325.263,-199.376C349.809,-195.375 377.26,-190.902 400.911,-187.048"/>
<polygon fill="midnightblue" stroke="midnightblue" points="324.607,-195.936 315.3,-200.999 325.732,-202.845 324.607,-195.936"/>
</g>
<!-- Node4 -->
<g id="node4" class="node"><title>Node4</title>
<g id="a_node4"><a xlink:href="../../d4/d26/classprolog_1_1terms_1_1Prog_ac5d988b907a2843fcfcba4d1fd1e0deb.html#ac5d988b907a2843fcfcba4d1fd1e0deb" target="_top" xlink:title="Here is where actual LD&#45;resolution computation happens. ">
<polygon fill="none" stroke="black" points="917,-167 917,-186 1063,-186 1063,-167 917,-167"/>
<text text-anchor="middle" x="990" y="-174" font-family="Helvetica,sans-Serif" font-size="10.00">prolog.terms.Prog.getElement</text>
</a>
</g>
</g>
<!-- Node3&#45;&gt;Node4 -->
<g id="edge3" class="edge"><title>Node3&#45;&gt;Node4</title>
<path fill="none" stroke="midnightblue" d="M890.898,-197.214C908.861,-193.421 927.603,-189.463 943.835,-186.036"/>
<polygon fill="midnightblue" stroke="midnightblue" points="890.081,-193.809 881.02,-199.299 891.527,-200.658 890.081,-193.809"/>
</g>
<!-- Node5 -->
<g id="node5" class="node"><title>Node5</title>
<g id="a_node5"><a xlink:href="../../d4/d26/classprolog_1_1terms_1_1Prog_a696a0c92a1814ecf4f21fb09fbc854a0.html#a696a0c92a1814ecf4f21fb09fbc854a0" target="_top" xlink:title="asks a logic engine to return a solution ">
<polygon fill="none" stroke="black" points="1099,-137.5 1099,-167.5 1212,-167.5 1212,-137.5 1099,-137.5"/>
<text text-anchor="start" x="1107" y="-155.5" font-family="Helvetica,sans-Serif" font-size="10.00">prolog.terms.Prog.ask</text>
<text text-anchor="middle" x="1155.5" y="-144.5" font-family="Helvetica,sans-Serif" font-size="10.00">_engine</text>
</a>
</g>
</g>
<!-- Node4&#45;&gt;Node5 -->
<g id="edge4" class="edge"><title>Node4&#45;&gt;Node5</title>
<path fill="none" stroke="midnightblue" d="M1066.14,-165.471C1077.15,-163.854 1088.33,-162.213 1098.86,-160.668"/>
<polygon fill="midnightblue" stroke="midnightblue" points="1065.47,-162.03 1056.09,-166.946 1066.49,-168.956 1065.47,-162.03"/>
</g>
<!-- Node19 -->
<g id="node19" class="node"><title>Node19</title>
<g id="a_node19"><a xlink:href="../../d4/d26/classprolog_1_1terms_1_1Prog_a45a00a5df54d8c378930f320020b457f.html#a45a00a5df54d8c378930f320020b457f" target="_top" xlink:title="usable for launching on a separate thread ">
<polygon fill="none" stroke="black" points="1100.5,-187 1100.5,-206 1210.5,-206 1210.5,-187 1100.5,-187"/>
<text text-anchor="middle" x="1155.5" y="-194" font-family="Helvetica,sans-Serif" font-size="10.00">prolog.terms.Prog.run</text>
</a>
</g>
</g>
<!-- Node4&#45;&gt;Node19 -->
<g id="edge20" class="edge"><title>Node4&#45;&gt;Node19</title>
<path fill="none" stroke="midnightblue" d="M1073.18,-186.553C1082.41,-187.682 1091.63,-188.81 1100.38,-189.879"/>
<polygon fill="midnightblue" stroke="midnightblue" points="1073.54,-183.071 1063.19,-185.331 1072.69,-190.019 1073.54,-183.071"/>
</g>
<!-- Node6 -->
<g id="node6" class="node"><title>Node6</title>
<g id="a_node6"><a xlink:href="../../d8/d35/classprolog_1_1Init_a34d43d3123bb194902cbcb1c06194cce.html#a34d43d3123bb194902cbcb1c06194cce" target="_top" xlink:title="evalutes a query ">
<polygon fill="none" stroke="black" points="1462,-133 1462,-152 1563,-152 1563,-133 1462,-133"/>
<text text-anchor="middle" x="1512.5" y="-140" font-family="Helvetica,sans-Serif" font-size="10.00">prolog.Init.evalGoal</text>
</a>
</g>
</g>
<!-- Node5&#45;&gt;Node6 -->
<g id="edge5" class="edge"><title>Node5&#45;&gt;Node6</title>
<path fill="none" stroke="midnightblue" d="M1222.74,-150.634C1292.14,-148.679 1399.58,-145.653 1461.98,-143.895"/>
<polygon fill="midnightblue" stroke="midnightblue" points="1222.26,-147.146 1212.36,-150.926 1222.45,-154.143 1222.26,-147.146"/>
</g>
<!-- Node10 -->
<g id="node10" class="node"><title>Node10</title>
<g id="a_node10"><a xlink:href="../../d4/d26/classprolog_1_1terms_1_1Prog_afb6f86119db8ba133de23f8bfe24ba2e.html#afb6f86119db8ba133de23f8bfe24ba2e" target="_top" xlink:title="Computes a copy of the first solution X of Goal G. ">
<polygon fill="none" stroke="black" points="1248,-177 1248,-196 1397,-196 1397,-177 1248,-177"/>
<text text-anchor="middle" x="1322.5" y="-184" font-family="Helvetica,sans-Serif" font-size="10.00">prolog.terms.Prog.firstSolution</text>
</a>
</g>
</g>
<!-- Node5&#45;&gt;Node10 -->
<g id="edge9" class="edge"><title>Node5&#45;&gt;Node10</title>
<path fill="none" stroke="midnightblue" d="M1222.61,-166.123C1240.27,-169.761 1258.97,-173.615 1275.3,-176.98"/>
<polygon fill="midnightblue" stroke="midnightblue" points="1222.86,-162.601 1212.36,-164.011 1221.45,-169.457 1222.86,-162.601"/>
</g>
<!-- Node7 -->
<g id="node7" class="node"><title>Node7</title>
<g id="a_node7"><a xlink:href="../../d8/d35/classprolog_1_1Init_a2471811f50fbed4de5df26ee530f1e2e.html#a2471811f50fbed4de5df26ee530f1e2e" target="_top" xlink:title="evaluates and times a Goal querying program P ">
<polygon fill="none" stroke="black" points="1651.5,-133 1651.5,-152 1752.5,-152 1752.5,-133 1651.5,-133"/>
<text text-anchor="middle" x="1702" y="-140" font-family="Helvetica,sans-Serif" font-size="10.00">prolog.Init.timeGoal</text>
</a>
</g>
</g>
<!-- Node6&#45;&gt;Node7 -->
<g id="edge6" class="edge"><title>Node6&#45;&gt;Node7</title>
<path fill="none" stroke="midnightblue" d="M1573.41,-142.5C1598.54,-142.5 1627.42,-142.5 1651.34,-142.5"/>
<polygon fill="midnightblue" stroke="midnightblue" points="1573.25,-139 1563.25,-142.5 1573.25,-146 1573.25,-139"/>
</g>
<!-- Node8 -->
<g id="node8" class="node"><title>Node8</title>
<g id="a_node8"><a xlink:href="../../d8/d35/classprolog_1_1Init_a0348efff7140aed75f8364f90b7c2b8b.html#a0348efff7140aed75f8364f90b7c2b8b" target="_top" xlink:title="prolog.Init.run_query">
<polygon fill="none" stroke="black" points="1837,-133 1837,-152 1942,-152 1942,-133 1837,-133"/>
<text text-anchor="middle" x="1889.5" y="-140" font-family="Helvetica,sans-Serif" font-size="10.00">prolog.Init.run_query</text>
</a>
</g>
</g>
<!-- Node7&#45;&gt;Node8 -->
<g id="edge7" class="edge"><title>Node7&#45;&gt;Node8</title>
<path fill="none" stroke="midnightblue" d="M1763.02,-142.5C1786.78,-142.5 1813.82,-142.5 1836.71,-142.5"/>
<polygon fill="midnightblue" stroke="midnightblue" points="1762.71,-139 1752.71,-142.5 1762.71,-146 1762.71,-139"/>
</g>
<!-- Node9 -->
<g id="node9" class="node"><title>Node9</title>
<g id="a_node9"><a xlink:href="../../d8/d35/classprolog_1_1Init_a3e8704cf8b2d909fccc79e967dd48171.html#a3e8704cf8b2d909fccc79e967dd48171" target="_top" xlink:title="prolog.Init.standardTop">
<polygon fill="none" stroke="black" points="1831.5,-95 1831.5,-114 1947.5,-114 1947.5,-95 1831.5,-95"/>
<text text-anchor="middle" x="1889.5" y="-102" font-family="Helvetica,sans-Serif" font-size="10.00">prolog.Init.standardTop</text>
</a>
</g>
</g>
<!-- Node7&#45;&gt;Node9 -->
<g id="edge8" class="edge"><title>Node7&#45;&gt;Node9</title>
<path fill="none" stroke="midnightblue" d="M1759.67,-130.89C1786.06,-125.486 1817.05,-119.136 1842.03,-114.02"/>
<polygon fill="midnightblue" stroke="midnightblue" points="1758.9,-127.475 1749.81,-132.911 1760.31,-134.333 1758.9,-127.475"/>
</g>
<!-- Node10&#45;&gt;Node6 -->
<g id="edge13" class="edge"><title>Node10&#45;&gt;Node6</title>
<path fill="none" stroke="midnightblue" d="M1374.24,-174.624C1404.53,-167.536 1442.47,-158.655 1470.79,-152.029"/>
<polygon fill="midnightblue" stroke="midnightblue" points="1373.23,-171.266 1364.29,-176.953 1374.83,-178.082 1373.23,-171.266"/>
</g>
<!-- Node11 -->
<g id="node11" class="node"><title>Node11</title>
<g id="a_node11"><a xlink:href="../../da/dd9/classprolog_1_1fluents_1_1DataBase_a6f8041bc2bcb5cdd8a376e81a3dc4dca.html#a6f8041bc2bcb5cdd8a376e81a3dc4dca" target="_top" xlink:title="adds a Clause to the joint Linda and Predicate table ">
<polygon fill="none" stroke="black" points="1433,-171.5 1433,-201.5 1592,-201.5 1592,-171.5 1433,-171.5"/>
<text text-anchor="start" x="1441" y="-189.5" font-family="Helvetica,sans-Serif" font-size="10.00">prolog.fluents.DataBase.process</text>
<text text-anchor="middle" x="1512.5" y="-178.5" font-family="Helvetica,sans-Serif" font-size="10.00">Clause</text>
</a>
</g>
</g>
<!-- Node10&#45;&gt;Node11 -->
<g id="edge10" class="edge"><title>Node10&#45;&gt;Node11</title>
<path fill="none" stroke="midnightblue" d="M1407.52,-186.5C1416,-186.5 1424.58,-186.5 1432.99,-186.5"/>
<polygon fill="midnightblue" stroke="midnightblue" points="1407.26,-183 1397.26,-186.5 1407.26,-190 1407.26,-183"/>
</g>
<!-- Node14 -->
<g id="node14" class="node"><title>Node14</title>
<g id="a_node14"><a xlink:href="../../d8/d35/classprolog_1_1Init_a4a7b9ae1dc4d489e657326f3ed5a4b7e.html#a4a7b9ae1dc4d489e657326f3ed5a4b7e" target="_top" xlink:title="Asks Prolog a query Answer, Goal and returns the first solution of the form &quot;the(Answer)&quot; or the cons...">
<polygon fill="none" stroke="black" points="1459.5,-240 1459.5,-259 1565.5,-259 1565.5,-240 1459.5,-240"/>
<text text-anchor="middle" x="1512.5" y="-247" font-family="Helvetica,sans-Serif" font-size="10.00">prolog.Init.askProlog</text>
</a>
</g>
</g>
<!-- Node10&#45;&gt;Node14 -->
<g id="edge14" class="edge"><title>Node10&#45;&gt;Node14</title>
<path fill="none" stroke="midnightblue" d="M1361.7,-199.302C1397.63,-211.343 1450.61,-229.096 1482.99,-239.945"/>
<polygon fill="midnightblue" stroke="midnightblue" points="1362.65,-195.927 1352.05,-196.068 1360.42,-202.564 1362.65,-195.927"/>
</g>
<!-- Node12 -->
<g id="node12" class="node"><title>Node12</title>
<g id="a_node12"><a xlink:href="../../da/dd9/classprolog_1_1fluents_1_1DataBase_a83885e10b61d6bf129307d9bf50d93de.html#a83885e10b61d6bf129307d9bf50d93de" target="_top" xlink:title="prolog.fluents.DataBase.apply\l_parser">
<polygon fill="none" stroke="black" points="1628,-171.5 1628,-201.5 1776,-201.5 1776,-171.5 1628,-171.5"/>
<text text-anchor="start" x="1636" y="-189.5" font-family="Helvetica,sans-Serif" font-size="10.00">prolog.fluents.DataBase.apply</text>
<text text-anchor="middle" x="1702" y="-178.5" font-family="Helvetica,sans-Serif" font-size="10.00">_parser</text>
</a>
</g>
</g>
<!-- Node11&#45;&gt;Node12 -->
<g id="edge11" class="edge"><title>Node11&#45;&gt;Node12</title>
<path fill="none" stroke="midnightblue" d="M1602.24,-186.5C1610.83,-186.5 1619.47,-186.5 1627.88,-186.5"/>
<polygon fill="midnightblue" stroke="midnightblue" points="1602.2,-183 1592.2,-186.5 1602.2,-190 1602.2,-183"/>
</g>
<!-- Node13 -->
<g id="node13" class="node"><title>Node13</title>
<g id="a_node13"><a xlink:href="../../da/dd9/classprolog_1_1fluents_1_1DataBase_af8b26948ded7bba6386b984f463bf166.html#af8b26948ded7bba6386b984f463bf166" target="_top" xlink:title="prolog.fluents.DataBase.stream\lToProg">
<polygon fill="none" stroke="black" points="1812,-171.5 1812,-201.5 1967,-201.5 1967,-171.5 1812,-171.5"/>
<text text-anchor="start" x="1820" y="-189.5" font-family="Helvetica,sans-Serif" font-size="10.00">prolog.fluents.DataBase.stream</text>
<text text-anchor="middle" x="1889.5" y="-178.5" font-family="Helvetica,sans-Serif" font-size="10.00">ToProg</text>
</a>
</g>
</g>
<!-- Node12&#45;&gt;Node13 -->
<g id="edge12" class="edge"><title>Node12&#45;&gt;Node13</title>
<path fill="none" stroke="midnightblue" d="M1786.06,-186.5C1794.65,-186.5 1803.34,-186.5 1811.86,-186.5"/>
<polygon fill="midnightblue" stroke="midnightblue" points="1786.05,-183 1776.05,-186.5 1786.05,-190 1786.05,-183"/>
</g>
<!-- Node15 -->
<g id="node15" class="node"><title>Node15</title>
<g id="a_node15"><a xlink:href="../../d8/d35/classprolog_1_1Init_ae5fe9e2dc533d32690edbbec3b1c279b.html#ae5fe9e2dc533d32690edbbec3b1c279b" target="_top" xlink:title="Asks Prolog a query Goal and returns the first solution of the form &quot;the(Answer)&quot; ...">
<polygon fill="none" stroke="black" points="1649,-221 1649,-240 1755,-240 1755,-221 1649,-221"/>
<text text-anchor="middle" x="1702" y="-228" font-family="Helvetica,sans-Serif" font-size="10.00">prolog.Init.askProlog</text>
</a>
</g>
</g>
<!-- Node14&#45;&gt;Node15 -->
<g id="edge15" class="edge"><title>Node14&#45;&gt;Node15</title>
<path fill="none" stroke="midnightblue" d="M1575.99,-243.168C1599.58,-240.777 1626.16,-238.084 1648.73,-235.797"/>
<polygon fill="midnightblue" stroke="midnightblue" points="1575.33,-239.717 1565.73,-244.207 1576.03,-246.681 1575.33,-239.717"/>
</g>
<!-- Node16 -->
<g id="node16" class="node"><title>Node16</title>
<g id="a_node16"><a xlink:href="../../da/dde/classprolog_1_1Main_aca445add96cb95be654213f0e42d5b76.html#aca445add96cb95be654213f0e42d5b76" target="_top" xlink:title="prolog.Main.init">
<polygon fill="none" stroke="black" points="1660.5,-297 1660.5,-316 1743.5,-316 1743.5,-297 1660.5,-297"/>
<text text-anchor="middle" x="1702" y="-304" font-family="Helvetica,sans-Serif" font-size="10.00">prolog.Main.init</text>
</a>
</g>
</g>
<!-- Node14&#45;&gt;Node16 -->
<g id="edge16" class="edge"><title>Node14&#45;&gt;Node16</title>
<path fill="none" stroke="midnightblue" d="M1550.39,-262.429C1572.74,-270.088 1601.87,-279.774 1628,-287.5 1639.05,-290.768 1651.13,-294.035 1662.23,-296.914"/>
<polygon fill="midnightblue" stroke="midnightblue" points="1551.23,-259.018 1540.64,-259.067 1548.95,-265.635 1551.23,-259.018"/>
</g>
<!-- Node18 -->
<g id="node18" class="node"><title>Node18</title>
<g id="a_node18"><a xlink:href="../../d8/d35/classprolog_1_1Init_a7293b6db1f53eca4730418c54ab07109.html#a7293b6db1f53eca4730418c54ab07109" target="_top" xlink:title="prolog.Init.run">
<polygon fill="none" stroke="black" points="1664,-259 1664,-278 1740,-278 1740,-259 1664,-259"/>
<text text-anchor="middle" x="1702" y="-266" font-family="Helvetica,sans-Serif" font-size="10.00">prolog.Init.run</text>
</a>
</g>
</g>
<!-- Node14&#45;&gt;Node18 -->
<g id="edge18" class="edge"><title>Node14&#45;&gt;Node18</title>
<path fill="none" stroke="midnightblue" d="M1575.84,-255.817C1605.02,-258.774 1638.8,-262.197 1663.9,-264.741"/>
<polygon fill="midnightblue" stroke="midnightblue" points="1576.03,-252.319 1565.73,-254.793 1575.33,-259.283 1576.03,-252.319"/>
</g>
<!-- Node17 -->
<g id="node17" class="node"><title>Node17</title>
<g id="a_node17"><a xlink:href="../../da/dde/classprolog_1_1Main_ab0b3345fa72bd3b96c565437b962efa3.html#ab0b3345fa72bd3b96c565437b962efa3" target="_top" xlink:title="prolog.Main.main">
<polygon fill="none" stroke="black" points="1844,-278 1844,-297 1935,-297 1935,-278 1844,-278"/>
<text text-anchor="middle" x="1889.5" y="-285" font-family="Helvetica,sans-Serif" font-size="10.00">prolog.Main.main</text>
</a>
</g>
</g>
<!-- Node16&#45;&gt;Node17 -->
<g id="edge17" class="edge"><title>Node16&#45;&gt;Node17</title>
<path fill="none" stroke="midnightblue" d="M1753.79,-301.298C1782.02,-298.406 1816.83,-294.841 1843.99,-292.059"/>
<polygon fill="midnightblue" stroke="midnightblue" points="1753.3,-297.83 1743.71,-302.33 1754.01,-304.793 1753.3,-297.83"/>
</g>
<!-- Node18&#45;&gt;Node17 -->
<g id="edge19" class="edge"><title>Node18&#45;&gt;Node17</title>
<path fill="none" stroke="midnightblue" d="M1750.32,-273.347C1779.12,-276.296 1815.67,-280.041 1843.95,-282.937"/>
<polygon fill="midnightblue" stroke="midnightblue" points="1750.4,-269.836 1740.09,-272.299 1749.68,-276.8 1750.4,-269.836"/>
</g>
<!-- Node21 -->
<g id="node21" class="node"><title>Node21</title>
<g id="a_node21"><a xlink:href="../../d4/d26/classprolog_1_1terms_1_1Prog_afb9691e6cce6f75afc1c67ac0b28d107.html#afb9691e6cce6f75afc1c67ac0b28d107" target="_top" xlink:title="creates a new logic engine ">
<polygon fill="none" stroke="black" points="932.5,-237.5 932.5,-267.5 1047.5,-267.5 1047.5,-237.5 932.5,-237.5"/>
<text text-anchor="start" x="940.5" y="-255.5" font-family="Helvetica,sans-Serif" font-size="10.00">prolog.terms.Prog.new</text>
<text text-anchor="middle" x="990" y="-244.5" font-family="Helvetica,sans-Serif" font-size="10.00">_engine</text>
</a>
</g>
</g>
<!-- Node20&#45;&gt;Node21 -->
<g id="edge22" class="edge"><title>Node20&#45;&gt;Node21</title>
<path fill="none" stroke="midnightblue" d="M886.612,-254.902C901.828,-254.545 917.805,-254.17 932.492,-253.826"/>
<polygon fill="midnightblue" stroke="midnightblue" points="886.139,-251.412 876.224,-255.146 886.303,-258.41 886.139,-251.412"/>
</g>
<!-- Node21&#45;&gt;Node10 -->
<g id="edge23" class="edge"><title>Node21&#45;&gt;Node10</title>
<path fill="none" stroke="midnightblue" d="M1057.6,-243.002C1101.62,-236.319 1160.49,-226.607 1212,-215.5 1237.95,-209.904 1266.98,-202.145 1288.63,-196.061"/>
<polygon fill="midnightblue" stroke="midnightblue" points="1056.96,-239.559 1047.59,-244.508 1058,-246.481 1056.96,-239.559"/>
</g>
<!-- Node23 -->
<g id="node23" class="node"><title>Node23</title>
<g id="a_node23"><a xlink:href="../../d6/dc4/classprolog_1_1terms_1_1Clause_a0d8b6d3c8de70326ab416be12688896b.html#a0d8b6d3c8de70326ab416be12688896b" target="_top" xlink:title="prolog.terms.Clause.unfold\l_with_goal">
<polygon fill="none" stroke="black" points="583.5,-152.5 583.5,-182.5 717.5,-182.5 717.5,-152.5 583.5,-152.5"/>
<text text-anchor="start" x="591.5" y="-170.5" font-family="Helvetica,sans-Serif" font-size="10.00">prolog.terms.Clause.unfold</text>
<text text-anchor="middle" x="650.5" y="-159.5" font-family="Helvetica,sans-Serif" font-size="10.00">_with_goal</text>
</a>
</g>
</g>
<!-- Node22&#45;&gt;Node23 -->
<g id="edge25" class="edge"><title>Node22&#45;&gt;Node23</title>
<path fill="none" stroke="midnightblue" d="M537.835,-173.44C552.911,-172.638 568.617,-171.802 583.324,-171.02"/>
<polygon fill="midnightblue" stroke="midnightblue" points="537.317,-169.962 527.517,-173.988 537.689,-176.952 537.317,-169.962"/>
</g>
<!-- Node24 -->
<g id="node24" class="node"><title>Node24</title>
<g id="a_node24"><a xlink:href="../../df/d94/classprolog_1_1terms_1_1Unfolder_a261a28665ab541b974afb636c3fec84b.html#a261a28665ab541b974afb636c3fec84b" target="_top" xlink:title="Returns a new clause by unfolding the goal with a matching clause in the database, or null if no such clause exists. ">
<polygon fill="none" stroke="black" points="754,-148.5 754,-178.5 881,-178.5 881,-148.5 754,-148.5"/>
<text text-anchor="start" x="762" y="-166.5" font-family="Helvetica,sans-Serif" font-size="10.00">prolog.terms.Unfolder.get</text>
<text text-anchor="middle" x="817.5" y="-155.5" font-family="Helvetica,sans-Serif" font-size="10.00">Element</text>
</a>
</g>
</g>
<!-- Node23&#45;&gt;Node24 -->
<g id="edge26" class="edge"><title>Node23&#45;&gt;Node24</title>
<path fill="none" stroke="midnightblue" d="M727.811,-165.65C736.514,-165.439 745.309,-165.226 753.806,-165.02"/>
<polygon fill="midnightblue" stroke="midnightblue" points="727.573,-162.155 717.661,-165.896 727.743,-169.153 727.573,-162.155"/>
</g>
<!-- Node24&#45;&gt;Node4 -->
<g id="edge27" class="edge"><title>Node24&#45;&gt;Node4</title>
<path fill="none" stroke="midnightblue" d="M891.008,-169.028C899.603,-169.684 908.376,-170.353 916.965,-171.008"/>
<polygon fill="midnightblue" stroke="midnightblue" points="891.257,-165.537 881.02,-168.267 890.725,-172.517 891.257,-165.537"/>
</g>
<!-- Node25&#45;&gt;Node6 -->
<g id="edge29" class="edge"><title>Node25&#45;&gt;Node6</title>
<path fill="none" stroke="midnightblue" d="M348.657,-104.673C428.2,-103.244 546.453,-101.5 649.5,-101.5 649.5,-101.5 649.5,-101.5 1156.5,-101.5 1266,-101.5 1393.26,-120.989 1461.74,-133.094"/>
<polygon fill="midnightblue" stroke="midnightblue" points="348.117,-101.182 338.182,-104.863 348.244,-108.181 348.117,-101.182"/>
</g>
<!-- Node26 -->
<g id="node26" class="node"><title>Node26</title>
<g id="a_node26"><a xlink:href="../../d4/d09/classprolog_1_1io_1_1ClauseReader_ac713387538e0471c0795c8a664f398d1.html#ac713387538e0471c0795c8a664f398d1" target="_top" xlink:title="prolog.io.ClauseReader.extract_info">
<polygon fill="none" stroke="black" points="374,-53 374,-72 547,-72 547,-53 374,-53"/>
<text text-anchor="middle" x="460.5" y="-60" font-family="Helvetica,sans-Serif" font-size="10.00">prolog.io.ClauseReader.extract_info</text>
</a>
</g>
</g>
<!-- Node25&#45;&gt;Node26 -->
<g id="edge30" class="edge"><title>Node25&#45;&gt;Node26</title>
<path fill="none" stroke="midnightblue" d="M310.81,-94.808C343.567,-87.6904 384.884,-78.7128 415.646,-72.0287"/>
<polygon fill="midnightblue" stroke="midnightblue" points="309.968,-91.4091 300.939,-96.9527 311.455,-98.2495 309.968,-91.4091"/>
</g>
<!-- Node28 -->
<g id="node28" class="node"><title>Node28</title>
<g id="a_node28"><a xlink:href="../../d6/dc4/classprolog_1_1terms_1_1Clause_ac13bc534da7f02536d4741318443dd27.html#ac13bc534da7f02536d4741318443dd27" target="_top" xlink:title="Pretty prints a clause after replacing ugly variable names. ">
<polygon fill="none" stroke="black" points="395,-130 395,-149 526,-149 526,-130 395,-130"/>
<text text-anchor="middle" x="460.5" y="-137" font-family="Helvetica,sans-Serif" font-size="10.00">prolog.terms.Clause.pprint</text>
</a>
</g>
</g>
<!-- Node25&#45;&gt;Node28 -->
<g id="edge32" class="edge"><title>Node25&#45;&gt;Node28</title>
<path fill="none" stroke="midnightblue" d="M325.263,-117.624C349.809,-121.625 377.26,-126.098 400.911,-129.952"/>
<polygon fill="midnightblue" stroke="midnightblue" points="325.732,-114.155 315.3,-116.001 324.607,-121.064 325.732,-114.155"/>
</g>
<!-- Node27 -->
<g id="node27" class="node"><title>Node27</title>
<g id="a_node27"><a xlink:href="../../d4/d09/classprolog_1_1io_1_1ClauseReader_a805e9a5ebc401e1099f39af9b3f6fb47.html#a805e9a5ebc401e1099f39af9b3f6fb47" target="_top" xlink:title="prolog.io.ClauseReader.get\lElement">
<polygon fill="none" stroke="black" points="583,-42.5 583,-72.5 718,-72.5 718,-42.5 583,-42.5"/>
<text text-anchor="start" x="591" y="-60.5" font-family="Helvetica,sans-Serif" font-size="10.00">prolog.io.ClauseReader.get</text>
<text text-anchor="middle" x="650.5" y="-49.5" font-family="Helvetica,sans-Serif" font-size="10.00">Element</text>
</a>
</g>
</g>
<!-- Node26&#45;&gt;Node27 -->
<g id="edge31" class="edge"><title>Node26&#45;&gt;Node27</title>
<path fill="none" stroke="midnightblue" d="M557.323,-59.9515C565.913,-59.7231 574.482,-59.4952 582.744,-59.2754"/>
<polygon fill="midnightblue" stroke="midnightblue" points="557.151,-56.4548 547.248,-60.2195 557.337,-63.4523 557.151,-56.4548"/>
</g>
<!-- Node30 -->
<g id="node30" class="node"><title>Node30</title>
<g id="a_node30"><a xlink:href="../../d6/dc4/classprolog_1_1terms_1_1Clause_aff298dbb79a27341afb0860f82ad1464.html#aff298dbb79a27341afb0860f82ad1464" target="_top" xlink:title="prolog.terms.Clause.goal\lFromString">
<polygon fill="none" stroke="black" points="398,-0.5 398,-30.5 523,-30.5 523,-0.5 398,-0.5"/>
<text text-anchor="start" x="406" y="-18.5" font-family="Helvetica,sans-Serif" font-size="10.00">prolog.terms.Clause.goal</text>
<text text-anchor="middle" x="460.5" y="-7.5" font-family="Helvetica,sans-Serif" font-size="10.00">FromString</text>
</a>
</g>
</g>
<!-- Node29&#45;&gt;Node30 -->
<g id="edge34" class="edge"><title>Node29&#45;&gt;Node30</title>
<path fill="none" stroke="midnightblue" d="M333.521,-33.5414C354.71,-30.507 377.437,-27.2523 397.674,-24.3541"/>
<polygon fill="midnightblue" stroke="midnightblue" points="332.989,-30.0818 323.587,-34.9641 333.982,-37.0111 332.989,-30.0818"/>
</g>
<!-- Node31 -->
<g id="node31" class="node"><title>Node31</title>
<g id="a_node31"><a xlink:href="../../d8/d35/classprolog_1_1Init_a0f6db95b70444cd1b933f24ec44814e4.html#a0f6db95b70444cd1b933f24ec44814e4" target="_top" xlink:title="prolog.Init.getGoal">
<polygon fill="none" stroke="black" points="602.5,-4 602.5,-23 698.5,-23 698.5,-4 602.5,-4"/>
<text text-anchor="middle" x="650.5" y="-11" font-family="Helvetica,sans-Serif" font-size="10.00">prolog.Init.getGoal</text>
</a>
</g>
</g>
<!-- Node30&#45;&gt;Node31 -->
<g id="edge35" class="edge"><title>Node30&#45;&gt;Node31</title>
<path fill="none" stroke="midnightblue" d="M533.204,-14.7372C556.387,-14.4906 581.49,-14.2235 602.42,-14.0009"/>
<polygon fill="midnightblue" stroke="midnightblue" points="533.02,-11.2388 523.058,-14.8451 533.095,-18.2385 533.02,-11.2388"/>
</g>
</g>
</svg>
        <g id="navigator" transform="translate(0 0)" fill="#404254">
                <rect fill="#f2f5e9" fill-opacity="0.5" stroke="#606060" stroke-width=".5" x="0" y="0" width="60" height="60"/>
                <use id="zoomplus" xlink:href="#zoomPlus" x="17" y="9" onmousedown="handleZoom(evt,'in')"/>
                <use id="zoomminus" xlink:href="#zoomMin" x="42" y="9" onmousedown="handleZoom(evt,'out')"/>
                <use id="reset" xlink:href="#resetDef" x="30" y="36" onmousedown="handleReset()"/>
                <g id="arrowUp" xlink:href="#dirArrow" transform="translate(30 24)" onmousedown="handlePan(0,-1)">
                  <use xlink:href="#rim" fill="#404040">
                        <set attributeName="fill" to="#808080" begin="arrowUp.mouseover" end="arrowUp.mouseout"/>
                  </use>
                  <path fill="none" stroke="white" stroke-width="1.5" d="M0,-3.0v7 M-2.5,-0.5L0,-3.0L2.5,-0.5"/>
                </g>
                <g id="arrowRight" xlink:href="#dirArrow" transform="rotate(90) translate(36 -43)" onmousedown="handlePan(1,0)">
                  <use xlink:href="#rim" fill="#404040">
                        <set attributeName="fill" to="#808080" begin="arrowRight.mouseover" end="arrowRight.mouseout"/>
                  </use>
                  <path fill="none" stroke="white" stroke-width="1.5" d="M0,-3.0v7 M-2.5,-0.5L0,-3.0L2.5,-0.5"/>
                </g>
                <g id="arrowDown" xlink:href="#dirArrow" transform="rotate(180) translate(-30 -48)" onmousedown="handlePan(0,1)">
                  <use xlink:href="#rim" fill="#404040">
                        <set attributeName="fill" to="#808080" begin="arrowDown.mouseover" end="arrowDown.mouseout"/>
                  </use>
                  <path fill="none" stroke="white" stroke-width="1.5" d="M0,-3.0v7 M-2.5,-0.5L0,-3.0L2.5,-0.5"/>
                </g>
                <g id="arrowLeft" xlink:href="#dirArrow" transform="rotate(270) translate(-36 17)" onmousedown="handlePan(-1,0)">
                  <use xlink:href="#rim" fill="#404040">
                        <set attributeName="fill" to="#808080" begin="arrowLeft.mouseover" end="arrowLeft.mouseout"/>
                  </use>
                  <path fill="none" stroke="white" stroke-width="1.5" d="M0,-3.0v7 M-2.5,-0.5L0,-3.0L2.5,-0.5"/>
                </g>
        </g>
        <svg viewBox="0 0 15 15" width="100%" height="30px" preserveAspectRatio="xMaxYMin meet">
         <g id="arrow_out" transform="scale(0.3 0.3)">
          <a xlink:href="classprolog_1_1terms_1_1Clause_a414492a8d9d648788aadfd423ee32fb0_a414492a8d9d648788aadfd423ee32fb0_icgraph_org.svg" target="_base">
           <rect id="button" ry="5" rx="5" y="6" x="6" height="38" width="38"
                fill="#f2f5e9" fill-opacity="0.5" stroke="#606060" stroke-width="1.0"/>
           <path id="arrow"
             d="M 11.500037,31.436501 C 11.940474,20.09759 22.043105,11.32322 32.158766,21.979434 L 37.068811,17.246167 C 37.068811,17.246167 37.088388,32 37.088388,32 L 22.160133,31.978069 C 22.160133,31.978069 26.997745,27.140456 26.997745,27.140456 C 18.528582,18.264221 13.291696,25.230495 11.500037,31.436501 z"
             style="fill:#404040;"/>
          </a>
         </g>
        </svg>
</svg>
