<?xml version="1.0" encoding="UTF-8" standalone="no"?>
<!DOCTYPE svg PUBLIC "-//W3C//DTD SVG 1.1//EN"
 "http://www.w3.org/Graphics/SVG/1.1/DTD/svg11.dtd">
<!-- Generated by graphviz version 2.38.0 (20140413.2041)
 -->
<!-- Title: prolog.terms.SystemObject Pages: 1 -->
<svg width="1362pt" height="1439pt"
 viewBox="0.00 0.00 1361.50 1439.00" xmlns="http://www.w3.org/2000/svg" xmlns:xlink="http://www.w3.org/1999/xlink">
<g id="graph0" class="graph" transform="scale(1 1) rotate(0) translate(4 1435)">
<title>prolog.terms.SystemObject</title>
<!-- Node1 -->
<g id="node1" class="node"><title>Node1</title>
<polygon fill="#bfbfbf" stroke="black" points="437.5,-706.5 437.5,-818.5 573.5,-818.5 573.5,-706.5 437.5,-706.5"/>
<text text-anchor="middle" x="505.5" y="-806.5" font-family="Helvetica,sans-Serif" font-size="10.00">prolog.terms.SystemObject</text>
<polyline fill="none" stroke="black" points="437.5,-799.5 573.5,-799.5 "/>
<text text-anchor="start" x="445.5" y="-787.5" font-family="Helvetica,sans-Serif" font-size="10.00">~ ctr</text>
<text text-anchor="start" x="445.5" y="-776.5" font-family="Helvetica,sans-Serif" font-size="10.00">&#45; ordinal</text>
<polyline fill="none" stroke="black" points="437.5,-769.5 573.5,-769.5 "/>
<text text-anchor="start" x="445.5" y="-757.5" font-family="Helvetica,sans-Serif" font-size="10.00">+ SystemObject()</text>
<text text-anchor="start" x="445.5" y="-746.5" font-family="Helvetica,sans-Serif" font-size="10.00">+ name()</text>
<text text-anchor="start" x="445.5" y="-735.5" font-family="Helvetica,sans-Serif" font-size="10.00">+ toString()</text>
<text text-anchor="start" x="445.5" y="-724.5" font-family="Helvetica,sans-Serif" font-size="10.00">+ getArity()</text>
<text text-anchor="start" x="445.5" y="-713.5" font-family="Helvetica,sans-Serif" font-size="10.00">~ bind_to()</text>
</g>
<!-- Node6 -->
<g id="node6" class="node"><title>Node6</title>
<g id="a_node6"><a xlink:href="../../d3/d77/classprolog_1_1fluents_1_1JavaObject.html" target="_top" xlink:title="{prolog.fluents.JavaObject\n|~ val\l|+ JavaObject()\l+ toObject()\l}">
<polygon fill="none" stroke="black" points="230.5,-568.5 230.5,-636.5 358.5,-636.5 358.5,-568.5 230.5,-568.5"/>
<text text-anchor="middle" x="294.5" y="-624.5" font-family="Helvetica,sans-Serif" font-size="10.00">prolog.fluents.JavaObject</text>
<polyline fill="none" stroke="black" points="230.5,-617.5 358.5,-617.5 "/>
<text text-anchor="start" x="238.5" y="-605.5" font-family="Helvetica,sans-Serif" font-size="10.00">~ val</text>
<polyline fill="none" stroke="black" points="230.5,-598.5 358.5,-598.5 "/>
<text text-anchor="start" x="238.5" y="-586.5" font-family="Helvetica,sans-Serif" font-size="10.00">+ JavaObject()</text>
<text text-anchor="start" x="238.5" y="-575.5" font-family="Helvetica,sans-Serif" font-size="10.00">+ toObject()</text>
</a>
</g>
</g>
<!-- Node1&#45;&gt;Node6 -->
<g id="edge5" class="edge"><title>Node1&#45;&gt;Node6</title>
<path fill="none" stroke="midnightblue" d="M429.015,-713.793C408.588,-700.247 386.828,-685.068 367.5,-670 354.385,-659.776 340.728,-647.752 328.823,-636.761"/>
<polygon fill="none" stroke="midnightblue" points="427.096,-716.72 437.373,-719.295 430.945,-710.873 427.096,-716.72"/>
</g>
<!-- Node7 -->
<g id="node7" class="node"><title>Node7</title>
<g id="a_node7"><a xlink:href="../../d9/dc4/classprolog_1_1terms_1_1Copier.html" target="_top" xlink:title="depends ">
<polygon fill="none" stroke="black" points="376.5,-535.5 376.5,-669.5 502.5,-669.5 502.5,-535.5 376.5,-535.5"/>
<text text-anchor="middle" x="439.5" y="-657.5" font-family="Helvetica,sans-Serif" font-size="10.00">prolog.terms.Copier</text>
<polyline fill="none" stroke="black" points="376.5,-650.5 502.5,-650.5 "/>
<text text-anchor="start" x="384.5" y="-638.5" font-family="Helvetica,sans-Serif" font-size="10.00">~ anAnswer</text>
<text text-anchor="start" x="384.5" y="-627.5" font-family="Helvetica,sans-Serif" font-size="10.00">&#45; dict</text>
<polyline fill="none" stroke="black" points="376.5,-620.5 502.5,-620.5 "/>
<text text-anchor="start" x="384.5" y="-608.5" font-family="Helvetica,sans-Serif" font-size="10.00">+ ConsToVector()</text>
<text text-anchor="start" x="384.5" y="-597.5" font-family="Helvetica,sans-Serif" font-size="10.00">~ Copier()</text>
<text text-anchor="start" x="384.5" y="-586.5" font-family="Helvetica,sans-Serif" font-size="10.00">~ action()</text>
<text text-anchor="start" x="384.5" y="-575.5" font-family="Helvetica,sans-Serif" font-size="10.00">~ getMyVars()</text>
<text text-anchor="start" x="384.5" y="-564.5" font-family="Helvetica,sans-Serif" font-size="10.00">~ EnumerationToVector()</text>
<text text-anchor="start" x="384.5" y="-553.5" font-family="Helvetica,sans-Serif" font-size="10.00">~ toFun()</text>
<text text-anchor="start" x="384.5" y="-542.5" font-family="Helvetica,sans-Serif" font-size="10.00">~ VectorToFun()</text>
</a>
</g>
</g>
<!-- Node1&#45;&gt;Node7 -->
<g id="edge6" class="edge"><title>Node1&#45;&gt;Node7</title>
<path fill="none" stroke="midnightblue" d="M478.536,-696.95C474.766,-687.925 470.888,-678.64 467.106,-669.587"/>
<polygon fill="none" stroke="midnightblue" points="475.332,-698.361 482.416,-706.239 481.791,-695.663 475.332,-698.361"/>
</g>
<!-- Node8 -->
<g id="node8" class="node"><title>Node8</title>
<g id="a_node8"><a xlink:href="../../d9/d3b/classprolog_1_1terms_1_1Fluent.html" target="_top" xlink:title="A Fluent is a Prolog Object which has its own state, subject to changes over time. ">
<polygon fill="none" stroke="black" points="521,-546.5 521,-658.5 622,-658.5 622,-546.5 521,-546.5"/>
<text text-anchor="middle" x="571.5" y="-646.5" font-family="Helvetica,sans-Serif" font-size="10.00">prolog.terms.Fluent</text>
<polyline fill="none" stroke="black" points="521,-639.5 622,-639.5 "/>
<text text-anchor="start" x="529" y="-627.5" font-family="Helvetica,sans-Serif" font-size="10.00">&#45; persistent</text>
<polyline fill="none" stroke="black" points="521,-620.5 622,-620.5 "/>
<text text-anchor="start" x="529" y="-608.5" font-family="Helvetica,sans-Serif" font-size="10.00">+ Fluent()</text>
<text text-anchor="start" x="529" y="-597.5" font-family="Helvetica,sans-Serif" font-size="10.00">+ setPersistent()</text>
<text text-anchor="start" x="529" y="-586.5" font-family="Helvetica,sans-Serif" font-size="10.00">+ getPersistent()</text>
<text text-anchor="start" x="529" y="-575.5" font-family="Helvetica,sans-Serif" font-size="10.00">+ stop()</text>
<text text-anchor="start" x="529" y="-564.5" font-family="Helvetica,sans-Serif" font-size="10.00"># trailMe()</text>
<text text-anchor="start" x="529" y="-553.5" font-family="Helvetica,sans-Serif" font-size="10.00"># undo()</text>
</a>
</g>
</g>
<!-- Node1&#45;&gt;Node8 -->
<g id="edge7" class="edge"><title>Node1&#45;&gt;Node8</title>
<path fill="none" stroke="midnightblue" d="M532.562,-696.716C537.829,-684.106 543.305,-670.996 548.429,-658.73"/>
<polygon fill="none" stroke="midnightblue" points="529.209,-695.663 528.584,-706.239 535.668,-698.361 529.209,-695.663"/>
</g>
<!-- Node25 -->
<g id="node25" class="node"><title>Node25</title>
<g id="a_node25"><a xlink:href="../../d6/de6/classprolog_1_1terms_1_1VarNumberer.html" target="_top" xlink:title="Used in implementing uniform replacement of variables with new constants. ">
<polygon fill="none" stroke="black" points="640,-563 640,-642 771,-642 771,-563 640,-563"/>
<text text-anchor="middle" x="705.5" y="-630" font-family="Helvetica,sans-Serif" font-size="10.00">prolog.terms.VarNumberer</text>
<polyline fill="none" stroke="black" points="640,-623 771,-623 "/>
<text text-anchor="start" x="648" y="-611" font-family="Helvetica,sans-Serif" font-size="10.00">~ dict</text>
<text text-anchor="start" x="648" y="-600" font-family="Helvetica,sans-Serif" font-size="10.00">~ ctr</text>
<polyline fill="none" stroke="black" points="640,-593 771,-593 "/>
<text text-anchor="start" x="648" y="-581" font-family="Helvetica,sans-Serif" font-size="10.00">~ VarNumberer()</text>
<text text-anchor="start" x="648" y="-570" font-family="Helvetica,sans-Serif" font-size="10.00">~ action()</text>
</a>
</g>
</g>
<!-- Node1&#45;&gt;Node25 -->
<g id="edge24" class="edge"><title>Node1&#45;&gt;Node25</title>
<path fill="none" stroke="midnightblue" d="M581.939,-707.293C598.184,-695.29 615.079,-682.436 630.5,-670 641.337,-661.261 652.725,-651.49 663.262,-642.185"/>
<polygon fill="none" stroke="midnightblue" points="579.499,-704.743 573.514,-713.486 583.645,-710.383 579.499,-704.743"/>
</g>
<!-- Node2 -->
<g id="node2" class="node"><title>Node2</title>
<g id="a_node2"><a xlink:href="../../d4/de0/classprolog_1_1terms_1_1Nonvar.html" target="_top" xlink:title="Part of the Prolog Term hierarchy. ">
<polygon fill="none" stroke="black" points="453,-855.5 453,-945.5 558,-945.5 558,-855.5 453,-855.5"/>
<text text-anchor="middle" x="505.5" y="-933.5" font-family="Helvetica,sans-Serif" font-size="10.00">prolog.terms.Nonvar</text>
<polyline fill="none" stroke="black" points="453,-926.5 558,-926.5 "/>
<text text-anchor="middle" x="505.5" y="-914.5" font-family="Helvetica,sans-Serif" font-size="10.00"> </text>
<polyline fill="none" stroke="black" points="453,-907.5 558,-907.5 "/>
<text text-anchor="start" x="461" y="-895.5" font-family="Helvetica,sans-Serif" font-size="10.00">+ name()</text>
<text text-anchor="start" x="461" y="-884.5" font-family="Helvetica,sans-Serif" font-size="10.00">~ bind_to()</text>
<text text-anchor="start" x="461" y="-873.5" font-family="Helvetica,sans-Serif" font-size="10.00">~ unify_to()</text>
<text text-anchor="start" x="461" y="-862.5" font-family="Helvetica,sans-Serif" font-size="10.00">~ listify()</text>
</a>
</g>
</g>
<!-- Node2&#45;&gt;Node1 -->
<g id="edge1" class="edge"><title>Node2&#45;&gt;Node1</title>
<path fill="none" stroke="midnightblue" d="M505.5,-845.312C505.5,-836.611 505.5,-827.595 505.5,-818.867"/>
<polygon fill="none" stroke="midnightblue" points="502,-845.345 505.5,-855.345 509,-845.345 502,-845.345"/>
</g>
<!-- Node3 -->
<g id="node3" class="node"><title>Node3</title>
<g id="a_node3"><a xlink:href="../../d3/ded/classprolog_1_1terms_1_1Term.html" target="_top" xlink:title="Top element of the Prolog term hierarchy. ">
<polygon fill="none" stroke="black" points="456.5,-982.5 456.5,-1336.5 554.5,-1336.5 554.5,-982.5 456.5,-982.5"/>
<text text-anchor="middle" x="505.5" y="-1324.5" font-family="Helvetica,sans-Serif" font-size="10.00">prolog.terms.Term</text>
<polyline fill="none" stroke="black" points="456.5,-1317.5 554.5,-1317.5 "/>
<text text-anchor="start" x="464.5" y="-1305.5" font-family="Helvetica,sans-Serif" font-size="10.00">+ JAVA</text>
<text text-anchor="start" x="464.5" y="-1294.5" font-family="Helvetica,sans-Serif" font-size="10.00">+ REAL</text>
<text text-anchor="start" x="464.5" y="-1283.5" font-family="Helvetica,sans-Serif" font-size="10.00">+ INT</text>
<text text-anchor="start" x="464.5" y="-1272.5" font-family="Helvetica,sans-Serif" font-size="10.00">+ VAR</text>
<text text-anchor="start" x="464.5" y="-1261.5" font-family="Helvetica,sans-Serif" font-size="10.00">+ CONST</text>
<polyline fill="none" stroke="black" points="456.5,-1254.5 554.5,-1254.5 "/>
<text text-anchor="start" x="464.5" y="-1242.5" font-family="Helvetica,sans-Serif" font-size="10.00">+ getArity()</text>
<text text-anchor="start" x="464.5" y="-1231.5" font-family="Helvetica,sans-Serif" font-size="10.00">+ ref()</text>
<text text-anchor="start" x="464.5" y="-1220.5" font-family="Helvetica,sans-Serif" font-size="10.00">+ token()</text>
<text text-anchor="start" x="464.5" y="-1209.5" font-family="Helvetica,sans-Serif" font-size="10.00">+ toClause()</text>
<text text-anchor="start" x="464.5" y="-1198.5" font-family="Helvetica,sans-Serif" font-size="10.00">+ matches()</text>
<text text-anchor="start" x="464.5" y="-1187.5" font-family="Helvetica,sans-Serif" font-size="10.00">+ matches()</text>
<text text-anchor="start" x="464.5" y="-1176.5" font-family="Helvetica,sans-Serif" font-size="10.00">+ matching_copy()</text>
<text text-anchor="start" x="464.5" y="-1165.5" font-family="Helvetica,sans-Serif" font-size="10.00">+ copy()</text>
<text text-anchor="start" x="464.5" y="-1154.5" font-family="Helvetica,sans-Serif" font-size="10.00">+ varsOf()</text>
<text text-anchor="start" x="464.5" y="-1143.5" font-family="Helvetica,sans-Serif" font-size="10.00">+ numbervars()</text>
<text text-anchor="start" x="464.5" y="-1132.5" font-family="Helvetica,sans-Serif" font-size="10.00">and 6 more...</text>
<text text-anchor="start" x="464.5" y="-1121.5" font-family="Helvetica,sans-Serif" font-size="10.00">+ fromString()</text>
<text text-anchor="start" x="464.5" y="-1110.5" font-family="Helvetica,sans-Serif" font-size="10.00">+ charsToString()</text>
<text text-anchor="start" x="464.5" y="-1099.5" font-family="Helvetica,sans-Serif" font-size="10.00">~ bind_to()</text>
<text text-anchor="start" x="464.5" y="-1088.5" font-family="Helvetica,sans-Serif" font-size="10.00">~ unify_to()</text>
<text text-anchor="start" x="464.5" y="-1077.5" font-family="Helvetica,sans-Serif" font-size="10.00">~ toTerm()</text>
<text text-anchor="start" x="464.5" y="-1066.5" font-family="Helvetica,sans-Serif" font-size="10.00">~ isClause()</text>
<text text-anchor="start" x="464.5" y="-1055.5" font-family="Helvetica,sans-Serif" font-size="10.00">~ reaction()</text>
<text text-anchor="start" x="464.5" y="-1044.5" font-family="Helvetica,sans-Serif" font-size="10.00">~ action()</text>
<text text-anchor="start" x="464.5" y="-1033.5" font-family="Helvetica,sans-Serif" font-size="10.00">~ exec()</text>
<text text-anchor="start" x="464.5" y="-1022.5" font-family="Helvetica,sans-Serif" font-size="10.00">~ stringToChars()</text>
<text text-anchor="start" x="464.5" y="-1011.5" font-family="Helvetica,sans-Serif" font-size="10.00"># unify()</text>
<text text-anchor="start" x="464.5" y="-1000.5" font-family="Helvetica,sans-Serif" font-size="10.00"># undo()</text>
<text text-anchor="start" x="464.5" y="-989.5" font-family="Helvetica,sans-Serif" font-size="10.00"># exec()</text>
</a>
</g>
</g>
<!-- Node3&#45;&gt;Node2 -->
<g id="edge2" class="edge"><title>Node3&#45;&gt;Node2</title>
<path fill="none" stroke="midnightblue" d="M505.5,-972.431C505.5,-962.975 505.5,-954.043 505.5,-945.912"/>
<polygon fill="none" stroke="midnightblue" points="502,-972.464 505.5,-982.464 509,-972.464 502,-972.464"/>
</g>
<!-- Node4 -->
<g id="node4" class="node"><title>Node4</title>
<polygon fill="none" stroke="#bfbfbf" points="448,-1373.5 448,-1430.5 493,-1430.5 493,-1373.5 448,-1373.5"/>
<text text-anchor="middle" x="470.5" y="-1418.5" font-family="Helvetica,sans-Serif" font-size="10.00">Object</text>
<polyline fill="none" stroke="#bfbfbf" points="448,-1411.5 493,-1411.5 "/>
<text text-anchor="middle" x="470.5" y="-1399.5" font-family="Helvetica,sans-Serif" font-size="10.00"> </text>
<polyline fill="none" stroke="#bfbfbf" points="448,-1392.5 493,-1392.5 "/>
<text text-anchor="middle" x="470.5" y="-1380.5" font-family="Helvetica,sans-Serif" font-size="10.00"> </text>
</g>
<!-- Node4&#45;&gt;Node3 -->
<g id="edge3" class="edge"><title>Node4&#45;&gt;Node3</title>
<path fill="none" stroke="midnightblue" d="M475.965,-1363.45C477.132,-1355.43 478.438,-1346.46 479.833,-1336.87"/>
<polygon fill="none" stroke="midnightblue" points="472.492,-1363.01 474.515,-1373.41 479.419,-1364.02 472.492,-1363.01"/>
</g>
<!-- Node5 -->
<g id="node5" class="node"><title>Node5</title>
<polygon fill="none" stroke="#bfbfbf" points="511.5,-1373.5 511.5,-1430.5 571.5,-1430.5 571.5,-1373.5 511.5,-1373.5"/>
<text text-anchor="middle" x="541.5" y="-1418.5" font-family="Helvetica,sans-Serif" font-size="10.00">Cloneable</text>
<polyline fill="none" stroke="#bfbfbf" points="511.5,-1411.5 571.5,-1411.5 "/>
<text text-anchor="middle" x="541.5" y="-1399.5" font-family="Helvetica,sans-Serif" font-size="10.00"> </text>
<polyline fill="none" stroke="#bfbfbf" points="511.5,-1392.5 571.5,-1392.5 "/>
<text text-anchor="middle" x="541.5" y="-1380.5" font-family="Helvetica,sans-Serif" font-size="10.00"> </text>
</g>
<!-- Node5&#45;&gt;Node3 -->
<g id="edge4" class="edge"><title>Node5&#45;&gt;Node3</title>
<path fill="none" stroke="midnightblue" d="M535.879,-1363.45C534.678,-1355.43 533.335,-1346.46 531.901,-1336.87"/>
<polygon fill="none" stroke="midnightblue" points="532.428,-1364.04 537.37,-1373.41 539.351,-1363 532.428,-1364.04"/>
</g>
<!-- Node9 -->
<g id="node9" class="node"><title>Node9</title>
<g id="a_node9"><a xlink:href="../../d9/de8/classprolog_1_1terms_1_1Sink.html" target="_top" xlink:title="{prolog.terms.Sink\n||+ Sink()\l+ putElement()\l+ collect()\l}">
<polygon fill="none" stroke="black" points="235,-414 235,-493 328,-493 328,-414 235,-414"/>
<text text-anchor="middle" x="281.5" y="-481" font-family="Helvetica,sans-Serif" font-size="10.00">prolog.terms.Sink</text>
<polyline fill="none" stroke="black" points="235,-474 328,-474 "/>
<text text-anchor="middle" x="281.5" y="-462" font-family="Helvetica,sans-Serif" font-size="10.00"> </text>
<polyline fill="none" stroke="black" points="235,-455 328,-455 "/>
<text text-anchor="start" x="243" y="-443" font-family="Helvetica,sans-Serif" font-size="10.00">+ Sink()</text>
<text text-anchor="start" x="243" y="-432" font-family="Helvetica,sans-Serif" font-size="10.00">+ putElement()</text>
<text text-anchor="start" x="243" y="-421" font-family="Helvetica,sans-Serif" font-size="10.00">+ collect()</text>
</a>
</g>
</g>
<!-- Node8&#45;&gt;Node9 -->
<g id="edge8" class="edge"><title>Node8&#45;&gt;Node9</title>
<path fill="none" stroke="midnightblue" d="M518.038,-539.686C515.891,-538.037 513.709,-536.469 511.5,-535 454.25,-496.94 377.007,-474.763 328.221,-463.64"/>
<polygon fill="none" stroke="midnightblue" points="516.206,-542.713 526.139,-546.397 520.672,-537.322 516.206,-542.713"/>
</g>
<!-- Node14 -->
<g id="node14" class="node"><title>Node14</title>
<g id="a_node14"><a xlink:href="../../d2/d07/classprolog_1_1terms_1_1Source.html" target="_top" xlink:title="{prolog.terms.Source\n||+ Source()\l+ getElement()\l+ toList()\l+ toFun()\l}">
<polygon fill="none" stroke="black" points="809.5,-408.5 809.5,-498.5 913.5,-498.5 913.5,-408.5 809.5,-408.5"/>
<text text-anchor="middle" x="861.5" y="-486.5" font-family="Helvetica,sans-Serif" font-size="10.00">prolog.terms.Source</text>
<polyline fill="none" stroke="black" points="809.5,-479.5 913.5,-479.5 "/>
<text text-anchor="middle" x="861.5" y="-467.5" font-family="Helvetica,sans-Serif" font-size="10.00"> </text>
<polyline fill="none" stroke="black" points="809.5,-460.5 913.5,-460.5 "/>
<text text-anchor="start" x="817.5" y="-448.5" font-family="Helvetica,sans-Serif" font-size="10.00">+ Source()</text>
<text text-anchor="start" x="817.5" y="-437.5" font-family="Helvetica,sans-Serif" font-size="10.00">+ getElement()</text>
<text text-anchor="start" x="817.5" y="-426.5" font-family="Helvetica,sans-Serif" font-size="10.00">+ toList()</text>
<text text-anchor="start" x="817.5" y="-415.5" font-family="Helvetica,sans-Serif" font-size="10.00">+ toFun()</text>
</a>
</g>
</g>
<!-- Node8&#45;&gt;Node14 -->
<g id="edge13" class="edge"><title>Node8&#45;&gt;Node14</title>
<path fill="none" stroke="midnightblue" d="M624.031,-539.677C626.154,-538.031 628.312,-536.466 630.5,-535 685.897,-497.892 760.229,-476.022 809.435,-464.657"/>
<polygon fill="none" stroke="midnightblue" points="621.447,-537.276 616.029,-546.381 625.942,-542.641 621.447,-537.276"/>
</g>
<!-- Node10 -->
<g id="node10" class="node"><title>Node10</title>
<g id="a_node10"><a xlink:href="../../df/de7/classprolog_1_1fluents_1_1StringSink.html" target="_top" xlink:title="Builds Fluents from Java Streams. ">
<polygon fill="none" stroke="black" points="0,-226.5 0,-316.5 123,-316.5 123,-226.5 0,-226.5"/>
<text text-anchor="middle" x="61.5" y="-304.5" font-family="Helvetica,sans-Serif" font-size="10.00">prolog.fluents.StringSink</text>
<polyline fill="none" stroke="black" points="0,-297.5 123,-297.5 "/>
<text text-anchor="start" x="8" y="-285.5" font-family="Helvetica,sans-Serif" font-size="10.00"># buffer</text>
<polyline fill="none" stroke="black" points="0,-278.5 123,-278.5 "/>
<text text-anchor="start" x="8" y="-266.5" font-family="Helvetica,sans-Serif" font-size="10.00">+ StringSink()</text>
<text text-anchor="start" x="8" y="-255.5" font-family="Helvetica,sans-Serif" font-size="10.00">+ putElement()</text>
<text text-anchor="start" x="8" y="-244.5" font-family="Helvetica,sans-Serif" font-size="10.00">+ stop()</text>
<text text-anchor="start" x="8" y="-233.5" font-family="Helvetica,sans-Serif" font-size="10.00">+ collect()</text>
</a>
</g>
</g>
<!-- Node9&#45;&gt;Node10 -->
<g id="edge9" class="edge"><title>Node9&#45;&gt;Node10</title>
<path fill="none" stroke="midnightblue" d="M225.362,-429.632C195.687,-415.791 159.849,-396.141 132.5,-372 114.681,-356.271 98.864,-335.26 86.7076,-316.599"/>
<polygon fill="none" stroke="midnightblue" points="224.211,-432.954 234.761,-433.92 227.116,-426.585 224.211,-432.954"/>
</g>
<!-- Node11 -->
<g id="node11" class="node"><title>Node11</title>
<g id="a_node11"><a xlink:href="../../dd/d70/classprolog_1_1fluents_1_1TermCollector.html" target="_top" xlink:title="Builds Fluents from Java Streams. ">
<polygon fill="none" stroke="black" points="141.5,-221 141.5,-322 281.5,-322 281.5,-221 141.5,-221"/>
<text text-anchor="middle" x="211.5" y="-310" font-family="Helvetica,sans-Serif" font-size="10.00">prolog.fluents.TermCollector</text>
<polyline fill="none" stroke="black" points="141.5,-303 281.5,-303 "/>
<text text-anchor="start" x="149.5" y="-291" font-family="Helvetica,sans-Serif" font-size="10.00"># buffer</text>
<text text-anchor="start" x="149.5" y="-280" font-family="Helvetica,sans-Serif" font-size="10.00">&#45; p</text>
<polyline fill="none" stroke="black" points="141.5,-273 281.5,-273 "/>
<text text-anchor="start" x="149.5" y="-261" font-family="Helvetica,sans-Serif" font-size="10.00">+ TermCollector()</text>
<text text-anchor="start" x="149.5" y="-250" font-family="Helvetica,sans-Serif" font-size="10.00">+ putElement()</text>
<text text-anchor="start" x="149.5" y="-239" font-family="Helvetica,sans-Serif" font-size="10.00">+ stop()</text>
<text text-anchor="start" x="149.5" y="-228" font-family="Helvetica,sans-Serif" font-size="10.00">+ collect()</text>
</a>
</g>
</g>
<!-- Node9&#45;&gt;Node11 -->
<g id="edge10" class="edge"><title>Node9&#45;&gt;Node11</title>
<path fill="none" stroke="midnightblue" d="M262.805,-404.428C252.898,-378.953 240.747,-347.706 230.757,-322.017"/>
<polygon fill="none" stroke="midnightblue" points="259.597,-405.834 266.483,-413.885 266.121,-403.297 259.597,-405.834"/>
</g>
<!-- Node12 -->
<g id="node12" class="node"><title>Node12</title>
<g id="a_node12"><a xlink:href="../../db/de8/classprolog_1_1io_1_1CharWriter.html" target="_top" xlink:title="Writer. ">
<polygon fill="none" stroke="black" points="299.5,-226.5 299.5,-316.5 403.5,-316.5 403.5,-226.5 299.5,-226.5"/>
<text text-anchor="middle" x="351.5" y="-304.5" font-family="Helvetica,sans-Serif" font-size="10.00">prolog.io.CharWriter</text>
<polyline fill="none" stroke="black" points="299.5,-297.5 403.5,-297.5 "/>
<text text-anchor="start" x="307.5" y="-285.5" font-family="Helvetica,sans-Serif" font-size="10.00"># writer</text>
<polyline fill="none" stroke="black" points="299.5,-278.5 403.5,-278.5 "/>
<text text-anchor="start" x="307.5" y="-266.5" font-family="Helvetica,sans-Serif" font-size="10.00">+ CharWriter()</text>
<text text-anchor="start" x="307.5" y="-255.5" font-family="Helvetica,sans-Serif" font-size="10.00">+ CharWriter()</text>
<text text-anchor="start" x="307.5" y="-244.5" font-family="Helvetica,sans-Serif" font-size="10.00">+ putElement()</text>
<text text-anchor="start" x="307.5" y="-233.5" font-family="Helvetica,sans-Serif" font-size="10.00">+ stop()</text>
</a>
</g>
</g>
<!-- Node9&#45;&gt;Node12 -->
<g id="edge11" class="edge"><title>Node9&#45;&gt;Node12</title>
<path fill="none" stroke="midnightblue" d="M300.15,-404.542C310.753,-377.279 323.936,-343.378 334.291,-316.753"/>
<polygon fill="none" stroke="midnightblue" points="296.879,-403.297 296.517,-413.885 303.403,-405.834 296.879,-403.297"/>
</g>
<!-- Node13 -->
<g id="node13" class="node"><title>Node13</title>
<g id="a_node13"><a xlink:href="../../d4/dcc/classprolog_1_1io_1_1ClauseWriter.html" target="_top" xlink:title="Writer. ">
<polygon fill="none" stroke="black" points="295,-28 295,-107 408,-107 408,-28 295,-28"/>
<text text-anchor="middle" x="351.5" y="-95" font-family="Helvetica,sans-Serif" font-size="10.00">prolog.io.ClauseWriter</text>
<polyline fill="none" stroke="black" points="295,-88 408,-88 "/>
<text text-anchor="middle" x="351.5" y="-76" font-family="Helvetica,sans-Serif" font-size="10.00"> </text>
<polyline fill="none" stroke="black" points="295,-69 408,-69 "/>
<text text-anchor="start" x="303" y="-57" font-family="Helvetica,sans-Serif" font-size="10.00">+ ClauseWriter()</text>
<text text-anchor="start" x="303" y="-46" font-family="Helvetica,sans-Serif" font-size="10.00">+ ClauseWriter()</text>
<text text-anchor="start" x="303" y="-35" font-family="Helvetica,sans-Serif" font-size="10.00">+ putElement()</text>
</a>
</g>
</g>
<!-- Node12&#45;&gt;Node13 -->
<g id="edge12" class="edge"><title>Node12&#45;&gt;Node13</title>
<path fill="none" stroke="midnightblue" d="M351.5,-215.834C351.5,-181.509 351.5,-138.069 351.5,-107.274"/>
<polygon fill="none" stroke="midnightblue" points="348,-216.17 351.5,-226.17 355,-216.17 348,-216.17"/>
</g>
<!-- Node15 -->
<g id="node15" class="node"><title>Node15</title>
<g id="a_node15"><a xlink:href="../../d1/d91/classprolog_1_1fluents_1_1IntegerSource.html" target="_top" xlink:title="creates a source of integers based on x=a*x+b formula ">
<polygon fill="none" stroke="black" points="422,-210 422,-333 561,-333 561,-210 422,-210"/>
<text text-anchor="middle" x="491.5" y="-321" font-family="Helvetica,sans-Serif" font-size="10.00">prolog.fluents.IntegerSource</text>
<polyline fill="none" stroke="black" points="422,-314 561,-314 "/>
<text text-anchor="start" x="430" y="-302" font-family="Helvetica,sans-Serif" font-size="10.00">&#45; fuel</text>
<text text-anchor="start" x="430" y="-291" font-family="Helvetica,sans-Serif" font-size="10.00">&#45; a</text>
<text text-anchor="start" x="430" y="-280" font-family="Helvetica,sans-Serif" font-size="10.00">&#45; b</text>
<text text-anchor="start" x="430" y="-269" font-family="Helvetica,sans-Serif" font-size="10.00">&#45; x</text>
<polyline fill="none" stroke="black" points="422,-262 561,-262 "/>
<text text-anchor="start" x="430" y="-250" font-family="Helvetica,sans-Serif" font-size="10.00">+ IntegerSource()</text>
<text text-anchor="start" x="430" y="-239" font-family="Helvetica,sans-Serif" font-size="10.00">+ getElement()</text>
<text text-anchor="start" x="430" y="-228" font-family="Helvetica,sans-Serif" font-size="10.00">+ stop()</text>
<text text-anchor="start" x="430" y="-217" font-family="Helvetica,sans-Serif" font-size="10.00">+ toString()</text>
</a>
</g>
</g>
<!-- Node14&#45;&gt;Node15 -->
<g id="edge14" class="edge"><title>Node14&#45;&gt;Node15</title>
<path fill="none" stroke="midnightblue" d="M799.307,-446.613C737.011,-438.25 640.573,-418.393 570.5,-372 555.051,-361.772 541.235,-347.543 529.643,-333.04"/>
<polygon fill="none" stroke="midnightblue" points="799.019,-450.105 809.383,-447.905 799.91,-443.161 799.019,-450.105"/>
</g>
<!-- Node16 -->
<g id="node16" class="node"><title>Node16</title>
<g id="a_node16"><a xlink:href="../../d3/d7c/classprolog_1_1fluents_1_1JavaSource.html" target="_top" xlink:title="Builds Prolog Iterators from Java Sequences and Iterator type classes. ">
<polygon fill="none" stroke="black" points="579.5,-221 579.5,-322 709.5,-322 709.5,-221 579.5,-221"/>
<text text-anchor="middle" x="644.5" y="-310" font-family="Helvetica,sans-Serif" font-size="10.00">prolog.fluents.JavaSource</text>
<polyline fill="none" stroke="black" points="579.5,-303 709.5,-303 "/>
<text text-anchor="start" x="587.5" y="-291" font-family="Helvetica,sans-Serif" font-size="10.00">&#45; e</text>
<polyline fill="none" stroke="black" points="579.5,-284 709.5,-284 "/>
<text text-anchor="start" x="587.5" y="-272" font-family="Helvetica,sans-Serif" font-size="10.00">+ JavaSource()</text>
<text text-anchor="start" x="587.5" y="-261" font-family="Helvetica,sans-Serif" font-size="10.00">+ JavaSource()</text>
<text text-anchor="start" x="587.5" y="-250" font-family="Helvetica,sans-Serif" font-size="10.00">+ JavaSource()</text>
<text text-anchor="start" x="587.5" y="-239" font-family="Helvetica,sans-Serif" font-size="10.00">+ getElement()</text>
<text text-anchor="start" x="587.5" y="-228" font-family="Helvetica,sans-Serif" font-size="10.00">+ stop()</text>
</a>
</g>
</g>
<!-- Node14&#45;&gt;Node16 -->
<g id="edge15" class="edge"><title>Node14&#45;&gt;Node16</title>
<path fill="none" stroke="midnightblue" d="M799.9,-425.019C773.197,-411.362 742.598,-393.222 718.5,-372 702.263,-357.701 687.37,-339.294 675.268,-322.209"/>
<polygon fill="none" stroke="midnightblue" points="798.657,-428.311 809.165,-429.661 801.792,-422.052 798.657,-428.311"/>
</g>
<!-- Node19 -->
<g id="node19" class="node"><title>Node19</title>
<g id="a_node19"><a xlink:href="../../d6/d98/classprolog_1_1fluents_1_1SourceLoop.html" target="_top" xlink:title="An Infinite Source. ">
<polygon fill="none" stroke="black" points="727.5,-215.5 727.5,-327.5 857.5,-327.5 857.5,-215.5 727.5,-215.5"/>
<text text-anchor="middle" x="792.5" y="-315.5" font-family="Helvetica,sans-Serif" font-size="10.00">prolog.fluents.SourceLoop</text>
<polyline fill="none" stroke="black" points="727.5,-308.5 857.5,-308.5 "/>
<text text-anchor="start" x="735.5" y="-296.5" font-family="Helvetica,sans-Serif" font-size="10.00">~ s</text>
<text text-anchor="start" x="735.5" y="-285.5" font-family="Helvetica,sans-Serif" font-size="10.00">&#45; v</text>
<text text-anchor="start" x="735.5" y="-274.5" font-family="Helvetica,sans-Serif" font-size="10.00">&#45; i</text>
<polyline fill="none" stroke="black" points="727.5,-267.5 857.5,-267.5 "/>
<text text-anchor="start" x="735.5" y="-255.5" font-family="Helvetica,sans-Serif" font-size="10.00">+ SourceLoop()</text>
<text text-anchor="start" x="735.5" y="-244.5" font-family="Helvetica,sans-Serif" font-size="10.00">+ getElement()</text>
<text text-anchor="start" x="735.5" y="-233.5" font-family="Helvetica,sans-Serif" font-size="10.00">+ stop()</text>
<text text-anchor="start" x="735.5" y="-222.5" font-family="Helvetica,sans-Serif" font-size="10.00">&#45; getMemoized()</text>
</a>
</g>
</g>
<!-- Node14&#45;&gt;Node19 -->
<g id="edge18" class="edge"><title>Node14&#45;&gt;Node19</title>
<path fill="none" stroke="midnightblue" d="M841.017,-399.067C832.39,-376.56 822.353,-350.377 813.654,-327.685"/>
<polygon fill="none" stroke="midnightblue" points="837.773,-400.382 844.621,-408.467 844.309,-397.877 837.773,-400.382"/>
</g>
<!-- Node20 -->
<g id="node20" class="node"><title>Node20</title>
<g id="a_node20"><a xlink:href="../../d5/db0/classprolog_1_1io_1_1CharReader.html" target="_top" xlink:title="Builds Fluents from Java Streams. ">
<polygon fill="none" stroke="black" points="876,-210 876,-333 985,-333 985,-210 876,-210"/>
<text text-anchor="middle" x="930.5" y="-321" font-family="Helvetica,sans-Serif" font-size="10.00">prolog.io.CharReader</text>
<polyline fill="none" stroke="black" points="876,-314 985,-314 "/>
<text text-anchor="start" x="884" y="-302" font-family="Helvetica,sans-Serif" font-size="10.00">+ reader</text>
<polyline fill="none" stroke="black" points="876,-295 985,-295 "/>
<text text-anchor="start" x="884" y="-283" font-family="Helvetica,sans-Serif" font-size="10.00">+ CharReader()</text>
<text text-anchor="start" x="884" y="-272" font-family="Helvetica,sans-Serif" font-size="10.00">+ CharReader()</text>
<text text-anchor="start" x="884" y="-261" font-family="Helvetica,sans-Serif" font-size="10.00">+ CharReader()</text>
<text text-anchor="start" x="884" y="-250" font-family="Helvetica,sans-Serif" font-size="10.00">+ CharReader()</text>
<text text-anchor="start" x="884" y="-239" font-family="Helvetica,sans-Serif" font-size="10.00">+ getElement()</text>
<text text-anchor="start" x="884" y="-228" font-family="Helvetica,sans-Serif" font-size="10.00">+ stop()</text>
<text text-anchor="start" x="884" y="-217" font-family="Helvetica,sans-Serif" font-size="10.00"># makeReader()</text>
</a>
</g>
</g>
<!-- Node14&#45;&gt;Node20 -->
<g id="edge19" class="edge"><title>Node14&#45;&gt;Node20</title>
<path fill="none" stroke="midnightblue" d="M882.053,-398.884C889.99,-378.179 899.111,-354.384 907.283,-333.065"/>
<polygon fill="none" stroke="midnightblue" points="878.691,-397.877 878.379,-408.467 885.227,-400.382 878.691,-397.877"/>
</g>
<!-- Node22 -->
<g id="node22" class="node"><title>Node22</title>
<g id="a_node22"><a xlink:href="../../d9/d07/classprolog_1_1io_1_1TermSource.html" target="_top" xlink:title="Maps a Term to an Source for iterating over its arguments. ">
<polygon fill="none" stroke="black" points="1003.5,-226.5 1003.5,-316.5 1113.5,-316.5 1113.5,-226.5 1003.5,-226.5"/>
<text text-anchor="middle" x="1058.5" y="-304.5" font-family="Helvetica,sans-Serif" font-size="10.00">prolog.io.TermSource</text>
<polyline fill="none" stroke="black" points="1003.5,-297.5 1113.5,-297.5 "/>
<text text-anchor="start" x="1011.5" y="-285.5" font-family="Helvetica,sans-Serif" font-size="10.00">&#45; val</text>
<text text-anchor="start" x="1011.5" y="-274.5" font-family="Helvetica,sans-Serif" font-size="10.00">&#45; pos</text>
<polyline fill="none" stroke="black" points="1003.5,-267.5 1113.5,-267.5 "/>
<text text-anchor="start" x="1011.5" y="-255.5" font-family="Helvetica,sans-Serif" font-size="10.00">+ TermSource()</text>
<text text-anchor="start" x="1011.5" y="-244.5" font-family="Helvetica,sans-Serif" font-size="10.00">+ getElement()</text>
<text text-anchor="start" x="1011.5" y="-233.5" font-family="Helvetica,sans-Serif" font-size="10.00">+ stop()</text>
</a>
</g>
</g>
<!-- Node14&#45;&gt;Node22 -->
<g id="edge21" class="edge"><title>Node14&#45;&gt;Node22</title>
<path fill="none" stroke="midnightblue" d="M922.74,-422.694C946.509,-409.285 972.907,-391.963 993.5,-372 1009.94,-356.058 1024.35,-335.235 1035.39,-316.76"/>
<polygon fill="none" stroke="midnightblue" points="920.841,-419.743 913.776,-427.638 924.223,-425.873 920.841,-419.743"/>
</g>
<!-- Node23 -->
<g id="node23" class="node"><title>Node23</title>
<g id="a_node23"><a xlink:href="../../d4/d26/classprolog_1_1terms_1_1Prog.html" target="_top" xlink:title="Basic toplevel Prolog Engine. ">
<polygon fill="none" stroke="black" points="1131.5,-182.5 1131.5,-360.5 1225.5,-360.5 1225.5,-182.5 1131.5,-182.5"/>
<text text-anchor="middle" x="1178.5" y="-348.5" font-family="Helvetica,sans-Serif" font-size="10.00">prolog.terms.Prog</text>
<polyline fill="none" stroke="black" points="1131.5,-341.5 1225.5,-341.5 "/>
<text text-anchor="start" x="1139.5" y="-329.5" font-family="Helvetica,sans-Serif" font-size="10.00">+ tracing</text>
<text text-anchor="start" x="1139.5" y="-318.5" font-family="Helvetica,sans-Serif" font-size="10.00">&#45; trail</text>
<text text-anchor="start" x="1139.5" y="-307.5" font-family="Helvetica,sans-Serif" font-size="10.00">&#45; orStack</text>
<text text-anchor="start" x="1139.5" y="-296.5" font-family="Helvetica,sans-Serif" font-size="10.00">&#45; parent</text>
<polyline fill="none" stroke="black" points="1131.5,-289.5 1225.5,-289.5 "/>
<text text-anchor="start" x="1139.5" y="-277.5" font-family="Helvetica,sans-Serif" font-size="10.00">+ Prog()</text>
<text text-anchor="start" x="1139.5" y="-266.5" font-family="Helvetica,sans-Serif" font-size="10.00">+ getTrail()</text>
<text text-anchor="start" x="1139.5" y="-255.5" font-family="Helvetica,sans-Serif" font-size="10.00">+ getParent()</text>
<text text-anchor="start" x="1139.5" y="-244.5" font-family="Helvetica,sans-Serif" font-size="10.00">+ getElement()</text>
<text text-anchor="start" x="1139.5" y="-233.5" font-family="Helvetica,sans-Serif" font-size="10.00">+ stop()</text>
<text text-anchor="start" x="1139.5" y="-222.5" font-family="Helvetica,sans-Serif" font-size="10.00">+ run()</text>
<text text-anchor="start" x="1139.5" y="-211.5" font-family="Helvetica,sans-Serif" font-size="10.00">+ firstSolution()</text>
<text text-anchor="start" x="1139.5" y="-200.5" font-family="Helvetica,sans-Serif" font-size="10.00">+ new_engine()</text>
<text text-anchor="start" x="1139.5" y="-189.5" font-family="Helvetica,sans-Serif" font-size="10.00">+ ask_engine()</text>
</a>
</g>
</g>
<!-- Node14&#45;&gt;Node23 -->
<g id="edge22" class="edge"><title>Node14&#45;&gt;Node23</title>
<path fill="none" stroke="midnightblue" d="M923.625,-446.486C980.714,-438.144 1064.96,-418.405 1122.5,-372 1126.67,-368.64 1130.58,-364.882 1134.24,-360.848"/>
<polygon fill="none" stroke="midnightblue" points="923.072,-443.029 913.647,-447.869 924.033,-449.963 923.072,-443.029"/>
</g>
<!-- Node24 -->
<g id="node24" class="node"><title>Node24</title>
<g id="a_node24"><a xlink:href="../../df/d94/classprolog_1_1terms_1_1Unfolder.html" target="_top" xlink:title="depends ">
<polygon fill="none" stroke="black" points="1243.5,-171.5 1243.5,-371.5 1353.5,-371.5 1353.5,-171.5 1243.5,-171.5"/>
<text text-anchor="middle" x="1298.5" y="-359.5" font-family="Helvetica,sans-Serif" font-size="10.00">prolog.terms.Unfolder</text>
<polyline fill="none" stroke="black" points="1243.5,-352.5 1353.5,-352.5 "/>
<text text-anchor="start" x="1251.5" y="-340.5" font-family="Helvetica,sans-Serif" font-size="10.00">&#45; oldtop</text>
<text text-anchor="start" x="1251.5" y="-329.5" font-family="Helvetica,sans-Serif" font-size="10.00">&#45; e</text>
<text text-anchor="start" x="1251.5" y="-318.5" font-family="Helvetica,sans-Serif" font-size="10.00">&#45; goal</text>
<text text-anchor="start" x="1251.5" y="-307.5" font-family="Helvetica,sans-Serif" font-size="10.00">&#45; prog</text>
<polyline fill="none" stroke="black" points="1243.5,-300.5 1353.5,-300.5 "/>
<text text-anchor="start" x="1251.5" y="-288.5" font-family="Helvetica,sans-Serif" font-size="10.00">+ Unfolder()</text>
<text text-anchor="start" x="1251.5" y="-277.5" font-family="Helvetica,sans-Serif" font-size="10.00">+ getElement()</text>
<text text-anchor="start" x="1251.5" y="-266.5" font-family="Helvetica,sans-Serif" font-size="10.00">+ stop()</text>
<text text-anchor="start" x="1251.5" y="-255.5" font-family="Helvetica,sans-Serif" font-size="10.00">+ toString()</text>
<text text-anchor="start" x="1251.5" y="-244.5" font-family="Helvetica,sans-Serif" font-size="10.00">~ getAnswer()</text>
<text text-anchor="start" x="1251.5" y="-233.5" font-family="Helvetica,sans-Serif" font-size="10.00">~ notLastClause()</text>
<text text-anchor="start" x="1251.5" y="-222.5" font-family="Helvetica,sans-Serif" font-size="10.00">~ reduceBuiltins()</text>
<text text-anchor="start" x="1251.5" y="-211.5" font-family="Helvetica,sans-Serif" font-size="10.00">~ trace_goal()</text>
<text text-anchor="start" x="1251.5" y="-200.5" font-family="Helvetica,sans-Serif" font-size="10.00">~ trace_failing()</text>
<text text-anchor="start" x="1251.5" y="-189.5" font-family="Helvetica,sans-Serif" font-size="10.00">~ trace_nomatch()</text>
<text text-anchor="start" x="1251.5" y="-178.5" font-family="Helvetica,sans-Serif" font-size="10.00"># trailMe()</text>
</a>
</g>
</g>
<!-- Node14&#45;&gt;Node24 -->
<g id="edge23" class="edge"><title>Node14&#45;&gt;Node24</title>
<path fill="none" stroke="midnightblue" d="M923.932,-444.899C1016.57,-432.654 1184.83,-406.41 1234.5,-372 1237.54,-369.895 1240.47,-367.593 1243.28,-365.134"/>
<polygon fill="none" stroke="midnightblue" points="923.305,-441.451 913.843,-446.217 924.212,-448.392 923.305,-441.451"/>
</g>
<!-- Node17 -->
<g id="node17" class="node"><title>Node17</title>
<g id="a_node17"><a xlink:href="../../da/d30/classprolog_1_1fluents_1_1ListSource.html" target="_top" xlink:title="Builds an iterator from a list. ">
<polygon fill="none" stroke="black" points="501,-39 501,-96 626,-96 626,-39 501,-39"/>
<text text-anchor="middle" x="563.5" y="-84" font-family="Helvetica,sans-Serif" font-size="10.00">prolog.fluents.ListSource</text>
<polyline fill="none" stroke="black" points="501,-77 626,-77 "/>
<text text-anchor="middle" x="563.5" y="-65" font-family="Helvetica,sans-Serif" font-size="10.00"> </text>
<polyline fill="none" stroke="black" points="501,-58 626,-58 "/>
<text text-anchor="start" x="509" y="-46" font-family="Helvetica,sans-Serif" font-size="10.00">+ ListSource()</text>
</a>
</g>
</g>
<!-- Node16&#45;&gt;Node17 -->
<g id="edge16" class="edge"><title>Node16&#45;&gt;Node17</title>
<path fill="none" stroke="midnightblue" d="M620.796,-211.386C605.553,-173.372 586.452,-125.738 574.611,-96.2099"/>
<polygon fill="none" stroke="midnightblue" points="617.611,-212.848 624.581,-220.827 624.108,-210.242 617.611,-212.848"/>
</g>
<!-- Node18 -->
<g id="node18" class="node"><title>Node18</title>
<g id="a_node18"><a xlink:href="../../d9/dc9/classprolog_1_1fluents_1_1SourceMerger.html" target="_top" xlink:title="Merges a List of Sources into a new Source which (fairly) iterates over them breadth first...">
<polygon fill="none" stroke="black" points="644,-33.5 644,-101.5 783,-101.5 783,-33.5 644,-33.5"/>
<text text-anchor="middle" x="713.5" y="-89.5" font-family="Helvetica,sans-Serif" font-size="10.00">prolog.fluents.SourceMerger</text>
<polyline fill="none" stroke="black" points="644,-82.5 783,-82.5 "/>
<text text-anchor="start" x="652" y="-70.5" font-family="Helvetica,sans-Serif" font-size="10.00">&#45; Q</text>
<polyline fill="none" stroke="black" points="644,-63.5 783,-63.5 "/>
<text text-anchor="start" x="652" y="-51.5" font-family="Helvetica,sans-Serif" font-size="10.00">+ SourceMerger()</text>
<text text-anchor="start" x="652" y="-40.5" font-family="Helvetica,sans-Serif" font-size="10.00">+ getElement()</text>
</a>
</g>
</g>
<!-- Node16&#45;&gt;Node18 -->
<g id="edge17" class="edge"><title>Node16&#45;&gt;Node18</title>
<path fill="none" stroke="midnightblue" d="M664.828,-210.989C677.035,-175.254 692.106,-131.132 702.216,-101.536"/>
<polygon fill="none" stroke="midnightblue" points="661.388,-210.232 661.468,-220.827 668.012,-212.495 661.388,-210.232"/>
</g>
<!-- Node21 -->
<g id="node21" class="node"><title>Node21</title>
<g id="a_node21"><a xlink:href="../../d4/d09/classprolog_1_1io_1_1ClauseReader.html" target="_top" xlink:title="Builds Fluents from Java Streams. ">
<polygon fill="none" stroke="black" points="871,-0.5 871,-134.5 990,-134.5 990,-0.5 871,-0.5"/>
<text text-anchor="middle" x="930.5" y="-122.5" font-family="Helvetica,sans-Serif" font-size="10.00">prolog.io.ClauseReader</text>
<polyline fill="none" stroke="black" points="871,-115.5 990,-115.5 "/>
<text text-anchor="start" x="879" y="-103.5" font-family="Helvetica,sans-Serif" font-size="10.00"># parser</text>
<polyline fill="none" stroke="black" points="871,-96.5 990,-96.5 "/>
<text text-anchor="start" x="879" y="-84.5" font-family="Helvetica,sans-Serif" font-size="10.00">+ ClauseReader()</text>
<text text-anchor="start" x="879" y="-73.5" font-family="Helvetica,sans-Serif" font-size="10.00">+ ClauseReader()</text>
<text text-anchor="start" x="879" y="-62.5" font-family="Helvetica,sans-Serif" font-size="10.00">+ ClauseReader()</text>
<text text-anchor="start" x="879" y="-51.5" font-family="Helvetica,sans-Serif" font-size="10.00">+ ClauseReader()</text>
<text text-anchor="start" x="879" y="-40.5" font-family="Helvetica,sans-Serif" font-size="10.00">+ getElement()</text>
<text text-anchor="start" x="879" y="-29.5" font-family="Helvetica,sans-Serif" font-size="10.00">+ stop()</text>
<text text-anchor="start" x="879" y="-18.5" font-family="Helvetica,sans-Serif" font-size="10.00">~ make_parser()</text>
<text text-anchor="start" x="879" y="-7.5" font-family="Helvetica,sans-Serif" font-size="10.00">~ extract_info()</text>
</a>
</g>
</g>
<!-- Node20&#45;&gt;Node21 -->
<g id="edge20" class="edge"><title>Node20&#45;&gt;Node21</title>
<path fill="none" stroke="midnightblue" d="M930.5,-199.699C930.5,-178.579 930.5,-155.518 930.5,-134.704"/>
<polygon fill="none" stroke="midnightblue" points="927,-199.893 930.5,-209.893 934,-199.893 927,-199.893"/>
</g>
</g>
</svg>
