<?xml version="1.0" encoding="UTF-8" standalone="no"?>
<!DOCTYPE svg PUBLIC "-//W3C//DTD SVG 1.1//EN"
 "http://www.w3.org/Graphics/SVG/1.1/DTD/svg11.dtd">
<!-- Generated by graphviz version 2.38.0 (20140413.2041)
 -->
<!-- Title: Graphical Class Hierarchy Pages: 1 -->
<svg width="336pt" height="28pt"
 viewBox="0.00 0.00 336.00 28.00" xmlns="http://www.w3.org/2000/svg" xmlns:xlink="http://www.w3.org/1999/xlink">
<g id="graph0" class="graph" transform="scale(1 1) rotate(0) translate(4 24)">
<title>Graphical Class Hierarchy</title>
<!-- Node1 -->
<g id="node1" class="node"><title>Node1</title>
<polygon fill="none" stroke="#bfbfbf" points="0,-0.5 0,-19.5 91,-19.5 91,-0.5 0,-0.5"/>
<text text-anchor="middle" x="45.5" y="-7.5" font-family="Helvetica,sans-Serif" font-size="10.00">StreamTokenizer</text>
</g>
<!-- Node2 -->
<g id="node2" class="node"><title>Node2</title>
<g id="a_node2"><a xlink:href="d9/d79/classprolog_1_1io_1_1Lexer.html" target="_top" xlink:title="Lexicographic analyser reading from a stream. ">
<polygon fill="none" stroke="black" points="127,-0.5 127,-19.5 207,-19.5 207,-0.5 127,-0.5"/>
<text text-anchor="middle" x="167" y="-7.5" font-family="Helvetica,sans-Serif" font-size="10.00">prolog.io.Lexer</text>
</a>
</g>
</g>
<!-- Node1&#45;&gt;Node2 -->
<g id="edge1" class="edge"><title>Node1&#45;&gt;Node2</title>
<path fill="none" stroke="midnightblue" d="M101.601,-10C110.106,-10 118.737,-10 126.799,-10"/>
<polygon fill="midnightblue" stroke="midnightblue" points="101.337,-6.5001 91.3374,-10 101.337,-13.5001 101.337,-6.5001"/>
</g>
<!-- Node3 -->
<g id="node3" class="node"><title>Node3</title>
<g id="a_node3"><a xlink:href="d7/df1/classprolog_1_1io_1_1Parser.html" target="_top" xlink:title="Simplified Prolog parser: Synatax supported: a0:&#45;a1,...,an. ">
<polygon fill="none" stroke="black" points="243,-0.5 243,-19.5 328,-19.5 328,-0.5 243,-0.5"/>
<text text-anchor="middle" x="285.5" y="-7.5" font-family="Helvetica,sans-Serif" font-size="10.00">prolog.io.Parser</text>
</a>
</g>
</g>
<!-- Node2&#45;&gt;Node3 -->
<g id="edge2" class="edge"><title>Node2&#45;&gt;Node3</title>
<path fill="none" stroke="midnightblue" d="M217.321,-10C225.834,-10 234.608,-10 242.892,-10"/>
<polygon fill="midnightblue" stroke="midnightblue" points="217.117,-6.5001 207.117,-10 217.117,-13.5001 217.117,-6.5001"/>
</g>
</g>
</svg>
