<?xml version="1.0" encoding="UTF-8" standalone="no"?>
<!DOCTYPE svg PUBLIC "-//W3C//DTD SVG 1.1//EN"
 "http://www.w3.org/Graphics/SVG/1.1/DTD/svg11.dtd">
<!-- Generated by graphviz version 2.38.0 (20140413.2041)
 -->
<!-- Title: prolog.fluents.BlackBoard Pages: 1 -->
<svg width="136pt" height="656pt"
 viewBox="0.00 0.00 136.00 656.00" xmlns="http://www.w3.org/2000/svg" xmlns:xlink="http://www.w3.org/1999/xlink">
<g id="graph0" class="graph" transform="scale(1 1) rotate(0) translate(4 652)">
<title>prolog.fluents.BlackBoard</title>
<!-- Node1 -->
<g id="node1" class="node"><title>Node1</title>
<polygon fill="#bfbfbf" stroke="black" points="0,-325.5 0,-448.5 128,-448.5 128,-325.5 0,-325.5"/>
<text text-anchor="middle" x="64" y="-436.5" font-family="Helvetica,sans-Serif" font-size="10.00">prolog.fluents.BlackBoard</text>
<polyline fill="none" stroke="black" points="0,-429.5 128,-429.5 "/>
<text text-anchor="middle" x="64" y="-417.5" font-family="Helvetica,sans-Serif" font-size="10.00"> </text>
<polyline fill="none" stroke="black" points="0,-410.5 128,-410.5 "/>
<text text-anchor="start" x="8" y="-398.5" font-family="Helvetica,sans-Serif" font-size="10.00">+ BlackBoard()</text>
<text text-anchor="start" x="8" y="-387.5" font-family="Helvetica,sans-Serif" font-size="10.00">+ toEnumerationFor()</text>
<text text-anchor="start" x="8" y="-376.5" font-family="Helvetica,sans-Serif" font-size="10.00">+ toEnumeration()</text>
<text text-anchor="start" x="8" y="-365.5" font-family="Helvetica,sans-Serif" font-size="10.00"># take()</text>
<text text-anchor="start" x="8" y="-354.5" font-family="Helvetica,sans-Serif" font-size="10.00"># add()</text>
<text text-anchor="start" x="8" y="-343.5" font-family="Helvetica,sans-Serif" font-size="10.00">&#45; pick()</text>
<text text-anchor="start" x="8" y="-332.5" font-family="Helvetica,sans-Serif" font-size="10.00">&#45; addBack()</text>
</g>
<!-- Node4 -->
<g id="node4" class="node"><title>Node4</title>
<g id="a_node4"><a xlink:href="../../da/dd9/classprolog_1_1fluents_1_1DataBase.html" target="_top" xlink:title="Implements a Term and Clause objects based blackboard (database). ">
<polygon fill="none" stroke="black" points="3,-0.5 3,-288.5 125,-288.5 125,-0.5 3,-0.5"/>
<text text-anchor="middle" x="64" y="-276.5" font-family="Helvetica,sans-Serif" font-size="10.00">prolog.fluents.DataBase</text>
<polyline fill="none" stroke="black" points="3,-269.5 125,-269.5 "/>
<text text-anchor="start" x="11" y="-257.5" font-family="Helvetica,sans-Serif" font-size="10.00">&#45; yes</text>
<text text-anchor="start" x="11" y="-246.5" font-family="Helvetica,sans-Serif" font-size="10.00">&#45; no</text>
<text text-anchor="start" x="11" y="-235.5" font-family="Helvetica,sans-Serif" font-size="10.00">&#45; lastFile</text>
<polyline fill="none" stroke="black" points="3,-228.5 125,-228.5 "/>
<text text-anchor="start" x="11" y="-216.5" font-family="Helvetica,sans-Serif" font-size="10.00">+ DataBase()</text>
<text text-anchor="start" x="11" y="-205.5" font-family="Helvetica,sans-Serif" font-size="10.00">+ cin()</text>
<text text-anchor="start" x="11" y="-194.5" font-family="Helvetica,sans-Serif" font-size="10.00">+ out()</text>
<text text-anchor="start" x="11" y="-183.5" font-family="Helvetica,sans-Serif" font-size="10.00">+ out()</text>
<text text-anchor="start" x="11" y="-172.5" font-family="Helvetica,sans-Serif" font-size="10.00">+ all()</text>
<text text-anchor="start" x="11" y="-161.5" font-family="Helvetica,sans-Serif" font-size="10.00">+ toEnumerationFor()</text>
<text text-anchor="start" x="11" y="-150.5" font-family="Helvetica,sans-Serif" font-size="10.00">+ pprint()</text>
<text text-anchor="start" x="11" y="-139.5" font-family="Helvetica,sans-Serif" font-size="10.00">+ pred_to_string()</text>
<text text-anchor="start" x="11" y="-128.5" font-family="Helvetica,sans-Serif" font-size="10.00">+ fromFile()</text>
<text text-anchor="start" x="11" y="-117.5" font-family="Helvetica,sans-Serif" font-size="10.00">+ fromFile()</text>
<text text-anchor="start" x="11" y="-106.5" font-family="Helvetica,sans-Serif" font-size="10.00">+ fromFile()</text>
<text text-anchor="start" x="11" y="-95.5" font-family="Helvetica,sans-Serif" font-size="10.00">+ streamToProg()</text>
<text text-anchor="start" x="11" y="-84.5" font-family="Helvetica,sans-Serif" font-size="10.00">+ addClause()</text>
<text text-anchor="start" x="11" y="-73.5" font-family="Helvetica,sans-Serif" font-size="10.00">+ processClause()</text>
<text text-anchor="start" x="11" y="-62.5" font-family="Helvetica,sans-Serif" font-size="10.00">&#45; all0()</text>
<text text-anchor="start" x="11" y="-51.5" font-family="Helvetica,sans-Serif" font-size="10.00">&#45; all1()</text>
<text text-anchor="start" x="11" y="-40.5" font-family="Helvetica,sans-Serif" font-size="10.00">&#45; all2()</text>
<text text-anchor="start" x="11" y="-29.5" font-family="Helvetica,sans-Serif" font-size="10.00">&#45; fileToProg()</text>
<text text-anchor="start" x="11" y="-18.5" font-family="Helvetica,sans-Serif" font-size="10.00">&#45; streamToProg()</text>
<text text-anchor="start" x="11" y="-7.5" font-family="Helvetica,sans-Serif" font-size="10.00">&#45; apply_parser()</text>
</a>
</g>
</g>
<!-- Node1&#45;&gt;Node4 -->
<g id="edge3" class="edge"><title>Node1&#45;&gt;Node4</title>
<path fill="none" stroke="midnightblue" d="M64,-315.191C64,-306.721 64,-297.855 64,-288.808"/>
<polygon fill="none" stroke="midnightblue" points="60.5001,-315.312 64,-325.312 67.5001,-315.312 60.5001,-315.312"/>
</g>
<!-- Node2 -->
<g id="node2" class="node"><title>Node2</title>
<g id="a_node2"><a xlink:href="../../de/dd4/classprolog_1_1fluents_1_1HashDict.html" target="_top" xlink:title="General purpose dictionary. ">
<polygon fill="none" stroke="black" points="4.5,-485.5 4.5,-553.5 123.5,-553.5 123.5,-485.5 4.5,-485.5"/>
<text text-anchor="middle" x="64" y="-541.5" font-family="Helvetica,sans-Serif" font-size="10.00">prolog.fluents.HashDict</text>
<polyline fill="none" stroke="black" points="4.5,-534.5 123.5,-534.5 "/>
<text text-anchor="middle" x="64" y="-522.5" font-family="Helvetica,sans-Serif" font-size="10.00"> </text>
<polyline fill="none" stroke="black" points="4.5,-515.5 123.5,-515.5 "/>
<text text-anchor="start" x="12.5" y="-503.5" font-family="Helvetica,sans-Serif" font-size="10.00">+ name()</text>
<text text-anchor="start" x="12.5" y="-492.5" font-family="Helvetica,sans-Serif" font-size="10.00">+ stat()</text>
</a>
</g>
</g>
<!-- Node2&#45;&gt;Node1 -->
<g id="edge1" class="edge"><title>Node2&#45;&gt;Node1</title>
<path fill="none" stroke="midnightblue" d="M64,-475.169C64,-466.652 64,-457.572 64,-448.609"/>
<polygon fill="none" stroke="midnightblue" points="60.5001,-475.232 64,-485.232 67.5001,-475.232 60.5001,-475.232"/>
</g>
<!-- Node3 -->
<g id="node3" class="node"><title>Node3</title>
<polygon fill="none" stroke="#bfbfbf" points="34.5,-590.5 34.5,-647.5 93.5,-647.5 93.5,-590.5 34.5,-590.5"/>
<text text-anchor="middle" x="64" y="-635.5" font-family="Helvetica,sans-Serif" font-size="10.00">HashMap</text>
<polyline fill="none" stroke="#bfbfbf" points="34.5,-628.5 93.5,-628.5 "/>
<text text-anchor="middle" x="64" y="-616.5" font-family="Helvetica,sans-Serif" font-size="10.00"> </text>
<polyline fill="none" stroke="#bfbfbf" points="34.5,-609.5 93.5,-609.5 "/>
<text text-anchor="middle" x="64" y="-597.5" font-family="Helvetica,sans-Serif" font-size="10.00"> </text>
</g>
<!-- Node3&#45;&gt;Node2 -->
<g id="edge2" class="edge"><title>Node3&#45;&gt;Node2</title>
<path fill="none" stroke="midnightblue" d="M64,-580.063C64,-571.393 64,-562.243 64,-553.786"/>
<polygon fill="none" stroke="midnightblue" points="60.5001,-580.321 64,-590.321 67.5001,-580.321 60.5001,-580.321"/>
</g>
</g>
</svg>
