<?xml version="1.0" encoding="UTF-8" standalone="no"?>
<!DOCTYPE svg PUBLIC "-//W3C//DTD SVG 1.1//EN"
 "http://www.w3.org/Graphics/SVG/1.1/DTD/svg11.dtd">
<!-- Generated by graphviz version 2.38.0 (20140413.2041)
 -->
<!-- Title: prolog.io.ClauseReader.extract_info Pages: 1 -->
<svg width="1080pt" height="306pt"
 viewBox="0.00 0.00 1080.00 306.00" xmlns="http://www.w3.org/2000/svg" xmlns:xlink="http://www.w3.org/1999/xlink">
<g id="graph0" class="graph" transform="scale(1 1) rotate(0) translate(4 302)">
<title>prolog.io.ClauseReader.extract_info</title>
<!-- Node1 -->
<g id="node1" class="node"><title>Node1</title>
<polygon fill="#bfbfbf" stroke="black" points="0,-57.5 0,-76.5 173,-76.5 173,-57.5 0,-57.5"/>
<text text-anchor="middle" x="86.5" y="-64.5" font-family="Helvetica,sans-Serif" font-size="10.00">prolog.io.ClauseReader.extract_info</text>
</g>
<!-- Node2 -->
<g id="node2" class="node"><title>Node2</title>
<g id="a_node2"><a xlink:href="../../d6/dc4/classprolog_1_1terms_1_1Clause_a616eb2dbf395587a4029c19bdc492745.html#a616eb2dbf395587a4029c19bdc492745" target="_top" xlink:title="Replaces varibles with nice looking upper case constants for printing purposes. ">
<polygon fill="none" stroke="black" points="209,-180.5 209,-199.5 373,-199.5 373,-180.5 209,-180.5"/>
<text text-anchor="middle" x="291" y="-187.5" font-family="Helvetica,sans-Serif" font-size="10.00">prolog.terms.Clause.cnumbervars</text>
</a>
</g>
</g>
<!-- Node1&#45;&gt;Node2 -->
<g id="edge1" class="edge"><title>Node1&#45;&gt;Node2</title>
<path fill="none" stroke="midnightblue" d="M103.39,-76.6516C138.583,-98.0279 223.306,-149.489 265.404,-175.06"/>
<polygon fill="midnightblue" stroke="midnightblue" points="263.82,-178.193 274.184,-180.393 267.454,-172.21 263.82,-178.193"/>
</g>
<!-- Node15 -->
<g id="node15" class="node"><title>Node15</title>
<g id="a_node15"><a xlink:href="../../d6/dc4/classprolog_1_1terms_1_1Clause_ab690dc7c5a2d5b6007fbf559a537d262.html#ab690dc7c5a2d5b6007fbf559a537d262" target="_top" xlink:title="Extracts the body of a clause. ">
<polygon fill="none" stroke="black" points="219.5,-76.5 219.5,-95.5 362.5,-95.5 362.5,-76.5 219.5,-76.5"/>
<text text-anchor="middle" x="291" y="-83.5" font-family="Helvetica,sans-Serif" font-size="10.00">prolog.terms.Clause.getBody</text>
</a>
</g>
</g>
<!-- Node1&#45;&gt;Node15 -->
<g id="edge15" class="edge"><title>Node1&#45;&gt;Node15</title>
<path fill="none" stroke="midnightblue" d="M173.085,-75.0302C185.023,-76.1503 197.26,-77.2985 209.108,-78.4102"/>
<polygon fill="midnightblue" stroke="midnightblue" points="209.12,-81.9266 219.404,-79.3761 209.774,-74.9572 209.12,-81.9266"/>
</g>
<!-- Node16 -->
<g id="node16" class="node"><title>Node16</title>
<g id="a_node16"><a xlink:href="../../d6/dc4/classprolog_1_1terms_1_1Clause_a5e5502c9619429232fcb310406256830.html#a5e5502c9619429232fcb310406256830" target="_top" xlink:title="Extracts the head of a clause (a Term). ">
<polygon fill="none" stroke="black" points="219,-38.5 219,-57.5 363,-57.5 363,-38.5 219,-38.5"/>
<text text-anchor="middle" x="291" y="-45.5" font-family="Helvetica,sans-Serif" font-size="10.00">prolog.terms.Clause.getHead</text>
</a>
</g>
</g>
<!-- Node1&#45;&gt;Node16 -->
<g id="edge17" class="edge"><title>Node1&#45;&gt;Node16</title>
<path fill="none" stroke="midnightblue" d="M173.085,-58.9698C184.856,-57.8653 196.918,-56.7337 208.611,-55.6365"/>
<polygon fill="midnightblue" stroke="midnightblue" points="209.146,-59.1017 218.776,-54.6828 208.492,-52.1323 209.146,-59.1017"/>
</g>
<!-- Node17 -->
<g id="node17" class="node"><title>Node17</title>
<g id="a_node17"><a xlink:href="../../d3/ded/classprolog_1_1terms_1_1Term_ac42ec640f377593fd9bee606478b6984.html#ac42ec640f377593fd9bee606478b6984" target="_top" xlink:title="Returns &#39;[]&#39;(V1,V2,..Vn) where Vi is a variable occuring in this Term. ">
<polygon fill="none" stroke="black" points="227,-0.5 227,-19.5 355,-19.5 355,-0.5 227,-0.5"/>
<text text-anchor="middle" x="291" y="-7.5" font-family="Helvetica,sans-Serif" font-size="10.00">prolog.terms.Term.varsOf</text>
</a>
</g>
</g>
<!-- Node1&#45;&gt;Node17 -->
<g id="edge19" class="edge"><title>Node1&#45;&gt;Node17</title>
<path fill="none" stroke="midnightblue" d="M116.294,-57.3451C140.803,-49.2834 177.021,-37.7391 209,-29 217.902,-26.5673 227.406,-24.1654 236.657,-21.9305"/>
<polygon fill="midnightblue" stroke="midnightblue" points="237.636,-25.2954 246.555,-19.5774 236.017,-18.4852 237.636,-25.2954"/>
</g>
<!-- Node3 -->
<g id="node3" class="node"><title>Node3</title>
<g id="a_node3"><a xlink:href="../../d3/ded/classprolog_1_1terms_1_1Term_a50d0b69d48782ff4bcf433c70c1472a0.html#a50d0b69d48782ff4bcf433c70c1472a0" target="_top" xlink:title="Replaces variables with uppercase constants named `V1&#39;, &#39;V2&#39;, etc. ">
<polygon fill="none" stroke="black" points="409,-202.5 409,-221.5 559,-221.5 559,-202.5 409,-202.5"/>
<text text-anchor="middle" x="484" y="-209.5" font-family="Helvetica,sans-Serif" font-size="10.00">prolog.terms.Term.numbervars</text>
</a>
</g>
</g>
<!-- Node2&#45;&gt;Node3 -->
<g id="edge2" class="edge"><title>Node2&#45;&gt;Node3</title>
<path fill="none" stroke="midnightblue" d="M373.001,-199.33C381.551,-200.315 390.26,-201.318 398.845,-202.307"/>
<polygon fill="midnightblue" stroke="midnightblue" points="398.514,-205.792 408.849,-203.459 399.315,-198.838 398.514,-205.792"/>
</g>
<!-- Node7 -->
<g id="node7" class="node"><title>Node7</title>
<g id="a_node7"><a xlink:href="../../d6/dc4/classprolog_1_1terms_1_1Clause_ade3c5f25239d6a2d095f65367986e312.html#ade3c5f25239d6a2d095f65367986e312" target="_top" xlink:title="Checks if a Clause has been proven ground after beeing read in or created. ">
<polygon fill="none" stroke="black" points="415.5,-153 415.5,-183 552.5,-183 552.5,-153 415.5,-153"/>
<text text-anchor="start" x="423.5" y="-171" font-family="Helvetica,sans-Serif" font-size="10.00">prolog.terms.Clause.proven</text>
<text text-anchor="middle" x="484" y="-160" font-family="Helvetica,sans-Serif" font-size="10.00">Ground</text>
</a>
</g>
</g>
<!-- Node2&#45;&gt;Node7 -->
<g id="edge7" class="edge"><title>Node2&#45;&gt;Node7</title>
<path fill="none" stroke="midnightblue" d="M373.001,-180.67C383.711,-179.436 394.67,-178.174 405.322,-176.947"/>
<polygon fill="midnightblue" stroke="midnightblue" points="405.889,-180.405 415.423,-175.784 405.088,-173.451 405.889,-180.405"/>
</g>
<!-- Node8 -->
<g id="node8" class="node"><title>Node8</title>
<g id="a_node8"><a xlink:href="../../d3/ded/classprolog_1_1terms_1_1Term_a84d8fb7e1f816d0dbe3c2c56ed28fdb9.html#a84d8fb7e1f816d0dbe3c2c56ed28fdb9" target="_top" xlink:title="Dereference and unify_to. ">
<polygon fill="none" stroke="black" points="424,-114.5 424,-133.5 544,-133.5 544,-114.5 424,-114.5"/>
<text text-anchor="middle" x="484" y="-121.5" font-family="Helvetica,sans-Serif" font-size="10.00">prolog.terms.Term.unify</text>
</a>
</g>
</g>
<!-- Node2&#45;&gt;Node8 -->
<g id="edge8" class="edge"><title>Node2&#45;&gt;Node8</title>
<path fill="none" stroke="midnightblue" d="M313.253,-180.484C336.463,-170.324 374.885,-154.179 409,-143 416.445,-140.561 424.393,-138.235 432.216,-136.102"/>
<polygon fill="midnightblue" stroke="midnightblue" points="433.241,-139.451 442.012,-133.507 431.449,-132.684 433.241,-139.451"/>
</g>
<!-- Node11 -->
<g id="node11" class="node"><title>Node11</title>
<g id="a_node11"><a xlink:href="../../d6/dc4/classprolog_1_1terms_1_1Clause_a414492a8d9d648788aadfd423ee32fb0.html#a414492a8d9d648788aadfd423ee32fb0" target="_top" xlink:title="Builds a clause given its head and its body. ">
<polygon fill="none" stroke="black" points="415,-278.5 415,-297.5 553,-297.5 553,-278.5 415,-278.5"/>
<text text-anchor="middle" x="484" y="-285.5" font-family="Helvetica,sans-Serif" font-size="10.00">prolog.terms.Clause.Clause</text>
</a>
</g>
</g>
<!-- Node2&#45;&gt;Node11 -->
<g id="edge11" class="edge"><title>Node2&#45;&gt;Node11</title>
<path fill="none" stroke="midnightblue" d="M303.485,-199.761C323.576,-216.355 366.976,-250.102 409,-269 414.347,-271.405 420.054,-273.545 425.837,-275.442"/>
<polygon fill="midnightblue" stroke="midnightblue" points="425.005,-278.847 435.591,-278.406 427.041,-272.149 425.005,-278.847"/>
</g>
<!-- Node12 -->
<g id="node12" class="node"><title>Node12</title>
<g id="a_node12"><a xlink:href="../../dd/dad/classprolog_1_1terms_1_1Trail_adab6fa04fe8e0da6e1870bd1b37a654b.html#adab6fa04fe8e0da6e1870bd1b37a654b" target="_top" xlink:title="Used to undo bindings after unification, if we intend to leave no side effects. ">
<polygon fill="none" stroke="black" points="421,-240.5 421,-259.5 547,-259.5 547,-240.5 421,-240.5"/>
<text text-anchor="middle" x="484" y="-247.5" font-family="Helvetica,sans-Serif" font-size="10.00">prolog.terms.Trail.unwind</text>
</a>
</g>
</g>
<!-- Node2&#45;&gt;Node12 -->
<g id="edge12" class="edge"><title>Node2&#45;&gt;Node12</title>
<path fill="none" stroke="midnightblue" d="M317.355,-199.593C340.915,-208.337 377.072,-221.326 409,-231 416.851,-233.379 425.229,-235.717 433.419,-237.896"/>
<polygon fill="midnightblue" stroke="midnightblue" points="432.71,-241.328 443.27,-240.466 434.477,-234.555 432.71,-241.328"/>
</g>
<!-- Node4 -->
<g id="node4" class="node"><title>Node4</title>
<g id="a_node4"><a xlink:href="../../d3/ded/classprolog_1_1terms_1_1Term_a01e5a83e648ee3f89415c0142c4220d4.html#a01e5a83e648ee3f89415c0142c4220d4" target="_top" xlink:title="Returns a copy of a term with variables standardized apart (`fresh variables&#39;). ">
<polygon fill="none" stroke="black" points="608,-202.5 608,-221.5 728,-221.5 728,-202.5 608,-202.5"/>
<text text-anchor="middle" x="668" y="-209.5" font-family="Helvetica,sans-Serif" font-size="10.00">prolog.terms.Term.copy</text>
</a>
</g>
</g>
<!-- Node3&#45;&gt;Node4 -->
<g id="edge3" class="edge"><title>Node3&#45;&gt;Node4</title>
<path fill="none" stroke="midnightblue" d="M559.026,-212C571.839,-212 585.118,-212 597.796,-212"/>
<polygon fill="midnightblue" stroke="midnightblue" points="597.816,-215.5 607.815,-212 597.815,-208.5 597.816,-215.5"/>
</g>
<!-- Node5 -->
<g id="node5" class="node"><title>Node5</title>
<g id="a_node5"><a xlink:href="../../d3/ded/classprolog_1_1terms_1_1Term_a0a660e6cd55f12e49d328e1b84b478a4.html#a0a660e6cd55f12e49d328e1b84b478a4" target="_top" xlink:title="Defines the reaction to an agent recursing over the structure of a term. ">
<polygon fill="none" stroke="black" points="777,-183.5 777,-202.5 911,-202.5 911,-183.5 777,-183.5"/>
<text text-anchor="middle" x="844" y="-190.5" font-family="Helvetica,sans-Serif" font-size="10.00">prolog.terms.Term.reaction</text>
</a>
</g>
</g>
<!-- Node3&#45;&gt;Node5 -->
<g id="edge6" class="edge"><title>Node3&#45;&gt;Node5</title>
<path fill="none" stroke="midnightblue" d="M529.731,-202.488C549.616,-198.722 573.374,-194.854 595,-193 652.371,-188.082 717.482,-188.302 766.589,-189.635"/>
<polygon fill="midnightblue" stroke="midnightblue" points="766.718,-193.14 776.816,-189.934 766.923,-186.143 766.718,-193.14"/>
</g>
<!-- Node4&#45;&gt;Node5 -->
<g id="edge4" class="edge"><title>Node4&#45;&gt;Node5</title>
<path fill="none" stroke="midnightblue" d="M728.394,-205.514C740.668,-204.174 753.76,-202.745 766.544,-201.349"/>
<polygon fill="midnightblue" stroke="midnightblue" points="767.147,-204.804 776.708,-200.239 766.387,-197.845 767.147,-204.804"/>
</g>
<!-- Node6 -->
<g id="node6" class="node"><title>Node6</title>
<g id="a_node6"><a xlink:href="../../d3/ded/classprolog_1_1terms_1_1Term_aa52e271c0f6784dbde9aa4f5f3ab0268.html#aa52e271c0f6784dbde9aa4f5f3ab0268" target="_top" xlink:title="Identity action. ">
<polygon fill="none" stroke="black" points="947,-183.5 947,-202.5 1072,-202.5 1072,-183.5 947,-183.5"/>
<text text-anchor="middle" x="1009.5" y="-190.5" font-family="Helvetica,sans-Serif" font-size="10.00">prolog.terms.Term.action</text>
</a>
</g>
</g>
<!-- Node5&#45;&gt;Node6 -->
<g id="edge5" class="edge"><title>Node5&#45;&gt;Node6</title>
<path fill="none" stroke="midnightblue" d="M911.03,-193C919.566,-193 928.34,-193 936.96,-193"/>
<polygon fill="midnightblue" stroke="midnightblue" points="936.984,-196.5 946.984,-193 936.984,-189.5 936.984,-196.5"/>
</g>
<!-- Node9 -->
<g id="node9" class="node"><title>Node9</title>
<g id="a_node9"><a xlink:href="../../d3/ded/classprolog_1_1terms_1_1Term_ae140fac2c9d066dc897fcfa723060a7a.html#ae140fac2c9d066dc897fcfa723060a7a" target="_top" xlink:title="Dereferences if necessary. ">
<polygon fill="none" stroke="black" points="613,-76.5 613,-95.5 723,-95.5 723,-76.5 613,-76.5"/>
<text text-anchor="middle" x="668" y="-83.5" font-family="Helvetica,sans-Serif" font-size="10.00">prolog.terms.Term.ref</text>
</a>
</g>
</g>
<!-- Node8&#45;&gt;Node9 -->
<g id="edge9" class="edge"><title>Node8&#45;&gt;Node9</title>
<path fill="none" stroke="midnightblue" d="M530.926,-114.411C555.376,-109.306 585.633,-102.989 611.403,-97.6082"/>
<polygon fill="midnightblue" stroke="midnightblue" points="612.33,-100.99 621.404,-95.5201 610.9,-94.1378 612.33,-100.99"/>
</g>
<!-- Node10 -->
<g id="node10" class="node"><title>Node10</title>
<g id="a_node10"><a xlink:href="../../d3/ded/classprolog_1_1terms_1_1Term_a866b2cca50e77e99b560578b2fa3a91a.html#a866b2cca50e77e99b560578b2fa3a91a" target="_top" xlink:title="Unify dereferenced. ">
<polygon fill="none" stroke="black" points="601,-114.5 601,-133.5 735,-133.5 735,-114.5 601,-114.5"/>
<text text-anchor="middle" x="668" y="-121.5" font-family="Helvetica,sans-Serif" font-size="10.00">prolog.terms.Term.unify_to</text>
</a>
</g>
</g>
<!-- Node8&#45;&gt;Node10 -->
<g id="edge10" class="edge"><title>Node8&#45;&gt;Node10</title>
<path fill="none" stroke="midnightblue" d="M544.09,-124C558.99,-124 575.197,-124 590.807,-124"/>
<polygon fill="midnightblue" stroke="midnightblue" points="590.959,-127.5 600.959,-124 590.959,-120.5 590.959,-127.5"/>
</g>
<!-- Node13 -->
<g id="node13" class="node"><title>Node13</title>
<g id="a_node13"><a xlink:href="../../da/d93/classprolog_1_1terms_1_1ObjectStack_aaa01178e10f20beab62b1410ba720606.html#aaa01178e10f20beab62b1410ba720606" target="_top" xlink:title="prolog.terms.ObjectStack.pop">
<polygon fill="none" stroke="black" points="595,-278.5 595,-297.5 741,-297.5 741,-278.5 595,-278.5"/>
<text text-anchor="middle" x="668" y="-285.5" font-family="Helvetica,sans-Serif" font-size="10.00">prolog.terms.ObjectStack.pop</text>
</a>
</g>
</g>
<!-- Node12&#45;&gt;Node13 -->
<g id="edge13" class="edge"><title>Node12&#45;&gt;Node13</title>
<path fill="none" stroke="midnightblue" d="M530.926,-259.589C555.376,-264.694 585.633,-271.011 611.403,-276.392"/>
<polygon fill="midnightblue" stroke="midnightblue" points="610.9,-279.862 621.404,-278.48 612.33,-273.01 610.9,-279.862"/>
</g>
<!-- Node14 -->
<g id="node14" class="node"><title>Node14</title>
<g id="a_node14"><a xlink:href="../../d3/ded/classprolog_1_1terms_1_1Term_ac710eec3650309d160ca04e364804e47.html#ac710eec3650309d160ca04e364804e47" target="_top" xlink:title="prolog.terms.Term.undo">
<polygon fill="none" stroke="black" points="608,-240.5 608,-259.5 728,-259.5 728,-240.5 608,-240.5"/>
<text text-anchor="middle" x="668" y="-247.5" font-family="Helvetica,sans-Serif" font-size="10.00">prolog.terms.Term.undo</text>
</a>
</g>
</g>
<!-- Node12&#45;&gt;Node14 -->
<g id="edge14" class="edge"><title>Node12&#45;&gt;Node14</title>
<path fill="none" stroke="midnightblue" d="M547.125,-250C563.413,-250 581.078,-250 597.714,-250"/>
<polygon fill="midnightblue" stroke="midnightblue" points="597.919,-253.5 607.919,-250 597.919,-246.5 597.919,-253.5"/>
</g>
<!-- Node15&#45;&gt;Node9 -->
<g id="edge16" class="edge"><title>Node15&#45;&gt;Node9</title>
<path fill="none" stroke="midnightblue" d="M362.535,-86C431.511,-86 535.649,-86 602.485,-86"/>
<polygon fill="midnightblue" stroke="midnightblue" points="602.88,-89.5001 612.88,-86 602.88,-82.5001 602.88,-89.5001"/>
</g>
<!-- Node16&#45;&gt;Node9 -->
<g id="edge18" class="edge"><title>Node16&#45;&gt;Node9</title>
<path fill="none" stroke="midnightblue" d="M363.417,-55.237C432.404,-62.2276 535.954,-72.7207 602.504,-79.4644"/>
<polygon fill="midnightblue" stroke="midnightblue" points="602.555,-82.9874 612.857,-80.5135 603.26,-76.023 602.555,-82.9874"/>
</g>
</g>
</svg>
