<?xml version="1.0" encoding="UTF-8" standalone="no"?>
<!DOCTYPE svg PUBLIC "-//W3C//DTD SVG 1.1//EN"
 "http://www.w3.org/Graphics/SVG/1.1/DTD/svg11.dtd">
<!-- Generated by graphviz version 2.38.0 (20140413.2041)
 -->
<!-- Title: prolog.io.ClauseReader.ClauseReader Pages: 1 -->
<svg width="912pt" height="66pt"
 viewBox="0.00 0.00 912.00 66.00" xmlns="http://www.w3.org/2000/svg" xmlns:xlink="http://www.w3.org/1999/xlink">
<g id="graph0" class="graph" transform="scale(1 1) rotate(0) translate(4 62)">
<title>prolog.io.ClauseReader.ClauseReader</title>
<!-- Node1 -->
<g id="node1" class="node"><title>Node1</title>
<polygon fill="#bfbfbf" stroke="black" points="0,-14 0,-44 152,-44 152,-14 0,-14"/>
<text text-anchor="start" x="8" y="-32" font-family="Helvetica,sans-Serif" font-size="10.00">prolog.io.ClauseReader.Clause</text>
<text text-anchor="middle" x="76" y="-21" font-family="Helvetica,sans-Serif" font-size="10.00">Reader</text>
</g>
<!-- Node2 -->
<g id="node2" class="node"><title>Node2</title>
<g id="a_node2"><a xlink:href="../../d4/d09/classprolog_1_1io_1_1ClauseReader_a8387683cac3f9e48c645bb20c9e8fc8a.html#a8387683cac3f9e48c645bb20c9e8fc8a" target="_top" xlink:title="prolog.io.ClauseReader.make\l_parser">
<polygon fill="none" stroke="black" points="188,-14 188,-44 334,-44 334,-14 188,-14"/>
<text text-anchor="start" x="196" y="-32" font-family="Helvetica,sans-Serif" font-size="10.00">prolog.io.ClauseReader.make</text>
<text text-anchor="middle" x="261" y="-21" font-family="Helvetica,sans-Serif" font-size="10.00">_parser</text>
</a>
</g>
</g>
<!-- Node1&#45;&gt;Node2 -->
<g id="edge1" class="edge"><title>Node1&#45;&gt;Node2</title>
<path fill="none" stroke="midnightblue" d="M152.225,-29C160.565,-29 169.092,-29 177.516,-29"/>
<polygon fill="midnightblue" stroke="midnightblue" points="177.72,-32.5001 187.72,-29 177.72,-25.5001 177.72,-32.5001"/>
</g>
<!-- Node3 -->
<g id="node3" class="node"><title>Node3</title>
<g id="a_node3"><a xlink:href="../../d4/dc2/classprolog_1_1io_1_1IO_ab6e0553457312c4804472cbe1c646a28.html#ab6e0553457312c4804472cbe1c646a28" target="_top" xlink:title="prolog.io.IO.errmes">
<polygon fill="none" stroke="black" points="370,-19.5 370,-38.5 470,-38.5 470,-19.5 370,-19.5"/>
<text text-anchor="middle" x="420" y="-26.5" font-family="Helvetica,sans-Serif" font-size="10.00">prolog.io.IO.errmes</text>
</a>
</g>
</g>
<!-- Node2&#45;&gt;Node3 -->
<g id="edge2" class="edge"><title>Node2&#45;&gt;Node3</title>
<path fill="none" stroke="midnightblue" d="M334.067,-29C342.663,-29 351.363,-29 359.751,-29"/>
<polygon fill="midnightblue" stroke="midnightblue" points="359.799,-32.5001 369.799,-29 359.799,-25.5001 359.799,-32.5001"/>
</g>
<!-- Node4 -->
<g id="node4" class="node"><title>Node4</title>
<g id="a_node4"><a xlink:href="../../d4/dc2/classprolog_1_1io_1_1IO_ad851906c6ebd6559eb1b1fa52e26dabb.html#ad851906c6ebd6559eb1b1fa52e26dabb" target="_top" xlink:title="prolog.io.IO.println">
<polygon fill="none" stroke="black" points="522,-38.5 522,-57.5 618,-57.5 618,-38.5 522,-38.5"/>
<text text-anchor="middle" x="570" y="-45.5" font-family="Helvetica,sans-Serif" font-size="10.00">prolog.io.IO.println</text>
</a>
</g>
</g>
<!-- Node3&#45;&gt;Node4 -->
<g id="edge3" class="edge"><title>Node3&#45;&gt;Node4</title>
<path fill="none" stroke="midnightblue" d="M470.282,-35.3267C483.549,-37.03 498.015,-38.887 511.679,-40.6413"/>
<polygon fill="midnightblue" stroke="midnightblue" points="511.576,-44.1566 521.94,-41.9585 512.467,-37.2136 511.576,-44.1566"/>
</g>
<!-- Node7 -->
<g id="node7" class="node"><title>Node7</title>
<g id="a_node7"><a xlink:href="../../d4/dc2/classprolog_1_1io_1_1IO_a22a9a2bfe9fa6e00257369f5bf078a44.html#a22a9a2bfe9fa6e00257369f5bf078a44" target="_top" xlink:title="prolog.io.IO.getStdOutput">
<polygon fill="none" stroke="black" points="506,-0.5 506,-19.5 634,-19.5 634,-0.5 506,-0.5"/>
<text text-anchor="middle" x="570" y="-7.5" font-family="Helvetica,sans-Serif" font-size="10.00">prolog.io.IO.getStdOutput</text>
</a>
</g>
</g>
<!-- Node3&#45;&gt;Node7 -->
<g id="edge6" class="edge"><title>Node3&#45;&gt;Node7</title>
<path fill="none" stroke="midnightblue" d="M470.282,-22.6733C478.502,-21.6181 487.181,-20.5038 495.845,-19.3916"/>
<polygon fill="midnightblue" stroke="midnightblue" points="496.507,-22.8354 505.98,-18.0904 495.616,-15.8923 496.507,-22.8354"/>
</g>
<!-- Node5 -->
<g id="node5" class="node"><title>Node5</title>
<g id="a_node5"><a xlink:href="../../d4/dc2/classprolog_1_1io_1_1IO_aab64872af087c6cd9c5dd13e9f4eda00.html#aab64872af087c6cd9c5dd13e9f4eda00" target="_top" xlink:title="prolog.io.IO.print">
<polygon fill="none" stroke="black" points="670,-38.5 670,-57.5 759,-57.5 759,-38.5 670,-38.5"/>
<text text-anchor="middle" x="714.5" y="-45.5" font-family="Helvetica,sans-Serif" font-size="10.00">prolog.io.IO.print</text>
</a>
</g>
</g>
<!-- Node4&#45;&gt;Node5 -->
<g id="edge4" class="edge"><title>Node4&#45;&gt;Node5</title>
<path fill="none" stroke="midnightblue" d="M618.055,-48C631.363,-48 645.948,-48 659.625,-48"/>
<polygon fill="midnightblue" stroke="midnightblue" points="659.869,-51.5001 669.869,-48 659.869,-44.5001 659.869,-51.5001"/>
</g>
<!-- Node6 -->
<g id="node6" class="node"><title>Node6</title>
<g id="a_node6"><a xlink:href="../../d6/d92/interfaceprolog_1_1io_1_1IOPeer_abc1f90b85b358011e2595069d38ac25f.html#abc1f90b85b358011e2595069d38ac25f" target="_top" xlink:title="prolog.io.IOPeer.print">
<polygon fill="none" stroke="black" points="795,-38.5 795,-57.5 904,-57.5 904,-38.5 795,-38.5"/>
<text text-anchor="middle" x="849.5" y="-45.5" font-family="Helvetica,sans-Serif" font-size="10.00">prolog.io.IOPeer.print</text>
</a>
</g>
</g>
<!-- Node5&#45;&gt;Node6 -->
<g id="edge5" class="edge"><title>Node5&#45;&gt;Node6</title>
<path fill="none" stroke="midnightblue" d="M759.049,-48C767.217,-48 775.911,-48 784.548,-48"/>
<polygon fill="midnightblue" stroke="midnightblue" points="784.626,-51.5001 794.625,-48 784.625,-44.5001 784.626,-51.5001"/>
</g>
</g>
</svg>
