<?xml version="1.0" encoding="UTF-8" standalone="no"?>
<!DOCTYPE svg PUBLIC "-//W3C//DTD SVG 1.1//EN"
 "http://www.w3.org/Graphics/SVG/1.1/DTD/svg11.dtd">
<!-- Generated by graphviz version 2.38.0 (20140413.2041)
 -->
<!-- Title: prolog.builtins.db_to_string.exec Pages: 1 -->
<!--zoomable 154 -->
<svg id="main" version="1.1" xmlns="http://www.w3.org/2000/svg" xmlns:xlink="http://www.w3.org/1999/xlink" xml:space="preserve" onload="init(evt)">
<style type="text/css"><![CDATA[
.edge:hover path { stroke: red; }
.edge:hover polygon { stroke: red; fill: red; }
]]></style>
<script type="text/javascript"><![CDATA[
var edges = document.getElementsByTagName('g');
if (edges && edges.length) {
  for (var i=0;i<edges.length;i++) {
    if (edges[i].id.substr(0,4)=='edge') {
      edges[i].setAttribute('class','edge');
    }
  }
}
]]></script>
        <defs>
                <circle id="rim" cx="0" cy="0" r="7"/>
                <circle id="rim2" cx="0" cy="0" r="3.5"/>
                <g id="zoomPlus">
                        <use xlink:href="#rim" fill="#404040">
                                <set attributeName="fill" to="#808080" begin="zoomplus.mouseover" end="zoomplus.mouseout"/>
                        </use>
                        <path d="M-4,0h8M0,-4v8" fill="none" stroke="white" stroke-width="1.5" pointer-events="none"/>
                </g>
                <g id="zoomMin">
                        <use xlink:href="#rim" fill="#404040">
                                <set attributeName="fill" to="#808080" begin="zoomminus.mouseover" end="zoomminus.mouseout"/>
                        </use>
                        <path d="M-4,0h8" fill="none" stroke="white" stroke-width="1.5" pointer-events="none"/>
                </g>
                <g id="dirArrow">
                        <path fill="none" stroke="white" stroke-width="1.5" d="M0,-3.0v7 M-2.5,-0.5L0,-3.0L2.5,-0.5"/>
                </g>
               <g id="resetDef">
                       <use xlink:href="#rim2" fill="#404040">
                               <set attributeName="fill" to="#808080" begin="reset.mouseover" end="reset.mouseout"/>
                       </use>
               </g>
        </defs>

<script type="text/javascript">
var viewWidth = 1014;
var viewHeight = 154;
var sectionId = 'dynsection-0';
</script>
<script xlink:href="../../svgpan.js"/>
<svg id="graph" class="graph">
<g id="viewport">
<title>prolog.builtins.db_to_string.exec</title>
<!-- Node1 -->
<g id="node1" class="node"><title>Node1</title>
<polygon fill="#bfbfbf" stroke="black" points="0,-77 0,-107 90,-107 90,-77 0,-77"/>
<text text-anchor="start" x="8" y="-95" font-family="Helvetica,sans-Serif" font-size="10.00">prolog.builtins.db</text>
<text text-anchor="middle" x="45" y="-84" font-family="Helvetica,sans-Serif" font-size="10.00">_to_string.exec</text>
</g>
<!-- Node2 -->
<g id="node2" class="node"><title>Node2</title>
<g id="a_node2"><a xlink:href="../../d0/d3f/classprolog_1_1terms_1_1Const_a2f00757ecfe3ace23e67c5537c34cfbd.html#a2f00757ecfe3ace23e67c5537c34cfbd" target="_top" xlink:title="prolog.terms.Const.Const">
<polygon fill="none" stroke="black" points="136,-120.5 136,-139.5 265,-139.5 265,-120.5 136,-120.5"/>
<text text-anchor="middle" x="200.5" y="-127.5" font-family="Helvetica,sans-Serif" font-size="10.00">prolog.terms.Const.Const</text>
</a>
</g>
</g>
<!-- Node1&#45;&gt;Node2 -->
<g id="edge1" class="edge"><title>Node1&#45;&gt;Node2</title>
<path fill="none" stroke="midnightblue" d="M90.3986,-102.991C109.399,-107.695 131.638,-113.2 151.063,-118.009"/>
<polygon fill="midnightblue" stroke="midnightblue" points="150.385,-121.447 160.933,-120.452 152.067,-114.652 150.385,-121.447"/>
</g>
<!-- Node3 -->
<g id="node3" class="node"><title>Node3</title>
<g id="a_node3"><a xlink:href="../../da/dd9/classprolog_1_1fluents_1_1DataBase_abee194bd51b63bf7758b4ae2b2795b04.html#abee194bd51b63bf7758b4ae2b2795b04" target="_top" xlink:title="Returns a formatted String representation of this PrologBlackboard object. ">
<polygon fill="none" stroke="black" points="126,-82.5 126,-101.5 275,-101.5 275,-82.5 126,-82.5"/>
<text text-anchor="middle" x="200.5" y="-89.5" font-family="Helvetica,sans-Serif" font-size="10.00">prolog.fluents.DataBase.pprint</text>
</a>
</g>
</g>
<!-- Node1&#45;&gt;Node3 -->
<g id="edge2" class="edge"><title>Node1&#45;&gt;Node3</title>
<path fill="none" stroke="midnightblue" d="M90.3986,-92C98.4173,-92 107.013,-92 115.73,-92"/>
<polygon fill="midnightblue" stroke="midnightblue" points="115.992,-95.5001 125.992,-92 115.992,-88.5001 115.992,-95.5001"/>
</g>
<!-- Node9 -->
<g id="node9" class="node"><title>Node9</title>
<g id="a_node9"><a xlink:href="../../de/d8d/classprolog_1_1terms_1_1Fun_a408f688b791b731a83c6a41a8ee32fb0.html#a408f688b791b731a83c6a41a8ee32fb0" target="_top" xlink:title="prolog.terms.Fun.putArg">
<polygon fill="none" stroke="black" points="139.5,-38.5 139.5,-57.5 261.5,-57.5 261.5,-38.5 139.5,-38.5"/>
<text text-anchor="middle" x="200.5" y="-45.5" font-family="Helvetica,sans-Serif" font-size="10.00">prolog.terms.Fun.putArg</text>
</a>
</g>
</g>
<!-- Node1&#45;&gt;Node9 -->
<g id="edge9" class="edge"><title>Node1&#45;&gt;Node9</title>
<path fill="none" stroke="midnightblue" d="M90.3986,-79.2734C111.096,-73.3407 135.635,-66.3067 156.194,-60.4135"/>
<polygon fill="midnightblue" stroke="midnightblue" points="157.284,-63.7421 165.932,-57.622 155.355,-57.013 157.284,-63.7421"/>
</g>
<!-- Node4 -->
<g id="node4" class="node"><title>Node4</title>
<g id="a_node4"><a xlink:href="../../de/dd4/classprolog_1_1fluents_1_1HashDict_a54f03897afa22d30704aa1a5a8d341e2.html#a54f03897afa22d30704aa1a5a8d341e2" target="_top" xlink:title="prolog.fluents.HashDict.name">
<polygon fill="none" stroke="black" points="311,-126.5 311,-145.5 457,-145.5 457,-126.5 311,-126.5"/>
<text text-anchor="middle" x="384" y="-133.5" font-family="Helvetica,sans-Serif" font-size="10.00">prolog.fluents.HashDict.name</text>
</a>
</g>
</g>
<!-- Node3&#45;&gt;Node4 -->
<g id="edge3" class="edge"><title>Node3&#45;&gt;Node4</title>
<path fill="none" stroke="midnightblue" d="M240.883,-101.547C268.116,-108.149 304.55,-116.982 333.71,-124.051"/>
<polygon fill="midnightblue" stroke="midnightblue" points="333.151,-127.517 343.694,-126.471 334.8,-120.714 333.151,-127.517"/>
</g>
<!-- Node5 -->
<g id="node5" class="node"><title>Node5</title>
<g id="a_node5"><a xlink:href="../../da/dd9/classprolog_1_1fluents_1_1DataBase_a2943c1694ea86572574a57f1a31f11c2.html#a2943c1694ea86572574a57f1a31f11c2" target="_top" xlink:title="prolog.fluents.DataBase.pred\l_to_string">
<polygon fill="none" stroke="black" points="312.5,-77 312.5,-107 455.5,-107 455.5,-77 312.5,-77"/>
<text text-anchor="start" x="320.5" y="-95" font-family="Helvetica,sans-Serif" font-size="10.00">prolog.fluents.DataBase.pred</text>
<text text-anchor="middle" x="384" y="-84" font-family="Helvetica,sans-Serif" font-size="10.00">_to_string</text>
</a>
</g>
</g>
<!-- Node3&#45;&gt;Node5 -->
<g id="edge4" class="edge"><title>Node3&#45;&gt;Node5</title>
<path fill="none" stroke="midnightblue" d="M275.061,-85.3588C283.986,-85.2446 293.14,-85.2203 302.163,-85.2859"/>
<polygon fill="midnightblue" stroke="midnightblue" points="302.235,-88.7868 312.274,-85.3982 302.313,-81.7873 302.235,-88.7868"/>
</g>
<!-- Node5&#45;&gt;Node3 -->
<g id="edge8" class="edge"><title>Node5&#45;&gt;Node3</title>
<path fill="none" stroke="midnightblue" d="M312.274,-98.6018C303.402,-98.7351 294.262,-98.7785 285.216,-98.7319"/>
<polygon fill="midnightblue" stroke="midnightblue" points="285.092,-95.2308 275.061,-98.6412 285.03,-102.231 285.092,-95.2308"/>
</g>
<!-- Node6 -->
<g id="node6" class="node"><title>Node6</title>
<g id="a_node6"><a xlink:href="../../de/d23/classprolog_1_1fluents_1_1Queue_aa5b9659115a717ce9a4bd1976f7bda66.html#aa5b9659115a717ce9a4bd1976f7bda66" target="_top" xlink:title="prolog.fluents.Queue.toEnumeration">
<polygon fill="none" stroke="black" points="493,-82.5 493,-101.5 666,-101.5 666,-82.5 493,-82.5"/>
<text text-anchor="middle" x="579.5" y="-89.5" font-family="Helvetica,sans-Serif" font-size="10.00">prolog.fluents.Queue.toEnumeration</text>
</a>
</g>
</g>
<!-- Node5&#45;&gt;Node6 -->
<g id="edge5" class="edge"><title>Node5&#45;&gt;Node6</title>
<path fill="none" stroke="midnightblue" d="M455.679,-92C464.465,-92 473.56,-92 482.645,-92"/>
<polygon fill="midnightblue" stroke="midnightblue" points="482.88,-95.5001 492.88,-92 482.88,-88.5001 482.88,-95.5001"/>
</g>
<!-- Node7 -->
<g id="node7" class="node"><title>Node7</title>
<g id="a_node7"><a xlink:href="../../de/d23/classprolog_1_1fluents_1_1Queue_adca2003759e9be115f6006eee370209a.html#adca2003759e9be115f6006eee370209a" target="_top" xlink:title="prolog.fluents.Queue.toVector">
<polygon fill="none" stroke="black" points="702,-82.5 702,-101.5 848,-101.5 848,-82.5 702,-82.5"/>
<text text-anchor="middle" x="775" y="-89.5" font-family="Helvetica,sans-Serif" font-size="10.00">prolog.fluents.Queue.toVector</text>
</a>
</g>
</g>
<!-- Node6&#45;&gt;Node7 -->
<g id="edge6" class="edge"><title>Node6&#45;&gt;Node7</title>
<path fill="none" stroke="midnightblue" d="M666.217,-92C674.697,-92 683.292,-92 691.737,-92"/>
<polygon fill="midnightblue" stroke="midnightblue" points="691.945,-95.5001 701.945,-92 691.944,-88.5001 691.945,-95.5001"/>
</g>
<!-- Node8 -->
<g id="node8" class="node"><title>Node8</title>
<g id="a_node8"><a xlink:href="../../de/d23/classprolog_1_1fluents_1_1Queue_a3d1135124c700679bbd665d253dd9f0f.html#a3d1135124c700679bbd665d253dd9f0f" target="_top" xlink:title="prolog.fluents.Queue.inc">
<polygon fill="none" stroke="black" points="884,-82.5 884,-101.5 1006,-101.5 1006,-82.5 884,-82.5"/>
<text text-anchor="middle" x="945" y="-89.5" font-family="Helvetica,sans-Serif" font-size="10.00">prolog.fluents.Queue.inc</text>
</a>
</g>
</g>
<!-- Node7&#45;&gt;Node8 -->
<g id="edge7" class="edge"><title>Node7&#45;&gt;Node8</title>
<path fill="none" stroke="midnightblue" d="M848.222,-92C856.694,-92 865.33,-92 873.774,-92"/>
<polygon fill="midnightblue" stroke="midnightblue" points="873.956,-95.5001 883.956,-92 873.956,-88.5001 873.956,-95.5001"/>
</g>
<!-- Node10 -->
<g id="node10" class="node"><title>Node10</title>
<g id="a_node10"><a xlink:href="../../d3/ded/classprolog_1_1terms_1_1Term_a84d8fb7e1f816d0dbe3c2c56ed28fdb9.html#a84d8fb7e1f816d0dbe3c2c56ed28fdb9" target="_top" xlink:title="Dereference and unify_to. ">
<polygon fill="none" stroke="black" points="324,-38.5 324,-57.5 444,-57.5 444,-38.5 324,-38.5"/>
<text text-anchor="middle" x="384" y="-45.5" font-family="Helvetica,sans-Serif" font-size="10.00">prolog.terms.Term.unify</text>
</a>
</g>
</g>
<!-- Node9&#45;&gt;Node10 -->
<g id="edge10" class="edge"><title>Node9&#45;&gt;Node10</title>
<path fill="none" stroke="midnightblue" d="M261.685,-48C278.263,-48 296.382,-48 313.442,-48"/>
<polygon fill="midnightblue" stroke="midnightblue" points="313.905,-51.5001 323.905,-48 313.905,-44.5001 313.905,-51.5001"/>
</g>
<!-- Node13 -->
<g id="node13" class="node"><title>Node13</title>
<g id="a_node13"><a xlink:href="../../d4/d26/classprolog_1_1terms_1_1Prog_a41eac8617a5002806d7137eb36183405.html#a41eac8617a5002806d7137eb36183405" target="_top" xlink:title="prolog.terms.Prog.getTrail">
<polygon fill="none" stroke="black" points="319.5,-0.5 319.5,-19.5 448.5,-19.5 448.5,-0.5 319.5,-0.5"/>
<text text-anchor="middle" x="384" y="-7.5" font-family="Helvetica,sans-Serif" font-size="10.00">prolog.terms.Prog.getTrail</text>
</a>
</g>
</g>
<!-- Node9&#45;&gt;Node13 -->
<g id="edge13" class="edge"><title>Node9&#45;&gt;Node13</title>
<path fill="none" stroke="midnightblue" d="M247.3,-38.411C271.683,-33.3061 301.857,-26.9887 327.556,-21.6082"/>
<polygon fill="midnightblue" stroke="midnightblue" points="328.459,-24.9951 337.529,-19.5201 327.024,-18.1436 328.459,-24.9951"/>
</g>
<!-- Node11 -->
<g id="node11" class="node"><title>Node11</title>
<g id="a_node11"><a xlink:href="../../d3/ded/classprolog_1_1terms_1_1Term_ae140fac2c9d066dc897fcfa723060a7a.html#ae140fac2c9d066dc897fcfa723060a7a" target="_top" xlink:title="Dereferences if necessary. ">
<polygon fill="none" stroke="black" points="524.5,-41.5 524.5,-60.5 634.5,-60.5 634.5,-41.5 524.5,-41.5"/>
<text text-anchor="middle" x="579.5" y="-48.5" font-family="Helvetica,sans-Serif" font-size="10.00">prolog.terms.Term.ref</text>
</a>
</g>
</g>
<!-- Node10&#45;&gt;Node11 -->
<g id="edge11" class="edge"><title>Node10&#45;&gt;Node11</title>
<path fill="none" stroke="midnightblue" d="M444.108,-48.9164C466.275,-49.2601 491.567,-49.6522 514.184,-50.0028"/>
<polygon fill="midnightblue" stroke="midnightblue" points="514.313,-53.5052 524.366,-50.1607 514.422,-46.506 514.313,-53.5052"/>
</g>
<!-- Node12 -->
<g id="node12" class="node"><title>Node12</title>
<g id="a_node12"><a xlink:href="../../d3/ded/classprolog_1_1terms_1_1Term_a866b2cca50e77e99b560578b2fa3a91a.html#a866b2cca50e77e99b560578b2fa3a91a" target="_top" xlink:title="Unify dereferenced. ">
<polygon fill="none" stroke="black" points="512.5,-3.5 512.5,-22.5 646.5,-22.5 646.5,-3.5 512.5,-3.5"/>
<text text-anchor="middle" x="579.5" y="-10.5" font-family="Helvetica,sans-Serif" font-size="10.00">prolog.terms.Term.unify_to</text>
</a>
</g>
</g>
<!-- Node10&#45;&gt;Node12 -->
<g id="edge12" class="edge"><title>Node10&#45;&gt;Node12</title>
<path fill="none" stroke="midnightblue" d="M437.619,-38.4823C461.825,-34.1041 490.72,-28.8775 516.024,-24.3006"/>
<polygon fill="midnightblue" stroke="midnightblue" points="516.674,-27.7399 525.891,-22.5158 515.428,-20.8516 516.674,-27.7399"/>
</g>
</g>
</svg>
        <g id="navigator" transform="translate(0 0)" fill="#404254">
                <rect fill="#f2f5e9" fill-opacity="0.5" stroke="#606060" stroke-width=".5" x="0" y="0" width="60" height="60"/>
                <use id="zoomplus" xlink:href="#zoomPlus" x="17" y="9" onmousedown="handleZoom(evt,'in')"/>
                <use id="zoomminus" xlink:href="#zoomMin" x="42" y="9" onmousedown="handleZoom(evt,'out')"/>
                <use id="reset" xlink:href="#resetDef" x="30" y="36" onmousedown="handleReset()"/>
                <g id="arrowUp" xlink:href="#dirArrow" transform="translate(30 24)" onmousedown="handlePan(0,-1)">
                  <use xlink:href="#rim" fill="#404040">
                        <set attributeName="fill" to="#808080" begin="arrowUp.mouseover" end="arrowUp.mouseout"/>
                  </use>
                  <path fill="none" stroke="white" stroke-width="1.5" d="M0,-3.0v7 M-2.5,-0.5L0,-3.0L2.5,-0.5"/>
                </g>
                <g id="arrowRight" xlink:href="#dirArrow" transform="rotate(90) translate(36 -43)" onmousedown="handlePan(1,0)">
                  <use xlink:href="#rim" fill="#404040">
                        <set attributeName="fill" to="#808080" begin="arrowRight.mouseover" end="arrowRight.mouseout"/>
                  </use>
                  <path fill="none" stroke="white" stroke-width="1.5" d="M0,-3.0v7 M-2.5,-0.5L0,-3.0L2.5,-0.5"/>
                </g>
                <g id="arrowDown" xlink:href="#dirArrow" transform="rotate(180) translate(-30 -48)" onmousedown="handlePan(0,1)">
                  <use xlink:href="#rim" fill="#404040">
                        <set attributeName="fill" to="#808080" begin="arrowDown.mouseover" end="arrowDown.mouseout"/>
                  </use>
                  <path fill="none" stroke="white" stroke-width="1.5" d="M0,-3.0v7 M-2.5,-0.5L0,-3.0L2.5,-0.5"/>
                </g>
                <g id="arrowLeft" xlink:href="#dirArrow" transform="rotate(270) translate(-36 17)" onmousedown="handlePan(-1,0)">
                  <use xlink:href="#rim" fill="#404040">
                        <set attributeName="fill" to="#808080" begin="arrowLeft.mouseover" end="arrowLeft.mouseout"/>
                  </use>
                  <path fill="none" stroke="white" stroke-width="1.5" d="M0,-3.0v7 M-2.5,-0.5L0,-3.0L2.5,-0.5"/>
                </g>
        </g>
        <svg viewBox="0 0 15 15" width="100%" height="30px" preserveAspectRatio="xMaxYMin meet">
         <g id="arrow_out" transform="scale(0.3 0.3)">
          <a xlink:href="classprolog_1_1builtins_1_1db__to__string_a9ce40787f8196bff94e7b1393e0dc51b_a9ce40787f8196bff94e7b1393e0dc51b_cgraph_org.svg" target="_base">
           <rect id="button" ry="5" rx="5" y="6" x="6" height="38" width="38"
                fill="#f2f5e9" fill-opacity="0.5" stroke="#606060" stroke-width="1.0"/>
           <path id="arrow"
             d="M 11.500037,31.436501 C 11.940474,20.09759 22.043105,11.32322 32.158766,21.979434 L 37.068811,17.246167 C 37.068811,17.246167 37.088388,32 37.088388,32 L 22.160133,31.978069 C 22.160133,31.978069 26.997745,27.140456 26.997745,27.140456 C 18.528582,18.264221 13.291696,25.230495 11.500037,31.436501 z"
             style="fill:#404040;"/>
          </a>
         </g>
        </svg>
</svg>
