<?xml version="1.0" encoding="UTF-8" standalone="no"?>
<!DOCTYPE svg PUBLIC "-//W3C//DTD SVG 1.1//EN"
 "http://www.w3.org/Graphics/SVG/1.1/DTD/svg11.dtd">
<!-- Generated by graphviz version 2.38.0 (20140413.2041)
 -->
<!-- Title: prolog.io.rbraToken Pages: 1 -->
<svg width="230pt" height="980pt"
 viewBox="0.00 0.00 230.00 980.00" xmlns="http://www.w3.org/2000/svg" xmlns:xlink="http://www.w3.org/1999/xlink">
<g id="graph0" class="graph" transform="scale(1 1) rotate(0) translate(4 976)">
<title>prolog.io.rbraToken</title>
<!-- Node1 -->
<g id="node1" class="node"><title>Node1</title>
<polygon fill="#bfbfbf" stroke="black" points="0,-0.5 0,-57.5 100,-57.5 100,-0.5 0,-0.5"/>
<text text-anchor="middle" x="50" y="-45.5" font-family="Helvetica,sans-Serif" font-size="10.00">prolog.io.rbraToken</text>
<polyline fill="none" stroke="black" points="0,-38.5 100,-38.5 "/>
<text text-anchor="middle" x="50" y="-26.5" font-family="Helvetica,sans-Serif" font-size="10.00"> </text>
<polyline fill="none" stroke="black" points="0,-19.5 100,-19.5 "/>
<text text-anchor="start" x="8" y="-7.5" font-family="Helvetica,sans-Serif" font-size="10.00">+ rbraToken()</text>
</g>
<!-- Node2 -->
<g id="node2" class="node"><title>Node2</title>
<g id="a_node2"><a xlink:href="../../d8/db6/classprolog_1_1io_1_1Token.html" target="_top" xlink:title="{prolog.io.Token\n||~ Token()\l}">
<polygon fill="none" stroke="black" points="8.5,-101 8.5,-158 91.5,-158 91.5,-101 8.5,-101"/>
<text text-anchor="middle" x="50" y="-146" font-family="Helvetica,sans-Serif" font-size="10.00">prolog.io.Token</text>
<polyline fill="none" stroke="black" points="8.5,-139 91.5,-139 "/>
<text text-anchor="middle" x="50" y="-127" font-family="Helvetica,sans-Serif" font-size="10.00"> </text>
<polyline fill="none" stroke="black" points="8.5,-120 91.5,-120 "/>
<text text-anchor="start" x="16.5" y="-108" font-family="Helvetica,sans-Serif" font-size="10.00">~ Token()</text>
</a>
</g>
</g>
<!-- Node2&#45;&gt;Node1 -->
<g id="edge1" class="edge"><title>Node2&#45;&gt;Node1</title>
<path fill="none" stroke="midnightblue" d="M50,-90.6501C50,-79.732 50,-68.0231 50,-57.8332"/>
<polygon fill="none" stroke="midnightblue" points="46.5001,-90.8001 50,-100.8 53.5001,-90.8002 46.5001,-90.8001"/>
</g>
<!-- Node3 -->
<g id="node3" class="node"><title>Node3</title>
<g id="a_node3"><a xlink:href="../../d0/d3f/classprolog_1_1terms_1_1Const.html" target="_top" xlink:title="Symbolic constant, of arity 0. ">
<polygon fill="none" stroke="black" points="70,-211.5 70,-356.5 170,-356.5 170,-211.5 70,-211.5"/>
<text text-anchor="middle" x="120" y="-344.5" font-family="Helvetica,sans-Serif" font-size="10.00">prolog.terms.Const</text>
<polyline fill="none" stroke="black" points="70,-337.5 170,-337.5 "/>
<text text-anchor="start" x="78" y="-325.5" font-family="Helvetica,sans-Serif" font-size="10.00">&#45; sym</text>
<polyline fill="none" stroke="black" points="70,-318.5 170,-318.5 "/>
<text text-anchor="start" x="78" y="-306.5" font-family="Helvetica,sans-Serif" font-size="10.00">+ Const()</text>
<text text-anchor="start" x="78" y="-295.5" font-family="Helvetica,sans-Serif" font-size="10.00">+ name()</text>
<text text-anchor="start" x="78" y="-284.5" font-family="Helvetica,sans-Serif" font-size="10.00">+ qname()</text>
<text text-anchor="start" x="78" y="-273.5" font-family="Helvetica,sans-Serif" font-size="10.00">+ toString()</text>
<text text-anchor="start" x="78" y="-262.5" font-family="Helvetica,sans-Serif" font-size="10.00">+ getKey()</text>
<text text-anchor="start" x="78" y="-251.5" font-family="Helvetica,sans-Serif" font-size="10.00">+ getArity()</text>
<text text-anchor="start" x="78" y="-240.5" font-family="Helvetica,sans-Serif" font-size="10.00">+ toUnquoted()</text>
<text text-anchor="start" x="78" y="-229.5" font-family="Helvetica,sans-Serif" font-size="10.00">+ the()</text>
<text text-anchor="start" x="78" y="-218.5" font-family="Helvetica,sans-Serif" font-size="10.00">~ bind_to()</text>
</a>
</g>
</g>
<!-- Node3&#45;&gt;Node2 -->
<g id="edge2" class="edge"><title>Node3&#45;&gt;Node2</title>
<path fill="none" stroke="midnightblue" d="M82.787,-201.929C75.556,-186.175 68.4514,-170.698 62.7145,-158.199"/>
<polygon fill="none" stroke="midnightblue" points="79.6971,-203.587 87.0497,-211.216 86.0589,-200.667 79.6971,-203.587"/>
</g>
<!-- Node3&#45;&gt;Node3 -->
<g id="edge9" class="edge"><title>Node3&#45;&gt;Node3</title>
<path fill="none" stroke="#404040" d="M170.114,-300.282C180.518,-298.568 188,-293.141 188,-284 188,-278.716 185.499,-274.672 181.379,-271.87"/>
<polygon fill="none" stroke="#404040" points="181.374,-271.868 174.36,-273.546 170.114,-267.718 177.127,-266.04 181.374,-271.868"/>
<text text-anchor="middle" x="205" y="-303.5" font-family="Helvetica,sans-Serif" font-size="10.00"> +aTrue</text>
<text text-anchor="middle" x="205" y="-292.5" font-family="Helvetica,sans-Serif" font-size="10.00">+aNo</text>
<text text-anchor="middle" x="205" y="-281.5" font-family="Helvetica,sans-Serif" font-size="10.00">+anEof</text>
<text text-anchor="middle" x="205" y="-270.5" font-family="Helvetica,sans-Serif" font-size="10.00">+aYes</text>
<text text-anchor="middle" x="205" y="-259.5" font-family="Helvetica,sans-Serif" font-size="10.00">+aFail</text>
</g>
<!-- Node8 -->
<g id="node8" class="node"><title>Node8</title>
<g id="a_node8"><a xlink:href="../../d8/dad/classprolog_1_1terms_1_1Nil.html" target="_top" xlink:title="Special constant terminating a list. ">
<polygon fill="none" stroke="black" points="110,-95.5 110,-163.5 196,-163.5 196,-95.5 110,-95.5"/>
<text text-anchor="middle" x="153" y="-151.5" font-family="Helvetica,sans-Serif" font-size="10.00">prolog.terms.Nil</text>
<polyline fill="none" stroke="black" points="110,-144.5 196,-144.5 "/>
<text text-anchor="middle" x="153" y="-132.5" font-family="Helvetica,sans-Serif" font-size="10.00"> </text>
<polyline fill="none" stroke="black" points="110,-125.5 196,-125.5 "/>
<text text-anchor="start" x="118" y="-113.5" font-family="Helvetica,sans-Serif" font-size="10.00">+ Nil()</text>
<text text-anchor="start" x="118" y="-102.5" font-family="Helvetica,sans-Serif" font-size="10.00">+ Nil()</text>
</a>
</g>
</g>
<!-- Node3&#45;&gt;Node8 -->
<g id="edge8" class="edge"><title>Node3&#45;&gt;Node8</title>
<path fill="none" stroke="midnightblue" d="M132.823,-201.099C134.131,-194.615 135.525,-188.186 137,-182 138.433,-175.989 140.19,-169.655 142.01,-163.563"/>
<polygon fill="none" stroke="midnightblue" points="129.312,-200.82 130.84,-211.304 136.184,-202.156 129.312,-200.82"/>
</g>
<!-- Node4 -->
<g id="node4" class="node"><title>Node4</title>
<g id="a_node4"><a xlink:href="../../d4/de0/classprolog_1_1terms_1_1Nonvar.html" target="_top" xlink:title="Part of the Prolog Term hierarchy. ">
<polygon fill="none" stroke="black" points="67.5,-394.5 67.5,-484.5 172.5,-484.5 172.5,-394.5 67.5,-394.5"/>
<text text-anchor="middle" x="120" y="-472.5" font-family="Helvetica,sans-Serif" font-size="10.00">prolog.terms.Nonvar</text>
<polyline fill="none" stroke="black" points="67.5,-465.5 172.5,-465.5 "/>
<text text-anchor="middle" x="120" y="-453.5" font-family="Helvetica,sans-Serif" font-size="10.00"> </text>
<polyline fill="none" stroke="black" points="67.5,-446.5 172.5,-446.5 "/>
<text text-anchor="start" x="75.5" y="-434.5" font-family="Helvetica,sans-Serif" font-size="10.00">+ name()</text>
<text text-anchor="start" x="75.5" y="-423.5" font-family="Helvetica,sans-Serif" font-size="10.00">~ bind_to()</text>
<text text-anchor="start" x="75.5" y="-412.5" font-family="Helvetica,sans-Serif" font-size="10.00">~ unify_to()</text>
<text text-anchor="start" x="75.5" y="-401.5" font-family="Helvetica,sans-Serif" font-size="10.00">~ listify()</text>
</a>
</g>
</g>
<!-- Node4&#45;&gt;Node3 -->
<g id="edge3" class="edge"><title>Node4&#45;&gt;Node3</title>
<path fill="none" stroke="midnightblue" d="M120,-383.98C120,-375.165 120,-365.921 120,-356.771"/>
<polygon fill="none" stroke="midnightblue" points="116.5,-384.101 120,-394.101 123.5,-384.101 116.5,-384.101"/>
</g>
<!-- Node5 -->
<g id="node5" class="node"><title>Node5</title>
<g id="a_node5"><a xlink:href="../../d3/ded/classprolog_1_1terms_1_1Term.html" target="_top" xlink:title="Top element of the Prolog term hierarchy. ">
<polygon fill="none" stroke="black" points="71,-522.5 71,-876.5 169,-876.5 169,-522.5 71,-522.5"/>
<text text-anchor="middle" x="120" y="-864.5" font-family="Helvetica,sans-Serif" font-size="10.00">prolog.terms.Term</text>
<polyline fill="none" stroke="black" points="71,-857.5 169,-857.5 "/>
<text text-anchor="start" x="79" y="-845.5" font-family="Helvetica,sans-Serif" font-size="10.00">+ JAVA</text>
<text text-anchor="start" x="79" y="-834.5" font-family="Helvetica,sans-Serif" font-size="10.00">+ REAL</text>
<text text-anchor="start" x="79" y="-823.5" font-family="Helvetica,sans-Serif" font-size="10.00">+ INT</text>
<text text-anchor="start" x="79" y="-812.5" font-family="Helvetica,sans-Serif" font-size="10.00">+ VAR</text>
<text text-anchor="start" x="79" y="-801.5" font-family="Helvetica,sans-Serif" font-size="10.00">+ CONST</text>
<polyline fill="none" stroke="black" points="71,-794.5 169,-794.5 "/>
<text text-anchor="start" x="79" y="-782.5" font-family="Helvetica,sans-Serif" font-size="10.00">+ getArity()</text>
<text text-anchor="start" x="79" y="-771.5" font-family="Helvetica,sans-Serif" font-size="10.00">+ ref()</text>
<text text-anchor="start" x="79" y="-760.5" font-family="Helvetica,sans-Serif" font-size="10.00">+ token()</text>
<text text-anchor="start" x="79" y="-749.5" font-family="Helvetica,sans-Serif" font-size="10.00">+ toClause()</text>
<text text-anchor="start" x="79" y="-738.5" font-family="Helvetica,sans-Serif" font-size="10.00">+ matches()</text>
<text text-anchor="start" x="79" y="-727.5" font-family="Helvetica,sans-Serif" font-size="10.00">+ matches()</text>
<text text-anchor="start" x="79" y="-716.5" font-family="Helvetica,sans-Serif" font-size="10.00">+ matching_copy()</text>
<text text-anchor="start" x="79" y="-705.5" font-family="Helvetica,sans-Serif" font-size="10.00">+ copy()</text>
<text text-anchor="start" x="79" y="-694.5" font-family="Helvetica,sans-Serif" font-size="10.00">+ varsOf()</text>
<text text-anchor="start" x="79" y="-683.5" font-family="Helvetica,sans-Serif" font-size="10.00">+ numbervars()</text>
<text text-anchor="start" x="79" y="-672.5" font-family="Helvetica,sans-Serif" font-size="10.00">and 6 more...</text>
<text text-anchor="start" x="79" y="-661.5" font-family="Helvetica,sans-Serif" font-size="10.00">+ fromString()</text>
<text text-anchor="start" x="79" y="-650.5" font-family="Helvetica,sans-Serif" font-size="10.00">+ charsToString()</text>
<text text-anchor="start" x="79" y="-639.5" font-family="Helvetica,sans-Serif" font-size="10.00">~ bind_to()</text>
<text text-anchor="start" x="79" y="-628.5" font-family="Helvetica,sans-Serif" font-size="10.00">~ unify_to()</text>
<text text-anchor="start" x="79" y="-617.5" font-family="Helvetica,sans-Serif" font-size="10.00">~ toTerm()</text>
<text text-anchor="start" x="79" y="-606.5" font-family="Helvetica,sans-Serif" font-size="10.00">~ isClause()</text>
<text text-anchor="start" x="79" y="-595.5" font-family="Helvetica,sans-Serif" font-size="10.00">~ reaction()</text>
<text text-anchor="start" x="79" y="-584.5" font-family="Helvetica,sans-Serif" font-size="10.00">~ action()</text>
<text text-anchor="start" x="79" y="-573.5" font-family="Helvetica,sans-Serif" font-size="10.00">~ exec()</text>
<text text-anchor="start" x="79" y="-562.5" font-family="Helvetica,sans-Serif" font-size="10.00">~ stringToChars()</text>
<text text-anchor="start" x="79" y="-551.5" font-family="Helvetica,sans-Serif" font-size="10.00"># unify()</text>
<text text-anchor="start" x="79" y="-540.5" font-family="Helvetica,sans-Serif" font-size="10.00"># undo()</text>
<text text-anchor="start" x="79" y="-529.5" font-family="Helvetica,sans-Serif" font-size="10.00"># exec()</text>
</a>
</g>
</g>
<!-- Node5&#45;&gt;Node4 -->
<g id="edge4" class="edge"><title>Node5&#45;&gt;Node4</title>
<path fill="none" stroke="midnightblue" d="M120,-512.384C120,-502.458 120,-493.098 120,-484.617"/>
<polygon fill="none" stroke="midnightblue" points="116.5,-512.487 120,-522.487 123.5,-512.487 116.5,-512.487"/>
</g>
<!-- Node6 -->
<g id="node6" class="node"><title>Node6</title>
<polygon fill="none" stroke="#bfbfbf" points="62.5,-914.5 62.5,-971.5 107.5,-971.5 107.5,-914.5 62.5,-914.5"/>
<text text-anchor="middle" x="85" y="-959.5" font-family="Helvetica,sans-Serif" font-size="10.00">Object</text>
<polyline fill="none" stroke="#bfbfbf" points="62.5,-952.5 107.5,-952.5 "/>
<text text-anchor="middle" x="85" y="-940.5" font-family="Helvetica,sans-Serif" font-size="10.00"> </text>
<polyline fill="none" stroke="#bfbfbf" points="62.5,-933.5 107.5,-933.5 "/>
<text text-anchor="middle" x="85" y="-921.5" font-family="Helvetica,sans-Serif" font-size="10.00"> </text>
</g>
<!-- Node6&#45;&gt;Node5 -->
<g id="edge5" class="edge"><title>Node6&#45;&gt;Node5</title>
<path fill="none" stroke="midnightblue" d="M90.4619,-904.313C91.6703,-895.975 93.0272,-886.612 94.478,-876.602"/>
<polygon fill="none" stroke="midnightblue" points="86.9855,-903.898 89.0149,-914.297 93.9131,-904.902 86.9855,-903.898"/>
</g>
<!-- Node7 -->
<g id="node7" class="node"><title>Node7</title>
<polygon fill="none" stroke="#bfbfbf" points="126,-914.5 126,-971.5 186,-971.5 186,-914.5 126,-914.5"/>
<text text-anchor="middle" x="156" y="-959.5" font-family="Helvetica,sans-Serif" font-size="10.00">Cloneable</text>
<polyline fill="none" stroke="#bfbfbf" points="126,-952.5 186,-952.5 "/>
<text text-anchor="middle" x="156" y="-940.5" font-family="Helvetica,sans-Serif" font-size="10.00"> </text>
<polyline fill="none" stroke="#bfbfbf" points="126,-933.5 186,-933.5 "/>
<text text-anchor="middle" x="156" y="-921.5" font-family="Helvetica,sans-Serif" font-size="10.00"> </text>
</g>
<!-- Node7&#45;&gt;Node5 -->
<g id="edge6" class="edge"><title>Node7&#45;&gt;Node5</title>
<path fill="none" stroke="midnightblue" d="M150.382,-904.313C149.139,-895.975 147.743,-886.612 146.251,-876.602"/>
<polygon fill="none" stroke="midnightblue" points="146.934,-904.922 151.87,-914.297 153.858,-903.89 146.934,-904.922"/>
</g>
<!-- Node8&#45;&gt;Node3 -->
<g id="edge7" class="edge"><title>Node8&#45;&gt;Node3</title>
<path fill="none" stroke="#404040" d="M145.857,-163.508C143.53,-174.263 140.831,-186.733 138.074,-199.477"/>
<polygon fill="none" stroke="#404040" points="138.072,-199.487 140.712,-206.197 135.534,-211.216 132.893,-204.505 138.072,-199.487"/>
<text text-anchor="middle" x="155.5" y="-185" font-family="Helvetica,sans-Serif" font-size="10.00"> +aNil</text>
</g>
</g>
</svg>
