<?xml version="1.0" encoding="UTF-8" standalone="no"?>
<!DOCTYPE svg PUBLIC "-//W3C//DTD SVG 1.1//EN"
 "http://www.w3.org/Graphics/SVG/1.1/DTD/svg11.dtd">
<!-- Generated by graphviz version 2.38.0 (20140413.2041)
 -->
<!-- Title: prolog.fluents.TermCollector Pages: 1 -->
<svg width="513pt" height="1425pt"
 viewBox="0.00 0.00 513.00 1425.00" xmlns="http://www.w3.org/2000/svg" xmlns:xlink="http://www.w3.org/1999/xlink">
<g id="graph0" class="graph" transform="scale(1 1) rotate(0) translate(4 1421)">
<title>prolog.fluents.TermCollector</title>
<!-- Node1 -->
<g id="node1" class="node"><title>Node1</title>
<polygon fill="#bfbfbf" stroke="black" points="183,-0.5 183,-90.5 323,-90.5 323,-0.5 183,-0.5"/>
<text text-anchor="middle" x="253" y="-78.5" font-family="Helvetica,sans-Serif" font-size="10.00">prolog.fluents.TermCollector</text>
<polyline fill="none" stroke="black" points="183,-71.5 323,-71.5 "/>
<text text-anchor="middle" x="253" y="-59.5" font-family="Helvetica,sans-Serif" font-size="10.00"> </text>
<polyline fill="none" stroke="black" points="183,-52.5 323,-52.5 "/>
<text text-anchor="start" x="191" y="-40.5" font-family="Helvetica,sans-Serif" font-size="10.00">+ TermCollector()</text>
<text text-anchor="start" x="191" y="-29.5" font-family="Helvetica,sans-Serif" font-size="10.00">+ putElement()</text>
<text text-anchor="start" x="191" y="-18.5" font-family="Helvetica,sans-Serif" font-size="10.00">+ stop()</text>
<text text-anchor="start" x="191" y="-7.5" font-family="Helvetica,sans-Serif" font-size="10.00">+ collect()</text>
</g>
<!-- Node2 -->
<g id="node2" class="node"><title>Node2</title>
<g id="a_node2"><a xlink:href="../../d9/de8/classprolog_1_1terms_1_1Sink.html" target="_top" xlink:title="{prolog.terms.Sink\n||+ Sink()\l+ putElement()\l+ collect()\l}">
<polygon fill="none" stroke="black" points="15.5,-302.5 15.5,-381.5 108.5,-381.5 108.5,-302.5 15.5,-302.5"/>
<text text-anchor="middle" x="62" y="-369.5" font-family="Helvetica,sans-Serif" font-size="10.00">prolog.terms.Sink</text>
<polyline fill="none" stroke="black" points="15.5,-362.5 108.5,-362.5 "/>
<text text-anchor="middle" x="62" y="-350.5" font-family="Helvetica,sans-Serif" font-size="10.00"> </text>
<polyline fill="none" stroke="black" points="15.5,-343.5 108.5,-343.5 "/>
<text text-anchor="start" x="23.5" y="-331.5" font-family="Helvetica,sans-Serif" font-size="10.00">+ Sink()</text>
<text text-anchor="start" x="23.5" y="-320.5" font-family="Helvetica,sans-Serif" font-size="10.00">+ putElement()</text>
<text text-anchor="start" x="23.5" y="-309.5" font-family="Helvetica,sans-Serif" font-size="10.00">+ collect()</text>
</a>
</g>
</g>
<!-- Node2&#45;&gt;Node1 -->
<g id="edge1" class="edge"><title>Node2&#45;&gt;Node1</title>
<path fill="none" stroke="midnightblue" d="M92.5801,-293.849C128.851,-237.923 188.848,-145.415 224.283,-90.7788"/>
<polygon fill="none" stroke="midnightblue" points="89.4748,-292.205 86.9699,-302.499 95.3478,-296.014 89.4748,-292.205"/>
</g>
<!-- Node3 -->
<g id="node3" class="node"><title>Node3</title>
<g id="a_node3"><a xlink:href="../../d9/d3b/classprolog_1_1terms_1_1Fluent.html" target="_top" xlink:title="A Fluent is a Prolog Object which has its own state, subject to changes over time. ">
<polygon fill="none" stroke="black" points="17.5,-539.5 17.5,-651.5 118.5,-651.5 118.5,-539.5 17.5,-539.5"/>
<text text-anchor="middle" x="68" y="-639.5" font-family="Helvetica,sans-Serif" font-size="10.00">prolog.terms.Fluent</text>
<polyline fill="none" stroke="black" points="17.5,-632.5 118.5,-632.5 "/>
<text text-anchor="start" x="25.5" y="-620.5" font-family="Helvetica,sans-Serif" font-size="10.00">&#45; persistent</text>
<polyline fill="none" stroke="black" points="17.5,-613.5 118.5,-613.5 "/>
<text text-anchor="start" x="25.5" y="-601.5" font-family="Helvetica,sans-Serif" font-size="10.00">+ Fluent()</text>
<text text-anchor="start" x="25.5" y="-590.5" font-family="Helvetica,sans-Serif" font-size="10.00">+ setPersistent()</text>
<text text-anchor="start" x="25.5" y="-579.5" font-family="Helvetica,sans-Serif" font-size="10.00">+ getPersistent()</text>
<text text-anchor="start" x="25.5" y="-568.5" font-family="Helvetica,sans-Serif" font-size="10.00">+ stop()</text>
<text text-anchor="start" x="25.5" y="-557.5" font-family="Helvetica,sans-Serif" font-size="10.00"># trailMe()</text>
<text text-anchor="start" x="25.5" y="-546.5" font-family="Helvetica,sans-Serif" font-size="10.00"># undo()</text>
</a>
</g>
</g>
<!-- Node3&#45;&gt;Node2 -->
<g id="edge2" class="edge"><title>Node3&#45;&gt;Node2</title>
<path fill="none" stroke="midnightblue" d="M61.6372,-529.101C60.9588,-520.006 60.3788,-510.775 60,-502 58.0451,-456.709 59.205,-445.326 60,-400 60.1042,-394.06 60.2694,-387.773 60.4613,-381.628"/>
<polygon fill="none" stroke="midnightblue" points="58.1644,-529.585 62.4394,-539.279 65.1428,-529.035 58.1644,-529.585"/>
</g>
<!-- Node11 -->
<g id="node11" class="node"><title>Node11</title>
<g id="a_node11"><a xlink:href="../../d2/d07/classprolog_1_1terms_1_1Source.html" target="_top" xlink:title="{prolog.terms.Source\n||+ Source()\l+ getElement()\l+ toList()\l+ toFun()\l}">
<polygon fill="none" stroke="black" points="69,-406 69,-496 173,-496 173,-406 69,-406"/>
<text text-anchor="middle" x="121" y="-484" font-family="Helvetica,sans-Serif" font-size="10.00">prolog.terms.Source</text>
<polyline fill="none" stroke="black" points="69,-477 173,-477 "/>
<text text-anchor="middle" x="121" y="-465" font-family="Helvetica,sans-Serif" font-size="10.00"> </text>
<polyline fill="none" stroke="black" points="69,-458 173,-458 "/>
<text text-anchor="start" x="77" y="-446" font-family="Helvetica,sans-Serif" font-size="10.00">+ Source()</text>
<text text-anchor="start" x="77" y="-435" font-family="Helvetica,sans-Serif" font-size="10.00">+ getElement()</text>
<text text-anchor="start" x="77" y="-424" font-family="Helvetica,sans-Serif" font-size="10.00">+ toList()</text>
<text text-anchor="start" x="77" y="-413" font-family="Helvetica,sans-Serif" font-size="10.00">+ toFun()</text>
</a>
</g>
</g>
<!-- Node3&#45;&gt;Node11 -->
<g id="edge11" class="edge"><title>Node3&#45;&gt;Node11</title>
<path fill="none" stroke="midnightblue" d="M92.0094,-529.946C96.2329,-518.591 100.542,-507.006 104.501,-496.36"/>
<polygon fill="none" stroke="midnightblue" points="88.6968,-528.813 88.4912,-539.406 95.2577,-531.253 88.6968,-528.813"/>
</g>
<!-- Node4 -->
<g id="node4" class="node"><title>Node4</title>
<g id="a_node4"><a xlink:href="../../d6/dc1/classprolog_1_1terms_1_1SystemObject.html" target="_top" xlink:title="A SystemObject is a Nonvar with system assigned name. ">
<polygon fill="none" stroke="black" points="0,-689.5 0,-801.5 136,-801.5 136,-689.5 0,-689.5"/>
<text text-anchor="middle" x="68" y="-789.5" font-family="Helvetica,sans-Serif" font-size="10.00">prolog.terms.SystemObject</text>
<polyline fill="none" stroke="black" points="0,-782.5 136,-782.5 "/>
<text text-anchor="start" x="8" y="-770.5" font-family="Helvetica,sans-Serif" font-size="10.00">~ ctr</text>
<text text-anchor="start" x="8" y="-759.5" font-family="Helvetica,sans-Serif" font-size="10.00">&#45; ordinal</text>
<polyline fill="none" stroke="black" points="0,-752.5 136,-752.5 "/>
<text text-anchor="start" x="8" y="-740.5" font-family="Helvetica,sans-Serif" font-size="10.00">+ SystemObject()</text>
<text text-anchor="start" x="8" y="-729.5" font-family="Helvetica,sans-Serif" font-size="10.00">+ name()</text>
<text text-anchor="start" x="8" y="-718.5" font-family="Helvetica,sans-Serif" font-size="10.00">+ toString()</text>
<text text-anchor="start" x="8" y="-707.5" font-family="Helvetica,sans-Serif" font-size="10.00">+ getArity()</text>
<text text-anchor="start" x="8" y="-696.5" font-family="Helvetica,sans-Serif" font-size="10.00">~ bind_to()</text>
</a>
</g>
</g>
<!-- Node4&#45;&gt;Node3 -->
<g id="edge3" class="edge"><title>Node4&#45;&gt;Node3</title>
<path fill="none" stroke="midnightblue" d="M68,-679.14C68,-669.967 68,-660.614 68,-651.656"/>
<polygon fill="none" stroke="midnightblue" points="64.5001,-679.39 68,-689.39 71.5001,-679.39 64.5001,-679.39"/>
</g>
<!-- Node5 -->
<g id="node5" class="node"><title>Node5</title>
<g id="a_node5"><a xlink:href="../../d4/de0/classprolog_1_1terms_1_1Nonvar.html" target="_top" xlink:title="Part of the Prolog Term hierarchy. ">
<polygon fill="none" stroke="black" points="15.5,-839.5 15.5,-929.5 120.5,-929.5 120.5,-839.5 15.5,-839.5"/>
<text text-anchor="middle" x="68" y="-917.5" font-family="Helvetica,sans-Serif" font-size="10.00">prolog.terms.Nonvar</text>
<polyline fill="none" stroke="black" points="15.5,-910.5 120.5,-910.5 "/>
<text text-anchor="middle" x="68" y="-898.5" font-family="Helvetica,sans-Serif" font-size="10.00"> </text>
<polyline fill="none" stroke="black" points="15.5,-891.5 120.5,-891.5 "/>
<text text-anchor="start" x="23.5" y="-879.5" font-family="Helvetica,sans-Serif" font-size="10.00">+ name()</text>
<text text-anchor="start" x="23.5" y="-868.5" font-family="Helvetica,sans-Serif" font-size="10.00">~ bind_to()</text>
<text text-anchor="start" x="23.5" y="-857.5" font-family="Helvetica,sans-Serif" font-size="10.00">~ unify_to()</text>
<text text-anchor="start" x="23.5" y="-846.5" font-family="Helvetica,sans-Serif" font-size="10.00">~ listify()</text>
</a>
</g>
</g>
<!-- Node5&#45;&gt;Node4 -->
<g id="edge4" class="edge"><title>Node5&#45;&gt;Node4</title>
<path fill="none" stroke="midnightblue" d="M68,-829.293C68,-820.178 68,-810.709 68,-801.572"/>
<polygon fill="none" stroke="midnightblue" points="64.5001,-829.398 68,-839.398 71.5001,-829.398 64.5001,-829.398"/>
</g>
<!-- Node6 -->
<g id="node6" class="node"><title>Node6</title>
<g id="a_node6"><a xlink:href="../../d3/ded/classprolog_1_1terms_1_1Term.html" target="_top" xlink:title="Top element of the Prolog term hierarchy. ">
<polygon fill="none" stroke="black" points="19,-967.5 19,-1321.5 117,-1321.5 117,-967.5 19,-967.5"/>
<text text-anchor="middle" x="68" y="-1309.5" font-family="Helvetica,sans-Serif" font-size="10.00">prolog.terms.Term</text>
<polyline fill="none" stroke="black" points="19,-1302.5 117,-1302.5 "/>
<text text-anchor="start" x="27" y="-1290.5" font-family="Helvetica,sans-Serif" font-size="10.00">+ JAVA</text>
<text text-anchor="start" x="27" y="-1279.5" font-family="Helvetica,sans-Serif" font-size="10.00">+ REAL</text>
<text text-anchor="start" x="27" y="-1268.5" font-family="Helvetica,sans-Serif" font-size="10.00">+ INT</text>
<text text-anchor="start" x="27" y="-1257.5" font-family="Helvetica,sans-Serif" font-size="10.00">+ VAR</text>
<text text-anchor="start" x="27" y="-1246.5" font-family="Helvetica,sans-Serif" font-size="10.00">+ CONST</text>
<polyline fill="none" stroke="black" points="19,-1239.5 117,-1239.5 "/>
<text text-anchor="start" x="27" y="-1227.5" font-family="Helvetica,sans-Serif" font-size="10.00">+ getArity()</text>
<text text-anchor="start" x="27" y="-1216.5" font-family="Helvetica,sans-Serif" font-size="10.00">+ ref()</text>
<text text-anchor="start" x="27" y="-1205.5" font-family="Helvetica,sans-Serif" font-size="10.00">+ token()</text>
<text text-anchor="start" x="27" y="-1194.5" font-family="Helvetica,sans-Serif" font-size="10.00">+ toClause()</text>
<text text-anchor="start" x="27" y="-1183.5" font-family="Helvetica,sans-Serif" font-size="10.00">+ matches()</text>
<text text-anchor="start" x="27" y="-1172.5" font-family="Helvetica,sans-Serif" font-size="10.00">+ matches()</text>
<text text-anchor="start" x="27" y="-1161.5" font-family="Helvetica,sans-Serif" font-size="10.00">+ matching_copy()</text>
<text text-anchor="start" x="27" y="-1150.5" font-family="Helvetica,sans-Serif" font-size="10.00">+ copy()</text>
<text text-anchor="start" x="27" y="-1139.5" font-family="Helvetica,sans-Serif" font-size="10.00">+ varsOf()</text>
<text text-anchor="start" x="27" y="-1128.5" font-family="Helvetica,sans-Serif" font-size="10.00">+ numbervars()</text>
<text text-anchor="start" x="27" y="-1117.5" font-family="Helvetica,sans-Serif" font-size="10.00">and 6 more...</text>
<text text-anchor="start" x="27" y="-1106.5" font-family="Helvetica,sans-Serif" font-size="10.00">+ fromString()</text>
<text text-anchor="start" x="27" y="-1095.5" font-family="Helvetica,sans-Serif" font-size="10.00">+ charsToString()</text>
<text text-anchor="start" x="27" y="-1084.5" font-family="Helvetica,sans-Serif" font-size="10.00">~ bind_to()</text>
<text text-anchor="start" x="27" y="-1073.5" font-family="Helvetica,sans-Serif" font-size="10.00">~ unify_to()</text>
<text text-anchor="start" x="27" y="-1062.5" font-family="Helvetica,sans-Serif" font-size="10.00">~ toTerm()</text>
<text text-anchor="start" x="27" y="-1051.5" font-family="Helvetica,sans-Serif" font-size="10.00">~ isClause()</text>
<text text-anchor="start" x="27" y="-1040.5" font-family="Helvetica,sans-Serif" font-size="10.00">~ reaction()</text>
<text text-anchor="start" x="27" y="-1029.5" font-family="Helvetica,sans-Serif" font-size="10.00">~ action()</text>
<text text-anchor="start" x="27" y="-1018.5" font-family="Helvetica,sans-Serif" font-size="10.00">~ exec()</text>
<text text-anchor="start" x="27" y="-1007.5" font-family="Helvetica,sans-Serif" font-size="10.00">~ stringToChars()</text>
<text text-anchor="start" x="27" y="-996.5" font-family="Helvetica,sans-Serif" font-size="10.00"># unify()</text>
<text text-anchor="start" x="27" y="-985.5" font-family="Helvetica,sans-Serif" font-size="10.00"># undo()</text>
<text text-anchor="start" x="27" y="-974.5" font-family="Helvetica,sans-Serif" font-size="10.00"># exec()</text>
</a>
</g>
</g>
<!-- Node6&#45;&gt;Node5 -->
<g id="edge5" class="edge"><title>Node6&#45;&gt;Node5</title>
<path fill="none" stroke="midnightblue" d="M68,-957.384C68,-947.458 68,-938.098 68,-929.617"/>
<polygon fill="none" stroke="midnightblue" points="64.5001,-957.487 68,-967.487 71.5001,-957.487 64.5001,-957.487"/>
</g>
<!-- Node7 -->
<g id="node7" class="node"><title>Node7</title>
<polygon fill="none" stroke="#bfbfbf" points="10.5,-1359.5 10.5,-1416.5 55.5,-1416.5 55.5,-1359.5 10.5,-1359.5"/>
<text text-anchor="middle" x="33" y="-1404.5" font-family="Helvetica,sans-Serif" font-size="10.00">Object</text>
<polyline fill="none" stroke="#bfbfbf" points="10.5,-1397.5 55.5,-1397.5 "/>
<text text-anchor="middle" x="33" y="-1385.5" font-family="Helvetica,sans-Serif" font-size="10.00"> </text>
<polyline fill="none" stroke="#bfbfbf" points="10.5,-1378.5 55.5,-1378.5 "/>
<text text-anchor="middle" x="33" y="-1366.5" font-family="Helvetica,sans-Serif" font-size="10.00"> </text>
</g>
<!-- Node7&#45;&gt;Node6 -->
<g id="edge6" class="edge"><title>Node7&#45;&gt;Node6</title>
<path fill="none" stroke="midnightblue" d="M38.4619,-1349.31C39.6703,-1340.97 41.0272,-1331.61 42.478,-1321.6"/>
<polygon fill="none" stroke="midnightblue" points="34.9855,-1348.9 37.0149,-1359.3 41.9131,-1349.9 34.9855,-1348.9"/>
</g>
<!-- Node8 -->
<g id="node8" class="node"><title>Node8</title>
<polygon fill="none" stroke="#bfbfbf" points="74,-1359.5 74,-1416.5 134,-1416.5 134,-1359.5 74,-1359.5"/>
<text text-anchor="middle" x="104" y="-1404.5" font-family="Helvetica,sans-Serif" font-size="10.00">Cloneable</text>
<polyline fill="none" stroke="#bfbfbf" points="74,-1397.5 134,-1397.5 "/>
<text text-anchor="middle" x="104" y="-1385.5" font-family="Helvetica,sans-Serif" font-size="10.00"> </text>
<polyline fill="none" stroke="#bfbfbf" points="74,-1378.5 134,-1378.5 "/>
<text text-anchor="middle" x="104" y="-1366.5" font-family="Helvetica,sans-Serif" font-size="10.00"> </text>
</g>
<!-- Node8&#45;&gt;Node6 -->
<g id="edge7" class="edge"><title>Node8&#45;&gt;Node6</title>
<path fill="none" stroke="midnightblue" d="M98.382,-1349.31C97.1391,-1340.97 95.7434,-1331.61 94.2512,-1321.6"/>
<polygon fill="none" stroke="midnightblue" points="94.9341,-1349.92 99.8703,-1359.3 101.858,-1348.89 94.9341,-1349.92"/>
</g>
<!-- Node9 -->
<g id="node9" class="node"><title>Node9</title>
<polygon fill="none" stroke="#bfbfbf" points="397,-717 397,-774 453,-774 453,-717 397,-717"/>
<text text-anchor="middle" x="425" y="-762" font-family="Helvetica,sans-Serif" font-size="10.00">ArrayList</text>
<polyline fill="none" stroke="#bfbfbf" points="397,-755 453,-755 "/>
<text text-anchor="middle" x="425" y="-743" font-family="Helvetica,sans-Serif" font-size="10.00"> </text>
<polyline fill="none" stroke="#bfbfbf" points="397,-736 453,-736 "/>
<text text-anchor="middle" x="425" y="-724" font-family="Helvetica,sans-Serif" font-size="10.00"> </text>
</g>
<!-- Node9&#45;&gt;Node1 -->
<g id="edge8" class="edge"><title>Node9&#45;&gt;Node1</title>
<path fill="none" stroke="#404040" d="M439.051,-716.922C452.579,-687.778 471,-640.089 471,-596.5 471,-596.5 471,-596.5 471,-210 471,-139.186 396.471,-95.2855 334.568,-71.0353"/>
<polygon fill="none" stroke="#404040" points="334.403,-70.9731 327.377,-72.5956 323.177,-66.7338 330.203,-65.1114 334.403,-70.9731"/>
<text text-anchor="middle" x="488" y="-448.5" font-family="Helvetica,sans-Serif" font-size="10.00"> #buffer</text>
</g>
<!-- Node13 -->
<g id="node13" class="node"><title>Node13</title>
<g id="a_node13"><a xlink:href="../../da/d93/classprolog_1_1terms_1_1ObjectStack.html" target="_top" xlink:title="{prolog.terms.ObjectStack\n||+ push()\l+ pop()\l}">
<polygon fill="none" stroke="black" points="315,-561.5 315,-629.5 443,-629.5 443,-561.5 315,-561.5"/>
<text text-anchor="middle" x="379" y="-617.5" font-family="Helvetica,sans-Serif" font-size="10.00">prolog.terms.ObjectStack</text>
<polyline fill="none" stroke="black" points="315,-610.5 443,-610.5 "/>
<text text-anchor="middle" x="379" y="-598.5" font-family="Helvetica,sans-Serif" font-size="10.00"> </text>
<polyline fill="none" stroke="black" points="315,-591.5 443,-591.5 "/>
<text text-anchor="start" x="323" y="-579.5" font-family="Helvetica,sans-Serif" font-size="10.00">+ push()</text>
<text text-anchor="start" x="323" y="-568.5" font-family="Helvetica,sans-Serif" font-size="10.00">+ pop()</text>
</a>
</g>
</g>
<!-- Node9&#45;&gt;Node13 -->
<g id="edge14" class="edge"><title>Node9&#45;&gt;Node13</title>
<path fill="none" stroke="midnightblue" d="M413.315,-706.905C405.911,-683.084 396.424,-652.56 389.302,-629.646"/>
<polygon fill="none" stroke="midnightblue" points="410.037,-708.152 416.348,-716.662 416.722,-706.074 410.037,-708.152"/>
</g>
<!-- Node10 -->
<g id="node10" class="node"><title>Node10</title>
<g id="a_node10"><a xlink:href="../../d4/d26/classprolog_1_1terms_1_1Prog.html" target="_top" xlink:title="Basic toplevel Prolog Engine. ">
<polygon fill="none" stroke="black" points="206,-138.5 206,-283.5 300,-283.5 300,-138.5 206,-138.5"/>
<text text-anchor="middle" x="253" y="-271.5" font-family="Helvetica,sans-Serif" font-size="10.00">prolog.terms.Prog</text>
<polyline fill="none" stroke="black" points="206,-264.5 300,-264.5 "/>
<text text-anchor="start" x="214" y="-252.5" font-family="Helvetica,sans-Serif" font-size="10.00">+ tracing</text>
<polyline fill="none" stroke="black" points="206,-245.5 300,-245.5 "/>
<text text-anchor="start" x="214" y="-233.5" font-family="Helvetica,sans-Serif" font-size="10.00">+ Prog()</text>
<text text-anchor="start" x="214" y="-222.5" font-family="Helvetica,sans-Serif" font-size="10.00">+ getTrail()</text>
<text text-anchor="start" x="214" y="-211.5" font-family="Helvetica,sans-Serif" font-size="10.00">+ getParent()</text>
<text text-anchor="start" x="214" y="-200.5" font-family="Helvetica,sans-Serif" font-size="10.00">+ getElement()</text>
<text text-anchor="start" x="214" y="-189.5" font-family="Helvetica,sans-Serif" font-size="10.00">+ stop()</text>
<text text-anchor="start" x="214" y="-178.5" font-family="Helvetica,sans-Serif" font-size="10.00">+ run()</text>
<text text-anchor="start" x="214" y="-167.5" font-family="Helvetica,sans-Serif" font-size="10.00">+ firstSolution()</text>
<text text-anchor="start" x="214" y="-156.5" font-family="Helvetica,sans-Serif" font-size="10.00">+ new_engine()</text>
<text text-anchor="start" x="214" y="-145.5" font-family="Helvetica,sans-Serif" font-size="10.00">+ ask_engine()</text>
</a>
</g>
</g>
<!-- Node10&#45;&gt;Node1 -->
<g id="edge9" class="edge"><title>Node10&#45;&gt;Node1</title>
<path fill="none" stroke="#404040" d="M253,-138.287C253,-126.441 253,-114.309 253,-102.908"/>
<polygon fill="none" stroke="#404040" points="253,-102.87 249,-96.8701 253,-90.8701 257,-96.8701 253,-102.87"/>
<text text-anchor="middle" x="259" y="-112" font-family="Helvetica,sans-Serif" font-size="10.00"> &#45;p</text>
</g>
<!-- Node10&#45;&gt;Node10 -->
<g id="edge15" class="edge"><title>Node10&#45;&gt;Node10</title>
<path fill="none" stroke="#404040" d="M300.035,-228.516C310.43,-226.87 318,-221.031 318,-211 318,-205.201 315.47,-200.803 311.327,-197.806"/>
<polygon fill="none" stroke="#404040" points="311.243,-197.774 304.209,-199.365 300.035,-193.484 307.069,-191.894 311.243,-197.774"/>
<text text-anchor="middle" x="335" y="-208.5" font-family="Helvetica,sans-Serif" font-size="10.00"> &#45;parent</text>
</g>
<!-- Node11&#45;&gt;Node10 -->
<g id="edge10" class="edge"><title>Node11&#45;&gt;Node10</title>
<path fill="none" stroke="midnightblue" d="M145.97,-396.583C159.711,-368.112 177.49,-332.72 195,-302 198.406,-296.025 202.039,-289.897 205.762,-283.785"/>
<polygon fill="none" stroke="midnightblue" points="142.643,-395.427 141.471,-405.957 148.953,-398.456 142.643,-395.427"/>
</g>
<!-- Node12 -->
<g id="node12" class="node"><title>Node12</title>
<polygon fill="none" stroke="#bfbfbf" points="267,-422.5 267,-479.5 325,-479.5 325,-422.5 267,-422.5"/>
<text text-anchor="middle" x="296" y="-467.5" font-family="Helvetica,sans-Serif" font-size="10.00">Runnable</text>
<polyline fill="none" stroke="#bfbfbf" points="267,-460.5 325,-460.5 "/>
<text text-anchor="middle" x="296" y="-448.5" font-family="Helvetica,sans-Serif" font-size="10.00"> </text>
<polyline fill="none" stroke="#bfbfbf" points="267,-441.5 325,-441.5 "/>
<text text-anchor="middle" x="296" y="-429.5" font-family="Helvetica,sans-Serif" font-size="10.00"> </text>
</g>
<!-- Node12&#45;&gt;Node10 -->
<g id="edge12" class="edge"><title>Node12&#45;&gt;Node10</title>
<path fill="none" stroke="midnightblue" d="M289.155,-412.115C282.923,-377.622 273.557,-325.781 265.919,-283.506"/>
<polygon fill="none" stroke="midnightblue" points="285.761,-413.014 290.983,-422.233 292.649,-411.77 285.761,-413.014"/>
</g>
<!-- Node13&#45;&gt;Node10 -->
<g id="edge13" class="edge"><title>Node13&#45;&gt;Node10</title>
<path fill="none" stroke="#404040" d="M314.823,-575.365C279.549,-561.198 238.83,-537.991 218,-502 181.726,-439.324 196.809,-356.339 217.242,-295.202"/>
<polygon fill="none" stroke="#404040" points="217.311,-295.001 215.5,-288.021 221.247,-283.665 223.058,-290.645 217.311,-295.001"/>
<text text-anchor="middle" x="238" y="-448.5" font-family="Helvetica,sans-Serif" font-size="10.00"> &#45;orStack</text>
</g>
<!-- Node14 -->
<g id="node14" class="node"><title>Node14</title>
<g id="a_node14"><a xlink:href="../../dd/dad/classprolog_1_1terms_1_1Trail.html" target="_top" xlink:title="Implements a stack of undo actions for backtracking, and in particular, resetting a Var&#39;s val fiels t...">
<polygon fill="none" stroke="black" points="343,-400.5 343,-501.5 435,-501.5 435,-400.5 343,-400.5"/>
<text text-anchor="middle" x="389" y="-489.5" font-family="Helvetica,sans-Serif" font-size="10.00">prolog.terms.Trail</text>
<polyline fill="none" stroke="black" points="343,-482.5 435,-482.5 "/>
<text text-anchor="middle" x="389" y="-470.5" font-family="Helvetica,sans-Serif" font-size="10.00"> </text>
<polyline fill="none" stroke="black" points="343,-463.5 435,-463.5 "/>
<text text-anchor="start" x="351" y="-451.5" font-family="Helvetica,sans-Serif" font-size="10.00">+ Trail()</text>
<text text-anchor="start" x="351" y="-440.5" font-family="Helvetica,sans-Serif" font-size="10.00">+ name()</text>
<text text-anchor="start" x="351" y="-429.5" font-family="Helvetica,sans-Serif" font-size="10.00">+ pprint()</text>
<text text-anchor="start" x="351" y="-418.5" font-family="Helvetica,sans-Serif" font-size="10.00">+ unwind()</text>
<text text-anchor="start" x="351" y="-407.5" font-family="Helvetica,sans-Serif" font-size="10.00">+ stat()</text>
</a>
</g>
</g>
<!-- Node13&#45;&gt;Node14 -->
<g id="edge17" class="edge"><title>Node13&#45;&gt;Node14</title>
<path fill="none" stroke="midnightblue" d="M382.05,-551.032C383.145,-535.431 384.388,-517.724 385.517,-501.64"/>
<polygon fill="none" stroke="midnightblue" points="378.528,-551.229 381.319,-561.449 385.511,-551.719 378.528,-551.229"/>
</g>
<!-- Node14&#45;&gt;Node10 -->
<g id="edge16" class="edge"><title>Node14&#45;&gt;Node10</title>
<path fill="none" stroke="#404040" d="M360.655,-400.397C343.159,-369.779 320.279,-329.739 300.114,-294.449"/>
<polygon fill="none" stroke="#404040" points="299.905,-294.084 293.455,-290.859 293.951,-283.665 300.401,-286.89 299.905,-294.084"/>
<text text-anchor="middle" x="359" y="-339.5" font-family="Helvetica,sans-Serif" font-size="10.00"> &#45;trail</text>
</g>
</g>
</svg>
