<?xml version="1.0" encoding="UTF-8" standalone="no"?>
<!DOCTYPE svg PUBLIC "-//W3C//DTD SVG 1.1//EN"
 "http://www.w3.org/Graphics/SVG/1.1/DTD/svg11.dtd">
<!-- Generated by graphviz version 2.38.0 (20140413.2041)
 -->
<!-- Title: prolog.io.Lexer Pages: 1 -->
<!--zoomable 453 -->
<svg id="main" version="1.1" xmlns="http://www.w3.org/2000/svg" xmlns:xlink="http://www.w3.org/1999/xlink" xml:space="preserve" onload="init(evt)">
<style type="text/css"><![CDATA[
.edge:hover path { stroke: red; }
.edge:hover polygon { stroke: red; fill: red; }
]]></style>
<script type="text/javascript"><![CDATA[
var edges = document.getElementsByTagName('g');
if (edges && edges.length) {
  for (var i=0;i<edges.length;i++) {
    if (edges[i].id.substr(0,4)=='edge') {
      edges[i].setAttribute('class','edge');
    }
  }
}
]]></script>
        <defs>
                <circle id="rim" cx="0" cy="0" r="7"/>
                <circle id="rim2" cx="0" cy="0" r="3.5"/>
                <g id="zoomPlus">
                        <use xlink:href="#rim" fill="#404040">
                                <set attributeName="fill" to="#808080" begin="zoomplus.mouseover" end="zoomplus.mouseout"/>
                        </use>
                        <path d="M-4,0h8M0,-4v8" fill="none" stroke="white" stroke-width="1.5" pointer-events="none"/>
                </g>
                <g id="zoomMin">
                        <use xlink:href="#rim" fill="#404040">
                                <set attributeName="fill" to="#808080" begin="zoomminus.mouseover" end="zoomminus.mouseout"/>
                        </use>
                        <path d="M-4,0h8" fill="none" stroke="white" stroke-width="1.5" pointer-events="none"/>
                </g>
                <g id="dirArrow">
                        <path fill="none" stroke="white" stroke-width="1.5" d="M0,-3.0v7 M-2.5,-0.5L0,-3.0L2.5,-0.5"/>
                </g>
               <g id="resetDef">
                       <use xlink:href="#rim2" fill="#404040">
                               <set attributeName="fill" to="#808080" begin="reset.mouseover" end="reset.mouseout"/>
                       </use>
               </g>
        </defs>

<script type="text/javascript">
var viewWidth = 303;
var viewHeight = 453;
var sectionId = 'dynsection-1';
</script>
<script xlink:href="../../svgpan.js"/>
<svg id="graph" class="graph">
<g id="viewport">
<title>prolog.io.Lexer</title>
<!-- Node1 -->
<g id="node1" class="node"><title>Node1</title>
<polygon fill="#bfbfbf" stroke="black" points="123.5,-0.5 123.5,-233.5 213.5,-233.5 213.5,-0.5 123.5,-0.5"/>
<text text-anchor="middle" x="168.5" y="-221.5" font-family="Helvetica,sans-Serif" font-size="10.00">prolog.io.Lexer</text>
<polyline fill="none" stroke="black" points="123.5,-214.5 213.5,-214.5 "/>
<text text-anchor="start" x="131.5" y="-202.5" font-family="Helvetica,sans-Serif" font-size="10.00">&#45; inClause</text>
<text text-anchor="start" x="131.5" y="-191.5" font-family="Helvetica,sans-Serif" font-size="10.00">&#45; anonymous</text>
<polyline fill="none" stroke="black" points="123.5,-184.5 213.5,-184.5 "/>
<text text-anchor="start" x="131.5" y="-172.5" font-family="Helvetica,sans-Serif" font-size="10.00">+ Lexer()</text>
<text text-anchor="start" x="131.5" y="-161.5" font-family="Helvetica,sans-Serif" font-size="10.00">+ Lexer()</text>
<text text-anchor="start" x="131.5" y="-150.5" font-family="Helvetica,sans-Serif" font-size="10.00">+ Lexer()</text>
<text text-anchor="start" x="131.5" y="-139.5" font-family="Helvetica,sans-Serif" font-size="10.00">+ Lexer()</text>
<text text-anchor="start" x="131.5" y="-128.5" font-family="Helvetica,sans-Serif" font-size="10.00">+ atEOF()</text>
<text text-anchor="start" x="131.5" y="-117.5" font-family="Helvetica,sans-Serif" font-size="10.00">~ atEOC()</text>
<text text-anchor="start" x="131.5" y="-106.5" font-family="Helvetica,sans-Serif" font-size="10.00"># next()</text>
<text text-anchor="start" x="131.5" y="-95.5" font-family="Helvetica,sans-Serif" font-size="10.00"># make_const()</text>
<text text-anchor="start" x="131.5" y="-84.5" font-family="Helvetica,sans-Serif" font-size="10.00">&#45; make_var()</text>
<text text-anchor="start" x="131.5" y="-73.5" font-family="Helvetica,sans-Serif" font-size="10.00">&#45; wordChar()</text>
<text text-anchor="start" x="131.5" y="-62.5" font-family="Helvetica,sans-Serif" font-size="10.00">&#45; getWord()</text>
<text text-anchor="start" x="131.5" y="-51.5" font-family="Helvetica,sans-Serif" font-size="10.00">&#45; char2string()</text>
<text text-anchor="start" x="131.5" y="-40.5" font-family="Helvetica,sans-Serif" font-size="10.00">&#45; make_fun()</text>
<text text-anchor="start" x="131.5" y="-29.5" font-family="Helvetica,sans-Serif" font-size="10.00">&#45; make_int()</text>
<text text-anchor="start" x="131.5" y="-18.5" font-family="Helvetica,sans-Serif" font-size="10.00">&#45; make_real()</text>
<text text-anchor="start" x="131.5" y="-7.5" font-family="Helvetica,sans-Serif" font-size="10.00">&#45; make_number()</text>
</g>
<!-- Node2 -->
<g id="node2" class="node"><title>Node2</title>
<polygon fill="none" stroke="#bfbfbf" points="0,-287 0,-344 91,-344 91,-287 0,-287"/>
<text text-anchor="middle" x="45.5" y="-332" font-family="Helvetica,sans-Serif" font-size="10.00">StreamTokenizer</text>
<polyline fill="none" stroke="#bfbfbf" points="0,-325 91,-325 "/>
<text text-anchor="middle" x="45.5" y="-313" font-family="Helvetica,sans-Serif" font-size="10.00"> </text>
<polyline fill="none" stroke="#bfbfbf" points="0,-306 91,-306 "/>
<text text-anchor="middle" x="45.5" y="-294" font-family="Helvetica,sans-Serif" font-size="10.00"> </text>
</g>
<!-- Node2&#45;&gt;Node1 -->
<g id="edge1" class="edge"><title>Node2&#45;&gt;Node1</title>
<path fill="none" stroke="midnightblue" d="M68.2884,-278.094C83.7295,-253.426 104.657,-219.993 123.394,-190.059"/>
<polygon fill="none" stroke="midnightblue" points="65.2011,-276.43 62.862,-286.763 71.1346,-280.144 65.2011,-276.43"/>
</g>
<!-- Node3 -->
<g id="node3" class="node"><title>Node3</title>
<g id="a_node3"><a xlink:href="../../de/dd4/classprolog_1_1fluents_1_1HashDict.html" target="_top" xlink:title="General purpose dictionary. ">
<polygon fill="none" stroke="black" points="109,-281.5 109,-349.5 228,-349.5 228,-281.5 109,-281.5"/>
<text text-anchor="middle" x="168.5" y="-337.5" font-family="Helvetica,sans-Serif" font-size="10.00">prolog.fluents.HashDict</text>
<polyline fill="none" stroke="black" points="109,-330.5 228,-330.5 "/>
<text text-anchor="middle" x="168.5" y="-318.5" font-family="Helvetica,sans-Serif" font-size="10.00"> </text>
<polyline fill="none" stroke="black" points="109,-311.5 228,-311.5 "/>
<text text-anchor="start" x="117" y="-299.5" font-family="Helvetica,sans-Serif" font-size="10.00">+ name()</text>
<text text-anchor="start" x="117" y="-288.5" font-family="Helvetica,sans-Serif" font-size="10.00">+ stat()</text>
</a>
</g>
</g>
<!-- Node3&#45;&gt;Node1 -->
<g id="edge2" class="edge"><title>Node3&#45;&gt;Node1</title>
<path fill="none" stroke="#404040" d="M168.5,-281.166C168.5,-270.771 168.5,-258.621 168.5,-245.724"/>
<polygon fill="none" stroke="#404040" points="168.5,-245.699 164.5,-239.699 168.5,-233.699 172.5,-239.699 168.5,-245.699"/>
<text text-anchor="middle" x="181" y="-255" font-family="Helvetica,sans-Serif" font-size="10.00"> ~dict</text>
</g>
<!-- Node4 -->
<g id="node4" class="node"><title>Node4</title>
<polygon fill="none" stroke="#bfbfbf" points="139,-387.5 139,-444.5 198,-444.5 198,-387.5 139,-387.5"/>
<text text-anchor="middle" x="168.5" y="-432.5" font-family="Helvetica,sans-Serif" font-size="10.00">HashMap</text>
<polyline fill="none" stroke="#bfbfbf" points="139,-425.5 198,-425.5 "/>
<text text-anchor="middle" x="168.5" y="-413.5" font-family="Helvetica,sans-Serif" font-size="10.00"> </text>
<polyline fill="none" stroke="#bfbfbf" points="139,-406.5 198,-406.5 "/>
<text text-anchor="middle" x="168.5" y="-394.5" font-family="Helvetica,sans-Serif" font-size="10.00"> </text>
</g>
<!-- Node4&#45;&gt;Node3 -->
<g id="edge3" class="edge"><title>Node4&#45;&gt;Node3</title>
<path fill="none" stroke="midnightblue" d="M168.5,-377.007C168.5,-367.962 168.5,-358.383 168.5,-349.578"/>
<polygon fill="none" stroke="midnightblue" points="165,-377.3 168.5,-387.3 172,-377.3 165,-377.3"/>
</g>
<!-- Node5 -->
<g id="node5" class="node"><title>Node5</title>
<polygon fill="none" stroke="#bfbfbf" points="246.5,-287 246.5,-344 294.5,-344 294.5,-287 246.5,-287"/>
<text text-anchor="middle" x="270.5" y="-332" font-family="Helvetica,sans-Serif" font-size="10.00">Reader</text>
<polyline fill="none" stroke="#bfbfbf" points="246.5,-325 294.5,-325 "/>
<text text-anchor="middle" x="270.5" y="-313" font-family="Helvetica,sans-Serif" font-size="10.00"> </text>
<polyline fill="none" stroke="#bfbfbf" points="246.5,-306 294.5,-306 "/>
<text text-anchor="middle" x="270.5" y="-294" font-family="Helvetica,sans-Serif" font-size="10.00"> </text>
</g>
<!-- Node5&#45;&gt;Node1 -->
<g id="edge4" class="edge"><title>Node5&#45;&gt;Node1</title>
<path fill="none" stroke="#404040" d="M256.102,-286.763C246.304,-267.888 232.697,-241.674 219.126,-215.529"/>
<polygon fill="none" stroke="#404040" points="219.057,-215.396 212.742,-211.913 213.528,-204.745 219.843,-208.228 219.057,-215.396"/>
<text text-anchor="middle" x="258.5" y="-255" font-family="Helvetica,sans-Serif" font-size="10.00"> #input</text>
</g>
</g>
</svg>
        <g id="navigator" transform="translate(0 0)" fill="#404254">
                <rect fill="#f2f5e9" fill-opacity="0.5" stroke="#606060" stroke-width=".5" x="0" y="0" width="60" height="60"/>
                <use id="zoomplus" xlink:href="#zoomPlus" x="17" y="9" onmousedown="handleZoom(evt,'in')"/>
                <use id="zoomminus" xlink:href="#zoomMin" x="42" y="9" onmousedown="handleZoom(evt,'out')"/>
                <use id="reset" xlink:href="#resetDef" x="30" y="36" onmousedown="handleReset()"/>
                <g id="arrowUp" xlink:href="#dirArrow" transform="translate(30 24)" onmousedown="handlePan(0,-1)">
                  <use xlink:href="#rim" fill="#404040">
                        <set attributeName="fill" to="#808080" begin="arrowUp.mouseover" end="arrowUp.mouseout"/>
                  </use>
                  <path fill="none" stroke="white" stroke-width="1.5" d="M0,-3.0v7 M-2.5,-0.5L0,-3.0L2.5,-0.5"/>
                </g>
                <g id="arrowRight" xlink:href="#dirArrow" transform="rotate(90) translate(36 -43)" onmousedown="handlePan(1,0)">
                  <use xlink:href="#rim" fill="#404040">
                        <set attributeName="fill" to="#808080" begin="arrowRight.mouseover" end="arrowRight.mouseout"/>
                  </use>
                  <path fill="none" stroke="white" stroke-width="1.5" d="M0,-3.0v7 M-2.5,-0.5L0,-3.0L2.5,-0.5"/>
                </g>
                <g id="arrowDown" xlink:href="#dirArrow" transform="rotate(180) translate(-30 -48)" onmousedown="handlePan(0,1)">
                  <use xlink:href="#rim" fill="#404040">
                        <set attributeName="fill" to="#808080" begin="arrowDown.mouseover" end="arrowDown.mouseout"/>
                  </use>
                  <path fill="none" stroke="white" stroke-width="1.5" d="M0,-3.0v7 M-2.5,-0.5L0,-3.0L2.5,-0.5"/>
                </g>
                <g id="arrowLeft" xlink:href="#dirArrow" transform="rotate(270) translate(-36 17)" onmousedown="handlePan(-1,0)">
                  <use xlink:href="#rim" fill="#404040">
                        <set attributeName="fill" to="#808080" begin="arrowLeft.mouseover" end="arrowLeft.mouseout"/>
                  </use>
                  <path fill="none" stroke="white" stroke-width="1.5" d="M0,-3.0v7 M-2.5,-0.5L0,-3.0L2.5,-0.5"/>
                </g>
        </g>
        <svg viewBox="0 0 15 15" width="100%" height="30px" preserveAspectRatio="xMaxYMin meet">
         <g id="arrow_out" transform="scale(0.3 0.3)">
          <a xlink:href="classprolog_1_1io_1_1Lexer__coll__graph_org.svg" target="_base">
           <rect id="button" ry="5" rx="5" y="6" x="6" height="38" width="38"
                fill="#f2f5e9" fill-opacity="0.5" stroke="#606060" stroke-width="1.0"/>
           <path id="arrow"
             d="M 11.500037,31.436501 C 11.940474,20.09759 22.043105,11.32322 32.158766,21.979434 L 37.068811,17.246167 C 37.068811,17.246167 37.088388,32 37.088388,32 L 22.160133,31.978069 C 22.160133,31.978069 26.997745,27.140456 26.997745,27.140456 C 18.528582,18.264221 13.291696,25.230495 11.500037,31.436501 z"
             style="fill:#404040;"/>
          </a>
         </g>
        </svg>
</svg>
