<?xml version="1.0" encoding="UTF-8" standalone="no"?>
<!DOCTYPE svg PUBLIC "-//W3C//DTD SVG 1.1//EN"
 "http://www.w3.org/Graphics/SVG/1.1/DTD/svg11.dtd">
<!-- Generated by graphviz version 2.38.0 (20140413.2041)
 -->
<!-- Title: prolog.io.IO.toFileReader Pages: 1 -->
<svg width="681pt" height="116pt"
 viewBox="0.00 0.00 681.00 115.50" xmlns="http://www.w3.org/2000/svg" xmlns:xlink="http://www.w3.org/1999/xlink">
<g id="graph0" class="graph" transform="scale(1 1) rotate(0) translate(4 111.5)">
<title>prolog.io.IO.toFileReader</title>
<!-- Node1 -->
<g id="node1" class="node"><title>Node1</title>
<polygon fill="#bfbfbf" stroke="black" points="0,-50 0,-69 125,-69 125,-50 0,-50"/>
<text text-anchor="middle" x="62.5" y="-57" font-family="Helvetica,sans-Serif" font-size="10.00">prolog.io.IO.toFileReader</text>
</g>
<!-- Node2 -->
<g id="node2" class="node"><title>Node2</title>
<g id="a_node2"><a xlink:href="../../da/dd9/classprolog_1_1fluents_1_1DataBase_a09001c9a02b98909be7fc84934418ed6.html#a09001c9a02b98909be7fc84934418ed6" target="_top" xlink:title="prolog.fluents.DataBase.file\lToProg">
<polygon fill="none" stroke="black" points="161,-44.5 161,-74.5 298,-74.5 298,-44.5 161,-44.5"/>
<text text-anchor="start" x="169" y="-62.5" font-family="Helvetica,sans-Serif" font-size="10.00">prolog.fluents.DataBase.file</text>
<text text-anchor="middle" x="229.5" y="-51.5" font-family="Helvetica,sans-Serif" font-size="10.00">ToProg</text>
</a>
</g>
</g>
<!-- Node1&#45;&gt;Node2 -->
<g id="edge1" class="edge"><title>Node1&#45;&gt;Node2</title>
<path fill="none" stroke="midnightblue" d="M135.602,-59.5C144.038,-59.5 152.621,-59.5 160.991,-59.5"/>
<polygon fill="midnightblue" stroke="midnightblue" points="135.409,-56.0001 125.409,-59.5 135.409,-63.0001 135.409,-56.0001"/>
</g>
<!-- Node3 -->
<g id="node3" class="node"><title>Node3</title>
<g id="a_node3"><a xlink:href="../../da/dd9/classprolog_1_1fluents_1_1DataBase_a8b4fed48561a1c3086c94900495508d2.html#a8b4fed48561a1c3086c94900495508d2" target="_top" xlink:title="consults or reconsults a Prolog file by adding or overriding existing predicates to be extended to lo...">
<polygon fill="none" stroke="black" points="334,-50 334,-69 494,-69 494,-50 334,-50"/>
<text text-anchor="middle" x="414" y="-57" font-family="Helvetica,sans-Serif" font-size="10.00">prolog.fluents.DataBase.fromFile</text>
</a>
</g>
</g>
<!-- Node2&#45;&gt;Node3 -->
<g id="edge2" class="edge"><title>Node2&#45;&gt;Node3</title>
<path fill="none" stroke="midnightblue" d="M308.341,-59.5C316.737,-59.5 325.288,-59.5 333.7,-59.5"/>
<polygon fill="midnightblue" stroke="midnightblue" points="308.197,-56.0001 298.197,-59.5 308.197,-63.0001 308.197,-56.0001"/>
</g>
<!-- Node4 -->
<g id="node4" class="node"><title>Node4</title>
<g id="a_node4"><a xlink:href="../../d4/d86/classprolog_1_1builtins_1_1reconsult_af4fc0f95b6190b657cdac0b5fbc3240f.html#af4fc0f95b6190b657cdac0b5fbc3240f" target="_top" xlink:title="prolog.builtins.reconsult.exec">
<polygon fill="none" stroke="black" points="530,-88 530,-107 673,-107 673,-88 530,-88"/>
<text text-anchor="middle" x="601.5" y="-95" font-family="Helvetica,sans-Serif" font-size="10.00">prolog.builtins.reconsult.exec</text>
</a>
</g>
</g>
<!-- Node3&#45;&gt;Node4 -->
<g id="edge3" class="edge"><title>Node3&#45;&gt;Node4</title>
<path fill="none" stroke="midnightblue" d="M471.673,-71.1095C498.055,-76.514 529.051,-82.8635 554.027,-87.9799"/>
<polygon fill="midnightblue" stroke="midnightblue" points="472.308,-67.6671 461.809,-69.089 470.904,-74.5247 472.308,-67.6671"/>
</g>
<!-- Node5 -->
<g id="node5" class="node"><title>Node5</title>
<g id="a_node5"><a xlink:href="../../de/def/classprolog_1_1builtins_1_1consult_ada1aa218c46073859081290f7e820d0f.html#ada1aa218c46073859081290f7e820d0f" target="_top" xlink:title="prolog.builtins.consult.exec">
<polygon fill="none" stroke="black" points="534,-50 534,-69 669,-69 669,-50 534,-50"/>
<text text-anchor="middle" x="601.5" y="-57" font-family="Helvetica,sans-Serif" font-size="10.00">prolog.builtins.consult.exec</text>
</a>
</g>
</g>
<!-- Node3&#45;&gt;Node5 -->
<g id="edge4" class="edge"><title>Node3&#45;&gt;Node5</title>
<path fill="none" stroke="midnightblue" d="M504.468,-59.5C514.351,-59.5 524.283,-59.5 533.815,-59.5"/>
<polygon fill="midnightblue" stroke="midnightblue" points="504.207,-56.0001 494.207,-59.5 504.207,-63.0001 504.207,-56.0001"/>
</g>
<!-- Node6 -->
<g id="node6" class="node"><title>Node6</title>
<g id="a_node6"><a xlink:href="../../dd/dcc/classprolog_1_1builtins_1_1reconsult__again_af072d724d06b6e38550d6c8d21e10d19.html#af072d724d06b6e38550d6c8d21e10d19" target="_top" xlink:title="prolog.builtins.reconsult\l_again.exec">
<polygon fill="none" stroke="black" points="542,-0.5 542,-30.5 661,-30.5 661,-0.5 542,-0.5"/>
<text text-anchor="start" x="550" y="-18.5" font-family="Helvetica,sans-Serif" font-size="10.00">prolog.builtins.reconsult</text>
<text text-anchor="middle" x="601.5" y="-7.5" font-family="Helvetica,sans-Serif" font-size="10.00">_again.exec</text>
</a>
</g>
</g>
<!-- Node3&#45;&gt;Node6 -->
<g id="edge5" class="edge"><title>Node3&#45;&gt;Node6</title>
<path fill="none" stroke="midnightblue" d="M465.059,-47.6261C488.678,-42.0238 517.021,-35.3009 541.661,-29.4563"/>
<polygon fill="midnightblue" stroke="midnightblue" points="464.173,-44.2391 455.251,-49.9527 465.789,-51.0502 464.173,-44.2391"/>
</g>
</g>
</svg>
