<?xml version="1.0" encoding="UTF-8" standalone="no"?>
<!DOCTYPE svg PUBLIC "-//W3C//DTD SVG 1.1//EN"
 "http://www.w3.org/Graphics/SVG/1.1/DTD/svg11.dtd">
<!-- Generated by graphviz version 2.38.0 (20140413.2041)
 -->
<!-- Title: prolog.io.IO.url_or_file Pages: 1 -->
<svg width="840pt" height="169pt"
 viewBox="0.00 0.00 840.00 168.50" xmlns="http://www.w3.org/2000/svg" xmlns:xlink="http://www.w3.org/1999/xlink">
<g id="graph0" class="graph" transform="scale(1 1) rotate(0) translate(4 164.5)">
<title>prolog.io.IO.url_or_file</title>
<!-- Node1 -->
<g id="node1" class="node"><title>Node1</title>
<polygon fill="#bfbfbf" stroke="black" points="0,-97 0,-116 112,-116 112,-97 0,-97"/>
<text text-anchor="middle" x="56" y="-104" font-family="Helvetica,sans-Serif" font-size="10.00">prolog.io.IO.url_or_file</text>
</g>
<!-- Node2 -->
<g id="node2" class="node"><title>Node2</title>
<g id="a_node2"><a xlink:href="../../d9/d79/classprolog_1_1io_1_1Lexer_a2d99ab878bc76630acd98497eb801f51.html#a2d99ab878bc76630acd98497eb801f51" target="_top" xlink:title="Path+File name based constructor Used in prolog2java. ">
<polygon fill="none" stroke="black" points="162.5,-141 162.5,-160 269.5,-160 269.5,-141 162.5,-141"/>
<text text-anchor="middle" x="216" y="-148" font-family="Helvetica,sans-Serif" font-size="10.00">prolog.io.Lexer.Lexer</text>
</a>
</g>
</g>
<!-- Node1&#45;&gt;Node2 -->
<g id="edge1" class="edge"><title>Node1&#45;&gt;Node2</title>
<path fill="none" stroke="midnightblue" d="M100.981,-118.748C126.205,-125.772 157.402,-134.46 180.783,-140.971"/>
<polygon fill="midnightblue" stroke="midnightblue" points="101.856,-115.358 91.2836,-116.047 99.9781,-122.102 101.856,-115.358"/>
</g>
<!-- Node3 -->
<g id="node3" class="node"><title>Node3</title>
<g id="a_node3"><a xlink:href="../../d5/db0/classprolog_1_1io_1_1CharReader_a47be678a8d6038e2c9a0a666449ea948.html#a47be678a8d6038e2c9a0a666449ea948" target="_top" xlink:title="prolog.io.CharReader.make\lReader">
<polygon fill="none" stroke="black" points="148,-91.5 148,-121.5 284,-121.5 284,-91.5 148,-91.5"/>
<text text-anchor="start" x="156" y="-109.5" font-family="Helvetica,sans-Serif" font-size="10.00">prolog.io.CharReader.make</text>
<text text-anchor="middle" x="216" y="-98.5" font-family="Helvetica,sans-Serif" font-size="10.00">Reader</text>
</a>
</g>
</g>
<!-- Node1&#45;&gt;Node3 -->
<g id="edge2" class="edge"><title>Node1&#45;&gt;Node3</title>
<path fill="none" stroke="midnightblue" d="M122.374,-106.5C130.773,-106.5 139.384,-106.5 147.811,-106.5"/>
<polygon fill="midnightblue" stroke="midnightblue" points="122.261,-103 112.261,-106.5 122.261,-110 122.261,-103"/>
</g>
<!-- Node5 -->
<g id="node5" class="node"><title>Node5</title>
<g id="a_node5"><a xlink:href="../../d4/dc2/classprolog_1_1io_1_1IO_a6a1a0dd3e007e7182461e9a65742e044.html#a6a1a0dd3e007e7182461e9a65742e044" target="_top" xlink:title="prolog.io.IO.toFileReader">
<polygon fill="none" stroke="black" points="153.5,-52 153.5,-71 278.5,-71 278.5,-52 153.5,-52"/>
<text text-anchor="middle" x="216" y="-59" font-family="Helvetica,sans-Serif" font-size="10.00">prolog.io.IO.toFileReader</text>
</a>
</g>
</g>
<!-- Node1&#45;&gt;Node5 -->
<g id="edge4" class="edge"><title>Node1&#45;&gt;Node5</title>
<path fill="none" stroke="midnightblue" d="M100.337,-94.1572C125.945,-86.8637 157.881,-77.7681 181.541,-71.0296"/>
<polygon fill="midnightblue" stroke="midnightblue" points="99.1665,-90.8513 90.5077,-96.9567 101.084,-97.5836 99.1665,-90.8513"/>
</g>
<!-- Node4 -->
<g id="node4" class="node"><title>Node4</title>
<g id="a_node4"><a xlink:href="../../d5/db0/classprolog_1_1io_1_1CharReader_adf7a1ea1ae84a418d16bcf83879509aa.html#adf7a1ea1ae84a418d16bcf83879509aa" target="_top" xlink:title="prolog.io.CharReader.Char\lReader">
<polygon fill="none" stroke="black" points="322,-93.5 322,-123.5 455,-123.5 455,-93.5 322,-93.5"/>
<text text-anchor="start" x="330" y="-111.5" font-family="Helvetica,sans-Serif" font-size="10.00">prolog.io.CharReader.Char</text>
<text text-anchor="middle" x="388.5" y="-100.5" font-family="Helvetica,sans-Serif" font-size="10.00">Reader</text>
</a>
</g>
</g>
<!-- Node3&#45;&gt;Node4 -->
<g id="edge3" class="edge"><title>Node3&#45;&gt;Node4</title>
<path fill="none" stroke="midnightblue" d="M294.637,-107.411C303.78,-107.518 313.042,-107.627 321.996,-107.732"/>
<polygon fill="midnightblue" stroke="midnightblue" points="294.427,-103.908 284.386,-107.29 294.344,-110.908 294.427,-103.908"/>
</g>
<!-- Node6 -->
<g id="node6" class="node"><title>Node6</title>
<g id="a_node6"><a xlink:href="../../da/dd9/classprolog_1_1fluents_1_1DataBase_a09001c9a02b98909be7fc84934418ed6.html#a09001c9a02b98909be7fc84934418ed6" target="_top" xlink:title="prolog.fluents.DataBase.file\lToProg">
<polygon fill="none" stroke="black" points="320,-44.5 320,-74.5 457,-74.5 457,-44.5 320,-44.5"/>
<text text-anchor="start" x="328" y="-62.5" font-family="Helvetica,sans-Serif" font-size="10.00">prolog.fluents.DataBase.file</text>
<text text-anchor="middle" x="388.5" y="-51.5" font-family="Helvetica,sans-Serif" font-size="10.00">ToProg</text>
</a>
</g>
</g>
<!-- Node5&#45;&gt;Node6 -->
<g id="edge5" class="edge"><title>Node5&#45;&gt;Node6</title>
<path fill="none" stroke="midnightblue" d="M288.778,-60.658C299.116,-60.5368 309.725,-60.4123 319.976,-60.2921"/>
<polygon fill="midnightblue" stroke="midnightblue" points="288.513,-57.1608 278.554,-60.778 288.595,-64.1603 288.513,-57.1608"/>
</g>
<!-- Node7 -->
<g id="node7" class="node"><title>Node7</title>
<g id="a_node7"><a xlink:href="../../da/dd9/classprolog_1_1fluents_1_1DataBase_a8b4fed48561a1c3086c94900495508d2.html#a8b4fed48561a1c3086c94900495508d2" target="_top" xlink:title="consults or reconsults a Prolog file by adding or overriding existing predicates to be extended to lo...">
<polygon fill="none" stroke="black" points="493,-50 493,-69 653,-69 653,-50 493,-50"/>
<text text-anchor="middle" x="573" y="-57" font-family="Helvetica,sans-Serif" font-size="10.00">prolog.fluents.DataBase.fromFile</text>
</a>
</g>
</g>
<!-- Node6&#45;&gt;Node7 -->
<g id="edge6" class="edge"><title>Node6&#45;&gt;Node7</title>
<path fill="none" stroke="midnightblue" d="M467.341,-59.5C475.737,-59.5 484.288,-59.5 492.7,-59.5"/>
<polygon fill="midnightblue" stroke="midnightblue" points="467.197,-56.0001 457.197,-59.5 467.197,-63.0001 467.197,-56.0001"/>
</g>
<!-- Node8 -->
<g id="node8" class="node"><title>Node8</title>
<g id="a_node8"><a xlink:href="../../d4/d86/classprolog_1_1builtins_1_1reconsult_af4fc0f95b6190b657cdac0b5fbc3240f.html#af4fc0f95b6190b657cdac0b5fbc3240f" target="_top" xlink:title="prolog.builtins.reconsult.exec">
<polygon fill="none" stroke="black" points="689,-88 689,-107 832,-107 832,-88 689,-88"/>
<text text-anchor="middle" x="760.5" y="-95" font-family="Helvetica,sans-Serif" font-size="10.00">prolog.builtins.reconsult.exec</text>
</a>
</g>
</g>
<!-- Node7&#45;&gt;Node8 -->
<g id="edge7" class="edge"><title>Node7&#45;&gt;Node8</title>
<path fill="none" stroke="midnightblue" d="M630.673,-71.1095C657.055,-76.514 688.051,-82.8635 713.027,-87.9799"/>
<polygon fill="midnightblue" stroke="midnightblue" points="631.308,-67.6671 620.809,-69.089 629.904,-74.5247 631.308,-67.6671"/>
</g>
<!-- Node9 -->
<g id="node9" class="node"><title>Node9</title>
<g id="a_node9"><a xlink:href="../../de/def/classprolog_1_1builtins_1_1consult_ada1aa218c46073859081290f7e820d0f.html#ada1aa218c46073859081290f7e820d0f" target="_top" xlink:title="prolog.builtins.consult.exec">
<polygon fill="none" stroke="black" points="693,-50 693,-69 828,-69 828,-50 693,-50"/>
<text text-anchor="middle" x="760.5" y="-57" font-family="Helvetica,sans-Serif" font-size="10.00">prolog.builtins.consult.exec</text>
</a>
</g>
</g>
<!-- Node7&#45;&gt;Node9 -->
<g id="edge8" class="edge"><title>Node7&#45;&gt;Node9</title>
<path fill="none" stroke="midnightblue" d="M663.468,-59.5C673.351,-59.5 683.283,-59.5 692.815,-59.5"/>
<polygon fill="midnightblue" stroke="midnightblue" points="663.207,-56.0001 653.207,-59.5 663.207,-63.0001 663.207,-56.0001"/>
</g>
<!-- Node10 -->
<g id="node10" class="node"><title>Node10</title>
<g id="a_node10"><a xlink:href="../../dd/dcc/classprolog_1_1builtins_1_1reconsult__again_af072d724d06b6e38550d6c8d21e10d19.html#af072d724d06b6e38550d6c8d21e10d19" target="_top" xlink:title="prolog.builtins.reconsult\l_again.exec">
<polygon fill="none" stroke="black" points="701,-0.5 701,-30.5 820,-30.5 820,-0.5 701,-0.5"/>
<text text-anchor="start" x="709" y="-18.5" font-family="Helvetica,sans-Serif" font-size="10.00">prolog.builtins.reconsult</text>
<text text-anchor="middle" x="760.5" y="-7.5" font-family="Helvetica,sans-Serif" font-size="10.00">_again.exec</text>
</a>
</g>
</g>
<!-- Node7&#45;&gt;Node10 -->
<g id="edge9" class="edge"><title>Node7&#45;&gt;Node10</title>
<path fill="none" stroke="midnightblue" d="M624.059,-47.6261C647.678,-42.0238 676.021,-35.3009 700.661,-29.4563"/>
<polygon fill="midnightblue" stroke="midnightblue" points="623.173,-44.2391 614.251,-49.9527 624.789,-51.0502 623.173,-44.2391"/>
</g>
</g>
</svg>
