<?xml version="1.0" encoding="UTF-8" standalone="no"?>
<!DOCTYPE svg PUBLIC "-//W3C//DTD SVG 1.1//EN"
 "http://www.w3.org/Graphics/SVG/1.1/DTD/svg11.dtd">
<!-- Generated by graphviz version 2.38.0 (20140413.2041)
 -->
<!-- Title: prolog.io.IO.readln Pages: 1 -->
<!--zoomable 213 -->
<svg id="main" version="1.1" xmlns="http://www.w3.org/2000/svg" xmlns:xlink="http://www.w3.org/1999/xlink" xml:space="preserve" onload="init(evt)">
<style type="text/css"><![CDATA[
.edge:hover path { stroke: red; }
.edge:hover polygon { stroke: red; fill: red; }
]]></style>
<script type="text/javascript"><![CDATA[
var edges = document.getElementsByTagName('g');
if (edges && edges.length) {
  for (var i=0;i<edges.length;i++) {
    if (edges[i].id.substr(0,4)=='edge') {
      edges[i].setAttribute('class','edge');
    }
  }
}
]]></script>
        <defs>
                <circle id="rim" cx="0" cy="0" r="7"/>
                <circle id="rim2" cx="0" cy="0" r="3.5"/>
                <g id="zoomPlus">
                        <use xlink:href="#rim" fill="#404040">
                                <set attributeName="fill" to="#808080" begin="zoomplus.mouseover" end="zoomplus.mouseout"/>
                        </use>
                        <path d="M-4,0h8M0,-4v8" fill="none" stroke="white" stroke-width="1.5" pointer-events="none"/>
                </g>
                <g id="zoomMin">
                        <use xlink:href="#rim" fill="#404040">
                                <set attributeName="fill" to="#808080" begin="zoomminus.mouseover" end="zoomminus.mouseout"/>
                        </use>
                        <path d="M-4,0h8" fill="none" stroke="white" stroke-width="1.5" pointer-events="none"/>
                </g>
                <g id="dirArrow">
                        <path fill="none" stroke="white" stroke-width="1.5" d="M0,-3.0v7 M-2.5,-0.5L0,-3.0L2.5,-0.5"/>
                </g>
               <g id="resetDef">
                       <use xlink:href="#rim2" fill="#404040">
                               <set attributeName="fill" to="#808080" begin="reset.mouseover" end="reset.mouseout"/>
                       </use>
               </g>
        </defs>

<script type="text/javascript">
var viewWidth = 850;
var viewHeight = 213;
var sectionId = 'dynsection-1';
</script>
<script xlink:href="../../svgpan.js"/>
<svg id="graph" class="graph">
<g id="viewport">
<title>prolog.io.IO.readln</title>
<!-- Node1 -->
<g id="node1" class="node"><title>Node1</title>
<polygon fill="#bfbfbf" stroke="black" points="0,-67.9797 0,-86.9797 96,-86.9797 96,-67.9797 0,-67.9797"/>
<text text-anchor="middle" x="48" y="-74.9797" font-family="Helvetica,sans-Serif" font-size="10.00">prolog.io.IO.readln</text>
</g>
<!-- Node2 -->
<g id="node2" class="node"><title>Node2</title>
<g id="a_node2"><a xlink:href="../../d4/dc2/classprolog_1_1io_1_1IO_a09da8fec5af0245e24996fe5a0addfdd.html#a09da8fec5af0245e24996fe5a0addfdd" target="_top" xlink:title="prolog.io.IO.promptln">
<polygon fill="none" stroke="black" points="135,-86.9797 135,-105.98 242,-105.98 242,-86.9797 135,-86.9797"/>
<text text-anchor="middle" x="188.5" y="-93.9797" font-family="Helvetica,sans-Serif" font-size="10.00">prolog.io.IO.promptln</text>
</a>
</g>
</g>
<!-- Node1&#45;&gt;Node2 -->
<g id="edge1" class="edge"><title>Node1&#45;&gt;Node2</title>
<path fill="none" stroke="midnightblue" d="M106.33,-85.3444C115.736,-86.6348 125.445,-87.9667 134.733,-89.2409"/>
<polygon fill="midnightblue" stroke="midnightblue" points="106.659,-81.8569 96.2765,-83.9652 105.708,-88.792 106.659,-81.8569"/>
</g>
<!-- Node12 -->
<g id="node12" class="node"><title>Node12</title>
<g id="a_node12"><a xlink:href="../../d4/dc2/classprolog_1_1io_1_1IO_aad56a38dda814e20303e0cf6b61fce7e.html#aad56a38dda814e20303e0cf6b61fce7e" target="_top" xlink:title="prolog.io.IO.read_from">
<polygon fill="none" stroke="black" points="132,-48.9797 132,-67.9797 245,-67.9797 245,-48.9797 132,-48.9797"/>
<text text-anchor="middle" x="188.5" y="-55.9797" font-family="Helvetica,sans-Serif" font-size="10.00">prolog.io.IO.read_from</text>
</a>
</g>
</g>
<!-- Node1&#45;&gt;Node12 -->
<g id="edge14" class="edge"><title>Node1&#45;&gt;Node12</title>
<path fill="none" stroke="midnightblue" d="M106.387,-69.6071C114.802,-68.4526 123.459,-67.2651 131.839,-66.1155"/>
<polygon fill="midnightblue" stroke="midnightblue" points="105.708,-66.1674 96.2765,-70.9941 106.659,-73.1024 105.708,-66.1674"/>
</g>
<!-- Node3 -->
<g id="node3" class="node"><title>Node3</title>
<g id="a_node3"><a xlink:href="../../d5/db0/classprolog_1_1io_1_1CharReader_ad96c72b0b4d49db1eacead363b28c360.html#ad96c72b0b4d49db1eacead363b28c360" target="_top" xlink:title="prolog.io.CharReader.get\lElement">
<polygon fill="none" stroke="black" points="286,-174.48 286,-204.48 411,-204.48 411,-174.48 286,-174.48"/>
<text text-anchor="start" x="294" y="-192.48" font-family="Helvetica,sans-Serif" font-size="10.00">prolog.io.CharReader.get</text>
<text text-anchor="middle" x="348.5" y="-181.48" font-family="Helvetica,sans-Serif" font-size="10.00">Element</text>
</a>
</g>
</g>
<!-- Node2&#45;&gt;Node3 -->
<g id="edge2" class="edge"><title>Node2&#45;&gt;Node3</title>
<path fill="none" stroke="midnightblue" d="M207.845,-112.956C225.553,-128.196 253.635,-150.664 281,-165.48 287.044,-168.752 293.626,-171.742 300.222,-174.415"/>
<polygon fill="midnightblue" stroke="midnightblue" points="209.865,-110.073 200.034,-106.121 205.255,-115.34 209.865,-110.073"/>
</g>
<!-- Node4 -->
<g id="node4" class="node"><title>Node4</title>
<g id="a_node4"><a xlink:href="../../d4/d09/classprolog_1_1io_1_1ClauseReader_a805e9a5ebc401e1099f39af9b3f6fb47.html#a805e9a5ebc401e1099f39af9b3f6fb47" target="_top" xlink:title="prolog.io.ClauseReader.get\lElement">
<polygon fill="none" stroke="black" points="281,-125.48 281,-155.48 416,-155.48 416,-125.48 281,-125.48"/>
<text text-anchor="start" x="289" y="-143.48" font-family="Helvetica,sans-Serif" font-size="10.00">prolog.io.ClauseReader.get</text>
<text text-anchor="middle" x="348.5" y="-132.48" font-family="Helvetica,sans-Serif" font-size="10.00">Element</text>
</a>
</g>
</g>
<!-- Node2&#45;&gt;Node4 -->
<g id="edge3" class="edge"><title>Node2&#45;&gt;Node4</title>
<path fill="none" stroke="midnightblue" d="M233.453,-108.72C252.03,-113.893 273.849,-119.969 293.402,-125.414"/>
<polygon fill="midnightblue" stroke="midnightblue" points="234.356,-105.338 223.784,-106.027 232.478,-112.082 234.356,-105.338"/>
</g>
<!-- Node5 -->
<g id="node5" class="node"><title>Node5</title>
<g id="a_node5"><a xlink:href="../../d8/d35/classprolog_1_1Init_a34787cd6b7b632c791f43b4453385aff.html#a34787cd6b7b632c791f43b4453385aff" target="_top" xlink:title="reads a query from input strea ">
<polygon fill="none" stroke="black" points="591.5,-86.9797 591.5,-105.98 687.5,-105.98 687.5,-86.9797 591.5,-86.9797"/>
<text text-anchor="middle" x="639.5" y="-93.9797" font-family="Helvetica,sans-Serif" font-size="10.00">prolog.Init.getGoal</text>
</a>
</g>
</g>
<!-- Node2&#45;&gt;Node5 -->
<g id="edge4" class="edge"><title>Node2&#45;&gt;Node5</title>
<path fill="none" stroke="midnightblue" d="M252.513,-96.4797C343.603,-96.4797 510.034,-96.4797 591.312,-96.4797"/>
<polygon fill="midnightblue" stroke="midnightblue" points="252.326,-92.9798 242.326,-96.4797 252.326,-99.9798 252.326,-92.9798"/>
</g>
<!-- Node8 -->
<g id="node8" class="node"><title>Node8</title>
<g id="a_node8"><a xlink:href="../../d8/d35/classprolog_1_1Init_a3e8704cf8b2d909fccc79e967dd48171.html#a3e8704cf8b2d909fccc79e967dd48171" target="_top" xlink:title="prolog.Init.standardTop">
<polygon fill="none" stroke="black" points="726,-29.9797 726,-48.9797 842,-48.9797 842,-29.9797 726,-29.9797"/>
<text text-anchor="middle" x="784" y="-36.9797" font-family="Helvetica,sans-Serif" font-size="10.00">prolog.Init.standardTop</text>
</a>
</g>
</g>
<!-- Node2&#45;&gt;Node8 -->
<g id="edge13" class="edge"><title>Node2&#45;&gt;Node8</title>
<path fill="none" stroke="midnightblue" d="M234.995,-82.9814C238.48,-81.3275 241.859,-79.4978 245,-77.4797 264.572,-64.9033 259.629,-48.6721 281,-39.4797 442.122,29.8241 660.156,-9.83605 746.047,-29.97"/>
<polygon fill="midnightblue" stroke="midnightblue" points="233.455,-79.8325 225.614,-86.9574 236.187,-86.2775 233.455,-79.8325"/>
</g>
<!-- Node9 -->
<g id="node9" class="node"><title>Node9</title>
<g id="a_node9"><a xlink:href="../../d8/d35/classprolog_1_1Init_a6770cfc55af8d41a45725d0fdfd51815.html#a6770cfc55af8d41a45725d0fdfd51815" target="_top" xlink:title="prolog.Init.moreAnswers">
<polygon fill="none" stroke="black" points="287.5,-48.9797 287.5,-67.9797 409.5,-67.9797 409.5,-48.9797 287.5,-48.9797"/>
<text text-anchor="middle" x="348.5" y="-55.9797" font-family="Helvetica,sans-Serif" font-size="10.00">prolog.Init.moreAnswers</text>
</a>
</g>
</g>
<!-- Node2&#45;&gt;Node9 -->
<g id="edge8" class="edge"><title>Node2&#45;&gt;Node9</title>
<path fill="none" stroke="midnightblue" d="M239.262,-84.5117C261.403,-79.1866 287.112,-73.0035 307.917,-67.9997"/>
<polygon fill="midnightblue" stroke="midnightblue" points="238.274,-81.1492 229.37,-86.8907 239.911,-87.9552 238.274,-81.1492"/>
</g>
<!-- Node6 -->
<g id="node6" class="node"><title>Node6</title>
<g id="a_node6"><a xlink:href="../../d8/d35/classprolog_1_1Init_a4a827a2cfd90b291c538b46573b83d2f.html#a4a827a2cfd90b291c538b46573b83d2f" target="_top" xlink:title="Asks Prolog a String query and gets back a string Answer of the form &quot;the(&#39;[]&#39;(VarsOfQuery))&quot; contain...">
<polygon fill="none" stroke="black" points="731,-105.98 731,-124.98 837,-124.98 837,-105.98 731,-105.98"/>
<text text-anchor="middle" x="784" y="-112.98" font-family="Helvetica,sans-Serif" font-size="10.00">prolog.Init.askProlog</text>
</a>
</g>
</g>
<!-- Node5&#45;&gt;Node6 -->
<g id="edge5" class="edge"><title>Node5&#45;&gt;Node6</title>
<path fill="none" stroke="midnightblue" d="M697.775,-104.116C708.614,-105.561 719.902,-107.067 730.582,-108.491"/>
<polygon fill="midnightblue" stroke="midnightblue" points="697.93,-100.606 687.555,-102.754 697.004,-107.545 697.93,-100.606"/>
</g>
<!-- Node7 -->
<g id="node7" class="node"><title>Node7</title>
<g id="a_node7"><a xlink:href="../../d8/d35/classprolog_1_1Init_a0348efff7140aed75f8364f90b7c2b8b.html#a0348efff7140aed75f8364f90b7c2b8b" target="_top" xlink:title="prolog.Init.run_query">
<polygon fill="none" stroke="black" points="731.5,-67.9797 731.5,-86.9797 836.5,-86.9797 836.5,-67.9797 731.5,-67.9797"/>
<text text-anchor="middle" x="784" y="-74.9797" font-family="Helvetica,sans-Serif" font-size="10.00">prolog.Init.run_query</text>
</a>
</g>
</g>
<!-- Node5&#45;&gt;Node7 -->
<g id="edge6" class="edge"><title>Node5&#45;&gt;Node7</title>
<path fill="none" stroke="midnightblue" d="M697.558,-88.872C708.631,-87.3955 720.181,-85.8555 731.079,-84.4025"/>
<polygon fill="midnightblue" stroke="midnightblue" points="697.004,-85.4147 687.555,-90.2057 697.93,-92.3533 697.004,-85.4147"/>
</g>
<!-- Node5&#45;&gt;Node8 -->
<g id="edge7" class="edge"><title>Node5&#45;&gt;Node8</title>
<path fill="none" stroke="midnightblue" d="M676.852,-83.0981C681.314,-81.2881 685.784,-79.3931 690,-77.4797 706.474,-70.0026 709.363,-65.5863 726,-58.4797 734.058,-55.0378 742.965,-51.809 751.296,-49.024"/>
<polygon fill="midnightblue" stroke="midnightblue" points="675.223,-79.978 667.201,-86.8986 677.788,-86.4913 675.223,-79.978"/>
</g>
<!-- Node10 -->
<g id="node10" class="node"><title>Node10</title>
<g id="a_node10"><a xlink:href="../../d8/d35/classprolog_1_1Init_a34d43d3123bb194902cbcb1c06194cce.html#a34d43d3123bb194902cbcb1c06194cce" target="_top" xlink:title="evalutes a query ">
<polygon fill="none" stroke="black" points="452,-48.9797 452,-67.9797 553,-67.9797 553,-48.9797 452,-48.9797"/>
<text text-anchor="middle" x="502.5" y="-55.9797" font-family="Helvetica,sans-Serif" font-size="10.00">prolog.Init.evalGoal</text>
</a>
</g>
</g>
<!-- Node9&#45;&gt;Node10 -->
<g id="edge9" class="edge"><title>Node9&#45;&gt;Node10</title>
<path fill="none" stroke="midnightblue" d="M419.807,-58.4797C430.558,-58.4797 441.461,-58.4797 451.651,-58.4797"/>
<polygon fill="midnightblue" stroke="midnightblue" points="419.574,-54.9798 409.574,-58.4797 419.574,-61.9798 419.574,-54.9798"/>
</g>
<!-- Node11 -->
<g id="node11" class="node"><title>Node11</title>
<g id="a_node11"><a xlink:href="../../d8/d35/classprolog_1_1Init_a2471811f50fbed4de5df26ee530f1e2e.html#a2471811f50fbed4de5df26ee530f1e2e" target="_top" xlink:title="evaluates and times a Goal querying program P ">
<polygon fill="none" stroke="black" points="589,-48.9797 589,-67.9797 690,-67.9797 690,-48.9797 589,-48.9797"/>
<text text-anchor="middle" x="639.5" y="-55.9797" font-family="Helvetica,sans-Serif" font-size="10.00">prolog.Init.timeGoal</text>
</a>
</g>
</g>
<!-- Node10&#45;&gt;Node11 -->
<g id="edge10" class="edge"><title>Node10&#45;&gt;Node11</title>
<path fill="none" stroke="midnightblue" d="M563.207,-58.4797C571.67,-58.4797 580.299,-58.4797 588.552,-58.4797"/>
<polygon fill="midnightblue" stroke="midnightblue" points="563.002,-54.9798 553.002,-58.4797 563.002,-61.9798 563.002,-54.9798"/>
</g>
<!-- Node11&#45;&gt;Node7 -->
<g id="edge11" class="edge"><title>Node11&#45;&gt;Node7</title>
<path fill="none" stroke="midnightblue" d="M700.505,-66.4804C710.811,-67.8545 721.44,-69.2716 731.498,-70.6127"/>
<polygon fill="midnightblue" stroke="midnightblue" points="700.714,-62.9774 690.34,-65.1249 699.789,-69.916 700.714,-62.9774"/>
</g>
<!-- Node11&#45;&gt;Node8 -->
<g id="edge12" class="edge"><title>Node11&#45;&gt;Node8</title>
<path fill="none" stroke="midnightblue" d="M700.393,-50.494C708.748,-49.38 717.317,-48.2375 725.624,-47.1298"/>
<polygon fill="midnightblue" stroke="midnightblue" points="699.789,-47.0434 690.34,-51.8344 700.714,-53.982 699.789,-47.0434"/>
</g>
</g>
</svg>
        <g id="navigator" transform="translate(0 0)" fill="#404254">
                <rect fill="#f2f5e9" fill-opacity="0.5" stroke="#606060" stroke-width=".5" x="0" y="0" width="60" height="60"/>
                <use id="zoomplus" xlink:href="#zoomPlus" x="17" y="9" onmousedown="handleZoom(evt,'in')"/>
                <use id="zoomminus" xlink:href="#zoomMin" x="42" y="9" onmousedown="handleZoom(evt,'out')"/>
                <use id="reset" xlink:href="#resetDef" x="30" y="36" onmousedown="handleReset()"/>
                <g id="arrowUp" xlink:href="#dirArrow" transform="translate(30 24)" onmousedown="handlePan(0,-1)">
                  <use xlink:href="#rim" fill="#404040">
                        <set attributeName="fill" to="#808080" begin="arrowUp.mouseover" end="arrowUp.mouseout"/>
                  </use>
                  <path fill="none" stroke="white" stroke-width="1.5" d="M0,-3.0v7 M-2.5,-0.5L0,-3.0L2.5,-0.5"/>
                </g>
                <g id="arrowRight" xlink:href="#dirArrow" transform="rotate(90) translate(36 -43)" onmousedown="handlePan(1,0)">
                  <use xlink:href="#rim" fill="#404040">
                        <set attributeName="fill" to="#808080" begin="arrowRight.mouseover" end="arrowRight.mouseout"/>
                  </use>
                  <path fill="none" stroke="white" stroke-width="1.5" d="M0,-3.0v7 M-2.5,-0.5L0,-3.0L2.5,-0.5"/>
                </g>
                <g id="arrowDown" xlink:href="#dirArrow" transform="rotate(180) translate(-30 -48)" onmousedown="handlePan(0,1)">
                  <use xlink:href="#rim" fill="#404040">
                        <set attributeName="fill" to="#808080" begin="arrowDown.mouseover" end="arrowDown.mouseout"/>
                  </use>
                  <path fill="none" stroke="white" stroke-width="1.5" d="M0,-3.0v7 M-2.5,-0.5L0,-3.0L2.5,-0.5"/>
                </g>
                <g id="arrowLeft" xlink:href="#dirArrow" transform="rotate(270) translate(-36 17)" onmousedown="handlePan(-1,0)">
                  <use xlink:href="#rim" fill="#404040">
                        <set attributeName="fill" to="#808080" begin="arrowLeft.mouseover" end="arrowLeft.mouseout"/>
                  </use>
                  <path fill="none" stroke="white" stroke-width="1.5" d="M0,-3.0v7 M-2.5,-0.5L0,-3.0L2.5,-0.5"/>
                </g>
        </g>
        <svg viewBox="0 0 15 15" width="100%" height="30px" preserveAspectRatio="xMaxYMin meet">
         <g id="arrow_out" transform="scale(0.3 0.3)">
          <a xlink:href="classprolog_1_1io_1_1IO_a4604d4d86f3043f525dd9362720b9264_a4604d4d86f3043f525dd9362720b9264_icgraph_org.svg" target="_base">
           <rect id="button" ry="5" rx="5" y="6" x="6" height="38" width="38"
                fill="#f2f5e9" fill-opacity="0.5" stroke="#606060" stroke-width="1.0"/>
           <path id="arrow"
             d="M 11.500037,31.436501 C 11.940474,20.09759 22.043105,11.32322 32.158766,21.979434 L 37.068811,17.246167 C 37.068811,17.246167 37.088388,32 37.088388,32 L 22.160133,31.978069 C 22.160133,31.978069 26.997745,27.140456 26.997745,27.140456 C 18.528582,18.264221 13.291696,25.230495 11.500037,31.436501 z"
             style="fill:#404040;"/>
          </a>
         </g>
        </svg>
</svg>
