<?xml version="1.0" encoding="UTF-8" standalone="no"?>
<!DOCTYPE svg PUBLIC "-//W3C//DTD SVG 1.1//EN"
 "http://www.w3.org/Graphics/SVG/1.1/DTD/svg11.dtd">
<!-- Generated by graphviz version 2.38.0 (20140413.2041)
 -->
<!-- Title: prolog.io.IO.promptln Pages: 1 -->
<!--zoomable 202 -->
<svg id="main" version="1.1" xmlns="http://www.w3.org/2000/svg" xmlns:xlink="http://www.w3.org/1999/xlink" xml:space="preserve" onload="init(evt)">
<style type="text/css"><![CDATA[
.edge:hover path { stroke: red; }
.edge:hover polygon { stroke: red; fill: red; }
]]></style>
<script type="text/javascript"><![CDATA[
var edges = document.getElementsByTagName('g');
if (edges && edges.length) {
  for (var i=0;i<edges.length;i++) {
    if (edges[i].id.substr(0,4)=='edge') {
      edges[i].setAttribute('class','edge');
    }
  }
}
]]></script>
        <defs>
                <circle id="rim" cx="0" cy="0" r="7"/>
                <circle id="rim2" cx="0" cy="0" r="3.5"/>
                <g id="zoomPlus">
                        <use xlink:href="#rim" fill="#404040">
                                <set attributeName="fill" to="#808080" begin="zoomplus.mouseover" end="zoomplus.mouseout"/>
                        </use>
                        <path d="M-4,0h8M0,-4v8" fill="none" stroke="white" stroke-width="1.5" pointer-events="none"/>
                </g>
                <g id="zoomMin">
                        <use xlink:href="#rim" fill="#404040">
                                <set attributeName="fill" to="#808080" begin="zoomminus.mouseover" end="zoomminus.mouseout"/>
                        </use>
                        <path d="M-4,0h8" fill="none" stroke="white" stroke-width="1.5" pointer-events="none"/>
                </g>
                <g id="dirArrow">
                        <path fill="none" stroke="white" stroke-width="1.5" d="M0,-3.0v7 M-2.5,-0.5L0,-3.0L2.5,-0.5"/>
                </g>
               <g id="resetDef">
                       <use xlink:href="#rim2" fill="#404040">
                               <set attributeName="fill" to="#808080" begin="reset.mouseover" end="reset.mouseout"/>
                       </use>
               </g>
        </defs>

<script type="text/javascript">
var viewWidth = 712;
var viewHeight = 202;
var sectionId = 'dynsection-1';
</script>
<script xlink:href="../../svgpan.js"/>
<svg id="graph" class="graph">
<g id="viewport">
<title>prolog.io.IO.promptln</title>
<!-- Node1 -->
<g id="node1" class="node"><title>Node1</title>
<polygon fill="#bfbfbf" stroke="black" points="0,-75.6443 0,-94.6443 107,-94.6443 107,-75.6443 0,-75.6443"/>
<text text-anchor="middle" x="53.5" y="-82.6443" font-family="Helvetica,sans-Serif" font-size="10.00">prolog.io.IO.promptln</text>
</g>
<!-- Node2 -->
<g id="node2" class="node"><title>Node2</title>
<g id="a_node2"><a xlink:href="../../d5/db0/classprolog_1_1io_1_1CharReader_ad96c72b0b4d49db1eacead363b28c360.html#ad96c72b0b4d49db1eacead363b28c360" target="_top" xlink:title="prolog.io.CharReader.get\lElement">
<polygon fill="none" stroke="black" points="148,-163.144 148,-193.144 273,-193.144 273,-163.144 148,-163.144"/>
<text text-anchor="start" x="156" y="-181.144" font-family="Helvetica,sans-Serif" font-size="10.00">prolog.io.CharReader.get</text>
<text text-anchor="middle" x="210.5" y="-170.144" font-family="Helvetica,sans-Serif" font-size="10.00">Element</text>
</a>
</g>
</g>
<!-- Node1&#45;&gt;Node2 -->
<g id="edge1" class="edge"><title>Node1&#45;&gt;Node2</title>
<path fill="none" stroke="midnightblue" d="M72.1481,-101.663C89.2071,-116.932 116.321,-139.421 143,-154.144 148.91,-157.406 155.351,-160.374 161.82,-163.024"/>
<polygon fill="midnightblue" stroke="midnightblue" points="74.3771,-98.9592 64.6273,-94.8128 69.6634,-104.134 74.3771,-98.9592"/>
</g>
<!-- Node3 -->
<g id="node3" class="node"><title>Node3</title>
<g id="a_node3"><a xlink:href="../../d4/d09/classprolog_1_1io_1_1ClauseReader_a805e9a5ebc401e1099f39af9b3f6fb47.html#a805e9a5ebc401e1099f39af9b3f6fb47" target="_top" xlink:title="prolog.io.ClauseReader.get\lElement">
<polygon fill="none" stroke="black" points="143,-114.144 143,-144.144 278,-144.144 278,-114.144 143,-114.144"/>
<text text-anchor="start" x="151" y="-132.144" font-family="Helvetica,sans-Serif" font-size="10.00">prolog.io.ClauseReader.get</text>
<text text-anchor="middle" x="210.5" y="-121.144" font-family="Helvetica,sans-Serif" font-size="10.00">Element</text>
</a>
</g>
</g>
<!-- Node1&#45;&gt;Node3 -->
<g id="edge2" class="edge"><title>Node1&#45;&gt;Node3</title>
<path fill="none" stroke="midnightblue" d="M97.871,-97.4561C116.04,-102.614 137.336,-108.659 156.429,-114.079"/>
<polygon fill="midnightblue" stroke="midnightblue" points="98.7084,-94.0556 88.1327,-94.6917 96.7968,-100.79 98.7084,-94.0556"/>
</g>
<!-- Node4 -->
<g id="node4" class="node"><title>Node4</title>
<g id="a_node4"><a xlink:href="../../d8/d35/classprolog_1_1Init_a34787cd6b7b632c791f43b4453385aff.html#a34787cd6b7b632c791f43b4453385aff" target="_top" xlink:title="reads a query from input strea ">
<polygon fill="none" stroke="black" points="453.5,-75.6443 453.5,-94.6443 549.5,-94.6443 549.5,-75.6443 453.5,-75.6443"/>
<text text-anchor="middle" x="501.5" y="-82.6443" font-family="Helvetica,sans-Serif" font-size="10.00">prolog.Init.getGoal</text>
</a>
</g>
</g>
<!-- Node1&#45;&gt;Node4 -->
<g id="edge3" class="edge"><title>Node1&#45;&gt;Node4</title>
<path fill="none" stroke="midnightblue" d="M117.537,-85.1443C208.03,-85.1443 372.721,-85.1443 453.405,-85.1443"/>
<polygon fill="midnightblue" stroke="midnightblue" points="117.414,-81.6444 107.413,-85.1443 117.413,-88.6444 117.414,-81.6444"/>
</g>
<!-- Node7 -->
<g id="node7" class="node"><title>Node7</title>
<g id="a_node7"><a xlink:href="../../d8/d35/classprolog_1_1Init_a3e8704cf8b2d909fccc79e967dd48171.html#a3e8704cf8b2d909fccc79e967dd48171" target="_top" xlink:title="prolog.Init.standardTop">
<polygon fill="none" stroke="black" points="588,-18.6443 588,-37.6443 704,-37.6443 704,-18.6443 588,-18.6443"/>
<text text-anchor="middle" x="646" y="-25.6443" font-family="Helvetica,sans-Serif" font-size="10.00">prolog.Init.standardTop</text>
</a>
</g>
</g>
<!-- Node1&#45;&gt;Node7 -->
<g id="edge12" class="edge"><title>Node1&#45;&gt;Node7</title>
<path fill="none" stroke="midnightblue" d="M72.8306,-68.7964C89.7056,-54.9234 116.126,-36.0499 143,-28.1443 301.023,18.3409 499.335,-3.8122 592.315,-18.5921"/>
<polygon fill="midnightblue" stroke="midnightblue" points="70.281,-66.3698 64.9242,-75.5107 74.8121,-71.7054 70.281,-66.3698"/>
</g>
<!-- Node8 -->
<g id="node8" class="node"><title>Node8</title>
<g id="a_node8"><a xlink:href="../../d8/d35/classprolog_1_1Init_a6770cfc55af8d41a45725d0fdfd51815.html#a6770cfc55af8d41a45725d0fdfd51815" target="_top" xlink:title="prolog.Init.moreAnswers">
<polygon fill="none" stroke="black" points="149.5,-37.6443 149.5,-56.6443 271.5,-56.6443 271.5,-37.6443 149.5,-37.6443"/>
<text text-anchor="middle" x="210.5" y="-44.6443" font-family="Helvetica,sans-Serif" font-size="10.00">prolog.Init.moreAnswers</text>
</a>
</g>
</g>
<!-- Node1&#45;&gt;Node8 -->
<g id="edge7" class="edge"><title>Node1&#45;&gt;Node8</title>
<path fill="none" stroke="midnightblue" d="M103.611,-73.1043C125.265,-67.7956 150.35,-61.6456 170.668,-56.6644"/>
<polygon fill="midnightblue" stroke="midnightblue" points="102.492,-69.7748 93.613,-75.5553 104.159,-76.5735 102.492,-69.7748"/>
</g>
<!-- Node5 -->
<g id="node5" class="node"><title>Node5</title>
<g id="a_node5"><a xlink:href="../../d8/d35/classprolog_1_1Init_a4a827a2cfd90b291c538b46573b83d2f.html#a4a827a2cfd90b291c538b46573b83d2f" target="_top" xlink:title="Asks Prolog a String query and gets back a string Answer of the form &quot;the(&#39;[]&#39;(VarsOfQuery))&quot; contain...">
<polygon fill="none" stroke="black" points="593,-94.6443 593,-113.644 699,-113.644 699,-94.6443 593,-94.6443"/>
<text text-anchor="middle" x="646" y="-101.644" font-family="Helvetica,sans-Serif" font-size="10.00">prolog.Init.askProlog</text>
</a>
</g>
</g>
<!-- Node4&#45;&gt;Node5 -->
<g id="edge4" class="edge"><title>Node4&#45;&gt;Node5</title>
<path fill="none" stroke="midnightblue" d="M559.775,-92.7809C570.614,-94.2261 581.902,-95.7312 592.582,-97.1552"/>
<polygon fill="midnightblue" stroke="midnightblue" points="559.93,-89.2707 549.555,-91.4183 559.004,-96.2093 559.93,-89.2707"/>
</g>
<!-- Node6 -->
<g id="node6" class="node"><title>Node6</title>
<g id="a_node6"><a xlink:href="../../d8/d35/classprolog_1_1Init_a0348efff7140aed75f8364f90b7c2b8b.html#a0348efff7140aed75f8364f90b7c2b8b" target="_top" xlink:title="prolog.Init.run_query">
<polygon fill="none" stroke="black" points="593.5,-56.6443 593.5,-75.6443 698.5,-75.6443 698.5,-56.6443 593.5,-56.6443"/>
<text text-anchor="middle" x="646" y="-63.6443" font-family="Helvetica,sans-Serif" font-size="10.00">prolog.Init.run_query</text>
</a>
</g>
</g>
<!-- Node4&#45;&gt;Node6 -->
<g id="edge5" class="edge"><title>Node4&#45;&gt;Node6</title>
<path fill="none" stroke="midnightblue" d="M559.558,-77.5366C570.631,-76.0602 582.181,-74.5202 593.079,-73.0672"/>
<polygon fill="midnightblue" stroke="midnightblue" points="559.004,-74.0793 549.555,-78.8704 559.93,-81.0179 559.004,-74.0793"/>
</g>
<!-- Node4&#45;&gt;Node7 -->
<g id="edge6" class="edge"><title>Node4&#45;&gt;Node7</title>
<path fill="none" stroke="midnightblue" d="M538.852,-71.7627C543.314,-69.9528 547.784,-68.0578 552,-66.1443 568.474,-58.6673 571.363,-54.2509 588,-47.1443 596.058,-43.7025 604.965,-40.4737 613.296,-37.6887"/>
<polygon fill="midnightblue" stroke="midnightblue" points="537.223,-68.6427 529.201,-75.5632 539.788,-75.156 537.223,-68.6427"/>
</g>
<!-- Node9 -->
<g id="node9" class="node"><title>Node9</title>
<g id="a_node9"><a xlink:href="../../d8/d35/classprolog_1_1Init_a34d43d3123bb194902cbcb1c06194cce.html#a34d43d3123bb194902cbcb1c06194cce" target="_top" xlink:title="evalutes a query ">
<polygon fill="none" stroke="black" points="314,-37.6443 314,-56.6443 415,-56.6443 415,-37.6443 314,-37.6443"/>
<text text-anchor="middle" x="364.5" y="-44.6443" font-family="Helvetica,sans-Serif" font-size="10.00">prolog.Init.evalGoal</text>
</a>
</g>
</g>
<!-- Node8&#45;&gt;Node9 -->
<g id="edge8" class="edge"><title>Node8&#45;&gt;Node9</title>
<path fill="none" stroke="midnightblue" d="M281.807,-47.1443C292.558,-47.1443 303.461,-47.1443 313.651,-47.1443"/>
<polygon fill="midnightblue" stroke="midnightblue" points="281.574,-43.6444 271.574,-47.1443 281.574,-50.6444 281.574,-43.6444"/>
</g>
<!-- Node10 -->
<g id="node10" class="node"><title>Node10</title>
<g id="a_node10"><a xlink:href="../../d8/d35/classprolog_1_1Init_a2471811f50fbed4de5df26ee530f1e2e.html#a2471811f50fbed4de5df26ee530f1e2e" target="_top" xlink:title="evaluates and times a Goal querying program P ">
<polygon fill="none" stroke="black" points="451,-37.6443 451,-56.6443 552,-56.6443 552,-37.6443 451,-37.6443"/>
<text text-anchor="middle" x="501.5" y="-44.6443" font-family="Helvetica,sans-Serif" font-size="10.00">prolog.Init.timeGoal</text>
</a>
</g>
</g>
<!-- Node9&#45;&gt;Node10 -->
<g id="edge9" class="edge"><title>Node9&#45;&gt;Node10</title>
<path fill="none" stroke="midnightblue" d="M425.207,-47.1443C433.67,-47.1443 442.299,-47.1443 450.552,-47.1443"/>
<polygon fill="midnightblue" stroke="midnightblue" points="425.002,-43.6444 415.002,-47.1443 425.002,-50.6444 425.002,-43.6444"/>
</g>
<!-- Node10&#45;&gt;Node6 -->
<g id="edge10" class="edge"><title>Node10&#45;&gt;Node6</title>
<path fill="none" stroke="midnightblue" d="M562.505,-55.145C572.811,-56.5192 583.44,-57.9363 593.498,-59.2773"/>
<polygon fill="midnightblue" stroke="midnightblue" points="562.714,-51.642 552.34,-53.7896 561.789,-58.5806 562.714,-51.642"/>
</g>
<!-- Node10&#45;&gt;Node7 -->
<g id="edge11" class="edge"><title>Node10&#45;&gt;Node7</title>
<path fill="none" stroke="midnightblue" d="M562.393,-39.1586C570.748,-38.0446 579.317,-36.9021 587.624,-35.7945"/>
<polygon fill="midnightblue" stroke="midnightblue" points="561.789,-35.708 552.34,-40.499 562.714,-42.6466 561.789,-35.708"/>
</g>
</g>
</svg>
        <g id="navigator" transform="translate(0 0)" fill="#404254">
                <rect fill="#f2f5e9" fill-opacity="0.5" stroke="#606060" stroke-width=".5" x="0" y="0" width="60" height="60"/>
                <use id="zoomplus" xlink:href="#zoomPlus" x="17" y="9" onmousedown="handleZoom(evt,'in')"/>
                <use id="zoomminus" xlink:href="#zoomMin" x="42" y="9" onmousedown="handleZoom(evt,'out')"/>
                <use id="reset" xlink:href="#resetDef" x="30" y="36" onmousedown="handleReset()"/>
                <g id="arrowUp" xlink:href="#dirArrow" transform="translate(30 24)" onmousedown="handlePan(0,-1)">
                  <use xlink:href="#rim" fill="#404040">
                        <set attributeName="fill" to="#808080" begin="arrowUp.mouseover" end="arrowUp.mouseout"/>
                  </use>
                  <path fill="none" stroke="white" stroke-width="1.5" d="M0,-3.0v7 M-2.5,-0.5L0,-3.0L2.5,-0.5"/>
                </g>
                <g id="arrowRight" xlink:href="#dirArrow" transform="rotate(90) translate(36 -43)" onmousedown="handlePan(1,0)">
                  <use xlink:href="#rim" fill="#404040">
                        <set attributeName="fill" to="#808080" begin="arrowRight.mouseover" end="arrowRight.mouseout"/>
                  </use>
                  <path fill="none" stroke="white" stroke-width="1.5" d="M0,-3.0v7 M-2.5,-0.5L0,-3.0L2.5,-0.5"/>
                </g>
                <g id="arrowDown" xlink:href="#dirArrow" transform="rotate(180) translate(-30 -48)" onmousedown="handlePan(0,1)">
                  <use xlink:href="#rim" fill="#404040">
                        <set attributeName="fill" to="#808080" begin="arrowDown.mouseover" end="arrowDown.mouseout"/>
                  </use>
                  <path fill="none" stroke="white" stroke-width="1.5" d="M0,-3.0v7 M-2.5,-0.5L0,-3.0L2.5,-0.5"/>
                </g>
                <g id="arrowLeft" xlink:href="#dirArrow" transform="rotate(270) translate(-36 17)" onmousedown="handlePan(-1,0)">
                  <use xlink:href="#rim" fill="#404040">
                        <set attributeName="fill" to="#808080" begin="arrowLeft.mouseover" end="arrowLeft.mouseout"/>
                  </use>
                  <path fill="none" stroke="white" stroke-width="1.5" d="M0,-3.0v7 M-2.5,-0.5L0,-3.0L2.5,-0.5"/>
                </g>
        </g>
        <svg viewBox="0 0 15 15" width="100%" height="30px" preserveAspectRatio="xMaxYMin meet">
         <g id="arrow_out" transform="scale(0.3 0.3)">
          <a xlink:href="classprolog_1_1io_1_1IO_a09da8fec5af0245e24996fe5a0addfdd_a09da8fec5af0245e24996fe5a0addfdd_icgraph_org.svg" target="_base">
           <rect id="button" ry="5" rx="5" y="6" x="6" height="38" width="38"
                fill="#f2f5e9" fill-opacity="0.5" stroke="#606060" stroke-width="1.0"/>
           <path id="arrow"
             d="M 11.500037,31.436501 C 11.940474,20.09759 22.043105,11.32322 32.158766,21.979434 L 37.068811,17.246167 C 37.068811,17.246167 37.088388,32 37.088388,32 L 22.160133,31.978069 C 22.160133,31.978069 26.997745,27.140456 26.997745,27.140456 C 18.528582,18.264221 13.291696,25.230495 11.500037,31.436501 z"
             style="fill:#404040;"/>
          </a>
         </g>
        </svg>
</svg>
