<?xml version="1.0" encoding="UTF-8" standalone="no"?>
<!DOCTYPE svg PUBLIC "-//W3C//DTD SVG 1.1//EN"
 "http://www.w3.org/Graphics/SVG/1.1/DTD/svg11.dtd">
<!-- Generated by graphviz version 2.38.0 (20140413.2041)
 -->
<!-- Title: prolog.io.IO.trace Pages: 1 -->
<svg width="1628pt" height="523pt"
 viewBox="0.00 0.00 1628.00 523.17" xmlns="http://www.w3.org/2000/svg" xmlns:xlink="http://www.w3.org/1999/xlink">
<g id="graph0" class="graph" transform="scale(1 1) rotate(0) translate(4 519.165)">
<title>prolog.io.IO.trace</title>
<!-- Node1 -->
<g id="node1" class="node"><title>Node1</title>
<polygon fill="#bfbfbf" stroke="black" points="0,-202.665 0,-221.665 92,-221.665 92,-202.665 0,-202.665"/>
<text text-anchor="middle" x="46" y="-209.665" font-family="Helvetica,sans-Serif" font-size="10.00">prolog.io.IO.trace</text>
</g>
<!-- Node2 -->
<g id="node2" class="node"><title>Node2</title>
<g id="a_node2"><a xlink:href="../../d9/d79/classprolog_1_1io_1_1Lexer_a78f1607b4ab73e4e1bc28415dbe83cc0.html#a78f1607b4ab73e4e1bc28415dbe83cc0" target="_top" xlink:title="prolog.io.Lexer.atEOF">
<polygon fill="none" stroke="black" points="152,-368.665 152,-387.665 264,-387.665 264,-368.665 152,-368.665"/>
<text text-anchor="middle" x="208" y="-375.665" font-family="Helvetica,sans-Serif" font-size="10.00">prolog.io.Lexer.atEOF</text>
</a>
</g>
</g>
<!-- Node1&#45;&gt;Node2 -->
<g id="edge1" class="edge"><title>Node1&#45;&gt;Node2</title>
<path fill="none" stroke="midnightblue" d="M56.9615,-230.568C70.6731,-254.741 97.1943,-297.579 128,-327.165 146.132,-344.58 171.037,-359.498 188.005,-368.622"/>
<polygon fill="midnightblue" stroke="midnightblue" points="59.963,-228.764 52.0458,-221.724 53.8445,-232.165 59.963,-228.764"/>
</g>
<!-- Node10 -->
<g id="node10" class="node"><title>Node10</title>
<g id="a_node10"><a xlink:href="../../d6/dc4/classprolog_1_1terms_1_1Clause_aff298dbb79a27341afb0860f82ad1464.html#aff298dbb79a27341afb0860f82ad1464" target="_top" xlink:title="prolog.terms.Clause.goal\lFromString">
<polygon fill="none" stroke="black" points="912.5,-298.165 912.5,-328.165 1037.5,-328.165 1037.5,-298.165 912.5,-298.165"/>
<text text-anchor="start" x="920.5" y="-316.165" font-family="Helvetica,sans-Serif" font-size="10.00">prolog.terms.Clause.goal</text>
<text text-anchor="middle" x="975" y="-305.165" font-family="Helvetica,sans-Serif" font-size="10.00">FromString</text>
</a>
</g>
</g>
<!-- Node1&#45;&gt;Node10 -->
<g id="edge19" class="edge"><title>Node1&#45;&gt;Node10</title>
<path fill="none" stroke="midnightblue" d="M62.9489,-229.104C78.1498,-244.105 102.452,-265.264 128,-276.165 237.986,-323.098 274.919,-313.165 394.5,-313.165 394.5,-313.165 394.5,-313.165 581.5,-313.165 698.535,-313.165 835.199,-313.165 912.476,-313.165"/>
<polygon fill="midnightblue" stroke="midnightblue" points="65.3786,-226.583 55.8711,-221.908 60.388,-231.491 65.3786,-226.583"/>
</g>
<!-- Node13 -->
<g id="node13" class="node"><title>Node13</title>
<g id="a_node13"><a xlink:href="../../de/def/classprolog_1_1builtins_1_1consult_ada1aa218c46073859081290f7e820d0f.html#ada1aa218c46073859081290f7e820d0f" target="_top" xlink:title="prolog.builtins.consult.exec">
<polygon fill="none" stroke="black" points="328,-265.665 328,-284.665 463,-284.665 463,-265.665 328,-265.665"/>
<text text-anchor="middle" x="395.5" y="-272.665" font-family="Helvetica,sans-Serif" font-size="10.00">prolog.builtins.consult.exec</text>
</a>
</g>
</g>
<!-- Node1&#45;&gt;Node13 -->
<g id="edge14" class="edge"><title>Node1&#45;&gt;Node13</title>
<path fill="none" stroke="midnightblue" d="M72.0902,-226.7C87.6671,-235.013 108.391,-244.821 128,-250.165 194.468,-268.282 273.326,-273.8 327.932,-275.235"/>
<polygon fill="midnightblue" stroke="midnightblue" points="73.5626,-223.516 63.1125,-221.771 70.1936,-229.652 73.5626,-223.516"/>
</g>
<!-- Node14 -->
<g id="node14" class="node"><title>Node14</title>
<g id="a_node14"><a xlink:href="../../da/dd9/classprolog_1_1fluents_1_1DataBase_a8b4fed48561a1c3086c94900495508d2.html#a8b4fed48561a1c3086c94900495508d2" target="_top" xlink:title="consults or reconsults a Prolog file by adding or overriding existing predicates to be extended to lo...">
<polygon fill="none" stroke="black" points="128,-221.665 128,-240.665 288,-240.665 288,-221.665 128,-221.665"/>
<text text-anchor="middle" x="208" y="-228.665" font-family="Helvetica,sans-Serif" font-size="10.00">prolog.fluents.DataBase.fromFile</text>
</a>
</g>
</g>
<!-- Node1&#45;&gt;Node14 -->
<g id="edge15" class="edge"><title>Node1&#45;&gt;Node14</title>
<path fill="none" stroke="midnightblue" d="M102.556,-218.763C110.74,-219.735 119.301,-220.751 127.85,-221.766"/>
<polygon fill="midnightblue" stroke="midnightblue" points="102.765,-215.263 92.4216,-217.559 101.939,-222.214 102.765,-215.263"/>
</g>
<!-- Node17 -->
<g id="node17" class="node"><title>Node17</title>
<g id="a_node17"><a xlink:href="../../d4/dc2/classprolog_1_1io_1_1IO_a8125244068839f754d57b9595481e48f.html#a8125244068839f754d57b9595481e48f" target="_top" xlink:title="prolog.io.IO.readln">
<polygon fill="none" stroke="black" points="160,-183.665 160,-202.665 256,-202.665 256,-183.665 160,-183.665"/>
<text text-anchor="middle" x="208" y="-190.665" font-family="Helvetica,sans-Serif" font-size="10.00">prolog.io.IO.readln</text>
</a>
</g>
</g>
<!-- Node1&#45;&gt;Node17 -->
<g id="edge20" class="edge"><title>Node1&#45;&gt;Node17</title>
<path fill="none" stroke="midnightblue" d="M102.556,-205.568C121.215,-203.352 141.837,-200.904 159.793,-198.771"/>
<polygon fill="midnightblue" stroke="midnightblue" points="101.939,-202.117 92.4216,-206.772 102.765,-209.068 101.939,-202.117"/>
</g>
<!-- Node18 -->
<g id="node18" class="node"><title>Node18</title>
<g id="a_node18"><a xlink:href="../../de/d23/classprolog_1_1fluents_1_1Queue_a16816604313a1e73e9d8845cdd4cbf8a.html#a16816604313a1e73e9d8845cdd4cbf8a" target="_top" xlink:title="Dynamically resizes the queue. ">
<polygon fill="none" stroke="black" points="136,-63.6654 136,-82.6654 280,-82.6654 280,-63.6654 136,-63.6654"/>
<text text-anchor="middle" x="208" y="-70.6654" font-family="Helvetica,sans-Serif" font-size="10.00">prolog.fluents.Queue.requeue</text>
</a>
</g>
</g>
<!-- Node1&#45;&gt;Node18 -->
<g id="edge21" class="edge"><title>Node1&#45;&gt;Node18</title>
<path fill="none" stroke="midnightblue" d="M54.5017,-193.183C66.1021,-166.376 90.9896,-117.842 128,-92.1654 133.563,-88.3057 139.818,-85.2255 146.308,-82.768"/>
<polygon fill="midnightblue" stroke="midnightblue" points="51.1917,-192.027 50.5872,-202.605 57.656,-194.713 51.1917,-192.027"/>
</g>
<!-- Node34 -->
<g id="node34" class="node"><title>Node34</title>
<g id="a_node34"><a xlink:href="../../d8/d35/classprolog_1_1Init_a7293b6db1f53eca4730418c54ab07109.html#a7293b6db1f53eca4730418c54ab07109" target="_top" xlink:title="prolog.Init.run">
<polygon fill="none" stroke="black" points="170,-101.665 170,-120.665 246,-120.665 246,-101.665 170,-101.665"/>
<text text-anchor="middle" x="208" y="-108.665" font-family="Helvetica,sans-Serif" font-size="10.00">prolog.Init.run</text>
</a>
</g>
</g>
<!-- Node1&#45;&gt;Node34 -->
<g id="edge40" class="edge"><title>Node1&#45;&gt;Node34</title>
<path fill="none" stroke="midnightblue" d="M60.878,-194.903C75.7545,-177.476 100.914,-150.945 128,-135.165 140.757,-127.733 156.037,-122.397 169.745,-118.672"/>
<polygon fill="midnightblue" stroke="midnightblue" points="58.1455,-192.715 54.4377,-202.64 63.5255,-197.193 58.1455,-192.715"/>
</g>
<!-- Node36 -->
<g id="node36" class="node"><title>Node36</title>
<g id="a_node36"><a xlink:href="../../d6/dc4/classprolog_1_1terms_1_1Clause_a00d8b13e5351a9f8c1ef80de688cd266.html#a00d8b13e5351a9f8c1ef80de688cd266" target="_top" xlink:title="Reads a goal as a clause containing a dummy header with all variables in it. ">
<polygon fill="none" stroke="black" points="711,-243.665 711,-262.665 847,-262.665 847,-243.665 711,-243.665"/>
<text text-anchor="middle" x="779" y="-250.665" font-family="Helvetica,sans-Serif" font-size="10.00">prolog.terms.Clause.toGoal</text>
</a>
</g>
</g>
<!-- Node1&#45;&gt;Node36 -->
<g id="edge42" class="edge"><title>Node1&#45;&gt;Node36</title>
<path fill="none" stroke="midnightblue" d="M71.3891,-197.508C86.9874,-188.962 107.983,-178.95 128,-174.165 274.561,-139.133 317.649,-148.123 467,-168.165 575.456,-182.72 699.636,-224.616 752.273,-243.606"/>
<polygon fill="midnightblue" stroke="midnightblue" points="69.4088,-194.607 62.4313,-202.579 72.8578,-200.698 69.4088,-194.607"/>
</g>
<!-- Node3 -->
<g id="node3" class="node"><title>Node3</title>
<g id="a_node3"><a xlink:href="../../da/dd9/classprolog_1_1fluents_1_1DataBase_a83885e10b61d6bf129307d9bf50d93de.html#a83885e10b61d6bf129307d9bf50d93de" target="_top" xlink:title="prolog.fluents.DataBase.apply\l_parser">
<polygon fill="none" stroke="black" points="1281,-386.165 1281,-416.165 1429,-416.165 1429,-386.165 1281,-386.165"/>
<text text-anchor="start" x="1289" y="-404.165" font-family="Helvetica,sans-Serif" font-size="10.00">prolog.fluents.DataBase.apply</text>
<text text-anchor="middle" x="1355" y="-393.165" font-family="Helvetica,sans-Serif" font-size="10.00">_parser</text>
</a>
</g>
</g>
<!-- Node2&#45;&gt;Node3 -->
<g id="edge2" class="edge"><title>Node2&#45;&gt;Node3</title>
<path fill="none" stroke="midnightblue" d="M232.007,-393.251C288.604,-428.86 440.154,-515.165 579.5,-515.165 579.5,-515.165 579.5,-515.165 976,-515.165 1111.38,-515.165 1262.85,-447.314 1325.01,-416.304"/>
<polygon fill="midnightblue" stroke="midnightblue" points="233.769,-390.224 223.455,-387.799 230.006,-396.126 233.769,-390.224"/>
</g>
<!-- Node5 -->
<g id="node5" class="node"><title>Node5</title>
<g id="a_node5"><a xlink:href="../../d4/d09/classprolog_1_1io_1_1ClauseReader_a805e9a5ebc401e1099f39af9b3f6fb47.html#a805e9a5ebc401e1099f39af9b3f6fb47" target="_top" xlink:title="prolog.io.ClauseReader.get\lElement">
<polygon fill="none" stroke="black" points="513,-342.165 513,-372.165 648,-372.165 648,-342.165 513,-342.165"/>
<text text-anchor="start" x="521" y="-360.165" font-family="Helvetica,sans-Serif" font-size="10.00">prolog.io.ClauseReader.get</text>
<text text-anchor="middle" x="580.5" y="-349.165" font-family="Helvetica,sans-Serif" font-size="10.00">Element</text>
</a>
</g>
</g>
<!-- Node2&#45;&gt;Node5 -->
<g id="edge4" class="edge"><title>Node2&#45;&gt;Node5</title>
<path fill="none" stroke="midnightblue" d="M274.094,-374.476C341.164,-370.674 445.193,-364.778 512.833,-360.944"/>
<polygon fill="midnightblue" stroke="midnightblue" points="273.853,-370.984 264.068,-375.044 274.25,-377.973 273.853,-370.984"/>
</g>
<!-- Node6 -->
<g id="node6" class="node"><title>Node6</title>
<g id="a_node6"><a xlink:href="../../d7/df1/classprolog_1_1io_1_1Parser_ad0255f716753ec63c0f4e7cf9a8d2d38.html#ad0255f716753ec63c0f4e7cf9a8d2d38" target="_top" xlink:title="Main Parser interface: reads a clause together with variable name information. ">
<polygon fill="none" stroke="black" points="327,-390.665 327,-409.665 464,-409.665 464,-390.665 327,-390.665"/>
<text text-anchor="middle" x="395.5" y="-397.665" font-family="Helvetica,sans-Serif" font-size="10.00">prolog.io.Parser.readClause</text>
</a>
</g>
</g>
<!-- Node2&#45;&gt;Node6 -->
<g id="edge5" class="edge"><title>Node2&#45;&gt;Node6</title>
<path fill="none" stroke="midnightblue" d="M274.504,-385.934C291.439,-387.943 309.704,-390.109 326.751,-392.13"/>
<polygon fill="midnightblue" stroke="midnightblue" points="274.497,-382.409 264.154,-384.707 273.672,-389.36 274.497,-382.409"/>
</g>
<!-- Node4 -->
<g id="node4" class="node"><title>Node4</title>
<g id="a_node4"><a xlink:href="../../da/dd9/classprolog_1_1fluents_1_1DataBase_af8b26948ded7bba6386b984f463bf166.html#af8b26948ded7bba6386b984f463bf166" target="_top" xlink:title="prolog.fluents.DataBase.stream\lToProg">
<polygon fill="none" stroke="black" points="1465,-386.165 1465,-416.165 1620,-416.165 1620,-386.165 1465,-386.165"/>
<text text-anchor="start" x="1473" y="-404.165" font-family="Helvetica,sans-Serif" font-size="10.00">prolog.fluents.DataBase.stream</text>
<text text-anchor="middle" x="1542.5" y="-393.165" font-family="Helvetica,sans-Serif" font-size="10.00">ToProg</text>
</a>
</g>
</g>
<!-- Node3&#45;&gt;Node4 -->
<g id="edge3" class="edge"><title>Node3&#45;&gt;Node4</title>
<path fill="none" stroke="midnightblue" d="M1439.06,-401.165C1447.65,-401.165 1456.34,-401.165 1464.86,-401.165"/>
<polygon fill="midnightblue" stroke="midnightblue" points="1439.05,-397.666 1429.05,-401.165 1439.05,-404.666 1439.05,-397.666"/>
</g>
<!-- Node6&#45;&gt;Node3 -->
<g id="edge6" class="edge"><title>Node6&#45;&gt;Node3</title>
<path fill="none" stroke="midnightblue" d="M474.144,-400.488C551.231,-400.78 672.778,-401.165 778,-401.165 778,-401.165 778,-401.165 976,-401.165 1081.98,-401.165 1204.68,-401.165 1280.83,-401.165"/>
<polygon fill="midnightblue" stroke="midnightblue" points="474.049,-396.988 464.035,-400.449 474.022,-403.988 474.049,-396.988"/>
</g>
<!-- Node6&#45;&gt;Node5 -->
<g id="edge7" class="edge"><title>Node6&#45;&gt;Node5</title>
<path fill="none" stroke="midnightblue" d="M446.902,-388.322C468.147,-383.33 493.123,-377.462 515.636,-372.172"/>
<polygon fill="midnightblue" stroke="midnightblue" points="446.048,-384.928 437.114,-390.622 447.649,-391.742 446.048,-384.928"/>
</g>
<!-- Node7 -->
<g id="node7" class="node"><title>Node7</title>
<g id="a_node7"><a xlink:href="../../d7/df1/classprolog_1_1io_1_1Parser_acd7f700bcb96620b8c6770c2fcae5802.html#acd7f700bcb96620b8c6770c2fcae5802" target="_top" xlink:title="prolog.io.Parser.clsFrom\lString">
<polygon fill="none" stroke="black" points="519,-430.165 519,-460.165 642,-460.165 642,-430.165 519,-430.165"/>
<text text-anchor="start" x="527" y="-448.165" font-family="Helvetica,sans-Serif" font-size="10.00">prolog.io.Parser.clsFrom</text>
<text text-anchor="middle" x="580.5" y="-437.165" font-family="Helvetica,sans-Serif" font-size="10.00">String</text>
</a>
</g>
</g>
<!-- Node6&#45;&gt;Node7 -->
<g id="edge8" class="edge"><title>Node6&#45;&gt;Node7</title>
<path fill="none" stroke="midnightblue" d="M445.03,-412.099C467.653,-417.662 494.81,-424.34 518.778,-430.234"/>
<polygon fill="midnightblue" stroke="midnightblue" points="445.856,-408.698 435.31,-409.709 444.185,-415.495 445.856,-408.698"/>
</g>
<!-- Node8 -->
<g id="node8" class="node"><title>Node8</title>
<g id="a_node8"><a xlink:href="../../d6/dc4/classprolog_1_1terms_1_1Clause_a253e30217e7c206f42b947ba0dc7d754.html#a253e30217e7c206f42b947ba0dc7d754" target="_top" xlink:title="Extracts a clause from its String representation. ">
<polygon fill="none" stroke="black" points="711,-430.165 711,-460.165 847,-460.165 847,-430.165 711,-430.165"/>
<text text-anchor="start" x="719" y="-448.165" font-family="Helvetica,sans-Serif" font-size="10.00">prolog.terms.Clause.clause</text>
<text text-anchor="middle" x="779" y="-437.165" font-family="Helvetica,sans-Serif" font-size="10.00">FromString</text>
</a>
</g>
</g>
<!-- Node7&#45;&gt;Node8 -->
<g id="edge9" class="edge"><title>Node7&#45;&gt;Node8</title>
<path fill="none" stroke="midnightblue" d="M652.19,-445.165C671.286,-445.165 691.893,-445.165 710.791,-445.165"/>
<polygon fill="midnightblue" stroke="midnightblue" points="652.06,-441.666 642.06,-445.165 652.06,-448.666 652.06,-441.666"/>
</g>
<!-- Node9 -->
<g id="node9" class="node"><title>Node9</title>
<g id="a_node9"><a xlink:href="../../d6/dc4/classprolog_1_1terms_1_1Clause_a59a965be3fc2e88226d5202dca1b2a26.html#a59a965be3fc2e88226d5202dca1b2a26" target="_top" xlink:title="Constructs a clause by parsing its string representation. ">
<polygon fill="none" stroke="black" points="906,-429.665 906,-448.665 1044,-448.665 1044,-429.665 906,-429.665"/>
<text text-anchor="middle" x="975" y="-436.665" font-family="Helvetica,sans-Serif" font-size="10.00">prolog.terms.Clause.Clause</text>
</a>
</g>
</g>
<!-- Node8&#45;&gt;Node9 -->
<g id="edge10" class="edge"><title>Node8&#45;&gt;Node9</title>
<path fill="none" stroke="midnightblue" d="M857.454,-442.77C873.502,-442.274 890.295,-441.754 905.975,-441.269"/>
<polygon fill="midnightblue" stroke="midnightblue" points="856.922,-439.285 847.035,-443.092 857.139,-446.281 856.922,-439.285"/>
</g>
<!-- Node8&#45;&gt;Node10 -->
<g id="edge11" class="edge"><title>Node8&#45;&gt;Node10</title>
<path fill="none" stroke="midnightblue" d="M810.657,-424.306C849.908,-397.599 916.985,-351.959 951.707,-328.334"/>
<polygon fill="midnightblue" stroke="midnightblue" points="808.553,-421.504 802.254,-430.023 812.491,-427.292 808.553,-421.504"/>
</g>
<!-- Node12 -->
<g id="node12" class="node"><title>Node12</title>
<g id="a_node12"><a xlink:href="../../d3/ded/classprolog_1_1terms_1_1Term_a837eb66c18c36b2a0a4ecce8ad7cd144.html#a837eb66c18c36b2a0a4ecce8ad7cd144" target="_top" xlink:title="prolog.terms.Term.fromString">
<polygon fill="none" stroke="black" points="903,-467.665 903,-486.665 1047,-486.665 1047,-467.665 903,-467.665"/>
<text text-anchor="middle" x="975" y="-474.665" font-family="Helvetica,sans-Serif" font-size="10.00">prolog.terms.Term.fromString</text>
</a>
</g>
</g>
<!-- Node8&#45;&gt;Node12 -->
<g id="edge13" class="edge"><title>Node8&#45;&gt;Node12</title>
<path fill="none" stroke="midnightblue" d="M856.951,-457.858C876.745,-461.123 897.704,-464.58 916.332,-467.653"/>
<polygon fill="midnightblue" stroke="midnightblue" points="857.472,-454.397 847.035,-456.223 856.332,-461.304 857.472,-454.397"/>
</g>
<!-- Node11 -->
<g id="node11" class="node"><title>Node11</title>
<g id="a_node11"><a xlink:href="../../d8/d35/classprolog_1_1Init_a0f6db95b70444cd1b933f24ec44814e4.html#a0f6db95b70444cd1b933f24ec44814e4" target="_top" xlink:title="prolog.Init.getGoal">
<polygon fill="none" stroke="black" points="1117.5,-303.665 1117.5,-322.665 1213.5,-322.665 1213.5,-303.665 1117.5,-303.665"/>
<text text-anchor="middle" x="1165.5" y="-310.665" font-family="Helvetica,sans-Serif" font-size="10.00">prolog.Init.getGoal</text>
</a>
</g>
</g>
<!-- Node10&#45;&gt;Node11 -->
<g id="edge12" class="edge"><title>Node10&#45;&gt;Node11</title>
<path fill="none" stroke="midnightblue" d="M1047.9,-313.165C1071.14,-313.165 1096.31,-313.165 1117.29,-313.165"/>
<polygon fill="midnightblue" stroke="midnightblue" points="1047.72,-309.666 1037.72,-313.165 1047.72,-316.666 1047.72,-309.666"/>
</g>
<!-- Node14&#45;&gt;Node13 -->
<g id="edge17" class="edge"><title>Node14&#45;&gt;Node13</title>
<path fill="none" stroke="midnightblue" d="M259.07,-243.042C288.951,-250.13 326.391,-259.01 354.328,-265.637"/>
<polygon fill="midnightblue" stroke="midnightblue" points="259.789,-239.615 249.251,-240.713 258.173,-246.426 259.789,-239.615"/>
</g>
<!-- Node15 -->
<g id="node15" class="node"><title>Node15</title>
<g id="a_node15"><a xlink:href="../../d4/d86/classprolog_1_1builtins_1_1reconsult_af4fc0f95b6190b657cdac0b5fbc3240f.html#af4fc0f95b6190b657cdac0b5fbc3240f" target="_top" xlink:title="prolog.builtins.reconsult.exec">
<polygon fill="none" stroke="black" points="324,-177.665 324,-196.665 467,-196.665 467,-177.665 324,-177.665"/>
<text text-anchor="middle" x="395.5" y="-184.665" font-family="Helvetica,sans-Serif" font-size="10.00">prolog.builtins.reconsult.exec</text>
</a>
</g>
</g>
<!-- Node14&#45;&gt;Node15 -->
<g id="edge16" class="edge"><title>Node14&#45;&gt;Node15</title>
<path fill="none" stroke="midnightblue" d="M259.07,-219.289C288.951,-212.201 326.391,-203.321 354.328,-196.694"/>
<polygon fill="midnightblue" stroke="midnightblue" points="258.173,-215.905 249.251,-221.618 259.789,-222.716 258.173,-215.905"/>
</g>
<!-- Node16 -->
<g id="node16" class="node"><title>Node16</title>
<g id="a_node16"><a xlink:href="../../dd/dcc/classprolog_1_1builtins_1_1reconsult__again_af072d724d06b6e38550d6c8d21e10d19.html#af072d724d06b6e38550d6c8d21e10d19" target="_top" xlink:title="prolog.builtins.reconsult\l_again.exec">
<polygon fill="none" stroke="black" points="336,-216.165 336,-246.165 455,-246.165 455,-216.165 336,-216.165"/>
<text text-anchor="start" x="344" y="-234.165" font-family="Helvetica,sans-Serif" font-size="10.00">prolog.builtins.reconsult</text>
<text text-anchor="middle" x="395.5" y="-223.165" font-family="Helvetica,sans-Serif" font-size="10.00">_again.exec</text>
</a>
</g>
</g>
<!-- Node14&#45;&gt;Node16 -->
<g id="edge18" class="edge"><title>Node14&#45;&gt;Node16</title>
<path fill="none" stroke="midnightblue" d="M298.357,-231.165C311.058,-231.165 323.844,-231.165 335.761,-231.165"/>
<polygon fill="midnightblue" stroke="midnightblue" points="298.207,-227.666 288.207,-231.165 298.207,-234.666 298.207,-227.666"/>
</g>
<!-- Node19 -->
<g id="node19" class="node"><title>Node19</title>
<g id="a_node19"><a xlink:href="../../de/d23/classprolog_1_1fluents_1_1Queue_a287302e64fec17ff6cad3f51f8c4bd12.html#a287302e64fec17ff6cad3f51f8c4bd12" target="_top" xlink:title="Removes the first element of the queue. ">
<polygon fill="none" stroke="black" points="333,-19.6654 333,-38.6654 458,-38.6654 458,-19.6654 333,-19.6654"/>
<text text-anchor="middle" x="395.5" y="-26.6654" font-family="Helvetica,sans-Serif" font-size="10.00">prolog.fluents.Queue.deq</text>
</a>
</g>
</g>
<!-- Node18&#45;&gt;Node19 -->
<g id="edge22" class="edge"><title>Node18&#45;&gt;Node19</title>
<path fill="none" stroke="midnightblue" d="M259.07,-61.289C288.951,-54.2012 326.391,-45.3206 354.328,-38.6941"/>
<polygon fill="midnightblue" stroke="midnightblue" points="258.173,-57.9045 249.251,-63.6181 259.789,-64.7156 258.173,-57.9045"/>
</g>
<!-- Node25 -->
<g id="node25" class="node"><title>Node25</title>
<g id="a_node25"><a xlink:href="../../de/d23/classprolog_1_1fluents_1_1Queue_ac547996ff0686a0df9b16cb070bef1be.html#ac547996ff0686a0df9b16cb070bef1be" target="_top" xlink:title="Adds an element to the end of the queue. ">
<polygon fill="none" stroke="black" points="333,-63.6654 333,-82.6654 458,-82.6654 458,-63.6654 333,-63.6654"/>
<text text-anchor="middle" x="395.5" y="-70.6654" font-family="Helvetica,sans-Serif" font-size="10.00">prolog.fluents.Queue.enq</text>
</a>
</g>
</g>
<!-- Node18&#45;&gt;Node25 -->
<g id="edge28" class="edge"><title>Node18&#45;&gt;Node25</title>
<path fill="none" stroke="midnightblue" d="M290.469,-73.1654C304.701,-73.1654 319.292,-73.1654 332.876,-73.1654"/>
<polygon fill="midnightblue" stroke="midnightblue" points="290.189,-69.6655 280.189,-73.1654 290.189,-76.6655 290.189,-69.6655"/>
</g>
<!-- Node20 -->
<g id="node20" class="node"><title>Node20</title>
<g id="a_node20"><a xlink:href="../../d9/dc9/classprolog_1_1fluents_1_1SourceMerger_a0efcba19e4678b70041342889357e43b.html#a0efcba19e4678b70041342889357e43b" target="_top" xlink:title="prolog.fluents.SourceMerger.get\lElement">
<polygon fill="none" stroke="black" points="503,-14.1654 503,-44.1654 658,-44.1654 658,-14.1654 503,-14.1654"/>
<text text-anchor="start" x="511" y="-32.1654" font-family="Helvetica,sans-Serif" font-size="10.00">prolog.fluents.SourceMerger.get</text>
<text text-anchor="middle" x="580.5" y="-21.1654" font-family="Helvetica,sans-Serif" font-size="10.00">Element</text>
</a>
</g>
</g>
<!-- Node19&#45;&gt;Node20 -->
<g id="edge23" class="edge"><title>Node19&#45;&gt;Node20</title>
<path fill="none" stroke="midnightblue" d="M468.428,-29.1654C479.715,-29.1654 491.419,-29.1654 502.808,-29.1654"/>
<polygon fill="midnightblue" stroke="midnightblue" points="468.2,-25.6655 458.2,-29.1654 468.2,-32.6655 468.2,-25.6655"/>
</g>
<!-- Node21 -->
<g id="node21" class="node"><title>Node21</title>
<g id="a_node21"><a xlink:href="../../d2/d8d/classprolog_1_1fluents_1_1BlackBoard_a9a02fa64d8837510e94f4ef70aa25096.html#a9a02fa64d8837510e94f4ef70aa25096" target="_top" xlink:title="Removes the first Term having key k or the first enumerated key if k is null. ">
<polygon fill="none" stroke="black" points="704.5,-8.66541 704.5,-27.6654 853.5,-27.6654 853.5,-8.66541 704.5,-8.66541"/>
<text text-anchor="middle" x="779" y="-15.6654" font-family="Helvetica,sans-Serif" font-size="10.00">prolog.fluents.BlackBoard.pick</text>
</a>
</g>
</g>
<!-- Node19&#45;&gt;Node21 -->
<g id="edge24" class="edge"><title>Node19&#45;&gt;Node21</title>
<path fill="none" stroke="midnightblue" d="M438.544,-16.9361C457.976,-11.8959 481.472,-6.65829 503,-4.16541 573.994,4.05548 655.855,-2.0999 711.678,-8.64415"/>
<polygon fill="midnightblue" stroke="midnightblue" points="437.545,-13.5801 428.784,-19.5382 439.348,-20.3438 437.545,-13.5801"/>
</g>
<!-- Node22 -->
<g id="node22" class="node"><title>Node22</title>
<g id="a_node22"><a xlink:href="../../d2/d8d/classprolog_1_1fluents_1_1BlackBoard_a4b49c266b7b7abbc698841281e426bfe.html#a4b49c266b7b7abbc698841281e426bfe" target="_top" xlink:title="Removes the first matching Term or Clause from the blackboard, to be used by Linda in/1 operation in ...">
<polygon fill="none" stroke="black" points="900,-76.6654 900,-95.6654 1050,-95.6654 1050,-76.6654 900,-76.6654"/>
<text text-anchor="middle" x="975" y="-83.6654" font-family="Helvetica,sans-Serif" font-size="10.00">prolog.fluents.BlackBoard.take</text>
</a>
</g>
</g>
<!-- Node21&#45;&gt;Node22 -->
<g id="edge25" class="edge"><title>Node21&#45;&gt;Node22</title>
<path fill="none" stroke="midnightblue" d="M817.027,-31.144C854.911,-44.4228 912.88,-64.7421 946.755,-76.6157"/>
<polygon fill="midnightblue" stroke="midnightblue" points="817.979,-27.7689 807.384,-27.7639 815.663,-34.3748 817.979,-27.7689"/>
</g>
<!-- Node23 -->
<g id="node23" class="node"><title>Node23</title>
<g id="a_node23"><a xlink:href="../../da/dd9/classprolog_1_1fluents_1_1DataBase_a5cc308e3a32da4266de44e52764501ca.html#a5cc308e3a32da4266de44e52764501ca" target="_top" xlink:title="Removes a matching Term from the blackboards and signals failure if no such term is found...">
<polygon fill="none" stroke="black" points="1097,-76.6654 1097,-95.6654 1234,-95.6654 1234,-76.6654 1097,-76.6654"/>
<text text-anchor="middle" x="1165.5" y="-83.6654" font-family="Helvetica,sans-Serif" font-size="10.00">prolog.fluents.DataBase.cin</text>
</a>
</g>
</g>
<!-- Node22&#45;&gt;Node23 -->
<g id="edge26" class="edge"><title>Node22&#45;&gt;Node23</title>
<path fill="none" stroke="midnightblue" d="M1060.39,-86.1654C1072.57,-86.1654 1084.98,-86.1654 1096.78,-86.1654"/>
<polygon fill="midnightblue" stroke="midnightblue" points="1060.23,-82.6655 1050.23,-86.1654 1060.23,-89.6655 1060.23,-82.6655"/>
</g>
<!-- Node24 -->
<g id="node24" class="node"><title>Node24</title>
<g id="a_node24"><a xlink:href="../../d1/dd4/classprolog_1_1builtins_1_1db__remove_a5a3ab57bdfd925e9cc119d213cd23163.html#a5a3ab57bdfd925e9cc119d213cd23163" target="_top" xlink:title="prolog.builtins.db\l_remove.exec">
<polygon fill="none" stroke="black" points="1310,-71.1654 1310,-101.165 1400,-101.165 1400,-71.1654 1310,-71.1654"/>
<text text-anchor="start" x="1318" y="-89.1654" font-family="Helvetica,sans-Serif" font-size="10.00">prolog.builtins.db</text>
<text text-anchor="middle" x="1355" y="-78.1654" font-family="Helvetica,sans-Serif" font-size="10.00">_remove.exec</text>
</a>
</g>
</g>
<!-- Node23&#45;&gt;Node24 -->
<g id="edge27" class="edge"><title>Node23&#45;&gt;Node24</title>
<path fill="none" stroke="midnightblue" d="M1244.35,-86.1654C1266.68,-86.1654 1290.26,-86.1654 1309.8,-86.1654"/>
<polygon fill="midnightblue" stroke="midnightblue" points="1244.19,-82.6655 1234.19,-86.1654 1244.19,-89.6655 1244.19,-82.6655"/>
</g>
<!-- Node25&#45;&gt;Node20 -->
<g id="edge38" class="edge"><title>Node25&#45;&gt;Node20</title>
<path fill="none" stroke="midnightblue" d="M446.222,-61.2104C467.991,-55.9762 493.778,-49.7761 516.842,-44.2308"/>
<polygon fill="midnightblue" stroke="midnightblue" points="445.113,-57.8772 436.208,-63.6181 446.749,-64.6833 445.113,-57.8772"/>
</g>
<!-- Node26 -->
<g id="node26" class="node"><title>Node26</title>
<g id="a_node26"><a xlink:href="../../d2/d8d/classprolog_1_1fluents_1_1BlackBoard_aca9281fa2c70090208e6d62d28406480.html#aca9281fa2c70090208e6d62d28406480" target="_top" xlink:title="Adds a Term or Clause to the the blackboard, to be used by Linda out/1 operation. ...">
<polygon fill="none" stroke="black" points="507,-101.665 507,-120.665 654,-120.665 654,-101.665 507,-101.665"/>
<text text-anchor="middle" x="580.5" y="-108.665" font-family="Helvetica,sans-Serif" font-size="10.00">prolog.fluents.BlackBoard.add</text>
</a>
</g>
</g>
<!-- Node25&#45;&gt;Node26 -->
<g id="edge29" class="edge"><title>Node25&#45;&gt;Node26</title>
<path fill="none" stroke="midnightblue" d="M452.753,-84.8464C478.705,-90.2353 509.122,-96.5515 533.653,-101.645"/>
<polygon fill="midnightblue" stroke="midnightblue" points="453.181,-81.3607 442.679,-82.7544 451.758,-88.2145 453.181,-81.3607"/>
</g>
<!-- Node33 -->
<g id="node33" class="node"><title>Node33</title>
<g id="a_node33"><a xlink:href="../../de/d23/classprolog_1_1fluents_1_1Queue_a1d2f34c76d3ee0eba3dc33a53aead569.html#a1d2f34c76d3ee0eba3dc33a53aead569" target="_top" xlink:title="prolog.fluents.Queue.Queue">
<polygon fill="none" stroke="black" points="511.5,-63.6654 511.5,-82.6654 649.5,-82.6654 649.5,-63.6654 511.5,-63.6654"/>
<text text-anchor="middle" x="580.5" y="-70.6654" font-family="Helvetica,sans-Serif" font-size="10.00">prolog.fluents.Queue.Queue</text>
</a>
</g>
</g>
<!-- Node25&#45;&gt;Node33 -->
<g id="edge39" class="edge"><title>Node25&#45;&gt;Node33</title>
<path fill="none" stroke="midnightblue" d="M468.39,-73.1654C482.573,-73.1654 497.415,-73.1654 511.466,-73.1654"/>
<polygon fill="midnightblue" stroke="midnightblue" points="468.2,-69.6655 458.2,-73.1654 468.2,-76.6655 468.2,-69.6655"/>
</g>
<!-- Node27 -->
<g id="node27" class="node"><title>Node27</title>
<g id="a_node27"><a xlink:href="../../d2/d8d/classprolog_1_1fluents_1_1BlackBoard_aac87e5ee52935ab35a1b8fd9ac463945.html#aac87e5ee52935ab35a1b8fd9ac463945" target="_top" xlink:title="prolog.fluents.BlackBoard.addBack">
<polygon fill="none" stroke="black" points="694,-79.6654 694,-98.6654 864,-98.6654 864,-79.6654 694,-79.6654"/>
<text text-anchor="middle" x="779" y="-86.6654" font-family="Helvetica,sans-Serif" font-size="10.00">prolog.fluents.BlackBoard.addBack</text>
</a>
</g>
</g>
<!-- Node26&#45;&gt;Node27 -->
<g id="edge30" class="edge"><title>Node26&#45;&gt;Node27</title>
<path fill="none" stroke="midnightblue" d="M664.199,-101.907C673.968,-100.813 683.947,-99.6955 693.738,-98.5994"/>
<polygon fill="midnightblue" stroke="midnightblue" points="663.66,-98.4449 654.111,-103.036 664.438,-105.401 663.66,-98.4449"/>
</g>
<!-- Node28 -->
<g id="node28" class="node"><title>Node28</title>
<g id="a_node28"><a xlink:href="../../da/dd9/classprolog_1_1fluents_1_1DataBase_a51e4c70bda602ed87135ca094cd64eb2.html#a51e4c70bda602ed87135ca094cd64eb2" target="_top" xlink:title="Adds a Term to the blackboard. ">
<polygon fill="none" stroke="black" points="710,-152.665 710,-171.665 848,-171.665 848,-152.665 710,-152.665"/>
<text text-anchor="middle" x="779" y="-159.665" font-family="Helvetica,sans-Serif" font-size="10.00">prolog.fluents.DataBase.out</text>
</a>
</g>
</g>
<!-- Node26&#45;&gt;Node28 -->
<g id="edge32" class="edge"><title>Node26&#45;&gt;Node28</title>
<path fill="none" stroke="midnightblue" d="M628.325,-123.319C662.891,-132.29 709.281,-144.33 741.206,-152.616"/>
<polygon fill="midnightblue" stroke="midnightblue" points="629.019,-119.883 618.46,-120.758 627.26,-126.658 629.019,-119.883"/>
</g>
<!-- Node27&#45;&gt;Node22 -->
<g id="edge31" class="edge"><title>Node27&#45;&gt;Node22</title>
<path fill="none" stroke="midnightblue" d="M874.298,-87.7072C882.887,-87.5744 891.505,-87.4411 899.881,-87.3116"/>
<polygon fill="midnightblue" stroke="midnightblue" points="874.189,-84.2084 864.245,-87.8627 874.298,-91.2075 874.189,-84.2084"/>
</g>
<!-- Node29 -->
<g id="node29" class="node"><title>Node29</title>
<g id="a_node29"><a xlink:href="../../da/dd9/classprolog_1_1fluents_1_1DataBase_a7922dc4eb05ca6cccd4c8bb38563814e.html#a7922dc4eb05ca6cccd4c8bb38563814e" target="_top" xlink:title="adds a Clause to the joint Linda and Predicate table ">
<polygon fill="none" stroke="black" points="905,-237.165 905,-267.165 1045,-267.165 1045,-237.165 905,-237.165"/>
<text text-anchor="start" x="913" y="-255.165" font-family="Helvetica,sans-Serif" font-size="10.00">prolog.fluents.DataBase.add</text>
<text text-anchor="middle" x="975" y="-244.165" font-family="Helvetica,sans-Serif" font-size="10.00">Clause</text>
</a>
</g>
</g>
<!-- Node28&#45;&gt;Node29 -->
<g id="edge33" class="edge"><title>Node28&#45;&gt;Node29</title>
<path fill="none" stroke="midnightblue" d="M810.153,-176.154C845.79,-192.687 904.862,-220.091 941.495,-237.086"/>
<polygon fill="midnightblue" stroke="midnightblue" points="811.306,-172.83 800.761,-171.797 808.36,-179.18 811.306,-172.83"/>
</g>
<!-- Node31 -->
<g id="node31" class="node"><title>Node31</title>
<g id="a_node31"><a xlink:href="../../dc/d4a/classprolog_1_1builtins_1_1db__add_a6c55798f7122b37579a971715a7f9ab0.html#a6c55798f7122b37579a971715a7f9ab0" target="_top" xlink:title="prolog.builtins.db\l_add.exec">
<polygon fill="none" stroke="black" points="930,-126.165 930,-156.165 1020,-156.165 1020,-126.165 930,-126.165"/>
<text text-anchor="start" x="938" y="-144.165" font-family="Helvetica,sans-Serif" font-size="10.00">prolog.builtins.db</text>
<text text-anchor="middle" x="975" y="-133.165" font-family="Helvetica,sans-Serif" font-size="10.00">_add.exec</text>
</a>
</g>
</g>
<!-- Node28&#45;&gt;Node31 -->
<g id="edge36" class="edge"><title>Node28&#45;&gt;Node31</title>
<path fill="none" stroke="midnightblue" d="M858.089,-153.712C882.466,-151.074 908.501,-148.255 929.709,-145.96"/>
<polygon fill="midnightblue" stroke="midnightblue" points="857.69,-150.235 848.124,-154.791 858.443,-157.195 857.69,-150.235"/>
</g>
<!-- Node32 -->
<g id="node32" class="node"><title>Node32</title>
<g id="a_node32"><a xlink:href="../../da/dd9/classprolog_1_1fluents_1_1DataBase_a5f611e8962c4b5fc2fb515048d4ad9dc.html#a5f611e8962c4b5fc2fb515048d4ad9dc" target="_top" xlink:title="Adds a copy of a Term to the blackboard. ">
<polygon fill="none" stroke="black" points="906,-175.665 906,-194.665 1044,-194.665 1044,-175.665 906,-175.665"/>
<text text-anchor="middle" x="975" y="-182.665" font-family="Helvetica,sans-Serif" font-size="10.00">prolog.fluents.DataBase.out</text>
</a>
</g>
</g>
<!-- Node28&#45;&gt;Node32 -->
<g id="edge37" class="edge"><title>Node28&#45;&gt;Node32</title>
<path fill="none" stroke="midnightblue" d="M858.322,-171.451C874.017,-173.312 890.39,-175.253 905.712,-177.069"/>
<polygon fill="midnightblue" stroke="midnightblue" points="858.467,-167.944 848.124,-170.242 857.643,-174.895 858.467,-167.944"/>
</g>
<!-- Node30 -->
<g id="node30" class="node"><title>Node30</title>
<g id="a_node30"><a xlink:href="../../da/dd9/classprolog_1_1fluents_1_1DataBase_a6f8041bc2bcb5cdd8a376e81a3dc4dca.html#a6f8041bc2bcb5cdd8a376e81a3dc4dca" target="_top" xlink:title="adds a Clause to the joint Linda and Predicate table ">
<polygon fill="none" stroke="black" points="1086,-245.165 1086,-275.165 1245,-275.165 1245,-245.165 1086,-245.165"/>
<text text-anchor="start" x="1094" y="-263.165" font-family="Helvetica,sans-Serif" font-size="10.00">prolog.fluents.DataBase.process</text>
<text text-anchor="middle" x="1165.5" y="-252.165" font-family="Helvetica,sans-Serif" font-size="10.00">Clause</text>
</a>
</g>
</g>
<!-- Node29&#45;&gt;Node30 -->
<g id="edge34" class="edge"><title>Node29&#45;&gt;Node30</title>
<path fill="none" stroke="midnightblue" d="M1055.17,-255.525C1065.31,-255.956 1075.69,-256.396 1085.83,-256.826"/>
<polygon fill="midnightblue" stroke="midnightblue" points="1055.26,-252.026 1045.12,-255.099 1054.96,-259.02 1055.26,-252.026"/>
</g>
<!-- Node30&#45;&gt;Node3 -->
<g id="edge35" class="edge"><title>Node30&#45;&gt;Node3</title>
<path fill="none" stroke="midnightblue" d="M1218.29,-279.361C1227.5,-283.669 1236.78,-288.63 1245,-294.165 1284.82,-320.966 1322.82,-363.357 1341.67,-385.896"/>
<polygon fill="midnightblue" stroke="midnightblue" points="1219.69,-276.154 1209.13,-275.272 1216.84,-282.546 1219.69,-276.154"/>
</g>
<!-- Node35 -->
<g id="node35" class="node"><title>Node35</title>
<g id="a_node35"><a xlink:href="../../da/dde/classprolog_1_1Main_ab0b3345fa72bd3b96c565437b962efa3.html#ab0b3345fa72bd3b96c565437b962efa3" target="_top" xlink:title="prolog.Main.main">
<polygon fill="none" stroke="black" points="350,-101.665 350,-120.665 441,-120.665 441,-101.665 350,-101.665"/>
<text text-anchor="middle" x="395.5" y="-108.665" font-family="Helvetica,sans-Serif" font-size="10.00">prolog.Main.main</text>
</a>
</g>
</g>
<!-- Node34&#45;&gt;Node35 -->
<g id="edge41" class="edge"><title>Node34&#45;&gt;Node35</title>
<path fill="none" stroke="midnightblue" d="M256.321,-111.165C285.117,-111.165 321.672,-111.165 349.949,-111.165"/>
<polygon fill="midnightblue" stroke="midnightblue" points="256.093,-107.666 246.093,-111.165 256.093,-114.666 256.093,-107.666"/>
</g>
<!-- Node36&#45;&gt;Node10 -->
<g id="edge43" class="edge"><title>Node36&#45;&gt;Node10</title>
<path fill="none" stroke="midnightblue" d="M820.612,-265.726C851.099,-275.155 892.971,-288.105 925.265,-298.093"/>
<polygon fill="midnightblue" stroke="midnightblue" points="821.328,-262.284 810.74,-262.673 819.259,-268.971 821.328,-262.284"/>
</g>
</g>
</svg>
