<?xml version="1.0" encoding="UTF-8" standalone="no"?>
<!DOCTYPE svg PUBLIC "-//W3C//DTD SVG 1.1//EN"
 "http://www.w3.org/Graphics/SVG/1.1/DTD/svg11.dtd">
<!-- Generated by graphviz version 2.38.0 (20140413.2041)
 -->
<!-- Title: prolog.io.IO.readln Pages: 1 -->
<!--zoomable 104 -->
<svg id="main" version="1.1" xmlns="http://www.w3.org/2000/svg" xmlns:xlink="http://www.w3.org/1999/xlink" xml:space="preserve" onload="init(evt)">
<style type="text/css"><![CDATA[
.edge:hover path { stroke: red; }
.edge:hover polygon { stroke: red; fill: red; }
]]></style>
<script type="text/javascript"><![CDATA[
var edges = document.getElementsByTagName('g');
if (edges && edges.length) {
  for (var i=0;i<edges.length;i++) {
    if (edges[i].id.substr(0,4)=='edge') {
      edges[i].setAttribute('class','edge');
    }
  }
}
]]></script>
        <defs>
                <circle id="rim" cx="0" cy="0" r="7"/>
                <circle id="rim2" cx="0" cy="0" r="3.5"/>
                <g id="zoomPlus">
                        <use xlink:href="#rim" fill="#404040">
                                <set attributeName="fill" to="#808080" begin="zoomplus.mouseover" end="zoomplus.mouseout"/>
                        </use>
                        <path d="M-4,0h8M0,-4v8" fill="none" stroke="white" stroke-width="1.5" pointer-events="none"/>
                </g>
                <g id="zoomMin">
                        <use xlink:href="#rim" fill="#404040">
                                <set attributeName="fill" to="#808080" begin="zoomminus.mouseover" end="zoomminus.mouseout"/>
                        </use>
                        <path d="M-4,0h8" fill="none" stroke="white" stroke-width="1.5" pointer-events="none"/>
                </g>
                <g id="dirArrow">
                        <path fill="none" stroke="white" stroke-width="1.5" d="M0,-3.0v7 M-2.5,-0.5L0,-3.0L2.5,-0.5"/>
                </g>
               <g id="resetDef">
                       <use xlink:href="#rim2" fill="#404040">
                               <set attributeName="fill" to="#808080" begin="reset.mouseover" end="reset.mouseout"/>
                       </use>
               </g>
        </defs>

<script type="text/javascript">
var viewWidth = 681;
var viewHeight = 104;
var sectionId = 'dynsection-0';
</script>
<script xlink:href="../../svgpan.js"/>
<svg id="graph" class="graph">
<g id="viewport">
<title>prolog.io.IO.readln</title>
<!-- Node1 -->
<g id="node1" class="node"><title>Node1</title>
<polygon fill="#bfbfbf" stroke="black" points="0,-38.5 0,-57.5 96,-57.5 96,-38.5 0,-38.5"/>
<text text-anchor="middle" x="48" y="-45.5" font-family="Helvetica,sans-Serif" font-size="10.00">prolog.io.IO.readln</text>
</g>
<!-- Node2 -->
<g id="node2" class="node"><title>Node2</title>
<g id="a_node2"><a xlink:href="../../d4/dc2/classprolog_1_1io_1_1IO_ab6e0553457312c4804472cbe1c646a28.html#ab6e0553457312c4804472cbe1c646a28" target="_top" xlink:title="prolog.io.IO.errmes">
<polygon fill="none" stroke="black" points="135.5,-76.5 135.5,-95.5 235.5,-95.5 235.5,-76.5 135.5,-76.5"/>
<text text-anchor="middle" x="185.5" y="-83.5" font-family="Helvetica,sans-Serif" font-size="10.00">prolog.io.IO.errmes</text>
</a>
</g>
</g>
<!-- Node1&#45;&gt;Node2 -->
<g id="edge1" class="edge"><title>Node1&#45;&gt;Node2</title>
<path fill="none" stroke="midnightblue" d="M83.1924,-57.589C100.604,-62.4719 121.971,-68.4643 140.587,-73.685"/>
<polygon fill="midnightblue" stroke="midnightblue" points="139.745,-77.0837 150.319,-76.4141 141.635,-70.3438 139.745,-77.0837"/>
</g>
<!-- Node7 -->
<g id="node7" class="node"><title>Node7</title>
<g id="a_node7"><a xlink:href="../../d4/dc2/classprolog_1_1io_1_1IO_ac82e03fd1cfbdb74db68f83fce59cd75.html#ac82e03fd1cfbdb74db68f83fce59cd75" target="_top" xlink:title="prolog.io.IO.readLine">
<polygon fill="none" stroke="black" points="132,-0.5 132,-19.5 239,-19.5 239,-0.5 132,-0.5"/>
<text text-anchor="middle" x="185.5" y="-7.5" font-family="Helvetica,sans-Serif" font-size="10.00">prolog.io.IO.readLine</text>
</a>
</g>
</g>
<!-- Node1&#45;&gt;Node7 -->
<g id="edge6" class="edge"><title>Node1&#45;&gt;Node7</title>
<path fill="none" stroke="midnightblue" d="M83.1924,-38.411C100.604,-33.5281 121.971,-27.5357 140.587,-22.315"/>
<polygon fill="midnightblue" stroke="midnightblue" points="141.635,-25.6562 150.319,-19.5859 139.745,-18.9163 141.635,-25.6562"/>
</g>
<!-- Node8 -->
<g id="node8" class="node"><title>Node8</title>
<g id="a_node8"><a xlink:href="../../d4/dc2/classprolog_1_1io_1_1IO_aaa553b2e5bb8b5de129d38fe67293316.html#aaa553b2e5bb8b5de129d38fe67293316" target="_top" xlink:title="prolog.io.IO.trace">
<polygon fill="none" stroke="black" points="139.5,-38.5 139.5,-57.5 231.5,-57.5 231.5,-38.5 139.5,-38.5"/>
<text text-anchor="middle" x="185.5" y="-45.5" font-family="Helvetica,sans-Serif" font-size="10.00">prolog.io.IO.trace</text>
</a>
</g>
</g>
<!-- Node1&#45;&gt;Node8 -->
<g id="edge7" class="edge"><title>Node1&#45;&gt;Node8</title>
<path fill="none" stroke="midnightblue" d="M96.011,-48C106.779,-48 118.321,-48 129.395,-48"/>
<polygon fill="midnightblue" stroke="midnightblue" points="129.398,-51.5001 139.398,-48 129.398,-44.5001 129.398,-51.5001"/>
</g>
<!-- Node3 -->
<g id="node3" class="node"><title>Node3</title>
<g id="a_node3"><a xlink:href="../../d4/dc2/classprolog_1_1io_1_1IO_a22a9a2bfe9fa6e00257369f5bf078a44.html#a22a9a2bfe9fa6e00257369f5bf078a44" target="_top" xlink:title="prolog.io.IO.getStdOutput">
<polygon fill="none" stroke="black" points="275,-38.5 275,-57.5 403,-57.5 403,-38.5 275,-38.5"/>
<text text-anchor="middle" x="339" y="-45.5" font-family="Helvetica,sans-Serif" font-size="10.00">prolog.io.IO.getStdOutput</text>
</a>
</g>
</g>
<!-- Node2&#45;&gt;Node3 -->
<g id="edge2" class="edge"><title>Node2&#45;&gt;Node3</title>
<path fill="none" stroke="midnightblue" d="M224.73,-76.411C244.632,-71.4191 269.157,-65.2676 290.291,-59.9666"/>
<polygon fill="midnightblue" stroke="midnightblue" points="291.197,-63.3479 300.045,-57.5201 289.494,-56.5582 291.197,-63.3479"/>
</g>
<!-- Node4 -->
<g id="node4" class="node"><title>Node4</title>
<g id="a_node4"><a xlink:href="../../d4/dc2/classprolog_1_1io_1_1IO_ad851906c6ebd6559eb1b1fa52e26dabb.html#ad851906c6ebd6559eb1b1fa52e26dabb" target="_top" xlink:title="prolog.io.IO.println">
<polygon fill="none" stroke="black" points="291,-76.5 291,-95.5 387,-95.5 387,-76.5 291,-76.5"/>
<text text-anchor="middle" x="339" y="-83.5" font-family="Helvetica,sans-Serif" font-size="10.00">prolog.io.IO.println</text>
</a>
</g>
</g>
<!-- Node2&#45;&gt;Node4 -->
<g id="edge3" class="edge"><title>Node2&#45;&gt;Node4</title>
<path fill="none" stroke="midnightblue" d="M235.688,-86C250.079,-86 265.934,-86 280.779,-86"/>
<polygon fill="midnightblue" stroke="midnightblue" points="280.863,-89.5001 290.863,-86 280.863,-82.5001 280.863,-89.5001"/>
</g>
<!-- Node5 -->
<g id="node5" class="node"><title>Node5</title>
<g id="a_node5"><a xlink:href="../../d4/dc2/classprolog_1_1io_1_1IO_aab64872af087c6cd9c5dd13e9f4eda00.html#aab64872af087c6cd9c5dd13e9f4eda00" target="_top" xlink:title="prolog.io.IO.print">
<polygon fill="none" stroke="black" points="439,-76.5 439,-95.5 528,-95.5 528,-76.5 439,-76.5"/>
<text text-anchor="middle" x="483.5" y="-83.5" font-family="Helvetica,sans-Serif" font-size="10.00">prolog.io.IO.print</text>
</a>
</g>
</g>
<!-- Node4&#45;&gt;Node5 -->
<g id="edge4" class="edge"><title>Node4&#45;&gt;Node5</title>
<path fill="none" stroke="midnightblue" d="M387.055,-86C400.363,-86 414.948,-86 428.625,-86"/>
<polygon fill="midnightblue" stroke="midnightblue" points="428.869,-89.5001 438.869,-86 428.869,-82.5001 428.869,-89.5001"/>
</g>
<!-- Node6 -->
<g id="node6" class="node"><title>Node6</title>
<g id="a_node6"><a xlink:href="../../d6/d92/interfaceprolog_1_1io_1_1IOPeer_abc1f90b85b358011e2595069d38ac25f.html#abc1f90b85b358011e2595069d38ac25f" target="_top" xlink:title="prolog.io.IOPeer.print">
<polygon fill="none" stroke="black" points="564,-76.5 564,-95.5 673,-95.5 673,-76.5 564,-76.5"/>
<text text-anchor="middle" x="618.5" y="-83.5" font-family="Helvetica,sans-Serif" font-size="10.00">prolog.io.IOPeer.print</text>
</a>
</g>
</g>
<!-- Node5&#45;&gt;Node6 -->
<g id="edge5" class="edge"><title>Node5&#45;&gt;Node6</title>
<path fill="none" stroke="midnightblue" d="M528.049,-86C536.217,-86 544.911,-86 553.548,-86"/>
<polygon fill="midnightblue" stroke="midnightblue" points="553.626,-89.5001 563.625,-86 553.625,-82.5001 553.626,-89.5001"/>
</g>
<!-- Node8&#45;&gt;Node3 -->
<g id="edge8" class="edge"><title>Node8&#45;&gt;Node3</title>
<path fill="none" stroke="midnightblue" d="M231.545,-48C241.962,-48 253.313,-48 264.594,-48"/>
<polygon fill="midnightblue" stroke="midnightblue" points="264.906,-51.5001 274.906,-48 264.906,-44.5001 264.906,-51.5001"/>
</g>
<!-- Node8&#45;&gt;Node4 -->
<g id="edge9" class="edge"><title>Node8&#45;&gt;Node4</title>
<path fill="none" stroke="midnightblue" d="M224.73,-57.589C244.632,-62.5809 269.157,-68.7324 290.291,-74.0334"/>
<polygon fill="midnightblue" stroke="midnightblue" points="289.494,-77.4418 300.045,-76.4799 291.197,-70.6521 289.494,-77.4418"/>
</g>
<!-- Node9 -->
<g id="node9" class="node"><title>Node9</title>
<g id="a_node9"><a xlink:href="../../d6/d92/interfaceprolog_1_1io_1_1IOPeer_a780dd51c62dba4c266286171101b2cee.html#a780dd51c62dba4c266286171101b2cee" target="_top" xlink:title="prolog.io.IOPeer.traceln">
<polygon fill="none" stroke="black" points="279.5,-0.5 279.5,-19.5 398.5,-19.5 398.5,-0.5 279.5,-0.5"/>
<text text-anchor="middle" x="339" y="-7.5" font-family="Helvetica,sans-Serif" font-size="10.00">prolog.io.IOPeer.traceln</text>
</a>
</g>
</g>
<!-- Node8&#45;&gt;Node9 -->
<g id="edge10" class="edge"><title>Node8&#45;&gt;Node9</title>
<path fill="none" stroke="midnightblue" d="M224.73,-38.411C244.632,-33.4191 269.157,-27.2676 290.291,-21.9666"/>
<polygon fill="midnightblue" stroke="midnightblue" points="291.197,-25.3479 300.045,-19.5201 289.494,-18.5582 291.197,-25.3479"/>
</g>
</g>
</svg>
        <g id="navigator" transform="translate(0 0)" fill="#404254">
                <rect fill="#f2f5e9" fill-opacity="0.5" stroke="#606060" stroke-width=".5" x="0" y="0" width="60" height="60"/>
                <use id="zoomplus" xlink:href="#zoomPlus" x="17" y="9" onmousedown="handleZoom(evt,'in')"/>
                <use id="zoomminus" xlink:href="#zoomMin" x="42" y="9" onmousedown="handleZoom(evt,'out')"/>
                <use id="reset" xlink:href="#resetDef" x="30" y="36" onmousedown="handleReset()"/>
                <g id="arrowUp" xlink:href="#dirArrow" transform="translate(30 24)" onmousedown="handlePan(0,-1)">
                  <use xlink:href="#rim" fill="#404040">
                        <set attributeName="fill" to="#808080" begin="arrowUp.mouseover" end="arrowUp.mouseout"/>
                  </use>
                  <path fill="none" stroke="white" stroke-width="1.5" d="M0,-3.0v7 M-2.5,-0.5L0,-3.0L2.5,-0.5"/>
                </g>
                <g id="arrowRight" xlink:href="#dirArrow" transform="rotate(90) translate(36 -43)" onmousedown="handlePan(1,0)">
                  <use xlink:href="#rim" fill="#404040">
                        <set attributeName="fill" to="#808080" begin="arrowRight.mouseover" end="arrowRight.mouseout"/>
                  </use>
                  <path fill="none" stroke="white" stroke-width="1.5" d="M0,-3.0v7 M-2.5,-0.5L0,-3.0L2.5,-0.5"/>
                </g>
                <g id="arrowDown" xlink:href="#dirArrow" transform="rotate(180) translate(-30 -48)" onmousedown="handlePan(0,1)">
                  <use xlink:href="#rim" fill="#404040">
                        <set attributeName="fill" to="#808080" begin="arrowDown.mouseover" end="arrowDown.mouseout"/>
                  </use>
                  <path fill="none" stroke="white" stroke-width="1.5" d="M0,-3.0v7 M-2.5,-0.5L0,-3.0L2.5,-0.5"/>
                </g>
                <g id="arrowLeft" xlink:href="#dirArrow" transform="rotate(270) translate(-36 17)" onmousedown="handlePan(-1,0)">
                  <use xlink:href="#rim" fill="#404040">
                        <set attributeName="fill" to="#808080" begin="arrowLeft.mouseover" end="arrowLeft.mouseout"/>
                  </use>
                  <path fill="none" stroke="white" stroke-width="1.5" d="M0,-3.0v7 M-2.5,-0.5L0,-3.0L2.5,-0.5"/>
                </g>
        </g>
        <svg viewBox="0 0 15 15" width="100%" height="30px" preserveAspectRatio="xMaxYMin meet">
         <g id="arrow_out" transform="scale(0.3 0.3)">
          <a xlink:href="classprolog_1_1io_1_1IO_a8125244068839f754d57b9595481e48f_a8125244068839f754d57b9595481e48f_cgraph_org.svg" target="_base">
           <rect id="button" ry="5" rx="5" y="6" x="6" height="38" width="38"
                fill="#f2f5e9" fill-opacity="0.5" stroke="#606060" stroke-width="1.0"/>
           <path id="arrow"
             d="M 11.500037,31.436501 C 11.940474,20.09759 22.043105,11.32322 32.158766,21.979434 L 37.068811,17.246167 C 37.068811,17.246167 37.088388,32 37.088388,32 L 22.160133,31.978069 C 22.160133,31.978069 26.997745,27.140456 26.997745,27.140456 C 18.528582,18.264221 13.291696,25.230495 11.500037,31.436501 z"
             style="fill:#404040;"/>
          </a>
         </g>
        </svg>
</svg>
