<?xml version="1.0" encoding="UTF-8" standalone="no"?>
<!DOCTYPE svg PUBLIC "-//W3C//DTD SVG 1.1//EN"
 "http://www.w3.org/Graphics/SVG/1.1/DTD/svg11.dtd">
<!-- Generated by graphviz version 2.38.0 (20140413.2041)
 -->
<!-- Title: prolog.io.IO.promptln Pages: 1 -->
<svg width="403pt" height="104pt"
 viewBox="0.00 0.00 403.00 104.00" xmlns="http://www.w3.org/2000/svg" xmlns:xlink="http://www.w3.org/1999/xlink">
<g id="graph0" class="graph" transform="scale(1 1) rotate(0) translate(4 100)">
<title>prolog.io.IO.promptln</title>
<!-- Node1 -->
<g id="node1" class="node"><title>Node1</title>
<polygon fill="#bfbfbf" stroke="black" points="0,-57.5 0,-76.5 107,-76.5 107,-57.5 0,-57.5"/>
<text text-anchor="middle" x="53.5" y="-64.5" font-family="Helvetica,sans-Serif" font-size="10.00">prolog.io.IO.promptln</text>
</g>
<!-- Node2 -->
<g id="node2" class="node"><title>Node2</title>
<g id="a_node2"><a xlink:href="../../d4/dc2/classprolog_1_1io_1_1IO_aab64872af087c6cd9c5dd13e9f4eda00.html#aab64872af087c6cd9c5dd13e9f4eda00" target="_top" xlink:title="prolog.io.IO.print">
<polygon fill="none" stroke="black" points="146.5,-76.5 146.5,-95.5 235.5,-95.5 235.5,-76.5 146.5,-76.5"/>
<text text-anchor="middle" x="191" y="-83.5" font-family="Helvetica,sans-Serif" font-size="10.00">prolog.io.IO.print</text>
</a>
</g>
</g>
<!-- Node1&#45;&gt;Node2 -->
<g id="edge1" class="edge"><title>Node1&#45;&gt;Node2</title>
<path fill="none" stroke="midnightblue" d="M107.276,-74.4003C116.771,-75.7317 126.679,-77.1211 136.203,-78.4565"/>
<polygon fill="midnightblue" stroke="midnightblue" points="135.96,-81.9566 146.349,-79.8792 136.932,-75.0244 135.96,-81.9566"/>
</g>
<!-- Node4 -->
<g id="node4" class="node"><title>Node4</title>
<g id="a_node4"><a xlink:href="../../d4/dc2/classprolog_1_1io_1_1IO_a4604d4d86f3043f525dd9362720b9264.html#a4604d4d86f3043f525dd9362720b9264" target="_top" xlink:title="prolog.io.IO.readln">
<polygon fill="none" stroke="black" points="143,-38.5 143,-57.5 239,-57.5 239,-38.5 143,-38.5"/>
<text text-anchor="middle" x="191" y="-45.5" font-family="Helvetica,sans-Serif" font-size="10.00">prolog.io.IO.readln</text>
</a>
</g>
</g>
<!-- Node1&#45;&gt;Node4 -->
<g id="edge3" class="edge"><title>Node1&#45;&gt;Node4</title>
<path fill="none" stroke="midnightblue" d="M107.276,-59.5997C115.623,-58.4293 124.289,-57.2141 132.733,-56.0301"/>
<polygon fill="midnightblue" stroke="midnightblue" points="133.468,-59.4613 142.885,-54.6065 132.496,-52.5291 133.468,-59.4613"/>
</g>
<!-- Node3 -->
<g id="node3" class="node"><title>Node3</title>
<g id="a_node3"><a xlink:href="../../d6/d92/interfaceprolog_1_1io_1_1IOPeer_abc1f90b85b358011e2595069d38ac25f.html#abc1f90b85b358011e2595069d38ac25f" target="_top" xlink:title="prolog.io.IOPeer.print">
<polygon fill="none" stroke="black" points="280.5,-76.5 280.5,-95.5 389.5,-95.5 389.5,-76.5 280.5,-76.5"/>
<text text-anchor="middle" x="335" y="-83.5" font-family="Helvetica,sans-Serif" font-size="10.00">prolog.io.IOPeer.print</text>
</a>
</g>
</g>
<!-- Node2&#45;&gt;Node3 -->
<g id="edge2" class="edge"><title>Node2&#45;&gt;Node3</title>
<path fill="none" stroke="midnightblue" d="M235.763,-86C246.667,-86 258.581,-86 270.232,-86"/>
<polygon fill="midnightblue" stroke="midnightblue" points="270.372,-89.5001 280.372,-86 270.372,-82.5001 270.372,-89.5001"/>
</g>
<!-- Node5 -->
<g id="node5" class="node"><title>Node5</title>
<g id="a_node5"><a xlink:href="../../d4/dc2/classprolog_1_1io_1_1IO_ae19ebeb7bc391789b75de6e0b0097908.html#ae19ebeb7bc391789b75de6e0b0097908" target="_top" xlink:title="prolog.io.IO.getStdInput">
<polygon fill="none" stroke="black" points="275,-38.5 275,-57.5 395,-57.5 395,-38.5 275,-38.5"/>
<text text-anchor="middle" x="335" y="-45.5" font-family="Helvetica,sans-Serif" font-size="10.00">prolog.io.IO.getStdInput</text>
</a>
</g>
</g>
<!-- Node4&#45;&gt;Node5 -->
<g id="edge4" class="edge"><title>Node4&#45;&gt;Node5</title>
<path fill="none" stroke="midnightblue" d="M239.284,-48C247.46,-48 256.111,-48 264.727,-48"/>
<polygon fill="midnightblue" stroke="midnightblue" points="264.796,-51.5001 274.796,-48 264.796,-44.5001 264.796,-51.5001"/>
</g>
<!-- Node6 -->
<g id="node6" class="node"><title>Node6</title>
<g id="a_node6"><a xlink:href="../../d6/d92/interfaceprolog_1_1io_1_1IOPeer_a636209ebcf005b2551e057fa57a6eb49.html#a636209ebcf005b2551e057fa57a6eb49" target="_top" xlink:title="prolog.io.IOPeer.readln">
<polygon fill="none" stroke="black" points="277,-0.5 277,-19.5 393,-19.5 393,-0.5 277,-0.5"/>
<text text-anchor="middle" x="335" y="-7.5" font-family="Helvetica,sans-Serif" font-size="10.00">prolog.io.IOPeer.readln</text>
</a>
</g>
</g>
<!-- Node4&#45;&gt;Node6 -->
<g id="edge5" class="edge"><title>Node4&#45;&gt;Node6</title>
<path fill="none" stroke="midnightblue" d="M227.833,-38.411C246.163,-33.5056 268.678,-27.4804 288.25,-22.2429"/>
<polygon fill="midnightblue" stroke="midnightblue" points="289.424,-25.5521 298.179,-19.5859 287.614,-18.7901 289.424,-25.5521"/>
</g>
</g>
</svg>
