<?xml version="1.0" encoding="UTF-8" standalone="no"?>
<!DOCTYPE svg PUBLIC "-//W3C//DTD SVG 1.1//EN"
 "http://www.w3.org/Graphics/SVG/1.1/DTD/svg11.dtd">
<!-- Generated by graphviz version 2.38.0 (20140413.2041)
 -->
<!-- Title: prolog.io.IO.toWriter Pages: 1 -->
<svg width="432pt" height="39pt"
 viewBox="0.00 0.00 432.00 39.00" xmlns="http://www.w3.org/2000/svg" xmlns:xlink="http://www.w3.org/1999/xlink">
<g id="graph0" class="graph" transform="scale(1 1) rotate(0) translate(4 35)">
<title>prolog.io.IO.toWriter</title>
<!-- Node1 -->
<g id="node1" class="node"><title>Node1</title>
<polygon fill="#bfbfbf" stroke="black" points="0,-6 0,-25 104,-25 104,-6 0,-6"/>
<text text-anchor="middle" x="52" y="-13" font-family="Helvetica,sans-Serif" font-size="10.00">prolog.io.IO.toWriter</text>
</g>
<!-- Node2 -->
<g id="node2" class="node"><title>Node2</title>
<g id="a_node2"><a xlink:href="../../d4/dc2/classprolog_1_1io_1_1IO_a116faa87159bf8040d6c438f8e96ccc1.html#a116faa87159bf8040d6c438f8e96ccc1" target="_top" xlink:title="prolog.io.IO.toFileWriter">
<polygon fill="none" stroke="black" points="140,-6 140,-25 260,-25 260,-6 140,-6"/>
<text text-anchor="middle" x="200" y="-13" font-family="Helvetica,sans-Serif" font-size="10.00">prolog.io.IO.toFileWriter</text>
</a>
</g>
</g>
<!-- Node1&#45;&gt;Node2 -->
<g id="edge1" class="edge"><title>Node1&#45;&gt;Node2</title>
<path fill="none" stroke="midnightblue" d="M114.29,-15.5C122.789,-15.5 131.505,-15.5 139.961,-15.5"/>
<polygon fill="midnightblue" stroke="midnightblue" points="114.064,-12.0001 104.064,-15.5 114.064,-19.0001 114.064,-12.0001"/>
</g>
<!-- Node3 -->
<g id="node3" class="node"><title>Node3</title>
<g id="a_node3"><a xlink:href="../../db/de8/classprolog_1_1io_1_1CharWriter_a04bde7267ac4d75a753244df6a42ac92.html#a04bde7267ac4d75a753244df6a42ac92" target="_top" xlink:title="prolog.io.CharWriter.Char\lWriter">
<polygon fill="none" stroke="black" points="296,-0.5 296,-30.5 424,-30.5 424,-0.5 296,-0.5"/>
<text text-anchor="start" x="304" y="-18.5" font-family="Helvetica,sans-Serif" font-size="10.00">prolog.io.CharWriter.Char</text>
<text text-anchor="middle" x="360" y="-7.5" font-family="Helvetica,sans-Serif" font-size="10.00">Writer</text>
</a>
</g>
</g>
<!-- Node2&#45;&gt;Node3 -->
<g id="edge2" class="edge"><title>Node2&#45;&gt;Node3</title>
<path fill="none" stroke="midnightblue" d="M270.509,-15.5C278.974,-15.5 287.586,-15.5 295.95,-15.5"/>
<polygon fill="midnightblue" stroke="midnightblue" points="270.283,-12.0001 260.283,-15.5 270.283,-19.0001 270.283,-12.0001"/>
</g>
</g>
</svg>
