<?xml version="1.0" encoding="UTF-8" standalone="no"?>
<!DOCTYPE svg PUBLIC "-//W3C//DTD SVG 1.1//EN"
 "http://www.w3.org/Graphics/SVG/1.1/DTD/svg11.dtd">
<!-- Generated by graphviz version 2.38.0 (20140413.2041)
 -->
<!-- Title: prolog.io.IO.assertion Pages: 1 -->
<svg width="688pt" height="66pt"
 viewBox="0.00 0.00 688.00 66.00" xmlns="http://www.w3.org/2000/svg" xmlns:xlink="http://www.w3.org/1999/xlink">
<g id="graph0" class="graph" transform="scale(1 1) rotate(0) translate(4 62)">
<title>prolog.io.IO.assertion</title>
<!-- Node1 -->
<g id="node1" class="node"><title>Node1</title>
<polygon fill="#bfbfbf" stroke="black" points="0,-19.5 0,-38.5 110,-38.5 110,-19.5 0,-19.5"/>
<text text-anchor="middle" x="55" y="-26.5" font-family="Helvetica,sans-Serif" font-size="10.00">prolog.io.IO.assertion</text>
</g>
<!-- Node2 -->
<g id="node2" class="node"><title>Node2</title>
<g id="a_node2"><a xlink:href="../../d4/dc2/classprolog_1_1io_1_1IO_ab6e0553457312c4804472cbe1c646a28.html#ab6e0553457312c4804472cbe1c646a28" target="_top" xlink:title="prolog.io.IO.errmes">
<polygon fill="none" stroke="black" points="146,-19.5 146,-38.5 246,-38.5 246,-19.5 146,-19.5"/>
<text text-anchor="middle" x="196" y="-26.5" font-family="Helvetica,sans-Serif" font-size="10.00">prolog.io.IO.errmes</text>
</a>
</g>
</g>
<!-- Node1&#45;&gt;Node2 -->
<g id="edge1" class="edge"><title>Node1&#45;&gt;Node2</title>
<path fill="none" stroke="midnightblue" d="M110.139,-29C118.485,-29 127.142,-29 135.595,-29"/>
<polygon fill="midnightblue" stroke="midnightblue" points="135.771,-32.5001 145.771,-29 135.771,-25.5001 135.771,-32.5001"/>
</g>
<!-- Node3 -->
<g id="node3" class="node"><title>Node3</title>
<g id="a_node3"><a xlink:href="../../d4/dc2/classprolog_1_1io_1_1IO_a22a9a2bfe9fa6e00257369f5bf078a44.html#a22a9a2bfe9fa6e00257369f5bf078a44" target="_top" xlink:title="prolog.io.IO.getStdOutput">
<polygon fill="none" stroke="black" points="282,-38.5 282,-57.5 410,-57.5 410,-38.5 282,-38.5"/>
<text text-anchor="middle" x="346" y="-45.5" font-family="Helvetica,sans-Serif" font-size="10.00">prolog.io.IO.getStdOutput</text>
</a>
</g>
</g>
<!-- Node2&#45;&gt;Node3 -->
<g id="edge2" class="edge"><title>Node2&#45;&gt;Node3</title>
<path fill="none" stroke="midnightblue" d="M246.282,-35.3267C254.502,-36.3819 263.181,-37.4962 271.845,-38.6084"/>
<polygon fill="midnightblue" stroke="midnightblue" points="271.616,-42.1077 281.98,-39.9096 272.507,-35.1646 271.616,-42.1077"/>
</g>
<!-- Node4 -->
<g id="node4" class="node"><title>Node4</title>
<g id="a_node4"><a xlink:href="../../d4/dc2/classprolog_1_1io_1_1IO_ad851906c6ebd6559eb1b1fa52e26dabb.html#ad851906c6ebd6559eb1b1fa52e26dabb" target="_top" xlink:title="prolog.io.IO.println">
<polygon fill="none" stroke="black" points="298,-0.5 298,-19.5 394,-19.5 394,-0.5 298,-0.5"/>
<text text-anchor="middle" x="346" y="-7.5" font-family="Helvetica,sans-Serif" font-size="10.00">prolog.io.IO.println</text>
</a>
</g>
</g>
<!-- Node2&#45;&gt;Node4 -->
<g id="edge3" class="edge"><title>Node2&#45;&gt;Node4</title>
<path fill="none" stroke="midnightblue" d="M246.282,-22.6733C259.549,-20.97 274.015,-19.113 287.679,-17.3587"/>
<polygon fill="midnightblue" stroke="midnightblue" points="288.467,-20.7864 297.94,-16.0415 287.576,-13.8434 288.467,-20.7864"/>
</g>
<!-- Node5 -->
<g id="node5" class="node"><title>Node5</title>
<g id="a_node5"><a xlink:href="../../d4/dc2/classprolog_1_1io_1_1IO_aab64872af087c6cd9c5dd13e9f4eda00.html#aab64872af087c6cd9c5dd13e9f4eda00" target="_top" xlink:title="prolog.io.IO.print">
<polygon fill="none" stroke="black" points="446,-0.5 446,-19.5 535,-19.5 535,-0.5 446,-0.5"/>
<text text-anchor="middle" x="490.5" y="-7.5" font-family="Helvetica,sans-Serif" font-size="10.00">prolog.io.IO.print</text>
</a>
</g>
</g>
<!-- Node4&#45;&gt;Node5 -->
<g id="edge4" class="edge"><title>Node4&#45;&gt;Node5</title>
<path fill="none" stroke="midnightblue" d="M394.055,-10C407.363,-10 421.948,-10 435.625,-10"/>
<polygon fill="midnightblue" stroke="midnightblue" points="435.869,-13.5001 445.869,-10 435.869,-6.5001 435.869,-13.5001"/>
</g>
<!-- Node6 -->
<g id="node6" class="node"><title>Node6</title>
<g id="a_node6"><a xlink:href="../../d6/d92/interfaceprolog_1_1io_1_1IOPeer_abc1f90b85b358011e2595069d38ac25f.html#abc1f90b85b358011e2595069d38ac25f" target="_top" xlink:title="prolog.io.IOPeer.print">
<polygon fill="none" stroke="black" points="571,-0.5 571,-19.5 680,-19.5 680,-0.5 571,-0.5"/>
<text text-anchor="middle" x="625.5" y="-7.5" font-family="Helvetica,sans-Serif" font-size="10.00">prolog.io.IOPeer.print</text>
</a>
</g>
</g>
<!-- Node5&#45;&gt;Node6 -->
<g id="edge5" class="edge"><title>Node5&#45;&gt;Node6</title>
<path fill="none" stroke="midnightblue" d="M535.049,-10C543.217,-10 551.911,-10 560.548,-10"/>
<polygon fill="midnightblue" stroke="midnightblue" points="560.626,-13.5001 570.625,-10 560.625,-6.5001 560.626,-13.5001"/>
</g>
</g>
</svg>
