<?xml version="1.0" encoding="UTF-8" standalone="no"?>
<!DOCTYPE svg PUBLIC "-//W3C//DTD SVG 1.1//EN"
 "http://www.w3.org/Graphics/SVG/1.1/DTD/svg11.dtd">
<!-- Generated by graphviz version 2.38.0 (20140413.2041)
 -->
<!-- Title: prolog.fluents.DataBase Pages: 1 -->
<!--zoomable 1094 -->
<svg id="main" version="1.1" xmlns="http://www.w3.org/2000/svg" xmlns:xlink="http://www.w3.org/1999/xlink" xml:space="preserve" onload="init(evt)">
<style type="text/css"><![CDATA[
.edge:hover path { stroke: red; }
.edge:hover polygon { stroke: red; fill: red; }
]]></style>
<script type="text/javascript"><![CDATA[
var edges = document.getElementsByTagName('g');
if (edges && edges.length) {
  for (var i=0;i<edges.length;i++) {
    if (edges[i].id.substr(0,4)=='edge') {
      edges[i].setAttribute('class','edge');
    }
  }
}
]]></script>
        <defs>
                <circle id="rim" cx="0" cy="0" r="7"/>
                <circle id="rim2" cx="0" cy="0" r="3.5"/>
                <g id="zoomPlus">
                        <use xlink:href="#rim" fill="#404040">
                                <set attributeName="fill" to="#808080" begin="zoomplus.mouseover" end="zoomplus.mouseout"/>
                        </use>
                        <path d="M-4,0h8M0,-4v8" fill="none" stroke="white" stroke-width="1.5" pointer-events="none"/>
                </g>
                <g id="zoomMin">
                        <use xlink:href="#rim" fill="#404040">
                                <set attributeName="fill" to="#808080" begin="zoomminus.mouseover" end="zoomminus.mouseout"/>
                        </use>
                        <path d="M-4,0h8" fill="none" stroke="white" stroke-width="1.5" pointer-events="none"/>
                </g>
                <g id="dirArrow">
                        <path fill="none" stroke="white" stroke-width="1.5" d="M0,-3.0v7 M-2.5,-0.5L0,-3.0L2.5,-0.5"/>
                </g>
               <g id="resetDef">
                       <use xlink:href="#rim2" fill="#404040">
                               <set attributeName="fill" to="#808080" begin="reset.mouseover" end="reset.mouseout"/>
                       </use>
               </g>
        </defs>

<script type="text/javascript">
var viewWidth = 306;
var viewHeight = 1094;
var sectionId = 'dynsection-1';
</script>
<script xlink:href="../../svgpan.js"/>
<svg id="graph" class="graph">
<g id="viewport">
<title>prolog.fluents.DataBase</title>
<!-- Node1 -->
<g id="node1" class="node"><title>Node1</title>
<polygon fill="#bfbfbf" stroke="black" points="13,-0.5 13,-266.5 135,-266.5 135,-0.5 13,-0.5"/>
<text text-anchor="middle" x="74" y="-254.5" font-family="Helvetica,sans-Serif" font-size="10.00">prolog.fluents.DataBase</text>
<polyline fill="none" stroke="black" points="13,-247.5 135,-247.5 "/>
<text text-anchor="start" x="21" y="-235.5" font-family="Helvetica,sans-Serif" font-size="10.00">&#45; lastFile</text>
<polyline fill="none" stroke="black" points="13,-228.5 135,-228.5 "/>
<text text-anchor="start" x="21" y="-216.5" font-family="Helvetica,sans-Serif" font-size="10.00">+ DataBase()</text>
<text text-anchor="start" x="21" y="-205.5" font-family="Helvetica,sans-Serif" font-size="10.00">+ cin()</text>
<text text-anchor="start" x="21" y="-194.5" font-family="Helvetica,sans-Serif" font-size="10.00">+ out()</text>
<text text-anchor="start" x="21" y="-183.5" font-family="Helvetica,sans-Serif" font-size="10.00">+ out()</text>
<text text-anchor="start" x="21" y="-172.5" font-family="Helvetica,sans-Serif" font-size="10.00">+ all()</text>
<text text-anchor="start" x="21" y="-161.5" font-family="Helvetica,sans-Serif" font-size="10.00">+ toEnumerationFor()</text>
<text text-anchor="start" x="21" y="-150.5" font-family="Helvetica,sans-Serif" font-size="10.00">+ pprint()</text>
<text text-anchor="start" x="21" y="-139.5" font-family="Helvetica,sans-Serif" font-size="10.00">+ pred_to_string()</text>
<text text-anchor="start" x="21" y="-128.5" font-family="Helvetica,sans-Serif" font-size="10.00">+ fromFile()</text>
<text text-anchor="start" x="21" y="-117.5" font-family="Helvetica,sans-Serif" font-size="10.00">+ fromFile()</text>
<text text-anchor="start" x="21" y="-106.5" font-family="Helvetica,sans-Serif" font-size="10.00">+ fromFile()</text>
<text text-anchor="start" x="21" y="-95.5" font-family="Helvetica,sans-Serif" font-size="10.00">+ streamToProg()</text>
<text text-anchor="start" x="21" y="-84.5" font-family="Helvetica,sans-Serif" font-size="10.00">+ addClause()</text>
<text text-anchor="start" x="21" y="-73.5" font-family="Helvetica,sans-Serif" font-size="10.00">+ processClause()</text>
<text text-anchor="start" x="21" y="-62.5" font-family="Helvetica,sans-Serif" font-size="10.00">&#45; all0()</text>
<text text-anchor="start" x="21" y="-51.5" font-family="Helvetica,sans-Serif" font-size="10.00">&#45; all1()</text>
<text text-anchor="start" x="21" y="-40.5" font-family="Helvetica,sans-Serif" font-size="10.00">&#45; all2()</text>
<text text-anchor="start" x="21" y="-29.5" font-family="Helvetica,sans-Serif" font-size="10.00">&#45; fileToProg()</text>
<text text-anchor="start" x="21" y="-18.5" font-family="Helvetica,sans-Serif" font-size="10.00">&#45; streamToProg()</text>
<text text-anchor="start" x="21" y="-7.5" font-family="Helvetica,sans-Serif" font-size="10.00">&#45; apply_parser()</text>
</g>
<!-- Node2 -->
<g id="node2" class="node"><title>Node2</title>
<g id="a_node2"><a xlink:href="../../d2/d8d/classprolog_1_1fluents_1_1BlackBoard.html" target="_top" xlink:title="This class implementes generic multiple tuples by key operations for use by the PrologBlackBoard clas...">
<polygon fill="none" stroke="black" points="0,-336.5 0,-459.5 128,-459.5 128,-336.5 0,-336.5"/>
<text text-anchor="middle" x="64" y="-447.5" font-family="Helvetica,sans-Serif" font-size="10.00">prolog.fluents.BlackBoard</text>
<polyline fill="none" stroke="black" points="0,-440.5 128,-440.5 "/>
<text text-anchor="middle" x="64" y="-428.5" font-family="Helvetica,sans-Serif" font-size="10.00"> </text>
<polyline fill="none" stroke="black" points="0,-421.5 128,-421.5 "/>
<text text-anchor="start" x="8" y="-409.5" font-family="Helvetica,sans-Serif" font-size="10.00">+ BlackBoard()</text>
<text text-anchor="start" x="8" y="-398.5" font-family="Helvetica,sans-Serif" font-size="10.00">+ toEnumerationFor()</text>
<text text-anchor="start" x="8" y="-387.5" font-family="Helvetica,sans-Serif" font-size="10.00">+ toEnumeration()</text>
<text text-anchor="start" x="8" y="-376.5" font-family="Helvetica,sans-Serif" font-size="10.00"># take()</text>
<text text-anchor="start" x="8" y="-365.5" font-family="Helvetica,sans-Serif" font-size="10.00"># add()</text>
<text text-anchor="start" x="8" y="-354.5" font-family="Helvetica,sans-Serif" font-size="10.00">&#45; pick()</text>
<text text-anchor="start" x="8" y="-343.5" font-family="Helvetica,sans-Serif" font-size="10.00">&#45; addBack()</text>
</a>
</g>
</g>
<!-- Node2&#45;&gt;Node1 -->
<g id="edge1" class="edge"><title>Node2&#45;&gt;Node1</title>
<path fill="none" stroke="midnightblue" d="M66.6903,-326.379C67.3962,-307.85 68.1807,-287.255 68.9664,-266.631"/>
<polygon fill="none" stroke="midnightblue" points="63.1901,-326.322 66.3068,-336.448 70.185,-326.588 63.1901,-326.322"/>
</g>
<!-- Node3 -->
<g id="node3" class="node"><title>Node3</title>
<g id="a_node3"><a xlink:href="../../de/dd4/classprolog_1_1fluents_1_1HashDict.html" target="_top" xlink:title="General purpose dictionary. ">
<polygon fill="none" stroke="black" points="4.5,-519.5 4.5,-587.5 123.5,-587.5 123.5,-519.5 4.5,-519.5"/>
<text text-anchor="middle" x="64" y="-575.5" font-family="Helvetica,sans-Serif" font-size="10.00">prolog.fluents.HashDict</text>
<polyline fill="none" stroke="black" points="4.5,-568.5 123.5,-568.5 "/>
<text text-anchor="middle" x="64" y="-556.5" font-family="Helvetica,sans-Serif" font-size="10.00"> </text>
<polyline fill="none" stroke="black" points="4.5,-549.5 123.5,-549.5 "/>
<text text-anchor="start" x="12.5" y="-537.5" font-family="Helvetica,sans-Serif" font-size="10.00">+ name()</text>
<text text-anchor="start" x="12.5" y="-526.5" font-family="Helvetica,sans-Serif" font-size="10.00">+ stat()</text>
</a>
</g>
</g>
<!-- Node3&#45;&gt;Node2 -->
<g id="edge2" class="edge"><title>Node3&#45;&gt;Node2</title>
<path fill="none" stroke="midnightblue" d="M64,-508.994C64,-493.703 64,-476.229 64,-459.779"/>
<polygon fill="none" stroke="midnightblue" points="60.5001,-509.193 64,-519.193 67.5001,-509.193 60.5001,-509.193"/>
</g>
<!-- Node4 -->
<g id="node4" class="node"><title>Node4</title>
<polygon fill="none" stroke="#bfbfbf" points="34.5,-785 34.5,-842 93.5,-842 93.5,-785 34.5,-785"/>
<text text-anchor="middle" x="64" y="-830" font-family="Helvetica,sans-Serif" font-size="10.00">HashMap</text>
<polyline fill="none" stroke="#bfbfbf" points="34.5,-823 93.5,-823 "/>
<text text-anchor="middle" x="64" y="-811" font-family="Helvetica,sans-Serif" font-size="10.00"> </text>
<polyline fill="none" stroke="#bfbfbf" points="34.5,-804 93.5,-804 "/>
<text text-anchor="middle" x="64" y="-792" font-family="Helvetica,sans-Serif" font-size="10.00"> </text>
</g>
<!-- Node4&#45;&gt;Node3 -->
<g id="edge3" class="edge"><title>Node4&#45;&gt;Node3</title>
<path fill="none" stroke="midnightblue" d="M64,-774.723C64,-724.23 64,-635.548 64,-587.569"/>
<polygon fill="none" stroke="midnightblue" points="60.5001,-774.889 64,-784.889 67.5001,-774.89 60.5001,-774.889"/>
</g>
<!-- Node5 -->
<g id="node5" class="node"><title>Node5</title>
<g id="a_node5"><a xlink:href="../../d0/d3f/classprolog_1_1terms_1_1Const.html" target="_top" xlink:title="Symbolic constant, of arity 0. ">
<polygon fill="none" stroke="black" points="146,-325.5 146,-470.5 246,-470.5 246,-325.5 146,-325.5"/>
<text text-anchor="middle" x="196" y="-458.5" font-family="Helvetica,sans-Serif" font-size="10.00">prolog.terms.Const</text>
<polyline fill="none" stroke="black" points="146,-451.5 246,-451.5 "/>
<text text-anchor="start" x="154" y="-439.5" font-family="Helvetica,sans-Serif" font-size="10.00">&#45; sym</text>
<polyline fill="none" stroke="black" points="146,-432.5 246,-432.5 "/>
<text text-anchor="start" x="154" y="-420.5" font-family="Helvetica,sans-Serif" font-size="10.00">+ Const()</text>
<text text-anchor="start" x="154" y="-409.5" font-family="Helvetica,sans-Serif" font-size="10.00">+ name()</text>
<text text-anchor="start" x="154" y="-398.5" font-family="Helvetica,sans-Serif" font-size="10.00">+ qname()</text>
<text text-anchor="start" x="154" y="-387.5" font-family="Helvetica,sans-Serif" font-size="10.00">+ toString()</text>
<text text-anchor="start" x="154" y="-376.5" font-family="Helvetica,sans-Serif" font-size="10.00">+ getKey()</text>
<text text-anchor="start" x="154" y="-365.5" font-family="Helvetica,sans-Serif" font-size="10.00">+ getArity()</text>
<text text-anchor="start" x="154" y="-354.5" font-family="Helvetica,sans-Serif" font-size="10.00">+ toUnquoted()</text>
<text text-anchor="start" x="154" y="-343.5" font-family="Helvetica,sans-Serif" font-size="10.00">+ the()</text>
<text text-anchor="start" x="154" y="-332.5" font-family="Helvetica,sans-Serif" font-size="10.00">~ bind_to()</text>
</a>
</g>
</g>
<!-- Node5&#45;&gt;Node1 -->
<g id="edge4" class="edge"><title>Node5&#45;&gt;Node1</title>
<path fill="none" stroke="#404040" d="M162.663,-325.271C155.631,-310.141 147.977,-293.673 140.21,-276.96"/>
<polygon fill="none" stroke="#404040" points="140.153,-276.836 133.996,-273.081 135.095,-265.954 141.251,-269.709 140.153,-276.836"/>
<text text-anchor="middle" x="165" y="-299" font-family="Helvetica,sans-Serif" font-size="10.00"> &#45;yes</text>
<text text-anchor="middle" x="165" y="-288" font-family="Helvetica,sans-Serif" font-size="10.00">&#45;no</text>
</g>
<!-- Node5&#45;&gt;Node5 -->
<g id="edge11" class="edge"><title>Node5&#45;&gt;Node5</title>
<path fill="none" stroke="#404040" d="M246.114,-414.282C256.518,-412.568 264,-407.141 264,-398 264,-392.716 261.499,-388.672 257.379,-385.87"/>
<polygon fill="none" stroke="#404040" points="257.374,-385.868 250.36,-387.546 246.114,-381.718 253.127,-380.04 257.374,-385.868"/>
<text text-anchor="middle" x="281" y="-417.5" font-family="Helvetica,sans-Serif" font-size="10.00"> +aTrue</text>
<text text-anchor="middle" x="281" y="-406.5" font-family="Helvetica,sans-Serif" font-size="10.00">+aNo</text>
<text text-anchor="middle" x="281" y="-395.5" font-family="Helvetica,sans-Serif" font-size="10.00">+anEof</text>
<text text-anchor="middle" x="281" y="-384.5" font-family="Helvetica,sans-Serif" font-size="10.00">+aYes</text>
<text text-anchor="middle" x="281" y="-373.5" font-family="Helvetica,sans-Serif" font-size="10.00">+aFail</text>
</g>
<!-- Node10 -->
<g id="node10" class="node"><title>Node10</title>
<g id="a_node10"><a xlink:href="../../d8/dad/classprolog_1_1terms_1_1Nil.html" target="_top" xlink:title="Special constant terminating a list. ">
<polygon fill="none" stroke="black" points="156,-99.5 156,-167.5 242,-167.5 242,-99.5 156,-99.5"/>
<text text-anchor="middle" x="199" y="-155.5" font-family="Helvetica,sans-Serif" font-size="10.00">prolog.terms.Nil</text>
<polyline fill="none" stroke="black" points="156,-148.5 242,-148.5 "/>
<text text-anchor="middle" x="199" y="-136.5" font-family="Helvetica,sans-Serif" font-size="10.00"> </text>
<polyline fill="none" stroke="black" points="156,-129.5 242,-129.5 "/>
<text text-anchor="start" x="164" y="-117.5" font-family="Helvetica,sans-Serif" font-size="10.00">+ Nil()</text>
<text text-anchor="start" x="164" y="-106.5" font-family="Helvetica,sans-Serif" font-size="10.00">+ Nil()</text>
</a>
</g>
</g>
<!-- Node5&#45;&gt;Node10 -->
<g id="edge10" class="edge"><title>Node5&#45;&gt;Node10</title>
<path fill="none" stroke="midnightblue" d="M194.104,-315.19C194.065,-312.427 194.03,-309.691 194,-307 193.461,-258.467 195.606,-202.281 197.255,-167.562"/>
<polygon fill="none" stroke="midnightblue" points="190.606,-315.336 194.263,-325.28 197.605,-315.226 190.606,-315.336"/>
</g>
<!-- Node6 -->
<g id="node6" class="node"><title>Node6</title>
<g id="a_node6"><a xlink:href="../../d4/de0/classprolog_1_1terms_1_1Nonvar.html" target="_top" xlink:title="Part of the Prolog Term hierarchy. ">
<polygon fill="none" stroke="black" points="143.5,-508.5 143.5,-598.5 248.5,-598.5 248.5,-508.5 143.5,-508.5"/>
<text text-anchor="middle" x="196" y="-586.5" font-family="Helvetica,sans-Serif" font-size="10.00">prolog.terms.Nonvar</text>
<polyline fill="none" stroke="black" points="143.5,-579.5 248.5,-579.5 "/>
<text text-anchor="middle" x="196" y="-567.5" font-family="Helvetica,sans-Serif" font-size="10.00"> </text>
<polyline fill="none" stroke="black" points="143.5,-560.5 248.5,-560.5 "/>
<text text-anchor="start" x="151.5" y="-548.5" font-family="Helvetica,sans-Serif" font-size="10.00">+ name()</text>
<text text-anchor="start" x="151.5" y="-537.5" font-family="Helvetica,sans-Serif" font-size="10.00">~ bind_to()</text>
<text text-anchor="start" x="151.5" y="-526.5" font-family="Helvetica,sans-Serif" font-size="10.00">~ unify_to()</text>
<text text-anchor="start" x="151.5" y="-515.5" font-family="Helvetica,sans-Serif" font-size="10.00">~ listify()</text>
</a>
</g>
</g>
<!-- Node6&#45;&gt;Node5 -->
<g id="edge5" class="edge"><title>Node6&#45;&gt;Node5</title>
<path fill="none" stroke="midnightblue" d="M196,-497.98C196,-489.165 196,-479.921 196,-470.771"/>
<polygon fill="none" stroke="midnightblue" points="192.5,-498.101 196,-508.101 199.5,-498.101 192.5,-498.101"/>
</g>
<!-- Node7 -->
<g id="node7" class="node"><title>Node7</title>
<g id="a_node7"><a xlink:href="../../d3/ded/classprolog_1_1terms_1_1Term.html" target="_top" xlink:title="Top element of the Prolog term hierarchy. ">
<polygon fill="none" stroke="black" points="147,-636.5 147,-990.5 245,-990.5 245,-636.5 147,-636.5"/>
<text text-anchor="middle" x="196" y="-978.5" font-family="Helvetica,sans-Serif" font-size="10.00">prolog.terms.Term</text>
<polyline fill="none" stroke="black" points="147,-971.5 245,-971.5 "/>
<text text-anchor="start" x="155" y="-959.5" font-family="Helvetica,sans-Serif" font-size="10.00">+ JAVA</text>
<text text-anchor="start" x="155" y="-948.5" font-family="Helvetica,sans-Serif" font-size="10.00">+ REAL</text>
<text text-anchor="start" x="155" y="-937.5" font-family="Helvetica,sans-Serif" font-size="10.00">+ INT</text>
<text text-anchor="start" x="155" y="-926.5" font-family="Helvetica,sans-Serif" font-size="10.00">+ VAR</text>
<text text-anchor="start" x="155" y="-915.5" font-family="Helvetica,sans-Serif" font-size="10.00">+ CONST</text>
<polyline fill="none" stroke="black" points="147,-908.5 245,-908.5 "/>
<text text-anchor="start" x="155" y="-896.5" font-family="Helvetica,sans-Serif" font-size="10.00">+ getArity()</text>
<text text-anchor="start" x="155" y="-885.5" font-family="Helvetica,sans-Serif" font-size="10.00">+ ref()</text>
<text text-anchor="start" x="155" y="-874.5" font-family="Helvetica,sans-Serif" font-size="10.00">+ token()</text>
<text text-anchor="start" x="155" y="-863.5" font-family="Helvetica,sans-Serif" font-size="10.00">+ toClause()</text>
<text text-anchor="start" x="155" y="-852.5" font-family="Helvetica,sans-Serif" font-size="10.00">+ matches()</text>
<text text-anchor="start" x="155" y="-841.5" font-family="Helvetica,sans-Serif" font-size="10.00">+ matches()</text>
<text text-anchor="start" x="155" y="-830.5" font-family="Helvetica,sans-Serif" font-size="10.00">+ matching_copy()</text>
<text text-anchor="start" x="155" y="-819.5" font-family="Helvetica,sans-Serif" font-size="10.00">+ copy()</text>
<text text-anchor="start" x="155" y="-808.5" font-family="Helvetica,sans-Serif" font-size="10.00">+ varsOf()</text>
<text text-anchor="start" x="155" y="-797.5" font-family="Helvetica,sans-Serif" font-size="10.00">+ numbervars()</text>
<text text-anchor="start" x="155" y="-786.5" font-family="Helvetica,sans-Serif" font-size="10.00">and 6 more...</text>
<text text-anchor="start" x="155" y="-775.5" font-family="Helvetica,sans-Serif" font-size="10.00">+ fromString()</text>
<text text-anchor="start" x="155" y="-764.5" font-family="Helvetica,sans-Serif" font-size="10.00">+ charsToString()</text>
<text text-anchor="start" x="155" y="-753.5" font-family="Helvetica,sans-Serif" font-size="10.00">~ bind_to()</text>
<text text-anchor="start" x="155" y="-742.5" font-family="Helvetica,sans-Serif" font-size="10.00">~ unify_to()</text>
<text text-anchor="start" x="155" y="-731.5" font-family="Helvetica,sans-Serif" font-size="10.00">~ toTerm()</text>
<text text-anchor="start" x="155" y="-720.5" font-family="Helvetica,sans-Serif" font-size="10.00">~ isClause()</text>
<text text-anchor="start" x="155" y="-709.5" font-family="Helvetica,sans-Serif" font-size="10.00">~ reaction()</text>
<text text-anchor="start" x="155" y="-698.5" font-family="Helvetica,sans-Serif" font-size="10.00">~ action()</text>
<text text-anchor="start" x="155" y="-687.5" font-family="Helvetica,sans-Serif" font-size="10.00">~ exec()</text>
<text text-anchor="start" x="155" y="-676.5" font-family="Helvetica,sans-Serif" font-size="10.00">~ stringToChars()</text>
<text text-anchor="start" x="155" y="-665.5" font-family="Helvetica,sans-Serif" font-size="10.00"># unify()</text>
<text text-anchor="start" x="155" y="-654.5" font-family="Helvetica,sans-Serif" font-size="10.00"># undo()</text>
<text text-anchor="start" x="155" y="-643.5" font-family="Helvetica,sans-Serif" font-size="10.00"># exec()</text>
</a>
</g>
</g>
<!-- Node7&#45;&gt;Node6 -->
<g id="edge6" class="edge"><title>Node7&#45;&gt;Node6</title>
<path fill="none" stroke="midnightblue" d="M196,-626.384C196,-616.458 196,-607.098 196,-598.617"/>
<polygon fill="none" stroke="midnightblue" points="192.5,-626.487 196,-636.487 199.5,-626.487 192.5,-626.487"/>
</g>
<!-- Node8 -->
<g id="node8" class="node"><title>Node8</title>
<polygon fill="none" stroke="#bfbfbf" points="137.5,-1028.5 137.5,-1085.5 182.5,-1085.5 182.5,-1028.5 137.5,-1028.5"/>
<text text-anchor="middle" x="160" y="-1073.5" font-family="Helvetica,sans-Serif" font-size="10.00">Object</text>
<polyline fill="none" stroke="#bfbfbf" points="137.5,-1066.5 182.5,-1066.5 "/>
<text text-anchor="middle" x="160" y="-1054.5" font-family="Helvetica,sans-Serif" font-size="10.00"> </text>
<polyline fill="none" stroke="#bfbfbf" points="137.5,-1047.5 182.5,-1047.5 "/>
<text text-anchor="middle" x="160" y="-1035.5" font-family="Helvetica,sans-Serif" font-size="10.00"> </text>
</g>
<!-- Node8&#45;&gt;Node7 -->
<g id="edge7" class="edge"><title>Node8&#45;&gt;Node7</title>
<path fill="none" stroke="midnightblue" d="M165.618,-1018.31C166.861,-1009.97 168.257,-1000.61 169.749,-990.602"/>
<polygon fill="none" stroke="midnightblue" points="162.142,-1017.89 164.13,-1028.3 169.066,-1018.92 162.142,-1017.89"/>
</g>
<!-- Node9 -->
<g id="node9" class="node"><title>Node9</title>
<polygon fill="none" stroke="#bfbfbf" points="201,-1028.5 201,-1085.5 261,-1085.5 261,-1028.5 201,-1028.5"/>
<text text-anchor="middle" x="231" y="-1073.5" font-family="Helvetica,sans-Serif" font-size="10.00">Cloneable</text>
<polyline fill="none" stroke="#bfbfbf" points="201,-1066.5 261,-1066.5 "/>
<text text-anchor="middle" x="231" y="-1054.5" font-family="Helvetica,sans-Serif" font-size="10.00"> </text>
<polyline fill="none" stroke="#bfbfbf" points="201,-1047.5 261,-1047.5 "/>
<text text-anchor="middle" x="231" y="-1035.5" font-family="Helvetica,sans-Serif" font-size="10.00"> </text>
</g>
<!-- Node9&#45;&gt;Node7 -->
<g id="edge8" class="edge"><title>Node9&#45;&gt;Node7</title>
<path fill="none" stroke="midnightblue" d="M225.538,-1018.31C224.33,-1009.97 222.973,-1000.61 221.522,-990.602"/>
<polygon fill="none" stroke="midnightblue" points="222.087,-1018.9 226.985,-1028.3 229.014,-1017.9 222.087,-1018.9"/>
</g>
<!-- Node10&#45;&gt;Node5 -->
<g id="edge9" class="edge"><title>Node10&#45;&gt;Node5</title>
<path fill="none" stroke="#404040" d="M198.619,-167.846C198.204,-204.179 197.523,-263.706 196.96,-312.984"/>
<polygon fill="none" stroke="#404040" points="196.957,-313.272 200.888,-319.317 196.82,-325.271 192.889,-319.225 196.957,-313.272"/>
<text text-anchor="middle" x="211.5" y="-293.5" font-family="Helvetica,sans-Serif" font-size="10.00"> +aNil</text>
</g>
</g>
</svg>
        <g id="navigator" transform="translate(0 0)" fill="#404254">
                <rect fill="#f2f5e9" fill-opacity="0.5" stroke="#606060" stroke-width=".5" x="0" y="0" width="60" height="60"/>
                <use id="zoomplus" xlink:href="#zoomPlus" x="17" y="9" onmousedown="handleZoom(evt,'in')"/>
                <use id="zoomminus" xlink:href="#zoomMin" x="42" y="9" onmousedown="handleZoom(evt,'out')"/>
                <use id="reset" xlink:href="#resetDef" x="30" y="36" onmousedown="handleReset()"/>
                <g id="arrowUp" xlink:href="#dirArrow" transform="translate(30 24)" onmousedown="handlePan(0,-1)">
                  <use xlink:href="#rim" fill="#404040">
                        <set attributeName="fill" to="#808080" begin="arrowUp.mouseover" end="arrowUp.mouseout"/>
                  </use>
                  <path fill="none" stroke="white" stroke-width="1.5" d="M0,-3.0v7 M-2.5,-0.5L0,-3.0L2.5,-0.5"/>
                </g>
                <g id="arrowRight" xlink:href="#dirArrow" transform="rotate(90) translate(36 -43)" onmousedown="handlePan(1,0)">
                  <use xlink:href="#rim" fill="#404040">
                        <set attributeName="fill" to="#808080" begin="arrowRight.mouseover" end="arrowRight.mouseout"/>
                  </use>
                  <path fill="none" stroke="white" stroke-width="1.5" d="M0,-3.0v7 M-2.5,-0.5L0,-3.0L2.5,-0.5"/>
                </g>
                <g id="arrowDown" xlink:href="#dirArrow" transform="rotate(180) translate(-30 -48)" onmousedown="handlePan(0,1)">
                  <use xlink:href="#rim" fill="#404040">
                        <set attributeName="fill" to="#808080" begin="arrowDown.mouseover" end="arrowDown.mouseout"/>
                  </use>
                  <path fill="none" stroke="white" stroke-width="1.5" d="M0,-3.0v7 M-2.5,-0.5L0,-3.0L2.5,-0.5"/>
                </g>
                <g id="arrowLeft" xlink:href="#dirArrow" transform="rotate(270) translate(-36 17)" onmousedown="handlePan(-1,0)">
                  <use xlink:href="#rim" fill="#404040">
                        <set attributeName="fill" to="#808080" begin="arrowLeft.mouseover" end="arrowLeft.mouseout"/>
                  </use>
                  <path fill="none" stroke="white" stroke-width="1.5" d="M0,-3.0v7 M-2.5,-0.5L0,-3.0L2.5,-0.5"/>
                </g>
        </g>
        <svg viewBox="0 0 15 15" width="100%" height="30px" preserveAspectRatio="xMaxYMin meet">
         <g id="arrow_out" transform="scale(0.3 0.3)">
          <a xlink:href="classprolog_1_1fluents_1_1DataBase__coll__graph_org.svg" target="_base">
           <rect id="button" ry="5" rx="5" y="6" x="6" height="38" width="38"
                fill="#f2f5e9" fill-opacity="0.5" stroke="#606060" stroke-width="1.0"/>
           <path id="arrow"
             d="M 11.500037,31.436501 C 11.940474,20.09759 22.043105,11.32322 32.158766,21.979434 L 37.068811,17.246167 C 37.068811,17.246167 37.088388,32 37.088388,32 L 22.160133,31.978069 C 22.160133,31.978069 26.997745,27.140456 26.997745,27.140456 C 18.528582,18.264221 13.291696,25.230495 11.500037,31.436501 z"
             style="fill:#404040;"/>
          </a>
         </g>
        </svg>
</svg>
