<?xml version="1.0" encoding="UTF-8" standalone="no"?>
<!DOCTYPE svg PUBLIC "-//W3C//DTD SVG 1.1//EN"
 "http://www.w3.org/Graphics/SVG/1.1/DTD/svg11.dtd">
<!-- Generated by graphviz version 2.38.0 (20140413.2041)
 -->
<!-- Title: prolog.builtins.split_source.exec Pages: 1 -->
<svg width="636pt" height="142pt"
 viewBox="0.00 0.00 636.00 142.00" xmlns="http://www.w3.org/2000/svg" xmlns:xlink="http://www.w3.org/1999/xlink">
<g id="graph0" class="graph" transform="scale(1 1) rotate(0) translate(4 138)">
<title>prolog.builtins.split_source.exec</title>
<!-- Node1 -->
<g id="node1" class="node"><title>Node1</title>
<polygon fill="#bfbfbf" stroke="black" points="0,-61 0,-91 98,-91 98,-61 0,-61"/>
<text text-anchor="start" x="8" y="-79" font-family="Helvetica,sans-Serif" font-size="10.00">prolog.builtins.split</text>
<text text-anchor="middle" x="49" y="-68" font-family="Helvetica,sans-Serif" font-size="10.00">_source.exec</text>
</g>
<!-- Node2 -->
<g id="node2" class="node"><title>Node2</title>
<g id="a_node2"><a xlink:href="../../de/d8d/classprolog_1_1terms_1_1Fun_a95f487cd7555adbc0ae1a08076a0404d.html#a95f487cd7555adbc0ae1a08076a0404d" target="_top" xlink:title="prolog.terms.Fun.getArg">
<polygon fill="none" stroke="black" points="138.5,-109.5 138.5,-128.5 260.5,-128.5 260.5,-109.5 138.5,-109.5"/>
<text text-anchor="middle" x="199.5" y="-116.5" font-family="Helvetica,sans-Serif" font-size="10.00">prolog.terms.Fun.getArg</text>
</a>
</g>
</g>
<!-- Node1&#45;&gt;Node2 -->
<g id="edge1" class="edge"><title>Node1&#45;&gt;Node2</title>
<path fill="none" stroke="midnightblue" d="M98.2137,-89.9609C116.792,-95.3406 137.861,-101.441 155.876,-106.658"/>
<polygon fill="midnightblue" stroke="midnightblue" points="154.955,-110.035 165.534,-109.454 156.902,-103.311 154.955,-110.035"/>
</g>
<!-- Node4 -->
<g id="node4" class="node"><title>Node4</title>
<g id="a_node4"><a xlink:href="../../de/d8d/classprolog_1_1terms_1_1Fun_a408f688b791b731a83c6a41a8ee32fb0.html#a408f688b791b731a83c6a41a8ee32fb0" target="_top" xlink:title="prolog.terms.Fun.putArg">
<polygon fill="none" stroke="black" points="138.5,-66.5 138.5,-85.5 260.5,-85.5 260.5,-66.5 138.5,-66.5"/>
<text text-anchor="middle" x="199.5" y="-73.5" font-family="Helvetica,sans-Serif" font-size="10.00">prolog.terms.Fun.putArg</text>
</a>
</g>
</g>
<!-- Node1&#45;&gt;Node4 -->
<g id="edge3" class="edge"><title>Node1&#45;&gt;Node4</title>
<path fill="none" stroke="midnightblue" d="M98.2137,-76C107.805,-76 118.06,-76 128.215,-76"/>
<polygon fill="midnightblue" stroke="midnightblue" points="128.309,-79.5001 138.309,-76 128.309,-72.5001 128.309,-79.5001"/>
</g>
<!-- Node8 -->
<g id="node8" class="node"><title>Node8</title>
<g id="a_node8"><a xlink:href="../../d2/d07/classprolog_1_1terms_1_1Source_aa40a822d3598499665728d7ae0e46d34.html#aa40a822d3598499665728d7ae0e46d34" target="_top" xlink:title="prolog.terms.Source.toList">
<polygon fill="none" stroke="black" points="134,-19.5 134,-38.5 265,-38.5 265,-19.5 134,-19.5"/>
<text text-anchor="middle" x="199.5" y="-26.5" font-family="Helvetica,sans-Serif" font-size="10.00">prolog.terms.Source.toList</text>
</a>
</g>
</g>
<!-- Node1&#45;&gt;Node8 -->
<g id="edge8" class="edge"><title>Node1&#45;&gt;Node8</title>
<path fill="none" stroke="midnightblue" d="M97.3946,-60.9997C117.109,-54.7601 139.743,-47.5965 158.59,-41.6313"/>
<polygon fill="midnightblue" stroke="midnightblue" points="159.869,-44.8978 168.347,-38.5434 157.757,-38.2241 159.869,-44.8978"/>
</g>
<!-- Node3 -->
<g id="node3" class="node"><title>Node3</title>
<g id="a_node3"><a xlink:href="../../d3/ded/classprolog_1_1terms_1_1Term_ae140fac2c9d066dc897fcfa723060a7a.html#ae140fac2c9d066dc897fcfa723060a7a" target="_top" xlink:title="Dereferences if necessary. ">
<polygon fill="none" stroke="black" points="506,-114.5 506,-133.5 616,-133.5 616,-114.5 506,-114.5"/>
<text text-anchor="middle" x="561" y="-121.5" font-family="Helvetica,sans-Serif" font-size="10.00">prolog.terms.Term.ref</text>
</a>
</g>
</g>
<!-- Node2&#45;&gt;Node3 -->
<g id="edge2" class="edge"><title>Node2&#45;&gt;Node3</title>
<path fill="none" stroke="midnightblue" d="M260.672,-119.837C325.656,-120.741 428.801,-122.175 495.443,-123.102"/>
<polygon fill="midnightblue" stroke="midnightblue" points="495.766,-126.607 505.814,-123.246 495.863,-119.608 495.766,-126.607"/>
</g>
<!-- Node5 -->
<g id="node5" class="node"><title>Node5</title>
<g id="a_node5"><a xlink:href="../../d3/ded/classprolog_1_1terms_1_1Term_a84d8fb7e1f816d0dbe3c2c56ed28fdb9.html#a84d8fb7e1f816d0dbe3c2c56ed28fdb9" target="_top" xlink:title="Dereference and unify_to. ">
<polygon fill="none" stroke="black" points="319.5,-76.5 319.5,-95.5 439.5,-95.5 439.5,-76.5 319.5,-76.5"/>
<text text-anchor="middle" x="379.5" y="-83.5" font-family="Helvetica,sans-Serif" font-size="10.00">prolog.terms.Term.unify</text>
</a>
</g>
</g>
<!-- Node4&#45;&gt;Node5 -->
<g id="edge4" class="edge"><title>Node4&#45;&gt;Node5</title>
<path fill="none" stroke="midnightblue" d="M260.763,-79.3855C276.234,-80.2547 293.003,-81.1968 308.904,-82.0901"/>
<polygon fill="midnightblue" stroke="midnightblue" points="309.025,-85.6023 319.205,-82.6688 309.417,-78.6133 309.025,-85.6023"/>
</g>
<!-- Node7 -->
<g id="node7" class="node"><title>Node7</title>
<g id="a_node7"><a xlink:href="../../d4/d26/classprolog_1_1terms_1_1Prog_a41eac8617a5002806d7137eb36183405.html#a41eac8617a5002806d7137eb36183405" target="_top" xlink:title="prolog.terms.Prog.getTrail">
<polygon fill="none" stroke="black" points="315,-38.5 315,-57.5 444,-57.5 444,-38.5 315,-38.5"/>
<text text-anchor="middle" x="379.5" y="-45.5" font-family="Helvetica,sans-Serif" font-size="10.00">prolog.terms.Prog.getTrail</text>
</a>
</g>
</g>
<!-- Node4&#45;&gt;Node7 -->
<g id="edge7" class="edge"><title>Node4&#45;&gt;Node7</title>
<path fill="none" stroke="midnightblue" d="M260.763,-66.5205C275.903,-64.1388 292.287,-61.5617 307.883,-59.1084"/>
<polygon fill="midnightblue" stroke="midnightblue" points="308.662,-62.5289 317.997,-57.5174 307.574,-55.6139 308.662,-62.5289"/>
</g>
<!-- Node5&#45;&gt;Node3 -->
<g id="edge5" class="edge"><title>Node5&#45;&gt;Node3</title>
<path fill="none" stroke="midnightblue" d="M425.795,-95.589C449.909,-100.694 479.751,-107.011 505.167,-112.392"/>
<polygon fill="midnightblue" stroke="midnightblue" points="504.522,-115.833 515.03,-114.48 505.972,-108.985 504.522,-115.833"/>
</g>
<!-- Node6 -->
<g id="node6" class="node"><title>Node6</title>
<g id="a_node6"><a xlink:href="../../d3/ded/classprolog_1_1terms_1_1Term_a866b2cca50e77e99b560578b2fa3a91a.html#a866b2cca50e77e99b560578b2fa3a91a" target="_top" xlink:title="Unify dereferenced. ">
<polygon fill="none" stroke="black" points="494,-76.5 494,-95.5 628,-95.5 628,-76.5 494,-76.5"/>
<text text-anchor="middle" x="561" y="-83.5" font-family="Helvetica,sans-Serif" font-size="10.00">prolog.terms.Term.unify_to</text>
</a>
</g>
</g>
<!-- Node5&#45;&gt;Node6 -->
<g id="edge6" class="edge"><title>Node5&#45;&gt;Node6</title>
<path fill="none" stroke="midnightblue" d="M439.772,-86C453.878,-86 469.122,-86 483.865,-86"/>
<polygon fill="midnightblue" stroke="midnightblue" points="483.971,-89.5001 493.971,-86 483.971,-82.5001 483.971,-89.5001"/>
</g>
<!-- Node9 -->
<g id="node9" class="node"><title>Node9</title>
<g id="a_node9"><a xlink:href="../../d2/d07/classprolog_1_1terms_1_1Source_a80edbb7a5e2e465563e161990957b736.html#a80edbb7a5e2e465563e161990957b736" target="_top" xlink:title="prolog.terms.Source.getElement">
<polygon fill="none" stroke="black" points="301,-0.5 301,-19.5 458,-19.5 458,-0.5 301,-0.5"/>
<text text-anchor="middle" x="379.5" y="-7.5" font-family="Helvetica,sans-Serif" font-size="10.00">prolog.terms.Source.getElement</text>
</a>
</g>
</g>
<!-- Node8&#45;&gt;Node9 -->
<g id="edge9" class="edge"><title>Node8&#45;&gt;Node9</title>
<path fill="none" stroke="midnightblue" d="M265.014,-22.1137C273.381,-21.2206 282.06,-20.2941 290.725,-19.3693"/>
<polygon fill="midnightblue" stroke="midnightblue" points="291.297,-22.8281 300.869,-18.2864 290.554,-15.8677 291.297,-22.8281"/>
</g>
</g>
</svg>
