<?xml version="1.0" encoding="UTF-8" standalone="no"?>
<!DOCTYPE svg PUBLIC "-//W3C//DTD SVG 1.1//EN"
 "http://www.w3.org/Graphics/SVG/1.1/DTD/svg11.dtd">
<!-- Generated by graphviz version 2.38.0 (20140413.2041)
 -->
<!-- Title: prolog.builtins.discharge Pages: 1 -->
<svg width="135pt" height="1356pt"
 viewBox="0.00 0.00 135.00 1356.00" xmlns="http://www.w3.org/2000/svg" xmlns:xlink="http://www.w3.org/1999/xlink">
<g id="graph0" class="graph" transform="scale(1 1) rotate(0) translate(4 1352)">
<title>prolog.builtins.discharge</title>
<!-- Node1 -->
<g id="node1" class="node"><title>Node1</title>
<polygon fill="#bfbfbf" stroke="black" points="0,-0.5 0,-68.5 122,-68.5 122,-0.5 0,-0.5"/>
<text text-anchor="middle" x="61" y="-56.5" font-family="Helvetica,sans-Serif" font-size="10.00">prolog.builtins.discharge</text>
<polyline fill="none" stroke="black" points="0,-49.5 122,-49.5 "/>
<text text-anchor="middle" x="61" y="-37.5" font-family="Helvetica,sans-Serif" font-size="10.00"> </text>
<polyline fill="none" stroke="black" points="0,-30.5 122,-30.5 "/>
<text text-anchor="start" x="8" y="-18.5" font-family="Helvetica,sans-Serif" font-size="10.00">+ exec()</text>
<text text-anchor="start" x="8" y="-7.5" font-family="Helvetica,sans-Serif" font-size="10.00">~ discharge()</text>
</g>
<!-- Node2 -->
<g id="node2" class="node"><title>Node2</title>
<g id="a_node2"><a xlink:href="../../d3/df5/classprolog_1_1terms_1_1FunBuiltin.html" target="_top" xlink:title="Template for builtins of arity &gt;0. ">
<polygon fill="none" stroke="black" points="2.5,-105.5 2.5,-184.5 119.5,-184.5 119.5,-105.5 2.5,-105.5"/>
<text text-anchor="middle" x="61" y="-172.5" font-family="Helvetica,sans-Serif" font-size="10.00">prolog.terms.FunBuiltin</text>
<polyline fill="none" stroke="black" points="2.5,-165.5 119.5,-165.5 "/>
<text text-anchor="middle" x="61" y="-153.5" font-family="Helvetica,sans-Serif" font-size="10.00"> </text>
<polyline fill="none" stroke="black" points="2.5,-146.5 119.5,-146.5 "/>
<text text-anchor="start" x="10.5" y="-134.5" font-family="Helvetica,sans-Serif" font-size="10.00">+ FunBuiltin()</text>
<text text-anchor="start" x="10.5" y="-123.5" font-family="Helvetica,sans-Serif" font-size="10.00">+ exec()</text>
<text text-anchor="start" x="10.5" y="-112.5" font-family="Helvetica,sans-Serif" font-size="10.00">+ isBuiltin()</text>
</a>
</g>
</g>
<!-- Node2&#45;&gt;Node1 -->
<g id="edge1" class="edge"><title>Node2&#45;&gt;Node1</title>
<path fill="none" stroke="midnightblue" d="M61,-95.3492C61,-86.2824 61,-77.0048 61,-68.5439"/>
<polygon fill="none" stroke="midnightblue" points="57.5001,-95.4414 61,-105.441 64.5001,-95.4415 57.5001,-95.4414"/>
</g>
<!-- Node3 -->
<g id="node3" class="node"><title>Node3</title>
<g id="a_node3"><a xlink:href="../../de/d8d/classprolog_1_1terms_1_1Fun.html" target="_top" xlink:title="Implements compound terms. ">
<polygon fill="none" stroke="black" points="7,-221.5 7,-487.5 115,-487.5 115,-221.5 7,-221.5"/>
<text text-anchor="middle" x="61" y="-475.5" font-family="Helvetica,sans-Serif" font-size="10.00">prolog.terms.Fun</text>
<polyline fill="none" stroke="black" points="7,-468.5 115,-468.5 "/>
<text text-anchor="start" x="15" y="-456.5" font-family="Helvetica,sans-Serif" font-size="10.00">+ args</text>
<polyline fill="none" stroke="black" points="7,-449.5 115,-449.5 "/>
<text text-anchor="start" x="15" y="-437.5" font-family="Helvetica,sans-Serif" font-size="10.00">+ getArity()</text>
<text text-anchor="start" x="15" y="-426.5" font-family="Helvetica,sans-Serif" font-size="10.00">+ Fun()</text>
<text text-anchor="start" x="15" y="-415.5" font-family="Helvetica,sans-Serif" font-size="10.00">+ Fun()</text>
<text text-anchor="start" x="15" y="-404.5" font-family="Helvetica,sans-Serif" font-size="10.00">+ Fun()</text>
<text text-anchor="start" x="15" y="-393.5" font-family="Helvetica,sans-Serif" font-size="10.00">+ init()</text>
<text text-anchor="start" x="15" y="-382.5" font-family="Helvetica,sans-Serif" font-size="10.00">+ getArg()</text>
<text text-anchor="start" x="15" y="-371.5" font-family="Helvetica,sans-Serif" font-size="10.00">+ getIntArg()</text>
<text text-anchor="start" x="15" y="-360.5" font-family="Helvetica,sans-Serif" font-size="10.00">+ setArg()</text>
<text text-anchor="start" x="15" y="-349.5" font-family="Helvetica,sans-Serif" font-size="10.00">+ putArg()</text>
<text text-anchor="start" x="15" y="-338.5" font-family="Helvetica,sans-Serif" font-size="10.00">+ Fun()</text>
<text text-anchor="start" x="15" y="-327.5" font-family="Helvetica,sans-Serif" font-size="10.00">and 7 more...</text>
<text text-anchor="start" x="15" y="-316.5" font-family="Helvetica,sans-Serif" font-size="10.00">~ bind_to()</text>
<text text-anchor="start" x="15" y="-305.5" font-family="Helvetica,sans-Serif" font-size="10.00">~ unify_to()</text>
<text text-anchor="start" x="15" y="-294.5" font-family="Helvetica,sans-Serif" font-size="10.00">~ reaction()</text>
<text text-anchor="start" x="15" y="-283.5" font-family="Helvetica,sans-Serif" font-size="10.00">~ isClause()</text>
<text text-anchor="start" x="15" y="-272.5" font-family="Helvetica,sans-Serif" font-size="10.00"># funToString()</text>
<text text-anchor="start" x="15" y="-261.5" font-family="Helvetica,sans-Serif" font-size="10.00"># unInitializedClone()</text>
<text text-anchor="start" x="15" y="-250.5" font-family="Helvetica,sans-Serif" font-size="10.00"># initializedClone()</text>
<text text-anchor="start" x="15" y="-239.5" font-family="Helvetica,sans-Serif" font-size="10.00"># watchNull()</text>
<text text-anchor="start" x="15" y="-228.5" font-family="Helvetica,sans-Serif" font-size="10.00">&#45; show_args()</text>
</a>
</g>
</g>
<!-- Node3&#45;&gt;Node2 -->
<g id="edge2" class="edge"><title>Node3&#45;&gt;Node2</title>
<path fill="none" stroke="midnightblue" d="M61,-211.387C61,-201.842 61,-192.802 61,-184.659"/>
<polygon fill="none" stroke="midnightblue" points="57.5001,-211.499 61,-221.499 64.5001,-211.499 57.5001,-211.499"/>
</g>
<!-- Node4 -->
<g id="node4" class="node"><title>Node4</title>
<g id="a_node4"><a xlink:href="../../d0/d3f/classprolog_1_1terms_1_1Const.html" target="_top" xlink:title="Symbolic constant, of arity 0. ">
<polygon fill="none" stroke="black" points="11,-524.5 11,-735.5 111,-735.5 111,-524.5 11,-524.5"/>
<text text-anchor="middle" x="61" y="-723.5" font-family="Helvetica,sans-Serif" font-size="10.00">prolog.terms.Const</text>
<polyline fill="none" stroke="black" points="11,-716.5 111,-716.5 "/>
<text text-anchor="start" x="19" y="-704.5" font-family="Helvetica,sans-Serif" font-size="10.00">+ aNil</text>
<text text-anchor="start" x="19" y="-693.5" font-family="Helvetica,sans-Serif" font-size="10.00">+ aTrue</text>
<text text-anchor="start" x="19" y="-682.5" font-family="Helvetica,sans-Serif" font-size="10.00">+ aFail</text>
<text text-anchor="start" x="19" y="-671.5" font-family="Helvetica,sans-Serif" font-size="10.00">+ aYes</text>
<text text-anchor="start" x="19" y="-660.5" font-family="Helvetica,sans-Serif" font-size="10.00">+ aNo</text>
<text text-anchor="start" x="19" y="-649.5" font-family="Helvetica,sans-Serif" font-size="10.00">+ anEof</text>
<text text-anchor="start" x="19" y="-638.5" font-family="Helvetica,sans-Serif" font-size="10.00">&#45; sym</text>
<polyline fill="none" stroke="black" points="11,-631.5 111,-631.5 "/>
<text text-anchor="start" x="19" y="-619.5" font-family="Helvetica,sans-Serif" font-size="10.00">+ Const()</text>
<text text-anchor="start" x="19" y="-608.5" font-family="Helvetica,sans-Serif" font-size="10.00">+ name()</text>
<text text-anchor="start" x="19" y="-597.5" font-family="Helvetica,sans-Serif" font-size="10.00">+ qname()</text>
<text text-anchor="start" x="19" y="-586.5" font-family="Helvetica,sans-Serif" font-size="10.00">+ toString()</text>
<text text-anchor="start" x="19" y="-575.5" font-family="Helvetica,sans-Serif" font-size="10.00">+ getKey()</text>
<text text-anchor="start" x="19" y="-564.5" font-family="Helvetica,sans-Serif" font-size="10.00">+ getArity()</text>
<text text-anchor="start" x="19" y="-553.5" font-family="Helvetica,sans-Serif" font-size="10.00">+ toUnquoted()</text>
<text text-anchor="start" x="19" y="-542.5" font-family="Helvetica,sans-Serif" font-size="10.00">+ the()</text>
<text text-anchor="start" x="19" y="-531.5" font-family="Helvetica,sans-Serif" font-size="10.00">~ bind_to()</text>
</a>
</g>
</g>
<!-- Node4&#45;&gt;Node3 -->
<g id="edge3" class="edge"><title>Node4&#45;&gt;Node3</title>
<path fill="none" stroke="midnightblue" d="M61,-514.177C61,-505.385 61,-496.47 61,-487.581"/>
<polygon fill="none" stroke="midnightblue" points="57.5001,-514.431 61,-524.431 64.5001,-514.431 57.5001,-514.431"/>
</g>
<!-- Node5 -->
<g id="node5" class="node"><title>Node5</title>
<g id="a_node5"><a xlink:href="../../d4/de0/classprolog_1_1terms_1_1Nonvar.html" target="_top" xlink:title="Part of the Prolog Term hierarchy. ">
<polygon fill="none" stroke="black" points="8.5,-772.5 8.5,-862.5 113.5,-862.5 113.5,-772.5 8.5,-772.5"/>
<text text-anchor="middle" x="61" y="-850.5" font-family="Helvetica,sans-Serif" font-size="10.00">prolog.terms.Nonvar</text>
<polyline fill="none" stroke="black" points="8.5,-843.5 113.5,-843.5 "/>
<text text-anchor="middle" x="61" y="-831.5" font-family="Helvetica,sans-Serif" font-size="10.00"> </text>
<polyline fill="none" stroke="black" points="8.5,-824.5 113.5,-824.5 "/>
<text text-anchor="start" x="16.5" y="-812.5" font-family="Helvetica,sans-Serif" font-size="10.00">+ name()</text>
<text text-anchor="start" x="16.5" y="-801.5" font-family="Helvetica,sans-Serif" font-size="10.00">~ bind_to()</text>
<text text-anchor="start" x="16.5" y="-790.5" font-family="Helvetica,sans-Serif" font-size="10.00">~ unify_to()</text>
<text text-anchor="start" x="16.5" y="-779.5" font-family="Helvetica,sans-Serif" font-size="10.00">~ listify()</text>
</a>
</g>
</g>
<!-- Node5&#45;&gt;Node4 -->
<g id="edge4" class="edge"><title>Node5&#45;&gt;Node4</title>
<path fill="none" stroke="midnightblue" d="M61,-761.824C61,-753.508 61,-744.698 61,-735.736"/>
<polygon fill="none" stroke="midnightblue" points="57.5001,-762.068 61,-772.068 64.5001,-762.068 57.5001,-762.068"/>
</g>
<!-- Node6 -->
<g id="node6" class="node"><title>Node6</title>
<g id="a_node6"><a xlink:href="../../d3/ded/classprolog_1_1terms_1_1Term.html" target="_top" xlink:title="Top element of the Prolog term hierarchy. ">
<polygon fill="none" stroke="black" points="12,-899.5 12,-1253.5 110,-1253.5 110,-899.5 12,-899.5"/>
<text text-anchor="middle" x="61" y="-1241.5" font-family="Helvetica,sans-Serif" font-size="10.00">prolog.terms.Term</text>
<polyline fill="none" stroke="black" points="12,-1234.5 110,-1234.5 "/>
<text text-anchor="start" x="20" y="-1222.5" font-family="Helvetica,sans-Serif" font-size="10.00">+ JAVA</text>
<text text-anchor="start" x="20" y="-1211.5" font-family="Helvetica,sans-Serif" font-size="10.00">+ REAL</text>
<text text-anchor="start" x="20" y="-1200.5" font-family="Helvetica,sans-Serif" font-size="10.00">+ INT</text>
<text text-anchor="start" x="20" y="-1189.5" font-family="Helvetica,sans-Serif" font-size="10.00">+ VAR</text>
<text text-anchor="start" x="20" y="-1178.5" font-family="Helvetica,sans-Serif" font-size="10.00">+ CONST</text>
<polyline fill="none" stroke="black" points="12,-1171.5 110,-1171.5 "/>
<text text-anchor="start" x="20" y="-1159.5" font-family="Helvetica,sans-Serif" font-size="10.00">+ getArity()</text>
<text text-anchor="start" x="20" y="-1148.5" font-family="Helvetica,sans-Serif" font-size="10.00">+ ref()</text>
<text text-anchor="start" x="20" y="-1137.5" font-family="Helvetica,sans-Serif" font-size="10.00">+ token()</text>
<text text-anchor="start" x="20" y="-1126.5" font-family="Helvetica,sans-Serif" font-size="10.00">+ toClause()</text>
<text text-anchor="start" x="20" y="-1115.5" font-family="Helvetica,sans-Serif" font-size="10.00">+ matches()</text>
<text text-anchor="start" x="20" y="-1104.5" font-family="Helvetica,sans-Serif" font-size="10.00">+ matches()</text>
<text text-anchor="start" x="20" y="-1093.5" font-family="Helvetica,sans-Serif" font-size="10.00">+ matching_copy()</text>
<text text-anchor="start" x="20" y="-1082.5" font-family="Helvetica,sans-Serif" font-size="10.00">+ copy()</text>
<text text-anchor="start" x="20" y="-1071.5" font-family="Helvetica,sans-Serif" font-size="10.00">+ varsOf()</text>
<text text-anchor="start" x="20" y="-1060.5" font-family="Helvetica,sans-Serif" font-size="10.00">+ numbervars()</text>
<text text-anchor="start" x="20" y="-1049.5" font-family="Helvetica,sans-Serif" font-size="10.00">and 6 more...</text>
<text text-anchor="start" x="20" y="-1038.5" font-family="Helvetica,sans-Serif" font-size="10.00">+ fromString()</text>
<text text-anchor="start" x="20" y="-1027.5" font-family="Helvetica,sans-Serif" font-size="10.00">+ charsToString()</text>
<text text-anchor="start" x="20" y="-1016.5" font-family="Helvetica,sans-Serif" font-size="10.00">~ bind_to()</text>
<text text-anchor="start" x="20" y="-1005.5" font-family="Helvetica,sans-Serif" font-size="10.00">~ unify_to()</text>
<text text-anchor="start" x="20" y="-994.5" font-family="Helvetica,sans-Serif" font-size="10.00">~ toTerm()</text>
<text text-anchor="start" x="20" y="-983.5" font-family="Helvetica,sans-Serif" font-size="10.00">~ isClause()</text>
<text text-anchor="start" x="20" y="-972.5" font-family="Helvetica,sans-Serif" font-size="10.00">~ reaction()</text>
<text text-anchor="start" x="20" y="-961.5" font-family="Helvetica,sans-Serif" font-size="10.00">~ action()</text>
<text text-anchor="start" x="20" y="-950.5" font-family="Helvetica,sans-Serif" font-size="10.00">~ exec()</text>
<text text-anchor="start" x="20" y="-939.5" font-family="Helvetica,sans-Serif" font-size="10.00">~ stringToChars()</text>
<text text-anchor="start" x="20" y="-928.5" font-family="Helvetica,sans-Serif" font-size="10.00"># unify()</text>
<text text-anchor="start" x="20" y="-917.5" font-family="Helvetica,sans-Serif" font-size="10.00"># undo()</text>
<text text-anchor="start" x="20" y="-906.5" font-family="Helvetica,sans-Serif" font-size="10.00"># exec()</text>
</a>
</g>
</g>
<!-- Node6&#45;&gt;Node5 -->
<g id="edge5" class="edge"><title>Node6&#45;&gt;Node5</title>
<path fill="none" stroke="midnightblue" d="M61,-889.431C61,-879.975 61,-871.043 61,-862.912"/>
<polygon fill="none" stroke="midnightblue" points="57.5001,-889.464 61,-899.464 64.5001,-889.464 57.5001,-889.464"/>
</g>
<!-- Node7 -->
<g id="node7" class="node"><title>Node7</title>
<polygon fill="none" stroke="#bfbfbf" points="3.5,-1290.5 3.5,-1347.5 48.5,-1347.5 48.5,-1290.5 3.5,-1290.5"/>
<text text-anchor="middle" x="26" y="-1335.5" font-family="Helvetica,sans-Serif" font-size="10.00">Object</text>
<polyline fill="none" stroke="#bfbfbf" points="3.5,-1328.5 48.5,-1328.5 "/>
<text text-anchor="middle" x="26" y="-1316.5" font-family="Helvetica,sans-Serif" font-size="10.00"> </text>
<polyline fill="none" stroke="#bfbfbf" points="3.5,-1309.5 48.5,-1309.5 "/>
<text text-anchor="middle" x="26" y="-1297.5" font-family="Helvetica,sans-Serif" font-size="10.00"> </text>
</g>
<!-- Node7&#45;&gt;Node6 -->
<g id="edge6" class="edge"><title>Node7&#45;&gt;Node6</title>
<path fill="none" stroke="midnightblue" d="M31.4653,-1280.45C32.6323,-1272.43 33.9379,-1263.46 35.3327,-1253.87"/>
<polygon fill="none" stroke="midnightblue" points="27.9916,-1280.01 30.0149,-1290.41 34.9187,-1281.02 27.9916,-1280.01"/>
</g>
<!-- Node8 -->
<g id="node8" class="node"><title>Node8</title>
<polygon fill="none" stroke="#bfbfbf" points="67,-1290.5 67,-1347.5 127,-1347.5 127,-1290.5 67,-1290.5"/>
<text text-anchor="middle" x="97" y="-1335.5" font-family="Helvetica,sans-Serif" font-size="10.00">Cloneable</text>
<polyline fill="none" stroke="#bfbfbf" points="67,-1328.5 127,-1328.5 "/>
<text text-anchor="middle" x="97" y="-1316.5" font-family="Helvetica,sans-Serif" font-size="10.00"> </text>
<polyline fill="none" stroke="#bfbfbf" points="67,-1309.5 127,-1309.5 "/>
<text text-anchor="middle" x="97" y="-1297.5" font-family="Helvetica,sans-Serif" font-size="10.00"> </text>
</g>
<!-- Node8&#45;&gt;Node6 -->
<g id="edge7" class="edge"><title>Node8&#45;&gt;Node6</title>
<path fill="none" stroke="midnightblue" d="M91.3786,-1280.45C90.1782,-1272.43 88.8353,-1263.46 87.4007,-1253.87"/>
<polygon fill="none" stroke="midnightblue" points="87.9284,-1281.04 92.8703,-1290.41 94.8513,-1280 87.9284,-1281.04"/>
</g>
</g>
</svg>
