<?xml version="1.0" encoding="UTF-8" standalone="no"?>
<!DOCTYPE svg PUBLIC "-//W3C//DTD SVG 1.1//EN"
 "http://www.w3.org/Graphics/SVG/1.1/DTD/svg11.dtd">
<!-- Generated by graphviz version 2.38.0 (20140413.2041)
 -->
<!-- Title: prolog.io.Lexer.make_var Pages: 1 -->
<!--zoomable 85 -->
<svg id="main" version="1.1" xmlns="http://www.w3.org/2000/svg" xmlns:xlink="http://www.w3.org/1999/xlink" xml:space="preserve" onload="init(evt)">
<style type="text/css"><![CDATA[
.edge:hover path { stroke: red; }
.edge:hover polygon { stroke: red; fill: red; }
]]></style>
<script type="text/javascript"><![CDATA[
var edges = document.getElementsByTagName('g');
if (edges && edges.length) {
  for (var i=0;i<edges.length;i++) {
    if (edges[i].id.substr(0,4)=='edge') {
      edges[i].setAttribute('class','edge');
    }
  }
}
]]></script>
        <defs>
                <circle id="rim" cx="0" cy="0" r="7"/>
                <circle id="rim2" cx="0" cy="0" r="3.5"/>
                <g id="zoomPlus">
                        <use xlink:href="#rim" fill="#404040">
                                <set attributeName="fill" to="#808080" begin="zoomplus.mouseover" end="zoomplus.mouseout"/>
                        </use>
                        <path d="M-4,0h8M0,-4v8" fill="none" stroke="white" stroke-width="1.5" pointer-events="none"/>
                </g>
                <g id="zoomMin">
                        <use xlink:href="#rim" fill="#404040">
                                <set attributeName="fill" to="#808080" begin="zoomminus.mouseover" end="zoomminus.mouseout"/>
                        </use>
                        <path d="M-4,0h8" fill="none" stroke="white" stroke-width="1.5" pointer-events="none"/>
                </g>
                <g id="dirArrow">
                        <path fill="none" stroke="white" stroke-width="1.5" d="M0,-3.0v7 M-2.5,-0.5L0,-3.0L2.5,-0.5"/>
                </g>
               <g id="resetDef">
                       <use xlink:href="#rim2" fill="#404040">
                               <set attributeName="fill" to="#808080" begin="reset.mouseover" end="reset.mouseout"/>
                       </use>
               </g>
        </defs>

<script type="text/javascript">
var viewWidth = 611;
var viewHeight = 85;
var sectionId = 'dynsection-0';
</script>
<script xlink:href="../../svgpan.js"/>
<svg id="graph" class="graph">
<g id="viewport">
<title>prolog.io.Lexer.make_var</title>
<!-- Node1 -->
<g id="node1" class="node"><title>Node1</title>
<polygon fill="#bfbfbf" stroke="black" points="0,-38.5 0,-57.5 126,-57.5 126,-38.5 0,-38.5"/>
<text text-anchor="middle" x="63" y="-45.5" font-family="Helvetica,sans-Serif" font-size="10.00">prolog.io.Lexer.make_var</text>
</g>
<!-- Node2 -->
<g id="node2" class="node"><title>Node2</title>
<g id="a_node2"><a xlink:href="../../d1/d12/classprolog_1_1terms_1_1Var_acfca7d3a30509a6a0761be57e408cfad.html#acfca7d3a30509a6a0761be57e408cfad" target="_top" xlink:title="prolog.terms.Var.toString">
<polygon fill="none" stroke="black" points="162,-38.5 162,-57.5 287,-57.5 287,-38.5 162,-38.5"/>
<text text-anchor="middle" x="224.5" y="-45.5" font-family="Helvetica,sans-Serif" font-size="10.00">prolog.terms.Var.toString</text>
</a>
</g>
</g>
<!-- Node1&#45;&gt;Node2 -->
<g id="edge1" class="edge"><title>Node1&#45;&gt;Node2</title>
<path fill="none" stroke="midnightblue" d="M126.124,-48C134.457,-48 143.06,-48 151.544,-48"/>
<polygon fill="midnightblue" stroke="midnightblue" points="151.808,-51.5001 161.808,-48 151.808,-44.5001 151.808,-51.5001"/>
</g>
<!-- Node3 -->
<g id="node3" class="node"><title>Node3</title>
<g id="a_node3"><a xlink:href="../../d1/d12/classprolog_1_1terms_1_1Var_a2194ec6eec940cc349b828f6fefcf242.html#a2194ec6eec940cc349b828f6fefcf242" target="_top" xlink:title="prolog.terms.Var.unbound">
<polygon fill="none" stroke="black" points="475,-57.5 475,-76.5 603,-76.5 603,-57.5 475,-57.5"/>
<text text-anchor="middle" x="539" y="-64.5" font-family="Helvetica,sans-Serif" font-size="10.00">prolog.terms.Var.unbound</text>
</a>
</g>
</g>
<!-- Node2&#45;&gt;Node3 -->
<g id="edge2" class="edge"><title>Node2&#45;&gt;Node3</title>
<path fill="none" stroke="midnightblue" d="M265.094,-57.5104C282.709,-61.2755 303.774,-65.1442 323,-67 370.023,-71.5391 423.102,-71.59 464.755,-70.4811"/>
<polygon fill="midnightblue" stroke="midnightblue" points="464.922,-73.9778 474.815,-70.185 464.716,-66.9808 464.922,-73.9778"/>
</g>
<!-- Node4 -->
<g id="node4" class="node"><title>Node4</title>
<g id="a_node4"><a xlink:href="../../d1/d12/classprolog_1_1terms_1_1Var_ac525ffcba1be06da9b81dcdb2605eaf6.html#ac525ffcba1be06da9b81dcdb2605eaf6" target="_top" xlink:title="prolog.terms.Var.name">
<polygon fill="none" stroke="black" points="323,-38.5 323,-57.5 439,-57.5 439,-38.5 323,-38.5"/>
<text text-anchor="middle" x="381" y="-45.5" font-family="Helvetica,sans-Serif" font-size="10.00">prolog.terms.Var.name</text>
</a>
</g>
</g>
<!-- Node2&#45;&gt;Node4 -->
<g id="edge3" class="edge"><title>Node2&#45;&gt;Node4</title>
<path fill="none" stroke="midnightblue" d="M287.006,-48C295.382,-48 304.015,-48 312.49,-48"/>
<polygon fill="midnightblue" stroke="midnightblue" points="312.72,-51.5001 322.72,-48 312.72,-44.5001 312.72,-51.5001"/>
</g>
<!-- Node5 -->
<g id="node5" class="node"><title>Node5</title>
<g id="a_node5"><a xlink:href="../../d1/d12/classprolog_1_1terms_1_1Var_a87e5778e2b3535a88d8750f0776fb900.html#a87e5778e2b3535a88d8750f0776fb900" target="_top" xlink:title="prolog.terms.Var.ref">
<polygon fill="none" stroke="black" points="329.5,-0.5 329.5,-19.5 432.5,-19.5 432.5,-0.5 329.5,-0.5"/>
<text text-anchor="middle" x="381" y="-7.5" font-family="Helvetica,sans-Serif" font-size="10.00">prolog.terms.Var.ref</text>
</a>
</g>
</g>
<!-- Node2&#45;&gt;Node5 -->
<g id="edge4" class="edge"><title>Node2&#45;&gt;Node5</title>
<path fill="none" stroke="midnightblue" d="M264.487,-38.411C284.783,-33.4191 309.793,-27.2676 331.346,-21.9666"/>
<polygon fill="midnightblue" stroke="midnightblue" points="332.419,-25.3072 341.293,-19.5201 330.747,-18.5098 332.419,-25.3072"/>
</g>
<!-- Node5&#45;&gt;Node3 -->
<g id="edge5" class="edge"><title>Node5&#45;&gt;Node3</title>
<path fill="none" stroke="midnightblue" d="M411.377,-19.5133C420.279,-22.471 430.064,-25.7976 439,-29 460.99,-36.8808 485.502,-46.2844 504.633,-53.7655"/>
<polygon fill="midnightblue" stroke="midnightblue" points="503.519,-57.0878 514.106,-57.484 506.076,-50.5719 503.519,-57.0878"/>
</g>
<!-- Node6 -->
<g id="node6" class="node"><title>Node6</title>
<g id="a_node6"><a xlink:href="../../d3/ded/classprolog_1_1terms_1_1Term_ae140fac2c9d066dc897fcfa723060a7a.html#ae140fac2c9d066dc897fcfa723060a7a" target="_top" xlink:title="Dereferences if necessary. ">
<polygon fill="none" stroke="black" points="484,-0.5 484,-19.5 594,-19.5 594,-0.5 484,-0.5"/>
<text text-anchor="middle" x="539" y="-7.5" font-family="Helvetica,sans-Serif" font-size="10.00">prolog.terms.Term.ref</text>
</a>
</g>
</g>
<!-- Node5&#45;&gt;Node6 -->
<g id="edge6" class="edge"><title>Node5&#45;&gt;Node6</title>
<path fill="none" stroke="midnightblue" d="M432.649,-10C445.693,-10 459.907,-10 473.55,-10"/>
<polygon fill="midnightblue" stroke="midnightblue" points="473.842,-13.5001 483.842,-10 473.842,-6.5001 473.842,-13.5001"/>
</g>
</g>
</svg>
        <g id="navigator" transform="translate(0 0)" fill="#404254">
                <rect fill="#f2f5e9" fill-opacity="0.5" stroke="#606060" stroke-width=".5" x="0" y="0" width="60" height="60"/>
                <use id="zoomplus" xlink:href="#zoomPlus" x="17" y="9" onmousedown="handleZoom(evt,'in')"/>
                <use id="zoomminus" xlink:href="#zoomMin" x="42" y="9" onmousedown="handleZoom(evt,'out')"/>
                <use id="reset" xlink:href="#resetDef" x="30" y="36" onmousedown="handleReset()"/>
                <g id="arrowUp" xlink:href="#dirArrow" transform="translate(30 24)" onmousedown="handlePan(0,-1)">
                  <use xlink:href="#rim" fill="#404040">
                        <set attributeName="fill" to="#808080" begin="arrowUp.mouseover" end="arrowUp.mouseout"/>
                  </use>
                  <path fill="none" stroke="white" stroke-width="1.5" d="M0,-3.0v7 M-2.5,-0.5L0,-3.0L2.5,-0.5"/>
                </g>
                <g id="arrowRight" xlink:href="#dirArrow" transform="rotate(90) translate(36 -43)" onmousedown="handlePan(1,0)">
                  <use xlink:href="#rim" fill="#404040">
                        <set attributeName="fill" to="#808080" begin="arrowRight.mouseover" end="arrowRight.mouseout"/>
                  </use>
                  <path fill="none" stroke="white" stroke-width="1.5" d="M0,-3.0v7 M-2.5,-0.5L0,-3.0L2.5,-0.5"/>
                </g>
                <g id="arrowDown" xlink:href="#dirArrow" transform="rotate(180) translate(-30 -48)" onmousedown="handlePan(0,1)">
                  <use xlink:href="#rim" fill="#404040">
                        <set attributeName="fill" to="#808080" begin="arrowDown.mouseover" end="arrowDown.mouseout"/>
                  </use>
                  <path fill="none" stroke="white" stroke-width="1.5" d="M0,-3.0v7 M-2.5,-0.5L0,-3.0L2.5,-0.5"/>
                </g>
                <g id="arrowLeft" xlink:href="#dirArrow" transform="rotate(270) translate(-36 17)" onmousedown="handlePan(-1,0)">
                  <use xlink:href="#rim" fill="#404040">
                        <set attributeName="fill" to="#808080" begin="arrowLeft.mouseover" end="arrowLeft.mouseout"/>
                  </use>
                  <path fill="none" stroke="white" stroke-width="1.5" d="M0,-3.0v7 M-2.5,-0.5L0,-3.0L2.5,-0.5"/>
                </g>
        </g>
        <svg viewBox="0 0 15 15" width="100%" height="30px" preserveAspectRatio="xMaxYMin meet">
         <g id="arrow_out" transform="scale(0.3 0.3)">
          <a xlink:href="classprolog_1_1io_1_1Lexer_acdaa35637088cc7ae8decb0f6e0f8caa_acdaa35637088cc7ae8decb0f6e0f8caa_cgraph_org.svg" target="_base">
           <rect id="button" ry="5" rx="5" y="6" x="6" height="38" width="38"
                fill="#f2f5e9" fill-opacity="0.5" stroke="#606060" stroke-width="1.0"/>
           <path id="arrow"
             d="M 11.500037,31.436501 C 11.940474,20.09759 22.043105,11.32322 32.158766,21.979434 L 37.068811,17.246167 C 37.068811,17.246167 37.088388,32 37.088388,32 L 22.160133,31.978069 C 22.160133,31.978069 26.997745,27.140456 26.997745,27.140456 C 18.528582,18.264221 13.291696,25.230495 11.500037,31.436501 z"
             style="fill:#404040;"/>
          </a>
         </g>
        </svg>
</svg>
