<?xml version="1.0" encoding="UTF-8" standalone="no"?>
<!DOCTYPE svg PUBLIC "-//W3C//DTD SVG 1.1//EN"
 "http://www.w3.org/Graphics/SVG/1.1/DTD/svg11.dtd">
<!-- Generated by graphviz version 2.38.0 (20140413.2041)
 -->
<!-- Title: prolog.io.Lexer.next Pages: 1 -->
<!--zoomable 319 -->
<svg id="main" version="1.1" xmlns="http://www.w3.org/2000/svg" xmlns:xlink="http://www.w3.org/1999/xlink" xml:space="preserve" onload="init(evt)">
<style type="text/css"><![CDATA[
.edge:hover path { stroke: red; }
.edge:hover polygon { stroke: red; fill: red; }
]]></style>
<script type="text/javascript"><![CDATA[
var edges = document.getElementsByTagName('g');
if (edges && edges.length) {
  for (var i=0;i<edges.length;i++) {
    if (edges[i].id.substr(0,4)=='edge') {
      edges[i].setAttribute('class','edge');
    }
  }
}
]]></script>
        <defs>
                <circle id="rim" cx="0" cy="0" r="7"/>
                <circle id="rim2" cx="0" cy="0" r="3.5"/>
                <g id="zoomPlus">
                        <use xlink:href="#rim" fill="#404040">
                                <set attributeName="fill" to="#808080" begin="zoomplus.mouseover" end="zoomplus.mouseout"/>
                        </use>
                        <path d="M-4,0h8M0,-4v8" fill="none" stroke="white" stroke-width="1.5" pointer-events="none"/>
                </g>
                <g id="zoomMin">
                        <use xlink:href="#rim" fill="#404040">
                                <set attributeName="fill" to="#808080" begin="zoomminus.mouseover" end="zoomminus.mouseout"/>
                        </use>
                        <path d="M-4,0h8" fill="none" stroke="white" stroke-width="1.5" pointer-events="none"/>
                </g>
                <g id="dirArrow">
                        <path fill="none" stroke="white" stroke-width="1.5" d="M0,-3.0v7 M-2.5,-0.5L0,-3.0L2.5,-0.5"/>
                </g>
               <g id="resetDef">
                       <use xlink:href="#rim2" fill="#404040">
                               <set attributeName="fill" to="#808080" begin="reset.mouseover" end="reset.mouseout"/>
                       </use>
               </g>
        </defs>

<script type="text/javascript">
var viewWidth = 1482;
var viewHeight = 319;
var sectionId = 'dynsection-1';
</script>
<script xlink:href="../../svgpan.js"/>
<svg id="graph" class="graph">
<g id="viewport">
<title>prolog.io.Lexer.next</title>
<!-- Node1 -->
<g id="node1" class="node"><title>Node1</title>
<polygon fill="#bfbfbf" stroke="black" points="0,-114.5 0,-133.5 102,-133.5 102,-114.5 0,-114.5"/>
<text text-anchor="middle" x="51" y="-121.5" font-family="Helvetica,sans-Serif" font-size="10.00">prolog.io.Lexer.next</text>
</g>
<!-- Node2 -->
<g id="node2" class="node"><title>Node2</title>
<g id="a_node2"><a xlink:href="../../d7/df1/classprolog_1_1io_1_1Parser_a65d208b0e30e3ff19d769fbb3b0f7247.html#a65d208b0e30e3ff19d769fbb3b0f7247" target="_top" xlink:title="prolog.io.Parser.getArgs">
<polygon fill="none" stroke="black" points="308.5,-0.5 308.5,-19.5 430.5,-19.5 430.5,-0.5 308.5,-0.5"/>
<text text-anchor="middle" x="369.5" y="-7.5" font-family="Helvetica,sans-Serif" font-size="10.00">prolog.io.Parser.getArgs</text>
</a>
</g>
</g>
<!-- Node1&#45;&gt;Node2 -->
<g id="edge1" class="edge"><title>Node1&#45;&gt;Node2</title>
<path fill="none" stroke="midnightblue" d="M63.4624,-105.779C77.9564,-84.5015 105.04,-50.1636 138,-34 191.283,-7.87043 259.685,-3.88373 308.096,-5.19804"/>
<polygon fill="midnightblue" stroke="midnightblue" points="60.4508,-103.988 57.8766,-114.266 66.298,-107.837 60.4508,-103.988"/>
</g>
<!-- Node4 -->
<g id="node4" class="node"><title>Node4</title>
<g id="a_node4"><a xlink:href="../../d7/df1/classprolog_1_1io_1_1Parser_aa7e461fd858ff34bac99d032f61e52da.html#aa7e461fd858ff34bac99d032f61e52da" target="_top" xlink:title="prolog.io.Parser.getConjCont">
<polygon fill="none" stroke="black" points="298,-190.5 298,-209.5 441,-209.5 441,-190.5 298,-190.5"/>
<text text-anchor="middle" x="369.5" y="-197.5" font-family="Helvetica,sans-Serif" font-size="10.00">prolog.io.Parser.getConjCont</text>
</a>
</g>
</g>
<!-- Node1&#45;&gt;Node4 -->
<g id="edge3" class="edge"><title>Node1&#45;&gt;Node4</title>
<path fill="none" stroke="midnightblue" d="M101.817,-135.962C164.539,-151.024 271.039,-176.597 328.649,-190.431"/>
<polygon fill="midnightblue" stroke="midnightblue" points="102.305,-132.48 91.7645,-133.548 100.671,-139.287 102.305,-132.48"/>
</g>
<!-- Node5 -->
<g id="node5" class="node"><title>Node5</title>
<g id="a_node5"><a xlink:href="../../d7/df1/classprolog_1_1io_1_1Parser_a79322090cfbd908b02c83db6c65806d2.html#a79322090cfbd908b02c83db6c65806d2" target="_top" xlink:title="prolog.io.Parser.readClause\lOrEOF">
<polygon fill="none" stroke="black" points="477,-201 477,-231 614,-231 614,-201 477,-201"/>
<text text-anchor="start" x="485" y="-219" font-family="Helvetica,sans-Serif" font-size="10.00">prolog.io.Parser.readClause</text>
<text text-anchor="middle" x="545.5" y="-208" font-family="Helvetica,sans-Serif" font-size="10.00">OrEOF</text>
</a>
</g>
</g>
<!-- Node1&#45;&gt;Node5 -->
<g id="edge26" class="edge"><title>Node1&#45;&gt;Node5</title>
<path fill="none" stroke="midnightblue" d="M74.6269,-139.285C91.5098,-150.153 115.455,-164.458 138,-174 206.027,-202.793 224.823,-208.905 298,-219 360.959,-227.685 377.451,-219.921 441,-219 452.593,-218.832 464.915,-218.558 476.862,-218.243"/>
<polygon fill="midnightblue" stroke="midnightblue" points="76.3111,-136.205 66.0279,-133.654 72.4758,-142.06 76.3111,-136.205"/>
</g>
<!-- Node6 -->
<g id="node6" class="node"><title>Node6</title>
<g id="a_node6"><a xlink:href="../../d7/df1/classprolog_1_1io_1_1Parser_ad0255f716753ec63c0f4e7cf9a8d2d38.html#ad0255f716753ec63c0f4e7cf9a8d2d38" target="_top" xlink:title="Main Parser interface: reads a clause together with variable name information. ">
<polygon fill="none" stroke="black" points="650,-236.5 650,-255.5 787,-255.5 787,-236.5 650,-236.5"/>
<text text-anchor="middle" x="718.5" y="-243.5" font-family="Helvetica,sans-Serif" font-size="10.00">prolog.io.Parser.readClause</text>
</a>
</g>
</g>
<!-- Node1&#45;&gt;Node6 -->
<g id="edge25" class="edge"><title>Node1&#45;&gt;Node6</title>
<path fill="none" stroke="midnightblue" d="M64.8441,-141.812C79.9961,-161.389 107.072,-192.156 138,-208 313.878,-298.102 560.135,-272.51 665.907,-255.565"/>
<polygon fill="midnightblue" stroke="midnightblue" points="67.5545,-139.593 58.7504,-133.699 61.9574,-143.797 67.5545,-139.593"/>
</g>
<!-- Node16 -->
<g id="node16" class="node"><title>Node16</title>
<g id="a_node16"><a xlink:href="../../d7/df1/classprolog_1_1io_1_1Parser_ab9dcde7b1480cd18c6a21e5c88e1a2bd.html#ab9dcde7b1480cd18c6a21e5c88e1a2bd" target="_top" xlink:title="prolog.io.Parser.getList">
<polygon fill="none" stroke="black" points="487,-67.5 487,-86.5 604,-86.5 604,-67.5 487,-67.5"/>
<text text-anchor="middle" x="545.5" y="-74.5" font-family="Helvetica,sans-Serif" font-size="10.00">prolog.io.Parser.getList</text>
</a>
</g>
</g>
<!-- Node1&#45;&gt;Node16 -->
<g id="edge15" class="edge"><title>Node1&#45;&gt;Node16</title>
<path fill="none" stroke="midnightblue" d="M81.2026,-109.986C97.5599,-102.684 118.529,-94.2127 138,-89 268.428,-54.0833 306.135,-60.4999 441,-67 455.876,-67.717 471.913,-69.0104 486.818,-70.4342"/>
<polygon fill="midnightblue" stroke="midnightblue" points="79.3093,-107.003 71.6684,-114.343 82.2185,-113.37 79.3093,-107.003"/>
</g>
<!-- Node17 -->
<g id="node17" class="node"><title>Node17</title>
<g id="a_node17"><a xlink:href="../../d7/df1/classprolog_1_1io_1_1Parser_aa2150bc0ca63050e058a5041b719dd7b.html#aa2150bc0ca63050e058a5041b719dd7b" target="_top" xlink:title="prolog.io.Parser.getListCont">
<polygon fill="none" stroke="black" points="300.5,-76.5 300.5,-95.5 438.5,-95.5 438.5,-76.5 300.5,-76.5"/>
<text text-anchor="middle" x="369.5" y="-83.5" font-family="Helvetica,sans-Serif" font-size="10.00">prolog.io.Parser.getListCont</text>
</a>
</g>
</g>
<!-- Node1&#45;&gt;Node17 -->
<g id="edge17" class="edge"><title>Node1&#45;&gt;Node17</title>
<path fill="none" stroke="midnightblue" d="M99.9853,-112.197C112.313,-109.496 125.597,-106.872 138,-105 192.294,-96.8031 254.355,-91.9418 300.393,-89.1915"/>
<polygon fill="midnightblue" stroke="midnightblue" points="98.8822,-108.857 89.8954,-114.469 100.42,-115.686 98.8822,-108.857"/>
</g>
<!-- Node18 -->
<g id="node18" class="node"><title>Node18</title>
<g id="a_node18"><a xlink:href="../../d7/df1/classprolog_1_1io_1_1Parser_ae301f1d607ff1269917a097eda95199a.html#ae301f1d607ff1269917a097eda95199a" target="_top" xlink:title="prolog.io.Parser.getTerm">
<polygon fill="none" stroke="black" points="138,-114.5 138,-133.5 262,-133.5 262,-114.5 138,-114.5"/>
<text text-anchor="middle" x="200" y="-121.5" font-family="Helvetica,sans-Serif" font-size="10.00">prolog.io.Parser.getTerm</text>
</a>
</g>
</g>
<!-- Node1&#45;&gt;Node18 -->
<g id="edge19" class="edge"><title>Node1&#45;&gt;Node18</title>
<path fill="none" stroke="midnightblue" d="M112.312,-124C120.744,-124 129.415,-124 137.861,-124"/>
<polygon fill="midnightblue" stroke="midnightblue" points="112.178,-120.5 102.178,-124 112.178,-127.5 112.178,-120.5"/>
</g>
<!-- Node3 -->
<g id="node3" class="node"><title>Node3</title>
<g id="a_node3"><a xlink:href="../../d7/df1/classprolog_1_1io_1_1Parser_a2266a192306644bbc8e9bb4b4839708e.html#a2266a192306644bbc8e9bb4b4839708e" target="_top" xlink:title="prolog.io.Parser.getTerm">
<polygon fill="none" stroke="black" points="656.5,-39.5 656.5,-58.5 780.5,-58.5 780.5,-39.5 656.5,-39.5"/>
<text text-anchor="middle" x="718.5" y="-46.5" font-family="Helvetica,sans-Serif" font-size="10.00">prolog.io.Parser.getTerm</text>
</a>
</g>
</g>
<!-- Node2&#45;&gt;Node3 -->
<g id="edge2" class="edge"><title>Node2&#45;&gt;Node3</title>
<path fill="none" stroke="midnightblue" d="M440.839,-17.9055C504.13,-25.019 596.18,-35.3647 656.441,-42.1375"/>
<polygon fill="midnightblue" stroke="midnightblue" points="440.875,-14.3876 430.547,-16.7488 440.093,-21.3438 440.875,-14.3876"/>
</g>
<!-- Node4&#45;&gt;Node5 -->
<g id="edge4" class="edge"><title>Node4&#45;&gt;Node5</title>
<path fill="none" stroke="midnightblue" d="M451.117,-207.413C459.767,-208.208 468.502,-209.012 476.977,-209.791"/>
<polygon fill="midnightblue" stroke="midnightblue" points="451.3,-203.915 441.022,-206.485 450.659,-210.886 451.3,-203.915"/>
</g>
<!-- Node5&#45;&gt;Node6 -->
<g id="edge5" class="edge"><title>Node5&#45;&gt;Node6</title>
<path fill="none" stroke="midnightblue" d="M624.131,-229.619C637.362,-231.941 650.847,-234.306 663.303,-236.492"/>
<polygon fill="midnightblue" stroke="midnightblue" points="624.538,-226.138 614.084,-227.857 623.328,-233.032 624.538,-226.138"/>
</g>
<!-- Node7 -->
<g id="node7" class="node"><title>Node7</title>
<g id="a_node7"><a xlink:href="../../da/dd9/classprolog_1_1fluents_1_1DataBase_a83885e10b61d6bf129307d9bf50d93de.html#a83885e10b61d6bf129307d9bf50d93de" target="_top" xlink:title="prolog.fluents.DataBase.apply\l_parser">
<polygon fill="none" stroke="black" points="823,-280 823,-310 971,-310 971,-280 823,-280"/>
<text text-anchor="start" x="831" y="-298" font-family="Helvetica,sans-Serif" font-size="10.00">prolog.fluents.DataBase.apply</text>
<text text-anchor="middle" x="897" y="-287" font-family="Helvetica,sans-Serif" font-size="10.00">_parser</text>
</a>
</g>
</g>
<!-- Node6&#45;&gt;Node7 -->
<g id="edge6" class="edge"><title>Node6&#45;&gt;Node7</title>
<path fill="none" stroke="midnightblue" d="M763.724,-258.278C787.412,-264.854 816.788,-273.009 841.836,-279.963"/>
<polygon fill="midnightblue" stroke="midnightblue" points="764.522,-254.867 753.95,-255.564 762.649,-261.612 764.522,-254.867"/>
</g>
<!-- Node9 -->
<g id="node9" class="node"><title>Node9</title>
<g id="a_node9"><a xlink:href="../../d4/d09/classprolog_1_1io_1_1ClauseReader_a805e9a5ebc401e1099f39af9b3f6fb47.html#a805e9a5ebc401e1099f39af9b3f6fb47" target="_top" xlink:title="prolog.io.ClauseReader.get\lElement">
<polygon fill="none" stroke="black" points="829.5,-231 829.5,-261 964.5,-261 964.5,-231 829.5,-231"/>
<text text-anchor="start" x="837.5" y="-249" font-family="Helvetica,sans-Serif" font-size="10.00">prolog.io.ClauseReader.get</text>
<text text-anchor="middle" x="897" y="-238" font-family="Helvetica,sans-Serif" font-size="10.00">Element</text>
</a>
</g>
</g>
<!-- Node6&#45;&gt;Node9 -->
<g id="edge8" class="edge"><title>Node6&#45;&gt;Node9</title>
<path fill="none" stroke="midnightblue" d="M797.369,-246C808.025,-246 818.887,-246 829.32,-246"/>
<polygon fill="midnightblue" stroke="midnightblue" points="797.235,-242.5 787.235,-246 797.235,-249.5 797.235,-242.5"/>
</g>
<!-- Node10 -->
<g id="node10" class="node"><title>Node10</title>
<g id="a_node10"><a xlink:href="../../d7/df1/classprolog_1_1io_1_1Parser_acd7f700bcb96620b8c6770c2fcae5802.html#acd7f700bcb96620b8c6770c2fcae5802" target="_top" xlink:title="prolog.io.Parser.clsFrom\lString">
<polygon fill="none" stroke="black" points="835.5,-182 835.5,-212 958.5,-212 958.5,-182 835.5,-182"/>
<text text-anchor="start" x="843.5" y="-200" font-family="Helvetica,sans-Serif" font-size="10.00">prolog.io.Parser.clsFrom</text>
<text text-anchor="middle" x="897" y="-189" font-family="Helvetica,sans-Serif" font-size="10.00">String</text>
</a>
</g>
</g>
<!-- Node6&#45;&gt;Node10 -->
<g id="edge9" class="edge"><title>Node6&#45;&gt;Node10</title>
<path fill="none" stroke="midnightblue" d="M763.724,-233.722C787.412,-227.146 816.788,-218.991 841.836,-212.037"/>
<polygon fill="midnightblue" stroke="midnightblue" points="762.649,-230.388 753.95,-236.436 764.522,-237.133 762.649,-230.388"/>
</g>
<!-- Node8 -->
<g id="node8" class="node"><title>Node8</title>
<g id="a_node8"><a xlink:href="../../da/dd9/classprolog_1_1fluents_1_1DataBase_af8b26948ded7bba6386b984f463bf166.html#af8b26948ded7bba6386b984f463bf166" target="_top" xlink:title="prolog.fluents.DataBase.stream\lToProg">
<polygon fill="none" stroke="black" points="1007,-280 1007,-310 1162,-310 1162,-280 1007,-280"/>
<text text-anchor="start" x="1015" y="-298" font-family="Helvetica,sans-Serif" font-size="10.00">prolog.fluents.DataBase.stream</text>
<text text-anchor="middle" x="1084.5" y="-287" font-family="Helvetica,sans-Serif" font-size="10.00">ToProg</text>
</a>
</g>
</g>
<!-- Node7&#45;&gt;Node8 -->
<g id="edge7" class="edge"><title>Node7&#45;&gt;Node8</title>
<path fill="none" stroke="midnightblue" d="M981.059,-295C989.645,-295 998.344,-295 1006.86,-295"/>
<polygon fill="midnightblue" stroke="midnightblue" points="981.048,-291.5 971.048,-295 981.048,-298.5 981.048,-291.5"/>
</g>
<!-- Node11 -->
<g id="node11" class="node"><title>Node11</title>
<g id="a_node11"><a xlink:href="../../d6/dc4/classprolog_1_1terms_1_1Clause_a253e30217e7c206f42b947ba0dc7d754.html#a253e30217e7c206f42b947ba0dc7d754" target="_top" xlink:title="Extracts a clause from its String representation. ">
<polygon fill="none" stroke="black" points="1016.5,-182 1016.5,-212 1152.5,-212 1152.5,-182 1016.5,-182"/>
<text text-anchor="start" x="1024.5" y="-200" font-family="Helvetica,sans-Serif" font-size="10.00">prolog.terms.Clause.clause</text>
<text text-anchor="middle" x="1084.5" y="-189" font-family="Helvetica,sans-Serif" font-size="10.00">FromString</text>
</a>
</g>
</g>
<!-- Node10&#45;&gt;Node11 -->
<g id="edge10" class="edge"><title>Node10&#45;&gt;Node11</title>
<path fill="none" stroke="midnightblue" d="M968.816,-197C984.371,-197 1000.8,-197 1016.21,-197"/>
<polygon fill="midnightblue" stroke="midnightblue" points="968.74,-193.5 958.74,-197 968.74,-200.5 968.74,-193.5"/>
</g>
<!-- Node12 -->
<g id="node12" class="node"><title>Node12</title>
<g id="a_node12"><a xlink:href="../../d6/dc4/classprolog_1_1terms_1_1Clause_a59a965be3fc2e88226d5202dca1b2a26.html#a59a965be3fc2e88226d5202dca1b2a26" target="_top" xlink:title="Constructs a clause by parsing its string representation. ">
<polygon fill="none" stroke="black" points="1201,-231.5 1201,-250.5 1339,-250.5 1339,-231.5 1201,-231.5"/>
<text text-anchor="middle" x="1270" y="-238.5" font-family="Helvetica,sans-Serif" font-size="10.00">prolog.terms.Clause.Clause</text>
</a>
</g>
</g>
<!-- Node11&#45;&gt;Node12 -->
<g id="edge11" class="edge"><title>Node11&#45;&gt;Node12</title>
<path fill="none" stroke="midnightblue" d="M1158.05,-214.396C1182.34,-220.221 1208.51,-226.495 1229.33,-231.488"/>
<polygon fill="midnightblue" stroke="midnightblue" points="1158.68,-210.948 1148.14,-212.019 1157.05,-217.755 1158.68,-210.948"/>
</g>
<!-- Node13 -->
<g id="node13" class="node"><title>Node13</title>
<g id="a_node13"><a xlink:href="../../d6/dc4/classprolog_1_1terms_1_1Clause_aff298dbb79a27341afb0860f82ad1464.html#aff298dbb79a27341afb0860f82ad1464" target="_top" xlink:title="prolog.terms.Clause.goal\lFromString">
<polygon fill="none" stroke="black" points="1207.5,-182 1207.5,-212 1332.5,-212 1332.5,-182 1207.5,-182"/>
<text text-anchor="start" x="1215.5" y="-200" font-family="Helvetica,sans-Serif" font-size="10.00">prolog.terms.Clause.goal</text>
<text text-anchor="middle" x="1270" y="-189" font-family="Helvetica,sans-Serif" font-size="10.00">FromString</text>
</a>
</g>
</g>
<!-- Node11&#45;&gt;Node13 -->
<g id="edge12" class="edge"><title>Node11&#45;&gt;Node13</title>
<path fill="none" stroke="midnightblue" d="M1162.73,-197C1177.61,-197 1193.02,-197 1207.33,-197"/>
<polygon fill="midnightblue" stroke="midnightblue" points="1162.53,-193.5 1152.53,-197 1162.53,-200.5 1162.53,-193.5"/>
</g>
<!-- Node15 -->
<g id="node15" class="node"><title>Node15</title>
<g id="a_node15"><a xlink:href="../../d3/ded/classprolog_1_1terms_1_1Term_a837eb66c18c36b2a0a4ecce8ad7cd144.html#a837eb66c18c36b2a0a4ecce8ad7cd144" target="_top" xlink:title="prolog.terms.Term.fromString">
<polygon fill="none" stroke="black" points="1198,-143.5 1198,-162.5 1342,-162.5 1342,-143.5 1198,-143.5"/>
<text text-anchor="middle" x="1270" y="-150.5" font-family="Helvetica,sans-Serif" font-size="10.00">prolog.terms.Term.fromString</text>
</a>
</g>
</g>
<!-- Node11&#45;&gt;Node15 -->
<g id="edge14" class="edge"><title>Node11&#45;&gt;Node15</title>
<path fill="none" stroke="midnightblue" d="M1158.05,-179.604C1182.34,-173.779 1208.51,-167.505 1229.33,-162.512"/>
<polygon fill="midnightblue" stroke="midnightblue" points="1157.05,-176.245 1148.14,-181.981 1158.68,-183.052 1157.05,-176.245"/>
</g>
<!-- Node14 -->
<g id="node14" class="node"><title>Node14</title>
<g id="a_node14"><a xlink:href="../../d8/d35/classprolog_1_1Init_a0f6db95b70444cd1b933f24ec44814e4.html#a0f6db95b70444cd1b933f24ec44814e4" target="_top" xlink:title="prolog.Init.getGoal">
<polygon fill="none" stroke="black" points="1378,-187.5 1378,-206.5 1474,-206.5 1474,-187.5 1378,-187.5"/>
<text text-anchor="middle" x="1426" y="-194.5" font-family="Helvetica,sans-Serif" font-size="10.00">prolog.Init.getGoal</text>
</a>
</g>
</g>
<!-- Node13&#45;&gt;Node14 -->
<g id="edge13" class="edge"><title>Node13&#45;&gt;Node14</title>
<path fill="none" stroke="midnightblue" d="M1343.08,-197C1354.92,-197 1366.92,-197 1377.94,-197"/>
<polygon fill="midnightblue" stroke="midnightblue" points="1342.75,-193.5 1332.75,-197 1342.75,-200.5 1342.75,-193.5"/>
</g>
<!-- Node16&#45;&gt;Node3 -->
<g id="edge16" class="edge"><title>Node16&#45;&gt;Node3</title>
<path fill="none" stroke="midnightblue" d="M614.53,-65.8605C629.377,-63.4295 644.957,-60.8784 659.376,-58.5174"/>
<polygon fill="midnightblue" stroke="midnightblue" points="613.696,-62.4505 604.393,-67.5205 614.827,-69.3585 613.696,-62.4505"/>
</g>
<!-- Node17&#45;&gt;Node16 -->
<g id="edge18" class="edge"><title>Node17&#45;&gt;Node16</title>
<path fill="none" stroke="midnightblue" d="M448.927,-81.9434C461.686,-81.2835 474.692,-80.6107 486.835,-79.9827"/>
<polygon fill="midnightblue" stroke="midnightblue" points="448.576,-78.4568 438.77,-82.4688 448.937,-85.4475 448.576,-78.4568"/>
</g>
<!-- Node18&#45;&gt;Node2 -->
<g id="edge22" class="edge"><title>Node18&#45;&gt;Node2</title>
<path fill="none" stroke="midnightblue" d="M223.583,-108.63C258.615,-84.7875 325.05,-39.5719 354.192,-19.738"/>
<polygon fill="midnightblue" stroke="midnightblue" points="221.291,-105.957 214.993,-114.477 225.229,-111.743 221.291,-105.957"/>
</g>
<!-- Node18&#45;&gt;Node4 -->
<g id="edge21" class="edge"><title>Node18&#45;&gt;Node4</title>
<path fill="none" stroke="midnightblue" d="M225.814,-138.764C245.086,-149.869 272.701,-165.001 298,-176 310.45,-181.413 324.547,-186.423 336.846,-190.45"/>
<polygon fill="midnightblue" stroke="midnightblue" points="227.473,-135.68 217.07,-133.672 223.95,-141.729 227.473,-135.68"/>
</g>
<!-- Node18&#45;&gt;Node5 -->
<g id="edge20" class="edge"><title>Node18&#45;&gt;Node5</title>
<path fill="none" stroke="midnightblue" d="M256.949,-135.744C305.834,-146.371 378.553,-163.068 441,-181 461.602,-186.916 484.182,-194.429 502.98,-200.976"/>
<polygon fill="midnightblue" stroke="midnightblue" points="257.405,-132.262 246.891,-133.57 255.926,-139.104 257.405,-132.262"/>
</g>
<!-- Node18&#45;&gt;Node16 -->
<g id="edge23" class="edge"><title>Node18&#45;&gt;Node16</title>
<path fill="none" stroke="midnightblue" d="M272.332,-121.813C320.299,-119.496 384.791,-114.742 441,-105 466.311,-100.613 494.409,-92.8196 514.935,-86.5667"/>
<polygon fill="midnightblue" stroke="midnightblue" points="271.88,-118.33 262.05,-122.284 272.2,-125.322 271.88,-118.33"/>
</g>
<!-- Node18&#45;&gt;Node17 -->
<g id="edge24" class="edge"><title>Node18&#45;&gt;Node17</title>
<path fill="none" stroke="midnightblue" d="M253.12,-112.176C276.735,-106.818 304.282,-100.569 326.537,-95.5201"/>
<polygon fill="midnightblue" stroke="midnightblue" points="252.245,-108.785 243.267,-114.411 253.794,-115.612 252.245,-108.785"/>
</g>
</g>
</svg>
        <g id="navigator" transform="translate(0 0)" fill="#404254">
                <rect fill="#f2f5e9" fill-opacity="0.5" stroke="#606060" stroke-width=".5" x="0" y="0" width="60" height="60"/>
                <use id="zoomplus" xlink:href="#zoomPlus" x="17" y="9" onmousedown="handleZoom(evt,'in')"/>
                <use id="zoomminus" xlink:href="#zoomMin" x="42" y="9" onmousedown="handleZoom(evt,'out')"/>
                <use id="reset" xlink:href="#resetDef" x="30" y="36" onmousedown="handleReset()"/>
                <g id="arrowUp" xlink:href="#dirArrow" transform="translate(30 24)" onmousedown="handlePan(0,-1)">
                  <use xlink:href="#rim" fill="#404040">
                        <set attributeName="fill" to="#808080" begin="arrowUp.mouseover" end="arrowUp.mouseout"/>
                  </use>
                  <path fill="none" stroke="white" stroke-width="1.5" d="M0,-3.0v7 M-2.5,-0.5L0,-3.0L2.5,-0.5"/>
                </g>
                <g id="arrowRight" xlink:href="#dirArrow" transform="rotate(90) translate(36 -43)" onmousedown="handlePan(1,0)">
                  <use xlink:href="#rim" fill="#404040">
                        <set attributeName="fill" to="#808080" begin="arrowRight.mouseover" end="arrowRight.mouseout"/>
                  </use>
                  <path fill="none" stroke="white" stroke-width="1.5" d="M0,-3.0v7 M-2.5,-0.5L0,-3.0L2.5,-0.5"/>
                </g>
                <g id="arrowDown" xlink:href="#dirArrow" transform="rotate(180) translate(-30 -48)" onmousedown="handlePan(0,1)">
                  <use xlink:href="#rim" fill="#404040">
                        <set attributeName="fill" to="#808080" begin="arrowDown.mouseover" end="arrowDown.mouseout"/>
                  </use>
                  <path fill="none" stroke="white" stroke-width="1.5" d="M0,-3.0v7 M-2.5,-0.5L0,-3.0L2.5,-0.5"/>
                </g>
                <g id="arrowLeft" xlink:href="#dirArrow" transform="rotate(270) translate(-36 17)" onmousedown="handlePan(-1,0)">
                  <use xlink:href="#rim" fill="#404040">
                        <set attributeName="fill" to="#808080" begin="arrowLeft.mouseover" end="arrowLeft.mouseout"/>
                  </use>
                  <path fill="none" stroke="white" stroke-width="1.5" d="M0,-3.0v7 M-2.5,-0.5L0,-3.0L2.5,-0.5"/>
                </g>
        </g>
        <svg viewBox="0 0 15 15" width="100%" height="30px" preserveAspectRatio="xMaxYMin meet">
         <g id="arrow_out" transform="scale(0.3 0.3)">
          <a xlink:href="classprolog_1_1io_1_1Lexer_af90567b8e92b07af09c8f60a587d8404_af90567b8e92b07af09c8f60a587d8404_icgraph_org.svg" target="_base">
           <rect id="button" ry="5" rx="5" y="6" x="6" height="38" width="38"
                fill="#f2f5e9" fill-opacity="0.5" stroke="#606060" stroke-width="1.0"/>
           <path id="arrow"
             d="M 11.500037,31.436501 C 11.940474,20.09759 22.043105,11.32322 32.158766,21.979434 L 37.068811,17.246167 C 37.068811,17.246167 37.088388,32 37.088388,32 L 22.160133,31.978069 C 22.160133,31.978069 26.997745,27.140456 26.997745,27.140456 C 18.528582,18.264221 13.291696,25.230495 11.500037,31.436501 z"
             style="fill:#404040;"/>
          </a>
         </g>
        </svg>
</svg>
