<?xml version="1.0" encoding="UTF-8" standalone="no"?>
<!DOCTYPE svg PUBLIC "-//W3C//DTD SVG 1.1//EN"
 "http://www.w3.org/Graphics/SVG/1.1/DTD/svg11.dtd">
<!-- Generated by graphviz version 2.38.0 (20140413.2041)
 -->
<!-- Title: prolog.io.Lexer.make_int Pages: 1 -->
<svg width="1784pt" height="319pt"
 viewBox="0.00 0.00 1784.00 318.50" xmlns="http://www.w3.org/2000/svg" xmlns:xlink="http://www.w3.org/1999/xlink">
<g id="graph0" class="graph" transform="scale(1 1) rotate(0) translate(4 314.5)">
<title>prolog.io.Lexer.make_int</title>
<!-- Node1 -->
<g id="node1" class="node"><title>Node1</title>
<polygon fill="#bfbfbf" stroke="black" points="0,-114.5 0,-133.5 123,-133.5 123,-114.5 0,-114.5"/>
<text text-anchor="middle" x="61.5" y="-121.5" font-family="Helvetica,sans-Serif" font-size="10.00">prolog.io.Lexer.make_int</text>
</g>
<!-- Node2 -->
<g id="node2" class="node"><title>Node2</title>
<g id="a_node2"><a xlink:href="../../d9/d79/classprolog_1_1io_1_1Lexer_a0575f9ce24d7bdce0ed6f08903d57061.html#a0575f9ce24d7bdce0ed6f08903d57061" target="_top" xlink:title="prolog.io.Lexer.make\l_number">
<polygon fill="none" stroke="black" points="159,-109 159,-139 266,-139 266,-109 159,-109"/>
<text text-anchor="start" x="167" y="-127" font-family="Helvetica,sans-Serif" font-size="10.00">prolog.io.Lexer.make</text>
<text text-anchor="middle" x="212.5" y="-116" font-family="Helvetica,sans-Serif" font-size="10.00">_number</text>
</a>
</g>
</g>
<!-- Node1&#45;&gt;Node2 -->
<g id="edge1" class="edge"><title>Node1&#45;&gt;Node2</title>
<path fill="none" stroke="midnightblue" d="M133.115,-124C141.694,-124 150.341,-124 158.601,-124"/>
<polygon fill="midnightblue" stroke="midnightblue" points="133.104,-120.5 123.104,-124 133.104,-127.5 133.104,-120.5"/>
</g>
<!-- Node3 -->
<g id="node3" class="node"><title>Node3</title>
<g id="a_node3"><a xlink:href="../../d9/d79/classprolog_1_1io_1_1Lexer_af90567b8e92b07af09c8f60a587d8404.html#af90567b8e92b07af09c8f60a587d8404" target="_top" xlink:title="prolog.io.Lexer.next">
<polygon fill="none" stroke="black" points="302,-114.5 302,-133.5 404,-133.5 404,-114.5 302,-114.5"/>
<text text-anchor="middle" x="353" y="-121.5" font-family="Helvetica,sans-Serif" font-size="10.00">prolog.io.Lexer.next</text>
</a>
</g>
</g>
<!-- Node2&#45;&gt;Node3 -->
<g id="edge2" class="edge"><title>Node2&#45;&gt;Node3</title>
<path fill="none" stroke="midnightblue" d="M276.463,-124C284.91,-124 293.483,-124 301.674,-124"/>
<polygon fill="midnightblue" stroke="midnightblue" points="276.256,-120.5 266.256,-124 276.256,-127.5 276.256,-120.5"/>
</g>
<!-- Node4 -->
<g id="node4" class="node"><title>Node4</title>
<g id="a_node4"><a xlink:href="../../d7/df1/classprolog_1_1io_1_1Parser_a65d208b0e30e3ff19d769fbb3b0f7247.html#a65d208b0e30e3ff19d769fbb3b0f7247" target="_top" xlink:title="prolog.io.Parser.getArgs">
<polygon fill="none" stroke="black" points="610.5,-0.5 610.5,-19.5 732.5,-19.5 732.5,-0.5 610.5,-0.5"/>
<text text-anchor="middle" x="671.5" y="-7.5" font-family="Helvetica,sans-Serif" font-size="10.00">prolog.io.Parser.getArgs</text>
</a>
</g>
</g>
<!-- Node3&#45;&gt;Node4 -->
<g id="edge3" class="edge"><title>Node3&#45;&gt;Node4</title>
<path fill="none" stroke="midnightblue" d="M365.462,-105.779C379.956,-84.5015 407.04,-50.1636 440,-34 493.283,-7.87043 561.685,-3.88373 610.096,-5.19804"/>
<polygon fill="midnightblue" stroke="midnightblue" points="362.451,-103.988 359.877,-114.266 368.298,-107.837 362.451,-103.988"/>
</g>
<!-- Node6 -->
<g id="node6" class="node"><title>Node6</title>
<g id="a_node6"><a xlink:href="../../d7/df1/classprolog_1_1io_1_1Parser_aa7e461fd858ff34bac99d032f61e52da.html#aa7e461fd858ff34bac99d032f61e52da" target="_top" xlink:title="prolog.io.Parser.getConjCont">
<polygon fill="none" stroke="black" points="600,-190.5 600,-209.5 743,-209.5 743,-190.5 600,-190.5"/>
<text text-anchor="middle" x="671.5" y="-197.5" font-family="Helvetica,sans-Serif" font-size="10.00">prolog.io.Parser.getConjCont</text>
</a>
</g>
</g>
<!-- Node3&#45;&gt;Node6 -->
<g id="edge5" class="edge"><title>Node3&#45;&gt;Node6</title>
<path fill="none" stroke="midnightblue" d="M403.817,-135.962C466.539,-151.024 573.039,-176.597 630.649,-190.431"/>
<polygon fill="midnightblue" stroke="midnightblue" points="404.305,-132.48 393.764,-133.548 402.671,-139.287 404.305,-132.48"/>
</g>
<!-- Node7 -->
<g id="node7" class="node"><title>Node7</title>
<g id="a_node7"><a xlink:href="../../d7/df1/classprolog_1_1io_1_1Parser_a79322090cfbd908b02c83db6c65806d2.html#a79322090cfbd908b02c83db6c65806d2" target="_top" xlink:title="prolog.io.Parser.readClause\lOrEOF">
<polygon fill="none" stroke="black" points="779,-201 779,-231 916,-231 916,-201 779,-201"/>
<text text-anchor="start" x="787" y="-219" font-family="Helvetica,sans-Serif" font-size="10.00">prolog.io.Parser.readClause</text>
<text text-anchor="middle" x="847.5" y="-208" font-family="Helvetica,sans-Serif" font-size="10.00">OrEOF</text>
</a>
</g>
</g>
<!-- Node3&#45;&gt;Node7 -->
<g id="edge28" class="edge"><title>Node3&#45;&gt;Node7</title>
<path fill="none" stroke="midnightblue" d="M376.627,-139.285C393.51,-150.153 417.455,-164.458 440,-174 508.027,-202.793 526.823,-208.905 600,-219 662.959,-227.685 679.451,-219.921 743,-219 754.593,-218.832 766.915,-218.558 778.862,-218.243"/>
<polygon fill="midnightblue" stroke="midnightblue" points="378.311,-136.205 368.028,-133.654 374.476,-142.06 378.311,-136.205"/>
</g>
<!-- Node8 -->
<g id="node8" class="node"><title>Node8</title>
<g id="a_node8"><a xlink:href="../../d7/df1/classprolog_1_1io_1_1Parser_ad0255f716753ec63c0f4e7cf9a8d2d38.html#ad0255f716753ec63c0f4e7cf9a8d2d38" target="_top" xlink:title="Main Parser interface: reads a clause together with variable name information. ">
<polygon fill="none" stroke="black" points="952,-236.5 952,-255.5 1089,-255.5 1089,-236.5 952,-236.5"/>
<text text-anchor="middle" x="1020.5" y="-243.5" font-family="Helvetica,sans-Serif" font-size="10.00">prolog.io.Parser.readClause</text>
</a>
</g>
</g>
<!-- Node3&#45;&gt;Node8 -->
<g id="edge27" class="edge"><title>Node3&#45;&gt;Node8</title>
<path fill="none" stroke="midnightblue" d="M366.844,-141.812C381.996,-161.389 409.072,-192.156 440,-208 615.878,-298.102 862.135,-272.51 967.907,-255.565"/>
<polygon fill="midnightblue" stroke="midnightblue" points="369.555,-139.593 360.75,-133.699 363.957,-143.797 369.555,-139.593"/>
</g>
<!-- Node18 -->
<g id="node18" class="node"><title>Node18</title>
<g id="a_node18"><a xlink:href="../../d7/df1/classprolog_1_1io_1_1Parser_ab9dcde7b1480cd18c6a21e5c88e1a2bd.html#ab9dcde7b1480cd18c6a21e5c88e1a2bd" target="_top" xlink:title="prolog.io.Parser.getList">
<polygon fill="none" stroke="black" points="789,-67.5 789,-86.5 906,-86.5 906,-67.5 789,-67.5"/>
<text text-anchor="middle" x="847.5" y="-74.5" font-family="Helvetica,sans-Serif" font-size="10.00">prolog.io.Parser.getList</text>
</a>
</g>
</g>
<!-- Node3&#45;&gt;Node18 -->
<g id="edge17" class="edge"><title>Node3&#45;&gt;Node18</title>
<path fill="none" stroke="midnightblue" d="M383.203,-109.986C399.56,-102.684 420.529,-94.2127 440,-89 570.428,-54.0833 608.135,-60.4999 743,-67 757.876,-67.717 773.913,-69.0104 788.818,-70.4342"/>
<polygon fill="midnightblue" stroke="midnightblue" points="381.309,-107.003 373.668,-114.343 384.218,-113.37 381.309,-107.003"/>
</g>
<!-- Node19 -->
<g id="node19" class="node"><title>Node19</title>
<g id="a_node19"><a xlink:href="../../d7/df1/classprolog_1_1io_1_1Parser_aa2150bc0ca63050e058a5041b719dd7b.html#aa2150bc0ca63050e058a5041b719dd7b" target="_top" xlink:title="prolog.io.Parser.getListCont">
<polygon fill="none" stroke="black" points="602.5,-76.5 602.5,-95.5 740.5,-95.5 740.5,-76.5 602.5,-76.5"/>
<text text-anchor="middle" x="671.5" y="-83.5" font-family="Helvetica,sans-Serif" font-size="10.00">prolog.io.Parser.getListCont</text>
</a>
</g>
</g>
<!-- Node3&#45;&gt;Node19 -->
<g id="edge19" class="edge"><title>Node3&#45;&gt;Node19</title>
<path fill="none" stroke="midnightblue" d="M401.985,-112.197C414.313,-109.496 427.597,-106.872 440,-105 494.294,-96.8031 556.355,-91.9418 602.393,-89.1915"/>
<polygon fill="midnightblue" stroke="midnightblue" points="400.882,-108.857 391.895,-114.469 402.42,-115.686 400.882,-108.857"/>
</g>
<!-- Node20 -->
<g id="node20" class="node"><title>Node20</title>
<g id="a_node20"><a xlink:href="../../d7/df1/classprolog_1_1io_1_1Parser_ae301f1d607ff1269917a097eda95199a.html#ae301f1d607ff1269917a097eda95199a" target="_top" xlink:title="prolog.io.Parser.getTerm">
<polygon fill="none" stroke="black" points="440,-114.5 440,-133.5 564,-133.5 564,-114.5 440,-114.5"/>
<text text-anchor="middle" x="502" y="-121.5" font-family="Helvetica,sans-Serif" font-size="10.00">prolog.io.Parser.getTerm</text>
</a>
</g>
</g>
<!-- Node3&#45;&gt;Node20 -->
<g id="edge21" class="edge"><title>Node3&#45;&gt;Node20</title>
<path fill="none" stroke="midnightblue" d="M414.312,-124C422.744,-124 431.415,-124 439.861,-124"/>
<polygon fill="midnightblue" stroke="midnightblue" points="414.178,-120.5 404.178,-124 414.178,-127.5 414.178,-120.5"/>
</g>
<!-- Node5 -->
<g id="node5" class="node"><title>Node5</title>
<g id="a_node5"><a xlink:href="../../d7/df1/classprolog_1_1io_1_1Parser_a2266a192306644bbc8e9bb4b4839708e.html#a2266a192306644bbc8e9bb4b4839708e" target="_top" xlink:title="prolog.io.Parser.getTerm">
<polygon fill="none" stroke="black" points="958.5,-39.5 958.5,-58.5 1082.5,-58.5 1082.5,-39.5 958.5,-39.5"/>
<text text-anchor="middle" x="1020.5" y="-46.5" font-family="Helvetica,sans-Serif" font-size="10.00">prolog.io.Parser.getTerm</text>
</a>
</g>
</g>
<!-- Node4&#45;&gt;Node5 -->
<g id="edge4" class="edge"><title>Node4&#45;&gt;Node5</title>
<path fill="none" stroke="midnightblue" d="M742.839,-17.9055C806.13,-25.019 898.18,-35.3647 958.441,-42.1375"/>
<polygon fill="midnightblue" stroke="midnightblue" points="742.875,-14.3876 732.547,-16.7488 742.093,-21.3438 742.875,-14.3876"/>
</g>
<!-- Node6&#45;&gt;Node7 -->
<g id="edge6" class="edge"><title>Node6&#45;&gt;Node7</title>
<path fill="none" stroke="midnightblue" d="M753.117,-207.413C761.767,-208.208 770.502,-209.012 778.977,-209.791"/>
<polygon fill="midnightblue" stroke="midnightblue" points="753.3,-203.915 743.022,-206.485 752.659,-210.886 753.3,-203.915"/>
</g>
<!-- Node7&#45;&gt;Node8 -->
<g id="edge7" class="edge"><title>Node7&#45;&gt;Node8</title>
<path fill="none" stroke="midnightblue" d="M926.131,-229.619C939.362,-231.941 952.847,-234.306 965.303,-236.492"/>
<polygon fill="midnightblue" stroke="midnightblue" points="926.538,-226.138 916.084,-227.857 925.328,-233.032 926.538,-226.138"/>
</g>
<!-- Node9 -->
<g id="node9" class="node"><title>Node9</title>
<g id="a_node9"><a xlink:href="../../da/dd9/classprolog_1_1fluents_1_1DataBase_a83885e10b61d6bf129307d9bf50d93de.html#a83885e10b61d6bf129307d9bf50d93de" target="_top" xlink:title="prolog.fluents.DataBase.apply\l_parser">
<polygon fill="none" stroke="black" points="1125,-280 1125,-310 1273,-310 1273,-280 1125,-280"/>
<text text-anchor="start" x="1133" y="-298" font-family="Helvetica,sans-Serif" font-size="10.00">prolog.fluents.DataBase.apply</text>
<text text-anchor="middle" x="1199" y="-287" font-family="Helvetica,sans-Serif" font-size="10.00">_parser</text>
</a>
</g>
</g>
<!-- Node8&#45;&gt;Node9 -->
<g id="edge8" class="edge"><title>Node8&#45;&gt;Node9</title>
<path fill="none" stroke="midnightblue" d="M1065.72,-258.278C1089.41,-264.854 1118.79,-273.009 1143.84,-279.963"/>
<polygon fill="midnightblue" stroke="midnightblue" points="1066.52,-254.867 1055.95,-255.564 1064.65,-261.612 1066.52,-254.867"/>
</g>
<!-- Node11 -->
<g id="node11" class="node"><title>Node11</title>
<g id="a_node11"><a xlink:href="../../d4/d09/classprolog_1_1io_1_1ClauseReader_a805e9a5ebc401e1099f39af9b3f6fb47.html#a805e9a5ebc401e1099f39af9b3f6fb47" target="_top" xlink:title="prolog.io.ClauseReader.get\lElement">
<polygon fill="none" stroke="black" points="1131.5,-231 1131.5,-261 1266.5,-261 1266.5,-231 1131.5,-231"/>
<text text-anchor="start" x="1139.5" y="-249" font-family="Helvetica,sans-Serif" font-size="10.00">prolog.io.ClauseReader.get</text>
<text text-anchor="middle" x="1199" y="-238" font-family="Helvetica,sans-Serif" font-size="10.00">Element</text>
</a>
</g>
</g>
<!-- Node8&#45;&gt;Node11 -->
<g id="edge10" class="edge"><title>Node8&#45;&gt;Node11</title>
<path fill="none" stroke="midnightblue" d="M1099.37,-246C1110.03,-246 1120.89,-246 1131.32,-246"/>
<polygon fill="midnightblue" stroke="midnightblue" points="1099.23,-242.5 1089.23,-246 1099.23,-249.5 1099.23,-242.5"/>
</g>
<!-- Node12 -->
<g id="node12" class="node"><title>Node12</title>
<g id="a_node12"><a xlink:href="../../d7/df1/classprolog_1_1io_1_1Parser_acd7f700bcb96620b8c6770c2fcae5802.html#acd7f700bcb96620b8c6770c2fcae5802" target="_top" xlink:title="prolog.io.Parser.clsFrom\lString">
<polygon fill="none" stroke="black" points="1137.5,-182 1137.5,-212 1260.5,-212 1260.5,-182 1137.5,-182"/>
<text text-anchor="start" x="1145.5" y="-200" font-family="Helvetica,sans-Serif" font-size="10.00">prolog.io.Parser.clsFrom</text>
<text text-anchor="middle" x="1199" y="-189" font-family="Helvetica,sans-Serif" font-size="10.00">String</text>
</a>
</g>
</g>
<!-- Node8&#45;&gt;Node12 -->
<g id="edge11" class="edge"><title>Node8&#45;&gt;Node12</title>
<path fill="none" stroke="midnightblue" d="M1065.72,-233.722C1089.41,-227.146 1118.79,-218.991 1143.84,-212.037"/>
<polygon fill="midnightblue" stroke="midnightblue" points="1064.65,-230.388 1055.95,-236.436 1066.52,-237.133 1064.65,-230.388"/>
</g>
<!-- Node10 -->
<g id="node10" class="node"><title>Node10</title>
<g id="a_node10"><a xlink:href="../../da/dd9/classprolog_1_1fluents_1_1DataBase_af8b26948ded7bba6386b984f463bf166.html#af8b26948ded7bba6386b984f463bf166" target="_top" xlink:title="prolog.fluents.DataBase.stream\lToProg">
<polygon fill="none" stroke="black" points="1309,-280 1309,-310 1464,-310 1464,-280 1309,-280"/>
<text text-anchor="start" x="1317" y="-298" font-family="Helvetica,sans-Serif" font-size="10.00">prolog.fluents.DataBase.stream</text>
<text text-anchor="middle" x="1386.5" y="-287" font-family="Helvetica,sans-Serif" font-size="10.00">ToProg</text>
</a>
</g>
</g>
<!-- Node9&#45;&gt;Node10 -->
<g id="edge9" class="edge"><title>Node9&#45;&gt;Node10</title>
<path fill="none" stroke="midnightblue" d="M1283.06,-295C1291.65,-295 1300.34,-295 1308.86,-295"/>
<polygon fill="midnightblue" stroke="midnightblue" points="1283.05,-291.5 1273.05,-295 1283.05,-298.5 1283.05,-291.5"/>
</g>
<!-- Node13 -->
<g id="node13" class="node"><title>Node13</title>
<g id="a_node13"><a xlink:href="../../d6/dc4/classprolog_1_1terms_1_1Clause_a253e30217e7c206f42b947ba0dc7d754.html#a253e30217e7c206f42b947ba0dc7d754" target="_top" xlink:title="Extracts a clause from its String representation. ">
<polygon fill="none" stroke="black" points="1318.5,-182 1318.5,-212 1454.5,-212 1454.5,-182 1318.5,-182"/>
<text text-anchor="start" x="1326.5" y="-200" font-family="Helvetica,sans-Serif" font-size="10.00">prolog.terms.Clause.clause</text>
<text text-anchor="middle" x="1386.5" y="-189" font-family="Helvetica,sans-Serif" font-size="10.00">FromString</text>
</a>
</g>
</g>
<!-- Node12&#45;&gt;Node13 -->
<g id="edge12" class="edge"><title>Node12&#45;&gt;Node13</title>
<path fill="none" stroke="midnightblue" d="M1270.82,-197C1286.37,-197 1302.8,-197 1318.21,-197"/>
<polygon fill="midnightblue" stroke="midnightblue" points="1270.74,-193.5 1260.74,-197 1270.74,-200.5 1270.74,-193.5"/>
</g>
<!-- Node14 -->
<g id="node14" class="node"><title>Node14</title>
<g id="a_node14"><a xlink:href="../../d6/dc4/classprolog_1_1terms_1_1Clause_a59a965be3fc2e88226d5202dca1b2a26.html#a59a965be3fc2e88226d5202dca1b2a26" target="_top" xlink:title="Constructs a clause by parsing its string representation. ">
<polygon fill="none" stroke="black" points="1503,-231.5 1503,-250.5 1641,-250.5 1641,-231.5 1503,-231.5"/>
<text text-anchor="middle" x="1572" y="-238.5" font-family="Helvetica,sans-Serif" font-size="10.00">prolog.terms.Clause.Clause</text>
</a>
</g>
</g>
<!-- Node13&#45;&gt;Node14 -->
<g id="edge13" class="edge"><title>Node13&#45;&gt;Node14</title>
<path fill="none" stroke="midnightblue" d="M1460.05,-214.396C1484.34,-220.221 1510.51,-226.495 1531.33,-231.488"/>
<polygon fill="midnightblue" stroke="midnightblue" points="1460.68,-210.948 1450.14,-212.019 1459.05,-217.755 1460.68,-210.948"/>
</g>
<!-- Node15 -->
<g id="node15" class="node"><title>Node15</title>
<g id="a_node15"><a xlink:href="../../d6/dc4/classprolog_1_1terms_1_1Clause_aff298dbb79a27341afb0860f82ad1464.html#aff298dbb79a27341afb0860f82ad1464" target="_top" xlink:title="prolog.terms.Clause.goal\lFromString">
<polygon fill="none" stroke="black" points="1509.5,-182 1509.5,-212 1634.5,-212 1634.5,-182 1509.5,-182"/>
<text text-anchor="start" x="1517.5" y="-200" font-family="Helvetica,sans-Serif" font-size="10.00">prolog.terms.Clause.goal</text>
<text text-anchor="middle" x="1572" y="-189" font-family="Helvetica,sans-Serif" font-size="10.00">FromString</text>
</a>
</g>
</g>
<!-- Node13&#45;&gt;Node15 -->
<g id="edge14" class="edge"><title>Node13&#45;&gt;Node15</title>
<path fill="none" stroke="midnightblue" d="M1464.73,-197C1479.61,-197 1495.02,-197 1509.33,-197"/>
<polygon fill="midnightblue" stroke="midnightblue" points="1464.53,-193.5 1454.53,-197 1464.53,-200.5 1464.53,-193.5"/>
</g>
<!-- Node17 -->
<g id="node17" class="node"><title>Node17</title>
<g id="a_node17"><a xlink:href="../../d3/ded/classprolog_1_1terms_1_1Term_a837eb66c18c36b2a0a4ecce8ad7cd144.html#a837eb66c18c36b2a0a4ecce8ad7cd144" target="_top" xlink:title="prolog.terms.Term.fromString">
<polygon fill="none" stroke="black" points="1500,-143.5 1500,-162.5 1644,-162.5 1644,-143.5 1500,-143.5"/>
<text text-anchor="middle" x="1572" y="-150.5" font-family="Helvetica,sans-Serif" font-size="10.00">prolog.terms.Term.fromString</text>
</a>
</g>
</g>
<!-- Node13&#45;&gt;Node17 -->
<g id="edge16" class="edge"><title>Node13&#45;&gt;Node17</title>
<path fill="none" stroke="midnightblue" d="M1460.05,-179.604C1484.34,-173.779 1510.51,-167.505 1531.33,-162.512"/>
<polygon fill="midnightblue" stroke="midnightblue" points="1459.05,-176.245 1450.14,-181.981 1460.68,-183.052 1459.05,-176.245"/>
</g>
<!-- Node16 -->
<g id="node16" class="node"><title>Node16</title>
<g id="a_node16"><a xlink:href="../../d8/d35/classprolog_1_1Init_a0f6db95b70444cd1b933f24ec44814e4.html#a0f6db95b70444cd1b933f24ec44814e4" target="_top" xlink:title="prolog.Init.getGoal">
<polygon fill="none" stroke="black" points="1680,-187.5 1680,-206.5 1776,-206.5 1776,-187.5 1680,-187.5"/>
<text text-anchor="middle" x="1728" y="-194.5" font-family="Helvetica,sans-Serif" font-size="10.00">prolog.Init.getGoal</text>
</a>
</g>
</g>
<!-- Node15&#45;&gt;Node16 -->
<g id="edge15" class="edge"><title>Node15&#45;&gt;Node16</title>
<path fill="none" stroke="midnightblue" d="M1645.08,-197C1656.92,-197 1668.92,-197 1679.94,-197"/>
<polygon fill="midnightblue" stroke="midnightblue" points="1644.75,-193.5 1634.75,-197 1644.75,-200.5 1644.75,-193.5"/>
</g>
<!-- Node18&#45;&gt;Node5 -->
<g id="edge18" class="edge"><title>Node18&#45;&gt;Node5</title>
<path fill="none" stroke="midnightblue" d="M916.53,-65.8605C931.377,-63.4295 946.957,-60.8784 961.376,-58.5174"/>
<polygon fill="midnightblue" stroke="midnightblue" points="915.696,-62.4505 906.393,-67.5205 916.827,-69.3585 915.696,-62.4505"/>
</g>
<!-- Node19&#45;&gt;Node18 -->
<g id="edge20" class="edge"><title>Node19&#45;&gt;Node18</title>
<path fill="none" stroke="midnightblue" d="M750.927,-81.9434C763.686,-81.2835 776.692,-80.6107 788.835,-79.9827"/>
<polygon fill="midnightblue" stroke="midnightblue" points="750.576,-78.4568 740.77,-82.4688 750.937,-85.4475 750.576,-78.4568"/>
</g>
<!-- Node20&#45;&gt;Node4 -->
<g id="edge24" class="edge"><title>Node20&#45;&gt;Node4</title>
<path fill="none" stroke="midnightblue" d="M525.583,-108.63C560.615,-84.7875 627.05,-39.5719 656.192,-19.738"/>
<polygon fill="midnightblue" stroke="midnightblue" points="523.291,-105.957 516.993,-114.477 527.229,-111.743 523.291,-105.957"/>
</g>
<!-- Node20&#45;&gt;Node6 -->
<g id="edge23" class="edge"><title>Node20&#45;&gt;Node6</title>
<path fill="none" stroke="midnightblue" d="M527.814,-138.764C547.086,-149.869 574.701,-165.001 600,-176 612.45,-181.413 626.547,-186.423 638.846,-190.45"/>
<polygon fill="midnightblue" stroke="midnightblue" points="529.473,-135.68 519.07,-133.672 525.95,-141.729 529.473,-135.68"/>
</g>
<!-- Node20&#45;&gt;Node7 -->
<g id="edge22" class="edge"><title>Node20&#45;&gt;Node7</title>
<path fill="none" stroke="midnightblue" d="M558.949,-135.744C607.834,-146.371 680.553,-163.068 743,-181 763.602,-186.916 786.182,-194.429 804.98,-200.976"/>
<polygon fill="midnightblue" stroke="midnightblue" points="559.405,-132.262 548.891,-133.57 557.926,-139.104 559.405,-132.262"/>
</g>
<!-- Node20&#45;&gt;Node18 -->
<g id="edge25" class="edge"><title>Node20&#45;&gt;Node18</title>
<path fill="none" stroke="midnightblue" d="M574.332,-121.813C622.299,-119.496 686.791,-114.742 743,-105 768.311,-100.613 796.409,-92.8196 816.935,-86.5667"/>
<polygon fill="midnightblue" stroke="midnightblue" points="573.88,-118.33 564.05,-122.284 574.2,-125.322 573.88,-118.33"/>
</g>
<!-- Node20&#45;&gt;Node19 -->
<g id="edge26" class="edge"><title>Node20&#45;&gt;Node19</title>
<path fill="none" stroke="midnightblue" d="M555.12,-112.176C578.735,-106.818 606.282,-100.569 628.537,-95.5201"/>
<polygon fill="midnightblue" stroke="midnightblue" points="554.245,-108.785 545.267,-114.411 555.794,-115.612 554.245,-108.785"/>
</g>
</g>
</svg>
