<?xml version="1.0" encoding="UTF-8" standalone="no"?>
<!DOCTYPE svg PUBLIC "-//W3C//DTD SVG 1.1//EN"
 "http://www.w3.org/Graphics/SVG/1.1/DTD/svg11.dtd">
<!-- Generated by graphviz version 2.38.0 (20140413.2041)
 -->
<!-- Title: prolog.io.Lexer.Lexer Pages: 1 -->
<svg width="415pt" height="66pt"
 viewBox="0.00 0.00 415.00 66.00" xmlns="http://www.w3.org/2000/svg" xmlns:xlink="http://www.w3.org/1999/xlink">
<g id="graph0" class="graph" transform="scale(1 1) rotate(0) translate(4 62)">
<title>prolog.io.Lexer.Lexer</title>
<!-- Node1 -->
<g id="node1" class="node"><title>Node1</title>
<polygon fill="#bfbfbf" stroke="black" points="0,-19.5 0,-38.5 107,-38.5 107,-19.5 0,-19.5"/>
<text text-anchor="middle" x="53.5" y="-26.5" font-family="Helvetica,sans-Serif" font-size="10.00">prolog.io.Lexer.Lexer</text>
</g>
<!-- Node2 -->
<g id="node2" class="node"><title>Node2</title>
<g id="a_node2"><a xlink:href="../../d4/dc2/classprolog_1_1io_1_1IO_ac5428808b7db8cc3cd5b8b82b1b070c4.html#ac5428808b7db8cc3cd5b8b82b1b070c4" target="_top" xlink:title="prolog.io.IO.url_or_file">
<polygon fill="none" stroke="black" points="143,-19.5 143,-38.5 255,-38.5 255,-19.5 143,-19.5"/>
<text text-anchor="middle" x="199" y="-26.5" font-family="Helvetica,sans-Serif" font-size="10.00">prolog.io.IO.url_or_file</text>
</a>
</g>
</g>
<!-- Node1&#45;&gt;Node2 -->
<g id="edge1" class="edge"><title>Node1&#45;&gt;Node2</title>
<path fill="none" stroke="midnightblue" d="M107.119,-29C115.513,-29 124.284,-29 132.925,-29"/>
<polygon fill="midnightblue" stroke="midnightblue" points="132.978,-32.5001 142.978,-29 132.978,-25.5001 132.978,-32.5001"/>
</g>
<!-- Node3 -->
<g id="node3" class="node"><title>Node3</title>
<g id="a_node3"><a xlink:href="../../d4/dc2/classprolog_1_1io_1_1IO_aee8a81008d28d54afc3e1eef18e8bec9.html#aee8a81008d28d54afc3e1eef18e8bec9" target="_top" xlink:title="prolog.io.IO.toReader">
<polygon fill="none" stroke="black" points="294,-38.5 294,-57.5 404,-57.5 404,-38.5 294,-38.5"/>
<text text-anchor="middle" x="349" y="-45.5" font-family="Helvetica,sans-Serif" font-size="10.00">prolog.io.IO.toReader</text>
</a>
</g>
</g>
<!-- Node2&#45;&gt;Node3 -->
<g id="edge2" class="edge"><title>Node2&#45;&gt;Node3</title>
<path fill="none" stroke="midnightblue" d="M255.11,-36.0749C264.404,-37.2681 274.125,-38.516 283.63,-39.7363"/>
<polygon fill="midnightblue" stroke="midnightblue" points="283.465,-43.2437 293.829,-41.0456 284.356,-36.3007 283.465,-43.2437"/>
</g>
<!-- Node4 -->
<g id="node4" class="node"><title>Node4</title>
<g id="a_node4"><a xlink:href="../../d4/dc2/classprolog_1_1io_1_1IO_a6349d9d37774b9ddd8e24c3c280afc9e.html#a6349d9d37774b9ddd8e24c3c280afc9e" target="_top" xlink:title="prolog.io.IO.url2stream">
<polygon fill="none" stroke="black" points="291,-0.5 291,-19.5 407,-19.5 407,-0.5 291,-0.5"/>
<text text-anchor="middle" x="349" y="-7.5" font-family="Helvetica,sans-Serif" font-size="10.00">prolog.io.IO.url2stream</text>
</a>
</g>
</g>
<!-- Node2&#45;&gt;Node4 -->
<g id="edge3" class="edge"><title>Node2&#45;&gt;Node4</title>
<path fill="none" stroke="midnightblue" d="M255.11,-21.9251C263.498,-20.8483 272.233,-19.7269 280.843,-18.6215"/>
<polygon fill="midnightblue" stroke="midnightblue" points="281.392,-22.0798 290.865,-17.3349 280.501,-15.1368 281.392,-22.0798"/>
</g>
</g>
</svg>
