<?xml version="1.0" encoding="UTF-8" standalone="no"?>
<!DOCTYPE svg PUBLIC "-//W3C//DTD SVG 1.1//EN"
 "http://www.w3.org/Graphics/SVG/1.1/DTD/svg11.dtd">
<!-- Generated by graphviz version 2.38.0 (20140413.2041)
 -->
<!-- Title: prolog.io.Lexer.char2string Pages: 1 -->
<svg width="1649pt" height="319pt"
 viewBox="0.00 0.00 1649.00 318.50" xmlns="http://www.w3.org/2000/svg" xmlns:xlink="http://www.w3.org/1999/xlink">
<g id="graph0" class="graph" transform="scale(1 1) rotate(0) translate(4 314.5)">
<title>prolog.io.Lexer.char2string</title>
<!-- Node1 -->
<g id="node1" class="node"><title>Node1</title>
<polygon fill="#bfbfbf" stroke="black" points="0,-114.5 0,-133.5 131,-133.5 131,-114.5 0,-114.5"/>
<text text-anchor="middle" x="65.5" y="-121.5" font-family="Helvetica,sans-Serif" font-size="10.00">prolog.io.Lexer.char2string</text>
</g>
<!-- Node2 -->
<g id="node2" class="node"><title>Node2</title>
<g id="a_node2"><a xlink:href="../../d9/d79/classprolog_1_1io_1_1Lexer_af90567b8e92b07af09c8f60a587d8404.html#af90567b8e92b07af09c8f60a587d8404" target="_top" xlink:title="prolog.io.Lexer.next">
<polygon fill="none" stroke="black" points="167,-114.5 167,-133.5 269,-133.5 269,-114.5 167,-114.5"/>
<text text-anchor="middle" x="218" y="-121.5" font-family="Helvetica,sans-Serif" font-size="10.00">prolog.io.Lexer.next</text>
</a>
</g>
</g>
<!-- Node1&#45;&gt;Node2 -->
<g id="edge1" class="edge"><title>Node1&#45;&gt;Node2</title>
<path fill="none" stroke="midnightblue" d="M141.341,-124C150.006,-124 158.679,-124 166.899,-124"/>
<polygon fill="midnightblue" stroke="midnightblue" points="141.199,-120.5 131.199,-124 141.199,-127.5 141.199,-120.5"/>
</g>
<!-- Node3 -->
<g id="node3" class="node"><title>Node3</title>
<g id="a_node3"><a xlink:href="../../d7/df1/classprolog_1_1io_1_1Parser_a65d208b0e30e3ff19d769fbb3b0f7247.html#a65d208b0e30e3ff19d769fbb3b0f7247" target="_top" xlink:title="prolog.io.Parser.getArgs">
<polygon fill="none" stroke="black" points="475.5,-0.5 475.5,-19.5 597.5,-19.5 597.5,-0.5 475.5,-0.5"/>
<text text-anchor="middle" x="536.5" y="-7.5" font-family="Helvetica,sans-Serif" font-size="10.00">prolog.io.Parser.getArgs</text>
</a>
</g>
</g>
<!-- Node2&#45;&gt;Node3 -->
<g id="edge2" class="edge"><title>Node2&#45;&gt;Node3</title>
<path fill="none" stroke="midnightblue" d="M230.462,-105.779C244.956,-84.5015 272.04,-50.1636 305,-34 358.283,-7.87043 426.685,-3.88373 475.096,-5.19804"/>
<polygon fill="midnightblue" stroke="midnightblue" points="227.451,-103.988 224.877,-114.266 233.298,-107.837 227.451,-103.988"/>
</g>
<!-- Node5 -->
<g id="node5" class="node"><title>Node5</title>
<g id="a_node5"><a xlink:href="../../d7/df1/classprolog_1_1io_1_1Parser_aa7e461fd858ff34bac99d032f61e52da.html#aa7e461fd858ff34bac99d032f61e52da" target="_top" xlink:title="prolog.io.Parser.getConjCont">
<polygon fill="none" stroke="black" points="465,-190.5 465,-209.5 608,-209.5 608,-190.5 465,-190.5"/>
<text text-anchor="middle" x="536.5" y="-197.5" font-family="Helvetica,sans-Serif" font-size="10.00">prolog.io.Parser.getConjCont</text>
</a>
</g>
</g>
<!-- Node2&#45;&gt;Node5 -->
<g id="edge4" class="edge"><title>Node2&#45;&gt;Node5</title>
<path fill="none" stroke="midnightblue" d="M268.817,-135.962C331.539,-151.024 438.039,-176.597 495.649,-190.431"/>
<polygon fill="midnightblue" stroke="midnightblue" points="269.305,-132.48 258.764,-133.548 267.671,-139.287 269.305,-132.48"/>
</g>
<!-- Node6 -->
<g id="node6" class="node"><title>Node6</title>
<g id="a_node6"><a xlink:href="../../d7/df1/classprolog_1_1io_1_1Parser_a79322090cfbd908b02c83db6c65806d2.html#a79322090cfbd908b02c83db6c65806d2" target="_top" xlink:title="prolog.io.Parser.readClause\lOrEOF">
<polygon fill="none" stroke="black" points="644,-201 644,-231 781,-231 781,-201 644,-201"/>
<text text-anchor="start" x="652" y="-219" font-family="Helvetica,sans-Serif" font-size="10.00">prolog.io.Parser.readClause</text>
<text text-anchor="middle" x="712.5" y="-208" font-family="Helvetica,sans-Serif" font-size="10.00">OrEOF</text>
</a>
</g>
</g>
<!-- Node2&#45;&gt;Node6 -->
<g id="edge27" class="edge"><title>Node2&#45;&gt;Node6</title>
<path fill="none" stroke="midnightblue" d="M241.627,-139.285C258.51,-150.153 282.455,-164.458 305,-174 373.027,-202.793 391.823,-208.905 465,-219 527.959,-227.685 544.451,-219.921 608,-219 619.593,-218.832 631.915,-218.558 643.862,-218.243"/>
<polygon fill="midnightblue" stroke="midnightblue" points="243.311,-136.205 233.028,-133.654 239.476,-142.06 243.311,-136.205"/>
</g>
<!-- Node7 -->
<g id="node7" class="node"><title>Node7</title>
<g id="a_node7"><a xlink:href="../../d7/df1/classprolog_1_1io_1_1Parser_ad0255f716753ec63c0f4e7cf9a8d2d38.html#ad0255f716753ec63c0f4e7cf9a8d2d38" target="_top" xlink:title="Main Parser interface: reads a clause together with variable name information. ">
<polygon fill="none" stroke="black" points="817,-236.5 817,-255.5 954,-255.5 954,-236.5 817,-236.5"/>
<text text-anchor="middle" x="885.5" y="-243.5" font-family="Helvetica,sans-Serif" font-size="10.00">prolog.io.Parser.readClause</text>
</a>
</g>
</g>
<!-- Node2&#45;&gt;Node7 -->
<g id="edge26" class="edge"><title>Node2&#45;&gt;Node7</title>
<path fill="none" stroke="midnightblue" d="M231.844,-141.812C246.996,-161.389 274.072,-192.156 305,-208 480.878,-298.102 727.135,-272.51 832.907,-255.565"/>
<polygon fill="midnightblue" stroke="midnightblue" points="234.555,-139.593 225.75,-133.699 228.957,-143.797 234.555,-139.593"/>
</g>
<!-- Node17 -->
<g id="node17" class="node"><title>Node17</title>
<g id="a_node17"><a xlink:href="../../d7/df1/classprolog_1_1io_1_1Parser_ab9dcde7b1480cd18c6a21e5c88e1a2bd.html#ab9dcde7b1480cd18c6a21e5c88e1a2bd" target="_top" xlink:title="prolog.io.Parser.getList">
<polygon fill="none" stroke="black" points="654,-67.5 654,-86.5 771,-86.5 771,-67.5 654,-67.5"/>
<text text-anchor="middle" x="712.5" y="-74.5" font-family="Helvetica,sans-Serif" font-size="10.00">prolog.io.Parser.getList</text>
</a>
</g>
</g>
<!-- Node2&#45;&gt;Node17 -->
<g id="edge16" class="edge"><title>Node2&#45;&gt;Node17</title>
<path fill="none" stroke="midnightblue" d="M248.203,-109.986C264.56,-102.684 285.529,-94.2127 305,-89 435.428,-54.0833 473.135,-60.4999 608,-67 622.876,-67.717 638.913,-69.0104 653.818,-70.4342"/>
<polygon fill="midnightblue" stroke="midnightblue" points="246.309,-107.003 238.668,-114.343 249.218,-113.37 246.309,-107.003"/>
</g>
<!-- Node18 -->
<g id="node18" class="node"><title>Node18</title>
<g id="a_node18"><a xlink:href="../../d7/df1/classprolog_1_1io_1_1Parser_aa2150bc0ca63050e058a5041b719dd7b.html#aa2150bc0ca63050e058a5041b719dd7b" target="_top" xlink:title="prolog.io.Parser.getListCont">
<polygon fill="none" stroke="black" points="467.5,-76.5 467.5,-95.5 605.5,-95.5 605.5,-76.5 467.5,-76.5"/>
<text text-anchor="middle" x="536.5" y="-83.5" font-family="Helvetica,sans-Serif" font-size="10.00">prolog.io.Parser.getListCont</text>
</a>
</g>
</g>
<!-- Node2&#45;&gt;Node18 -->
<g id="edge18" class="edge"><title>Node2&#45;&gt;Node18</title>
<path fill="none" stroke="midnightblue" d="M266.985,-112.197C279.313,-109.496 292.597,-106.872 305,-105 359.294,-96.8031 421.355,-91.9418 467.393,-89.1915"/>
<polygon fill="midnightblue" stroke="midnightblue" points="265.882,-108.857 256.895,-114.469 267.42,-115.686 265.882,-108.857"/>
</g>
<!-- Node19 -->
<g id="node19" class="node"><title>Node19</title>
<g id="a_node19"><a xlink:href="../../d7/df1/classprolog_1_1io_1_1Parser_ae301f1d607ff1269917a097eda95199a.html#ae301f1d607ff1269917a097eda95199a" target="_top" xlink:title="prolog.io.Parser.getTerm">
<polygon fill="none" stroke="black" points="305,-114.5 305,-133.5 429,-133.5 429,-114.5 305,-114.5"/>
<text text-anchor="middle" x="367" y="-121.5" font-family="Helvetica,sans-Serif" font-size="10.00">prolog.io.Parser.getTerm</text>
</a>
</g>
</g>
<!-- Node2&#45;&gt;Node19 -->
<g id="edge20" class="edge"><title>Node2&#45;&gt;Node19</title>
<path fill="none" stroke="midnightblue" d="M279.312,-124C287.744,-124 296.415,-124 304.861,-124"/>
<polygon fill="midnightblue" stroke="midnightblue" points="279.178,-120.5 269.178,-124 279.178,-127.5 279.178,-120.5"/>
</g>
<!-- Node4 -->
<g id="node4" class="node"><title>Node4</title>
<g id="a_node4"><a xlink:href="../../d7/df1/classprolog_1_1io_1_1Parser_a2266a192306644bbc8e9bb4b4839708e.html#a2266a192306644bbc8e9bb4b4839708e" target="_top" xlink:title="prolog.io.Parser.getTerm">
<polygon fill="none" stroke="black" points="823.5,-39.5 823.5,-58.5 947.5,-58.5 947.5,-39.5 823.5,-39.5"/>
<text text-anchor="middle" x="885.5" y="-46.5" font-family="Helvetica,sans-Serif" font-size="10.00">prolog.io.Parser.getTerm</text>
</a>
</g>
</g>
<!-- Node3&#45;&gt;Node4 -->
<g id="edge3" class="edge"><title>Node3&#45;&gt;Node4</title>
<path fill="none" stroke="midnightblue" d="M607.839,-17.9055C671.13,-25.019 763.18,-35.3647 823.441,-42.1375"/>
<polygon fill="midnightblue" stroke="midnightblue" points="607.875,-14.3876 597.547,-16.7488 607.093,-21.3438 607.875,-14.3876"/>
</g>
<!-- Node5&#45;&gt;Node6 -->
<g id="edge5" class="edge"><title>Node5&#45;&gt;Node6</title>
<path fill="none" stroke="midnightblue" d="M618.117,-207.413C626.767,-208.208 635.502,-209.012 643.977,-209.791"/>
<polygon fill="midnightblue" stroke="midnightblue" points="618.3,-203.915 608.022,-206.485 617.659,-210.886 618.3,-203.915"/>
</g>
<!-- Node6&#45;&gt;Node7 -->
<g id="edge6" class="edge"><title>Node6&#45;&gt;Node7</title>
<path fill="none" stroke="midnightblue" d="M791.131,-229.619C804.362,-231.941 817.847,-234.306 830.303,-236.492"/>
<polygon fill="midnightblue" stroke="midnightblue" points="791.538,-226.138 781.084,-227.857 790.328,-233.032 791.538,-226.138"/>
</g>
<!-- Node8 -->
<g id="node8" class="node"><title>Node8</title>
<g id="a_node8"><a xlink:href="../../da/dd9/classprolog_1_1fluents_1_1DataBase_a83885e10b61d6bf129307d9bf50d93de.html#a83885e10b61d6bf129307d9bf50d93de" target="_top" xlink:title="prolog.fluents.DataBase.apply\l_parser">
<polygon fill="none" stroke="black" points="990,-280 990,-310 1138,-310 1138,-280 990,-280"/>
<text text-anchor="start" x="998" y="-298" font-family="Helvetica,sans-Serif" font-size="10.00">prolog.fluents.DataBase.apply</text>
<text text-anchor="middle" x="1064" y="-287" font-family="Helvetica,sans-Serif" font-size="10.00">_parser</text>
</a>
</g>
</g>
<!-- Node7&#45;&gt;Node8 -->
<g id="edge7" class="edge"><title>Node7&#45;&gt;Node8</title>
<path fill="none" stroke="midnightblue" d="M930.724,-258.278C954.412,-264.854 983.788,-273.009 1008.84,-279.963"/>
<polygon fill="midnightblue" stroke="midnightblue" points="931.522,-254.867 920.95,-255.564 929.649,-261.612 931.522,-254.867"/>
</g>
<!-- Node10 -->
<g id="node10" class="node"><title>Node10</title>
<g id="a_node10"><a xlink:href="../../d4/d09/classprolog_1_1io_1_1ClauseReader_a805e9a5ebc401e1099f39af9b3f6fb47.html#a805e9a5ebc401e1099f39af9b3f6fb47" target="_top" xlink:title="prolog.io.ClauseReader.get\lElement">
<polygon fill="none" stroke="black" points="996.5,-231 996.5,-261 1131.5,-261 1131.5,-231 996.5,-231"/>
<text text-anchor="start" x="1004.5" y="-249" font-family="Helvetica,sans-Serif" font-size="10.00">prolog.io.ClauseReader.get</text>
<text text-anchor="middle" x="1064" y="-238" font-family="Helvetica,sans-Serif" font-size="10.00">Element</text>
</a>
</g>
</g>
<!-- Node7&#45;&gt;Node10 -->
<g id="edge9" class="edge"><title>Node7&#45;&gt;Node10</title>
<path fill="none" stroke="midnightblue" d="M964.369,-246C975.025,-246 985.887,-246 996.32,-246"/>
<polygon fill="midnightblue" stroke="midnightblue" points="964.235,-242.5 954.235,-246 964.235,-249.5 964.235,-242.5"/>
</g>
<!-- Node11 -->
<g id="node11" class="node"><title>Node11</title>
<g id="a_node11"><a xlink:href="../../d7/df1/classprolog_1_1io_1_1Parser_acd7f700bcb96620b8c6770c2fcae5802.html#acd7f700bcb96620b8c6770c2fcae5802" target="_top" xlink:title="prolog.io.Parser.clsFrom\lString">
<polygon fill="none" stroke="black" points="1002.5,-182 1002.5,-212 1125.5,-212 1125.5,-182 1002.5,-182"/>
<text text-anchor="start" x="1010.5" y="-200" font-family="Helvetica,sans-Serif" font-size="10.00">prolog.io.Parser.clsFrom</text>
<text text-anchor="middle" x="1064" y="-189" font-family="Helvetica,sans-Serif" font-size="10.00">String</text>
</a>
</g>
</g>
<!-- Node7&#45;&gt;Node11 -->
<g id="edge10" class="edge"><title>Node7&#45;&gt;Node11</title>
<path fill="none" stroke="midnightblue" d="M930.724,-233.722C954.412,-227.146 983.788,-218.991 1008.84,-212.037"/>
<polygon fill="midnightblue" stroke="midnightblue" points="929.649,-230.388 920.95,-236.436 931.522,-237.133 929.649,-230.388"/>
</g>
<!-- Node9 -->
<g id="node9" class="node"><title>Node9</title>
<g id="a_node9"><a xlink:href="../../da/dd9/classprolog_1_1fluents_1_1DataBase_af8b26948ded7bba6386b984f463bf166.html#af8b26948ded7bba6386b984f463bf166" target="_top" xlink:title="prolog.fluents.DataBase.stream\lToProg">
<polygon fill="none" stroke="black" points="1174,-280 1174,-310 1329,-310 1329,-280 1174,-280"/>
<text text-anchor="start" x="1182" y="-298" font-family="Helvetica,sans-Serif" font-size="10.00">prolog.fluents.DataBase.stream</text>
<text text-anchor="middle" x="1251.5" y="-287" font-family="Helvetica,sans-Serif" font-size="10.00">ToProg</text>
</a>
</g>
</g>
<!-- Node8&#45;&gt;Node9 -->
<g id="edge8" class="edge"><title>Node8&#45;&gt;Node9</title>
<path fill="none" stroke="midnightblue" d="M1148.06,-295C1156.65,-295 1165.34,-295 1173.86,-295"/>
<polygon fill="midnightblue" stroke="midnightblue" points="1148.05,-291.5 1138.05,-295 1148.05,-298.5 1148.05,-291.5"/>
</g>
<!-- Node12 -->
<g id="node12" class="node"><title>Node12</title>
<g id="a_node12"><a xlink:href="../../d6/dc4/classprolog_1_1terms_1_1Clause_a253e30217e7c206f42b947ba0dc7d754.html#a253e30217e7c206f42b947ba0dc7d754" target="_top" xlink:title="Extracts a clause from its String representation. ">
<polygon fill="none" stroke="black" points="1183.5,-182 1183.5,-212 1319.5,-212 1319.5,-182 1183.5,-182"/>
<text text-anchor="start" x="1191.5" y="-200" font-family="Helvetica,sans-Serif" font-size="10.00">prolog.terms.Clause.clause</text>
<text text-anchor="middle" x="1251.5" y="-189" font-family="Helvetica,sans-Serif" font-size="10.00">FromString</text>
</a>
</g>
</g>
<!-- Node11&#45;&gt;Node12 -->
<g id="edge11" class="edge"><title>Node11&#45;&gt;Node12</title>
<path fill="none" stroke="midnightblue" d="M1135.82,-197C1151.37,-197 1167.8,-197 1183.21,-197"/>
<polygon fill="midnightblue" stroke="midnightblue" points="1135.74,-193.5 1125.74,-197 1135.74,-200.5 1135.74,-193.5"/>
</g>
<!-- Node13 -->
<g id="node13" class="node"><title>Node13</title>
<g id="a_node13"><a xlink:href="../../d6/dc4/classprolog_1_1terms_1_1Clause_a59a965be3fc2e88226d5202dca1b2a26.html#a59a965be3fc2e88226d5202dca1b2a26" target="_top" xlink:title="Constructs a clause by parsing its string representation. ">
<polygon fill="none" stroke="black" points="1368,-231.5 1368,-250.5 1506,-250.5 1506,-231.5 1368,-231.5"/>
<text text-anchor="middle" x="1437" y="-238.5" font-family="Helvetica,sans-Serif" font-size="10.00">prolog.terms.Clause.Clause</text>
</a>
</g>
</g>
<!-- Node12&#45;&gt;Node13 -->
<g id="edge12" class="edge"><title>Node12&#45;&gt;Node13</title>
<path fill="none" stroke="midnightblue" d="M1325.05,-214.396C1349.34,-220.221 1375.51,-226.495 1396.33,-231.488"/>
<polygon fill="midnightblue" stroke="midnightblue" points="1325.68,-210.948 1315.14,-212.019 1324.05,-217.755 1325.68,-210.948"/>
</g>
<!-- Node14 -->
<g id="node14" class="node"><title>Node14</title>
<g id="a_node14"><a xlink:href="../../d6/dc4/classprolog_1_1terms_1_1Clause_aff298dbb79a27341afb0860f82ad1464.html#aff298dbb79a27341afb0860f82ad1464" target="_top" xlink:title="prolog.terms.Clause.goal\lFromString">
<polygon fill="none" stroke="black" points="1374.5,-182 1374.5,-212 1499.5,-212 1499.5,-182 1374.5,-182"/>
<text text-anchor="start" x="1382.5" y="-200" font-family="Helvetica,sans-Serif" font-size="10.00">prolog.terms.Clause.goal</text>
<text text-anchor="middle" x="1437" y="-189" font-family="Helvetica,sans-Serif" font-size="10.00">FromString</text>
</a>
</g>
</g>
<!-- Node12&#45;&gt;Node14 -->
<g id="edge13" class="edge"><title>Node12&#45;&gt;Node14</title>
<path fill="none" stroke="midnightblue" d="M1329.73,-197C1344.61,-197 1360.02,-197 1374.33,-197"/>
<polygon fill="midnightblue" stroke="midnightblue" points="1329.53,-193.5 1319.53,-197 1329.53,-200.5 1329.53,-193.5"/>
</g>
<!-- Node16 -->
<g id="node16" class="node"><title>Node16</title>
<g id="a_node16"><a xlink:href="../../d3/ded/classprolog_1_1terms_1_1Term_a837eb66c18c36b2a0a4ecce8ad7cd144.html#a837eb66c18c36b2a0a4ecce8ad7cd144" target="_top" xlink:title="prolog.terms.Term.fromString">
<polygon fill="none" stroke="black" points="1365,-143.5 1365,-162.5 1509,-162.5 1509,-143.5 1365,-143.5"/>
<text text-anchor="middle" x="1437" y="-150.5" font-family="Helvetica,sans-Serif" font-size="10.00">prolog.terms.Term.fromString</text>
</a>
</g>
</g>
<!-- Node12&#45;&gt;Node16 -->
<g id="edge15" class="edge"><title>Node12&#45;&gt;Node16</title>
<path fill="none" stroke="midnightblue" d="M1325.05,-179.604C1349.34,-173.779 1375.51,-167.505 1396.33,-162.512"/>
<polygon fill="midnightblue" stroke="midnightblue" points="1324.05,-176.245 1315.14,-181.981 1325.68,-183.052 1324.05,-176.245"/>
</g>
<!-- Node15 -->
<g id="node15" class="node"><title>Node15</title>
<g id="a_node15"><a xlink:href="../../d8/d35/classprolog_1_1Init_a0f6db95b70444cd1b933f24ec44814e4.html#a0f6db95b70444cd1b933f24ec44814e4" target="_top" xlink:title="prolog.Init.getGoal">
<polygon fill="none" stroke="black" points="1545,-187.5 1545,-206.5 1641,-206.5 1641,-187.5 1545,-187.5"/>
<text text-anchor="middle" x="1593" y="-194.5" font-family="Helvetica,sans-Serif" font-size="10.00">prolog.Init.getGoal</text>
</a>
</g>
</g>
<!-- Node14&#45;&gt;Node15 -->
<g id="edge14" class="edge"><title>Node14&#45;&gt;Node15</title>
<path fill="none" stroke="midnightblue" d="M1510.08,-197C1521.92,-197 1533.92,-197 1544.94,-197"/>
<polygon fill="midnightblue" stroke="midnightblue" points="1509.75,-193.5 1499.75,-197 1509.75,-200.5 1509.75,-193.5"/>
</g>
<!-- Node17&#45;&gt;Node4 -->
<g id="edge17" class="edge"><title>Node17&#45;&gt;Node4</title>
<path fill="none" stroke="midnightblue" d="M781.53,-65.8605C796.377,-63.4295 811.957,-60.8784 826.376,-58.5174"/>
<polygon fill="midnightblue" stroke="midnightblue" points="780.696,-62.4505 771.393,-67.5205 781.827,-69.3585 780.696,-62.4505"/>
</g>
<!-- Node18&#45;&gt;Node17 -->
<g id="edge19" class="edge"><title>Node18&#45;&gt;Node17</title>
<path fill="none" stroke="midnightblue" d="M615.927,-81.9434C628.686,-81.2835 641.692,-80.6107 653.835,-79.9827"/>
<polygon fill="midnightblue" stroke="midnightblue" points="615.576,-78.4568 605.77,-82.4688 615.937,-85.4475 615.576,-78.4568"/>
</g>
<!-- Node19&#45;&gt;Node3 -->
<g id="edge23" class="edge"><title>Node19&#45;&gt;Node3</title>
<path fill="none" stroke="midnightblue" d="M390.583,-108.63C425.615,-84.7875 492.05,-39.5719 521.192,-19.738"/>
<polygon fill="midnightblue" stroke="midnightblue" points="388.291,-105.957 381.993,-114.477 392.229,-111.743 388.291,-105.957"/>
</g>
<!-- Node19&#45;&gt;Node5 -->
<g id="edge22" class="edge"><title>Node19&#45;&gt;Node5</title>
<path fill="none" stroke="midnightblue" d="M392.814,-138.764C412.086,-149.869 439.701,-165.001 465,-176 477.45,-181.413 491.547,-186.423 503.846,-190.45"/>
<polygon fill="midnightblue" stroke="midnightblue" points="394.473,-135.68 384.07,-133.672 390.95,-141.729 394.473,-135.68"/>
</g>
<!-- Node19&#45;&gt;Node6 -->
<g id="edge21" class="edge"><title>Node19&#45;&gt;Node6</title>
<path fill="none" stroke="midnightblue" d="M423.949,-135.744C472.834,-146.371 545.553,-163.068 608,-181 628.602,-186.916 651.182,-194.429 669.98,-200.976"/>
<polygon fill="midnightblue" stroke="midnightblue" points="424.405,-132.262 413.891,-133.57 422.926,-139.104 424.405,-132.262"/>
</g>
<!-- Node19&#45;&gt;Node17 -->
<g id="edge24" class="edge"><title>Node19&#45;&gt;Node17</title>
<path fill="none" stroke="midnightblue" d="M439.332,-121.813C487.299,-119.496 551.791,-114.742 608,-105 633.311,-100.613 661.409,-92.8196 681.935,-86.5667"/>
<polygon fill="midnightblue" stroke="midnightblue" points="438.88,-118.33 429.05,-122.284 439.2,-125.322 438.88,-118.33"/>
</g>
<!-- Node19&#45;&gt;Node18 -->
<g id="edge25" class="edge"><title>Node19&#45;&gt;Node18</title>
<path fill="none" stroke="midnightblue" d="M420.12,-112.176C443.735,-106.818 471.282,-100.569 493.537,-95.5201"/>
<polygon fill="midnightblue" stroke="midnightblue" points="419.245,-108.785 410.267,-114.411 420.794,-115.612 419.245,-108.785"/>
</g>
</g>
</svg>
