<?xml version="1.0" encoding="UTF-8" standalone="no"?>
<!DOCTYPE svg PUBLIC "-//W3C//DTD SVG 1.1//EN"
 "http://www.w3.org/Graphics/SVG/1.1/DTD/svg11.dtd">
<!-- Generated by graphviz version 2.38.0 (20140413.2041)
 -->
<!-- Title: prolog.io.Lexer.make_var Pages: 1 -->
<svg width="1800pt" height="319pt"
 viewBox="0.00 0.00 1800.00 318.50" xmlns="http://www.w3.org/2000/svg" xmlns:xlink="http://www.w3.org/1999/xlink">
<g id="graph0" class="graph" transform="scale(1 1) rotate(0) translate(4 314.5)">
<title>prolog.io.Lexer.make_var</title>
<!-- Node1 -->
<g id="node1" class="node"><title>Node1</title>
<polygon fill="#bfbfbf" stroke="black" points="0,-114.5 0,-133.5 126,-133.5 126,-114.5 0,-114.5"/>
<text text-anchor="middle" x="63" y="-121.5" font-family="Helvetica,sans-Serif" font-size="10.00">prolog.io.Lexer.make_var</text>
</g>
<!-- Node2 -->
<g id="node2" class="node"><title>Node2</title>
<g id="a_node2"><a xlink:href="../../d9/d79/classprolog_1_1io_1_1Lexer_a9fbdd67572706c48a026047f818f2e7a.html#a9fbdd67572706c48a026047f818f2e7a" target="_top" xlink:title="prolog.io.Lexer.getWord">
<polygon fill="none" stroke="black" points="162,-114.5 162,-133.5 282,-133.5 282,-114.5 162,-114.5"/>
<text text-anchor="middle" x="222" y="-121.5" font-family="Helvetica,sans-Serif" font-size="10.00">prolog.io.Lexer.getWord</text>
</a>
</g>
</g>
<!-- Node1&#45;&gt;Node2 -->
<g id="edge1" class="edge"><title>Node1&#45;&gt;Node2</title>
<path fill="none" stroke="midnightblue" d="M136.129,-124C144.777,-124 153.528,-124 161.96,-124"/>
<polygon fill="midnightblue" stroke="midnightblue" points="136.051,-120.5 126.051,-124 136.051,-127.5 136.051,-120.5"/>
</g>
<!-- Node3 -->
<g id="node3" class="node"><title>Node3</title>
<g id="a_node3"><a xlink:href="../../d9/d79/classprolog_1_1io_1_1Lexer_af90567b8e92b07af09c8f60a587d8404.html#af90567b8e92b07af09c8f60a587d8404" target="_top" xlink:title="prolog.io.Lexer.next">
<polygon fill="none" stroke="black" points="318,-114.5 318,-133.5 420,-133.5 420,-114.5 318,-114.5"/>
<text text-anchor="middle" x="369" y="-121.5" font-family="Helvetica,sans-Serif" font-size="10.00">prolog.io.Lexer.next</text>
</a>
</g>
</g>
<!-- Node2&#45;&gt;Node3 -->
<g id="edge2" class="edge"><title>Node2&#45;&gt;Node3</title>
<path fill="none" stroke="midnightblue" d="M292.657,-124C301.115,-124 309.626,-124 317.726,-124"/>
<polygon fill="midnightblue" stroke="midnightblue" points="292.395,-120.5 282.395,-124 292.395,-127.5 292.395,-120.5"/>
</g>
<!-- Node4 -->
<g id="node4" class="node"><title>Node4</title>
<g id="a_node4"><a xlink:href="../../d7/df1/classprolog_1_1io_1_1Parser_a65d208b0e30e3ff19d769fbb3b0f7247.html#a65d208b0e30e3ff19d769fbb3b0f7247" target="_top" xlink:title="prolog.io.Parser.getArgs">
<polygon fill="none" stroke="black" points="626.5,-0.5 626.5,-19.5 748.5,-19.5 748.5,-0.5 626.5,-0.5"/>
<text text-anchor="middle" x="687.5" y="-7.5" font-family="Helvetica,sans-Serif" font-size="10.00">prolog.io.Parser.getArgs</text>
</a>
</g>
</g>
<!-- Node3&#45;&gt;Node4 -->
<g id="edge3" class="edge"><title>Node3&#45;&gt;Node4</title>
<path fill="none" stroke="midnightblue" d="M381.462,-105.779C395.956,-84.5015 423.04,-50.1636 456,-34 509.283,-7.87043 577.685,-3.88373 626.096,-5.19804"/>
<polygon fill="midnightblue" stroke="midnightblue" points="378.451,-103.988 375.877,-114.266 384.298,-107.837 378.451,-103.988"/>
</g>
<!-- Node6 -->
<g id="node6" class="node"><title>Node6</title>
<g id="a_node6"><a xlink:href="../../d7/df1/classprolog_1_1io_1_1Parser_aa7e461fd858ff34bac99d032f61e52da.html#aa7e461fd858ff34bac99d032f61e52da" target="_top" xlink:title="prolog.io.Parser.getConjCont">
<polygon fill="none" stroke="black" points="616,-190.5 616,-209.5 759,-209.5 759,-190.5 616,-190.5"/>
<text text-anchor="middle" x="687.5" y="-197.5" font-family="Helvetica,sans-Serif" font-size="10.00">prolog.io.Parser.getConjCont</text>
</a>
</g>
</g>
<!-- Node3&#45;&gt;Node6 -->
<g id="edge5" class="edge"><title>Node3&#45;&gt;Node6</title>
<path fill="none" stroke="midnightblue" d="M419.817,-135.962C482.539,-151.024 589.039,-176.597 646.649,-190.431"/>
<polygon fill="midnightblue" stroke="midnightblue" points="420.305,-132.48 409.764,-133.548 418.671,-139.287 420.305,-132.48"/>
</g>
<!-- Node7 -->
<g id="node7" class="node"><title>Node7</title>
<g id="a_node7"><a xlink:href="../../d7/df1/classprolog_1_1io_1_1Parser_a79322090cfbd908b02c83db6c65806d2.html#a79322090cfbd908b02c83db6c65806d2" target="_top" xlink:title="prolog.io.Parser.readClause\lOrEOF">
<polygon fill="none" stroke="black" points="795,-201 795,-231 932,-231 932,-201 795,-201"/>
<text text-anchor="start" x="803" y="-219" font-family="Helvetica,sans-Serif" font-size="10.00">prolog.io.Parser.readClause</text>
<text text-anchor="middle" x="863.5" y="-208" font-family="Helvetica,sans-Serif" font-size="10.00">OrEOF</text>
</a>
</g>
</g>
<!-- Node3&#45;&gt;Node7 -->
<g id="edge28" class="edge"><title>Node3&#45;&gt;Node7</title>
<path fill="none" stroke="midnightblue" d="M392.627,-139.285C409.51,-150.153 433.455,-164.458 456,-174 524.027,-202.793 542.823,-208.905 616,-219 678.959,-227.685 695.451,-219.921 759,-219 770.593,-218.832 782.915,-218.558 794.862,-218.243"/>
<polygon fill="midnightblue" stroke="midnightblue" points="394.311,-136.205 384.028,-133.654 390.476,-142.06 394.311,-136.205"/>
</g>
<!-- Node8 -->
<g id="node8" class="node"><title>Node8</title>
<g id="a_node8"><a xlink:href="../../d7/df1/classprolog_1_1io_1_1Parser_ad0255f716753ec63c0f4e7cf9a8d2d38.html#ad0255f716753ec63c0f4e7cf9a8d2d38" target="_top" xlink:title="Main Parser interface: reads a clause together with variable name information. ">
<polygon fill="none" stroke="black" points="968,-236.5 968,-255.5 1105,-255.5 1105,-236.5 968,-236.5"/>
<text text-anchor="middle" x="1036.5" y="-243.5" font-family="Helvetica,sans-Serif" font-size="10.00">prolog.io.Parser.readClause</text>
</a>
</g>
</g>
<!-- Node3&#45;&gt;Node8 -->
<g id="edge27" class="edge"><title>Node3&#45;&gt;Node8</title>
<path fill="none" stroke="midnightblue" d="M382.844,-141.812C397.996,-161.389 425.072,-192.156 456,-208 631.878,-298.102 878.135,-272.51 983.907,-255.565"/>
<polygon fill="midnightblue" stroke="midnightblue" points="385.555,-139.593 376.75,-133.699 379.957,-143.797 385.555,-139.593"/>
</g>
<!-- Node18 -->
<g id="node18" class="node"><title>Node18</title>
<g id="a_node18"><a xlink:href="../../d7/df1/classprolog_1_1io_1_1Parser_ab9dcde7b1480cd18c6a21e5c88e1a2bd.html#ab9dcde7b1480cd18c6a21e5c88e1a2bd" target="_top" xlink:title="prolog.io.Parser.getList">
<polygon fill="none" stroke="black" points="805,-67.5 805,-86.5 922,-86.5 922,-67.5 805,-67.5"/>
<text text-anchor="middle" x="863.5" y="-74.5" font-family="Helvetica,sans-Serif" font-size="10.00">prolog.io.Parser.getList</text>
</a>
</g>
</g>
<!-- Node3&#45;&gt;Node18 -->
<g id="edge17" class="edge"><title>Node3&#45;&gt;Node18</title>
<path fill="none" stroke="midnightblue" d="M399.203,-109.986C415.56,-102.684 436.529,-94.2127 456,-89 586.428,-54.0833 624.135,-60.4999 759,-67 773.876,-67.717 789.913,-69.0104 804.818,-70.4342"/>
<polygon fill="midnightblue" stroke="midnightblue" points="397.309,-107.003 389.668,-114.343 400.218,-113.37 397.309,-107.003"/>
</g>
<!-- Node19 -->
<g id="node19" class="node"><title>Node19</title>
<g id="a_node19"><a xlink:href="../../d7/df1/classprolog_1_1io_1_1Parser_aa2150bc0ca63050e058a5041b719dd7b.html#aa2150bc0ca63050e058a5041b719dd7b" target="_top" xlink:title="prolog.io.Parser.getListCont">
<polygon fill="none" stroke="black" points="618.5,-76.5 618.5,-95.5 756.5,-95.5 756.5,-76.5 618.5,-76.5"/>
<text text-anchor="middle" x="687.5" y="-83.5" font-family="Helvetica,sans-Serif" font-size="10.00">prolog.io.Parser.getListCont</text>
</a>
</g>
</g>
<!-- Node3&#45;&gt;Node19 -->
<g id="edge19" class="edge"><title>Node3&#45;&gt;Node19</title>
<path fill="none" stroke="midnightblue" d="M417.985,-112.197C430.313,-109.496 443.597,-106.872 456,-105 510.294,-96.8031 572.355,-91.9418 618.393,-89.1915"/>
<polygon fill="midnightblue" stroke="midnightblue" points="416.882,-108.857 407.895,-114.469 418.42,-115.686 416.882,-108.857"/>
</g>
<!-- Node20 -->
<g id="node20" class="node"><title>Node20</title>
<g id="a_node20"><a xlink:href="../../d7/df1/classprolog_1_1io_1_1Parser_ae301f1d607ff1269917a097eda95199a.html#ae301f1d607ff1269917a097eda95199a" target="_top" xlink:title="prolog.io.Parser.getTerm">
<polygon fill="none" stroke="black" points="456,-114.5 456,-133.5 580,-133.5 580,-114.5 456,-114.5"/>
<text text-anchor="middle" x="518" y="-121.5" font-family="Helvetica,sans-Serif" font-size="10.00">prolog.io.Parser.getTerm</text>
</a>
</g>
</g>
<!-- Node3&#45;&gt;Node20 -->
<g id="edge21" class="edge"><title>Node3&#45;&gt;Node20</title>
<path fill="none" stroke="midnightblue" d="M430.312,-124C438.744,-124 447.415,-124 455.861,-124"/>
<polygon fill="midnightblue" stroke="midnightblue" points="430.178,-120.5 420.178,-124 430.178,-127.5 430.178,-120.5"/>
</g>
<!-- Node5 -->
<g id="node5" class="node"><title>Node5</title>
<g id="a_node5"><a xlink:href="../../d7/df1/classprolog_1_1io_1_1Parser_a2266a192306644bbc8e9bb4b4839708e.html#a2266a192306644bbc8e9bb4b4839708e" target="_top" xlink:title="prolog.io.Parser.getTerm">
<polygon fill="none" stroke="black" points="974.5,-39.5 974.5,-58.5 1098.5,-58.5 1098.5,-39.5 974.5,-39.5"/>
<text text-anchor="middle" x="1036.5" y="-46.5" font-family="Helvetica,sans-Serif" font-size="10.00">prolog.io.Parser.getTerm</text>
</a>
</g>
</g>
<!-- Node4&#45;&gt;Node5 -->
<g id="edge4" class="edge"><title>Node4&#45;&gt;Node5</title>
<path fill="none" stroke="midnightblue" d="M758.839,-17.9055C822.13,-25.019 914.18,-35.3647 974.441,-42.1375"/>
<polygon fill="midnightblue" stroke="midnightblue" points="758.875,-14.3876 748.547,-16.7488 758.093,-21.3438 758.875,-14.3876"/>
</g>
<!-- Node6&#45;&gt;Node7 -->
<g id="edge6" class="edge"><title>Node6&#45;&gt;Node7</title>
<path fill="none" stroke="midnightblue" d="M769.117,-207.413C777.767,-208.208 786.502,-209.012 794.977,-209.791"/>
<polygon fill="midnightblue" stroke="midnightblue" points="769.3,-203.915 759.022,-206.485 768.659,-210.886 769.3,-203.915"/>
</g>
<!-- Node7&#45;&gt;Node8 -->
<g id="edge7" class="edge"><title>Node7&#45;&gt;Node8</title>
<path fill="none" stroke="midnightblue" d="M942.131,-229.619C955.362,-231.941 968.847,-234.306 981.303,-236.492"/>
<polygon fill="midnightblue" stroke="midnightblue" points="942.538,-226.138 932.084,-227.857 941.328,-233.032 942.538,-226.138"/>
</g>
<!-- Node9 -->
<g id="node9" class="node"><title>Node9</title>
<g id="a_node9"><a xlink:href="../../da/dd9/classprolog_1_1fluents_1_1DataBase_a83885e10b61d6bf129307d9bf50d93de.html#a83885e10b61d6bf129307d9bf50d93de" target="_top" xlink:title="prolog.fluents.DataBase.apply\l_parser">
<polygon fill="none" stroke="black" points="1141,-280 1141,-310 1289,-310 1289,-280 1141,-280"/>
<text text-anchor="start" x="1149" y="-298" font-family="Helvetica,sans-Serif" font-size="10.00">prolog.fluents.DataBase.apply</text>
<text text-anchor="middle" x="1215" y="-287" font-family="Helvetica,sans-Serif" font-size="10.00">_parser</text>
</a>
</g>
</g>
<!-- Node8&#45;&gt;Node9 -->
<g id="edge8" class="edge"><title>Node8&#45;&gt;Node9</title>
<path fill="none" stroke="midnightblue" d="M1081.72,-258.278C1105.41,-264.854 1134.79,-273.009 1159.84,-279.963"/>
<polygon fill="midnightblue" stroke="midnightblue" points="1082.52,-254.867 1071.95,-255.564 1080.65,-261.612 1082.52,-254.867"/>
</g>
<!-- Node11 -->
<g id="node11" class="node"><title>Node11</title>
<g id="a_node11"><a xlink:href="../../d4/d09/classprolog_1_1io_1_1ClauseReader_a805e9a5ebc401e1099f39af9b3f6fb47.html#a805e9a5ebc401e1099f39af9b3f6fb47" target="_top" xlink:title="prolog.io.ClauseReader.get\lElement">
<polygon fill="none" stroke="black" points="1147.5,-231 1147.5,-261 1282.5,-261 1282.5,-231 1147.5,-231"/>
<text text-anchor="start" x="1155.5" y="-249" font-family="Helvetica,sans-Serif" font-size="10.00">prolog.io.ClauseReader.get</text>
<text text-anchor="middle" x="1215" y="-238" font-family="Helvetica,sans-Serif" font-size="10.00">Element</text>
</a>
</g>
</g>
<!-- Node8&#45;&gt;Node11 -->
<g id="edge10" class="edge"><title>Node8&#45;&gt;Node11</title>
<path fill="none" stroke="midnightblue" d="M1115.37,-246C1126.03,-246 1136.89,-246 1147.32,-246"/>
<polygon fill="midnightblue" stroke="midnightblue" points="1115.23,-242.5 1105.23,-246 1115.23,-249.5 1115.23,-242.5"/>
</g>
<!-- Node12 -->
<g id="node12" class="node"><title>Node12</title>
<g id="a_node12"><a xlink:href="../../d7/df1/classprolog_1_1io_1_1Parser_acd7f700bcb96620b8c6770c2fcae5802.html#acd7f700bcb96620b8c6770c2fcae5802" target="_top" xlink:title="prolog.io.Parser.clsFrom\lString">
<polygon fill="none" stroke="black" points="1153.5,-182 1153.5,-212 1276.5,-212 1276.5,-182 1153.5,-182"/>
<text text-anchor="start" x="1161.5" y="-200" font-family="Helvetica,sans-Serif" font-size="10.00">prolog.io.Parser.clsFrom</text>
<text text-anchor="middle" x="1215" y="-189" font-family="Helvetica,sans-Serif" font-size="10.00">String</text>
</a>
</g>
</g>
<!-- Node8&#45;&gt;Node12 -->
<g id="edge11" class="edge"><title>Node8&#45;&gt;Node12</title>
<path fill="none" stroke="midnightblue" d="M1081.72,-233.722C1105.41,-227.146 1134.79,-218.991 1159.84,-212.037"/>
<polygon fill="midnightblue" stroke="midnightblue" points="1080.65,-230.388 1071.95,-236.436 1082.52,-237.133 1080.65,-230.388"/>
</g>
<!-- Node10 -->
<g id="node10" class="node"><title>Node10</title>
<g id="a_node10"><a xlink:href="../../da/dd9/classprolog_1_1fluents_1_1DataBase_af8b26948ded7bba6386b984f463bf166.html#af8b26948ded7bba6386b984f463bf166" target="_top" xlink:title="prolog.fluents.DataBase.stream\lToProg">
<polygon fill="none" stroke="black" points="1325,-280 1325,-310 1480,-310 1480,-280 1325,-280"/>
<text text-anchor="start" x="1333" y="-298" font-family="Helvetica,sans-Serif" font-size="10.00">prolog.fluents.DataBase.stream</text>
<text text-anchor="middle" x="1402.5" y="-287" font-family="Helvetica,sans-Serif" font-size="10.00">ToProg</text>
</a>
</g>
</g>
<!-- Node9&#45;&gt;Node10 -->
<g id="edge9" class="edge"><title>Node9&#45;&gt;Node10</title>
<path fill="none" stroke="midnightblue" d="M1299.06,-295C1307.65,-295 1316.34,-295 1324.86,-295"/>
<polygon fill="midnightblue" stroke="midnightblue" points="1299.05,-291.5 1289.05,-295 1299.05,-298.5 1299.05,-291.5"/>
</g>
<!-- Node13 -->
<g id="node13" class="node"><title>Node13</title>
<g id="a_node13"><a xlink:href="../../d6/dc4/classprolog_1_1terms_1_1Clause_a253e30217e7c206f42b947ba0dc7d754.html#a253e30217e7c206f42b947ba0dc7d754" target="_top" xlink:title="Extracts a clause from its String representation. ">
<polygon fill="none" stroke="black" points="1334.5,-182 1334.5,-212 1470.5,-212 1470.5,-182 1334.5,-182"/>
<text text-anchor="start" x="1342.5" y="-200" font-family="Helvetica,sans-Serif" font-size="10.00">prolog.terms.Clause.clause</text>
<text text-anchor="middle" x="1402.5" y="-189" font-family="Helvetica,sans-Serif" font-size="10.00">FromString</text>
</a>
</g>
</g>
<!-- Node12&#45;&gt;Node13 -->
<g id="edge12" class="edge"><title>Node12&#45;&gt;Node13</title>
<path fill="none" stroke="midnightblue" d="M1286.82,-197C1302.37,-197 1318.8,-197 1334.21,-197"/>
<polygon fill="midnightblue" stroke="midnightblue" points="1286.74,-193.5 1276.74,-197 1286.74,-200.5 1286.74,-193.5"/>
</g>
<!-- Node14 -->
<g id="node14" class="node"><title>Node14</title>
<g id="a_node14"><a xlink:href="../../d6/dc4/classprolog_1_1terms_1_1Clause_a59a965be3fc2e88226d5202dca1b2a26.html#a59a965be3fc2e88226d5202dca1b2a26" target="_top" xlink:title="Constructs a clause by parsing its string representation. ">
<polygon fill="none" stroke="black" points="1519,-231.5 1519,-250.5 1657,-250.5 1657,-231.5 1519,-231.5"/>
<text text-anchor="middle" x="1588" y="-238.5" font-family="Helvetica,sans-Serif" font-size="10.00">prolog.terms.Clause.Clause</text>
</a>
</g>
</g>
<!-- Node13&#45;&gt;Node14 -->
<g id="edge13" class="edge"><title>Node13&#45;&gt;Node14</title>
<path fill="none" stroke="midnightblue" d="M1476.05,-214.396C1500.34,-220.221 1526.51,-226.495 1547.33,-231.488"/>
<polygon fill="midnightblue" stroke="midnightblue" points="1476.68,-210.948 1466.14,-212.019 1475.05,-217.755 1476.68,-210.948"/>
</g>
<!-- Node15 -->
<g id="node15" class="node"><title>Node15</title>
<g id="a_node15"><a xlink:href="../../d6/dc4/classprolog_1_1terms_1_1Clause_aff298dbb79a27341afb0860f82ad1464.html#aff298dbb79a27341afb0860f82ad1464" target="_top" xlink:title="prolog.terms.Clause.goal\lFromString">
<polygon fill="none" stroke="black" points="1525.5,-182 1525.5,-212 1650.5,-212 1650.5,-182 1525.5,-182"/>
<text text-anchor="start" x="1533.5" y="-200" font-family="Helvetica,sans-Serif" font-size="10.00">prolog.terms.Clause.goal</text>
<text text-anchor="middle" x="1588" y="-189" font-family="Helvetica,sans-Serif" font-size="10.00">FromString</text>
</a>
</g>
</g>
<!-- Node13&#45;&gt;Node15 -->
<g id="edge14" class="edge"><title>Node13&#45;&gt;Node15</title>
<path fill="none" stroke="midnightblue" d="M1480.73,-197C1495.61,-197 1511.02,-197 1525.33,-197"/>
<polygon fill="midnightblue" stroke="midnightblue" points="1480.53,-193.5 1470.53,-197 1480.53,-200.5 1480.53,-193.5"/>
</g>
<!-- Node17 -->
<g id="node17" class="node"><title>Node17</title>
<g id="a_node17"><a xlink:href="../../d3/ded/classprolog_1_1terms_1_1Term_a837eb66c18c36b2a0a4ecce8ad7cd144.html#a837eb66c18c36b2a0a4ecce8ad7cd144" target="_top" xlink:title="prolog.terms.Term.fromString">
<polygon fill="none" stroke="black" points="1516,-143.5 1516,-162.5 1660,-162.5 1660,-143.5 1516,-143.5"/>
<text text-anchor="middle" x="1588" y="-150.5" font-family="Helvetica,sans-Serif" font-size="10.00">prolog.terms.Term.fromString</text>
</a>
</g>
</g>
<!-- Node13&#45;&gt;Node17 -->
<g id="edge16" class="edge"><title>Node13&#45;&gt;Node17</title>
<path fill="none" stroke="midnightblue" d="M1476.05,-179.604C1500.34,-173.779 1526.51,-167.505 1547.33,-162.512"/>
<polygon fill="midnightblue" stroke="midnightblue" points="1475.05,-176.245 1466.14,-181.981 1476.68,-183.052 1475.05,-176.245"/>
</g>
<!-- Node16 -->
<g id="node16" class="node"><title>Node16</title>
<g id="a_node16"><a xlink:href="../../d8/d35/classprolog_1_1Init_a0f6db95b70444cd1b933f24ec44814e4.html#a0f6db95b70444cd1b933f24ec44814e4" target="_top" xlink:title="prolog.Init.getGoal">
<polygon fill="none" stroke="black" points="1696,-187.5 1696,-206.5 1792,-206.5 1792,-187.5 1696,-187.5"/>
<text text-anchor="middle" x="1744" y="-194.5" font-family="Helvetica,sans-Serif" font-size="10.00">prolog.Init.getGoal</text>
</a>
</g>
</g>
<!-- Node15&#45;&gt;Node16 -->
<g id="edge15" class="edge"><title>Node15&#45;&gt;Node16</title>
<path fill="none" stroke="midnightblue" d="M1661.08,-197C1672.92,-197 1684.92,-197 1695.94,-197"/>
<polygon fill="midnightblue" stroke="midnightblue" points="1660.75,-193.5 1650.75,-197 1660.75,-200.5 1660.75,-193.5"/>
</g>
<!-- Node18&#45;&gt;Node5 -->
<g id="edge18" class="edge"><title>Node18&#45;&gt;Node5</title>
<path fill="none" stroke="midnightblue" d="M932.53,-65.8605C947.377,-63.4295 962.957,-60.8784 977.376,-58.5174"/>
<polygon fill="midnightblue" stroke="midnightblue" points="931.696,-62.4505 922.393,-67.5205 932.827,-69.3585 931.696,-62.4505"/>
</g>
<!-- Node19&#45;&gt;Node18 -->
<g id="edge20" class="edge"><title>Node19&#45;&gt;Node18</title>
<path fill="none" stroke="midnightblue" d="M766.927,-81.9434C779.686,-81.2835 792.692,-80.6107 804.835,-79.9827"/>
<polygon fill="midnightblue" stroke="midnightblue" points="766.576,-78.4568 756.77,-82.4688 766.937,-85.4475 766.576,-78.4568"/>
</g>
<!-- Node20&#45;&gt;Node4 -->
<g id="edge24" class="edge"><title>Node20&#45;&gt;Node4</title>
<path fill="none" stroke="midnightblue" d="M541.583,-108.63C576.615,-84.7875 643.05,-39.5719 672.192,-19.738"/>
<polygon fill="midnightblue" stroke="midnightblue" points="539.291,-105.957 532.993,-114.477 543.229,-111.743 539.291,-105.957"/>
</g>
<!-- Node20&#45;&gt;Node6 -->
<g id="edge23" class="edge"><title>Node20&#45;&gt;Node6</title>
<path fill="none" stroke="midnightblue" d="M543.814,-138.764C563.086,-149.869 590.701,-165.001 616,-176 628.45,-181.413 642.547,-186.423 654.846,-190.45"/>
<polygon fill="midnightblue" stroke="midnightblue" points="545.473,-135.68 535.07,-133.672 541.95,-141.729 545.473,-135.68"/>
</g>
<!-- Node20&#45;&gt;Node7 -->
<g id="edge22" class="edge"><title>Node20&#45;&gt;Node7</title>
<path fill="none" stroke="midnightblue" d="M574.949,-135.744C623.834,-146.371 696.553,-163.068 759,-181 779.602,-186.916 802.182,-194.429 820.98,-200.976"/>
<polygon fill="midnightblue" stroke="midnightblue" points="575.405,-132.262 564.891,-133.57 573.926,-139.104 575.405,-132.262"/>
</g>
<!-- Node20&#45;&gt;Node18 -->
<g id="edge25" class="edge"><title>Node20&#45;&gt;Node18</title>
<path fill="none" stroke="midnightblue" d="M590.332,-121.813C638.299,-119.496 702.791,-114.742 759,-105 784.311,-100.613 812.409,-92.8196 832.935,-86.5667"/>
<polygon fill="midnightblue" stroke="midnightblue" points="589.88,-118.33 580.05,-122.284 590.2,-125.322 589.88,-118.33"/>
</g>
<!-- Node20&#45;&gt;Node19 -->
<g id="edge26" class="edge"><title>Node20&#45;&gt;Node19</title>
<path fill="none" stroke="midnightblue" d="M571.12,-112.176C594.735,-106.818 622.282,-100.569 644.537,-95.5201"/>
<polygon fill="midnightblue" stroke="midnightblue" points="570.245,-108.785 561.267,-114.411 571.794,-115.612 570.245,-108.785"/>
</g>
</g>
</svg>
