<?xml version="1.0" encoding="UTF-8" standalone="no"?>
<!DOCTYPE svg PUBLIC "-//W3C//DTD SVG 1.1//EN"
 "http://www.w3.org/Graphics/SVG/1.1/DTD/svg11.dtd">
<!-- Generated by graphviz version 2.38.0 (20140413.2041)
 -->
<!-- Title: prolog.terms.SystemObject Pages: 1 -->
<svg width="144pt" height="733pt"
 viewBox="0.00 0.00 144.00 733.00" xmlns="http://www.w3.org/2000/svg" xmlns:xlink="http://www.w3.org/1999/xlink">
<g id="graph0" class="graph" transform="scale(1 1) rotate(0) translate(4 729)">
<title>prolog.terms.SystemObject</title>
<!-- Node1 -->
<g id="node1" class="node"><title>Node1</title>
<polygon fill="#bfbfbf" stroke="black" points="0,-0.5 0,-112.5 136,-112.5 136,-0.5 0,-0.5"/>
<text text-anchor="middle" x="68" y="-100.5" font-family="Helvetica,sans-Serif" font-size="10.00">prolog.terms.SystemObject</text>
<polyline fill="none" stroke="black" points="0,-93.5 136,-93.5 "/>
<text text-anchor="start" x="8" y="-81.5" font-family="Helvetica,sans-Serif" font-size="10.00">~ ctr</text>
<text text-anchor="start" x="8" y="-70.5" font-family="Helvetica,sans-Serif" font-size="10.00">&#45; ordinal</text>
<polyline fill="none" stroke="black" points="0,-63.5 136,-63.5 "/>
<text text-anchor="start" x="8" y="-51.5" font-family="Helvetica,sans-Serif" font-size="10.00">+ SystemObject()</text>
<text text-anchor="start" x="8" y="-40.5" font-family="Helvetica,sans-Serif" font-size="10.00">+ name()</text>
<text text-anchor="start" x="8" y="-29.5" font-family="Helvetica,sans-Serif" font-size="10.00">+ toString()</text>
<text text-anchor="start" x="8" y="-18.5" font-family="Helvetica,sans-Serif" font-size="10.00">+ getArity()</text>
<text text-anchor="start" x="8" y="-7.5" font-family="Helvetica,sans-Serif" font-size="10.00">~ bind_to()</text>
</g>
<!-- Node2 -->
<g id="node2" class="node"><title>Node2</title>
<g id="a_node2"><a xlink:href="../../d4/de0/classprolog_1_1terms_1_1Nonvar.html" target="_top" xlink:title="Part of the Prolog Term hierarchy. ">
<polygon fill="none" stroke="black" points="15.5,-149.5 15.5,-239.5 120.5,-239.5 120.5,-149.5 15.5,-149.5"/>
<text text-anchor="middle" x="68" y="-227.5" font-family="Helvetica,sans-Serif" font-size="10.00">prolog.terms.Nonvar</text>
<polyline fill="none" stroke="black" points="15.5,-220.5 120.5,-220.5 "/>
<text text-anchor="middle" x="68" y="-208.5" font-family="Helvetica,sans-Serif" font-size="10.00"> </text>
<polyline fill="none" stroke="black" points="15.5,-201.5 120.5,-201.5 "/>
<text text-anchor="start" x="23.5" y="-189.5" font-family="Helvetica,sans-Serif" font-size="10.00">+ name()</text>
<text text-anchor="start" x="23.5" y="-178.5" font-family="Helvetica,sans-Serif" font-size="10.00">~ bind_to()</text>
<text text-anchor="start" x="23.5" y="-167.5" font-family="Helvetica,sans-Serif" font-size="10.00">~ unify_to()</text>
<text text-anchor="start" x="23.5" y="-156.5" font-family="Helvetica,sans-Serif" font-size="10.00">~ listify()</text>
</a>
</g>
</g>
<!-- Node2&#45;&gt;Node1 -->
<g id="edge1" class="edge"><title>Node2&#45;&gt;Node1</title>
<path fill="none" stroke="midnightblue" d="M68,-139.312C68,-130.611 68,-121.595 68,-112.867"/>
<polygon fill="none" stroke="midnightblue" points="64.5001,-139.345 68,-149.345 71.5001,-139.345 64.5001,-139.345"/>
</g>
<!-- Node3 -->
<g id="node3" class="node"><title>Node3</title>
<g id="a_node3"><a xlink:href="../../d3/ded/classprolog_1_1terms_1_1Term.html" target="_top" xlink:title="Top element of the Prolog term hierarchy. ">
<polygon fill="none" stroke="black" points="19,-276.5 19,-630.5 117,-630.5 117,-276.5 19,-276.5"/>
<text text-anchor="middle" x="68" y="-618.5" font-family="Helvetica,sans-Serif" font-size="10.00">prolog.terms.Term</text>
<polyline fill="none" stroke="black" points="19,-611.5 117,-611.5 "/>
<text text-anchor="start" x="27" y="-599.5" font-family="Helvetica,sans-Serif" font-size="10.00">+ JAVA</text>
<text text-anchor="start" x="27" y="-588.5" font-family="Helvetica,sans-Serif" font-size="10.00">+ REAL</text>
<text text-anchor="start" x="27" y="-577.5" font-family="Helvetica,sans-Serif" font-size="10.00">+ INT</text>
<text text-anchor="start" x="27" y="-566.5" font-family="Helvetica,sans-Serif" font-size="10.00">+ VAR</text>
<text text-anchor="start" x="27" y="-555.5" font-family="Helvetica,sans-Serif" font-size="10.00">+ CONST</text>
<polyline fill="none" stroke="black" points="19,-548.5 117,-548.5 "/>
<text text-anchor="start" x="27" y="-536.5" font-family="Helvetica,sans-Serif" font-size="10.00">+ getArity()</text>
<text text-anchor="start" x="27" y="-525.5" font-family="Helvetica,sans-Serif" font-size="10.00">+ ref()</text>
<text text-anchor="start" x="27" y="-514.5" font-family="Helvetica,sans-Serif" font-size="10.00">+ token()</text>
<text text-anchor="start" x="27" y="-503.5" font-family="Helvetica,sans-Serif" font-size="10.00">+ toClause()</text>
<text text-anchor="start" x="27" y="-492.5" font-family="Helvetica,sans-Serif" font-size="10.00">+ matches()</text>
<text text-anchor="start" x="27" y="-481.5" font-family="Helvetica,sans-Serif" font-size="10.00">+ matches()</text>
<text text-anchor="start" x="27" y="-470.5" font-family="Helvetica,sans-Serif" font-size="10.00">+ matching_copy()</text>
<text text-anchor="start" x="27" y="-459.5" font-family="Helvetica,sans-Serif" font-size="10.00">+ copy()</text>
<text text-anchor="start" x="27" y="-448.5" font-family="Helvetica,sans-Serif" font-size="10.00">+ varsOf()</text>
<text text-anchor="start" x="27" y="-437.5" font-family="Helvetica,sans-Serif" font-size="10.00">+ numbervars()</text>
<text text-anchor="start" x="27" y="-426.5" font-family="Helvetica,sans-Serif" font-size="10.00">and 6 more...</text>
<text text-anchor="start" x="27" y="-415.5" font-family="Helvetica,sans-Serif" font-size="10.00">+ fromString()</text>
<text text-anchor="start" x="27" y="-404.5" font-family="Helvetica,sans-Serif" font-size="10.00">+ charsToString()</text>
<text text-anchor="start" x="27" y="-393.5" font-family="Helvetica,sans-Serif" font-size="10.00">~ bind_to()</text>
<text text-anchor="start" x="27" y="-382.5" font-family="Helvetica,sans-Serif" font-size="10.00">~ unify_to()</text>
<text text-anchor="start" x="27" y="-371.5" font-family="Helvetica,sans-Serif" font-size="10.00">~ toTerm()</text>
<text text-anchor="start" x="27" y="-360.5" font-family="Helvetica,sans-Serif" font-size="10.00">~ isClause()</text>
<text text-anchor="start" x="27" y="-349.5" font-family="Helvetica,sans-Serif" font-size="10.00">~ reaction()</text>
<text text-anchor="start" x="27" y="-338.5" font-family="Helvetica,sans-Serif" font-size="10.00">~ action()</text>
<text text-anchor="start" x="27" y="-327.5" font-family="Helvetica,sans-Serif" font-size="10.00">~ exec()</text>
<text text-anchor="start" x="27" y="-316.5" font-family="Helvetica,sans-Serif" font-size="10.00">~ stringToChars()</text>
<text text-anchor="start" x="27" y="-305.5" font-family="Helvetica,sans-Serif" font-size="10.00"># unify()</text>
<text text-anchor="start" x="27" y="-294.5" font-family="Helvetica,sans-Serif" font-size="10.00"># undo()</text>
<text text-anchor="start" x="27" y="-283.5" font-family="Helvetica,sans-Serif" font-size="10.00"># exec()</text>
</a>
</g>
</g>
<!-- Node3&#45;&gt;Node2 -->
<g id="edge2" class="edge"><title>Node3&#45;&gt;Node2</title>
<path fill="none" stroke="midnightblue" d="M68,-266.431C68,-256.975 68,-248.043 68,-239.912"/>
<polygon fill="none" stroke="midnightblue" points="64.5001,-266.464 68,-276.464 71.5001,-266.464 64.5001,-266.464"/>
</g>
<!-- Node4 -->
<g id="node4" class="node"><title>Node4</title>
<polygon fill="none" stroke="#bfbfbf" points="10.5,-667.5 10.5,-724.5 55.5,-724.5 55.5,-667.5 10.5,-667.5"/>
<text text-anchor="middle" x="33" y="-712.5" font-family="Helvetica,sans-Serif" font-size="10.00">Object</text>
<polyline fill="none" stroke="#bfbfbf" points="10.5,-705.5 55.5,-705.5 "/>
<text text-anchor="middle" x="33" y="-693.5" font-family="Helvetica,sans-Serif" font-size="10.00"> </text>
<polyline fill="none" stroke="#bfbfbf" points="10.5,-686.5 55.5,-686.5 "/>
<text text-anchor="middle" x="33" y="-674.5" font-family="Helvetica,sans-Serif" font-size="10.00"> </text>
</g>
<!-- Node4&#45;&gt;Node3 -->
<g id="edge3" class="edge"><title>Node4&#45;&gt;Node3</title>
<path fill="none" stroke="midnightblue" d="M38.4653,-657.446C39.6323,-649.426 40.9379,-640.455 42.3327,-630.871"/>
<polygon fill="none" stroke="midnightblue" points="34.9916,-657.012 37.0149,-667.412 41.9187,-658.02 34.9916,-657.012"/>
</g>
<!-- Node5 -->
<g id="node5" class="node"><title>Node5</title>
<polygon fill="none" stroke="#bfbfbf" points="74,-667.5 74,-724.5 134,-724.5 134,-667.5 74,-667.5"/>
<text text-anchor="middle" x="104" y="-712.5" font-family="Helvetica,sans-Serif" font-size="10.00">Cloneable</text>
<polyline fill="none" stroke="#bfbfbf" points="74,-705.5 134,-705.5 "/>
<text text-anchor="middle" x="104" y="-693.5" font-family="Helvetica,sans-Serif" font-size="10.00"> </text>
<polyline fill="none" stroke="#bfbfbf" points="74,-686.5 134,-686.5 "/>
<text text-anchor="middle" x="104" y="-674.5" font-family="Helvetica,sans-Serif" font-size="10.00"> </text>
</g>
<!-- Node5&#45;&gt;Node3 -->
<g id="edge4" class="edge"><title>Node5&#45;&gt;Node3</title>
<path fill="none" stroke="midnightblue" d="M98.3786,-657.446C97.1782,-649.426 95.8353,-640.455 94.4007,-630.871"/>
<polygon fill="none" stroke="midnightblue" points="94.9284,-658.04 99.8703,-667.412 101.851,-657.004 94.9284,-658.04"/>
</g>
</g>
</svg>
