<?xml version="1.0" encoding="UTF-8" standalone="no"?>
<!DOCTYPE svg PUBLIC "-//W3C//DTD SVG 1.1//EN"
 "http://www.w3.org/Graphics/SVG/1.1/DTD/svg11.dtd">
<!-- Generated by graphviz version 2.38.0 (20140413.2041)
 -->
<!-- Title: prolog.fluents.BlackBoard.pick Pages: 1 -->
<svg width="1183pt" height="218pt"
 viewBox="0.00 0.00 1183.00 218.00" xmlns="http://www.w3.org/2000/svg" xmlns:xlink="http://www.w3.org/1999/xlink">
<g id="graph0" class="graph" transform="scale(1 1) rotate(0) translate(4 214)">
<title>prolog.fluents.BlackBoard.pick</title>
<!-- Node1 -->
<g id="node1" class="node"><title>Node1</title>
<polygon fill="#bfbfbf" stroke="black" points="0,-76.5 0,-95.5 149,-95.5 149,-76.5 0,-76.5"/>
<text text-anchor="middle" x="74.5" y="-83.5" font-family="Helvetica,sans-Serif" font-size="10.00">prolog.fluents.BlackBoard.pick</text>
</g>
<!-- Node2 -->
<g id="node2" class="node"><title>Node2</title>
<g id="a_node2"><a xlink:href="../../de/d23/classprolog_1_1fluents_1_1Queue_a287302e64fec17ff6cad3f51f8c4bd12.html#a287302e64fec17ff6cad3f51f8c4bd12" target="_top" xlink:title="Removes the first element of the queue. ">
<polygon fill="none" stroke="black" points="195.5,-95.5 195.5,-114.5 320.5,-114.5 320.5,-95.5 195.5,-95.5"/>
<text text-anchor="middle" x="258" y="-102.5" font-family="Helvetica,sans-Serif" font-size="10.00">prolog.fluents.Queue.deq</text>
</a>
</g>
</g>
<!-- Node1&#45;&gt;Node2 -->
<g id="edge1" class="edge"><title>Node1&#45;&gt;Node2</title>
<path fill="none" stroke="midnightblue" d="M149.061,-93.7006C160.918,-94.9418 173.18,-96.2255 184.999,-97.4627"/>
<polygon fill="midnightblue" stroke="midnightblue" points="184.94,-100.976 195.25,-98.5358 185.668,-94.0136 184.94,-100.976"/>
</g>
<!-- Node14 -->
<g id="node14" class="node"><title>Node14</title>
<g id="a_node14"><a xlink:href="../../de/d23/classprolog_1_1fluents_1_1Queue_a52873d14be9527f50ced14fe5d05132b.html#a52873d14be9527f50ced14fe5d05132b" target="_top" xlink:title="prolog.fluents.Queue.isEmpty">
<polygon fill="none" stroke="black" points="185,-57.5 185,-76.5 331,-76.5 331,-57.5 185,-57.5"/>
<text text-anchor="middle" x="258" y="-64.5" font-family="Helvetica,sans-Serif" font-size="10.00">prolog.fluents.Queue.isEmpty</text>
</a>
</g>
</g>
<!-- Node1&#45;&gt;Node14 -->
<g id="edge17" class="edge"><title>Node1&#45;&gt;Node14</title>
<path fill="none" stroke="midnightblue" d="M149.061,-78.2994C157.537,-77.4121 166.22,-76.5032 174.8,-75.605"/>
<polygon fill="midnightblue" stroke="midnightblue" points="175.225,-79.0797 184.806,-74.5575 174.496,-72.1177 175.225,-79.0797"/>
</g>
<!-- Node3 -->
<g id="node3" class="node"><title>Node3</title>
<g id="a_node3"><a xlink:href="../../de/d23/classprolog_1_1fluents_1_1Queue_a897146b8e89a4532bbd63061d1a87144.html#a897146b8e89a4532bbd63061d1a87144" target="_top" xlink:title="prolog.fluents.Queue.count">
<polygon fill="none" stroke="black" points="732,-0.5 732,-19.5 866,-19.5 866,-0.5 732,-0.5"/>
<text text-anchor="middle" x="799" y="-7.5" font-family="Helvetica,sans-Serif" font-size="10.00">prolog.fluents.Queue.count</text>
</a>
</g>
</g>
<!-- Node2&#45;&gt;Node3 -->
<g id="edge2" class="edge"><title>Node2&#45;&gt;Node3</title>
<path fill="none" stroke="midnightblue" d="M295.267,-95.4622C306.703,-92.446 319.382,-89.0928 331,-86 427.055,-60.4298 448.982,-44.519 547,-28 605.139,-18.2019 671.733,-13.732 721.711,-11.6955"/>
<polygon fill="midnightblue" stroke="midnightblue" points="721.937,-15.1895 731.796,-11.3083 721.669,-8.19464 721.937,-15.1895"/>
</g>
<!-- Node4 -->
<g id="node4" class="node"><title>Node4</title>
<g id="a_node4"><a xlink:href="../../de/d23/classprolog_1_1fluents_1_1Queue_a16816604313a1e73e9d8845cdd4cbf8a.html#a16816604313a1e73e9d8845cdd4cbf8a" target="_top" xlink:title="Dynamically resizes the queue. ">
<polygon fill="none" stroke="black" points="367,-95.5 367,-114.5 511,-114.5 511,-95.5 367,-95.5"/>
<text text-anchor="middle" x="439" y="-102.5" font-family="Helvetica,sans-Serif" font-size="10.00">prolog.fluents.Queue.requeue</text>
</a>
</g>
</g>
<!-- Node2&#45;&gt;Node4 -->
<g id="edge3" class="edge"><title>Node2&#45;&gt;Node4</title>
<path fill="none" stroke="midnightblue" d="M320.602,-105C332.216,-105 344.526,-105 356.636,-105"/>
<polygon fill="midnightblue" stroke="midnightblue" points="356.742,-108.5 366.742,-105 356.742,-101.5 356.742,-108.5"/>
</g>
<!-- Node13 -->
<g id="node13" class="node"><title>Node13</title>
<g id="a_node13"><a xlink:href="../../de/d23/classprolog_1_1fluents_1_1Queue_a3d1135124c700679bbd665d253dd9f0f.html#a3d1135124c700679bbd665d253dd9f0f" target="_top" xlink:title="prolog.fluents.Queue.inc">
<polygon fill="none" stroke="black" points="908,-190.5 908,-209.5 1030,-209.5 1030,-190.5 908,-190.5"/>
<text text-anchor="middle" x="969" y="-197.5" font-family="Helvetica,sans-Serif" font-size="10.00">prolog.fluents.Queue.inc</text>
</a>
</g>
</g>
<!-- Node2&#45;&gt;Node13 -->
<g id="edge16" class="edge"><title>Node2&#45;&gt;Node13</title>
<path fill="none" stroke="midnightblue" d="M295.642,-114.537C350.178,-128.53 456.048,-154.919 547,-173 626.046,-188.714 645.667,-195.535 726,-202 790.68,-207.205 807.115,-202.676 872,-202 880.327,-201.913 889.059,-201.784 897.722,-201.633"/>
<polygon fill="midnightblue" stroke="midnightblue" points="897.897,-205.13 907.831,-201.446 897.768,-198.131 897.897,-205.13"/>
</g>
<!-- Node4&#45;&gt;Node3 -->
<g id="edge4" class="edge"><title>Node4&#45;&gt;Node3</title>
<path fill="none" stroke="midnightblue" d="M464.381,-95.4135C485.896,-87.1778 518.222,-75.3462 547,-67 611.577,-48.2713 686.955,-31.867 738.127,-21.5249"/>
<polygon fill="midnightblue" stroke="midnightblue" points="738.912,-24.9372 748.029,-19.5384 737.535,-18.074 738.912,-24.9372"/>
</g>
<!-- Node5 -->
<g id="node5" class="node"><title>Node5</title>
<g id="a_node5"><a xlink:href="../../d4/dc2/classprolog_1_1io_1_1IO_aaa553b2e5bb8b5de129d38fe67293316.html#aaa553b2e5bb8b5de129d38fe67293316" target="_top" xlink:title="prolog.io.IO.trace">
<polygon fill="none" stroke="black" points="572.5,-114.5 572.5,-133.5 664.5,-133.5 664.5,-114.5 572.5,-114.5"/>
<text text-anchor="middle" x="618.5" y="-121.5" font-family="Helvetica,sans-Serif" font-size="10.00">prolog.io.IO.trace</text>
</a>
</g>
</g>
<!-- Node4&#45;&gt;Node5 -->
<g id="edge5" class="edge"><title>Node4&#45;&gt;Node5</title>
<path fill="none" stroke="midnightblue" d="M511.173,-112.619C528.105,-114.431 545.925,-116.338 562.034,-118.063"/>
<polygon fill="midnightblue" stroke="midnightblue" points="562.031,-121.582 572.347,-119.167 562.776,-114.622 562.031,-121.582"/>
</g>
<!-- Node11 -->
<g id="node11" class="node"><title>Node11</title>
<g id="a_node11"><a xlink:href="../../de/d23/classprolog_1_1fluents_1_1Queue_af00e19e476afb783189f3ded5c1af564.html#af00e19e476afb783189f3ded5c1af564" target="_top" xlink:title="prolog.fluents.Queue.toString">
<polygon fill="none" stroke="black" points="547,-76.5 547,-95.5 690,-95.5 690,-76.5 547,-76.5"/>
<text text-anchor="middle" x="618.5" y="-83.5" font-family="Helvetica,sans-Serif" font-size="10.00">prolog.fluents.Queue.toString</text>
</a>
</g>
</g>
<!-- Node4&#45;&gt;Node11 -->
<g id="edge11" class="edge"><title>Node4&#45;&gt;Node11</title>
<path fill="none" stroke="midnightblue" d="M511.173,-97.3815C519.631,-96.4762 528.31,-95.5471 536.887,-94.629"/>
<polygon fill="midnightblue" stroke="midnightblue" points="537.318,-98.1029 546.889,-93.5583 536.573,-91.1427 537.318,-98.1029"/>
</g>
<!-- Node4&#45;&gt;Node13 -->
<g id="edge15" class="edge"><title>Node4&#45;&gt;Node13</title>
<path fill="none" stroke="midnightblue" d="M463.929,-114.524C485.424,-122.831 517.974,-134.804 547,-143 625.268,-165.101 645.511,-169.348 726,-181 783.532,-189.329 849.325,-194.198 897.773,-196.918"/>
<polygon fill="midnightblue" stroke="midnightblue" points="897.663,-200.418 907.838,-197.467 898.044,-193.428 897.663,-200.418"/>
</g>
<!-- Node6 -->
<g id="node6" class="node"><title>Node6</title>
<g id="a_node6"><a xlink:href="../../d4/dc2/classprolog_1_1io_1_1IO_ad851906c6ebd6559eb1b1fa52e26dabb.html#ad851906c6ebd6559eb1b1fa52e26dabb" target="_top" xlink:title="prolog.io.IO.println">
<polygon fill="none" stroke="black" points="751,-76.5 751,-95.5 847,-95.5 847,-76.5 751,-76.5"/>
<text text-anchor="middle" x="799" y="-83.5" font-family="Helvetica,sans-Serif" font-size="10.00">prolog.io.IO.println</text>
</a>
</g>
</g>
<!-- Node5&#45;&gt;Node6 -->
<g id="edge6" class="edge"><title>Node5&#45;&gt;Node6</title>
<path fill="none" stroke="midnightblue" d="M664.543,-114.411C688.523,-109.306 718.198,-102.989 743.472,-97.6082"/>
<polygon fill="midnightblue" stroke="midnightblue" points="744.229,-101.026 753.281,-95.5201 742.771,-94.179 744.229,-101.026"/>
</g>
<!-- Node9 -->
<g id="node9" class="node"><title>Node9</title>
<g id="a_node9"><a xlink:href="../../d4/dc2/classprolog_1_1io_1_1IO_a22a9a2bfe9fa6e00257369f5bf078a44.html#a22a9a2bfe9fa6e00257369f5bf078a44" target="_top" xlink:title="prolog.io.IO.getStdOutput">
<polygon fill="none" stroke="black" points="735,-152.5 735,-171.5 863,-171.5 863,-152.5 735,-152.5"/>
<text text-anchor="middle" x="799" y="-159.5" font-family="Helvetica,sans-Serif" font-size="10.00">prolog.io.IO.getStdOutput</text>
</a>
</g>
</g>
<!-- Node5&#45;&gt;Node9 -->
<g id="edge9" class="edge"><title>Node5&#45;&gt;Node9</title>
<path fill="none" stroke="midnightblue" d="M664.543,-133.589C688.523,-138.694 718.198,-145.011 743.472,-150.392"/>
<polygon fill="midnightblue" stroke="midnightblue" points="742.771,-153.821 753.281,-152.48 744.229,-146.974 742.771,-153.821"/>
</g>
<!-- Node10 -->
<g id="node10" class="node"><title>Node10</title>
<g id="a_node10"><a xlink:href="../../d6/d92/interfaceprolog_1_1io_1_1IOPeer_a780dd51c62dba4c266286171101b2cee.html#a780dd51c62dba4c266286171101b2cee" target="_top" xlink:title="prolog.io.IOPeer.traceln">
<polygon fill="none" stroke="black" points="739.5,-114.5 739.5,-133.5 858.5,-133.5 858.5,-114.5 739.5,-114.5"/>
<text text-anchor="middle" x="799" y="-121.5" font-family="Helvetica,sans-Serif" font-size="10.00">prolog.io.IOPeer.traceln</text>
</a>
</g>
</g>
<!-- Node5&#45;&gt;Node10 -->
<g id="edge10" class="edge"><title>Node5&#45;&gt;Node10</title>
<path fill="none" stroke="midnightblue" d="M664.543,-124C684.158,-124 707.584,-124 729.296,-124"/>
<polygon fill="midnightblue" stroke="midnightblue" points="729.46,-127.5 739.46,-124 729.46,-120.5 729.46,-127.5"/>
</g>
<!-- Node7 -->
<g id="node7" class="node"><title>Node7</title>
<g id="a_node7"><a xlink:href="../../d4/dc2/classprolog_1_1io_1_1IO_aab64872af087c6cd9c5dd13e9f4eda00.html#aab64872af087c6cd9c5dd13e9f4eda00" target="_top" xlink:title="prolog.io.IO.print">
<polygon fill="none" stroke="black" points="924.5,-76.5 924.5,-95.5 1013.5,-95.5 1013.5,-76.5 924.5,-76.5"/>
<text text-anchor="middle" x="969" y="-83.5" font-family="Helvetica,sans-Serif" font-size="10.00">prolog.io.IO.print</text>
</a>
</g>
</g>
<!-- Node6&#45;&gt;Node7 -->
<g id="edge7" class="edge"><title>Node6&#45;&gt;Node7</title>
<path fill="none" stroke="midnightblue" d="M847.244,-86C868.012,-86 892.513,-86 913.999,-86"/>
<polygon fill="midnightblue" stroke="midnightblue" points="914.275,-89.5001 924.275,-86 914.275,-82.5001 914.275,-89.5001"/>
</g>
<!-- Node8 -->
<g id="node8" class="node"><title>Node8</title>
<g id="a_node8"><a xlink:href="../../d6/d92/interfaceprolog_1_1io_1_1IOPeer_abc1f90b85b358011e2595069d38ac25f.html#abc1f90b85b358011e2595069d38ac25f" target="_top" xlink:title="prolog.io.IOPeer.print">
<polygon fill="none" stroke="black" points="1066,-76.5 1066,-95.5 1175,-95.5 1175,-76.5 1066,-76.5"/>
<text text-anchor="middle" x="1120.5" y="-83.5" font-family="Helvetica,sans-Serif" font-size="10.00">prolog.io.IOPeer.print</text>
</a>
</g>
</g>
<!-- Node7&#45;&gt;Node8 -->
<g id="edge8" class="edge"><title>Node7&#45;&gt;Node8</title>
<path fill="none" stroke="midnightblue" d="M1013.64,-86C1026.82,-86 1041.57,-86 1055.77,-86"/>
<polygon fill="midnightblue" stroke="midnightblue" points="1055.99,-89.5001 1065.99,-86 1055.99,-82.5001 1055.99,-89.5001"/>
</g>
<!-- Node11&#45;&gt;Node3 -->
<g id="edge12" class="edge"><title>Node11&#45;&gt;Node3</title>
<path fill="none" stroke="midnightblue" d="M656.994,-76.4181C668.045,-72.7657 679.879,-67.999 690,-62 708.672,-50.9332 706.952,-39.4055 726,-29 730.177,-26.7185 734.641,-24.7002 739.224,-22.9167"/>
<polygon fill="midnightblue" stroke="midnightblue" points="740.466,-26.1901 748.743,-19.5763 738.148,-19.585 740.466,-26.1901"/>
</g>
<!-- Node12 -->
<g id="node12" class="node"><title>Node12</title>
<g id="a_node12"><a xlink:href="../../de/d23/classprolog_1_1fluents_1_1Queue_adca2003759e9be115f6006eee370209a.html#adca2003759e9be115f6006eee370209a" target="_top" xlink:title="prolog.fluents.Queue.toVector">
<polygon fill="none" stroke="black" points="726,-38.5 726,-57.5 872,-57.5 872,-38.5 726,-38.5"/>
<text text-anchor="middle" x="799" y="-45.5" font-family="Helvetica,sans-Serif" font-size="10.00">prolog.fluents.Queue.toVector</text>
</a>
</g>
</g>
<!-- Node11&#45;&gt;Node12 -->
<g id="edge13" class="edge"><title>Node11&#45;&gt;Node12</title>
<path fill="none" stroke="midnightblue" d="M664.543,-76.411C688.523,-71.3061 718.198,-64.9887 743.472,-59.6082"/>
<polygon fill="midnightblue" stroke="midnightblue" points="744.229,-63.0256 753.281,-57.5201 742.771,-56.179 744.229,-63.0256"/>
</g>
<!-- Node12&#45;&gt;Node13 -->
<g id="edge14" class="edge"><title>Node12&#45;&gt;Node13</title>
<path fill="none" stroke="midnightblue" d="M853.365,-57.5768C859.956,-60.0338 866.352,-63.121 872,-67 894.433,-82.4068 936.882,-148.946 956.954,-181.677"/>
<polygon fill="midnightblue" stroke="midnightblue" points="954.013,-183.578 962.203,-190.3 959.992,-179.938 954.013,-183.578"/>
</g>
</g>
</svg>
