<?xml version="1.0" encoding="UTF-8" standalone="no"?>
<!DOCTYPE svg PUBLIC "-//W3C//DTD SVG 1.1//EN"
 "http://www.w3.org/Graphics/SVG/1.1/DTD/svg11.dtd">
<!-- Generated by graphviz version 2.38.0 (20140413.2041)
 -->
<!-- Title: prolog.builtins.source_list.exec Pages: 1 -->
<svg width="647pt" height="142pt"
 viewBox="0.00 0.00 647.00 142.00" xmlns="http://www.w3.org/2000/svg" xmlns:xlink="http://www.w3.org/1999/xlink">
<g id="graph0" class="graph" transform="scale(1 1) rotate(0) translate(4 138)">
<title>prolog.builtins.source_list.exec</title>
<!-- Node1 -->
<g id="node1" class="node"><title>Node1</title>
<polygon fill="#bfbfbf" stroke="black" points="0,-61 0,-91 109,-91 109,-61 0,-61"/>
<text text-anchor="start" x="8" y="-79" font-family="Helvetica,sans-Serif" font-size="10.00">prolog.builtins.source</text>
<text text-anchor="middle" x="54.5" y="-68" font-family="Helvetica,sans-Serif" font-size="10.00">_list.exec</text>
</g>
<!-- Node2 -->
<g id="node2" class="node"><title>Node2</title>
<g id="a_node2"><a xlink:href="../../de/d8d/classprolog_1_1terms_1_1Fun_a95f487cd7555adbc0ae1a08076a0404d.html#a95f487cd7555adbc0ae1a08076a0404d" target="_top" xlink:title="prolog.terms.Fun.getArg">
<polygon fill="none" stroke="black" points="149.5,-109.5 149.5,-128.5 271.5,-128.5 271.5,-109.5 149.5,-109.5"/>
<text text-anchor="middle" x="210.5" y="-116.5" font-family="Helvetica,sans-Serif" font-size="10.00">prolog.terms.Fun.getArg</text>
</a>
</g>
</g>
<!-- Node1&#45;&gt;Node2 -->
<g id="edge1" class="edge"><title>Node1&#45;&gt;Node2</title>
<path fill="none" stroke="midnightblue" d="M109.362,-91.0393C127.633,-96.1411 147.821,-101.778 165.255,-106.646"/>
<polygon fill="midnightblue" stroke="midnightblue" points="164.594,-110.095 175.167,-109.414 166.477,-103.353 164.594,-110.095"/>
</g>
<!-- Node4 -->
<g id="node4" class="node"><title>Node4</title>
<g id="a_node4"><a xlink:href="../../de/d8d/classprolog_1_1terms_1_1Fun_a408f688b791b731a83c6a41a8ee32fb0.html#a408f688b791b731a83c6a41a8ee32fb0" target="_top" xlink:title="prolog.terms.Fun.putArg">
<polygon fill="none" stroke="black" points="149.5,-66.5 149.5,-85.5 271.5,-85.5 271.5,-66.5 149.5,-66.5"/>
<text text-anchor="middle" x="210.5" y="-73.5" font-family="Helvetica,sans-Serif" font-size="10.00">prolog.terms.Fun.putArg</text>
</a>
</g>
</g>
<!-- Node1&#45;&gt;Node4 -->
<g id="edge3" class="edge"><title>Node1&#45;&gt;Node4</title>
<path fill="none" stroke="midnightblue" d="M109.362,-76C118.954,-76 129.074,-76 139.046,-76"/>
<polygon fill="midnightblue" stroke="midnightblue" points="139.357,-79.5001 149.357,-76 139.357,-72.5001 139.357,-79.5001"/>
</g>
<!-- Node8 -->
<g id="node8" class="node"><title>Node8</title>
<g id="a_node8"><a xlink:href="../../d2/d07/classprolog_1_1terms_1_1Source_aa40a822d3598499665728d7ae0e46d34.html#aa40a822d3598499665728d7ae0e46d34" target="_top" xlink:title="prolog.terms.Source.toList">
<polygon fill="none" stroke="black" points="145,-19.5 145,-38.5 276,-38.5 276,-19.5 145,-19.5"/>
<text text-anchor="middle" x="210.5" y="-26.5" font-family="Helvetica,sans-Serif" font-size="10.00">prolog.terms.Source.toList</text>
</a>
</g>
</g>
<!-- Node1&#45;&gt;Node8 -->
<g id="edge8" class="edge"><title>Node1&#45;&gt;Node8</title>
<path fill="none" stroke="midnightblue" d="M104.65,-60.9997C125.283,-54.7026 149,-47.4644 168.652,-41.4667"/>
<polygon fill="midnightblue" stroke="midnightblue" points="169.687,-44.8101 178.23,-38.5434 167.644,-38.115 169.687,-44.8101"/>
</g>
<!-- Node3 -->
<g id="node3" class="node"><title>Node3</title>
<g id="a_node3"><a xlink:href="../../d3/ded/classprolog_1_1terms_1_1Term_ae140fac2c9d066dc897fcfa723060a7a.html#ae140fac2c9d066dc897fcfa723060a7a" target="_top" xlink:title="Dereferences if necessary. ">
<polygon fill="none" stroke="black" points="517,-114.5 517,-133.5 627,-133.5 627,-114.5 517,-114.5"/>
<text text-anchor="middle" x="572" y="-121.5" font-family="Helvetica,sans-Serif" font-size="10.00">prolog.terms.Term.ref</text>
</a>
</g>
</g>
<!-- Node2&#45;&gt;Node3 -->
<g id="edge2" class="edge"><title>Node2&#45;&gt;Node3</title>
<path fill="none" stroke="midnightblue" d="M271.672,-119.837C336.656,-120.741 439.801,-122.175 506.443,-123.102"/>
<polygon fill="midnightblue" stroke="midnightblue" points="506.766,-126.607 516.814,-123.246 506.863,-119.608 506.766,-126.607"/>
</g>
<!-- Node5 -->
<g id="node5" class="node"><title>Node5</title>
<g id="a_node5"><a xlink:href="../../d3/ded/classprolog_1_1terms_1_1Term_a84d8fb7e1f816d0dbe3c2c56ed28fdb9.html#a84d8fb7e1f816d0dbe3c2c56ed28fdb9" target="_top" xlink:title="Dereference and unify_to. ">
<polygon fill="none" stroke="black" points="330.5,-76.5 330.5,-95.5 450.5,-95.5 450.5,-76.5 330.5,-76.5"/>
<text text-anchor="middle" x="390.5" y="-83.5" font-family="Helvetica,sans-Serif" font-size="10.00">prolog.terms.Term.unify</text>
</a>
</g>
</g>
<!-- Node4&#45;&gt;Node5 -->
<g id="edge4" class="edge"><title>Node4&#45;&gt;Node5</title>
<path fill="none" stroke="midnightblue" d="M271.763,-79.3855C287.234,-80.2547 304.003,-81.1968 319.904,-82.0901"/>
<polygon fill="midnightblue" stroke="midnightblue" points="320.025,-85.6023 330.205,-82.6688 320.417,-78.6133 320.025,-85.6023"/>
</g>
<!-- Node7 -->
<g id="node7" class="node"><title>Node7</title>
<g id="a_node7"><a xlink:href="../../d4/d26/classprolog_1_1terms_1_1Prog_a41eac8617a5002806d7137eb36183405.html#a41eac8617a5002806d7137eb36183405" target="_top" xlink:title="prolog.terms.Prog.getTrail">
<polygon fill="none" stroke="black" points="326,-38.5 326,-57.5 455,-57.5 455,-38.5 326,-38.5"/>
<text text-anchor="middle" x="390.5" y="-45.5" font-family="Helvetica,sans-Serif" font-size="10.00">prolog.terms.Prog.getTrail</text>
</a>
</g>
</g>
<!-- Node4&#45;&gt;Node7 -->
<g id="edge7" class="edge"><title>Node4&#45;&gt;Node7</title>
<path fill="none" stroke="midnightblue" d="M271.763,-66.5205C286.903,-64.1388 303.287,-61.5617 318.883,-59.1084"/>
<polygon fill="midnightblue" stroke="midnightblue" points="319.662,-62.5289 328.997,-57.5174 318.574,-55.6139 319.662,-62.5289"/>
</g>
<!-- Node5&#45;&gt;Node3 -->
<g id="edge5" class="edge"><title>Node5&#45;&gt;Node3</title>
<path fill="none" stroke="midnightblue" d="M436.795,-95.589C460.909,-100.694 490.751,-107.011 516.167,-112.392"/>
<polygon fill="midnightblue" stroke="midnightblue" points="515.522,-115.833 526.03,-114.48 516.972,-108.985 515.522,-115.833"/>
</g>
<!-- Node6 -->
<g id="node6" class="node"><title>Node6</title>
<g id="a_node6"><a xlink:href="../../d3/ded/classprolog_1_1terms_1_1Term_a866b2cca50e77e99b560578b2fa3a91a.html#a866b2cca50e77e99b560578b2fa3a91a" target="_top" xlink:title="Unify dereferenced. ">
<polygon fill="none" stroke="black" points="505,-76.5 505,-95.5 639,-95.5 639,-76.5 505,-76.5"/>
<text text-anchor="middle" x="572" y="-83.5" font-family="Helvetica,sans-Serif" font-size="10.00">prolog.terms.Term.unify_to</text>
</a>
</g>
</g>
<!-- Node5&#45;&gt;Node6 -->
<g id="edge6" class="edge"><title>Node5&#45;&gt;Node6</title>
<path fill="none" stroke="midnightblue" d="M450.772,-86C464.878,-86 480.122,-86 494.865,-86"/>
<polygon fill="midnightblue" stroke="midnightblue" points="494.971,-89.5001 504.971,-86 494.971,-82.5001 494.971,-89.5001"/>
</g>
<!-- Node9 -->
<g id="node9" class="node"><title>Node9</title>
<g id="a_node9"><a xlink:href="../../d2/d07/classprolog_1_1terms_1_1Source_a80edbb7a5e2e465563e161990957b736.html#a80edbb7a5e2e465563e161990957b736" target="_top" xlink:title="prolog.terms.Source.getElement">
<polygon fill="none" stroke="black" points="312,-0.5 312,-19.5 469,-19.5 469,-0.5 312,-0.5"/>
<text text-anchor="middle" x="390.5" y="-7.5" font-family="Helvetica,sans-Serif" font-size="10.00">prolog.terms.Source.getElement</text>
</a>
</g>
</g>
<!-- Node8&#45;&gt;Node9 -->
<g id="edge9" class="edge"><title>Node8&#45;&gt;Node9</title>
<path fill="none" stroke="midnightblue" d="M276.014,-22.1137C284.381,-21.2206 293.06,-20.2941 301.725,-19.3693"/>
<polygon fill="midnightblue" stroke="midnightblue" points="302.297,-22.8281 311.869,-18.2864 301.554,-15.8677 302.297,-22.8281"/>
</g>
</g>
</svg>
