<?xml version="1.0" encoding="UTF-8" standalone="no"?>
<!DOCTYPE svg PUBLIC "-//W3C//DTD SVG 1.1//EN"
 "http://www.w3.org/Graphics/SVG/1.1/DTD/svg11.dtd">
<!-- Generated by graphviz version 2.38.0 (20140413.2041)
 -->
<!-- Title: prolog.io.TermSource Pages: 1 -->
<svg width="144pt" height="1136pt"
 viewBox="0.00 0.00 144.00 1136.00" xmlns="http://www.w3.org/2000/svg" xmlns:xlink="http://www.w3.org/1999/xlink">
<g id="graph0" class="graph" transform="scale(1 1) rotate(0) translate(4 1132)">
<title>prolog.io.TermSource</title>
<!-- Node1 -->
<g id="node1" class="node"><title>Node1</title>
<polygon fill="#bfbfbf" stroke="black" points="13,-0.5 13,-90.5 123,-90.5 123,-0.5 13,-0.5"/>
<text text-anchor="middle" x="68" y="-78.5" font-family="Helvetica,sans-Serif" font-size="10.00">prolog.io.TermSource</text>
<polyline fill="none" stroke="black" points="13,-71.5 123,-71.5 "/>
<text text-anchor="start" x="21" y="-59.5" font-family="Helvetica,sans-Serif" font-size="10.00">&#45; val</text>
<text text-anchor="start" x="21" y="-48.5" font-family="Helvetica,sans-Serif" font-size="10.00">&#45; pos</text>
<polyline fill="none" stroke="black" points="13,-41.5 123,-41.5 "/>
<text text-anchor="start" x="21" y="-29.5" font-family="Helvetica,sans-Serif" font-size="10.00">+ TermSource()</text>
<text text-anchor="start" x="21" y="-18.5" font-family="Helvetica,sans-Serif" font-size="10.00">+ getElement()</text>
<text text-anchor="start" x="21" y="-7.5" font-family="Helvetica,sans-Serif" font-size="10.00">+ stop()</text>
</g>
<!-- Node2 -->
<g id="node2" class="node"><title>Node2</title>
<g id="a_node2"><a xlink:href="../../d2/d07/classprolog_1_1terms_1_1Source.html" target="_top" xlink:title="{prolog.terms.Source\n||+ Source()\l+ getElement()\l+ toList()\l+ toFun()\l}">
<polygon fill="none" stroke="black" points="16,-127.5 16,-217.5 120,-217.5 120,-127.5 16,-127.5"/>
<text text-anchor="middle" x="68" y="-205.5" font-family="Helvetica,sans-Serif" font-size="10.00">prolog.terms.Source</text>
<polyline fill="none" stroke="black" points="16,-198.5 120,-198.5 "/>
<text text-anchor="middle" x="68" y="-186.5" font-family="Helvetica,sans-Serif" font-size="10.00"> </text>
<polyline fill="none" stroke="black" points="16,-179.5 120,-179.5 "/>
<text text-anchor="start" x="24" y="-167.5" font-family="Helvetica,sans-Serif" font-size="10.00">+ Source()</text>
<text text-anchor="start" x="24" y="-156.5" font-family="Helvetica,sans-Serif" font-size="10.00">+ getElement()</text>
<text text-anchor="start" x="24" y="-145.5" font-family="Helvetica,sans-Serif" font-size="10.00">+ toList()</text>
<text text-anchor="start" x="24" y="-134.5" font-family="Helvetica,sans-Serif" font-size="10.00">+ toFun()</text>
</a>
</g>
</g>
<!-- Node2&#45;&gt;Node1 -->
<g id="edge1" class="edge"><title>Node2&#45;&gt;Node1</title>
<path fill="none" stroke="midnightblue" d="M68,-117.157C68,-108.282 68,-99.1831 68,-90.5937"/>
<polygon fill="none" stroke="midnightblue" points="64.5001,-117.43 68,-127.43 71.5001,-117.43 64.5001,-117.43"/>
</g>
<!-- Node3 -->
<g id="node3" class="node"><title>Node3</title>
<g id="a_node3"><a xlink:href="../../d9/d3b/classprolog_1_1terms_1_1Fluent.html" target="_top" xlink:title="A Fluent is a Prolog Object which has its own state, subject to changes over time. ">
<polygon fill="none" stroke="black" points="17.5,-254.5 17.5,-366.5 118.5,-366.5 118.5,-254.5 17.5,-254.5"/>
<text text-anchor="middle" x="68" y="-354.5" font-family="Helvetica,sans-Serif" font-size="10.00">prolog.terms.Fluent</text>
<polyline fill="none" stroke="black" points="17.5,-347.5 118.5,-347.5 "/>
<text text-anchor="start" x="25.5" y="-335.5" font-family="Helvetica,sans-Serif" font-size="10.00">&#45; persistent</text>
<polyline fill="none" stroke="black" points="17.5,-328.5 118.5,-328.5 "/>
<text text-anchor="start" x="25.5" y="-316.5" font-family="Helvetica,sans-Serif" font-size="10.00">+ Fluent()</text>
<text text-anchor="start" x="25.5" y="-305.5" font-family="Helvetica,sans-Serif" font-size="10.00">+ setPersistent()</text>
<text text-anchor="start" x="25.5" y="-294.5" font-family="Helvetica,sans-Serif" font-size="10.00">+ getPersistent()</text>
<text text-anchor="start" x="25.5" y="-283.5" font-family="Helvetica,sans-Serif" font-size="10.00">+ stop()</text>
<text text-anchor="start" x="25.5" y="-272.5" font-family="Helvetica,sans-Serif" font-size="10.00"># trailMe()</text>
<text text-anchor="start" x="25.5" y="-261.5" font-family="Helvetica,sans-Serif" font-size="10.00"># undo()</text>
</a>
</g>
</g>
<!-- Node3&#45;&gt;Node2 -->
<g id="edge2" class="edge"><title>Node3&#45;&gt;Node2</title>
<path fill="none" stroke="midnightblue" d="M68,-244.076C68,-235.072 68,-226.007 68,-217.514"/>
<polygon fill="none" stroke="midnightblue" points="64.5001,-244.184 68,-254.184 71.5001,-244.184 64.5001,-244.184"/>
</g>
<!-- Node4 -->
<g id="node4" class="node"><title>Node4</title>
<g id="a_node4"><a xlink:href="../../d6/dc1/classprolog_1_1terms_1_1SystemObject.html" target="_top" xlink:title="A SystemObject is a Nonvar with system assigned name. ">
<polygon fill="none" stroke="black" points="0,-403.5 0,-515.5 136,-515.5 136,-403.5 0,-403.5"/>
<text text-anchor="middle" x="68" y="-503.5" font-family="Helvetica,sans-Serif" font-size="10.00">prolog.terms.SystemObject</text>
<polyline fill="none" stroke="black" points="0,-496.5 136,-496.5 "/>
<text text-anchor="start" x="8" y="-484.5" font-family="Helvetica,sans-Serif" font-size="10.00">~ ctr</text>
<text text-anchor="start" x="8" y="-473.5" font-family="Helvetica,sans-Serif" font-size="10.00">&#45; ordinal</text>
<polyline fill="none" stroke="black" points="0,-466.5 136,-466.5 "/>
<text text-anchor="start" x="8" y="-454.5" font-family="Helvetica,sans-Serif" font-size="10.00">+ SystemObject()</text>
<text text-anchor="start" x="8" y="-443.5" font-family="Helvetica,sans-Serif" font-size="10.00">+ name()</text>
<text text-anchor="start" x="8" y="-432.5" font-family="Helvetica,sans-Serif" font-size="10.00">+ toString()</text>
<text text-anchor="start" x="8" y="-421.5" font-family="Helvetica,sans-Serif" font-size="10.00">+ getArity()</text>
<text text-anchor="start" x="8" y="-410.5" font-family="Helvetica,sans-Serif" font-size="10.00">~ bind_to()</text>
</a>
</g>
</g>
<!-- Node4&#45;&gt;Node3 -->
<g id="edge3" class="edge"><title>Node4&#45;&gt;Node3</title>
<path fill="none" stroke="midnightblue" d="M68,-393.176C68,-384.427 68,-375.522 68,-366.965"/>
<polygon fill="none" stroke="midnightblue" points="64.5001,-393.344 68,-403.344 71.5001,-393.344 64.5001,-393.344"/>
</g>
<!-- Node5 -->
<g id="node5" class="node"><title>Node5</title>
<g id="a_node5"><a xlink:href="../../d4/de0/classprolog_1_1terms_1_1Nonvar.html" target="_top" xlink:title="Part of the Prolog Term hierarchy. ">
<polygon fill="none" stroke="black" points="15.5,-552.5 15.5,-642.5 120.5,-642.5 120.5,-552.5 15.5,-552.5"/>
<text text-anchor="middle" x="68" y="-630.5" font-family="Helvetica,sans-Serif" font-size="10.00">prolog.terms.Nonvar</text>
<polyline fill="none" stroke="black" points="15.5,-623.5 120.5,-623.5 "/>
<text text-anchor="middle" x="68" y="-611.5" font-family="Helvetica,sans-Serif" font-size="10.00"> </text>
<polyline fill="none" stroke="black" points="15.5,-604.5 120.5,-604.5 "/>
<text text-anchor="start" x="23.5" y="-592.5" font-family="Helvetica,sans-Serif" font-size="10.00">+ name()</text>
<text text-anchor="start" x="23.5" y="-581.5" font-family="Helvetica,sans-Serif" font-size="10.00">~ bind_to()</text>
<text text-anchor="start" x="23.5" y="-570.5" font-family="Helvetica,sans-Serif" font-size="10.00">~ unify_to()</text>
<text text-anchor="start" x="23.5" y="-559.5" font-family="Helvetica,sans-Serif" font-size="10.00">~ listify()</text>
</a>
</g>
</g>
<!-- Node5&#45;&gt;Node4 -->
<g id="edge4" class="edge"><title>Node5&#45;&gt;Node4</title>
<path fill="none" stroke="midnightblue" d="M68,-542.312C68,-533.611 68,-524.595 68,-515.867"/>
<polygon fill="none" stroke="midnightblue" points="64.5001,-542.345 68,-552.345 71.5001,-542.345 64.5001,-542.345"/>
</g>
<!-- Node6 -->
<g id="node6" class="node"><title>Node6</title>
<g id="a_node6"><a xlink:href="../../d3/ded/classprolog_1_1terms_1_1Term.html" target="_top" xlink:title="Top element of the Prolog term hierarchy. ">
<polygon fill="none" stroke="black" points="19,-679.5 19,-1033.5 117,-1033.5 117,-679.5 19,-679.5"/>
<text text-anchor="middle" x="68" y="-1021.5" font-family="Helvetica,sans-Serif" font-size="10.00">prolog.terms.Term</text>
<polyline fill="none" stroke="black" points="19,-1014.5 117,-1014.5 "/>
<text text-anchor="start" x="27" y="-1002.5" font-family="Helvetica,sans-Serif" font-size="10.00">+ JAVA</text>
<text text-anchor="start" x="27" y="-991.5" font-family="Helvetica,sans-Serif" font-size="10.00">+ REAL</text>
<text text-anchor="start" x="27" y="-980.5" font-family="Helvetica,sans-Serif" font-size="10.00">+ INT</text>
<text text-anchor="start" x="27" y="-969.5" font-family="Helvetica,sans-Serif" font-size="10.00">+ VAR</text>
<text text-anchor="start" x="27" y="-958.5" font-family="Helvetica,sans-Serif" font-size="10.00">+ CONST</text>
<polyline fill="none" stroke="black" points="19,-951.5 117,-951.5 "/>
<text text-anchor="start" x="27" y="-939.5" font-family="Helvetica,sans-Serif" font-size="10.00">+ getArity()</text>
<text text-anchor="start" x="27" y="-928.5" font-family="Helvetica,sans-Serif" font-size="10.00">+ ref()</text>
<text text-anchor="start" x="27" y="-917.5" font-family="Helvetica,sans-Serif" font-size="10.00">+ token()</text>
<text text-anchor="start" x="27" y="-906.5" font-family="Helvetica,sans-Serif" font-size="10.00">+ toClause()</text>
<text text-anchor="start" x="27" y="-895.5" font-family="Helvetica,sans-Serif" font-size="10.00">+ matches()</text>
<text text-anchor="start" x="27" y="-884.5" font-family="Helvetica,sans-Serif" font-size="10.00">+ matches()</text>
<text text-anchor="start" x="27" y="-873.5" font-family="Helvetica,sans-Serif" font-size="10.00">+ matching_copy()</text>
<text text-anchor="start" x="27" y="-862.5" font-family="Helvetica,sans-Serif" font-size="10.00">+ copy()</text>
<text text-anchor="start" x="27" y="-851.5" font-family="Helvetica,sans-Serif" font-size="10.00">+ varsOf()</text>
<text text-anchor="start" x="27" y="-840.5" font-family="Helvetica,sans-Serif" font-size="10.00">+ numbervars()</text>
<text text-anchor="start" x="27" y="-829.5" font-family="Helvetica,sans-Serif" font-size="10.00">and 6 more...</text>
<text text-anchor="start" x="27" y="-818.5" font-family="Helvetica,sans-Serif" font-size="10.00">+ fromString()</text>
<text text-anchor="start" x="27" y="-807.5" font-family="Helvetica,sans-Serif" font-size="10.00">+ charsToString()</text>
<text text-anchor="start" x="27" y="-796.5" font-family="Helvetica,sans-Serif" font-size="10.00">~ bind_to()</text>
<text text-anchor="start" x="27" y="-785.5" font-family="Helvetica,sans-Serif" font-size="10.00">~ unify_to()</text>
<text text-anchor="start" x="27" y="-774.5" font-family="Helvetica,sans-Serif" font-size="10.00">~ toTerm()</text>
<text text-anchor="start" x="27" y="-763.5" font-family="Helvetica,sans-Serif" font-size="10.00">~ isClause()</text>
<text text-anchor="start" x="27" y="-752.5" font-family="Helvetica,sans-Serif" font-size="10.00">~ reaction()</text>
<text text-anchor="start" x="27" y="-741.5" font-family="Helvetica,sans-Serif" font-size="10.00">~ action()</text>
<text text-anchor="start" x="27" y="-730.5" font-family="Helvetica,sans-Serif" font-size="10.00">~ exec()</text>
<text text-anchor="start" x="27" y="-719.5" font-family="Helvetica,sans-Serif" font-size="10.00">~ stringToChars()</text>
<text text-anchor="start" x="27" y="-708.5" font-family="Helvetica,sans-Serif" font-size="10.00"># unify()</text>
<text text-anchor="start" x="27" y="-697.5" font-family="Helvetica,sans-Serif" font-size="10.00"># undo()</text>
<text text-anchor="start" x="27" y="-686.5" font-family="Helvetica,sans-Serif" font-size="10.00"># exec()</text>
</a>
</g>
</g>
<!-- Node6&#45;&gt;Node5 -->
<g id="edge5" class="edge"><title>Node6&#45;&gt;Node5</title>
<path fill="none" stroke="midnightblue" d="M68,-669.431C68,-659.975 68,-651.043 68,-642.912"/>
<polygon fill="none" stroke="midnightblue" points="64.5001,-669.464 68,-679.464 71.5001,-669.464 64.5001,-669.464"/>
</g>
<!-- Node7 -->
<g id="node7" class="node"><title>Node7</title>
<polygon fill="none" stroke="#bfbfbf" points="10.5,-1070.5 10.5,-1127.5 55.5,-1127.5 55.5,-1070.5 10.5,-1070.5"/>
<text text-anchor="middle" x="33" y="-1115.5" font-family="Helvetica,sans-Serif" font-size="10.00">Object</text>
<polyline fill="none" stroke="#bfbfbf" points="10.5,-1108.5 55.5,-1108.5 "/>
<text text-anchor="middle" x="33" y="-1096.5" font-family="Helvetica,sans-Serif" font-size="10.00"> </text>
<polyline fill="none" stroke="#bfbfbf" points="10.5,-1089.5 55.5,-1089.5 "/>
<text text-anchor="middle" x="33" y="-1077.5" font-family="Helvetica,sans-Serif" font-size="10.00"> </text>
</g>
<!-- Node7&#45;&gt;Node6 -->
<g id="edge6" class="edge"><title>Node7&#45;&gt;Node6</title>
<path fill="none" stroke="midnightblue" d="M38.4653,-1060.45C39.6323,-1052.43 40.9379,-1043.46 42.3327,-1033.87"/>
<polygon fill="none" stroke="midnightblue" points="34.9916,-1060.01 37.0149,-1070.41 41.9187,-1061.02 34.9916,-1060.01"/>
</g>
<!-- Node8 -->
<g id="node8" class="node"><title>Node8</title>
<polygon fill="none" stroke="#bfbfbf" points="74,-1070.5 74,-1127.5 134,-1127.5 134,-1070.5 74,-1070.5"/>
<text text-anchor="middle" x="104" y="-1115.5" font-family="Helvetica,sans-Serif" font-size="10.00">Cloneable</text>
<polyline fill="none" stroke="#bfbfbf" points="74,-1108.5 134,-1108.5 "/>
<text text-anchor="middle" x="104" y="-1096.5" font-family="Helvetica,sans-Serif" font-size="10.00"> </text>
<polyline fill="none" stroke="#bfbfbf" points="74,-1089.5 134,-1089.5 "/>
<text text-anchor="middle" x="104" y="-1077.5" font-family="Helvetica,sans-Serif" font-size="10.00"> </text>
</g>
<!-- Node8&#45;&gt;Node6 -->
<g id="edge7" class="edge"><title>Node8&#45;&gt;Node6</title>
<path fill="none" stroke="midnightblue" d="M98.3786,-1060.45C97.1782,-1052.43 95.8353,-1043.46 94.4007,-1033.87"/>
<polygon fill="none" stroke="midnightblue" points="94.9284,-1061.04 99.8703,-1070.41 101.851,-1060 94.9284,-1061.04"/>
</g>
</g>
</svg>
