<?xml version="1.0" encoding="UTF-8" standalone="no"?>
<!DOCTYPE svg PUBLIC "-//W3C//DTD SVG 1.1//EN"
 "http://www.w3.org/Graphics/SVG/1.1/DTD/svg11.dtd">
<!-- Generated by graphviz version 2.38.0 (20140413.2041)
 -->
<!-- Title: prolog.builtins.reconsult Pages: 1 -->
<!--zoomable 1316 -->
<svg id="main" version="1.1" xmlns="http://www.w3.org/2000/svg" xmlns:xlink="http://www.w3.org/1999/xlink" xml:space="preserve" onload="init(evt)">
<style type="text/css"><![CDATA[
.edge:hover path { stroke: red; }
.edge:hover polygon { stroke: red; fill: red; }
]]></style>
<script type="text/javascript"><![CDATA[
var edges = document.getElementsByTagName('g');
if (edges && edges.length) {
  for (var i=0;i<edges.length;i++) {
    if (edges[i].id.substr(0,4)=='edge') {
      edges[i].setAttribute('class','edge');
    }
  }
}
]]></script>
        <defs>
                <circle id="rim" cx="0" cy="0" r="7"/>
                <circle id="rim2" cx="0" cy="0" r="3.5"/>
                <g id="zoomPlus">
                        <use xlink:href="#rim" fill="#404040">
                                <set attributeName="fill" to="#808080" begin="zoomplus.mouseover" end="zoomplus.mouseout"/>
                        </use>
                        <path d="M-4,0h8M0,-4v8" fill="none" stroke="white" stroke-width="1.5" pointer-events="none"/>
                </g>
                <g id="zoomMin">
                        <use xlink:href="#rim" fill="#404040">
                                <set attributeName="fill" to="#808080" begin="zoomminus.mouseover" end="zoomminus.mouseout"/>
                        </use>
                        <path d="M-4,0h8" fill="none" stroke="white" stroke-width="1.5" pointer-events="none"/>
                </g>
                <g id="dirArrow">
                        <path fill="none" stroke="white" stroke-width="1.5" d="M0,-3.0v7 M-2.5,-0.5L0,-3.0L2.5,-0.5"/>
                </g>
               <g id="resetDef">
                       <use xlink:href="#rim2" fill="#404040">
                               <set attributeName="fill" to="#808080" begin="reset.mouseover" end="reset.mouseout"/>
                       </use>
               </g>
        </defs>

<script type="text/javascript">
var viewWidth = 251;
var viewHeight = 1316;
var sectionId = 'dynsection-1';
</script>
<script xlink:href="../../svgpan.js"/>
<svg id="graph" class="graph">
<g id="viewport">
<title>prolog.builtins.reconsult</title>
<!-- Node1 -->
<g id="node1" class="node"><title>Node1</title>
<polygon fill="#bfbfbf" stroke="black" points="0,-0.5 0,-68.5 119,-68.5 119,-0.5 0,-0.5"/>
<text text-anchor="middle" x="59.5" y="-56.5" font-family="Helvetica,sans-Serif" font-size="10.00">prolog.builtins.reconsult</text>
<polyline fill="none" stroke="black" points="0,-49.5 119,-49.5 "/>
<text text-anchor="middle" x="59.5" y="-37.5" font-family="Helvetica,sans-Serif" font-size="10.00"> </text>
<polyline fill="none" stroke="black" points="0,-30.5 119,-30.5 "/>
<text text-anchor="start" x="8" y="-18.5" font-family="Helvetica,sans-Serif" font-size="10.00">+ exec()</text>
<text text-anchor="start" x="8" y="-7.5" font-family="Helvetica,sans-Serif" font-size="10.00">~ reconsult()</text>
</g>
<!-- Node2 -->
<g id="node2" class="node"><title>Node2</title>
<g id="a_node2"><a xlink:href="../../d3/df5/classprolog_1_1terms_1_1FunBuiltin.html" target="_top" xlink:title="Template for builtins of arity &gt;0. ">
<polygon fill="none" stroke="black" points="1,-106.5 1,-185.5 118,-185.5 118,-106.5 1,-106.5"/>
<text text-anchor="middle" x="59.5" y="-173.5" font-family="Helvetica,sans-Serif" font-size="10.00">prolog.terms.FunBuiltin</text>
<polyline fill="none" stroke="black" points="1,-166.5 118,-166.5 "/>
<text text-anchor="middle" x="59.5" y="-154.5" font-family="Helvetica,sans-Serif" font-size="10.00"> </text>
<polyline fill="none" stroke="black" points="1,-147.5 118,-147.5 "/>
<text text-anchor="start" x="9" y="-135.5" font-family="Helvetica,sans-Serif" font-size="10.00">+ FunBuiltin()</text>
<text text-anchor="start" x="9" y="-124.5" font-family="Helvetica,sans-Serif" font-size="10.00">+ exec()</text>
<text text-anchor="start" x="9" y="-113.5" font-family="Helvetica,sans-Serif" font-size="10.00">+ isBuiltin()</text>
</a>
</g>
</g>
<!-- Node2&#45;&gt;Node1 -->
<g id="edge1" class="edge"><title>Node2&#45;&gt;Node1</title>
<path fill="none" stroke="midnightblue" d="M59.5,-96.3805C59.5,-87.0158 59.5,-77.4088 59.5,-68.674"/>
<polygon fill="none" stroke="midnightblue" points="56.0001,-96.3944 59.5,-106.394 63.0001,-96.3944 56.0001,-96.3944"/>
</g>
<!-- Node3 -->
<g id="node3" class="node"><title>Node3</title>
<g id="a_node3"><a xlink:href="../../de/d8d/classprolog_1_1terms_1_1Fun.html" target="_top" xlink:title="Implements compound terms. ">
<polygon fill="none" stroke="black" points="5.5,-223.5 5.5,-489.5 113.5,-489.5 113.5,-223.5 5.5,-223.5"/>
<text text-anchor="middle" x="59.5" y="-477.5" font-family="Helvetica,sans-Serif" font-size="10.00">prolog.terms.Fun</text>
<polyline fill="none" stroke="black" points="5.5,-470.5 113.5,-470.5 "/>
<text text-anchor="middle" x="59.5" y="-458.5" font-family="Helvetica,sans-Serif" font-size="10.00"> </text>
<polyline fill="none" stroke="black" points="5.5,-451.5 113.5,-451.5 "/>
<text text-anchor="start" x="13.5" y="-439.5" font-family="Helvetica,sans-Serif" font-size="10.00">+ getArity()</text>
<text text-anchor="start" x="13.5" y="-428.5" font-family="Helvetica,sans-Serif" font-size="10.00">+ Fun()</text>
<text text-anchor="start" x="13.5" y="-417.5" font-family="Helvetica,sans-Serif" font-size="10.00">+ Fun()</text>
<text text-anchor="start" x="13.5" y="-406.5" font-family="Helvetica,sans-Serif" font-size="10.00">+ Fun()</text>
<text text-anchor="start" x="13.5" y="-395.5" font-family="Helvetica,sans-Serif" font-size="10.00">+ init()</text>
<text text-anchor="start" x="13.5" y="-384.5" font-family="Helvetica,sans-Serif" font-size="10.00">+ getArg()</text>
<text text-anchor="start" x="13.5" y="-373.5" font-family="Helvetica,sans-Serif" font-size="10.00">+ getIntArg()</text>
<text text-anchor="start" x="13.5" y="-362.5" font-family="Helvetica,sans-Serif" font-size="10.00">+ setArg()</text>
<text text-anchor="start" x="13.5" y="-351.5" font-family="Helvetica,sans-Serif" font-size="10.00">+ putArg()</text>
<text text-anchor="start" x="13.5" y="-340.5" font-family="Helvetica,sans-Serif" font-size="10.00">+ Fun()</text>
<text text-anchor="start" x="13.5" y="-329.5" font-family="Helvetica,sans-Serif" font-size="10.00">and 7 more...</text>
<text text-anchor="start" x="13.5" y="-318.5" font-family="Helvetica,sans-Serif" font-size="10.00">~ bind_to()</text>
<text text-anchor="start" x="13.5" y="-307.5" font-family="Helvetica,sans-Serif" font-size="10.00">~ unify_to()</text>
<text text-anchor="start" x="13.5" y="-296.5" font-family="Helvetica,sans-Serif" font-size="10.00">~ reaction()</text>
<text text-anchor="start" x="13.5" y="-285.5" font-family="Helvetica,sans-Serif" font-size="10.00">~ isClause()</text>
<text text-anchor="start" x="13.5" y="-274.5" font-family="Helvetica,sans-Serif" font-size="10.00"># funToString()</text>
<text text-anchor="start" x="13.5" y="-263.5" font-family="Helvetica,sans-Serif" font-size="10.00"># unInitializedClone()</text>
<text text-anchor="start" x="13.5" y="-252.5" font-family="Helvetica,sans-Serif" font-size="10.00"># initializedClone()</text>
<text text-anchor="start" x="13.5" y="-241.5" font-family="Helvetica,sans-Serif" font-size="10.00"># watchNull()</text>
<text text-anchor="start" x="13.5" y="-230.5" font-family="Helvetica,sans-Serif" font-size="10.00">&#45; show_args()</text>
</a>
</g>
</g>
<!-- Node3&#45;&gt;Node2 -->
<g id="edge2" class="edge"><title>Node3&#45;&gt;Node2</title>
<path fill="none" stroke="midnightblue" d="M59.5,-213.414C59.5,-203.533 59.5,-194.177 59.5,-185.774"/>
<polygon fill="none" stroke="midnightblue" points="56.0001,-213.454 59.5,-223.454 63.0001,-213.454 56.0001,-213.454"/>
</g>
<!-- Node4 -->
<g id="node4" class="node"><title>Node4</title>
<g id="a_node4"><a xlink:href="../../d0/d3f/classprolog_1_1terms_1_1Const.html" target="_top" xlink:title="Symbolic constant, of arity 0. ">
<polygon fill="none" stroke="black" points="90.5,-537.5 90.5,-682.5 190.5,-682.5 190.5,-537.5 90.5,-537.5"/>
<text text-anchor="middle" x="140.5" y="-670.5" font-family="Helvetica,sans-Serif" font-size="10.00">prolog.terms.Const</text>
<polyline fill="none" stroke="black" points="90.5,-663.5 190.5,-663.5 "/>
<text text-anchor="start" x="98.5" y="-651.5" font-family="Helvetica,sans-Serif" font-size="10.00">&#45; sym</text>
<polyline fill="none" stroke="black" points="90.5,-644.5 190.5,-644.5 "/>
<text text-anchor="start" x="98.5" y="-632.5" font-family="Helvetica,sans-Serif" font-size="10.00">+ Const()</text>
<text text-anchor="start" x="98.5" y="-621.5" font-family="Helvetica,sans-Serif" font-size="10.00">+ name()</text>
<text text-anchor="start" x="98.5" y="-610.5" font-family="Helvetica,sans-Serif" font-size="10.00">+ qname()</text>
<text text-anchor="start" x="98.5" y="-599.5" font-family="Helvetica,sans-Serif" font-size="10.00">+ toString()</text>
<text text-anchor="start" x="98.5" y="-588.5" font-family="Helvetica,sans-Serif" font-size="10.00">+ getKey()</text>
<text text-anchor="start" x="98.5" y="-577.5" font-family="Helvetica,sans-Serif" font-size="10.00">+ getArity()</text>
<text text-anchor="start" x="98.5" y="-566.5" font-family="Helvetica,sans-Serif" font-size="10.00">+ toUnquoted()</text>
<text text-anchor="start" x="98.5" y="-555.5" font-family="Helvetica,sans-Serif" font-size="10.00">+ the()</text>
<text text-anchor="start" x="98.5" y="-544.5" font-family="Helvetica,sans-Serif" font-size="10.00">~ bind_to()</text>
</a>
</g>
</g>
<!-- Node4&#45;&gt;Node3 -->
<g id="edge3" class="edge"><title>Node4&#45;&gt;Node3</title>
<path fill="none" stroke="midnightblue" d="M114.298,-527.646C110.376,-515.466 106.248,-502.649 102.09,-489.74"/>
<polygon fill="none" stroke="midnightblue" points="111,-528.821 117.397,-537.267 117.663,-526.675 111,-528.821"/>
</g>
<!-- Node4&#45;&gt;Node4 -->
<g id="edge10" class="edge"><title>Node4&#45;&gt;Node4</title>
<path fill="none" stroke="#404040" d="M190.614,-627.367C201.018,-625.539 208.5,-619.75 208.5,-610 208.5,-604.363 205.999,-600.05 201.879,-597.061"/>
<polygon fill="none" stroke="#404040" points="201.782,-597.023 194.734,-598.551 190.614,-592.633 197.661,-591.105 201.782,-597.023"/>
<text text-anchor="middle" x="225.5" y="-629.5" font-family="Helvetica,sans-Serif" font-size="10.00"> +aTrue</text>
<text text-anchor="middle" x="225.5" y="-618.5" font-family="Helvetica,sans-Serif" font-size="10.00">+aNo</text>
<text text-anchor="middle" x="225.5" y="-607.5" font-family="Helvetica,sans-Serif" font-size="10.00">+anEof</text>
<text text-anchor="middle" x="225.5" y="-596.5" font-family="Helvetica,sans-Serif" font-size="10.00">+aYes</text>
<text text-anchor="middle" x="225.5" y="-585.5" font-family="Helvetica,sans-Serif" font-size="10.00">+aFail</text>
</g>
<!-- Node9 -->
<g id="node9" class="node"><title>Node9</title>
<g id="a_node9"><a xlink:href="../../d8/dad/classprolog_1_1terms_1_1Nil.html" target="_top" xlink:title="Special constant terminating a list. ">
<polygon fill="none" stroke="black" points="131.5,-322.5 131.5,-390.5 217.5,-390.5 217.5,-322.5 131.5,-322.5"/>
<text text-anchor="middle" x="174.5" y="-378.5" font-family="Helvetica,sans-Serif" font-size="10.00">prolog.terms.Nil</text>
<polyline fill="none" stroke="black" points="131.5,-371.5 217.5,-371.5 "/>
<text text-anchor="middle" x="174.5" y="-359.5" font-family="Helvetica,sans-Serif" font-size="10.00"> </text>
<polyline fill="none" stroke="black" points="131.5,-352.5 217.5,-352.5 "/>
<text text-anchor="start" x="139.5" y="-340.5" font-family="Helvetica,sans-Serif" font-size="10.00">+ Nil()</text>
<text text-anchor="start" x="139.5" y="-329.5" font-family="Helvetica,sans-Serif" font-size="10.00">+ Nil()</text>
</a>
</g>
</g>
<!-- Node4&#45;&gt;Node9 -->
<g id="edge9" class="edge"><title>Node4&#45;&gt;Node9</title>
<path fill="none" stroke="midnightblue" d="M151.557,-527.21C157.831,-480.799 165.341,-425.25 170.017,-390.66"/>
<polygon fill="none" stroke="midnightblue" points="148.069,-526.888 150.198,-537.267 155.006,-527.826 148.069,-526.888"/>
</g>
<!-- Node5 -->
<g id="node5" class="node"><title>Node5</title>
<g id="a_node5"><a xlink:href="../../d4/de0/classprolog_1_1terms_1_1Nonvar.html" target="_top" xlink:title="Part of the Prolog Term hierarchy. ">
<polygon fill="none" stroke="black" points="88,-730.5 88,-820.5 193,-820.5 193,-730.5 88,-730.5"/>
<text text-anchor="middle" x="140.5" y="-808.5" font-family="Helvetica,sans-Serif" font-size="10.00">prolog.terms.Nonvar</text>
<polyline fill="none" stroke="black" points="88,-801.5 193,-801.5 "/>
<text text-anchor="middle" x="140.5" y="-789.5" font-family="Helvetica,sans-Serif" font-size="10.00"> </text>
<polyline fill="none" stroke="black" points="88,-782.5 193,-782.5 "/>
<text text-anchor="start" x="96" y="-770.5" font-family="Helvetica,sans-Serif" font-size="10.00">+ name()</text>
<text text-anchor="start" x="96" y="-759.5" font-family="Helvetica,sans-Serif" font-size="10.00">~ bind_to()</text>
<text text-anchor="start" x="96" y="-748.5" font-family="Helvetica,sans-Serif" font-size="10.00">~ unify_to()</text>
<text text-anchor="start" x="96" y="-737.5" font-family="Helvetica,sans-Serif" font-size="10.00">~ listify()</text>
</a>
</g>
</g>
<!-- Node5&#45;&gt;Node4 -->
<g id="edge4" class="edge"><title>Node5&#45;&gt;Node4</title>
<path fill="none" stroke="midnightblue" d="M140.5,-720.005C140.5,-708.05 140.5,-695.217 140.5,-682.703"/>
<polygon fill="none" stroke="midnightblue" points="137,-720.255 140.5,-730.255 144,-720.255 137,-720.255"/>
</g>
<!-- Node6 -->
<g id="node6" class="node"><title>Node6</title>
<g id="a_node6"><a xlink:href="../../d3/ded/classprolog_1_1terms_1_1Term.html" target="_top" xlink:title="Top element of the Prolog term hierarchy. ">
<polygon fill="none" stroke="black" points="22.5,-858.5 22.5,-1212.5 120.5,-1212.5 120.5,-858.5 22.5,-858.5"/>
<text text-anchor="middle" x="71.5" y="-1200.5" font-family="Helvetica,sans-Serif" font-size="10.00">prolog.terms.Term</text>
<polyline fill="none" stroke="black" points="22.5,-1193.5 120.5,-1193.5 "/>
<text text-anchor="start" x="30.5" y="-1181.5" font-family="Helvetica,sans-Serif" font-size="10.00">+ JAVA</text>
<text text-anchor="start" x="30.5" y="-1170.5" font-family="Helvetica,sans-Serif" font-size="10.00">+ REAL</text>
<text text-anchor="start" x="30.5" y="-1159.5" font-family="Helvetica,sans-Serif" font-size="10.00">+ INT</text>
<text text-anchor="start" x="30.5" y="-1148.5" font-family="Helvetica,sans-Serif" font-size="10.00">+ VAR</text>
<text text-anchor="start" x="30.5" y="-1137.5" font-family="Helvetica,sans-Serif" font-size="10.00">+ CONST</text>
<polyline fill="none" stroke="black" points="22.5,-1130.5 120.5,-1130.5 "/>
<text text-anchor="start" x="30.5" y="-1118.5" font-family="Helvetica,sans-Serif" font-size="10.00">+ getArity()</text>
<text text-anchor="start" x="30.5" y="-1107.5" font-family="Helvetica,sans-Serif" font-size="10.00">+ ref()</text>
<text text-anchor="start" x="30.5" y="-1096.5" font-family="Helvetica,sans-Serif" font-size="10.00">+ token()</text>
<text text-anchor="start" x="30.5" y="-1085.5" font-family="Helvetica,sans-Serif" font-size="10.00">+ toClause()</text>
<text text-anchor="start" x="30.5" y="-1074.5" font-family="Helvetica,sans-Serif" font-size="10.00">+ matches()</text>
<text text-anchor="start" x="30.5" y="-1063.5" font-family="Helvetica,sans-Serif" font-size="10.00">+ matches()</text>
<text text-anchor="start" x="30.5" y="-1052.5" font-family="Helvetica,sans-Serif" font-size="10.00">+ matching_copy()</text>
<text text-anchor="start" x="30.5" y="-1041.5" font-family="Helvetica,sans-Serif" font-size="10.00">+ copy()</text>
<text text-anchor="start" x="30.5" y="-1030.5" font-family="Helvetica,sans-Serif" font-size="10.00">+ varsOf()</text>
<text text-anchor="start" x="30.5" y="-1019.5" font-family="Helvetica,sans-Serif" font-size="10.00">+ numbervars()</text>
<text text-anchor="start" x="30.5" y="-1008.5" font-family="Helvetica,sans-Serif" font-size="10.00">and 6 more...</text>
<text text-anchor="start" x="30.5" y="-997.5" font-family="Helvetica,sans-Serif" font-size="10.00">+ fromString()</text>
<text text-anchor="start" x="30.5" y="-986.5" font-family="Helvetica,sans-Serif" font-size="10.00">+ charsToString()</text>
<text text-anchor="start" x="30.5" y="-975.5" font-family="Helvetica,sans-Serif" font-size="10.00">~ bind_to()</text>
<text text-anchor="start" x="30.5" y="-964.5" font-family="Helvetica,sans-Serif" font-size="10.00">~ unify_to()</text>
<text text-anchor="start" x="30.5" y="-953.5" font-family="Helvetica,sans-Serif" font-size="10.00">~ toTerm()</text>
<text text-anchor="start" x="30.5" y="-942.5" font-family="Helvetica,sans-Serif" font-size="10.00">~ isClause()</text>
<text text-anchor="start" x="30.5" y="-931.5" font-family="Helvetica,sans-Serif" font-size="10.00">~ reaction()</text>
<text text-anchor="start" x="30.5" y="-920.5" font-family="Helvetica,sans-Serif" font-size="10.00">~ action()</text>
<text text-anchor="start" x="30.5" y="-909.5" font-family="Helvetica,sans-Serif" font-size="10.00">~ exec()</text>
<text text-anchor="start" x="30.5" y="-898.5" font-family="Helvetica,sans-Serif" font-size="10.00">~ stringToChars()</text>
<text text-anchor="start" x="30.5" y="-887.5" font-family="Helvetica,sans-Serif" font-size="10.00"># unify()</text>
<text text-anchor="start" x="30.5" y="-876.5" font-family="Helvetica,sans-Serif" font-size="10.00"># undo()</text>
<text text-anchor="start" x="30.5" y="-865.5" font-family="Helvetica,sans-Serif" font-size="10.00"># exec()</text>
</a>
</g>
</g>
<!-- Node6&#45;&gt;Node3 -->
<g id="edge11" class="edge"><title>Node6&#45;&gt;Node3</title>
<path fill="none" stroke="#404040" d="M68.3785,-858.394C66.4129,-747.502 63.9072,-606.139 62.0593,-501.885"/>
<polygon fill="none" stroke="#404040" points="62.0557,-501.678 57.9499,-495.75 61.8429,-489.68 65.9487,-495.608 62.0557,-501.678"/>
<text text-anchor="middle" x="80.5" y="-704" font-family="Helvetica,sans-Serif" font-size="10.00"> +args</text>
</g>
<!-- Node6&#45;&gt;Node5 -->
<g id="edge5" class="edge"><title>Node6&#45;&gt;Node5</title>
<path fill="none" stroke="midnightblue" d="M121.192,-848.695C123.878,-838.653 126.41,-829.186 128.701,-820.617"/>
<polygon fill="none" stroke="midnightblue" points="117.776,-847.923 118.573,-858.487 124.538,-849.731 117.776,-847.923"/>
</g>
<!-- Node7 -->
<g id="node7" class="node"><title>Node7</title>
<polygon fill="none" stroke="#bfbfbf" points="14,-1250.5 14,-1307.5 59,-1307.5 59,-1250.5 14,-1250.5"/>
<text text-anchor="middle" x="36.5" y="-1295.5" font-family="Helvetica,sans-Serif" font-size="10.00">Object</text>
<polyline fill="none" stroke="#bfbfbf" points="14,-1288.5 59,-1288.5 "/>
<text text-anchor="middle" x="36.5" y="-1276.5" font-family="Helvetica,sans-Serif" font-size="10.00"> </text>
<polyline fill="none" stroke="#bfbfbf" points="14,-1269.5 59,-1269.5 "/>
<text text-anchor="middle" x="36.5" y="-1257.5" font-family="Helvetica,sans-Serif" font-size="10.00"> </text>
</g>
<!-- Node7&#45;&gt;Node6 -->
<g id="edge6" class="edge"><title>Node7&#45;&gt;Node6</title>
<path fill="none" stroke="midnightblue" d="M41.9619,-1240.31C43.1703,-1231.97 44.5272,-1222.61 45.978,-1212.6"/>
<polygon fill="none" stroke="midnightblue" points="38.4855,-1239.9 40.5149,-1250.3 45.4131,-1240.9 38.4855,-1239.9"/>
</g>
<!-- Node8 -->
<g id="node8" class="node"><title>Node8</title>
<polygon fill="none" stroke="#bfbfbf" points="77.5,-1250.5 77.5,-1307.5 137.5,-1307.5 137.5,-1250.5 77.5,-1250.5"/>
<text text-anchor="middle" x="107.5" y="-1295.5" font-family="Helvetica,sans-Serif" font-size="10.00">Cloneable</text>
<polyline fill="none" stroke="#bfbfbf" points="77.5,-1288.5 137.5,-1288.5 "/>
<text text-anchor="middle" x="107.5" y="-1276.5" font-family="Helvetica,sans-Serif" font-size="10.00"> </text>
<polyline fill="none" stroke="#bfbfbf" points="77.5,-1269.5 137.5,-1269.5 "/>
<text text-anchor="middle" x="107.5" y="-1257.5" font-family="Helvetica,sans-Serif" font-size="10.00"> </text>
</g>
<!-- Node8&#45;&gt;Node6 -->
<g id="edge7" class="edge"><title>Node8&#45;&gt;Node6</title>
<path fill="none" stroke="midnightblue" d="M101.882,-1240.31C100.639,-1231.97 99.2434,-1222.61 97.7512,-1212.6"/>
<polygon fill="none" stroke="midnightblue" points="98.4341,-1240.92 103.37,-1250.3 105.358,-1239.89 98.4341,-1240.92"/>
</g>
<!-- Node9&#45;&gt;Node4 -->
<g id="edge8" class="edge"><title>Node9&#45;&gt;Node4</title>
<path fill="none" stroke="#404040" d="M170.017,-390.66C165.41,-424.742 158.051,-479.173 151.834,-525.161"/>
<polygon fill="none" stroke="#404040" points="151.805,-525.375 154.965,-531.857 150.198,-537.267 147.037,-530.785 151.805,-525.375"/>
<text text-anchor="middle" x="167" y="-511" font-family="Helvetica,sans-Serif" font-size="10.00"> +aNil</text>
</g>
</g>
</svg>
        <g id="navigator" transform="translate(0 0)" fill="#404254">
                <rect fill="#f2f5e9" fill-opacity="0.5" stroke="#606060" stroke-width=".5" x="0" y="0" width="60" height="60"/>
                <use id="zoomplus" xlink:href="#zoomPlus" x="17" y="9" onmousedown="handleZoom(evt,'in')"/>
                <use id="zoomminus" xlink:href="#zoomMin" x="42" y="9" onmousedown="handleZoom(evt,'out')"/>
                <use id="reset" xlink:href="#resetDef" x="30" y="36" onmousedown="handleReset()"/>
                <g id="arrowUp" xlink:href="#dirArrow" transform="translate(30 24)" onmousedown="handlePan(0,-1)">
                  <use xlink:href="#rim" fill="#404040">
                        <set attributeName="fill" to="#808080" begin="arrowUp.mouseover" end="arrowUp.mouseout"/>
                  </use>
                  <path fill="none" stroke="white" stroke-width="1.5" d="M0,-3.0v7 M-2.5,-0.5L0,-3.0L2.5,-0.5"/>
                </g>
                <g id="arrowRight" xlink:href="#dirArrow" transform="rotate(90) translate(36 -43)" onmousedown="handlePan(1,0)">
                  <use xlink:href="#rim" fill="#404040">
                        <set attributeName="fill" to="#808080" begin="arrowRight.mouseover" end="arrowRight.mouseout"/>
                  </use>
                  <path fill="none" stroke="white" stroke-width="1.5" d="M0,-3.0v7 M-2.5,-0.5L0,-3.0L2.5,-0.5"/>
                </g>
                <g id="arrowDown" xlink:href="#dirArrow" transform="rotate(180) translate(-30 -48)" onmousedown="handlePan(0,1)">
                  <use xlink:href="#rim" fill="#404040">
                        <set attributeName="fill" to="#808080" begin="arrowDown.mouseover" end="arrowDown.mouseout"/>
                  </use>
                  <path fill="none" stroke="white" stroke-width="1.5" d="M0,-3.0v7 M-2.5,-0.5L0,-3.0L2.5,-0.5"/>
                </g>
                <g id="arrowLeft" xlink:href="#dirArrow" transform="rotate(270) translate(-36 17)" onmousedown="handlePan(-1,0)">
                  <use xlink:href="#rim" fill="#404040">
                        <set attributeName="fill" to="#808080" begin="arrowLeft.mouseover" end="arrowLeft.mouseout"/>
                  </use>
                  <path fill="none" stroke="white" stroke-width="1.5" d="M0,-3.0v7 M-2.5,-0.5L0,-3.0L2.5,-0.5"/>
                </g>
        </g>
        <svg viewBox="0 0 15 15" width="100%" height="30px" preserveAspectRatio="xMaxYMin meet">
         <g id="arrow_out" transform="scale(0.3 0.3)">
          <a xlink:href="classprolog_1_1builtins_1_1reconsult__coll__graph_org.svg" target="_base">
           <rect id="button" ry="5" rx="5" y="6" x="6" height="38" width="38"
                fill="#f2f5e9" fill-opacity="0.5" stroke="#606060" stroke-width="1.0"/>
           <path id="arrow"
             d="M 11.500037,31.436501 C 11.940474,20.09759 22.043105,11.32322 32.158766,21.979434 L 37.068811,17.246167 C 37.068811,17.246167 37.088388,32 37.088388,32 L 22.160133,31.978069 C 22.160133,31.978069 26.997745,27.140456 26.997745,27.140456 C 18.528582,18.264221 13.291696,25.230495 11.500037,31.436501 z"
             style="fill:#404040;"/>
          </a>
         </g>
        </svg>
</svg>
