<?xml version="1.0" encoding="UTF-8" standalone="no"?>
<!DOCTYPE svg PUBLIC "-//W3C//DTD SVG 1.1//EN"
 "http://www.w3.org/Graphics/SVG/1.1/DTD/svg11.dtd">
<!-- Generated by graphviz version 2.38.0 (20140413.2041)
 -->
<!-- Title: prolog.terms.Conj.getHead Pages: 1 -->
<svg width="295pt" height="66pt"
 viewBox="0.00 0.00 295.00 66.00" xmlns="http://www.w3.org/2000/svg" xmlns:xlink="http://www.w3.org/1999/xlink">
<g id="graph0" class="graph" transform="scale(1 1) rotate(0) translate(4 62)">
<title>prolog.terms.Conj.getHead</title>
<!-- Node1 -->
<g id="node1" class="node"><title>Node1</title>
<polygon fill="#bfbfbf" stroke="black" points="0,-19.5 0,-38.5 134,-38.5 134,-19.5 0,-19.5"/>
<text text-anchor="middle" x="67" y="-26.5" font-family="Helvetica,sans-Serif" font-size="10.00">prolog.terms.Conj.getHead</text>
</g>
<!-- Node2 -->
<g id="node2" class="node"><title>Node2</title>
<g id="a_node2"><a xlink:href="../../d2/dce/classprolog_1_1terms_1_1Conj_a6484a4b3d121a52ba339a32e3b63ba71.html#a6484a4b3d121a52ba339a32e3b63ba71" target="_top" xlink:title="prolog.terms.Conj.Conj">
<polygon fill="none" stroke="black" points="170,-38.5 170,-57.5 287,-57.5 287,-38.5 170,-38.5"/>
<text text-anchor="middle" x="228.5" y="-45.5" font-family="Helvetica,sans-Serif" font-size="10.00">prolog.terms.Conj.Conj</text>
</a>
</g>
</g>
<!-- Node1&#45;&gt;Node2 -->
<g id="edge1" class="edge"><title>Node1&#45;&gt;Node2</title>
<path fill="none" stroke="midnightblue" d="M134.257,-36.8926C142.654,-37.8929 151.257,-38.9177 159.678,-39.9209"/>
<polygon fill="midnightblue" stroke="midnightblue" points="159.49,-43.4232 169.834,-41.1307 160.318,-36.4723 159.49,-43.4232"/>
</g>
<!-- Node3 -->
<g id="node3" class="node"><title>Node3</title>
<g id="a_node3"><a xlink:href="../../d3/ded/classprolog_1_1terms_1_1Term_ae140fac2c9d066dc897fcfa723060a7a.html#ae140fac2c9d066dc897fcfa723060a7a" target="_top" xlink:title="Dereferences if necessary. ">
<polygon fill="none" stroke="black" points="173.5,-0.5 173.5,-19.5 283.5,-19.5 283.5,-0.5 173.5,-0.5"/>
<text text-anchor="middle" x="228.5" y="-7.5" font-family="Helvetica,sans-Serif" font-size="10.00">prolog.terms.Term.ref</text>
</a>
</g>
</g>
<!-- Node1&#45;&gt;Node3 -->
<g id="edge2" class="edge"><title>Node1&#45;&gt;Node3</title>
<path fill="none" stroke="midnightblue" d="M134.257,-21.1074C143.811,-19.9693 153.631,-18.7995 163.147,-17.6659"/>
<polygon fill="midnightblue" stroke="midnightblue" points="163.811,-21.1116 173.327,-16.4532 162.983,-14.1608 163.811,-21.1116"/>
</g>
</g>
</svg>
