<?xml version="1.0" encoding="UTF-8" standalone="no"?>
<!DOCTYPE svg PUBLIC "-//W3C//DTD SVG 1.1//EN"
 "http://www.w3.org/Graphics/SVG/1.1/DTD/svg11.dtd">
<!-- Generated by graphviz version 2.38.0 (20140413.2041)
 -->
<!-- Title: prolog.terms.Conj.toString Pages: 1 -->
<svg width="667pt" height="66pt"
 viewBox="0.00 0.00 667.00 66.00" xmlns="http://www.w3.org/2000/svg" xmlns:xlink="http://www.w3.org/1999/xlink">
<g id="graph0" class="graph" transform="scale(1 1) rotate(0) translate(4 62)">
<title>prolog.terms.Conj.toString</title>
<!-- Node1 -->
<g id="node1" class="node"><title>Node1</title>
<polygon fill="#bfbfbf" stroke="black" points="0,-19.5 0,-38.5 131,-38.5 131,-19.5 0,-19.5"/>
<text text-anchor="middle" x="65.5" y="-26.5" font-family="Helvetica,sans-Serif" font-size="10.00">prolog.terms.Conj.toString</text>
</g>
<!-- Node2 -->
<g id="node2" class="node"><title>Node2</title>
<g id="a_node2"><a xlink:href="../../de/d8d/classprolog_1_1terms_1_1Fun_a6f5f0d3b6f41a3cd8ce14f847db13a3a.html#a6f5f0d3b6f41a3cd8ce14f847db13a3a" target="_top" xlink:title="prolog.terms.Fun.funToString">
<polygon fill="none" stroke="black" points="167,-19.5 167,-38.5 310,-38.5 310,-19.5 167,-19.5"/>
<text text-anchor="middle" x="238.5" y="-26.5" font-family="Helvetica,sans-Serif" font-size="10.00">prolog.terms.Fun.funToString</text>
</a>
</g>
</g>
<!-- Node1&#45;&gt;Node2 -->
<g id="edge1" class="edge"><title>Node1&#45;&gt;Node2</title>
<path fill="none" stroke="midnightblue" d="M131.148,-29C139.509,-29 148.154,-29 156.735,-29"/>
<polygon fill="midnightblue" stroke="midnightblue" points="156.758,-32.5001 166.758,-29 156.758,-25.5001 156.758,-32.5001"/>
</g>
<!-- Node3 -->
<g id="node3" class="node"><title>Node3</title>
<g id="a_node3"><a xlink:href="../../d0/d3f/classprolog_1_1terms_1_1Const_a17ea180cc943733536458fbdaf3e17f8.html#a17ea180cc943733536458fbdaf3e17f8" target="_top" xlink:title="prolog.terms.Const.qname">
<polygon fill="none" stroke="black" points="350,-38.5 350,-57.5 482,-57.5 482,-38.5 350,-38.5"/>
<text text-anchor="middle" x="416" y="-45.5" font-family="Helvetica,sans-Serif" font-size="10.00">prolog.terms.Const.qname</text>
</a>
</g>
</g>
<!-- Node2&#45;&gt;Node3 -->
<g id="edge2" class="edge"><title>Node2&#45;&gt;Node3</title>
<path fill="none" stroke="midnightblue" d="M310.124,-36.6459C319.879,-37.702 329.929,-38.79 339.764,-39.8548"/>
<polygon fill="midnightblue" stroke="midnightblue" points="339.596,-43.3569 349.914,-40.9537 340.349,-36.3976 339.596,-43.3569"/>
</g>
<!-- Node4 -->
<g id="node4" class="node"><title>Node4</title>
<g id="a_node4"><a xlink:href="../../de/d8d/classprolog_1_1terms_1_1Fun_a60d43446599c976854c44a42af398139.html#a60d43446599c976854c44a42af398139" target="_top" xlink:title="prolog.terms.Fun.show_args">
<polygon fill="none" stroke="black" points="346,-0.5 346,-19.5 486,-19.5 486,-0.5 346,-0.5"/>
<text text-anchor="middle" x="416" y="-7.5" font-family="Helvetica,sans-Serif" font-size="10.00">prolog.terms.Fun.show_args</text>
</a>
</g>
</g>
<!-- Node2&#45;&gt;Node4 -->
<g id="edge3" class="edge"><title>Node2&#45;&gt;Node4</title>
<path fill="none" stroke="midnightblue" d="M310.124,-21.3541C318.613,-20.4351 327.324,-19.492 335.924,-18.561"/>
<polygon fill="midnightblue" stroke="midnightblue" points="336.382,-22.0319 345.947,-17.4759 335.628,-15.0726 336.382,-22.0319"/>
</g>
<!-- Node5 -->
<g id="node5" class="node"><title>Node5</title>
<g id="a_node5"><a xlink:href="../../de/d8d/classprolog_1_1terms_1_1Fun_ae68c6eb755ff4f2b1d3ebe6fcc174a0b.html#ae68c6eb755ff4f2b1d3ebe6fcc174a0b" target="_top" xlink:title="prolog.terms.Fun.watchNull">
<polygon fill="none" stroke="black" points="522,-0.5 522,-19.5 659,-19.5 659,-0.5 522,-0.5"/>
<text text-anchor="middle" x="590.5" y="-7.5" font-family="Helvetica,sans-Serif" font-size="10.00">prolog.terms.Fun.watchNull</text>
</a>
</g>
</g>
<!-- Node4&#45;&gt;Node5 -->
<g id="edge4" class="edge"><title>Node4&#45;&gt;Node5</title>
<path fill="none" stroke="midnightblue" d="M486.168,-10C494.498,-10 503.049,-10 511.494,-10"/>
<polygon fill="midnightblue" stroke="midnightblue" points="511.72,-13.5001 521.72,-10 511.72,-6.5001 511.72,-13.5001"/>
</g>
</g>
</svg>
