<?xml version="1.0" encoding="UTF-8" standalone="no"?>
<!DOCTYPE svg PUBLIC "-//W3C//DTD SVG 1.1//EN"
 "http://www.w3.org/Graphics/SVG/1.1/DTD/svg11.dtd">
<!-- Generated by graphviz version 2.38.0 (20140413.2041)
 -->
<!-- Title: prolog.Init Pages: 1 -->
<svg width="390pt" height="1433pt"
 viewBox="0.00 0.00 390.00 1433.00" xmlns="http://www.w3.org/2000/svg" xmlns:xlink="http://www.w3.org/1999/xlink">
<g id="graph0" class="graph" transform="scale(1 1) rotate(0) translate(4 1429)">
<title>prolog.Init</title>
<!-- Node1 -->
<g id="node1" class="node"><title>Node1</title>
<polygon fill="#bfbfbf" stroke="black" points="51,-0.5 51,-211.5 143,-211.5 143,-0.5 51,-0.5"/>
<text text-anchor="middle" x="97" y="-199.5" font-family="Helvetica,sans-Serif" font-size="10.00">prolog.Init</text>
<polyline fill="none" stroke="black" points="51,-192.5 143,-192.5 "/>
<text text-anchor="start" x="59" y="-180.5" font-family="Helvetica,sans-Serif" font-size="10.00">+ version</text>
<text text-anchor="start" x="59" y="-169.5" font-family="Helvetica,sans-Serif" font-size="10.00">+ default_lib</text>
<polyline fill="none" stroke="black" points="51,-162.5 143,-162.5 "/>
<text text-anchor="start" x="59" y="-150.5" font-family="Helvetica,sans-Serif" font-size="10.00">+ getInfo()</text>
<text text-anchor="start" x="59" y="-139.5" font-family="Helvetica,sans-Serif" font-size="10.00">+ getGoal()</text>
<text text-anchor="start" x="59" y="-128.5" font-family="Helvetica,sans-Serif" font-size="10.00">+ run_query()</text>
<text text-anchor="start" x="59" y="-117.5" font-family="Helvetica,sans-Serif" font-size="10.00">+ evalGoal()</text>
<text text-anchor="start" x="59" y="-106.5" font-family="Helvetica,sans-Serif" font-size="10.00">+ timeGoal()</text>
<text text-anchor="start" x="59" y="-95.5" font-family="Helvetica,sans-Serif" font-size="10.00">+ standardTop()</text>
<text text-anchor="start" x="59" y="-84.5" font-family="Helvetica,sans-Serif" font-size="10.00">+ standardTop()</text>
<text text-anchor="start" x="59" y="-73.5" font-family="Helvetica,sans-Serif" font-size="10.00">+ askProlog()</text>
<text text-anchor="start" x="59" y="-62.5" font-family="Helvetica,sans-Serif" font-size="10.00">+ askProlog()</text>
<text text-anchor="start" x="59" y="-51.5" font-family="Helvetica,sans-Serif" font-size="10.00">+ askProlog()</text>
<text text-anchor="start" x="59" y="-40.5" font-family="Helvetica,sans-Serif" font-size="10.00">+ run()</text>
<text text-anchor="start" x="59" y="-29.5" font-family="Helvetica,sans-Serif" font-size="10.00">+ startProlog()</text>
<text text-anchor="start" x="59" y="-18.5" font-family="Helvetica,sans-Serif" font-size="10.00">~ getGoal()</text>
<text text-anchor="start" x="59" y="-7.5" font-family="Helvetica,sans-Serif" font-size="10.00">~ moreAnswers()</text>
</g>
<!-- Node2 -->
<g id="node2" class="node"><title>Node2</title>
<g id="a_node2"><a xlink:href="../../da/dd9/classprolog_1_1fluents_1_1DataBase.html" target="_top" xlink:title="Implements a Term and Clause objects based blackboard (database). ">
<polygon fill="none" stroke="black" points="127,-259.5 127,-525.5 249,-525.5 249,-259.5 127,-259.5"/>
<text text-anchor="middle" x="188" y="-513.5" font-family="Helvetica,sans-Serif" font-size="10.00">prolog.fluents.DataBase</text>
<polyline fill="none" stroke="black" points="127,-506.5 249,-506.5 "/>
<text text-anchor="start" x="135" y="-494.5" font-family="Helvetica,sans-Serif" font-size="10.00">&#45; lastFile</text>
<polyline fill="none" stroke="black" points="127,-487.5 249,-487.5 "/>
<text text-anchor="start" x="135" y="-475.5" font-family="Helvetica,sans-Serif" font-size="10.00">+ DataBase()</text>
<text text-anchor="start" x="135" y="-464.5" font-family="Helvetica,sans-Serif" font-size="10.00">+ cin()</text>
<text text-anchor="start" x="135" y="-453.5" font-family="Helvetica,sans-Serif" font-size="10.00">+ out()</text>
<text text-anchor="start" x="135" y="-442.5" font-family="Helvetica,sans-Serif" font-size="10.00">+ out()</text>
<text text-anchor="start" x="135" y="-431.5" font-family="Helvetica,sans-Serif" font-size="10.00">+ all()</text>
<text text-anchor="start" x="135" y="-420.5" font-family="Helvetica,sans-Serif" font-size="10.00">+ toEnumerationFor()</text>
<text text-anchor="start" x="135" y="-409.5" font-family="Helvetica,sans-Serif" font-size="10.00">+ pprint()</text>
<text text-anchor="start" x="135" y="-398.5" font-family="Helvetica,sans-Serif" font-size="10.00">+ pred_to_string()</text>
<text text-anchor="start" x="135" y="-387.5" font-family="Helvetica,sans-Serif" font-size="10.00">+ fromFile()</text>
<text text-anchor="start" x="135" y="-376.5" font-family="Helvetica,sans-Serif" font-size="10.00">+ fromFile()</text>
<text text-anchor="start" x="135" y="-365.5" font-family="Helvetica,sans-Serif" font-size="10.00">+ fromFile()</text>
<text text-anchor="start" x="135" y="-354.5" font-family="Helvetica,sans-Serif" font-size="10.00">+ streamToProg()</text>
<text text-anchor="start" x="135" y="-343.5" font-family="Helvetica,sans-Serif" font-size="10.00">+ addClause()</text>
<text text-anchor="start" x="135" y="-332.5" font-family="Helvetica,sans-Serif" font-size="10.00">+ processClause()</text>
<text text-anchor="start" x="135" y="-321.5" font-family="Helvetica,sans-Serif" font-size="10.00">&#45; all0()</text>
<text text-anchor="start" x="135" y="-310.5" font-family="Helvetica,sans-Serif" font-size="10.00">&#45; all1()</text>
<text text-anchor="start" x="135" y="-299.5" font-family="Helvetica,sans-Serif" font-size="10.00">&#45; all2()</text>
<text text-anchor="start" x="135" y="-288.5" font-family="Helvetica,sans-Serif" font-size="10.00">&#45; fileToProg()</text>
<text text-anchor="start" x="135" y="-277.5" font-family="Helvetica,sans-Serif" font-size="10.00">&#45; streamToProg()</text>
<text text-anchor="start" x="135" y="-266.5" font-family="Helvetica,sans-Serif" font-size="10.00">&#45; apply_parser()</text>
</a>
</g>
</g>
<!-- Node2&#45;&gt;Node1 -->
<g id="edge1" class="edge"><title>Node2&#45;&gt;Node1</title>
<path fill="none" stroke="#404040" d="M145.697,-259.245C141.868,-247.273 138.008,-235.207 134.228,-223.387"/>
<polygon fill="none" stroke="#404040" points="134.133,-223.092 128.495,-218.596 130.477,-211.662 136.115,-216.158 134.133,-223.092"/>
<text text-anchor="middle" x="167.5" y="-233" font-family="Helvetica,sans-Serif" font-size="10.00"> +default_db</text>
</g>
<!-- Node3 -->
<g id="node3" class="node"><title>Node3</title>
<g id="a_node3"><a xlink:href="../../d2/d8d/classprolog_1_1fluents_1_1BlackBoard.html" target="_top" xlink:title="This class implementes generic multiple tuples by key operations for use by the PrologBlackBoard clas...">
<polygon fill="none" stroke="black" points="84,-675.5 84,-798.5 212,-798.5 212,-675.5 84,-675.5"/>
<text text-anchor="middle" x="148" y="-786.5" font-family="Helvetica,sans-Serif" font-size="10.00">prolog.fluents.BlackBoard</text>
<polyline fill="none" stroke="black" points="84,-779.5 212,-779.5 "/>
<text text-anchor="middle" x="148" y="-767.5" font-family="Helvetica,sans-Serif" font-size="10.00"> </text>
<polyline fill="none" stroke="black" points="84,-760.5 212,-760.5 "/>
<text text-anchor="start" x="92" y="-748.5" font-family="Helvetica,sans-Serif" font-size="10.00">+ BlackBoard()</text>
<text text-anchor="start" x="92" y="-737.5" font-family="Helvetica,sans-Serif" font-size="10.00">+ toEnumerationFor()</text>
<text text-anchor="start" x="92" y="-726.5" font-family="Helvetica,sans-Serif" font-size="10.00">+ toEnumeration()</text>
<text text-anchor="start" x="92" y="-715.5" font-family="Helvetica,sans-Serif" font-size="10.00"># take()</text>
<text text-anchor="start" x="92" y="-704.5" font-family="Helvetica,sans-Serif" font-size="10.00"># add()</text>
<text text-anchor="start" x="92" y="-693.5" font-family="Helvetica,sans-Serif" font-size="10.00">&#45; pick()</text>
<text text-anchor="start" x="92" y="-682.5" font-family="Helvetica,sans-Serif" font-size="10.00">&#45; addBack()</text>
</a>
</g>
</g>
<!-- Node3&#45;&gt;Node2 -->
<g id="edge2" class="edge"><title>Node3&#45;&gt;Node2</title>
<path fill="none" stroke="midnightblue" d="M156.27,-665.188C160.97,-624.947 167.006,-573.263 172.549,-525.796"/>
<polygon fill="none" stroke="midnightblue" points="152.789,-664.824 155.105,-675.163 159.742,-665.636 152.789,-664.824"/>
</g>
<!-- Node4 -->
<g id="node4" class="node"><title>Node4</title>
<g id="a_node4"><a xlink:href="../../de/dd4/classprolog_1_1fluents_1_1HashDict.html" target="_top" xlink:title="General purpose dictionary. ">
<polygon fill="none" stroke="black" points="42.5,-858.5 42.5,-926.5 161.5,-926.5 161.5,-858.5 42.5,-858.5"/>
<text text-anchor="middle" x="102" y="-914.5" font-family="Helvetica,sans-Serif" font-size="10.00">prolog.fluents.HashDict</text>
<polyline fill="none" stroke="black" points="42.5,-907.5 161.5,-907.5 "/>
<text text-anchor="middle" x="102" y="-895.5" font-family="Helvetica,sans-Serif" font-size="10.00"> </text>
<polyline fill="none" stroke="black" points="42.5,-888.5 161.5,-888.5 "/>
<text text-anchor="start" x="50.5" y="-876.5" font-family="Helvetica,sans-Serif" font-size="10.00">+ name()</text>
<text text-anchor="start" x="50.5" y="-865.5" font-family="Helvetica,sans-Serif" font-size="10.00">+ stat()</text>
</a>
</g>
</g>
<!-- Node4&#45;&gt;Node3 -->
<g id="edge3" class="edge"><title>Node4&#45;&gt;Node3</title>
<path fill="none" stroke="midnightblue" d="M114.905,-848.435C119.519,-833.039 124.809,-815.387 129.786,-798.779"/>
<polygon fill="none" stroke="midnightblue" points="111.499,-847.609 111.981,-858.193 118.205,-849.618 111.499,-847.609"/>
</g>
<!-- Node12 -->
<g id="node12" class="node"><title>Node12</title>
<g id="a_node12"><a xlink:href="../../d7/d2b/classprolog_1_1builtins_1_1Builtins.html" target="_top" xlink:title="This class contains a dictionary of all builtins i.e. ">
<polygon fill="none" stroke="black" points="0,-544.5 0,-645.5 112,-645.5 112,-544.5 0,-544.5"/>
<text text-anchor="middle" x="56" y="-633.5" font-family="Helvetica,sans-Serif" font-size="10.00">prolog.builtins.Builtins</text>
<polyline fill="none" stroke="black" points="0,-626.5 112,-626.5 "/>
<text text-anchor="middle" x="56" y="-614.5" font-family="Helvetica,sans-Serif" font-size="10.00"> </text>
<polyline fill="none" stroke="black" points="0,-607.5 112,-607.5 "/>
<text text-anchor="start" x="8" y="-595.5" font-family="Helvetica,sans-Serif" font-size="10.00">+ Builtins()</text>
<text text-anchor="start" x="8" y="-584.5" font-family="Helvetica,sans-Serif" font-size="10.00">+ register()</text>
<text text-anchor="start" x="8" y="-573.5" font-family="Helvetica,sans-Serif" font-size="10.00">+ newBuiltin()</text>
<text text-anchor="start" x="8" y="-562.5" font-family="Helvetica,sans-Serif" font-size="10.00">+ toConstBuiltin()</text>
<text text-anchor="start" x="8" y="-551.5" font-family="Helvetica,sans-Serif" font-size="10.00">+ toFunBuiltin()</text>
</a>
</g>
</g>
<!-- Node4&#45;&gt;Node12 -->
<g id="edge14" class="edge"><title>Node4&#45;&gt;Node12</title>
<path fill="none" stroke="midnightblue" d="M85.7566,-848.69C81.6442,-836.36 77.6478,-822.784 75,-810 63.5016,-754.484 58.9593,-689.45 57.1664,-645.772"/>
<polygon fill="none" stroke="midnightblue" points="82.491,-849.957 89.0559,-858.272 89.1096,-847.678 82.491,-849.957"/>
</g>
<!-- Node5 -->
<g id="node5" class="node"><title>Node5</title>
<polygon fill="none" stroke="#bfbfbf" points="72.5,-1124 72.5,-1181 131.5,-1181 131.5,-1124 72.5,-1124"/>
<text text-anchor="middle" x="102" y="-1169" font-family="Helvetica,sans-Serif" font-size="10.00">HashMap</text>
<polyline fill="none" stroke="#bfbfbf" points="72.5,-1162 131.5,-1162 "/>
<text text-anchor="middle" x="102" y="-1150" font-family="Helvetica,sans-Serif" font-size="10.00"> </text>
<polyline fill="none" stroke="#bfbfbf" points="72.5,-1143 131.5,-1143 "/>
<text text-anchor="middle" x="102" y="-1131" font-family="Helvetica,sans-Serif" font-size="10.00"> </text>
</g>
<!-- Node5&#45;&gt;Node4 -->
<g id="edge4" class="edge"><title>Node5&#45;&gt;Node4</title>
<path fill="none" stroke="midnightblue" d="M102,-1113.72C102,-1063.23 102,-974.548 102,-926.569"/>
<polygon fill="none" stroke="midnightblue" points="98.5001,-1113.89 102,-1123.89 105.5,-1113.89 98.5001,-1113.89"/>
</g>
<!-- Node6 -->
<g id="node6" class="node"><title>Node6</title>
<g id="a_node6"><a xlink:href="../../d0/d3f/classprolog_1_1terms_1_1Const.html" target="_top" xlink:title="Symbolic constant, of arity 0. ">
<polygon fill="none" stroke="black" points="230,-664.5 230,-809.5 330,-809.5 330,-664.5 230,-664.5"/>
<text text-anchor="middle" x="280" y="-797.5" font-family="Helvetica,sans-Serif" font-size="10.00">prolog.terms.Const</text>
<polyline fill="none" stroke="black" points="230,-790.5 330,-790.5 "/>
<text text-anchor="start" x="238" y="-778.5" font-family="Helvetica,sans-Serif" font-size="10.00">&#45; sym</text>
<polyline fill="none" stroke="black" points="230,-771.5 330,-771.5 "/>
<text text-anchor="start" x="238" y="-759.5" font-family="Helvetica,sans-Serif" font-size="10.00">+ Const()</text>
<text text-anchor="start" x="238" y="-748.5" font-family="Helvetica,sans-Serif" font-size="10.00">+ name()</text>
<text text-anchor="start" x="238" y="-737.5" font-family="Helvetica,sans-Serif" font-size="10.00">+ qname()</text>
<text text-anchor="start" x="238" y="-726.5" font-family="Helvetica,sans-Serif" font-size="10.00">+ toString()</text>
<text text-anchor="start" x="238" y="-715.5" font-family="Helvetica,sans-Serif" font-size="10.00">+ getKey()</text>
<text text-anchor="start" x="238" y="-704.5" font-family="Helvetica,sans-Serif" font-size="10.00">+ getArity()</text>
<text text-anchor="start" x="238" y="-693.5" font-family="Helvetica,sans-Serif" font-size="10.00">+ toUnquoted()</text>
<text text-anchor="start" x="238" y="-682.5" font-family="Helvetica,sans-Serif" font-size="10.00">+ the()</text>
<text text-anchor="start" x="238" y="-671.5" font-family="Helvetica,sans-Serif" font-size="10.00">~ bind_to()</text>
</a>
</g>
</g>
<!-- Node6&#45;&gt;Node2 -->
<g id="edge5" class="edge"><title>Node6&#45;&gt;Node2</title>
<path fill="none" stroke="#404040" d="M255.566,-664.441C253.62,-658.223 251.737,-652.013 250,-646 239.925,-611.13 230.062,-573.254 221.273,-537.7"/>
<polygon fill="none" stroke="#404040" points="221.197,-537.393 215.881,-532.521 218.334,-525.74 223.65,-530.612 221.197,-537.393"/>
<text text-anchor="middle" x="261" y="-598" font-family="Helvetica,sans-Serif" font-size="10.00"> &#45;yes</text>
<text text-anchor="middle" x="261" y="-587" font-family="Helvetica,sans-Serif" font-size="10.00">&#45;no</text>
</g>
<!-- Node6&#45;&gt;Node6 -->
<g id="edge12" class="edge"><title>Node6&#45;&gt;Node6</title>
<path fill="none" stroke="#404040" d="M330.114,-753.282C340.518,-751.568 348,-746.141 348,-737 348,-731.716 345.499,-727.672 341.379,-724.87"/>
<polygon fill="none" stroke="#404040" points="341.374,-724.868 334.36,-726.546 330.114,-720.718 337.127,-719.04 341.374,-724.868"/>
<text text-anchor="middle" x="365" y="-756.5" font-family="Helvetica,sans-Serif" font-size="10.00"> +aTrue</text>
<text text-anchor="middle" x="365" y="-745.5" font-family="Helvetica,sans-Serif" font-size="10.00">+aNo</text>
<text text-anchor="middle" x="365" y="-734.5" font-family="Helvetica,sans-Serif" font-size="10.00">+anEof</text>
<text text-anchor="middle" x="365" y="-723.5" font-family="Helvetica,sans-Serif" font-size="10.00">+aYes</text>
<text text-anchor="middle" x="365" y="-712.5" font-family="Helvetica,sans-Serif" font-size="10.00">+aFail</text>
</g>
<!-- Node11 -->
<g id="node11" class="node"><title>Node11</title>
<g id="a_node11"><a xlink:href="../../d8/dad/classprolog_1_1terms_1_1Nil.html" target="_top" xlink:title="Special constant terminating a list. ">
<polygon fill="none" stroke="black" points="270,-358.5 270,-426.5 356,-426.5 356,-358.5 270,-358.5"/>
<text text-anchor="middle" x="313" y="-414.5" font-family="Helvetica,sans-Serif" font-size="10.00">prolog.terms.Nil</text>
<polyline fill="none" stroke="black" points="270,-407.5 356,-407.5 "/>
<text text-anchor="middle" x="313" y="-395.5" font-family="Helvetica,sans-Serif" font-size="10.00"> </text>
<polyline fill="none" stroke="black" points="270,-388.5 356,-388.5 "/>
<text text-anchor="start" x="278" y="-376.5" font-family="Helvetica,sans-Serif" font-size="10.00">+ Nil()</text>
<text text-anchor="start" x="278" y="-365.5" font-family="Helvetica,sans-Serif" font-size="10.00">+ Nil()</text>
</a>
</g>
</g>
<!-- Node6&#45;&gt;Node11 -->
<g id="edge11" class="edge"><title>Node6&#45;&gt;Node11</title>
<path fill="none" stroke="midnightblue" d="M303.619,-654.149C304.127,-651.409 304.59,-648.688 305,-646 316.867,-568.173 316.025,-475.347 314.463,-426.818"/>
<polygon fill="none" stroke="midnightblue" points="300.154,-653.623 301.599,-664.119 307.015,-655.014 300.154,-653.623"/>
</g>
<!-- Node7 -->
<g id="node7" class="node"><title>Node7</title>
<g id="a_node7"><a xlink:href="../../d4/de0/classprolog_1_1terms_1_1Nonvar.html" target="_top" xlink:title="Part of the Prolog Term hierarchy. ">
<polygon fill="none" stroke="black" points="227.5,-847.5 227.5,-937.5 332.5,-937.5 332.5,-847.5 227.5,-847.5"/>
<text text-anchor="middle" x="280" y="-925.5" font-family="Helvetica,sans-Serif" font-size="10.00">prolog.terms.Nonvar</text>
<polyline fill="none" stroke="black" points="227.5,-918.5 332.5,-918.5 "/>
<text text-anchor="middle" x="280" y="-906.5" font-family="Helvetica,sans-Serif" font-size="10.00"> </text>
<polyline fill="none" stroke="black" points="227.5,-899.5 332.5,-899.5 "/>
<text text-anchor="start" x="235.5" y="-887.5" font-family="Helvetica,sans-Serif" font-size="10.00">+ name()</text>
<text text-anchor="start" x="235.5" y="-876.5" font-family="Helvetica,sans-Serif" font-size="10.00">~ bind_to()</text>
<text text-anchor="start" x="235.5" y="-865.5" font-family="Helvetica,sans-Serif" font-size="10.00">~ unify_to()</text>
<text text-anchor="start" x="235.5" y="-854.5" font-family="Helvetica,sans-Serif" font-size="10.00">~ listify()</text>
</a>
</g>
</g>
<!-- Node7&#45;&gt;Node6 -->
<g id="edge6" class="edge"><title>Node7&#45;&gt;Node6</title>
<path fill="none" stroke="midnightblue" d="M280,-836.98C280,-828.165 280,-818.921 280,-809.771"/>
<polygon fill="none" stroke="midnightblue" points="276.5,-837.101 280,-847.101 283.5,-837.101 276.5,-837.101"/>
</g>
<!-- Node8 -->
<g id="node8" class="node"><title>Node8</title>
<g id="a_node8"><a xlink:href="../../d3/ded/classprolog_1_1terms_1_1Term.html" target="_top" xlink:title="Top element of the Prolog term hierarchy. ">
<polygon fill="none" stroke="black" points="231,-975.5 231,-1329.5 329,-1329.5 329,-975.5 231,-975.5"/>
<text text-anchor="middle" x="280" y="-1317.5" font-family="Helvetica,sans-Serif" font-size="10.00">prolog.terms.Term</text>
<polyline fill="none" stroke="black" points="231,-1310.5 329,-1310.5 "/>
<text text-anchor="start" x="239" y="-1298.5" font-family="Helvetica,sans-Serif" font-size="10.00">+ JAVA</text>
<text text-anchor="start" x="239" y="-1287.5" font-family="Helvetica,sans-Serif" font-size="10.00">+ REAL</text>
<text text-anchor="start" x="239" y="-1276.5" font-family="Helvetica,sans-Serif" font-size="10.00">+ INT</text>
<text text-anchor="start" x="239" y="-1265.5" font-family="Helvetica,sans-Serif" font-size="10.00">+ VAR</text>
<text text-anchor="start" x="239" y="-1254.5" font-family="Helvetica,sans-Serif" font-size="10.00">+ CONST</text>
<polyline fill="none" stroke="black" points="231,-1247.5 329,-1247.5 "/>
<text text-anchor="start" x="239" y="-1235.5" font-family="Helvetica,sans-Serif" font-size="10.00">+ getArity()</text>
<text text-anchor="start" x="239" y="-1224.5" font-family="Helvetica,sans-Serif" font-size="10.00">+ ref()</text>
<text text-anchor="start" x="239" y="-1213.5" font-family="Helvetica,sans-Serif" font-size="10.00">+ token()</text>
<text text-anchor="start" x="239" y="-1202.5" font-family="Helvetica,sans-Serif" font-size="10.00">+ toClause()</text>
<text text-anchor="start" x="239" y="-1191.5" font-family="Helvetica,sans-Serif" font-size="10.00">+ matches()</text>
<text text-anchor="start" x="239" y="-1180.5" font-family="Helvetica,sans-Serif" font-size="10.00">+ matches()</text>
<text text-anchor="start" x="239" y="-1169.5" font-family="Helvetica,sans-Serif" font-size="10.00">+ matching_copy()</text>
<text text-anchor="start" x="239" y="-1158.5" font-family="Helvetica,sans-Serif" font-size="10.00">+ copy()</text>
<text text-anchor="start" x="239" y="-1147.5" font-family="Helvetica,sans-Serif" font-size="10.00">+ varsOf()</text>
<text text-anchor="start" x="239" y="-1136.5" font-family="Helvetica,sans-Serif" font-size="10.00">+ numbervars()</text>
<text text-anchor="start" x="239" y="-1125.5" font-family="Helvetica,sans-Serif" font-size="10.00">and 6 more...</text>
<text text-anchor="start" x="239" y="-1114.5" font-family="Helvetica,sans-Serif" font-size="10.00">+ fromString()</text>
<text text-anchor="start" x="239" y="-1103.5" font-family="Helvetica,sans-Serif" font-size="10.00">+ charsToString()</text>
<text text-anchor="start" x="239" y="-1092.5" font-family="Helvetica,sans-Serif" font-size="10.00">~ bind_to()</text>
<text text-anchor="start" x="239" y="-1081.5" font-family="Helvetica,sans-Serif" font-size="10.00">~ unify_to()</text>
<text text-anchor="start" x="239" y="-1070.5" font-family="Helvetica,sans-Serif" font-size="10.00">~ toTerm()</text>
<text text-anchor="start" x="239" y="-1059.5" font-family="Helvetica,sans-Serif" font-size="10.00">~ isClause()</text>
<text text-anchor="start" x="239" y="-1048.5" font-family="Helvetica,sans-Serif" font-size="10.00">~ reaction()</text>
<text text-anchor="start" x="239" y="-1037.5" font-family="Helvetica,sans-Serif" font-size="10.00">~ action()</text>
<text text-anchor="start" x="239" y="-1026.5" font-family="Helvetica,sans-Serif" font-size="10.00">~ exec()</text>
<text text-anchor="start" x="239" y="-1015.5" font-family="Helvetica,sans-Serif" font-size="10.00">~ stringToChars()</text>
<text text-anchor="start" x="239" y="-1004.5" font-family="Helvetica,sans-Serif" font-size="10.00"># unify()</text>
<text text-anchor="start" x="239" y="-993.5" font-family="Helvetica,sans-Serif" font-size="10.00"># undo()</text>
<text text-anchor="start" x="239" y="-982.5" font-family="Helvetica,sans-Serif" font-size="10.00"># exec()</text>
</a>
</g>
</g>
<!-- Node8&#45;&gt;Node7 -->
<g id="edge7" class="edge"><title>Node8&#45;&gt;Node7</title>
<path fill="none" stroke="midnightblue" d="M280,-965.384C280,-955.458 280,-946.098 280,-937.617"/>
<polygon fill="none" stroke="midnightblue" points="276.5,-965.487 280,-975.487 283.5,-965.487 276.5,-965.487"/>
</g>
<!-- Node9 -->
<g id="node9" class="node"><title>Node9</title>
<polygon fill="none" stroke="#bfbfbf" points="221.5,-1367.5 221.5,-1424.5 266.5,-1424.5 266.5,-1367.5 221.5,-1367.5"/>
<text text-anchor="middle" x="244" y="-1412.5" font-family="Helvetica,sans-Serif" font-size="10.00">Object</text>
<polyline fill="none" stroke="#bfbfbf" points="221.5,-1405.5 266.5,-1405.5 "/>
<text text-anchor="middle" x="244" y="-1393.5" font-family="Helvetica,sans-Serif" font-size="10.00"> </text>
<polyline fill="none" stroke="#bfbfbf" points="221.5,-1386.5 266.5,-1386.5 "/>
<text text-anchor="middle" x="244" y="-1374.5" font-family="Helvetica,sans-Serif" font-size="10.00"> </text>
</g>
<!-- Node9&#45;&gt;Node8 -->
<g id="edge8" class="edge"><title>Node9&#45;&gt;Node8</title>
<path fill="none" stroke="midnightblue" d="M249.618,-1357.31C250.861,-1348.97 252.257,-1339.61 253.749,-1329.6"/>
<polygon fill="none" stroke="midnightblue" points="246.142,-1356.89 248.13,-1367.3 253.066,-1357.92 246.142,-1356.89"/>
</g>
<!-- Node10 -->
<g id="node10" class="node"><title>Node10</title>
<polygon fill="none" stroke="#bfbfbf" points="285,-1367.5 285,-1424.5 345,-1424.5 345,-1367.5 285,-1367.5"/>
<text text-anchor="middle" x="315" y="-1412.5" font-family="Helvetica,sans-Serif" font-size="10.00">Cloneable</text>
<polyline fill="none" stroke="#bfbfbf" points="285,-1405.5 345,-1405.5 "/>
<text text-anchor="middle" x="315" y="-1393.5" font-family="Helvetica,sans-Serif" font-size="10.00"> </text>
<polyline fill="none" stroke="#bfbfbf" points="285,-1386.5 345,-1386.5 "/>
<text text-anchor="middle" x="315" y="-1374.5" font-family="Helvetica,sans-Serif" font-size="10.00"> </text>
</g>
<!-- Node10&#45;&gt;Node8 -->
<g id="edge9" class="edge"><title>Node10&#45;&gt;Node8</title>
<path fill="none" stroke="midnightblue" d="M309.538,-1357.31C308.33,-1348.97 306.973,-1339.61 305.522,-1329.6"/>
<polygon fill="none" stroke="midnightblue" points="306.087,-1357.9 310.985,-1367.3 313.014,-1356.9 306.087,-1357.9"/>
</g>
<!-- Node11&#45;&gt;Node6 -->
<g id="edge10" class="edge"><title>Node11&#45;&gt;Node6</title>
<path fill="none" stroke="#404040" d="M303.002,-426.591C294.419,-456.832 282.71,-502.958 278,-544 272.832,-589.038 277.496,-600.669 278,-646 278.023,-648.041 278.048,-650.109 278.076,-652.194"/>
<polygon fill="none" stroke="#404040" points="278.078,-652.281 282.17,-658.219 278.263,-664.28 274.171,-658.342 278.078,-652.281"/>
<text text-anchor="middle" x="291.5" y="-592.5" font-family="Helvetica,sans-Serif" font-size="10.00"> +aNil</text>
</g>
<!-- Node12&#45;&gt;Node1 -->
<g id="edge13" class="edge"><title>Node12&#45;&gt;Node1</title>
<path fill="none" stroke="#404040" d="M54.5468,-544.417C53.2609,-478.852 53.1307,-359.829 65,-259 66.3596,-247.45 68.1693,-235.478 70.2387,-223.554"/>
<polygon fill="none" stroke="#404040" points="70.2535,-223.472 67.3844,-216.856 72.3877,-211.663 75.2568,-218.279 70.2535,-223.472"/>
<text text-anchor="middle" x="91.5" y="-390" font-family="Helvetica,sans-Serif" font-size="10.00"> +builtinDict</text>
</g>
</g>
</svg>
