<?xml version="1.0" encoding="UTF-8" standalone="no"?>
<!DOCTYPE svg PUBLIC "-//W3C//DTD SVG 1.1//EN"
 "http://www.w3.org/Graphics/SVG/1.1/DTD/svg11.dtd">
<!-- Generated by graphviz version 2.38.0 (20140413.2041)
 -->
<!-- Title: prolog.builtins.system.exec Pages: 1 -->
<svg width="889pt" height="161pt"
 viewBox="0.00 0.00 889.00 161.00" xmlns="http://www.w3.org/2000/svg" xmlns:xlink="http://www.w3.org/1999/xlink">
<g id="graph0" class="graph" transform="scale(1 1) rotate(0) translate(4 157)">
<title>prolog.builtins.system.exec</title>
<!-- Node1 -->
<g id="node1" class="node"><title>Node1</title>
<polygon fill="#bfbfbf" stroke="black" points="0,-76.5 0,-95.5 136,-95.5 136,-76.5 0,-76.5"/>
<text text-anchor="middle" x="68" y="-83.5" font-family="Helvetica,sans-Serif" font-size="10.00">prolog.builtins.system.exec</text>
</g>
<!-- Node2 -->
<g id="node2" class="node"><title>Node2</title>
<g id="a_node2"><a xlink:href="../../d0/d3f/classprolog_1_1terms_1_1Const_a2f00757ecfe3ace23e67c5537c34cfbd.html#a2f00757ecfe3ace23e67c5537c34cfbd" target="_top" xlink:title="prolog.terms.Const.Const">
<polygon fill="none" stroke="black" points="172,-133.5 172,-152.5 301,-152.5 301,-133.5 172,-133.5"/>
<text text-anchor="middle" x="236.5" y="-140.5" font-family="Helvetica,sans-Serif" font-size="10.00">prolog.terms.Const.Const</text>
</a>
</g>
</g>
<!-- Node1&#45;&gt;Node2 -->
<g id="edge1" class="edge"><title>Node1&#45;&gt;Node2</title>
<path fill="none" stroke="midnightblue" d="M93.8212,-95.6547C114.588,-103.612 145.061,-115.01 172,-124 178.527,-126.178 185.47,-128.375 192.277,-130.464"/>
<polygon fill="midnightblue" stroke="midnightblue" points="191.506,-133.887 202.091,-133.431 193.532,-127.187 191.506,-133.887"/>
</g>
<!-- Node3 -->
<g id="node3" class="node"><title>Node3</title>
<g id="a_node3"><a xlink:href="../../de/d8d/classprolog_1_1terms_1_1Fun_a95f487cd7555adbc0ae1a08076a0404d.html#a95f487cd7555adbc0ae1a08076a0404d" target="_top" xlink:title="prolog.terms.Fun.getArg">
<polygon fill="none" stroke="black" points="175.5,-95.5 175.5,-114.5 297.5,-114.5 297.5,-95.5 175.5,-95.5"/>
<text text-anchor="middle" x="236.5" y="-102.5" font-family="Helvetica,sans-Serif" font-size="10.00">prolog.terms.Fun.getArg</text>
</a>
</g>
</g>
<!-- Node1&#45;&gt;Node3 -->
<g id="edge2" class="edge"><title>Node1&#45;&gt;Node3</title>
<path fill="none" stroke="midnightblue" d="M136.242,-93.6733C145.72,-94.7548 155.486,-95.8692 165.022,-96.9575"/>
<polygon fill="midnightblue" stroke="midnightblue" points="164.924,-100.469 175.256,-98.1254 165.718,-93.514 164.924,-100.469"/>
</g>
<!-- Node5 -->
<g id="node5" class="node"><title>Node5</title>
<g id="a_node5"><a xlink:href="../../d0/d3f/classprolog_1_1terms_1_1Const_a947005f966303baeb029a22d9201ea1b.html#a947005f966303baeb029a22d9201ea1b" target="_top" xlink:title="prolog.terms.Const.name">
<polygon fill="none" stroke="black" points="173,-57.5 173,-76.5 300,-76.5 300,-57.5 173,-57.5"/>
<text text-anchor="middle" x="236.5" y="-64.5" font-family="Helvetica,sans-Serif" font-size="10.00">prolog.terms.Const.name</text>
</a>
</g>
</g>
<!-- Node1&#45;&gt;Node5 -->
<g id="edge4" class="edge"><title>Node1&#45;&gt;Node5</title>
<path fill="none" stroke="midnightblue" d="M136.242,-78.3267C144.935,-77.3348 153.869,-76.3152 162.647,-75.3136"/>
<polygon fill="midnightblue" stroke="midnightblue" points="163.317,-78.7599 172.856,-74.1486 162.523,-71.805 163.317,-78.7599"/>
</g>
<!-- Node6 -->
<g id="node6" class="node"><title>Node6</title>
<g id="a_node6"><a xlink:href="../../d4/dc2/classprolog_1_1io_1_1IO_ad6035ec78c60441bea290d10e81a15b4.html#ad6035ec78c60441bea290d10e81a15b4" target="_top" xlink:title="prolog.io.IO.system">
<polygon fill="none" stroke="black" points="185.5,-19.5 185.5,-38.5 287.5,-38.5 287.5,-19.5 185.5,-19.5"/>
<text text-anchor="middle" x="236.5" y="-26.5" font-family="Helvetica,sans-Serif" font-size="10.00">prolog.io.IO.system</text>
</a>
</g>
</g>
<!-- Node1&#45;&gt;Node6 -->
<g id="edge5" class="edge"><title>Node1&#45;&gt;Node6</title>
<path fill="none" stroke="midnightblue" d="M93.8212,-76.3453C114.588,-68.3878 145.061,-56.9898 172,-48 178.527,-45.8219 185.47,-43.6246 192.277,-41.536"/>
<polygon fill="midnightblue" stroke="midnightblue" points="193.532,-44.8133 202.091,-38.5687 191.506,-38.1129 193.532,-44.8133"/>
</g>
<!-- Node4 -->
<g id="node4" class="node"><title>Node4</title>
<g id="a_node4"><a xlink:href="../../d3/ded/classprolog_1_1terms_1_1Term_ae140fac2c9d066dc897fcfa723060a7a.html#ae140fac2c9d066dc897fcfa723060a7a" target="_top" xlink:title="Dereferences if necessary. ">
<polygon fill="none" stroke="black" points="337,-95.5 337,-114.5 447,-114.5 447,-95.5 337,-95.5"/>
<text text-anchor="middle" x="392" y="-102.5" font-family="Helvetica,sans-Serif" font-size="10.00">prolog.terms.Term.ref</text>
</a>
</g>
</g>
<!-- Node3&#45;&gt;Node4 -->
<g id="edge3" class="edge"><title>Node3&#45;&gt;Node4</title>
<path fill="none" stroke="midnightblue" d="M297.727,-105C307.226,-105 317.079,-105 326.667,-105"/>
<polygon fill="midnightblue" stroke="midnightblue" points="326.937,-108.5 336.937,-105 326.937,-101.5 326.937,-108.5"/>
</g>
<!-- Node7 -->
<g id="node7" class="node"><title>Node7</title>
<g id="a_node7"><a xlink:href="../../d4/dc2/classprolog_1_1io_1_1IO_ab6e0553457312c4804472cbe1c646a28.html#ab6e0553457312c4804472cbe1c646a28" target="_top" xlink:title="prolog.io.IO.errmes">
<polygon fill="none" stroke="black" points="342,-19.5 342,-38.5 442,-38.5 442,-19.5 342,-19.5"/>
<text text-anchor="middle" x="392" y="-26.5" font-family="Helvetica,sans-Serif" font-size="10.00">prolog.io.IO.errmes</text>
</a>
</g>
</g>
<!-- Node6&#45;&gt;Node7 -->
<g id="edge6" class="edge"><title>Node6&#45;&gt;Node7</title>
<path fill="none" stroke="midnightblue" d="M287.762,-29C301.763,-29 317.105,-29 331.579,-29"/>
<polygon fill="midnightblue" stroke="midnightblue" points="331.934,-32.5001 341.934,-29 331.934,-25.5001 331.934,-32.5001"/>
</g>
<!-- Node8 -->
<g id="node8" class="node"><title>Node8</title>
<g id="a_node8"><a xlink:href="../../d4/dc2/classprolog_1_1io_1_1IO_ad851906c6ebd6559eb1b1fa52e26dabb.html#ad851906c6ebd6559eb1b1fa52e26dabb" target="_top" xlink:title="prolog.io.IO.println">
<polygon fill="none" stroke="black" points="499,-38.5 499,-57.5 595,-57.5 595,-38.5 499,-38.5"/>
<text text-anchor="middle" x="547" y="-45.5" font-family="Helvetica,sans-Serif" font-size="10.00">prolog.io.IO.println</text>
</a>
</g>
</g>
<!-- Node7&#45;&gt;Node8 -->
<g id="edge7" class="edge"><title>Node7&#45;&gt;Node8</title>
<path fill="none" stroke="midnightblue" d="M442.252,-35.1163C457.016,-36.9497 473.336,-38.9764 488.578,-40.8691"/>
<polygon fill="midnightblue" stroke="midnightblue" points="488.57,-44.3949 498.925,-42.1541 489.432,-37.4483 488.57,-44.3949"/>
</g>
<!-- Node11 -->
<g id="node11" class="node"><title>Node11</title>
<g id="a_node11"><a xlink:href="../../d4/dc2/classprolog_1_1io_1_1IO_a22a9a2bfe9fa6e00257369f5bf078a44.html#a22a9a2bfe9fa6e00257369f5bf078a44" target="_top" xlink:title="prolog.io.IO.getStdOutput">
<polygon fill="none" stroke="black" points="483,-0.5 483,-19.5 611,-19.5 611,-0.5 483,-0.5"/>
<text text-anchor="middle" x="547" y="-7.5" font-family="Helvetica,sans-Serif" font-size="10.00">prolog.io.IO.getStdOutput</text>
</a>
</g>
</g>
<!-- Node7&#45;&gt;Node11 -->
<g id="edge10" class="edge"><title>Node7&#45;&gt;Node11</title>
<path fill="none" stroke="midnightblue" d="M442.252,-22.8837C451.949,-21.6795 462.317,-20.392 472.611,-19.1137"/>
<polygon fill="midnightblue" stroke="midnightblue" points="473.359,-22.5478 482.851,-17.842 472.496,-15.6011 473.359,-22.5478"/>
</g>
<!-- Node9 -->
<g id="node9" class="node"><title>Node9</title>
<g id="a_node9"><a xlink:href="../../d4/dc2/classprolog_1_1io_1_1IO_aab64872af087c6cd9c5dd13e9f4eda00.html#aab64872af087c6cd9c5dd13e9f4eda00" target="_top" xlink:title="prolog.io.IO.print">
<polygon fill="none" stroke="black" points="647,-38.5 647,-57.5 736,-57.5 736,-38.5 647,-38.5"/>
<text text-anchor="middle" x="691.5" y="-45.5" font-family="Helvetica,sans-Serif" font-size="10.00">prolog.io.IO.print</text>
</a>
</g>
</g>
<!-- Node8&#45;&gt;Node9 -->
<g id="edge8" class="edge"><title>Node8&#45;&gt;Node9</title>
<path fill="none" stroke="midnightblue" d="M595.055,-48C608.363,-48 622.948,-48 636.625,-48"/>
<polygon fill="midnightblue" stroke="midnightblue" points="636.869,-51.5001 646.869,-48 636.869,-44.5001 636.869,-51.5001"/>
</g>
<!-- Node10 -->
<g id="node10" class="node"><title>Node10</title>
<g id="a_node10"><a xlink:href="../../d6/d92/interfaceprolog_1_1io_1_1IOPeer_abc1f90b85b358011e2595069d38ac25f.html#abc1f90b85b358011e2595069d38ac25f" target="_top" xlink:title="prolog.io.IOPeer.print">
<polygon fill="none" stroke="black" points="772,-38.5 772,-57.5 881,-57.5 881,-38.5 772,-38.5"/>
<text text-anchor="middle" x="826.5" y="-45.5" font-family="Helvetica,sans-Serif" font-size="10.00">prolog.io.IOPeer.print</text>
</a>
</g>
</g>
<!-- Node9&#45;&gt;Node10 -->
<g id="edge9" class="edge"><title>Node9&#45;&gt;Node10</title>
<path fill="none" stroke="midnightblue" d="M736.049,-48C744.217,-48 752.911,-48 761.548,-48"/>
<polygon fill="midnightblue" stroke="midnightblue" points="761.626,-51.5001 771.625,-48 761.625,-44.5001 761.626,-51.5001"/>
</g>
</g>
</svg>
