<?xml version="1.0" encoding="UTF-8" standalone="no"?>
<!DOCTYPE svg PUBLIC "-//W3C//DTD SVG 1.1//EN"
 "http://www.w3.org/Graphics/SVG/1.1/DTD/svg11.dtd">
<!-- Generated by graphviz version 2.38.0 (20140413.2041)
 -->
<!-- Title: prolog.terms.Copier Pages: 1 -->
<svg width="144pt" height="904pt"
 viewBox="0.00 0.00 144.00 904.00" xmlns="http://www.w3.org/2000/svg" xmlns:xlink="http://www.w3.org/1999/xlink">
<g id="graph0" class="graph" transform="scale(1 1) rotate(0) translate(4 900)">
<title>prolog.terms.Copier</title>
<!-- Node1 -->
<g id="node1" class="node"><title>Node1</title>
<polygon fill="#bfbfbf" stroke="black" points="5,-0.5 5,-134.5 131,-134.5 131,-0.5 5,-0.5"/>
<text text-anchor="middle" x="68" y="-122.5" font-family="Helvetica,sans-Serif" font-size="10.00">prolog.terms.Copier</text>
<polyline fill="none" stroke="black" points="5,-115.5 131,-115.5 "/>
<text text-anchor="start" x="13" y="-103.5" font-family="Helvetica,sans-Serif" font-size="10.00">~ anAnswer</text>
<text text-anchor="start" x="13" y="-92.5" font-family="Helvetica,sans-Serif" font-size="10.00">&#45; dict</text>
<polyline fill="none" stroke="black" points="5,-85.5 131,-85.5 "/>
<text text-anchor="start" x="13" y="-73.5" font-family="Helvetica,sans-Serif" font-size="10.00">+ ConsToVector()</text>
<text text-anchor="start" x="13" y="-62.5" font-family="Helvetica,sans-Serif" font-size="10.00">~ Copier()</text>
<text text-anchor="start" x="13" y="-51.5" font-family="Helvetica,sans-Serif" font-size="10.00">~ action()</text>
<text text-anchor="start" x="13" y="-40.5" font-family="Helvetica,sans-Serif" font-size="10.00">~ getMyVars()</text>
<text text-anchor="start" x="13" y="-29.5" font-family="Helvetica,sans-Serif" font-size="10.00">~ EnumerationToVector()</text>
<text text-anchor="start" x="13" y="-18.5" font-family="Helvetica,sans-Serif" font-size="10.00">~ toFun()</text>
<text text-anchor="start" x="13" y="-7.5" font-family="Helvetica,sans-Serif" font-size="10.00">~ VectorToFun()</text>
</g>
<!-- Node2 -->
<g id="node2" class="node"><title>Node2</title>
<g id="a_node2"><a xlink:href="../../d6/dc1/classprolog_1_1terms_1_1SystemObject.html" target="_top" xlink:title="A SystemObject is a Nonvar with system assigned name. ">
<polygon fill="none" stroke="black" points="0,-171.5 0,-283.5 136,-283.5 136,-171.5 0,-171.5"/>
<text text-anchor="middle" x="68" y="-271.5" font-family="Helvetica,sans-Serif" font-size="10.00">prolog.terms.SystemObject</text>
<polyline fill="none" stroke="black" points="0,-264.5 136,-264.5 "/>
<text text-anchor="start" x="8" y="-252.5" font-family="Helvetica,sans-Serif" font-size="10.00">~ ctr</text>
<text text-anchor="start" x="8" y="-241.5" font-family="Helvetica,sans-Serif" font-size="10.00">&#45; ordinal</text>
<polyline fill="none" stroke="black" points="0,-234.5 136,-234.5 "/>
<text text-anchor="start" x="8" y="-222.5" font-family="Helvetica,sans-Serif" font-size="10.00">+ SystemObject()</text>
<text text-anchor="start" x="8" y="-211.5" font-family="Helvetica,sans-Serif" font-size="10.00">+ name()</text>
<text text-anchor="start" x="8" y="-200.5" font-family="Helvetica,sans-Serif" font-size="10.00">+ toString()</text>
<text text-anchor="start" x="8" y="-189.5" font-family="Helvetica,sans-Serif" font-size="10.00">+ getArity()</text>
<text text-anchor="start" x="8" y="-178.5" font-family="Helvetica,sans-Serif" font-size="10.00">~ bind_to()</text>
</a>
</g>
</g>
<!-- Node2&#45;&gt;Node1 -->
<g id="edge1" class="edge"><title>Node2&#45;&gt;Node1</title>
<path fill="none" stroke="midnightblue" d="M68,-161.094C68,-152.339 68,-143.354 68,-134.587"/>
<polygon fill="none" stroke="midnightblue" points="64.5001,-161.239 68,-171.239 71.5001,-161.239 64.5001,-161.239"/>
</g>
<!-- Node3 -->
<g id="node3" class="node"><title>Node3</title>
<g id="a_node3"><a xlink:href="../../d4/de0/classprolog_1_1terms_1_1Nonvar.html" target="_top" xlink:title="Part of the Prolog Term hierarchy. ">
<polygon fill="none" stroke="black" points="15.5,-320.5 15.5,-410.5 120.5,-410.5 120.5,-320.5 15.5,-320.5"/>
<text text-anchor="middle" x="68" y="-398.5" font-family="Helvetica,sans-Serif" font-size="10.00">prolog.terms.Nonvar</text>
<polyline fill="none" stroke="black" points="15.5,-391.5 120.5,-391.5 "/>
<text text-anchor="middle" x="68" y="-379.5" font-family="Helvetica,sans-Serif" font-size="10.00"> </text>
<polyline fill="none" stroke="black" points="15.5,-372.5 120.5,-372.5 "/>
<text text-anchor="start" x="23.5" y="-360.5" font-family="Helvetica,sans-Serif" font-size="10.00">+ name()</text>
<text text-anchor="start" x="23.5" y="-349.5" font-family="Helvetica,sans-Serif" font-size="10.00">~ bind_to()</text>
<text text-anchor="start" x="23.5" y="-338.5" font-family="Helvetica,sans-Serif" font-size="10.00">~ unify_to()</text>
<text text-anchor="start" x="23.5" y="-327.5" font-family="Helvetica,sans-Serif" font-size="10.00">~ listify()</text>
</a>
</g>
</g>
<!-- Node3&#45;&gt;Node2 -->
<g id="edge2" class="edge"><title>Node3&#45;&gt;Node2</title>
<path fill="none" stroke="midnightblue" d="M68,-310.312C68,-301.611 68,-292.595 68,-283.867"/>
<polygon fill="none" stroke="midnightblue" points="64.5001,-310.345 68,-320.345 71.5001,-310.345 64.5001,-310.345"/>
</g>
<!-- Node4 -->
<g id="node4" class="node"><title>Node4</title>
<g id="a_node4"><a xlink:href="../../d3/ded/classprolog_1_1terms_1_1Term.html" target="_top" xlink:title="Top element of the Prolog term hierarchy. ">
<polygon fill="none" stroke="black" points="19,-447.5 19,-801.5 117,-801.5 117,-447.5 19,-447.5"/>
<text text-anchor="middle" x="68" y="-789.5" font-family="Helvetica,sans-Serif" font-size="10.00">prolog.terms.Term</text>
<polyline fill="none" stroke="black" points="19,-782.5 117,-782.5 "/>
<text text-anchor="start" x="27" y="-770.5" font-family="Helvetica,sans-Serif" font-size="10.00">+ JAVA</text>
<text text-anchor="start" x="27" y="-759.5" font-family="Helvetica,sans-Serif" font-size="10.00">+ REAL</text>
<text text-anchor="start" x="27" y="-748.5" font-family="Helvetica,sans-Serif" font-size="10.00">+ INT</text>
<text text-anchor="start" x="27" y="-737.5" font-family="Helvetica,sans-Serif" font-size="10.00">+ VAR</text>
<text text-anchor="start" x="27" y="-726.5" font-family="Helvetica,sans-Serif" font-size="10.00">+ CONST</text>
<polyline fill="none" stroke="black" points="19,-719.5 117,-719.5 "/>
<text text-anchor="start" x="27" y="-707.5" font-family="Helvetica,sans-Serif" font-size="10.00">+ getArity()</text>
<text text-anchor="start" x="27" y="-696.5" font-family="Helvetica,sans-Serif" font-size="10.00">+ ref()</text>
<text text-anchor="start" x="27" y="-685.5" font-family="Helvetica,sans-Serif" font-size="10.00">+ token()</text>
<text text-anchor="start" x="27" y="-674.5" font-family="Helvetica,sans-Serif" font-size="10.00">+ toClause()</text>
<text text-anchor="start" x="27" y="-663.5" font-family="Helvetica,sans-Serif" font-size="10.00">+ matches()</text>
<text text-anchor="start" x="27" y="-652.5" font-family="Helvetica,sans-Serif" font-size="10.00">+ matches()</text>
<text text-anchor="start" x="27" y="-641.5" font-family="Helvetica,sans-Serif" font-size="10.00">+ matching_copy()</text>
<text text-anchor="start" x="27" y="-630.5" font-family="Helvetica,sans-Serif" font-size="10.00">+ copy()</text>
<text text-anchor="start" x="27" y="-619.5" font-family="Helvetica,sans-Serif" font-size="10.00">+ varsOf()</text>
<text text-anchor="start" x="27" y="-608.5" font-family="Helvetica,sans-Serif" font-size="10.00">+ numbervars()</text>
<text text-anchor="start" x="27" y="-597.5" font-family="Helvetica,sans-Serif" font-size="10.00">and 6 more...</text>
<text text-anchor="start" x="27" y="-586.5" font-family="Helvetica,sans-Serif" font-size="10.00">+ fromString()</text>
<text text-anchor="start" x="27" y="-575.5" font-family="Helvetica,sans-Serif" font-size="10.00">+ charsToString()</text>
<text text-anchor="start" x="27" y="-564.5" font-family="Helvetica,sans-Serif" font-size="10.00">~ bind_to()</text>
<text text-anchor="start" x="27" y="-553.5" font-family="Helvetica,sans-Serif" font-size="10.00">~ unify_to()</text>
<text text-anchor="start" x="27" y="-542.5" font-family="Helvetica,sans-Serif" font-size="10.00">~ toTerm()</text>
<text text-anchor="start" x="27" y="-531.5" font-family="Helvetica,sans-Serif" font-size="10.00">~ isClause()</text>
<text text-anchor="start" x="27" y="-520.5" font-family="Helvetica,sans-Serif" font-size="10.00">~ reaction()</text>
<text text-anchor="start" x="27" y="-509.5" font-family="Helvetica,sans-Serif" font-size="10.00">~ action()</text>
<text text-anchor="start" x="27" y="-498.5" font-family="Helvetica,sans-Serif" font-size="10.00">~ exec()</text>
<text text-anchor="start" x="27" y="-487.5" font-family="Helvetica,sans-Serif" font-size="10.00">~ stringToChars()</text>
<text text-anchor="start" x="27" y="-476.5" font-family="Helvetica,sans-Serif" font-size="10.00"># unify()</text>
<text text-anchor="start" x="27" y="-465.5" font-family="Helvetica,sans-Serif" font-size="10.00"># undo()</text>
<text text-anchor="start" x="27" y="-454.5" font-family="Helvetica,sans-Serif" font-size="10.00"># exec()</text>
</a>
</g>
</g>
<!-- Node4&#45;&gt;Node3 -->
<g id="edge3" class="edge"><title>Node4&#45;&gt;Node3</title>
<path fill="none" stroke="midnightblue" d="M68,-437.431C68,-427.975 68,-419.043 68,-410.912"/>
<polygon fill="none" stroke="midnightblue" points="64.5001,-437.464 68,-447.464 71.5001,-437.464 64.5001,-437.464"/>
</g>
<!-- Node5 -->
<g id="node5" class="node"><title>Node5</title>
<polygon fill="none" stroke="#bfbfbf" points="10.5,-838.5 10.5,-895.5 55.5,-895.5 55.5,-838.5 10.5,-838.5"/>
<text text-anchor="middle" x="33" y="-883.5" font-family="Helvetica,sans-Serif" font-size="10.00">Object</text>
<polyline fill="none" stroke="#bfbfbf" points="10.5,-876.5 55.5,-876.5 "/>
<text text-anchor="middle" x="33" y="-864.5" font-family="Helvetica,sans-Serif" font-size="10.00"> </text>
<polyline fill="none" stroke="#bfbfbf" points="10.5,-857.5 55.5,-857.5 "/>
<text text-anchor="middle" x="33" y="-845.5" font-family="Helvetica,sans-Serif" font-size="10.00"> </text>
</g>
<!-- Node5&#45;&gt;Node4 -->
<g id="edge4" class="edge"><title>Node5&#45;&gt;Node4</title>
<path fill="none" stroke="midnightblue" d="M38.4653,-828.446C39.6323,-820.426 40.9379,-811.455 42.3327,-801.871"/>
<polygon fill="none" stroke="midnightblue" points="34.9916,-828.012 37.0149,-838.412 41.9187,-829.02 34.9916,-828.012"/>
</g>
<!-- Node6 -->
<g id="node6" class="node"><title>Node6</title>
<polygon fill="none" stroke="#bfbfbf" points="74,-838.5 74,-895.5 134,-895.5 134,-838.5 74,-838.5"/>
<text text-anchor="middle" x="104" y="-883.5" font-family="Helvetica,sans-Serif" font-size="10.00">Cloneable</text>
<polyline fill="none" stroke="#bfbfbf" points="74,-876.5 134,-876.5 "/>
<text text-anchor="middle" x="104" y="-864.5" font-family="Helvetica,sans-Serif" font-size="10.00"> </text>
<polyline fill="none" stroke="#bfbfbf" points="74,-857.5 134,-857.5 "/>
<text text-anchor="middle" x="104" y="-845.5" font-family="Helvetica,sans-Serif" font-size="10.00"> </text>
</g>
<!-- Node6&#45;&gt;Node4 -->
<g id="edge5" class="edge"><title>Node6&#45;&gt;Node4</title>
<path fill="none" stroke="midnightblue" d="M98.3786,-828.446C97.1782,-820.426 95.8353,-811.455 94.4007,-801.871"/>
<polygon fill="none" stroke="midnightblue" points="94.9284,-829.04 99.8703,-838.412 101.851,-828.004 94.9284,-829.04"/>
</g>
</g>
</svg>
