<?xml version="1.0" encoding="UTF-8" standalone="no"?>
<!DOCTYPE svg PUBLIC "-//W3C//DTD SVG 1.1//EN"
 "http://www.w3.org/Graphics/SVG/1.1/DTD/svg11.dtd">
<!-- Generated by graphviz version 2.38.0 (20140413.2041)
 -->
<!-- Title: prolog.io.CharWriter Pages: 1 -->
<!--zoomable 1141 -->
<svg id="main" version="1.1" xmlns="http://www.w3.org/2000/svg" xmlns:xlink="http://www.w3.org/1999/xlink" xml:space="preserve" onload="init(evt)">
<style type="text/css"><![CDATA[
.edge:hover path { stroke: red; }
.edge:hover polygon { stroke: red; fill: red; }
]]></style>
<script type="text/javascript"><![CDATA[
var edges = document.getElementsByTagName('g');
if (edges && edges.length) {
  for (var i=0;i<edges.length;i++) {
    if (edges[i].id.substr(0,4)=='edge') {
      edges[i].setAttribute('class','edge');
    }
  }
}
]]></script>
        <defs>
                <circle id="rim" cx="0" cy="0" r="7"/>
                <circle id="rim2" cx="0" cy="0" r="3.5"/>
                <g id="zoomPlus">
                        <use xlink:href="#rim" fill="#404040">
                                <set attributeName="fill" to="#808080" begin="zoomplus.mouseover" end="zoomplus.mouseout"/>
                        </use>
                        <path d="M-4,0h8M0,-4v8" fill="none" stroke="white" stroke-width="1.5" pointer-events="none"/>
                </g>
                <g id="zoomMin">
                        <use xlink:href="#rim" fill="#404040">
                                <set attributeName="fill" to="#808080" begin="zoomminus.mouseover" end="zoomminus.mouseout"/>
                        </use>
                        <path d="M-4,0h8" fill="none" stroke="white" stroke-width="1.5" pointer-events="none"/>
                </g>
                <g id="dirArrow">
                        <path fill="none" stroke="white" stroke-width="1.5" d="M0,-3.0v7 M-2.5,-0.5L0,-3.0L2.5,-0.5"/>
                </g>
               <g id="resetDef">
                       <use xlink:href="#rim2" fill="#404040">
                               <set attributeName="fill" to="#808080" begin="reset.mouseover" end="reset.mouseout"/>
                       </use>
               </g>
        </defs>

<script type="text/javascript">
var viewWidth = 192;
var viewHeight = 1141;
var sectionId = 'dynsection-1';
</script>
<script xlink:href="../../svgpan.js"/>
<svg id="graph" class="graph">
<g id="viewport">
<title>prolog.io.CharWriter</title>
<!-- Node1 -->
<g id="node1" class="node"><title>Node1</title>
<polygon fill="#bfbfbf" stroke="black" points="80,-0.5 80,-90.5 184,-90.5 184,-0.5 80,-0.5"/>
<text text-anchor="middle" x="132" y="-78.5" font-family="Helvetica,sans-Serif" font-size="10.00">prolog.io.CharWriter</text>
<polyline fill="none" stroke="black" points="80,-71.5 184,-71.5 "/>
<text text-anchor="middle" x="132" y="-59.5" font-family="Helvetica,sans-Serif" font-size="10.00"> </text>
<polyline fill="none" stroke="black" points="80,-52.5 184,-52.5 "/>
<text text-anchor="start" x="88" y="-40.5" font-family="Helvetica,sans-Serif" font-size="10.00">+ CharWriter()</text>
<text text-anchor="start" x="88" y="-29.5" font-family="Helvetica,sans-Serif" font-size="10.00">+ CharWriter()</text>
<text text-anchor="start" x="88" y="-18.5" font-family="Helvetica,sans-Serif" font-size="10.00">+ putElement()</text>
<text text-anchor="start" x="88" y="-7.5" font-family="Helvetica,sans-Serif" font-size="10.00">+ stop()</text>
</g>
<!-- Node2 -->
<g id="node2" class="node"><title>Node2</title>
<g id="a_node2"><a xlink:href="../../d9/de8/classprolog_1_1terms_1_1Sink.html" target="_top" xlink:title="{prolog.terms.Sink\n||+ Sink()\l+ putElement()\l+ collect()\l}">
<polygon fill="none" stroke="black" points="21.5,-138.5 21.5,-217.5 114.5,-217.5 114.5,-138.5 21.5,-138.5"/>
<text text-anchor="middle" x="68" y="-205.5" font-family="Helvetica,sans-Serif" font-size="10.00">prolog.terms.Sink</text>
<polyline fill="none" stroke="black" points="21.5,-198.5 114.5,-198.5 "/>
<text text-anchor="middle" x="68" y="-186.5" font-family="Helvetica,sans-Serif" font-size="10.00"> </text>
<polyline fill="none" stroke="black" points="21.5,-179.5 114.5,-179.5 "/>
<text text-anchor="start" x="29.5" y="-167.5" font-family="Helvetica,sans-Serif" font-size="10.00">+ Sink()</text>
<text text-anchor="start" x="29.5" y="-156.5" font-family="Helvetica,sans-Serif" font-size="10.00">+ putElement()</text>
<text text-anchor="start" x="29.5" y="-145.5" font-family="Helvetica,sans-Serif" font-size="10.00">+ collect()</text>
</a>
</g>
</g>
<!-- Node2&#45;&gt;Node1 -->
<g id="edge1" class="edge"><title>Node2&#45;&gt;Node1</title>
<path fill="none" stroke="midnightblue" d="M91.5925,-128.893C97.6933,-116.454 104.233,-103.119 110.236,-90.8791"/>
<polygon fill="none" stroke="midnightblue" points="88.2896,-127.679 87.0288,-138.199 94.5745,-130.762 88.2896,-127.679"/>
</g>
<!-- Node3 -->
<g id="node3" class="node"><title>Node3</title>
<g id="a_node3"><a xlink:href="../../d9/d3b/classprolog_1_1terms_1_1Fluent.html" target="_top" xlink:title="A Fluent is a Prolog Object which has its own state, subject to changes over time. ">
<polygon fill="none" stroke="black" points="17.5,-255.5 17.5,-367.5 118.5,-367.5 118.5,-255.5 17.5,-255.5"/>
<text text-anchor="middle" x="68" y="-355.5" font-family="Helvetica,sans-Serif" font-size="10.00">prolog.terms.Fluent</text>
<polyline fill="none" stroke="black" points="17.5,-348.5 118.5,-348.5 "/>
<text text-anchor="start" x="25.5" y="-336.5" font-family="Helvetica,sans-Serif" font-size="10.00">&#45; persistent</text>
<polyline fill="none" stroke="black" points="17.5,-329.5 118.5,-329.5 "/>
<text text-anchor="start" x="25.5" y="-317.5" font-family="Helvetica,sans-Serif" font-size="10.00">+ Fluent()</text>
<text text-anchor="start" x="25.5" y="-306.5" font-family="Helvetica,sans-Serif" font-size="10.00">+ setPersistent()</text>
<text text-anchor="start" x="25.5" y="-295.5" font-family="Helvetica,sans-Serif" font-size="10.00">+ getPersistent()</text>
<text text-anchor="start" x="25.5" y="-284.5" font-family="Helvetica,sans-Serif" font-size="10.00">+ stop()</text>
<text text-anchor="start" x="25.5" y="-273.5" font-family="Helvetica,sans-Serif" font-size="10.00"># trailMe()</text>
<text text-anchor="start" x="25.5" y="-262.5" font-family="Helvetica,sans-Serif" font-size="10.00"># undo()</text>
</a>
</g>
</g>
<!-- Node3&#45;&gt;Node2 -->
<g id="edge2" class="edge"><title>Node3&#45;&gt;Node2</title>
<path fill="none" stroke="midnightblue" d="M68,-245.32C68,-235.904 68,-226.473 68,-217.799"/>
<polygon fill="none" stroke="midnightblue" points="64.5001,-245.494 68,-255.494 71.5001,-245.494 64.5001,-245.494"/>
</g>
<!-- Node4 -->
<g id="node4" class="node"><title>Node4</title>
<g id="a_node4"><a xlink:href="../../d6/dc1/classprolog_1_1terms_1_1SystemObject.html" target="_top" xlink:title="A SystemObject is a Nonvar with system assigned name. ">
<polygon fill="none" stroke="black" points="0,-405.5 0,-517.5 136,-517.5 136,-405.5 0,-405.5"/>
<text text-anchor="middle" x="68" y="-505.5" font-family="Helvetica,sans-Serif" font-size="10.00">prolog.terms.SystemObject</text>
<polyline fill="none" stroke="black" points="0,-498.5 136,-498.5 "/>
<text text-anchor="start" x="8" y="-486.5" font-family="Helvetica,sans-Serif" font-size="10.00">~ ctr</text>
<text text-anchor="start" x="8" y="-475.5" font-family="Helvetica,sans-Serif" font-size="10.00">&#45; ordinal</text>
<polyline fill="none" stroke="black" points="0,-468.5 136,-468.5 "/>
<text text-anchor="start" x="8" y="-456.5" font-family="Helvetica,sans-Serif" font-size="10.00">+ SystemObject()</text>
<text text-anchor="start" x="8" y="-445.5" font-family="Helvetica,sans-Serif" font-size="10.00">+ name()</text>
<text text-anchor="start" x="8" y="-434.5" font-family="Helvetica,sans-Serif" font-size="10.00">+ toString()</text>
<text text-anchor="start" x="8" y="-423.5" font-family="Helvetica,sans-Serif" font-size="10.00">+ getArity()</text>
<text text-anchor="start" x="8" y="-412.5" font-family="Helvetica,sans-Serif" font-size="10.00">~ bind_to()</text>
</a>
</g>
</g>
<!-- Node4&#45;&gt;Node3 -->
<g id="edge3" class="edge"><title>Node4&#45;&gt;Node3</title>
<path fill="none" stroke="midnightblue" d="M68,-395.14C68,-385.967 68,-376.614 68,-367.656"/>
<polygon fill="none" stroke="midnightblue" points="64.5001,-395.39 68,-405.39 71.5001,-395.39 64.5001,-395.39"/>
</g>
<!-- Node5 -->
<g id="node5" class="node"><title>Node5</title>
<g id="a_node5"><a xlink:href="../../d4/de0/classprolog_1_1terms_1_1Nonvar.html" target="_top" xlink:title="Part of the Prolog Term hierarchy. ">
<polygon fill="none" stroke="black" points="15.5,-555.5 15.5,-645.5 120.5,-645.5 120.5,-555.5 15.5,-555.5"/>
<text text-anchor="middle" x="68" y="-633.5" font-family="Helvetica,sans-Serif" font-size="10.00">prolog.terms.Nonvar</text>
<polyline fill="none" stroke="black" points="15.5,-626.5 120.5,-626.5 "/>
<text text-anchor="middle" x="68" y="-614.5" font-family="Helvetica,sans-Serif" font-size="10.00"> </text>
<polyline fill="none" stroke="black" points="15.5,-607.5 120.5,-607.5 "/>
<text text-anchor="start" x="23.5" y="-595.5" font-family="Helvetica,sans-Serif" font-size="10.00">+ name()</text>
<text text-anchor="start" x="23.5" y="-584.5" font-family="Helvetica,sans-Serif" font-size="10.00">~ bind_to()</text>
<text text-anchor="start" x="23.5" y="-573.5" font-family="Helvetica,sans-Serif" font-size="10.00">~ unify_to()</text>
<text text-anchor="start" x="23.5" y="-562.5" font-family="Helvetica,sans-Serif" font-size="10.00">~ listify()</text>
</a>
</g>
</g>
<!-- Node5&#45;&gt;Node4 -->
<g id="edge4" class="edge"><title>Node5&#45;&gt;Node4</title>
<path fill="none" stroke="midnightblue" d="M68,-545.293C68,-536.178 68,-526.709 68,-517.572"/>
<polygon fill="none" stroke="midnightblue" points="64.5001,-545.398 68,-555.398 71.5001,-545.398 64.5001,-545.398"/>
</g>
<!-- Node6 -->
<g id="node6" class="node"><title>Node6</title>
<g id="a_node6"><a xlink:href="../../d3/ded/classprolog_1_1terms_1_1Term.html" target="_top" xlink:title="Top element of the Prolog term hierarchy. ">
<polygon fill="none" stroke="black" points="19,-683.5 19,-1037.5 117,-1037.5 117,-683.5 19,-683.5"/>
<text text-anchor="middle" x="68" y="-1025.5" font-family="Helvetica,sans-Serif" font-size="10.00">prolog.terms.Term</text>
<polyline fill="none" stroke="black" points="19,-1018.5 117,-1018.5 "/>
<text text-anchor="start" x="27" y="-1006.5" font-family="Helvetica,sans-Serif" font-size="10.00">+ JAVA</text>
<text text-anchor="start" x="27" y="-995.5" font-family="Helvetica,sans-Serif" font-size="10.00">+ REAL</text>
<text text-anchor="start" x="27" y="-984.5" font-family="Helvetica,sans-Serif" font-size="10.00">+ INT</text>
<text text-anchor="start" x="27" y="-973.5" font-family="Helvetica,sans-Serif" font-size="10.00">+ VAR</text>
<text text-anchor="start" x="27" y="-962.5" font-family="Helvetica,sans-Serif" font-size="10.00">+ CONST</text>
<polyline fill="none" stroke="black" points="19,-955.5 117,-955.5 "/>
<text text-anchor="start" x="27" y="-943.5" font-family="Helvetica,sans-Serif" font-size="10.00">+ getArity()</text>
<text text-anchor="start" x="27" y="-932.5" font-family="Helvetica,sans-Serif" font-size="10.00">+ ref()</text>
<text text-anchor="start" x="27" y="-921.5" font-family="Helvetica,sans-Serif" font-size="10.00">+ token()</text>
<text text-anchor="start" x="27" y="-910.5" font-family="Helvetica,sans-Serif" font-size="10.00">+ toClause()</text>
<text text-anchor="start" x="27" y="-899.5" font-family="Helvetica,sans-Serif" font-size="10.00">+ matches()</text>
<text text-anchor="start" x="27" y="-888.5" font-family="Helvetica,sans-Serif" font-size="10.00">+ matches()</text>
<text text-anchor="start" x="27" y="-877.5" font-family="Helvetica,sans-Serif" font-size="10.00">+ matching_copy()</text>
<text text-anchor="start" x="27" y="-866.5" font-family="Helvetica,sans-Serif" font-size="10.00">+ copy()</text>
<text text-anchor="start" x="27" y="-855.5" font-family="Helvetica,sans-Serif" font-size="10.00">+ varsOf()</text>
<text text-anchor="start" x="27" y="-844.5" font-family="Helvetica,sans-Serif" font-size="10.00">+ numbervars()</text>
<text text-anchor="start" x="27" y="-833.5" font-family="Helvetica,sans-Serif" font-size="10.00">and 6 more...</text>
<text text-anchor="start" x="27" y="-822.5" font-family="Helvetica,sans-Serif" font-size="10.00">+ fromString()</text>
<text text-anchor="start" x="27" y="-811.5" font-family="Helvetica,sans-Serif" font-size="10.00">+ charsToString()</text>
<text text-anchor="start" x="27" y="-800.5" font-family="Helvetica,sans-Serif" font-size="10.00">~ bind_to()</text>
<text text-anchor="start" x="27" y="-789.5" font-family="Helvetica,sans-Serif" font-size="10.00">~ unify_to()</text>
<text text-anchor="start" x="27" y="-778.5" font-family="Helvetica,sans-Serif" font-size="10.00">~ toTerm()</text>
<text text-anchor="start" x="27" y="-767.5" font-family="Helvetica,sans-Serif" font-size="10.00">~ isClause()</text>
<text text-anchor="start" x="27" y="-756.5" font-family="Helvetica,sans-Serif" font-size="10.00">~ reaction()</text>
<text text-anchor="start" x="27" y="-745.5" font-family="Helvetica,sans-Serif" font-size="10.00">~ action()</text>
<text text-anchor="start" x="27" y="-734.5" font-family="Helvetica,sans-Serif" font-size="10.00">~ exec()</text>
<text text-anchor="start" x="27" y="-723.5" font-family="Helvetica,sans-Serif" font-size="10.00">~ stringToChars()</text>
<text text-anchor="start" x="27" y="-712.5" font-family="Helvetica,sans-Serif" font-size="10.00"># unify()</text>
<text text-anchor="start" x="27" y="-701.5" font-family="Helvetica,sans-Serif" font-size="10.00"># undo()</text>
<text text-anchor="start" x="27" y="-690.5" font-family="Helvetica,sans-Serif" font-size="10.00"># exec()</text>
</a>
</g>
</g>
<!-- Node6&#45;&gt;Node5 -->
<g id="edge5" class="edge"><title>Node6&#45;&gt;Node5</title>
<path fill="none" stroke="midnightblue" d="M68,-673.384C68,-663.458 68,-654.098 68,-645.617"/>
<polygon fill="none" stroke="midnightblue" points="64.5001,-673.487 68,-683.487 71.5001,-673.487 64.5001,-673.487"/>
</g>
<!-- Node7 -->
<g id="node7" class="node"><title>Node7</title>
<polygon fill="none" stroke="#bfbfbf" points="10.5,-1075.5 10.5,-1132.5 55.5,-1132.5 55.5,-1075.5 10.5,-1075.5"/>
<text text-anchor="middle" x="33" y="-1120.5" font-family="Helvetica,sans-Serif" font-size="10.00">Object</text>
<polyline fill="none" stroke="#bfbfbf" points="10.5,-1113.5 55.5,-1113.5 "/>
<text text-anchor="middle" x="33" y="-1101.5" font-family="Helvetica,sans-Serif" font-size="10.00"> </text>
<polyline fill="none" stroke="#bfbfbf" points="10.5,-1094.5 55.5,-1094.5 "/>
<text text-anchor="middle" x="33" y="-1082.5" font-family="Helvetica,sans-Serif" font-size="10.00"> </text>
</g>
<!-- Node7&#45;&gt;Node6 -->
<g id="edge6" class="edge"><title>Node7&#45;&gt;Node6</title>
<path fill="none" stroke="midnightblue" d="M38.4619,-1065.31C39.6703,-1056.97 41.0272,-1047.61 42.478,-1037.6"/>
<polygon fill="none" stroke="midnightblue" points="34.9855,-1064.9 37.0149,-1075.3 41.9131,-1065.9 34.9855,-1064.9"/>
</g>
<!-- Node8 -->
<g id="node8" class="node"><title>Node8</title>
<polygon fill="none" stroke="#bfbfbf" points="74,-1075.5 74,-1132.5 134,-1132.5 134,-1075.5 74,-1075.5"/>
<text text-anchor="middle" x="104" y="-1120.5" font-family="Helvetica,sans-Serif" font-size="10.00">Cloneable</text>
<polyline fill="none" stroke="#bfbfbf" points="74,-1113.5 134,-1113.5 "/>
<text text-anchor="middle" x="104" y="-1101.5" font-family="Helvetica,sans-Serif" font-size="10.00"> </text>
<polyline fill="none" stroke="#bfbfbf" points="74,-1094.5 134,-1094.5 "/>
<text text-anchor="middle" x="104" y="-1082.5" font-family="Helvetica,sans-Serif" font-size="10.00"> </text>
</g>
<!-- Node8&#45;&gt;Node6 -->
<g id="edge7" class="edge"><title>Node8&#45;&gt;Node6</title>
<path fill="none" stroke="midnightblue" d="M98.382,-1065.31C97.1391,-1056.97 95.7434,-1047.61 94.2512,-1037.6"/>
<polygon fill="none" stroke="midnightblue" points="94.9341,-1065.92 99.8703,-1075.3 101.858,-1064.89 94.9341,-1065.92"/>
</g>
<!-- Node9 -->
<g id="node9" class="node"><title>Node9</title>
<polygon fill="none" stroke="#bfbfbf" points="132.5,-149.5 132.5,-206.5 175.5,-206.5 175.5,-149.5 132.5,-149.5"/>
<text text-anchor="middle" x="154" y="-194.5" font-family="Helvetica,sans-Serif" font-size="10.00">Writer</text>
<polyline fill="none" stroke="#bfbfbf" points="132.5,-187.5 175.5,-187.5 "/>
<text text-anchor="middle" x="154" y="-175.5" font-family="Helvetica,sans-Serif" font-size="10.00"> </text>
<polyline fill="none" stroke="#bfbfbf" points="132.5,-168.5 175.5,-168.5 "/>
<text text-anchor="middle" x="154" y="-156.5" font-family="Helvetica,sans-Serif" font-size="10.00"> </text>
</g>
<!-- Node9&#45;&gt;Node1 -->
<g id="edge8" class="edge"><title>Node9&#45;&gt;Node1</title>
<path fill="none" stroke="#404040" d="M149.334,-149.324C147.043,-135.731 144.195,-118.837 141.474,-102.696"/>
<polygon fill="none" stroke="#404040" points="141.424,-102.401 136.482,-97.1491 139.429,-90.5676 144.371,-95.8192 141.424,-102.401"/>
<text text-anchor="middle" x="161.5" y="-112" font-family="Helvetica,sans-Serif" font-size="10.00"> #writer</text>
</g>
</g>
</svg>
        <g id="navigator" transform="translate(0 0)" fill="#404254">
                <rect fill="#f2f5e9" fill-opacity="0.5" stroke="#606060" stroke-width=".5" x="0" y="0" width="60" height="60"/>
                <use id="zoomplus" xlink:href="#zoomPlus" x="17" y="9" onmousedown="handleZoom(evt,'in')"/>
                <use id="zoomminus" xlink:href="#zoomMin" x="42" y="9" onmousedown="handleZoom(evt,'out')"/>
                <use id="reset" xlink:href="#resetDef" x="30" y="36" onmousedown="handleReset()"/>
                <g id="arrowUp" xlink:href="#dirArrow" transform="translate(30 24)" onmousedown="handlePan(0,-1)">
                  <use xlink:href="#rim" fill="#404040">
                        <set attributeName="fill" to="#808080" begin="arrowUp.mouseover" end="arrowUp.mouseout"/>
                  </use>
                  <path fill="none" stroke="white" stroke-width="1.5" d="M0,-3.0v7 M-2.5,-0.5L0,-3.0L2.5,-0.5"/>
                </g>
                <g id="arrowRight" xlink:href="#dirArrow" transform="rotate(90) translate(36 -43)" onmousedown="handlePan(1,0)">
                  <use xlink:href="#rim" fill="#404040">
                        <set attributeName="fill" to="#808080" begin="arrowRight.mouseover" end="arrowRight.mouseout"/>
                  </use>
                  <path fill="none" stroke="white" stroke-width="1.5" d="M0,-3.0v7 M-2.5,-0.5L0,-3.0L2.5,-0.5"/>
                </g>
                <g id="arrowDown" xlink:href="#dirArrow" transform="rotate(180) translate(-30 -48)" onmousedown="handlePan(0,1)">
                  <use xlink:href="#rim" fill="#404040">
                        <set attributeName="fill" to="#808080" begin="arrowDown.mouseover" end="arrowDown.mouseout"/>
                  </use>
                  <path fill="none" stroke="white" stroke-width="1.5" d="M0,-3.0v7 M-2.5,-0.5L0,-3.0L2.5,-0.5"/>
                </g>
                <g id="arrowLeft" xlink:href="#dirArrow" transform="rotate(270) translate(-36 17)" onmousedown="handlePan(-1,0)">
                  <use xlink:href="#rim" fill="#404040">
                        <set attributeName="fill" to="#808080" begin="arrowLeft.mouseover" end="arrowLeft.mouseout"/>
                  </use>
                  <path fill="none" stroke="white" stroke-width="1.5" d="M0,-3.0v7 M-2.5,-0.5L0,-3.0L2.5,-0.5"/>
                </g>
        </g>
        <svg viewBox="0 0 15 15" width="100%" height="30px" preserveAspectRatio="xMaxYMin meet">
         <g id="arrow_out" transform="scale(0.3 0.3)">
          <a xlink:href="classprolog_1_1io_1_1CharWriter__coll__graph_org.svg" target="_base">
           <rect id="button" ry="5" rx="5" y="6" x="6" height="38" width="38"
                fill="#f2f5e9" fill-opacity="0.5" stroke="#606060" stroke-width="1.0"/>
           <path id="arrow"
             d="M 11.500037,31.436501 C 11.940474,20.09759 22.043105,11.32322 32.158766,21.979434 L 37.068811,17.246167 C 37.068811,17.246167 37.088388,32 37.088388,32 L 22.160133,31.978069 C 22.160133,31.978069 26.997745,27.140456 26.997745,27.140456 C 18.528582,18.264221 13.291696,25.230495 11.500037,31.436501 z"
             style="fill:#404040;"/>
          </a>
         </g>
        </svg>
</svg>
