<?xml version="1.0" encoding="UTF-8" standalone="no"?>
<!DOCTYPE svg PUBLIC "-//W3C//DTD SVG 1.1//EN"
 "http://www.w3.org/Graphics/SVG/1.1/DTD/svg11.dtd">
<!-- Generated by graphviz version 2.38.0 (20140413.2041)
 -->
<!-- Title: prolog.builtins.at_key.exec Pages: 1 -->
<svg width="1528pt" height="303pt"
 viewBox="0.00 0.00 1528.00 303.00" xmlns="http://www.w3.org/2000/svg" xmlns:xlink="http://www.w3.org/1999/xlink">
<g id="graph0" class="graph" transform="scale(1 1) rotate(0) translate(4 299)">
<title>prolog.builtins.at_key.exec</title>
<!-- Node1 -->
<g id="node1" class="node"><title>Node1</title>
<polygon fill="#bfbfbf" stroke="black" points="0,-52 0,-82 88,-82 88,-52 0,-52"/>
<text text-anchor="start" x="8" y="-70" font-family="Helvetica,sans-Serif" font-size="10.00">prolog.builtins.at</text>
<text text-anchor="middle" x="44" y="-59" font-family="Helvetica,sans-Serif" font-size="10.00">_key.exec</text>
</g>
<!-- Node2 -->
<g id="node2" class="node"><title>Node2</title>
<g id="a_node2"><a xlink:href="../../da/dd9/classprolog_1_1fluents_1_1DataBase_ac93f1bf928f7e64f000726f764891ea9.html#ac93f1bf928f7e64f000726f764891ea9" target="_top" xlink:title="Returns a (possibly empty) list of matching Term objects. ">
<polygon fill="none" stroke="black" points="124,-152.5 124,-171.5 258,-171.5 258,-152.5 124,-152.5"/>
<text text-anchor="middle" x="191" y="-159.5" font-family="Helvetica,sans-Serif" font-size="10.00">prolog.fluents.DataBase.all</text>
</a>
</g>
</g>
<!-- Node1&#45;&gt;Node2 -->
<g id="edge1" class="edge"><title>Node1&#45;&gt;Node2</title>
<path fill="none" stroke="midnightblue" d="M67.9757,-82.053C94.9519,-99.7271 139.451,-128.882 166.606,-146.673"/>
<polygon fill="midnightblue" stroke="midnightblue" points="164.818,-149.686 175.101,-152.238 168.654,-143.83 164.818,-149.686"/>
</g>
<!-- Node22 -->
<g id="node22" class="node"><title>Node22</title>
<g id="a_node22"><a xlink:href="../../de/d8d/classprolog_1_1terms_1_1Fun_a95f487cd7555adbc0ae1a08076a0404d.html#a95f487cd7555adbc0ae1a08076a0404d" target="_top" xlink:title="prolog.terms.Fun.getArg">
<polygon fill="none" stroke="black" points="479,-47.5 479,-66.5 601,-66.5 601,-47.5 479,-47.5"/>
<text text-anchor="middle" x="540" y="-54.5" font-family="Helvetica,sans-Serif" font-size="10.00">prolog.terms.Fun.getArg</text>
</a>
</g>
</g>
<!-- Node1&#45;&gt;Node22 -->
<g id="edge22" class="edge"><title>Node1&#45;&gt;Node22</title>
<path fill="none" stroke="midnightblue" d="M88.4062,-66.1213C173.965,-64.3894 365.064,-60.521 468.784,-58.4214"/>
<polygon fill="midnightblue" stroke="midnightblue" points="468.921,-61.9194 478.848,-58.2177 468.779,-54.9209 468.921,-61.9194"/>
</g>
<!-- Node23 -->
<g id="node23" class="node"><title>Node23</title>
<g id="a_node23"><a xlink:href="../../d0/d3f/classprolog_1_1terms_1_1Const_a785bfea60a22214d49eedd59c4da80f4.html#a785bfea60a22214d49eedd59c4da80f4" target="_top" xlink:title="prolog.terms.Const.getKey">
<polygon fill="none" stroke="black" points="124,-0.5 124,-19.5 258,-19.5 258,-0.5 124,-0.5"/>
<text text-anchor="middle" x="191" y="-7.5" font-family="Helvetica,sans-Serif" font-size="10.00">prolog.terms.Const.getKey</text>
</a>
</g>
</g>
<!-- Node1&#45;&gt;Node23 -->
<g id="edge24" class="edge"><title>Node1&#45;&gt;Node23</title>
<path fill="none" stroke="midnightblue" d="M80.2498,-51.8598C93.8622,-46.1225 109.6,-39.6221 124,-34 133.441,-30.314 143.709,-26.4913 153.273,-23.0093"/>
<polygon fill="midnightblue" stroke="midnightblue" points="154.703,-26.2139 162.919,-19.5241 152.325,-19.6304 154.703,-26.2139"/>
</g>
<!-- Node24 -->
<g id="node24" class="node"><title>Node24</title>
<g id="a_node24"><a xlink:href="../../de/d8d/classprolog_1_1terms_1_1Fun_a408f688b791b731a83c6a41a8ee32fb0.html#a408f688b791b731a83c6a41a8ee32fb0" target="_top" xlink:title="prolog.terms.Fun.putArg">
<polygon fill="none" stroke="black" points="130,-76.5 130,-95.5 252,-95.5 252,-76.5 130,-76.5"/>
<text text-anchor="middle" x="191" y="-83.5" font-family="Helvetica,sans-Serif" font-size="10.00">prolog.terms.Fun.putArg</text>
</a>
</g>
</g>
<!-- Node1&#45;&gt;Node24 -->
<g id="edge25" class="edge"><title>Node1&#45;&gt;Node24</title>
<path fill="none" stroke="midnightblue" d="M88.1122,-72.6492C98.1468,-73.9641 109.086,-75.3974 119.951,-76.8211"/>
<polygon fill="midnightblue" stroke="midnightblue" points="119.51,-80.2933 129.88,-78.1223 120.42,-73.3526 119.51,-80.2933"/>
</g>
<!-- Node3 -->
<g id="node3" class="node"><title>Node3</title>
<g id="a_node3"><a xlink:href="../../da/dd9/classprolog_1_1fluents_1_1DataBase_a16bb9f309e161ca656d8aef483ba7e5f.html#a16bb9f309e161ca656d8aef483ba7e5f" target="_top" xlink:title="prolog.fluents.DataBase.all2">
<polygon fill="none" stroke="black" points="294,-190.5 294,-209.5 434,-209.5 434,-190.5 294,-190.5"/>
<text text-anchor="middle" x="364" y="-197.5" font-family="Helvetica,sans-Serif" font-size="10.00">prolog.fluents.DataBase.all2</text>
</a>
</g>
</g>
<!-- Node2&#45;&gt;Node3 -->
<g id="edge2" class="edge"><title>Node2&#45;&gt;Node3</title>
<path fill="none" stroke="midnightblue" d="M235.151,-171.589C257.919,-176.649 286.048,-182.9 310.119,-188.249"/>
<polygon fill="midnightblue" stroke="midnightblue" points="309.639,-191.727 320.16,-190.48 311.157,-184.894 309.639,-191.727"/>
</g>
<!-- Node4 -->
<g id="node4" class="node"><title>Node4</title>
<g id="a_node4"><a xlink:href="../../da/dd9/classprolog_1_1fluents_1_1DataBase_a4b4a68ddd60d87276cd7f9befd237ad9.html#a4b4a68ddd60d87276cd7f9befd237ad9" target="_top" xlink:title="prolog.fluents.DataBase.all1">
<polygon fill="none" stroke="black" points="470,-190.5 470,-209.5 610,-209.5 610,-190.5 470,-190.5"/>
<text text-anchor="middle" x="540" y="-197.5" font-family="Helvetica,sans-Serif" font-size="10.00">prolog.fluents.DataBase.all1</text>
</a>
</g>
</g>
<!-- Node3&#45;&gt;Node4 -->
<g id="edge3" class="edge"><title>Node3&#45;&gt;Node4</title>
<path fill="none" stroke="midnightblue" d="M434.019,-200C442.476,-200 451.169,-200 459.761,-200"/>
<polygon fill="midnightblue" stroke="midnightblue" points="459.78,-203.5 469.779,-200 459.779,-196.5 459.78,-203.5"/>
</g>
<!-- Node5 -->
<g id="node5" class="node"><title>Node5</title>
<g id="a_node5"><a xlink:href="../../da/dd9/classprolog_1_1fluents_1_1DataBase_a610cc1f35df4467fbb1fac1052091915.html#a610cc1f35df4467fbb1fac1052091915" target="_top" xlink:title="prolog.fluents.DataBase.all0">
<polygon fill="none" stroke="black" points="646,-228.5 646,-247.5 786,-247.5 786,-228.5 646,-228.5"/>
<text text-anchor="middle" x="716" y="-235.5" font-family="Helvetica,sans-Serif" font-size="10.00">prolog.fluents.DataBase.all0</text>
</a>
</g>
</g>
<!-- Node3&#45;&gt;Node5 -->
<g id="edge21" class="edge"><title>Node3&#45;&gt;Node5</title>
<path fill="none" stroke="midnightblue" d="M411.884,-209.535C429.98,-212.939 450.892,-216.537 470,-219 525.205,-226.117 587.776,-230.914 635.866,-233.908"/>
<polygon fill="midnightblue" stroke="midnightblue" points="635.706,-237.405 645.9,-234.52 636.132,-230.418 635.706,-237.405"/>
</g>
<!-- Node4&#45;&gt;Node5 -->
<g id="edge4" class="edge"><title>Node4&#45;&gt;Node5</title>
<path fill="none" stroke="midnightblue" d="M584.908,-209.589C608.179,-214.671 636.954,-220.955 661.519,-226.32"/>
<polygon fill="midnightblue" stroke="midnightblue" points="660.892,-229.766 671.408,-228.48 662.385,-222.927 660.892,-229.766"/>
</g>
<!-- Node19 -->
<g id="node19" class="node"><title>Node19</title>
<g id="a_node19"><a xlink:href="../../de/d8d/classprolog_1_1terms_1_1Fun_a01490d7d66dd3e5cc2cad21772845608.html#a01490d7d66dd3e5cc2cad21772845608" target="_top" xlink:title="prolog.terms.Fun.listify">
<polygon fill="none" stroke="black" points="658,-190.5 658,-209.5 774,-209.5 774,-190.5 658,-190.5"/>
<text text-anchor="middle" x="716" y="-197.5" font-family="Helvetica,sans-Serif" font-size="10.00">prolog.terms.Fun.listify</text>
</a>
</g>
</g>
<!-- Node4&#45;&gt;Node19 -->
<g id="edge18" class="edge"><title>Node4&#45;&gt;Node19</title>
<path fill="none" stroke="midnightblue" d="M610.019,-200C622.398,-200 635.286,-200 647.618,-200"/>
<polygon fill="midnightblue" stroke="midnightblue" points="647.823,-203.5 657.823,-200 647.823,-196.5 647.823,-203.5"/>
</g>
<!-- Node6 -->
<g id="node6" class="node"><title>Node6</title>
<g id="a_node6"><a xlink:href="../../de/d23/classprolog_1_1fluents_1_1Queue_aa5b9659115a717ce9a4bd1976f7bda66.html#aa5b9659115a717ce9a4bd1976f7bda66" target="_top" xlink:title="prolog.fluents.Queue.toEnumeration">
<polygon fill="none" stroke="black" points="822,-266.5 822,-285.5 995,-285.5 995,-266.5 822,-266.5"/>
<text text-anchor="middle" x="908.5" y="-273.5" font-family="Helvetica,sans-Serif" font-size="10.00">prolog.fluents.Queue.toEnumeration</text>
</a>
</g>
</g>
<!-- Node5&#45;&gt;Node6 -->
<g id="edge5" class="edge"><title>Node5&#45;&gt;Node6</title>
<path fill="none" stroke="midnightblue" d="M765.071,-247.589C790.776,-252.716 822.613,-259.067 849.664,-264.463"/>
<polygon fill="midnightblue" stroke="midnightblue" points="849.283,-267.956 859.774,-266.48 850.652,-261.091 849.283,-267.956"/>
</g>
<!-- Node9 -->
<g id="node9" class="node"><title>Node9</title>
<g id="a_node9"><a xlink:href="../../d3/ded/classprolog_1_1terms_1_1Term_ae44d814e035858ebc67573a97886511d.html#ae44d814e035858ebc67573a97886511d" target="_top" xlink:title="Returns a copy of the result if the unification of this and that. ">
<polygon fill="none" stroke="black" points="826,-228.5 826,-247.5 991,-247.5 991,-228.5 826,-228.5"/>
<text text-anchor="middle" x="908.5" y="-235.5" font-family="Helvetica,sans-Serif" font-size="10.00">prolog.terms.Term.matching_copy</text>
</a>
</g>
</g>
<!-- Node5&#45;&gt;Node9 -->
<g id="edge8" class="edge"><title>Node5&#45;&gt;Node9</title>
<path fill="none" stroke="midnightblue" d="M786.044,-238C795.607,-238 805.551,-238 815.45,-238"/>
<polygon fill="midnightblue" stroke="midnightblue" points="815.73,-241.5 825.73,-238 815.73,-234.5 815.73,-241.5"/>
</g>
<!-- Node7 -->
<g id="node7" class="node"><title>Node7</title>
<g id="a_node7"><a xlink:href="../../de/d23/classprolog_1_1fluents_1_1Queue_adca2003759e9be115f6006eee370209a.html#adca2003759e9be115f6006eee370209a" target="_top" xlink:title="prolog.fluents.Queue.toVector">
<polygon fill="none" stroke="black" points="1031,-266.5 1031,-285.5 1177,-285.5 1177,-266.5 1031,-266.5"/>
<text text-anchor="middle" x="1104" y="-273.5" font-family="Helvetica,sans-Serif" font-size="10.00">prolog.fluents.Queue.toVector</text>
</a>
</g>
</g>
<!-- Node6&#45;&gt;Node7 -->
<g id="edge6" class="edge"><title>Node6&#45;&gt;Node7</title>
<path fill="none" stroke="midnightblue" d="M995.217,-276C1003.7,-276 1012.29,-276 1020.74,-276"/>
<polygon fill="midnightblue" stroke="midnightblue" points="1020.94,-279.5 1030.94,-276 1020.94,-272.5 1020.94,-279.5"/>
</g>
<!-- Node8 -->
<g id="node8" class="node"><title>Node8</title>
<g id="a_node8"><a xlink:href="../../de/d23/classprolog_1_1fluents_1_1Queue_a3d1135124c700679bbd665d253dd9f0f.html#a3d1135124c700679bbd665d253dd9f0f" target="_top" xlink:title="prolog.fluents.Queue.inc">
<polygon fill="none" stroke="black" points="1225,-275.5 1225,-294.5 1347,-294.5 1347,-275.5 1225,-275.5"/>
<text text-anchor="middle" x="1286" y="-282.5" font-family="Helvetica,sans-Serif" font-size="10.00">prolog.fluents.Queue.inc</text>
</a>
</g>
</g>
<!-- Node7&#45;&gt;Node8 -->
<g id="edge7" class="edge"><title>Node7&#45;&gt;Node8</title>
<path fill="none" stroke="midnightblue" d="M1177.18,-279.609C1189.55,-280.228 1202.4,-280.87 1214.73,-281.486"/>
<polygon fill="midnightblue" stroke="midnightblue" points="1214.78,-284.993 1224.94,-281.997 1215.13,-278.002 1214.78,-284.993"/>
</g>
<!-- Node10 -->
<g id="node10" class="node"><title>Node10</title>
<g id="a_node10"><a xlink:href="../../d3/ded/classprolog_1_1terms_1_1Term_a84d8fb7e1f816d0dbe3c2c56ed28fdb9.html#a84d8fb7e1f816d0dbe3c2c56ed28fdb9" target="_top" xlink:title="Dereference and unify_to. ">
<polygon fill="none" stroke="black" points="1044,-114.5 1044,-133.5 1164,-133.5 1164,-114.5 1044,-114.5"/>
<text text-anchor="middle" x="1104" y="-121.5" font-family="Helvetica,sans-Serif" font-size="10.00">prolog.terms.Term.unify</text>
</a>
</g>
</g>
<!-- Node9&#45;&gt;Node10 -->
<g id="edge9" class="edge"><title>Node9&#45;&gt;Node10</title>
<path fill="none" stroke="midnightblue" d="M977.033,-228.411C983.411,-225.937 989.528,-222.85 995,-219 1019.51,-201.76 1009.01,-182.348 1031,-162 1041.67,-152.133 1055.37,-144.063 1067.96,-137.938"/>
<polygon fill="midnightblue" stroke="midnightblue" points="1069.69,-140.998 1077.3,-133.635 1066.76,-134.64 1069.69,-140.998"/>
</g>
<!-- Node13 -->
<g id="node13" class="node"><title>Node13</title>
<g id="a_node13"><a xlink:href="../../d3/ded/classprolog_1_1terms_1_1Term_a01e5a83e648ee3f89415c0142c4220d4.html#a01e5a83e648ee3f89415c0142c4220d4" target="_top" xlink:title="Returns a copy of a term with variables standardized apart (`fresh variables&#39;). ">
<polygon fill="none" stroke="black" points="1044,-171.5 1044,-190.5 1164,-190.5 1164,-171.5 1044,-171.5"/>
<text text-anchor="middle" x="1104" y="-178.5" font-family="Helvetica,sans-Serif" font-size="10.00">prolog.terms.Term.copy</text>
</a>
</g>
</g>
<!-- Node9&#45;&gt;Node13 -->
<g id="edge12" class="edge"><title>Node9&#45;&gt;Node13</title>
<path fill="none" stroke="midnightblue" d="M957.24,-228.45C969.612,-225.687 982.865,-222.47 995,-219 1020.08,-211.83 1047.82,-202.026 1068.91,-194.173"/>
<polygon fill="midnightblue" stroke="midnightblue" points="1070.26,-197.403 1078.39,-190.607 1067.8,-190.851 1070.26,-197.403"/>
</g>
<!-- Node16 -->
<g id="node16" class="node"><title>Node16</title>
<g id="a_node16"><a xlink:href="../../dd/dad/classprolog_1_1terms_1_1Trail_adab6fa04fe8e0da6e1870bd1b37a654b.html#adab6fa04fe8e0da6e1870bd1b37a654b" target="_top" xlink:title="Used to undo bindings after unification, if we intend to leave no side effects. ">
<polygon fill="none" stroke="black" points="1041,-228.5 1041,-247.5 1167,-247.5 1167,-228.5 1041,-228.5"/>
<text text-anchor="middle" x="1104" y="-235.5" font-family="Helvetica,sans-Serif" font-size="10.00">prolog.terms.Trail.unwind</text>
</a>
</g>
</g>
<!-- Node9&#45;&gt;Node16 -->
<g id="edge15" class="edge"><title>Node9&#45;&gt;Node16</title>
<path fill="none" stroke="midnightblue" d="M991.001,-238C1004.2,-238 1017.79,-238 1030.76,-238"/>
<polygon fill="midnightblue" stroke="midnightblue" points="1031,-241.5 1041,-238 1031,-234.5 1031,-241.5"/>
</g>
<!-- Node11 -->
<g id="node11" class="node"><title>Node11</title>
<g id="a_node11"><a xlink:href="../../d3/ded/classprolog_1_1terms_1_1Term_ae140fac2c9d066dc897fcfa723060a7a.html#ae140fac2c9d066dc897fcfa723060a7a" target="_top" xlink:title="Dereferences if necessary. ">
<polygon fill="none" stroke="black" points="1231,-66.5 1231,-85.5 1341,-85.5 1341,-66.5 1231,-66.5"/>
<text text-anchor="middle" x="1286" y="-73.5" font-family="Helvetica,sans-Serif" font-size="10.00">prolog.terms.Term.ref</text>
</a>
</g>
</g>
<!-- Node10&#45;&gt;Node11 -->
<g id="edge10" class="edge"><title>Node10&#45;&gt;Node11</title>
<path fill="none" stroke="midnightblue" d="M1140.99,-114.402C1169.2,-106.88 1208.63,-96.3642 1239.11,-88.238"/>
<polygon fill="midnightblue" stroke="midnightblue" points="1240.31,-91.54 1249.07,-85.5815 1238.51,-84.7764 1240.31,-91.54"/>
</g>
<!-- Node12 -->
<g id="node12" class="node"><title>Node12</title>
<g id="a_node12"><a xlink:href="../../d3/ded/classprolog_1_1terms_1_1Term_a866b2cca50e77e99b560578b2fa3a91a.html#a866b2cca50e77e99b560578b2fa3a91a" target="_top" xlink:title="Unify dereferenced. ">
<polygon fill="none" stroke="black" points="1219,-114.5 1219,-133.5 1353,-133.5 1353,-114.5 1219,-114.5"/>
<text text-anchor="middle" x="1286" y="-121.5" font-family="Helvetica,sans-Serif" font-size="10.00">prolog.terms.Term.unify_to</text>
</a>
</g>
</g>
<!-- Node10&#45;&gt;Node12 -->
<g id="edge11" class="edge"><title>Node10&#45;&gt;Node12</title>
<path fill="none" stroke="midnightblue" d="M1164.44,-124C1178.58,-124 1193.87,-124 1208.65,-124"/>
<polygon fill="midnightblue" stroke="midnightblue" points="1208.79,-127.5 1218.79,-124 1208.79,-120.5 1208.79,-127.5"/>
</g>
<!-- Node14 -->
<g id="node14" class="node"><title>Node14</title>
<g id="a_node14"><a xlink:href="../../d3/ded/classprolog_1_1terms_1_1Term_a0a660e6cd55f12e49d328e1b84b478a4.html#a0a660e6cd55f12e49d328e1b84b478a4" target="_top" xlink:title="Defines the reaction to an agent recursing over the structure of a term. ">
<polygon fill="none" stroke="black" points="1219,-161.5 1219,-180.5 1353,-180.5 1353,-161.5 1219,-161.5"/>
<text text-anchor="middle" x="1286" y="-168.5" font-family="Helvetica,sans-Serif" font-size="10.00">prolog.terms.Term.reaction</text>
</a>
</g>
</g>
<!-- Node13&#45;&gt;Node14 -->
<g id="edge13" class="edge"><title>Node13&#45;&gt;Node14</title>
<path fill="none" stroke="midnightblue" d="M1164.44,-177.698C1178.58,-176.912 1193.87,-176.063 1208.65,-175.242"/>
<polygon fill="midnightblue" stroke="midnightblue" points="1209,-178.728 1218.79,-174.678 1208.61,-171.739 1209,-178.728"/>
</g>
<!-- Node15 -->
<g id="node15" class="node"><title>Node15</title>
<g id="a_node15"><a xlink:href="../../d3/ded/classprolog_1_1terms_1_1Term_aa52e271c0f6784dbde9aa4f5f3ab0268.html#aa52e271c0f6784dbde9aa4f5f3ab0268" target="_top" xlink:title="Identity action. ">
<polygon fill="none" stroke="black" points="1395,-161.5 1395,-180.5 1520,-180.5 1520,-161.5 1395,-161.5"/>
<text text-anchor="middle" x="1457.5" y="-168.5" font-family="Helvetica,sans-Serif" font-size="10.00">prolog.terms.Term.action</text>
</a>
</g>
</g>
<!-- Node14&#45;&gt;Node15 -->
<g id="edge14" class="edge"><title>Node14&#45;&gt;Node15</title>
<path fill="none" stroke="midnightblue" d="M1353.02,-171C1363.44,-171 1374.27,-171 1384.81,-171"/>
<polygon fill="midnightblue" stroke="midnightblue" points="1384.82,-174.5 1394.82,-171 1384.82,-167.5 1384.82,-174.5"/>
</g>
<!-- Node17 -->
<g id="node17" class="node"><title>Node17</title>
<g id="a_node17"><a xlink:href="../../da/d93/classprolog_1_1terms_1_1ObjectStack_aaa01178e10f20beab62b1410ba720606.html#aaa01178e10f20beab62b1410ba720606" target="_top" xlink:title="prolog.terms.ObjectStack.pop">
<polygon fill="none" stroke="black" points="1213,-237.5 1213,-256.5 1359,-256.5 1359,-237.5 1213,-237.5"/>
<text text-anchor="middle" x="1286" y="-244.5" font-family="Helvetica,sans-Serif" font-size="10.00">prolog.terms.ObjectStack.pop</text>
</a>
</g>
</g>
<!-- Node16&#45;&gt;Node17 -->
<g id="edge16" class="edge"><title>Node16&#45;&gt;Node17</title>
<path fill="none" stroke="midnightblue" d="M1167.2,-241.11C1178.71,-241.685 1190.89,-242.295 1202.89,-242.894"/>
<polygon fill="midnightblue" stroke="midnightblue" points="1202.74,-246.391 1212.9,-243.395 1203.09,-239.4 1202.74,-246.391"/>
</g>
<!-- Node18 -->
<g id="node18" class="node"><title>Node18</title>
<g id="a_node18"><a xlink:href="../../d3/ded/classprolog_1_1terms_1_1Term_ac710eec3650309d160ca04e364804e47.html#ac710eec3650309d160ca04e364804e47" target="_top" xlink:title="prolog.terms.Term.undo">
<polygon fill="none" stroke="black" points="1226,-199.5 1226,-218.5 1346,-218.5 1346,-199.5 1226,-199.5"/>
<text text-anchor="middle" x="1286" y="-206.5" font-family="Helvetica,sans-Serif" font-size="10.00">prolog.terms.Term.undo</text>
</a>
</g>
</g>
<!-- Node16&#45;&gt;Node18 -->
<g id="edge17" class="edge"><title>Node16&#45;&gt;Node18</title>
<path fill="none" stroke="midnightblue" d="M1164.44,-228.424C1180.96,-225.762 1199.04,-222.849 1216.06,-220.108"/>
<polygon fill="midnightblue" stroke="midnightblue" points="1216.62,-223.563 1225.93,-218.517 1215.5,-216.652 1216.62,-223.563"/>
</g>
<!-- Node20 -->
<g id="node20" class="node"><title>Node20</title>
<g id="a_node20"><a xlink:href="../../d0/d3f/classprolog_1_1terms_1_1Const_a2f00757ecfe3ace23e67c5537c34cfbd.html#a2f00757ecfe3ace23e67c5537c34cfbd" target="_top" xlink:title="prolog.terms.Const.Const">
<polygon fill="none" stroke="black" points="844,-190.5 844,-209.5 973,-209.5 973,-190.5 844,-190.5"/>
<text text-anchor="middle" x="908.5" y="-197.5" font-family="Helvetica,sans-Serif" font-size="10.00">prolog.terms.Const.Const</text>
</a>
</g>
</g>
<!-- Node19&#45;&gt;Node20 -->
<g id="edge19" class="edge"><title>Node19&#45;&gt;Node20</title>
<path fill="none" stroke="midnightblue" d="M774.156,-200C792.822,-200 813.824,-200 833.543,-200"/>
<polygon fill="midnightblue" stroke="midnightblue" points="833.719,-203.5 843.719,-200 833.719,-196.5 833.719,-203.5"/>
</g>
<!-- Node21 -->
<g id="node21" class="node"><title>Node21</title>
<g id="a_node21"><a xlink:href="../../d0/d3f/classprolog_1_1terms_1_1Const_a947005f966303baeb029a22d9201ea1b.html#a947005f966303baeb029a22d9201ea1b" target="_top" xlink:title="prolog.terms.Const.name">
<polygon fill="none" stroke="black" points="845,-152.5 845,-171.5 972,-171.5 972,-152.5 845,-152.5"/>
<text text-anchor="middle" x="908.5" y="-159.5" font-family="Helvetica,sans-Serif" font-size="10.00">prolog.terms.Const.name</text>
</a>
</g>
</g>
<!-- Node19&#45;&gt;Node21 -->
<g id="edge20" class="edge"><title>Node19&#45;&gt;Node21</title>
<path fill="none" stroke="midnightblue" d="M765.071,-190.411C790.776,-185.284 822.613,-178.933 849.664,-173.537"/>
<polygon fill="midnightblue" stroke="midnightblue" points="850.652,-176.909 859.774,-171.52 849.283,-170.044 850.652,-176.909"/>
</g>
<!-- Node22&#45;&gt;Node11 -->
<g id="edge23" class="edge"><title>Node22&#45;&gt;Node11</title>
<path fill="none" stroke="midnightblue" d="M601.254,-58.5388C739.458,-62.0681 1078.27,-70.7207 1220.49,-74.3527"/>
<polygon fill="midnightblue" stroke="midnightblue" points="1220.71,-77.8592 1230.79,-74.6157 1220.89,-70.8615 1220.71,-77.8592"/>
</g>
<!-- Node24&#45;&gt;Node10 -->
<g id="edge26" class="edge"><title>Node24&#45;&gt;Node10</title>
<path fill="none" stroke="midnightblue" d="M237.279,-95.5077C254.915,-98.9286 275.337,-102.545 294,-105 402.283,-119.243 429.784,-124 539,-124 539,-124 539,-124 717,-124 827.792,-124 956.472,-124 1033.73,-124"/>
<polygon fill="midnightblue" stroke="midnightblue" points="1033.82,-127.5 1043.82,-124 1033.82,-120.5 1033.82,-127.5"/>
</g>
<!-- Node25 -->
<g id="node25" class="node"><title>Node25</title>
<g id="a_node25"><a xlink:href="../../d4/d26/classprolog_1_1terms_1_1Prog_a41eac8617a5002806d7137eb36183405.html#a41eac8617a5002806d7137eb36183405" target="_top" xlink:title="prolog.terms.Prog.getTrail">
<polygon fill="none" stroke="black" points="299.5,-76.5 299.5,-95.5 428.5,-95.5 428.5,-76.5 299.5,-76.5"/>
<text text-anchor="middle" x="364" y="-83.5" font-family="Helvetica,sans-Serif" font-size="10.00">prolog.terms.Prog.getTrail</text>
</a>
</g>
</g>
<!-- Node24&#45;&gt;Node25 -->
<g id="edge27" class="edge"><title>Node24&#45;&gt;Node25</title>
<path fill="none" stroke="midnightblue" d="M252.288,-86C264.233,-86 276.898,-86 289.231,-86"/>
<polygon fill="midnightblue" stroke="midnightblue" points="289.49,-89.5001 299.49,-86 289.49,-82.5001 289.49,-89.5001"/>
</g>
</g>
</svg>
