<?xml version="1.0" encoding="UTF-8" standalone="no"?>
<!DOCTYPE svg PUBLIC "-//W3C//DTD SVG 1.1//EN"
 "http://www.w3.org/Graphics/SVG/1.1/DTD/svg11.dtd">
<!-- Generated by graphviz version 2.38.0 (20140413.2041)
 -->
<!-- Title: prolog.builtins.consult.exec Pages: 1 -->
<svg width="1003pt" height="211pt"
 viewBox="0.00 0.00 1003.00 211.00" xmlns="http://www.w3.org/2000/svg" xmlns:xlink="http://www.w3.org/1999/xlink">
<g id="graph0" class="graph" transform="scale(1 1) rotate(0) translate(4 207)">
<title>prolog.builtins.consult.exec</title>
<!-- Node1 -->
<g id="node1" class="node"><title>Node1</title>
<polygon fill="#bfbfbf" stroke="black" points="0,-107.5 0,-126.5 135,-126.5 135,-107.5 0,-107.5"/>
<text text-anchor="middle" x="67.5" y="-114.5" font-family="Helvetica,sans-Serif" font-size="10.00">prolog.builtins.consult.exec</text>
</g>
<!-- Node2 -->
<g id="node2" class="node"><title>Node2</title>
<g id="a_node2"><a xlink:href="../../d0/d3f/classprolog_1_1terms_1_1Const_a2f00757ecfe3ace23e67c5537c34cfbd.html#a2f00757ecfe3ace23e67c5537c34cfbd" target="_top" xlink:title="prolog.terms.Const.Const">
<polygon fill="none" stroke="black" points="186.5,-183.5 186.5,-202.5 315.5,-202.5 315.5,-183.5 186.5,-183.5"/>
<text text-anchor="middle" x="251" y="-190.5" font-family="Helvetica,sans-Serif" font-size="10.00">prolog.terms.Const.Const</text>
</a>
</g>
</g>
<!-- Node1&#45;&gt;Node2 -->
<g id="edge1" class="edge"><title>Node1&#45;&gt;Node2</title>
<path fill="none" stroke="midnightblue" d="M85.127,-126.577C105.063,-137.789 139.711,-156.422 171,-169 181.488,-173.216 193.011,-177.112 203.936,-180.485"/>
<polygon fill="midnightblue" stroke="midnightblue" points="203.17,-183.909 213.754,-183.43 205.181,-177.204 203.17,-183.909"/>
</g>
<!-- Node3 -->
<g id="node3" class="node"><title>Node3</title>
<g id="a_node3"><a xlink:href="../../da/dd9/classprolog_1_1fluents_1_1DataBase_a8b4fed48561a1c3086c94900495508d2.html#a8b4fed48561a1c3086c94900495508d2" target="_top" xlink:title="consults or reconsults a Prolog file by adding or overriding existing predicates to be extended to lo...">
<polygon fill="none" stroke="black" points="171,-107.5 171,-126.5 331,-126.5 331,-107.5 171,-107.5"/>
<text text-anchor="middle" x="251" y="-114.5" font-family="Helvetica,sans-Serif" font-size="10.00">prolog.fluents.DataBase.fromFile</text>
</a>
</g>
</g>
<!-- Node1&#45;&gt;Node3 -->
<g id="edge2" class="edge"><title>Node1&#45;&gt;Node3</title>
<path fill="none" stroke="midnightblue" d="M135.053,-117C143.416,-117 152.074,-117 160.714,-117"/>
<polygon fill="midnightblue" stroke="midnightblue" points="160.831,-120.5 170.831,-117 160.831,-113.5 160.831,-120.5"/>
</g>
<!-- Node4 -->
<g id="node4" class="node"><title>Node4</title>
<g id="a_node4"><a xlink:href="../../d4/dc2/classprolog_1_1io_1_1IO_aaa553b2e5bb8b5de129d38fe67293316.html#aaa553b2e5bb8b5de129d38fe67293316" target="_top" xlink:title="prolog.io.IO.trace">
<polygon fill="none" stroke="black" points="389.5,-145.5 389.5,-164.5 481.5,-164.5 481.5,-145.5 389.5,-145.5"/>
<text text-anchor="middle" x="435.5" y="-152.5" font-family="Helvetica,sans-Serif" font-size="10.00">prolog.io.IO.trace</text>
</a>
</g>
</g>
<!-- Node1&#45;&gt;Node4 -->
<g id="edge21" class="edge"><title>Node1&#45;&gt;Node4</title>
<path fill="none" stroke="midnightblue" d="M113.742,-126.508C131.521,-129.95 152.151,-133.581 171,-136 242.437,-145.168 325.38,-150.237 378.834,-152.787"/>
<polygon fill="midnightblue" stroke="midnightblue" points="378.969,-156.297 389.12,-153.264 379.293,-149.304 378.969,-156.297"/>
</g>
<!-- Node17 -->
<g id="node17" class="node"><title>Node17</title>
<g id="a_node17"><a xlink:href="../../de/d8d/classprolog_1_1terms_1_1Fun_a95f487cd7555adbc0ae1a08076a0404d.html#a95f487cd7555adbc0ae1a08076a0404d" target="_top" xlink:title="prolog.terms.Fun.getArg">
<polygon fill="none" stroke="black" points="190,-69.5 190,-88.5 312,-88.5 312,-69.5 190,-69.5"/>
<text text-anchor="middle" x="251" y="-76.5" font-family="Helvetica,sans-Serif" font-size="10.00">prolog.terms.Fun.getArg</text>
</a>
</g>
</g>
<!-- Node1&#45;&gt;Node17 -->
<g id="edge18" class="edge"><title>Node1&#45;&gt;Node17</title>
<path fill="none" stroke="midnightblue" d="M114.3,-107.411C138.683,-102.306 168.857,-95.9887 194.556,-90.6082"/>
<polygon fill="midnightblue" stroke="midnightblue" points="195.459,-93.9951 204.529,-88.5201 194.024,-87.1436 195.459,-93.9951"/>
</g>
<!-- Node19 -->
<g id="node19" class="node"><title>Node19</title>
<g id="a_node19"><a xlink:href="../../d0/d3f/classprolog_1_1terms_1_1Const_a947005f966303baeb029a22d9201ea1b.html#a947005f966303baeb029a22d9201ea1b" target="_top" xlink:title="prolog.terms.Const.name">
<polygon fill="none" stroke="black" points="187.5,-31.5 187.5,-50.5 314.5,-50.5 314.5,-31.5 187.5,-31.5"/>
<text text-anchor="middle" x="251" y="-38.5" font-family="Helvetica,sans-Serif" font-size="10.00">prolog.terms.Const.name</text>
</a>
</g>
</g>
<!-- Node1&#45;&gt;Node19 -->
<g id="edge20" class="edge"><title>Node1&#45;&gt;Node19</title>
<path fill="none" stroke="midnightblue" d="M82.8202,-107.379C102.093,-94.8273 137.801,-72.9441 171,-60 177.446,-57.4867 184.322,-55.239 191.226,-53.2474"/>
<polygon fill="midnightblue" stroke="midnightblue" points="192.58,-56.5067 201.316,-50.5116 190.748,-49.7507 192.58,-56.5067"/>
</g>
<!-- Node3&#45;&gt;Node4 -->
<g id="edge3" class="edge"><title>Node3&#45;&gt;Node4</title>
<path fill="none" stroke="midnightblue" d="M298.052,-126.589C322.756,-131.733 353.371,-138.107 379.339,-143.514"/>
<polygon fill="midnightblue" stroke="midnightblue" points="378.906,-146.999 389.41,-145.611 380.333,-140.146 378.906,-146.999"/>
</g>
<!-- Node10 -->
<g id="node10" class="node"><title>Node10</title>
<g id="a_node10"><a xlink:href="../../da/dd9/classprolog_1_1fluents_1_1DataBase_a09001c9a02b98909be7fc84934418ed6.html#a09001c9a02b98909be7fc84934418ed6" target="_top" xlink:title="prolog.fluents.DataBase.file\lToProg">
<polygon fill="none" stroke="black" points="367,-58 367,-88 504,-88 504,-58 367,-58"/>
<text text-anchor="start" x="375" y="-76" font-family="Helvetica,sans-Serif" font-size="10.00">prolog.fluents.DataBase.file</text>
<text text-anchor="middle" x="435.5" y="-65" font-family="Helvetica,sans-Serif" font-size="10.00">ToProg</text>
</a>
</g>
</g>
<!-- Node3&#45;&gt;Node10 -->
<g id="edge9" class="edge"><title>Node3&#45;&gt;Node10</title>
<path fill="none" stroke="midnightblue" d="M291.786,-107.439C304.333,-104.422 318.246,-101.074 331,-98 341.146,-95.5546 351.85,-92.9719 362.374,-90.4314"/>
<polygon fill="midnightblue" stroke="midnightblue" points="363.485,-93.7638 372.384,-88.0144 361.842,-86.9594 363.485,-93.7638"/>
</g>
<!-- Node16 -->
<g id="node16" class="node"><title>Node16</title>
<g id="a_node16"><a xlink:href="../../d4/dc2/classprolog_1_1io_1_1IO_ab6e0553457312c4804472cbe1c646a28.html#ab6e0553457312c4804472cbe1c646a28" target="_top" xlink:title="prolog.io.IO.errmes">
<polygon fill="none" stroke="black" points="385.5,-107.5 385.5,-126.5 485.5,-126.5 485.5,-107.5 385.5,-107.5"/>
<text text-anchor="middle" x="435.5" y="-114.5" font-family="Helvetica,sans-Serif" font-size="10.00">prolog.io.IO.errmes</text>
</a>
</g>
</g>
<!-- Node3&#45;&gt;Node16 -->
<g id="edge15" class="edge"><title>Node3&#45;&gt;Node16</title>
<path fill="none" stroke="midnightblue" d="M331.251,-117C346.036,-117 361.248,-117 375.299,-117"/>
<polygon fill="midnightblue" stroke="midnightblue" points="375.302,-120.5 385.302,-117 375.302,-113.5 375.302,-120.5"/>
</g>
<!-- Node5 -->
<g id="node5" class="node"><title>Node5</title>
<g id="a_node5"><a xlink:href="../../d4/dc2/classprolog_1_1io_1_1IO_ad851906c6ebd6559eb1b1fa52e26dabb.html#ad851906c6ebd6559eb1b1fa52e26dabb" target="_top" xlink:title="prolog.io.IO.println">
<polygon fill="none" stroke="black" points="569.5,-145.5 569.5,-164.5 665.5,-164.5 665.5,-145.5 569.5,-145.5"/>
<text text-anchor="middle" x="617.5" y="-152.5" font-family="Helvetica,sans-Serif" font-size="10.00">prolog.io.IO.println</text>
</a>
</g>
</g>
<!-- Node4&#45;&gt;Node5 -->
<g id="edge4" class="edge"><title>Node4&#45;&gt;Node5</title>
<path fill="none" stroke="midnightblue" d="M481.922,-155C505.355,-155 534.182,-155 559.137,-155"/>
<polygon fill="midnightblue" stroke="midnightblue" points="559.207,-158.5 569.207,-155 559.207,-151.5 559.207,-158.5"/>
</g>
<!-- Node8 -->
<g id="node8" class="node"><title>Node8</title>
<g id="a_node8"><a xlink:href="../../d4/dc2/classprolog_1_1io_1_1IO_a22a9a2bfe9fa6e00257369f5bf078a44.html#a22a9a2bfe9fa6e00257369f5bf078a44" target="_top" xlink:title="prolog.io.IO.getStdOutput">
<polygon fill="none" stroke="black" points="553.5,-107.5 553.5,-126.5 681.5,-126.5 681.5,-107.5 553.5,-107.5"/>
<text text-anchor="middle" x="617.5" y="-114.5" font-family="Helvetica,sans-Serif" font-size="10.00">prolog.io.IO.getStdOutput</text>
</a>
</g>
</g>
<!-- Node4&#45;&gt;Node8 -->
<g id="edge7" class="edge"><title>Node4&#45;&gt;Node8</title>
<path fill="none" stroke="midnightblue" d="M481.922,-145.411C506.103,-140.306 536.027,-133.989 561.514,-128.608"/>
<polygon fill="midnightblue" stroke="midnightblue" points="562.344,-132.01 571.405,-126.52 560.898,-125.161 562.344,-132.01"/>
</g>
<!-- Node9 -->
<g id="node9" class="node"><title>Node9</title>
<g id="a_node9"><a xlink:href="../../d6/d92/interfaceprolog_1_1io_1_1IOPeer_a780dd51c62dba4c266286171101b2cee.html#a780dd51c62dba4c266286171101b2cee" target="_top" xlink:title="prolog.io.IOPeer.traceln">
<polygon fill="none" stroke="black" points="558,-183.5 558,-202.5 677,-202.5 677,-183.5 558,-183.5"/>
<text text-anchor="middle" x="617.5" y="-190.5" font-family="Helvetica,sans-Serif" font-size="10.00">prolog.io.IOPeer.traceln</text>
</a>
</g>
</g>
<!-- Node4&#45;&gt;Node9 -->
<g id="edge8" class="edge"><title>Node4&#45;&gt;Node9</title>
<path fill="none" stroke="midnightblue" d="M481.922,-164.589C506.103,-169.694 536.027,-176.011 561.514,-181.392"/>
<polygon fill="midnightblue" stroke="midnightblue" points="560.898,-184.839 571.405,-183.48 562.344,-177.99 560.898,-184.839"/>
</g>
<!-- Node6 -->
<g id="node6" class="node"><title>Node6</title>
<g id="a_node6"><a xlink:href="../../d4/dc2/classprolog_1_1io_1_1IO_aab64872af087c6cd9c5dd13e9f4eda00.html#aab64872af087c6cd9c5dd13e9f4eda00" target="_top" xlink:title="prolog.io.IO.print">
<polygon fill="none" stroke="black" points="742.5,-145.5 742.5,-164.5 831.5,-164.5 831.5,-145.5 742.5,-145.5"/>
<text text-anchor="middle" x="787" y="-152.5" font-family="Helvetica,sans-Serif" font-size="10.00">prolog.io.IO.print</text>
</a>
</g>
</g>
<!-- Node5&#45;&gt;Node6 -->
<g id="edge5" class="edge"><title>Node5&#45;&gt;Node6</title>
<path fill="none" stroke="midnightblue" d="M665.604,-155C686.309,-155 710.738,-155 732.16,-155"/>
<polygon fill="midnightblue" stroke="midnightblue" points="732.406,-158.5 742.406,-155 732.406,-151.5 732.406,-158.5"/>
</g>
<!-- Node7 -->
<g id="node7" class="node"><title>Node7</title>
<g id="a_node7"><a xlink:href="../../d6/d92/interfaceprolog_1_1io_1_1IOPeer_abc1f90b85b358011e2595069d38ac25f.html#abc1f90b85b358011e2595069d38ac25f" target="_top" xlink:title="prolog.io.IOPeer.print">
<polygon fill="none" stroke="black" points="882.5,-145.5 882.5,-164.5 991.5,-164.5 991.5,-145.5 882.5,-145.5"/>
<text text-anchor="middle" x="937" y="-152.5" font-family="Helvetica,sans-Serif" font-size="10.00">prolog.io.IOPeer.print</text>
</a>
</g>
</g>
<!-- Node6&#45;&gt;Node7 -->
<g id="edge6" class="edge"><title>Node6&#45;&gt;Node7</title>
<path fill="none" stroke="midnightblue" d="M831.604,-155C844.31,-155 858.463,-155 872.145,-155"/>
<polygon fill="midnightblue" stroke="midnightblue" points="872.484,-158.5 882.484,-155 872.484,-151.5 872.484,-158.5"/>
</g>
<!-- Node11 -->
<g id="node11" class="node"><title>Node11</title>
<g id="a_node11"><a xlink:href="../../d4/dc2/classprolog_1_1io_1_1IO_a6a1a0dd3e007e7182461e9a65742e044.html#a6a1a0dd3e007e7182461e9a65742e044" target="_top" xlink:title="prolog.io.IO.toFileReader">
<polygon fill="none" stroke="black" points="555,-19.5 555,-38.5 680,-38.5 680,-19.5 555,-19.5"/>
<text text-anchor="middle" x="617.5" y="-26.5" font-family="Helvetica,sans-Serif" font-size="10.00">prolog.io.IO.toFileReader</text>
</a>
</g>
</g>
<!-- Node10&#45;&gt;Node11 -->
<g id="edge10" class="edge"><title>Node10&#45;&gt;Node11</title>
<path fill="none" stroke="midnightblue" d="M497.942,-57.9808C520.714,-52.4144 546.206,-46.1829 567.701,-40.9287"/>
<polygon fill="midnightblue" stroke="midnightblue" points="568.703,-44.2869 577.586,-38.5124 567.04,-37.4871 568.703,-44.2869"/>
</g>
<!-- Node15 -->
<g id="node15" class="node"><title>Node15</title>
<g id="a_node15"><a xlink:href="../../da/dd9/classprolog_1_1fluents_1_1DataBase_a885c2d663dfc3f5ebf5f94ef22a9a210.html#a885c2d663dfc3f5ebf5f94ef22a9a210" target="_top" xlink:title="Reads a set of clauses from a stream and adds them to the blackboard. ">
<polygon fill="none" stroke="black" points="540,-58 540,-88 695,-88 695,-58 540,-58"/>
<text text-anchor="start" x="548" y="-76" font-family="Helvetica,sans-Serif" font-size="10.00">prolog.fluents.DataBase.stream</text>
<text text-anchor="middle" x="617.5" y="-65" font-family="Helvetica,sans-Serif" font-size="10.00">ToProg</text>
</a>
</g>
</g>
<!-- Node10&#45;&gt;Node15 -->
<g id="edge14" class="edge"><title>Node10&#45;&gt;Node15</title>
<path fill="none" stroke="midnightblue" d="M504.037,-73C512.426,-73 521.094,-73 529.721,-73"/>
<polygon fill="midnightblue" stroke="midnightblue" points="529.812,-76.5001 539.812,-73 529.812,-69.5001 529.812,-76.5001"/>
</g>
<!-- Node12 -->
<g id="node12" class="node"><title>Node12</title>
<g id="a_node12"><a xlink:href="../../d4/dc2/classprolog_1_1io_1_1IO_ac5428808b7db8cc3cd5b8b82b1b070c4.html#ac5428808b7db8cc3cd5b8b82b1b070c4" target="_top" xlink:title="prolog.io.IO.url_or_file">
<polygon fill="none" stroke="black" points="731,-19.5 731,-38.5 843,-38.5 843,-19.5 731,-19.5"/>
<text text-anchor="middle" x="787" y="-26.5" font-family="Helvetica,sans-Serif" font-size="10.00">prolog.io.IO.url_or_file</text>
</a>
</g>
</g>
<!-- Node11&#45;&gt;Node12 -->
<g id="edge11" class="edge"><title>Node11&#45;&gt;Node12</title>
<path fill="none" stroke="midnightblue" d="M680.395,-29C693.614,-29 707.613,-29 720.947,-29"/>
<polygon fill="midnightblue" stroke="midnightblue" points="720.989,-32.5001 730.989,-29 720.989,-25.5001 720.989,-32.5001"/>
</g>
<!-- Node13 -->
<g id="node13" class="node"><title>Node13</title>
<g id="a_node13"><a xlink:href="../../d4/dc2/classprolog_1_1io_1_1IO_a6349d9d37774b9ddd8e24c3c280afc9e.html#a6349d9d37774b9ddd8e24c3c280afc9e" target="_top" xlink:title="prolog.io.IO.url2stream">
<polygon fill="none" stroke="black" points="879,-0.5 879,-19.5 995,-19.5 995,-0.5 879,-0.5"/>
<text text-anchor="middle" x="937" y="-7.5" font-family="Helvetica,sans-Serif" font-size="10.00">prolog.io.IO.url2stream</text>
</a>
</g>
</g>
<!-- Node12&#45;&gt;Node13 -->
<g id="edge12" class="edge"><title>Node12&#45;&gt;Node13</title>
<path fill="none" stroke="midnightblue" d="M843.11,-21.9251C851.498,-20.8483 860.233,-19.7269 868.843,-18.6215"/>
<polygon fill="midnightblue" stroke="midnightblue" points="869.392,-22.0798 878.865,-17.3349 868.501,-15.1368 869.392,-22.0798"/>
</g>
<!-- Node14 -->
<g id="node14" class="node"><title>Node14</title>
<g id="a_node14"><a xlink:href="../../d4/dc2/classprolog_1_1io_1_1IO_aee8a81008d28d54afc3e1eef18e8bec9.html#aee8a81008d28d54afc3e1eef18e8bec9" target="_top" xlink:title="prolog.io.IO.toReader">
<polygon fill="none" stroke="black" points="882,-38.5 882,-57.5 992,-57.5 992,-38.5 882,-38.5"/>
<text text-anchor="middle" x="937" y="-45.5" font-family="Helvetica,sans-Serif" font-size="10.00">prolog.io.IO.toReader</text>
</a>
</g>
</g>
<!-- Node12&#45;&gt;Node14 -->
<g id="edge13" class="edge"><title>Node12&#45;&gt;Node14</title>
<path fill="none" stroke="midnightblue" d="M843.11,-36.0749C852.404,-37.2681 862.125,-38.516 871.63,-39.7363"/>
<polygon fill="midnightblue" stroke="midnightblue" points="871.465,-43.2437 881.829,-41.0456 872.356,-36.3007 871.465,-43.2437"/>
</g>
<!-- Node16&#45;&gt;Node5 -->
<g id="edge16" class="edge"><title>Node16&#45;&gt;Node5</title>
<path fill="none" stroke="midnightblue" d="M481.922,-126.589C506.103,-131.694 536.027,-138.011 561.514,-143.392"/>
<polygon fill="midnightblue" stroke="midnightblue" points="560.898,-146.839 571.405,-145.48 562.344,-139.99 560.898,-146.839"/>
</g>
<!-- Node16&#45;&gt;Node8 -->
<g id="edge17" class="edge"><title>Node16&#45;&gt;Node8</title>
<path fill="none" stroke="midnightblue" d="M485.686,-117C503.502,-117 524.026,-117 543.457,-117"/>
<polygon fill="midnightblue" stroke="midnightblue" points="543.497,-120.5 553.497,-117 543.497,-113.5 543.497,-120.5"/>
</g>
<!-- Node18 -->
<g id="node18" class="node"><title>Node18</title>
<g id="a_node18"><a xlink:href="../../d3/ded/classprolog_1_1terms_1_1Term_ae140fac2c9d066dc897fcfa723060a7a.html#ae140fac2c9d066dc897fcfa723060a7a" target="_top" xlink:title="Dereferences if necessary. ">
<polygon fill="none" stroke="black" points="380.5,-19.5 380.5,-38.5 490.5,-38.5 490.5,-19.5 380.5,-19.5"/>
<text text-anchor="middle" x="435.5" y="-26.5" font-family="Helvetica,sans-Serif" font-size="10.00">prolog.terms.Term.ref</text>
</a>
</g>
</g>
<!-- Node17&#45;&gt;Node18 -->
<g id="edge19" class="edge"><title>Node17&#45;&gt;Node18</title>
<path fill="none" stroke="midnightblue" d="M294.815,-69.4101C306.595,-66.5797 319.337,-63.3396 331,-60 347.214,-55.3572 350.878,-52.9529 367,-48 374.282,-45.7627 382.038,-43.4839 389.6,-41.3175"/>
<polygon fill="midnightblue" stroke="midnightblue" points="390.707,-44.6417 399.374,-38.5473 388.798,-37.9069 390.707,-44.6417"/>
</g>
</g>
</svg>
