<?xml version="1.0" encoding="UTF-8" standalone="no"?>
<!DOCTYPE svg PUBLIC "-//W3C//DTD SVG 1.1//EN"
 "http://www.w3.org/Graphics/SVG/1.1/DTD/svg11.dtd">
<!-- Generated by graphviz version 2.38.0 (20140413.2041)
 -->
<!-- Title: prolog.builtins.list_source.exec Pages: 1 -->
<svg width="593pt" height="104pt"
 viewBox="0.00 0.00 593.00 104.00" xmlns="http://www.w3.org/2000/svg" xmlns:xlink="http://www.w3.org/1999/xlink">
<g id="graph0" class="graph" transform="scale(1 1) rotate(0) translate(4 100)">
<title>prolog.builtins.list_source.exec</title>
<!-- Node1 -->
<g id="node1" class="node"><title>Node1</title>
<polygon fill="#bfbfbf" stroke="black" points="0,-52 0,-82 92,-82 92,-52 0,-52"/>
<text text-anchor="start" x="8" y="-70" font-family="Helvetica,sans-Serif" font-size="10.00">prolog.builtins.list</text>
<text text-anchor="middle" x="46" y="-59" font-family="Helvetica,sans-Serif" font-size="10.00">_source.exec</text>
</g>
<!-- Node2 -->
<g id="node2" class="node"><title>Node2</title>
<g id="a_node2"><a xlink:href="../../de/d8d/classprolog_1_1terms_1_1Fun_a95f487cd7555adbc0ae1a08076a0404d.html#a95f487cd7555adbc0ae1a08076a0404d" target="_top" xlink:title="prolog.terms.Fun.getArg">
<polygon fill="none" stroke="black" points="128,-76.5 128,-95.5 250,-95.5 250,-76.5 128,-76.5"/>
<text text-anchor="middle" x="189" y="-83.5" font-family="Helvetica,sans-Serif" font-size="10.00">prolog.terms.Fun.getArg</text>
</a>
</g>
</g>
<!-- Node1&#45;&gt;Node2 -->
<g id="edge1" class="edge"><title>Node1&#45;&gt;Node2</title>
<path fill="none" stroke="midnightblue" d="M92.001,-73.064C100.316,-74.1844 109.178,-75.3786 118.029,-76.5713"/>
<polygon fill="midnightblue" stroke="midnightblue" points="117.61,-80.0463 127.988,-77.9132 118.545,-73.109 117.61,-80.0463"/>
</g>
<!-- Node4 -->
<g id="node4" class="node"><title>Node4</title>
<g id="a_node4"><a xlink:href="../../de/d8d/classprolog_1_1terms_1_1Fun_a408f688b791b731a83c6a41a8ee32fb0.html#a408f688b791b731a83c6a41a8ee32fb0" target="_top" xlink:title="prolog.terms.Fun.putArg">
<polygon fill="none" stroke="black" points="128,-38.5 128,-57.5 250,-57.5 250,-38.5 128,-38.5"/>
<text text-anchor="middle" x="189" y="-45.5" font-family="Helvetica,sans-Serif" font-size="10.00">prolog.terms.Fun.putArg</text>
</a>
</g>
</g>
<!-- Node1&#45;&gt;Node4 -->
<g id="edge3" class="edge"><title>Node1&#45;&gt;Node4</title>
<path fill="none" stroke="midnightblue" d="M92.001,-60.936C100.316,-59.8156 109.178,-58.6214 118.029,-57.4287"/>
<polygon fill="midnightblue" stroke="midnightblue" points="118.545,-60.891 127.988,-56.0868 117.61,-53.9537 118.545,-60.891"/>
</g>
<!-- Node3 -->
<g id="node3" class="node"><title>Node3</title>
<g id="a_node3"><a xlink:href="../../d3/ded/classprolog_1_1terms_1_1Term_ae140fac2c9d066dc897fcfa723060a7a.html#ae140fac2c9d066dc897fcfa723060a7a" target="_top" xlink:title="Dereferences if necessary. ">
<polygon fill="none" stroke="black" points="463,-76.5 463,-95.5 573,-95.5 573,-76.5 463,-76.5"/>
<text text-anchor="middle" x="518" y="-83.5" font-family="Helvetica,sans-Serif" font-size="10.00">prolog.terms.Term.ref</text>
</a>
</g>
</g>
<!-- Node2&#45;&gt;Node3 -->
<g id="edge2" class="edge"><title>Node2&#45;&gt;Node3</title>
<path fill="none" stroke="midnightblue" d="M250.358,-86C307.807,-86 393.971,-86 452.693,-86"/>
<polygon fill="midnightblue" stroke="midnightblue" points="452.961,-89.5001 462.961,-86 452.961,-82.5001 452.961,-89.5001"/>
</g>
<!-- Node5 -->
<g id="node5" class="node"><title>Node5</title>
<g id="a_node5"><a xlink:href="../../d3/ded/classprolog_1_1terms_1_1Term_a84d8fb7e1f816d0dbe3c2c56ed28fdb9.html#a84d8fb7e1f816d0dbe3c2c56ed28fdb9" target="_top" xlink:title="Dereference and unify_to. ">
<polygon fill="none" stroke="black" points="290.5,-38.5 290.5,-57.5 410.5,-57.5 410.5,-38.5 290.5,-38.5"/>
<text text-anchor="middle" x="350.5" y="-45.5" font-family="Helvetica,sans-Serif" font-size="10.00">prolog.terms.Term.unify</text>
</a>
</g>
</g>
<!-- Node4&#45;&gt;Node5 -->
<g id="edge4" class="edge"><title>Node4&#45;&gt;Node5</title>
<path fill="none" stroke="midnightblue" d="M250.3,-48C260.056,-48 270.225,-48 280.174,-48"/>
<polygon fill="midnightblue" stroke="midnightblue" points="280.436,-51.5001 290.436,-48 280.436,-44.5001 280.436,-51.5001"/>
</g>
<!-- Node7 -->
<g id="node7" class="node"><title>Node7</title>
<g id="a_node7"><a xlink:href="../../d4/d26/classprolog_1_1terms_1_1Prog_a41eac8617a5002806d7137eb36183405.html#a41eac8617a5002806d7137eb36183405" target="_top" xlink:title="prolog.terms.Prog.getTrail">
<polygon fill="none" stroke="black" points="286,-0.5 286,-19.5 415,-19.5 415,-0.5 286,-0.5"/>
<text text-anchor="middle" x="350.5" y="-7.5" font-family="Helvetica,sans-Serif" font-size="10.00">prolog.terms.Prog.getTrail</text>
</a>
</g>
</g>
<!-- Node4&#45;&gt;Node7 -->
<g id="edge7" class="edge"><title>Node4&#45;&gt;Node7</title>
<path fill="none" stroke="midnightblue" d="M230.249,-38.411C251.296,-33.3965 277.255,-27.2119 299.573,-21.8947"/>
<polygon fill="midnightblue" stroke="midnightblue" points="300.624,-25.2424 309.541,-19.5201 299.002,-18.433 300.624,-25.2424"/>
</g>
<!-- Node5&#45;&gt;Node3 -->
<g id="edge5" class="edge"><title>Node5&#45;&gt;Node3</title>
<path fill="none" stroke="midnightblue" d="M393.263,-57.589C415.201,-62.6261 442.28,-68.8438 465.508,-74.1771"/>
<polygon fill="midnightblue" stroke="midnightblue" points="465.008,-77.6533 475.538,-76.4799 466.575,-70.8308 465.008,-77.6533"/>
</g>
<!-- Node6 -->
<g id="node6" class="node"><title>Node6</title>
<g id="a_node6"><a xlink:href="../../d3/ded/classprolog_1_1terms_1_1Term_a866b2cca50e77e99b560578b2fa3a91a.html#a866b2cca50e77e99b560578b2fa3a91a" target="_top" xlink:title="Unify dereferenced. ">
<polygon fill="none" stroke="black" points="451,-38.5 451,-57.5 585,-57.5 585,-38.5 451,-38.5"/>
<text text-anchor="middle" x="518" y="-45.5" font-family="Helvetica,sans-Serif" font-size="10.00">prolog.terms.Term.unify_to</text>
</a>
</g>
</g>
<!-- Node5&#45;&gt;Node6 -->
<g id="edge6" class="edge"><title>Node5&#45;&gt;Node6</title>
<path fill="none" stroke="midnightblue" d="M410.782,-48C420.521,-48 430.732,-48 440.813,-48"/>
<polygon fill="midnightblue" stroke="midnightblue" points="440.828,-51.5001 450.828,-48 440.828,-44.5001 440.828,-51.5001"/>
</g>
</g>
</svg>
