<?xml version="1.0" encoding="UTF-8" standalone="no"?>
<!DOCTYPE svg PUBLIC "-//W3C//DTD SVG 1.1//EN"
 "http://www.w3.org/Graphics/SVG/1.1/DTD/svg11.dtd">
<!-- Generated by graphviz version 2.38.0 (20140413.2041)
 -->
<!-- Title: prolog.terms.Prog.getElement Pages: 1 -->
<!--zoomable 456 -->
<svg id="main" version="1.1" xmlns="http://www.w3.org/2000/svg" xmlns:xlink="http://www.w3.org/1999/xlink" xml:space="preserve" onload="init(evt)">
<style type="text/css"><![CDATA[
.edge:hover path { stroke: red; }
.edge:hover polygon { stroke: red; fill: red; }
]]></style>
<script type="text/javascript"><![CDATA[
var edges = document.getElementsByTagName('g');
if (edges && edges.length) {
  for (var i=0;i<edges.length;i++) {
    if (edges[i].id.substr(0,4)=='edge') {
      edges[i].setAttribute('class','edge');
    }
  }
}
]]></script>
        <defs>
                <circle id="rim" cx="0" cy="0" r="7"/>
                <circle id="rim2" cx="0" cy="0" r="3.5"/>
                <g id="zoomPlus">
                        <use xlink:href="#rim" fill="#404040">
                                <set attributeName="fill" to="#808080" begin="zoomplus.mouseover" end="zoomplus.mouseout"/>
                        </use>
                        <path d="M-4,0h8M0,-4v8" fill="none" stroke="white" stroke-width="1.5" pointer-events="none"/>
                </g>
                <g id="zoomMin">
                        <use xlink:href="#rim" fill="#404040">
                                <set attributeName="fill" to="#808080" begin="zoomminus.mouseover" end="zoomminus.mouseout"/>
                        </use>
                        <path d="M-4,0h8" fill="none" stroke="white" stroke-width="1.5" pointer-events="none"/>
                </g>
                <g id="dirArrow">
                        <path fill="none" stroke="white" stroke-width="1.5" d="M0,-3.0v7 M-2.5,-0.5L0,-3.0L2.5,-0.5"/>
                </g>
               <g id="resetDef">
                       <use xlink:href="#rim2" fill="#404040">
                               <set attributeName="fill" to="#808080" begin="reset.mouseover" end="reset.mouseout"/>
                       </use>
               </g>
        </defs>

<script type="text/javascript">
var viewWidth = 1404;
var viewHeight = 456;
var sectionId = 'dynsection-0';
</script>
<script xlink:href="../../svgpan.js"/>
<svg id="graph" class="graph">
<g id="viewport">
<title>prolog.terms.Prog.getElement</title>
<!-- Node1 -->
<g id="node1" class="node"><title>Node1</title>
<polygon fill="#bfbfbf" stroke="black" points="0,-142.5 0,-161.5 146,-161.5 146,-142.5 0,-142.5"/>
<text text-anchor="middle" x="73" y="-149.5" font-family="Helvetica,sans-Serif" font-size="10.00">prolog.terms.Prog.getElement</text>
</g>
<!-- Node2 -->
<g id="node2" class="node"><title>Node2</title>
<g id="a_node2"><a xlink:href="../../df/d94/classprolog_1_1terms_1_1Unfolder_aecb7a5d616b5375d40405f66c9401637.html#aecb7a5d616b5375d40405f66c9401637" target="_top" xlink:title="Extracts an answer at the end of an AND&#45;derivation. ">
<polygon fill="none" stroke="black" points="553.5,-361 553.5,-391 680.5,-391 680.5,-361 553.5,-361"/>
<text text-anchor="start" x="561.5" y="-379" font-family="Helvetica,sans-Serif" font-size="10.00">prolog.terms.Unfolder.get</text>
<text text-anchor="middle" x="617" y="-368" font-family="Helvetica,sans-Serif" font-size="10.00">Answer</text>
</a>
</g>
</g>
<!-- Node1&#45;&gt;Node2 -->
<g id="edge1" class="edge"><title>Node1&#45;&gt;Node2</title>
<path fill="none" stroke="midnightblue" d="M79.8053,-161.813C94.2368,-185.441 134.054,-246.117 182,-281 290.061,-359.619 450.639,-375.335 543.155,-377.282"/>
<polygon fill="midnightblue" stroke="midnightblue" points="543.211,-380.783 553.267,-377.445 543.324,-373.784 543.211,-380.783"/>
</g>
<!-- Node10 -->
<g id="node10" class="node"><title>Node10</title>
<g id="a_node10"><a xlink:href="../../df/d94/classprolog_1_1terms_1_1Unfolder_a261a28665ab541b974afb636c3fec84b.html#a261a28665ab541b974afb636c3fec84b" target="_top" xlink:title="Returns a new clause by unfolding the goal with a matching clause in the database, or null if no such clause exists. ">
<polygon fill="none" stroke="black" points="194.5,-241 194.5,-271 321.5,-271 321.5,-241 194.5,-241"/>
<text text-anchor="start" x="202.5" y="-259" font-family="Helvetica,sans-Serif" font-size="10.00">prolog.terms.Unfolder.get</text>
<text text-anchor="middle" x="258" y="-248" font-family="Helvetica,sans-Serif" font-size="10.00">Element</text>
</a>
</g>
</g>
<!-- Node1&#45;&gt;Node10 -->
<g id="edge9" class="edge"><title>Node1&#45;&gt;Node10</title>
<path fill="none" stroke="midnightblue" d="M84.5981,-161.519C103.139,-177.75 143.194,-210.962 182,-231 186.272,-233.206 190.78,-235.276 195.378,-237.207"/>
<polygon fill="midnightblue" stroke="midnightblue" points="194.311,-240.549 204.897,-240.972 196.886,-234.039 194.311,-240.549"/>
</g>
<!-- Node13 -->
<g id="node13" class="node"><title>Node13</title>
<g id="a_node13"><a xlink:href="../../da/d93/classprolog_1_1terms_1_1ObjectStack_aaa01178e10f20beab62b1410ba720606.html#aaa01178e10f20beab62b1410ba720606" target="_top" xlink:title="prolog.terms.ObjectStack.pop">
<polygon fill="none" stroke="black" points="544,-164.5 544,-183.5 690,-183.5 690,-164.5 544,-164.5"/>
<text text-anchor="middle" x="617" y="-171.5" font-family="Helvetica,sans-Serif" font-size="10.00">prolog.terms.ObjectStack.pop</text>
</a>
</g>
</g>
<!-- Node1&#45;&gt;Node13 -->
<g id="edge34" class="edge"><title>Node1&#45;&gt;Node13</title>
<path fill="none" stroke="midnightblue" d="M146.254,-154.933C246.665,-159.009 427.932,-166.366 533.521,-170.652"/>
<polygon fill="midnightblue" stroke="midnightblue" points="533.678,-174.161 543.812,-171.07 533.962,-167.167 533.678,-174.161"/>
</g>
<!-- Node20 -->
<g id="node20" class="node"><title>Node20</title>
<g id="a_node20"><a xlink:href="../../d6/dc4/classprolog_1_1terms_1_1Clause_a5e5502c9619429232fcb310406256830.html#a5e5502c9619429232fcb310406256830" target="_top" xlink:title="Extracts the head of a clause (a Term). ">
<polygon fill="none" stroke="black" points="726,-86.5 726,-105.5 870,-105.5 870,-86.5 726,-86.5"/>
<text text-anchor="middle" x="798" y="-93.5" font-family="Helvetica,sans-Serif" font-size="10.00">prolog.terms.Clause.getHead</text>
</a>
</g>
</g>
<!-- Node1&#45;&gt;Node20 -->
<g id="edge32" class="edge"><title>Node1&#45;&gt;Node20</title>
<path fill="none" stroke="midnightblue" d="M81.9848,-142.415C98.3841,-123.575 138.034,-82.2264 182,-67 387.065,4.0184 653.682,-55.8492 755.24,-83.6662"/>
<polygon fill="midnightblue" stroke="midnightblue" points="754.539,-87.1038 765.111,-86.4122 756.415,-80.3599 754.539,-87.1038"/>
</g>
<!-- Node25 -->
<g id="node25" class="node"><title>Node25</title>
<g id="a_node25"><a xlink:href="../../df/d94/classprolog_1_1terms_1_1Unfolder_adb4a243f464b333dfdd915b2929f6b40.html#adb4a243f464b333dfdd915b2929f6b40" target="_top" xlink:title="Checks if this clause is the last one, allowing LCO. ">
<polygon fill="none" stroke="black" points="194.5,-115 194.5,-145 321.5,-145 321.5,-115 194.5,-115"/>
<text text-anchor="start" x="202.5" y="-133" font-family="Helvetica,sans-Serif" font-size="10.00">prolog.terms.Unfolder.not</text>
<text text-anchor="middle" x="258" y="-122" font-family="Helvetica,sans-Serif" font-size="10.00">LastClause</text>
</a>
</g>
</g>
<!-- Node1&#45;&gt;Node25 -->
<g id="edge33" class="edge"><title>Node1&#45;&gt;Node25</title>
<path fill="none" stroke="midnightblue" d="M146.064,-143.337C158.691,-141.819 171.837,-140.238 184.477,-138.719"/>
<polygon fill="midnightblue" stroke="midnightblue" points="184.975,-142.184 194.486,-137.515 184.139,-135.234 184.975,-142.184"/>
</g>
<!-- Node26 -->
<g id="node26" class="node"><title>Node26</title>
<g id="a_node26"><a xlink:href="../../da/d93/classprolog_1_1terms_1_1ObjectStack_a058b4b33eb3234f7d3426058bcbcace0.html#a058b4b33eb3234f7d3426058bcbcace0" target="_top" xlink:title="prolog.terms.ObjectStack.push">
<polygon fill="none" stroke="black" points="182,-76.5 182,-95.5 334,-95.5 334,-76.5 182,-76.5"/>
<text text-anchor="middle" x="258" y="-83.5" font-family="Helvetica,sans-Serif" font-size="10.00">prolog.terms.ObjectStack.push</text>
</a>
</g>
</g>
<!-- Node1&#45;&gt;Node26 -->
<g id="edge35" class="edge"><title>Node1&#45;&gt;Node26</title>
<path fill="none" stroke="midnightblue" d="M93.968,-142.481C115.395,-132.507 150.591,-116.816 182,-106 190.059,-103.225 198.714,-100.6 207.179,-98.221"/>
<polygon fill="midnightblue" stroke="midnightblue" points="208.255,-101.555 216.981,-95.5465 206.412,-94.8023 208.255,-101.555"/>
</g>
<!-- Node27 -->
<g id="node27" class="node"><title>Node27</title>
<g id="a_node27"><a xlink:href="../../d4/d26/classprolog_1_1terms_1_1Prog_a58deb818dfa50ebe37ac32eb2aae9ac9.html#a58deb818dfa50ebe37ac32eb2aae9ac9" target="_top" xlink:title="prolog.terms.Prog.stop">
<polygon fill="none" stroke="black" points="200,-202.5 200,-221.5 316,-221.5 316,-202.5 200,-202.5"/>
<text text-anchor="middle" x="258" y="-209.5" font-family="Helvetica,sans-Serif" font-size="10.00">prolog.terms.Prog.stop</text>
</a>
</g>
</g>
<!-- Node1&#45;&gt;Node27 -->
<g id="edge36" class="edge"><title>Node1&#45;&gt;Node27</title>
<path fill="none" stroke="midnightblue" d="M102.393,-161.568C124.156,-168.877 154.946,-179.163 182,-188 193.358,-191.71 205.702,-195.684 217.035,-199.31"/>
<polygon fill="midnightblue" stroke="midnightblue" points="216.094,-202.683 226.685,-202.391 218.223,-196.015 216.094,-202.683"/>
</g>
<!-- Node28 -->
<g id="node28" class="node"><title>Node28</title>
<g id="a_node28"><a xlink:href="../../df/d94/classprolog_1_1terms_1_1Unfolder_a71545549869608e7a300c7dbd7ed7216.html#a71545549869608e7a300c7dbd7ed7216" target="_top" xlink:title="Stops production of more alternatives by setting the clause enumerator to null. ">
<polygon fill="none" stroke="black" points="192,-0.5 192,-19.5 324,-19.5 324,-0.5 192,-0.5"/>
<text text-anchor="middle" x="258" y="-7.5" font-family="Helvetica,sans-Serif" font-size="10.00">prolog.terms.Unfolder.stop</text>
</a>
</g>
</g>
<!-- Node1&#45;&gt;Node28 -->
<g id="edge38" class="edge"><title>Node1&#45;&gt;Node28</title>
<path fill="none" stroke="midnightblue" d="M80.3041,-142.169C95.2236,-119.68 134.995,-64.1064 182,-34 188.875,-29.5966 196.624,-25.9416 204.465,-22.9255"/>
<polygon fill="midnightblue" stroke="midnightblue" points="205.755,-26.1819 214.022,-19.5559 203.427,-19.5802 205.755,-26.1819"/>
</g>
<!-- Node3 -->
<g id="node3" class="node"><title>Node3</title>
<g id="a_node3"><a xlink:href="../../d6/dc4/classprolog_1_1terms_1_1Clause_ab690dc7c5a2d5b6007fbf559a537d262.html#ab690dc7c5a2d5b6007fbf559a537d262" target="_top" xlink:title="Extracts the body of a clause. ">
<polygon fill="none" stroke="black" points="914,-238.5 914,-257.5 1057,-257.5 1057,-238.5 914,-238.5"/>
<text text-anchor="middle" x="985.5" y="-245.5" font-family="Helvetica,sans-Serif" font-size="10.00">prolog.terms.Clause.getBody</text>
</a>
</g>
</g>
<!-- Node2&#45;&gt;Node3 -->
<g id="edge2" class="edge"><title>Node2&#45;&gt;Node3</title>
<path fill="none" stroke="midnightblue" d="M680.634,-377.325C733.246,-376.248 809.337,-369.467 870,-343 911.356,-324.957 949.585,-287.304 969.699,-265.205"/>
<polygon fill="midnightblue" stroke="midnightblue" points="972.459,-267.368 976.49,-257.57 967.229,-262.716 972.459,-267.368"/>
</g>
<!-- Node5 -->
<g id="node5" class="node"><title>Node5</title>
<g id="a_node5"><a xlink:href="../../d6/dc4/classprolog_1_1terms_1_1Clause_ad1a287e7c18ca6880e5d8f7d97c6acd9.html#ad1a287e7c18ca6880e5d8f7d97c6acd9" target="_top" xlink:title="Creates a copy of the clause with variables standardized apart, i.e. ">
<polygon fill="none" stroke="black" points="731,-428.5 731,-447.5 865,-447.5 865,-428.5 731,-428.5"/>
<text text-anchor="middle" x="798" y="-435.5" font-family="Helvetica,sans-Serif" font-size="10.00">prolog.terms.Clause.ccopy</text>
</a>
</g>
</g>
<!-- Node2&#45;&gt;Node5 -->
<g id="edge4" class="edge"><title>Node2&#45;&gt;Node5</title>
<path fill="none" stroke="midnightblue" d="M660.273,-391.01C680.194,-398.048 704.297,-406.514 726,-414 736.533,-417.633 747.964,-421.521 758.513,-425.087"/>
<polygon fill="midnightblue" stroke="midnightblue" points="757.705,-428.508 768.299,-428.388 759.943,-421.875 757.705,-428.508"/>
</g>
<!-- Node4 -->
<g id="node4" class="node"><title>Node4</title>
<g id="a_node4"><a xlink:href="../../d3/ded/classprolog_1_1terms_1_1Term_ae140fac2c9d066dc897fcfa723060a7a.html#ae140fac2c9d066dc897fcfa723060a7a" target="_top" xlink:title="Dereferences if necessary. ">
<polygon fill="none" stroke="black" points="1113,-162.5 1113,-181.5 1223,-181.5 1223,-162.5 1113,-162.5"/>
<text text-anchor="middle" x="1168" y="-169.5" font-family="Helvetica,sans-Serif" font-size="10.00">prolog.terms.Term.ref</text>
</a>
</g>
</g>
<!-- Node3&#45;&gt;Node4 -->
<g id="edge3" class="edge"><title>Node3&#45;&gt;Node4</title>
<path fill="none" stroke="midnightblue" d="M1022.52,-238.423C1036.03,-234.46 1051.39,-229.5 1065,-224 1091.89,-213.134 1121.26,-197.764 1141.55,-186.553"/>
<polygon fill="midnightblue" stroke="midnightblue" points="1143.43,-189.507 1150.46,-181.574 1140.02,-183.396 1143.43,-189.507"/>
</g>
<!-- Node6 -->
<g id="node6" class="node"><title>Node6</title>
<g id="a_node6"><a xlink:href="../../d6/dc4/classprolog_1_1terms_1_1Clause_a414492a8d9d648788aadfd423ee32fb0.html#a414492a8d9d648788aadfd423ee32fb0" target="_top" xlink:title="Builds a clause given its head and its body. ">
<polygon fill="none" stroke="black" points="916.5,-390.5 916.5,-409.5 1054.5,-409.5 1054.5,-390.5 916.5,-390.5"/>
<text text-anchor="middle" x="985.5" y="-397.5" font-family="Helvetica,sans-Serif" font-size="10.00">prolog.terms.Clause.Clause</text>
</a>
</g>
</g>
<!-- Node5&#45;&gt;Node6 -->
<g id="edge5" class="edge"><title>Node5&#45;&gt;Node6</title>
<path fill="none" stroke="midnightblue" d="M845.809,-428.411C870.84,-423.284 901.841,-416.933 928.182,-411.537"/>
<polygon fill="midnightblue" stroke="midnightblue" points="928.933,-414.956 938.027,-409.52 927.528,-408.098 928.933,-414.956"/>
</g>
<!-- Node7 -->
<g id="node7" class="node"><title>Node7</title>
<g id="a_node7"><a xlink:href="../../d3/ded/classprolog_1_1terms_1_1Term_a01e5a83e648ee3f89415c0142c4220d4.html#a01e5a83e648ee3f89415c0142c4220d4" target="_top" xlink:title="Returns a copy of a term with variables standardized apart (`fresh variables&#39;). ">
<polygon fill="none" stroke="black" points="925.5,-428.5 925.5,-447.5 1045.5,-447.5 1045.5,-428.5 925.5,-428.5"/>
<text text-anchor="middle" x="985.5" y="-435.5" font-family="Helvetica,sans-Serif" font-size="10.00">prolog.terms.Term.copy</text>
</a>
</g>
</g>
<!-- Node5&#45;&gt;Node7 -->
<g id="edge6" class="edge"><title>Node5&#45;&gt;Node7</title>
<path fill="none" stroke="midnightblue" d="M865.184,-438C881.469,-438 898.948,-438 915.368,-438"/>
<polygon fill="midnightblue" stroke="midnightblue" points="915.436,-441.5 925.436,-438 915.436,-434.5 915.436,-441.5"/>
</g>
<!-- Node8 -->
<g id="node8" class="node"><title>Node8</title>
<g id="a_node8"><a xlink:href="../../d3/ded/classprolog_1_1terms_1_1Term_a0a660e6cd55f12e49d328e1b84b478a4.html#a0a660e6cd55f12e49d328e1b84b478a4" target="_top" xlink:title="Defines the reaction to an agent recursing over the structure of a term. ">
<polygon fill="none" stroke="black" points="1101,-428.5 1101,-447.5 1235,-447.5 1235,-428.5 1101,-428.5"/>
<text text-anchor="middle" x="1168" y="-435.5" font-family="Helvetica,sans-Serif" font-size="10.00">prolog.terms.Term.reaction</text>
</a>
</g>
</g>
<!-- Node7&#45;&gt;Node8 -->
<g id="edge7" class="edge"><title>Node7&#45;&gt;Node8</title>
<path fill="none" stroke="midnightblue" d="M1045.6,-438C1059.97,-438 1075.54,-438 1090.58,-438"/>
<polygon fill="midnightblue" stroke="midnightblue" points="1090.89,-441.5 1100.89,-438 1090.89,-434.5 1090.89,-441.5"/>
</g>
<!-- Node9 -->
<g id="node9" class="node"><title>Node9</title>
<g id="a_node9"><a xlink:href="../../d3/ded/classprolog_1_1terms_1_1Term_aa52e271c0f6784dbde9aa4f5f3ab0268.html#aa52e271c0f6784dbde9aa4f5f3ab0268" target="_top" xlink:title="Identity action. ">
<polygon fill="none" stroke="black" points="1271,-428.5 1271,-447.5 1396,-447.5 1396,-428.5 1271,-428.5"/>
<text text-anchor="middle" x="1333.5" y="-435.5" font-family="Helvetica,sans-Serif" font-size="10.00">prolog.terms.Term.action</text>
</a>
</g>
</g>
<!-- Node8&#45;&gt;Node9 -->
<g id="edge8" class="edge"><title>Node8&#45;&gt;Node9</title>
<path fill="none" stroke="midnightblue" d="M1235.03,-438C1243.57,-438 1252.34,-438 1260.96,-438"/>
<polygon fill="midnightblue" stroke="midnightblue" points="1260.98,-441.5 1270.98,-438 1260.98,-434.5 1260.98,-441.5"/>
</g>
<!-- Node11 -->
<g id="node11" class="node"><title>Node11</title>
<g id="a_node11"><a xlink:href="../../d4/d26/classprolog_1_1terms_1_1Prog_a41eac8617a5002806d7137eb36183405.html#a41eac8617a5002806d7137eb36183405" target="_top" xlink:title="prolog.terms.Prog.getTrail">
<polygon fill="none" stroke="black" points="374.5,-240.5 374.5,-259.5 503.5,-259.5 503.5,-240.5 374.5,-240.5"/>
<text text-anchor="middle" x="439" y="-247.5" font-family="Helvetica,sans-Serif" font-size="10.00">prolog.terms.Prog.getTrail</text>
</a>
</g>
</g>
<!-- Node10&#45;&gt;Node11 -->
<g id="edge10" class="edge"><title>Node10&#45;&gt;Node11</title>
<path fill="none" stroke="midnightblue" d="M321.606,-253.901C335.316,-253.442 349.954,-252.951 364.061,-252.478"/>
<polygon fill="midnightblue" stroke="midnightblue" points="364.341,-255.971 374.218,-252.138 364.106,-248.975 364.341,-255.971"/>
</g>
<!-- Node12 -->
<g id="node12" class="node"><title>Node12</title>
<g id="a_node12"><a xlink:href="../../dd/dad/classprolog_1_1terms_1_1Trail_adab6fa04fe8e0da6e1870bd1b37a654b.html#adab6fa04fe8e0da6e1870bd1b37a654b" target="_top" xlink:title="Used to undo bindings after unification, if we intend to leave no side effects. ">
<polygon fill="none" stroke="black" points="376,-202.5 376,-221.5 502,-221.5 502,-202.5 376,-202.5"/>
<text text-anchor="middle" x="439" y="-209.5" font-family="Helvetica,sans-Serif" font-size="10.00">prolog.terms.Trail.unwind</text>
</a>
</g>
</g>
<!-- Node10&#45;&gt;Node12 -->
<g id="edge11" class="edge"><title>Node10&#45;&gt;Node12</title>
<path fill="none" stroke="midnightblue" d="M320.101,-240.981C342.746,-235.414 368.097,-229.183 389.472,-223.929"/>
<polygon fill="midnightblue" stroke="midnightblue" points="390.426,-227.298 399.302,-221.512 388.755,-220.501 390.426,-227.298"/>
</g>
<!-- Node15 -->
<g id="node15" class="node"><title>Node15</title>
<g id="a_node15"><a xlink:href="../../d3/ded/classprolog_1_1terms_1_1Term_a8ea1883429587f5ffa2d7aa6c272039c.html#a8ea1883429587f5ffa2d7aa6c272039c" target="_top" xlink:title="prolog.terms.Term.toClause">
<polygon fill="none" stroke="black" points="370,-328.5 370,-347.5 508,-347.5 508,-328.5 370,-328.5"/>
<text text-anchor="middle" x="439" y="-335.5" font-family="Helvetica,sans-Serif" font-size="10.00">prolog.terms.Term.toClause</text>
</a>
</g>
</g>
<!-- Node10&#45;&gt;Node15 -->
<g id="edge14" class="edge"><title>Node10&#45;&gt;Node15</title>
<path fill="none" stroke="midnightblue" d="M281.97,-271.249C303.849,-285.23 338.086,-305.719 370,-319 375.719,-321.38 381.829,-323.56 387.954,-325.528"/>
<polygon fill="midnightblue" stroke="midnightblue" points="386.95,-328.881 397.536,-328.441 388.987,-322.183 386.95,-328.881"/>
</g>
<!-- Node16 -->
<g id="node16" class="node"><title>Node16</title>
<g id="a_node16"><a xlink:href="../../d6/dc4/classprolog_1_1terms_1_1Clause_a0d8b6d3c8de70326ab416be12688896b.html#a0d8b6d3c8de70326ab416be12688896b" target="_top" xlink:title="prolog.terms.Clause.unfold\l_with_goal">
<polygon fill="none" stroke="black" points="372,-279 372,-309 506,-309 506,-279 372,-279"/>
<text text-anchor="start" x="380" y="-297" font-family="Helvetica,sans-Serif" font-size="10.00">prolog.terms.Clause.unfold</text>
<text text-anchor="middle" x="439" y="-286" font-family="Helvetica,sans-Serif" font-size="10.00">_with_goal</text>
</a>
</g>
</g>
<!-- Node10&#45;&gt;Node16 -->
<g id="edge15" class="edge"><title>Node10&#45;&gt;Node16</title>
<path fill="none" stroke="midnightblue" d="M321.606,-269.291C334.54,-272.036 348.301,-274.958 361.661,-277.794"/>
<polygon fill="midnightblue" stroke="midnightblue" points="361.271,-281.289 371.78,-279.942 362.725,-274.442 361.271,-281.289"/>
</g>
<!-- Node12&#45;&gt;Node13 -->
<g id="edge12" class="edge"><title>Node12&#45;&gt;Node13</title>
<path fill="none" stroke="midnightblue" d="M484.412,-202.411C507.951,-197.329 537.057,-191.045 561.905,-185.68"/>
<polygon fill="midnightblue" stroke="midnightblue" points="562.871,-189.052 571.907,-183.52 561.394,-182.209 562.871,-189.052"/>
</g>
<!-- Node14 -->
<g id="node14" class="node"><title>Node14</title>
<g id="a_node14"><a xlink:href="../../d3/ded/classprolog_1_1terms_1_1Term_ac710eec3650309d160ca04e364804e47.html#ac710eec3650309d160ca04e364804e47" target="_top" xlink:title="prolog.terms.Term.undo">
<polygon fill="none" stroke="black" points="557,-202.5 557,-221.5 677,-221.5 677,-202.5 557,-202.5"/>
<text text-anchor="middle" x="617" y="-209.5" font-family="Helvetica,sans-Serif" font-size="10.00">prolog.terms.Term.undo</text>
</a>
</g>
</g>
<!-- Node12&#45;&gt;Node14 -->
<g id="edge13" class="edge"><title>Node12&#45;&gt;Node14</title>
<path fill="none" stroke="midnightblue" d="M502.051,-212C516.525,-212 532.028,-212 546.79,-212"/>
<polygon fill="midnightblue" stroke="midnightblue" points="546.871,-215.5 556.87,-212 546.87,-208.5 546.871,-215.5"/>
</g>
<!-- Node17 -->
<g id="node17" class="node"><title>Node17</title>
<g id="a_node17"><a xlink:href="../../d6/dc4/classprolog_1_1terms_1_1Clause_a9c5f957d0240113f4328ebbc73d3b31d.html#a9c5f957d0240113f4328ebbc73d3b31d" target="_top" xlink:title="Algebraic composition operation of 2 Clauses, doing the basic resolution step Prolog is based on...">
<polygon fill="none" stroke="black" points="550,-254.5 550,-273.5 684,-273.5 684,-254.5 550,-254.5"/>
<text text-anchor="middle" x="617" y="-261.5" font-family="Helvetica,sans-Serif" font-size="10.00">prolog.terms.Clause.unfold</text>
</a>
</g>
</g>
<!-- Node16&#45;&gt;Node17 -->
<g id="edge16" class="edge"><title>Node16&#45;&gt;Node17</title>
<path fill="none" stroke="midnightblue" d="M506.037,-282.744C520.54,-280.272 535.893,-277.655 550.38,-275.185"/>
<polygon fill="midnightblue" stroke="midnightblue" points="550.98,-278.634 560.249,-273.503 549.803,-271.733 550.98,-278.634"/>
</g>
<!-- Node17&#45;&gt;Node3 -->
<g id="edge21" class="edge"><title>Node17&#45;&gt;Node3</title>
<path fill="none" stroke="midnightblue" d="M684.37,-261.103C745.951,-258.414 837.754,-254.406 903.601,-251.532"/>
<polygon fill="midnightblue" stroke="midnightblue" points="904.1,-255.013 913.938,-251.08 903.795,-248.02 904.1,-255.013"/>
</g>
<!-- Node17&#45;&gt;Node5 -->
<g id="edge19" class="edge"><title>Node17&#45;&gt;Node5</title>
<path fill="none" stroke="midnightblue" d="M626.974,-273.882C641.169,-289.745 669.315,-322.144 690,-352 708.147,-378.192 701.331,-393.832 726,-414 731.024,-418.108 736.786,-421.525 742.806,-424.367"/>
<polygon fill="midnightblue" stroke="midnightblue" points="741.835,-427.754 752.412,-428.373 744.53,-421.293 741.835,-427.754"/>
</g>
<!-- Node17&#45;&gt;Node6 -->
<g id="edge20" class="edge"><title>Node17&#45;&gt;Node6</title>
<path fill="none" stroke="midnightblue" d="M628.098,-273.687C646.189,-290.479 685.987,-324.925 726,-343 783.543,-368.994 853.78,-383.504 906.509,-391.371"/>
<polygon fill="midnightblue" stroke="midnightblue" points="906.081,-394.845 916.478,-392.81 907.081,-387.917 906.081,-394.845"/>
</g>
<!-- Node18 -->
<g id="node18" class="node"><title>Node18</title>
<g id="a_node18"><a xlink:href="../../d6/dc4/classprolog_1_1terms_1_1Clause_af03de53b32948f858e2cbfeb697eaf4b.html#af03de53b32948f858e2cbfeb697eaf4b" target="_top" xlink:title="Concatenates 2 Conjunctions. ">
<polygon fill="none" stroke="black" points="906,-124.5 906,-143.5 1065,-143.5 1065,-124.5 906,-124.5"/>
<text text-anchor="middle" x="985.5" y="-131.5" font-family="Helvetica,sans-Serif" font-size="10.00">prolog.terms.Clause.appendConj</text>
</a>
</g>
</g>
<!-- Node17&#45;&gt;Node18 -->
<g id="edge17" class="edge"><title>Node17&#45;&gt;Node18</title>
<path fill="none" stroke="midnightblue" d="M651.094,-254.465C664.491,-249.276 679.291,-241.681 690,-231 717.034,-204.038 694.615,-174.743 726,-153 785.72,-111.626 872.93,-114.881 929.202,-122.93"/>
<polygon fill="midnightblue" stroke="midnightblue" points="928.921,-126.427 939.335,-124.479 929.979,-119.508 928.921,-126.427"/>
</g>
<!-- Node19 -->
<g id="node19" class="node"><title>Node19</title>
<g id="a_node19"><a xlink:href="../../d6/dc4/classprolog_1_1terms_1_1Clause_abb4cb737b264c815c48f32a431ec6f5a.html#abb4cb737b264c815c48f32a431ec6f5a" target="_top" xlink:title="Gets the leftmost (first) goal in the body of a clause, i.e. ">
<polygon fill="none" stroke="black" points="728,-200.5 728,-219.5 868,-219.5 868,-200.5 728,-200.5"/>
<text text-anchor="middle" x="798" y="-207.5" font-family="Helvetica,sans-Serif" font-size="10.00">prolog.terms.Clause.getFirst</text>
</a>
</g>
</g>
<!-- Node17&#45;&gt;Node19 -->
<g id="edge22" class="edge"><title>Node17&#45;&gt;Node19</title>
<path fill="none" stroke="midnightblue" d="M649.59,-254.47C679.15,-245.552 723.482,-232.179 755.808,-222.426"/>
<polygon fill="midnightblue" stroke="midnightblue" points="756.863,-225.764 765.426,-219.525 754.841,-219.063 756.863,-225.764"/>
</g>
<!-- Node17&#45;&gt;Node20 -->
<g id="edge24" class="edge"><title>Node17&#45;&gt;Node20</title>
<path fill="none" stroke="midnightblue" d="M653.579,-254.357C666.563,-249.274 680.401,-241.784 690,-231 724.482,-192.261 689.554,-156.898 726,-120 729.886,-116.066 734.439,-112.776 739.329,-110.026"/>
<polygon fill="midnightblue" stroke="midnightblue" points="740.942,-113.134 748.427,-105.635 737.9,-106.83 740.942,-113.134"/>
</g>
<!-- Node21 -->
<g id="node21" class="node"><title>Node21</title>
<g id="a_node21"><a xlink:href="../../d6/dc4/classprolog_1_1terms_1_1Clause_a60e4c0d7e8a9b03c5b073f3c2f023011.html#a60e4c0d7e8a9b03c5b073f3c2f023011" target="_top" xlink:title="Gets all but the leftmost goal in the body of a clause, i.e. ">
<polygon fill="none" stroke="black" points="727,-314.5 727,-333.5 869,-333.5 869,-314.5 727,-314.5"/>
<text text-anchor="middle" x="798" y="-321.5" font-family="Helvetica,sans-Serif" font-size="10.00">prolog.terms.Clause.getRest</text>
</a>
</g>
</g>
<!-- Node17&#45;&gt;Node21 -->
<g id="edge26" class="edge"><title>Node17&#45;&gt;Node21</title>
<path fill="none" stroke="midnightblue" d="M641.353,-273.652C663.064,-282.437 696.416,-295.453 726,-305 733.261,-307.343 741.004,-309.628 748.608,-311.755"/>
<polygon fill="midnightblue" stroke="midnightblue" points="747.901,-315.19 758.47,-314.45 749.747,-308.438 747.901,-315.19"/>
</g>
<!-- Node22 -->
<g id="node22" class="node"><title>Node22</title>
<g id="a_node22"><a xlink:href="../../d3/ded/classprolog_1_1terms_1_1Term_a0a9b83bb831ed6ac6dd508c099007ac0.html#a0a9b83bb831ed6ac6dd508c099007ac0" target="_top" xlink:title="Tests if this term unifies with that. ">
<polygon fill="none" stroke="black" points="729.5,-276.5 729.5,-295.5 866.5,-295.5 866.5,-276.5 729.5,-276.5"/>
<text text-anchor="middle" x="798" y="-283.5" font-family="Helvetica,sans-Serif" font-size="10.00">prolog.terms.Term.matches</text>
</a>
</g>
</g>
<!-- Node17&#45;&gt;Node22 -->
<g id="edge28" class="edge"><title>Node17&#45;&gt;Node22</title>
<path fill="none" stroke="midnightblue" d="M684.144,-272.129C695.544,-273.531 707.488,-274.999 719.162,-276.433"/>
<polygon fill="midnightblue" stroke="midnightblue" points="718.979,-279.937 729.332,-277.683 719.833,-272.989 718.979,-279.937"/>
</g>
<!-- Node23 -->
<g id="node23" class="node"><title>Node23</title>
<g id="a_node23"><a xlink:href="../../d3/ded/classprolog_1_1terms_1_1Term_a84d8fb7e1f816d0dbe3c2c56ed28fdb9.html#a84d8fb7e1f816d0dbe3c2c56ed28fdb9" target="_top" xlink:title="Dereference and unify_to. ">
<polygon fill="none" stroke="black" points="738,-162.5 738,-181.5 858,-181.5 858,-162.5 738,-162.5"/>
<text text-anchor="middle" x="798" y="-169.5" font-family="Helvetica,sans-Serif" font-size="10.00">prolog.terms.Term.unify</text>
</a>
</g>
</g>
<!-- Node17&#45;&gt;Node23 -->
<g id="edge29" class="edge"><title>Node17&#45;&gt;Node23</title>
<path fill="none" stroke="midnightblue" d="M645.766,-254.369C659.776,-248.765 676.594,-240.854 690,-231 709.271,-216.834 705.606,-203.496 726,-191 729.55,-188.825 733.348,-186.896 737.273,-185.185"/>
<polygon fill="midnightblue" stroke="midnightblue" points="738.542,-188.447 746.607,-181.577 736.018,-181.918 738.542,-188.447"/>
</g>
<!-- Node18&#45;&gt;Node4 -->
<g id="edge18" class="edge"><title>Node18&#45;&gt;Node4</title>
<path fill="none" stroke="midnightblue" d="M1032.05,-143.589C1056.3,-148.694 1086.3,-155.011 1111.86,-160.392"/>
<polygon fill="midnightblue" stroke="midnightblue" points="1111.27,-163.845 1121.78,-162.48 1112.72,-156.995 1111.27,-163.845"/>
</g>
<!-- Node19&#45;&gt;Node3 -->
<g id="edge23" class="edge"><title>Node19&#45;&gt;Node3</title>
<path fill="none" stroke="midnightblue" d="M845.809,-219.589C870.84,-224.716 901.841,-231.067 928.182,-236.463"/>
<polygon fill="midnightblue" stroke="midnightblue" points="927.528,-239.902 938.027,-238.48 928.933,-233.044 927.528,-239.902"/>
</g>
<!-- Node20&#45;&gt;Node4 -->
<g id="edge25" class="edge"><title>Node20&#45;&gt;Node4</title>
<path fill="none" stroke="midnightblue" d="M870.23,-92.767C924.679,-92.2694 1001.01,-95.8738 1065,-115 1095.17,-124.018 1126.25,-143.057 1146.05,-156.648"/>
<polygon fill="midnightblue" stroke="midnightblue" points="1144.12,-159.566 1154.31,-162.454 1148.14,-153.84 1144.12,-159.566"/>
</g>
<!-- Node21&#45;&gt;Node3 -->
<g id="edge27" class="edge"><title>Node21&#45;&gt;Node3</title>
<path fill="none" stroke="midnightblue" d="M840.368,-314.427C850.201,-311.742 860.572,-308.567 870,-305 901.62,-293.037 936.128,-275.143 958.905,-262.603"/>
<polygon fill="midnightblue" stroke="midnightblue" points="960.873,-265.514 967.906,-257.59 957.467,-259.398 960.873,-265.514"/>
</g>
<!-- Node23&#45;&gt;Node4 -->
<g id="edge30" class="edge"><title>Node23&#45;&gt;Node4</title>
<path fill="none" stroke="midnightblue" d="M842.498,-181.512C861.839,-185.277 884.951,-189.146 906,-191 976.394,-197.201 994.633,-197.498 1065,-191 1081.48,-189.478 1099.27,-186.602 1115.3,-183.539"/>
<polygon fill="midnightblue" stroke="midnightblue" points="1116.43,-186.885 1125.56,-181.511 1115.07,-180.017 1116.43,-186.885"/>
</g>
<!-- Node24 -->
<g id="node24" class="node"><title>Node24</title>
<g id="a_node24"><a xlink:href="../../d3/ded/classprolog_1_1terms_1_1Term_a866b2cca50e77e99b560578b2fa3a91a.html#a866b2cca50e77e99b560578b2fa3a91a" target="_top" xlink:title="Unify dereferenced. ">
<polygon fill="none" stroke="black" points="918.5,-162.5 918.5,-181.5 1052.5,-181.5 1052.5,-162.5 918.5,-162.5"/>
<text text-anchor="middle" x="985.5" y="-169.5" font-family="Helvetica,sans-Serif" font-size="10.00">prolog.terms.Term.unify_to</text>
</a>
</g>
</g>
<!-- Node23&#45;&gt;Node24 -->
<g id="edge31" class="edge"><title>Node23&#45;&gt;Node24</title>
<path fill="none" stroke="midnightblue" d="M858.203,-172C874.096,-172 891.508,-172 908.187,-172"/>
<polygon fill="midnightblue" stroke="midnightblue" points="908.458,-175.5 918.458,-172 908.458,-168.5 908.458,-175.5"/>
</g>
<!-- Node27&#45;&gt;Node12 -->
<g id="edge37" class="edge"><title>Node27&#45;&gt;Node12</title>
<path fill="none" stroke="midnightblue" d="M316.129,-212C331.889,-212 349.196,-212 365.694,-212"/>
<polygon fill="midnightblue" stroke="midnightblue" points="365.84,-215.5 375.84,-212 365.84,-208.5 365.84,-215.5"/>
</g>
</g>
</svg>
        <g id="navigator" transform="translate(0 0)" fill="#404254">
                <rect fill="#f2f5e9" fill-opacity="0.5" stroke="#606060" stroke-width=".5" x="0" y="0" width="60" height="60"/>
                <use id="zoomplus" xlink:href="#zoomPlus" x="17" y="9" onmousedown="handleZoom(evt,'in')"/>
                <use id="zoomminus" xlink:href="#zoomMin" x="42" y="9" onmousedown="handleZoom(evt,'out')"/>
                <use id="reset" xlink:href="#resetDef" x="30" y="36" onmousedown="handleReset()"/>
                <g id="arrowUp" xlink:href="#dirArrow" transform="translate(30 24)" onmousedown="handlePan(0,-1)">
                  <use xlink:href="#rim" fill="#404040">
                        <set attributeName="fill" to="#808080" begin="arrowUp.mouseover" end="arrowUp.mouseout"/>
                  </use>
                  <path fill="none" stroke="white" stroke-width="1.5" d="M0,-3.0v7 M-2.5,-0.5L0,-3.0L2.5,-0.5"/>
                </g>
                <g id="arrowRight" xlink:href="#dirArrow" transform="rotate(90) translate(36 -43)" onmousedown="handlePan(1,0)">
                  <use xlink:href="#rim" fill="#404040">
                        <set attributeName="fill" to="#808080" begin="arrowRight.mouseover" end="arrowRight.mouseout"/>
                  </use>
                  <path fill="none" stroke="white" stroke-width="1.5" d="M0,-3.0v7 M-2.5,-0.5L0,-3.0L2.5,-0.5"/>
                </g>
                <g id="arrowDown" xlink:href="#dirArrow" transform="rotate(180) translate(-30 -48)" onmousedown="handlePan(0,1)">
                  <use xlink:href="#rim" fill="#404040">
                        <set attributeName="fill" to="#808080" begin="arrowDown.mouseover" end="arrowDown.mouseout"/>
                  </use>
                  <path fill="none" stroke="white" stroke-width="1.5" d="M0,-3.0v7 M-2.5,-0.5L0,-3.0L2.5,-0.5"/>
                </g>
                <g id="arrowLeft" xlink:href="#dirArrow" transform="rotate(270) translate(-36 17)" onmousedown="handlePan(-1,0)">
                  <use xlink:href="#rim" fill="#404040">
                        <set attributeName="fill" to="#808080" begin="arrowLeft.mouseover" end="arrowLeft.mouseout"/>
                  </use>
                  <path fill="none" stroke="white" stroke-width="1.5" d="M0,-3.0v7 M-2.5,-0.5L0,-3.0L2.5,-0.5"/>
                </g>
        </g>
        <svg viewBox="0 0 15 15" width="100%" height="30px" preserveAspectRatio="xMaxYMin meet">
         <g id="arrow_out" transform="scale(0.3 0.3)">
          <a xlink:href="classprolog_1_1terms_1_1Prog_ac5d988b907a2843fcfcba4d1fd1e0deb_ac5d988b907a2843fcfcba4d1fd1e0deb_cgraph_org.svg" target="_base">
           <rect id="button" ry="5" rx="5" y="6" x="6" height="38" width="38"
                fill="#f2f5e9" fill-opacity="0.5" stroke="#606060" stroke-width="1.0"/>
           <path id="arrow"
             d="M 11.500037,31.436501 C 11.940474,20.09759 22.043105,11.32322 32.158766,21.979434 L 37.068811,17.246167 C 37.068811,17.246167 37.088388,32 37.088388,32 L 22.160133,31.978069 C 22.160133,31.978069 26.997745,27.140456 26.997745,27.140456 C 18.528582,18.264221 13.291696,25.230495 11.500037,31.436501 z"
             style="fill:#404040;"/>
          </a>
         </g>
        </svg>
</svg>
