<?xml version="1.0" encoding="UTF-8" standalone="no"?>
<!DOCTYPE svg PUBLIC "-//W3C//DTD SVG 1.1//EN"
 "http://www.w3.org/Graphics/SVG/1.1/DTD/svg11.dtd">
<!-- Generated by graphviz version 2.38.0 (20140413.2041)
 -->
<!-- Title: prolog.terms.Prog.getElement Pages: 1 -->
<!--zoomable 211 -->
<svg id="main" version="1.1" xmlns="http://www.w3.org/2000/svg" xmlns:xlink="http://www.w3.org/1999/xlink" xml:space="preserve" onload="init(evt)">
<style type="text/css"><![CDATA[
.edge:hover path { stroke: red; }
.edge:hover polygon { stroke: red; fill: red; }
]]></style>
<script type="text/javascript"><![CDATA[
var edges = document.getElementsByTagName('g');
if (edges && edges.length) {
  for (var i=0;i<edges.length;i++) {
    if (edges[i].id.substr(0,4)=='edge') {
      edges[i].setAttribute('class','edge');
    }
  }
}
]]></script>
        <defs>
                <circle id="rim" cx="0" cy="0" r="7"/>
                <circle id="rim2" cx="0" cy="0" r="3.5"/>
                <g id="zoomPlus">
                        <use xlink:href="#rim" fill="#404040">
                                <set attributeName="fill" to="#808080" begin="zoomplus.mouseover" end="zoomplus.mouseout"/>
                        </use>
                        <path d="M-4,0h8M0,-4v8" fill="none" stroke="white" stroke-width="1.5" pointer-events="none"/>
                </g>
                <g id="zoomMin">
                        <use xlink:href="#rim" fill="#404040">
                                <set attributeName="fill" to="#808080" begin="zoomminus.mouseover" end="zoomminus.mouseout"/>
                        </use>
                        <path d="M-4,0h8" fill="none" stroke="white" stroke-width="1.5" pointer-events="none"/>
                </g>
                <g id="dirArrow">
                        <path fill="none" stroke="white" stroke-width="1.5" d="M0,-3.0v7 M-2.5,-0.5L0,-3.0L2.5,-0.5"/>
                </g>
               <g id="resetDef">
                       <use xlink:href="#rim2" fill="#404040">
                               <set attributeName="fill" to="#808080" begin="reset.mouseover" end="reset.mouseout"/>
                       </use>
               </g>
        </defs>

<script type="text/javascript">
var viewWidth = 1058;
var viewHeight = 211;
var sectionId = 'dynsection-1';
</script>
<script xlink:href="../../svgpan.js"/>
<svg id="graph" class="graph">
<g id="viewport">
<title>prolog.terms.Prog.getElement</title>
<!-- Node1 -->
<g id="node1" class="node"><title>Node1</title>
<polygon fill="#bfbfbf" stroke="black" points="0,-85 0,-104 146,-104 146,-85 0,-85"/>
<text text-anchor="middle" x="73" y="-92" font-family="Helvetica,sans-Serif" font-size="10.00">prolog.terms.Prog.getElement</text>
</g>
<!-- Node2 -->
<g id="node2" class="node"><title>Node2</title>
<g id="a_node2"><a xlink:href="../../d4/d26/classprolog_1_1terms_1_1Prog_a696a0c92a1814ecf4f21fb09fbc854a0.html#a696a0c92a1814ecf4f21fb09fbc854a0" target="_top" xlink:title="asks a logic engine to return a solution ">
<polygon fill="none" stroke="black" points="182,-101.5 182,-131.5 295,-131.5 295,-101.5 182,-101.5"/>
<text text-anchor="start" x="190" y="-119.5" font-family="Helvetica,sans-Serif" font-size="10.00">prolog.terms.Prog.ask</text>
<text text-anchor="middle" x="238.5" y="-108.5" font-family="Helvetica,sans-Serif" font-size="10.00">_engine</text>
</a>
</g>
</g>
<!-- Node1&#45;&gt;Node2 -->
<g id="edge1" class="edge"><title>Node1&#45;&gt;Node2</title>
<path fill="none" stroke="midnightblue" d="M154.717,-105.361C163.917,-106.599 173.135,-107.839 181.904,-109.019"/>
<polygon fill="midnightblue" stroke="midnightblue" points="155.14,-101.886 144.763,-104.022 154.206,-108.824 155.14,-101.886"/>
</g>
<!-- Node16 -->
<g id="node16" class="node"><title>Node16</title>
<g id="a_node16"><a xlink:href="../../d4/d26/classprolog_1_1terms_1_1Prog_a45a00a5df54d8c378930f320020b457f.html#a45a00a5df54d8c378930f320020b457f" target="_top" xlink:title="usable for launching on a separate thread ">
<polygon fill="none" stroke="black" points="183.5,-63 183.5,-82 293.5,-82 293.5,-63 183.5,-63"/>
<text text-anchor="middle" x="238.5" y="-70" font-family="Helvetica,sans-Serif" font-size="10.00">prolog.terms.Prog.run</text>
</a>
</g>
</g>
<!-- Node1&#45;&gt;Node16 -->
<g id="edge17" class="edge"><title>Node1&#45;&gt;Node16</title>
<path fill="none" stroke="midnightblue" d="M154.827,-83.6242C164.513,-82.3209 174.216,-81.0153 183.392,-79.7806"/>
<polygon fill="midnightblue" stroke="midnightblue" points="154.206,-80.1761 144.763,-84.9784 155.14,-87.1135 154.206,-80.1761"/>
</g>
<!-- Node3 -->
<g id="node3" class="node"><title>Node3</title>
<g id="a_node3"><a xlink:href="../../d8/d35/classprolog_1_1Init_a34d43d3123bb194902cbcb1c06194cce.html#a34d43d3123bb194902cbcb1c06194cce" target="_top" xlink:title="evalutes a query ">
<polygon fill="none" stroke="black" points="545,-126 545,-145 646,-145 646,-126 545,-126"/>
<text text-anchor="middle" x="595.5" y="-133" font-family="Helvetica,sans-Serif" font-size="10.00">prolog.Init.evalGoal</text>
</a>
</g>
</g>
<!-- Node2&#45;&gt;Node3 -->
<g id="edge2" class="edge"><title>Node2&#45;&gt;Node3</title>
<path fill="none" stroke="midnightblue" d="M305.736,-120.045C375.142,-123.76 482.582,-129.51 544.976,-132.849"/>
<polygon fill="midnightblue" stroke="midnightblue" points="305.532,-116.529 295.359,-119.49 305.158,-123.519 305.532,-116.529"/>
</g>
<!-- Node7 -->
<g id="node7" class="node"><title>Node7</title>
<g id="a_node7"><a xlink:href="../../d4/d26/classprolog_1_1terms_1_1Prog_afb6f86119db8ba133de23f8bfe24ba2e.html#afb6f86119db8ba133de23f8bfe24ba2e" target="_top" xlink:title="Computes a copy of the first solution X of Goal G. ">
<polygon fill="none" stroke="black" points="331,-88 331,-107 480,-107 480,-88 331,-88"/>
<text text-anchor="middle" x="405.5" y="-95" font-family="Helvetica,sans-Serif" font-size="10.00">prolog.terms.Prog.firstSolution</text>
</a>
</g>
</g>
<!-- Node2&#45;&gt;Node7 -->
<g id="edge6" class="edge"><title>Node2&#45;&gt;Node7</title>
<path fill="none" stroke="midnightblue" d="M305.419,-108.909C313.781,-107.946 322.379,-106.956 330.852,-105.981"/>
<polygon fill="midnightblue" stroke="midnightblue" points="304.895,-105.446 295.361,-110.067 305.696,-112.4 304.895,-105.446"/>
</g>
<!-- Node4 -->
<g id="node4" class="node"><title>Node4</title>
<g id="a_node4"><a xlink:href="../../d8/d35/classprolog_1_1Init_a2471811f50fbed4de5df26ee530f1e2e.html#a2471811f50fbed4de5df26ee530f1e2e" target="_top" xlink:title="evaluates and times a Goal querying program P ">
<polygon fill="none" stroke="black" points="734.5,-164 734.5,-183 835.5,-183 835.5,-164 734.5,-164"/>
<text text-anchor="middle" x="785" y="-171" font-family="Helvetica,sans-Serif" font-size="10.00">prolog.Init.timeGoal</text>
</a>
</g>
</g>
<!-- Node3&#45;&gt;Node4 -->
<g id="edge3" class="edge"><title>Node3&#45;&gt;Node4</title>
<path fill="none" stroke="midnightblue" d="M653.784,-147.11C680.451,-152.514 711.781,-158.864 737.026,-163.98"/>
<polygon fill="midnightblue" stroke="midnightblue" points="654.31,-143.645 643.814,-145.089 652.92,-150.506 654.31,-143.645"/>
</g>
<!-- Node5 -->
<g id="node5" class="node"><title>Node5</title>
<g id="a_node5"><a xlink:href="../../d8/d35/classprolog_1_1Init_a0348efff7140aed75f8364f90b7c2b8b.html#a0348efff7140aed75f8364f90b7c2b8b" target="_top" xlink:title="prolog.Init.run_query">
<polygon fill="none" stroke="black" points="920,-183 920,-202 1025,-202 1025,-183 920,-183"/>
<text text-anchor="middle" x="972.5" y="-190" font-family="Helvetica,sans-Serif" font-size="10.00">prolog.Init.run_query</text>
</a>
</g>
</g>
<!-- Node4&#45;&gt;Node5 -->
<g id="edge4" class="edge"><title>Node4&#45;&gt;Node5</title>
<path fill="none" stroke="midnightblue" d="M845.699,-179.615C869.535,-182.056 896.722,-184.841 919.708,-187.195"/>
<polygon fill="midnightblue" stroke="midnightblue" points="846.015,-176.129 835.711,-178.592 845.302,-183.092 846.015,-176.129"/>
</g>
<!-- Node6 -->
<g id="node6" class="node"><title>Node6</title>
<g id="a_node6"><a xlink:href="../../d8/d35/classprolog_1_1Init_a3e8704cf8b2d909fccc79e967dd48171.html#a3e8704cf8b2d909fccc79e967dd48171" target="_top" xlink:title="prolog.Init.standardTop">
<polygon fill="none" stroke="black" points="914.5,-145 914.5,-164 1030.5,-164 1030.5,-145 914.5,-145"/>
<text text-anchor="middle" x="972.5" y="-152" font-family="Helvetica,sans-Serif" font-size="10.00">prolog.Init.standardTop</text>
</a>
</g>
</g>
<!-- Node4&#45;&gt;Node6 -->
<g id="edge5" class="edge"><title>Node4&#45;&gt;Node6</title>
<path fill="none" stroke="midnightblue" d="M845.918,-167.363C867.899,-165.111 892.705,-162.571 914.429,-160.346"/>
<polygon fill="midnightblue" stroke="midnightblue" points="845.302,-163.908 835.711,-168.408 846.015,-170.871 845.302,-163.908"/>
</g>
<!-- Node7&#45;&gt;Node3 -->
<g id="edge13" class="edge"><title>Node7&#45;&gt;Node3</title>
<path fill="none" stroke="midnightblue" d="M463.937,-109.11C490.674,-114.514 522.088,-120.864 547.401,-125.98"/>
<polygon fill="midnightblue" stroke="midnightblue" points="464.436,-105.64 453.94,-107.089 463.049,-112.501 464.436,-105.64"/>
</g>
<!-- Node8 -->
<g id="node8" class="node"><title>Node8</title>
<g id="a_node8"><a xlink:href="../../d8/d35/classprolog_1_1Init_a4a7b9ae1dc4d489e657326f3ed5a4b7e.html#a4a7b9ae1dc4d489e657326f3ed5a4b7e" target="_top" xlink:title="Asks Prolog a query Answer, Goal and returns the first solution of the form &quot;the(Answer)&quot; or the cons...">
<polygon fill="none" stroke="black" points="542.5,-88 542.5,-107 648.5,-107 648.5,-88 542.5,-88"/>
<text text-anchor="middle" x="595.5" y="-95" font-family="Helvetica,sans-Serif" font-size="10.00">prolog.Init.askProlog</text>
</a>
</g>
</g>
<!-- Node7&#45;&gt;Node8 -->
<g id="edge7" class="edge"><title>Node7&#45;&gt;Node8</title>
<path fill="none" stroke="midnightblue" d="M490.583,-97.5C508.236,-97.5 526.361,-97.5 542.43,-97.5"/>
<polygon fill="midnightblue" stroke="midnightblue" points="490.263,-94.0001 480.263,-97.5 490.263,-101 490.263,-94.0001"/>
</g>
<!-- Node13 -->
<g id="node13" class="node"><title>Node13</title>
<g id="a_node13"><a xlink:href="../../da/dd9/classprolog_1_1fluents_1_1DataBase_a6f8041bc2bcb5cdd8a376e81a3dc4dca.html#a6f8041bc2bcb5cdd8a376e81a3dc4dca" target="_top" xlink:title="adds a Clause to the joint Linda and Predicate table ">
<polygon fill="none" stroke="black" points="516,-19.5 516,-49.5 675,-49.5 675,-19.5 516,-19.5"/>
<text text-anchor="start" x="524" y="-37.5" font-family="Helvetica,sans-Serif" font-size="10.00">prolog.fluents.DataBase.process</text>
<text text-anchor="middle" x="595.5" y="-26.5" font-family="Helvetica,sans-Serif" font-size="10.00">Clause</text>
</a>
</g>
</g>
<!-- Node7&#45;&gt;Node13 -->
<g id="edge14" class="edge"><title>Node7&#45;&gt;Node13</title>
<path fill="none" stroke="midnightblue" d="M444.846,-84.6501C475.184,-74.4836 517.609,-60.2666 549.544,-49.565"/>
<polygon fill="midnightblue" stroke="midnightblue" points="443.423,-81.4356 435.053,-87.9317 445.647,-88.0728 443.423,-81.4356"/>
</g>
<!-- Node9 -->
<g id="node9" class="node"><title>Node9</title>
<g id="a_node9"><a xlink:href="../../d8/d35/classprolog_1_1Init_ae5fe9e2dc533d32690edbbec3b1c279b.html#ae5fe9e2dc533d32690edbbec3b1c279b" target="_top" xlink:title="Asks Prolog a query Goal and returns the first solution of the form &quot;the(Answer)&quot; ...">
<polygon fill="none" stroke="black" points="732,-126 732,-145 838,-145 838,-126 732,-126"/>
<text text-anchor="middle" x="785" y="-133" font-family="Helvetica,sans-Serif" font-size="10.00">prolog.Init.askProlog</text>
</a>
</g>
</g>
<!-- Node8&#45;&gt;Node9 -->
<g id="edge8" class="edge"><title>Node8&#45;&gt;Node9</title>
<path fill="none" stroke="midnightblue" d="M653.784,-109.11C680.451,-114.514 711.781,-120.864 737.026,-125.98"/>
<polygon fill="midnightblue" stroke="midnightblue" points="654.31,-105.645 643.814,-107.089 652.92,-112.506 654.31,-105.645"/>
</g>
<!-- Node10 -->
<g id="node10" class="node"><title>Node10</title>
<g id="a_node10"><a xlink:href="../../da/dde/classprolog_1_1Main_aca445add96cb95be654213f0e42d5b76.html#aca445add96cb95be654213f0e42d5b76" target="_top" xlink:title="prolog.Main.init">
<polygon fill="none" stroke="black" points="743.5,-88 743.5,-107 826.5,-107 826.5,-88 743.5,-88"/>
<text text-anchor="middle" x="785" y="-95" font-family="Helvetica,sans-Serif" font-size="10.00">prolog.Main.init</text>
</a>
</g>
</g>
<!-- Node8&#45;&gt;Node10 -->
<g id="edge9" class="edge"><title>Node8&#45;&gt;Node10</title>
<path fill="none" stroke="midnightblue" d="M658.775,-97.5C686.613,-97.5 718.641,-97.5 743.337,-97.5"/>
<polygon fill="midnightblue" stroke="midnightblue" points="658.729,-94.0001 648.729,-97.5 658.729,-101 658.729,-94.0001"/>
</g>
<!-- Node12 -->
<g id="node12" class="node"><title>Node12</title>
<g id="a_node12"><a xlink:href="../../d8/d35/classprolog_1_1Init_a7293b6db1f53eca4730418c54ab07109.html#a7293b6db1f53eca4730418c54ab07109" target="_top" xlink:title="prolog.Init.run">
<polygon fill="none" stroke="black" points="747,-50 747,-69 823,-69 823,-50 747,-50"/>
<text text-anchor="middle" x="785" y="-57" font-family="Helvetica,sans-Serif" font-size="10.00">prolog.Init.run</text>
</a>
</g>
</g>
<!-- Node8&#45;&gt;Node12 -->
<g id="edge11" class="edge"><title>Node8&#45;&gt;Node12</title>
<path fill="none" stroke="midnightblue" d="M653.807,-85.8859C684.014,-79.7639 720.199,-72.4303 746.746,-67.0502"/>
<polygon fill="midnightblue" stroke="midnightblue" points="652.92,-82.4944 643.814,-87.911 654.31,-89.3549 652.92,-82.4944"/>
</g>
<!-- Node11 -->
<g id="node11" class="node"><title>Node11</title>
<g id="a_node11"><a xlink:href="../../da/dde/classprolog_1_1Main_ab0b3345fa72bd3b96c565437b962efa3.html#ab0b3345fa72bd3b96c565437b962efa3" target="_top" xlink:title="prolog.Main.main">
<polygon fill="none" stroke="black" points="927,-69 927,-88 1018,-88 1018,-69 927,-69"/>
<text text-anchor="middle" x="972.5" y="-76" font-family="Helvetica,sans-Serif" font-size="10.00">prolog.Main.main</text>
</a>
</g>
</g>
<!-- Node10&#45;&gt;Node11 -->
<g id="edge10" class="edge"><title>Node10&#45;&gt;Node11</title>
<path fill="none" stroke="midnightblue" d="M836.787,-92.2981C865.023,-89.406 899.832,-85.8407 926.993,-83.0587"/>
<polygon fill="midnightblue" stroke="midnightblue" points="836.3,-88.8296 826.709,-93.3304 837.013,-95.7931 836.3,-88.8296"/>
</g>
<!-- Node12&#45;&gt;Node11 -->
<g id="edge12" class="edge"><title>Node12&#45;&gt;Node11</title>
<path fill="none" stroke="midnightblue" d="M833.321,-64.3469C862.117,-67.2964 898.672,-71.0405 926.949,-73.9368"/>
<polygon fill="midnightblue" stroke="midnightblue" points="833.397,-60.8365 823.093,-63.2993 832.684,-67.8001 833.397,-60.8365"/>
</g>
<!-- Node14 -->
<g id="node14" class="node"><title>Node14</title>
<g id="a_node14"><a xlink:href="../../da/dd9/classprolog_1_1fluents_1_1DataBase_a83885e10b61d6bf129307d9bf50d93de.html#a83885e10b61d6bf129307d9bf50d93de" target="_top" xlink:title="prolog.fluents.DataBase.apply\l_parser">
<polygon fill="none" stroke="black" points="711,-0.5 711,-30.5 859,-30.5 859,-0.5 711,-0.5"/>
<text text-anchor="start" x="719" y="-18.5" font-family="Helvetica,sans-Serif" font-size="10.00">prolog.fluents.DataBase.apply</text>
<text text-anchor="middle" x="785" y="-7.5" font-family="Helvetica,sans-Serif" font-size="10.00">_parser</text>
</a>
</g>
</g>
<!-- Node13&#45;&gt;Node14 -->
<g id="edge15" class="edge"><title>Node13&#45;&gt;Node14</title>
<path fill="none" stroke="midnightblue" d="M685.24,-25.5076C693.828,-24.6374 702.473,-23.7614 710.884,-22.9091"/>
<polygon fill="midnightblue" stroke="midnightblue" points="684.798,-22.0344 675.202,-26.5249 685.504,-28.9988 684.798,-22.0344"/>
</g>
<!-- Node15 -->
<g id="node15" class="node"><title>Node15</title>
<g id="a_node15"><a xlink:href="../../da/dd9/classprolog_1_1fluents_1_1DataBase_af8b26948ded7bba6386b984f463bf166.html#af8b26948ded7bba6386b984f463bf166" target="_top" xlink:title="prolog.fluents.DataBase.stream\lToProg">
<polygon fill="none" stroke="black" points="895,-0.5 895,-30.5 1050,-30.5 1050,-0.5 895,-0.5"/>
<text text-anchor="start" x="903" y="-18.5" font-family="Helvetica,sans-Serif" font-size="10.00">prolog.fluents.DataBase.stream</text>
<text text-anchor="middle" x="972.5" y="-7.5" font-family="Helvetica,sans-Serif" font-size="10.00">ToProg</text>
</a>
</g>
</g>
<!-- Node14&#45;&gt;Node15 -->
<g id="edge16" class="edge"><title>Node14&#45;&gt;Node15</title>
<path fill="none" stroke="midnightblue" d="M869.059,-15.5C877.645,-15.5 886.344,-15.5 894.856,-15.5"/>
<polygon fill="midnightblue" stroke="midnightblue" points="869.048,-12.0001 859.048,-15.5 869.048,-19.0001 869.048,-12.0001"/>
</g>
</g>
</svg>
        <g id="navigator" transform="translate(0 0)" fill="#404254">
                <rect fill="#f2f5e9" fill-opacity="0.5" stroke="#606060" stroke-width=".5" x="0" y="0" width="60" height="60"/>
                <use id="zoomplus" xlink:href="#zoomPlus" x="17" y="9" onmousedown="handleZoom(evt,'in')"/>
                <use id="zoomminus" xlink:href="#zoomMin" x="42" y="9" onmousedown="handleZoom(evt,'out')"/>
                <use id="reset" xlink:href="#resetDef" x="30" y="36" onmousedown="handleReset()"/>
                <g id="arrowUp" xlink:href="#dirArrow" transform="translate(30 24)" onmousedown="handlePan(0,-1)">
                  <use xlink:href="#rim" fill="#404040">
                        <set attributeName="fill" to="#808080" begin="arrowUp.mouseover" end="arrowUp.mouseout"/>
                  </use>
                  <path fill="none" stroke="white" stroke-width="1.5" d="M0,-3.0v7 M-2.5,-0.5L0,-3.0L2.5,-0.5"/>
                </g>
                <g id="arrowRight" xlink:href="#dirArrow" transform="rotate(90) translate(36 -43)" onmousedown="handlePan(1,0)">
                  <use xlink:href="#rim" fill="#404040">
                        <set attributeName="fill" to="#808080" begin="arrowRight.mouseover" end="arrowRight.mouseout"/>
                  </use>
                  <path fill="none" stroke="white" stroke-width="1.5" d="M0,-3.0v7 M-2.5,-0.5L0,-3.0L2.5,-0.5"/>
                </g>
                <g id="arrowDown" xlink:href="#dirArrow" transform="rotate(180) translate(-30 -48)" onmousedown="handlePan(0,1)">
                  <use xlink:href="#rim" fill="#404040">
                        <set attributeName="fill" to="#808080" begin="arrowDown.mouseover" end="arrowDown.mouseout"/>
                  </use>
                  <path fill="none" stroke="white" stroke-width="1.5" d="M0,-3.0v7 M-2.5,-0.5L0,-3.0L2.5,-0.5"/>
                </g>
                <g id="arrowLeft" xlink:href="#dirArrow" transform="rotate(270) translate(-36 17)" onmousedown="handlePan(-1,0)">
                  <use xlink:href="#rim" fill="#404040">
                        <set attributeName="fill" to="#808080" begin="arrowLeft.mouseover" end="arrowLeft.mouseout"/>
                  </use>
                  <path fill="none" stroke="white" stroke-width="1.5" d="M0,-3.0v7 M-2.5,-0.5L0,-3.0L2.5,-0.5"/>
                </g>
        </g>
        <svg viewBox="0 0 15 15" width="100%" height="30px" preserveAspectRatio="xMaxYMin meet">
         <g id="arrow_out" transform="scale(0.3 0.3)">
          <a xlink:href="classprolog_1_1terms_1_1Prog_ac5d988b907a2843fcfcba4d1fd1e0deb_ac5d988b907a2843fcfcba4d1fd1e0deb_icgraph_org.svg" target="_base">
           <rect id="button" ry="5" rx="5" y="6" x="6" height="38" width="38"
                fill="#f2f5e9" fill-opacity="0.5" stroke="#606060" stroke-width="1.0"/>
           <path id="arrow"
             d="M 11.500037,31.436501 C 11.940474,20.09759 22.043105,11.32322 32.158766,21.979434 L 37.068811,17.246167 C 37.068811,17.246167 37.088388,32 37.088388,32 L 22.160133,31.978069 C 22.160133,31.978069 26.997745,27.140456 26.997745,27.140456 C 18.528582,18.264221 13.291696,25.230495 11.500037,31.436501 z"
             style="fill:#404040;"/>
          </a>
         </g>
        </svg>
</svg>
