<?xml version="1.0" encoding="UTF-8" standalone="no"?>
<!DOCTYPE svg PUBLIC "-//W3C//DTD SVG 1.1//EN"
 "http://www.w3.org/Graphics/SVG/1.1/DTD/svg11.dtd">
<!-- Generated by graphviz version 2.38.0 (20140413.2041)
 -->
<!-- Title: prolog.terms.Prog.firstSolution Pages: 1 -->
<svg width="727pt" height="192pt"
 viewBox="0.00 0.00 727.00 191.50" xmlns="http://www.w3.org/2000/svg" xmlns:xlink="http://www.w3.org/1999/xlink">
<g id="graph0" class="graph" transform="scale(1 1) rotate(0) translate(4 187.5)">
<title>prolog.terms.Prog.firstSolution</title>
<!-- Node1 -->
<g id="node1" class="node"><title>Node1</title>
<polygon fill="#bfbfbf" stroke="black" points="0,-50 0,-69 149,-69 149,-50 0,-50"/>
<text text-anchor="middle" x="74.5" y="-57" font-family="Helvetica,sans-Serif" font-size="10.00">prolog.terms.Prog.firstSolution</text>
</g>
<!-- Node2 -->
<g id="node2" class="node"><title>Node2</title>
<g id="a_node2"><a xlink:href="../../d8/d35/classprolog_1_1Init_a4a7b9ae1dc4d489e657326f3ed5a4b7e.html#a4a7b9ae1dc4d489e657326f3ed5a4b7e" target="_top" xlink:title="Asks Prolog a query Answer, Goal and returns the first solution of the form &quot;the(Answer)&quot; or the cons...">
<polygon fill="none" stroke="black" points="211.5,-107 211.5,-126 317.5,-126 317.5,-107 211.5,-107"/>
<text text-anchor="middle" x="264.5" y="-114" font-family="Helvetica,sans-Serif" font-size="10.00">prolog.Init.askProlog</text>
</a>
</g>
</g>
<!-- Node1&#45;&gt;Node2 -->
<g id="edge1" class="edge"><title>Node1&#45;&gt;Node2</title>
<path fill="none" stroke="midnightblue" d="M116.795,-72.0201C151.478,-82.536 200.307,-97.3405 231.93,-106.928"/>
<polygon fill="midnightblue" stroke="midnightblue" points="117.552,-68.5926 106.967,-69.0405 115.521,-75.2915 117.552,-68.5926"/>
</g>
<!-- Node7 -->
<g id="node7" class="node"><title>Node7</title>
<g id="a_node7"><a xlink:href="../../d8/d35/classprolog_1_1Init_a34d43d3123bb194902cbcb1c06194cce.html#a34d43d3123bb194902cbcb1c06194cce" target="_top" xlink:title="evalutes a query ">
<polygon fill="none" stroke="black" points="214,-50 214,-69 315,-69 315,-50 214,-50"/>
<text text-anchor="middle" x="264.5" y="-57" font-family="Helvetica,sans-Serif" font-size="10.00">prolog.Init.evalGoal</text>
</a>
</g>
</g>
<!-- Node1&#45;&gt;Node7 -->
<g id="edge7" class="edge"><title>Node1&#45;&gt;Node7</title>
<path fill="none" stroke="midnightblue" d="M159.271,-59.5C177.963,-59.5 197.201,-59.5 213.981,-59.5"/>
<polygon fill="midnightblue" stroke="midnightblue" points="159.263,-56.0001 149.263,-59.5 159.263,-63.0001 159.263,-56.0001"/>
</g>
<!-- Node11 -->
<g id="node11" class="node"><title>Node11</title>
<g id="a_node11"><a xlink:href="../../da/dd9/classprolog_1_1fluents_1_1DataBase_a6f8041bc2bcb5cdd8a376e81a3dc4dca.html#a6f8041bc2bcb5cdd8a376e81a3dc4dca" target="_top" xlink:title="adds a Clause to the joint Linda and Predicate table ">
<polygon fill="none" stroke="black" points="185,-0.5 185,-30.5 344,-30.5 344,-0.5 185,-0.5"/>
<text text-anchor="start" x="193" y="-18.5" font-family="Helvetica,sans-Serif" font-size="10.00">prolog.fluents.DataBase.process</text>
<text text-anchor="middle" x="264.5" y="-7.5" font-family="Helvetica,sans-Serif" font-size="10.00">Clause</text>
</a>
</g>
</g>
<!-- Node1&#45;&gt;Node11 -->
<g id="edge11" class="edge"><title>Node1&#45;&gt;Node11</title>
<path fill="none" stroke="midnightblue" d="M126.277,-47.616C148.705,-42.3669 175.329,-36.1358 199.13,-30.5654"/>
<polygon fill="midnightblue" stroke="midnightblue" points="125.232,-44.2658 116.293,-49.9527 126.828,-51.0816 125.232,-44.2658"/>
</g>
<!-- Node3 -->
<g id="node3" class="node"><title>Node3</title>
<g id="a_node3"><a xlink:href="../../d8/d35/classprolog_1_1Init_ae5fe9e2dc533d32690edbbec3b1c279b.html#ae5fe9e2dc533d32690edbbec3b1c279b" target="_top" xlink:title="Asks Prolog a query Goal and returns the first solution of the form &quot;the(Answer)&quot; ...">
<polygon fill="none" stroke="black" points="401,-164 401,-183 507,-183 507,-164 401,-164"/>
<text text-anchor="middle" x="454" y="-171" font-family="Helvetica,sans-Serif" font-size="10.00">prolog.Init.askProlog</text>
</a>
</g>
</g>
<!-- Node2&#45;&gt;Node3 -->
<g id="edge2" class="edge"><title>Node2&#45;&gt;Node3</title>
<path fill="none" stroke="midnightblue" d="M302.393,-129.429C324.736,-137.088 353.874,-146.774 380,-154.5 391.051,-157.768 403.131,-161.035 414.226,-163.914"/>
<polygon fill="midnightblue" stroke="midnightblue" points="303.235,-126.018 292.64,-126.067 300.953,-132.635 303.235,-126.018"/>
</g>
<!-- Node4 -->
<g id="node4" class="node"><title>Node4</title>
<g id="a_node4"><a xlink:href="../../da/dde/classprolog_1_1Main_aca445add96cb95be654213f0e42d5b76.html#aca445add96cb95be654213f0e42d5b76" target="_top" xlink:title="prolog.Main.init">
<polygon fill="none" stroke="black" points="412.5,-126 412.5,-145 495.5,-145 495.5,-126 412.5,-126"/>
<text text-anchor="middle" x="454" y="-133" font-family="Helvetica,sans-Serif" font-size="10.00">prolog.Main.init</text>
</a>
</g>
</g>
<!-- Node2&#45;&gt;Node4 -->
<g id="edge3" class="edge"><title>Node2&#45;&gt;Node4</title>
<path fill="none" stroke="midnightblue" d="M327.775,-122.81C355.613,-125.631 387.641,-128.877 412.337,-131.379"/>
<polygon fill="midnightblue" stroke="midnightblue" points="328.031,-119.319 317.729,-121.793 327.325,-126.283 328.031,-119.319"/>
</g>
<!-- Node6 -->
<g id="node6" class="node"><title>Node6</title>
<g id="a_node6"><a xlink:href="../../d8/d35/classprolog_1_1Init_a7293b6db1f53eca4730418c54ab07109.html#a7293b6db1f53eca4730418c54ab07109" target="_top" xlink:title="prolog.Init.run">
<polygon fill="none" stroke="black" points="416,-88 416,-107 492,-107 492,-88 416,-88"/>
<text text-anchor="middle" x="454" y="-95" font-family="Helvetica,sans-Serif" font-size="10.00">prolog.Init.run</text>
</a>
</g>
</g>
<!-- Node2&#45;&gt;Node6 -->
<g id="edge5" class="edge"><title>Node2&#45;&gt;Node6</title>
<path fill="none" stroke="midnightblue" d="M327.838,-110.183C357.021,-107.226 390.796,-103.803 415.9,-101.259"/>
<polygon fill="midnightblue" stroke="midnightblue" points="327.325,-106.717 317.729,-111.207 328.031,-113.681 327.325,-106.717"/>
</g>
<!-- Node5 -->
<g id="node5" class="node"><title>Node5</title>
<g id="a_node5"><a xlink:href="../../da/dde/classprolog_1_1Main_ab0b3345fa72bd3b96c565437b962efa3.html#ab0b3345fa72bd3b96c565437b962efa3" target="_top" xlink:title="prolog.Main.main">
<polygon fill="none" stroke="black" points="596,-126 596,-145 687,-145 687,-126 596,-126"/>
<text text-anchor="middle" x="641.5" y="-133" font-family="Helvetica,sans-Serif" font-size="10.00">prolog.Main.main</text>
</a>
</g>
</g>
<!-- Node4&#45;&gt;Node5 -->
<g id="edge4" class="edge"><title>Node4&#45;&gt;Node5</title>
<path fill="none" stroke="midnightblue" d="M505.787,-135.5C534.023,-135.5 568.832,-135.5 595.993,-135.5"/>
<polygon fill="midnightblue" stroke="midnightblue" points="505.709,-132 495.709,-135.5 505.709,-139 505.709,-132"/>
</g>
<!-- Node6&#45;&gt;Node5 -->
<g id="edge6" class="edge"><title>Node6&#45;&gt;Node5</title>
<path fill="none" stroke="midnightblue" d="M501.943,-107.116C530.797,-113.027 567.548,-120.556 595.949,-126.374"/>
<polygon fill="midnightblue" stroke="midnightblue" points="502.592,-103.677 492.093,-105.099 501.187,-110.534 502.592,-103.677"/>
</g>
<!-- Node8 -->
<g id="node8" class="node"><title>Node8</title>
<g id="a_node8"><a xlink:href="../../d8/d35/classprolog_1_1Init_a2471811f50fbed4de5df26ee530f1e2e.html#a2471811f50fbed4de5df26ee530f1e2e" target="_top" xlink:title="evaluates and times a Goal querying program P ">
<polygon fill="none" stroke="black" points="403.5,-50 403.5,-69 504.5,-69 504.5,-50 403.5,-50"/>
<text text-anchor="middle" x="454" y="-57" font-family="Helvetica,sans-Serif" font-size="10.00">prolog.Init.timeGoal</text>
</a>
</g>
</g>
<!-- Node7&#45;&gt;Node8 -->
<g id="edge8" class="edge"><title>Node7&#45;&gt;Node8</title>
<path fill="none" stroke="midnightblue" d="M325.406,-59.5C350.538,-59.5 379.418,-59.5 403.339,-59.5"/>
<polygon fill="midnightblue" stroke="midnightblue" points="325.254,-56.0001 315.254,-59.5 325.254,-63.0001 325.254,-56.0001"/>
</g>
<!-- Node9 -->
<g id="node9" class="node"><title>Node9</title>
<g id="a_node9"><a xlink:href="../../d8/d35/classprolog_1_1Init_a0348efff7140aed75f8364f90b7c2b8b.html#a0348efff7140aed75f8364f90b7c2b8b" target="_top" xlink:title="prolog.Init.run_query">
<polygon fill="none" stroke="black" points="589,-88 589,-107 694,-107 694,-88 589,-88"/>
<text text-anchor="middle" x="641.5" y="-95" font-family="Helvetica,sans-Serif" font-size="10.00">prolog.Init.run_query</text>
</a>
</g>
</g>
<!-- Node8&#45;&gt;Node9 -->
<g id="edge9" class="edge"><title>Node8&#45;&gt;Node9</title>
<path fill="none" stroke="midnightblue" d="M511.673,-71.1095C538.055,-76.514 569.051,-82.8635 594.027,-87.9799"/>
<polygon fill="midnightblue" stroke="midnightblue" points="512.308,-67.6671 501.809,-69.089 510.904,-74.5247 512.308,-67.6671"/>
</g>
<!-- Node10 -->
<g id="node10" class="node"><title>Node10</title>
<g id="a_node10"><a xlink:href="../../d8/d35/classprolog_1_1Init_a3e8704cf8b2d909fccc79e967dd48171.html#a3e8704cf8b2d909fccc79e967dd48171" target="_top" xlink:title="prolog.Init.standardTop">
<polygon fill="none" stroke="black" points="583.5,-50 583.5,-69 699.5,-69 699.5,-50 583.5,-50"/>
<text text-anchor="middle" x="641.5" y="-57" font-family="Helvetica,sans-Serif" font-size="10.00">prolog.Init.standardTop</text>
</a>
</g>
</g>
<!-- Node8&#45;&gt;Node10 -->
<g id="edge10" class="edge"><title>Node8&#45;&gt;Node10</title>
<path fill="none" stroke="midnightblue" d="M514.918,-59.5C536.899,-59.5 561.705,-59.5 583.429,-59.5"/>
<polygon fill="midnightblue" stroke="midnightblue" points="514.711,-56.0001 504.711,-59.5 514.711,-63.0001 514.711,-56.0001"/>
</g>
<!-- Node12 -->
<g id="node12" class="node"><title>Node12</title>
<g id="a_node12"><a xlink:href="../../da/dd9/classprolog_1_1fluents_1_1DataBase_a83885e10b61d6bf129307d9bf50d93de.html#a83885e10b61d6bf129307d9bf50d93de" target="_top" xlink:title="prolog.fluents.DataBase.apply\l_parser">
<polygon fill="none" stroke="black" points="380,-0.5 380,-30.5 528,-30.5 528,-0.5 380,-0.5"/>
<text text-anchor="start" x="388" y="-18.5" font-family="Helvetica,sans-Serif" font-size="10.00">prolog.fluents.DataBase.apply</text>
<text text-anchor="middle" x="454" y="-7.5" font-family="Helvetica,sans-Serif" font-size="10.00">_parser</text>
</a>
</g>
</g>
<!-- Node11&#45;&gt;Node12 -->
<g id="edge12" class="edge"><title>Node11&#45;&gt;Node12</title>
<path fill="none" stroke="midnightblue" d="M354.24,-15.5C362.828,-15.5 371.473,-15.5 379.884,-15.5"/>
<polygon fill="midnightblue" stroke="midnightblue" points="354.202,-12.0001 344.202,-15.5 354.202,-19.0001 354.202,-12.0001"/>
</g>
<!-- Node13 -->
<g id="node13" class="node"><title>Node13</title>
<g id="a_node13"><a xlink:href="../../da/dd9/classprolog_1_1fluents_1_1DataBase_af8b26948ded7bba6386b984f463bf166.html#af8b26948ded7bba6386b984f463bf166" target="_top" xlink:title="prolog.fluents.DataBase.stream\lToProg">
<polygon fill="none" stroke="black" points="564,-0.5 564,-30.5 719,-30.5 719,-0.5 564,-0.5"/>
<text text-anchor="start" x="572" y="-18.5" font-family="Helvetica,sans-Serif" font-size="10.00">prolog.fluents.DataBase.stream</text>
<text text-anchor="middle" x="641.5" y="-7.5" font-family="Helvetica,sans-Serif" font-size="10.00">ToProg</text>
</a>
</g>
</g>
<!-- Node12&#45;&gt;Node13 -->
<g id="edge13" class="edge"><title>Node12&#45;&gt;Node13</title>
<path fill="none" stroke="midnightblue" d="M538.059,-15.5C546.645,-15.5 555.344,-15.5 563.856,-15.5"/>
<polygon fill="midnightblue" stroke="midnightblue" points="538.048,-12.0001 528.048,-15.5 538.048,-19.0001 538.048,-12.0001"/>
</g>
</g>
</svg>
