<?xml version="1.0" encoding="UTF-8" standalone="no"?>
<!DOCTYPE svg PUBLIC "-//W3C//DTD SVG 1.1//EN"
 "http://www.w3.org/Graphics/SVG/1.1/DTD/svg11.dtd">
<!-- Generated by graphviz version 2.38.0 (20140413.2041)
 -->
<!-- Title: prolog.terms.Prog.run Pages: 1 -->
<!--zoomable 456 -->
<svg id="main" version="1.1" xmlns="http://www.w3.org/2000/svg" xmlns:xlink="http://www.w3.org/1999/xlink" xml:space="preserve" onload="init(evt)">
<style type="text/css"><![CDATA[
.edge:hover path { stroke: red; }
.edge:hover polygon { stroke: red; fill: red; }
]]></style>
<script type="text/javascript"><![CDATA[
var edges = document.getElementsByTagName('g');
if (edges && edges.length) {
  for (var i=0;i<edges.length;i++) {
    if (edges[i].id.substr(0,4)=='edge') {
      edges[i].setAttribute('class','edge');
    }
  }
}
]]></script>
        <defs>
                <circle id="rim" cx="0" cy="0" r="7"/>
                <circle id="rim2" cx="0" cy="0" r="3.5"/>
                <g id="zoomPlus">
                        <use xlink:href="#rim" fill="#404040">
                                <set attributeName="fill" to="#808080" begin="zoomplus.mouseover" end="zoomplus.mouseout"/>
                        </use>
                        <path d="M-4,0h8M0,-4v8" fill="none" stroke="white" stroke-width="1.5" pointer-events="none"/>
                </g>
                <g id="zoomMin">
                        <use xlink:href="#rim" fill="#404040">
                                <set attributeName="fill" to="#808080" begin="zoomminus.mouseover" end="zoomminus.mouseout"/>
                        </use>
                        <path d="M-4,0h8" fill="none" stroke="white" stroke-width="1.5" pointer-events="none"/>
                </g>
                <g id="dirArrow">
                        <path fill="none" stroke="white" stroke-width="1.5" d="M0,-3.0v7 M-2.5,-0.5L0,-3.0L2.5,-0.5"/>
                </g>
               <g id="resetDef">
                       <use xlink:href="#rim2" fill="#404040">
                               <set attributeName="fill" to="#808080" begin="reset.mouseover" end="reset.mouseout"/>
                       </use>
               </g>
        </defs>

<script type="text/javascript">
var viewWidth = 1550;
var viewHeight = 456;
var sectionId = 'dynsection-0';
</script>
<script xlink:href="../../svgpan.js"/>
<svg id="graph" class="graph">
<g id="viewport">
<title>prolog.terms.Prog.run</title>
<!-- Node1 -->
<g id="node1" class="node"><title>Node1</title>
<polygon fill="#bfbfbf" stroke="black" points="0,-142.5 0,-161.5 110,-161.5 110,-142.5 0,-142.5"/>
<text text-anchor="middle" x="55" y="-149.5" font-family="Helvetica,sans-Serif" font-size="10.00">prolog.terms.Prog.run</text>
</g>
<!-- Node2 -->
<g id="node2" class="node"><title>Node2</title>
<g id="a_node2"><a xlink:href="../../d4/d26/classprolog_1_1terms_1_1Prog_ac5d988b907a2843fcfcba4d1fd1e0deb.html#ac5d988b907a2843fcfcba4d1fd1e0deb" target="_top" xlink:title="Here is where actual LD&#45;resolution computation happens. ">
<polygon fill="none" stroke="black" points="146,-142.5 146,-161.5 292,-161.5 292,-142.5 146,-142.5"/>
<text text-anchor="middle" x="219" y="-149.5" font-family="Helvetica,sans-Serif" font-size="10.00">prolog.terms.Prog.getElement</text>
</a>
</g>
</g>
<!-- Node1&#45;&gt;Node2 -->
<g id="edge1" class="edge"><title>Node1&#45;&gt;Node2</title>
<path fill="none" stroke="midnightblue" d="M110.394,-152C118.587,-152 127.187,-152 135.806,-152"/>
<polygon fill="midnightblue" stroke="midnightblue" points="135.909,-155.5 145.909,-152 135.909,-148.5 135.909,-155.5"/>
</g>
<!-- Node3 -->
<g id="node3" class="node"><title>Node3</title>
<g id="a_node3"><a xlink:href="../../df/d94/classprolog_1_1terms_1_1Unfolder_aecb7a5d616b5375d40405f66c9401637.html#aecb7a5d616b5375d40405f66c9401637" target="_top" xlink:title="Extracts an answer at the end of an AND&#45;derivation. ">
<polygon fill="none" stroke="black" points="699.5,-361 699.5,-391 826.5,-391 826.5,-361 699.5,-361"/>
<text text-anchor="start" x="707.5" y="-379" font-family="Helvetica,sans-Serif" font-size="10.00">prolog.terms.Unfolder.get</text>
<text text-anchor="middle" x="763" y="-368" font-family="Helvetica,sans-Serif" font-size="10.00">Answer</text>
</a>
</g>
</g>
<!-- Node2&#45;&gt;Node3 -->
<g id="edge2" class="edge"><title>Node2&#45;&gt;Node3</title>
<path fill="none" stroke="midnightblue" d="M225.805,-161.813C240.237,-185.441 280.054,-246.117 328,-281 436.061,-359.619 596.639,-375.335 689.155,-377.282"/>
<polygon fill="midnightblue" stroke="midnightblue" points="689.211,-380.783 699.267,-377.445 689.324,-373.784 689.211,-380.783"/>
</g>
<!-- Node11 -->
<g id="node11" class="node"><title>Node11</title>
<g id="a_node11"><a xlink:href="../../df/d94/classprolog_1_1terms_1_1Unfolder_a261a28665ab541b974afb636c3fec84b.html#a261a28665ab541b974afb636c3fec84b" target="_top" xlink:title="Returns a new clause by unfolding the goal with a matching clause in the database, or null if no such clause exists. ">
<polygon fill="none" stroke="black" points="340.5,-241 340.5,-271 467.5,-271 467.5,-241 340.5,-241"/>
<text text-anchor="start" x="348.5" y="-259" font-family="Helvetica,sans-Serif" font-size="10.00">prolog.terms.Unfolder.get</text>
<text text-anchor="middle" x="404" y="-248" font-family="Helvetica,sans-Serif" font-size="10.00">Element</text>
</a>
</g>
</g>
<!-- Node2&#45;&gt;Node11 -->
<g id="edge10" class="edge"><title>Node2&#45;&gt;Node11</title>
<path fill="none" stroke="midnightblue" d="M230.598,-161.519C249.139,-177.75 289.194,-210.962 328,-231 332.272,-233.206 336.78,-235.276 341.378,-237.207"/>
<polygon fill="midnightblue" stroke="midnightblue" points="340.311,-240.549 350.897,-240.972 342.886,-234.039 340.311,-240.549"/>
</g>
<!-- Node14 -->
<g id="node14" class="node"><title>Node14</title>
<g id="a_node14"><a xlink:href="../../da/d93/classprolog_1_1terms_1_1ObjectStack_aaa01178e10f20beab62b1410ba720606.html#aaa01178e10f20beab62b1410ba720606" target="_top" xlink:title="prolog.terms.ObjectStack.pop">
<polygon fill="none" stroke="black" points="690,-164.5 690,-183.5 836,-183.5 836,-164.5 690,-164.5"/>
<text text-anchor="middle" x="763" y="-171.5" font-family="Helvetica,sans-Serif" font-size="10.00">prolog.terms.ObjectStack.pop</text>
</a>
</g>
</g>
<!-- Node2&#45;&gt;Node14 -->
<g id="edge35" class="edge"><title>Node2&#45;&gt;Node14</title>
<path fill="none" stroke="midnightblue" d="M292.254,-154.933C392.665,-159.009 573.932,-166.366 679.521,-170.652"/>
<polygon fill="midnightblue" stroke="midnightblue" points="679.678,-174.161 689.812,-171.07 679.962,-167.167 679.678,-174.161"/>
</g>
<!-- Node21 -->
<g id="node21" class="node"><title>Node21</title>
<g id="a_node21"><a xlink:href="../../d6/dc4/classprolog_1_1terms_1_1Clause_a5e5502c9619429232fcb310406256830.html#a5e5502c9619429232fcb310406256830" target="_top" xlink:title="Extracts the head of a clause (a Term). ">
<polygon fill="none" stroke="black" points="872,-86.5 872,-105.5 1016,-105.5 1016,-86.5 872,-86.5"/>
<text text-anchor="middle" x="944" y="-93.5" font-family="Helvetica,sans-Serif" font-size="10.00">prolog.terms.Clause.getHead</text>
</a>
</g>
</g>
<!-- Node2&#45;&gt;Node21 -->
<g id="edge33" class="edge"><title>Node2&#45;&gt;Node21</title>
<path fill="none" stroke="midnightblue" d="M227.985,-142.415C244.384,-123.575 284.034,-82.2264 328,-67 533.065,4.0184 799.682,-55.8492 901.24,-83.6662"/>
<polygon fill="midnightblue" stroke="midnightblue" points="900.539,-87.1038 911.111,-86.4122 902.415,-80.3599 900.539,-87.1038"/>
</g>
<!-- Node26 -->
<g id="node26" class="node"><title>Node26</title>
<g id="a_node26"><a xlink:href="../../df/d94/classprolog_1_1terms_1_1Unfolder_adb4a243f464b333dfdd915b2929f6b40.html#adb4a243f464b333dfdd915b2929f6b40" target="_top" xlink:title="Checks if this clause is the last one, allowing LCO. ">
<polygon fill="none" stroke="black" points="340.5,-115 340.5,-145 467.5,-145 467.5,-115 340.5,-115"/>
<text text-anchor="start" x="348.5" y="-133" font-family="Helvetica,sans-Serif" font-size="10.00">prolog.terms.Unfolder.not</text>
<text text-anchor="middle" x="404" y="-122" font-family="Helvetica,sans-Serif" font-size="10.00">LastClause</text>
</a>
</g>
</g>
<!-- Node2&#45;&gt;Node26 -->
<g id="edge34" class="edge"><title>Node2&#45;&gt;Node26</title>
<path fill="none" stroke="midnightblue" d="M292.064,-143.337C304.691,-141.819 317.837,-140.238 330.477,-138.719"/>
<polygon fill="midnightblue" stroke="midnightblue" points="330.975,-142.184 340.486,-137.515 330.139,-135.234 330.975,-142.184"/>
</g>
<!-- Node27 -->
<g id="node27" class="node"><title>Node27</title>
<g id="a_node27"><a xlink:href="../../da/d93/classprolog_1_1terms_1_1ObjectStack_a058b4b33eb3234f7d3426058bcbcace0.html#a058b4b33eb3234f7d3426058bcbcace0" target="_top" xlink:title="prolog.terms.ObjectStack.push">
<polygon fill="none" stroke="black" points="328,-76.5 328,-95.5 480,-95.5 480,-76.5 328,-76.5"/>
<text text-anchor="middle" x="404" y="-83.5" font-family="Helvetica,sans-Serif" font-size="10.00">prolog.terms.ObjectStack.push</text>
</a>
</g>
</g>
<!-- Node2&#45;&gt;Node27 -->
<g id="edge36" class="edge"><title>Node2&#45;&gt;Node27</title>
<path fill="none" stroke="midnightblue" d="M239.968,-142.481C261.395,-132.507 296.591,-116.816 328,-106 336.059,-103.225 344.714,-100.6 353.179,-98.221"/>
<polygon fill="midnightblue" stroke="midnightblue" points="354.255,-101.555 362.981,-95.5465 352.412,-94.8023 354.255,-101.555"/>
</g>
<!-- Node28 -->
<g id="node28" class="node"><title>Node28</title>
<g id="a_node28"><a xlink:href="../../d4/d26/classprolog_1_1terms_1_1Prog_a58deb818dfa50ebe37ac32eb2aae9ac9.html#a58deb818dfa50ebe37ac32eb2aae9ac9" target="_top" xlink:title="prolog.terms.Prog.stop">
<polygon fill="none" stroke="black" points="346,-202.5 346,-221.5 462,-221.5 462,-202.5 346,-202.5"/>
<text text-anchor="middle" x="404" y="-209.5" font-family="Helvetica,sans-Serif" font-size="10.00">prolog.terms.Prog.stop</text>
</a>
</g>
</g>
<!-- Node2&#45;&gt;Node28 -->
<g id="edge37" class="edge"><title>Node2&#45;&gt;Node28</title>
<path fill="none" stroke="midnightblue" d="M248.393,-161.568C270.156,-168.877 300.946,-179.163 328,-188 339.358,-191.71 351.702,-195.684 363.035,-199.31"/>
<polygon fill="midnightblue" stroke="midnightblue" points="362.094,-202.683 372.685,-202.391 364.223,-196.015 362.094,-202.683"/>
</g>
<!-- Node29 -->
<g id="node29" class="node"><title>Node29</title>
<g id="a_node29"><a xlink:href="../../df/d94/classprolog_1_1terms_1_1Unfolder_a71545549869608e7a300c7dbd7ed7216.html#a71545549869608e7a300c7dbd7ed7216" target="_top" xlink:title="Stops production of more alternatives by setting the clause enumerator to null. ">
<polygon fill="none" stroke="black" points="338,-0.5 338,-19.5 470,-19.5 470,-0.5 338,-0.5"/>
<text text-anchor="middle" x="404" y="-7.5" font-family="Helvetica,sans-Serif" font-size="10.00">prolog.terms.Unfolder.stop</text>
</a>
</g>
</g>
<!-- Node2&#45;&gt;Node29 -->
<g id="edge39" class="edge"><title>Node2&#45;&gt;Node29</title>
<path fill="none" stroke="midnightblue" d="M226.304,-142.169C241.224,-119.68 280.995,-64.1064 328,-34 334.875,-29.5966 342.624,-25.9416 350.465,-22.9255"/>
<polygon fill="midnightblue" stroke="midnightblue" points="351.755,-26.1819 360.022,-19.5559 349.427,-19.5802 351.755,-26.1819"/>
</g>
<!-- Node4 -->
<g id="node4" class="node"><title>Node4</title>
<g id="a_node4"><a xlink:href="../../d6/dc4/classprolog_1_1terms_1_1Clause_ab690dc7c5a2d5b6007fbf559a537d262.html#ab690dc7c5a2d5b6007fbf559a537d262" target="_top" xlink:title="Extracts the body of a clause. ">
<polygon fill="none" stroke="black" points="1060,-238.5 1060,-257.5 1203,-257.5 1203,-238.5 1060,-238.5"/>
<text text-anchor="middle" x="1131.5" y="-245.5" font-family="Helvetica,sans-Serif" font-size="10.00">prolog.terms.Clause.getBody</text>
</a>
</g>
</g>
<!-- Node3&#45;&gt;Node4 -->
<g id="edge3" class="edge"><title>Node3&#45;&gt;Node4</title>
<path fill="none" stroke="midnightblue" d="M826.634,-377.325C879.246,-376.248 955.337,-369.467 1016,-343 1057.36,-324.957 1095.59,-287.304 1115.7,-265.205"/>
<polygon fill="midnightblue" stroke="midnightblue" points="1118.46,-267.368 1122.49,-257.57 1113.23,-262.716 1118.46,-267.368"/>
</g>
<!-- Node6 -->
<g id="node6" class="node"><title>Node6</title>
<g id="a_node6"><a xlink:href="../../d6/dc4/classprolog_1_1terms_1_1Clause_ad1a287e7c18ca6880e5d8f7d97c6acd9.html#ad1a287e7c18ca6880e5d8f7d97c6acd9" target="_top" xlink:title="Creates a copy of the clause with variables standardized apart, i.e. ">
<polygon fill="none" stroke="black" points="877,-428.5 877,-447.5 1011,-447.5 1011,-428.5 877,-428.5"/>
<text text-anchor="middle" x="944" y="-435.5" font-family="Helvetica,sans-Serif" font-size="10.00">prolog.terms.Clause.ccopy</text>
</a>
</g>
</g>
<!-- Node3&#45;&gt;Node6 -->
<g id="edge5" class="edge"><title>Node3&#45;&gt;Node6</title>
<path fill="none" stroke="midnightblue" d="M806.273,-391.01C826.194,-398.048 850.297,-406.514 872,-414 882.533,-417.633 893.964,-421.521 904.513,-425.087"/>
<polygon fill="midnightblue" stroke="midnightblue" points="903.705,-428.508 914.299,-428.388 905.943,-421.875 903.705,-428.508"/>
</g>
<!-- Node5 -->
<g id="node5" class="node"><title>Node5</title>
<g id="a_node5"><a xlink:href="../../d3/ded/classprolog_1_1terms_1_1Term_ae140fac2c9d066dc897fcfa723060a7a.html#ae140fac2c9d066dc897fcfa723060a7a" target="_top" xlink:title="Dereferences if necessary. ">
<polygon fill="none" stroke="black" points="1259,-162.5 1259,-181.5 1369,-181.5 1369,-162.5 1259,-162.5"/>
<text text-anchor="middle" x="1314" y="-169.5" font-family="Helvetica,sans-Serif" font-size="10.00">prolog.terms.Term.ref</text>
</a>
</g>
</g>
<!-- Node4&#45;&gt;Node5 -->
<g id="edge4" class="edge"><title>Node4&#45;&gt;Node5</title>
<path fill="none" stroke="midnightblue" d="M1168.52,-238.423C1182.03,-234.46 1197.39,-229.5 1211,-224 1237.89,-213.134 1267.26,-197.764 1287.55,-186.553"/>
<polygon fill="midnightblue" stroke="midnightblue" points="1289.43,-189.507 1296.46,-181.574 1286.02,-183.396 1289.43,-189.507"/>
</g>
<!-- Node7 -->
<g id="node7" class="node"><title>Node7</title>
<g id="a_node7"><a xlink:href="../../d6/dc4/classprolog_1_1terms_1_1Clause_a414492a8d9d648788aadfd423ee32fb0.html#a414492a8d9d648788aadfd423ee32fb0" target="_top" xlink:title="Builds a clause given its head and its body. ">
<polygon fill="none" stroke="black" points="1062.5,-390.5 1062.5,-409.5 1200.5,-409.5 1200.5,-390.5 1062.5,-390.5"/>
<text text-anchor="middle" x="1131.5" y="-397.5" font-family="Helvetica,sans-Serif" font-size="10.00">prolog.terms.Clause.Clause</text>
</a>
</g>
</g>
<!-- Node6&#45;&gt;Node7 -->
<g id="edge6" class="edge"><title>Node6&#45;&gt;Node7</title>
<path fill="none" stroke="midnightblue" d="M991.809,-428.411C1016.84,-423.284 1047.84,-416.933 1074.18,-411.537"/>
<polygon fill="midnightblue" stroke="midnightblue" points="1074.93,-414.956 1084.03,-409.52 1073.53,-408.098 1074.93,-414.956"/>
</g>
<!-- Node8 -->
<g id="node8" class="node"><title>Node8</title>
<g id="a_node8"><a xlink:href="../../d3/ded/classprolog_1_1terms_1_1Term_a01e5a83e648ee3f89415c0142c4220d4.html#a01e5a83e648ee3f89415c0142c4220d4" target="_top" xlink:title="Returns a copy of a term with variables standardized apart (`fresh variables&#39;). ">
<polygon fill="none" stroke="black" points="1071.5,-428.5 1071.5,-447.5 1191.5,-447.5 1191.5,-428.5 1071.5,-428.5"/>
<text text-anchor="middle" x="1131.5" y="-435.5" font-family="Helvetica,sans-Serif" font-size="10.00">prolog.terms.Term.copy</text>
</a>
</g>
</g>
<!-- Node6&#45;&gt;Node8 -->
<g id="edge7" class="edge"><title>Node6&#45;&gt;Node8</title>
<path fill="none" stroke="midnightblue" d="M1011.18,-438C1027.47,-438 1044.95,-438 1061.37,-438"/>
<polygon fill="midnightblue" stroke="midnightblue" points="1061.44,-441.5 1071.44,-438 1061.44,-434.5 1061.44,-441.5"/>
</g>
<!-- Node9 -->
<g id="node9" class="node"><title>Node9</title>
<g id="a_node9"><a xlink:href="../../d3/ded/classprolog_1_1terms_1_1Term_a0a660e6cd55f12e49d328e1b84b478a4.html#a0a660e6cd55f12e49d328e1b84b478a4" target="_top" xlink:title="Defines the reaction to an agent recursing over the structure of a term. ">
<polygon fill="none" stroke="black" points="1247,-428.5 1247,-447.5 1381,-447.5 1381,-428.5 1247,-428.5"/>
<text text-anchor="middle" x="1314" y="-435.5" font-family="Helvetica,sans-Serif" font-size="10.00">prolog.terms.Term.reaction</text>
</a>
</g>
</g>
<!-- Node8&#45;&gt;Node9 -->
<g id="edge8" class="edge"><title>Node8&#45;&gt;Node9</title>
<path fill="none" stroke="midnightblue" d="M1191.6,-438C1205.97,-438 1221.54,-438 1236.58,-438"/>
<polygon fill="midnightblue" stroke="midnightblue" points="1236.89,-441.5 1246.89,-438 1236.89,-434.5 1236.89,-441.5"/>
</g>
<!-- Node10 -->
<g id="node10" class="node"><title>Node10</title>
<g id="a_node10"><a xlink:href="../../d3/ded/classprolog_1_1terms_1_1Term_aa52e271c0f6784dbde9aa4f5f3ab0268.html#aa52e271c0f6784dbde9aa4f5f3ab0268" target="_top" xlink:title="Identity action. ">
<polygon fill="none" stroke="black" points="1417,-428.5 1417,-447.5 1542,-447.5 1542,-428.5 1417,-428.5"/>
<text text-anchor="middle" x="1479.5" y="-435.5" font-family="Helvetica,sans-Serif" font-size="10.00">prolog.terms.Term.action</text>
</a>
</g>
</g>
<!-- Node9&#45;&gt;Node10 -->
<g id="edge9" class="edge"><title>Node9&#45;&gt;Node10</title>
<path fill="none" stroke="midnightblue" d="M1381.03,-438C1389.57,-438 1398.34,-438 1406.96,-438"/>
<polygon fill="midnightblue" stroke="midnightblue" points="1406.98,-441.5 1416.98,-438 1406.98,-434.5 1406.98,-441.5"/>
</g>
<!-- Node12 -->
<g id="node12" class="node"><title>Node12</title>
<g id="a_node12"><a xlink:href="../../d4/d26/classprolog_1_1terms_1_1Prog_a41eac8617a5002806d7137eb36183405.html#a41eac8617a5002806d7137eb36183405" target="_top" xlink:title="prolog.terms.Prog.getTrail">
<polygon fill="none" stroke="black" points="520.5,-240.5 520.5,-259.5 649.5,-259.5 649.5,-240.5 520.5,-240.5"/>
<text text-anchor="middle" x="585" y="-247.5" font-family="Helvetica,sans-Serif" font-size="10.00">prolog.terms.Prog.getTrail</text>
</a>
</g>
</g>
<!-- Node11&#45;&gt;Node12 -->
<g id="edge11" class="edge"><title>Node11&#45;&gt;Node12</title>
<path fill="none" stroke="midnightblue" d="M467.606,-253.901C481.316,-253.442 495.954,-252.951 510.061,-252.478"/>
<polygon fill="midnightblue" stroke="midnightblue" points="510.341,-255.971 520.218,-252.138 510.106,-248.975 510.341,-255.971"/>
</g>
<!-- Node13 -->
<g id="node13" class="node"><title>Node13</title>
<g id="a_node13"><a xlink:href="../../dd/dad/classprolog_1_1terms_1_1Trail_adab6fa04fe8e0da6e1870bd1b37a654b.html#adab6fa04fe8e0da6e1870bd1b37a654b" target="_top" xlink:title="Used to undo bindings after unification, if we intend to leave no side effects. ">
<polygon fill="none" stroke="black" points="522,-202.5 522,-221.5 648,-221.5 648,-202.5 522,-202.5"/>
<text text-anchor="middle" x="585" y="-209.5" font-family="Helvetica,sans-Serif" font-size="10.00">prolog.terms.Trail.unwind</text>
</a>
</g>
</g>
<!-- Node11&#45;&gt;Node13 -->
<g id="edge12" class="edge"><title>Node11&#45;&gt;Node13</title>
<path fill="none" stroke="midnightblue" d="M466.101,-240.981C488.746,-235.414 514.097,-229.183 535.472,-223.929"/>
<polygon fill="midnightblue" stroke="midnightblue" points="536.426,-227.298 545.302,-221.512 534.755,-220.501 536.426,-227.298"/>
</g>
<!-- Node16 -->
<g id="node16" class="node"><title>Node16</title>
<g id="a_node16"><a xlink:href="../../d3/ded/classprolog_1_1terms_1_1Term_a8ea1883429587f5ffa2d7aa6c272039c.html#a8ea1883429587f5ffa2d7aa6c272039c" target="_top" xlink:title="prolog.terms.Term.toClause">
<polygon fill="none" stroke="black" points="516,-328.5 516,-347.5 654,-347.5 654,-328.5 516,-328.5"/>
<text text-anchor="middle" x="585" y="-335.5" font-family="Helvetica,sans-Serif" font-size="10.00">prolog.terms.Term.toClause</text>
</a>
</g>
</g>
<!-- Node11&#45;&gt;Node16 -->
<g id="edge15" class="edge"><title>Node11&#45;&gt;Node16</title>
<path fill="none" stroke="midnightblue" d="M427.97,-271.249C449.849,-285.23 484.086,-305.719 516,-319 521.719,-321.38 527.829,-323.56 533.954,-325.528"/>
<polygon fill="midnightblue" stroke="midnightblue" points="532.95,-328.881 543.536,-328.441 534.987,-322.183 532.95,-328.881"/>
</g>
<!-- Node17 -->
<g id="node17" class="node"><title>Node17</title>
<g id="a_node17"><a xlink:href="../../d6/dc4/classprolog_1_1terms_1_1Clause_a0d8b6d3c8de70326ab416be12688896b.html#a0d8b6d3c8de70326ab416be12688896b" target="_top" xlink:title="prolog.terms.Clause.unfold\l_with_goal">
<polygon fill="none" stroke="black" points="518,-279 518,-309 652,-309 652,-279 518,-279"/>
<text text-anchor="start" x="526" y="-297" font-family="Helvetica,sans-Serif" font-size="10.00">prolog.terms.Clause.unfold</text>
<text text-anchor="middle" x="585" y="-286" font-family="Helvetica,sans-Serif" font-size="10.00">_with_goal</text>
</a>
</g>
</g>
<!-- Node11&#45;&gt;Node17 -->
<g id="edge16" class="edge"><title>Node11&#45;&gt;Node17</title>
<path fill="none" stroke="midnightblue" d="M467.606,-269.291C480.54,-272.036 494.301,-274.958 507.661,-277.794"/>
<polygon fill="midnightblue" stroke="midnightblue" points="507.271,-281.289 517.78,-279.942 508.725,-274.442 507.271,-281.289"/>
</g>
<!-- Node13&#45;&gt;Node14 -->
<g id="edge13" class="edge"><title>Node13&#45;&gt;Node14</title>
<path fill="none" stroke="midnightblue" d="M630.412,-202.411C653.951,-197.329 683.057,-191.045 707.905,-185.68"/>
<polygon fill="midnightblue" stroke="midnightblue" points="708.871,-189.052 717.907,-183.52 707.394,-182.209 708.871,-189.052"/>
</g>
<!-- Node15 -->
<g id="node15" class="node"><title>Node15</title>
<g id="a_node15"><a xlink:href="../../d3/ded/classprolog_1_1terms_1_1Term_ac710eec3650309d160ca04e364804e47.html#ac710eec3650309d160ca04e364804e47" target="_top" xlink:title="prolog.terms.Term.undo">
<polygon fill="none" stroke="black" points="703,-202.5 703,-221.5 823,-221.5 823,-202.5 703,-202.5"/>
<text text-anchor="middle" x="763" y="-209.5" font-family="Helvetica,sans-Serif" font-size="10.00">prolog.terms.Term.undo</text>
</a>
</g>
</g>
<!-- Node13&#45;&gt;Node15 -->
<g id="edge14" class="edge"><title>Node13&#45;&gt;Node15</title>
<path fill="none" stroke="midnightblue" d="M648.051,-212C662.525,-212 678.028,-212 692.79,-212"/>
<polygon fill="midnightblue" stroke="midnightblue" points="692.871,-215.5 702.87,-212 692.87,-208.5 692.871,-215.5"/>
</g>
<!-- Node18 -->
<g id="node18" class="node"><title>Node18</title>
<g id="a_node18"><a xlink:href="../../d6/dc4/classprolog_1_1terms_1_1Clause_a9c5f957d0240113f4328ebbc73d3b31d.html#a9c5f957d0240113f4328ebbc73d3b31d" target="_top" xlink:title="Algebraic composition operation of 2 Clauses, doing the basic resolution step Prolog is based on...">
<polygon fill="none" stroke="black" points="696,-254.5 696,-273.5 830,-273.5 830,-254.5 696,-254.5"/>
<text text-anchor="middle" x="763" y="-261.5" font-family="Helvetica,sans-Serif" font-size="10.00">prolog.terms.Clause.unfold</text>
</a>
</g>
</g>
<!-- Node17&#45;&gt;Node18 -->
<g id="edge17" class="edge"><title>Node17&#45;&gt;Node18</title>
<path fill="none" stroke="midnightblue" d="M652.037,-282.744C666.54,-280.272 681.893,-277.655 696.38,-275.185"/>
<polygon fill="midnightblue" stroke="midnightblue" points="696.98,-278.634 706.249,-273.503 695.803,-271.733 696.98,-278.634"/>
</g>
<!-- Node18&#45;&gt;Node4 -->
<g id="edge22" class="edge"><title>Node18&#45;&gt;Node4</title>
<path fill="none" stroke="midnightblue" d="M830.37,-261.103C891.951,-258.414 983.754,-254.406 1049.6,-251.532"/>
<polygon fill="midnightblue" stroke="midnightblue" points="1050.1,-255.013 1059.94,-251.08 1049.79,-248.02 1050.1,-255.013"/>
</g>
<!-- Node18&#45;&gt;Node6 -->
<g id="edge20" class="edge"><title>Node18&#45;&gt;Node6</title>
<path fill="none" stroke="midnightblue" d="M772.974,-273.882C787.169,-289.745 815.315,-322.144 836,-352 854.147,-378.192 847.331,-393.832 872,-414 877.024,-418.108 882.786,-421.525 888.806,-424.367"/>
<polygon fill="midnightblue" stroke="midnightblue" points="887.835,-427.754 898.412,-428.373 890.53,-421.293 887.835,-427.754"/>
</g>
<!-- Node18&#45;&gt;Node7 -->
<g id="edge21" class="edge"><title>Node18&#45;&gt;Node7</title>
<path fill="none" stroke="midnightblue" d="M774.098,-273.687C792.189,-290.479 831.987,-324.925 872,-343 929.543,-368.994 999.78,-383.504 1052.51,-391.371"/>
<polygon fill="midnightblue" stroke="midnightblue" points="1052.08,-394.845 1062.48,-392.81 1053.08,-387.917 1052.08,-394.845"/>
</g>
<!-- Node19 -->
<g id="node19" class="node"><title>Node19</title>
<g id="a_node19"><a xlink:href="../../d6/dc4/classprolog_1_1terms_1_1Clause_af03de53b32948f858e2cbfeb697eaf4b.html#af03de53b32948f858e2cbfeb697eaf4b" target="_top" xlink:title="Concatenates 2 Conjunctions. ">
<polygon fill="none" stroke="black" points="1052,-124.5 1052,-143.5 1211,-143.5 1211,-124.5 1052,-124.5"/>
<text text-anchor="middle" x="1131.5" y="-131.5" font-family="Helvetica,sans-Serif" font-size="10.00">prolog.terms.Clause.appendConj</text>
</a>
</g>
</g>
<!-- Node18&#45;&gt;Node19 -->
<g id="edge18" class="edge"><title>Node18&#45;&gt;Node19</title>
<path fill="none" stroke="midnightblue" d="M797.094,-254.465C810.491,-249.276 825.291,-241.681 836,-231 863.034,-204.038 840.615,-174.743 872,-153 931.72,-111.626 1018.93,-114.881 1075.2,-122.93"/>
<polygon fill="midnightblue" stroke="midnightblue" points="1074.92,-126.427 1085.34,-124.479 1075.98,-119.508 1074.92,-126.427"/>
</g>
<!-- Node20 -->
<g id="node20" class="node"><title>Node20</title>
<g id="a_node20"><a xlink:href="../../d6/dc4/classprolog_1_1terms_1_1Clause_abb4cb737b264c815c48f32a431ec6f5a.html#abb4cb737b264c815c48f32a431ec6f5a" target="_top" xlink:title="Gets the leftmost (first) goal in the body of a clause, i.e. ">
<polygon fill="none" stroke="black" points="874,-200.5 874,-219.5 1014,-219.5 1014,-200.5 874,-200.5"/>
<text text-anchor="middle" x="944" y="-207.5" font-family="Helvetica,sans-Serif" font-size="10.00">prolog.terms.Clause.getFirst</text>
</a>
</g>
</g>
<!-- Node18&#45;&gt;Node20 -->
<g id="edge23" class="edge"><title>Node18&#45;&gt;Node20</title>
<path fill="none" stroke="midnightblue" d="M795.59,-254.47C825.15,-245.552 869.482,-232.179 901.808,-222.426"/>
<polygon fill="midnightblue" stroke="midnightblue" points="902.863,-225.764 911.426,-219.525 900.841,-219.063 902.863,-225.764"/>
</g>
<!-- Node18&#45;&gt;Node21 -->
<g id="edge25" class="edge"><title>Node18&#45;&gt;Node21</title>
<path fill="none" stroke="midnightblue" d="M799.579,-254.357C812.563,-249.274 826.401,-241.784 836,-231 870.482,-192.261 835.554,-156.898 872,-120 875.886,-116.066 880.439,-112.776 885.329,-110.026"/>
<polygon fill="midnightblue" stroke="midnightblue" points="886.942,-113.134 894.427,-105.635 883.9,-106.83 886.942,-113.134"/>
</g>
<!-- Node22 -->
<g id="node22" class="node"><title>Node22</title>
<g id="a_node22"><a xlink:href="../../d6/dc4/classprolog_1_1terms_1_1Clause_a60e4c0d7e8a9b03c5b073f3c2f023011.html#a60e4c0d7e8a9b03c5b073f3c2f023011" target="_top" xlink:title="Gets all but the leftmost goal in the body of a clause, i.e. ">
<polygon fill="none" stroke="black" points="873,-314.5 873,-333.5 1015,-333.5 1015,-314.5 873,-314.5"/>
<text text-anchor="middle" x="944" y="-321.5" font-family="Helvetica,sans-Serif" font-size="10.00">prolog.terms.Clause.getRest</text>
</a>
</g>
</g>
<!-- Node18&#45;&gt;Node22 -->
<g id="edge27" class="edge"><title>Node18&#45;&gt;Node22</title>
<path fill="none" stroke="midnightblue" d="M787.353,-273.652C809.064,-282.437 842.416,-295.453 872,-305 879.261,-307.343 887.004,-309.628 894.608,-311.755"/>
<polygon fill="midnightblue" stroke="midnightblue" points="893.901,-315.19 904.47,-314.45 895.747,-308.438 893.901,-315.19"/>
</g>
<!-- Node23 -->
<g id="node23" class="node"><title>Node23</title>
<g id="a_node23"><a xlink:href="../../d3/ded/classprolog_1_1terms_1_1Term_a0a9b83bb831ed6ac6dd508c099007ac0.html#a0a9b83bb831ed6ac6dd508c099007ac0" target="_top" xlink:title="Tests if this term unifies with that. ">
<polygon fill="none" stroke="black" points="875.5,-276.5 875.5,-295.5 1012.5,-295.5 1012.5,-276.5 875.5,-276.5"/>
<text text-anchor="middle" x="944" y="-283.5" font-family="Helvetica,sans-Serif" font-size="10.00">prolog.terms.Term.matches</text>
</a>
</g>
</g>
<!-- Node18&#45;&gt;Node23 -->
<g id="edge29" class="edge"><title>Node18&#45;&gt;Node23</title>
<path fill="none" stroke="midnightblue" d="M830.144,-272.129C841.544,-273.531 853.488,-274.999 865.162,-276.433"/>
<polygon fill="midnightblue" stroke="midnightblue" points="864.979,-279.937 875.332,-277.683 865.833,-272.989 864.979,-279.937"/>
</g>
<!-- Node24 -->
<g id="node24" class="node"><title>Node24</title>
<g id="a_node24"><a xlink:href="../../d3/ded/classprolog_1_1terms_1_1Term_a84d8fb7e1f816d0dbe3c2c56ed28fdb9.html#a84d8fb7e1f816d0dbe3c2c56ed28fdb9" target="_top" xlink:title="Dereference and unify_to. ">
<polygon fill="none" stroke="black" points="884,-162.5 884,-181.5 1004,-181.5 1004,-162.5 884,-162.5"/>
<text text-anchor="middle" x="944" y="-169.5" font-family="Helvetica,sans-Serif" font-size="10.00">prolog.terms.Term.unify</text>
</a>
</g>
</g>
<!-- Node18&#45;&gt;Node24 -->
<g id="edge30" class="edge"><title>Node18&#45;&gt;Node24</title>
<path fill="none" stroke="midnightblue" d="M791.766,-254.369C805.776,-248.765 822.594,-240.854 836,-231 855.271,-216.834 851.606,-203.496 872,-191 875.55,-188.825 879.348,-186.896 883.273,-185.185"/>
<polygon fill="midnightblue" stroke="midnightblue" points="884.542,-188.447 892.607,-181.577 882.018,-181.918 884.542,-188.447"/>
</g>
<!-- Node19&#45;&gt;Node5 -->
<g id="edge19" class="edge"><title>Node19&#45;&gt;Node5</title>
<path fill="none" stroke="midnightblue" d="M1178.05,-143.589C1202.3,-148.694 1232.3,-155.011 1257.86,-160.392"/>
<polygon fill="midnightblue" stroke="midnightblue" points="1257.27,-163.845 1267.78,-162.48 1258.72,-156.995 1257.27,-163.845"/>
</g>
<!-- Node20&#45;&gt;Node4 -->
<g id="edge24" class="edge"><title>Node20&#45;&gt;Node4</title>
<path fill="none" stroke="midnightblue" d="M991.809,-219.589C1016.84,-224.716 1047.84,-231.067 1074.18,-236.463"/>
<polygon fill="midnightblue" stroke="midnightblue" points="1073.53,-239.902 1084.03,-238.48 1074.93,-233.044 1073.53,-239.902"/>
</g>
<!-- Node21&#45;&gt;Node5 -->
<g id="edge26" class="edge"><title>Node21&#45;&gt;Node5</title>
<path fill="none" stroke="midnightblue" d="M1016.23,-92.767C1070.68,-92.2694 1147.01,-95.8738 1211,-115 1241.17,-124.018 1272.25,-143.057 1292.05,-156.648"/>
<polygon fill="midnightblue" stroke="midnightblue" points="1290.12,-159.566 1300.31,-162.454 1294.14,-153.84 1290.12,-159.566"/>
</g>
<!-- Node22&#45;&gt;Node4 -->
<g id="edge28" class="edge"><title>Node22&#45;&gt;Node4</title>
<path fill="none" stroke="midnightblue" d="M986.368,-314.427C996.201,-311.742 1006.57,-308.567 1016,-305 1047.62,-293.037 1082.13,-275.143 1104.91,-262.603"/>
<polygon fill="midnightblue" stroke="midnightblue" points="1106.87,-265.514 1113.91,-257.59 1103.47,-259.398 1106.87,-265.514"/>
</g>
<!-- Node24&#45;&gt;Node5 -->
<g id="edge31" class="edge"><title>Node24&#45;&gt;Node5</title>
<path fill="none" stroke="midnightblue" d="M988.498,-181.512C1007.84,-185.277 1030.95,-189.146 1052,-191 1122.39,-197.201 1140.63,-197.498 1211,-191 1227.48,-189.478 1245.27,-186.602 1261.3,-183.539"/>
<polygon fill="midnightblue" stroke="midnightblue" points="1262.43,-186.885 1271.56,-181.511 1261.07,-180.017 1262.43,-186.885"/>
</g>
<!-- Node25 -->
<g id="node25" class="node"><title>Node25</title>
<g id="a_node25"><a xlink:href="../../d3/ded/classprolog_1_1terms_1_1Term_a866b2cca50e77e99b560578b2fa3a91a.html#a866b2cca50e77e99b560578b2fa3a91a" target="_top" xlink:title="Unify dereferenced. ">
<polygon fill="none" stroke="black" points="1064.5,-162.5 1064.5,-181.5 1198.5,-181.5 1198.5,-162.5 1064.5,-162.5"/>
<text text-anchor="middle" x="1131.5" y="-169.5" font-family="Helvetica,sans-Serif" font-size="10.00">prolog.terms.Term.unify_to</text>
</a>
</g>
</g>
<!-- Node24&#45;&gt;Node25 -->
<g id="edge32" class="edge"><title>Node24&#45;&gt;Node25</title>
<path fill="none" stroke="midnightblue" d="M1004.2,-172C1020.1,-172 1037.51,-172 1054.19,-172"/>
<polygon fill="midnightblue" stroke="midnightblue" points="1054.46,-175.5 1064.46,-172 1054.46,-168.5 1054.46,-175.5"/>
</g>
<!-- Node28&#45;&gt;Node13 -->
<g id="edge38" class="edge"><title>Node28&#45;&gt;Node13</title>
<path fill="none" stroke="midnightblue" d="M462.129,-212C477.889,-212 495.196,-212 511.694,-212"/>
<polygon fill="midnightblue" stroke="midnightblue" points="511.84,-215.5 521.84,-212 511.84,-208.5 511.84,-215.5"/>
</g>
</g>
</svg>
        <g id="navigator" transform="translate(0 0)" fill="#404254">
                <rect fill="#f2f5e9" fill-opacity="0.5" stroke="#606060" stroke-width=".5" x="0" y="0" width="60" height="60"/>
                <use id="zoomplus" xlink:href="#zoomPlus" x="17" y="9" onmousedown="handleZoom(evt,'in')"/>
                <use id="zoomminus" xlink:href="#zoomMin" x="42" y="9" onmousedown="handleZoom(evt,'out')"/>
                <use id="reset" xlink:href="#resetDef" x="30" y="36" onmousedown="handleReset()"/>
                <g id="arrowUp" xlink:href="#dirArrow" transform="translate(30 24)" onmousedown="handlePan(0,-1)">
                  <use xlink:href="#rim" fill="#404040">
                        <set attributeName="fill" to="#808080" begin="arrowUp.mouseover" end="arrowUp.mouseout"/>
                  </use>
                  <path fill="none" stroke="white" stroke-width="1.5" d="M0,-3.0v7 M-2.5,-0.5L0,-3.0L2.5,-0.5"/>
                </g>
                <g id="arrowRight" xlink:href="#dirArrow" transform="rotate(90) translate(36 -43)" onmousedown="handlePan(1,0)">
                  <use xlink:href="#rim" fill="#404040">
                        <set attributeName="fill" to="#808080" begin="arrowRight.mouseover" end="arrowRight.mouseout"/>
                  </use>
                  <path fill="none" stroke="white" stroke-width="1.5" d="M0,-3.0v7 M-2.5,-0.5L0,-3.0L2.5,-0.5"/>
                </g>
                <g id="arrowDown" xlink:href="#dirArrow" transform="rotate(180) translate(-30 -48)" onmousedown="handlePan(0,1)">
                  <use xlink:href="#rim" fill="#404040">
                        <set attributeName="fill" to="#808080" begin="arrowDown.mouseover" end="arrowDown.mouseout"/>
                  </use>
                  <path fill="none" stroke="white" stroke-width="1.5" d="M0,-3.0v7 M-2.5,-0.5L0,-3.0L2.5,-0.5"/>
                </g>
                <g id="arrowLeft" xlink:href="#dirArrow" transform="rotate(270) translate(-36 17)" onmousedown="handlePan(-1,0)">
                  <use xlink:href="#rim" fill="#404040">
                        <set attributeName="fill" to="#808080" begin="arrowLeft.mouseover" end="arrowLeft.mouseout"/>
                  </use>
                  <path fill="none" stroke="white" stroke-width="1.5" d="M0,-3.0v7 M-2.5,-0.5L0,-3.0L2.5,-0.5"/>
                </g>
        </g>
        <svg viewBox="0 0 15 15" width="100%" height="30px" preserveAspectRatio="xMaxYMin meet">
         <g id="arrow_out" transform="scale(0.3 0.3)">
          <a xlink:href="classprolog_1_1terms_1_1Prog_a45a00a5df54d8c378930f320020b457f_a45a00a5df54d8c378930f320020b457f_cgraph_org.svg" target="_base">
           <rect id="button" ry="5" rx="5" y="6" x="6" height="38" width="38"
                fill="#f2f5e9" fill-opacity="0.5" stroke="#606060" stroke-width="1.0"/>
           <path id="arrow"
             d="M 11.500037,31.436501 C 11.940474,20.09759 22.043105,11.32322 32.158766,21.979434 L 37.068811,17.246167 C 37.068811,17.246167 37.088388,32 37.088388,32 L 22.160133,31.978069 C 22.160133,31.978069 26.997745,27.140456 26.997745,27.140456 C 18.528582,18.264221 13.291696,25.230495 11.500037,31.436501 z"
             style="fill:#404040;"/>
          </a>
         </g>
        </svg>
</svg>
