<?xml version="1.0" encoding="UTF-8" standalone="no"?>
<!DOCTYPE svg PUBLIC "-//W3C//DTD SVG 1.1//EN"
 "http://www.w3.org/Graphics/SVG/1.1/DTD/svg11.dtd">
<!-- Generated by graphviz version 2.38.0 (20140413.2041)
 -->
<!-- Title: prolog.terms.Prog.Prog Pages: 1 -->
<svg width="818pt" height="85pt"
 viewBox="0.00 0.00 818.00 85.00" xmlns="http://www.w3.org/2000/svg" xmlns:xlink="http://www.w3.org/1999/xlink">
<g id="graph0" class="graph" transform="scale(1 1) rotate(0) translate(4 81)">
<title>prolog.terms.Prog.Prog</title>
<!-- Node1 -->
<g id="node1" class="node"><title>Node1</title>
<polygon fill="#bfbfbf" stroke="black" points="0,-19.5 0,-38.5 117,-38.5 117,-19.5 0,-19.5"/>
<text text-anchor="middle" x="58.5" y="-26.5" font-family="Helvetica,sans-Serif" font-size="10.00">prolog.terms.Prog.Prog</text>
</g>
<!-- Node2 -->
<g id="node2" class="node"><title>Node2</title>
<g id="a_node2"><a xlink:href="../../d6/dc4/classprolog_1_1terms_1_1Clause_ad1a287e7c18ca6880e5d8f7d97c6acd9.html#ad1a287e7c18ca6880e5d8f7d97c6acd9" target="_top" xlink:title="Creates a copy of the clause with variables standardized apart, i.e. ">
<polygon fill="none" stroke="black" points="162,-38.5 162,-57.5 296,-57.5 296,-38.5 162,-38.5"/>
<text text-anchor="middle" x="229" y="-45.5" font-family="Helvetica,sans-Serif" font-size="10.00">prolog.terms.Clause.ccopy</text>
</a>
</g>
</g>
<!-- Node1&#45;&gt;Node2 -->
<g id="edge1" class="edge"><title>Node1&#45;&gt;Node2</title>
<path fill="none" stroke="midnightblue" d="M117.017,-35.4856C128.151,-36.7411 139.981,-38.075 151.609,-39.3862"/>
<polygon fill="midnightblue" stroke="midnightblue" points="151.424,-42.8874 161.753,-40.53 152.208,-35.9315 151.424,-42.8874"/>
</g>
<!-- Node7 -->
<g id="node7" class="node"><title>Node7</title>
<g id="a_node7"><a xlink:href="../../da/d93/classprolog_1_1terms_1_1ObjectStack_a058b4b33eb3234f7d3426058bcbcace0.html#a058b4b33eb3234f7d3426058bcbcace0" target="_top" xlink:title="prolog.terms.ObjectStack.push">
<polygon fill="none" stroke="black" points="153,-0.5 153,-19.5 305,-19.5 305,-0.5 153,-0.5"/>
<text text-anchor="middle" x="229" y="-7.5" font-family="Helvetica,sans-Serif" font-size="10.00">prolog.terms.ObjectStack.push</text>
</a>
</g>
</g>
<!-- Node1&#45;&gt;Node7 -->
<g id="edge6" class="edge"><title>Node1&#45;&gt;Node7</title>
<path fill="none" stroke="midnightblue" d="M117.017,-22.5144C125.308,-21.5795 133.985,-20.6011 142.677,-19.621"/>
<polygon fill="midnightblue" stroke="midnightblue" points="143.321,-23.0707 152.866,-18.4721 142.536,-16.1147 143.321,-23.0707"/>
</g>
<!-- Node3 -->
<g id="node3" class="node"><title>Node3</title>
<g id="a_node3"><a xlink:href="../../d6/dc4/classprolog_1_1terms_1_1Clause_a414492a8d9d648788aadfd423ee32fb0.html#a414492a8d9d648788aadfd423ee32fb0" target="_top" xlink:title="Builds a clause given its head and its body. ">
<polygon fill="none" stroke="black" points="341,-57.5 341,-76.5 479,-76.5 479,-57.5 341,-57.5"/>
<text text-anchor="middle" x="410" y="-64.5" font-family="Helvetica,sans-Serif" font-size="10.00">prolog.terms.Clause.Clause</text>
</a>
</g>
</g>
<!-- Node2&#45;&gt;Node3 -->
<g id="edge2" class="edge"><title>Node2&#45;&gt;Node3</title>
<path fill="none" stroke="midnightblue" d="M296.144,-55.0209C307.39,-56.2146 319.165,-57.4645 330.689,-58.6876"/>
<polygon fill="midnightblue" stroke="midnightblue" points="330.418,-62.1784 340.731,-59.7536 331.157,-55.2175 330.418,-62.1784"/>
</g>
<!-- Node4 -->
<g id="node4" class="node"><title>Node4</title>
<g id="a_node4"><a xlink:href="../../d3/ded/classprolog_1_1terms_1_1Term_a01e5a83e648ee3f89415c0142c4220d4.html#a01e5a83e648ee3f89415c0142c4220d4" target="_top" xlink:title="Returns a copy of a term with variables standardized apart (`fresh variables&#39;). ">
<polygon fill="none" stroke="black" points="350,-19.5 350,-38.5 470,-38.5 470,-19.5 350,-19.5"/>
<text text-anchor="middle" x="410" y="-26.5" font-family="Helvetica,sans-Serif" font-size="10.00">prolog.terms.Term.copy</text>
</a>
</g>
</g>
<!-- Node2&#45;&gt;Node4 -->
<g id="edge3" class="edge"><title>Node2&#45;&gt;Node4</title>
<path fill="none" stroke="midnightblue" d="M296.144,-40.9791C310.329,-39.4734 325.355,-37.8785 339.657,-36.3604"/>
<polygon fill="midnightblue" stroke="midnightblue" points="340.346,-39.807 349.921,-35.271 339.607,-32.8461 340.346,-39.807"/>
</g>
<!-- Node5 -->
<g id="node5" class="node"><title>Node5</title>
<g id="a_node5"><a xlink:href="../../d3/ded/classprolog_1_1terms_1_1Term_a0a660e6cd55f12e49d328e1b84b478a4.html#a0a660e6cd55f12e49d328e1b84b478a4" target="_top" xlink:title="Defines the reaction to an agent recursing over the structure of a term. ">
<polygon fill="none" stroke="black" points="515,-19.5 515,-38.5 649,-38.5 649,-19.5 515,-19.5"/>
<text text-anchor="middle" x="582" y="-26.5" font-family="Helvetica,sans-Serif" font-size="10.00">prolog.terms.Term.reaction</text>
</a>
</g>
</g>
<!-- Node4&#45;&gt;Node5 -->
<g id="edge4" class="edge"><title>Node4&#45;&gt;Node5</title>
<path fill="none" stroke="midnightblue" d="M470.458,-29C481.566,-29 493.316,-29 504.846,-29"/>
<polygon fill="midnightblue" stroke="midnightblue" points="504.901,-32.5001 514.901,-29 504.901,-25.5001 504.901,-32.5001"/>
</g>
<!-- Node6 -->
<g id="node6" class="node"><title>Node6</title>
<g id="a_node6"><a xlink:href="../../d3/ded/classprolog_1_1terms_1_1Term_aa52e271c0f6784dbde9aa4f5f3ab0268.html#aa52e271c0f6784dbde9aa4f5f3ab0268" target="_top" xlink:title="Identity action. ">
<polygon fill="none" stroke="black" points="685,-19.5 685,-38.5 810,-38.5 810,-19.5 685,-19.5"/>
<text text-anchor="middle" x="747.5" y="-26.5" font-family="Helvetica,sans-Serif" font-size="10.00">prolog.terms.Term.action</text>
</a>
</g>
</g>
<!-- Node5&#45;&gt;Node6 -->
<g id="edge5" class="edge"><title>Node5&#45;&gt;Node6</title>
<path fill="none" stroke="midnightblue" d="M649.03,-29C657.566,-29 666.34,-29 674.96,-29"/>
<polygon fill="midnightblue" stroke="midnightblue" points="674.984,-32.5001 684.984,-29 674.984,-25.5001 674.984,-32.5001"/>
</g>
</g>
</svg>
