<?xml version="1.0" encoding="UTF-8" standalone="no"?>
<!DOCTYPE svg PUBLIC "-//W3C//DTD SVG 1.1//EN"
 "http://www.w3.org/Graphics/SVG/1.1/DTD/svg11.dtd">
<!-- Generated by graphviz version 2.38.0 (20140413.2041)
 -->
<!-- Title: prolog.terms.Prog.stop Pages: 1 -->
<svg width="1210pt" height="220pt"
 viewBox="0.00 0.00 1210.00 219.50" xmlns="http://www.w3.org/2000/svg" xmlns:xlink="http://www.w3.org/1999/xlink">
<g id="graph0" class="graph" transform="scale(1 1) rotate(0) translate(4 215.5)">
<title>prolog.terms.Prog.stop</title>
<!-- Node1 -->
<g id="node1" class="node"><title>Node1</title>
<polygon fill="#bfbfbf" stroke="black" points="0,-101 0,-120 116,-120 116,-101 0,-101"/>
<text text-anchor="middle" x="58" y="-108" font-family="Helvetica,sans-Serif" font-size="10.00">prolog.terms.Prog.stop</text>
</g>
<!-- Node2 -->
<g id="node2" class="node"><title>Node2</title>
<g id="a_node2"><a xlink:href="../../d8/d35/classprolog_1_1Init_a34d43d3123bb194902cbcb1c06194cce.html#a34d43d3123bb194902cbcb1c06194cce" target="_top" xlink:title="evalutes a query ">
<polygon fill="none" stroke="black" points="697,-145 697,-164 798,-164 798,-145 697,-145"/>
<text text-anchor="middle" x="747.5" y="-152" font-family="Helvetica,sans-Serif" font-size="10.00">prolog.Init.evalGoal</text>
</a>
</g>
</g>
<!-- Node1&#45;&gt;Node2 -->
<g id="edge1" class="edge"><title>Node1&#45;&gt;Node2</title>
<path fill="none" stroke="midnightblue" d="M113.33,-122.115C125.996,-124.68 139.45,-127.289 152,-129.5 232.534,-143.689 252.468,-150.21 334,-156.5 400.028,-161.594 416.777,-157.278 483,-157.5 549.222,-157.722 565.783,-158.367 632,-157.5 653.275,-157.221 676.769,-156.652 696.909,-156.083"/>
<polygon fill="midnightblue" stroke="midnightblue" points="113.872,-118.654 103.373,-120.076 112.468,-125.511 113.872,-118.654"/>
</g>
<!-- Node6 -->
<g id="node6" class="node"><title>Node6</title>
<g id="a_node6"><a xlink:href="../../d4/d26/classprolog_1_1terms_1_1Prog_afb6f86119db8ba133de23f8bfe24ba2e.html#afb6f86119db8ba133de23f8bfe24ba2e" target="_top" xlink:title="Computes a copy of the first solution X of Goal G. ">
<polygon fill="none" stroke="black" points="483,-88 483,-107 632,-107 632,-88 483,-88"/>
<text text-anchor="middle" x="557.5" y="-95" font-family="Helvetica,sans-Serif" font-size="10.00">prolog.terms.Prog.firstSolution</text>
</a>
</g>
</g>
<!-- Node1&#45;&gt;Node6 -->
<g id="edge5" class="edge"><title>Node1&#45;&gt;Node6</title>
<path fill="none" stroke="midnightblue" d="M105.492,-98.6626C178.374,-81.6663 323.921,-54.013 447,-69.5 474.84,-73.0031 505.745,-81.3293 527.603,-87.9973"/>
<polygon fill="midnightblue" stroke="midnightblue" points="104.623,-95.2715 95.7,-100.984 106.238,-102.083 104.623,-95.2715"/>
</g>
<!-- Node15 -->
<g id="node15" class="node"><title>Node15</title>
<g id="a_node15"><a xlink:href="../../d4/d26/classprolog_1_1terms_1_1Prog_ac5d988b907a2843fcfcba4d1fd1e0deb.html#ac5d988b907a2843fcfcba4d1fd1e0deb" target="_top" xlink:title="Here is where actual LD&#45;resolution computation happens. ">
<polygon fill="none" stroke="black" points="152,-101 152,-120 298,-120 298,-101 152,-101"/>
<text text-anchor="middle" x="225" y="-108" font-family="Helvetica,sans-Serif" font-size="10.00">prolog.terms.Prog.getElement</text>
</a>
</g>
</g>
<!-- Node1&#45;&gt;Node15 -->
<g id="edge16" class="edge"><title>Node1&#45;&gt;Node15</title>
<path fill="none" stroke="midnightblue" d="M126.33,-110.5C134.704,-110.5 143.295,-110.5 151.74,-110.5"/>
<polygon fill="midnightblue" stroke="midnightblue" points="126.246,-107 116.246,-110.5 126.246,-114 126.246,-107"/>
</g>
<!-- Node3 -->
<g id="node3" class="node"><title>Node3</title>
<g id="a_node3"><a xlink:href="../../d8/d35/classprolog_1_1Init_a2471811f50fbed4de5df26ee530f1e2e.html#a2471811f50fbed4de5df26ee530f1e2e" target="_top" xlink:title="evaluates and times a Goal querying program P ">
<polygon fill="none" stroke="black" points="886.5,-164 886.5,-183 987.5,-183 987.5,-164 886.5,-164"/>
<text text-anchor="middle" x="937" y="-171" font-family="Helvetica,sans-Serif" font-size="10.00">prolog.Init.timeGoal</text>
</a>
</g>
</g>
<!-- Node2&#45;&gt;Node3 -->
<g id="edge2" class="edge"><title>Node2&#45;&gt;Node3</title>
<path fill="none" stroke="midnightblue" d="M808.406,-160.57C833.538,-163.117 862.418,-166.044 886.339,-168.468"/>
<polygon fill="midnightblue" stroke="midnightblue" points="808.556,-157.068 798.254,-159.542 807.85,-164.032 808.556,-157.068"/>
</g>
<!-- Node4 -->
<g id="node4" class="node"><title>Node4</title>
<g id="a_node4"><a xlink:href="../../d8/d35/classprolog_1_1Init_a0348efff7140aed75f8364f90b7c2b8b.html#a0348efff7140aed75f8364f90b7c2b8b" target="_top" xlink:title="prolog.Init.run_query">
<polygon fill="none" stroke="black" points="1072,-192 1072,-211 1177,-211 1177,-192 1072,-192"/>
<text text-anchor="middle" x="1124.5" y="-199" font-family="Helvetica,sans-Serif" font-size="10.00">prolog.Init.run_query</text>
</a>
</g>
</g>
<!-- Node3&#45;&gt;Node4 -->
<g id="edge3" class="edge"><title>Node3&#45;&gt;Node4</title>
<path fill="none" stroke="midnightblue" d="M997.699,-182.511C1021.54,-186.109 1048.72,-190.213 1071.71,-193.682"/>
<polygon fill="midnightblue" stroke="midnightblue" points="998.121,-179.035 987.711,-181.003 997.076,-185.957 998.121,-179.035"/>
</g>
<!-- Node5 -->
<g id="node5" class="node"><title>Node5</title>
<g id="a_node5"><a xlink:href="../../d8/d35/classprolog_1_1Init_a3e8704cf8b2d909fccc79e967dd48171.html#a3e8704cf8b2d909fccc79e967dd48171" target="_top" xlink:title="prolog.Init.standardTop">
<polygon fill="none" stroke="black" points="1066.5,-154 1066.5,-173 1182.5,-173 1182.5,-154 1066.5,-154"/>
<text text-anchor="middle" x="1124.5" y="-161" font-family="Helvetica,sans-Serif" font-size="10.00">prolog.Init.standardTop</text>
</a>
</g>
</g>
<!-- Node3&#45;&gt;Node5 -->
<g id="edge4" class="edge"><title>Node3&#45;&gt;Node5</title>
<path fill="none" stroke="midnightblue" d="M997.918,-170.27C1019.9,-169.085 1044.7,-167.748 1066.43,-166.577"/>
<polygon fill="midnightblue" stroke="midnightblue" points="997.508,-166.787 987.711,-170.82 997.885,-173.777 997.508,-166.787"/>
</g>
<!-- Node6&#45;&gt;Node2 -->
<g id="edge12" class="edge"><title>Node6&#45;&gt;Node2</title>
<path fill="none" stroke="midnightblue" d="M599.795,-110.02C634.478,-120.536 683.307,-135.34 714.93,-144.928"/>
<polygon fill="midnightblue" stroke="midnightblue" points="600.552,-106.593 589.967,-107.041 598.521,-113.292 600.552,-106.593"/>
</g>
<!-- Node7 -->
<g id="node7" class="node"><title>Node7</title>
<g id="a_node7"><a xlink:href="../../d8/d35/classprolog_1_1Init_a4a7b9ae1dc4d489e657326f3ed5a4b7e.html#a4a7b9ae1dc4d489e657326f3ed5a4b7e" target="_top" xlink:title="Asks Prolog a query Answer, Goal and returns the first solution of the form &quot;the(Answer)&quot; or the cons...">
<polygon fill="none" stroke="black" points="694.5,-88 694.5,-107 800.5,-107 800.5,-88 694.5,-88"/>
<text text-anchor="middle" x="747.5" y="-95" font-family="Helvetica,sans-Serif" font-size="10.00">prolog.Init.askProlog</text>
</a>
</g>
</g>
<!-- Node6&#45;&gt;Node7 -->
<g id="edge6" class="edge"><title>Node6&#45;&gt;Node7</title>
<path fill="none" stroke="midnightblue" d="M642.583,-97.5C660.236,-97.5 678.361,-97.5 694.43,-97.5"/>
<polygon fill="midnightblue" stroke="midnightblue" points="642.263,-94.0001 632.263,-97.5 642.263,-101 642.263,-94.0001"/>
</g>
<!-- Node12 -->
<g id="node12" class="node"><title>Node12</title>
<g id="a_node12"><a xlink:href="../../da/dd9/classprolog_1_1fluents_1_1DataBase_a6f8041bc2bcb5cdd8a376e81a3dc4dca.html#a6f8041bc2bcb5cdd8a376e81a3dc4dca" target="_top" xlink:title="adds a Clause to the joint Linda and Predicate table ">
<polygon fill="none" stroke="black" points="668,-19.5 668,-49.5 827,-49.5 827,-19.5 668,-19.5"/>
<text text-anchor="start" x="676" y="-37.5" font-family="Helvetica,sans-Serif" font-size="10.00">prolog.fluents.DataBase.process</text>
<text text-anchor="middle" x="747.5" y="-26.5" font-family="Helvetica,sans-Serif" font-size="10.00">Clause</text>
</a>
</g>
</g>
<!-- Node6&#45;&gt;Node12 -->
<g id="edge13" class="edge"><title>Node6&#45;&gt;Node12</title>
<path fill="none" stroke="midnightblue" d="M596.846,-84.6501C627.184,-74.4836 669.609,-60.2666 701.544,-49.565"/>
<polygon fill="midnightblue" stroke="midnightblue" points="595.423,-81.4356 587.053,-87.9317 597.647,-88.0728 595.423,-81.4356"/>
</g>
<!-- Node8 -->
<g id="node8" class="node"><title>Node8</title>
<g id="a_node8"><a xlink:href="../../d8/d35/classprolog_1_1Init_ae5fe9e2dc533d32690edbbec3b1c279b.html#ae5fe9e2dc533d32690edbbec3b1c279b" target="_top" xlink:title="Asks Prolog a query Goal and returns the first solution of the form &quot;the(Answer)&quot; ...">
<polygon fill="none" stroke="black" points="884,-50 884,-69 990,-69 990,-50 884,-50"/>
<text text-anchor="middle" x="937" y="-57" font-family="Helvetica,sans-Serif" font-size="10.00">prolog.Init.askProlog</text>
</a>
</g>
</g>
<!-- Node7&#45;&gt;Node8 -->
<g id="edge7" class="edge"><title>Node7&#45;&gt;Node8</title>
<path fill="none" stroke="midnightblue" d="M805.784,-85.8905C832.451,-80.486 863.781,-74.1365 889.026,-69.0201"/>
<polygon fill="midnightblue" stroke="midnightblue" points="804.92,-82.4944 795.814,-87.911 806.31,-89.3549 804.92,-82.4944"/>
</g>
<!-- Node9 -->
<g id="node9" class="node"><title>Node9</title>
<g id="a_node9"><a xlink:href="../../da/dde/classprolog_1_1Main_aca445add96cb95be654213f0e42d5b76.html#aca445add96cb95be654213f0e42d5b76" target="_top" xlink:title="prolog.Main.init">
<polygon fill="none" stroke="black" points="895.5,-88 895.5,-107 978.5,-107 978.5,-88 895.5,-88"/>
<text text-anchor="middle" x="937" y="-95" font-family="Helvetica,sans-Serif" font-size="10.00">prolog.Main.init</text>
</a>
</g>
</g>
<!-- Node7&#45;&gt;Node9 -->
<g id="edge8" class="edge"><title>Node7&#45;&gt;Node9</title>
<path fill="none" stroke="midnightblue" d="M810.775,-97.5C838.613,-97.5 870.641,-97.5 895.337,-97.5"/>
<polygon fill="midnightblue" stroke="midnightblue" points="810.729,-94.0001 800.729,-97.5 810.729,-101 810.729,-94.0001"/>
</g>
<!-- Node11 -->
<g id="node11" class="node"><title>Node11</title>
<g id="a_node11"><a xlink:href="../../d8/d35/classprolog_1_1Init_a7293b6db1f53eca4730418c54ab07109.html#a7293b6db1f53eca4730418c54ab07109" target="_top" xlink:title="prolog.Init.run">
<polygon fill="none" stroke="black" points="899,-126 899,-145 975,-145 975,-126 899,-126"/>
<text text-anchor="middle" x="937" y="-133" font-family="Helvetica,sans-Serif" font-size="10.00">prolog.Init.run</text>
</a>
</g>
</g>
<!-- Node7&#45;&gt;Node11 -->
<g id="edge10" class="edge"><title>Node7&#45;&gt;Node11</title>
<path fill="none" stroke="midnightblue" d="M805.807,-109.114C836.014,-115.236 872.199,-122.57 898.746,-127.95"/>
<polygon fill="midnightblue" stroke="midnightblue" points="806.31,-105.645 795.814,-107.089 804.92,-112.506 806.31,-105.645"/>
</g>
<!-- Node10 -->
<g id="node10" class="node"><title>Node10</title>
<g id="a_node10"><a xlink:href="../../da/dde/classprolog_1_1Main_ab0b3345fa72bd3b96c565437b962efa3.html#ab0b3345fa72bd3b96c565437b962efa3" target="_top" xlink:title="prolog.Main.main">
<polygon fill="none" stroke="black" points="1079,-97 1079,-116 1170,-116 1170,-97 1079,-97"/>
<text text-anchor="middle" x="1124.5" y="-104" font-family="Helvetica,sans-Serif" font-size="10.00">prolog.Main.main</text>
</a>
</g>
</g>
<!-- Node9&#45;&gt;Node10 -->
<g id="edge9" class="edge"><title>Node9&#45;&gt;Node10</title>
<path fill="none" stroke="midnightblue" d="M988.787,-99.9641C1017.02,-101.334 1051.83,-103.023 1078.99,-104.341"/>
<polygon fill="midnightblue" stroke="midnightblue" points="988.867,-96.4639 978.709,-99.4751 988.527,-103.456 988.867,-96.4639"/>
</g>
<!-- Node11&#45;&gt;Node10 -->
<g id="edge11" class="edge"><title>Node11&#45;&gt;Node10</title>
<path fill="none" stroke="midnightblue" d="M985.321,-128.102C1014.12,-123.6 1050.67,-117.886 1078.95,-113.465"/>
<polygon fill="midnightblue" stroke="midnightblue" points="984.432,-124.698 975.093,-129.701 985.513,-131.614 984.432,-124.698"/>
</g>
<!-- Node13 -->
<g id="node13" class="node"><title>Node13</title>
<g id="a_node13"><a xlink:href="../../da/dd9/classprolog_1_1fluents_1_1DataBase_a83885e10b61d6bf129307d9bf50d93de.html#a83885e10b61d6bf129307d9bf50d93de" target="_top" xlink:title="prolog.fluents.DataBase.apply\l_parser">
<polygon fill="none" stroke="black" points="863,-0.5 863,-30.5 1011,-30.5 1011,-0.5 863,-0.5"/>
<text text-anchor="start" x="871" y="-18.5" font-family="Helvetica,sans-Serif" font-size="10.00">prolog.fluents.DataBase.apply</text>
<text text-anchor="middle" x="937" y="-7.5" font-family="Helvetica,sans-Serif" font-size="10.00">_parser</text>
</a>
</g>
</g>
<!-- Node12&#45;&gt;Node13 -->
<g id="edge14" class="edge"><title>Node12&#45;&gt;Node13</title>
<path fill="none" stroke="midnightblue" d="M837.24,-25.5076C845.828,-24.6374 854.473,-23.7614 862.884,-22.9091"/>
<polygon fill="midnightblue" stroke="midnightblue" points="836.798,-22.0344 827.202,-26.5249 837.504,-28.9988 836.798,-22.0344"/>
</g>
<!-- Node14 -->
<g id="node14" class="node"><title>Node14</title>
<g id="a_node14"><a xlink:href="../../da/dd9/classprolog_1_1fluents_1_1DataBase_af8b26948ded7bba6386b984f463bf166.html#af8b26948ded7bba6386b984f463bf166" target="_top" xlink:title="prolog.fluents.DataBase.stream\lToProg">
<polygon fill="none" stroke="black" points="1047,-0.5 1047,-30.5 1202,-30.5 1202,-0.5 1047,-0.5"/>
<text text-anchor="start" x="1055" y="-18.5" font-family="Helvetica,sans-Serif" font-size="10.00">prolog.fluents.DataBase.stream</text>
<text text-anchor="middle" x="1124.5" y="-7.5" font-family="Helvetica,sans-Serif" font-size="10.00">ToProg</text>
</a>
</g>
</g>
<!-- Node13&#45;&gt;Node14 -->
<g id="edge15" class="edge"><title>Node13&#45;&gt;Node14</title>
<path fill="none" stroke="midnightblue" d="M1021.06,-15.5C1029.65,-15.5 1038.34,-15.5 1046.86,-15.5"/>
<polygon fill="midnightblue" stroke="midnightblue" points="1021.05,-12.0001 1011.05,-15.5 1021.05,-19.0001 1021.05,-12.0001"/>
</g>
<!-- Node16 -->
<g id="node16" class="node"><title>Node16</title>
<g id="a_node16"><a xlink:href="../../d4/d26/classprolog_1_1terms_1_1Prog_a696a0c92a1814ecf4f21fb09fbc854a0.html#a696a0c92a1814ecf4f21fb09fbc854a0" target="_top" xlink:title="asks a logic engine to return a solution ">
<polygon fill="none" stroke="black" points="334,-117.5 334,-147.5 447,-147.5 447,-117.5 334,-117.5"/>
<text text-anchor="start" x="342" y="-135.5" font-family="Helvetica,sans-Serif" font-size="10.00">prolog.terms.Prog.ask</text>
<text text-anchor="middle" x="390.5" y="-124.5" font-family="Helvetica,sans-Serif" font-size="10.00">_engine</text>
</a>
</g>
</g>
<!-- Node15&#45;&gt;Node16 -->
<g id="edge17" class="edge"><title>Node15&#45;&gt;Node16</title>
<path fill="none" stroke="midnightblue" d="M306.717,-121.361C315.917,-122.599 325.135,-123.839 333.904,-125.019"/>
<polygon fill="midnightblue" stroke="midnightblue" points="307.14,-117.886 296.763,-120.022 306.206,-124.824 307.14,-117.886"/>
</g>
<!-- Node17 -->
<g id="node17" class="node"><title>Node17</title>
<g id="a_node17"><a xlink:href="../../d4/d26/classprolog_1_1terms_1_1Prog_a45a00a5df54d8c378930f320020b457f.html#a45a00a5df54d8c378930f320020b457f" target="_top" xlink:title="usable for launching on a separate thread ">
<polygon fill="none" stroke="black" points="335.5,-79 335.5,-98 445.5,-98 445.5,-79 335.5,-79"/>
<text text-anchor="middle" x="390.5" y="-86" font-family="Helvetica,sans-Serif" font-size="10.00">prolog.terms.Prog.run</text>
</a>
</g>
</g>
<!-- Node15&#45;&gt;Node17 -->
<g id="edge20" class="edge"><title>Node15&#45;&gt;Node17</title>
<path fill="none" stroke="midnightblue" d="M306.827,-99.6242C316.513,-98.3209 326.216,-97.0153 335.392,-95.7806"/>
<polygon fill="midnightblue" stroke="midnightblue" points="306.206,-96.1761 296.763,-100.978 307.14,-103.114 306.206,-96.1761"/>
</g>
<!-- Node16&#45;&gt;Node2 -->
<g id="edge18" class="edge"><title>Node16&#45;&gt;Node2</title>
<path fill="none" stroke="midnightblue" d="M457.736,-136.605C527.142,-140.906 634.582,-147.564 696.976,-151.431"/>
<polygon fill="midnightblue" stroke="midnightblue" points="457.557,-133.087 447.359,-135.962 457.124,-140.074 457.557,-133.087"/>
</g>
<!-- Node16&#45;&gt;Node6 -->
<g id="edge19" class="edge"><title>Node16&#45;&gt;Node6</title>
<path fill="none" stroke="midnightblue" d="M457.342,-118.533C475.56,-114.669 494.908,-110.565 511.631,-107.018"/>
<polygon fill="midnightblue" stroke="midnightblue" points="456.418,-115.152 447.361,-120.651 457.87,-121.999 456.418,-115.152"/>
</g>
</g>
</svg>
