<?xml version="1.0" encoding="UTF-8" standalone="no"?>
<!DOCTYPE svg PUBLIC "-//W3C//DTD SVG 1.1//EN"
 "http://www.w3.org/Graphics/SVG/1.1/DTD/svg11.dtd">
<!-- Generated by graphviz version 2.38.0 (20140413.2041)
 -->
<!-- Title: prolog.terms.Prog Pages: 1 -->
<!--zoomable 1218 -->
<svg id="main" version="1.1" xmlns="http://www.w3.org/2000/svg" xmlns:xlink="http://www.w3.org/1999/xlink" xml:space="preserve" onload="init(evt)">
<style type="text/css"><![CDATA[
.edge:hover path { stroke: red; }
.edge:hover polygon { stroke: red; fill: red; }
]]></style>
<script type="text/javascript"><![CDATA[
var edges = document.getElementsByTagName('g');
if (edges && edges.length) {
  for (var i=0;i<edges.length;i++) {
    if (edges[i].id.substr(0,4)=='edge') {
      edges[i].setAttribute('class','edge');
    }
  }
}
]]></script>
        <defs>
                <circle id="rim" cx="0" cy="0" r="7"/>
                <circle id="rim2" cx="0" cy="0" r="3.5"/>
                <g id="zoomPlus">
                        <use xlink:href="#rim" fill="#404040">
                                <set attributeName="fill" to="#808080" begin="zoomplus.mouseover" end="zoomplus.mouseout"/>
                        </use>
                        <path d="M-4,0h8M0,-4v8" fill="none" stroke="white" stroke-width="1.5" pointer-events="none"/>
                </g>
                <g id="zoomMin">
                        <use xlink:href="#rim" fill="#404040">
                                <set attributeName="fill" to="#808080" begin="zoomminus.mouseover" end="zoomminus.mouseout"/>
                        </use>
                        <path d="M-4,0h8" fill="none" stroke="white" stroke-width="1.5" pointer-events="none"/>
                </g>
                <g id="dirArrow">
                        <path fill="none" stroke="white" stroke-width="1.5" d="M0,-3.0v7 M-2.5,-0.5L0,-3.0L2.5,-0.5"/>
                </g>
               <g id="resetDef">
                       <use xlink:href="#rim2" fill="#404040">
                               <set attributeName="fill" to="#808080" begin="reset.mouseover" end="reset.mouseout"/>
                       </use>
               </g>
        </defs>

<script type="text/javascript">
var viewWidth = 390;
var viewHeight = 1218;
var sectionId = 'dynsection-1';
</script>
<script xlink:href="../../svgpan.js"/>
<svg id="graph" class="graph">
<g id="viewport">
<title>prolog.terms.Prog</title>
<!-- Node1 -->
<g id="node1" class="node"><title>Node1</title>
<polygon fill="#bfbfbf" stroke="black" points="152,-0.5 152,-145.5 246,-145.5 246,-0.5 152,-0.5"/>
<text text-anchor="middle" x="199" y="-133.5" font-family="Helvetica,sans-Serif" font-size="10.00">prolog.terms.Prog</text>
<polyline fill="none" stroke="black" points="152,-126.5 246,-126.5 "/>
<text text-anchor="start" x="160" y="-114.5" font-family="Helvetica,sans-Serif" font-size="10.00">+ tracing</text>
<polyline fill="none" stroke="black" points="152,-107.5 246,-107.5 "/>
<text text-anchor="start" x="160" y="-95.5" font-family="Helvetica,sans-Serif" font-size="10.00">+ Prog()</text>
<text text-anchor="start" x="160" y="-84.5" font-family="Helvetica,sans-Serif" font-size="10.00">+ getTrail()</text>
<text text-anchor="start" x="160" y="-73.5" font-family="Helvetica,sans-Serif" font-size="10.00">+ getParent()</text>
<text text-anchor="start" x="160" y="-62.5" font-family="Helvetica,sans-Serif" font-size="10.00">+ getElement()</text>
<text text-anchor="start" x="160" y="-51.5" font-family="Helvetica,sans-Serif" font-size="10.00">+ stop()</text>
<text text-anchor="start" x="160" y="-40.5" font-family="Helvetica,sans-Serif" font-size="10.00">+ run()</text>
<text text-anchor="start" x="160" y="-29.5" font-family="Helvetica,sans-Serif" font-size="10.00">+ firstSolution()</text>
<text text-anchor="start" x="160" y="-18.5" font-family="Helvetica,sans-Serif" font-size="10.00">+ new_engine()</text>
<text text-anchor="start" x="160" y="-7.5" font-family="Helvetica,sans-Serif" font-size="10.00">+ ask_engine()</text>
</g>
<!-- Node1&#45;&gt;Node1 -->
<g id="edge11" class="edge"><title>Node1&#45;&gt;Node1</title>
<path fill="none" stroke="#404040" d="M246.035,-90.5155C256.43,-88.8698 264,-83.0312 264,-73 264,-67.2007 261.47,-62.8027 257.327,-59.8061"/>
<polygon fill="none" stroke="#404040" points="257.243,-59.774 250.209,-61.365 246.035,-55.4845 253.069,-53.8935 257.243,-59.774"/>
<text text-anchor="middle" x="281" y="-70.5" font-family="Helvetica,sans-Serif" font-size="10.00"> &#45;parent</text>
</g>
<!-- Node2 -->
<g id="node2" class="node"><title>Node2</title>
<g id="a_node2"><a xlink:href="../../d2/d07/classprolog_1_1terms_1_1Source.html" target="_top" xlink:title="{prolog.terms.Source\n||+ Source()\l+ getElement()\l+ toList()\l+ toFun()\l}">
<polygon fill="none" stroke="black" points="16,-199 16,-289 120,-289 120,-199 16,-199"/>
<text text-anchor="middle" x="68" y="-277" font-family="Helvetica,sans-Serif" font-size="10.00">prolog.terms.Source</text>
<polyline fill="none" stroke="black" points="16,-270 120,-270 "/>
<text text-anchor="middle" x="68" y="-258" font-family="Helvetica,sans-Serif" font-size="10.00"> </text>
<polyline fill="none" stroke="black" points="16,-251 120,-251 "/>
<text text-anchor="start" x="24" y="-239" font-family="Helvetica,sans-Serif" font-size="10.00">+ Source()</text>
<text text-anchor="start" x="24" y="-228" font-family="Helvetica,sans-Serif" font-size="10.00">+ getElement()</text>
<text text-anchor="start" x="24" y="-217" font-family="Helvetica,sans-Serif" font-size="10.00">+ toList()</text>
<text text-anchor="start" x="24" y="-206" font-family="Helvetica,sans-Serif" font-size="10.00">+ toFun()</text>
</a>
</g>
</g>
<!-- Node2&#45;&gt;Node1 -->
<g id="edge1" class="edge"><title>Node2&#45;&gt;Node1</title>
<path fill="none" stroke="midnightblue" d="M108.57,-190.661C122.243,-173.022 137.619,-153.186 151.761,-134.942"/>
<polygon fill="none" stroke="midnightblue" points="105.779,-188.549 102.419,-198.597 111.311,-192.838 105.779,-188.549"/>
</g>
<!-- Node3 -->
<g id="node3" class="node"><title>Node3</title>
<g id="a_node3"><a xlink:href="../../d9/d3b/classprolog_1_1terms_1_1Fluent.html" target="_top" xlink:title="A Fluent is a Prolog Object which has its own state, subject to changes over time. ">
<polygon fill="none" stroke="black" points="17.5,-332.5 17.5,-444.5 118.5,-444.5 118.5,-332.5 17.5,-332.5"/>
<text text-anchor="middle" x="68" y="-432.5" font-family="Helvetica,sans-Serif" font-size="10.00">prolog.terms.Fluent</text>
<polyline fill="none" stroke="black" points="17.5,-425.5 118.5,-425.5 "/>
<text text-anchor="start" x="25.5" y="-413.5" font-family="Helvetica,sans-Serif" font-size="10.00">&#45; persistent</text>
<polyline fill="none" stroke="black" points="17.5,-406.5 118.5,-406.5 "/>
<text text-anchor="start" x="25.5" y="-394.5" font-family="Helvetica,sans-Serif" font-size="10.00">+ Fluent()</text>
<text text-anchor="start" x="25.5" y="-383.5" font-family="Helvetica,sans-Serif" font-size="10.00">+ setPersistent()</text>
<text text-anchor="start" x="25.5" y="-372.5" font-family="Helvetica,sans-Serif" font-size="10.00">+ getPersistent()</text>
<text text-anchor="start" x="25.5" y="-361.5" font-family="Helvetica,sans-Serif" font-size="10.00">+ stop()</text>
<text text-anchor="start" x="25.5" y="-350.5" font-family="Helvetica,sans-Serif" font-size="10.00"># trailMe()</text>
<text text-anchor="start" x="25.5" y="-339.5" font-family="Helvetica,sans-Serif" font-size="10.00"># undo()</text>
</a>
</g>
</g>
<!-- Node3&#45;&gt;Node2 -->
<g id="edge2" class="edge"><title>Node3&#45;&gt;Node2</title>
<path fill="none" stroke="midnightblue" d="M68,-322.265C68,-311.128 68,-299.793 68,-289.36"/>
<polygon fill="none" stroke="midnightblue" points="64.5001,-322.406 68,-332.406 71.5001,-322.406 64.5001,-322.406"/>
</g>
<!-- Node4 -->
<g id="node4" class="node"><title>Node4</title>
<g id="a_node4"><a xlink:href="../../d6/dc1/classprolog_1_1terms_1_1SystemObject.html" target="_top" xlink:title="A SystemObject is a Nonvar with system assigned name. ">
<polygon fill="none" stroke="black" points="0,-482.5 0,-594.5 136,-594.5 136,-482.5 0,-482.5"/>
<text text-anchor="middle" x="68" y="-582.5" font-family="Helvetica,sans-Serif" font-size="10.00">prolog.terms.SystemObject</text>
<polyline fill="none" stroke="black" points="0,-575.5 136,-575.5 "/>
<text text-anchor="start" x="8" y="-563.5" font-family="Helvetica,sans-Serif" font-size="10.00">~ ctr</text>
<text text-anchor="start" x="8" y="-552.5" font-family="Helvetica,sans-Serif" font-size="10.00">&#45; ordinal</text>
<polyline fill="none" stroke="black" points="0,-545.5 136,-545.5 "/>
<text text-anchor="start" x="8" y="-533.5" font-family="Helvetica,sans-Serif" font-size="10.00">+ SystemObject()</text>
<text text-anchor="start" x="8" y="-522.5" font-family="Helvetica,sans-Serif" font-size="10.00">+ name()</text>
<text text-anchor="start" x="8" y="-511.5" font-family="Helvetica,sans-Serif" font-size="10.00">+ toString()</text>
<text text-anchor="start" x="8" y="-500.5" font-family="Helvetica,sans-Serif" font-size="10.00">+ getArity()</text>
<text text-anchor="start" x="8" y="-489.5" font-family="Helvetica,sans-Serif" font-size="10.00">~ bind_to()</text>
</a>
</g>
</g>
<!-- Node4&#45;&gt;Node3 -->
<g id="edge3" class="edge"><title>Node4&#45;&gt;Node3</title>
<path fill="none" stroke="midnightblue" d="M68,-472.14C68,-462.967 68,-453.614 68,-444.656"/>
<polygon fill="none" stroke="midnightblue" points="64.5001,-472.39 68,-482.39 71.5001,-472.39 64.5001,-472.39"/>
</g>
<!-- Node5 -->
<g id="node5" class="node"><title>Node5</title>
<g id="a_node5"><a xlink:href="../../d4/de0/classprolog_1_1terms_1_1Nonvar.html" target="_top" xlink:title="Part of the Prolog Term hierarchy. ">
<polygon fill="none" stroke="black" points="15.5,-632.5 15.5,-722.5 120.5,-722.5 120.5,-632.5 15.5,-632.5"/>
<text text-anchor="middle" x="68" y="-710.5" font-family="Helvetica,sans-Serif" font-size="10.00">prolog.terms.Nonvar</text>
<polyline fill="none" stroke="black" points="15.5,-703.5 120.5,-703.5 "/>
<text text-anchor="middle" x="68" y="-691.5" font-family="Helvetica,sans-Serif" font-size="10.00"> </text>
<polyline fill="none" stroke="black" points="15.5,-684.5 120.5,-684.5 "/>
<text text-anchor="start" x="23.5" y="-672.5" font-family="Helvetica,sans-Serif" font-size="10.00">+ name()</text>
<text text-anchor="start" x="23.5" y="-661.5" font-family="Helvetica,sans-Serif" font-size="10.00">~ bind_to()</text>
<text text-anchor="start" x="23.5" y="-650.5" font-family="Helvetica,sans-Serif" font-size="10.00">~ unify_to()</text>
<text text-anchor="start" x="23.5" y="-639.5" font-family="Helvetica,sans-Serif" font-size="10.00">~ listify()</text>
</a>
</g>
</g>
<!-- Node5&#45;&gt;Node4 -->
<g id="edge4" class="edge"><title>Node5&#45;&gt;Node4</title>
<path fill="none" stroke="midnightblue" d="M68,-622.293C68,-613.178 68,-603.709 68,-594.572"/>
<polygon fill="none" stroke="midnightblue" points="64.5001,-622.398 68,-632.398 71.5001,-622.398 64.5001,-622.398"/>
</g>
<!-- Node6 -->
<g id="node6" class="node"><title>Node6</title>
<g id="a_node6"><a xlink:href="../../d3/ded/classprolog_1_1terms_1_1Term.html" target="_top" xlink:title="Top element of the Prolog term hierarchy. ">
<polygon fill="none" stroke="black" points="19,-760.5 19,-1114.5 117,-1114.5 117,-760.5 19,-760.5"/>
<text text-anchor="middle" x="68" y="-1102.5" font-family="Helvetica,sans-Serif" font-size="10.00">prolog.terms.Term</text>
<polyline fill="none" stroke="black" points="19,-1095.5 117,-1095.5 "/>
<text text-anchor="start" x="27" y="-1083.5" font-family="Helvetica,sans-Serif" font-size="10.00">+ JAVA</text>
<text text-anchor="start" x="27" y="-1072.5" font-family="Helvetica,sans-Serif" font-size="10.00">+ REAL</text>
<text text-anchor="start" x="27" y="-1061.5" font-family="Helvetica,sans-Serif" font-size="10.00">+ INT</text>
<text text-anchor="start" x="27" y="-1050.5" font-family="Helvetica,sans-Serif" font-size="10.00">+ VAR</text>
<text text-anchor="start" x="27" y="-1039.5" font-family="Helvetica,sans-Serif" font-size="10.00">+ CONST</text>
<polyline fill="none" stroke="black" points="19,-1032.5 117,-1032.5 "/>
<text text-anchor="start" x="27" y="-1020.5" font-family="Helvetica,sans-Serif" font-size="10.00">+ getArity()</text>
<text text-anchor="start" x="27" y="-1009.5" font-family="Helvetica,sans-Serif" font-size="10.00">+ ref()</text>
<text text-anchor="start" x="27" y="-998.5" font-family="Helvetica,sans-Serif" font-size="10.00">+ token()</text>
<text text-anchor="start" x="27" y="-987.5" font-family="Helvetica,sans-Serif" font-size="10.00">+ toClause()</text>
<text text-anchor="start" x="27" y="-976.5" font-family="Helvetica,sans-Serif" font-size="10.00">+ matches()</text>
<text text-anchor="start" x="27" y="-965.5" font-family="Helvetica,sans-Serif" font-size="10.00">+ matches()</text>
<text text-anchor="start" x="27" y="-954.5" font-family="Helvetica,sans-Serif" font-size="10.00">+ matching_copy()</text>
<text text-anchor="start" x="27" y="-943.5" font-family="Helvetica,sans-Serif" font-size="10.00">+ copy()</text>
<text text-anchor="start" x="27" y="-932.5" font-family="Helvetica,sans-Serif" font-size="10.00">+ varsOf()</text>
<text text-anchor="start" x="27" y="-921.5" font-family="Helvetica,sans-Serif" font-size="10.00">+ numbervars()</text>
<text text-anchor="start" x="27" y="-910.5" font-family="Helvetica,sans-Serif" font-size="10.00">and 6 more...</text>
<text text-anchor="start" x="27" y="-899.5" font-family="Helvetica,sans-Serif" font-size="10.00">+ fromString()</text>
<text text-anchor="start" x="27" y="-888.5" font-family="Helvetica,sans-Serif" font-size="10.00">+ charsToString()</text>
<text text-anchor="start" x="27" y="-877.5" font-family="Helvetica,sans-Serif" font-size="10.00">~ bind_to()</text>
<text text-anchor="start" x="27" y="-866.5" font-family="Helvetica,sans-Serif" font-size="10.00">~ unify_to()</text>
<text text-anchor="start" x="27" y="-855.5" font-family="Helvetica,sans-Serif" font-size="10.00">~ toTerm()</text>
<text text-anchor="start" x="27" y="-844.5" font-family="Helvetica,sans-Serif" font-size="10.00">~ isClause()</text>
<text text-anchor="start" x="27" y="-833.5" font-family="Helvetica,sans-Serif" font-size="10.00">~ reaction()</text>
<text text-anchor="start" x="27" y="-822.5" font-family="Helvetica,sans-Serif" font-size="10.00">~ action()</text>
<text text-anchor="start" x="27" y="-811.5" font-family="Helvetica,sans-Serif" font-size="10.00">~ exec()</text>
<text text-anchor="start" x="27" y="-800.5" font-family="Helvetica,sans-Serif" font-size="10.00">~ stringToChars()</text>
<text text-anchor="start" x="27" y="-789.5" font-family="Helvetica,sans-Serif" font-size="10.00"># unify()</text>
<text text-anchor="start" x="27" y="-778.5" font-family="Helvetica,sans-Serif" font-size="10.00"># undo()</text>
<text text-anchor="start" x="27" y="-767.5" font-family="Helvetica,sans-Serif" font-size="10.00"># exec()</text>
</a>
</g>
</g>
<!-- Node6&#45;&gt;Node5 -->
<g id="edge5" class="edge"><title>Node6&#45;&gt;Node5</title>
<path fill="none" stroke="midnightblue" d="M68,-750.384C68,-740.458 68,-731.098 68,-722.617"/>
<polygon fill="none" stroke="midnightblue" points="64.5001,-750.487 68,-760.487 71.5001,-750.487 64.5001,-750.487"/>
</g>
<!-- Node7 -->
<g id="node7" class="node"><title>Node7</title>
<polygon fill="none" stroke="#bfbfbf" points="10.5,-1152.5 10.5,-1209.5 55.5,-1209.5 55.5,-1152.5 10.5,-1152.5"/>
<text text-anchor="middle" x="33" y="-1197.5" font-family="Helvetica,sans-Serif" font-size="10.00">Object</text>
<polyline fill="none" stroke="#bfbfbf" points="10.5,-1190.5 55.5,-1190.5 "/>
<text text-anchor="middle" x="33" y="-1178.5" font-family="Helvetica,sans-Serif" font-size="10.00"> </text>
<polyline fill="none" stroke="#bfbfbf" points="10.5,-1171.5 55.5,-1171.5 "/>
<text text-anchor="middle" x="33" y="-1159.5" font-family="Helvetica,sans-Serif" font-size="10.00"> </text>
</g>
<!-- Node7&#45;&gt;Node6 -->
<g id="edge6" class="edge"><title>Node7&#45;&gt;Node6</title>
<path fill="none" stroke="midnightblue" d="M38.4619,-1142.31C39.6703,-1133.97 41.0272,-1124.61 42.478,-1114.6"/>
<polygon fill="none" stroke="midnightblue" points="34.9855,-1141.9 37.0149,-1152.3 41.9131,-1142.9 34.9855,-1141.9"/>
</g>
<!-- Node8 -->
<g id="node8" class="node"><title>Node8</title>
<polygon fill="none" stroke="#bfbfbf" points="74,-1152.5 74,-1209.5 134,-1209.5 134,-1152.5 74,-1152.5"/>
<text text-anchor="middle" x="104" y="-1197.5" font-family="Helvetica,sans-Serif" font-size="10.00">Cloneable</text>
<polyline fill="none" stroke="#bfbfbf" points="74,-1190.5 134,-1190.5 "/>
<text text-anchor="middle" x="104" y="-1178.5" font-family="Helvetica,sans-Serif" font-size="10.00"> </text>
<polyline fill="none" stroke="#bfbfbf" points="74,-1171.5 134,-1171.5 "/>
<text text-anchor="middle" x="104" y="-1159.5" font-family="Helvetica,sans-Serif" font-size="10.00"> </text>
</g>
<!-- Node8&#45;&gt;Node6 -->
<g id="edge7" class="edge"><title>Node8&#45;&gt;Node6</title>
<path fill="none" stroke="midnightblue" d="M98.382,-1142.31C97.1391,-1133.97 95.7434,-1124.61 94.2512,-1114.6"/>
<polygon fill="none" stroke="midnightblue" points="94.9341,-1142.92 99.8703,-1152.3 101.858,-1141.89 94.9341,-1142.92"/>
</g>
<!-- Node9 -->
<g id="node9" class="node"><title>Node9</title>
<polygon fill="none" stroke="#bfbfbf" points="138,-215.5 138,-272.5 196,-272.5 196,-215.5 138,-215.5"/>
<text text-anchor="middle" x="167" y="-260.5" font-family="Helvetica,sans-Serif" font-size="10.00">Runnable</text>
<polyline fill="none" stroke="#bfbfbf" points="138,-253.5 196,-253.5 "/>
<text text-anchor="middle" x="167" y="-241.5" font-family="Helvetica,sans-Serif" font-size="10.00"> </text>
<polyline fill="none" stroke="#bfbfbf" points="138,-234.5 196,-234.5 "/>
<text text-anchor="middle" x="167" y="-222.5" font-family="Helvetica,sans-Serif" font-size="10.00"> </text>
</g>
<!-- Node9&#45;&gt;Node1 -->
<g id="edge8" class="edge"><title>Node9&#45;&gt;Node1</title>
<path fill="none" stroke="midnightblue" d="M174.085,-205.584C177.426,-187.937 181.529,-166.266 185.435,-145.642"/>
<polygon fill="none" stroke="midnightblue" points="170.634,-204.995 172.213,-215.471 177.512,-206.297 170.634,-204.995"/>
</g>
<!-- Node10 -->
<g id="node10" class="node"><title>Node10</title>
<g id="a_node10"><a xlink:href="../../da/d93/classprolog_1_1terms_1_1ObjectStack.html" target="_top" xlink:title="{prolog.terms.ObjectStack\n||+ push()\l+ pop()\l}">
<polygon fill="none" stroke="black" points="200,-354.5 200,-422.5 328,-422.5 328,-354.5 200,-354.5"/>
<text text-anchor="middle" x="264" y="-410.5" font-family="Helvetica,sans-Serif" font-size="10.00">prolog.terms.ObjectStack</text>
<polyline fill="none" stroke="black" points="200,-403.5 328,-403.5 "/>
<text text-anchor="middle" x="264" y="-391.5" font-family="Helvetica,sans-Serif" font-size="10.00"> </text>
<polyline fill="none" stroke="black" points="200,-384.5 328,-384.5 "/>
<text text-anchor="start" x="208" y="-372.5" font-family="Helvetica,sans-Serif" font-size="10.00">+ push()</text>
<text text-anchor="start" x="208" y="-361.5" font-family="Helvetica,sans-Serif" font-size="10.00">+ pop()</text>
</a>
</g>
</g>
<!-- Node10&#45;&gt;Node1 -->
<g id="edge9" class="edge"><title>Node10&#45;&gt;Node1</title>
<path fill="none" stroke="#404040" d="M255.245,-354.21C250.748,-336.653 245.322,-314.721 241,-295 231.107,-249.862 221.387,-199.238 213.793,-157.843"/>
<polygon fill="none" stroke="#404040" points="213.762,-157.673 208.75,-152.489 211.609,-145.868 216.621,-151.053 213.762,-157.673"/>
<text text-anchor="middle" x="261" y="-241.5" font-family="Helvetica,sans-Serif" font-size="10.00"> &#45;orStack</text>
</g>
<!-- Node12 -->
<g id="node12" class="node"><title>Node12</title>
<g id="a_node12"><a xlink:href="../../dd/dad/classprolog_1_1terms_1_1Trail.html" target="_top" xlink:title="Implements a stack of undo actions for backtracking, and in particular, resetting a Var&#39;s val fiels t...">
<polygon fill="none" stroke="black" points="290,-193.5 290,-294.5 382,-294.5 382,-193.5 290,-193.5"/>
<text text-anchor="middle" x="336" y="-282.5" font-family="Helvetica,sans-Serif" font-size="10.00">prolog.terms.Trail</text>
<polyline fill="none" stroke="black" points="290,-275.5 382,-275.5 "/>
<text text-anchor="middle" x="336" y="-263.5" font-family="Helvetica,sans-Serif" font-size="10.00"> </text>
<polyline fill="none" stroke="black" points="290,-256.5 382,-256.5 "/>
<text text-anchor="start" x="298" y="-244.5" font-family="Helvetica,sans-Serif" font-size="10.00">+ Trail()</text>
<text text-anchor="start" x="298" y="-233.5" font-family="Helvetica,sans-Serif" font-size="10.00">+ name()</text>
<text text-anchor="start" x="298" y="-222.5" font-family="Helvetica,sans-Serif" font-size="10.00">+ pprint()</text>
<text text-anchor="start" x="298" y="-211.5" font-family="Helvetica,sans-Serif" font-size="10.00">+ unwind()</text>
<text text-anchor="start" x="298" y="-200.5" font-family="Helvetica,sans-Serif" font-size="10.00">+ stat()</text>
</a>
</g>
</g>
<!-- Node10&#45;&gt;Node12 -->
<g id="edge13" class="edge"><title>Node10&#45;&gt;Node12</title>
<path fill="none" stroke="midnightblue" d="M285.284,-345.376C293.328,-329.454 302.558,-311.188 310.919,-294.64"/>
<polygon fill="none" stroke="midnightblue" points="282.085,-343.946 280.699,-354.449 288.333,-347.102 282.085,-343.946"/>
</g>
<!-- Node11 -->
<g id="node11" class="node"><title>Node11</title>
<polygon fill="none" stroke="#bfbfbf" points="236,-510 236,-567 292,-567 292,-510 236,-510"/>
<text text-anchor="middle" x="264" y="-555" font-family="Helvetica,sans-Serif" font-size="10.00">ArrayList</text>
<polyline fill="none" stroke="#bfbfbf" points="236,-548 292,-548 "/>
<text text-anchor="middle" x="264" y="-536" font-family="Helvetica,sans-Serif" font-size="10.00"> </text>
<polyline fill="none" stroke="#bfbfbf" points="236,-529 292,-529 "/>
<text text-anchor="middle" x="264" y="-517" font-family="Helvetica,sans-Serif" font-size="10.00"> </text>
</g>
<!-- Node11&#45;&gt;Node10 -->
<g id="edge10" class="edge"><title>Node11&#45;&gt;Node10</title>
<path fill="none" stroke="midnightblue" d="M264,-499.586C264,-475.812 264,-445.457 264,-422.646"/>
<polygon fill="none" stroke="midnightblue" points="260.5,-499.662 264,-509.662 267.5,-499.662 260.5,-499.662"/>
</g>
<!-- Node12&#45;&gt;Node1 -->
<g id="edge12" class="edge"><title>Node12&#45;&gt;Node1</title>
<path fill="none" stroke="#404040" d="M295.636,-193.208C282.517,-177.025 267.731,-158.785 253.743,-141.53"/>
<polygon fill="none" stroke="#404040" points="253.627,-141.386 246.741,-139.244 246.07,-132.064 252.955,-134.206 253.627,-141.386"/>
<text text-anchor="middle" x="291" y="-167" font-family="Helvetica,sans-Serif" font-size="10.00"> &#45;trail</text>
</g>
</g>
</svg>
        <g id="navigator" transform="translate(0 0)" fill="#404254">
                <rect fill="#f2f5e9" fill-opacity="0.5" stroke="#606060" stroke-width=".5" x="0" y="0" width="60" height="60"/>
                <use id="zoomplus" xlink:href="#zoomPlus" x="17" y="9" onmousedown="handleZoom(evt,'in')"/>
                <use id="zoomminus" xlink:href="#zoomMin" x="42" y="9" onmousedown="handleZoom(evt,'out')"/>
                <use id="reset" xlink:href="#resetDef" x="30" y="36" onmousedown="handleReset()"/>
                <g id="arrowUp" xlink:href="#dirArrow" transform="translate(30 24)" onmousedown="handlePan(0,-1)">
                  <use xlink:href="#rim" fill="#404040">
                        <set attributeName="fill" to="#808080" begin="arrowUp.mouseover" end="arrowUp.mouseout"/>
                  </use>
                  <path fill="none" stroke="white" stroke-width="1.5" d="M0,-3.0v7 M-2.5,-0.5L0,-3.0L2.5,-0.5"/>
                </g>
                <g id="arrowRight" xlink:href="#dirArrow" transform="rotate(90) translate(36 -43)" onmousedown="handlePan(1,0)">
                  <use xlink:href="#rim" fill="#404040">
                        <set attributeName="fill" to="#808080" begin="arrowRight.mouseover" end="arrowRight.mouseout"/>
                  </use>
                  <path fill="none" stroke="white" stroke-width="1.5" d="M0,-3.0v7 M-2.5,-0.5L0,-3.0L2.5,-0.5"/>
                </g>
                <g id="arrowDown" xlink:href="#dirArrow" transform="rotate(180) translate(-30 -48)" onmousedown="handlePan(0,1)">
                  <use xlink:href="#rim" fill="#404040">
                        <set attributeName="fill" to="#808080" begin="arrowDown.mouseover" end="arrowDown.mouseout"/>
                  </use>
                  <path fill="none" stroke="white" stroke-width="1.5" d="M0,-3.0v7 M-2.5,-0.5L0,-3.0L2.5,-0.5"/>
                </g>
                <g id="arrowLeft" xlink:href="#dirArrow" transform="rotate(270) translate(-36 17)" onmousedown="handlePan(-1,0)">
                  <use xlink:href="#rim" fill="#404040">
                        <set attributeName="fill" to="#808080" begin="arrowLeft.mouseover" end="arrowLeft.mouseout"/>
                  </use>
                  <path fill="none" stroke="white" stroke-width="1.5" d="M0,-3.0v7 M-2.5,-0.5L0,-3.0L2.5,-0.5"/>
                </g>
        </g>
        <svg viewBox="0 0 15 15" width="100%" height="30px" preserveAspectRatio="xMaxYMin meet">
         <g id="arrow_out" transform="scale(0.3 0.3)">
          <a xlink:href="classprolog_1_1terms_1_1Prog__coll__graph_org.svg" target="_base">
           <rect id="button" ry="5" rx="5" y="6" x="6" height="38" width="38"
                fill="#f2f5e9" fill-opacity="0.5" stroke="#606060" stroke-width="1.0"/>
           <path id="arrow"
             d="M 11.500037,31.436501 C 11.940474,20.09759 22.043105,11.32322 32.158766,21.979434 L 37.068811,17.246167 C 37.068811,17.246167 37.088388,32 37.088388,32 L 22.160133,31.978069 C 22.160133,31.978069 26.997745,27.140456 26.997745,27.140456 C 18.528582,18.264221 13.291696,25.230495 11.500037,31.436501 z"
             style="fill:#404040;"/>
          </a>
         </g>
        </svg>
</svg>
