<?xml version="1.0" encoding="UTF-8" standalone="no"?>
<!DOCTYPE svg PUBLIC "-//W3C//DTD SVG 1.1//EN"
 "http://www.w3.org/Graphics/SVG/1.1/DTD/svg11.dtd">
<!-- Generated by graphviz version 2.38.0 (20140413.2041)
 -->
<!-- Title: prolog.terms.ObjectStack.push Pages: 1 -->
<!--zoomable 230 -->
<svg id="main" version="1.1" xmlns="http://www.w3.org/2000/svg" xmlns:xlink="http://www.w3.org/1999/xlink" xml:space="preserve" onload="init(evt)">
<style type="text/css"><![CDATA[
.edge:hover path { stroke: red; }
.edge:hover polygon { stroke: red; fill: red; }
]]></style>
<script type="text/javascript"><![CDATA[
var edges = document.getElementsByTagName('g');
if (edges && edges.length) {
  for (var i=0;i<edges.length;i++) {
    if (edges[i].id.substr(0,4)=='edge') {
      edges[i].setAttribute('class','edge');
    }
  }
}
]]></script>
        <defs>
                <circle id="rim" cx="0" cy="0" r="7"/>
                <circle id="rim2" cx="0" cy="0" r="3.5"/>
                <g id="zoomPlus">
                        <use xlink:href="#rim" fill="#404040">
                                <set attributeName="fill" to="#808080" begin="zoomplus.mouseover" end="zoomplus.mouseout"/>
                        </use>
                        <path d="M-4,0h8M0,-4v8" fill="none" stroke="white" stroke-width="1.5" pointer-events="none"/>
                </g>
                <g id="zoomMin">
                        <use xlink:href="#rim" fill="#404040">
                                <set attributeName="fill" to="#808080" begin="zoomminus.mouseover" end="zoomminus.mouseout"/>
                        </use>
                        <path d="M-4,0h8" fill="none" stroke="white" stroke-width="1.5" pointer-events="none"/>
                </g>
                <g id="dirArrow">
                        <path fill="none" stroke="white" stroke-width="1.5" d="M0,-3.0v7 M-2.5,-0.5L0,-3.0L2.5,-0.5"/>
                </g>
               <g id="resetDef">
                       <use xlink:href="#rim2" fill="#404040">
                               <set attributeName="fill" to="#808080" begin="reset.mouseover" end="reset.mouseout"/>
                       </use>
               </g>
        </defs>

<script type="text/javascript">
var viewWidth = 1264;
var viewHeight = 230;
var sectionId = 'dynsection-0';
</script>
<script xlink:href="../../svgpan.js"/>
<svg id="graph" class="graph">
<g id="viewport">
<title>prolog.terms.ObjectStack.push</title>
<!-- Node1 -->
<g id="node1" class="node"><title>Node1</title>
<polygon fill="#bfbfbf" stroke="black" points="0,-97.5 0,-116.5 152,-116.5 152,-97.5 0,-97.5"/>
<text text-anchor="middle" x="76" y="-104.5" font-family="Helvetica,sans-Serif" font-size="10.00">prolog.terms.ObjectStack.push</text>
</g>
<!-- Node2 -->
<g id="node2" class="node"><title>Node2</title>
<g id="a_node2"><a xlink:href="../../d1/d12/classprolog_1_1terms_1_1Var_aab2e1e9e10119c909c369d351730ca5d.html#aab2e1e9e10119c909c369d351730ca5d" target="_top" xlink:title="prolog.terms.Var.bind_to">
<polygon fill="none" stroke="black" points="199.5,-156.5 199.5,-175.5 322.5,-175.5 322.5,-156.5 199.5,-156.5"/>
<text text-anchor="middle" x="261" y="-163.5" font-family="Helvetica,sans-Serif" font-size="10.00">prolog.terms.Var.bind_to</text>
</a>
</g>
</g>
<!-- Node1&#45;&gt;Node2 -->
<g id="edge1" class="edge"><title>Node1&#45;&gt;Node2</title>
<path fill="none" stroke="midnightblue" d="M110.967,-120.117C132.807,-128.332 161.882,-138.865 188,-147 198.738,-150.345 210.494,-153.61 221.334,-156.465"/>
<polygon fill="midnightblue" stroke="midnightblue" points="112.07,-116.792 101.478,-116.522 109.59,-123.338 112.07,-116.792"/>
</g>
<!-- Node3 -->
<g id="node3" class="node"><title>Node3</title>
<g id="a_node3"><a xlink:href="../../d4/d26/classprolog_1_1terms_1_1Prog_ac5d988b907a2843fcfcba4d1fd1e0deb.html#ac5d988b907a2843fcfcba4d1fd1e0deb" target="_top" xlink:title="Here is where actual LD&#45;resolution computation happens. ">
<polygon fill="none" stroke="black" points="188,-118.5 188,-137.5 334,-137.5 334,-118.5 188,-118.5"/>
<text text-anchor="middle" x="261" y="-125.5" font-family="Helvetica,sans-Serif" font-size="10.00">prolog.terms.Prog.getElement</text>
</a>
</g>
</g>
<!-- Node1&#45;&gt;Node3 -->
<g id="edge2" class="edge"><title>Node1&#45;&gt;Node3</title>
<path fill="none" stroke="midnightblue" d="M162.193,-116.776C170.728,-117.756 179.337,-118.744 187.72,-119.706"/>
<polygon fill="midnightblue" stroke="midnightblue" points="162.559,-113.295 152.225,-115.632 161.761,-120.25 162.559,-113.295"/>
</g>
<!-- Node19 -->
<g id="node19" class="node"><title>Node19</title>
<g id="a_node19"><a xlink:href="../../d4/d26/classprolog_1_1terms_1_1Prog_a9e9f1fcf979c833292d594d709d0f689.html#a9e9f1fcf979c833292d594d709d0f689" target="_top" xlink:title="Creates a Prog starting execution with argument &quot;goal&quot;. ">
<polygon fill="none" stroke="black" points="202.5,-77.5 202.5,-96.5 319.5,-96.5 319.5,-77.5 202.5,-77.5"/>
<text text-anchor="middle" x="261" y="-84.5" font-family="Helvetica,sans-Serif" font-size="10.00">prolog.terms.Prog.Prog</text>
</a>
</g>
</g>
<!-- Node1&#45;&gt;Node19 -->
<g id="edge20" class="edge"><title>Node1&#45;&gt;Node19</title>
<path fill="none" stroke="midnightblue" d="M162.511,-97.6545C176.033,-96.1768 189.729,-94.6799 202.413,-93.2937"/>
<polygon fill="midnightblue" stroke="midnightblue" points="161.786,-94.2129 152.225,-98.7787 162.546,-101.171 161.786,-94.2129"/>
</g>
<!-- Node21 -->
<g id="node21" class="node"><title>Node21</title>
<g id="a_node21"><a xlink:href="../../d9/d3b/classprolog_1_1terms_1_1Fluent_a3c1044cbcc0a51071835cc070fb1a7da.html#a3c1044cbcc0a51071835cc070fb1a7da" target="_top" xlink:title="Adds this Fluent to the parent Solver&#39;s trail, which will eventually call the undo method of the Flue...">
<polygon fill="none" stroke="black" points="194.5,-36.5 194.5,-55.5 327.5,-55.5 327.5,-36.5 194.5,-36.5"/>
<text text-anchor="middle" x="261" y="-43.5" font-family="Helvetica,sans-Serif" font-size="10.00">prolog.terms.Fluent.trailMe</text>
</a>
</g>
</g>
<!-- Node1&#45;&gt;Node21 -->
<g id="edge23" class="edge"><title>Node1&#45;&gt;Node21</title>
<path fill="none" stroke="midnightblue" d="M112.825,-93.9903C134.508,-86.2221 162.756,-76.2875 188,-68 200.915,-63.76 215.22,-59.3341 227.653,-55.5732"/>
<polygon fill="midnightblue" stroke="midnightblue" points="111.586,-90.7165 103.36,-97.3933 113.954,-97.3037 111.586,-90.7165"/>
</g>
<!-- Node4 -->
<g id="node4" class="node"><title>Node4</title>
<g id="a_node4"><a xlink:href="../../d4/d26/classprolog_1_1terms_1_1Prog_a696a0c92a1814ecf4f21fb09fbc854a0.html#a696a0c92a1814ecf4f21fb09fbc854a0" target="_top" xlink:title="asks a logic engine to return a solution ">
<polygon fill="none" stroke="black" points="379,-159 379,-189 492,-189 492,-159 379,-159"/>
<text text-anchor="start" x="387" y="-177" font-family="Helvetica,sans-Serif" font-size="10.00">prolog.terms.Prog.ask</text>
<text text-anchor="middle" x="435.5" y="-166" font-family="Helvetica,sans-Serif" font-size="10.00">_engine</text>
</a>
</g>
</g>
<!-- Node3&#45;&gt;Node4 -->
<g id="edge3" class="edge"><title>Node3&#45;&gt;Node4</title>
<path fill="none" stroke="midnightblue" d="M308.16,-140.148C316.751,-142.419 325.649,-144.776 334,-147 348.578,-150.882 364.338,-155.104 378.958,-159.031"/>
<polygon fill="midnightblue" stroke="midnightblue" points="308.829,-136.705 298.267,-137.537 307.043,-143.474 308.829,-136.705"/>
</g>
<!-- Node18 -->
<g id="node18" class="node"><title>Node18</title>
<g id="a_node18"><a xlink:href="../../d4/d26/classprolog_1_1terms_1_1Prog_a45a00a5df54d8c378930f320020b457f.html#a45a00a5df54d8c378930f320020b457f" target="_top" xlink:title="usable for launching on a separate thread ">
<polygon fill="none" stroke="black" points="380.5,-120.5 380.5,-139.5 490.5,-139.5 490.5,-120.5 380.5,-120.5"/>
<text text-anchor="middle" x="435.5" y="-127.5" font-family="Helvetica,sans-Serif" font-size="10.00">prolog.terms.Prog.run</text>
</a>
</g>
</g>
<!-- Node3&#45;&gt;Node18 -->
<g id="edge19" class="edge"><title>Node3&#45;&gt;Node18</title>
<path fill="none" stroke="midnightblue" d="M344.403,-128.955C356.656,-129.097 369.013,-129.241 380.482,-129.374"/>
<polygon fill="midnightblue" stroke="midnightblue" points="344.196,-125.453 334.156,-128.837 344.115,-132.452 344.196,-125.453"/>
</g>
<!-- Node5 -->
<g id="node5" class="node"><title>Node5</title>
<g id="a_node5"><a xlink:href="../../d8/d35/classprolog_1_1Init_a34d43d3123bb194902cbcb1c06194cce.html#a34d43d3123bb194902cbcb1c06194cce" target="_top" xlink:title="evalutes a query ">
<polygon fill="none" stroke="black" points="751,-164.5 751,-183.5 852,-183.5 852,-164.5 751,-164.5"/>
<text text-anchor="middle" x="801.5" y="-171.5" font-family="Helvetica,sans-Serif" font-size="10.00">prolog.Init.evalGoal</text>
</a>
</g>
</g>
<!-- Node4&#45;&gt;Node5 -->
<g id="edge4" class="edge"><title>Node4&#45;&gt;Node5</title>
<path fill="none" stroke="midnightblue" d="M502.427,-174C573.974,-174 686.589,-174 750.965,-174"/>
<polygon fill="midnightblue" stroke="midnightblue" points="502.18,-170.5 492.18,-174 502.18,-177.5 502.18,-170.5"/>
</g>
<!-- Node9 -->
<g id="node9" class="node"><title>Node9</title>
<g id="a_node9"><a xlink:href="../../d4/d26/classprolog_1_1terms_1_1Prog_afb6f86119db8ba133de23f8bfe24ba2e.html#afb6f86119db8ba133de23f8bfe24ba2e" target="_top" xlink:title="Computes a copy of the first solution X of Goal G. ">
<polygon fill="none" stroke="black" points="537,-120.5 537,-139.5 686,-139.5 686,-120.5 537,-120.5"/>
<text text-anchor="middle" x="611.5" y="-127.5" font-family="Helvetica,sans-Serif" font-size="10.00">prolog.terms.Prog.firstSolution</text>
</a>
</g>
</g>
<!-- Node4&#45;&gt;Node9 -->
<g id="edge8" class="edge"><title>Node4&#45;&gt;Node9</title>
<path fill="none" stroke="midnightblue" d="M501.783,-157.492C525.745,-151.432 552.055,-144.779 572.791,-139.536"/>
<polygon fill="midnightblue" stroke="midnightblue" points="500.87,-154.112 492.033,-159.957 502.586,-160.899 500.87,-154.112"/>
</g>
<!-- Node6 -->
<g id="node6" class="node"><title>Node6</title>
<g id="a_node6"><a xlink:href="../../d8/d35/classprolog_1_1Init_a2471811f50fbed4de5df26ee530f1e2e.html#a2471811f50fbed4de5df26ee530f1e2e" target="_top" xlink:title="evaluates and times a Goal querying program P ">
<polygon fill="none" stroke="black" points="940.5,-164.5 940.5,-183.5 1041.5,-183.5 1041.5,-164.5 940.5,-164.5"/>
<text text-anchor="middle" x="991" y="-171.5" font-family="Helvetica,sans-Serif" font-size="10.00">prolog.Init.timeGoal</text>
</a>
</g>
</g>
<!-- Node5&#45;&gt;Node6 -->
<g id="edge5" class="edge"><title>Node5&#45;&gt;Node6</title>
<path fill="none" stroke="midnightblue" d="M862.406,-174C887.538,-174 916.418,-174 940.339,-174"/>
<polygon fill="midnightblue" stroke="midnightblue" points="862.254,-170.5 852.254,-174 862.254,-177.5 862.254,-170.5"/>
</g>
<!-- Node7 -->
<g id="node7" class="node"><title>Node7</title>
<g id="a_node7"><a xlink:href="../../d8/d35/classprolog_1_1Init_a0348efff7140aed75f8364f90b7c2b8b.html#a0348efff7140aed75f8364f90b7c2b8b" target="_top" xlink:title="prolog.Init.run_query">
<polygon fill="none" stroke="black" points="1126,-202.5 1126,-221.5 1231,-221.5 1231,-202.5 1126,-202.5"/>
<text text-anchor="middle" x="1178.5" y="-209.5" font-family="Helvetica,sans-Serif" font-size="10.00">prolog.Init.run_query</text>
</a>
</g>
</g>
<!-- Node6&#45;&gt;Node7 -->
<g id="edge6" class="edge"><title>Node6&#45;&gt;Node7</title>
<path fill="none" stroke="midnightblue" d="M1048.67,-185.61C1075.06,-191.014 1106.05,-197.364 1131.03,-202.48"/>
<polygon fill="midnightblue" stroke="midnightblue" points="1049.31,-182.167 1038.81,-183.589 1047.9,-189.025 1049.31,-182.167"/>
</g>
<!-- Node8 -->
<g id="node8" class="node"><title>Node8</title>
<g id="a_node8"><a xlink:href="../../d8/d35/classprolog_1_1Init_a3e8704cf8b2d909fccc79e967dd48171.html#a3e8704cf8b2d909fccc79e967dd48171" target="_top" xlink:title="prolog.Init.standardTop">
<polygon fill="none" stroke="black" points="1120.5,-164.5 1120.5,-183.5 1236.5,-183.5 1236.5,-164.5 1120.5,-164.5"/>
<text text-anchor="middle" x="1178.5" y="-171.5" font-family="Helvetica,sans-Serif" font-size="10.00">prolog.Init.standardTop</text>
</a>
</g>
</g>
<!-- Node6&#45;&gt;Node8 -->
<g id="edge7" class="edge"><title>Node6&#45;&gt;Node8</title>
<path fill="none" stroke="midnightblue" d="M1051.92,-174C1073.9,-174 1098.7,-174 1120.43,-174"/>
<polygon fill="midnightblue" stroke="midnightblue" points="1051.71,-170.5 1041.71,-174 1051.71,-177.5 1051.71,-170.5"/>
</g>
<!-- Node9&#45;&gt;Node5 -->
<g id="edge12" class="edge"><title>Node9&#45;&gt;Node5</title>
<path fill="none" stroke="midnightblue" d="M663.245,-141.876C693.529,-148.964 731.473,-157.845 759.786,-164.471"/>
<polygon fill="midnightblue" stroke="midnightblue" points="663.828,-138.418 653.293,-139.547 662.232,-145.234 663.828,-138.418"/>
</g>
<!-- Node10 -->
<g id="node10" class="node"><title>Node10</title>
<g id="a_node10"><a xlink:href="../../da/dd9/classprolog_1_1fluents_1_1DataBase_a6f8041bc2bcb5cdd8a376e81a3dc4dca.html#a6f8041bc2bcb5cdd8a376e81a3dc4dca" target="_top" xlink:title="adds a Clause to the joint Linda and Predicate table ">
<polygon fill="none" stroke="black" points="722,-115 722,-145 881,-145 881,-115 722,-115"/>
<text text-anchor="start" x="730" y="-133" font-family="Helvetica,sans-Serif" font-size="10.00">prolog.fluents.DataBase.process</text>
<text text-anchor="middle" x="801.5" y="-122" font-family="Helvetica,sans-Serif" font-size="10.00">Clause</text>
</a>
</g>
</g>
<!-- Node9&#45;&gt;Node10 -->
<g id="edge9" class="edge"><title>Node9&#45;&gt;Node10</title>
<path fill="none" stroke="midnightblue" d="M696.524,-130C704.997,-130 713.579,-130 721.99,-130"/>
<polygon fill="midnightblue" stroke="midnightblue" points="696.263,-126.5 686.263,-130 696.263,-133.5 696.263,-126.5"/>
</g>
<!-- Node13 -->
<g id="node13" class="node"><title>Node13</title>
<g id="a_node13"><a xlink:href="../../d8/d35/classprolog_1_1Init_a4a7b9ae1dc4d489e657326f3ed5a4b7e.html#a4a7b9ae1dc4d489e657326f3ed5a4b7e" target="_top" xlink:title="Asks Prolog a query Answer, Goal and returns the first solution of the form &quot;the(Answer)&quot; or the cons...">
<polygon fill="none" stroke="black" points="748.5,-57.5 748.5,-76.5 854.5,-76.5 854.5,-57.5 748.5,-57.5"/>
<text text-anchor="middle" x="801.5" y="-64.5" font-family="Helvetica,sans-Serif" font-size="10.00">prolog.Init.askProlog</text>
</a>
</g>
</g>
<!-- Node9&#45;&gt;Node13 -->
<g id="edge13" class="edge"><title>Node9&#45;&gt;Node13</title>
<path fill="none" stroke="midnightblue" d="M650.704,-117.198C686.635,-105.157 739.611,-87.4043 771.987,-76.555"/>
<polygon fill="midnightblue" stroke="midnightblue" points="649.423,-113.936 641.053,-120.432 651.647,-120.573 649.423,-113.936"/>
</g>
<!-- Node11 -->
<g id="node11" class="node"><title>Node11</title>
<g id="a_node11"><a xlink:href="../../da/dd9/classprolog_1_1fluents_1_1DataBase_a83885e10b61d6bf129307d9bf50d93de.html#a83885e10b61d6bf129307d9bf50d93de" target="_top" xlink:title="prolog.fluents.DataBase.apply\l_parser">
<polygon fill="none" stroke="black" points="917,-115 917,-145 1065,-145 1065,-115 917,-115"/>
<text text-anchor="start" x="925" y="-133" font-family="Helvetica,sans-Serif" font-size="10.00">prolog.fluents.DataBase.apply</text>
<text text-anchor="middle" x="991" y="-122" font-family="Helvetica,sans-Serif" font-size="10.00">_parser</text>
</a>
</g>
</g>
<!-- Node10&#45;&gt;Node11 -->
<g id="edge10" class="edge"><title>Node10&#45;&gt;Node11</title>
<path fill="none" stroke="midnightblue" d="M891.24,-130C899.828,-130 908.473,-130 916.884,-130"/>
<polygon fill="midnightblue" stroke="midnightblue" points="891.202,-126.5 881.202,-130 891.202,-133.5 891.202,-126.5"/>
</g>
<!-- Node12 -->
<g id="node12" class="node"><title>Node12</title>
<g id="a_node12"><a xlink:href="../../da/dd9/classprolog_1_1fluents_1_1DataBase_af8b26948ded7bba6386b984f463bf166.html#af8b26948ded7bba6386b984f463bf166" target="_top" xlink:title="prolog.fluents.DataBase.stream\lToProg">
<polygon fill="none" stroke="black" points="1101,-115 1101,-145 1256,-145 1256,-115 1101,-115"/>
<text text-anchor="start" x="1109" y="-133" font-family="Helvetica,sans-Serif" font-size="10.00">prolog.fluents.DataBase.stream</text>
<text text-anchor="middle" x="1178.5" y="-122" font-family="Helvetica,sans-Serif" font-size="10.00">ToProg</text>
</a>
</g>
</g>
<!-- Node11&#45;&gt;Node12 -->
<g id="edge11" class="edge"><title>Node11&#45;&gt;Node12</title>
<path fill="none" stroke="midnightblue" d="M1075.06,-130C1083.65,-130 1092.34,-130 1100.86,-130"/>
<polygon fill="midnightblue" stroke="midnightblue" points="1075.05,-126.5 1065.05,-130 1075.05,-133.5 1075.05,-126.5"/>
</g>
<!-- Node14 -->
<g id="node14" class="node"><title>Node14</title>
<g id="a_node14"><a xlink:href="../../d8/d35/classprolog_1_1Init_ae5fe9e2dc533d32690edbbec3b1c279b.html#ae5fe9e2dc533d32690edbbec3b1c279b" target="_top" xlink:title="Asks Prolog a query Goal and returns the first solution of the form &quot;the(Answer)&quot; ...">
<polygon fill="none" stroke="black" points="938,-76.5 938,-95.5 1044,-95.5 1044,-76.5 938,-76.5"/>
<text text-anchor="middle" x="991" y="-83.5" font-family="Helvetica,sans-Serif" font-size="10.00">prolog.Init.askProlog</text>
</a>
</g>
</g>
<!-- Node13&#45;&gt;Node14 -->
<g id="edge14" class="edge"><title>Node13&#45;&gt;Node14</title>
<path fill="none" stroke="midnightblue" d="M864.986,-73.3319C888.582,-75.7229 915.161,-78.4163 937.726,-80.7029"/>
<polygon fill="midnightblue" stroke="midnightblue" points="865.031,-69.8186 854.729,-72.2926 864.325,-76.783 865.031,-69.8186"/>
</g>
<!-- Node15 -->
<g id="node15" class="node"><title>Node15</title>
<g id="a_node15"><a xlink:href="../../da/dde/classprolog_1_1Main_aca445add96cb95be654213f0e42d5b76.html#aca445add96cb95be654213f0e42d5b76" target="_top" xlink:title="prolog.Main.init">
<polygon fill="none" stroke="black" points="949.5,-38.5 949.5,-57.5 1032.5,-57.5 1032.5,-38.5 949.5,-38.5"/>
<text text-anchor="middle" x="991" y="-45.5" font-family="Helvetica,sans-Serif" font-size="10.00">prolog.Main.init</text>
</a>
</g>
</g>
<!-- Node13&#45;&gt;Node15 -->
<g id="edge15" class="edge"><title>Node13&#45;&gt;Node15</title>
<path fill="none" stroke="midnightblue" d="M864.775,-60.6895C892.613,-57.8685 924.641,-54.6231 949.337,-52.1205"/>
<polygon fill="midnightblue" stroke="midnightblue" points="864.325,-57.217 854.729,-61.7074 865.031,-64.1813 864.325,-57.217"/>
</g>
<!-- Node17 -->
<g id="node17" class="node"><title>Node17</title>
<g id="a_node17"><a xlink:href="../../d8/d35/classprolog_1_1Init_a7293b6db1f53eca4730418c54ab07109.html#a7293b6db1f53eca4730418c54ab07109" target="_top" xlink:title="prolog.Init.run">
<polygon fill="none" stroke="black" points="953,-0.5 953,-19.5 1029,-19.5 1029,-0.5 953,-0.5"/>
<text text-anchor="middle" x="991" y="-7.5" font-family="Helvetica,sans-Serif" font-size="10.00">prolog.Init.run</text>
</a>
</g>
</g>
<!-- Node13&#45;&gt;Node17 -->
<g id="edge17" class="edge"><title>Node13&#45;&gt;Node17</title>
<path fill="none" stroke="midnightblue" d="M839.393,-54.0706C861.736,-46.4117 890.874,-36.7261 917,-29 928.554,-25.5833 941.231,-22.1685 952.732,-19.1955"/>
<polygon fill="midnightblue" stroke="midnightblue" points="837.953,-50.8646 829.64,-57.4327 840.235,-57.4825 837.953,-50.8646"/>
</g>
<!-- Node16 -->
<g id="node16" class="node"><title>Node16</title>
<g id="a_node16"><a xlink:href="../../da/dde/classprolog_1_1Main_ab0b3345fa72bd3b96c565437b962efa3.html#ab0b3345fa72bd3b96c565437b962efa3" target="_top" xlink:title="prolog.Main.main">
<polygon fill="none" stroke="black" points="1133,-19.5 1133,-38.5 1224,-38.5 1224,-19.5 1133,-19.5"/>
<text text-anchor="middle" x="1178.5" y="-26.5" font-family="Helvetica,sans-Serif" font-size="10.00">prolog.Main.main</text>
</a>
</g>
</g>
<!-- Node15&#45;&gt;Node16 -->
<g id="edge16" class="edge"><title>Node15&#45;&gt;Node16</title>
<path fill="none" stroke="midnightblue" d="M1042.79,-42.7981C1071.02,-39.906 1105.83,-36.3407 1132.99,-33.5587"/>
<polygon fill="midnightblue" stroke="midnightblue" points="1042.3,-39.3296 1032.71,-43.8304 1043.01,-46.2931 1042.3,-39.3296"/>
</g>
<!-- Node17&#45;&gt;Node16 -->
<g id="edge18" class="edge"><title>Node17&#45;&gt;Node16</title>
<path fill="none" stroke="midnightblue" d="M1039.32,-14.8469C1068.12,-17.7964 1104.67,-21.5405 1132.95,-24.4368"/>
<polygon fill="midnightblue" stroke="midnightblue" points="1039.4,-11.3365 1029.09,-13.7993 1038.68,-18.3001 1039.4,-11.3365"/>
</g>
<!-- Node20 -->
<g id="node20" class="node"><title>Node20</title>
<g id="a_node20"><a xlink:href="../../d4/d26/classprolog_1_1terms_1_1Prog_afb9691e6cce6f75afc1c67ac0b28d107.html#afb9691e6cce6f75afc1c67ac0b28d107" target="_top" xlink:title="creates a new logic engine ">
<polygon fill="none" stroke="black" points="378,-71 378,-101 493,-101 493,-71 378,-71"/>
<text text-anchor="start" x="386" y="-89" font-family="Helvetica,sans-Serif" font-size="10.00">prolog.terms.Prog.new</text>
<text text-anchor="middle" x="435.5" y="-78" font-family="Helvetica,sans-Serif" font-size="10.00">_engine</text>
</a>
</g>
</g>
<!-- Node19&#45;&gt;Node20 -->
<g id="edge21" class="edge"><title>Node19&#45;&gt;Node20</title>
<path fill="none" stroke="midnightblue" d="M330.167,-86.6048C345.983,-86.5131 362.648,-86.4165 377.904,-86.3281"/>
<polygon fill="midnightblue" stroke="midnightblue" points="329.899,-83.1062 319.92,-86.6642 329.94,-90.1061 329.899,-83.1062"/>
</g>
<!-- Node20&#45;&gt;Node9 -->
<g id="edge22" class="edge"><title>Node20&#45;&gt;Node9</title>
<path fill="none" stroke="midnightblue" d="M503.42,-102.922C526.973,-108.878 552.603,-115.359 572.882,-120.487"/>
<polygon fill="midnightblue" stroke="midnightblue" points="504.027,-99.4657 493.474,-100.407 502.311,-106.252 504.027,-99.4657"/>
</g>
<!-- Node22 -->
<g id="node22" class="node"><title>Node22</title>
<g id="a_node22"><a xlink:href="../../d9/d3b/classprolog_1_1terms_1_1Fluent_a190e064a4daac958e9631914aba1bd3f.html#a190e064a4daac958e9631914aba1bd3f" target="_top" xlink:title="prolog.terms.Fluent.Fluent">
<polygon fill="none" stroke="black" points="370,-32.5 370,-51.5 501,-51.5 501,-32.5 370,-32.5"/>
<text text-anchor="middle" x="435.5" y="-39.5" font-family="Helvetica,sans-Serif" font-size="10.00">prolog.terms.Fluent.Fluent</text>
</a>
</g>
</g>
<!-- Node21&#45;&gt;Node22 -->
<g id="edge24" class="edge"><title>Node21&#45;&gt;Node22</title>
<path fill="none" stroke="midnightblue" d="M337.847,-44.2412C348.515,-43.9939 359.398,-43.7415 369.831,-43.4996"/>
<polygon fill="midnightblue" stroke="midnightblue" points="337.623,-40.7454 327.707,-44.4764 337.785,-47.7435 337.623,-40.7454"/>
</g>
</g>
</svg>
        <g id="navigator" transform="translate(0 0)" fill="#404254">
                <rect fill="#f2f5e9" fill-opacity="0.5" stroke="#606060" stroke-width=".5" x="0" y="0" width="60" height="60"/>
                <use id="zoomplus" xlink:href="#zoomPlus" x="17" y="9" onmousedown="handleZoom(evt,'in')"/>
                <use id="zoomminus" xlink:href="#zoomMin" x="42" y="9" onmousedown="handleZoom(evt,'out')"/>
                <use id="reset" xlink:href="#resetDef" x="30" y="36" onmousedown="handleReset()"/>
                <g id="arrowUp" xlink:href="#dirArrow" transform="translate(30 24)" onmousedown="handlePan(0,-1)">
                  <use xlink:href="#rim" fill="#404040">
                        <set attributeName="fill" to="#808080" begin="arrowUp.mouseover" end="arrowUp.mouseout"/>
                  </use>
                  <path fill="none" stroke="white" stroke-width="1.5" d="M0,-3.0v7 M-2.5,-0.5L0,-3.0L2.5,-0.5"/>
                </g>
                <g id="arrowRight" xlink:href="#dirArrow" transform="rotate(90) translate(36 -43)" onmousedown="handlePan(1,0)">
                  <use xlink:href="#rim" fill="#404040">
                        <set attributeName="fill" to="#808080" begin="arrowRight.mouseover" end="arrowRight.mouseout"/>
                  </use>
                  <path fill="none" stroke="white" stroke-width="1.5" d="M0,-3.0v7 M-2.5,-0.5L0,-3.0L2.5,-0.5"/>
                </g>
                <g id="arrowDown" xlink:href="#dirArrow" transform="rotate(180) translate(-30 -48)" onmousedown="handlePan(0,1)">
                  <use xlink:href="#rim" fill="#404040">
                        <set attributeName="fill" to="#808080" begin="arrowDown.mouseover" end="arrowDown.mouseout"/>
                  </use>
                  <path fill="none" stroke="white" stroke-width="1.5" d="M0,-3.0v7 M-2.5,-0.5L0,-3.0L2.5,-0.5"/>
                </g>
                <g id="arrowLeft" xlink:href="#dirArrow" transform="rotate(270) translate(-36 17)" onmousedown="handlePan(-1,0)">
                  <use xlink:href="#rim" fill="#404040">
                        <set attributeName="fill" to="#808080" begin="arrowLeft.mouseover" end="arrowLeft.mouseout"/>
                  </use>
                  <path fill="none" stroke="white" stroke-width="1.5" d="M0,-3.0v7 M-2.5,-0.5L0,-3.0L2.5,-0.5"/>
                </g>
        </g>
        <svg viewBox="0 0 15 15" width="100%" height="30px" preserveAspectRatio="xMaxYMin meet">
         <g id="arrow_out" transform="scale(0.3 0.3)">
          <a xlink:href="classprolog_1_1terms_1_1ObjectStack_a058b4b33eb3234f7d3426058bcbcace0_a058b4b33eb3234f7d3426058bcbcace0_icgraph_org.svg" target="_base">
           <rect id="button" ry="5" rx="5" y="6" x="6" height="38" width="38"
                fill="#f2f5e9" fill-opacity="0.5" stroke="#606060" stroke-width="1.0"/>
           <path id="arrow"
             d="M 11.500037,31.436501 C 11.940474,20.09759 22.043105,11.32322 32.158766,21.979434 L 37.068811,17.246167 C 37.068811,17.246167 37.088388,32 37.088388,32 L 22.160133,31.978069 C 22.160133,31.978069 26.997745,27.140456 26.997745,27.140456 C 18.528582,18.264221 13.291696,25.230495 11.500037,31.436501 z"
             style="fill:#404040;"/>
          </a>
         </g>
        </svg>
</svg>
