<?xml version="1.0" encoding="UTF-8" standalone="no"?>
<!DOCTYPE svg PUBLIC "-//W3C//DTD SVG 1.1//EN"
 "http://www.w3.org/Graphics/SVG/1.1/DTD/svg11.dtd">
<!-- Generated by graphviz version 2.38.0 (20140413.2041)
 -->
<!-- Title: prolog.builtins.source_term.exec Pages: 1 -->
<svg width="651pt" height="356pt"
 viewBox="0.00 0.00 651.00 356.00" xmlns="http://www.w3.org/2000/svg" xmlns:xlink="http://www.w3.org/1999/xlink">
<g id="graph0" class="graph" transform="scale(1 1) rotate(0) translate(4 352)">
<title>prolog.builtins.source_term.exec</title>
<!-- Node1 -->
<g id="node1" class="node"><title>Node1</title>
<polygon fill="#bfbfbf" stroke="black" points="0,-228 0,-258 109,-258 109,-228 0,-228"/>
<text text-anchor="start" x="8" y="-246" font-family="Helvetica,sans-Serif" font-size="10.00">prolog.builtins.source</text>
<text text-anchor="middle" x="54.5" y="-235" font-family="Helvetica,sans-Serif" font-size="10.00">_term.exec</text>
</g>
<!-- Node2 -->
<g id="node2" class="node"><title>Node2</title>
<g id="a_node2"><a xlink:href="../../de/d8d/classprolog_1_1terms_1_1Fun_a95f487cd7555adbc0ae1a08076a0404d.html#a95f487cd7555adbc0ae1a08076a0404d" target="_top" xlink:title="prolog.terms.Fun.getArg">
<polygon fill="none" stroke="black" points="150,-309.5 150,-328.5 272,-328.5 272,-309.5 150,-309.5"/>
<text text-anchor="middle" x="211" y="-316.5" font-family="Helvetica,sans-Serif" font-size="10.00">prolog.terms.Fun.getArg</text>
</a>
</g>
</g>
<!-- Node1&#45;&gt;Node2 -->
<g id="edge1" class="edge"><title>Node1&#45;&gt;Node2</title>
<path fill="none" stroke="midnightblue" d="M86.0242,-258.015C113.715,-271.636 154.236,-291.569 181.333,-304.898"/>
<polygon fill="midnightblue" stroke="midnightblue" points="179.797,-308.043 190.315,-309.317 182.887,-301.762 179.797,-308.043"/>
</g>
<!-- Node4 -->
<g id="node4" class="node"><title>Node4</title>
<g id="a_node4"><a xlink:href="../../de/d8d/classprolog_1_1terms_1_1Fun_a408f688b791b731a83c6a41a8ee32fb0.html#a408f688b791b731a83c6a41a8ee32fb0" target="_top" xlink:title="prolog.terms.Fun.putArg">
<polygon fill="none" stroke="black" points="150,-252.5 150,-271.5 272,-271.5 272,-252.5 150,-252.5"/>
<text text-anchor="middle" x="211" y="-259.5" font-family="Helvetica,sans-Serif" font-size="10.00">prolog.terms.Fun.putArg</text>
</a>
</g>
</g>
<!-- Node1&#45;&gt;Node4 -->
<g id="edge3" class="edge"><title>Node1&#45;&gt;Node4</title>
<path fill="none" stroke="midnightblue" d="M109.103,-249.592C118.973,-250.806 129.414,-252.09 139.689,-253.353"/>
<polygon fill="midnightblue" stroke="midnightblue" points="139.529,-256.86 149.882,-254.607 140.384,-249.912 139.529,-256.86"/>
</g>
<!-- Node8 -->
<g id="node8" class="node"><title>Node8</title>
<g id="a_node8"><a xlink:href="../../d2/d07/classprolog_1_1terms_1_1Source_a40b2c3eaa8bb3a405446556fd265c5aa.html#a40b2c3eaa8bb3a405446556fd265c5aa" target="_top" xlink:title="prolog.terms.Source.toFun">
<polygon fill="none" stroke="black" points="145,-214.5 145,-233.5 277,-233.5 277,-214.5 145,-214.5"/>
<text text-anchor="middle" x="211" y="-221.5" font-family="Helvetica,sans-Serif" font-size="10.00">prolog.terms.Source.toFun</text>
</a>
</g>
</g>
<!-- Node1&#45;&gt;Node8 -->
<g id="edge8" class="edge"><title>Node1&#45;&gt;Node8</title>
<path fill="none" stroke="midnightblue" d="M109.103,-236.408C117.372,-235.391 126.041,-234.325 134.677,-233.263"/>
<polygon fill="midnightblue" stroke="midnightblue" points="135.277,-236.716 144.775,-232.021 134.423,-229.768 135.277,-236.716"/>
</g>
<!-- Node12 -->
<g id="node12" class="node"><title>Node12</title>
<g id="a_node12"><a xlink:href="../../d7/d2b/classprolog_1_1builtins_1_1Builtins_a03db9f009d6e9f38f61113ec03af92b4.html#a03db9f009d6e9f38f61113ec03af92b4" target="_top" xlink:title="prolog.builtins.Builtins.to\lFunBuiltin">
<polygon fill="none" stroke="black" points="149.5,-77 149.5,-107 272.5,-107 272.5,-77 149.5,-77"/>
<text text-anchor="start" x="157.5" y="-95" font-family="Helvetica,sans-Serif" font-size="10.00">prolog.builtins.Builtins.to</text>
<text text-anchor="middle" x="211" y="-84" font-family="Helvetica,sans-Serif" font-size="10.00">FunBuiltin</text>
</a>
</g>
</g>
<!-- Node1&#45;&gt;Node12 -->
<g id="edge12" class="edge"><title>Node1&#45;&gt;Node12</title>
<path fill="none" stroke="midnightblue" d="M70.8789,-227.969C98.1541,-201.312 155.127,-145.63 187.055,-114.425"/>
<polygon fill="midnightblue" stroke="midnightblue" points="189.518,-116.912 194.223,-107.419 184.625,-111.906 189.518,-116.912"/>
</g>
<!-- Node3 -->
<g id="node3" class="node"><title>Node3</title>
<g id="a_node3"><a xlink:href="../../d3/ded/classprolog_1_1terms_1_1Term_ae140fac2c9d066dc897fcfa723060a7a.html#ae140fac2c9d066dc897fcfa723060a7a" target="_top" xlink:title="Dereferences if necessary. ">
<polygon fill="none" stroke="black" points="519.5,-328.5 519.5,-347.5 629.5,-347.5 629.5,-328.5 519.5,-328.5"/>
<text text-anchor="middle" x="574.5" y="-335.5" font-family="Helvetica,sans-Serif" font-size="10.00">prolog.terms.Term.ref</text>
</a>
</g>
</g>
<!-- Node2&#45;&gt;Node3 -->
<g id="edge2" class="edge"><title>Node2&#45;&gt;Node3</title>
<path fill="none" stroke="midnightblue" d="M272.1,-322.159C337.697,-325.606 442.311,-331.105 509.432,-334.633"/>
<polygon fill="midnightblue" stroke="midnightblue" points="509.293,-338.13 519.463,-335.16 509.66,-331.14 509.293,-338.13"/>
</g>
<!-- Node5 -->
<g id="node5" class="node"><title>Node5</title>
<g id="a_node5"><a xlink:href="../../d3/ded/classprolog_1_1terms_1_1Term_a84d8fb7e1f816d0dbe3c2c56ed28fdb9.html#a84d8fb7e1f816d0dbe3c2c56ed28fdb9" target="_top" xlink:title="Dereference and unify_to. ">
<polygon fill="none" stroke="black" points="331.5,-290.5 331.5,-309.5 451.5,-309.5 451.5,-290.5 331.5,-290.5"/>
<text text-anchor="middle" x="391.5" y="-297.5" font-family="Helvetica,sans-Serif" font-size="10.00">prolog.terms.Term.unify</text>
</a>
</g>
</g>
<!-- Node4&#45;&gt;Node5 -->
<g id="edge4" class="edge"><title>Node4&#45;&gt;Node5</title>
<path fill="none" stroke="midnightblue" d="M257.043,-271.589C281.023,-276.694 310.698,-283.011 335.972,-288.392"/>
<polygon fill="midnightblue" stroke="midnightblue" points="335.271,-291.821 345.781,-290.48 336.729,-284.974 335.271,-291.821"/>
</g>
<!-- Node7 -->
<g id="node7" class="node"><title>Node7</title>
<g id="a_node7"><a xlink:href="../../d4/d26/classprolog_1_1terms_1_1Prog_a41eac8617a5002806d7137eb36183405.html#a41eac8617a5002806d7137eb36183405" target="_top" xlink:title="prolog.terms.Prog.getTrail">
<polygon fill="none" stroke="black" points="327,-252.5 327,-271.5 456,-271.5 456,-252.5 327,-252.5"/>
<text text-anchor="middle" x="391.5" y="-259.5" font-family="Helvetica,sans-Serif" font-size="10.00">prolog.terms.Prog.getTrail</text>
</a>
</g>
</g>
<!-- Node4&#45;&gt;Node7 -->
<g id="edge7" class="edge"><title>Node4&#45;&gt;Node7</title>
<path fill="none" stroke="midnightblue" d="M272.432,-262C286.649,-262 301.958,-262 316.689,-262"/>
<polygon fill="midnightblue" stroke="midnightblue" points="316.774,-265.5 326.774,-262 316.774,-258.5 316.774,-265.5"/>
</g>
<!-- Node5&#45;&gt;Node3 -->
<g id="edge5" class="edge"><title>Node5&#45;&gt;Node3</title>
<path fill="none" stroke="midnightblue" d="M438.174,-309.589C462.489,-314.694 492.58,-321.011 518.208,-326.392"/>
<polygon fill="midnightblue" stroke="midnightblue" points="517.649,-329.851 528.154,-328.48 519.087,-323 517.649,-329.851"/>
</g>
<!-- Node6 -->
<g id="node6" class="node"><title>Node6</title>
<g id="a_node6"><a xlink:href="../../d3/ded/classprolog_1_1terms_1_1Term_a866b2cca50e77e99b560578b2fa3a91a.html#a866b2cca50e77e99b560578b2fa3a91a" target="_top" xlink:title="Unify dereferenced. ">
<polygon fill="none" stroke="black" points="507.5,-290.5 507.5,-309.5 641.5,-309.5 641.5,-290.5 507.5,-290.5"/>
<text text-anchor="middle" x="574.5" y="-297.5" font-family="Helvetica,sans-Serif" font-size="10.00">prolog.terms.Term.unify_to</text>
</a>
</g>
</g>
<!-- Node5&#45;&gt;Node6 -->
<g id="edge6" class="edge"><title>Node5&#45;&gt;Node6</title>
<path fill="none" stroke="midnightblue" d="M451.766,-300C466.174,-300 481.787,-300 496.872,-300"/>
<polygon fill="midnightblue" stroke="midnightblue" points="497.21,-303.5 507.21,-300 497.21,-296.5 497.21,-303.5"/>
</g>
<!-- Node9 -->
<g id="node9" class="node"><title>Node9</title>
<g id="a_node9"><a xlink:href="../../d2/d07/classprolog_1_1terms_1_1Source_a80edbb7a5e2e465563e161990957b736.html#a80edbb7a5e2e465563e161990957b736" target="_top" xlink:title="prolog.terms.Source.getElement">
<polygon fill="none" stroke="black" points="313,-214.5 313,-233.5 470,-233.5 470,-214.5 313,-214.5"/>
<text text-anchor="middle" x="391.5" y="-221.5" font-family="Helvetica,sans-Serif" font-size="10.00">prolog.terms.Source.getElement</text>
</a>
</g>
</g>
<!-- Node8&#45;&gt;Node9 -->
<g id="edge9" class="edge"><title>Node8&#45;&gt;Node9</title>
<path fill="none" stroke="midnightblue" d="M277.2,-224C285.504,-224 294.107,-224 302.693,-224"/>
<polygon fill="midnightblue" stroke="midnightblue" points="302.745,-227.5 312.745,-224 302.745,-220.5 302.745,-227.5"/>
</g>
<!-- Node10 -->
<g id="node10" class="node"><title>Node10</title>
<g id="a_node10"><a xlink:href="../../d9/dc4/classprolog_1_1terms_1_1Copier_add1956f8a12df7679e6512e6f28c1f88.html#add1956f8a12df7679e6512e6f28c1f88" target="_top" xlink:title="Represents a list [f,a1...,an] as f(a1,...,an) ">
<polygon fill="none" stroke="black" points="324.5,-165 324.5,-195 458.5,-195 458.5,-165 324.5,-165"/>
<text text-anchor="start" x="332.5" y="-183" font-family="Helvetica,sans-Serif" font-size="10.00">prolog.terms.Copier.Vector</text>
<text text-anchor="middle" x="391.5" y="-172" font-family="Helvetica,sans-Serif" font-size="10.00">ToFun</text>
</a>
</g>
</g>
<!-- Node8&#45;&gt;Node10 -->
<g id="edge10" class="edge"><title>Node8&#45;&gt;Node10</title>
<path fill="none" stroke="midnightblue" d="M250.732,-214.453C270.829,-209.499 296.021,-203.289 319.463,-197.51"/>
<polygon fill="midnightblue" stroke="midnightblue" points="320.511,-200.857 329.383,-195.065 318.835,-194.061 320.511,-200.857"/>
</g>
<!-- Node11 -->
<g id="node11" class="node"><title>Node11</title>
<g id="a_node11"><a xlink:href="../../d0/d3f/classprolog_1_1terms_1_1Const_a947005f966303baeb029a22d9201ea1b.html#a947005f966303baeb029a22d9201ea1b" target="_top" xlink:title="prolog.terms.Const.name">
<polygon fill="none" stroke="black" points="511,-126.5 511,-145.5 638,-145.5 638,-126.5 511,-126.5"/>
<text text-anchor="middle" x="574.5" y="-133.5" font-family="Helvetica,sans-Serif" font-size="10.00">prolog.terms.Const.name</text>
</a>
</g>
</g>
<!-- Node10&#45;&gt;Node11 -->
<g id="edge11" class="edge"><title>Node10&#45;&gt;Node11</title>
<path fill="none" stroke="midnightblue" d="M454.284,-164.981C477.182,-159.414 502.816,-153.183 524.43,-147.929"/>
<polygon fill="midnightblue" stroke="midnightblue" points="525.479,-151.276 534.369,-145.512 523.826,-144.474 525.479,-151.276"/>
</g>
<!-- Node12&#45;&gt;Node11 -->
<g id="edge16" class="edge"><title>Node12&#45;&gt;Node11</title>
<path fill="none" stroke="midnightblue" d="M268.314,-107.029C282.788,-110.437 298.398,-113.719 313,-116 375.916,-125.828 448.17,-130.892 500.597,-133.461"/>
<polygon fill="midnightblue" stroke="midnightblue" points="500.656,-136.967 510.81,-133.942 500.986,-129.975 500.656,-136.967"/>
</g>
<!-- Node13 -->
<g id="node13" class="node"><title>Node13</title>
<g id="a_node13"><a xlink:href="../../de/d8d/classprolog_1_1terms_1_1Fun_a73b5a4f366ac3ac161f7b148f44b8cfa.html#a73b5a4f366ac3ac161f7b148f44b8cfa" target="_top" xlink:title="prolog.terms.Fun.funClone">
<polygon fill="none" stroke="black" points="325.5,-38.5 325.5,-57.5 457.5,-57.5 457.5,-38.5 325.5,-38.5"/>
<text text-anchor="middle" x="391.5" y="-45.5" font-family="Helvetica,sans-Serif" font-size="10.00">prolog.terms.Fun.funClone</text>
</a>
</g>
</g>
<!-- Node12&#45;&gt;Node13 -->
<g id="edge13" class="edge"><title>Node12&#45;&gt;Node13</title>
<path fill="none" stroke="midnightblue" d="M272.613,-76.9736C285.918,-73.6816 299.933,-70.219 313,-67 322.284,-64.7128 332.196,-62.2778 341.722,-59.9409"/>
<polygon fill="midnightblue" stroke="midnightblue" points="342.588,-63.3322 351.467,-57.5514 340.921,-56.5336 342.588,-63.3322"/>
</g>
<!-- Node15 -->
<g id="node15" class="node"><title>Node15</title>
<g id="a_node15"><a xlink:href="../../de/d8d/classprolog_1_1terms_1_1Fun_a17d595f2ab8b5c173c519ad5341015c5.html#a17d595f2ab8b5c173c519ad5341015c5" target="_top" xlink:title="prolog.terms.Fun.getArity">
<polygon fill="none" stroke="black" points="328,-0.5 328,-19.5 455,-19.5 455,-0.5 328,-0.5"/>
<text text-anchor="middle" x="391.5" y="-7.5" font-family="Helvetica,sans-Serif" font-size="10.00">prolog.terms.Fun.getArity</text>
</a>
</g>
</g>
<!-- Node12&#45;&gt;Node15 -->
<g id="edge15" class="edge"><title>Node12&#45;&gt;Node15</title>
<path fill="none" stroke="midnightblue" d="M231.844,-76.9493C251.492,-62.7118 282.913,-41.6874 313,-29 318.864,-26.5273 325.119,-24.3302 331.435,-22.3894"/>
<polygon fill="midnightblue" stroke="midnightblue" points="332.714,-25.6641 341.365,-19.5479 330.788,-18.9342 332.714,-25.6641"/>
</g>
<!-- Node16 -->
<g id="node16" class="node"><title>Node16</title>
<g id="a_node16"><a xlink:href="../../d7/d2b/classprolog_1_1builtins_1_1Builtins_ab27f40fd74a009d6522fa21da5387cf3.html#ab27f40fd74a009d6522fa21da5387cf3" target="_top" xlink:title="Creates a new builtin. ">
<polygon fill="none" stroke="black" points="325,-77 325,-107 458,-107 458,-77 325,-77"/>
<text text-anchor="start" x="333" y="-95" font-family="Helvetica,sans-Serif" font-size="10.00">prolog.builtins.Builtins.new</text>
<text text-anchor="middle" x="391.5" y="-84" font-family="Helvetica,sans-Serif" font-size="10.00">Builtin</text>
</a>
</g>
</g>
<!-- Node12&#45;&gt;Node16 -->
<g id="edge17" class="edge"><title>Node12&#45;&gt;Node16</title>
<path fill="none" stroke="midnightblue" d="M272.93,-92C286.421,-92 300.875,-92 314.871,-92"/>
<polygon fill="midnightblue" stroke="midnightblue" points="314.962,-95.5001 324.962,-92 314.962,-88.5001 314.962,-95.5001"/>
</g>
<!-- Node14 -->
<g id="node14" class="node"><title>Node14</title>
<g id="a_node14"><a xlink:href="../../de/d8d/classprolog_1_1terms_1_1Fun_a3d81ecf8879a3612ac7881f753627020.html#a3d81ecf8879a3612ac7881f753627020" target="_top" xlink:title="prolog.terms.Fun.Fun">
<polygon fill="none" stroke="black" points="519.5,-38.5 519.5,-57.5 629.5,-57.5 629.5,-38.5 519.5,-38.5"/>
<text text-anchor="middle" x="574.5" y="-45.5" font-family="Helvetica,sans-Serif" font-size="10.00">prolog.terms.Fun.Fun</text>
</a>
</g>
</g>
<!-- Node13&#45;&gt;Node14 -->
<g id="edge14" class="edge"><title>Node13&#45;&gt;Node14</title>
<path fill="none" stroke="midnightblue" d="M457.589,-48C474.375,-48 492.431,-48 509.177,-48"/>
<polygon fill="midnightblue" stroke="midnightblue" points="509.412,-51.5001 519.412,-48 509.412,-44.5001 509.412,-51.5001"/>
</g>
<!-- Node16&#45;&gt;Node11 -->
<g id="edge19" class="edge"><title>Node16&#45;&gt;Node11</title>
<path fill="none" stroke="midnightblue" d="M454.284,-107.019C477.182,-112.586 502.816,-118.817 524.43,-124.071"/>
<polygon fill="midnightblue" stroke="midnightblue" points="523.826,-127.526 534.369,-126.488 525.479,-120.724 523.826,-127.526"/>
</g>
<!-- Node17 -->
<g id="node17" class="node"><title>Node17</title>
<g id="a_node17"><a xlink:href="../../d0/d3f/classprolog_1_1terms_1_1Const_a425467f0c179f71ef11b4beac97ec0b6.html#a425467f0c179f71ef11b4beac97ec0b6" target="_top" xlink:title="returns an arity normally defined as 0 ">
<polygon fill="none" stroke="black" points="506,-82.5 506,-101.5 643,-101.5 643,-82.5 506,-82.5"/>
<text text-anchor="middle" x="574.5" y="-89.5" font-family="Helvetica,sans-Serif" font-size="10.00">prolog.terms.Const.getArity</text>
</a>
</g>
</g>
<!-- Node16&#45;&gt;Node17 -->
<g id="edge18" class="edge"><title>Node16&#45;&gt;Node17</title>
<path fill="none" stroke="midnightblue" d="M458.101,-92C470.395,-92 483.353,-92 495.968,-92"/>
<polygon fill="midnightblue" stroke="midnightblue" points="495.993,-95.5001 505.993,-92 495.993,-88.5001 495.993,-95.5001"/>
</g>
</g>
</svg>
