<?xml version="1.0" encoding="UTF-8" standalone="no"?>
<!DOCTYPE svg PUBLIC "-//W3C//DTD SVG 1.1//EN"
 "http://www.w3.org/Graphics/SVG/1.1/DTD/svg11.dtd">
<!-- Generated by graphviz version 2.38.0 (20140413.2041)
 -->
<!-- Title: prolog.builtins.pred_to_string.exec Pages: 1 -->
<svg width="834pt" height="230pt"
 viewBox="0.00 0.00 834.00 230.00" xmlns="http://www.w3.org/2000/svg" xmlns:xlink="http://www.w3.org/1999/xlink">
<g id="graph0" class="graph" transform="scale(1 1) rotate(0) translate(4 226)">
<title>prolog.builtins.pred_to_string.exec</title>
<!-- Node1 -->
<g id="node1" class="node"><title>Node1</title>
<polygon fill="#bfbfbf" stroke="black" points="0,-109 0,-139 98,-139 98,-109 0,-109"/>
<text text-anchor="start" x="8" y="-127" font-family="Helvetica,sans-Serif" font-size="10.00">prolog.builtins.pred</text>
<text text-anchor="middle" x="49" y="-116" font-family="Helvetica,sans-Serif" font-size="10.00">_to_string.exec</text>
</g>
<!-- Node2 -->
<g id="node2" class="node"><title>Node2</title>
<g id="a_node2"><a xlink:href="../../d0/d3f/classprolog_1_1terms_1_1Const_a2f00757ecfe3ace23e67c5537c34cfbd.html#a2f00757ecfe3ace23e67c5537c34cfbd" target="_top" xlink:title="prolog.terms.Const.Const">
<polygon fill="none" stroke="black" points="141,-202.5 141,-221.5 270,-221.5 270,-202.5 141,-202.5"/>
<text text-anchor="middle" x="205.5" y="-209.5" font-family="Helvetica,sans-Serif" font-size="10.00">prolog.terms.Const.Const</text>
</a>
</g>
</g>
<!-- Node1&#45;&gt;Node2 -->
<g id="edge1" class="edge"><title>Node1&#45;&gt;Node2</title>
<path fill="none" stroke="midnightblue" d="M64.3743,-139.127C80.0739,-154.796 106.65,-178.919 134,-193 138.533,-195.334 143.381,-197.403 148.335,-199.234"/>
<polygon fill="midnightblue" stroke="midnightblue" points="147.34,-202.592 157.934,-202.466 149.574,-195.958 147.34,-202.592"/>
</g>
<!-- Node3 -->
<g id="node3" class="node"><title>Node3</title>
<g id="a_node3"><a xlink:href="../../de/d8d/classprolog_1_1terms_1_1Fun_a95f487cd7555adbc0ae1a08076a0404d.html#a95f487cd7555adbc0ae1a08076a0404d" target="_top" xlink:title="prolog.terms.Fun.getArg">
<polygon fill="none" stroke="black" points="338.5,-76.5 338.5,-95.5 460.5,-95.5 460.5,-76.5 338.5,-76.5"/>
<text text-anchor="middle" x="399.5" y="-83.5" font-family="Helvetica,sans-Serif" font-size="10.00">prolog.terms.Fun.getArg</text>
</a>
</g>
</g>
<!-- Node1&#45;&gt;Node3 -->
<g id="edge2" class="edge"><title>Node1&#45;&gt;Node3</title>
<path fill="none" stroke="midnightblue" d="M98.1823,-111.794C109.843,-109.203 122.316,-106.731 134,-105 199.46,-95.3023 274.795,-90.5048 328.281,-88.1621"/>
<polygon fill="midnightblue" stroke="midnightblue" points="328.497,-91.6561 338.341,-87.739 328.203,-84.6623 328.497,-91.6561"/>
</g>
<!-- Node5 -->
<g id="node5" class="node"><title>Node5</title>
<g id="a_node5"><a xlink:href="../../d3/ded/classprolog_1_1terms_1_1Term_a6724b2651c5023151fee83e78956e112.html#a6724b2651c5023151fee83e78956e112" target="_top" xlink:title="Returns a string key used based on the string name of the term. ">
<polygon fill="none" stroke="black" points="140.5,-114.5 140.5,-133.5 270.5,-133.5 270.5,-114.5 140.5,-114.5"/>
<text text-anchor="middle" x="205.5" y="-121.5" font-family="Helvetica,sans-Serif" font-size="10.00">prolog.terms.Term.getKey</text>
</a>
</g>
</g>
<!-- Node1&#45;&gt;Node5 -->
<g id="edge4" class="edge"><title>Node1&#45;&gt;Node5</title>
<path fill="none" stroke="midnightblue" d="M98.0379,-124C108.279,-124 119.323,-124 130.285,-124"/>
<polygon fill="midnightblue" stroke="midnightblue" points="130.305,-127.5 140.305,-124 130.305,-120.5 130.305,-127.5"/>
</g>
<!-- Node6 -->
<g id="node6" class="node"><title>Node6</title>
<g id="a_node6"><a xlink:href="../../da/dd9/classprolog_1_1fluents_1_1DataBase_a2943c1694ea86572574a57f1a31f11c2.html#a2943c1694ea86572574a57f1a31f11c2" target="_top" xlink:title="prolog.fluents.DataBase.pred\l_to_string">
<polygon fill="none" stroke="black" points="134,-153 134,-183 277,-183 277,-153 134,-153"/>
<text text-anchor="start" x="142" y="-171" font-family="Helvetica,sans-Serif" font-size="10.00">prolog.fluents.DataBase.pred</text>
<text text-anchor="middle" x="205.5" y="-160" font-family="Helvetica,sans-Serif" font-size="10.00">_to_string</text>
</a>
</g>
</g>
<!-- Node1&#45;&gt;Node6 -->
<g id="edge5" class="edge"><title>Node1&#45;&gt;Node6</title>
<path fill="none" stroke="midnightblue" d="M98.0379,-137.681C111.857,-141.616 127.138,-145.968 141.708,-150.117"/>
<polygon fill="midnightblue" stroke="midnightblue" points="141.078,-153.577 151.654,-152.95 142.995,-146.845 141.078,-153.577"/>
</g>
<!-- Node12 -->
<g id="node12" class="node"><title>Node12</title>
<g id="a_node12"><a xlink:href="../../de/d8d/classprolog_1_1terms_1_1Fun_a408f688b791b731a83c6a41a8ee32fb0.html#a408f688b791b731a83c6a41a8ee32fb0" target="_top" xlink:title="prolog.terms.Fun.putArg">
<polygon fill="none" stroke="black" points="144.5,-38.5 144.5,-57.5 266.5,-57.5 266.5,-38.5 144.5,-38.5"/>
<text text-anchor="middle" x="205.5" y="-45.5" font-family="Helvetica,sans-Serif" font-size="10.00">prolog.terms.Fun.putArg</text>
</a>
</g>
</g>
<!-- Node1&#45;&gt;Node12 -->
<g id="edge12" class="edge"><title>Node1&#45;&gt;Node12</title>
<path fill="none" stroke="midnightblue" d="M71.342,-108.906C87.8806,-97.6818 111.667,-82.547 134,-72 142.764,-67.8612 152.44,-64.0884 161.743,-60.8221"/>
<polygon fill="midnightblue" stroke="midnightblue" points="162.897,-64.1268 171.248,-57.6076 160.654,-57.4957 162.897,-64.1268"/>
</g>
<!-- Node4 -->
<g id="node4" class="node"><title>Node4</title>
<g id="a_node4"><a xlink:href="../../d3/ded/classprolog_1_1terms_1_1Term_ae140fac2c9d066dc897fcfa723060a7a.html#ae140fac2c9d066dc897fcfa723060a7a" target="_top" xlink:title="Dereferences if necessary. ">
<polygon fill="none" stroke="black" points="540,-57.5 540,-76.5 650,-76.5 650,-57.5 540,-57.5"/>
<text text-anchor="middle" x="595" y="-64.5" font-family="Helvetica,sans-Serif" font-size="10.00">prolog.terms.Term.ref</text>
</a>
</g>
</g>
<!-- Node3&#45;&gt;Node4 -->
<g id="edge3" class="edge"><title>Node3&#45;&gt;Node4</title>
<path fill="none" stroke="midnightblue" d="M460.664,-80.0924C482.599,-77.9386 507.477,-75.4958 529.754,-73.3084"/>
<polygon fill="midnightblue" stroke="midnightblue" points="530.176,-76.7839 539.786,-72.3234 529.492,-69.8174 530.176,-76.7839"/>
</g>
<!-- Node7 -->
<g id="node7" class="node"><title>Node7</title>
<g id="a_node7"><a xlink:href="../../de/d23/classprolog_1_1fluents_1_1Queue_aa5b9659115a717ce9a4bd1976f7bda66.html#aa5b9659115a717ce9a4bd1976f7bda66" target="_top" xlink:title="prolog.fluents.Queue.toEnumeration">
<polygon fill="none" stroke="black" points="313,-120.5 313,-139.5 486,-139.5 486,-120.5 313,-120.5"/>
<text text-anchor="middle" x="399.5" y="-127.5" font-family="Helvetica,sans-Serif" font-size="10.00">prolog.fluents.Queue.toEnumeration</text>
</a>
</g>
</g>
<!-- Node6&#45;&gt;Node7 -->
<g id="edge6" class="edge"><title>Node6&#45;&gt;Node7</title>
<path fill="none" stroke="midnightblue" d="M277.176,-154.012C298.031,-149.884 320.604,-145.417 340.559,-141.468"/>
<polygon fill="midnightblue" stroke="midnightblue" points="341.298,-144.889 350.428,-139.514 339.938,-138.022 341.298,-144.889"/>
</g>
<!-- Node10 -->
<g id="node10" class="node"><title>Node10</title>
<g id="a_node10"><a xlink:href="../../da/dd9/classprolog_1_1fluents_1_1DataBase_abee194bd51b63bf7758b4ae2b2795b04.html#abee194bd51b63bf7758b4ae2b2795b04" target="_top" xlink:title="Returns a formatted String representation of this PrologBlackboard object. ">
<polygon fill="none" stroke="black" points="325,-158.5 325,-177.5 474,-177.5 474,-158.5 325,-158.5"/>
<text text-anchor="middle" x="399.5" y="-165.5" font-family="Helvetica,sans-Serif" font-size="10.00">prolog.fluents.DataBase.pprint</text>
</a>
</g>
</g>
<!-- Node6&#45;&gt;Node10 -->
<g id="edge9" class="edge"><title>Node6&#45;&gt;Node10</title>
<path fill="none" stroke="midnightblue" d="M277.176,-161.463C289.288,-161.255 301.98,-161.199 314.402,-161.296"/>
<polygon fill="midnightblue" stroke="midnightblue" points="314.715,-164.8 324.754,-161.414 314.795,-157.8 314.715,-164.8"/>
</g>
<!-- Node8 -->
<g id="node8" class="node"><title>Node8</title>
<g id="a_node8"><a xlink:href="../../de/d23/classprolog_1_1fluents_1_1Queue_adca2003759e9be115f6006eee370209a.html#adca2003759e9be115f6006eee370209a" target="_top" xlink:title="prolog.fluents.Queue.toVector">
<polygon fill="none" stroke="black" points="522,-120.5 522,-139.5 668,-139.5 668,-120.5 522,-120.5"/>
<text text-anchor="middle" x="595" y="-127.5" font-family="Helvetica,sans-Serif" font-size="10.00">prolog.fluents.Queue.toVector</text>
</a>
</g>
</g>
<!-- Node7&#45;&gt;Node8 -->
<g id="edge7" class="edge"><title>Node7&#45;&gt;Node8</title>
<path fill="none" stroke="midnightblue" d="M486.217,-130C494.697,-130 503.292,-130 511.737,-130"/>
<polygon fill="midnightblue" stroke="midnightblue" points="511.945,-133.5 521.945,-130 511.944,-126.5 511.945,-133.5"/>
</g>
<!-- Node9 -->
<g id="node9" class="node"><title>Node9</title>
<g id="a_node9"><a xlink:href="../../de/d23/classprolog_1_1fluents_1_1Queue_a3d1135124c700679bbd665d253dd9f0f.html#a3d1135124c700679bbd665d253dd9f0f" target="_top" xlink:title="prolog.fluents.Queue.inc">
<polygon fill="none" stroke="black" points="704,-120.5 704,-139.5 826,-139.5 826,-120.5 704,-120.5"/>
<text text-anchor="middle" x="765" y="-127.5" font-family="Helvetica,sans-Serif" font-size="10.00">prolog.fluents.Queue.inc</text>
</a>
</g>
</g>
<!-- Node8&#45;&gt;Node9 -->
<g id="edge8" class="edge"><title>Node8&#45;&gt;Node9</title>
<path fill="none" stroke="midnightblue" d="M668.222,-130C676.694,-130 685.33,-130 693.774,-130"/>
<polygon fill="midnightblue" stroke="midnightblue" points="693.956,-133.5 703.956,-130 693.956,-126.5 693.956,-133.5"/>
</g>
<!-- Node10&#45;&gt;Node6 -->
<g id="edge11" class="edge"><title>Node10&#45;&gt;Node6</title>
<path fill="none" stroke="midnightblue" d="M324.754,-174.586C312.55,-174.769 299.838,-174.799 287.468,-174.676"/>
<polygon fill="midnightblue" stroke="midnightblue" points="287.222,-171.172 277.176,-174.537 287.127,-178.172 287.222,-171.172"/>
</g>
<!-- Node11 -->
<g id="node11" class="node"><title>Node11</title>
<g id="a_node11"><a xlink:href="../../de/dd4/classprolog_1_1fluents_1_1HashDict_a54f03897afa22d30704aa1a5a8d341e2.html#a54f03897afa22d30704aa1a5a8d341e2" target="_top" xlink:title="prolog.fluents.HashDict.name">
<polygon fill="none" stroke="black" points="522,-158.5 522,-177.5 668,-177.5 668,-158.5 522,-158.5"/>
<text text-anchor="middle" x="595" y="-165.5" font-family="Helvetica,sans-Serif" font-size="10.00">prolog.fluents.HashDict.name</text>
</a>
</g>
</g>
<!-- Node10&#45;&gt;Node11 -->
<g id="edge10" class="edge"><title>Node10&#45;&gt;Node11</title>
<path fill="none" stroke="midnightblue" d="M474.206,-168C486.388,-168 499.088,-168 511.47,-168"/>
<polygon fill="midnightblue" stroke="midnightblue" points="511.778,-171.5 521.778,-168 511.778,-164.5 511.778,-171.5"/>
</g>
<!-- Node13 -->
<g id="node13" class="node"><title>Node13</title>
<g id="a_node13"><a xlink:href="../../d3/ded/classprolog_1_1terms_1_1Term_a84d8fb7e1f816d0dbe3c2c56ed28fdb9.html#a84d8fb7e1f816d0dbe3c2c56ed28fdb9" target="_top" xlink:title="Dereference and unify_to. ">
<polygon fill="none" stroke="black" points="339.5,-0.5 339.5,-19.5 459.5,-19.5 459.5,-0.5 339.5,-0.5"/>
<text text-anchor="middle" x="399.5" y="-7.5" font-family="Helvetica,sans-Serif" font-size="10.00">prolog.terms.Term.unify</text>
</a>
</g>
</g>
<!-- Node12&#45;&gt;Node13 -->
<g id="edge13" class="edge"><title>Node12&#45;&gt;Node13</title>
<path fill="none" stroke="midnightblue" d="M254.95,-38.411C280.971,-33.261 313.228,-26.8768 340.569,-21.4656"/>
<polygon fill="midnightblue" stroke="midnightblue" points="341.269,-24.895 350.399,-19.5201 339.909,-18.0282 341.269,-24.895"/>
</g>
<!-- Node15 -->
<g id="node15" class="node"><title>Node15</title>
<g id="a_node15"><a xlink:href="../../d4/d26/classprolog_1_1terms_1_1Prog_a41eac8617a5002806d7137eb36183405.html#a41eac8617a5002806d7137eb36183405" target="_top" xlink:title="prolog.terms.Prog.getTrail">
<polygon fill="none" stroke="black" points="335,-38.5 335,-57.5 464,-57.5 464,-38.5 335,-38.5"/>
<text text-anchor="middle" x="399.5" y="-45.5" font-family="Helvetica,sans-Serif" font-size="10.00">prolog.terms.Prog.getTrail</text>
</a>
</g>
</g>
<!-- Node12&#45;&gt;Node15 -->
<g id="edge16" class="edge"><title>Node12&#45;&gt;Node15</title>
<path fill="none" stroke="midnightblue" d="M266.723,-48C285.088,-48 305.491,-48 324.649,-48"/>
<polygon fill="midnightblue" stroke="midnightblue" points="324.839,-51.5001 334.839,-48 324.839,-44.5001 324.839,-51.5001"/>
</g>
<!-- Node13&#45;&gt;Node4 -->
<g id="edge14" class="edge"><title>Node13&#45;&gt;Node4</title>
<path fill="none" stroke="midnightblue" d="M448.24,-19.5499C460.612,-22.3134 473.865,-25.5304 486,-29 511.077,-36.1702 538.821,-45.9737 559.91,-53.8271"/>
<polygon fill="midnightblue" stroke="midnightblue" points="558.8,-57.1489 569.392,-57.3935 561.264,-50.597 558.8,-57.1489"/>
</g>
<!-- Node14 -->
<g id="node14" class="node"><title>Node14</title>
<g id="a_node14"><a xlink:href="../../d3/ded/classprolog_1_1terms_1_1Term_a866b2cca50e77e99b560578b2fa3a91a.html#a866b2cca50e77e99b560578b2fa3a91a" target="_top" xlink:title="Unify dereferenced. ">
<polygon fill="none" stroke="black" points="528,-0.5 528,-19.5 662,-19.5 662,-0.5 528,-0.5"/>
<text text-anchor="middle" x="595" y="-7.5" font-family="Helvetica,sans-Serif" font-size="10.00">prolog.terms.Term.unify_to</text>
</a>
</g>
</g>
<!-- Node13&#45;&gt;Node14 -->
<g id="edge15" class="edge"><title>Node13&#45;&gt;Node14</title>
<path fill="none" stroke="midnightblue" d="M459.608,-10C477.885,-10 498.285,-10 517.559,-10"/>
<polygon fill="midnightblue" stroke="midnightblue" points="517.823,-13.5001 527.823,-10 517.823,-6.5001 517.823,-13.5001"/>
</g>
</g>
</svg>
