<?xml version="1.0" encoding="UTF-8" standalone="no"?>
<!DOCTYPE svg PUBLIC "-//W3C//DTD SVG 1.1//EN"
 "http://www.w3.org/Graphics/SVG/1.1/DTD/svg11.dtd">
<!-- Generated by graphviz version 2.38.0 (20140413.2041)
 -->
<!-- Title: prolog.io.IO Pages: 1 -->
<svg width="223pt" height="446pt"
 viewBox="0.00 0.00 222.50 446.00" xmlns="http://www.w3.org/2000/svg" xmlns:xlink="http://www.w3.org/1999/xlink">
<g id="graph0" class="graph" transform="scale(1 1) rotate(0) translate(4 442)">
<title>prolog.io.IO</title>
<!-- Node1 -->
<g id="node1" class="node"><title>Node1</title>
<polygon fill="#bfbfbf" stroke="black" points="60,-0.5 60,-288.5 149,-288.5 149,-0.5 60,-0.5"/>
<text text-anchor="middle" x="104.5" y="-276.5" font-family="Helvetica,sans-Serif" font-size="10.00">prolog.io.IO</text>
<polyline fill="none" stroke="black" points="60,-269.5 149,-269.5 "/>
<text text-anchor="start" x="68" y="-257.5" font-family="Helvetica,sans-Serif" font-size="10.00">+ showOutput</text>
<text text-anchor="start" x="68" y="-246.5" font-family="Helvetica,sans-Serif" font-size="10.00">+ showErrors</text>
<text text-anchor="start" x="68" y="-235.5" font-family="Helvetica,sans-Serif" font-size="10.00">+ showTrace</text>
<text text-anchor="start" x="68" y="-224.5" font-family="Helvetica,sans-Serif" font-size="10.00">+ maxAnswers</text>
<text text-anchor="start" x="68" y="-213.5" font-family="Helvetica,sans-Serif" font-size="10.00">~ MAXBUF</text>
<polyline fill="none" stroke="black" points="60,-206.5 149,-206.5 "/>
<text text-anchor="start" x="68" y="-194.5" font-family="Helvetica,sans-Serif" font-size="10.00">+ toFileReader()</text>
<text text-anchor="start" x="68" y="-183.5" font-family="Helvetica,sans-Serif" font-size="10.00">+ getStdInput()</text>
<text text-anchor="start" x="68" y="-172.5" font-family="Helvetica,sans-Serif" font-size="10.00">+ getStdOutput()</text>
<text text-anchor="start" x="68" y="-161.5" font-family="Helvetica,sans-Serif" font-size="10.00">+ print()</text>
<text text-anchor="start" x="68" y="-150.5" font-family="Helvetica,sans-Serif" font-size="10.00">+ println()</text>
<text text-anchor="start" x="68" y="-139.5" font-family="Helvetica,sans-Serif" font-size="10.00">+ print()</text>
<text text-anchor="start" x="68" y="-128.5" font-family="Helvetica,sans-Serif" font-size="10.00">+ println()</text>
<text text-anchor="start" x="68" y="-117.5" font-family="Helvetica,sans-Serif" font-size="10.00">+ readln()</text>
<text text-anchor="start" x="68" y="-106.5" font-family="Helvetica,sans-Serif" font-size="10.00">+ promptln()</text>
<text text-anchor="start" x="68" y="-95.5" font-family="Helvetica,sans-Serif" font-size="10.00">+ mes()</text>
<text text-anchor="start" x="68" y="-84.5" font-family="Helvetica,sans-Serif" font-size="10.00">and 13 more...</text>
<text text-anchor="start" x="68" y="-73.5" font-family="Helvetica,sans-Serif" font-size="10.00">~ toReader()</text>
<text text-anchor="start" x="68" y="-62.5" font-family="Helvetica,sans-Serif" font-size="10.00">~ toWriter()</text>
<text text-anchor="start" x="68" y="-51.5" font-family="Helvetica,sans-Serif" font-size="10.00">~ toFileWriter()</text>
<text text-anchor="start" x="68" y="-40.5" font-family="Helvetica,sans-Serif" font-size="10.00">~ read_from()</text>
<text text-anchor="start" x="68" y="-29.5" font-family="Helvetica,sans-Serif" font-size="10.00">~ write_to()</text>
<text text-anchor="start" x="68" y="-18.5" font-family="Helvetica,sans-Serif" font-size="10.00">~ readLine()</text>
<text text-anchor="start" x="68" y="-7.5" font-family="Helvetica,sans-Serif" font-size="10.00">~ readln()</text>
</g>
<!-- Node2 -->
<g id="node2" class="node"><title>Node2</title>
<polygon fill="none" stroke="#bfbfbf" points="0,-358.5 0,-415.5 43,-415.5 43,-358.5 0,-358.5"/>
<text text-anchor="middle" x="21.5" y="-403.5" font-family="Helvetica,sans-Serif" font-size="10.00">Writer</text>
<polyline fill="none" stroke="#bfbfbf" points="0,-396.5 43,-396.5 "/>
<text text-anchor="middle" x="21.5" y="-384.5" font-family="Helvetica,sans-Serif" font-size="10.00"> </text>
<polyline fill="none" stroke="#bfbfbf" points="0,-377.5 43,-377.5 "/>
<text text-anchor="middle" x="21.5" y="-365.5" font-family="Helvetica,sans-Serif" font-size="10.00"> </text>
</g>
<!-- Node2&#45;&gt;Node1 -->
<g id="edge1" class="edge"><title>Node2&#45;&gt;Node1</title>
<path fill="none" stroke="#404040" d="M31.0212,-358.412C37.4395,-339.814 46.4472,-313.713 55.9634,-286.139"/>
<polygon fill="none" stroke="#404040" points="56.0054,-286.017 54.1816,-279.041 59.9202,-274.674 61.744,-281.651 56.0054,-286.017"/>
<text text-anchor="middle" x="67" y="-310" font-family="Helvetica,sans-Serif" font-size="10.00"> +output</text>
</g>
<!-- Node3 -->
<g id="node3" class="node"><title>Node3</title>
<g id="a_node3"><a xlink:href="../../d6/d92/interfaceprolog_1_1io_1_1IOPeer.html" target="_top" xlink:title="{prolog.io.IOPeer\n||+ print()\l+ traceln()\l+ println()\l+ readln()\l+ halt()\l}">
<polygon fill="none" stroke="black" points="61,-336.5 61,-437.5 148,-437.5 148,-336.5 61,-336.5"/>
<text text-anchor="middle" x="104.5" y="-425.5" font-family="Helvetica,sans-Serif" font-size="10.00">prolog.io.IOPeer</text>
<polyline fill="none" stroke="black" points="61,-418.5 148,-418.5 "/>
<text text-anchor="middle" x="104.5" y="-406.5" font-family="Helvetica,sans-Serif" font-size="10.00"> </text>
<polyline fill="none" stroke="black" points="61,-399.5 148,-399.5 "/>
<text text-anchor="start" x="69" y="-387.5" font-family="Helvetica,sans-Serif" font-size="10.00">+ print()</text>
<text text-anchor="start" x="69" y="-376.5" font-family="Helvetica,sans-Serif" font-size="10.00">+ traceln()</text>
<text text-anchor="start" x="69" y="-365.5" font-family="Helvetica,sans-Serif" font-size="10.00">+ println()</text>
<text text-anchor="start" x="69" y="-354.5" font-family="Helvetica,sans-Serif" font-size="10.00">+ readln()</text>
<text text-anchor="start" x="69" y="-343.5" font-family="Helvetica,sans-Serif" font-size="10.00">+ halt()</text>
</a>
</g>
</g>
<!-- Node3&#45;&gt;Node1 -->
<g id="edge2" class="edge"><title>Node3&#45;&gt;Node1</title>
<path fill="none" stroke="#404040" d="M104.5,-336.46C104.5,-325.623 104.5,-313.597 104.5,-301.006"/>
<polygon fill="none" stroke="#404040" points="104.5,-300.781 100.5,-294.781 104.5,-288.781 108.5,-294.781 104.5,-300.781"/>
<text text-anchor="middle" x="118.5" y="-310" font-family="Helvetica,sans-Serif" font-size="10.00"> +peer</text>
</g>
<!-- Node4 -->
<g id="node4" class="node"><title>Node4</title>
<polygon fill="none" stroke="#bfbfbf" points="166.5,-358.5 166.5,-415.5 214.5,-415.5 214.5,-358.5 166.5,-358.5"/>
<text text-anchor="middle" x="190.5" y="-403.5" font-family="Helvetica,sans-Serif" font-size="10.00">Reader</text>
<polyline fill="none" stroke="#bfbfbf" points="166.5,-396.5 214.5,-396.5 "/>
<text text-anchor="middle" x="190.5" y="-384.5" font-family="Helvetica,sans-Serif" font-size="10.00"> </text>
<polyline fill="none" stroke="#bfbfbf" points="166.5,-377.5 214.5,-377.5 "/>
<text text-anchor="middle" x="190.5" y="-365.5" font-family="Helvetica,sans-Serif" font-size="10.00"> </text>
</g>
<!-- Node4&#45;&gt;Node1 -->
<g id="edge3" class="edge"><title>Node4&#45;&gt;Node1</title>
<path fill="none" stroke="#404040" d="M180.635,-358.412C173.624,-338.805 163.631,-310.86 153.183,-281.641"/>
<polygon fill="none" stroke="#404040" points="153.044,-281.254 147.257,-276.951 149.004,-269.955 154.79,-274.258 153.044,-281.254"/>
<text text-anchor="middle" x="181" y="-310" font-family="Helvetica,sans-Serif" font-size="10.00"> +input</text>
</g>
</g>
</svg>
