<?xml version="1.0" encoding="UTF-8" standalone="no"?>
<!DOCTYPE svg PUBLIC "-//W3C//DTD SVG 1.1//EN"
 "http://www.w3.org/Graphics/SVG/1.1/DTD/svg11.dtd">
<!-- Generated by graphviz version 2.38.0 (20140413.2041)
 -->
<!-- Title: prolog.builtins.reconsult_again.exec Pages: 1 -->
<svg width="987pt" height="211pt"
 viewBox="0.00 0.00 987.00 211.00" xmlns="http://www.w3.org/2000/svg" xmlns:xlink="http://www.w3.org/1999/xlink">
<g id="graph0" class="graph" transform="scale(1 1) rotate(0) translate(4 207)">
<title>prolog.builtins.reconsult_again.exec</title>
<!-- Node1 -->
<g id="node1" class="node"><title>Node1</title>
<polygon fill="#bfbfbf" stroke="black" points="0,-121 0,-151 119,-151 119,-121 0,-121"/>
<text text-anchor="start" x="8" y="-139" font-family="Helvetica,sans-Serif" font-size="10.00">prolog.builtins.reconsult</text>
<text text-anchor="middle" x="59.5" y="-128" font-family="Helvetica,sans-Serif" font-size="10.00">_again.exec</text>
</g>
<!-- Node2 -->
<g id="node2" class="node"><title>Node2</title>
<g id="a_node2"><a xlink:href="../../da/dd9/classprolog_1_1fluents_1_1DataBase_a8b4fed48561a1c3086c94900495508d2.html#a8b4fed48561a1c3086c94900495508d2" target="_top" xlink:title="consults or reconsults a Prolog file by adding or overriding existing predicates to be extended to lo...">
<polygon fill="none" stroke="black" points="155,-126.5 155,-145.5 315,-145.5 315,-126.5 155,-126.5"/>
<text text-anchor="middle" x="235" y="-133.5" font-family="Helvetica,sans-Serif" font-size="10.00">prolog.fluents.DataBase.fromFile</text>
</a>
</g>
</g>
<!-- Node1&#45;&gt;Node2 -->
<g id="edge1" class="edge"><title>Node1&#45;&gt;Node2</title>
<path fill="none" stroke="midnightblue" d="M119.239,-136C127.436,-136 136.006,-136 144.611,-136"/>
<polygon fill="midnightblue" stroke="midnightblue" points="144.708,-139.5 154.707,-136 144.707,-132.5 144.708,-139.5"/>
</g>
<!-- Node3 -->
<g id="node3" class="node"><title>Node3</title>
<g id="a_node3"><a xlink:href="../../d4/dc2/classprolog_1_1io_1_1IO_aaa553b2e5bb8b5de129d38fe67293316.html#aaa553b2e5bb8b5de129d38fe67293316" target="_top" xlink:title="prolog.io.IO.trace">
<polygon fill="none" stroke="black" points="373.5,-126.5 373.5,-145.5 465.5,-145.5 465.5,-126.5 373.5,-126.5"/>
<text text-anchor="middle" x="419.5" y="-133.5" font-family="Helvetica,sans-Serif" font-size="10.00">prolog.io.IO.trace</text>
</a>
</g>
</g>
<!-- Node2&#45;&gt;Node3 -->
<g id="edge2" class="edge"><title>Node2&#45;&gt;Node3</title>
<path fill="none" stroke="midnightblue" d="M315.251,-136C331.43,-136 348.12,-136 363.241,-136"/>
<polygon fill="midnightblue" stroke="midnightblue" points="363.433,-139.5 373.433,-136 363.433,-132.5 363.433,-139.5"/>
</g>
<!-- Node9 -->
<g id="node9" class="node"><title>Node9</title>
<g id="a_node9"><a xlink:href="../../da/dd9/classprolog_1_1fluents_1_1DataBase_a09001c9a02b98909be7fc84934418ed6.html#a09001c9a02b98909be7fc84934418ed6" target="_top" xlink:title="prolog.fluents.DataBase.file\lToProg">
<polygon fill="none" stroke="black" points="351,-58 351,-88 488,-88 488,-58 351,-58"/>
<text text-anchor="start" x="359" y="-76" font-family="Helvetica,sans-Serif" font-size="10.00">prolog.fluents.DataBase.file</text>
<text text-anchor="middle" x="419.5" y="-65" font-family="Helvetica,sans-Serif" font-size="10.00">ToProg</text>
</a>
</g>
</g>
<!-- Node2&#45;&gt;Node9 -->
<g id="edge8" class="edge"><title>Node2&#45;&gt;Node9</title>
<path fill="none" stroke="midnightblue" d="M263.718,-126.432C290.582,-117.158 332.029,-102.85 365.275,-91.3734"/>
<polygon fill="midnightblue" stroke="midnightblue" points="366.549,-94.6366 374.859,-88.065 364.264,-88.0198 366.549,-94.6366"/>
</g>
<!-- Node15 -->
<g id="node15" class="node"><title>Node15</title>
<g id="a_node15"><a xlink:href="../../d4/dc2/classprolog_1_1io_1_1IO_ab6e0553457312c4804472cbe1c646a28.html#ab6e0553457312c4804472cbe1c646a28" target="_top" xlink:title="prolog.io.IO.errmes">
<polygon fill="none" stroke="black" points="369.5,-164.5 369.5,-183.5 469.5,-183.5 469.5,-164.5 369.5,-164.5"/>
<text text-anchor="middle" x="419.5" y="-171.5" font-family="Helvetica,sans-Serif" font-size="10.00">prolog.io.IO.errmes</text>
</a>
</g>
</g>
<!-- Node2&#45;&gt;Node15 -->
<g id="edge14" class="edge"><title>Node2&#45;&gt;Node15</title>
<path fill="none" stroke="midnightblue" d="M282.052,-145.589C306.569,-150.694 336.91,-157.011 362.75,-162.392"/>
<polygon fill="midnightblue" stroke="midnightblue" points="362.275,-165.868 372.779,-164.48 363.702,-159.015 362.275,-165.868"/>
</g>
<!-- Node4 -->
<g id="node4" class="node"><title>Node4</title>
<g id="a_node4"><a xlink:href="../../d4/dc2/classprolog_1_1io_1_1IO_ad851906c6ebd6559eb1b1fa52e26dabb.html#ad851906c6ebd6559eb1b1fa52e26dabb" target="_top" xlink:title="prolog.io.IO.println">
<polygon fill="none" stroke="black" points="553.5,-145.5 553.5,-164.5 649.5,-164.5 649.5,-145.5 553.5,-145.5"/>
<text text-anchor="middle" x="601.5" y="-152.5" font-family="Helvetica,sans-Serif" font-size="10.00">prolog.io.IO.println</text>
</a>
</g>
</g>
<!-- Node3&#45;&gt;Node4 -->
<g id="edge3" class="edge"><title>Node3&#45;&gt;Node4</title>
<path fill="none" stroke="midnightblue" d="M465.922,-140.795C489.355,-143.268 518.182,-146.311 543.137,-148.945"/>
<polygon fill="midnightblue" stroke="midnightblue" points="542.895,-152.439 553.207,-150.008 543.63,-145.477 542.895,-152.439"/>
</g>
<!-- Node7 -->
<g id="node7" class="node"><title>Node7</title>
<g id="a_node7"><a xlink:href="../../d4/dc2/classprolog_1_1io_1_1IO_a22a9a2bfe9fa6e00257369f5bf078a44.html#a22a9a2bfe9fa6e00257369f5bf078a44" target="_top" xlink:title="prolog.io.IO.getStdOutput">
<polygon fill="none" stroke="black" points="537.5,-183.5 537.5,-202.5 665.5,-202.5 665.5,-183.5 537.5,-183.5"/>
<text text-anchor="middle" x="601.5" y="-190.5" font-family="Helvetica,sans-Serif" font-size="10.00">prolog.io.IO.getStdOutput</text>
</a>
</g>
</g>
<!-- Node3&#45;&gt;Node7 -->
<g id="edge6" class="edge"><title>Node3&#45;&gt;Node7</title>
<path fill="none" stroke="midnightblue" d="M459.874,-145.573C469.221,-148.258 479.069,-151.433 488,-155 504.801,-161.711 507.097,-167.55 524,-174 530.443,-176.458 537.313,-178.685 544.193,-180.676"/>
<polygon fill="midnightblue" stroke="midnightblue" points="543.662,-184.16 554.232,-183.424 545.511,-177.408 543.662,-184.16"/>
</g>
<!-- Node8 -->
<g id="node8" class="node"><title>Node8</title>
<g id="a_node8"><a xlink:href="../../d6/d92/interfaceprolog_1_1io_1_1IOPeer_a780dd51c62dba4c266286171101b2cee.html#a780dd51c62dba4c266286171101b2cee" target="_top" xlink:title="prolog.io.IOPeer.traceln">
<polygon fill="none" stroke="black" points="542,-107.5 542,-126.5 661,-126.5 661,-107.5 542,-107.5"/>
<text text-anchor="middle" x="601.5" y="-114.5" font-family="Helvetica,sans-Serif" font-size="10.00">prolog.io.IOPeer.traceln</text>
</a>
</g>
</g>
<!-- Node3&#45;&gt;Node8 -->
<g id="edge7" class="edge"><title>Node3&#45;&gt;Node8</title>
<path fill="none" stroke="midnightblue" d="M465.922,-131.205C485.881,-129.099 509.754,-126.579 531.815,-124.25"/>
<polygon fill="midnightblue" stroke="midnightblue" points="532.225,-127.726 541.803,-123.196 531.49,-120.765 532.225,-127.726"/>
</g>
<!-- Node5 -->
<g id="node5" class="node"><title>Node5</title>
<g id="a_node5"><a xlink:href="../../d4/dc2/classprolog_1_1io_1_1IO_aab64872af087c6cd9c5dd13e9f4eda00.html#aab64872af087c6cd9c5dd13e9f4eda00" target="_top" xlink:title="prolog.io.IO.print">
<polygon fill="none" stroke="black" points="726.5,-145.5 726.5,-164.5 815.5,-164.5 815.5,-145.5 726.5,-145.5"/>
<text text-anchor="middle" x="771" y="-152.5" font-family="Helvetica,sans-Serif" font-size="10.00">prolog.io.IO.print</text>
</a>
</g>
</g>
<!-- Node4&#45;&gt;Node5 -->
<g id="edge4" class="edge"><title>Node4&#45;&gt;Node5</title>
<path fill="none" stroke="midnightblue" d="M649.604,-155C670.309,-155 694.738,-155 716.16,-155"/>
<polygon fill="midnightblue" stroke="midnightblue" points="716.406,-158.5 726.406,-155 716.406,-151.5 716.406,-158.5"/>
</g>
<!-- Node6 -->
<g id="node6" class="node"><title>Node6</title>
<g id="a_node6"><a xlink:href="../../d6/d92/interfaceprolog_1_1io_1_1IOPeer_abc1f90b85b358011e2595069d38ac25f.html#abc1f90b85b358011e2595069d38ac25f" target="_top" xlink:title="prolog.io.IOPeer.print">
<polygon fill="none" stroke="black" points="866.5,-145.5 866.5,-164.5 975.5,-164.5 975.5,-145.5 866.5,-145.5"/>
<text text-anchor="middle" x="921" y="-152.5" font-family="Helvetica,sans-Serif" font-size="10.00">prolog.io.IOPeer.print</text>
</a>
</g>
</g>
<!-- Node5&#45;&gt;Node6 -->
<g id="edge5" class="edge"><title>Node5&#45;&gt;Node6</title>
<path fill="none" stroke="midnightblue" d="M815.604,-155C828.31,-155 842.463,-155 856.145,-155"/>
<polygon fill="midnightblue" stroke="midnightblue" points="856.484,-158.5 866.484,-155 856.484,-151.5 856.484,-158.5"/>
</g>
<!-- Node10 -->
<g id="node10" class="node"><title>Node10</title>
<g id="a_node10"><a xlink:href="../../d4/dc2/classprolog_1_1io_1_1IO_a6a1a0dd3e007e7182461e9a65742e044.html#a6a1a0dd3e007e7182461e9a65742e044" target="_top" xlink:title="prolog.io.IO.toFileReader">
<polygon fill="none" stroke="black" points="539,-19.5 539,-38.5 664,-38.5 664,-19.5 539,-19.5"/>
<text text-anchor="middle" x="601.5" y="-26.5" font-family="Helvetica,sans-Serif" font-size="10.00">prolog.io.IO.toFileReader</text>
</a>
</g>
</g>
<!-- Node9&#45;&gt;Node10 -->
<g id="edge9" class="edge"><title>Node9&#45;&gt;Node10</title>
<path fill="none" stroke="midnightblue" d="M481.942,-57.9808C504.714,-52.4144 530.206,-46.1829 551.701,-40.9287"/>
<polygon fill="midnightblue" stroke="midnightblue" points="552.703,-44.2869 561.586,-38.5124 551.04,-37.4871 552.703,-44.2869"/>
</g>
<!-- Node14 -->
<g id="node14" class="node"><title>Node14</title>
<g id="a_node14"><a xlink:href="../../da/dd9/classprolog_1_1fluents_1_1DataBase_a885c2d663dfc3f5ebf5f94ef22a9a210.html#a885c2d663dfc3f5ebf5f94ef22a9a210" target="_top" xlink:title="Reads a set of clauses from a stream and adds them to the blackboard. ">
<polygon fill="none" stroke="black" points="524,-58 524,-88 679,-88 679,-58 524,-58"/>
<text text-anchor="start" x="532" y="-76" font-family="Helvetica,sans-Serif" font-size="10.00">prolog.fluents.DataBase.stream</text>
<text text-anchor="middle" x="601.5" y="-65" font-family="Helvetica,sans-Serif" font-size="10.00">ToProg</text>
</a>
</g>
</g>
<!-- Node9&#45;&gt;Node14 -->
<g id="edge13" class="edge"><title>Node9&#45;&gt;Node14</title>
<path fill="none" stroke="midnightblue" d="M488.037,-73C496.426,-73 505.094,-73 513.721,-73"/>
<polygon fill="midnightblue" stroke="midnightblue" points="513.812,-76.5001 523.812,-73 513.812,-69.5001 513.812,-76.5001"/>
</g>
<!-- Node11 -->
<g id="node11" class="node"><title>Node11</title>
<g id="a_node11"><a xlink:href="../../d4/dc2/classprolog_1_1io_1_1IO_ac5428808b7db8cc3cd5b8b82b1b070c4.html#ac5428808b7db8cc3cd5b8b82b1b070c4" target="_top" xlink:title="prolog.io.IO.url_or_file">
<polygon fill="none" stroke="black" points="715,-19.5 715,-38.5 827,-38.5 827,-19.5 715,-19.5"/>
<text text-anchor="middle" x="771" y="-26.5" font-family="Helvetica,sans-Serif" font-size="10.00">prolog.io.IO.url_or_file</text>
</a>
</g>
</g>
<!-- Node10&#45;&gt;Node11 -->
<g id="edge10" class="edge"><title>Node10&#45;&gt;Node11</title>
<path fill="none" stroke="midnightblue" d="M664.395,-29C677.614,-29 691.613,-29 704.947,-29"/>
<polygon fill="midnightblue" stroke="midnightblue" points="704.989,-32.5001 714.989,-29 704.989,-25.5001 704.989,-32.5001"/>
</g>
<!-- Node12 -->
<g id="node12" class="node"><title>Node12</title>
<g id="a_node12"><a xlink:href="../../d4/dc2/classprolog_1_1io_1_1IO_a6349d9d37774b9ddd8e24c3c280afc9e.html#a6349d9d37774b9ddd8e24c3c280afc9e" target="_top" xlink:title="prolog.io.IO.url2stream">
<polygon fill="none" stroke="black" points="863,-0.5 863,-19.5 979,-19.5 979,-0.5 863,-0.5"/>
<text text-anchor="middle" x="921" y="-7.5" font-family="Helvetica,sans-Serif" font-size="10.00">prolog.io.IO.url2stream</text>
</a>
</g>
</g>
<!-- Node11&#45;&gt;Node12 -->
<g id="edge11" class="edge"><title>Node11&#45;&gt;Node12</title>
<path fill="none" stroke="midnightblue" d="M827.11,-21.9251C835.498,-20.8483 844.233,-19.7269 852.843,-18.6215"/>
<polygon fill="midnightblue" stroke="midnightblue" points="853.392,-22.0798 862.865,-17.3349 852.501,-15.1368 853.392,-22.0798"/>
</g>
<!-- Node13 -->
<g id="node13" class="node"><title>Node13</title>
<g id="a_node13"><a xlink:href="../../d4/dc2/classprolog_1_1io_1_1IO_aee8a81008d28d54afc3e1eef18e8bec9.html#aee8a81008d28d54afc3e1eef18e8bec9" target="_top" xlink:title="prolog.io.IO.toReader">
<polygon fill="none" stroke="black" points="866,-38.5 866,-57.5 976,-57.5 976,-38.5 866,-38.5"/>
<text text-anchor="middle" x="921" y="-45.5" font-family="Helvetica,sans-Serif" font-size="10.00">prolog.io.IO.toReader</text>
</a>
</g>
</g>
<!-- Node11&#45;&gt;Node13 -->
<g id="edge12" class="edge"><title>Node11&#45;&gt;Node13</title>
<path fill="none" stroke="midnightblue" d="M827.11,-36.0749C836.404,-37.2681 846.125,-38.516 855.63,-39.7363"/>
<polygon fill="midnightblue" stroke="midnightblue" points="855.465,-43.2437 865.829,-41.0456 856.356,-36.3007 855.465,-43.2437"/>
</g>
<!-- Node15&#45;&gt;Node4 -->
<g id="edge15" class="edge"><title>Node15&#45;&gt;Node4</title>
<path fill="none" stroke="midnightblue" d="M469.686,-168.808C492.354,-166.415 519.405,-163.56 543.009,-161.068"/>
<polygon fill="midnightblue" stroke="midnightblue" points="543.659,-164.519 553.237,-159.989 542.924,-157.558 543.659,-164.519"/>
</g>
<!-- Node15&#45;&gt;Node7 -->
<g id="edge16" class="edge"><title>Node15&#45;&gt;Node7</title>
<path fill="none" stroke="midnightblue" d="M469.686,-179.192C487.502,-181.072 508.026,-183.239 527.457,-185.29"/>
<polygon fill="midnightblue" stroke="midnightblue" points="527.185,-188.781 537.497,-186.35 527.92,-181.819 527.185,-188.781"/>
</g>
</g>
</svg>
