<?xml version="1.0" encoding="UTF-8" standalone="no"?>
<!DOCTYPE svg PUBLIC "-//W3C//DTD SVG 1.1//EN"
 "http://www.w3.org/Graphics/SVG/1.1/DTD/svg11.dtd">
<!-- Generated by graphviz version 2.38.0 (20140413.2041)
 -->
<!-- Title: prolog.terms.Sink.putElement Pages: 1 -->
<svg width="336pt" height="66pt"
 viewBox="0.00 0.00 336.00 66.00" xmlns="http://www.w3.org/2000/svg" xmlns:xlink="http://www.w3.org/1999/xlink">
<g id="graph0" class="graph" transform="scale(1 1) rotate(0) translate(4 62)">
<title>prolog.terms.Sink.putElement</title>
<!-- Node1 -->
<g id="node1" class="node"><title>Node1</title>
<polygon fill="#bfbfbf" stroke="black" points="0,-19.5 0,-38.5 146,-38.5 146,-19.5 0,-19.5"/>
<text text-anchor="middle" x="73" y="-26.5" font-family="Helvetica,sans-Serif" font-size="10.00">prolog.terms.Sink.putElement</text>
</g>
<!-- Node2 -->
<g id="node2" class="node"><title>Node2</title>
<g id="a_node2"><a xlink:href="../../d5/d21/classprolog_1_1builtins_1_1put_aa6492ace059dda135bc51b991fbf1591.html#aa6492ace059dda135bc51b991fbf1591" target="_top" xlink:title="prolog.builtins.put.exec">
<polygon fill="none" stroke="black" points="196.5,-38.5 196.5,-57.5 313.5,-57.5 313.5,-38.5 196.5,-38.5"/>
<text text-anchor="middle" x="255" y="-45.5" font-family="Helvetica,sans-Serif" font-size="10.00">prolog.builtins.put.exec</text>
</a>
</g>
</g>
<!-- Node1&#45;&gt;Node2 -->
<g id="edge1" class="edge"><title>Node1&#45;&gt;Node2</title>
<path fill="none" stroke="midnightblue" d="M156.453,-37.7034C169.978,-39.131 183.731,-40.5827 196.48,-41.9285"/>
<polygon fill="midnightblue" stroke="midnightblue" points="156.488,-34.1877 146.176,-36.6185 155.753,-41.149 156.488,-34.1877"/>
</g>
<!-- Node3 -->
<g id="node3" class="node"><title>Node3</title>
<g id="a_node3"><a xlink:href="../../d5/dba/classprolog_1_1builtins_1_1discharge_ac8fdc1dab32e95058ea028f4edd1716c.html#ac8fdc1dab32e95058ea028f4edd1716c" target="_top" xlink:title="prolog.builtins.discharge.exec">
<polygon fill="none" stroke="black" points="182,-0.5 182,-19.5 328,-19.5 328,-0.5 182,-0.5"/>
<text text-anchor="middle" x="255" y="-7.5" font-family="Helvetica,sans-Serif" font-size="10.00">prolog.builtins.discharge.exec</text>
</a>
</g>
</g>
<!-- Node1&#45;&gt;Node3 -->
<g id="edge2" class="edge"><title>Node1&#45;&gt;Node3</title>
<path fill="none" stroke="midnightblue" d="M156.16,-20.3276C164.718,-19.4242 173.372,-18.5107 181.808,-17.6203"/>
<polygon fill="midnightblue" stroke="midnightblue" points="155.753,-16.851 146.176,-21.3815 156.488,-23.8123 155.753,-16.851"/>
</g>
</g>
</svg>
