<?xml version="1.0" encoding="UTF-8" standalone="no"?>
<!DOCTYPE svg PUBLIC "-//W3C//DTD SVG 1.1//EN"
 "http://www.w3.org/Graphics/SVG/1.1/DTD/svg11.dtd">
<!-- Generated by graphviz version 2.38.0 (20140413.2041)
 -->
<!-- Title: prolog.builtins.get.exec Pages: 1 -->
<svg width="653pt" height="142pt"
 viewBox="0.00 0.00 653.00 142.00" xmlns="http://www.w3.org/2000/svg" xmlns:xlink="http://www.w3.org/1999/xlink">
<g id="graph0" class="graph" transform="scale(1 1) rotate(0) translate(4 138)">
<title>prolog.builtins.get.exec</title>
<!-- Node1 -->
<g id="node1" class="node"><title>Node1</title>
<polygon fill="#bfbfbf" stroke="black" points="0,-57.5 0,-76.5 117,-76.5 117,-57.5 0,-57.5"/>
<text text-anchor="middle" x="58.5" y="-64.5" font-family="Helvetica,sans-Serif" font-size="10.00">prolog.builtins.get.exec</text>
</g>
<!-- Node2 -->
<g id="node2" class="node"><title>Node2</title>
<g id="a_node2"><a xlink:href="../../de/d8d/classprolog_1_1terms_1_1Fun_a95f487cd7555adbc0ae1a08076a0404d.html#a95f487cd7555adbc0ae1a08076a0404d" target="_top" xlink:title="prolog.terms.Fun.getArg">
<polygon fill="none" stroke="black" points="349.5,-114.5 349.5,-133.5 471.5,-133.5 471.5,-114.5 349.5,-114.5"/>
<text text-anchor="middle" x="410.5" y="-121.5" font-family="Helvetica,sans-Serif" font-size="10.00">prolog.terms.Fun.getArg</text>
</a>
</g>
</g>
<!-- Node1&#45;&gt;Node2 -->
<g id="edge1" class="edge"><title>Node1&#45;&gt;Node2</title>
<path fill="none" stroke="midnightblue" d="M78.2646,-76.6681C96.7458,-85.6931 126.044,-98.689 153,-105 214.854,-119.481 287.175,-123.735 339.227,-124.657"/>
<polygon fill="midnightblue" stroke="midnightblue" points="339.311,-128.158 349.359,-124.799 339.409,-121.159 339.311,-128.158"/>
</g>
<!-- Node4 -->
<g id="node4" class="node"><title>Node4</title>
<g id="a_node4"><a xlink:href="../../d2/d07/classprolog_1_1terms_1_1Source_a80edbb7a5e2e465563e161990957b736.html#a80edbb7a5e2e465563e161990957b736" target="_top" xlink:title="prolog.terms.Source.getElement">
<polygon fill="none" stroke="black" points="153,-76.5 153,-95.5 310,-95.5 310,-76.5 153,-76.5"/>
<text text-anchor="middle" x="231.5" y="-83.5" font-family="Helvetica,sans-Serif" font-size="10.00">prolog.terms.Source.getElement</text>
</a>
</g>
</g>
<!-- Node1&#45;&gt;Node4 -->
<g id="edge3" class="edge"><title>Node1&#45;&gt;Node4</title>
<path fill="none" stroke="midnightblue" d="M117.393,-73.4325C125.61,-74.3456 134.209,-75.301 142.837,-76.2597"/>
<polygon fill="midnightblue" stroke="midnightblue" points="142.633,-79.7585 152.958,-77.3843 143.406,-72.8013 142.633,-79.7585"/>
</g>
<!-- Node5 -->
<g id="node5" class="node"><title>Node5</title>
<g id="a_node5"><a xlink:href="../../de/d8d/classprolog_1_1terms_1_1Fun_a408f688b791b731a83c6a41a8ee32fb0.html#a408f688b791b731a83c6a41a8ee32fb0" target="_top" xlink:title="prolog.terms.Fun.putArg">
<polygon fill="none" stroke="black" points="170.5,-38.5 170.5,-57.5 292.5,-57.5 292.5,-38.5 170.5,-38.5"/>
<text text-anchor="middle" x="231.5" y="-45.5" font-family="Helvetica,sans-Serif" font-size="10.00">prolog.terms.Fun.putArg</text>
</a>
</g>
</g>
<!-- Node1&#45;&gt;Node5 -->
<g id="edge4" class="edge"><title>Node1&#45;&gt;Node5</title>
<path fill="none" stroke="midnightblue" d="M117.393,-60.5675C131.115,-59.0428 145.9,-57.4 160.11,-55.8211"/>
<polygon fill="midnightblue" stroke="midnightblue" points="160.78,-59.2683 170.332,-54.6853 160.007,-52.3111 160.78,-59.2683"/>
</g>
<!-- Node9 -->
<g id="node9" class="node"><title>Node9</title>
<g id="a_node9"><a xlink:href="../../d0/d3f/classprolog_1_1terms_1_1Const_a71674ce84a7baa93b8bb232fb949ce4e.html#a71674ce84a7baa93b8bb232fb949ce4e" target="_top" xlink:title="prolog.terms.Const.the">
<polygon fill="none" stroke="black" points="173.5,-0.5 173.5,-19.5 289.5,-19.5 289.5,-0.5 173.5,-0.5"/>
<text text-anchor="middle" x="231.5" y="-7.5" font-family="Helvetica,sans-Serif" font-size="10.00">prolog.terms.Const.the</text>
</a>
</g>
</g>
<!-- Node1&#45;&gt;Node9 -->
<g id="edge9" class="edge"><title>Node1&#45;&gt;Node9</title>
<path fill="none" stroke="midnightblue" d="M80.7105,-57.3443C99.4507,-49.0642 127.662,-37.2065 153,-29 160.683,-26.5116 168.886,-24.1712 176.973,-22.0405"/>
<polygon fill="midnightblue" stroke="midnightblue" points="177.914,-25.4127 186.738,-19.5496 176.183,-18.6299 177.914,-25.4127"/>
</g>
<!-- Node3 -->
<g id="node3" class="node"><title>Node3</title>
<g id="a_node3"><a xlink:href="../../d3/ded/classprolog_1_1terms_1_1Term_ae140fac2c9d066dc897fcfa723060a7a.html#ae140fac2c9d066dc897fcfa723060a7a" target="_top" xlink:title="Dereferences if necessary. ">
<polygon fill="none" stroke="black" points="523,-114.5 523,-133.5 633,-133.5 633,-114.5 523,-114.5"/>
<text text-anchor="middle" x="578" y="-121.5" font-family="Helvetica,sans-Serif" font-size="10.00">prolog.terms.Term.ref</text>
</a>
</g>
</g>
<!-- Node2&#45;&gt;Node3 -->
<g id="edge2" class="edge"><title>Node2&#45;&gt;Node3</title>
<path fill="none" stroke="midnightblue" d="M471.717,-124C485.048,-124 499.223,-124 512.709,-124"/>
<polygon fill="midnightblue" stroke="midnightblue" points="512.862,-127.5 522.862,-124 512.862,-120.5 512.862,-127.5"/>
</g>
<!-- Node6 -->
<g id="node6" class="node"><title>Node6</title>
<g id="a_node6"><a xlink:href="../../d3/ded/classprolog_1_1terms_1_1Term_a84d8fb7e1f816d0dbe3c2c56ed28fdb9.html#a84d8fb7e1f816d0dbe3c2c56ed28fdb9" target="_top" xlink:title="Dereference and unify_to. ">
<polygon fill="none" stroke="black" points="350.5,-76.5 350.5,-95.5 470.5,-95.5 470.5,-76.5 350.5,-76.5"/>
<text text-anchor="middle" x="410.5" y="-83.5" font-family="Helvetica,sans-Serif" font-size="10.00">prolog.terms.Term.unify</text>
</a>
</g>
</g>
<!-- Node5&#45;&gt;Node6 -->
<g id="edge5" class="edge"><title>Node5&#45;&gt;Node6</title>
<path fill="none" stroke="midnightblue" d="M277.165,-57.589C300.837,-62.6713 330.108,-68.9554 355.097,-74.3203"/>
<polygon fill="midnightblue" stroke="midnightblue" points="354.645,-77.8028 365.157,-76.4799 356.114,-70.9588 354.645,-77.8028"/>
</g>
<!-- Node8 -->
<g id="node8" class="node"><title>Node8</title>
<g id="a_node8"><a xlink:href="../../d4/d26/classprolog_1_1terms_1_1Prog_a41eac8617a5002806d7137eb36183405.html#a41eac8617a5002806d7137eb36183405" target="_top" xlink:title="prolog.terms.Prog.getTrail">
<polygon fill="none" stroke="black" points="346,-38.5 346,-57.5 475,-57.5 475,-38.5 346,-38.5"/>
<text text-anchor="middle" x="410.5" y="-45.5" font-family="Helvetica,sans-Serif" font-size="10.00">prolog.terms.Prog.getTrail</text>
</a>
</g>
</g>
<!-- Node5&#45;&gt;Node8 -->
<g id="edge8" class="edge"><title>Node5&#45;&gt;Node8</title>
<path fill="none" stroke="midnightblue" d="M292.918,-48C306.618,-48 321.32,-48 335.509,-48"/>
<polygon fill="midnightblue" stroke="midnightblue" points="335.73,-51.5001 345.73,-48 335.73,-44.5001 335.73,-51.5001"/>
</g>
<!-- Node6&#45;&gt;Node3 -->
<g id="edge6" class="edge"><title>Node6&#45;&gt;Node3</title>
<path fill="none" stroke="midnightblue" d="M453.263,-95.589C475.201,-100.626 502.28,-106.844 525.508,-112.177"/>
<polygon fill="midnightblue" stroke="midnightblue" points="525.008,-115.653 535.538,-114.48 526.575,-108.831 525.008,-115.653"/>
</g>
<!-- Node7 -->
<g id="node7" class="node"><title>Node7</title>
<g id="a_node7"><a xlink:href="../../d3/ded/classprolog_1_1terms_1_1Term_a866b2cca50e77e99b560578b2fa3a91a.html#a866b2cca50e77e99b560578b2fa3a91a" target="_top" xlink:title="Unify dereferenced. ">
<polygon fill="none" stroke="black" points="511,-76.5 511,-95.5 645,-95.5 645,-76.5 511,-76.5"/>
<text text-anchor="middle" x="578" y="-83.5" font-family="Helvetica,sans-Serif" font-size="10.00">prolog.terms.Term.unify_to</text>
</a>
</g>
</g>
<!-- Node6&#45;&gt;Node7 -->
<g id="edge7" class="edge"><title>Node6&#45;&gt;Node7</title>
<path fill="none" stroke="midnightblue" d="M470.782,-86C480.521,-86 490.732,-86 500.813,-86"/>
<polygon fill="midnightblue" stroke="midnightblue" points="500.828,-89.5001 510.828,-86 500.828,-82.5001 500.828,-89.5001"/>
</g>
</g>
</svg>
