<?xml version="1.0" encoding="UTF-8" standalone="no"?>
<!DOCTYPE svg PUBLIC "-//W3C//DTD SVG 1.1//EN"
 "http://www.w3.org/Graphics/SVG/1.1/DTD/svg11.dtd">
<!-- Generated by graphviz version 2.38.0 (20140413.2041)
 -->
<!-- Title: prolog.io.constToken Pages: 1 -->
<svg width="132pt" height="1240pt"
 viewBox="0.00 0.00 131.50 1240.00" xmlns="http://www.w3.org/2000/svg" xmlns:xlink="http://www.w3.org/1999/xlink">
<g id="graph0" class="graph" transform="scale(1 1) rotate(0) translate(4 1236)">
<title>prolog.io.constToken</title>
<!-- Node1 -->
<g id="node1" class="node"><title>Node1</title>
<polygon fill="#bfbfbf" stroke="black" points="4,-0.5 4,-68.5 111,-68.5 111,-0.5 4,-0.5"/>
<text text-anchor="middle" x="57.5" y="-56.5" font-family="Helvetica,sans-Serif" font-size="10.00">prolog.io.constToken</text>
<polyline fill="none" stroke="black" points="4,-49.5 111,-49.5 "/>
<text text-anchor="middle" x="57.5" y="-37.5" font-family="Helvetica,sans-Serif" font-size="10.00"> </text>
<polyline fill="none" stroke="black" points="4,-30.5 111,-30.5 "/>
<text text-anchor="start" x="12" y="-18.5" font-family="Helvetica,sans-Serif" font-size="10.00">+ constToken()</text>
<text text-anchor="start" x="12" y="-7.5" font-family="Helvetica,sans-Serif" font-size="10.00">+ constToken()</text>
</g>
<!-- Node2 -->
<g id="node2" class="node"><title>Node2</title>
<g id="a_node2"><a xlink:href="../../de/d8d/classprolog_1_1terms_1_1Fun.html" target="_top" xlink:title="Implements compound terms. ">
<polygon fill="none" stroke="black" points="3.5,-105.5 3.5,-371.5 111.5,-371.5 111.5,-105.5 3.5,-105.5"/>
<text text-anchor="middle" x="57.5" y="-359.5" font-family="Helvetica,sans-Serif" font-size="10.00">prolog.terms.Fun</text>
<polyline fill="none" stroke="black" points="3.5,-352.5 111.5,-352.5 "/>
<text text-anchor="start" x="11.5" y="-340.5" font-family="Helvetica,sans-Serif" font-size="10.00">+ args</text>
<polyline fill="none" stroke="black" points="3.5,-333.5 111.5,-333.5 "/>
<text text-anchor="start" x="11.5" y="-321.5" font-family="Helvetica,sans-Serif" font-size="10.00">+ getArity()</text>
<text text-anchor="start" x="11.5" y="-310.5" font-family="Helvetica,sans-Serif" font-size="10.00">+ Fun()</text>
<text text-anchor="start" x="11.5" y="-299.5" font-family="Helvetica,sans-Serif" font-size="10.00">+ Fun()</text>
<text text-anchor="start" x="11.5" y="-288.5" font-family="Helvetica,sans-Serif" font-size="10.00">+ Fun()</text>
<text text-anchor="start" x="11.5" y="-277.5" font-family="Helvetica,sans-Serif" font-size="10.00">+ init()</text>
<text text-anchor="start" x="11.5" y="-266.5" font-family="Helvetica,sans-Serif" font-size="10.00">+ getArg()</text>
<text text-anchor="start" x="11.5" y="-255.5" font-family="Helvetica,sans-Serif" font-size="10.00">+ getIntArg()</text>
<text text-anchor="start" x="11.5" y="-244.5" font-family="Helvetica,sans-Serif" font-size="10.00">+ setArg()</text>
<text text-anchor="start" x="11.5" y="-233.5" font-family="Helvetica,sans-Serif" font-size="10.00">+ putArg()</text>
<text text-anchor="start" x="11.5" y="-222.5" font-family="Helvetica,sans-Serif" font-size="10.00">+ Fun()</text>
<text text-anchor="start" x="11.5" y="-211.5" font-family="Helvetica,sans-Serif" font-size="10.00">and 7 more...</text>
<text text-anchor="start" x="11.5" y="-200.5" font-family="Helvetica,sans-Serif" font-size="10.00">~ bind_to()</text>
<text text-anchor="start" x="11.5" y="-189.5" font-family="Helvetica,sans-Serif" font-size="10.00">~ unify_to()</text>
<text text-anchor="start" x="11.5" y="-178.5" font-family="Helvetica,sans-Serif" font-size="10.00">~ reaction()</text>
<text text-anchor="start" x="11.5" y="-167.5" font-family="Helvetica,sans-Serif" font-size="10.00">~ isClause()</text>
<text text-anchor="start" x="11.5" y="-156.5" font-family="Helvetica,sans-Serif" font-size="10.00"># funToString()</text>
<text text-anchor="start" x="11.5" y="-145.5" font-family="Helvetica,sans-Serif" font-size="10.00"># unInitializedClone()</text>
<text text-anchor="start" x="11.5" y="-134.5" font-family="Helvetica,sans-Serif" font-size="10.00"># initializedClone()</text>
<text text-anchor="start" x="11.5" y="-123.5" font-family="Helvetica,sans-Serif" font-size="10.00"># watchNull()</text>
<text text-anchor="start" x="11.5" y="-112.5" font-family="Helvetica,sans-Serif" font-size="10.00">&#45; show_args()</text>
</a>
</g>
</g>
<!-- Node2&#45;&gt;Node1 -->
<g id="edge1" class="edge"><title>Node2&#45;&gt;Node1</title>
<path fill="none" stroke="midnightblue" d="M57.5,-95.0937C57.5,-85.4918 57.5,-76.4938 57.5,-68.5436"/>
<polygon fill="none" stroke="midnightblue" points="54.0001,-95.2998 57.5,-105.3 61.0001,-95.2998 54.0001,-95.2998"/>
</g>
<!-- Node3 -->
<g id="node3" class="node"><title>Node3</title>
<g id="a_node3"><a xlink:href="../../d0/d3f/classprolog_1_1terms_1_1Const.html" target="_top" xlink:title="Symbolic constant, of arity 0. ">
<polygon fill="none" stroke="black" points="7.5,-408.5 7.5,-619.5 107.5,-619.5 107.5,-408.5 7.5,-408.5"/>
<text text-anchor="middle" x="57.5" y="-607.5" font-family="Helvetica,sans-Serif" font-size="10.00">prolog.terms.Const</text>
<polyline fill="none" stroke="black" points="7.5,-600.5 107.5,-600.5 "/>
<text text-anchor="start" x="15.5" y="-588.5" font-family="Helvetica,sans-Serif" font-size="10.00">+ aNil</text>
<text text-anchor="start" x="15.5" y="-577.5" font-family="Helvetica,sans-Serif" font-size="10.00">+ aTrue</text>
<text text-anchor="start" x="15.5" y="-566.5" font-family="Helvetica,sans-Serif" font-size="10.00">+ aFail</text>
<text text-anchor="start" x="15.5" y="-555.5" font-family="Helvetica,sans-Serif" font-size="10.00">+ aYes</text>
<text text-anchor="start" x="15.5" y="-544.5" font-family="Helvetica,sans-Serif" font-size="10.00">+ aNo</text>
<text text-anchor="start" x="15.5" y="-533.5" font-family="Helvetica,sans-Serif" font-size="10.00">+ anEof</text>
<text text-anchor="start" x="15.5" y="-522.5" font-family="Helvetica,sans-Serif" font-size="10.00">&#45; sym</text>
<polyline fill="none" stroke="black" points="7.5,-515.5 107.5,-515.5 "/>
<text text-anchor="start" x="15.5" y="-503.5" font-family="Helvetica,sans-Serif" font-size="10.00">+ Const()</text>
<text text-anchor="start" x="15.5" y="-492.5" font-family="Helvetica,sans-Serif" font-size="10.00">+ name()</text>
<text text-anchor="start" x="15.5" y="-481.5" font-family="Helvetica,sans-Serif" font-size="10.00">+ qname()</text>
<text text-anchor="start" x="15.5" y="-470.5" font-family="Helvetica,sans-Serif" font-size="10.00">+ toString()</text>
<text text-anchor="start" x="15.5" y="-459.5" font-family="Helvetica,sans-Serif" font-size="10.00">+ getKey()</text>
<text text-anchor="start" x="15.5" y="-448.5" font-family="Helvetica,sans-Serif" font-size="10.00">+ getArity()</text>
<text text-anchor="start" x="15.5" y="-437.5" font-family="Helvetica,sans-Serif" font-size="10.00">+ toUnquoted()</text>
<text text-anchor="start" x="15.5" y="-426.5" font-family="Helvetica,sans-Serif" font-size="10.00">+ the()</text>
<text text-anchor="start" x="15.5" y="-415.5" font-family="Helvetica,sans-Serif" font-size="10.00">~ bind_to()</text>
</a>
</g>
</g>
<!-- Node3&#45;&gt;Node2 -->
<g id="edge2" class="edge"><title>Node3&#45;&gt;Node2</title>
<path fill="none" stroke="midnightblue" d="M57.5,-398.177C57.5,-389.385 57.5,-380.47 57.5,-371.581"/>
<polygon fill="none" stroke="midnightblue" points="54.0001,-398.431 57.5,-408.431 61.0001,-398.431 54.0001,-398.431"/>
</g>
<!-- Node4 -->
<g id="node4" class="node"><title>Node4</title>
<g id="a_node4"><a xlink:href="../../d4/de0/classprolog_1_1terms_1_1Nonvar.html" target="_top" xlink:title="Part of the Prolog Term hierarchy. ">
<polygon fill="none" stroke="black" points="5,-656.5 5,-746.5 110,-746.5 110,-656.5 5,-656.5"/>
<text text-anchor="middle" x="57.5" y="-734.5" font-family="Helvetica,sans-Serif" font-size="10.00">prolog.terms.Nonvar</text>
<polyline fill="none" stroke="black" points="5,-727.5 110,-727.5 "/>
<text text-anchor="middle" x="57.5" y="-715.5" font-family="Helvetica,sans-Serif" font-size="10.00"> </text>
<polyline fill="none" stroke="black" points="5,-708.5 110,-708.5 "/>
<text text-anchor="start" x="13" y="-696.5" font-family="Helvetica,sans-Serif" font-size="10.00">+ name()</text>
<text text-anchor="start" x="13" y="-685.5" font-family="Helvetica,sans-Serif" font-size="10.00">~ bind_to()</text>
<text text-anchor="start" x="13" y="-674.5" font-family="Helvetica,sans-Serif" font-size="10.00">~ unify_to()</text>
<text text-anchor="start" x="13" y="-663.5" font-family="Helvetica,sans-Serif" font-size="10.00">~ listify()</text>
</a>
</g>
</g>
<!-- Node4&#45;&gt;Node3 -->
<g id="edge3" class="edge"><title>Node4&#45;&gt;Node3</title>
<path fill="none" stroke="midnightblue" d="M57.5,-645.824C57.5,-637.508 57.5,-628.698 57.5,-619.736"/>
<polygon fill="none" stroke="midnightblue" points="54.0001,-646.068 57.5,-656.068 61.0001,-646.068 54.0001,-646.068"/>
</g>
<!-- Node5 -->
<g id="node5" class="node"><title>Node5</title>
<g id="a_node5"><a xlink:href="../../d3/ded/classprolog_1_1terms_1_1Term.html" target="_top" xlink:title="Top element of the Prolog term hierarchy. ">
<polygon fill="none" stroke="black" points="8.5,-783.5 8.5,-1137.5 106.5,-1137.5 106.5,-783.5 8.5,-783.5"/>
<text text-anchor="middle" x="57.5" y="-1125.5" font-family="Helvetica,sans-Serif" font-size="10.00">prolog.terms.Term</text>
<polyline fill="none" stroke="black" points="8.5,-1118.5 106.5,-1118.5 "/>
<text text-anchor="start" x="16.5" y="-1106.5" font-family="Helvetica,sans-Serif" font-size="10.00">+ JAVA</text>
<text text-anchor="start" x="16.5" y="-1095.5" font-family="Helvetica,sans-Serif" font-size="10.00">+ REAL</text>
<text text-anchor="start" x="16.5" y="-1084.5" font-family="Helvetica,sans-Serif" font-size="10.00">+ INT</text>
<text text-anchor="start" x="16.5" y="-1073.5" font-family="Helvetica,sans-Serif" font-size="10.00">+ VAR</text>
<text text-anchor="start" x="16.5" y="-1062.5" font-family="Helvetica,sans-Serif" font-size="10.00">+ CONST</text>
<polyline fill="none" stroke="black" points="8.5,-1055.5 106.5,-1055.5 "/>
<text text-anchor="start" x="16.5" y="-1043.5" font-family="Helvetica,sans-Serif" font-size="10.00">+ getArity()</text>
<text text-anchor="start" x="16.5" y="-1032.5" font-family="Helvetica,sans-Serif" font-size="10.00">+ ref()</text>
<text text-anchor="start" x="16.5" y="-1021.5" font-family="Helvetica,sans-Serif" font-size="10.00">+ token()</text>
<text text-anchor="start" x="16.5" y="-1010.5" font-family="Helvetica,sans-Serif" font-size="10.00">+ toClause()</text>
<text text-anchor="start" x="16.5" y="-999.5" font-family="Helvetica,sans-Serif" font-size="10.00">+ matches()</text>
<text text-anchor="start" x="16.5" y="-988.5" font-family="Helvetica,sans-Serif" font-size="10.00">+ matches()</text>
<text text-anchor="start" x="16.5" y="-977.5" font-family="Helvetica,sans-Serif" font-size="10.00">+ matching_copy()</text>
<text text-anchor="start" x="16.5" y="-966.5" font-family="Helvetica,sans-Serif" font-size="10.00">+ copy()</text>
<text text-anchor="start" x="16.5" y="-955.5" font-family="Helvetica,sans-Serif" font-size="10.00">+ varsOf()</text>
<text text-anchor="start" x="16.5" y="-944.5" font-family="Helvetica,sans-Serif" font-size="10.00">+ numbervars()</text>
<text text-anchor="start" x="16.5" y="-933.5" font-family="Helvetica,sans-Serif" font-size="10.00">and 6 more...</text>
<text text-anchor="start" x="16.5" y="-922.5" font-family="Helvetica,sans-Serif" font-size="10.00">+ fromString()</text>
<text text-anchor="start" x="16.5" y="-911.5" font-family="Helvetica,sans-Serif" font-size="10.00">+ charsToString()</text>
<text text-anchor="start" x="16.5" y="-900.5" font-family="Helvetica,sans-Serif" font-size="10.00">~ bind_to()</text>
<text text-anchor="start" x="16.5" y="-889.5" font-family="Helvetica,sans-Serif" font-size="10.00">~ unify_to()</text>
<text text-anchor="start" x="16.5" y="-878.5" font-family="Helvetica,sans-Serif" font-size="10.00">~ toTerm()</text>
<text text-anchor="start" x="16.5" y="-867.5" font-family="Helvetica,sans-Serif" font-size="10.00">~ isClause()</text>
<text text-anchor="start" x="16.5" y="-856.5" font-family="Helvetica,sans-Serif" font-size="10.00">~ reaction()</text>
<text text-anchor="start" x="16.5" y="-845.5" font-family="Helvetica,sans-Serif" font-size="10.00">~ action()</text>
<text text-anchor="start" x="16.5" y="-834.5" font-family="Helvetica,sans-Serif" font-size="10.00">~ exec()</text>
<text text-anchor="start" x="16.5" y="-823.5" font-family="Helvetica,sans-Serif" font-size="10.00">~ stringToChars()</text>
<text text-anchor="start" x="16.5" y="-812.5" font-family="Helvetica,sans-Serif" font-size="10.00"># unify()</text>
<text text-anchor="start" x="16.5" y="-801.5" font-family="Helvetica,sans-Serif" font-size="10.00"># undo()</text>
<text text-anchor="start" x="16.5" y="-790.5" font-family="Helvetica,sans-Serif" font-size="10.00"># exec()</text>
</a>
</g>
</g>
<!-- Node5&#45;&gt;Node4 -->
<g id="edge4" class="edge"><title>Node5&#45;&gt;Node4</title>
<path fill="none" stroke="midnightblue" d="M57.5,-773.431C57.5,-763.975 57.5,-755.043 57.5,-746.912"/>
<polygon fill="none" stroke="midnightblue" points="54.0001,-773.464 57.5,-783.464 61.0001,-773.464 54.0001,-773.464"/>
</g>
<!-- Node6 -->
<g id="node6" class="node"><title>Node6</title>
<polygon fill="none" stroke="#bfbfbf" points="0,-1174.5 0,-1231.5 45,-1231.5 45,-1174.5 0,-1174.5"/>
<text text-anchor="middle" x="22.5" y="-1219.5" font-family="Helvetica,sans-Serif" font-size="10.00">Object</text>
<polyline fill="none" stroke="#bfbfbf" points="0,-1212.5 45,-1212.5 "/>
<text text-anchor="middle" x="22.5" y="-1200.5" font-family="Helvetica,sans-Serif" font-size="10.00"> </text>
<polyline fill="none" stroke="#bfbfbf" points="0,-1193.5 45,-1193.5 "/>
<text text-anchor="middle" x="22.5" y="-1181.5" font-family="Helvetica,sans-Serif" font-size="10.00"> </text>
</g>
<!-- Node6&#45;&gt;Node5 -->
<g id="edge5" class="edge"><title>Node6&#45;&gt;Node5</title>
<path fill="none" stroke="midnightblue" d="M27.9653,-1164.45C29.1323,-1156.43 30.4379,-1147.46 31.8327,-1137.87"/>
<polygon fill="none" stroke="midnightblue" points="24.4916,-1164.01 26.5149,-1174.41 31.4187,-1165.02 24.4916,-1164.01"/>
</g>
<!-- Node7 -->
<g id="node7" class="node"><title>Node7</title>
<polygon fill="none" stroke="#bfbfbf" points="63.5,-1174.5 63.5,-1231.5 123.5,-1231.5 123.5,-1174.5 63.5,-1174.5"/>
<text text-anchor="middle" x="93.5" y="-1219.5" font-family="Helvetica,sans-Serif" font-size="10.00">Cloneable</text>
<polyline fill="none" stroke="#bfbfbf" points="63.5,-1212.5 123.5,-1212.5 "/>
<text text-anchor="middle" x="93.5" y="-1200.5" font-family="Helvetica,sans-Serif" font-size="10.00"> </text>
<polyline fill="none" stroke="#bfbfbf" points="63.5,-1193.5 123.5,-1193.5 "/>
<text text-anchor="middle" x="93.5" y="-1181.5" font-family="Helvetica,sans-Serif" font-size="10.00"> </text>
</g>
<!-- Node7&#45;&gt;Node5 -->
<g id="edge6" class="edge"><title>Node7&#45;&gt;Node5</title>
<path fill="none" stroke="midnightblue" d="M87.8786,-1164.45C86.6782,-1156.43 85.3353,-1147.46 83.9007,-1137.87"/>
<polygon fill="none" stroke="midnightblue" points="84.4284,-1165.04 89.3703,-1174.41 91.3513,-1164 84.4284,-1165.04"/>
</g>
</g>
</svg>
