<?xml version="1.0" encoding="UTF-8" standalone="no"?>
<!DOCTYPE svg PUBLIC "-//W3C//DTD SVG 1.1//EN"
 "http://www.w3.org/Graphics/SVG/1.1/DTD/svg11.dtd">
<!-- Generated by graphviz version 2.38.0 (20140413.2041)
 -->
<!-- Title: prolog.fluents.DataBase.all1 Pages: 1 -->
<svg width="1058pt" height="265pt"
 viewBox="0.00 0.00 1058.00 265.00" xmlns="http://www.w3.org/2000/svg" xmlns:xlink="http://www.w3.org/1999/xlink">
<g id="graph0" class="graph" transform="scale(1 1) rotate(0) translate(4 261)">
<title>prolog.fluents.DataBase.all1</title>
<!-- Node1 -->
<g id="node1" class="node"><title>Node1</title>
<polygon fill="#bfbfbf" stroke="black" points="0,-57.5 0,-76.5 140,-76.5 140,-57.5 0,-57.5"/>
<text text-anchor="middle" x="70" y="-64.5" font-family="Helvetica,sans-Serif" font-size="10.00">prolog.fluents.DataBase.all1</text>
</g>
<!-- Node2 -->
<g id="node2" class="node"><title>Node2</title>
<g id="a_node2"><a xlink:href="../../da/dd9/classprolog_1_1fluents_1_1DataBase_a610cc1f35df4467fbb1fac1052091915.html#a610cc1f35df4467fbb1fac1052091915" target="_top" xlink:title="prolog.fluents.DataBase.all0">
<polygon fill="none" stroke="black" points="176,-76.5 176,-95.5 316,-95.5 316,-76.5 176,-76.5"/>
<text text-anchor="middle" x="246" y="-83.5" font-family="Helvetica,sans-Serif" font-size="10.00">prolog.fluents.DataBase.all0</text>
</a>
</g>
</g>
<!-- Node1&#45;&gt;Node2 -->
<g id="edge1" class="edge"><title>Node1&#45;&gt;Node2</title>
<path fill="none" stroke="midnightblue" d="M140.019,-74.5366C148.476,-75.46 157.169,-76.4093 165.761,-77.3474"/>
<polygon fill="midnightblue" stroke="midnightblue" points="165.459,-80.8352 175.779,-78.4414 166.219,-73.8765 165.459,-80.8352"/>
</g>
<!-- Node16 -->
<g id="node16" class="node"><title>Node16</title>
<g id="a_node16"><a xlink:href="../../de/d8d/classprolog_1_1terms_1_1Fun_a01490d7d66dd3e5cc2cad21772845608.html#a01490d7d66dd3e5cc2cad21772845608" target="_top" xlink:title="prolog.terms.Fun.listify">
<polygon fill="none" stroke="black" points="188,-38.5 188,-57.5 304,-57.5 304,-38.5 188,-38.5"/>
<text text-anchor="middle" x="246" y="-45.5" font-family="Helvetica,sans-Serif" font-size="10.00">prolog.terms.Fun.listify</text>
</a>
</g>
</g>
<!-- Node1&#45;&gt;Node16 -->
<g id="edge15" class="edge"><title>Node1&#45;&gt;Node16</title>
<path fill="none" stroke="midnightblue" d="M140.019,-59.4634C152.398,-58.1117 165.286,-56.7045 177.618,-55.3578"/>
<polygon fill="midnightblue" stroke="midnightblue" points="178.262,-58.8084 187.823,-54.2435 177.502,-51.8497 178.262,-58.8084"/>
</g>
<!-- Node3 -->
<g id="node3" class="node"><title>Node3</title>
<g id="a_node3"><a xlink:href="../../d3/ded/classprolog_1_1terms_1_1Term_ae44d814e035858ebc67573a97886511d.html#ae44d814e035858ebc67573a97886511d" target="_top" xlink:title="Returns a copy of the result if the unification of this and that. ">
<polygon fill="none" stroke="black" points="356,-152.5 356,-171.5 521,-171.5 521,-152.5 356,-152.5"/>
<text text-anchor="middle" x="438.5" y="-159.5" font-family="Helvetica,sans-Serif" font-size="10.00">prolog.terms.Term.matching_copy</text>
</a>
</g>
</g>
<!-- Node2&#45;&gt;Node3 -->
<g id="edge2" class="edge"><title>Node2&#45;&gt;Node3</title>
<path fill="none" stroke="midnightblue" d="M271.127,-95.6255C304.765,-109.045 365.897,-133.434 403.955,-148.617"/>
<polygon fill="midnightblue" stroke="midnightblue" points="402.984,-151.998 413.569,-152.453 405.578,-145.496 402.984,-151.998"/>
</g>
<!-- Node13 -->
<g id="node13" class="node"><title>Node13</title>
<g id="a_node13"><a xlink:href="../../de/d23/classprolog_1_1fluents_1_1Queue_aa5b9659115a717ce9a4bd1976f7bda66.html#aa5b9659115a717ce9a4bd1976f7bda66" target="_top" xlink:title="prolog.fluents.Queue.toEnumeration">
<polygon fill="none" stroke="black" points="352,-76.5 352,-95.5 525,-95.5 525,-76.5 352,-76.5"/>
<text text-anchor="middle" x="438.5" y="-83.5" font-family="Helvetica,sans-Serif" font-size="10.00">prolog.fluents.Queue.toEnumeration</text>
</a>
</g>
</g>
<!-- Node2&#45;&gt;Node13 -->
<g id="edge12" class="edge"><title>Node2&#45;&gt;Node13</title>
<path fill="none" stroke="midnightblue" d="M316.044,-86C324.386,-86 333.019,-86 341.658,-86"/>
<polygon fill="midnightblue" stroke="midnightblue" points="341.786,-89.5001 351.786,-86 341.786,-82.5001 341.786,-89.5001"/>
</g>
<!-- Node4 -->
<g id="node4" class="node"><title>Node4</title>
<g id="a_node4"><a xlink:href="../../d3/ded/classprolog_1_1terms_1_1Term_a84d8fb7e1f816d0dbe3c2c56ed28fdb9.html#a84d8fb7e1f816d0dbe3c2c56ed28fdb9" target="_top" xlink:title="Dereference and unify_to. ">
<polygon fill="none" stroke="black" points="574,-199.5 574,-218.5 694,-218.5 694,-199.5 574,-199.5"/>
<text text-anchor="middle" x="634" y="-206.5" font-family="Helvetica,sans-Serif" font-size="10.00">prolog.terms.Term.unify</text>
</a>
</g>
</g>
<!-- Node3&#45;&gt;Node4 -->
<g id="edge3" class="edge"><title>Node3&#45;&gt;Node4</title>
<path fill="none" stroke="midnightblue" d="M478.658,-171.511C508.982,-178.877 551.173,-189.125 583.781,-197.045"/>
<polygon fill="midnightblue" stroke="midnightblue" points="583.025,-200.463 593.569,-199.422 584.678,-193.661 583.025,-200.463"/>
</g>
<!-- Node7 -->
<g id="node7" class="node"><title>Node7</title>
<g id="a_node7"><a xlink:href="../../d3/ded/classprolog_1_1terms_1_1Term_a01e5a83e648ee3f89415c0142c4220d4.html#a01e5a83e648ee3f89415c0142c4220d4" target="_top" xlink:title="Returns a copy of a term with variables standardized apart (`fresh variables&#39;). ">
<polygon fill="none" stroke="black" points="574,-161.5 574,-180.5 694,-180.5 694,-161.5 574,-161.5"/>
<text text-anchor="middle" x="634" y="-168.5" font-family="Helvetica,sans-Serif" font-size="10.00">prolog.terms.Term.copy</text>
</a>
</g>
</g>
<!-- Node3&#45;&gt;Node7 -->
<g id="edge6" class="edge"><title>Node3&#45;&gt;Node7</title>
<path fill="none" stroke="midnightblue" d="M521.001,-165.791C535.157,-166.449 549.761,-167.128 563.557,-167.77"/>
<polygon fill="midnightblue" stroke="midnightblue" points="563.777,-171.284 573.929,-168.253 564.103,-164.292 563.777,-171.284"/>
</g>
<!-- Node10 -->
<g id="node10" class="node"><title>Node10</title>
<g id="a_node10"><a xlink:href="../../dd/dad/classprolog_1_1terms_1_1Trail_adab6fa04fe8e0da6e1870bd1b37a654b.html#adab6fa04fe8e0da6e1870bd1b37a654b" target="_top" xlink:title="Used to undo bindings after unification, if we intend to leave no side effects. ">
<polygon fill="none" stroke="black" points="571,-123.5 571,-142.5 697,-142.5 697,-123.5 571,-123.5"/>
<text text-anchor="middle" x="634" y="-130.5" font-family="Helvetica,sans-Serif" font-size="10.00">prolog.terms.Trail.unwind</text>
</a>
</g>
</g>
<!-- Node3&#45;&gt;Node10 -->
<g id="edge9" class="edge"><title>Node3&#45;&gt;Node10</title>
<path fill="none" stroke="midnightblue" d="M503.127,-152.464C521.615,-149.693 541.937,-146.648 560.905,-143.805"/>
<polygon fill="midnightblue" stroke="midnightblue" points="561.611,-147.238 570.982,-142.295 560.574,-140.316 561.611,-147.238"/>
</g>
<!-- Node5 -->
<g id="node5" class="node"><title>Node5</title>
<g id="a_node5"><a xlink:href="../../d3/ded/classprolog_1_1terms_1_1Term_ae140fac2c9d066dc897fcfa723060a7a.html#ae140fac2c9d066dc897fcfa723060a7a" target="_top" xlink:title="Dereferences if necessary. ">
<polygon fill="none" stroke="black" points="761,-237.5 761,-256.5 871,-256.5 871,-237.5 761,-237.5"/>
<text text-anchor="middle" x="816" y="-244.5" font-family="Helvetica,sans-Serif" font-size="10.00">prolog.terms.Term.ref</text>
</a>
</g>
</g>
<!-- Node4&#45;&gt;Node5 -->
<g id="edge4" class="edge"><title>Node4&#45;&gt;Node5</title>
<path fill="none" stroke="midnightblue" d="M680.422,-218.589C704.603,-223.694 734.527,-230.011 760.014,-235.392"/>
<polygon fill="midnightblue" stroke="midnightblue" points="759.398,-238.839 769.905,-237.48 760.844,-231.99 759.398,-238.839"/>
</g>
<!-- Node6 -->
<g id="node6" class="node"><title>Node6</title>
<g id="a_node6"><a xlink:href="../../d3/ded/classprolog_1_1terms_1_1Term_a866b2cca50e77e99b560578b2fa3a91a.html#a866b2cca50e77e99b560578b2fa3a91a" target="_top" xlink:title="Unify dereferenced. ">
<polygon fill="none" stroke="black" points="749,-199.5 749,-218.5 883,-218.5 883,-199.5 749,-199.5"/>
<text text-anchor="middle" x="816" y="-206.5" font-family="Helvetica,sans-Serif" font-size="10.00">prolog.terms.Term.unify_to</text>
</a>
</g>
</g>
<!-- Node4&#45;&gt;Node6 -->
<g id="edge5" class="edge"><title>Node4&#45;&gt;Node6</title>
<path fill="none" stroke="midnightblue" d="M694.438,-209C708.582,-209 723.869,-209 738.653,-209"/>
<polygon fill="midnightblue" stroke="midnightblue" points="738.787,-212.5 748.787,-209 738.787,-205.5 738.787,-212.5"/>
</g>
<!-- Node8 -->
<g id="node8" class="node"><title>Node8</title>
<g id="a_node8"><a xlink:href="../../d3/ded/classprolog_1_1terms_1_1Term_a0a660e6cd55f12e49d328e1b84b478a4.html#a0a660e6cd55f12e49d328e1b84b478a4" target="_top" xlink:title="Defines the reaction to an agent recursing over the structure of a term. ">
<polygon fill="none" stroke="black" points="749,-161.5 749,-180.5 883,-180.5 883,-161.5 749,-161.5"/>
<text text-anchor="middle" x="816" y="-168.5" font-family="Helvetica,sans-Serif" font-size="10.00">prolog.terms.Term.reaction</text>
</a>
</g>
</g>
<!-- Node7&#45;&gt;Node8 -->
<g id="edge7" class="edge"><title>Node7&#45;&gt;Node8</title>
<path fill="none" stroke="midnightblue" d="M694.438,-171C708.582,-171 723.869,-171 738.653,-171"/>
<polygon fill="midnightblue" stroke="midnightblue" points="738.787,-174.5 748.787,-171 738.787,-167.5 738.787,-174.5"/>
</g>
<!-- Node9 -->
<g id="node9" class="node"><title>Node9</title>
<g id="a_node9"><a xlink:href="../../d3/ded/classprolog_1_1terms_1_1Term_aa52e271c0f6784dbde9aa4f5f3ab0268.html#aa52e271c0f6784dbde9aa4f5f3ab0268" target="_top" xlink:title="Identity action. ">
<polygon fill="none" stroke="black" points="925,-161.5 925,-180.5 1050,-180.5 1050,-161.5 925,-161.5"/>
<text text-anchor="middle" x="987.5" y="-168.5" font-family="Helvetica,sans-Serif" font-size="10.00">prolog.terms.Term.action</text>
</a>
</g>
</g>
<!-- Node8&#45;&gt;Node9 -->
<g id="edge8" class="edge"><title>Node8&#45;&gt;Node9</title>
<path fill="none" stroke="midnightblue" d="M883.018,-171C893.444,-171 904.267,-171 914.814,-171"/>
<polygon fill="midnightblue" stroke="midnightblue" points="914.82,-174.5 924.82,-171 914.82,-167.5 914.82,-174.5"/>
</g>
<!-- Node11 -->
<g id="node11" class="node"><title>Node11</title>
<g id="a_node11"><a xlink:href="../../da/d93/classprolog_1_1terms_1_1ObjectStack_aaa01178e10f20beab62b1410ba720606.html#aaa01178e10f20beab62b1410ba720606" target="_top" xlink:title="prolog.terms.ObjectStack.pop">
<polygon fill="none" stroke="black" points="743,-123.5 743,-142.5 889,-142.5 889,-123.5 743,-123.5"/>
<text text-anchor="middle" x="816" y="-130.5" font-family="Helvetica,sans-Serif" font-size="10.00">prolog.terms.ObjectStack.pop</text>
</a>
</g>
</g>
<!-- Node10&#45;&gt;Node11 -->
<g id="edge10" class="edge"><title>Node10&#45;&gt;Node11</title>
<path fill="none" stroke="midnightblue" d="M697.198,-133C708.709,-133 720.893,-133 732.889,-133"/>
<polygon fill="midnightblue" stroke="midnightblue" points="732.903,-136.5 742.903,-133 732.903,-129.5 732.903,-136.5"/>
</g>
<!-- Node12 -->
<g id="node12" class="node"><title>Node12</title>
<g id="a_node12"><a xlink:href="../../d3/ded/classprolog_1_1terms_1_1Term_ac710eec3650309d160ca04e364804e47.html#ac710eec3650309d160ca04e364804e47" target="_top" xlink:title="prolog.terms.Term.undo">
<polygon fill="none" stroke="black" points="756,-85.5 756,-104.5 876,-104.5 876,-85.5 756,-85.5"/>
<text text-anchor="middle" x="816" y="-92.5" font-family="Helvetica,sans-Serif" font-size="10.00">prolog.terms.Term.undo</text>
</a>
</g>
</g>
<!-- Node10&#45;&gt;Node12 -->
<g id="edge11" class="edge"><title>Node10&#45;&gt;Node12</title>
<path fill="none" stroke="midnightblue" d="M680.422,-123.411C704.603,-118.306 734.527,-111.989 760.014,-106.608"/>
<polygon fill="midnightblue" stroke="midnightblue" points="760.844,-110.01 769.905,-104.52 759.398,-103.161 760.844,-110.01"/>
</g>
<!-- Node14 -->
<g id="node14" class="node"><title>Node14</title>
<g id="a_node14"><a xlink:href="../../de/d23/classprolog_1_1fluents_1_1Queue_adca2003759e9be115f6006eee370209a.html#adca2003759e9be115f6006eee370209a" target="_top" xlink:title="prolog.fluents.Queue.toVector">
<polygon fill="none" stroke="black" points="561,-66.5 561,-85.5 707,-85.5 707,-66.5 561,-66.5"/>
<text text-anchor="middle" x="634" y="-73.5" font-family="Helvetica,sans-Serif" font-size="10.00">prolog.fluents.Queue.toVector</text>
</a>
</g>
</g>
<!-- Node13&#45;&gt;Node14 -->
<g id="edge13" class="edge"><title>Node13&#45;&gt;Node14</title>
<path fill="none" stroke="midnightblue" d="M525.217,-81.5702C533.697,-81.1319 542.292,-80.6877 550.737,-80.2513"/>
<polygon fill="midnightblue" stroke="midnightblue" points="551.139,-83.7353 560.945,-79.7238 550.777,-76.7447 551.139,-83.7353"/>
</g>
<!-- Node15 -->
<g id="node15" class="node"><title>Node15</title>
<g id="a_node15"><a xlink:href="../../de/d23/classprolog_1_1fluents_1_1Queue_a3d1135124c700679bbd665d253dd9f0f.html#a3d1135124c700679bbd665d253dd9f0f" target="_top" xlink:title="prolog.fluents.Queue.inc">
<polygon fill="none" stroke="black" points="755,-47.5 755,-66.5 877,-66.5 877,-47.5 755,-47.5"/>
<text text-anchor="middle" x="816" y="-54.5" font-family="Helvetica,sans-Serif" font-size="10.00">prolog.fluents.Queue.inc</text>
</a>
</g>
</g>
<!-- Node14&#45;&gt;Node15 -->
<g id="edge14" class="edge"><title>Node14&#45;&gt;Node15</title>
<path fill="none" stroke="midnightblue" d="M707.176,-68.3815C719.554,-67.0748 732.402,-65.7187 744.73,-64.4174"/>
<polygon fill="midnightblue" stroke="midnightblue" points="745.364,-67.87 754.941,-63.3395 744.629,-60.9087 745.364,-67.87"/>
</g>
<!-- Node17 -->
<g id="node17" class="node"><title>Node17</title>
<g id="a_node17"><a xlink:href="../../d0/d3f/classprolog_1_1terms_1_1Const_a2f00757ecfe3ace23e67c5537c34cfbd.html#a2f00757ecfe3ace23e67c5537c34cfbd" target="_top" xlink:title="prolog.terms.Const.Const">
<polygon fill="none" stroke="black" points="374,-38.5 374,-57.5 503,-57.5 503,-38.5 374,-38.5"/>
<text text-anchor="middle" x="438.5" y="-45.5" font-family="Helvetica,sans-Serif" font-size="10.00">prolog.terms.Const.Const</text>
</a>
</g>
</g>
<!-- Node16&#45;&gt;Node17 -->
<g id="edge16" class="edge"><title>Node16&#45;&gt;Node17</title>
<path fill="none" stroke="midnightblue" d="M304.156,-48C322.822,-48 343.824,-48 363.543,-48"/>
<polygon fill="midnightblue" stroke="midnightblue" points="363.719,-51.5001 373.719,-48 363.719,-44.5001 363.719,-51.5001"/>
</g>
<!-- Node18 -->
<g id="node18" class="node"><title>Node18</title>
<g id="a_node18"><a xlink:href="../../d0/d3f/classprolog_1_1terms_1_1Const_a947005f966303baeb029a22d9201ea1b.html#a947005f966303baeb029a22d9201ea1b" target="_top" xlink:title="prolog.terms.Const.name">
<polygon fill="none" stroke="black" points="375,-0.5 375,-19.5 502,-19.5 502,-0.5 375,-0.5"/>
<text text-anchor="middle" x="438.5" y="-7.5" font-family="Helvetica,sans-Serif" font-size="10.00">prolog.terms.Const.name</text>
</a>
</g>
</g>
<!-- Node16&#45;&gt;Node18 -->
<g id="edge17" class="edge"><title>Node16&#45;&gt;Node18</title>
<path fill="none" stroke="midnightblue" d="M295.071,-38.411C320.776,-33.2835 352.613,-26.9328 379.664,-21.5368"/>
<polygon fill="midnightblue" stroke="midnightblue" points="380.652,-24.9087 389.774,-19.5201 379.283,-18.044 380.652,-24.9087"/>
</g>
</g>
</svg>
