<?xml version="1.0" encoding="UTF-8" standalone="no"?>
<!DOCTYPE svg PUBLIC "-//W3C//DTD SVG 1.1//EN"
 "http://www.w3.org/Graphics/SVG/1.1/DTD/svg11.dtd">
<!-- Generated by graphviz version 2.38.0 (20140413.2041)
 -->
<!-- Title: prolog.fluents.DataBase.pprint Pages: 1 -->
<svg width="888pt" height="78pt"
 viewBox="0.00 0.00 888.00 77.50" xmlns="http://www.w3.org/2000/svg" xmlns:xlink="http://www.w3.org/1999/xlink">
<g id="graph0" class="graph" transform="scale(1 1) rotate(0) translate(4 73.5)">
<title>prolog.fluents.DataBase.pprint</title>
<!-- Node1 -->
<g id="node1" class="node"><title>Node1</title>
<polygon fill="#bfbfbf" stroke="black" points="0,-6 0,-25 149,-25 149,-6 0,-6"/>
<text text-anchor="middle" x="74.5" y="-13" font-family="Helvetica,sans-Serif" font-size="10.00">prolog.fluents.DataBase.pprint</text>
</g>
<!-- Node2 -->
<g id="node2" class="node"><title>Node2</title>
<g id="a_node2"><a xlink:href="../../de/dd4/classprolog_1_1fluents_1_1HashDict_a54f03897afa22d30704aa1a5a8d341e2.html#a54f03897afa22d30704aa1a5a8d341e2" target="_top" xlink:title="prolog.fluents.HashDict.name">
<polygon fill="none" stroke="black" points="185,-50 185,-69 331,-69 331,-50 185,-50"/>
<text text-anchor="middle" x="258" y="-57" font-family="Helvetica,sans-Serif" font-size="10.00">prolog.fluents.HashDict.name</text>
</a>
</g>
</g>
<!-- Node1&#45;&gt;Node2 -->
<g id="edge1" class="edge"><title>Node1&#45;&gt;Node2</title>
<path fill="none" stroke="midnightblue" d="M114.883,-25.0473C142.116,-31.6492 178.55,-40.4819 207.71,-47.551"/>
<polygon fill="midnightblue" stroke="midnightblue" points="207.151,-51.0167 217.694,-49.9713 208.8,-44.2137 207.151,-51.0167"/>
</g>
<!-- Node3 -->
<g id="node3" class="node"><title>Node3</title>
<g id="a_node3"><a xlink:href="../../da/dd9/classprolog_1_1fluents_1_1DataBase_a2943c1694ea86572574a57f1a31f11c2.html#a2943c1694ea86572574a57f1a31f11c2" target="_top" xlink:title="prolog.fluents.DataBase.pred\l_to_string">
<polygon fill="none" stroke="black" points="186.5,-0.5 186.5,-30.5 329.5,-30.5 329.5,-0.5 186.5,-0.5"/>
<text text-anchor="start" x="194.5" y="-18.5" font-family="Helvetica,sans-Serif" font-size="10.00">prolog.fluents.DataBase.pred</text>
<text text-anchor="middle" x="258" y="-7.5" font-family="Helvetica,sans-Serif" font-size="10.00">_to_string</text>
</a>
</g>
</g>
<!-- Node1&#45;&gt;Node3 -->
<g id="edge2" class="edge"><title>Node1&#45;&gt;Node3</title>
<path fill="none" stroke="midnightblue" d="M149.061,-8.85879C157.986,-8.74459 167.14,-8.7203 176.163,-8.78592"/>
<polygon fill="midnightblue" stroke="midnightblue" points="176.235,-12.2868 186.274,-8.89822 176.313,-5.28728 176.235,-12.2868"/>
</g>
<!-- Node3&#45;&gt;Node1 -->
<g id="edge3" class="edge"><title>Node3&#45;&gt;Node1</title>
<path fill="none" stroke="midnightblue" d="M186.274,-22.1018C177.402,-22.2351 168.262,-22.2785 159.216,-22.2319"/>
<polygon fill="midnightblue" stroke="midnightblue" points="159.092,-18.7308 149.061,-22.1412 159.03,-25.7305 159.092,-18.7308"/>
</g>
<!-- Node4 -->
<g id="node4" class="node"><title>Node4</title>
<g id="a_node4"><a xlink:href="../../de/d23/classprolog_1_1fluents_1_1Queue_aa5b9659115a717ce9a4bd1976f7bda66.html#aa5b9659115a717ce9a4bd1976f7bda66" target="_top" xlink:title="prolog.fluents.Queue.toEnumeration">
<polygon fill="none" stroke="black" points="367,-6 367,-25 540,-25 540,-6 367,-6"/>
<text text-anchor="middle" x="453.5" y="-13" font-family="Helvetica,sans-Serif" font-size="10.00">prolog.fluents.Queue.toEnumeration</text>
</a>
</g>
</g>
<!-- Node3&#45;&gt;Node4 -->
<g id="edge4" class="edge"><title>Node3&#45;&gt;Node4</title>
<path fill="none" stroke="midnightblue" d="M329.679,-15.5C338.465,-15.5 347.56,-15.5 356.645,-15.5"/>
<polygon fill="midnightblue" stroke="midnightblue" points="356.88,-19.0001 366.88,-15.5 356.88,-12.0001 356.88,-19.0001"/>
</g>
<!-- Node5 -->
<g id="node5" class="node"><title>Node5</title>
<g id="a_node5"><a xlink:href="../../de/d23/classprolog_1_1fluents_1_1Queue_adca2003759e9be115f6006eee370209a.html#adca2003759e9be115f6006eee370209a" target="_top" xlink:title="prolog.fluents.Queue.toVector">
<polygon fill="none" stroke="black" points="576,-6 576,-25 722,-25 722,-6 576,-6"/>
<text text-anchor="middle" x="649" y="-13" font-family="Helvetica,sans-Serif" font-size="10.00">prolog.fluents.Queue.toVector</text>
</a>
</g>
</g>
<!-- Node4&#45;&gt;Node5 -->
<g id="edge5" class="edge"><title>Node4&#45;&gt;Node5</title>
<path fill="none" stroke="midnightblue" d="M540.217,-15.5C548.697,-15.5 557.292,-15.5 565.737,-15.5"/>
<polygon fill="midnightblue" stroke="midnightblue" points="565.945,-19.0001 575.945,-15.5 565.944,-12.0001 565.945,-19.0001"/>
</g>
<!-- Node6 -->
<g id="node6" class="node"><title>Node6</title>
<g id="a_node6"><a xlink:href="../../de/d23/classprolog_1_1fluents_1_1Queue_a3d1135124c700679bbd665d253dd9f0f.html#a3d1135124c700679bbd665d253dd9f0f" target="_top" xlink:title="prolog.fluents.Queue.inc">
<polygon fill="none" stroke="black" points="758,-6 758,-25 880,-25 880,-6 758,-6"/>
<text text-anchor="middle" x="819" y="-13" font-family="Helvetica,sans-Serif" font-size="10.00">prolog.fluents.Queue.inc</text>
</a>
</g>
</g>
<!-- Node5&#45;&gt;Node6 -->
<g id="edge6" class="edge"><title>Node5&#45;&gt;Node6</title>
<path fill="none" stroke="midnightblue" d="M722.222,-15.5C730.694,-15.5 739.33,-15.5 747.774,-15.5"/>
<polygon fill="midnightblue" stroke="midnightblue" points="747.956,-19.0001 757.956,-15.5 747.956,-12.0001 747.956,-19.0001"/>
</g>
</g>
</svg>
