<?xml version="1.0" encoding="UTF-8" standalone="no"?>
<!DOCTYPE svg PUBLIC "-//W3C//DTD SVG 1.1//EN"
 "http://www.w3.org/Graphics/SVG/1.1/DTD/svg11.dtd">
<!-- Generated by graphviz version 2.38.0 (20140413.2041)
 -->
<!-- Title: prolog.fluents.DataBase.all0 Pages: 1 -->
<svg width="796pt" height="88pt"
 viewBox="0.00 0.00 796.00 88.00" xmlns="http://www.w3.org/2000/svg" xmlns:xlink="http://www.w3.org/1999/xlink">
<g id="graph0" class="graph" transform="scale(1 1) rotate(0) translate(4 84)">
<title>prolog.fluents.DataBase.all0</title>
<!-- Node1 -->
<g id="node1" class="node"><title>Node1</title>
<polygon fill="#bfbfbf" stroke="black" points="0,-30 0,-49 140,-49 140,-30 0,-30"/>
<text text-anchor="middle" x="70" y="-37" font-family="Helvetica,sans-Serif" font-size="10.00">prolog.fluents.DataBase.all0</text>
</g>
<!-- Node2 -->
<g id="node2" class="node"><title>Node2</title>
<g id="a_node2"><a xlink:href="../../da/dd9/classprolog_1_1fluents_1_1DataBase_a4b4a68ddd60d87276cd7f9befd237ad9.html#a4b4a68ddd60d87276cd7f9befd237ad9" target="_top" xlink:title="prolog.fluents.DataBase.all1">
<polygon fill="none" stroke="black" points="176,-49 176,-68 316,-68 316,-49 176,-49"/>
<text text-anchor="middle" x="246" y="-56" font-family="Helvetica,sans-Serif" font-size="10.00">prolog.fluents.DataBase.all1</text>
</a>
</g>
</g>
<!-- Node1&#45;&gt;Node2 -->
<g id="edge1" class="edge"><title>Node1&#45;&gt;Node2</title>
<path fill="none" stroke="midnightblue" d="M150.035,-48.1303C158.625,-49.0682 167.319,-50.0176 175.779,-50.9414"/>
<polygon fill="midnightblue" stroke="midnightblue" points="150.34,-44.6429 140.019,-47.0366 149.58,-51.6015 150.34,-44.6429"/>
</g>
<!-- Node3 -->
<g id="node3" class="node"><title>Node3</title>
<g id="a_node3"><a xlink:href="../../da/dd9/classprolog_1_1fluents_1_1DataBase_a16bb9f309e161ca656d8aef483ba7e5f.html#a16bb9f309e161ca656d8aef483ba7e5f" target="_top" xlink:title="prolog.fluents.DataBase.all2">
<polygon fill="none" stroke="black" points="352,-30 352,-49 492,-49 492,-30 352,-30"/>
<text text-anchor="middle" x="422" y="-37" font-family="Helvetica,sans-Serif" font-size="10.00">prolog.fluents.DataBase.all2</text>
</a>
</g>
</g>
<!-- Node1&#45;&gt;Node3 -->
<g id="edge6" class="edge"><title>Node1&#45;&gt;Node3</title>
<path fill="none" stroke="midnightblue" d="M150.456,-39.5C211.178,-39.5 294.032,-39.5 351.995,-39.5"/>
<polygon fill="midnightblue" stroke="midnightblue" points="150.149,-36.0001 140.149,-39.5 150.149,-43.0001 150.149,-36.0001"/>
</g>
<!-- Node2&#45;&gt;Node3 -->
<g id="edge2" class="edge"><title>Node2&#45;&gt;Node3</title>
<path fill="none" stroke="midnightblue" d="M326.035,-49.8697C334.625,-48.9318 343.319,-47.9824 351.779,-47.0586"/>
<polygon fill="midnightblue" stroke="midnightblue" points="325.58,-46.3985 316.019,-50.9634 326.34,-53.3571 325.58,-46.3985"/>
</g>
<!-- Node4 -->
<g id="node4" class="node"><title>Node4</title>
<g id="a_node4"><a xlink:href="../../da/dd9/classprolog_1_1fluents_1_1DataBase_ac93f1bf928f7e64f000726f764891ea9.html#ac93f1bf928f7e64f000726f764891ea9" target="_top" xlink:title="Returns a (possibly empty) list of matching Term objects. ">
<polygon fill="none" stroke="black" points="528,-30 528,-49 662,-49 662,-30 528,-30"/>
<text text-anchor="middle" x="595" y="-37" font-family="Helvetica,sans-Serif" font-size="10.00">prolog.fluents.DataBase.all</text>
</a>
</g>
</g>
<!-- Node3&#45;&gt;Node4 -->
<g id="edge3" class="edge"><title>Node3&#45;&gt;Node4</title>
<path fill="none" stroke="midnightblue" d="M502.074,-39.5C510.656,-39.5 519.325,-39.5 527.733,-39.5"/>
<polygon fill="midnightblue" stroke="midnightblue" points="502.059,-36.0001 492.059,-39.5 502.059,-43.0001 502.059,-36.0001"/>
</g>
<!-- Node5 -->
<g id="node5" class="node"><title>Node5</title>
<g id="a_node5"><a xlink:href="../../df/dfb/classprolog_1_1builtins_1_1db__collect_a2c65ced6ccab65917066acd22e05c2ee.html#a2c65ced6ccab65917066acd22e05c2ee" target="_top" xlink:title="prolog.builtins.db\l_collect.exec">
<polygon fill="none" stroke="black" points="698,-49.5 698,-79.5 788,-79.5 788,-49.5 698,-49.5"/>
<text text-anchor="start" x="706" y="-67.5" font-family="Helvetica,sans-Serif" font-size="10.00">prolog.builtins.db</text>
<text text-anchor="middle" x="743" y="-56.5" font-family="Helvetica,sans-Serif" font-size="10.00">_collect.exec</text>
</a>
</g>
</g>
<!-- Node4&#45;&gt;Node5 -->
<g id="edge4" class="edge"><title>Node4&#45;&gt;Node5</title>
<path fill="none" stroke="midnightblue" d="M661.786,-50.7647C674.009,-52.8577 686.505,-54.9974 697.884,-56.9459"/>
<polygon fill="midnightblue" stroke="midnightblue" points="662.06,-47.2608 651.613,-49.0227 660.879,-54.1604 662.06,-47.2608"/>
</g>
<!-- Node6 -->
<g id="node6" class="node"><title>Node6</title>
<g id="a_node6"><a xlink:href="../../de/db4/classprolog_1_1builtins_1_1at__key_acf52ce169f8e3b064dbca64fcf06fcab.html#acf52ce169f8e3b064dbca64fcf06fcab" target="_top" xlink:title="prolog.builtins.at\l_key.exec">
<polygon fill="none" stroke="black" points="699,-0.5 699,-30.5 787,-30.5 787,-0.5 699,-0.5"/>
<text text-anchor="start" x="707" y="-18.5" font-family="Helvetica,sans-Serif" font-size="10.00">prolog.builtins.at</text>
<text text-anchor="middle" x="743" y="-7.5" font-family="Helvetica,sans-Serif" font-size="10.00">_key.exec</text>
</a>
</g>
</g>
<!-- Node4&#45;&gt;Node6 -->
<g id="edge5" class="edge"><title>Node4&#45;&gt;Node6</title>
<path fill="none" stroke="midnightblue" d="M664.03,-28.3169C675.908,-26.3644 687.962,-24.383 698.926,-22.5806"/>
<polygon fill="midnightblue" stroke="midnightblue" points="663.422,-24.8698 654.123,-29.9456 664.558,-31.7771 663.422,-24.8698"/>
</g>
</g>
</svg>
