<?xml version="1.0" encoding="UTF-8" standalone="no"?>
<!DOCTYPE svg PUBLIC "-//W3C//DTD SVG 1.1//EN"
 "http://www.w3.org/Graphics/SVG/1.1/DTD/svg11.dtd">
<!-- Generated by graphviz version 2.38.0 (20140413.2041)
 -->
<!-- Title: prolog.fluents.DataBase.cin Pages: 1 -->
<!--zoomable 338 -->
<svg id="main" version="1.1" xmlns="http://www.w3.org/2000/svg" xmlns:xlink="http://www.w3.org/1999/xlink" xml:space="preserve" onload="init(evt)">
<style type="text/css"><![CDATA[
.edge:hover path { stroke: red; }
.edge:hover polygon { stroke: red; fill: red; }
]]></style>
<script type="text/javascript"><![CDATA[
var edges = document.getElementsByTagName('g');
if (edges && edges.length) {
  for (var i=0;i<edges.length;i++) {
    if (edges[i].id.substr(0,4)=='edge') {
      edges[i].setAttribute('class','edge');
    }
  }
}
]]></script>
        <defs>
                <circle id="rim" cx="0" cy="0" r="7"/>
                <circle id="rim2" cx="0" cy="0" r="3.5"/>
                <g id="zoomPlus">
                        <use xlink:href="#rim" fill="#404040">
                                <set attributeName="fill" to="#808080" begin="zoomplus.mouseover" end="zoomplus.mouseout"/>
                        </use>
                        <path d="M-4,0h8M0,-4v8" fill="none" stroke="white" stroke-width="1.5" pointer-events="none"/>
                </g>
                <g id="zoomMin">
                        <use xlink:href="#rim" fill="#404040">
                                <set attributeName="fill" to="#808080" begin="zoomminus.mouseover" end="zoomminus.mouseout"/>
                        </use>
                        <path d="M-4,0h8" fill="none" stroke="white" stroke-width="1.5" pointer-events="none"/>
                </g>
                <g id="dirArrow">
                        <path fill="none" stroke="white" stroke-width="1.5" d="M0,-3.0v7 M-2.5,-0.5L0,-3.0L2.5,-0.5"/>
                </g>
               <g id="resetDef">
                       <use xlink:href="#rim2" fill="#404040">
                               <set attributeName="fill" to="#808080" begin="reset.mouseover" end="reset.mouseout"/>
                       </use>
               </g>
        </defs>

<script type="text/javascript">
var viewWidth = 1748;
var viewHeight = 338;
var sectionId = 'dynsection-0';
</script>
<script xlink:href="../../svgpan.js"/>
<svg id="graph" class="graph">
<g id="viewport">
<title>prolog.fluents.DataBase.cin</title>
<!-- Node1 -->
<g id="node1" class="node"><title>Node1</title>
<polygon fill="#bfbfbf" stroke="black" points="0,-271.106 0,-290.106 137,-290.106 137,-271.106 0,-271.106"/>
<text text-anchor="middle" x="68.5" y="-278.106" font-family="Helvetica,sans-Serif" font-size="10.00">prolog.fluents.DataBase.cin</text>
</g>
<!-- Node2 -->
<g id="node2" class="node"><title>Node2</title>
<g id="a_node2"><a xlink:href="../../d3/ded/classprolog_1_1terms_1_1Term_a01e5a83e648ee3f89415c0142c4220d4.html#a01e5a83e648ee3f89415c0142c4220d4" target="_top" xlink:title="Returns a copy of a term with variables standardized apart (`fresh variables&#39;). ">
<polygon fill="none" stroke="black" points="188,-300.106 188,-319.106 308,-319.106 308,-300.106 188,-300.106"/>
<text text-anchor="middle" x="248" y="-307.106" font-family="Helvetica,sans-Serif" font-size="10.00">prolog.terms.Term.copy</text>
</a>
</g>
</g>
<!-- Node1&#45;&gt;Node2 -->
<g id="edge1" class="edge"><title>Node1&#45;&gt;Node2</title>
<path fill="none" stroke="midnightblue" d="M128.112,-290.182C144.252,-292.819 161.9,-295.702 178.542,-298.421"/>
<polygon fill="midnightblue" stroke="midnightblue" points="178.319,-301.931 188.752,-300.089 179.447,-295.022 178.319,-301.931"/>
</g>
<!-- Node5 -->
<g id="node5" class="node"><title>Node5</title>
<g id="a_node5"><a xlink:href="../../d2/d8d/classprolog_1_1fluents_1_1BlackBoard_a4b49c266b7b7abbc698841281e426bfe.html#a4b49c266b7b7abbc698841281e426bfe" target="_top" xlink:title="Removes the first matching Term or Clause from the blackboard, to be used by Linda in/1 operation in ...">
<polygon fill="none" stroke="black" points="173,-243.106 173,-262.106 323,-262.106 323,-243.106 173,-243.106"/>
<text text-anchor="middle" x="248" y="-250.106" font-family="Helvetica,sans-Serif" font-size="10.00">prolog.fluents.BlackBoard.take</text>
</a>
</g>
</g>
<!-- Node1&#45;&gt;Node5 -->
<g id="edge4" class="edge"><title>Node1&#45;&gt;Node5</title>
<path fill="none" stroke="midnightblue" d="M130.089,-271.048C145.083,-268.683 161.273,-266.129 176.687,-263.697"/>
<polygon fill="midnightblue" stroke="midnightblue" points="177.352,-267.136 186.684,-262.12 176.261,-260.221 177.352,-267.136"/>
</g>
<!-- Node3 -->
<g id="node3" class="node"><title>Node3</title>
<g id="a_node3"><a xlink:href="../../d3/ded/classprolog_1_1terms_1_1Term_a0a660e6cd55f12e49d328e1b84b478a4.html#a0a660e6cd55f12e49d328e1b84b478a4" target="_top" xlink:title="Defines the reaction to an agent recursing over the structure of a term. ">
<polygon fill="none" stroke="black" points="377,-310.106 377,-329.106 511,-329.106 511,-310.106 377,-310.106"/>
<text text-anchor="middle" x="444" y="-317.106" font-family="Helvetica,sans-Serif" font-size="10.00">prolog.terms.Term.reaction</text>
</a>
</g>
</g>
<!-- Node2&#45;&gt;Node3 -->
<g id="edge2" class="edge"><title>Node2&#45;&gt;Node3</title>
<path fill="none" stroke="midnightblue" d="M308.261,-312.66C326.764,-313.614 347.438,-314.68 366.928,-315.684"/>
<polygon fill="midnightblue" stroke="midnightblue" points="366.828,-319.184 376.995,-316.203 367.188,-312.193 366.828,-319.184"/>
</g>
<!-- Node4 -->
<g id="node4" class="node"><title>Node4</title>
<g id="a_node4"><a xlink:href="../../d3/ded/classprolog_1_1terms_1_1Term_aa52e271c0f6784dbde9aa4f5f3ab0268.html#aa52e271c0f6784dbde9aa4f5f3ab0268" target="_top" xlink:title="Identity action. ">
<polygon fill="none" stroke="black" points="577,-310.106 577,-329.106 702,-329.106 702,-310.106 577,-310.106"/>
<text text-anchor="middle" x="639.5" y="-317.106" font-family="Helvetica,sans-Serif" font-size="10.00">prolog.terms.Term.action</text>
</a>
</g>
</g>
<!-- Node3&#45;&gt;Node4 -->
<g id="edge3" class="edge"><title>Node3&#45;&gt;Node4</title>
<path fill="none" stroke="midnightblue" d="M511.051,-319.606C529.064,-319.606 548.661,-319.606 566.964,-319.606"/>
<polygon fill="midnightblue" stroke="midnightblue" points="566.981,-323.106 576.981,-319.606 566.981,-316.106 566.981,-323.106"/>
</g>
<!-- Node6 -->
<g id="node6" class="node"><title>Node6</title>
<g id="a_node6"><a xlink:href="../../d2/d8d/classprolog_1_1fluents_1_1BlackBoard_aac87e5ee52935ab35a1b8fd9ac463945.html#aac87e5ee52935ab35a1b8fd9ac463945" target="_top" xlink:title="prolog.fluents.BlackBoard.addBack">
<polygon fill="none" stroke="black" points="359,-177.106 359,-196.106 529,-196.106 529,-177.106 359,-177.106"/>
<text text-anchor="middle" x="444" y="-184.106" font-family="Helvetica,sans-Serif" font-size="10.00">prolog.fluents.BlackBoard.addBack</text>
</a>
</g>
</g>
<!-- Node5&#45;&gt;Node6 -->
<g id="edge5" class="edge"><title>Node5&#45;&gt;Node6</title>
<path fill="none" stroke="midnightblue" d="M277.209,-243.009C311.07,-231.489 367.971,-212.131 405.504,-199.362"/>
<polygon fill="midnightblue" stroke="midnightblue" points="406.732,-202.641 415.071,-196.107 404.477,-196.014 406.732,-202.641"/>
</g>
<!-- Node21 -->
<g id="node21" class="node"><title>Node21</title>
<g id="a_node21"><a xlink:href="../../d3/ded/classprolog_1_1terms_1_1Term_a0a9b83bb831ed6ac6dd508c099007ac0.html#a0a9b83bb831ed6ac6dd508c099007ac0" target="_top" xlink:title="Tests if this term unifies with that. ">
<polygon fill="none" stroke="black" points="375.5,-234.106 375.5,-253.106 512.5,-253.106 512.5,-234.106 375.5,-234.106"/>
<text text-anchor="middle" x="444" y="-241.106" font-family="Helvetica,sans-Serif" font-size="10.00">prolog.terms.Term.matches</text>
</a>
</g>
</g>
<!-- Node5&#45;&gt;Node21 -->
<g id="edge26" class="edge"><title>Node5&#45;&gt;Node21</title>
<path fill="none" stroke="midnightblue" d="M323.173,-249.165C336.945,-248.526 351.368,-247.857 365.244,-247.213"/>
<polygon fill="midnightblue" stroke="midnightblue" points="365.406,-250.709 375.233,-246.749 365.082,-243.717 365.406,-250.709"/>
</g>
<!-- Node22 -->
<g id="node22" class="node"><title>Node22</title>
<g id="a_node22"><a xlink:href="../../d2/d8d/classprolog_1_1fluents_1_1BlackBoard_a9a02fa64d8837510e94f4ef70aa25096.html#a9a02fa64d8837510e94f4ef70aa25096" target="_top" xlink:title="Removes the first Term having key k or the first enumerated key if k is null. ">
<polygon fill="none" stroke="black" points="565,-272.106 565,-291.106 714,-291.106 714,-272.106 565,-272.106"/>
<text text-anchor="middle" x="639.5" y="-279.106" font-family="Helvetica,sans-Serif" font-size="10.00">prolog.fluents.BlackBoard.pick</text>
</a>
</g>
</g>
<!-- Node5&#45;&gt;Node22 -->
<g id="edge27" class="edge"><title>Node5&#45;&gt;Node22</title>
<path fill="none" stroke="midnightblue" d="M323.239,-259.587C335.193,-260.644 347.435,-261.687 359,-262.606 424.726,-267.826 499.218,-272.846 554.762,-276.413"/>
<polygon fill="midnightblue" stroke="midnightblue" points="554.703,-279.916 564.907,-277.062 555.15,-272.931 554.703,-279.916"/>
</g>
<!-- Node7 -->
<g id="node7" class="node"><title>Node7</title>
<g id="a_node7"><a xlink:href="../../d2/d8d/classprolog_1_1fluents_1_1BlackBoard_aca9281fa2c70090208e6d62d28406480.html#aca9281fa2c70090208e6d62d28406480" target="_top" xlink:title="Adds a Term or Clause to the the blackboard, to be used by Linda out/1 operation. ...">
<polygon fill="none" stroke="black" points="566,-139.106 566,-158.106 713,-158.106 713,-139.106 566,-139.106"/>
<text text-anchor="middle" x="639.5" y="-146.106" font-family="Helvetica,sans-Serif" font-size="10.00">prolog.fluents.BlackBoard.add</text>
</a>
</g>
</g>
<!-- Node6&#45;&gt;Node7 -->
<g id="edge6" class="edge"><title>Node6&#45;&gt;Node7</title>
<path fill="none" stroke="midnightblue" d="M493.828,-177.017C520.053,-171.867 552.562,-165.482 580.116,-160.071"/>
<polygon fill="midnightblue" stroke="midnightblue" points="580.885,-163.487 590.023,-158.126 579.536,-156.618 580.885,-163.487"/>
</g>
<!-- Node8 -->
<g id="node8" class="node"><title>Node8</title>
<g id="a_node8"><a xlink:href="../../de/d23/classprolog_1_1fluents_1_1Queue_ac547996ff0686a0df9b16cb070bef1be.html#ac547996ff0686a0df9b16cb070bef1be" target="_top" xlink:title="Adds an element to the end of the queue. ">
<polygon fill="none" stroke="black" points="760.5,-139.106 760.5,-158.106 885.5,-158.106 885.5,-139.106 760.5,-139.106"/>
<text text-anchor="middle" x="823" y="-146.106" font-family="Helvetica,sans-Serif" font-size="10.00">prolog.fluents.Queue.enq</text>
</a>
</g>
</g>
<!-- Node7&#45;&gt;Node8 -->
<g id="edge7" class="edge"><title>Node7&#45;&gt;Node8</title>
<path fill="none" stroke="midnightblue" d="M713.016,-148.606C725.281,-148.606 738.01,-148.606 750.256,-148.606"/>
<polygon fill="midnightblue" stroke="midnightblue" points="750.408,-152.106 760.407,-148.606 750.407,-145.106 750.408,-152.106"/>
</g>
<!-- Node20 -->
<g id="node20" class="node"><title>Node20</title>
<g id="a_node20"><a xlink:href="../../d4/dc2/classprolog_1_1io_1_1IO_ab6e0553457312c4804472cbe1c646a28.html#ab6e0553457312c4804472cbe1c646a28" target="_top" xlink:title="prolog.io.IO.errmes">
<polygon fill="none" stroke="black" points="954,-101.106 954,-120.106 1054,-120.106 1054,-101.106 954,-101.106"/>
<text text-anchor="middle" x="1004" y="-108.106" font-family="Helvetica,sans-Serif" font-size="10.00">prolog.io.IO.errmes</text>
</a>
</g>
</g>
<!-- Node7&#45;&gt;Node20 -->
<g id="edge25" class="edge"><title>Node7&#45;&gt;Node20</title>
<path fill="none" stroke="midnightblue" d="M689.407,-139.077C708.281,-135.674 730.086,-132.075 750,-129.606 816.046,-121.415 892.26,-116.274 943.634,-113.436"/>
<polygon fill="midnightblue" stroke="midnightblue" points="944.09,-116.917 953.886,-112.882 943.712,-109.927 944.09,-116.917"/>
</g>
<!-- Node9 -->
<g id="node9" class="node"><title>Node9</title>
<g id="a_node9"><a xlink:href="../../de/d23/classprolog_1_1fluents_1_1Queue_a3d1135124c700679bbd665d253dd9f0f.html#a3d1135124c700679bbd665d253dd9f0f" target="_top" xlink:title="prolog.fluents.Queue.inc">
<polygon fill="none" stroke="black" points="1473,-196.106 1473,-215.106 1595,-215.106 1595,-196.106 1473,-196.106"/>
<text text-anchor="middle" x="1534" y="-203.106" font-family="Helvetica,sans-Serif" font-size="10.00">prolog.fluents.Queue.inc</text>
</a>
</g>
</g>
<!-- Node8&#45;&gt;Node9 -->
<g id="edge8" class="edge"><title>Node8&#45;&gt;Node9</title>
<path fill="none" stroke="midnightblue" d="M837.914,-139.017C857.787,-125.861 895.898,-102.597 932,-91.6056 1147.32,-26.05 1239.88,55.041 1437,-53.6056 1463.73,-68.3407 1505.66,-149.302 1523.96,-186.68"/>
<polygon fill="midnightblue" stroke="midnightblue" points="1520.95,-188.501 1528.46,-195.976 1527.25,-185.45 1520.95,-188.501"/>
</g>
<!-- Node10 -->
<g id="node10" class="node"><title>Node10</title>
<g id="a_node10"><a xlink:href="../../de/d23/classprolog_1_1fluents_1_1Queue_a16816604313a1e73e9d8845cdd4cbf8a.html#a16816604313a1e73e9d8845cdd4cbf8a" target="_top" xlink:title="Dynamically resizes the queue. ">
<polygon fill="none" stroke="black" points="932,-196.106 932,-215.106 1076,-215.106 1076,-196.106 932,-196.106"/>
<text text-anchor="middle" x="1004" y="-203.106" font-family="Helvetica,sans-Serif" font-size="10.00">prolog.fluents.Queue.requeue</text>
</a>
</g>
</g>
<!-- Node8&#45;&gt;Node10 -->
<g id="edge9" class="edge"><title>Node8&#45;&gt;Node10</title>
<path fill="none" stroke="midnightblue" d="M853.961,-158.146C883.905,-167.682 930.124,-182.399 963.149,-192.916"/>
<polygon fill="midnightblue" stroke="midnightblue" points="962.351,-196.335 972.942,-196.034 964.475,-189.665 962.351,-196.335"/>
</g>
<!-- Node8&#45;&gt;Node20 -->
<g id="edge22" class="edge"><title>Node8&#45;&gt;Node20</title>
<path fill="none" stroke="midnightblue" d="M869.169,-139.017C893.216,-133.912 922.974,-127.594 948.319,-122.214"/>
<polygon fill="midnightblue" stroke="midnightblue" points="949.1,-125.626 958.156,-120.126 947.647,-118.779 949.1,-125.626"/>
</g>
<!-- Node10&#45;&gt;Node9 -->
<g id="edge21" class="edge"><title>Node10&#45;&gt;Node9</title>
<path fill="none" stroke="midnightblue" d="M1076.21,-205.606C1177.44,-205.606 1361.85,-205.606 1462.62,-205.606"/>
<polygon fill="midnightblue" stroke="midnightblue" points="1462.71,-209.106 1472.7,-205.606 1462.7,-202.106 1462.71,-209.106"/>
</g>
<!-- Node11 -->
<g id="node11" class="node"><title>Node11</title>
<g id="a_node11"><a xlink:href="../../de/d23/classprolog_1_1fluents_1_1Queue_a897146b8e89a4532bbd63061d1a87144.html#a897146b8e89a4532bbd63061d1a87144" target="_top" xlink:title="prolog.fluents.Queue.count">
<polygon fill="none" stroke="black" points="1297,-253.106 1297,-272.106 1431,-272.106 1431,-253.106 1297,-253.106"/>
<text text-anchor="middle" x="1364" y="-260.106" font-family="Helvetica,sans-Serif" font-size="10.00">prolog.fluents.Queue.count</text>
</a>
</g>
</g>
<!-- Node10&#45;&gt;Node11 -->
<g id="edge10" class="edge"><title>Node10&#45;&gt;Node11</title>
<path fill="none" stroke="midnightblue" d="M1026.64,-215.215C1047.91,-224.197 1081.53,-237.161 1112,-243.606 1169.8,-255.828 1236.55,-260.441 1286.68,-262.072"/>
<polygon fill="midnightblue" stroke="midnightblue" points="1286.69,-265.573 1296.79,-262.368 1286.9,-258.576 1286.69,-265.573"/>
</g>
<!-- Node12 -->
<g id="node12" class="node"><title>Node12</title>
<g id="a_node12"><a xlink:href="../../d4/dc2/classprolog_1_1io_1_1IO_aaa553b2e5bb8b5de129d38fe67293316.html#aaa553b2e5bb8b5de129d38fe67293316" target="_top" xlink:title="prolog.io.IO.trace">
<polygon fill="none" stroke="black" points="1137.5,-139.106 1137.5,-158.106 1229.5,-158.106 1229.5,-139.106 1137.5,-139.106"/>
<text text-anchor="middle" x="1183.5" y="-146.106" font-family="Helvetica,sans-Serif" font-size="10.00">prolog.io.IO.trace</text>
</a>
</g>
</g>
<!-- Node10&#45;&gt;Node12 -->
<g id="edge11" class="edge"><title>Node10&#45;&gt;Node12</title>
<path fill="none" stroke="midnightblue" d="M1034.71,-196.065C1064.4,-186.53 1110.23,-171.812 1142.98,-161.296"/>
<polygon fill="midnightblue" stroke="midnightblue" points="1144.24,-164.567 1152.69,-158.177 1142.1,-157.902 1144.24,-164.567"/>
</g>
<!-- Node18 -->
<g id="node18" class="node"><title>Node18</title>
<g id="a_node18"><a xlink:href="../../de/d23/classprolog_1_1fluents_1_1Queue_af00e19e476afb783189f3ded5c1af564.html#af00e19e476afb783189f3ded5c1af564" target="_top" xlink:title="prolog.fluents.Queue.toString">
<polygon fill="none" stroke="black" points="1112,-215.106 1112,-234.106 1255,-234.106 1255,-215.106 1112,-215.106"/>
<text text-anchor="middle" x="1183.5" y="-222.106" font-family="Helvetica,sans-Serif" font-size="10.00">prolog.fluents.Queue.toString</text>
</a>
</g>
</g>
<!-- Node10&#45;&gt;Node18 -->
<g id="edge17" class="edge"><title>Node10&#45;&gt;Node18</title>
<path fill="none" stroke="midnightblue" d="M1076.17,-213.224C1084.63,-214.129 1093.31,-215.058 1101.89,-215.977"/>
<polygon fill="midnightblue" stroke="midnightblue" points="1101.57,-219.463 1111.89,-217.047 1102.32,-212.503 1101.57,-219.463"/>
</g>
<!-- Node13 -->
<g id="node13" class="node"><title>Node13</title>
<g id="a_node13"><a xlink:href="../../d4/dc2/classprolog_1_1io_1_1IO_ad851906c6ebd6559eb1b1fa52e26dabb.html#ad851906c6ebd6559eb1b1fa52e26dabb" target="_top" xlink:title="prolog.io.IO.println">
<polygon fill="none" stroke="black" points="1316,-63.1056 1316,-82.1056 1412,-82.1056 1412,-63.1056 1316,-63.1056"/>
<text text-anchor="middle" x="1364" y="-70.1056" font-family="Helvetica,sans-Serif" font-size="10.00">prolog.io.IO.println</text>
</a>
</g>
</g>
<!-- Node12&#45;&gt;Node13 -->
<g id="edge12" class="edge"><title>Node12&#45;&gt;Node13</title>
<path fill="none" stroke="midnightblue" d="M1199.83,-138.918C1220.05,-126.494 1257.04,-104.961 1291,-91.6056 1297.22,-89.1577 1303.87,-86.9232 1310.52,-84.9159"/>
<polygon fill="midnightblue" stroke="midnightblue" points="1311.56,-88.2586 1320.21,-82.139 1309.63,-81.5295 1311.56,-88.2586"/>
</g>
<!-- Node16 -->
<g id="node16" class="node"><title>Node16</title>
<g id="a_node16"><a xlink:href="../../d4/dc2/classprolog_1_1io_1_1IO_a22a9a2bfe9fa6e00257369f5bf078a44.html#a22a9a2bfe9fa6e00257369f5bf078a44" target="_top" xlink:title="prolog.io.IO.getStdOutput">
<polygon fill="none" stroke="black" points="1300,-101.106 1300,-120.106 1428,-120.106 1428,-101.106 1300,-101.106"/>
<text text-anchor="middle" x="1364" y="-108.106" font-family="Helvetica,sans-Serif" font-size="10.00">prolog.io.IO.getStdOutput</text>
</a>
</g>
</g>
<!-- Node12&#45;&gt;Node16 -->
<g id="edge15" class="edge"><title>Node12&#45;&gt;Node16</title>
<path fill="none" stroke="midnightblue" d="M1229.54,-139.017C1253.52,-133.912 1283.2,-127.594 1308.47,-122.214"/>
<polygon fill="midnightblue" stroke="midnightblue" points="1309.23,-125.631 1318.28,-120.126 1307.77,-118.785 1309.23,-125.631"/>
</g>
<!-- Node17 -->
<g id="node17" class="node"><title>Node17</title>
<g id="a_node17"><a xlink:href="../../d6/d92/interfaceprolog_1_1io_1_1IOPeer_a780dd51c62dba4c266286171101b2cee.html#a780dd51c62dba4c266286171101b2cee" target="_top" xlink:title="prolog.io.IOPeer.traceln">
<polygon fill="none" stroke="black" points="1304.5,-139.106 1304.5,-158.106 1423.5,-158.106 1423.5,-139.106 1304.5,-139.106"/>
<text text-anchor="middle" x="1364" y="-146.106" font-family="Helvetica,sans-Serif" font-size="10.00">prolog.io.IOPeer.traceln</text>
</a>
</g>
</g>
<!-- Node12&#45;&gt;Node17 -->
<g id="edge16" class="edge"><title>Node12&#45;&gt;Node17</title>
<path fill="none" stroke="midnightblue" d="M1229.54,-148.606C1249.16,-148.606 1272.58,-148.606 1294.3,-148.606"/>
<polygon fill="midnightblue" stroke="midnightblue" points="1294.46,-152.106 1304.46,-148.606 1294.46,-145.106 1294.46,-152.106"/>
</g>
<!-- Node14 -->
<g id="node14" class="node"><title>Node14</title>
<g id="a_node14"><a xlink:href="../../d4/dc2/classprolog_1_1io_1_1IO_aab64872af087c6cd9c5dd13e9f4eda00.html#aab64872af087c6cd9c5dd13e9f4eda00" target="_top" xlink:title="prolog.io.IO.print">
<polygon fill="none" stroke="black" points="1489.5,-63.1056 1489.5,-82.1056 1578.5,-82.1056 1578.5,-63.1056 1489.5,-63.1056"/>
<text text-anchor="middle" x="1534" y="-70.1056" font-family="Helvetica,sans-Serif" font-size="10.00">prolog.io.IO.print</text>
</a>
</g>
</g>
<!-- Node13&#45;&gt;Node14 -->
<g id="edge13" class="edge"><title>Node13&#45;&gt;Node14</title>
<path fill="none" stroke="midnightblue" d="M1412.24,-72.6056C1433.01,-72.6056 1457.51,-72.6056 1479,-72.6056"/>
<polygon fill="midnightblue" stroke="midnightblue" points="1479.28,-76.1057 1489.28,-72.6056 1479.28,-69.1057 1479.28,-76.1057"/>
</g>
<!-- Node15 -->
<g id="node15" class="node"><title>Node15</title>
<g id="a_node15"><a xlink:href="../../d6/d92/interfaceprolog_1_1io_1_1IOPeer_abc1f90b85b358011e2595069d38ac25f.html#abc1f90b85b358011e2595069d38ac25f" target="_top" xlink:title="prolog.io.IOPeer.print">
<polygon fill="none" stroke="black" points="1631,-63.1056 1631,-82.1056 1740,-82.1056 1740,-63.1056 1631,-63.1056"/>
<text text-anchor="middle" x="1685.5" y="-70.1056" font-family="Helvetica,sans-Serif" font-size="10.00">prolog.io.IOPeer.print</text>
</a>
</g>
</g>
<!-- Node14&#45;&gt;Node15 -->
<g id="edge14" class="edge"><title>Node14&#45;&gt;Node15</title>
<path fill="none" stroke="midnightblue" d="M1578.64,-72.6056C1591.82,-72.6056 1606.57,-72.6056 1620.77,-72.6056"/>
<polygon fill="midnightblue" stroke="midnightblue" points="1620.99,-76.1057 1630.99,-72.6056 1620.99,-69.1057 1620.99,-76.1057"/>
</g>
<!-- Node18&#45;&gt;Node11 -->
<g id="edge18" class="edge"><title>Node18&#45;&gt;Node11</title>
<path fill="none" stroke="midnightblue" d="M1229.54,-234.195C1253.52,-239.299 1283.2,-245.617 1308.47,-250.997"/>
<polygon fill="midnightblue" stroke="midnightblue" points="1307.77,-254.427 1318.28,-253.086 1309.23,-247.58 1307.77,-254.427"/>
</g>
<!-- Node19 -->
<g id="node19" class="node"><title>Node19</title>
<g id="a_node19"><a xlink:href="../../de/d23/classprolog_1_1fluents_1_1Queue_adca2003759e9be115f6006eee370209a.html#adca2003759e9be115f6006eee370209a" target="_top" xlink:title="prolog.fluents.Queue.toVector">
<polygon fill="none" stroke="black" points="1291,-215.106 1291,-234.106 1437,-234.106 1437,-215.106 1291,-215.106"/>
<text text-anchor="middle" x="1364" y="-222.106" font-family="Helvetica,sans-Serif" font-size="10.00">prolog.fluents.Queue.toVector</text>
</a>
</g>
</g>
<!-- Node18&#45;&gt;Node19 -->
<g id="edge19" class="edge"><title>Node18&#45;&gt;Node19</title>
<path fill="none" stroke="midnightblue" d="M1255.05,-224.606C1263.52,-224.606 1272.23,-224.606 1280.86,-224.606"/>
<polygon fill="midnightblue" stroke="midnightblue" points="1280.92,-228.106 1290.92,-224.606 1280.92,-221.106 1280.92,-228.106"/>
</g>
<!-- Node19&#45;&gt;Node9 -->
<g id="edge20" class="edge"><title>Node19&#45;&gt;Node9</title>
<path fill="none" stroke="midnightblue" d="M1437.22,-216.438C1445.69,-215.479 1454.33,-214.503 1462.77,-213.548"/>
<polygon fill="midnightblue" stroke="midnightblue" points="1463.41,-216.998 1472.96,-212.396 1462.63,-210.042 1463.41,-216.998"/>
</g>
<!-- Node20&#45;&gt;Node13 -->
<g id="edge23" class="edge"><title>Node20&#45;&gt;Node13</title>
<path fill="none" stroke="midnightblue" d="M1054.03,-105.402C1119.69,-98.4316 1235.99,-86.0876 1305.64,-78.694"/>
<polygon fill="midnightblue" stroke="midnightblue" points="1306.41,-82.132 1315.99,-77.5959 1305.67,-75.1711 1306.41,-82.132"/>
</g>
<!-- Node20&#45;&gt;Node16 -->
<g id="edge24" class="edge"><title>Node20&#45;&gt;Node16</title>
<path fill="none" stroke="midnightblue" d="M1054.03,-110.606C1114.9,-110.606 1219.28,-110.606 1289.68,-110.606"/>
<polygon fill="midnightblue" stroke="midnightblue" points="1289.81,-114.106 1299.81,-110.606 1289.81,-107.106 1289.81,-114.106"/>
</g>
<!-- Node23 -->
<g id="node23" class="node"><title>Node23</title>
<g id="a_node23"><a xlink:href="../../de/d23/classprolog_1_1fluents_1_1Queue_a287302e64fec17ff6cad3f51f8c4bd12.html#a287302e64fec17ff6cad3f51f8c4bd12" target="_top" xlink:title="Removes the first element of the queue. ">
<polygon fill="none" stroke="black" points="760.5,-272.106 760.5,-291.106 885.5,-291.106 885.5,-272.106 760.5,-272.106"/>
<text text-anchor="middle" x="823" y="-279.106" font-family="Helvetica,sans-Serif" font-size="10.00">prolog.fluents.Queue.deq</text>
</a>
</g>
</g>
<!-- Node22&#45;&gt;Node23 -->
<g id="edge28" class="edge"><title>Node22&#45;&gt;Node23</title>
<path fill="none" stroke="midnightblue" d="M714.061,-281.606C725.918,-281.606 738.18,-281.606 749.999,-281.606"/>
<polygon fill="midnightblue" stroke="midnightblue" points="750.25,-285.106 760.25,-281.606 750.25,-278.106 750.25,-285.106"/>
</g>
<!-- Node24 -->
<g id="node24" class="node"><title>Node24</title>
<g id="a_node24"><a xlink:href="../../de/d23/classprolog_1_1fluents_1_1Queue_a52873d14be9527f50ced14fe5d05132b.html#a52873d14be9527f50ced14fe5d05132b" target="_top" xlink:title="prolog.fluents.Queue.isEmpty">
<polygon fill="none" stroke="black" points="750,-310.106 750,-329.106 896,-329.106 896,-310.106 750,-310.106"/>
<text text-anchor="middle" x="823" y="-317.106" font-family="Helvetica,sans-Serif" font-size="10.00">prolog.fluents.Queue.isEmpty</text>
</a>
</g>
</g>
<!-- Node22&#45;&gt;Node24 -->
<g id="edge32" class="edge"><title>Node22&#45;&gt;Node24</title>
<path fill="none" stroke="midnightblue" d="M686.3,-291.195C710.683,-296.299 740.857,-302.617 766.556,-307.997"/>
<polygon fill="midnightblue" stroke="midnightblue" points="766.024,-311.462 776.529,-310.086 767.459,-304.61 766.024,-311.462"/>
</g>
<!-- Node23&#45;&gt;Node9 -->
<g id="edge31" class="edge"><title>Node23&#45;&gt;Node9</title>
<path fill="none" stroke="midnightblue" d="M866.55,-291.142C968.66,-312.028 1234.16,-354.391 1437,-281.606 1470.29,-269.661 1500.86,-241.14 1518.18,-222.635"/>
<polygon fill="midnightblue" stroke="midnightblue" points="1520.83,-224.92 1524.97,-215.164 1515.65,-220.213 1520.83,-224.92"/>
</g>
<!-- Node23&#45;&gt;Node10 -->
<g id="edge30" class="edge"><title>Node23&#45;&gt;Node10</title>
<path fill="none" stroke="midnightblue" d="M846.67,-271.98C878.143,-258.618 935.231,-234.379 971.022,-219.183"/>
<polygon fill="midnightblue" stroke="midnightblue" points="972.677,-222.283 980.514,-215.153 969.941,-215.839 972.677,-222.283"/>
</g>
<!-- Node23&#45;&gt;Node11 -->
<g id="edge29" class="edge"><title>Node23&#45;&gt;Node11</title>
<path fill="none" stroke="midnightblue" d="M885.568,-279.435C984.575,-275.945 1178.95,-269.093 1286.64,-265.297"/>
<polygon fill="midnightblue" stroke="midnightblue" points="1286.91,-268.79 1296.78,-264.94 1286.67,-261.794 1286.91,-268.79"/>
</g>
</g>
</svg>
        <g id="navigator" transform="translate(0 0)" fill="#404254">
                <rect fill="#f2f5e9" fill-opacity="0.5" stroke="#606060" stroke-width=".5" x="0" y="0" width="60" height="60"/>
                <use id="zoomplus" xlink:href="#zoomPlus" x="17" y="9" onmousedown="handleZoom(evt,'in')"/>
                <use id="zoomminus" xlink:href="#zoomMin" x="42" y="9" onmousedown="handleZoom(evt,'out')"/>
                <use id="reset" xlink:href="#resetDef" x="30" y="36" onmousedown="handleReset()"/>
                <g id="arrowUp" xlink:href="#dirArrow" transform="translate(30 24)" onmousedown="handlePan(0,-1)">
                  <use xlink:href="#rim" fill="#404040">
                        <set attributeName="fill" to="#808080" begin="arrowUp.mouseover" end="arrowUp.mouseout"/>
                  </use>
                  <path fill="none" stroke="white" stroke-width="1.5" d="M0,-3.0v7 M-2.5,-0.5L0,-3.0L2.5,-0.5"/>
                </g>
                <g id="arrowRight" xlink:href="#dirArrow" transform="rotate(90) translate(36 -43)" onmousedown="handlePan(1,0)">
                  <use xlink:href="#rim" fill="#404040">
                        <set attributeName="fill" to="#808080" begin="arrowRight.mouseover" end="arrowRight.mouseout"/>
                  </use>
                  <path fill="none" stroke="white" stroke-width="1.5" d="M0,-3.0v7 M-2.5,-0.5L0,-3.0L2.5,-0.5"/>
                </g>
                <g id="arrowDown" xlink:href="#dirArrow" transform="rotate(180) translate(-30 -48)" onmousedown="handlePan(0,1)">
                  <use xlink:href="#rim" fill="#404040">
                        <set attributeName="fill" to="#808080" begin="arrowDown.mouseover" end="arrowDown.mouseout"/>
                  </use>
                  <path fill="none" stroke="white" stroke-width="1.5" d="M0,-3.0v7 M-2.5,-0.5L0,-3.0L2.5,-0.5"/>
                </g>
                <g id="arrowLeft" xlink:href="#dirArrow" transform="rotate(270) translate(-36 17)" onmousedown="handlePan(-1,0)">
                  <use xlink:href="#rim" fill="#404040">
                        <set attributeName="fill" to="#808080" begin="arrowLeft.mouseover" end="arrowLeft.mouseout"/>
                  </use>
                  <path fill="none" stroke="white" stroke-width="1.5" d="M0,-3.0v7 M-2.5,-0.5L0,-3.0L2.5,-0.5"/>
                </g>
        </g>
        <svg viewBox="0 0 15 15" width="100%" height="30px" preserveAspectRatio="xMaxYMin meet">
         <g id="arrow_out" transform="scale(0.3 0.3)">
          <a xlink:href="classprolog_1_1fluents_1_1DataBase_a5cc308e3a32da4266de44e52764501ca_a5cc308e3a32da4266de44e52764501ca_cgraph_org.svg" target="_base">
           <rect id="button" ry="5" rx="5" y="6" x="6" height="38" width="38"
                fill="#f2f5e9" fill-opacity="0.5" stroke="#606060" stroke-width="1.0"/>
           <path id="arrow"
             d="M 11.500037,31.436501 C 11.940474,20.09759 22.043105,11.32322 32.158766,21.979434 L 37.068811,17.246167 C 37.068811,17.246167 37.088388,32 37.088388,32 L 22.160133,31.978069 C 22.160133,31.978069 26.997745,27.140456 26.997745,27.140456 C 18.528582,18.264221 13.291696,25.230495 11.500037,31.436501 z"
             style="fill:#404040;"/>
          </a>
         </g>
        </svg>
</svg>
