<?xml version="1.0" encoding="UTF-8" standalone="no"?>
<!DOCTYPE svg PUBLIC "-//W3C//DTD SVG 1.1//EN"
 "http://www.w3.org/Graphics/SVG/1.1/DTD/svg11.dtd">
<!-- Generated by graphviz version 2.38.0 (20140413.2041)
 -->
<!-- Title: prolog.fluents.DataBase.all1 Pages: 1 -->
<svg width="620pt" height="88pt"
 viewBox="0.00 0.00 620.00 88.00" xmlns="http://www.w3.org/2000/svg" xmlns:xlink="http://www.w3.org/1999/xlink">
<g id="graph0" class="graph" transform="scale(1 1) rotate(0) translate(4 84)">
<title>prolog.fluents.DataBase.all1</title>
<!-- Node1 -->
<g id="node1" class="node"><title>Node1</title>
<polygon fill="#bfbfbf" stroke="black" points="0,-30 0,-49 140,-49 140,-30 0,-30"/>
<text text-anchor="middle" x="70" y="-37" font-family="Helvetica,sans-Serif" font-size="10.00">prolog.fluents.DataBase.all1</text>
</g>
<!-- Node2 -->
<g id="node2" class="node"><title>Node2</title>
<g id="a_node2"><a xlink:href="../../da/dd9/classprolog_1_1fluents_1_1DataBase_a16bb9f309e161ca656d8aef483ba7e5f.html#a16bb9f309e161ca656d8aef483ba7e5f" target="_top" xlink:title="prolog.fluents.DataBase.all2">
<polygon fill="none" stroke="black" points="176,-30 176,-49 316,-49 316,-30 176,-30"/>
<text text-anchor="middle" x="246" y="-37" font-family="Helvetica,sans-Serif" font-size="10.00">prolog.fluents.DataBase.all2</text>
</a>
</g>
</g>
<!-- Node1&#45;&gt;Node2 -->
<g id="edge1" class="edge"><title>Node1&#45;&gt;Node2</title>
<path fill="none" stroke="midnightblue" d="M150.035,-39.5C158.625,-39.5 167.319,-39.5 175.779,-39.5"/>
<polygon fill="midnightblue" stroke="midnightblue" points="150.019,-36.0001 140.019,-39.5 150.019,-43.0001 150.019,-36.0001"/>
</g>
<!-- Node3 -->
<g id="node3" class="node"><title>Node3</title>
<g id="a_node3"><a xlink:href="../../da/dd9/classprolog_1_1fluents_1_1DataBase_ac93f1bf928f7e64f000726f764891ea9.html#ac93f1bf928f7e64f000726f764891ea9" target="_top" xlink:title="Returns a (possibly empty) list of matching Term objects. ">
<polygon fill="none" stroke="black" points="352,-30 352,-49 486,-49 486,-30 352,-30"/>
<text text-anchor="middle" x="419" y="-37" font-family="Helvetica,sans-Serif" font-size="10.00">prolog.fluents.DataBase.all</text>
</a>
</g>
</g>
<!-- Node2&#45;&gt;Node3 -->
<g id="edge2" class="edge"><title>Node2&#45;&gt;Node3</title>
<path fill="none" stroke="midnightblue" d="M326.074,-39.5C334.656,-39.5 343.325,-39.5 351.733,-39.5"/>
<polygon fill="midnightblue" stroke="midnightblue" points="326.059,-36.0001 316.059,-39.5 326.059,-43.0001 326.059,-36.0001"/>
</g>
<!-- Node4 -->
<g id="node4" class="node"><title>Node4</title>
<g id="a_node4"><a xlink:href="../../df/dfb/classprolog_1_1builtins_1_1db__collect_a2c65ced6ccab65917066acd22e05c2ee.html#a2c65ced6ccab65917066acd22e05c2ee" target="_top" xlink:title="prolog.builtins.db\l_collect.exec">
<polygon fill="none" stroke="black" points="522,-49.5 522,-79.5 612,-79.5 612,-49.5 522,-49.5"/>
<text text-anchor="start" x="530" y="-67.5" font-family="Helvetica,sans-Serif" font-size="10.00">prolog.builtins.db</text>
<text text-anchor="middle" x="567" y="-56.5" font-family="Helvetica,sans-Serif" font-size="10.00">_collect.exec</text>
</a>
</g>
</g>
<!-- Node3&#45;&gt;Node4 -->
<g id="edge3" class="edge"><title>Node3&#45;&gt;Node4</title>
<path fill="none" stroke="midnightblue" d="M485.786,-50.7647C498.009,-52.8577 510.505,-54.9974 521.884,-56.9459"/>
<polygon fill="midnightblue" stroke="midnightblue" points="486.06,-47.2608 475.613,-49.0227 484.879,-54.1604 486.06,-47.2608"/>
</g>
<!-- Node5 -->
<g id="node5" class="node"><title>Node5</title>
<g id="a_node5"><a xlink:href="../../de/db4/classprolog_1_1builtins_1_1at__key_acf52ce169f8e3b064dbca64fcf06fcab.html#acf52ce169f8e3b064dbca64fcf06fcab" target="_top" xlink:title="prolog.builtins.at\l_key.exec">
<polygon fill="none" stroke="black" points="523,-0.5 523,-30.5 611,-30.5 611,-0.5 523,-0.5"/>
<text text-anchor="start" x="531" y="-18.5" font-family="Helvetica,sans-Serif" font-size="10.00">prolog.builtins.at</text>
<text text-anchor="middle" x="567" y="-7.5" font-family="Helvetica,sans-Serif" font-size="10.00">_key.exec</text>
</a>
</g>
</g>
<!-- Node3&#45;&gt;Node5 -->
<g id="edge4" class="edge"><title>Node3&#45;&gt;Node5</title>
<path fill="none" stroke="midnightblue" d="M488.03,-28.3169C499.908,-26.3644 511.962,-24.383 522.926,-22.5806"/>
<polygon fill="midnightblue" stroke="midnightblue" points="487.422,-24.8698 478.123,-29.9456 488.558,-31.7771 487.422,-24.8698"/>
</g>
</g>
</svg>
