<?xml version="1.0" encoding="UTF-8" standalone="no"?>
<!DOCTYPE svg PUBLIC "-//W3C//DTD SVG 1.1//EN"
 "http://www.w3.org/Graphics/SVG/1.1/DTD/svg11.dtd">
<!-- Generated by graphviz version 2.38.0 (20140413.2041)
 -->
<!-- Title: prolog.fluents.DataBase.all2 Pages: 1 -->
<svg width="1234pt" height="265pt"
 viewBox="0.00 0.00 1234.00 265.00" xmlns="http://www.w3.org/2000/svg" xmlns:xlink="http://www.w3.org/1999/xlink">
<g id="graph0" class="graph" transform="scale(1 1) rotate(0) translate(4 261)">
<title>prolog.fluents.DataBase.all2</title>
<!-- Node1 -->
<g id="node1" class="node"><title>Node1</title>
<polygon fill="#bfbfbf" stroke="black" points="0,-57.5 0,-76.5 140,-76.5 140,-57.5 0,-57.5"/>
<text text-anchor="middle" x="70" y="-64.5" font-family="Helvetica,sans-Serif" font-size="10.00">prolog.fluents.DataBase.all2</text>
</g>
<!-- Node2 -->
<g id="node2" class="node"><title>Node2</title>
<g id="a_node2"><a xlink:href="../../da/dd9/classprolog_1_1fluents_1_1DataBase_a610cc1f35df4467fbb1fac1052091915.html#a610cc1f35df4467fbb1fac1052091915" target="_top" xlink:title="prolog.fluents.DataBase.all0">
<polygon fill="none" stroke="black" points="352,-76.5 352,-95.5 492,-95.5 492,-76.5 352,-76.5"/>
<text text-anchor="middle" x="422" y="-83.5" font-family="Helvetica,sans-Serif" font-size="10.00">prolog.fluents.DataBase.all0</text>
</a>
</g>
</g>
<!-- Node1&#45;&gt;Node2 -->
<g id="edge1" class="edge"><title>Node1&#45;&gt;Node2</title>
<path fill="none" stroke="midnightblue" d="M140.149,-70.7538C198.153,-73.9026 281.009,-78.4005 341.694,-81.6948"/>
<polygon fill="midnightblue" stroke="midnightblue" points="341.82,-85.2067 351.995,-82.254 342.199,-78.217 341.82,-85.2067"/>
</g>
<!-- Node16 -->
<g id="node16" class="node"><title>Node16</title>
<g id="a_node16"><a xlink:href="../../da/dd9/classprolog_1_1fluents_1_1DataBase_a4b4a68ddd60d87276cd7f9befd237ad9.html#a4b4a68ddd60d87276cd7f9befd237ad9" target="_top" xlink:title="prolog.fluents.DataBase.all1">
<polygon fill="none" stroke="black" points="176,-38.5 176,-57.5 316,-57.5 316,-38.5 176,-38.5"/>
<text text-anchor="middle" x="246" y="-45.5" font-family="Helvetica,sans-Serif" font-size="10.00">prolog.fluents.DataBase.all1</text>
</a>
</g>
</g>
<!-- Node1&#45;&gt;Node16 -->
<g id="edge15" class="edge"><title>Node1&#45;&gt;Node16</title>
<path fill="none" stroke="midnightblue" d="M140.019,-59.4634C148.476,-58.54 157.169,-57.5907 165.761,-56.6526"/>
<polygon fill="midnightblue" stroke="midnightblue" points="166.219,-60.1235 175.779,-55.5586 165.459,-53.1648 166.219,-60.1235"/>
</g>
<!-- Node3 -->
<g id="node3" class="node"><title>Node3</title>
<g id="a_node3"><a xlink:href="../../d3/ded/classprolog_1_1terms_1_1Term_ae44d814e035858ebc67573a97886511d.html#ae44d814e035858ebc67573a97886511d" target="_top" xlink:title="Returns a copy of the result if the unification of this and that. ">
<polygon fill="none" stroke="black" points="532,-152.5 532,-171.5 697,-171.5 697,-152.5 532,-152.5"/>
<text text-anchor="middle" x="614.5" y="-159.5" font-family="Helvetica,sans-Serif" font-size="10.00">prolog.terms.Term.matching_copy</text>
</a>
</g>
</g>
<!-- Node2&#45;&gt;Node3 -->
<g id="edge2" class="edge"><title>Node2&#45;&gt;Node3</title>
<path fill="none" stroke="midnightblue" d="M447.127,-95.6255C480.765,-109.045 541.897,-133.434 579.955,-148.617"/>
<polygon fill="midnightblue" stroke="midnightblue" points="578.984,-151.998 589.569,-152.453 581.578,-145.496 578.984,-151.998"/>
</g>
<!-- Node13 -->
<g id="node13" class="node"><title>Node13</title>
<g id="a_node13"><a xlink:href="../../de/d23/classprolog_1_1fluents_1_1Queue_aa5b9659115a717ce9a4bd1976f7bda66.html#aa5b9659115a717ce9a4bd1976f7bda66" target="_top" xlink:title="prolog.fluents.Queue.toEnumeration">
<polygon fill="none" stroke="black" points="528,-76.5 528,-95.5 701,-95.5 701,-76.5 528,-76.5"/>
<text text-anchor="middle" x="614.5" y="-83.5" font-family="Helvetica,sans-Serif" font-size="10.00">prolog.fluents.Queue.toEnumeration</text>
</a>
</g>
</g>
<!-- Node2&#45;&gt;Node13 -->
<g id="edge12" class="edge"><title>Node2&#45;&gt;Node13</title>
<path fill="none" stroke="midnightblue" d="M492.044,-86C500.386,-86 509.019,-86 517.658,-86"/>
<polygon fill="midnightblue" stroke="midnightblue" points="517.786,-89.5001 527.786,-86 517.786,-82.5001 517.786,-89.5001"/>
</g>
<!-- Node4 -->
<g id="node4" class="node"><title>Node4</title>
<g id="a_node4"><a xlink:href="../../d3/ded/classprolog_1_1terms_1_1Term_a84d8fb7e1f816d0dbe3c2c56ed28fdb9.html#a84d8fb7e1f816d0dbe3c2c56ed28fdb9" target="_top" xlink:title="Dereference and unify_to. ">
<polygon fill="none" stroke="black" points="750,-199.5 750,-218.5 870,-218.5 870,-199.5 750,-199.5"/>
<text text-anchor="middle" x="810" y="-206.5" font-family="Helvetica,sans-Serif" font-size="10.00">prolog.terms.Term.unify</text>
</a>
</g>
</g>
<!-- Node3&#45;&gt;Node4 -->
<g id="edge3" class="edge"><title>Node3&#45;&gt;Node4</title>
<path fill="none" stroke="midnightblue" d="M654.658,-171.511C684.982,-178.877 727.173,-189.125 759.781,-197.045"/>
<polygon fill="midnightblue" stroke="midnightblue" points="759.025,-200.463 769.569,-199.422 760.678,-193.661 759.025,-200.463"/>
</g>
<!-- Node7 -->
<g id="node7" class="node"><title>Node7</title>
<g id="a_node7"><a xlink:href="../../d3/ded/classprolog_1_1terms_1_1Term_a01e5a83e648ee3f89415c0142c4220d4.html#a01e5a83e648ee3f89415c0142c4220d4" target="_top" xlink:title="Returns a copy of a term with variables standardized apart (`fresh variables&#39;). ">
<polygon fill="none" stroke="black" points="750,-161.5 750,-180.5 870,-180.5 870,-161.5 750,-161.5"/>
<text text-anchor="middle" x="810" y="-168.5" font-family="Helvetica,sans-Serif" font-size="10.00">prolog.terms.Term.copy</text>
</a>
</g>
</g>
<!-- Node3&#45;&gt;Node7 -->
<g id="edge6" class="edge"><title>Node3&#45;&gt;Node7</title>
<path fill="none" stroke="midnightblue" d="M697.001,-165.791C711.157,-166.449 725.761,-167.128 739.557,-167.77"/>
<polygon fill="midnightblue" stroke="midnightblue" points="739.777,-171.284 749.929,-168.253 740.103,-164.292 739.777,-171.284"/>
</g>
<!-- Node10 -->
<g id="node10" class="node"><title>Node10</title>
<g id="a_node10"><a xlink:href="../../dd/dad/classprolog_1_1terms_1_1Trail_adab6fa04fe8e0da6e1870bd1b37a654b.html#adab6fa04fe8e0da6e1870bd1b37a654b" target="_top" xlink:title="Used to undo bindings after unification, if we intend to leave no side effects. ">
<polygon fill="none" stroke="black" points="747,-123.5 747,-142.5 873,-142.5 873,-123.5 747,-123.5"/>
<text text-anchor="middle" x="810" y="-130.5" font-family="Helvetica,sans-Serif" font-size="10.00">prolog.terms.Trail.unwind</text>
</a>
</g>
</g>
<!-- Node3&#45;&gt;Node10 -->
<g id="edge9" class="edge"><title>Node3&#45;&gt;Node10</title>
<path fill="none" stroke="midnightblue" d="M679.127,-152.464C697.615,-149.693 717.937,-146.648 736.905,-143.805"/>
<polygon fill="midnightblue" stroke="midnightblue" points="737.611,-147.238 746.982,-142.295 736.574,-140.316 737.611,-147.238"/>
</g>
<!-- Node5 -->
<g id="node5" class="node"><title>Node5</title>
<g id="a_node5"><a xlink:href="../../d3/ded/classprolog_1_1terms_1_1Term_ae140fac2c9d066dc897fcfa723060a7a.html#ae140fac2c9d066dc897fcfa723060a7a" target="_top" xlink:title="Dereferences if necessary. ">
<polygon fill="none" stroke="black" points="937,-237.5 937,-256.5 1047,-256.5 1047,-237.5 937,-237.5"/>
<text text-anchor="middle" x="992" y="-244.5" font-family="Helvetica,sans-Serif" font-size="10.00">prolog.terms.Term.ref</text>
</a>
</g>
</g>
<!-- Node4&#45;&gt;Node5 -->
<g id="edge4" class="edge"><title>Node4&#45;&gt;Node5</title>
<path fill="none" stroke="midnightblue" d="M856.422,-218.589C880.603,-223.694 910.527,-230.011 936.014,-235.392"/>
<polygon fill="midnightblue" stroke="midnightblue" points="935.398,-238.839 945.905,-237.48 936.844,-231.99 935.398,-238.839"/>
</g>
<!-- Node6 -->
<g id="node6" class="node"><title>Node6</title>
<g id="a_node6"><a xlink:href="../../d3/ded/classprolog_1_1terms_1_1Term_a866b2cca50e77e99b560578b2fa3a91a.html#a866b2cca50e77e99b560578b2fa3a91a" target="_top" xlink:title="Unify dereferenced. ">
<polygon fill="none" stroke="black" points="925,-199.5 925,-218.5 1059,-218.5 1059,-199.5 925,-199.5"/>
<text text-anchor="middle" x="992" y="-206.5" font-family="Helvetica,sans-Serif" font-size="10.00">prolog.terms.Term.unify_to</text>
</a>
</g>
</g>
<!-- Node4&#45;&gt;Node6 -->
<g id="edge5" class="edge"><title>Node4&#45;&gt;Node6</title>
<path fill="none" stroke="midnightblue" d="M870.438,-209C884.582,-209 899.869,-209 914.653,-209"/>
<polygon fill="midnightblue" stroke="midnightblue" points="914.787,-212.5 924.787,-209 914.787,-205.5 914.787,-212.5"/>
</g>
<!-- Node8 -->
<g id="node8" class="node"><title>Node8</title>
<g id="a_node8"><a xlink:href="../../d3/ded/classprolog_1_1terms_1_1Term_a0a660e6cd55f12e49d328e1b84b478a4.html#a0a660e6cd55f12e49d328e1b84b478a4" target="_top" xlink:title="Defines the reaction to an agent recursing over the structure of a term. ">
<polygon fill="none" stroke="black" points="925,-161.5 925,-180.5 1059,-180.5 1059,-161.5 925,-161.5"/>
<text text-anchor="middle" x="992" y="-168.5" font-family="Helvetica,sans-Serif" font-size="10.00">prolog.terms.Term.reaction</text>
</a>
</g>
</g>
<!-- Node7&#45;&gt;Node8 -->
<g id="edge7" class="edge"><title>Node7&#45;&gt;Node8</title>
<path fill="none" stroke="midnightblue" d="M870.438,-171C884.582,-171 899.869,-171 914.653,-171"/>
<polygon fill="midnightblue" stroke="midnightblue" points="914.787,-174.5 924.787,-171 914.787,-167.5 914.787,-174.5"/>
</g>
<!-- Node9 -->
<g id="node9" class="node"><title>Node9</title>
<g id="a_node9"><a xlink:href="../../d3/ded/classprolog_1_1terms_1_1Term_aa52e271c0f6784dbde9aa4f5f3ab0268.html#aa52e271c0f6784dbde9aa4f5f3ab0268" target="_top" xlink:title="Identity action. ">
<polygon fill="none" stroke="black" points="1101,-161.5 1101,-180.5 1226,-180.5 1226,-161.5 1101,-161.5"/>
<text text-anchor="middle" x="1163.5" y="-168.5" font-family="Helvetica,sans-Serif" font-size="10.00">prolog.terms.Term.action</text>
</a>
</g>
</g>
<!-- Node8&#45;&gt;Node9 -->
<g id="edge8" class="edge"><title>Node8&#45;&gt;Node9</title>
<path fill="none" stroke="midnightblue" d="M1059.02,-171C1069.44,-171 1080.27,-171 1090.81,-171"/>
<polygon fill="midnightblue" stroke="midnightblue" points="1090.82,-174.5 1100.82,-171 1090.82,-167.5 1090.82,-174.5"/>
</g>
<!-- Node11 -->
<g id="node11" class="node"><title>Node11</title>
<g id="a_node11"><a xlink:href="../../da/d93/classprolog_1_1terms_1_1ObjectStack_aaa01178e10f20beab62b1410ba720606.html#aaa01178e10f20beab62b1410ba720606" target="_top" xlink:title="prolog.terms.ObjectStack.pop">
<polygon fill="none" stroke="black" points="919,-123.5 919,-142.5 1065,-142.5 1065,-123.5 919,-123.5"/>
<text text-anchor="middle" x="992" y="-130.5" font-family="Helvetica,sans-Serif" font-size="10.00">prolog.terms.ObjectStack.pop</text>
</a>
</g>
</g>
<!-- Node10&#45;&gt;Node11 -->
<g id="edge10" class="edge"><title>Node10&#45;&gt;Node11</title>
<path fill="none" stroke="midnightblue" d="M873.198,-133C884.709,-133 896.893,-133 908.889,-133"/>
<polygon fill="midnightblue" stroke="midnightblue" points="908.903,-136.5 918.903,-133 908.903,-129.5 908.903,-136.5"/>
</g>
<!-- Node12 -->
<g id="node12" class="node"><title>Node12</title>
<g id="a_node12"><a xlink:href="../../d3/ded/classprolog_1_1terms_1_1Term_ac710eec3650309d160ca04e364804e47.html#ac710eec3650309d160ca04e364804e47" target="_top" xlink:title="prolog.terms.Term.undo">
<polygon fill="none" stroke="black" points="932,-85.5 932,-104.5 1052,-104.5 1052,-85.5 932,-85.5"/>
<text text-anchor="middle" x="992" y="-92.5" font-family="Helvetica,sans-Serif" font-size="10.00">prolog.terms.Term.undo</text>
</a>
</g>
</g>
<!-- Node10&#45;&gt;Node12 -->
<g id="edge11" class="edge"><title>Node10&#45;&gt;Node12</title>
<path fill="none" stroke="midnightblue" d="M856.422,-123.411C880.603,-118.306 910.527,-111.989 936.014,-106.608"/>
<polygon fill="midnightblue" stroke="midnightblue" points="936.844,-110.01 945.905,-104.52 935.398,-103.161 936.844,-110.01"/>
</g>
<!-- Node14 -->
<g id="node14" class="node"><title>Node14</title>
<g id="a_node14"><a xlink:href="../../de/d23/classprolog_1_1fluents_1_1Queue_adca2003759e9be115f6006eee370209a.html#adca2003759e9be115f6006eee370209a" target="_top" xlink:title="prolog.fluents.Queue.toVector">
<polygon fill="none" stroke="black" points="737,-66.5 737,-85.5 883,-85.5 883,-66.5 737,-66.5"/>
<text text-anchor="middle" x="810" y="-73.5" font-family="Helvetica,sans-Serif" font-size="10.00">prolog.fluents.Queue.toVector</text>
</a>
</g>
</g>
<!-- Node13&#45;&gt;Node14 -->
<g id="edge13" class="edge"><title>Node13&#45;&gt;Node14</title>
<path fill="none" stroke="midnightblue" d="M701.217,-81.5702C709.697,-81.1319 718.292,-80.6877 726.737,-80.2513"/>
<polygon fill="midnightblue" stroke="midnightblue" points="727.139,-83.7353 736.945,-79.7238 726.777,-76.7447 727.139,-83.7353"/>
</g>
<!-- Node15 -->
<g id="node15" class="node"><title>Node15</title>
<g id="a_node15"><a xlink:href="../../de/d23/classprolog_1_1fluents_1_1Queue_a3d1135124c700679bbd665d253dd9f0f.html#a3d1135124c700679bbd665d253dd9f0f" target="_top" xlink:title="prolog.fluents.Queue.inc">
<polygon fill="none" stroke="black" points="931,-47.5 931,-66.5 1053,-66.5 1053,-47.5 931,-47.5"/>
<text text-anchor="middle" x="992" y="-54.5" font-family="Helvetica,sans-Serif" font-size="10.00">prolog.fluents.Queue.inc</text>
</a>
</g>
</g>
<!-- Node14&#45;&gt;Node15 -->
<g id="edge14" class="edge"><title>Node14&#45;&gt;Node15</title>
<path fill="none" stroke="midnightblue" d="M883.176,-68.3815C895.554,-67.0748 908.402,-65.7187 920.73,-64.4174"/>
<polygon fill="midnightblue" stroke="midnightblue" points="921.364,-67.87 930.941,-63.3395 920.629,-60.9087 921.364,-67.87"/>
</g>
<!-- Node16&#45;&gt;Node2 -->
<g id="edge16" class="edge"><title>Node16&#45;&gt;Node2</title>
<path fill="none" stroke="midnightblue" d="M290.908,-57.589C314.179,-62.6713 342.954,-68.9554 367.519,-74.3203"/>
<polygon fill="midnightblue" stroke="midnightblue" points="366.892,-77.7657 377.408,-76.4799 368.385,-70.9268 366.892,-77.7657"/>
</g>
<!-- Node17 -->
<g id="node17" class="node"><title>Node17</title>
<g id="a_node17"><a xlink:href="../../de/d8d/classprolog_1_1terms_1_1Fun_a01490d7d66dd3e5cc2cad21772845608.html#a01490d7d66dd3e5cc2cad21772845608" target="_top" xlink:title="prolog.terms.Fun.listify">
<polygon fill="none" stroke="black" points="364,-38.5 364,-57.5 480,-57.5 480,-38.5 364,-38.5"/>
<text text-anchor="middle" x="422" y="-45.5" font-family="Helvetica,sans-Serif" font-size="10.00">prolog.terms.Fun.listify</text>
</a>
</g>
</g>
<!-- Node16&#45;&gt;Node17 -->
<g id="edge17" class="edge"><title>Node16&#45;&gt;Node17</title>
<path fill="none" stroke="midnightblue" d="M316.019,-48C328.398,-48 341.286,-48 353.618,-48"/>
<polygon fill="midnightblue" stroke="midnightblue" points="353.823,-51.5001 363.823,-48 353.823,-44.5001 353.823,-51.5001"/>
</g>
<!-- Node18 -->
<g id="node18" class="node"><title>Node18</title>
<g id="a_node18"><a xlink:href="../../d0/d3f/classprolog_1_1terms_1_1Const_a2f00757ecfe3ace23e67c5537c34cfbd.html#a2f00757ecfe3ace23e67c5537c34cfbd" target="_top" xlink:title="prolog.terms.Const.Const">
<polygon fill="none" stroke="black" points="550,-38.5 550,-57.5 679,-57.5 679,-38.5 550,-38.5"/>
<text text-anchor="middle" x="614.5" y="-45.5" font-family="Helvetica,sans-Serif" font-size="10.00">prolog.terms.Const.Const</text>
</a>
</g>
</g>
<!-- Node17&#45;&gt;Node18 -->
<g id="edge18" class="edge"><title>Node17&#45;&gt;Node18</title>
<path fill="none" stroke="midnightblue" d="M480.156,-48C498.822,-48 519.824,-48 539.543,-48"/>
<polygon fill="midnightblue" stroke="midnightblue" points="539.719,-51.5001 549.719,-48 539.719,-44.5001 539.719,-51.5001"/>
</g>
<!-- Node19 -->
<g id="node19" class="node"><title>Node19</title>
<g id="a_node19"><a xlink:href="../../d0/d3f/classprolog_1_1terms_1_1Const_a947005f966303baeb029a22d9201ea1b.html#a947005f966303baeb029a22d9201ea1b" target="_top" xlink:title="prolog.terms.Const.name">
<polygon fill="none" stroke="black" points="551,-0.5 551,-19.5 678,-19.5 678,-0.5 551,-0.5"/>
<text text-anchor="middle" x="614.5" y="-7.5" font-family="Helvetica,sans-Serif" font-size="10.00">prolog.terms.Const.name</text>
</a>
</g>
</g>
<!-- Node17&#45;&gt;Node19 -->
<g id="edge19" class="edge"><title>Node17&#45;&gt;Node19</title>
<path fill="none" stroke="midnightblue" d="M471.071,-38.411C496.776,-33.2835 528.613,-26.9328 555.664,-21.5368"/>
<polygon fill="midnightblue" stroke="midnightblue" points="556.652,-24.9087 565.774,-19.5201 555.283,-18.044 556.652,-24.9087"/>
</g>
</g>
</svg>
