<?xml version="1.0" encoding="UTF-8" standalone="no"?>
<!DOCTYPE svg PUBLIC "-//W3C//DTD SVG 1.1//EN"
 "http://www.w3.org/Graphics/SVG/1.1/DTD/svg11.dtd">
<!-- Generated by graphviz version 2.38.0 (20140413.2041)
 -->
<!-- Title: prolog.fluents.DataBase.fromFile Pages: 1 -->
<svg width="832pt" height="192pt"
 viewBox="0.00 0.00 832.00 191.50" xmlns="http://www.w3.org/2000/svg" xmlns:xlink="http://www.w3.org/1999/xlink">
<g id="graph0" class="graph" transform="scale(1 1) rotate(0) translate(4 187.5)">
<title>prolog.fluents.DataBase.fromFile</title>
<!-- Node1 -->
<g id="node1" class="node"><title>Node1</title>
<polygon fill="#bfbfbf" stroke="black" points="0,-110 0,-129 160,-129 160,-110 0,-110"/>
<text text-anchor="middle" x="80" y="-117" font-family="Helvetica,sans-Serif" font-size="10.00">prolog.fluents.DataBase.fromFile</text>
</g>
<!-- Node2 -->
<g id="node2" class="node"><title>Node2</title>
<g id="a_node2"><a xlink:href="../../d4/dc2/classprolog_1_1io_1_1IO_ab6e0553457312c4804472cbe1c646a28.html#ab6e0553457312c4804472cbe1c646a28" target="_top" xlink:title="prolog.io.IO.errmes">
<polygon fill="none" stroke="black" points="214.5,-148 214.5,-167 314.5,-167 314.5,-148 214.5,-148"/>
<text text-anchor="middle" x="264.5" y="-155" font-family="Helvetica,sans-Serif" font-size="10.00">prolog.io.IO.errmes</text>
</a>
</g>
</g>
<!-- Node1&#45;&gt;Node2 -->
<g id="edge1" class="edge"><title>Node1&#45;&gt;Node2</title>
<path fill="none" stroke="midnightblue" d="M127.052,-129.089C151.569,-134.194 181.91,-140.511 207.75,-145.892"/>
<polygon fill="midnightblue" stroke="midnightblue" points="207.275,-149.368 217.779,-147.98 208.702,-142.515 207.275,-149.368"/>
</g>
<!-- Node7 -->
<g id="node7" class="node"><title>Node7</title>
<g id="a_node7"><a xlink:href="../../da/dd9/classprolog_1_1fluents_1_1DataBase_a09001c9a02b98909be7fc84934418ed6.html#a09001c9a02b98909be7fc84934418ed6" target="_top" xlink:title="prolog.fluents.DataBase.file\lToProg">
<polygon fill="none" stroke="black" points="196,-44.5 196,-74.5 333,-74.5 333,-44.5 196,-44.5"/>
<text text-anchor="start" x="204" y="-62.5" font-family="Helvetica,sans-Serif" font-size="10.00">prolog.fluents.DataBase.file</text>
<text text-anchor="middle" x="264.5" y="-51.5" font-family="Helvetica,sans-Serif" font-size="10.00">ToProg</text>
</a>
</g>
</g>
<!-- Node1&#45;&gt;Node7 -->
<g id="edge6" class="edge"><title>Node1&#45;&gt;Node7</title>
<path fill="none" stroke="midnightblue" d="M109.918,-109.993C136.15,-101.368 175.548,-88.4157 207.872,-77.7888"/>
<polygon fill="midnightblue" stroke="midnightblue" points="209.247,-81.021 217.654,-74.5728 207.061,-74.3711 209.247,-81.021"/>
</g>
<!-- Node13 -->
<g id="node13" class="node"><title>Node13</title>
<g id="a_node13"><a xlink:href="../../d4/dc2/classprolog_1_1io_1_1IO_aaa553b2e5bb8b5de129d38fe67293316.html#aaa553b2e5bb8b5de129d38fe67293316" target="_top" xlink:title="prolog.io.IO.trace">
<polygon fill="none" stroke="black" points="218.5,-110 218.5,-129 310.5,-129 310.5,-110 218.5,-110"/>
<text text-anchor="middle" x="264.5" y="-117" font-family="Helvetica,sans-Serif" font-size="10.00">prolog.io.IO.trace</text>
</a>
</g>
</g>
<!-- Node1&#45;&gt;Node13 -->
<g id="edge12" class="edge"><title>Node1&#45;&gt;Node13</title>
<path fill="none" stroke="midnightblue" d="M160.251,-119.5C176.43,-119.5 193.12,-119.5 208.241,-119.5"/>
<polygon fill="midnightblue" stroke="midnightblue" points="208.433,-123 218.433,-119.5 208.433,-116 208.433,-123"/>
</g>
<!-- Node3 -->
<g id="node3" class="node"><title>Node3</title>
<g id="a_node3"><a xlink:href="../../d4/dc2/classprolog_1_1io_1_1IO_ad851906c6ebd6559eb1b1fa52e26dabb.html#ad851906c6ebd6559eb1b1fa52e26dabb" target="_top" xlink:title="prolog.io.IO.println">
<polygon fill="none" stroke="black" points="398.5,-126 398.5,-145 494.5,-145 494.5,-126 398.5,-126"/>
<text text-anchor="middle" x="446.5" y="-133" font-family="Helvetica,sans-Serif" font-size="10.00">prolog.io.IO.println</text>
</a>
</g>
</g>
<!-- Node2&#45;&gt;Node3 -->
<g id="edge2" class="edge"><title>Node2&#45;&gt;Node3</title>
<path fill="none" stroke="midnightblue" d="M314.686,-151.488C337.354,-148.718 364.405,-145.412 388.009,-142.527"/>
<polygon fill="midnightblue" stroke="midnightblue" points="388.735,-145.964 398.237,-141.277 387.886,-139.016 388.735,-145.964"/>
</g>
<!-- Node6 -->
<g id="node6" class="node"><title>Node6</title>
<g id="a_node6"><a xlink:href="../../d4/dc2/classprolog_1_1io_1_1IO_a22a9a2bfe9fa6e00257369f5bf078a44.html#a22a9a2bfe9fa6e00257369f5bf078a44" target="_top" xlink:title="prolog.io.IO.getStdOutput">
<polygon fill="none" stroke="black" points="382.5,-164 382.5,-183 510.5,-183 510.5,-164 382.5,-164"/>
<text text-anchor="middle" x="446.5" y="-171" font-family="Helvetica,sans-Serif" font-size="10.00">prolog.io.IO.getStdOutput</text>
</a>
</g>
</g>
<!-- Node2&#45;&gt;Node6 -->
<g id="edge5" class="edge"><title>Node2&#45;&gt;Node6</title>
<path fill="none" stroke="midnightblue" d="M314.686,-161.872C332.502,-163.456 353.026,-165.28 372.457,-167.007"/>
<polygon fill="midnightblue" stroke="midnightblue" points="372.227,-170.501 382.497,-167.9 372.847,-163.528 372.227,-170.501"/>
</g>
<!-- Node4 -->
<g id="node4" class="node"><title>Node4</title>
<g id="a_node4"><a xlink:href="../../d4/dc2/classprolog_1_1io_1_1IO_aab64872af087c6cd9c5dd13e9f4eda00.html#aab64872af087c6cd9c5dd13e9f4eda00" target="_top" xlink:title="prolog.io.IO.print">
<polygon fill="none" stroke="black" points="571.5,-126 571.5,-145 660.5,-145 660.5,-126 571.5,-126"/>
<text text-anchor="middle" x="616" y="-133" font-family="Helvetica,sans-Serif" font-size="10.00">prolog.io.IO.print</text>
</a>
</g>
</g>
<!-- Node3&#45;&gt;Node4 -->
<g id="edge3" class="edge"><title>Node3&#45;&gt;Node4</title>
<path fill="none" stroke="midnightblue" d="M494.604,-135.5C515.309,-135.5 539.738,-135.5 561.16,-135.5"/>
<polygon fill="midnightblue" stroke="midnightblue" points="561.406,-139 571.406,-135.5 561.406,-132 561.406,-139"/>
</g>
<!-- Node5 -->
<g id="node5" class="node"><title>Node5</title>
<g id="a_node5"><a xlink:href="../../d6/d92/interfaceprolog_1_1io_1_1IOPeer_abc1f90b85b358011e2595069d38ac25f.html#abc1f90b85b358011e2595069d38ac25f" target="_top" xlink:title="prolog.io.IOPeer.print">
<polygon fill="none" stroke="black" points="711.5,-126 711.5,-145 820.5,-145 820.5,-126 711.5,-126"/>
<text text-anchor="middle" x="766" y="-133" font-family="Helvetica,sans-Serif" font-size="10.00">prolog.io.IOPeer.print</text>
</a>
</g>
</g>
<!-- Node4&#45;&gt;Node5 -->
<g id="edge4" class="edge"><title>Node4&#45;&gt;Node5</title>
<path fill="none" stroke="midnightblue" d="M660.604,-135.5C673.31,-135.5 687.463,-135.5 701.145,-135.5"/>
<polygon fill="midnightblue" stroke="midnightblue" points="701.484,-139 711.484,-135.5 701.484,-132 701.484,-139"/>
</g>
<!-- Node8 -->
<g id="node8" class="node"><title>Node8</title>
<g id="a_node8"><a xlink:href="../../da/dd9/classprolog_1_1fluents_1_1DataBase_a885c2d663dfc3f5ebf5f94ef22a9a210.html#a885c2d663dfc3f5ebf5f94ef22a9a210" target="_top" xlink:title="Reads a set of clauses from a stream and adds them to the blackboard. ">
<polygon fill="none" stroke="black" points="369,-0.5 369,-30.5 524,-30.5 524,-0.5 369,-0.5"/>
<text text-anchor="start" x="377" y="-18.5" font-family="Helvetica,sans-Serif" font-size="10.00">prolog.fluents.DataBase.stream</text>
<text text-anchor="middle" x="446.5" y="-7.5" font-family="Helvetica,sans-Serif" font-size="10.00">ToProg</text>
</a>
</g>
</g>
<!-- Node7&#45;&gt;Node8 -->
<g id="edge7" class="edge"><title>Node7&#45;&gt;Node8</title>
<path fill="none" stroke="midnightblue" d="M326.942,-44.4808C342.064,-40.7844 358.385,-36.7947 373.939,-32.9926"/>
<polygon fill="midnightblue" stroke="midnightblue" points="375.146,-36.3007 384.029,-30.5262 373.484,-29.5009 375.146,-36.3007"/>
</g>
<!-- Node9 -->
<g id="node9" class="node"><title>Node9</title>
<g id="a_node9"><a xlink:href="../../d4/dc2/classprolog_1_1io_1_1IO_a6a1a0dd3e007e7182461e9a65742e044.html#a6a1a0dd3e007e7182461e9a65742e044" target="_top" xlink:title="prolog.io.IO.toFileReader">
<polygon fill="none" stroke="black" points="384,-50 384,-69 509,-69 509,-50 384,-50"/>
<text text-anchor="middle" x="446.5" y="-57" font-family="Helvetica,sans-Serif" font-size="10.00">prolog.io.IO.toFileReader</text>
</a>
</g>
</g>
<!-- Node7&#45;&gt;Node9 -->
<g id="edge8" class="edge"><title>Node7&#45;&gt;Node9</title>
<path fill="none" stroke="midnightblue" d="M333.037,-59.5C346.313,-59.5 360.285,-59.5 373.695,-59.5"/>
<polygon fill="midnightblue" stroke="midnightblue" points="373.819,-63.0001 383.819,-59.5 373.819,-56.0001 373.819,-63.0001"/>
</g>
<!-- Node10 -->
<g id="node10" class="node"><title>Node10</title>
<g id="a_node10"><a xlink:href="../../d4/dc2/classprolog_1_1io_1_1IO_ac5428808b7db8cc3cd5b8b82b1b070c4.html#ac5428808b7db8cc3cd5b8b82b1b070c4" target="_top" xlink:title="prolog.io.IO.url_or_file">
<polygon fill="none" stroke="black" points="560,-50 560,-69 672,-69 672,-50 560,-50"/>
<text text-anchor="middle" x="616" y="-57" font-family="Helvetica,sans-Serif" font-size="10.00">prolog.io.IO.url_or_file</text>
</a>
</g>
</g>
<!-- Node9&#45;&gt;Node10 -->
<g id="edge9" class="edge"><title>Node9&#45;&gt;Node10</title>
<path fill="none" stroke="midnightblue" d="M509.395,-59.5C522.614,-59.5 536.613,-59.5 549.947,-59.5"/>
<polygon fill="midnightblue" stroke="midnightblue" points="549.989,-63.0001 559.989,-59.5 549.989,-56.0001 549.989,-63.0001"/>
</g>
<!-- Node11 -->
<g id="node11" class="node"><title>Node11</title>
<g id="a_node11"><a xlink:href="../../d4/dc2/classprolog_1_1io_1_1IO_a6349d9d37774b9ddd8e24c3c280afc9e.html#a6349d9d37774b9ddd8e24c3c280afc9e" target="_top" xlink:title="prolog.io.IO.url2stream">
<polygon fill="none" stroke="black" points="708,-31 708,-50 824,-50 824,-31 708,-31"/>
<text text-anchor="middle" x="766" y="-38" font-family="Helvetica,sans-Serif" font-size="10.00">prolog.io.IO.url2stream</text>
</a>
</g>
</g>
<!-- Node10&#45;&gt;Node11 -->
<g id="edge10" class="edge"><title>Node10&#45;&gt;Node11</title>
<path fill="none" stroke="midnightblue" d="M672.11,-52.4251C680.498,-51.3483 689.233,-50.2269 697.843,-49.1215"/>
<polygon fill="midnightblue" stroke="midnightblue" points="698.392,-52.5798 707.865,-47.8349 697.501,-45.6368 698.392,-52.5798"/>
</g>
<!-- Node12 -->
<g id="node12" class="node"><title>Node12</title>
<g id="a_node12"><a xlink:href="../../d4/dc2/classprolog_1_1io_1_1IO_aee8a81008d28d54afc3e1eef18e8bec9.html#aee8a81008d28d54afc3e1eef18e8bec9" target="_top" xlink:title="prolog.io.IO.toReader">
<polygon fill="none" stroke="black" points="711,-69 711,-88 821,-88 821,-69 711,-69"/>
<text text-anchor="middle" x="766" y="-76" font-family="Helvetica,sans-Serif" font-size="10.00">prolog.io.IO.toReader</text>
</a>
</g>
</g>
<!-- Node10&#45;&gt;Node12 -->
<g id="edge11" class="edge"><title>Node10&#45;&gt;Node12</title>
<path fill="none" stroke="midnightblue" d="M672.11,-66.5749C681.404,-67.7681 691.125,-69.016 700.63,-70.2363"/>
<polygon fill="midnightblue" stroke="midnightblue" points="700.465,-73.7437 710.829,-71.5456 701.356,-66.8007 700.465,-73.7437"/>
</g>
<!-- Node13&#45;&gt;Node3 -->
<g id="edge13" class="edge"><title>Node13&#45;&gt;Node3</title>
<path fill="none" stroke="midnightblue" d="M310.922,-123.537C334.355,-125.62 363.182,-128.183 388.137,-130.401"/>
<polygon fill="midnightblue" stroke="midnightblue" points="387.936,-133.897 398.207,-131.296 388.556,-126.924 387.936,-133.897"/>
</g>
<!-- Node13&#45;&gt;Node6 -->
<g id="edge14" class="edge"><title>Node13&#45;&gt;Node6</title>
<path fill="none" stroke="midnightblue" d="M302.94,-129.005C312.807,-131.79 323.381,-135.029 333,-138.5 349.47,-144.443 352.44,-148.813 369,-154.5 376.199,-156.973 383.882,-159.268 391.498,-161.346"/>
<polygon fill="midnightblue" stroke="midnightblue" points="390.864,-164.798 401.425,-163.949 392.64,-158.027 390.864,-164.798"/>
</g>
<!-- Node14 -->
<g id="node14" class="node"><title>Node14</title>
<g id="a_node14"><a xlink:href="../../d6/d92/interfaceprolog_1_1io_1_1IOPeer_a780dd51c62dba4c266286171101b2cee.html#a780dd51c62dba4c266286171101b2cee" target="_top" xlink:title="prolog.io.IOPeer.traceln">
<polygon fill="none" stroke="black" points="387,-88 387,-107 506,-107 506,-88 387,-88"/>
<text text-anchor="middle" x="446.5" y="-95" font-family="Helvetica,sans-Serif" font-size="10.00">prolog.io.IOPeer.traceln</text>
</a>
</g>
</g>
<!-- Node13&#45;&gt;Node14 -->
<g id="edge15" class="edge"><title>Node13&#45;&gt;Node14</title>
<path fill="none" stroke="midnightblue" d="M310.922,-113.948C330.881,-111.509 354.754,-108.591 376.815,-105.895"/>
<polygon fill="midnightblue" stroke="midnightblue" points="377.301,-109.362 386.803,-104.674 376.452,-102.413 377.301,-109.362"/>
</g>
</g>
</svg>
