<?xml version="1.0" encoding="UTF-8" standalone="no"?>
<!DOCTYPE svg PUBLIC "-//W3C//DTD SVG 1.1//EN"
 "http://www.w3.org/Graphics/SVG/1.1/DTD/svg11.dtd">
<!-- Generated by graphviz version 2.38.0 (20140413.2041)
 -->
<!-- Title: prolog.io.constToken.constToken Pages: 1 -->
<svg width="643pt" height="75pt"
 viewBox="0.00 0.00 643.00 74.50" xmlns="http://www.w3.org/2000/svg" xmlns:xlink="http://www.w3.org/1999/xlink">
<g id="graph0" class="graph" transform="scale(1 1) rotate(0) translate(4 70.5)">
<title>prolog.io.constToken.constToken</title>
<!-- Node1 -->
<g id="node1" class="node"><title>Node1</title>
<polygon fill="#bfbfbf" stroke="black" points="0,-22.5 0,-52.5 134,-52.5 134,-22.5 0,-22.5"/>
<text text-anchor="start" x="8" y="-40.5" font-family="Helvetica,sans-Serif" font-size="10.00">prolog.io.constToken.const</text>
<text text-anchor="middle" x="67" y="-29.5" font-family="Helvetica,sans-Serif" font-size="10.00">Token</text>
</g>
<!-- Node2 -->
<g id="node2" class="node"><title>Node2</title>
<g id="a_node2"><a xlink:href="../../d7/d2b/classprolog_1_1builtins_1_1Builtins_a01ecc3350bab991ae4dbf53cdf9334c7.html#a01ecc3350bab991ae4dbf53cdf9334c7" target="_top" xlink:title="prolog.builtins.Builtins.to\lConstBuiltin">
<polygon fill="none" stroke="black" points="170,-22.5 170,-52.5 293,-52.5 293,-22.5 170,-22.5"/>
<text text-anchor="start" x="178" y="-40.5" font-family="Helvetica,sans-Serif" font-size="10.00">prolog.builtins.Builtins.to</text>
<text text-anchor="middle" x="231.5" y="-29.5" font-family="Helvetica,sans-Serif" font-size="10.00">ConstBuiltin</text>
</a>
</g>
</g>
<!-- Node1&#45;&gt;Node2 -->
<g id="edge1" class="edge"><title>Node1&#45;&gt;Node2</title>
<path fill="none" stroke="midnightblue" d="M134.095,-37.5C142.528,-37.5 151.188,-37.5 159.692,-37.5"/>
<polygon fill="midnightblue" stroke="midnightblue" points="159.962,-41.0001 169.962,-37.5 159.962,-34.0001 159.962,-41.0001"/>
</g>
<!-- Node3 -->
<g id="node3" class="node"><title>Node3</title>
<g id="a_node3"><a xlink:href="../../d0/d3f/classprolog_1_1terms_1_1Const_a947005f966303baeb029a22d9201ea1b.html#a947005f966303baeb029a22d9201ea1b" target="_top" xlink:title="prolog.terms.Const.name">
<polygon fill="none" stroke="black" points="503,-47 503,-66 630,-66 630,-47 503,-47"/>
<text text-anchor="middle" x="566.5" y="-54" font-family="Helvetica,sans-Serif" font-size="10.00">prolog.terms.Const.name</text>
</a>
</g>
</g>
<!-- Node2&#45;&gt;Node3 -->
<g id="edge2" class="edge"><title>Node2&#45;&gt;Node3</title>
<path fill="none" stroke="midnightblue" d="M293.19,-40.9628C349.406,-44.1703 433.098,-48.9455 492.847,-52.3547"/>
<polygon fill="midnightblue" stroke="midnightblue" points="492.784,-55.8566 502.967,-52.932 493.182,-48.868 492.784,-55.8566"/>
</g>
<!-- Node4 -->
<g id="node4" class="node"><title>Node4</title>
<g id="a_node4"><a xlink:href="../../d7/d2b/classprolog_1_1builtins_1_1Builtins_ab27f40fd74a009d6522fa21da5387cf3.html#ab27f40fd74a009d6522fa21da5387cf3" target="_top" xlink:title="Creates a new builtin. ">
<polygon fill="none" stroke="black" points="329,-0.5 329,-30.5 462,-30.5 462,-0.5 329,-0.5"/>
<text text-anchor="start" x="337" y="-18.5" font-family="Helvetica,sans-Serif" font-size="10.00">prolog.builtins.Builtins.new</text>
<text text-anchor="middle" x="395.5" y="-7.5" font-family="Helvetica,sans-Serif" font-size="10.00">Builtin</text>
</a>
</g>
</g>
<!-- Node2&#45;&gt;Node4 -->
<g id="edge3" class="edge"><title>Node2&#45;&gt;Node4</title>
<path fill="none" stroke="midnightblue" d="M293.284,-29.2454C301.608,-28.1149 310.237,-26.9431 318.787,-25.782"/>
<polygon fill="midnightblue" stroke="midnightblue" points="319.326,-29.241 328.764,-24.4271 318.384,-22.3046 319.326,-29.241"/>
</g>
<!-- Node4&#45;&gt;Node3 -->
<g id="edge5" class="edge"><title>Node4&#45;&gt;Node3</title>
<path fill="none" stroke="midnightblue" d="M458.47,-30.5341C477.546,-35.1621 498.275,-40.191 516.365,-44.5798"/>
<polygon fill="midnightblue" stroke="midnightblue" points="515.574,-47.9891 526.117,-46.9455 517.224,-41.1865 515.574,-47.9891"/>
</g>
<!-- Node5 -->
<g id="node5" class="node"><title>Node5</title>
<g id="a_node5"><a xlink:href="../../d0/d3f/classprolog_1_1terms_1_1Const_a425467f0c179f71ef11b4beac97ec0b6.html#a425467f0c179f71ef11b4beac97ec0b6" target="_top" xlink:title="returns an arity normally defined as 0 ">
<polygon fill="none" stroke="black" points="498,-6 498,-25 635,-25 635,-6 498,-6"/>
<text text-anchor="middle" x="566.5" y="-13" font-family="Helvetica,sans-Serif" font-size="10.00">prolog.terms.Const.getArity</text>
</a>
</g>
</g>
<!-- Node4&#45;&gt;Node5 -->
<g id="edge4" class="edge"><title>Node4&#45;&gt;Node5</title>
<path fill="none" stroke="midnightblue" d="M462.324,-15.5C470.626,-15.5 479.181,-15.5 487.647,-15.5"/>
<polygon fill="midnightblue" stroke="midnightblue" points="487.906,-19.0001 497.906,-15.5 487.906,-12.0001 487.906,-19.0001"/>
</g>
</g>
</svg>
