<?xml version="1.0" encoding="UTF-8" standalone="no"?>
<!DOCTYPE svg PUBLIC "-//W3C//DTD SVG 1.1//EN"
 "http://www.w3.org/Graphics/SVG/1.1/DTD/svg11.dtd">
<!-- Generated by graphviz version 2.38.0 (20140413.2041)
 -->
<!-- Title: prolog.fluents.SourceMerger Pages: 1 -->
<!--zoomable 1502 -->
<svg id="main" version="1.1" xmlns="http://www.w3.org/2000/svg" xmlns:xlink="http://www.w3.org/1999/xlink" xml:space="preserve" onload="init(evt)">
<style type="text/css"><![CDATA[
.edge:hover path { stroke: red; }
.edge:hover polygon { stroke: red; fill: red; }
]]></style>
<script type="text/javascript"><![CDATA[
var edges = document.getElementsByTagName('g');
if (edges && edges.length) {
  for (var i=0;i<edges.length;i++) {
    if (edges[i].id.substr(0,4)=='edge') {
      edges[i].setAttribute('class','edge');
    }
  }
}
]]></script>
        <defs>
                <circle id="rim" cx="0" cy="0" r="7"/>
                <circle id="rim2" cx="0" cy="0" r="3.5"/>
                <g id="zoomPlus">
                        <use xlink:href="#rim" fill="#404040">
                                <set attributeName="fill" to="#808080" begin="zoomplus.mouseover" end="zoomplus.mouseout"/>
                        </use>
                        <path d="M-4,0h8M0,-4v8" fill="none" stroke="white" stroke-width="1.5" pointer-events="none"/>
                </g>
                <g id="zoomMin">
                        <use xlink:href="#rim" fill="#404040">
                                <set attributeName="fill" to="#808080" begin="zoomminus.mouseover" end="zoomminus.mouseout"/>
                        </use>
                        <path d="M-4,0h8" fill="none" stroke="white" stroke-width="1.5" pointer-events="none"/>
                </g>
                <g id="dirArrow">
                        <path fill="none" stroke="white" stroke-width="1.5" d="M0,-3.0v7 M-2.5,-0.5L0,-3.0L2.5,-0.5"/>
                </g>
               <g id="resetDef">
                       <use xlink:href="#rim2" fill="#404040">
                               <set attributeName="fill" to="#808080" begin="reset.mouseover" end="reset.mouseout"/>
                       </use>
               </g>
        </defs>

<script type="text/javascript">
var viewWidth = 259;
var viewHeight = 1502;
var sectionId = 'dynsection-1';
</script>
<script xlink:href="../../svgpan.js"/>
<svg id="graph" class="graph">
<g id="viewport">
<title>prolog.fluents.SourceMerger</title>
<!-- Node1 -->
<g id="node1" class="node"><title>Node1</title>
<polygon fill="#bfbfbf" stroke="black" points="98.5,-0.5 98.5,-68.5 237.5,-68.5 237.5,-0.5 98.5,-0.5"/>
<text text-anchor="middle" x="168" y="-56.5" font-family="Helvetica,sans-Serif" font-size="10.00">prolog.fluents.SourceMerger</text>
<polyline fill="none" stroke="black" points="98.5,-49.5 237.5,-49.5 "/>
<text text-anchor="middle" x="168" y="-37.5" font-family="Helvetica,sans-Serif" font-size="10.00"> </text>
<polyline fill="none" stroke="black" points="98.5,-30.5 237.5,-30.5 "/>
<text text-anchor="start" x="106.5" y="-18.5" font-family="Helvetica,sans-Serif" font-size="10.00">+ SourceMerger()</text>
<text text-anchor="start" x="106.5" y="-7.5" font-family="Helvetica,sans-Serif" font-size="10.00">+ getElement()</text>
</g>
<!-- Node2 -->
<g id="node2" class="node"><title>Node2</title>
<g id="a_node2"><a xlink:href="../../d3/d7c/classprolog_1_1fluents_1_1JavaSource.html" target="_top" xlink:title="Builds Prolog Iterators from Java Sequences and Iterator type classes. ">
<polygon fill="none" stroke="black" points="40,-106.5 40,-207.5 170,-207.5 170,-106.5 40,-106.5"/>
<text text-anchor="middle" x="105" y="-195.5" font-family="Helvetica,sans-Serif" font-size="10.00">prolog.fluents.JavaSource</text>
<polyline fill="none" stroke="black" points="40,-188.5 170,-188.5 "/>
<text text-anchor="middle" x="105" y="-176.5" font-family="Helvetica,sans-Serif" font-size="10.00"> </text>
<polyline fill="none" stroke="black" points="40,-169.5 170,-169.5 "/>
<text text-anchor="start" x="48" y="-157.5" font-family="Helvetica,sans-Serif" font-size="10.00">+ JavaSource()</text>
<text text-anchor="start" x="48" y="-146.5" font-family="Helvetica,sans-Serif" font-size="10.00">+ JavaSource()</text>
<text text-anchor="start" x="48" y="-135.5" font-family="Helvetica,sans-Serif" font-size="10.00">+ JavaSource()</text>
<text text-anchor="start" x="48" y="-124.5" font-family="Helvetica,sans-Serif" font-size="10.00">+ getElement()</text>
<text text-anchor="start" x="48" y="-113.5" font-family="Helvetica,sans-Serif" font-size="10.00">+ stop()</text>
</a>
</g>
</g>
<!-- Node2&#45;&gt;Node1 -->
<g id="edge1" class="edge"><title>Node2&#45;&gt;Node1</title>
<path fill="none" stroke="midnightblue" d="M135.699,-97.2819C140.855,-87.4206 146.039,-77.5047 150.699,-68.5915"/>
<polygon fill="none" stroke="midnightblue" points="132.52,-95.8088 130.988,-106.292 138.723,-99.0521 132.52,-95.8088"/>
</g>
<!-- Node3 -->
<g id="node3" class="node"><title>Node3</title>
<g id="a_node3"><a xlink:href="../../d2/d07/classprolog_1_1terms_1_1Source.html" target="_top" xlink:title="{prolog.terms.Source\n||+ Source()\l+ getElement()\l+ toList()\l+ toFun()\l}">
<polygon fill="none" stroke="black" points="0,-255.5 0,-345.5 104,-345.5 104,-255.5 0,-255.5"/>
<text text-anchor="middle" x="52" y="-333.5" font-family="Helvetica,sans-Serif" font-size="10.00">prolog.terms.Source</text>
<polyline fill="none" stroke="black" points="0,-326.5 104,-326.5 "/>
<text text-anchor="middle" x="52" y="-314.5" font-family="Helvetica,sans-Serif" font-size="10.00"> </text>
<polyline fill="none" stroke="black" points="0,-307.5 104,-307.5 "/>
<text text-anchor="start" x="8" y="-295.5" font-family="Helvetica,sans-Serif" font-size="10.00">+ Source()</text>
<text text-anchor="start" x="8" y="-284.5" font-family="Helvetica,sans-Serif" font-size="10.00">+ getElement()</text>
<text text-anchor="start" x="8" y="-273.5" font-family="Helvetica,sans-Serif" font-size="10.00">+ toList()</text>
<text text-anchor="start" x="8" y="-262.5" font-family="Helvetica,sans-Serif" font-size="10.00">+ toFun()</text>
</a>
</g>
</g>
<!-- Node3&#45;&gt;Node2 -->
<g id="edge2" class="edge"><title>Node3&#45;&gt;Node2</title>
<path fill="none" stroke="midnightblue" d="M72.1409,-245.728C76.8253,-233.221 81.7914,-219.962 86.4056,-207.644"/>
<polygon fill="none" stroke="midnightblue" points="68.8542,-244.524 68.6241,-255.117 75.4094,-246.98 68.8542,-244.524"/>
</g>
<!-- Node4 -->
<g id="node4" class="node"><title>Node4</title>
<g id="a_node4"><a xlink:href="../../d9/d3b/classprolog_1_1terms_1_1Fluent.html" target="_top" xlink:title="A Fluent is a Prolog Object which has its own state, subject to changes over time. ">
<polygon fill="none" stroke="black" points="30.5,-383.5 30.5,-495.5 131.5,-495.5 131.5,-383.5 30.5,-383.5"/>
<text text-anchor="middle" x="81" y="-483.5" font-family="Helvetica,sans-Serif" font-size="10.00">prolog.terms.Fluent</text>
<polyline fill="none" stroke="black" points="30.5,-476.5 131.5,-476.5 "/>
<text text-anchor="start" x="38.5" y="-464.5" font-family="Helvetica,sans-Serif" font-size="10.00">&#45; persistent</text>
<polyline fill="none" stroke="black" points="30.5,-457.5 131.5,-457.5 "/>
<text text-anchor="start" x="38.5" y="-445.5" font-family="Helvetica,sans-Serif" font-size="10.00">+ Fluent()</text>
<text text-anchor="start" x="38.5" y="-434.5" font-family="Helvetica,sans-Serif" font-size="10.00">+ setPersistent()</text>
<text text-anchor="start" x="38.5" y="-423.5" font-family="Helvetica,sans-Serif" font-size="10.00">+ getPersistent()</text>
<text text-anchor="start" x="38.5" y="-412.5" font-family="Helvetica,sans-Serif" font-size="10.00">+ stop()</text>
<text text-anchor="start" x="38.5" y="-401.5" font-family="Helvetica,sans-Serif" font-size="10.00"># trailMe()</text>
<text text-anchor="start" x="38.5" y="-390.5" font-family="Helvetica,sans-Serif" font-size="10.00"># undo()</text>
</a>
</g>
</g>
<!-- Node4&#45;&gt;Node3 -->
<g id="edge3" class="edge"><title>Node4&#45;&gt;Node3</title>
<path fill="none" stroke="midnightblue" d="M67.1634,-373.134C65.1931,-363.826 63.2063,-354.44 61.3492,-345.667"/>
<polygon fill="none" stroke="midnightblue" points="63.7931,-374.113 69.2882,-383.172 70.6413,-372.664 63.7931,-374.113"/>
</g>
<!-- Node5 -->
<g id="node5" class="node"><title>Node5</title>
<g id="a_node5"><a xlink:href="../../d6/dc1/classprolog_1_1terms_1_1SystemObject.html" target="_top" xlink:title="A SystemObject is a Nonvar with system assigned name. ">
<polygon fill="none" stroke="black" points="31,-533.5 31,-645.5 167,-645.5 167,-533.5 31,-533.5"/>
<text text-anchor="middle" x="99" y="-633.5" font-family="Helvetica,sans-Serif" font-size="10.00">prolog.terms.SystemObject</text>
<polyline fill="none" stroke="black" points="31,-626.5 167,-626.5 "/>
<text text-anchor="start" x="39" y="-614.5" font-family="Helvetica,sans-Serif" font-size="10.00">~ ctr</text>
<text text-anchor="start" x="39" y="-603.5" font-family="Helvetica,sans-Serif" font-size="10.00">&#45; ordinal</text>
<polyline fill="none" stroke="black" points="31,-596.5 167,-596.5 "/>
<text text-anchor="start" x="39" y="-584.5" font-family="Helvetica,sans-Serif" font-size="10.00">+ SystemObject()</text>
<text text-anchor="start" x="39" y="-573.5" font-family="Helvetica,sans-Serif" font-size="10.00">+ name()</text>
<text text-anchor="start" x="39" y="-562.5" font-family="Helvetica,sans-Serif" font-size="10.00">+ toString()</text>
<text text-anchor="start" x="39" y="-551.5" font-family="Helvetica,sans-Serif" font-size="10.00">+ getArity()</text>
<text text-anchor="start" x="39" y="-540.5" font-family="Helvetica,sans-Serif" font-size="10.00">~ bind_to()</text>
</a>
</g>
</g>
<!-- Node5&#45;&gt;Node4 -->
<g id="edge4" class="edge"><title>Node5&#45;&gt;Node4</title>
<path fill="none" stroke="midnightblue" d="M91.0868,-523.436C89.9596,-514.168 88.8094,-504.71 87.7081,-495.656"/>
<polygon fill="none" stroke="midnightblue" points="87.6157,-523.886 92.2975,-533.39 94.5645,-523.041 87.6157,-523.886"/>
</g>
<!-- Node6 -->
<g id="node6" class="node"><title>Node6</title>
<g id="a_node6"><a xlink:href="../../d4/de0/classprolog_1_1terms_1_1Nonvar.html" target="_top" xlink:title="Part of the Prolog Term hierarchy. ">
<polygon fill="none" stroke="black" points="60.5,-683.5 60.5,-773.5 165.5,-773.5 165.5,-683.5 60.5,-683.5"/>
<text text-anchor="middle" x="113" y="-761.5" font-family="Helvetica,sans-Serif" font-size="10.00">prolog.terms.Nonvar</text>
<polyline fill="none" stroke="black" points="60.5,-754.5 165.5,-754.5 "/>
<text text-anchor="middle" x="113" y="-742.5" font-family="Helvetica,sans-Serif" font-size="10.00"> </text>
<polyline fill="none" stroke="black" points="60.5,-735.5 165.5,-735.5 "/>
<text text-anchor="start" x="68.5" y="-723.5" font-family="Helvetica,sans-Serif" font-size="10.00">+ name()</text>
<text text-anchor="start" x="68.5" y="-712.5" font-family="Helvetica,sans-Serif" font-size="10.00">~ bind_to()</text>
<text text-anchor="start" x="68.5" y="-701.5" font-family="Helvetica,sans-Serif" font-size="10.00">~ unify_to()</text>
<text text-anchor="start" x="68.5" y="-690.5" font-family="Helvetica,sans-Serif" font-size="10.00">~ listify()</text>
</a>
</g>
</g>
<!-- Node6&#45;&gt;Node5 -->
<g id="edge5" class="edge"><title>Node6&#45;&gt;Node5</title>
<path fill="none" stroke="midnightblue" d="M107.461,-673.293C106.529,-664.178 105.562,-654.709 104.628,-645.572"/>
<polygon fill="none" stroke="midnightblue" points="103.995,-673.806 108.493,-683.398 110.958,-673.094 103.995,-673.806"/>
</g>
<!-- Node7 -->
<g id="node7" class="node"><title>Node7</title>
<g id="a_node7"><a xlink:href="../../d3/ded/classprolog_1_1terms_1_1Term.html" target="_top" xlink:title="Top element of the Prolog term hierarchy. ">
<polygon fill="none" stroke="black" points="69,-1044.5 69,-1398.5 167,-1398.5 167,-1044.5 69,-1044.5"/>
<text text-anchor="middle" x="118" y="-1386.5" font-family="Helvetica,sans-Serif" font-size="10.00">prolog.terms.Term</text>
<polyline fill="none" stroke="black" points="69,-1379.5 167,-1379.5 "/>
<text text-anchor="start" x="77" y="-1367.5" font-family="Helvetica,sans-Serif" font-size="10.00">+ JAVA</text>
<text text-anchor="start" x="77" y="-1356.5" font-family="Helvetica,sans-Serif" font-size="10.00">+ REAL</text>
<text text-anchor="start" x="77" y="-1345.5" font-family="Helvetica,sans-Serif" font-size="10.00">+ INT</text>
<text text-anchor="start" x="77" y="-1334.5" font-family="Helvetica,sans-Serif" font-size="10.00">+ VAR</text>
<text text-anchor="start" x="77" y="-1323.5" font-family="Helvetica,sans-Serif" font-size="10.00">+ CONST</text>
<polyline fill="none" stroke="black" points="69,-1316.5 167,-1316.5 "/>
<text text-anchor="start" x="77" y="-1304.5" font-family="Helvetica,sans-Serif" font-size="10.00">+ getArity()</text>
<text text-anchor="start" x="77" y="-1293.5" font-family="Helvetica,sans-Serif" font-size="10.00">+ ref()</text>
<text text-anchor="start" x="77" y="-1282.5" font-family="Helvetica,sans-Serif" font-size="10.00">+ token()</text>
<text text-anchor="start" x="77" y="-1271.5" font-family="Helvetica,sans-Serif" font-size="10.00">+ toClause()</text>
<text text-anchor="start" x="77" y="-1260.5" font-family="Helvetica,sans-Serif" font-size="10.00">+ matches()</text>
<text text-anchor="start" x="77" y="-1249.5" font-family="Helvetica,sans-Serif" font-size="10.00">+ matches()</text>
<text text-anchor="start" x="77" y="-1238.5" font-family="Helvetica,sans-Serif" font-size="10.00">+ matching_copy()</text>
<text text-anchor="start" x="77" y="-1227.5" font-family="Helvetica,sans-Serif" font-size="10.00">+ copy()</text>
<text text-anchor="start" x="77" y="-1216.5" font-family="Helvetica,sans-Serif" font-size="10.00">+ varsOf()</text>
<text text-anchor="start" x="77" y="-1205.5" font-family="Helvetica,sans-Serif" font-size="10.00">+ numbervars()</text>
<text text-anchor="start" x="77" y="-1194.5" font-family="Helvetica,sans-Serif" font-size="10.00">and 6 more...</text>
<text text-anchor="start" x="77" y="-1183.5" font-family="Helvetica,sans-Serif" font-size="10.00">+ fromString()</text>
<text text-anchor="start" x="77" y="-1172.5" font-family="Helvetica,sans-Serif" font-size="10.00">+ charsToString()</text>
<text text-anchor="start" x="77" y="-1161.5" font-family="Helvetica,sans-Serif" font-size="10.00">~ bind_to()</text>
<text text-anchor="start" x="77" y="-1150.5" font-family="Helvetica,sans-Serif" font-size="10.00">~ unify_to()</text>
<text text-anchor="start" x="77" y="-1139.5" font-family="Helvetica,sans-Serif" font-size="10.00">~ toTerm()</text>
<text text-anchor="start" x="77" y="-1128.5" font-family="Helvetica,sans-Serif" font-size="10.00">~ isClause()</text>
<text text-anchor="start" x="77" y="-1117.5" font-family="Helvetica,sans-Serif" font-size="10.00">~ reaction()</text>
<text text-anchor="start" x="77" y="-1106.5" font-family="Helvetica,sans-Serif" font-size="10.00">~ action()</text>
<text text-anchor="start" x="77" y="-1095.5" font-family="Helvetica,sans-Serif" font-size="10.00">~ exec()</text>
<text text-anchor="start" x="77" y="-1084.5" font-family="Helvetica,sans-Serif" font-size="10.00">~ stringToChars()</text>
<text text-anchor="start" x="77" y="-1073.5" font-family="Helvetica,sans-Serif" font-size="10.00"># unify()</text>
<text text-anchor="start" x="77" y="-1062.5" font-family="Helvetica,sans-Serif" font-size="10.00"># undo()</text>
<text text-anchor="start" x="77" y="-1051.5" font-family="Helvetica,sans-Serif" font-size="10.00"># exec()</text>
</a>
</g>
</g>
<!-- Node7&#45;&gt;Node6 -->
<g id="edge6" class="edge"><title>Node7&#45;&gt;Node6</title>
<path fill="none" stroke="midnightblue" d="M116.104,-1034.27C115.139,-939.532 114.047,-832.27 113.449,-773.626"/>
<polygon fill="none" stroke="midnightblue" points="112.604,-1034.31 116.205,-1044.28 119.603,-1034.24 112.604,-1034.31"/>
</g>
<!-- Node8 -->
<g id="node8" class="node"><title>Node8</title>
<polygon fill="none" stroke="#bfbfbf" points="95.5,-1436.5 95.5,-1493.5 140.5,-1493.5 140.5,-1436.5 95.5,-1436.5"/>
<text text-anchor="middle" x="118" y="-1481.5" font-family="Helvetica,sans-Serif" font-size="10.00">Object</text>
<polyline fill="none" stroke="#bfbfbf" points="95.5,-1474.5 140.5,-1474.5 "/>
<text text-anchor="middle" x="118" y="-1462.5" font-family="Helvetica,sans-Serif" font-size="10.00"> </text>
<polyline fill="none" stroke="#bfbfbf" points="95.5,-1455.5 140.5,-1455.5 "/>
<text text-anchor="middle" x="118" y="-1443.5" font-family="Helvetica,sans-Serif" font-size="10.00"> </text>
</g>
<!-- Node8&#45;&gt;Node7 -->
<g id="edge7" class="edge"><title>Node8&#45;&gt;Node7</title>
<path fill="none" stroke="midnightblue" d="M118,-1426.03C118,-1417.77 118,-1408.5 118,-1398.6"/>
<polygon fill="none" stroke="midnightblue" points="114.5,-1426.3 118,-1436.3 121.5,-1426.3 114.5,-1426.3"/>
</g>
<!-- Node9 -->
<g id="node9" class="node"><title>Node9</title>
<polygon fill="none" stroke="#bfbfbf" points="162,-1436.5 162,-1493.5 222,-1493.5 222,-1436.5 162,-1436.5"/>
<text text-anchor="middle" x="192" y="-1481.5" font-family="Helvetica,sans-Serif" font-size="10.00">Cloneable</text>
<polyline fill="none" stroke="#bfbfbf" points="162,-1474.5 222,-1474.5 "/>
<text text-anchor="middle" x="192" y="-1462.5" font-family="Helvetica,sans-Serif" font-size="10.00"> </text>
<polyline fill="none" stroke="#bfbfbf" points="162,-1455.5 222,-1455.5 "/>
<text text-anchor="middle" x="192" y="-1443.5" font-family="Helvetica,sans-Serif" font-size="10.00"> </text>
</g>
<!-- Node9&#45;&gt;Node7 -->
<g id="edge8" class="edge"><title>Node9&#45;&gt;Node7</title>
<path fill="none" stroke="midnightblue" d="M180.55,-1426.63C176.65,-1413.9 172.009,-1398.76 167.044,-1382.55"/>
<polygon fill="none" stroke="midnightblue" points="177.235,-1427.76 183.511,-1436.3 183.928,-1425.71 177.235,-1427.76"/>
</g>
<!-- Node11 -->
<g id="node11" class="node"><title>Node11</title>
<g id="a_node11"><a xlink:href="../../de/d23/classprolog_1_1fluents_1_1Queue.html" target="_top" xlink:title="Generic dynamic Queeue with (amortized) O(1) enq/deq (add and remove) operations. ...">
<polygon fill="none" stroke="black" points="143.5,-792.5 143.5,-1025.5 250.5,-1025.5 250.5,-792.5 143.5,-792.5"/>
<text text-anchor="middle" x="197" y="-1013.5" font-family="Helvetica,sans-Serif" font-size="10.00">prolog.fluents.Queue</text>
<polyline fill="none" stroke="black" points="143.5,-1006.5 250.5,-1006.5 "/>
<text text-anchor="start" x="151.5" y="-994.5" font-family="Helvetica,sans-Serif" font-size="10.00">~ tail</text>
<text text-anchor="start" x="151.5" y="-983.5" font-family="Helvetica,sans-Serif" font-size="10.00">~ MIN_QUEUE</text>
<text text-anchor="start" x="151.5" y="-972.5" font-family="Helvetica,sans-Serif" font-size="10.00">~ MAX_QUEUE</text>
<text text-anchor="start" x="151.5" y="-961.5" font-family="Helvetica,sans-Serif" font-size="10.00">&#45; head</text>
<text text-anchor="start" x="151.5" y="-950.5" font-family="Helvetica,sans-Serif" font-size="10.00">&#45; queue</text>
<polyline fill="none" stroke="black" points="143.5,-943.5 250.5,-943.5 "/>
<text text-anchor="start" x="151.5" y="-931.5" font-family="Helvetica,sans-Serif" font-size="10.00">+ Queue()</text>
<text text-anchor="start" x="151.5" y="-920.5" font-family="Helvetica,sans-Serif" font-size="10.00">+ Queue()</text>
<text text-anchor="start" x="151.5" y="-909.5" font-family="Helvetica,sans-Serif" font-size="10.00">+ Queue()</text>
<text text-anchor="start" x="151.5" y="-898.5" font-family="Helvetica,sans-Serif" font-size="10.00">+ enq()</text>
<text text-anchor="start" x="151.5" y="-887.5" font-family="Helvetica,sans-Serif" font-size="10.00">+ deq()</text>
<text text-anchor="start" x="151.5" y="-876.5" font-family="Helvetica,sans-Serif" font-size="10.00">+ isEmpty()</text>
<text text-anchor="start" x="151.5" y="-865.5" font-family="Helvetica,sans-Serif" font-size="10.00">+ toVector()</text>
<text text-anchor="start" x="151.5" y="-854.5" font-family="Helvetica,sans-Serif" font-size="10.00">+ toEnumeration()</text>
<text text-anchor="start" x="151.5" y="-843.5" font-family="Helvetica,sans-Serif" font-size="10.00">+ toString()</text>
<text text-anchor="start" x="151.5" y="-832.5" font-family="Helvetica,sans-Serif" font-size="10.00">&#45; makeIt()</text>
<text text-anchor="start" x="151.5" y="-821.5" font-family="Helvetica,sans-Serif" font-size="10.00">&#45; count()</text>
<text text-anchor="start" x="151.5" y="-810.5" font-family="Helvetica,sans-Serif" font-size="10.00">&#45; requeue()</text>
<text text-anchor="start" x="151.5" y="-799.5" font-family="Helvetica,sans-Serif" font-size="10.00">&#45; inc()</text>
</a>
</g>
</g>
<!-- Node9&#45;&gt;Node11 -->
<g id="edge11" class="edge"><title>Node9&#45;&gt;Node11</title>
<path fill="none" stroke="midnightblue" d="M192.344,-1425.88C193.078,-1344.53 194.824,-1151.11 195.957,-1025.59"/>
<polygon fill="none" stroke="midnightblue" points="188.842,-1426.12 192.251,-1436.15 195.842,-1426.18 188.842,-1426.12"/>
</g>
<!-- Node10 -->
<g id="node10" class="node"><title>Node10</title>
<polygon fill="none" stroke="#bfbfbf" points="122.5,-272 122.5,-329 169.5,-329 169.5,-272 122.5,-272"/>
<text text-anchor="middle" x="146" y="-317" font-family="Helvetica,sans-Serif" font-size="10.00">Iterator</text>
<polyline fill="none" stroke="#bfbfbf" points="122.5,-310 169.5,-310 "/>
<text text-anchor="middle" x="146" y="-298" font-family="Helvetica,sans-Serif" font-size="10.00"> </text>
<polyline fill="none" stroke="#bfbfbf" points="122.5,-291 169.5,-291 "/>
<text text-anchor="middle" x="146" y="-279" font-family="Helvetica,sans-Serif" font-size="10.00"> </text>
</g>
<!-- Node10&#45;&gt;Node2 -->
<g id="edge9" class="edge"><title>Node10&#45;&gt;Node2</title>
<path fill="none" stroke="#404040" d="M137.997,-271.881C133.637,-256.834 128.057,-237.576 122.732,-219.195"/>
<polygon fill="none" stroke="#404040" points="122.713,-219.13 117.201,-214.48 119.373,-207.604 124.885,-212.254 122.713,-219.13"/>
<text text-anchor="middle" x="133" y="-229" font-family="Helvetica,sans-Serif" font-size="10.00"> &#45;e</text>
</g>
<!-- Node11&#45;&gt;Node1 -->
<g id="edge10" class="edge"><title>Node11&#45;&gt;Node1</title>
<path fill="none" stroke="#404040" d="M197.67,-792.428C197.852,-752.107 198,-706.555 198,-665 198,-665 198,-665 198,-156 198,-130.416 191.553,-102.657 184.637,-80.2378"/>
<polygon fill="none" stroke="#404040" points="184.6,-80.1251 178.944,-75.6525 180.897,-68.7109 186.553,-73.1835 184.6,-80.1251"/>
<text text-anchor="middle" x="205" y="-437" font-family="Helvetica,sans-Serif" font-size="10.00"> &#45;Q</text>
</g>
</g>
</svg>
        <g id="navigator" transform="translate(0 0)" fill="#404254">
                <rect fill="#f2f5e9" fill-opacity="0.5" stroke="#606060" stroke-width=".5" x="0" y="0" width="60" height="60"/>
                <use id="zoomplus" xlink:href="#zoomPlus" x="17" y="9" onmousedown="handleZoom(evt,'in')"/>
                <use id="zoomminus" xlink:href="#zoomMin" x="42" y="9" onmousedown="handleZoom(evt,'out')"/>
                <use id="reset" xlink:href="#resetDef" x="30" y="36" onmousedown="handleReset()"/>
                <g id="arrowUp" xlink:href="#dirArrow" transform="translate(30 24)" onmousedown="handlePan(0,-1)">
                  <use xlink:href="#rim" fill="#404040">
                        <set attributeName="fill" to="#808080" begin="arrowUp.mouseover" end="arrowUp.mouseout"/>
                  </use>
                  <path fill="none" stroke="white" stroke-width="1.5" d="M0,-3.0v7 M-2.5,-0.5L0,-3.0L2.5,-0.5"/>
                </g>
                <g id="arrowRight" xlink:href="#dirArrow" transform="rotate(90) translate(36 -43)" onmousedown="handlePan(1,0)">
                  <use xlink:href="#rim" fill="#404040">
                        <set attributeName="fill" to="#808080" begin="arrowRight.mouseover" end="arrowRight.mouseout"/>
                  </use>
                  <path fill="none" stroke="white" stroke-width="1.5" d="M0,-3.0v7 M-2.5,-0.5L0,-3.0L2.5,-0.5"/>
                </g>
                <g id="arrowDown" xlink:href="#dirArrow" transform="rotate(180) translate(-30 -48)" onmousedown="handlePan(0,1)">
                  <use xlink:href="#rim" fill="#404040">
                        <set attributeName="fill" to="#808080" begin="arrowDown.mouseover" end="arrowDown.mouseout"/>
                  </use>
                  <path fill="none" stroke="white" stroke-width="1.5" d="M0,-3.0v7 M-2.5,-0.5L0,-3.0L2.5,-0.5"/>
                </g>
                <g id="arrowLeft" xlink:href="#dirArrow" transform="rotate(270) translate(-36 17)" onmousedown="handlePan(-1,0)">
                  <use xlink:href="#rim" fill="#404040">
                        <set attributeName="fill" to="#808080" begin="arrowLeft.mouseover" end="arrowLeft.mouseout"/>
                  </use>
                  <path fill="none" stroke="white" stroke-width="1.5" d="M0,-3.0v7 M-2.5,-0.5L0,-3.0L2.5,-0.5"/>
                </g>
        </g>
        <svg viewBox="0 0 15 15" width="100%" height="30px" preserveAspectRatio="xMaxYMin meet">
         <g id="arrow_out" transform="scale(0.3 0.3)">
          <a xlink:href="classprolog_1_1fluents_1_1SourceMerger__coll__graph_org.svg" target="_base">
           <rect id="button" ry="5" rx="5" y="6" x="6" height="38" width="38"
                fill="#f2f5e9" fill-opacity="0.5" stroke="#606060" stroke-width="1.0"/>
           <path id="arrow"
             d="M 11.500037,31.436501 C 11.940474,20.09759 22.043105,11.32322 32.158766,21.979434 L 37.068811,17.246167 C 37.068811,17.246167 37.088388,32 37.088388,32 L 22.160133,31.978069 C 22.160133,31.978069 26.997745,27.140456 26.997745,27.140456 C 18.528582,18.264221 13.291696,25.230495 11.500037,31.436501 z"
             style="fill:#404040;"/>
          </a>
         </g>
        </svg>
</svg>
