<?xml version="1.0" encoding="UTF-8" standalone="no"?>
<!DOCTYPE svg PUBLIC "-//W3C//DTD SVG 1.1//EN"
 "http://www.w3.org/Graphics/SVG/1.1/DTD/svg11.dtd">
<!-- Generated by graphviz version 2.38.0 (20140413.2041)
 -->
<!-- Title: prolog.terms.Copier.ConsToVector Pages: 1 -->
<svg width="728pt" height="104pt"
 viewBox="0.00 0.00 728.00 104.00" xmlns="http://www.w3.org/2000/svg" xmlns:xlink="http://www.w3.org/1999/xlink">
<g id="graph0" class="graph" transform="scale(1 1) rotate(0) translate(4 100)">
<title>prolog.terms.Copier.ConsToVector</title>
<!-- Node1 -->
<g id="node1" class="node"><title>Node1</title>
<polygon fill="#bfbfbf" stroke="black" points="0,-14 0,-44 128,-44 128,-14 0,-14"/>
<text text-anchor="start" x="8" y="-32" font-family="Helvetica,sans-Serif" font-size="10.00">prolog.terms.Copier.Cons</text>
<text text-anchor="middle" x="64" y="-21" font-family="Helvetica,sans-Serif" font-size="10.00">ToVector</text>
</g>
<!-- Node2 -->
<g id="node2" class="node"><title>Node2</title>
<g id="a_node2"><a xlink:href="../../d4/dc2/classprolog_1_1io_1_1IO_ab6e0553457312c4804472cbe1c646a28.html#ab6e0553457312c4804472cbe1c646a28" target="_top" xlink:title="prolog.io.IO.errmes">
<polygon fill="none" stroke="black" points="175,-38.5 175,-57.5 275,-57.5 275,-38.5 175,-38.5"/>
<text text-anchor="middle" x="225" y="-45.5" font-family="Helvetica,sans-Serif" font-size="10.00">prolog.io.IO.errmes</text>
</a>
</g>
</g>
<!-- Node1&#45;&gt;Node2 -->
<g id="edge1" class="edge"><title>Node1&#45;&gt;Node2</title>
<path fill="none" stroke="midnightblue" d="M128.298,-36.5639C140.22,-37.9886 152.651,-39.474 164.454,-40.8844"/>
<polygon fill="midnightblue" stroke="midnightblue" points="164.291,-44.3898 174.636,-42.1012 165.122,-37.4393 164.291,-44.3898"/>
</g>
<!-- Node7 -->
<g id="node7" class="node"><title>Node7</title>
<g id="a_node7"><a xlink:href="../../de/d8d/classprolog_1_1terms_1_1Fun_a95f487cd7555adbc0ae1a08076a0404d.html#a95f487cd7555adbc0ae1a08076a0404d" target="_top" xlink:title="prolog.terms.Fun.getArg">
<polygon fill="none" stroke="black" points="164,-0.5 164,-19.5 286,-19.5 286,-0.5 164,-0.5"/>
<text text-anchor="middle" x="225" y="-7.5" font-family="Helvetica,sans-Serif" font-size="10.00">prolog.terms.Fun.getArg</text>
</a>
</g>
</g>
<!-- Node1&#45;&gt;Node7 -->
<g id="edge6" class="edge"><title>Node1&#45;&gt;Node7</title>
<path fill="none" stroke="midnightblue" d="M128.298,-21.4361C136.61,-20.4429 145.168,-19.4202 153.589,-18.4139"/>
<polygon fill="midnightblue" stroke="midnightblue" points="154.252,-21.8597 163.766,-17.1978 153.421,-14.9091 154.252,-21.8597"/>
</g>
<!-- Node3 -->
<g id="node3" class="node"><title>Node3</title>
<g id="a_node3"><a xlink:href="../../d4/dc2/classprolog_1_1io_1_1IO_a22a9a2bfe9fa6e00257369f5bf078a44.html#a22a9a2bfe9fa6e00257369f5bf078a44" target="_top" xlink:title="prolog.io.IO.getStdOutput">
<polygon fill="none" stroke="black" points="322,-76.5 322,-95.5 450,-95.5 450,-76.5 322,-76.5"/>
<text text-anchor="middle" x="386" y="-83.5" font-family="Helvetica,sans-Serif" font-size="10.00">prolog.io.IO.getStdOutput</text>
</a>
</g>
</g>
<!-- Node2&#45;&gt;Node3 -->
<g id="edge2" class="edge"><title>Node2&#45;&gt;Node3</title>
<path fill="none" stroke="midnightblue" d="M266.122,-57.589C287.104,-62.6035 312.982,-68.7881 335.23,-74.1053"/>
<polygon fill="midnightblue" stroke="midnightblue" points="334.626,-77.5595 345.166,-76.4799 336.254,-70.7513 334.626,-77.5595"/>
</g>
<!-- Node4 -->
<g id="node4" class="node"><title>Node4</title>
<g id="a_node4"><a xlink:href="../../d4/dc2/classprolog_1_1io_1_1IO_ad851906c6ebd6559eb1b1fa52e26dabb.html#ad851906c6ebd6559eb1b1fa52e26dabb" target="_top" xlink:title="prolog.io.IO.println">
<polygon fill="none" stroke="black" points="338,-38.5 338,-57.5 434,-57.5 434,-38.5 338,-38.5"/>
<text text-anchor="middle" x="386" y="-45.5" font-family="Helvetica,sans-Serif" font-size="10.00">prolog.io.IO.println</text>
</a>
</g>
</g>
<!-- Node2&#45;&gt;Node4 -->
<g id="edge3" class="edge"><title>Node2&#45;&gt;Node4</title>
<path fill="none" stroke="midnightblue" d="M275.003,-48C291.551,-48 310.177,-48 327.333,-48"/>
<polygon fill="midnightblue" stroke="midnightblue" points="327.793,-51.5001 337.793,-48 327.793,-44.5001 327.793,-51.5001"/>
</g>
<!-- Node5 -->
<g id="node5" class="node"><title>Node5</title>
<g id="a_node5"><a xlink:href="../../d4/dc2/classprolog_1_1io_1_1IO_aab64872af087c6cd9c5dd13e9f4eda00.html#aab64872af087c6cd9c5dd13e9f4eda00" target="_top" xlink:title="prolog.io.IO.print">
<polygon fill="none" stroke="black" points="486,-38.5 486,-57.5 575,-57.5 575,-38.5 486,-38.5"/>
<text text-anchor="middle" x="530.5" y="-45.5" font-family="Helvetica,sans-Serif" font-size="10.00">prolog.io.IO.print</text>
</a>
</g>
</g>
<!-- Node4&#45;&gt;Node5 -->
<g id="edge4" class="edge"><title>Node4&#45;&gt;Node5</title>
<path fill="none" stroke="midnightblue" d="M434.055,-48C447.363,-48 461.948,-48 475.625,-48"/>
<polygon fill="midnightblue" stroke="midnightblue" points="475.869,-51.5001 485.869,-48 475.869,-44.5001 475.869,-51.5001"/>
</g>
<!-- Node6 -->
<g id="node6" class="node"><title>Node6</title>
<g id="a_node6"><a xlink:href="../../d6/d92/interfaceprolog_1_1io_1_1IOPeer_abc1f90b85b358011e2595069d38ac25f.html#abc1f90b85b358011e2595069d38ac25f" target="_top" xlink:title="prolog.io.IOPeer.print">
<polygon fill="none" stroke="black" points="611,-38.5 611,-57.5 720,-57.5 720,-38.5 611,-38.5"/>
<text text-anchor="middle" x="665.5" y="-45.5" font-family="Helvetica,sans-Serif" font-size="10.00">prolog.io.IOPeer.print</text>
</a>
</g>
</g>
<!-- Node5&#45;&gt;Node6 -->
<g id="edge5" class="edge"><title>Node5&#45;&gt;Node6</title>
<path fill="none" stroke="midnightblue" d="M575.049,-48C583.217,-48 591.911,-48 600.548,-48"/>
<polygon fill="midnightblue" stroke="midnightblue" points="600.626,-51.5001 610.625,-48 600.625,-44.5001 600.626,-51.5001"/>
</g>
<!-- Node8 -->
<g id="node8" class="node"><title>Node8</title>
<g id="a_node8"><a xlink:href="../../d3/ded/classprolog_1_1terms_1_1Term_ae140fac2c9d066dc897fcfa723060a7a.html#ae140fac2c9d066dc897fcfa723060a7a" target="_top" xlink:title="Dereferences if necessary. ">
<polygon fill="none" stroke="black" points="331,-0.5 331,-19.5 441,-19.5 441,-0.5 331,-0.5"/>
<text text-anchor="middle" x="386" y="-7.5" font-family="Helvetica,sans-Serif" font-size="10.00">prolog.terms.Term.ref</text>
</a>
</g>
</g>
<!-- Node7&#45;&gt;Node8 -->
<g id="edge7" class="edge"><title>Node7&#45;&gt;Node8</title>
<path fill="none" stroke="midnightblue" d="M286.111,-10C297.355,-10 309.15,-10 320.52,-10"/>
<polygon fill="midnightblue" stroke="midnightblue" points="320.814,-13.5001 330.814,-10 320.814,-6.5001 320.814,-13.5001"/>
</g>
</g>
</svg>
