<?xml version="1.0" encoding="UTF-8" standalone="no"?>
<!DOCTYPE svg PUBLIC "-//W3C//DTD SVG 1.1//EN"
 "http://www.w3.org/Graphics/SVG/1.1/DTD/svg11.dtd">
<!-- Generated by graphviz version 2.38.0 (20140413.2041)
 -->
<!-- Title: prolog.terms.Copier.getMyVars Pages: 1 -->
<svg width="526pt" height="116pt"
 viewBox="0.00 0.00 526.00 116.00" xmlns="http://www.w3.org/2000/svg" xmlns:xlink="http://www.w3.org/1999/xlink">
<g id="graph0" class="graph" transform="scale(1 1) rotate(0) translate(4 112)">
<title>prolog.terms.Copier.getMyVars</title>
<!-- Node1 -->
<g id="node1" class="node"><title>Node1</title>
<polygon fill="#bfbfbf" stroke="black" points="0,-64.5 0,-83.5 152,-83.5 152,-64.5 0,-64.5"/>
<text text-anchor="middle" x="76" y="-71.5" font-family="Helvetica,sans-Serif" font-size="10.00">prolog.terms.Copier.getMyVars</text>
</g>
<!-- Node2 -->
<g id="node2" class="node"><title>Node2</title>
<g id="a_node2"><a xlink:href="../../d3/ded/classprolog_1_1terms_1_1Term_a0a660e6cd55f12e49d328e1b84b478a4.html#a0a660e6cd55f12e49d328e1b84b478a4" target="_top" xlink:title="Defines the reaction to an agent recursing over the structure of a term. ">
<polygon fill="none" stroke="black" points="188,-85.5 188,-104.5 322,-104.5 322,-85.5 188,-85.5"/>
<text text-anchor="middle" x="255" y="-92.5" font-family="Helvetica,sans-Serif" font-size="10.00">prolog.terms.Term.reaction</text>
</a>
</g>
</g>
<!-- Node1&#45;&gt;Node2 -->
<g id="edge1" class="edge"><title>Node1&#45;&gt;Node2</title>
<path fill="none" stroke="midnightblue" d="M152.064,-82.9059C160.597,-83.9183 169.3,-84.9509 177.847,-85.9649"/>
<polygon fill="midnightblue" stroke="midnightblue" points="177.446,-89.4418 187.789,-87.1444 178.271,-82.4906 177.446,-89.4418"/>
</g>
<!-- Node4 -->
<g id="node4" class="node"><title>Node4</title>
<g id="a_node4"><a xlink:href="../../d9/dc4/classprolog_1_1terms_1_1Copier_a4ef8214d87c787cdca1e6f393cca89d2.html#a4ef8214d87c787cdca1e6f393cca89d2" target="_top" xlink:title="Converts a reified Iterator to functor based on name of Const c and args being the elements of the It...">
<polygon fill="none" stroke="black" points="190,-44.5 190,-63.5 320,-63.5 320,-44.5 190,-44.5"/>
<text text-anchor="middle" x="255" y="-51.5" font-family="Helvetica,sans-Serif" font-size="10.00">prolog.terms.Copier.toFun</text>
</a>
</g>
</g>
<!-- Node1&#45;&gt;Node4 -->
<g id="edge3" class="edge"><title>Node1&#45;&gt;Node4</title>
<path fill="none" stroke="midnightblue" d="M152.064,-65.5182C161.169,-64.4894 170.468,-63.4387 179.564,-62.4109"/>
<polygon fill="midnightblue" stroke="midnightblue" points="180.182,-65.8634 189.725,-61.2627 179.396,-58.9077 180.182,-65.8634"/>
</g>
<!-- Node3 -->
<g id="node3" class="node"><title>Node3</title>
<g id="a_node3"><a xlink:href="../../d3/ded/classprolog_1_1terms_1_1Term_aa52e271c0f6784dbde9aa4f5f3ab0268.html#aa52e271c0f6784dbde9aa4f5f3ab0268" target="_top" xlink:title="Identity action. ">
<polygon fill="none" stroke="black" points="375.5,-88.5 375.5,-107.5 500.5,-107.5 500.5,-88.5 375.5,-88.5"/>
<text text-anchor="middle" x="438" y="-95.5" font-family="Helvetica,sans-Serif" font-size="10.00">prolog.terms.Term.action</text>
</a>
</g>
</g>
<!-- Node2&#45;&gt;Node3 -->
<g id="edge2" class="edge"><title>Node2&#45;&gt;Node3</title>
<path fill="none" stroke="midnightblue" d="M322.113,-96.0958C336.091,-96.3275 350.906,-96.573 365.086,-96.8081"/>
<polygon fill="midnightblue" stroke="midnightblue" points="365.221,-100.311 375.278,-96.977 365.337,-93.3116 365.221,-100.311"/>
</g>
<!-- Node5 -->
<g id="node5" class="node"><title>Node5</title>
<g id="a_node5"><a xlink:href="../../d9/dc4/classprolog_1_1terms_1_1Copier_a49207fd4df96f99f132b87f0d74dc6f7.html#a49207fd4df96f99f132b87f0d74dc6f7" target="_top" xlink:title="Reifies an Iterator as a ArrayList. ">
<polygon fill="none" stroke="black" points="358,-39 358,-69 518,-69 518,-39 358,-39"/>
<text text-anchor="start" x="366" y="-57" font-family="Helvetica,sans-Serif" font-size="10.00">prolog.terms.Copier.Enumeration</text>
<text text-anchor="middle" x="438" y="-46" font-family="Helvetica,sans-Serif" font-size="10.00">ToVector</text>
</a>
</g>
</g>
<!-- Node4&#45;&gt;Node5 -->
<g id="edge4" class="edge"><title>Node4&#45;&gt;Node5</title>
<path fill="none" stroke="midnightblue" d="M320.069,-54C329.03,-54 338.371,-54 347.695,-54"/>
<polygon fill="midnightblue" stroke="midnightblue" points="347.788,-57.5001 357.788,-54 347.788,-50.5001 347.788,-57.5001"/>
</g>
<!-- Node6 -->
<g id="node6" class="node"><title>Node6</title>
<g id="a_node6"><a xlink:href="../../d0/d3f/classprolog_1_1terms_1_1Const_a947005f966303baeb029a22d9201ea1b.html#a947005f966303baeb029a22d9201ea1b" target="_top" xlink:title="prolog.terms.Const.name">
<polygon fill="none" stroke="black" points="374.5,-0.5 374.5,-19.5 501.5,-19.5 501.5,-0.5 374.5,-0.5"/>
<text text-anchor="middle" x="438" y="-7.5" font-family="Helvetica,sans-Serif" font-size="10.00">prolog.terms.Const.name</text>
</a>
</g>
</g>
<!-- Node4&#45;&gt;Node6 -->
<g id="edge5" class="edge"><title>Node4&#45;&gt;Node6</title>
<path fill="none" stroke="midnightblue" d="M294.739,-44.4634C313.788,-39.7844 337.093,-34.0762 358,-29 367.462,-26.7027 377.564,-24.2629 387.274,-21.9246"/>
<polygon fill="midnightblue" stroke="midnightblue" points="388.304,-25.2768 397.208,-19.5347 386.666,-18.471 388.304,-25.2768"/>
</g>
</g>
</svg>
