<?xml version="1.0" encoding="UTF-8" standalone="no"?>
<!DOCTYPE svg PUBLIC "-//W3C//DTD SVG 1.1//EN"
 "http://www.w3.org/Graphics/SVG/1.1/DTD/svg11.dtd">
<!-- Generated by graphviz version 2.38.0 (20140413.2041)
 -->
<!-- Title: prolog.terms.Copier.ConsToVector Pages: 1 -->
<svg width="314pt" height="88pt"
 viewBox="0.00 0.00 314.00 88.00" xmlns="http://www.w3.org/2000/svg" xmlns:xlink="http://www.w3.org/1999/xlink">
<g id="graph0" class="graph" transform="scale(1 1) rotate(0) translate(4 84)">
<title>prolog.terms.Copier.ConsToVector</title>
<!-- Node1 -->
<g id="node1" class="node"><title>Node1</title>
<polygon fill="#bfbfbf" stroke="black" points="0,-24.5 0,-54.5 128,-54.5 128,-24.5 0,-24.5"/>
<text text-anchor="start" x="8" y="-42.5" font-family="Helvetica,sans-Serif" font-size="10.00">prolog.terms.Copier.Cons</text>
<text text-anchor="middle" x="64" y="-31.5" font-family="Helvetica,sans-Serif" font-size="10.00">ToVector</text>
</g>
<!-- Node2 -->
<g id="node2" class="node"><title>Node2</title>
<g id="a_node2"><a xlink:href="../../da/d30/classprolog_1_1fluents_1_1ListSource_a64524a61b56d89355ceba5d0adee1284.html#a64524a61b56d89355ceba5d0adee1284" target="_top" xlink:title="prolog.fluents.ListSource.\lListSource">
<polygon fill="none" stroke="black" points="171,-49.5 171,-79.5 299,-79.5 299,-49.5 171,-49.5"/>
<text text-anchor="start" x="179" y="-67.5" font-family="Helvetica,sans-Serif" font-size="10.00">prolog.fluents.ListSource.</text>
<text text-anchor="middle" x="235" y="-56.5" font-family="Helvetica,sans-Serif" font-size="10.00">ListSource</text>
</a>
</g>
</g>
<!-- Node1&#45;&gt;Node2 -->
<g id="edge1" class="edge"><title>Node1&#45;&gt;Node2</title>
<path fill="none" stroke="midnightblue" d="M138.601,-50.3877C149.33,-51.9749 160.298,-53.5973 170.797,-55.1504"/>
<polygon fill="midnightblue" stroke="midnightblue" points="138.815,-46.8813 128.41,-48.8802 137.79,-53.806 138.815,-46.8813"/>
</g>
<!-- Node3 -->
<g id="node3" class="node"><title>Node3</title>
<g id="a_node3"><a xlink:href="../../d9/dc9/classprolog_1_1fluents_1_1SourceMerger_a2d10b02e6e3a583e940c47e117b1cb35.html#a2d10b02e6e3a583e940c47e117b1cb35" target="_top" xlink:title="prolog.fluents.SourceMerger.\lSourceMerger">
<polygon fill="none" stroke="black" points="164,-0.5 164,-30.5 306,-30.5 306,-0.5 164,-0.5"/>
<text text-anchor="start" x="172" y="-18.5" font-family="Helvetica,sans-Serif" font-size="10.00">prolog.fluents.SourceMerger.</text>
<text text-anchor="middle" x="235" y="-7.5" font-family="Helvetica,sans-Serif" font-size="10.00">SourceMerger</text>
</a>
</g>
</g>
<!-- Node1&#45;&gt;Node3 -->
<g id="edge2" class="edge"><title>Node1&#45;&gt;Node3</title>
<path fill="none" stroke="midnightblue" d="M138.323,-29.0873C146.846,-27.8769 155.523,-26.6447 163.999,-25.4409"/>
<polygon fill="midnightblue" stroke="midnightblue" points="137.819,-25.6237 128.41,-30.495 138.803,-32.5541 137.819,-25.6237"/>
</g>
</g>
</svg>
