<?xml version="1.0" encoding="UTF-8" standalone="no"?>
<!DOCTYPE svg PUBLIC "-//W3C//DTD SVG 1.1//EN"
 "http://www.w3.org/Graphics/SVG/1.1/DTD/svg11.dtd">
<!-- Generated by graphviz version 2.38.0 (20140413.2041)
 -->
<!-- Title: prolog.terms.Var Pages: 1 -->
<svg width="132pt" height="684pt"
 viewBox="0.00 0.00 131.50 684.00" xmlns="http://www.w3.org/2000/svg" xmlns:xlink="http://www.w3.org/1999/xlink">
<g id="graph0" class="graph" transform="scale(1 1) rotate(0) translate(4 680)">
<title>prolog.terms.Var</title>
<!-- Node1 -->
<g id="node1" class="node"><title>Node1</title>
<polygon fill="#bfbfbf" stroke="black" points="13,-0.5 13,-178.5 102,-178.5 102,-0.5 13,-0.5"/>
<text text-anchor="middle" x="57.5" y="-166.5" font-family="Helvetica,sans-Serif" font-size="10.00">prolog.terms.Var</text>
<polyline fill="none" stroke="black" points="13,-159.5 102,-159.5 "/>
<text text-anchor="middle" x="57.5" y="-147.5" font-family="Helvetica,sans-Serif" font-size="10.00"> </text>
<polyline fill="none" stroke="black" points="13,-140.5 102,-140.5 "/>
<text text-anchor="start" x="21" y="-128.5" font-family="Helvetica,sans-Serif" font-size="10.00">+ Var()</text>
<text text-anchor="start" x="21" y="-117.5" font-family="Helvetica,sans-Serif" font-size="10.00">+ getArity()</text>
<text text-anchor="start" x="21" y="-106.5" font-family="Helvetica,sans-Serif" font-size="10.00">+ ref()</text>
<text text-anchor="start" x="21" y="-95.5" font-family="Helvetica,sans-Serif" font-size="10.00">+ bind_to()</text>
<text text-anchor="start" x="21" y="-84.5" font-family="Helvetica,sans-Serif" font-size="10.00">+ eq()</text>
<text text-anchor="start" x="21" y="-73.5" font-family="Helvetica,sans-Serif" font-size="10.00">+ getKey()</text>
<text text-anchor="start" x="21" y="-62.5" font-family="Helvetica,sans-Serif" font-size="10.00">+ toString()</text>
<text text-anchor="start" x="21" y="-51.5" font-family="Helvetica,sans-Serif" font-size="10.00">~ unbound()</text>
<text text-anchor="start" x="21" y="-40.5" font-family="Helvetica,sans-Serif" font-size="10.00">~ unify_to()</text>
<text text-anchor="start" x="21" y="-29.5" font-family="Helvetica,sans-Serif" font-size="10.00">~ reaction()</text>
<text text-anchor="start" x="21" y="-18.5" font-family="Helvetica,sans-Serif" font-size="10.00"># undo()</text>
<text text-anchor="start" x="21" y="-7.5" font-family="Helvetica,sans-Serif" font-size="10.00"># name()</text>
</g>
<!-- Node2 -->
<g id="node2" class="node"><title>Node2</title>
<g id="a_node2"><a xlink:href="../../d3/ded/classprolog_1_1terms_1_1Term.html" target="_top" xlink:title="Top element of the Prolog term hierarchy. ">
<polygon fill="none" stroke="black" points="8.5,-226.5 8.5,-580.5 106.5,-580.5 106.5,-226.5 8.5,-226.5"/>
<text text-anchor="middle" x="57.5" y="-568.5" font-family="Helvetica,sans-Serif" font-size="10.00">prolog.terms.Term</text>
<polyline fill="none" stroke="black" points="8.5,-561.5 106.5,-561.5 "/>
<text text-anchor="start" x="16.5" y="-549.5" font-family="Helvetica,sans-Serif" font-size="10.00">+ JAVA</text>
<text text-anchor="start" x="16.5" y="-538.5" font-family="Helvetica,sans-Serif" font-size="10.00">+ REAL</text>
<text text-anchor="start" x="16.5" y="-527.5" font-family="Helvetica,sans-Serif" font-size="10.00">+ INT</text>
<text text-anchor="start" x="16.5" y="-516.5" font-family="Helvetica,sans-Serif" font-size="10.00">+ VAR</text>
<text text-anchor="start" x="16.5" y="-505.5" font-family="Helvetica,sans-Serif" font-size="10.00">+ CONST</text>
<polyline fill="none" stroke="black" points="8.5,-498.5 106.5,-498.5 "/>
<text text-anchor="start" x="16.5" y="-486.5" font-family="Helvetica,sans-Serif" font-size="10.00">+ getArity()</text>
<text text-anchor="start" x="16.5" y="-475.5" font-family="Helvetica,sans-Serif" font-size="10.00">+ ref()</text>
<text text-anchor="start" x="16.5" y="-464.5" font-family="Helvetica,sans-Serif" font-size="10.00">+ token()</text>
<text text-anchor="start" x="16.5" y="-453.5" font-family="Helvetica,sans-Serif" font-size="10.00">+ toClause()</text>
<text text-anchor="start" x="16.5" y="-442.5" font-family="Helvetica,sans-Serif" font-size="10.00">+ matches()</text>
<text text-anchor="start" x="16.5" y="-431.5" font-family="Helvetica,sans-Serif" font-size="10.00">+ matches()</text>
<text text-anchor="start" x="16.5" y="-420.5" font-family="Helvetica,sans-Serif" font-size="10.00">+ matching_copy()</text>
<text text-anchor="start" x="16.5" y="-409.5" font-family="Helvetica,sans-Serif" font-size="10.00">+ copy()</text>
<text text-anchor="start" x="16.5" y="-398.5" font-family="Helvetica,sans-Serif" font-size="10.00">+ varsOf()</text>
<text text-anchor="start" x="16.5" y="-387.5" font-family="Helvetica,sans-Serif" font-size="10.00">+ numbervars()</text>
<text text-anchor="start" x="16.5" y="-376.5" font-family="Helvetica,sans-Serif" font-size="10.00">and 6 more...</text>
<text text-anchor="start" x="16.5" y="-365.5" font-family="Helvetica,sans-Serif" font-size="10.00">+ fromString()</text>
<text text-anchor="start" x="16.5" y="-354.5" font-family="Helvetica,sans-Serif" font-size="10.00">+ charsToString()</text>
<text text-anchor="start" x="16.5" y="-343.5" font-family="Helvetica,sans-Serif" font-size="10.00">~ bind_to()</text>
<text text-anchor="start" x="16.5" y="-332.5" font-family="Helvetica,sans-Serif" font-size="10.00">~ unify_to()</text>
<text text-anchor="start" x="16.5" y="-321.5" font-family="Helvetica,sans-Serif" font-size="10.00">~ toTerm()</text>
<text text-anchor="start" x="16.5" y="-310.5" font-family="Helvetica,sans-Serif" font-size="10.00">~ isClause()</text>
<text text-anchor="start" x="16.5" y="-299.5" font-family="Helvetica,sans-Serif" font-size="10.00">~ reaction()</text>
<text text-anchor="start" x="16.5" y="-288.5" font-family="Helvetica,sans-Serif" font-size="10.00">~ action()</text>
<text text-anchor="start" x="16.5" y="-277.5" font-family="Helvetica,sans-Serif" font-size="10.00">~ exec()</text>
<text text-anchor="start" x="16.5" y="-266.5" font-family="Helvetica,sans-Serif" font-size="10.00">~ stringToChars()</text>
<text text-anchor="start" x="16.5" y="-255.5" font-family="Helvetica,sans-Serif" font-size="10.00"># unify()</text>
<text text-anchor="start" x="16.5" y="-244.5" font-family="Helvetica,sans-Serif" font-size="10.00"># undo()</text>
<text text-anchor="start" x="16.5" y="-233.5" font-family="Helvetica,sans-Serif" font-size="10.00"># exec()</text>
</a>
</g>
</g>
<!-- Node2&#45;&gt;Node1 -->
<g id="edge1" class="edge"><title>Node2&#45;&gt;Node1</title>
<path fill="none" stroke="midnightblue" d="M55.3732,-216.247C55.3991,-209.752 55.4406,-203.322 55.5,-197 55.5564,-190.99 55.6308,-184.79 55.7175,-178.544"/>
<polygon fill="none" stroke="midnightblue" points="51.8726,-216.49 55.3449,-226.5 58.8725,-216.509 51.8726,-216.49"/>
</g>
<!-- Node2&#45;&gt;Node1 -->
<g id="edge4" class="edge"><title>Node2&#45;&gt;Node1</title>
<path fill="none" stroke="#404040" d="M57.5,-226.44C57.5,-214.361 57.5,-202.444 57.5,-190.988"/>
<polygon fill="none" stroke="#404040" points="57.5001,-190.75 53.5,-184.75 57.5,-178.75 61.5,-184.75 57.5001,-190.75"/>
<text text-anchor="middle" x="68.5" y="-200" font-family="Helvetica,sans-Serif" font-size="10.00"> #val</text>
</g>
<!-- Node3 -->
<g id="node3" class="node"><title>Node3</title>
<polygon fill="none" stroke="#bfbfbf" points="0,-618.5 0,-675.5 45,-675.5 45,-618.5 0,-618.5"/>
<text text-anchor="middle" x="22.5" y="-663.5" font-family="Helvetica,sans-Serif" font-size="10.00">Object</text>
<polyline fill="none" stroke="#bfbfbf" points="0,-656.5 45,-656.5 "/>
<text text-anchor="middle" x="22.5" y="-644.5" font-family="Helvetica,sans-Serif" font-size="10.00"> </text>
<polyline fill="none" stroke="#bfbfbf" points="0,-637.5 45,-637.5 "/>
<text text-anchor="middle" x="22.5" y="-625.5" font-family="Helvetica,sans-Serif" font-size="10.00"> </text>
</g>
<!-- Node3&#45;&gt;Node2 -->
<g id="edge2" class="edge"><title>Node3&#45;&gt;Node2</title>
<path fill="none" stroke="midnightblue" d="M27.9619,-608.313C29.1703,-599.975 30.5272,-590.612 31.978,-580.602"/>
<polygon fill="none" stroke="midnightblue" points="24.4855,-607.898 26.5149,-618.297 31.4131,-608.902 24.4855,-607.898"/>
</g>
<!-- Node4 -->
<g id="node4" class="node"><title>Node4</title>
<polygon fill="none" stroke="#bfbfbf" points="63.5,-618.5 63.5,-675.5 123.5,-675.5 123.5,-618.5 63.5,-618.5"/>
<text text-anchor="middle" x="93.5" y="-663.5" font-family="Helvetica,sans-Serif" font-size="10.00">Cloneable</text>
<polyline fill="none" stroke="#bfbfbf" points="63.5,-656.5 123.5,-656.5 "/>
<text text-anchor="middle" x="93.5" y="-644.5" font-family="Helvetica,sans-Serif" font-size="10.00"> </text>
<polyline fill="none" stroke="#bfbfbf" points="63.5,-637.5 123.5,-637.5 "/>
<text text-anchor="middle" x="93.5" y="-625.5" font-family="Helvetica,sans-Serif" font-size="10.00"> </text>
</g>
<!-- Node4&#45;&gt;Node2 -->
<g id="edge3" class="edge"><title>Node4&#45;&gt;Node2</title>
<path fill="none" stroke="midnightblue" d="M87.882,-608.313C86.6391,-599.975 85.2434,-590.612 83.7512,-580.602"/>
<polygon fill="none" stroke="midnightblue" points="84.4341,-608.922 89.3703,-618.297 91.3576,-607.89 84.4341,-608.922"/>
</g>
</g>
</svg>
