<?xml version="1.0" encoding="UTF-8" standalone="no"?>
<!DOCTYPE svg PUBLIC "-//W3C//DTD SVG 1.1//EN"
 "http://www.w3.org/Graphics/SVG/1.1/DTD/svg11.dtd">
<!-- Generated by graphviz version 2.38.0 (20140413.2041)
 -->
<!-- Title: prolog.io.commaToken Pages: 1 -->
<svg width="238pt" height="980pt"
 viewBox="0.00 0.00 238.00 980.00" xmlns="http://www.w3.org/2000/svg" xmlns:xlink="http://www.w3.org/1999/xlink">
<g id="graph0" class="graph" transform="scale(1 1) rotate(0) translate(4 976)">
<title>prolog.io.commaToken</title>
<!-- Node1 -->
<g id="node1" class="node"><title>Node1</title>
<polygon fill="#bfbfbf" stroke="black" points="0,-0.5 0,-57.5 116,-57.5 116,-0.5 0,-0.5"/>
<text text-anchor="middle" x="58" y="-45.5" font-family="Helvetica,sans-Serif" font-size="10.00">prolog.io.commaToken</text>
<polyline fill="none" stroke="black" points="0,-38.5 116,-38.5 "/>
<text text-anchor="middle" x="58" y="-26.5" font-family="Helvetica,sans-Serif" font-size="10.00"> </text>
<polyline fill="none" stroke="black" points="0,-19.5 116,-19.5 "/>
<text text-anchor="start" x="8" y="-7.5" font-family="Helvetica,sans-Serif" font-size="10.00">+ commaToken()</text>
</g>
<!-- Node2 -->
<g id="node2" class="node"><title>Node2</title>
<g id="a_node2"><a xlink:href="../../d8/db6/classprolog_1_1io_1_1Token.html" target="_top" xlink:title="{prolog.io.Token\n||~ Token()\l}">
<polygon fill="none" stroke="black" points="16.5,-101 16.5,-158 99.5,-158 99.5,-101 16.5,-101"/>
<text text-anchor="middle" x="58" y="-146" font-family="Helvetica,sans-Serif" font-size="10.00">prolog.io.Token</text>
<polyline fill="none" stroke="black" points="16.5,-139 99.5,-139 "/>
<text text-anchor="middle" x="58" y="-127" font-family="Helvetica,sans-Serif" font-size="10.00"> </text>
<polyline fill="none" stroke="black" points="16.5,-120 99.5,-120 "/>
<text text-anchor="start" x="24.5" y="-108" font-family="Helvetica,sans-Serif" font-size="10.00">~ Token()</text>
</a>
</g>
</g>
<!-- Node2&#45;&gt;Node1 -->
<g id="edge1" class="edge"><title>Node2&#45;&gt;Node1</title>
<path fill="none" stroke="midnightblue" d="M58,-90.6501C58,-79.732 58,-68.0231 58,-57.8332"/>
<polygon fill="none" stroke="midnightblue" points="54.5001,-90.8001 58,-100.8 61.5001,-90.8002 54.5001,-90.8001"/>
</g>
<!-- Node3 -->
<g id="node3" class="node"><title>Node3</title>
<g id="a_node3"><a xlink:href="../../d0/d3f/classprolog_1_1terms_1_1Const.html" target="_top" xlink:title="Symbolic constant, of arity 0. ">
<polygon fill="none" stroke="black" points="78,-211.5 78,-356.5 178,-356.5 178,-211.5 78,-211.5"/>
<text text-anchor="middle" x="128" y="-344.5" font-family="Helvetica,sans-Serif" font-size="10.00">prolog.terms.Const</text>
<polyline fill="none" stroke="black" points="78,-337.5 178,-337.5 "/>
<text text-anchor="start" x="86" y="-325.5" font-family="Helvetica,sans-Serif" font-size="10.00">&#45; sym</text>
<polyline fill="none" stroke="black" points="78,-318.5 178,-318.5 "/>
<text text-anchor="start" x="86" y="-306.5" font-family="Helvetica,sans-Serif" font-size="10.00">+ Const()</text>
<text text-anchor="start" x="86" y="-295.5" font-family="Helvetica,sans-Serif" font-size="10.00">+ name()</text>
<text text-anchor="start" x="86" y="-284.5" font-family="Helvetica,sans-Serif" font-size="10.00">+ qname()</text>
<text text-anchor="start" x="86" y="-273.5" font-family="Helvetica,sans-Serif" font-size="10.00">+ toString()</text>
<text text-anchor="start" x="86" y="-262.5" font-family="Helvetica,sans-Serif" font-size="10.00">+ getKey()</text>
<text text-anchor="start" x="86" y="-251.5" font-family="Helvetica,sans-Serif" font-size="10.00">+ getArity()</text>
<text text-anchor="start" x="86" y="-240.5" font-family="Helvetica,sans-Serif" font-size="10.00">+ toUnquoted()</text>
<text text-anchor="start" x="86" y="-229.5" font-family="Helvetica,sans-Serif" font-size="10.00">+ the()</text>
<text text-anchor="start" x="86" y="-218.5" font-family="Helvetica,sans-Serif" font-size="10.00">~ bind_to()</text>
</a>
</g>
</g>
<!-- Node3&#45;&gt;Node2 -->
<g id="edge2" class="edge"><title>Node3&#45;&gt;Node2</title>
<path fill="none" stroke="midnightblue" d="M90.787,-201.929C83.556,-186.175 76.4514,-170.698 70.7145,-158.199"/>
<polygon fill="none" stroke="midnightblue" points="87.6971,-203.587 95.0497,-211.216 94.0589,-200.667 87.6971,-203.587"/>
</g>
<!-- Node3&#45;&gt;Node3 -->
<g id="edge9" class="edge"><title>Node3&#45;&gt;Node3</title>
<path fill="none" stroke="#404040" d="M178.114,-300.282C188.518,-298.568 196,-293.141 196,-284 196,-278.716 193.499,-274.672 189.379,-271.87"/>
<polygon fill="none" stroke="#404040" points="189.374,-271.868 182.36,-273.546 178.114,-267.718 185.127,-266.04 189.374,-271.868"/>
<text text-anchor="middle" x="213" y="-303.5" font-family="Helvetica,sans-Serif" font-size="10.00"> +aTrue</text>
<text text-anchor="middle" x="213" y="-292.5" font-family="Helvetica,sans-Serif" font-size="10.00">+aNo</text>
<text text-anchor="middle" x="213" y="-281.5" font-family="Helvetica,sans-Serif" font-size="10.00">+anEof</text>
<text text-anchor="middle" x="213" y="-270.5" font-family="Helvetica,sans-Serif" font-size="10.00">+aYes</text>
<text text-anchor="middle" x="213" y="-259.5" font-family="Helvetica,sans-Serif" font-size="10.00">+aFail</text>
</g>
<!-- Node8 -->
<g id="node8" class="node"><title>Node8</title>
<g id="a_node8"><a xlink:href="../../d8/dad/classprolog_1_1terms_1_1Nil.html" target="_top" xlink:title="Special constant terminating a list. ">
<polygon fill="none" stroke="black" points="118,-95.5 118,-163.5 204,-163.5 204,-95.5 118,-95.5"/>
<text text-anchor="middle" x="161" y="-151.5" font-family="Helvetica,sans-Serif" font-size="10.00">prolog.terms.Nil</text>
<polyline fill="none" stroke="black" points="118,-144.5 204,-144.5 "/>
<text text-anchor="middle" x="161" y="-132.5" font-family="Helvetica,sans-Serif" font-size="10.00"> </text>
<polyline fill="none" stroke="black" points="118,-125.5 204,-125.5 "/>
<text text-anchor="start" x="126" y="-113.5" font-family="Helvetica,sans-Serif" font-size="10.00">+ Nil()</text>
<text text-anchor="start" x="126" y="-102.5" font-family="Helvetica,sans-Serif" font-size="10.00">+ Nil()</text>
</a>
</g>
</g>
<!-- Node3&#45;&gt;Node8 -->
<g id="edge8" class="edge"><title>Node3&#45;&gt;Node8</title>
<path fill="none" stroke="midnightblue" d="M140.823,-201.099C142.131,-194.615 143.525,-188.186 145,-182 146.433,-175.989 148.19,-169.655 150.01,-163.563"/>
<polygon fill="none" stroke="midnightblue" points="137.312,-200.82 138.84,-211.304 144.184,-202.156 137.312,-200.82"/>
</g>
<!-- Node4 -->
<g id="node4" class="node"><title>Node4</title>
<g id="a_node4"><a xlink:href="../../d4/de0/classprolog_1_1terms_1_1Nonvar.html" target="_top" xlink:title="Part of the Prolog Term hierarchy. ">
<polygon fill="none" stroke="black" points="75.5,-394.5 75.5,-484.5 180.5,-484.5 180.5,-394.5 75.5,-394.5"/>
<text text-anchor="middle" x="128" y="-472.5" font-family="Helvetica,sans-Serif" font-size="10.00">prolog.terms.Nonvar</text>
<polyline fill="none" stroke="black" points="75.5,-465.5 180.5,-465.5 "/>
<text text-anchor="middle" x="128" y="-453.5" font-family="Helvetica,sans-Serif" font-size="10.00"> </text>
<polyline fill="none" stroke="black" points="75.5,-446.5 180.5,-446.5 "/>
<text text-anchor="start" x="83.5" y="-434.5" font-family="Helvetica,sans-Serif" font-size="10.00">+ name()</text>
<text text-anchor="start" x="83.5" y="-423.5" font-family="Helvetica,sans-Serif" font-size="10.00">~ bind_to()</text>
<text text-anchor="start" x="83.5" y="-412.5" font-family="Helvetica,sans-Serif" font-size="10.00">~ unify_to()</text>
<text text-anchor="start" x="83.5" y="-401.5" font-family="Helvetica,sans-Serif" font-size="10.00">~ listify()</text>
</a>
</g>
</g>
<!-- Node4&#45;&gt;Node3 -->
<g id="edge3" class="edge"><title>Node4&#45;&gt;Node3</title>
<path fill="none" stroke="midnightblue" d="M128,-383.98C128,-375.165 128,-365.921 128,-356.771"/>
<polygon fill="none" stroke="midnightblue" points="124.5,-384.101 128,-394.101 131.5,-384.101 124.5,-384.101"/>
</g>
<!-- Node5 -->
<g id="node5" class="node"><title>Node5</title>
<g id="a_node5"><a xlink:href="../../d3/ded/classprolog_1_1terms_1_1Term.html" target="_top" xlink:title="Top element of the Prolog term hierarchy. ">
<polygon fill="none" stroke="black" points="79,-522.5 79,-876.5 177,-876.5 177,-522.5 79,-522.5"/>
<text text-anchor="middle" x="128" y="-864.5" font-family="Helvetica,sans-Serif" font-size="10.00">prolog.terms.Term</text>
<polyline fill="none" stroke="black" points="79,-857.5 177,-857.5 "/>
<text text-anchor="start" x="87" y="-845.5" font-family="Helvetica,sans-Serif" font-size="10.00">+ JAVA</text>
<text text-anchor="start" x="87" y="-834.5" font-family="Helvetica,sans-Serif" font-size="10.00">+ REAL</text>
<text text-anchor="start" x="87" y="-823.5" font-family="Helvetica,sans-Serif" font-size="10.00">+ INT</text>
<text text-anchor="start" x="87" y="-812.5" font-family="Helvetica,sans-Serif" font-size="10.00">+ VAR</text>
<text text-anchor="start" x="87" y="-801.5" font-family="Helvetica,sans-Serif" font-size="10.00">+ CONST</text>
<polyline fill="none" stroke="black" points="79,-794.5 177,-794.5 "/>
<text text-anchor="start" x="87" y="-782.5" font-family="Helvetica,sans-Serif" font-size="10.00">+ getArity()</text>
<text text-anchor="start" x="87" y="-771.5" font-family="Helvetica,sans-Serif" font-size="10.00">+ ref()</text>
<text text-anchor="start" x="87" y="-760.5" font-family="Helvetica,sans-Serif" font-size="10.00">+ token()</text>
<text text-anchor="start" x="87" y="-749.5" font-family="Helvetica,sans-Serif" font-size="10.00">+ toClause()</text>
<text text-anchor="start" x="87" y="-738.5" font-family="Helvetica,sans-Serif" font-size="10.00">+ matches()</text>
<text text-anchor="start" x="87" y="-727.5" font-family="Helvetica,sans-Serif" font-size="10.00">+ matches()</text>
<text text-anchor="start" x="87" y="-716.5" font-family="Helvetica,sans-Serif" font-size="10.00">+ matching_copy()</text>
<text text-anchor="start" x="87" y="-705.5" font-family="Helvetica,sans-Serif" font-size="10.00">+ copy()</text>
<text text-anchor="start" x="87" y="-694.5" font-family="Helvetica,sans-Serif" font-size="10.00">+ varsOf()</text>
<text text-anchor="start" x="87" y="-683.5" font-family="Helvetica,sans-Serif" font-size="10.00">+ numbervars()</text>
<text text-anchor="start" x="87" y="-672.5" font-family="Helvetica,sans-Serif" font-size="10.00">and 6 more...</text>
<text text-anchor="start" x="87" y="-661.5" font-family="Helvetica,sans-Serif" font-size="10.00">+ fromString()</text>
<text text-anchor="start" x="87" y="-650.5" font-family="Helvetica,sans-Serif" font-size="10.00">+ charsToString()</text>
<text text-anchor="start" x="87" y="-639.5" font-family="Helvetica,sans-Serif" font-size="10.00">~ bind_to()</text>
<text text-anchor="start" x="87" y="-628.5" font-family="Helvetica,sans-Serif" font-size="10.00">~ unify_to()</text>
<text text-anchor="start" x="87" y="-617.5" font-family="Helvetica,sans-Serif" font-size="10.00">~ toTerm()</text>
<text text-anchor="start" x="87" y="-606.5" font-family="Helvetica,sans-Serif" font-size="10.00">~ isClause()</text>
<text text-anchor="start" x="87" y="-595.5" font-family="Helvetica,sans-Serif" font-size="10.00">~ reaction()</text>
<text text-anchor="start" x="87" y="-584.5" font-family="Helvetica,sans-Serif" font-size="10.00">~ action()</text>
<text text-anchor="start" x="87" y="-573.5" font-family="Helvetica,sans-Serif" font-size="10.00">~ exec()</text>
<text text-anchor="start" x="87" y="-562.5" font-family="Helvetica,sans-Serif" font-size="10.00">~ stringToChars()</text>
<text text-anchor="start" x="87" y="-551.5" font-family="Helvetica,sans-Serif" font-size="10.00"># unify()</text>
<text text-anchor="start" x="87" y="-540.5" font-family="Helvetica,sans-Serif" font-size="10.00"># undo()</text>
<text text-anchor="start" x="87" y="-529.5" font-family="Helvetica,sans-Serif" font-size="10.00"># exec()</text>
</a>
</g>
</g>
<!-- Node5&#45;&gt;Node4 -->
<g id="edge4" class="edge"><title>Node5&#45;&gt;Node4</title>
<path fill="none" stroke="midnightblue" d="M128,-512.384C128,-502.458 128,-493.098 128,-484.617"/>
<polygon fill="none" stroke="midnightblue" points="124.5,-512.487 128,-522.487 131.5,-512.487 124.5,-512.487"/>
</g>
<!-- Node6 -->
<g id="node6" class="node"><title>Node6</title>
<polygon fill="none" stroke="#bfbfbf" points="70.5,-914.5 70.5,-971.5 115.5,-971.5 115.5,-914.5 70.5,-914.5"/>
<text text-anchor="middle" x="93" y="-959.5" font-family="Helvetica,sans-Serif" font-size="10.00">Object</text>
<polyline fill="none" stroke="#bfbfbf" points="70.5,-952.5 115.5,-952.5 "/>
<text text-anchor="middle" x="93" y="-940.5" font-family="Helvetica,sans-Serif" font-size="10.00"> </text>
<polyline fill="none" stroke="#bfbfbf" points="70.5,-933.5 115.5,-933.5 "/>
<text text-anchor="middle" x="93" y="-921.5" font-family="Helvetica,sans-Serif" font-size="10.00"> </text>
</g>
<!-- Node6&#45;&gt;Node5 -->
<g id="edge5" class="edge"><title>Node6&#45;&gt;Node5</title>
<path fill="none" stroke="midnightblue" d="M98.4619,-904.313C99.6703,-895.975 101.027,-886.612 102.478,-876.602"/>
<polygon fill="none" stroke="midnightblue" points="94.9855,-903.898 97.0149,-914.297 101.913,-904.902 94.9855,-903.898"/>
</g>
<!-- Node7 -->
<g id="node7" class="node"><title>Node7</title>
<polygon fill="none" stroke="#bfbfbf" points="134,-914.5 134,-971.5 194,-971.5 194,-914.5 134,-914.5"/>
<text text-anchor="middle" x="164" y="-959.5" font-family="Helvetica,sans-Serif" font-size="10.00">Cloneable</text>
<polyline fill="none" stroke="#bfbfbf" points="134,-952.5 194,-952.5 "/>
<text text-anchor="middle" x="164" y="-940.5" font-family="Helvetica,sans-Serif" font-size="10.00"> </text>
<polyline fill="none" stroke="#bfbfbf" points="134,-933.5 194,-933.5 "/>
<text text-anchor="middle" x="164" y="-921.5" font-family="Helvetica,sans-Serif" font-size="10.00"> </text>
</g>
<!-- Node7&#45;&gt;Node5 -->
<g id="edge6" class="edge"><title>Node7&#45;&gt;Node5</title>
<path fill="none" stroke="midnightblue" d="M158.382,-904.313C157.139,-895.975 155.743,-886.612 154.251,-876.602"/>
<polygon fill="none" stroke="midnightblue" points="154.934,-904.922 159.87,-914.297 161.858,-903.89 154.934,-904.922"/>
</g>
<!-- Node8&#45;&gt;Node3 -->
<g id="edge7" class="edge"><title>Node8&#45;&gt;Node3</title>
<path fill="none" stroke="#404040" d="M153.857,-163.508C151.53,-174.263 148.831,-186.733 146.074,-199.477"/>
<polygon fill="none" stroke="#404040" points="146.072,-199.487 148.712,-206.197 143.534,-211.216 140.893,-204.505 146.072,-199.487"/>
<text text-anchor="middle" x="163.5" y="-185" font-family="Helvetica,sans-Serif" font-size="10.00"> +aNil</text>
</g>
</g>
</svg>
