<?xml version="1.0" encoding="UTF-8" standalone="no"?>
<!DOCTYPE svg PUBLIC "-//W3C//DTD SVG 1.1//EN"
 "http://www.w3.org/Graphics/SVG/1.1/DTD/svg11.dtd">
<!-- Generated by graphviz version 2.38.0 (20140413.2041)
 -->
<!-- Title: prolog.builtins.set_persistent.exec Pages: 1 -->
<svg width="444pt" height="104pt"
 viewBox="0.00 0.00 444.00 104.00" xmlns="http://www.w3.org/2000/svg" xmlns:xlink="http://www.w3.org/1999/xlink">
<g id="graph0" class="graph" transform="scale(1 1) rotate(0) translate(4 100)">
<title>prolog.builtins.set_persistent.exec</title>
<!-- Node1 -->
<g id="node1" class="node"><title>Node1</title>
<polygon fill="#bfbfbf" stroke="black" points="0,-33 0,-63 93,-63 93,-33 0,-33"/>
<text text-anchor="start" x="8" y="-51" font-family="Helvetica,sans-Serif" font-size="10.00">prolog.builtins.set</text>
<text text-anchor="middle" x="46.5" y="-40" font-family="Helvetica,sans-Serif" font-size="10.00">_persistent.exec</text>
</g>
<!-- Node2 -->
<g id="node2" class="node"><title>Node2</title>
<g id="a_node2"><a xlink:href="../../d0/d3f/classprolog_1_1terms_1_1Const_a2f00757ecfe3ace23e67c5537c34cfbd.html#a2f00757ecfe3ace23e67c5537c34cfbd" target="_top" xlink:title="prolog.terms.Const.Const">
<polygon fill="none" stroke="black" points="145,-76.5 145,-95.5 274,-95.5 274,-76.5 145,-76.5"/>
<text text-anchor="middle" x="209.5" y="-83.5" font-family="Helvetica,sans-Serif" font-size="10.00">prolog.terms.Const.Const</text>
</a>
</g>
</g>
<!-- Node1&#45;&gt;Node2 -->
<g id="edge1" class="edge"><title>Node1&#45;&gt;Node2</title>
<path fill="none" stroke="midnightblue" d="M93.2055,-58.7876C113.498,-63.5772 137.444,-69.229 158.239,-74.1372"/>
<polygon fill="midnightblue" stroke="midnightblue" points="157.628,-77.5891 168.165,-76.4799 159.236,-70.7763 157.628,-77.5891"/>
</g>
<!-- Node3 -->
<g id="node3" class="node"><title>Node3</title>
<g id="a_node3"><a xlink:href="../../de/d8d/classprolog_1_1terms_1_1Fun_a95f487cd7555adbc0ae1a08076a0404d.html#a95f487cd7555adbc0ae1a08076a0404d" target="_top" xlink:title="prolog.terms.Fun.getArg">
<polygon fill="none" stroke="black" points="148.5,-38.5 148.5,-57.5 270.5,-57.5 270.5,-38.5 148.5,-38.5"/>
<text text-anchor="middle" x="209.5" y="-45.5" font-family="Helvetica,sans-Serif" font-size="10.00">prolog.terms.Fun.getArg</text>
</a>
</g>
</g>
<!-- Node1&#45;&gt;Node3 -->
<g id="edge2" class="edge"><title>Node1&#45;&gt;Node3</title>
<path fill="none" stroke="midnightblue" d="M93.2055,-48C107.104,-48 122.716,-48 137.856,-48"/>
<polygon fill="midnightblue" stroke="midnightblue" points="138.235,-51.5001 148.235,-48 138.235,-44.5001 138.235,-51.5001"/>
</g>
<!-- Node5 -->
<g id="node5" class="node"><title>Node5</title>
<g id="a_node5"><a xlink:href="../../d9/d3b/classprolog_1_1terms_1_1Fluent_a58abb02eac02a38393f71a3ed00ba989.html#a58abb02eac02a38393f71a3ed00ba989" target="_top" xlink:title="Dynamically sets the persistence status of this Fluent. ">
<polygon fill="none" stroke="black" points="129,-0.5 129,-19.5 290,-19.5 290,-0.5 129,-0.5"/>
<text text-anchor="middle" x="209.5" y="-7.5" font-family="Helvetica,sans-Serif" font-size="10.00">prolog.terms.Fluent.setPersistent</text>
</a>
</g>
</g>
<!-- Node1&#45;&gt;Node5 -->
<g id="edge4" class="edge"><title>Node1&#45;&gt;Node5</title>
<path fill="none" stroke="midnightblue" d="M93.2055,-37.2124C113.498,-32.4228 137.444,-26.771 158.239,-21.8628"/>
<polygon fill="midnightblue" stroke="midnightblue" points="159.236,-25.2237 168.165,-19.5201 157.628,-18.4109 159.236,-25.2237"/>
</g>
<!-- Node4 -->
<g id="node4" class="node"><title>Node4</title>
<g id="a_node4"><a xlink:href="../../d3/ded/classprolog_1_1terms_1_1Term_ae140fac2c9d066dc897fcfa723060a7a.html#ae140fac2c9d066dc897fcfa723060a7a" target="_top" xlink:title="Dereferences if necessary. ">
<polygon fill="none" stroke="black" points="326,-38.5 326,-57.5 436,-57.5 436,-38.5 326,-38.5"/>
<text text-anchor="middle" x="381" y="-45.5" font-family="Helvetica,sans-Serif" font-size="10.00">prolog.terms.Term.ref</text>
</a>
</g>
</g>
<!-- Node3&#45;&gt;Node4 -->
<g id="edge3" class="edge"><title>Node3&#45;&gt;Node4</title>
<path fill="none" stroke="midnightblue" d="M270.737,-48C285.349,-48 301.025,-48 315.812,-48"/>
<polygon fill="midnightblue" stroke="midnightblue" points="315.883,-51.5001 325.883,-48 315.883,-44.5001 315.883,-51.5001"/>
</g>
</g>
</svg>
