<?xml version="1.0" encoding="UTF-8" standalone="no"?>
<!DOCTYPE svg PUBLIC "-//W3C//DTD SVG 1.1//EN"
 "http://www.w3.org/Graphics/SVG/1.1/DTD/svg11.dtd">
<!-- Generated by graphviz version 2.38.0 (20140413.2041)
 -->
<!-- Title: prolog.io.Parser.getTerm Pages: 1 -->
<svg width="1660pt" height="425pt"
 viewBox="0.00 0.00 1660.00 425.00" xmlns="http://www.w3.org/2000/svg" xmlns:xlink="http://www.w3.org/1999/xlink">
<g id="graph0" class="graph" transform="scale(1 1) rotate(0) translate(4 421)">
<title>prolog.io.Parser.getTerm</title>
<!-- Node1 -->
<g id="node1" class="node"><title>Node1</title>
<polygon fill="#bfbfbf" stroke="black" points="0,-176.5 0,-195.5 124,-195.5 124,-176.5 0,-176.5"/>
<text text-anchor="middle" x="62" y="-183.5" font-family="Helvetica,sans-Serif" font-size="10.00">prolog.io.Parser.getTerm</text>
</g>
<!-- Node2 -->
<g id="node2" class="node"><title>Node2</title>
<g id="a_node2"><a xlink:href="../../d7/df1/classprolog_1_1io_1_1Parser_a65d208b0e30e3ff19d769fbb3b0f7247.html#a65d208b0e30e3ff19d769fbb3b0f7247" target="_top" xlink:title="prolog.io.Parser.getArgs">
<polygon fill="none" stroke="black" points="343.5,-366.5 343.5,-385.5 465.5,-385.5 465.5,-366.5 343.5,-366.5"/>
<text text-anchor="middle" x="404.5" y="-373.5" font-family="Helvetica,sans-Serif" font-size="10.00">prolog.io.Parser.getArgs</text>
</a>
</g>
</g>
<!-- Node1&#45;&gt;Node2 -->
<g id="edge1" class="edge"><title>Node1&#45;&gt;Node2</title>
<path fill="none" stroke="midnightblue" d="M68.4746,-195.536C81.4802,-217.345 116.429,-271.193 160,-300 212.642,-334.804 282.127,-354.409 333.393,-364.953"/>
<polygon fill="midnightblue" stroke="midnightblue" points="332.902,-368.424 343.393,-366.943 334.268,-361.559 332.902,-368.424"/>
</g>
<!-- Node18 -->
<g id="node18" class="node"><title>Node18</title>
<g id="a_node18"><a xlink:href="../../d7/df1/classprolog_1_1io_1_1Parser_ab9dcde7b1480cd18c6a21e5c88e1a2bd.html#ab9dcde7b1480cd18c6a21e5c88e1a2bd" target="_top" xlink:title="prolog.io.Parser.getList">
<polygon fill="none" stroke="black" points="168.5,-271.5 168.5,-290.5 285.5,-290.5 285.5,-271.5 168.5,-271.5"/>
<text text-anchor="middle" x="227" y="-278.5" font-family="Helvetica,sans-Serif" font-size="10.00">prolog.io.Parser.getList</text>
</a>
</g>
</g>
<!-- Node1&#45;&gt;Node18 -->
<g id="edge20" class="edge"><title>Node1&#45;&gt;Node18</title>
<path fill="none" stroke="midnightblue" d="M79.5263,-195.632C108.083,-212.275 166.84,-246.52 200.613,-266.204"/>
<polygon fill="midnightblue" stroke="midnightblue" points="199.028,-269.331 209.43,-271.343 202.553,-263.283 199.028,-269.331"/>
</g>
<!-- Node20 -->
<g id="node20" class="node"><title>Node20</title>
<g id="a_node20"><a xlink:href="../../d3/ded/classprolog_1_1terms_1_1Term_ae8200608f033511843ee4eae348103ed.html#ae8200608f033511843ee4eae348103ed" target="_top" xlink:title="prolog.terms.Term.toChars">
<polygon fill="none" stroke="black" points="160,-176.5 160,-195.5 294,-195.5 294,-176.5 160,-176.5"/>
<text text-anchor="middle" x="227" y="-183.5" font-family="Helvetica,sans-Serif" font-size="10.00">prolog.terms.Term.toChars</text>
</a>
</g>
</g>
<!-- Node1&#45;&gt;Node20 -->
<g id="edge26" class="edge"><title>Node1&#45;&gt;Node20</title>
<path fill="none" stroke="midnightblue" d="M124.159,-186C132.535,-186 141.217,-186 149.819,-186"/>
<polygon fill="midnightblue" stroke="midnightblue" points="149.859,-189.5 159.859,-186 149.859,-182.5 149.859,-189.5"/>
</g>
<!-- Node28 -->
<g id="node28" class="node"><title>Node28</title>
<g id="a_node28"><a xlink:href="../../d7/d2b/classprolog_1_1builtins_1_1Builtins_a03db9f009d6e9f38f61113ec03af92b4.html#a03db9f009d6e9f38f61113ec03af92b4" target="_top" xlink:title="prolog.builtins.Builtins.to\lFunBuiltin">
<polygon fill="none" stroke="black" points="165.5,-108 165.5,-138 288.5,-138 288.5,-108 165.5,-108"/>
<text text-anchor="start" x="173.5" y="-126" font-family="Helvetica,sans-Serif" font-size="10.00">prolog.builtins.Builtins.to</text>
<text text-anchor="middle" x="227" y="-115" font-family="Helvetica,sans-Serif" font-size="10.00">FunBuiltin</text>
</a>
</g>
</g>
<!-- Node1&#45;&gt;Node28 -->
<g id="edge35" class="edge"><title>Node1&#45;&gt;Node28</title>
<path fill="none" stroke="midnightblue" d="M87.7562,-176.432C111.441,-167.278 147.817,-153.218 177.312,-141.818"/>
<polygon fill="midnightblue" stroke="midnightblue" points="178.956,-144.935 187.022,-138.065 176.433,-138.406 178.956,-144.935"/>
</g>
<!-- Node35 -->
<g id="node35" class="node"><title>Node35</title>
<g id="a_node35"><a xlink:href="../../d3/ded/classprolog_1_1terms_1_1Term_a547678b085da51ff112703a99b44db45.html#a547678b085da51ff112703a99b44db45" target="_top" xlink:title="prolog.terms.Term.token">
<polygon fill="none" stroke="black" points="165.5,-69.5 165.5,-88.5 288.5,-88.5 288.5,-69.5 165.5,-69.5"/>
<text text-anchor="middle" x="227" y="-76.5" font-family="Helvetica,sans-Serif" font-size="10.00">prolog.terms.Term.token</text>
</a>
</g>
</g>
<!-- Node1&#45;&gt;Node35 -->
<g id="edge43" class="edge"><title>Node1&#45;&gt;Node35</title>
<path fill="none" stroke="midnightblue" d="M71.0065,-176.236C86.3715,-158.128 121.868,-119.257 160,-98 163.974,-95.7848 168.229,-93.8078 172.594,-92.0473"/>
<polygon fill="midnightblue" stroke="midnightblue" points="174.058,-95.2394 182.258,-88.5304 171.664,-88.6614 174.058,-95.2394"/>
</g>
<!-- Node3 -->
<g id="node3" class="node"><title>Node3</title>
<g id="a_node3"><a xlink:href="../../d7/df1/classprolog_1_1io_1_1Parser_ae301f1d607ff1269917a097eda95199a.html#ae301f1d607ff1269917a097eda95199a" target="_top" xlink:title="prolog.io.Parser.getTerm">
<polygon fill="none" stroke="black" points="521.5,-328.5 521.5,-347.5 645.5,-347.5 645.5,-328.5 521.5,-328.5"/>
<text text-anchor="middle" x="583.5" y="-335.5" font-family="Helvetica,sans-Serif" font-size="10.00">prolog.io.Parser.getTerm</text>
</a>
</g>
</g>
<!-- Node2&#45;&gt;Node3 -->
<g id="edge2" class="edge"><title>Node2&#45;&gt;Node3</title>
<path fill="none" stroke="midnightblue" d="M450.165,-366.411C473.837,-361.329 503.108,-355.045 528.097,-349.68"/>
<polygon fill="midnightblue" stroke="midnightblue" points="529.114,-353.041 538.157,-347.52 527.645,-346.197 529.114,-353.041"/>
</g>
<!-- Node4 -->
<g id="node4" class="node"><title>Node4</title>
<g id="a_node4"><a xlink:href="../../d9/d79/classprolog_1_1io_1_1Lexer_af90567b8e92b07af09c8f60a587d8404.html#af90567b8e92b07af09c8f60a587d8404" target="_top" xlink:title="prolog.io.Lexer.next">
<polygon fill="none" stroke="black" points="712,-299.5 712,-318.5 814,-318.5 814,-299.5 712,-299.5"/>
<text text-anchor="middle" x="763" y="-306.5" font-family="Helvetica,sans-Serif" font-size="10.00">prolog.io.Lexer.next</text>
</a>
</g>
</g>
<!-- Node2&#45;&gt;Node4 -->
<g id="edge19" class="edge"><title>Node2&#45;&gt;Node4</title>
<path fill="none" stroke="midnightblue" d="M465.66,-376.926C516.128,-376.388 589.735,-372.514 652,-357 682.116,-349.496 714.428,-334.474 736.183,-323.223"/>
<polygon fill="midnightblue" stroke="midnightblue" points="737.897,-326.276 745.107,-318.512 734.629,-320.085 737.897,-326.276"/>
</g>
<!-- Node3&#45;&gt;Node4 -->
<g id="edge3" class="edge"><title>Node3&#45;&gt;Node4</title>
<path fill="none" stroke="midnightblue" d="M643.112,-328.424C661.943,-325.347 682.829,-321.935 701.774,-318.84"/>
<polygon fill="midnightblue" stroke="midnightblue" points="702.472,-322.272 711.777,-317.205 701.344,-315.364 702.472,-322.272"/>
</g>
<!-- Node5 -->
<g id="node5" class="node"><title>Node5</title>
<g id="a_node5"><a xlink:href="../../d9/d79/classprolog_1_1io_1_1Lexer_a4cfb6744572df2bf663b200438b38f6f.html#a4cfb6744572df2bf663b200438b38f6f" target="_top" xlink:title="prolog.io.Lexer.char2string">
<polygon fill="none" stroke="black" points="874,-280.5 874,-299.5 1005,-299.5 1005,-280.5 874,-280.5"/>
<text text-anchor="middle" x="939.5" y="-287.5" font-family="Helvetica,sans-Serif" font-size="10.00">prolog.io.Lexer.char2string</text>
</a>
</g>
</g>
<!-- Node4&#45;&gt;Node5 -->
<g id="edge4" class="edge"><title>Node4&#45;&gt;Node5</title>
<path fill="none" stroke="midnightblue" d="M814.005,-303.555C829.434,-301.875 846.776,-299.987 863.506,-298.166"/>
<polygon fill="midnightblue" stroke="midnightblue" points="864.258,-301.604 873.82,-297.043 863.5,-294.646 864.258,-301.604"/>
</g>
<!-- Node6 -->
<g id="node6" class="node"><title>Node6</title>
<g id="a_node6"><a xlink:href="../../d9/d79/classprolog_1_1io_1_1Lexer_a9fbdd67572706c48a026047f818f2e7a.html#a9fbdd67572706c48a026047f818f2e7a" target="_top" xlink:title="prolog.io.Lexer.getWord">
<polygon fill="none" stroke="black" points="879.5,-356.5 879.5,-375.5 999.5,-375.5 999.5,-356.5 879.5,-356.5"/>
<text text-anchor="middle" x="939.5" y="-363.5" font-family="Helvetica,sans-Serif" font-size="10.00">prolog.io.Lexer.getWord</text>
</a>
</g>
</g>
<!-- Node4&#45;&gt;Node6 -->
<g id="edge5" class="edge"><title>Node4&#45;&gt;Node6</title>
<path fill="none" stroke="midnightblue" d="M793.207,-318.541C822.399,-328.076 867.456,-342.794 899.651,-353.31"/>
<polygon fill="midnightblue" stroke="midnightblue" points="898.605,-356.65 909.197,-356.428 900.778,-349.996 898.605,-356.65"/>
</g>
<!-- Node7 -->
<g id="node7" class="node"><title>Node7</title>
<g id="a_node7"><a xlink:href="../../d9/d79/classprolog_1_1io_1_1Lexer_ae4ec88cd8a3650b3d9af2b4f5e7a9bbc.html#ae4ec88cd8a3650b3d9af2b4f5e7a9bbc" target="_top" xlink:title="prolog.io.Lexer.make\l_const">
<polygon fill="none" stroke="black" points="1054.5,-310 1054.5,-340 1161.5,-340 1161.5,-310 1054.5,-310"/>
<text text-anchor="start" x="1062.5" y="-328" font-family="Helvetica,sans-Serif" font-size="10.00">prolog.io.Lexer.make</text>
<text text-anchor="middle" x="1108" y="-317" font-family="Helvetica,sans-Serif" font-size="10.00">_const</text>
</a>
</g>
</g>
<!-- Node4&#45;&gt;Node7 -->
<g id="edge15" class="edge"><title>Node4&#45;&gt;Node7</title>
<path fill="none" stroke="midnightblue" d="M814.242,-311.344C875.179,-314.186 977.932,-318.979 1044.08,-322.065"/>
<polygon fill="midnightblue" stroke="midnightblue" points="1044.22,-325.575 1054.37,-322.545 1044.54,-318.583 1044.22,-325.575"/>
</g>
<!-- Node15 -->
<g id="node15" class="node"><title>Node15</title>
<g id="a_node15"><a xlink:href="../../d9/d79/classprolog_1_1io_1_1Lexer_a0575f9ce24d7bdce0ed6f08903d57061.html#a0575f9ce24d7bdce0ed6f08903d57061" target="_top" xlink:title="prolog.io.Lexer.make\l_number">
<polygon fill="none" stroke="black" points="886,-231 886,-261 993,-261 993,-231 886,-231"/>
<text text-anchor="start" x="894" y="-249" font-family="Helvetica,sans-Serif" font-size="10.00">prolog.io.Lexer.make</text>
<text text-anchor="middle" x="939.5" y="-238" font-family="Helvetica,sans-Serif" font-size="10.00">_number</text>
</a>
</g>
</g>
<!-- Node4&#45;&gt;Node15 -->
<g id="edge16" class="edge"><title>Node4&#45;&gt;Node15</title>
<path fill="none" stroke="midnightblue" d="M790.503,-299.432C816.079,-290.198 855.48,-275.973 887.199,-264.521"/>
<polygon fill="midnightblue" stroke="midnightblue" points="888.555,-267.753 896.772,-261.065 886.178,-261.169 888.555,-267.753"/>
</g>
<!-- Node6&#45;&gt;Node7 -->
<g id="edge6" class="edge"><title>Node6&#45;&gt;Node7</title>
<path fill="none" stroke="midnightblue" d="M979.117,-356.491C998.528,-351.711 1022.53,-345.799 1044.49,-340.394"/>
<polygon fill="midnightblue" stroke="midnightblue" points="1045.53,-343.741 1054.4,-337.952 1043.86,-336.944 1045.53,-343.741"/>
</g>
<!-- Node8 -->
<g id="node8" class="node"><title>Node8</title>
<g id="a_node8"><a xlink:href="../../d9/d79/classprolog_1_1io_1_1Lexer_a6c9bf5b9540046d85bedfd6b9cf12d39.html#a6c9bf5b9540046d85bedfd6b9cf12d39" target="_top" xlink:title="prolog.io.Lexer.make_fun">
<polygon fill="none" stroke="black" points="1045,-397.5 1045,-416.5 1171,-416.5 1171,-397.5 1045,-397.5"/>
<text text-anchor="middle" x="1108" y="-404.5" font-family="Helvetica,sans-Serif" font-size="10.00">prolog.io.Lexer.make_fun</text>
</a>
</g>
</g>
<!-- Node6&#45;&gt;Node8 -->
<g id="edge7" class="edge"><title>Node6&#45;&gt;Node8</title>
<path fill="none" stroke="midnightblue" d="M979.117,-375.509C1002.78,-381.336 1033.27,-388.844 1058.54,-395.068"/>
<polygon fill="midnightblue" stroke="midnightblue" points="1057.76,-398.479 1068.3,-397.471 1059.43,-391.682 1057.76,-398.479"/>
</g>
<!-- Node9 -->
<g id="node9" class="node"><title>Node9</title>
<g id="a_node9"><a xlink:href="../../d9/d79/classprolog_1_1io_1_1Lexer_acdaa35637088cc7ae8decb0f6e0f8caa.html#acdaa35637088cc7ae8decb0f6e0f8caa" target="_top" xlink:title="prolog.io.Lexer.make_var">
<polygon fill="none" stroke="black" points="1045,-359.5 1045,-378.5 1171,-378.5 1171,-359.5 1045,-359.5"/>
<text text-anchor="middle" x="1108" y="-366.5" font-family="Helvetica,sans-Serif" font-size="10.00">prolog.io.Lexer.make_var</text>
</a>
</g>
</g>
<!-- Node6&#45;&gt;Node9 -->
<g id="edge8" class="edge"><title>Node6&#45;&gt;Node9</title>
<path fill="none" stroke="midnightblue" d="M999.67,-367.066C1011.02,-367.271 1023.02,-367.487 1034.73,-367.698"/>
<polygon fill="midnightblue" stroke="midnightblue" points="1034.86,-371.201 1044.92,-367.881 1034.99,-364.202 1034.86,-371.201"/>
</g>
<!-- Node10 -->
<g id="node10" class="node"><title>Node10</title>
<g id="a_node10"><a xlink:href="../../d1/d12/classprolog_1_1terms_1_1Var_acfca7d3a30509a6a0761be57e408cfad.html#acfca7d3a30509a6a0761be57e408cfad" target="_top" xlink:title="prolog.terms.Var.toString">
<polygon fill="none" stroke="black" points="1211,-359.5 1211,-378.5 1336,-378.5 1336,-359.5 1211,-359.5"/>
<text text-anchor="middle" x="1273.5" y="-366.5" font-family="Helvetica,sans-Serif" font-size="10.00">prolog.terms.Var.toString</text>
</a>
</g>
</g>
<!-- Node9&#45;&gt;Node10 -->
<g id="edge9" class="edge"><title>Node9&#45;&gt;Node10</title>
<path fill="none" stroke="midnightblue" d="M1171.28,-369C1180.92,-369 1190.95,-369 1200.78,-369"/>
<polygon fill="midnightblue" stroke="midnightblue" points="1200.94,-372.5 1210.94,-369 1200.94,-365.5 1200.94,-372.5"/>
</g>
<!-- Node11 -->
<g id="node11" class="node"><title>Node11</title>
<g id="a_node11"><a xlink:href="../../d1/d12/classprolog_1_1terms_1_1Var_a2194ec6eec940cc349b828f6fefcf242.html#a2194ec6eec940cc349b828f6fefcf242" target="_top" xlink:title="prolog.terms.Var.unbound">
<polygon fill="none" stroke="black" points="1524,-378.5 1524,-397.5 1652,-397.5 1652,-378.5 1524,-378.5"/>
<text text-anchor="middle" x="1588" y="-385.5" font-family="Helvetica,sans-Serif" font-size="10.00">prolog.terms.Var.unbound</text>
</a>
</g>
</g>
<!-- Node10&#45;&gt;Node11 -->
<g id="edge10" class="edge"><title>Node10&#45;&gt;Node11</title>
<path fill="none" stroke="midnightblue" d="M1314.09,-378.51C1331.71,-382.275 1352.77,-386.144 1372,-388 1419.02,-392.539 1472.1,-392.59 1513.75,-391.481"/>
<polygon fill="midnightblue" stroke="midnightblue" points="1513.92,-394.978 1523.81,-391.185 1513.72,-387.981 1513.92,-394.978"/>
</g>
<!-- Node12 -->
<g id="node12" class="node"><title>Node12</title>
<g id="a_node12"><a xlink:href="../../d1/d12/classprolog_1_1terms_1_1Var_ac525ffcba1be06da9b81dcdb2605eaf6.html#ac525ffcba1be06da9b81dcdb2605eaf6" target="_top" xlink:title="prolog.terms.Var.name">
<polygon fill="none" stroke="black" points="1372,-359.5 1372,-378.5 1488,-378.5 1488,-359.5 1372,-359.5"/>
<text text-anchor="middle" x="1430" y="-366.5" font-family="Helvetica,sans-Serif" font-size="10.00">prolog.terms.Var.name</text>
</a>
</g>
</g>
<!-- Node10&#45;&gt;Node12 -->
<g id="edge11" class="edge"><title>Node10&#45;&gt;Node12</title>
<path fill="none" stroke="midnightblue" d="M1336.01,-369C1344.38,-369 1353.02,-369 1361.49,-369"/>
<polygon fill="midnightblue" stroke="midnightblue" points="1361.72,-372.5 1371.72,-369 1361.72,-365.5 1361.72,-372.5"/>
</g>
<!-- Node13 -->
<g id="node13" class="node"><title>Node13</title>
<g id="a_node13"><a xlink:href="../../d1/d12/classprolog_1_1terms_1_1Var_a87e5778e2b3535a88d8750f0776fb900.html#a87e5778e2b3535a88d8750f0776fb900" target="_top" xlink:title="prolog.terms.Var.ref">
<polygon fill="none" stroke="black" points="1378.5,-321.5 1378.5,-340.5 1481.5,-340.5 1481.5,-321.5 1378.5,-321.5"/>
<text text-anchor="middle" x="1430" y="-328.5" font-family="Helvetica,sans-Serif" font-size="10.00">prolog.terms.Var.ref</text>
</a>
</g>
</g>
<!-- Node10&#45;&gt;Node13 -->
<g id="edge12" class="edge"><title>Node10&#45;&gt;Node13</title>
<path fill="none" stroke="midnightblue" d="M1313.49,-359.411C1333.78,-354.419 1358.79,-348.268 1380.35,-342.967"/>
<polygon fill="midnightblue" stroke="midnightblue" points="1381.42,-346.307 1390.29,-340.52 1379.75,-339.51 1381.42,-346.307"/>
</g>
<!-- Node13&#45;&gt;Node11 -->
<g id="edge13" class="edge"><title>Node13&#45;&gt;Node11</title>
<path fill="none" stroke="midnightblue" d="M1460.38,-340.513C1469.28,-343.471 1479.06,-346.798 1488,-350 1509.99,-357.881 1534.5,-367.284 1553.63,-374.765"/>
<polygon fill="midnightblue" stroke="midnightblue" points="1552.52,-378.088 1563.11,-378.484 1555.08,-371.572 1552.52,-378.088"/>
</g>
<!-- Node14 -->
<g id="node14" class="node"><title>Node14</title>
<g id="a_node14"><a xlink:href="../../d3/ded/classprolog_1_1terms_1_1Term_ae140fac2c9d066dc897fcfa723060a7a.html#ae140fac2c9d066dc897fcfa723060a7a" target="_top" xlink:title="Dereferences if necessary. ">
<polygon fill="none" stroke="black" points="1533,-321.5 1533,-340.5 1643,-340.5 1643,-321.5 1533,-321.5"/>
<text text-anchor="middle" x="1588" y="-328.5" font-family="Helvetica,sans-Serif" font-size="10.00">prolog.terms.Term.ref</text>
</a>
</g>
</g>
<!-- Node13&#45;&gt;Node14 -->
<g id="edge14" class="edge"><title>Node13&#45;&gt;Node14</title>
<path fill="none" stroke="midnightblue" d="M1481.65,-331C1494.69,-331 1508.91,-331 1522.55,-331"/>
<polygon fill="midnightblue" stroke="midnightblue" points="1522.84,-334.5 1532.84,-331 1522.84,-327.5 1522.84,-334.5"/>
</g>
<!-- Node16 -->
<g id="node16" class="node"><title>Node16</title>
<g id="a_node16"><a xlink:href="../../d9/d79/classprolog_1_1io_1_1Lexer_aa7b44ceb64d095b1342b77ff73e28e58.html#aa7b44ceb64d095b1342b77ff73e28e58" target="_top" xlink:title="prolog.io.Lexer.make_int">
<polygon fill="none" stroke="black" points="1046.5,-255.5 1046.5,-274.5 1169.5,-274.5 1169.5,-255.5 1046.5,-255.5"/>
<text text-anchor="middle" x="1108" y="-262.5" font-family="Helvetica,sans-Serif" font-size="10.00">prolog.io.Lexer.make_int</text>
</a>
</g>
</g>
<!-- Node15&#45;&gt;Node16 -->
<g id="edge17" class="edge"><title>Node15&#45;&gt;Node16</title>
<path fill="none" stroke="midnightblue" d="M993.182,-252.012C1006.75,-253.56 1021.58,-255.252 1035.92,-256.888"/>
<polygon fill="midnightblue" stroke="midnightblue" points="1035.91,-260.41 1046.24,-258.067 1036.7,-253.455 1035.91,-260.41"/>
</g>
<!-- Node17 -->
<g id="node17" class="node"><title>Node17</title>
<g id="a_node17"><a xlink:href="../../d9/d79/classprolog_1_1io_1_1Lexer_aa712569cb1f11c42f18982b57dd13832.html#aa712569cb1f11c42f18982b57dd13832" target="_top" xlink:title="prolog.io.Lexer.make_real">
<polygon fill="none" stroke="black" points="1044,-217.5 1044,-236.5 1172,-236.5 1172,-217.5 1044,-217.5"/>
<text text-anchor="middle" x="1108" y="-224.5" font-family="Helvetica,sans-Serif" font-size="10.00">prolog.io.Lexer.make_real</text>
</a>
</g>
</g>
<!-- Node15&#45;&gt;Node17 -->
<g id="edge18" class="edge"><title>Node15&#45;&gt;Node17</title>
<path fill="none" stroke="midnightblue" d="M993.182,-239.988C1006.01,-238.524 1019.97,-236.932 1033.57,-235.38"/>
<polygon fill="midnightblue" stroke="midnightblue" points="1034.34,-238.815 1043.88,-234.203 1033.54,-231.86 1034.34,-238.815"/>
</g>
<!-- Node18&#45;&gt;Node3 -->
<g id="edge24" class="edge"><title>Node18&#45;&gt;Node3</title>
<path fill="none" stroke="midnightblue" d="M248.577,-290.631C268.817,-299.629 300.835,-312.605 330,-319 390.159,-332.192 460.094,-336.635 511.089,-337.955"/>
<polygon fill="midnightblue" stroke="midnightblue" points="511.273,-341.46 521.349,-338.185 511.43,-334.461 511.273,-341.46"/>
</g>
<!-- Node18&#45;&gt;Node4 -->
<g id="edge25" class="edge"><title>Node18&#45;&gt;Node4</title>
<path fill="none" stroke="midnightblue" d="M285.861,-279.395C336.76,-278.365 412.843,-277.757 479,-281 556.167,-284.782 575.118,-290.378 652,-298 668.059,-299.592 685.435,-301.325 701.531,-302.934"/>
<polygon fill="midnightblue" stroke="midnightblue" points="701.598,-306.458 711.897,-303.971 702.295,-299.493 701.598,-306.458"/>
</g>
<!-- Node19 -->
<g id="node19" class="node"><title>Node19</title>
<g id="a_node19"><a xlink:href="../../d7/df1/classprolog_1_1io_1_1Parser_aa2150bc0ca63050e058a5041b719dd7b.html#aa2150bc0ca63050e058a5041b719dd7b" target="_top" xlink:title="prolog.io.Parser.getListCont">
<polygon fill="none" stroke="black" points="335.5,-290.5 335.5,-309.5 473.5,-309.5 473.5,-290.5 335.5,-290.5"/>
<text text-anchor="middle" x="404.5" y="-297.5" font-family="Helvetica,sans-Serif" font-size="10.00">prolog.io.Parser.getListCont</text>
</a>
</g>
</g>
<!-- Node18&#45;&gt;Node19 -->
<g id="edge21" class="edge"><title>Node18&#45;&gt;Node19</title>
<path fill="none" stroke="midnightblue" d="M285.952,-287.274C298.522,-288.635 312.019,-290.096 325.226,-291.526"/>
<polygon fill="midnightblue" stroke="midnightblue" points="324.93,-295.014 335.249,-292.611 325.684,-288.055 324.93,-295.014"/>
</g>
<!-- Node19&#45;&gt;Node3 -->
<g id="edge22" class="edge"><title>Node19&#45;&gt;Node3</title>
<path fill="none" stroke="midnightblue" d="M450.165,-309.589C473.837,-314.671 503.108,-320.955 528.097,-326.32"/>
<polygon fill="midnightblue" stroke="midnightblue" points="527.645,-329.803 538.157,-328.48 529.114,-322.959 527.645,-329.803"/>
</g>
<!-- Node19&#45;&gt;Node4 -->
<g id="edge23" class="edge"><title>Node19&#45;&gt;Node4</title>
<path fill="none" stroke="midnightblue" d="M473.815,-301.725C539.697,-303.388 638.451,-305.881 701.549,-307.474"/>
<polygon fill="midnightblue" stroke="midnightblue" points="701.658,-310.978 711.743,-307.731 701.835,-303.98 701.658,-310.978"/>
</g>
<!-- Node21 -->
<g id="node21" class="node"><title>Node21</title>
<g id="a_node21"><a xlink:href="../../d3/ded/classprolog_1_1terms_1_1Term_a3dae9908b121dbd8d0f95f058c1a4e63.html#a3dae9908b121dbd8d0f95f058c1a4e63" target="_top" xlink:title="prolog.terms.Term.string\lToChars">
<polygon fill="none" stroke="black" points="343,-203 343,-233 466,-233 466,-203 343,-203"/>
<text text-anchor="start" x="351" y="-221" font-family="Helvetica,sans-Serif" font-size="10.00">prolog.terms.Term.string</text>
<text text-anchor="middle" x="404.5" y="-210" font-family="Helvetica,sans-Serif" font-size="10.00">ToChars</text>
</a>
</g>
</g>
<!-- Node20&#45;&gt;Node21 -->
<g id="edge27" class="edge"><title>Node20&#45;&gt;Node21</title>
<path fill="none" stroke="midnightblue" d="M280.181,-195.514C296.651,-198.518 315.134,-201.888 332.678,-205.087"/>
<polygon fill="midnightblue" stroke="midnightblue" points="332.412,-208.596 342.877,-206.946 333.667,-201.709 332.412,-208.596"/>
</g>
<!-- Node22 -->
<g id="node22" class="node"><title>Node22</title>
<g id="a_node22"><a xlink:href="../../d3/ded/classprolog_1_1terms_1_1Term_ad0dfa6b55c89214714125c00533f19db.html#ad0dfa6b55c89214714125c00533f19db" target="_top" xlink:title="prolog.terms.Term.toUnquoted">
<polygon fill="none" stroke="black" points="330,-164.5 330,-183.5 479,-183.5 479,-164.5 330,-164.5"/>
<text text-anchor="middle" x="404.5" y="-171.5" font-family="Helvetica,sans-Serif" font-size="10.00">prolog.terms.Term.toUnquoted</text>
</a>
</g>
</g>
<!-- Node20&#45;&gt;Node22 -->
<g id="edge28" class="edge"><title>Node20&#45;&gt;Node22</title>
<path fill="none" stroke="midnightblue" d="M294.349,-181.463C302.561,-180.902 311.039,-180.322 319.472,-179.746"/>
<polygon fill="midnightblue" stroke="midnightblue" points="319.976,-183.219 329.714,-179.045 319.498,-176.236 319.976,-183.219"/>
</g>
<!-- Node23 -->
<g id="node23" class="node"><title>Node23</title>
<g id="a_node23"><a xlink:href="../../d3/ded/classprolog_1_1terms_1_1Term_af1569a19ab5774ae5658b74cbacdbc11.html#af1569a19ab5774ae5658b74cbacdbc11" target="_top" xlink:title="Prints out a term to a String with variables named in order V1, V2,.... ">
<polygon fill="none" stroke="black" points="522,-164.5 522,-183.5 645,-183.5 645,-164.5 522,-164.5"/>
<text text-anchor="middle" x="583.5" y="-171.5" font-family="Helvetica,sans-Serif" font-size="10.00">prolog.terms.Term.pprint</text>
</a>
</g>
</g>
<!-- Node22&#45;&gt;Node23 -->
<g id="edge29" class="edge"><title>Node22&#45;&gt;Node23</title>
<path fill="none" stroke="midnightblue" d="M479.026,-174C489.823,-174 500.926,-174 511.667,-174"/>
<polygon fill="midnightblue" stroke="midnightblue" points="511.832,-177.5 521.832,-174 511.832,-170.5 511.832,-177.5"/>
</g>
<!-- Node24 -->
<g id="node24" class="node"><title>Node24</title>
<g id="a_node24"><a xlink:href="../../d3/ded/classprolog_1_1terms_1_1Term_a50d0b69d48782ff4bcf433c70c1472a0.html#a50d0b69d48782ff4bcf433c70c1472a0" target="_top" xlink:title="Replaces variables with uppercase constants named `V1&#39;, &#39;V2&#39;, etc. ">
<polygon fill="none" stroke="black" points="688,-164.5 688,-183.5 838,-183.5 838,-164.5 688,-164.5"/>
<text text-anchor="middle" x="763" y="-171.5" font-family="Helvetica,sans-Serif" font-size="10.00">prolog.terms.Term.numbervars</text>
</a>
</g>
</g>
<!-- Node23&#45;&gt;Node24 -->
<g id="edge30" class="edge"><title>Node23&#45;&gt;Node24</title>
<path fill="none" stroke="midnightblue" d="M645.089,-174C655.623,-174 666.748,-174 677.779,-174"/>
<polygon fill="midnightblue" stroke="midnightblue" points="677.864,-177.5 687.864,-174 677.864,-170.5 677.864,-177.5"/>
</g>
<!-- Node25 -->
<g id="node25" class="node"><title>Node25</title>
<g id="a_node25"><a xlink:href="../../d3/ded/classprolog_1_1terms_1_1Term_a01e5a83e648ee3f89415c0142c4220d4.html#a01e5a83e648ee3f89415c0142c4220d4" target="_top" xlink:title="Returns a copy of a term with variables standardized apart (`fresh variables&#39;). ">
<polygon fill="none" stroke="black" points="879.5,-192.5 879.5,-211.5 999.5,-211.5 999.5,-192.5 879.5,-192.5"/>
<text text-anchor="middle" x="939.5" y="-199.5" font-family="Helvetica,sans-Serif" font-size="10.00">prolog.terms.Term.copy</text>
</a>
</g>
</g>
<!-- Node24&#45;&gt;Node25 -->
<g id="edge31" class="edge"><title>Node24&#45;&gt;Node25</title>
<path fill="none" stroke="midnightblue" d="M823.565,-183.558C838.386,-185.936 854.397,-188.505 869.625,-190.948"/>
<polygon fill="midnightblue" stroke="midnightblue" points="869.071,-194.404 879.499,-192.533 870.18,-187.493 869.071,-194.404"/>
</g>
<!-- Node26 -->
<g id="node26" class="node"><title>Node26</title>
<g id="a_node26"><a xlink:href="../../d3/ded/classprolog_1_1terms_1_1Term_a0a660e6cd55f12e49d328e1b84b478a4.html#a0a660e6cd55f12e49d328e1b84b478a4" target="_top" xlink:title="Defines the reaction to an agent recursing over the structure of a term. ">
<polygon fill="none" stroke="black" points="1041,-168.5 1041,-187.5 1175,-187.5 1175,-168.5 1041,-168.5"/>
<text text-anchor="middle" x="1108" y="-175.5" font-family="Helvetica,sans-Serif" font-size="10.00">prolog.terms.Term.reaction</text>
</a>
</g>
</g>
<!-- Node24&#45;&gt;Node26 -->
<g id="edge34" class="edge"><title>Node24&#45;&gt;Node26</title>
<path fill="none" stroke="midnightblue" d="M838.004,-174.863C894.946,-175.527 973.362,-176.442 1030.84,-177.112"/>
<polygon fill="midnightblue" stroke="midnightblue" points="1030.92,-180.613 1040.96,-177.23 1031,-173.613 1030.92,-180.613"/>
</g>
<!-- Node25&#45;&gt;Node26 -->
<g id="edge32" class="edge"><title>Node25&#45;&gt;Node26</title>
<path fill="none" stroke="midnightblue" d="M999.67,-193.471C1009.8,-192.011 1020.45,-190.476 1030.94,-188.963"/>
<polygon fill="midnightblue" stroke="midnightblue" points="1031.54,-192.413 1040.94,-187.522 1030.54,-185.485 1031.54,-192.413"/>
</g>
<!-- Node27 -->
<g id="node27" class="node"><title>Node27</title>
<g id="a_node27"><a xlink:href="../../d3/ded/classprolog_1_1terms_1_1Term_aa52e271c0f6784dbde9aa4f5f3ab0268.html#aa52e271c0f6784dbde9aa4f5f3ab0268" target="_top" xlink:title="Identity action. ">
<polygon fill="none" stroke="black" points="1211,-168.5 1211,-187.5 1336,-187.5 1336,-168.5 1211,-168.5"/>
<text text-anchor="middle" x="1273.5" y="-175.5" font-family="Helvetica,sans-Serif" font-size="10.00">prolog.terms.Term.action</text>
</a>
</g>
</g>
<!-- Node26&#45;&gt;Node27 -->
<g id="edge33" class="edge"><title>Node26&#45;&gt;Node27</title>
<path fill="none" stroke="midnightblue" d="M1175.03,-178C1183.57,-178 1192.34,-178 1200.96,-178"/>
<polygon fill="midnightblue" stroke="midnightblue" points="1200.98,-181.5 1210.98,-178 1200.98,-174.5 1200.98,-181.5"/>
</g>
<!-- Node29 -->
<g id="node29" class="node"><title>Node29</title>
<g id="a_node29"><a xlink:href="../../de/d8d/classprolog_1_1terms_1_1Fun_a73b5a4f366ac3ac161f7b148f44b8cfa.html#a73b5a4f366ac3ac161f7b148f44b8cfa" target="_top" xlink:title="prolog.terms.Fun.funClone">
<polygon fill="none" stroke="black" points="338.5,-38.5 338.5,-57.5 470.5,-57.5 470.5,-38.5 338.5,-38.5"/>
<text text-anchor="middle" x="404.5" y="-45.5" font-family="Helvetica,sans-Serif" font-size="10.00">prolog.terms.Fun.funClone</text>
</a>
</g>
</g>
<!-- Node28&#45;&gt;Node29 -->
<g id="edge36" class="edge"><title>Node28&#45;&gt;Node29</title>
<path fill="none" stroke="midnightblue" d="M274.06,-107.936C280.931,-105.015 287.787,-101.695 294,-98 312.148,-87.2077 311.29,-76.7866 330,-67 334.484,-64.6548 339.275,-62.5857 344.182,-60.7626"/>
<polygon fill="midnightblue" stroke="midnightblue" points="345.35,-64.0624 353.709,-57.552 343.114,-57.429 345.35,-64.0624"/>
</g>
<!-- Node31 -->
<g id="node31" class="node"><title>Node31</title>
<g id="a_node31"><a xlink:href="../../de/d8d/classprolog_1_1terms_1_1Fun_a17d595f2ab8b5c173c519ad5341015c5.html#a17d595f2ab8b5c173c519ad5341015c5" target="_top" xlink:title="prolog.terms.Fun.getArity">
<polygon fill="none" stroke="black" points="341,-0.5 341,-19.5 468,-19.5 468,-0.5 341,-0.5"/>
<text text-anchor="middle" x="404.5" y="-7.5" font-family="Helvetica,sans-Serif" font-size="10.00">prolog.terms.Fun.getArity</text>
</a>
</g>
</g>
<!-- Node28&#45;&gt;Node31 -->
<g id="edge38" class="edge"><title>Node28&#45;&gt;Node31</title>
<path fill="none" stroke="midnightblue" d="M279.532,-107.863C284.743,-105.085 289.693,-101.823 294,-98 319.867,-75.0365 302.919,-50.5186 330,-29 332.273,-27.1936 334.7,-25.5574 337.236,-24.0754"/>
<polygon fill="midnightblue" stroke="midnightblue" points="338.824,-27.1945 346.22,-19.6082 335.708,-20.9266 338.824,-27.1945"/>
</g>
<!-- Node32 -->
<g id="node32" class="node"><title>Node32</title>
<g id="a_node32"><a xlink:href="../../d0/d3f/classprolog_1_1terms_1_1Const_a947005f966303baeb029a22d9201ea1b.html#a947005f966303baeb029a22d9201ea1b" target="_top" xlink:title="prolog.terms.Const.name">
<polygon fill="none" stroke="black" points="520,-123.5 520,-142.5 647,-142.5 647,-123.5 520,-123.5"/>
<text text-anchor="middle" x="583.5" y="-130.5" font-family="Helvetica,sans-Serif" font-size="10.00">prolog.terms.Const.name</text>
</a>
</g>
</g>
<!-- Node28&#45;&gt;Node32 -->
<g id="edge39" class="edge"><title>Node28&#45;&gt;Node32</title>
<path fill="none" stroke="midnightblue" d="M288.538,-124.708C349.732,-126.434 444.335,-129.103 509.611,-130.944"/>
<polygon fill="midnightblue" stroke="midnightblue" points="509.731,-134.449 519.826,-131.232 509.928,-127.451 509.731,-134.449"/>
</g>
<!-- Node33 -->
<g id="node33" class="node"><title>Node33</title>
<g id="a_node33"><a xlink:href="../../d7/d2b/classprolog_1_1builtins_1_1Builtins_ab27f40fd74a009d6522fa21da5387cf3.html#ab27f40fd74a009d6522fa21da5387cf3" target="_top" xlink:title="Creates a new builtin. ">
<polygon fill="none" stroke="black" points="338,-77 338,-107 471,-107 471,-77 338,-77"/>
<text text-anchor="start" x="346" y="-95" font-family="Helvetica,sans-Serif" font-size="10.00">prolog.builtins.Builtins.new</text>
<text text-anchor="middle" x="404.5" y="-84" font-family="Helvetica,sans-Serif" font-size="10.00">Builtin</text>
</a>
</g>
</g>
<!-- Node28&#45;&gt;Node33 -->
<g id="edge40" class="edge"><title>Node28&#45;&gt;Node33</title>
<path fill="none" stroke="midnightblue" d="M288.889,-112.245C301.511,-110.015 314.955,-107.64 328.027,-105.331"/>
<polygon fill="midnightblue" stroke="midnightblue" points="328.693,-108.768 337.932,-103.582 327.476,-101.875 328.693,-108.768"/>
</g>
<!-- Node30 -->
<g id="node30" class="node"><title>Node30</title>
<g id="a_node30"><a xlink:href="../../de/d8d/classprolog_1_1terms_1_1Fun_a3d81ecf8879a3612ac7881f753627020.html#a3d81ecf8879a3612ac7881f753627020" target="_top" xlink:title="prolog.terms.Fun.Fun">
<polygon fill="none" stroke="black" points="528.5,-38.5 528.5,-57.5 638.5,-57.5 638.5,-38.5 528.5,-38.5"/>
<text text-anchor="middle" x="583.5" y="-45.5" font-family="Helvetica,sans-Serif" font-size="10.00">prolog.terms.Fun.Fun</text>
</a>
</g>
</g>
<!-- Node29&#45;&gt;Node30 -->
<g id="edge37" class="edge"><title>Node29&#45;&gt;Node30</title>
<path fill="none" stroke="midnightblue" d="M470.654,-48C486.031,-48 502.421,-48 517.779,-48"/>
<polygon fill="midnightblue" stroke="midnightblue" points="518.221,-51.5001 528.221,-48 518.221,-44.5001 518.221,-51.5001"/>
</g>
<!-- Node33&#45;&gt;Node32 -->
<g id="edge42" class="edge"><title>Node33&#45;&gt;Node32</title>
<path fill="none" stroke="midnightblue" d="M470.403,-107.034C490.475,-111.683 512.294,-116.738 531.303,-121.141"/>
<polygon fill="midnightblue" stroke="midnightblue" points="530.721,-124.599 541.253,-123.446 532.3,-117.779 530.721,-124.599"/>
</g>
<!-- Node34 -->
<g id="node34" class="node"><title>Node34</title>
<g id="a_node34"><a xlink:href="../../d0/d3f/classprolog_1_1terms_1_1Const_a425467f0c179f71ef11b4beac97ec0b6.html#a425467f0c179f71ef11b4beac97ec0b6" target="_top" xlink:title="returns an arity normally defined as 0 ">
<polygon fill="none" stroke="black" points="515,-82.5 515,-101.5 652,-101.5 652,-82.5 515,-82.5"/>
<text text-anchor="middle" x="583.5" y="-89.5" font-family="Helvetica,sans-Serif" font-size="10.00">prolog.terms.Const.getArity</text>
</a>
</g>
</g>
<!-- Node33&#45;&gt;Node34 -->
<g id="edge41" class="edge"><title>Node33&#45;&gt;Node34</title>
<path fill="none" stroke="midnightblue" d="M471.157,-92C482.079,-92 493.499,-92 504.688,-92"/>
<polygon fill="midnightblue" stroke="midnightblue" points="504.878,-95.5001 514.878,-92 504.878,-88.5001 504.878,-95.5001"/>
</g>
</g>
</svg>
