<?xml version="1.0" encoding="UTF-8" standalone="no"?>
<!DOCTYPE svg PUBLIC "-//W3C//DTD SVG 1.1//EN"
 "http://www.w3.org/Graphics/SVG/1.1/DTD/svg11.dtd">
<!-- Generated by graphviz version 2.38.0 (20140413.2041)
 -->
<!-- Title: prolog.io.Parser.getTerm Pages: 1 -->
<svg width="1344pt" height="219pt"
 viewBox="0.00 0.00 1344.00 218.50" xmlns="http://www.w3.org/2000/svg" xmlns:xlink="http://www.w3.org/1999/xlink">
<g id="graph0" class="graph" transform="scale(1 1) rotate(0) translate(4 214.5)">
<title>prolog.io.Parser.getTerm</title>
<!-- Node1 -->
<g id="node1" class="node"><title>Node1</title>
<polygon fill="#bfbfbf" stroke="black" points="0,-115 0,-134 124,-134 124,-115 0,-115"/>
<text text-anchor="middle" x="62" y="-122" font-family="Helvetica,sans-Serif" font-size="10.00">prolog.io.Parser.getTerm</text>
</g>
<!-- Node2 -->
<g id="node2" class="node"><title>Node2</title>
<g id="a_node2"><a xlink:href="../../d7/df1/classprolog_1_1io_1_1Parser_a65d208b0e30e3ff19d769fbb3b0f7247.html#a65d208b0e30e3ff19d769fbb3b0f7247" target="_top" xlink:title="prolog.io.Parser.getArgs">
<polygon fill="none" stroke="black" points="346.5,-115 346.5,-134 468.5,-134 468.5,-115 346.5,-115"/>
<text text-anchor="middle" x="407.5" y="-122" font-family="Helvetica,sans-Serif" font-size="10.00">prolog.io.Parser.getArgs</text>
</a>
</g>
</g>
<!-- Node1&#45;&gt;Node2 -->
<g id="edge1" class="edge"><title>Node1&#45;&gt;Node2</title>
<path fill="none" stroke="midnightblue" d="M134.22,-124.5C196.916,-124.5 287.196,-124.5 346.341,-124.5"/>
<polygon fill="midnightblue" stroke="midnightblue" points="134.015,-121 124.015,-124.5 134.015,-128 134.015,-121"/>
</g>
<!-- Node4 -->
<g id="node4" class="node"><title>Node4</title>
<g id="a_node4"><a xlink:href="../../d7/df1/classprolog_1_1io_1_1Parser_aa7e461fd858ff34bac99d032f61e52da.html#aa7e461fd858ff34bac99d032f61e52da" target="_top" xlink:title="prolog.io.Parser.getConjCont">
<polygon fill="none" stroke="black" points="160,-39 160,-58 303,-58 303,-39 160,-39"/>
<text text-anchor="middle" x="231.5" y="-46" font-family="Helvetica,sans-Serif" font-size="10.00">prolog.io.Parser.getConjCont</text>
</a>
</g>
</g>
<!-- Node1&#45;&gt;Node4 -->
<g id="edge3" class="edge"><title>Node1&#45;&gt;Node4</title>
<path fill="none" stroke="midnightblue" d="M87.8139,-109.736C107.086,-98.6308 134.701,-83.4989 160,-72.5 172.45,-67.0872 186.547,-62.0771 198.846,-58.05"/>
<polygon fill="midnightblue" stroke="midnightblue" points="85.9499,-106.771 79.0699,-114.828 89.4727,-112.82 85.9499,-106.771"/>
</g>
<!-- Node5 -->
<g id="node5" class="node"><title>Node5</title>
<g id="a_node5"><a xlink:href="../../d7/df1/classprolog_1_1io_1_1Parser_a79322090cfbd908b02c83db6c65806d2.html#a79322090cfbd908b02c83db6c65806d2" target="_top" xlink:title="prolog.io.Parser.readClause\lOrEOF">
<polygon fill="none" stroke="black" points="339,-49.5 339,-79.5 476,-79.5 476,-49.5 339,-49.5"/>
<text text-anchor="start" x="347" y="-67.5" font-family="Helvetica,sans-Serif" font-size="10.00">prolog.io.Parser.readClause</text>
<text text-anchor="middle" x="407.5" y="-56.5" font-family="Helvetica,sans-Serif" font-size="10.00">OrEOF</text>
</a>
</g>
</g>
<!-- Node1&#45;&gt;Node5 -->
<g id="edge19" class="edge"><title>Node1&#45;&gt;Node5</title>
<path fill="none" stroke="midnightblue" d="M127.584,-113.219C187.859,-102.69 277.464,-87.039 338.743,-76.3353"/>
<polygon fill="midnightblue" stroke="midnightblue" points="126.677,-109.824 117.429,-114.993 127.882,-116.72 126.677,-109.824"/>
</g>
<!-- Node16 -->
<g id="node16" class="node"><title>Node16</title>
<g id="a_node16"><a xlink:href="../../d7/df1/classprolog_1_1io_1_1Parser_ab9dcde7b1480cd18c6a21e5c88e1a2bd.html#ab9dcde7b1480cd18c6a21e5c88e1a2bd" target="_top" xlink:title="prolog.io.Parser.getList">
<polygon fill="none" stroke="black" points="349,-153 349,-172 466,-172 466,-153 349,-153"/>
<text text-anchor="middle" x="407.5" y="-160" font-family="Helvetica,sans-Serif" font-size="10.00">prolog.io.Parser.getList</text>
</a>
</g>
</g>
<!-- Node1&#45;&gt;Node16 -->
<g id="edge15" class="edge"><title>Node1&#45;&gt;Node16</title>
<path fill="none" stroke="midnightblue" d="M134.151,-135.154C142.851,-136.343 151.623,-137.488 160,-138.5 224.458,-146.285 298.637,-153.236 348.643,-157.629"/>
<polygon fill="midnightblue" stroke="midnightblue" points="134.387,-131.653 124.001,-133.744 133.424,-138.587 134.387,-131.653"/>
</g>
<!-- Node17 -->
<g id="node17" class="node"><title>Node17</title>
<g id="a_node17"><a xlink:href="../../d7/df1/classprolog_1_1io_1_1Parser_aa2150bc0ca63050e058a5041b719dd7b.html#aa2150bc0ca63050e058a5041b719dd7b" target="_top" xlink:title="prolog.io.Parser.getListCont">
<polygon fill="none" stroke="black" points="162.5,-191 162.5,-210 300.5,-210 300.5,-191 162.5,-191"/>
<text text-anchor="middle" x="231.5" y="-198" font-family="Helvetica,sans-Serif" font-size="10.00">prolog.io.Parser.getListCont</text>
</a>
</g>
</g>
<!-- Node1&#45;&gt;Node17 -->
<g id="edge17" class="edge"><title>Node1&#45;&gt;Node17</title>
<path fill="none" stroke="midnightblue" d="M87.8139,-139.264C107.086,-150.369 134.701,-165.501 160,-176.5 172.45,-181.913 186.547,-186.923 198.846,-190.95"/>
<polygon fill="midnightblue" stroke="midnightblue" points="89.4727,-136.18 79.0699,-134.172 85.9499,-142.229 89.4727,-136.18"/>
</g>
<!-- Node3 -->
<g id="node3" class="node"><title>Node3</title>
<g id="a_node3"><a xlink:href="../../d7/df1/classprolog_1_1io_1_1Parser_a2266a192306644bbc8e9bb4b4839708e.html#a2266a192306644bbc8e9bb4b4839708e" target="_top" xlink:title="prolog.io.Parser.getTerm">
<polygon fill="none" stroke="black" points="518.5,-134 518.5,-153 642.5,-153 642.5,-134 518.5,-134"/>
<text text-anchor="middle" x="580.5" y="-141" font-family="Helvetica,sans-Serif" font-size="10.00">prolog.io.Parser.getTerm</text>
</a>
</g>
</g>
<!-- Node2&#45;&gt;Node3 -->
<g id="edge2" class="edge"><title>Node2&#45;&gt;Node3</title>
<path fill="none" stroke="midnightblue" d="M479.1,-132.344C492.115,-133.791 505.605,-135.289 518.313,-136.701"/>
<polygon fill="midnightblue" stroke="midnightblue" points="479.114,-128.824 468.788,-131.199 478.341,-135.782 479.114,-128.824"/>
</g>
<!-- Node4&#45;&gt;Node5 -->
<g id="edge4" class="edge"><title>Node4&#45;&gt;Node5</title>
<path fill="none" stroke="midnightblue" d="M313.117,-55.913C321.767,-56.7085 330.502,-57.5117 338.977,-58.291"/>
<polygon fill="midnightblue" stroke="midnightblue" points="313.3,-52.4152 303.022,-54.9847 312.659,-59.3858 313.3,-52.4152"/>
</g>
<!-- Node6 -->
<g id="node6" class="node"><title>Node6</title>
<g id="a_node6"><a xlink:href="../../d7/df1/classprolog_1_1io_1_1Parser_ad0255f716753ec63c0f4e7cf9a8d2d38.html#ad0255f716753ec63c0f4e7cf9a8d2d38" target="_top" xlink:title="Main Parser interface: reads a clause together with variable name information. ">
<polygon fill="none" stroke="black" points="512,-55 512,-74 649,-74 649,-55 512,-55"/>
<text text-anchor="middle" x="580.5" y="-62" font-family="Helvetica,sans-Serif" font-size="10.00">prolog.io.Parser.readClause</text>
</a>
</g>
</g>
<!-- Node5&#45;&gt;Node6 -->
<g id="edge5" class="edge"><title>Node5&#45;&gt;Node6</title>
<path fill="none" stroke="midnightblue" d="M486.1,-64.5C494.692,-64.5 503.391,-64.5 511.847,-64.5"/>
<polygon fill="midnightblue" stroke="midnightblue" points="486.084,-61.0001 476.084,-64.5 486.084,-68.0001 486.084,-61.0001"/>
</g>
<!-- Node7 -->
<g id="node7" class="node"><title>Node7</title>
<g id="a_node7"><a xlink:href="../../da/dd9/classprolog_1_1fluents_1_1DataBase_a83885e10b61d6bf129307d9bf50d93de.html#a83885e10b61d6bf129307d9bf50d93de" target="_top" xlink:title="prolog.fluents.DataBase.apply\l_parser">
<polygon fill="none" stroke="black" points="685,-98.5 685,-128.5 833,-128.5 833,-98.5 685,-98.5"/>
<text text-anchor="start" x="693" y="-116.5" font-family="Helvetica,sans-Serif" font-size="10.00">prolog.fluents.DataBase.apply</text>
<text text-anchor="middle" x="759" y="-105.5" font-family="Helvetica,sans-Serif" font-size="10.00">_parser</text>
</a>
</g>
</g>
<!-- Node6&#45;&gt;Node7 -->
<g id="edge6" class="edge"><title>Node6&#45;&gt;Node7</title>
<path fill="none" stroke="midnightblue" d="M625.724,-76.7776C649.412,-83.3537 678.788,-91.5092 703.836,-98.463"/>
<polygon fill="midnightblue" stroke="midnightblue" points="626.522,-73.3667 615.95,-74.064 624.649,-80.1116 626.522,-73.3667"/>
</g>
<!-- Node9 -->
<g id="node9" class="node"><title>Node9</title>
<g id="a_node9"><a xlink:href="../../d7/df1/classprolog_1_1io_1_1Parser_acd7f700bcb96620b8c6770c2fcae5802.html#acd7f700bcb96620b8c6770c2fcae5802" target="_top" xlink:title="prolog.io.Parser.clsFrom\lString">
<polygon fill="none" stroke="black" points="697.5,-49.5 697.5,-79.5 820.5,-79.5 820.5,-49.5 697.5,-49.5"/>
<text text-anchor="start" x="705.5" y="-67.5" font-family="Helvetica,sans-Serif" font-size="10.00">prolog.io.Parser.clsFrom</text>
<text text-anchor="middle" x="759" y="-56.5" font-family="Helvetica,sans-Serif" font-size="10.00">String</text>
</a>
</g>
</g>
<!-- Node6&#45;&gt;Node9 -->
<g id="edge8" class="edge"><title>Node6&#45;&gt;Node9</title>
<path fill="none" stroke="midnightblue" d="M659.366,-64.5C672.104,-64.5 685.133,-64.5 697.374,-64.5"/>
<polygon fill="midnightblue" stroke="midnightblue" points="659.235,-61.0001 649.235,-64.5 659.235,-68.0001 659.235,-61.0001"/>
</g>
<!-- Node15 -->
<g id="node15" class="node"><title>Node15</title>
<g id="a_node15"><a xlink:href="../../d4/d09/classprolog_1_1io_1_1ClauseReader_a805e9a5ebc401e1099f39af9b3f6fb47.html#a805e9a5ebc401e1099f39af9b3f6fb47" target="_top" xlink:title="prolog.io.ClauseReader.get\lElement">
<polygon fill="none" stroke="black" points="691.5,-0.5 691.5,-30.5 826.5,-30.5 826.5,-0.5 691.5,-0.5"/>
<text text-anchor="start" x="699.5" y="-18.5" font-family="Helvetica,sans-Serif" font-size="10.00">prolog.io.ClauseReader.get</text>
<text text-anchor="middle" x="759" y="-7.5" font-family="Helvetica,sans-Serif" font-size="10.00">Element</text>
</a>
</g>
</g>
<!-- Node6&#45;&gt;Node15 -->
<g id="edge14" class="edge"><title>Node6&#45;&gt;Node15</title>
<path fill="none" stroke="midnightblue" d="M625.724,-52.2224C649.412,-45.6463 678.788,-37.4908 703.836,-30.537"/>
<polygon fill="midnightblue" stroke="midnightblue" points="624.649,-48.8884 615.95,-54.936 626.522,-55.6333 624.649,-48.8884"/>
</g>
<!-- Node8 -->
<g id="node8" class="node"><title>Node8</title>
<g id="a_node8"><a xlink:href="../../da/dd9/classprolog_1_1fluents_1_1DataBase_af8b26948ded7bba6386b984f463bf166.html#af8b26948ded7bba6386b984f463bf166" target="_top" xlink:title="prolog.fluents.DataBase.stream\lToProg">
<polygon fill="none" stroke="black" points="869,-98.5 869,-128.5 1024,-128.5 1024,-98.5 869,-98.5"/>
<text text-anchor="start" x="877" y="-116.5" font-family="Helvetica,sans-Serif" font-size="10.00">prolog.fluents.DataBase.stream</text>
<text text-anchor="middle" x="946.5" y="-105.5" font-family="Helvetica,sans-Serif" font-size="10.00">ToProg</text>
</a>
</g>
</g>
<!-- Node7&#45;&gt;Node8 -->
<g id="edge7" class="edge"><title>Node7&#45;&gt;Node8</title>
<path fill="none" stroke="midnightblue" d="M843.059,-113.5C851.645,-113.5 860.344,-113.5 868.856,-113.5"/>
<polygon fill="midnightblue" stroke="midnightblue" points="843.048,-110 833.048,-113.5 843.048,-117 843.048,-110"/>
</g>
<!-- Node10 -->
<g id="node10" class="node"><title>Node10</title>
<g id="a_node10"><a xlink:href="../../d6/dc4/classprolog_1_1terms_1_1Clause_a253e30217e7c206f42b947ba0dc7d754.html#a253e30217e7c206f42b947ba0dc7d754" target="_top" xlink:title="Extracts a clause from its String representation. ">
<polygon fill="none" stroke="black" points="878.5,-49.5 878.5,-79.5 1014.5,-79.5 1014.5,-49.5 878.5,-49.5"/>
<text text-anchor="start" x="886.5" y="-67.5" font-family="Helvetica,sans-Serif" font-size="10.00">prolog.terms.Clause.clause</text>
<text text-anchor="middle" x="946.5" y="-56.5" font-family="Helvetica,sans-Serif" font-size="10.00">FromString</text>
</a>
</g>
</g>
<!-- Node9&#45;&gt;Node10 -->
<g id="edge9" class="edge"><title>Node9&#45;&gt;Node10</title>
<path fill="none" stroke="midnightblue" d="M830.816,-64.5C846.371,-64.5 862.799,-64.5 878.211,-64.5"/>
<polygon fill="midnightblue" stroke="midnightblue" points="830.74,-61.0001 820.74,-64.5 830.74,-68.0001 830.74,-61.0001"/>
</g>
<!-- Node11 -->
<g id="node11" class="node"><title>Node11</title>
<g id="a_node11"><a xlink:href="../../d6/dc4/classprolog_1_1terms_1_1Clause_a59a965be3fc2e88226d5202dca1b2a26.html#a59a965be3fc2e88226d5202dca1b2a26" target="_top" xlink:title="Constructs a clause by parsing its string representation. ">
<polygon fill="none" stroke="black" points="1063,-99 1063,-118 1201,-118 1201,-99 1063,-99"/>
<text text-anchor="middle" x="1132" y="-106" font-family="Helvetica,sans-Serif" font-size="10.00">prolog.terms.Clause.Clause</text>
</a>
</g>
</g>
<!-- Node10&#45;&gt;Node11 -->
<g id="edge10" class="edge"><title>Node10&#45;&gt;Node11</title>
<path fill="none" stroke="midnightblue" d="M1020.05,-81.8964C1044.34,-87.7206 1070.51,-93.9954 1091.33,-98.9876"/>
<polygon fill="midnightblue" stroke="midnightblue" points="1020.68,-78.4475 1010.14,-79.5192 1019.05,-85.2546 1020.68,-78.4475"/>
</g>
<!-- Node12 -->
<g id="node12" class="node"><title>Node12</title>
<g id="a_node12"><a xlink:href="../../d6/dc4/classprolog_1_1terms_1_1Clause_aff298dbb79a27341afb0860f82ad1464.html#aff298dbb79a27341afb0860f82ad1464" target="_top" xlink:title="prolog.terms.Clause.goal\lFromString">
<polygon fill="none" stroke="black" points="1069.5,-49.5 1069.5,-79.5 1194.5,-79.5 1194.5,-49.5 1069.5,-49.5"/>
<text text-anchor="start" x="1077.5" y="-67.5" font-family="Helvetica,sans-Serif" font-size="10.00">prolog.terms.Clause.goal</text>
<text text-anchor="middle" x="1132" y="-56.5" font-family="Helvetica,sans-Serif" font-size="10.00">FromString</text>
</a>
</g>
</g>
<!-- Node10&#45;&gt;Node12 -->
<g id="edge11" class="edge"><title>Node10&#45;&gt;Node12</title>
<path fill="none" stroke="midnightblue" d="M1024.73,-64.5C1039.61,-64.5 1055.02,-64.5 1069.33,-64.5"/>
<polygon fill="midnightblue" stroke="midnightblue" points="1024.53,-61.0001 1014.53,-64.5 1024.53,-68.0001 1024.53,-61.0001"/>
</g>
<!-- Node14 -->
<g id="node14" class="node"><title>Node14</title>
<g id="a_node14"><a xlink:href="../../d3/ded/classprolog_1_1terms_1_1Term_a837eb66c18c36b2a0a4ecce8ad7cd144.html#a837eb66c18c36b2a0a4ecce8ad7cd144" target="_top" xlink:title="prolog.terms.Term.fromString">
<polygon fill="none" stroke="black" points="1060,-11 1060,-30 1204,-30 1204,-11 1060,-11"/>
<text text-anchor="middle" x="1132" y="-18" font-family="Helvetica,sans-Serif" font-size="10.00">prolog.terms.Term.fromString</text>
</a>
</g>
</g>
<!-- Node10&#45;&gt;Node14 -->
<g id="edge13" class="edge"><title>Node10&#45;&gt;Node14</title>
<path fill="none" stroke="midnightblue" d="M1020.05,-47.1036C1044.34,-41.2794 1070.51,-35.0046 1091.33,-30.0124"/>
<polygon fill="midnightblue" stroke="midnightblue" points="1019.05,-43.7454 1010.14,-49.4808 1020.68,-50.5525 1019.05,-43.7454"/>
</g>
<!-- Node13 -->
<g id="node13" class="node"><title>Node13</title>
<g id="a_node13"><a xlink:href="../../d8/d35/classprolog_1_1Init_a0f6db95b70444cd1b933f24ec44814e4.html#a0f6db95b70444cd1b933f24ec44814e4" target="_top" xlink:title="prolog.Init.getGoal">
<polygon fill="none" stroke="black" points="1240,-55 1240,-74 1336,-74 1336,-55 1240,-55"/>
<text text-anchor="middle" x="1288" y="-62" font-family="Helvetica,sans-Serif" font-size="10.00">prolog.Init.getGoal</text>
</a>
</g>
</g>
<!-- Node12&#45;&gt;Node13 -->
<g id="edge12" class="edge"><title>Node12&#45;&gt;Node13</title>
<path fill="none" stroke="midnightblue" d="M1205.08,-64.5C1216.92,-64.5 1228.92,-64.5 1239.94,-64.5"/>
<polygon fill="midnightblue" stroke="midnightblue" points="1204.75,-61.0001 1194.75,-64.5 1204.75,-68.0001 1204.75,-61.0001"/>
</g>
<!-- Node16&#45;&gt;Node3 -->
<g id="edge16" class="edge"><title>Node16&#45;&gt;Node3</title>
<path fill="none" stroke="midnightblue" d="M476.374,-154.958C490.269,-153.415 504.813,-151.799 518.452,-150.283"/>
<polygon fill="midnightblue" stroke="midnightblue" points="475.945,-151.484 466.393,-156.067 476.718,-158.442 475.945,-151.484"/>
</g>
<!-- Node17&#45;&gt;Node16 -->
<g id="edge18" class="edge"><title>Node17&#45;&gt;Node16</title>
<path fill="none" stroke="midnightblue" d="M286.314,-188.747C310.918,-183.374 339.687,-177.091 362.908,-172.02"/>
<polygon fill="midnightblue" stroke="midnightblue" points="285.43,-185.358 276.408,-190.911 286.924,-192.197 285.43,-185.358"/>
</g>
</g>
</svg>
