<?xml version="1.0" encoding="UTF-8" standalone="no"?>
<!DOCTYPE svg PUBLIC "-//W3C//DTD SVG 1.1//EN"
 "http://www.w3.org/Graphics/SVG/1.1/DTD/svg11.dtd">
<!-- Generated by graphviz version 2.38.0 (20140413.2041)
 -->
<!-- Title: prolog.io.Parser.getTerm Pages: 1 -->
<svg width="1078pt" height="218pt"
 viewBox="0.00 0.00 1078.00 218.00" xmlns="http://www.w3.org/2000/svg" xmlns:xlink="http://www.w3.org/1999/xlink">
<g id="graph0" class="graph" transform="scale(1 1) rotate(0) translate(4 214)">
<title>prolog.io.Parser.getTerm</title>
<!-- Node1 -->
<g id="node1" class="node"><title>Node1</title>
<polygon fill="#bfbfbf" stroke="black" points="0,-133.5 0,-152.5 124,-152.5 124,-133.5 0,-133.5"/>
<text text-anchor="middle" x="62" y="-140.5" font-family="Helvetica,sans-Serif" font-size="10.00">prolog.io.Parser.getTerm</text>
</g>
<!-- Node2 -->
<g id="node2" class="node"><title>Node2</title>
<g id="a_node2"><a xlink:href="../../d9/d79/classprolog_1_1io_1_1Lexer_af90567b8e92b07af09c8f60a587d8404.html#af90567b8e92b07af09c8f60a587d8404" target="_top" xlink:title="prolog.io.Lexer.next">
<polygon fill="none" stroke="black" points="160,-133.5 160,-152.5 262,-152.5 262,-133.5 160,-133.5"/>
<text text-anchor="middle" x="211" y="-140.5" font-family="Helvetica,sans-Serif" font-size="10.00">prolog.io.Lexer.next</text>
</a>
</g>
</g>
<!-- Node1&#45;&gt;Node2 -->
<g id="edge1" class="edge"><title>Node1&#45;&gt;Node2</title>
<path fill="none" stroke="midnightblue" d="M124.064,-143C132.476,-143 141.112,-143 149.514,-143"/>
<polygon fill="midnightblue" stroke="midnightblue" points="149.615,-146.5 159.615,-143 149.615,-139.5 149.615,-146.5"/>
</g>
<!-- Node3 -->
<g id="node3" class="node"><title>Node3</title>
<g id="a_node3"><a xlink:href="../../d9/d79/classprolog_1_1io_1_1Lexer_a4cfb6744572df2bf663b200438b38f6f.html#a4cfb6744572df2bf663b200438b38f6f" target="_top" xlink:title="prolog.io.Lexer.char2string">
<polygon fill="none" stroke="black" points="298,-190.5 298,-209.5 429,-209.5 429,-190.5 298,-190.5"/>
<text text-anchor="middle" x="363.5" y="-197.5" font-family="Helvetica,sans-Serif" font-size="10.00">prolog.io.Lexer.char2string</text>
</a>
</g>
</g>
<!-- Node2&#45;&gt;Node3 -->
<g id="edge2" class="edge"><title>Node2&#45;&gt;Node3</title>
<path fill="none" stroke="midnightblue" d="M236.813,-152.598C253.978,-159.219 277.356,-168.199 298,-176 307.456,-179.574 317.708,-183.407 327.195,-186.937"/>
<polygon fill="midnightblue" stroke="midnightblue" points="326.148,-190.282 336.741,-190.483 328.586,-183.72 326.148,-190.282"/>
</g>
<!-- Node4 -->
<g id="node4" class="node"><title>Node4</title>
<g id="a_node4"><a xlink:href="../../d9/d79/classprolog_1_1io_1_1Lexer_a9fbdd67572706c48a026047f818f2e7a.html#a9fbdd67572706c48a026047f818f2e7a" target="_top" xlink:title="prolog.io.Lexer.getWord">
<polygon fill="none" stroke="black" points="303.5,-114.5 303.5,-133.5 423.5,-133.5 423.5,-114.5 303.5,-114.5"/>
<text text-anchor="middle" x="363.5" y="-121.5" font-family="Helvetica,sans-Serif" font-size="10.00">prolog.io.Lexer.getWord</text>
</a>
</g>
</g>
<!-- Node2&#45;&gt;Node4 -->
<g id="edge3" class="edge"><title>Node2&#45;&gt;Node4</title>
<path fill="none" stroke="midnightblue" d="M262.114,-136.673C272.158,-135.405 282.877,-134.052 293.433,-132.719"/>
<polygon fill="midnightblue" stroke="midnightblue" points="293.993,-136.177 303.476,-131.452 293.116,-129.232 293.993,-136.177"/>
</g>
<!-- Node5 -->
<g id="node5" class="node"><title>Node5</title>
<g id="a_node5"><a xlink:href="../../d9/d79/classprolog_1_1io_1_1Lexer_ae4ec88cd8a3650b3d9af2b4f5e7a9bbc.html#ae4ec88cd8a3650b3d9af2b4f5e7a9bbc" target="_top" xlink:title="prolog.io.Lexer.make\l_const">
<polygon fill="none" stroke="black" points="475.5,-153 475.5,-183 582.5,-183 582.5,-153 475.5,-153"/>
<text text-anchor="start" x="483.5" y="-171" font-family="Helvetica,sans-Serif" font-size="10.00">prolog.io.Lexer.make</text>
<text text-anchor="middle" x="529" y="-160" font-family="Helvetica,sans-Serif" font-size="10.00">_const</text>
</a>
</g>
</g>
<!-- Node2&#45;&gt;Node5 -->
<g id="edge13" class="edge"><title>Node2&#45;&gt;Node5</title>
<path fill="none" stroke="midnightblue" d="M262.071,-146.961C317.101,-151.315 405.589,-158.316 465.219,-163.033"/>
<polygon fill="midnightblue" stroke="midnightblue" points="465.022,-166.528 475.266,-163.828 465.574,-159.55 465.022,-166.528"/>
</g>
<!-- Node13 -->
<g id="node13" class="node"><title>Node13</title>
<g id="a_node13"><a xlink:href="../../d9/d79/classprolog_1_1io_1_1Lexer_a0575f9ce24d7bdce0ed6f08903d57061.html#a0575f9ce24d7bdce0ed6f08903d57061" target="_top" xlink:title="prolog.io.Lexer.make\l_number">
<polygon fill="none" stroke="black" points="310,-33 310,-63 417,-63 417,-33 310,-33"/>
<text text-anchor="start" x="318" y="-51" font-family="Helvetica,sans-Serif" font-size="10.00">prolog.io.Lexer.make</text>
<text text-anchor="middle" x="363.5" y="-40" font-family="Helvetica,sans-Serif" font-size="10.00">_number</text>
</a>
</g>
</g>
<!-- Node2&#45;&gt;Node13 -->
<g id="edge14" class="edge"><title>Node2&#45;&gt;Node13</title>
<path fill="none" stroke="midnightblue" d="M227.259,-133.368C251.235,-118.234 298.267,-88.5454 330.046,-68.4859"/>
<polygon fill="midnightblue" stroke="midnightblue" points="331.985,-71.401 338.573,-63.1035 328.248,-65.4816 331.985,-71.401"/>
</g>
<!-- Node4&#45;&gt;Node5 -->
<g id="edge4" class="edge"><title>Node4&#45;&gt;Node5</title>
<path fill="none" stroke="midnightblue" d="M399.977,-133.547C419.121,-138.699 443.313,-145.21 465.5,-151.18"/>
<polygon fill="midnightblue" stroke="midnightblue" points="464.629,-154.57 475.195,-153.789 466.448,-147.811 464.629,-154.57"/>
</g>
<!-- Node6 -->
<g id="node6" class="node"><title>Node6</title>
<g id="a_node6"><a xlink:href="../../d9/d79/classprolog_1_1io_1_1Lexer_a6c9bf5b9540046d85bedfd6b9cf12d39.html#a6c9bf5b9540046d85bedfd6b9cf12d39" target="_top" xlink:title="prolog.io.Lexer.make_fun">
<polygon fill="none" stroke="black" points="466,-114.5 466,-133.5 592,-133.5 592,-114.5 466,-114.5"/>
<text text-anchor="middle" x="529" y="-121.5" font-family="Helvetica,sans-Serif" font-size="10.00">prolog.io.Lexer.make_fun</text>
</a>
</g>
</g>
<!-- Node4&#45;&gt;Node6 -->
<g id="edge5" class="edge"><title>Node4&#45;&gt;Node6</title>
<path fill="none" stroke="midnightblue" d="M423.527,-124C433.925,-124 444.855,-124 455.569,-124"/>
<polygon fill="midnightblue" stroke="midnightblue" points="455.75,-127.5 465.75,-124 455.75,-120.5 455.75,-127.5"/>
</g>
<!-- Node7 -->
<g id="node7" class="node"><title>Node7</title>
<g id="a_node7"><a xlink:href="../../d9/d79/classprolog_1_1io_1_1Lexer_acdaa35637088cc7ae8decb0f6e0f8caa.html#acdaa35637088cc7ae8decb0f6e0f8caa" target="_top" xlink:title="prolog.io.Lexer.make_var">
<polygon fill="none" stroke="black" points="466,-76.5 466,-95.5 592,-95.5 592,-76.5 466,-76.5"/>
<text text-anchor="middle" x="529" y="-83.5" font-family="Helvetica,sans-Serif" font-size="10.00">prolog.io.Lexer.make_var</text>
</a>
</g>
</g>
<!-- Node4&#45;&gt;Node7 -->
<g id="edge6" class="edge"><title>Node4&#45;&gt;Node7</title>
<path fill="none" stroke="midnightblue" d="M405.758,-114.411C427.431,-109.374 454.183,-103.156 477.13,-97.8229"/>
<polygon fill="midnightblue" stroke="midnightblue" points="478.091,-101.193 487.039,-95.5201 476.506,-94.3748 478.091,-101.193"/>
</g>
<!-- Node8 -->
<g id="node8" class="node"><title>Node8</title>
<g id="a_node8"><a xlink:href="../../d1/d12/classprolog_1_1terms_1_1Var_acfca7d3a30509a6a0761be57e408cfad.html#acfca7d3a30509a6a0761be57e408cfad" target="_top" xlink:title="prolog.terms.Var.toString">
<polygon fill="none" stroke="black" points="629,-76.5 629,-95.5 754,-95.5 754,-76.5 629,-76.5"/>
<text text-anchor="middle" x="691.5" y="-83.5" font-family="Helvetica,sans-Serif" font-size="10.00">prolog.terms.Var.toString</text>
</a>
</g>
</g>
<!-- Node7&#45;&gt;Node8 -->
<g id="edge7" class="edge"><title>Node7&#45;&gt;Node8</title>
<path fill="none" stroke="midnightblue" d="M592.053,-86C600.834,-86 609.921,-86 618.864,-86"/>
<polygon fill="midnightblue" stroke="midnightblue" points="618.876,-89.5001 628.876,-86 618.876,-82.5001 618.876,-89.5001"/>
</g>
<!-- Node9 -->
<g id="node9" class="node"><title>Node9</title>
<g id="a_node9"><a xlink:href="../../d1/d12/classprolog_1_1terms_1_1Var_a2194ec6eec940cc349b828f6fefcf242.html#a2194ec6eec940cc349b828f6fefcf242" target="_top" xlink:title="prolog.terms.Var.unbound">
<polygon fill="none" stroke="black" points="942,-95.5 942,-114.5 1070,-114.5 1070,-95.5 942,-95.5"/>
<text text-anchor="middle" x="1006" y="-102.5" font-family="Helvetica,sans-Serif" font-size="10.00">prolog.terms.Var.unbound</text>
</a>
</g>
</g>
<!-- Node8&#45;&gt;Node9 -->
<g id="edge8" class="edge"><title>Node8&#45;&gt;Node9</title>
<path fill="none" stroke="midnightblue" d="M732.094,-95.5104C749.709,-99.2755 770.774,-103.144 790,-105 837.023,-109.539 890.102,-109.59 931.755,-108.481"/>
<polygon fill="midnightblue" stroke="midnightblue" points="931.922,-111.978 941.815,-108.185 931.716,-104.981 931.922,-111.978"/>
</g>
<!-- Node10 -->
<g id="node10" class="node"><title>Node10</title>
<g id="a_node10"><a xlink:href="../../d1/d12/classprolog_1_1terms_1_1Var_ac525ffcba1be06da9b81dcdb2605eaf6.html#ac525ffcba1be06da9b81dcdb2605eaf6" target="_top" xlink:title="prolog.terms.Var.name">
<polygon fill="none" stroke="black" points="790,-76.5 790,-95.5 906,-95.5 906,-76.5 790,-76.5"/>
<text text-anchor="middle" x="848" y="-83.5" font-family="Helvetica,sans-Serif" font-size="10.00">prolog.terms.Var.name</text>
</a>
</g>
</g>
<!-- Node8&#45;&gt;Node10 -->
<g id="edge9" class="edge"><title>Node8&#45;&gt;Node10</title>
<path fill="none" stroke="midnightblue" d="M754.006,-86C762.382,-86 771.015,-86 779.49,-86"/>
<polygon fill="midnightblue" stroke="midnightblue" points="779.72,-89.5001 789.72,-86 779.72,-82.5001 779.72,-89.5001"/>
</g>
<!-- Node11 -->
<g id="node11" class="node"><title>Node11</title>
<g id="a_node11"><a xlink:href="../../d1/d12/classprolog_1_1terms_1_1Var_a87e5778e2b3535a88d8750f0776fb900.html#a87e5778e2b3535a88d8750f0776fb900" target="_top" xlink:title="prolog.terms.Var.ref">
<polygon fill="none" stroke="black" points="796.5,-38.5 796.5,-57.5 899.5,-57.5 899.5,-38.5 796.5,-38.5"/>
<text text-anchor="middle" x="848" y="-45.5" font-family="Helvetica,sans-Serif" font-size="10.00">prolog.terms.Var.ref</text>
</a>
</g>
</g>
<!-- Node8&#45;&gt;Node11 -->
<g id="edge10" class="edge"><title>Node8&#45;&gt;Node11</title>
<path fill="none" stroke="midnightblue" d="M731.487,-76.411C751.783,-71.4191 776.793,-65.2676 798.346,-59.9666"/>
<polygon fill="midnightblue" stroke="midnightblue" points="799.419,-63.3072 808.293,-57.5201 797.747,-56.5098 799.419,-63.3072"/>
</g>
<!-- Node11&#45;&gt;Node9 -->
<g id="edge11" class="edge"><title>Node11&#45;&gt;Node9</title>
<path fill="none" stroke="midnightblue" d="M878.377,-57.5133C887.279,-60.471 897.064,-63.7976 906,-67 927.99,-74.8808 952.502,-84.2844 971.633,-91.7655"/>
<polygon fill="midnightblue" stroke="midnightblue" points="970.519,-95.0878 981.106,-95.484 973.076,-88.5719 970.519,-95.0878"/>
</g>
<!-- Node12 -->
<g id="node12" class="node"><title>Node12</title>
<g id="a_node12"><a xlink:href="../../d3/ded/classprolog_1_1terms_1_1Term_ae140fac2c9d066dc897fcfa723060a7a.html#ae140fac2c9d066dc897fcfa723060a7a" target="_top" xlink:title="Dereferences if necessary. ">
<polygon fill="none" stroke="black" points="951,-38.5 951,-57.5 1061,-57.5 1061,-38.5 951,-38.5"/>
<text text-anchor="middle" x="1006" y="-45.5" font-family="Helvetica,sans-Serif" font-size="10.00">prolog.terms.Term.ref</text>
</a>
</g>
</g>
<!-- Node11&#45;&gt;Node12 -->
<g id="edge12" class="edge"><title>Node11&#45;&gt;Node12</title>
<path fill="none" stroke="midnightblue" d="M899.649,-48C912.693,-48 926.907,-48 940.55,-48"/>
<polygon fill="midnightblue" stroke="midnightblue" points="940.842,-51.5001 950.842,-48 940.842,-44.5001 940.842,-51.5001"/>
</g>
<!-- Node14 -->
<g id="node14" class="node"><title>Node14</title>
<g id="a_node14"><a xlink:href="../../d9/d79/classprolog_1_1io_1_1Lexer_aa7b44ceb64d095b1342b77ff73e28e58.html#aa7b44ceb64d095b1342b77ff73e28e58" target="_top" xlink:title="prolog.io.Lexer.make_int">
<polygon fill="none" stroke="black" points="467.5,-38.5 467.5,-57.5 590.5,-57.5 590.5,-38.5 467.5,-38.5"/>
<text text-anchor="middle" x="529" y="-45.5" font-family="Helvetica,sans-Serif" font-size="10.00">prolog.io.Lexer.make_int</text>
</a>
</g>
</g>
<!-- Node13&#45;&gt;Node14 -->
<g id="edge15" class="edge"><title>Node13&#45;&gt;Node14</title>
<path fill="none" stroke="midnightblue" d="M417.132,-48C429.853,-48 443.656,-48 457.063,-48"/>
<polygon fill="midnightblue" stroke="midnightblue" points="457.215,-51.5001 467.215,-48 457.215,-44.5001 457.215,-51.5001"/>
</g>
<!-- Node15 -->
<g id="node15" class="node"><title>Node15</title>
<g id="a_node15"><a xlink:href="../../d9/d79/classprolog_1_1io_1_1Lexer_aa712569cb1f11c42f18982b57dd13832.html#aa712569cb1f11c42f18982b57dd13832" target="_top" xlink:title="prolog.io.Lexer.make_real">
<polygon fill="none" stroke="black" points="465,-0.5 465,-19.5 593,-19.5 593,-0.5 465,-0.5"/>
<text text-anchor="middle" x="529" y="-7.5" font-family="Helvetica,sans-Serif" font-size="10.00">prolog.io.Lexer.make_real</text>
</a>
</g>
</g>
<!-- Node13&#45;&gt;Node15 -->
<g id="edge16" class="edge"><title>Node13&#45;&gt;Node15</title>
<path fill="none" stroke="midnightblue" d="M417.132,-35.7674C436.282,-31.3167 457.884,-26.2962 476.898,-21.8768"/>
<polygon fill="midnightblue" stroke="midnightblue" points="477.923,-25.2321 486.871,-19.5591 476.338,-18.4139 477.923,-25.2321"/>
</g>
</g>
</svg>
