<?xml version="1.0" encoding="UTF-8" standalone="no"?>
<!DOCTYPE svg PUBLIC "-//W3C//DTD SVG 1.1//EN"
 "http://www.w3.org/Graphics/SVG/1.1/DTD/svg11.dtd">
<!-- Generated by graphviz version 2.38.0 (20140413.2041)
 -->
<!-- Title: prolog.io.Parser.patchEOFString Pages: 1 -->
<!--zoomable 116 -->
<svg id="main" version="1.1" xmlns="http://www.w3.org/2000/svg" xmlns:xlink="http://www.w3.org/1999/xlink" xml:space="preserve" onload="init(evt)">
<style type="text/css"><![CDATA[
.edge:hover path { stroke: red; }
.edge:hover polygon { stroke: red; fill: red; }
]]></style>
<script type="text/javascript"><![CDATA[
var edges = document.getElementsByTagName('g');
if (edges && edges.length) {
  for (var i=0;i<edges.length;i++) {
    if (edges[i].id.substr(0,4)=='edge') {
      edges[i].setAttribute('class','edge');
    }
  }
}
]]></script>
        <defs>
                <circle id="rim" cx="0" cy="0" r="7"/>
                <circle id="rim2" cx="0" cy="0" r="3.5"/>
                <g id="zoomPlus">
                        <use xlink:href="#rim" fill="#404040">
                                <set attributeName="fill" to="#808080" begin="zoomplus.mouseover" end="zoomplus.mouseout"/>
                        </use>
                        <path d="M-4,0h8M0,-4v8" fill="none" stroke="white" stroke-width="1.5" pointer-events="none"/>
                </g>
                <g id="zoomMin">
                        <use xlink:href="#rim" fill="#404040">
                                <set attributeName="fill" to="#808080" begin="zoomminus.mouseover" end="zoomminus.mouseout"/>
                        </use>
                        <path d="M-4,0h8" fill="none" stroke="white" stroke-width="1.5" pointer-events="none"/>
                </g>
                <g id="dirArrow">
                        <path fill="none" stroke="white" stroke-width="1.5" d="M0,-3.0v7 M-2.5,-0.5L0,-3.0L2.5,-0.5"/>
                </g>
               <g id="resetDef">
                       <use xlink:href="#rim2" fill="#404040">
                               <set attributeName="fill" to="#808080" begin="reset.mouseover" end="reset.mouseout"/>
                       </use>
               </g>
        </defs>

<script type="text/javascript">
var viewWidth = 809;
var viewHeight = 116;
var sectionId = 'dynsection-0';
</script>
<script xlink:href="../../svgpan.js"/>
<svg id="graph" class="graph">
<g id="viewport">
<title>prolog.io.Parser.patchEOFString</title>
<!-- Node1 -->
<g id="node1" class="node"><title>Node1</title>
<polygon fill="#bfbfbf" stroke="black" points="0,-44.5 0,-63.5 158,-63.5 158,-44.5 0,-44.5"/>
<text text-anchor="middle" x="79" y="-51.5" font-family="Helvetica,sans-Serif" font-size="10.00">prolog.io.Parser.patchEOFString</text>
</g>
<!-- Node2 -->
<g id="node2" class="node"><title>Node2</title>
<g id="a_node2"><a xlink:href="../../d7/df1/classprolog_1_1io_1_1Parser_acd7f700bcb96620b8c6770c2fcae5802.html#acd7f700bcb96620b8c6770c2fcae5802" target="_top" xlink:title="prolog.io.Parser.clsFrom\lString">
<polygon fill="none" stroke="black" points="194,-39 194,-69 317,-69 317,-39 194,-39"/>
<text text-anchor="start" x="202" y="-57" font-family="Helvetica,sans-Serif" font-size="10.00">prolog.io.Parser.clsFrom</text>
<text text-anchor="middle" x="255.5" y="-46" font-family="Helvetica,sans-Serif" font-size="10.00">String</text>
</a>
</g>
</g>
<!-- Node1&#45;&gt;Node2 -->
<g id="edge1" class="edge"><title>Node1&#45;&gt;Node2</title>
<path fill="none" stroke="midnightblue" d="M168.205,-54C176.857,-54 185.496,-54 193.782,-54"/>
<polygon fill="midnightblue" stroke="midnightblue" points="168.063,-50.5001 158.063,-54 168.063,-57.5001 168.063,-50.5001"/>
</g>
<!-- Node3 -->
<g id="node3" class="node"><title>Node3</title>
<g id="a_node3"><a xlink:href="../../d6/dc4/classprolog_1_1terms_1_1Clause_a253e30217e7c206f42b947ba0dc7d754.html#a253e30217e7c206f42b947ba0dc7d754" target="_top" xlink:title="Extracts a clause from its String representation. ">
<polygon fill="none" stroke="black" points="353,-39 353,-69 489,-69 489,-39 353,-39"/>
<text text-anchor="start" x="361" y="-57" font-family="Helvetica,sans-Serif" font-size="10.00">prolog.terms.Clause.clause</text>
<text text-anchor="middle" x="421" y="-46" font-family="Helvetica,sans-Serif" font-size="10.00">FromString</text>
</a>
</g>
</g>
<!-- Node2&#45;&gt;Node3 -->
<g id="edge2" class="edge"><title>Node2&#45;&gt;Node3</title>
<path fill="none" stroke="midnightblue" d="M327.505,-54C335.887,-54 344.422,-54 352.75,-54"/>
<polygon fill="midnightblue" stroke="midnightblue" points="327.381,-50.5001 317.381,-54 327.381,-57.5001 327.381,-50.5001"/>
</g>
<!-- Node4 -->
<g id="node4" class="node"><title>Node4</title>
<g id="a_node4"><a xlink:href="../../d6/dc4/classprolog_1_1terms_1_1Clause_a59a965be3fc2e88226d5202dca1b2a26.html#a59a965be3fc2e88226d5202dca1b2a26" target="_top" xlink:title="Constructs a clause by parsing its string representation. ">
<polygon fill="none" stroke="black" points="528,-88.5 528,-107.5 666,-107.5 666,-88.5 528,-88.5"/>
<text text-anchor="middle" x="597" y="-95.5" font-family="Helvetica,sans-Serif" font-size="10.00">prolog.terms.Clause.Clause</text>
</a>
</g>
</g>
<!-- Node3&#45;&gt;Node4 -->
<g id="edge3" class="edge"><title>Node3&#45;&gt;Node4</title>
<path fill="none" stroke="midnightblue" d="M491.102,-71.4741C514.047,-77.2763 538.729,-83.5176 558.383,-88.4876"/>
<polygon fill="midnightblue" stroke="midnightblue" points="491.947,-68.0777 481.394,-69.0192 490.231,-74.8641 491.947,-68.0777"/>
</g>
<!-- Node5 -->
<g id="node5" class="node"><title>Node5</title>
<g id="a_node5"><a xlink:href="../../d6/dc4/classprolog_1_1terms_1_1Clause_aff298dbb79a27341afb0860f82ad1464.html#aff298dbb79a27341afb0860f82ad1464" target="_top" xlink:title="prolog.terms.Clause.goal\lFromString">
<polygon fill="none" stroke="black" points="534.5,-39 534.5,-69 659.5,-69 659.5,-39 534.5,-39"/>
<text text-anchor="start" x="542.5" y="-57" font-family="Helvetica,sans-Serif" font-size="10.00">prolog.terms.Clause.goal</text>
<text text-anchor="middle" x="597" y="-46" font-family="Helvetica,sans-Serif" font-size="10.00">FromString</text>
</a>
</g>
</g>
<!-- Node3&#45;&gt;Node5 -->
<g id="edge4" class="edge"><title>Node3&#45;&gt;Node5</title>
<path fill="none" stroke="midnightblue" d="M499.451,-54C511.125,-54 523.031,-54 534.314,-54"/>
<polygon fill="midnightblue" stroke="midnightblue" points="499.273,-50.5001 489.273,-54 499.273,-57.5001 499.273,-50.5001"/>
</g>
<!-- Node7 -->
<g id="node7" class="node"><title>Node7</title>
<g id="a_node7"><a xlink:href="../../d3/ded/classprolog_1_1terms_1_1Term_a837eb66c18c36b2a0a4ecce8ad7cd144.html#a837eb66c18c36b2a0a4ecce8ad7cd144" target="_top" xlink:title="prolog.terms.Term.fromString">
<polygon fill="none" stroke="black" points="525,-0.5 525,-19.5 669,-19.5 669,-0.5 525,-0.5"/>
<text text-anchor="middle" x="597" y="-7.5" font-family="Helvetica,sans-Serif" font-size="10.00">prolog.terms.Term.fromString</text>
</a>
</g>
</g>
<!-- Node3&#45;&gt;Node7 -->
<g id="edge6" class="edge"><title>Node3&#45;&gt;Node7</title>
<path fill="none" stroke="midnightblue" d="M491.102,-36.5259C514.047,-30.7237 538.729,-24.4824 558.383,-19.5124"/>
<polygon fill="midnightblue" stroke="midnightblue" points="490.231,-33.1359 481.394,-38.9808 491.947,-39.9223 490.231,-33.1359"/>
</g>
<!-- Node6 -->
<g id="node6" class="node"><title>Node6</title>
<g id="a_node6"><a xlink:href="../../d8/d35/classprolog_1_1Init_a0f6db95b70444cd1b933f24ec44814e4.html#a0f6db95b70444cd1b933f24ec44814e4" target="_top" xlink:title="prolog.Init.getGoal">
<polygon fill="none" stroke="black" points="705,-44.5 705,-63.5 801,-63.5 801,-44.5 705,-44.5"/>
<text text-anchor="middle" x="753" y="-51.5" font-family="Helvetica,sans-Serif" font-size="10.00">prolog.Init.getGoal</text>
</a>
</g>
</g>
<!-- Node5&#45;&gt;Node6 -->
<g id="edge5" class="edge"><title>Node5&#45;&gt;Node6</title>
<path fill="none" stroke="midnightblue" d="M670.085,-54C681.922,-54 693.915,-54 704.938,-54"/>
<polygon fill="midnightblue" stroke="midnightblue" points="669.75,-50.5001 659.75,-54 669.75,-57.5001 669.75,-50.5001"/>
</g>
</g>
</svg>
        <g id="navigator" transform="translate(0 0)" fill="#404254">
                <rect fill="#f2f5e9" fill-opacity="0.5" stroke="#606060" stroke-width=".5" x="0" y="0" width="60" height="60"/>
                <use id="zoomplus" xlink:href="#zoomPlus" x="17" y="9" onmousedown="handleZoom(evt,'in')"/>
                <use id="zoomminus" xlink:href="#zoomMin" x="42" y="9" onmousedown="handleZoom(evt,'out')"/>
                <use id="reset" xlink:href="#resetDef" x="30" y="36" onmousedown="handleReset()"/>
                <g id="arrowUp" xlink:href="#dirArrow" transform="translate(30 24)" onmousedown="handlePan(0,-1)">
                  <use xlink:href="#rim" fill="#404040">
                        <set attributeName="fill" to="#808080" begin="arrowUp.mouseover" end="arrowUp.mouseout"/>
                  </use>
                  <path fill="none" stroke="white" stroke-width="1.5" d="M0,-3.0v7 M-2.5,-0.5L0,-3.0L2.5,-0.5"/>
                </g>
                <g id="arrowRight" xlink:href="#dirArrow" transform="rotate(90) translate(36 -43)" onmousedown="handlePan(1,0)">
                  <use xlink:href="#rim" fill="#404040">
                        <set attributeName="fill" to="#808080" begin="arrowRight.mouseover" end="arrowRight.mouseout"/>
                  </use>
                  <path fill="none" stroke="white" stroke-width="1.5" d="M0,-3.0v7 M-2.5,-0.5L0,-3.0L2.5,-0.5"/>
                </g>
                <g id="arrowDown" xlink:href="#dirArrow" transform="rotate(180) translate(-30 -48)" onmousedown="handlePan(0,1)">
                  <use xlink:href="#rim" fill="#404040">
                        <set attributeName="fill" to="#808080" begin="arrowDown.mouseover" end="arrowDown.mouseout"/>
                  </use>
                  <path fill="none" stroke="white" stroke-width="1.5" d="M0,-3.0v7 M-2.5,-0.5L0,-3.0L2.5,-0.5"/>
                </g>
                <g id="arrowLeft" xlink:href="#dirArrow" transform="rotate(270) translate(-36 17)" onmousedown="handlePan(-1,0)">
                  <use xlink:href="#rim" fill="#404040">
                        <set attributeName="fill" to="#808080" begin="arrowLeft.mouseover" end="arrowLeft.mouseout"/>
                  </use>
                  <path fill="none" stroke="white" stroke-width="1.5" d="M0,-3.0v7 M-2.5,-0.5L0,-3.0L2.5,-0.5"/>
                </g>
        </g>
        <svg viewBox="0 0 15 15" width="100%" height="30px" preserveAspectRatio="xMaxYMin meet">
         <g id="arrow_out" transform="scale(0.3 0.3)">
          <a xlink:href="classprolog_1_1io_1_1Parser_af7c0029aaf5a91f51780e12ce99cf277_af7c0029aaf5a91f51780e12ce99cf277_icgraph_org.svg" target="_base">
           <rect id="button" ry="5" rx="5" y="6" x="6" height="38" width="38"
                fill="#f2f5e9" fill-opacity="0.5" stroke="#606060" stroke-width="1.0"/>
           <path id="arrow"
             d="M 11.500037,31.436501 C 11.940474,20.09759 22.043105,11.32322 32.158766,21.979434 L 37.068811,17.246167 C 37.068811,17.246167 37.088388,32 37.088388,32 L 22.160133,31.978069 C 22.160133,31.978069 26.997745,27.140456 26.997745,27.140456 C 18.528582,18.264221 13.291696,25.230495 11.500037,31.436501 z"
             style="fill:#404040;"/>
          </a>
         </g>
        </svg>
</svg>
