<?xml version="1.0" encoding="UTF-8" standalone="no"?>
<!DOCTYPE svg PUBLIC "-//W3C//DTD SVG 1.1//EN"
 "http://www.w3.org/Graphics/SVG/1.1/DTD/svg11.dtd">
<!-- Generated by graphviz version 2.38.0 (20140413.2041)
 -->
<!-- Title: prolog.io.Parser.getConjCont Pages: 1 -->
<svg width="1257pt" height="218pt"
 viewBox="0.00 0.00 1257.00 218.00" xmlns="http://www.w3.org/2000/svg" xmlns:xlink="http://www.w3.org/1999/xlink">
<g id="graph0" class="graph" transform="scale(1 1) rotate(0) translate(4 214)">
<title>prolog.io.Parser.getConjCont</title>
<!-- Node1 -->
<g id="node1" class="node"><title>Node1</title>
<polygon fill="#bfbfbf" stroke="black" points="0,-133.5 0,-152.5 143,-152.5 143,-133.5 0,-133.5"/>
<text text-anchor="middle" x="71.5" y="-140.5" font-family="Helvetica,sans-Serif" font-size="10.00">prolog.io.Parser.getConjCont</text>
</g>
<!-- Node2 -->
<g id="node2" class="node"><title>Node2</title>
<g id="a_node2"><a xlink:href="../../d7/df1/classprolog_1_1io_1_1Parser_ae301f1d607ff1269917a097eda95199a.html#ae301f1d607ff1269917a097eda95199a" target="_top" xlink:title="prolog.io.Parser.getTerm">
<polygon fill="none" stroke="black" points="179,-152.5 179,-171.5 303,-171.5 303,-152.5 179,-152.5"/>
<text text-anchor="middle" x="241" y="-159.5" font-family="Helvetica,sans-Serif" font-size="10.00">prolog.io.Parser.getTerm</text>
</a>
</g>
</g>
<!-- Node1&#45;&gt;Node2 -->
<g id="edge1" class="edge"><title>Node1&#45;&gt;Node2</title>
<path fill="none" stroke="midnightblue" d="M143.05,-151.003C151.596,-151.972 160.331,-152.963 168.886,-153.933"/>
<polygon fill="midnightblue" stroke="midnightblue" points="168.493,-157.411 178.824,-155.061 169.282,-150.456 168.493,-157.411"/>
</g>
<!-- Node3 -->
<g id="node3" class="node"><title>Node3</title>
<g id="a_node3"><a xlink:href="../../d9/d79/classprolog_1_1io_1_1Lexer_af90567b8e92b07af09c8f60a587d8404.html#af90567b8e92b07af09c8f60a587d8404" target="_top" xlink:title="prolog.io.Lexer.next">
<polygon fill="none" stroke="black" points="339,-133.5 339,-152.5 441,-152.5 441,-133.5 339,-133.5"/>
<text text-anchor="middle" x="390" y="-140.5" font-family="Helvetica,sans-Serif" font-size="10.00">prolog.io.Lexer.next</text>
</a>
</g>
</g>
<!-- Node1&#45;&gt;Node3 -->
<g id="edge18" class="edge"><title>Node1&#45;&gt;Node3</title>
<path fill="none" stroke="midnightblue" d="M143.135,-143C198.816,-143 275.628,-143 328.504,-143"/>
<polygon fill="midnightblue" stroke="midnightblue" points="328.747,-146.5 338.747,-143 328.747,-139.5 328.747,-146.5"/>
</g>
<!-- Node2&#45;&gt;Node3 -->
<g id="edge2" class="edge"><title>Node2&#45;&gt;Node3</title>
<path fill="none" stroke="midnightblue" d="M303.064,-154.107C311.476,-153.02 320.112,-151.904 328.514,-150.818"/>
<polygon fill="midnightblue" stroke="midnightblue" points="329.146,-154.265 338.615,-149.512 328.249,-147.323 329.146,-154.265"/>
</g>
<!-- Node4 -->
<g id="node4" class="node"><title>Node4</title>
<g id="a_node4"><a xlink:href="../../d9/d79/classprolog_1_1io_1_1Lexer_a4cfb6744572df2bf663b200438b38f6f.html#a4cfb6744572df2bf663b200438b38f6f" target="_top" xlink:title="prolog.io.Lexer.char2string">
<polygon fill="none" stroke="black" points="477,-190.5 477,-209.5 608,-209.5 608,-190.5 477,-190.5"/>
<text text-anchor="middle" x="542.5" y="-197.5" font-family="Helvetica,sans-Serif" font-size="10.00">prolog.io.Lexer.char2string</text>
</a>
</g>
</g>
<!-- Node3&#45;&gt;Node4 -->
<g id="edge3" class="edge"><title>Node3&#45;&gt;Node4</title>
<path fill="none" stroke="midnightblue" d="M415.813,-152.598C432.978,-159.219 456.356,-168.199 477,-176 486.456,-179.574 496.708,-183.407 506.195,-186.937"/>
<polygon fill="midnightblue" stroke="midnightblue" points="505.148,-190.282 515.741,-190.483 507.586,-183.72 505.148,-190.282"/>
</g>
<!-- Node5 -->
<g id="node5" class="node"><title>Node5</title>
<g id="a_node5"><a xlink:href="../../d9/d79/classprolog_1_1io_1_1Lexer_a9fbdd67572706c48a026047f818f2e7a.html#a9fbdd67572706c48a026047f818f2e7a" target="_top" xlink:title="prolog.io.Lexer.getWord">
<polygon fill="none" stroke="black" points="482.5,-114.5 482.5,-133.5 602.5,-133.5 602.5,-114.5 482.5,-114.5"/>
<text text-anchor="middle" x="542.5" y="-121.5" font-family="Helvetica,sans-Serif" font-size="10.00">prolog.io.Lexer.getWord</text>
</a>
</g>
</g>
<!-- Node3&#45;&gt;Node5 -->
<g id="edge4" class="edge"><title>Node3&#45;&gt;Node5</title>
<path fill="none" stroke="midnightblue" d="M441.114,-136.673C451.158,-135.405 461.877,-134.052 472.433,-132.719"/>
<polygon fill="midnightblue" stroke="midnightblue" points="472.993,-136.177 482.476,-131.452 472.116,-129.232 472.993,-136.177"/>
</g>
<!-- Node6 -->
<g id="node6" class="node"><title>Node6</title>
<g id="a_node6"><a xlink:href="../../d9/d79/classprolog_1_1io_1_1Lexer_ae4ec88cd8a3650b3d9af2b4f5e7a9bbc.html#ae4ec88cd8a3650b3d9af2b4f5e7a9bbc" target="_top" xlink:title="prolog.io.Lexer.make\l_const">
<polygon fill="none" stroke="black" points="654.5,-153 654.5,-183 761.5,-183 761.5,-153 654.5,-153"/>
<text text-anchor="start" x="662.5" y="-171" font-family="Helvetica,sans-Serif" font-size="10.00">prolog.io.Lexer.make</text>
<text text-anchor="middle" x="708" y="-160" font-family="Helvetica,sans-Serif" font-size="10.00">_const</text>
</a>
</g>
</g>
<!-- Node3&#45;&gt;Node6 -->
<g id="edge14" class="edge"><title>Node3&#45;&gt;Node6</title>
<path fill="none" stroke="midnightblue" d="M441.071,-146.961C496.101,-151.315 584.589,-158.316 644.219,-163.033"/>
<polygon fill="midnightblue" stroke="midnightblue" points="644.022,-166.528 654.266,-163.828 644.574,-159.55 644.022,-166.528"/>
</g>
<!-- Node14 -->
<g id="node14" class="node"><title>Node14</title>
<g id="a_node14"><a xlink:href="../../d9/d79/classprolog_1_1io_1_1Lexer_a0575f9ce24d7bdce0ed6f08903d57061.html#a0575f9ce24d7bdce0ed6f08903d57061" target="_top" xlink:title="prolog.io.Lexer.make\l_number">
<polygon fill="none" stroke="black" points="489,-33 489,-63 596,-63 596,-33 489,-33"/>
<text text-anchor="start" x="497" y="-51" font-family="Helvetica,sans-Serif" font-size="10.00">prolog.io.Lexer.make</text>
<text text-anchor="middle" x="542.5" y="-40" font-family="Helvetica,sans-Serif" font-size="10.00">_number</text>
</a>
</g>
</g>
<!-- Node3&#45;&gt;Node14 -->
<g id="edge15" class="edge"><title>Node3&#45;&gt;Node14</title>
<path fill="none" stroke="midnightblue" d="M406.259,-133.368C430.235,-118.234 477.267,-88.5454 509.046,-68.4859"/>
<polygon fill="midnightblue" stroke="midnightblue" points="510.985,-71.401 517.573,-63.1035 507.248,-65.4816 510.985,-71.401"/>
</g>
<!-- Node5&#45;&gt;Node6 -->
<g id="edge5" class="edge"><title>Node5&#45;&gt;Node6</title>
<path fill="none" stroke="midnightblue" d="M578.977,-133.547C598.121,-138.699 622.313,-145.21 644.5,-151.18"/>
<polygon fill="midnightblue" stroke="midnightblue" points="643.629,-154.57 654.195,-153.789 645.448,-147.811 643.629,-154.57"/>
</g>
<!-- Node7 -->
<g id="node7" class="node"><title>Node7</title>
<g id="a_node7"><a xlink:href="../../d9/d79/classprolog_1_1io_1_1Lexer_a6c9bf5b9540046d85bedfd6b9cf12d39.html#a6c9bf5b9540046d85bedfd6b9cf12d39" target="_top" xlink:title="prolog.io.Lexer.make_fun">
<polygon fill="none" stroke="black" points="645,-114.5 645,-133.5 771,-133.5 771,-114.5 645,-114.5"/>
<text text-anchor="middle" x="708" y="-121.5" font-family="Helvetica,sans-Serif" font-size="10.00">prolog.io.Lexer.make_fun</text>
</a>
</g>
</g>
<!-- Node5&#45;&gt;Node7 -->
<g id="edge6" class="edge"><title>Node5&#45;&gt;Node7</title>
<path fill="none" stroke="midnightblue" d="M602.527,-124C612.925,-124 623.855,-124 634.569,-124"/>
<polygon fill="midnightblue" stroke="midnightblue" points="634.75,-127.5 644.75,-124 634.75,-120.5 634.75,-127.5"/>
</g>
<!-- Node8 -->
<g id="node8" class="node"><title>Node8</title>
<g id="a_node8"><a xlink:href="../../d9/d79/classprolog_1_1io_1_1Lexer_acdaa35637088cc7ae8decb0f6e0f8caa.html#acdaa35637088cc7ae8decb0f6e0f8caa" target="_top" xlink:title="prolog.io.Lexer.make_var">
<polygon fill="none" stroke="black" points="645,-76.5 645,-95.5 771,-95.5 771,-76.5 645,-76.5"/>
<text text-anchor="middle" x="708" y="-83.5" font-family="Helvetica,sans-Serif" font-size="10.00">prolog.io.Lexer.make_var</text>
</a>
</g>
</g>
<!-- Node5&#45;&gt;Node8 -->
<g id="edge7" class="edge"><title>Node5&#45;&gt;Node8</title>
<path fill="none" stroke="midnightblue" d="M584.758,-114.411C606.431,-109.374 633.183,-103.156 656.13,-97.8229"/>
<polygon fill="midnightblue" stroke="midnightblue" points="657.091,-101.193 666.039,-95.5201 655.506,-94.3748 657.091,-101.193"/>
</g>
<!-- Node9 -->
<g id="node9" class="node"><title>Node9</title>
<g id="a_node9"><a xlink:href="../../d1/d12/classprolog_1_1terms_1_1Var_acfca7d3a30509a6a0761be57e408cfad.html#acfca7d3a30509a6a0761be57e408cfad" target="_top" xlink:title="prolog.terms.Var.toString">
<polygon fill="none" stroke="black" points="808,-76.5 808,-95.5 933,-95.5 933,-76.5 808,-76.5"/>
<text text-anchor="middle" x="870.5" y="-83.5" font-family="Helvetica,sans-Serif" font-size="10.00">prolog.terms.Var.toString</text>
</a>
</g>
</g>
<!-- Node8&#45;&gt;Node9 -->
<g id="edge8" class="edge"><title>Node8&#45;&gt;Node9</title>
<path fill="none" stroke="midnightblue" d="M771.053,-86C779.834,-86 788.921,-86 797.864,-86"/>
<polygon fill="midnightblue" stroke="midnightblue" points="797.876,-89.5001 807.876,-86 797.876,-82.5001 797.876,-89.5001"/>
</g>
<!-- Node10 -->
<g id="node10" class="node"><title>Node10</title>
<g id="a_node10"><a xlink:href="../../d1/d12/classprolog_1_1terms_1_1Var_a2194ec6eec940cc349b828f6fefcf242.html#a2194ec6eec940cc349b828f6fefcf242" target="_top" xlink:title="prolog.terms.Var.unbound">
<polygon fill="none" stroke="black" points="1121,-95.5 1121,-114.5 1249,-114.5 1249,-95.5 1121,-95.5"/>
<text text-anchor="middle" x="1185" y="-102.5" font-family="Helvetica,sans-Serif" font-size="10.00">prolog.terms.Var.unbound</text>
</a>
</g>
</g>
<!-- Node9&#45;&gt;Node10 -->
<g id="edge9" class="edge"><title>Node9&#45;&gt;Node10</title>
<path fill="none" stroke="midnightblue" d="M911.094,-95.5104C928.709,-99.2755 949.774,-103.144 969,-105 1016.02,-109.539 1069.1,-109.59 1110.75,-108.481"/>
<polygon fill="midnightblue" stroke="midnightblue" points="1110.92,-111.978 1120.81,-108.185 1110.72,-104.981 1110.92,-111.978"/>
</g>
<!-- Node11 -->
<g id="node11" class="node"><title>Node11</title>
<g id="a_node11"><a xlink:href="../../d1/d12/classprolog_1_1terms_1_1Var_ac525ffcba1be06da9b81dcdb2605eaf6.html#ac525ffcba1be06da9b81dcdb2605eaf6" target="_top" xlink:title="prolog.terms.Var.name">
<polygon fill="none" stroke="black" points="969,-76.5 969,-95.5 1085,-95.5 1085,-76.5 969,-76.5"/>
<text text-anchor="middle" x="1027" y="-83.5" font-family="Helvetica,sans-Serif" font-size="10.00">prolog.terms.Var.name</text>
</a>
</g>
</g>
<!-- Node9&#45;&gt;Node11 -->
<g id="edge10" class="edge"><title>Node9&#45;&gt;Node11</title>
<path fill="none" stroke="midnightblue" d="M933.006,-86C941.382,-86 950.015,-86 958.49,-86"/>
<polygon fill="midnightblue" stroke="midnightblue" points="958.72,-89.5001 968.72,-86 958.72,-82.5001 958.72,-89.5001"/>
</g>
<!-- Node12 -->
<g id="node12" class="node"><title>Node12</title>
<g id="a_node12"><a xlink:href="../../d1/d12/classprolog_1_1terms_1_1Var_a87e5778e2b3535a88d8750f0776fb900.html#a87e5778e2b3535a88d8750f0776fb900" target="_top" xlink:title="prolog.terms.Var.ref">
<polygon fill="none" stroke="black" points="975.5,-38.5 975.5,-57.5 1078.5,-57.5 1078.5,-38.5 975.5,-38.5"/>
<text text-anchor="middle" x="1027" y="-45.5" font-family="Helvetica,sans-Serif" font-size="10.00">prolog.terms.Var.ref</text>
</a>
</g>
</g>
<!-- Node9&#45;&gt;Node12 -->
<g id="edge11" class="edge"><title>Node9&#45;&gt;Node12</title>
<path fill="none" stroke="midnightblue" d="M910.487,-76.411C930.783,-71.4191 955.793,-65.2676 977.346,-59.9666"/>
<polygon fill="midnightblue" stroke="midnightblue" points="978.419,-63.3072 987.293,-57.5201 976.747,-56.5098 978.419,-63.3072"/>
</g>
<!-- Node12&#45;&gt;Node10 -->
<g id="edge12" class="edge"><title>Node12&#45;&gt;Node10</title>
<path fill="none" stroke="midnightblue" d="M1057.38,-57.5133C1066.28,-60.471 1076.06,-63.7976 1085,-67 1106.99,-74.8808 1131.5,-84.2844 1150.63,-91.7655"/>
<polygon fill="midnightblue" stroke="midnightblue" points="1149.52,-95.0878 1160.11,-95.484 1152.08,-88.5719 1149.52,-95.0878"/>
</g>
<!-- Node13 -->
<g id="node13" class="node"><title>Node13</title>
<g id="a_node13"><a xlink:href="../../d3/ded/classprolog_1_1terms_1_1Term_ae140fac2c9d066dc897fcfa723060a7a.html#ae140fac2c9d066dc897fcfa723060a7a" target="_top" xlink:title="Dereferences if necessary. ">
<polygon fill="none" stroke="black" points="1130,-38.5 1130,-57.5 1240,-57.5 1240,-38.5 1130,-38.5"/>
<text text-anchor="middle" x="1185" y="-45.5" font-family="Helvetica,sans-Serif" font-size="10.00">prolog.terms.Term.ref</text>
</a>
</g>
</g>
<!-- Node12&#45;&gt;Node13 -->
<g id="edge13" class="edge"><title>Node12&#45;&gt;Node13</title>
<path fill="none" stroke="midnightblue" d="M1078.65,-48C1091.69,-48 1105.91,-48 1119.55,-48"/>
<polygon fill="midnightblue" stroke="midnightblue" points="1119.84,-51.5001 1129.84,-48 1119.84,-44.5001 1119.84,-51.5001"/>
</g>
<!-- Node15 -->
<g id="node15" class="node"><title>Node15</title>
<g id="a_node15"><a xlink:href="../../d9/d79/classprolog_1_1io_1_1Lexer_aa7b44ceb64d095b1342b77ff73e28e58.html#aa7b44ceb64d095b1342b77ff73e28e58" target="_top" xlink:title="prolog.io.Lexer.make_int">
<polygon fill="none" stroke="black" points="646.5,-38.5 646.5,-57.5 769.5,-57.5 769.5,-38.5 646.5,-38.5"/>
<text text-anchor="middle" x="708" y="-45.5" font-family="Helvetica,sans-Serif" font-size="10.00">prolog.io.Lexer.make_int</text>
</a>
</g>
</g>
<!-- Node14&#45;&gt;Node15 -->
<g id="edge16" class="edge"><title>Node14&#45;&gt;Node15</title>
<path fill="none" stroke="midnightblue" d="M596.132,-48C608.853,-48 622.656,-48 636.063,-48"/>
<polygon fill="midnightblue" stroke="midnightblue" points="636.215,-51.5001 646.215,-48 636.215,-44.5001 636.215,-51.5001"/>
</g>
<!-- Node16 -->
<g id="node16" class="node"><title>Node16</title>
<g id="a_node16"><a xlink:href="../../d9/d79/classprolog_1_1io_1_1Lexer_aa712569cb1f11c42f18982b57dd13832.html#aa712569cb1f11c42f18982b57dd13832" target="_top" xlink:title="prolog.io.Lexer.make_real">
<polygon fill="none" stroke="black" points="644,-0.5 644,-19.5 772,-19.5 772,-0.5 644,-0.5"/>
<text text-anchor="middle" x="708" y="-7.5" font-family="Helvetica,sans-Serif" font-size="10.00">prolog.io.Lexer.make_real</text>
</a>
</g>
</g>
<!-- Node14&#45;&gt;Node16 -->
<g id="edge17" class="edge"><title>Node14&#45;&gt;Node16</title>
<path fill="none" stroke="midnightblue" d="M596.132,-35.7674C615.282,-31.3167 636.884,-26.2962 655.898,-21.8768"/>
<polygon fill="midnightblue" stroke="midnightblue" points="656.923,-25.2321 665.871,-19.5591 655.338,-18.4139 656.923,-25.2321"/>
</g>
</g>
</svg>
