<?xml version="1.0" encoding="UTF-8" standalone="no"?>
<!DOCTYPE svg PUBLIC "-//W3C//DTD SVG 1.1//EN"
 "http://www.w3.org/Graphics/SVG/1.1/DTD/svg11.dtd">
<!-- Generated by graphviz version 2.38.0 (20140413.2041)
 -->
<!-- Title: prolog.builtins.merge_sources.exec Pages: 1 -->
<svg width="615pt" height="142pt"
 viewBox="0.00 0.00 615.00 142.00" xmlns="http://www.w3.org/2000/svg" xmlns:xlink="http://www.w3.org/1999/xlink">
<g id="graph0" class="graph" transform="scale(1 1) rotate(0) translate(4 138)">
<title>prolog.builtins.merge_sources.exec</title>
<!-- Node1 -->
<g id="node1" class="node"><title>Node1</title>
<polygon fill="#bfbfbf" stroke="black" points="0,-71 0,-101 107,-101 107,-71 0,-71"/>
<text text-anchor="start" x="8" y="-89" font-family="Helvetica,sans-Serif" font-size="10.00">prolog.builtins.merge</text>
<text text-anchor="middle" x="53.5" y="-78" font-family="Helvetica,sans-Serif" font-size="10.00">_sources.exec</text>
</g>
<!-- Node2 -->
<g id="node2" class="node"><title>Node2</title>
<g id="a_node2"><a xlink:href="../../d0/d3f/classprolog_1_1terms_1_1Const_a2f00757ecfe3ace23e67c5537c34cfbd.html#a2f00757ecfe3ace23e67c5537c34cfbd" target="_top" xlink:title="prolog.terms.Const.Const">
<polygon fill="none" stroke="black" points="143,-114.5 143,-133.5 272,-133.5 272,-114.5 143,-114.5"/>
<text text-anchor="middle" x="207.5" y="-121.5" font-family="Helvetica,sans-Serif" font-size="10.00">prolog.terms.Const.Const</text>
</a>
</g>
</g>
<!-- Node1&#45;&gt;Node2 -->
<g id="edge1" class="edge"><title>Node1&#45;&gt;Node2</title>
<path fill="none" stroke="midnightblue" d="M107.236,-99.1839C123.851,-103.338 142.109,-107.902 158.385,-111.971"/>
<polygon fill="midnightblue" stroke="midnightblue" points="157.681,-115.403 168.231,-114.433 159.379,-108.612 157.681,-115.403"/>
</g>
<!-- Node3 -->
<g id="node3" class="node"><title>Node3</title>
<g id="a_node3"><a xlink:href="../../de/d8d/classprolog_1_1terms_1_1Fun_a95f487cd7555adbc0ae1a08076a0404d.html#a95f487cd7555adbc0ae1a08076a0404d" target="_top" xlink:title="prolog.terms.Fun.getArg">
<polygon fill="none" stroke="black" points="311.5,-76.5 311.5,-95.5 433.5,-95.5 433.5,-76.5 311.5,-76.5"/>
<text text-anchor="middle" x="372.5" y="-83.5" font-family="Helvetica,sans-Serif" font-size="10.00">prolog.terms.Fun.getArg</text>
</a>
</g>
</g>
<!-- Node1&#45;&gt;Node3 -->
<g id="edge2" class="edge"><title>Node1&#45;&gt;Node3</title>
<path fill="none" stroke="midnightblue" d="M107.202,-86C160.266,-86 242.445,-86 301.071,-86"/>
<polygon fill="midnightblue" stroke="midnightblue" points="301.365,-89.5001 311.365,-86 301.365,-82.5001 301.365,-89.5001"/>
</g>
<!-- Node5 -->
<g id="node5" class="node"><title>Node5</title>
<g id="a_node5"><a xlink:href="../../de/d8d/classprolog_1_1terms_1_1Fun_a408f688b791b731a83c6a41a8ee32fb0.html#a408f688b791b731a83c6a41a8ee32fb0" target="_top" xlink:title="prolog.terms.Fun.putArg">
<polygon fill="none" stroke="black" points="146.5,-38.5 146.5,-57.5 268.5,-57.5 268.5,-38.5 146.5,-38.5"/>
<text text-anchor="middle" x="207.5" y="-45.5" font-family="Helvetica,sans-Serif" font-size="10.00">prolog.terms.Fun.putArg</text>
</a>
</g>
</g>
<!-- Node1&#45;&gt;Node5 -->
<g id="edge4" class="edge"><title>Node1&#45;&gt;Node5</title>
<path fill="none" stroke="midnightblue" d="M107.236,-72.8161C123.851,-68.6622 142.109,-64.0978 158.385,-60.0287"/>
<polygon fill="midnightblue" stroke="midnightblue" points="159.379,-63.3881 168.231,-57.5672 157.681,-56.5971 159.379,-63.3881"/>
</g>
<!-- Node4 -->
<g id="node4" class="node"><title>Node4</title>
<g id="a_node4"><a xlink:href="../../d3/ded/classprolog_1_1terms_1_1Term_ae140fac2c9d066dc897fcfa723060a7a.html#ae140fac2c9d066dc897fcfa723060a7a" target="_top" xlink:title="Dereferences if necessary. ">
<polygon fill="none" stroke="black" points="485,-76.5 485,-95.5 595,-95.5 595,-76.5 485,-76.5"/>
<text text-anchor="middle" x="540" y="-83.5" font-family="Helvetica,sans-Serif" font-size="10.00">prolog.terms.Term.ref</text>
</a>
</g>
</g>
<!-- Node3&#45;&gt;Node4 -->
<g id="edge3" class="edge"><title>Node3&#45;&gt;Node4</title>
<path fill="none" stroke="midnightblue" d="M433.717,-86C447.048,-86 461.223,-86 474.709,-86"/>
<polygon fill="midnightblue" stroke="midnightblue" points="474.862,-89.5001 484.862,-86 474.862,-82.5001 474.862,-89.5001"/>
</g>
<!-- Node6 -->
<g id="node6" class="node"><title>Node6</title>
<g id="a_node6"><a xlink:href="../../d3/ded/classprolog_1_1terms_1_1Term_a84d8fb7e1f816d0dbe3c2c56ed28fdb9.html#a84d8fb7e1f816d0dbe3c2c56ed28fdb9" target="_top" xlink:title="Dereference and unify_to. ">
<polygon fill="none" stroke="black" points="312.5,-38.5 312.5,-57.5 432.5,-57.5 432.5,-38.5 312.5,-38.5"/>
<text text-anchor="middle" x="372.5" y="-45.5" font-family="Helvetica,sans-Serif" font-size="10.00">prolog.terms.Term.unify</text>
</a>
</g>
</g>
<!-- Node5&#45;&gt;Node6 -->
<g id="edge5" class="edge"><title>Node5&#45;&gt;Node6</title>
<path fill="none" stroke="midnightblue" d="M268.732,-48C279.633,-48 291.08,-48 302.216,-48"/>
<polygon fill="midnightblue" stroke="midnightblue" points="302.33,-51.5001 312.33,-48 302.33,-44.5001 302.33,-51.5001"/>
</g>
<!-- Node8 -->
<g id="node8" class="node"><title>Node8</title>
<g id="a_node8"><a xlink:href="../../d4/d26/classprolog_1_1terms_1_1Prog_a41eac8617a5002806d7137eb36183405.html#a41eac8617a5002806d7137eb36183405" target="_top" xlink:title="prolog.terms.Prog.getTrail">
<polygon fill="none" stroke="black" points="308,-0.5 308,-19.5 437,-19.5 437,-0.5 308,-0.5"/>
<text text-anchor="middle" x="372.5" y="-7.5" font-family="Helvetica,sans-Serif" font-size="10.00">prolog.terms.Prog.getTrail</text>
</a>
</g>
</g>
<!-- Node5&#45;&gt;Node8 -->
<g id="edge8" class="edge"><title>Node5&#45;&gt;Node8</title>
<path fill="none" stroke="midnightblue" d="M249.632,-38.411C271.238,-33.3739 297.909,-27.1562 320.786,-21.8229"/>
<polygon fill="midnightblue" stroke="midnightblue" points="321.72,-25.1991 330.664,-19.5201 320.13,-18.3819 321.72,-25.1991"/>
</g>
<!-- Node6&#45;&gt;Node4 -->
<g id="edge6" class="edge"><title>Node6&#45;&gt;Node4</title>
<path fill="none" stroke="midnightblue" d="M415.263,-57.589C437.201,-62.6261 464.28,-68.8438 487.508,-74.1771"/>
<polygon fill="midnightblue" stroke="midnightblue" points="487.008,-77.6533 497.538,-76.4799 488.575,-70.8308 487.008,-77.6533"/>
</g>
<!-- Node7 -->
<g id="node7" class="node"><title>Node7</title>
<g id="a_node7"><a xlink:href="../../d3/ded/classprolog_1_1terms_1_1Term_a866b2cca50e77e99b560578b2fa3a91a.html#a866b2cca50e77e99b560578b2fa3a91a" target="_top" xlink:title="Unify dereferenced. ">
<polygon fill="none" stroke="black" points="473,-38.5 473,-57.5 607,-57.5 607,-38.5 473,-38.5"/>
<text text-anchor="middle" x="540" y="-45.5" font-family="Helvetica,sans-Serif" font-size="10.00">prolog.terms.Term.unify_to</text>
</a>
</g>
</g>
<!-- Node6&#45;&gt;Node7 -->
<g id="edge7" class="edge"><title>Node6&#45;&gt;Node7</title>
<path fill="none" stroke="midnightblue" d="M432.782,-48C442.521,-48 452.732,-48 462.813,-48"/>
<polygon fill="midnightblue" stroke="midnightblue" points="462.828,-51.5001 472.828,-48 462.828,-44.5001 462.828,-51.5001"/>
</g>
</g>
</svg>
