<?xml version="1.0" encoding="UTF-8" standalone="no"?>
<!DOCTYPE svg PUBLIC "-//W3C//DTD SVG 1.1//EN"
 "http://www.w3.org/Graphics/SVG/1.1/DTD/svg11.dtd">
<!-- Generated by graphviz version 2.38.0 (20140413.2041)
 -->
<!-- Title: prolog.builtins.put.exec Pages: 1 -->
<svg width="741pt" height="142pt"
 viewBox="0.00 0.00 741.00 142.00" xmlns="http://www.w3.org/2000/svg" xmlns:xlink="http://www.w3.org/1999/xlink">
<g id="graph0" class="graph" transform="scale(1 1) rotate(0) translate(4 138)">
<title>prolog.builtins.put.exec</title>
<!-- Node1 -->
<g id="node1" class="node"><title>Node1</title>
<polygon fill="#bfbfbf" stroke="black" points="0,-38.5 0,-57.5 117,-57.5 117,-38.5 0,-38.5"/>
<text text-anchor="middle" x="58.5" y="-45.5" font-family="Helvetica,sans-Serif" font-size="10.00">prolog.builtins.put.exec</text>
</g>
<!-- Node2 -->
<g id="node2" class="node"><title>Node2</title>
<g id="a_node2"><a xlink:href="../../d4/dc2/classprolog_1_1io_1_1IO_ab6e0553457312c4804472cbe1c646a28.html#ab6e0553457312c4804472cbe1c646a28" target="_top" xlink:title="prolog.io.IO.errmes">
<polygon fill="none" stroke="black" points="176,-76.5 176,-95.5 276,-95.5 276,-76.5 176,-76.5"/>
<text text-anchor="middle" x="226" y="-83.5" font-family="Helvetica,sans-Serif" font-size="10.00">prolog.io.IO.errmes</text>
</a>
</g>
</g>
<!-- Node1&#45;&gt;Node2 -->
<g id="edge1" class="edge"><title>Node1&#45;&gt;Node2</title>
<path fill="none" stroke="midnightblue" d="M101.263,-57.589C123.201,-62.6261 150.28,-68.8438 173.508,-74.1771"/>
<polygon fill="midnightblue" stroke="midnightblue" points="173.008,-77.6533 183.538,-76.4799 174.575,-70.8308 173.008,-77.6533"/>
</g>
<!-- Node7 -->
<g id="node7" class="node"><title>Node7</title>
<g id="a_node7"><a xlink:href="../../de/d8d/classprolog_1_1terms_1_1Fun_a95f487cd7555adbc0ae1a08076a0404d.html#a95f487cd7555adbc0ae1a08076a0404d" target="_top" xlink:title="prolog.terms.Fun.getArg">
<polygon fill="none" stroke="black" points="165,-38.5 165,-57.5 287,-57.5 287,-38.5 165,-38.5"/>
<text text-anchor="middle" x="226" y="-45.5" font-family="Helvetica,sans-Serif" font-size="10.00">prolog.terms.Fun.getArg</text>
</a>
</g>
</g>
<!-- Node1&#45;&gt;Node7 -->
<g id="edge6" class="edge"><title>Node1&#45;&gt;Node7</title>
<path fill="none" stroke="midnightblue" d="M117.384,-48C129.4,-48 142.187,-48 154.595,-48"/>
<polygon fill="midnightblue" stroke="midnightblue" points="154.903,-51.5001 164.903,-48 154.903,-44.5001 154.903,-51.5001"/>
</g>
<!-- Node9 -->
<g id="node9" class="node"><title>Node9</title>
<g id="a_node9"><a xlink:href="../../d9/de8/classprolog_1_1terms_1_1Sink_a354d7fe329ca54d94831ca7ace97ade1.html#a354d7fe329ca54d94831ca7ace97ade1" target="_top" xlink:title="prolog.terms.Sink.putElement">
<polygon fill="none" stroke="black" points="153,-0.5 153,-19.5 299,-19.5 299,-0.5 153,-0.5"/>
<text text-anchor="middle" x="226" y="-7.5" font-family="Helvetica,sans-Serif" font-size="10.00">prolog.terms.Sink.putElement</text>
</a>
</g>
</g>
<!-- Node1&#45;&gt;Node9 -->
<g id="edge8" class="edge"><title>Node1&#45;&gt;Node9</title>
<path fill="none" stroke="midnightblue" d="M101.263,-38.411C123.201,-33.3739 150.28,-27.1562 173.508,-21.8229"/>
<polygon fill="midnightblue" stroke="midnightblue" points="174.575,-25.1692 183.538,-19.5201 173.008,-18.3467 174.575,-25.1692"/>
</g>
<!-- Node3 -->
<g id="node3" class="node"><title>Node3</title>
<g id="a_node3"><a xlink:href="../../d4/dc2/classprolog_1_1io_1_1IO_ad851906c6ebd6559eb1b1fa52e26dabb.html#ad851906c6ebd6559eb1b1fa52e26dabb" target="_top" xlink:title="prolog.io.IO.println">
<polygon fill="none" stroke="black" points="351,-114.5 351,-133.5 447,-133.5 447,-114.5 351,-114.5"/>
<text text-anchor="middle" x="399" y="-121.5" font-family="Helvetica,sans-Serif" font-size="10.00">prolog.io.IO.println</text>
</a>
</g>
</g>
<!-- Node2&#45;&gt;Node3 -->
<g id="edge2" class="edge"><title>Node2&#45;&gt;Node3</title>
<path fill="none" stroke="midnightblue" d="M270.151,-95.589C292.919,-100.649 321.048,-106.9 345.119,-112.249"/>
<polygon fill="midnightblue" stroke="midnightblue" points="344.639,-115.727 355.16,-114.48 346.157,-108.894 344.639,-115.727"/>
</g>
<!-- Node6 -->
<g id="node6" class="node"><title>Node6</title>
<g id="a_node6"><a xlink:href="../../d4/dc2/classprolog_1_1io_1_1IO_a22a9a2bfe9fa6e00257369f5bf078a44.html#a22a9a2bfe9fa6e00257369f5bf078a44" target="_top" xlink:title="prolog.io.IO.getStdOutput">
<polygon fill="none" stroke="black" points="335,-76.5 335,-95.5 463,-95.5 463,-76.5 335,-76.5"/>
<text text-anchor="middle" x="399" y="-83.5" font-family="Helvetica,sans-Serif" font-size="10.00">prolog.io.IO.getStdOutput</text>
</a>
</g>
</g>
<!-- Node2&#45;&gt;Node6 -->
<g id="edge5" class="edge"><title>Node2&#45;&gt;Node6</title>
<path fill="none" stroke="midnightblue" d="M276.002,-86C291.203,-86 308.3,-86 324.776,-86"/>
<polygon fill="midnightblue" stroke="midnightblue" points="324.931,-89.5001 334.931,-86 324.931,-82.5001 324.931,-89.5001"/>
</g>
<!-- Node4 -->
<g id="node4" class="node"><title>Node4</title>
<g id="a_node4"><a xlink:href="../../d4/dc2/classprolog_1_1io_1_1IO_aab64872af087c6cd9c5dd13e9f4eda00.html#aab64872af087c6cd9c5dd13e9f4eda00" target="_top" xlink:title="prolog.io.IO.print">
<polygon fill="none" stroke="black" points="499,-114.5 499,-133.5 588,-133.5 588,-114.5 499,-114.5"/>
<text text-anchor="middle" x="543.5" y="-121.5" font-family="Helvetica,sans-Serif" font-size="10.00">prolog.io.IO.print</text>
</a>
</g>
</g>
<!-- Node3&#45;&gt;Node4 -->
<g id="edge3" class="edge"><title>Node3&#45;&gt;Node4</title>
<path fill="none" stroke="midnightblue" d="M447.055,-124C460.363,-124 474.948,-124 488.625,-124"/>
<polygon fill="midnightblue" stroke="midnightblue" points="488.869,-127.5 498.869,-124 488.869,-120.5 488.869,-127.5"/>
</g>
<!-- Node5 -->
<g id="node5" class="node"><title>Node5</title>
<g id="a_node5"><a xlink:href="../../d6/d92/interfaceprolog_1_1io_1_1IOPeer_abc1f90b85b358011e2595069d38ac25f.html#abc1f90b85b358011e2595069d38ac25f" target="_top" xlink:title="prolog.io.IOPeer.print">
<polygon fill="none" stroke="black" points="624,-114.5 624,-133.5 733,-133.5 733,-114.5 624,-114.5"/>
<text text-anchor="middle" x="678.5" y="-121.5" font-family="Helvetica,sans-Serif" font-size="10.00">prolog.io.IOPeer.print</text>
</a>
</g>
</g>
<!-- Node4&#45;&gt;Node5 -->
<g id="edge4" class="edge"><title>Node4&#45;&gt;Node5</title>
<path fill="none" stroke="midnightblue" d="M588.049,-124C596.217,-124 604.911,-124 613.548,-124"/>
<polygon fill="midnightblue" stroke="midnightblue" points="613.626,-127.5 623.625,-124 613.625,-120.5 613.626,-127.5"/>
</g>
<!-- Node8 -->
<g id="node8" class="node"><title>Node8</title>
<g id="a_node8"><a xlink:href="../../d3/ded/classprolog_1_1terms_1_1Term_ae140fac2c9d066dc897fcfa723060a7a.html#ae140fac2c9d066dc897fcfa723060a7a" target="_top" xlink:title="Dereferences if necessary. ">
<polygon fill="none" stroke="black" points="344,-38.5 344,-57.5 454,-57.5 454,-38.5 344,-38.5"/>
<text text-anchor="middle" x="399" y="-45.5" font-family="Helvetica,sans-Serif" font-size="10.00">prolog.terms.Term.ref</text>
</a>
</g>
</g>
<!-- Node7&#45;&gt;Node8 -->
<g id="edge7" class="edge"><title>Node7&#45;&gt;Node8</title>
<path fill="none" stroke="midnightblue" d="M287.288,-48C302.289,-48 318.426,-48 333.615,-48"/>
<polygon fill="midnightblue" stroke="midnightblue" points="333.953,-51.5001 343.953,-48 333.953,-44.5001 333.953,-51.5001"/>
</g>
</g>
</svg>
