<?xml version="1.0" encoding="UTF-8" standalone="no"?>
<!DOCTYPE svg PUBLIC "-//W3C//DTD SVG 1.1//EN"
 "http://www.w3.org/Graphics/SVG/1.1/DTD/svg11.dtd">
<!-- Generated by graphviz version 2.38.0 (20140413.2041)
 -->
<!-- Title: prolog.builtins.chars_to_name.exec Pages: 1 -->
<!--zoomable 211 -->
<svg id="main" version="1.1" xmlns="http://www.w3.org/2000/svg" xmlns:xlink="http://www.w3.org/1999/xlink" xml:space="preserve" onload="init(evt)">
<style type="text/css"><![CDATA[
.edge:hover path { stroke: red; }
.edge:hover polygon { stroke: red; fill: red; }
]]></style>
<script type="text/javascript"><![CDATA[
var edges = document.getElementsByTagName('g');
if (edges && edges.length) {
  for (var i=0;i<edges.length;i++) {
    if (edges[i].id.substr(0,4)=='edge') {
      edges[i].setAttribute('class','edge');
    }
  }
}
]]></script>
        <defs>
                <circle id="rim" cx="0" cy="0" r="7"/>
                <circle id="rim2" cx="0" cy="0" r="3.5"/>
                <g id="zoomPlus">
                        <use xlink:href="#rim" fill="#404040">
                                <set attributeName="fill" to="#808080" begin="zoomplus.mouseover" end="zoomplus.mouseout"/>
                        </use>
                        <path d="M-4,0h8M0,-4v8" fill="none" stroke="white" stroke-width="1.5" pointer-events="none"/>
                </g>
                <g id="zoomMin">
                        <use xlink:href="#rim" fill="#404040">
                                <set attributeName="fill" to="#808080" begin="zoomminus.mouseover" end="zoomminus.mouseout"/>
                        </use>
                        <path d="M-4,0h8" fill="none" stroke="white" stroke-width="1.5" pointer-events="none"/>
                </g>
                <g id="dirArrow">
                        <path fill="none" stroke="white" stroke-width="1.5" d="M0,-3.0v7 M-2.5,-0.5L0,-3.0L2.5,-0.5"/>
                </g>
               <g id="resetDef">
                       <use xlink:href="#rim2" fill="#404040">
                               <set attributeName="fill" to="#808080" begin="reset.mouseover" end="reset.mouseout"/>
                       </use>
               </g>
        </defs>

<script type="text/javascript">
var viewWidth = 617;
var viewHeight = 211;
var sectionId = 'dynsection-0';
</script>
<script xlink:href="../../svgpan.js"/>
<svg id="graph" class="graph">
<g id="viewport">
<title>prolog.builtins.chars_to_name.exec</title>
<!-- Node1 -->
<g id="node1" class="node"><title>Node1</title>
<polygon fill="#bfbfbf" stroke="black" points="0,-90 0,-120 104,-120 104,-90 0,-90"/>
<text text-anchor="start" x="8" y="-108" font-family="Helvetica,sans-Serif" font-size="10.00">prolog.builtins.chars</text>
<text text-anchor="middle" x="52" y="-97" font-family="Helvetica,sans-Serif" font-size="10.00">_to_name.exec</text>
</g>
<!-- Node2 -->
<g id="node2" class="node"><title>Node2</title>
<g id="a_node2"><a xlink:href="../../d3/ded/classprolog_1_1terms_1_1Term_a102e57cc4b81a28b6054da6c782be3da.html#a102e57cc4b81a28b6054da6c782be3da" target="_top" xlink:title="Converts a list of character codes to a String. ">
<polygon fill="none" stroke="black" points="140,-172 140,-202 274,-202 274,-172 140,-172"/>
<text text-anchor="start" x="148" y="-190" font-family="Helvetica,sans-Serif" font-size="10.00">prolog.terms.Term.charsTo</text>
<text text-anchor="middle" x="207" y="-179" font-family="Helvetica,sans-Serif" font-size="10.00">String</text>
</a>
</g>
</g>
<!-- Node1&#45;&gt;Node2 -->
<g id="edge1" class="edge"><title>Node1&#45;&gt;Node2</title>
<path fill="none" stroke="midnightblue" d="M73.3258,-120.15C90.4861,-132.484 116.025,-149.79 140,-162 144.04,-164.057 148.291,-166.042 152.607,-167.933"/>
<polygon fill="midnightblue" stroke="midnightblue" points="151.529,-171.276 162.104,-171.912 154.234,-164.819 151.529,-171.276"/>
</g>
<!-- Node3 -->
<g id="node3" class="node"><title>Node3</title>
<g id="a_node3"><a xlink:href="../../d0/d3f/classprolog_1_1terms_1_1Const_a2f00757ecfe3ace23e67c5537c34cfbd.html#a2f00757ecfe3ace23e67c5537c34cfbd" target="_top" xlink:title="prolog.terms.Const.Const">
<polygon fill="none" stroke="black" points="142.5,-133.5 142.5,-152.5 271.5,-152.5 271.5,-133.5 142.5,-133.5"/>
<text text-anchor="middle" x="207" y="-140.5" font-family="Helvetica,sans-Serif" font-size="10.00">prolog.terms.Const.Const</text>
</a>
</g>
</g>
<!-- Node1&#45;&gt;Node3 -->
<g id="edge2" class="edge"><title>Node1&#45;&gt;Node3</title>
<path fill="none" stroke="midnightblue" d="M104.372,-117.759C121.644,-122.049 140.838,-126.816 157.853,-131.042"/>
<polygon fill="midnightblue" stroke="midnightblue" points="157.039,-134.446 167.588,-133.46 158.726,-127.652 157.039,-134.446"/>
</g>
<!-- Node4 -->
<g id="node4" class="node"><title>Node4</title>
<g id="a_node4"><a xlink:href="../../de/d8d/classprolog_1_1terms_1_1Fun_a95f487cd7555adbc0ae1a08076a0404d.html#a95f487cd7555adbc0ae1a08076a0404d" target="_top" xlink:title="prolog.terms.Fun.getArg">
<polygon fill="none" stroke="black" points="313.5,-76.5 313.5,-95.5 435.5,-95.5 435.5,-76.5 313.5,-76.5"/>
<text text-anchor="middle" x="374.5" y="-83.5" font-family="Helvetica,sans-Serif" font-size="10.00">prolog.terms.Fun.getArg</text>
</a>
</g>
</g>
<!-- Node1&#45;&gt;Node4 -->
<g id="edge3" class="edge"><title>Node1&#45;&gt;Node4</title>
<path fill="none" stroke="midnightblue" d="M104.139,-101.968C157.934,-98.7793 242.97,-93.7382 303.087,-90.1743"/>
<polygon fill="midnightblue" stroke="midnightblue" points="303.484,-93.657 313.259,-89.5712 303.069,-86.6692 303.484,-93.657"/>
</g>
<!-- Node6 -->
<g id="node6" class="node"><title>Node6</title>
<g id="a_node6"><a xlink:href="../../de/d8d/classprolog_1_1terms_1_1Fun_a5f3eb69aa2e809615f0eec1bc33b9d82.html#a5f3eb69aa2e809615f0eec1bc33b9d82" target="_top" xlink:title="prolog.terms.Fun.getIntArg">
<polygon fill="none" stroke="black" points="140.5,-57.5 140.5,-76.5 273.5,-76.5 273.5,-57.5 140.5,-57.5"/>
<text text-anchor="middle" x="207" y="-64.5" font-family="Helvetica,sans-Serif" font-size="10.00">prolog.terms.Fun.getIntArg</text>
</a>
</g>
</g>
<!-- Node1&#45;&gt;Node6 -->
<g id="edge5" class="edge"><title>Node1&#45;&gt;Node6</title>
<path fill="none" stroke="midnightblue" d="M104.372,-92.2408C121.644,-87.9511 140.838,-83.184 157.853,-78.9582"/>
<polygon fill="midnightblue" stroke="midnightblue" points="158.726,-82.3476 167.588,-76.5403 157.039,-75.554 158.726,-82.3476"/>
</g>
<!-- Node7 -->
<g id="node7" class="node"><title>Node7</title>
<g id="a_node7"><a xlink:href="../../de/d8d/classprolog_1_1terms_1_1Fun_a408f688b791b731a83c6a41a8ee32fb0.html#a408f688b791b731a83c6a41a8ee32fb0" target="_top" xlink:title="prolog.terms.Fun.putArg">
<polygon fill="none" stroke="black" points="146,-19.5 146,-38.5 268,-38.5 268,-19.5 146,-19.5"/>
<text text-anchor="middle" x="207" y="-26.5" font-family="Helvetica,sans-Serif" font-size="10.00">prolog.terms.Fun.putArg</text>
</a>
</g>
</g>
<!-- Node1&#45;&gt;Node7 -->
<g id="edge7" class="edge"><title>Node1&#45;&gt;Node7</title>
<path fill="none" stroke="midnightblue" d="M72.3942,-89.8374C89.4019,-77.1584 115.217,-59.3703 140,-48 145.012,-45.7003 150.368,-43.6114 155.779,-41.7322"/>
<polygon fill="midnightblue" stroke="midnightblue" points="157.083,-44.9889 165.516,-38.5759 154.924,-38.3299 157.083,-44.9889"/>
</g>
<!-- Node5 -->
<g id="node5" class="node"><title>Node5</title>
<g id="a_node5"><a xlink:href="../../d3/ded/classprolog_1_1terms_1_1Term_ae140fac2c9d066dc897fcfa723060a7a.html#ae140fac2c9d066dc897fcfa723060a7a" target="_top" xlink:title="Dereferences if necessary. ">
<polygon fill="none" stroke="black" points="487,-76.5 487,-95.5 597,-95.5 597,-76.5 487,-76.5"/>
<text text-anchor="middle" x="542" y="-83.5" font-family="Helvetica,sans-Serif" font-size="10.00">prolog.terms.Term.ref</text>
</a>
</g>
</g>
<!-- Node4&#45;&gt;Node5 -->
<g id="edge4" class="edge"><title>Node4&#45;&gt;Node5</title>
<path fill="none" stroke="midnightblue" d="M435.717,-86C449.048,-86 463.223,-86 476.709,-86"/>
<polygon fill="midnightblue" stroke="midnightblue" points="476.862,-89.5001 486.862,-86 476.862,-82.5001 476.862,-89.5001"/>
</g>
<!-- Node6&#45;&gt;Node4 -->
<g id="edge6" class="edge"><title>Node6&#45;&gt;Node4</title>
<path fill="none" stroke="midnightblue" d="M273.886,-74.5639C283.586,-75.6776 293.61,-76.8283 303.392,-77.9514"/>
<polygon fill="midnightblue" stroke="midnightblue" points="303.142,-81.4455 313.476,-79.109 303.94,-74.4912 303.142,-81.4455"/>
</g>
<!-- Node8 -->
<g id="node8" class="node"><title>Node8</title>
<g id="a_node8"><a xlink:href="../../d3/ded/classprolog_1_1terms_1_1Term_a84d8fb7e1f816d0dbe3c2c56ed28fdb9.html#a84d8fb7e1f816d0dbe3c2c56ed28fdb9" target="_top" xlink:title="Dereference and unify_to. ">
<polygon fill="none" stroke="black" points="314.5,-38.5 314.5,-57.5 434.5,-57.5 434.5,-38.5 314.5,-38.5"/>
<text text-anchor="middle" x="374.5" y="-45.5" font-family="Helvetica,sans-Serif" font-size="10.00">prolog.terms.Term.unify</text>
</a>
</g>
</g>
<!-- Node7&#45;&gt;Node8 -->
<g id="edge8" class="edge"><title>Node7&#45;&gt;Node8</title>
<path fill="none" stroke="midnightblue" d="M268.217,-35.9132C279.987,-37.2644 292.415,-38.6911 304.445,-40.0723"/>
<polygon fill="midnightblue" stroke="midnightblue" points="304.1,-43.5556 314.434,-41.219 304.899,-36.6012 304.1,-43.5556"/>
</g>
<!-- Node10 -->
<g id="node10" class="node"><title>Node10</title>
<g id="a_node10"><a xlink:href="../../d4/d26/classprolog_1_1terms_1_1Prog_a41eac8617a5002806d7137eb36183405.html#a41eac8617a5002806d7137eb36183405" target="_top" xlink:title="prolog.terms.Prog.getTrail">
<polygon fill="none" stroke="black" points="310,-0.5 310,-19.5 439,-19.5 439,-0.5 310,-0.5"/>
<text text-anchor="middle" x="374.5" y="-7.5" font-family="Helvetica,sans-Serif" font-size="10.00">prolog.terms.Prog.getTrail</text>
</a>
</g>
</g>
<!-- Node7&#45;&gt;Node10 -->
<g id="edge11" class="edge"><title>Node7&#45;&gt;Node10</title>
<path fill="none" stroke="midnightblue" d="M268.217,-22.0868C278.513,-20.9048 289.313,-19.665 299.909,-18.4485"/>
<polygon fill="midnightblue" stroke="midnightblue" points="300.448,-21.9097 309.984,-17.2919 299.65,-14.9553 300.448,-21.9097"/>
</g>
<!-- Node8&#45;&gt;Node5 -->
<g id="edge9" class="edge"><title>Node8&#45;&gt;Node5</title>
<path fill="none" stroke="midnightblue" d="M417.263,-57.589C439.201,-62.6261 466.28,-68.8438 489.508,-74.1771"/>
<polygon fill="midnightblue" stroke="midnightblue" points="489.008,-77.6533 499.538,-76.4799 490.575,-70.8308 489.008,-77.6533"/>
</g>
<!-- Node9 -->
<g id="node9" class="node"><title>Node9</title>
<g id="a_node9"><a xlink:href="../../d3/ded/classprolog_1_1terms_1_1Term_a866b2cca50e77e99b560578b2fa3a91a.html#a866b2cca50e77e99b560578b2fa3a91a" target="_top" xlink:title="Unify dereferenced. ">
<polygon fill="none" stroke="black" points="475,-38.5 475,-57.5 609,-57.5 609,-38.5 475,-38.5"/>
<text text-anchor="middle" x="542" y="-45.5" font-family="Helvetica,sans-Serif" font-size="10.00">prolog.terms.Term.unify_to</text>
</a>
</g>
</g>
<!-- Node8&#45;&gt;Node9 -->
<g id="edge10" class="edge"><title>Node8&#45;&gt;Node9</title>
<path fill="none" stroke="midnightblue" d="M434.782,-48C444.521,-48 454.732,-48 464.813,-48"/>
<polygon fill="midnightblue" stroke="midnightblue" points="464.828,-51.5001 474.828,-48 464.828,-44.5001 464.828,-51.5001"/>
</g>
</g>
</svg>
        <g id="navigator" transform="translate(0 0)" fill="#404254">
                <rect fill="#f2f5e9" fill-opacity="0.5" stroke="#606060" stroke-width=".5" x="0" y="0" width="60" height="60"/>
                <use id="zoomplus" xlink:href="#zoomPlus" x="17" y="9" onmousedown="handleZoom(evt,'in')"/>
                <use id="zoomminus" xlink:href="#zoomMin" x="42" y="9" onmousedown="handleZoom(evt,'out')"/>
                <use id="reset" xlink:href="#resetDef" x="30" y="36" onmousedown="handleReset()"/>
                <g id="arrowUp" xlink:href="#dirArrow" transform="translate(30 24)" onmousedown="handlePan(0,-1)">
                  <use xlink:href="#rim" fill="#404040">
                        <set attributeName="fill" to="#808080" begin="arrowUp.mouseover" end="arrowUp.mouseout"/>
                  </use>
                  <path fill="none" stroke="white" stroke-width="1.5" d="M0,-3.0v7 M-2.5,-0.5L0,-3.0L2.5,-0.5"/>
                </g>
                <g id="arrowRight" xlink:href="#dirArrow" transform="rotate(90) translate(36 -43)" onmousedown="handlePan(1,0)">
                  <use xlink:href="#rim" fill="#404040">
                        <set attributeName="fill" to="#808080" begin="arrowRight.mouseover" end="arrowRight.mouseout"/>
                  </use>
                  <path fill="none" stroke="white" stroke-width="1.5" d="M0,-3.0v7 M-2.5,-0.5L0,-3.0L2.5,-0.5"/>
                </g>
                <g id="arrowDown" xlink:href="#dirArrow" transform="rotate(180) translate(-30 -48)" onmousedown="handlePan(0,1)">
                  <use xlink:href="#rim" fill="#404040">
                        <set attributeName="fill" to="#808080" begin="arrowDown.mouseover" end="arrowDown.mouseout"/>
                  </use>
                  <path fill="none" stroke="white" stroke-width="1.5" d="M0,-3.0v7 M-2.5,-0.5L0,-3.0L2.5,-0.5"/>
                </g>
                <g id="arrowLeft" xlink:href="#dirArrow" transform="rotate(270) translate(-36 17)" onmousedown="handlePan(-1,0)">
                  <use xlink:href="#rim" fill="#404040">
                        <set attributeName="fill" to="#808080" begin="arrowLeft.mouseover" end="arrowLeft.mouseout"/>
                  </use>
                  <path fill="none" stroke="white" stroke-width="1.5" d="M0,-3.0v7 M-2.5,-0.5L0,-3.0L2.5,-0.5"/>
                </g>
        </g>
        <svg viewBox="0 0 15 15" width="100%" height="30px" preserveAspectRatio="xMaxYMin meet">
         <g id="arrow_out" transform="scale(0.3 0.3)">
          <a xlink:href="classprolog_1_1builtins_1_1chars__to__name_a07b58be61191d8c69346c477a4d488c1_a07b58be61191d8c69346c477a4d488c1_cgraph_org.svg" target="_base">
           <rect id="button" ry="5" rx="5" y="6" x="6" height="38" width="38"
                fill="#f2f5e9" fill-opacity="0.5" stroke="#606060" stroke-width="1.0"/>
           <path id="arrow"
             d="M 11.500037,31.436501 C 11.940474,20.09759 22.043105,11.32322 32.158766,21.979434 L 37.068811,17.246167 C 37.068811,17.246167 37.088388,32 37.088388,32 L 22.160133,31.978069 C 22.160133,31.978069 26.997745,27.140456 26.997745,27.140456 C 18.528582,18.264221 13.291696,25.230495 11.500037,31.436501 z"
             style="fill:#404040;"/>
          </a>
         </g>
        </svg>
</svg>
