<?xml version="1.0" encoding="UTF-8" standalone="no"?>
<!DOCTYPE svg PUBLIC "-//W3C//DTD SVG 1.1//EN"
 "http://www.w3.org/Graphics/SVG/1.1/DTD/svg11.dtd">
<!-- Generated by graphviz version 2.38.0 (20140413.2041)
 -->
<!-- Title: prolog.builtins.numbervars Pages: 1 -->
<svg width="257pt" height="1316pt"
 viewBox="0.00 0.00 256.50 1316.00" xmlns="http://www.w3.org/2000/svg" xmlns:xlink="http://www.w3.org/1999/xlink">
<g id="graph0" class="graph" transform="scale(1 1) rotate(0) translate(4 1312)">
<title>prolog.builtins.numbervars</title>
<!-- Node1 -->
<g id="node1" class="node"><title>Node1</title>
<polygon fill="#bfbfbf" stroke="black" points="0,-0.5 0,-68.5 131,-68.5 131,-0.5 0,-0.5"/>
<text text-anchor="middle" x="65.5" y="-56.5" font-family="Helvetica,sans-Serif" font-size="10.00">prolog.builtins.numbervars</text>
<polyline fill="none" stroke="black" points="0,-49.5 131,-49.5 "/>
<text text-anchor="middle" x="65.5" y="-37.5" font-family="Helvetica,sans-Serif" font-size="10.00"> </text>
<polyline fill="none" stroke="black" points="0,-30.5 131,-30.5 "/>
<text text-anchor="start" x="8" y="-18.5" font-family="Helvetica,sans-Serif" font-size="10.00">+ exec()</text>
<text text-anchor="start" x="8" y="-7.5" font-family="Helvetica,sans-Serif" font-size="10.00">~ numbervars()</text>
</g>
<!-- Node2 -->
<g id="node2" class="node"><title>Node2</title>
<g id="a_node2"><a xlink:href="../../d3/df5/classprolog_1_1terms_1_1FunBuiltin.html" target="_top" xlink:title="Template for builtins of arity &gt;0. ">
<polygon fill="none" stroke="black" points="7,-106.5 7,-185.5 124,-185.5 124,-106.5 7,-106.5"/>
<text text-anchor="middle" x="65.5" y="-173.5" font-family="Helvetica,sans-Serif" font-size="10.00">prolog.terms.FunBuiltin</text>
<polyline fill="none" stroke="black" points="7,-166.5 124,-166.5 "/>
<text text-anchor="middle" x="65.5" y="-154.5" font-family="Helvetica,sans-Serif" font-size="10.00"> </text>
<polyline fill="none" stroke="black" points="7,-147.5 124,-147.5 "/>
<text text-anchor="start" x="15" y="-135.5" font-family="Helvetica,sans-Serif" font-size="10.00">+ FunBuiltin()</text>
<text text-anchor="start" x="15" y="-124.5" font-family="Helvetica,sans-Serif" font-size="10.00">+ exec()</text>
<text text-anchor="start" x="15" y="-113.5" font-family="Helvetica,sans-Serif" font-size="10.00">+ isBuiltin()</text>
</a>
</g>
</g>
<!-- Node2&#45;&gt;Node1 -->
<g id="edge1" class="edge"><title>Node2&#45;&gt;Node1</title>
<path fill="none" stroke="midnightblue" d="M65.5,-96.3805C65.5,-87.0158 65.5,-77.4088 65.5,-68.674"/>
<polygon fill="none" stroke="midnightblue" points="62.0001,-96.3944 65.5,-106.394 69.0001,-96.3944 62.0001,-96.3944"/>
</g>
<!-- Node3 -->
<g id="node3" class="node"><title>Node3</title>
<g id="a_node3"><a xlink:href="../../de/d8d/classprolog_1_1terms_1_1Fun.html" target="_top" xlink:title="Implements compound terms. ">
<polygon fill="none" stroke="black" points="11.5,-223.5 11.5,-489.5 119.5,-489.5 119.5,-223.5 11.5,-223.5"/>
<text text-anchor="middle" x="65.5" y="-477.5" font-family="Helvetica,sans-Serif" font-size="10.00">prolog.terms.Fun</text>
<polyline fill="none" stroke="black" points="11.5,-470.5 119.5,-470.5 "/>
<text text-anchor="middle" x="65.5" y="-458.5" font-family="Helvetica,sans-Serif" font-size="10.00"> </text>
<polyline fill="none" stroke="black" points="11.5,-451.5 119.5,-451.5 "/>
<text text-anchor="start" x="19.5" y="-439.5" font-family="Helvetica,sans-Serif" font-size="10.00">+ getArity()</text>
<text text-anchor="start" x="19.5" y="-428.5" font-family="Helvetica,sans-Serif" font-size="10.00">+ Fun()</text>
<text text-anchor="start" x="19.5" y="-417.5" font-family="Helvetica,sans-Serif" font-size="10.00">+ Fun()</text>
<text text-anchor="start" x="19.5" y="-406.5" font-family="Helvetica,sans-Serif" font-size="10.00">+ Fun()</text>
<text text-anchor="start" x="19.5" y="-395.5" font-family="Helvetica,sans-Serif" font-size="10.00">+ init()</text>
<text text-anchor="start" x="19.5" y="-384.5" font-family="Helvetica,sans-Serif" font-size="10.00">+ getArg()</text>
<text text-anchor="start" x="19.5" y="-373.5" font-family="Helvetica,sans-Serif" font-size="10.00">+ getIntArg()</text>
<text text-anchor="start" x="19.5" y="-362.5" font-family="Helvetica,sans-Serif" font-size="10.00">+ setArg()</text>
<text text-anchor="start" x="19.5" y="-351.5" font-family="Helvetica,sans-Serif" font-size="10.00">+ putArg()</text>
<text text-anchor="start" x="19.5" y="-340.5" font-family="Helvetica,sans-Serif" font-size="10.00">+ Fun()</text>
<text text-anchor="start" x="19.5" y="-329.5" font-family="Helvetica,sans-Serif" font-size="10.00">and 7 more...</text>
<text text-anchor="start" x="19.5" y="-318.5" font-family="Helvetica,sans-Serif" font-size="10.00">~ bind_to()</text>
<text text-anchor="start" x="19.5" y="-307.5" font-family="Helvetica,sans-Serif" font-size="10.00">~ unify_to()</text>
<text text-anchor="start" x="19.5" y="-296.5" font-family="Helvetica,sans-Serif" font-size="10.00">~ reaction()</text>
<text text-anchor="start" x="19.5" y="-285.5" font-family="Helvetica,sans-Serif" font-size="10.00">~ isClause()</text>
<text text-anchor="start" x="19.5" y="-274.5" font-family="Helvetica,sans-Serif" font-size="10.00"># funToString()</text>
<text text-anchor="start" x="19.5" y="-263.5" font-family="Helvetica,sans-Serif" font-size="10.00"># unInitializedClone()</text>
<text text-anchor="start" x="19.5" y="-252.5" font-family="Helvetica,sans-Serif" font-size="10.00"># initializedClone()</text>
<text text-anchor="start" x="19.5" y="-241.5" font-family="Helvetica,sans-Serif" font-size="10.00"># watchNull()</text>
<text text-anchor="start" x="19.5" y="-230.5" font-family="Helvetica,sans-Serif" font-size="10.00">&#45; show_args()</text>
</a>
</g>
</g>
<!-- Node3&#45;&gt;Node2 -->
<g id="edge2" class="edge"><title>Node3&#45;&gt;Node2</title>
<path fill="none" stroke="midnightblue" d="M65.5,-213.414C65.5,-203.533 65.5,-194.177 65.5,-185.774"/>
<polygon fill="none" stroke="midnightblue" points="62.0001,-213.454 65.5,-223.454 69.0001,-213.454 62.0001,-213.454"/>
</g>
<!-- Node4 -->
<g id="node4" class="node"><title>Node4</title>
<g id="a_node4"><a xlink:href="../../d0/d3f/classprolog_1_1terms_1_1Const.html" target="_top" xlink:title="Symbolic constant, of arity 0. ">
<polygon fill="none" stroke="black" points="96.5,-537.5 96.5,-682.5 196.5,-682.5 196.5,-537.5 96.5,-537.5"/>
<text text-anchor="middle" x="146.5" y="-670.5" font-family="Helvetica,sans-Serif" font-size="10.00">prolog.terms.Const</text>
<polyline fill="none" stroke="black" points="96.5,-663.5 196.5,-663.5 "/>
<text text-anchor="start" x="104.5" y="-651.5" font-family="Helvetica,sans-Serif" font-size="10.00">&#45; sym</text>
<polyline fill="none" stroke="black" points="96.5,-644.5 196.5,-644.5 "/>
<text text-anchor="start" x="104.5" y="-632.5" font-family="Helvetica,sans-Serif" font-size="10.00">+ Const()</text>
<text text-anchor="start" x="104.5" y="-621.5" font-family="Helvetica,sans-Serif" font-size="10.00">+ name()</text>
<text text-anchor="start" x="104.5" y="-610.5" font-family="Helvetica,sans-Serif" font-size="10.00">+ qname()</text>
<text text-anchor="start" x="104.5" y="-599.5" font-family="Helvetica,sans-Serif" font-size="10.00">+ toString()</text>
<text text-anchor="start" x="104.5" y="-588.5" font-family="Helvetica,sans-Serif" font-size="10.00">+ getKey()</text>
<text text-anchor="start" x="104.5" y="-577.5" font-family="Helvetica,sans-Serif" font-size="10.00">+ getArity()</text>
<text text-anchor="start" x="104.5" y="-566.5" font-family="Helvetica,sans-Serif" font-size="10.00">+ toUnquoted()</text>
<text text-anchor="start" x="104.5" y="-555.5" font-family="Helvetica,sans-Serif" font-size="10.00">+ the()</text>
<text text-anchor="start" x="104.5" y="-544.5" font-family="Helvetica,sans-Serif" font-size="10.00">~ bind_to()</text>
</a>
</g>
</g>
<!-- Node4&#45;&gt;Node3 -->
<g id="edge3" class="edge"><title>Node4&#45;&gt;Node3</title>
<path fill="none" stroke="midnightblue" d="M120.298,-527.646C116.376,-515.466 112.248,-502.649 108.09,-489.74"/>
<polygon fill="none" stroke="midnightblue" points="117,-528.821 123.397,-537.267 123.663,-526.675 117,-528.821"/>
</g>
<!-- Node4&#45;&gt;Node4 -->
<g id="edge10" class="edge"><title>Node4&#45;&gt;Node4</title>
<path fill="none" stroke="#404040" d="M196.614,-627.367C207.018,-625.539 214.5,-619.75 214.5,-610 214.5,-604.363 211.999,-600.05 207.879,-597.061"/>
<polygon fill="none" stroke="#404040" points="207.782,-597.023 200.734,-598.551 196.614,-592.633 203.661,-591.105 207.782,-597.023"/>
<text text-anchor="middle" x="231.5" y="-629.5" font-family="Helvetica,sans-Serif" font-size="10.00"> +aTrue</text>
<text text-anchor="middle" x="231.5" y="-618.5" font-family="Helvetica,sans-Serif" font-size="10.00">+aNo</text>
<text text-anchor="middle" x="231.5" y="-607.5" font-family="Helvetica,sans-Serif" font-size="10.00">+anEof</text>
<text text-anchor="middle" x="231.5" y="-596.5" font-family="Helvetica,sans-Serif" font-size="10.00">+aYes</text>
<text text-anchor="middle" x="231.5" y="-585.5" font-family="Helvetica,sans-Serif" font-size="10.00">+aFail</text>
</g>
<!-- Node9 -->
<g id="node9" class="node"><title>Node9</title>
<g id="a_node9"><a xlink:href="../../d8/dad/classprolog_1_1terms_1_1Nil.html" target="_top" xlink:title="Special constant terminating a list. ">
<polygon fill="none" stroke="black" points="137.5,-322.5 137.5,-390.5 223.5,-390.5 223.5,-322.5 137.5,-322.5"/>
<text text-anchor="middle" x="180.5" y="-378.5" font-family="Helvetica,sans-Serif" font-size="10.00">prolog.terms.Nil</text>
<polyline fill="none" stroke="black" points="137.5,-371.5 223.5,-371.5 "/>
<text text-anchor="middle" x="180.5" y="-359.5" font-family="Helvetica,sans-Serif" font-size="10.00"> </text>
<polyline fill="none" stroke="black" points="137.5,-352.5 223.5,-352.5 "/>
<text text-anchor="start" x="145.5" y="-340.5" font-family="Helvetica,sans-Serif" font-size="10.00">+ Nil()</text>
<text text-anchor="start" x="145.5" y="-329.5" font-family="Helvetica,sans-Serif" font-size="10.00">+ Nil()</text>
</a>
</g>
</g>
<!-- Node4&#45;&gt;Node9 -->
<g id="edge9" class="edge"><title>Node4&#45;&gt;Node9</title>
<path fill="none" stroke="midnightblue" d="M157.557,-527.21C163.831,-480.799 171.341,-425.25 176.017,-390.66"/>
<polygon fill="none" stroke="midnightblue" points="154.069,-526.888 156.198,-537.267 161.006,-527.826 154.069,-526.888"/>
</g>
<!-- Node5 -->
<g id="node5" class="node"><title>Node5</title>
<g id="a_node5"><a xlink:href="../../d4/de0/classprolog_1_1terms_1_1Nonvar.html" target="_top" xlink:title="Part of the Prolog Term hierarchy. ">
<polygon fill="none" stroke="black" points="94,-730.5 94,-820.5 199,-820.5 199,-730.5 94,-730.5"/>
<text text-anchor="middle" x="146.5" y="-808.5" font-family="Helvetica,sans-Serif" font-size="10.00">prolog.terms.Nonvar</text>
<polyline fill="none" stroke="black" points="94,-801.5 199,-801.5 "/>
<text text-anchor="middle" x="146.5" y="-789.5" font-family="Helvetica,sans-Serif" font-size="10.00"> </text>
<polyline fill="none" stroke="black" points="94,-782.5 199,-782.5 "/>
<text text-anchor="start" x="102" y="-770.5" font-family="Helvetica,sans-Serif" font-size="10.00">+ name()</text>
<text text-anchor="start" x="102" y="-759.5" font-family="Helvetica,sans-Serif" font-size="10.00">~ bind_to()</text>
<text text-anchor="start" x="102" y="-748.5" font-family="Helvetica,sans-Serif" font-size="10.00">~ unify_to()</text>
<text text-anchor="start" x="102" y="-737.5" font-family="Helvetica,sans-Serif" font-size="10.00">~ listify()</text>
</a>
</g>
</g>
<!-- Node5&#45;&gt;Node4 -->
<g id="edge4" class="edge"><title>Node5&#45;&gt;Node4</title>
<path fill="none" stroke="midnightblue" d="M146.5,-720.005C146.5,-708.05 146.5,-695.217 146.5,-682.703"/>
<polygon fill="none" stroke="midnightblue" points="143,-720.255 146.5,-730.255 150,-720.255 143,-720.255"/>
</g>
<!-- Node6 -->
<g id="node6" class="node"><title>Node6</title>
<g id="a_node6"><a xlink:href="../../d3/ded/classprolog_1_1terms_1_1Term.html" target="_top" xlink:title="Top element of the Prolog term hierarchy. ">
<polygon fill="none" stroke="black" points="28.5,-858.5 28.5,-1212.5 126.5,-1212.5 126.5,-858.5 28.5,-858.5"/>
<text text-anchor="middle" x="77.5" y="-1200.5" font-family="Helvetica,sans-Serif" font-size="10.00">prolog.terms.Term</text>
<polyline fill="none" stroke="black" points="28.5,-1193.5 126.5,-1193.5 "/>
<text text-anchor="start" x="36.5" y="-1181.5" font-family="Helvetica,sans-Serif" font-size="10.00">+ JAVA</text>
<text text-anchor="start" x="36.5" y="-1170.5" font-family="Helvetica,sans-Serif" font-size="10.00">+ REAL</text>
<text text-anchor="start" x="36.5" y="-1159.5" font-family="Helvetica,sans-Serif" font-size="10.00">+ INT</text>
<text text-anchor="start" x="36.5" y="-1148.5" font-family="Helvetica,sans-Serif" font-size="10.00">+ VAR</text>
<text text-anchor="start" x="36.5" y="-1137.5" font-family="Helvetica,sans-Serif" font-size="10.00">+ CONST</text>
<polyline fill="none" stroke="black" points="28.5,-1130.5 126.5,-1130.5 "/>
<text text-anchor="start" x="36.5" y="-1118.5" font-family="Helvetica,sans-Serif" font-size="10.00">+ getArity()</text>
<text text-anchor="start" x="36.5" y="-1107.5" font-family="Helvetica,sans-Serif" font-size="10.00">+ ref()</text>
<text text-anchor="start" x="36.5" y="-1096.5" font-family="Helvetica,sans-Serif" font-size="10.00">+ token()</text>
<text text-anchor="start" x="36.5" y="-1085.5" font-family="Helvetica,sans-Serif" font-size="10.00">+ toClause()</text>
<text text-anchor="start" x="36.5" y="-1074.5" font-family="Helvetica,sans-Serif" font-size="10.00">+ matches()</text>
<text text-anchor="start" x="36.5" y="-1063.5" font-family="Helvetica,sans-Serif" font-size="10.00">+ matches()</text>
<text text-anchor="start" x="36.5" y="-1052.5" font-family="Helvetica,sans-Serif" font-size="10.00">+ matching_copy()</text>
<text text-anchor="start" x="36.5" y="-1041.5" font-family="Helvetica,sans-Serif" font-size="10.00">+ copy()</text>
<text text-anchor="start" x="36.5" y="-1030.5" font-family="Helvetica,sans-Serif" font-size="10.00">+ varsOf()</text>
<text text-anchor="start" x="36.5" y="-1019.5" font-family="Helvetica,sans-Serif" font-size="10.00">+ numbervars()</text>
<text text-anchor="start" x="36.5" y="-1008.5" font-family="Helvetica,sans-Serif" font-size="10.00">and 6 more...</text>
<text text-anchor="start" x="36.5" y="-997.5" font-family="Helvetica,sans-Serif" font-size="10.00">+ fromString()</text>
<text text-anchor="start" x="36.5" y="-986.5" font-family="Helvetica,sans-Serif" font-size="10.00">+ charsToString()</text>
<text text-anchor="start" x="36.5" y="-975.5" font-family="Helvetica,sans-Serif" font-size="10.00">~ bind_to()</text>
<text text-anchor="start" x="36.5" y="-964.5" font-family="Helvetica,sans-Serif" font-size="10.00">~ unify_to()</text>
<text text-anchor="start" x="36.5" y="-953.5" font-family="Helvetica,sans-Serif" font-size="10.00">~ toTerm()</text>
<text text-anchor="start" x="36.5" y="-942.5" font-family="Helvetica,sans-Serif" font-size="10.00">~ isClause()</text>
<text text-anchor="start" x="36.5" y="-931.5" font-family="Helvetica,sans-Serif" font-size="10.00">~ reaction()</text>
<text text-anchor="start" x="36.5" y="-920.5" font-family="Helvetica,sans-Serif" font-size="10.00">~ action()</text>
<text text-anchor="start" x="36.5" y="-909.5" font-family="Helvetica,sans-Serif" font-size="10.00">~ exec()</text>
<text text-anchor="start" x="36.5" y="-898.5" font-family="Helvetica,sans-Serif" font-size="10.00">~ stringToChars()</text>
<text text-anchor="start" x="36.5" y="-887.5" font-family="Helvetica,sans-Serif" font-size="10.00"># unify()</text>
<text text-anchor="start" x="36.5" y="-876.5" font-family="Helvetica,sans-Serif" font-size="10.00"># undo()</text>
<text text-anchor="start" x="36.5" y="-865.5" font-family="Helvetica,sans-Serif" font-size="10.00"># exec()</text>
</a>
</g>
</g>
<!-- Node6&#45;&gt;Node3 -->
<g id="edge11" class="edge"><title>Node6&#45;&gt;Node3</title>
<path fill="none" stroke="#404040" d="M74.3785,-858.394C72.4129,-747.502 69.9072,-606.139 68.0593,-501.885"/>
<polygon fill="none" stroke="#404040" points="68.0557,-501.678 63.9499,-495.75 67.8429,-489.68 71.9487,-495.608 68.0557,-501.678"/>
<text text-anchor="middle" x="86.5" y="-704" font-family="Helvetica,sans-Serif" font-size="10.00"> +args</text>
</g>
<!-- Node6&#45;&gt;Node5 -->
<g id="edge5" class="edge"><title>Node6&#45;&gt;Node5</title>
<path fill="none" stroke="midnightblue" d="M127.192,-848.695C129.878,-838.653 132.41,-829.186 134.701,-820.617"/>
<polygon fill="none" stroke="midnightblue" points="123.776,-847.923 124.573,-858.487 130.538,-849.731 123.776,-847.923"/>
</g>
<!-- Node7 -->
<g id="node7" class="node"><title>Node7</title>
<polygon fill="none" stroke="#bfbfbf" points="20,-1250.5 20,-1307.5 65,-1307.5 65,-1250.5 20,-1250.5"/>
<text text-anchor="middle" x="42.5" y="-1295.5" font-family="Helvetica,sans-Serif" font-size="10.00">Object</text>
<polyline fill="none" stroke="#bfbfbf" points="20,-1288.5 65,-1288.5 "/>
<text text-anchor="middle" x="42.5" y="-1276.5" font-family="Helvetica,sans-Serif" font-size="10.00"> </text>
<polyline fill="none" stroke="#bfbfbf" points="20,-1269.5 65,-1269.5 "/>
<text text-anchor="middle" x="42.5" y="-1257.5" font-family="Helvetica,sans-Serif" font-size="10.00"> </text>
</g>
<!-- Node7&#45;&gt;Node6 -->
<g id="edge6" class="edge"><title>Node7&#45;&gt;Node6</title>
<path fill="none" stroke="midnightblue" d="M47.9619,-1240.31C49.1703,-1231.97 50.5272,-1222.61 51.978,-1212.6"/>
<polygon fill="none" stroke="midnightblue" points="44.4855,-1239.9 46.5149,-1250.3 51.4131,-1240.9 44.4855,-1239.9"/>
</g>
<!-- Node8 -->
<g id="node8" class="node"><title>Node8</title>
<polygon fill="none" stroke="#bfbfbf" points="83.5,-1250.5 83.5,-1307.5 143.5,-1307.5 143.5,-1250.5 83.5,-1250.5"/>
<text text-anchor="middle" x="113.5" y="-1295.5" font-family="Helvetica,sans-Serif" font-size="10.00">Cloneable</text>
<polyline fill="none" stroke="#bfbfbf" points="83.5,-1288.5 143.5,-1288.5 "/>
<text text-anchor="middle" x="113.5" y="-1276.5" font-family="Helvetica,sans-Serif" font-size="10.00"> </text>
<polyline fill="none" stroke="#bfbfbf" points="83.5,-1269.5 143.5,-1269.5 "/>
<text text-anchor="middle" x="113.5" y="-1257.5" font-family="Helvetica,sans-Serif" font-size="10.00"> </text>
</g>
<!-- Node8&#45;&gt;Node6 -->
<g id="edge7" class="edge"><title>Node8&#45;&gt;Node6</title>
<path fill="none" stroke="midnightblue" d="M107.882,-1240.31C106.639,-1231.97 105.243,-1222.61 103.751,-1212.6"/>
<polygon fill="none" stroke="midnightblue" points="104.434,-1240.92 109.37,-1250.3 111.358,-1239.89 104.434,-1240.92"/>
</g>
<!-- Node9&#45;&gt;Node4 -->
<g id="edge8" class="edge"><title>Node9&#45;&gt;Node4</title>
<path fill="none" stroke="#404040" d="M176.017,-390.66C171.41,-424.742 164.051,-479.173 157.834,-525.161"/>
<polygon fill="none" stroke="#404040" points="157.805,-525.375 160.965,-531.857 156.198,-537.267 153.037,-530.785 157.805,-525.375"/>
<text text-anchor="middle" x="173" y="-511" font-family="Helvetica,sans-Serif" font-size="10.00"> +aNil</text>
</g>
</g>
</svg>
