<?xml version="1.0" encoding="UTF-8" standalone="no"?>
<!DOCTYPE svg PUBLIC "-//W3C//DTD SVG 1.1//EN"
 "http://www.w3.org/Graphics/SVG/1.1/DTD/svg11.dtd">
<!-- Generated by graphviz version 2.38.0 (20140413.2041)
 -->
<!-- Title: prolog.io.CharReader.CharReader Pages: 1 -->
<svg width="613pt" height="66pt"
 viewBox="0.00 0.00 613.00 66.00" xmlns="http://www.w3.org/2000/svg" xmlns:xlink="http://www.w3.org/1999/xlink">
<g id="graph0" class="graph" transform="scale(1 1) rotate(0) translate(4 62)">
<title>prolog.io.CharReader.CharReader</title>
<!-- Node1 -->
<g id="node1" class="node"><title>Node1</title>
<polygon fill="#bfbfbf" stroke="black" points="0,-14 0,-44 133,-44 133,-14 0,-14"/>
<text text-anchor="start" x="8" y="-32" font-family="Helvetica,sans-Serif" font-size="10.00">prolog.io.CharReader.Char</text>
<text text-anchor="middle" x="66.5" y="-21" font-family="Helvetica,sans-Serif" font-size="10.00">Reader</text>
</g>
<!-- Node2 -->
<g id="node2" class="node"><title>Node2</title>
<g id="a_node2"><a xlink:href="../../d5/db0/classprolog_1_1io_1_1CharReader_a47be678a8d6038e2c9a0a666449ea948.html#a47be678a8d6038e2c9a0a666449ea948" target="_top" xlink:title="prolog.io.CharReader.make\lReader">
<polygon fill="none" stroke="black" points="169,-14 169,-44 305,-44 305,-14 169,-14"/>
<text text-anchor="start" x="177" y="-32" font-family="Helvetica,sans-Serif" font-size="10.00">prolog.io.CharReader.make</text>
<text text-anchor="middle" x="237" y="-21" font-family="Helvetica,sans-Serif" font-size="10.00">Reader</text>
</a>
</g>
</g>
<!-- Node1&#45;&gt;Node2 -->
<g id="edge1" class="edge"><title>Node1&#45;&gt;Node2</title>
<path fill="none" stroke="midnightblue" d="M133.129,-29C141.564,-29 150.261,-29 158.859,-29"/>
<polygon fill="midnightblue" stroke="midnightblue" points="158.884,-32.5001 168.884,-29 158.884,-25.5001 158.884,-32.5001"/>
</g>
<!-- Node3 -->
<g id="node3" class="node"><title>Node3</title>
<g id="a_node3"><a xlink:href="../../d4/dc2/classprolog_1_1io_1_1IO_ac5428808b7db8cc3cd5b8b82b1b070c4.html#ac5428808b7db8cc3cd5b8b82b1b070c4" target="_top" xlink:title="prolog.io.IO.url_or_file">
<polygon fill="none" stroke="black" points="341,-19.5 341,-38.5 453,-38.5 453,-19.5 341,-19.5"/>
<text text-anchor="middle" x="397" y="-26.5" font-family="Helvetica,sans-Serif" font-size="10.00">prolog.io.IO.url_or_file</text>
</a>
</g>
</g>
<!-- Node2&#45;&gt;Node3 -->
<g id="edge2" class="edge"><title>Node2&#45;&gt;Node3</title>
<path fill="none" stroke="midnightblue" d="M305.006,-29C313.497,-29 322.177,-29 330.642,-29"/>
<polygon fill="midnightblue" stroke="midnightblue" points="330.833,-32.5001 340.833,-29 330.833,-25.5001 330.833,-32.5001"/>
</g>
<!-- Node4 -->
<g id="node4" class="node"><title>Node4</title>
<g id="a_node4"><a xlink:href="../../d4/dc2/classprolog_1_1io_1_1IO_a6349d9d37774b9ddd8e24c3c280afc9e.html#a6349d9d37774b9ddd8e24c3c280afc9e" target="_top" xlink:title="prolog.io.IO.url2stream">
<polygon fill="none" stroke="black" points="489,-38.5 489,-57.5 605,-57.5 605,-38.5 489,-38.5"/>
<text text-anchor="middle" x="547" y="-45.5" font-family="Helvetica,sans-Serif" font-size="10.00">prolog.io.IO.url2stream</text>
</a>
</g>
</g>
<!-- Node3&#45;&gt;Node4 -->
<g id="edge3" class="edge"><title>Node3&#45;&gt;Node4</title>
<path fill="none" stroke="midnightblue" d="M453.11,-36.0749C461.498,-37.1517 470.233,-38.2731 478.843,-39.3785"/>
<polygon fill="midnightblue" stroke="midnightblue" points="478.501,-42.8632 488.865,-40.6651 479.392,-35.9202 478.501,-42.8632"/>
</g>
<!-- Node5 -->
<g id="node5" class="node"><title>Node5</title>
<g id="a_node5"><a xlink:href="../../d4/dc2/classprolog_1_1io_1_1IO_aee8a81008d28d54afc3e1eef18e8bec9.html#aee8a81008d28d54afc3e1eef18e8bec9" target="_top" xlink:title="prolog.io.IO.toReader">
<polygon fill="none" stroke="black" points="492,-0.5 492,-19.5 602,-19.5 602,-0.5 492,-0.5"/>
<text text-anchor="middle" x="547" y="-7.5" font-family="Helvetica,sans-Serif" font-size="10.00">prolog.io.IO.toReader</text>
</a>
</g>
</g>
<!-- Node3&#45;&gt;Node5 -->
<g id="edge4" class="edge"><title>Node3&#45;&gt;Node5</title>
<path fill="none" stroke="midnightblue" d="M453.11,-21.9251C462.404,-20.7319 472.125,-19.484 481.63,-18.2637"/>
<polygon fill="midnightblue" stroke="midnightblue" points="482.356,-21.6993 491.829,-16.9544 481.465,-14.7563 482.356,-21.6993"/>
</g>
</g>
</svg>
