<?xml version="1.0" encoding="UTF-8" standalone="no"?>
<!DOCTYPE svg PUBLIC "-//W3C//DTD SVG 1.1//EN"
 "http://www.w3.org/Graphics/SVG/1.1/DTD/svg11.dtd">
<!-- Generated by graphviz version 2.38.0 (20140413.2041)
 -->
<!-- Title: prolog.terms.Fun.unify_to Pages: 1 -->
<svg width="473pt" height="161pt"
 viewBox="0.00 0.00 473.00 161.00" xmlns="http://www.w3.org/2000/svg" xmlns:xlink="http://www.w3.org/1999/xlink">
<g id="graph0" class="graph" transform="scale(1 1) rotate(0) translate(4 157)">
<title>prolog.terms.Fun.unify_to</title>
<!-- Node1 -->
<g id="node1" class="node"><title>Node1</title>
<polygon fill="#bfbfbf" stroke="black" points="0,-76.5 0,-95.5 128,-95.5 128,-76.5 0,-76.5"/>
<text text-anchor="middle" x="64" y="-83.5" font-family="Helvetica,sans-Serif" font-size="10.00">prolog.terms.Fun.unify_to</text>
</g>
<!-- Node2 -->
<g id="node2" class="node"><title>Node2</title>
<g id="a_node2"><a xlink:href="../../d3/ded/classprolog_1_1terms_1_1Term_a2fccc20968c75456cbae5d91ad13b197.html#a2fccc20968c75456cbae5d91ad13b197" target="_top" xlink:title="prolog.terms.Term.bind_to">
<polygon fill="none" stroke="black" points="164,-133.5 164,-152.5 295,-152.5 295,-133.5 164,-133.5"/>
<text text-anchor="middle" x="229.5" y="-140.5" font-family="Helvetica,sans-Serif" font-size="10.00">prolog.terms.Term.bind_to</text>
</a>
</g>
</g>
<!-- Node1&#45;&gt;Node2 -->
<g id="edge1" class="edge"><title>Node1&#45;&gt;Node2</title>
<path fill="none" stroke="midnightblue" d="M88.4105,-95.5945C108.35,-103.619 137.844,-115.143 164,-124 170.537,-126.214 177.496,-128.418 184.332,-130.5"/>
<polygon fill="midnightblue" stroke="midnightblue" points="183.613,-133.938 194.196,-133.448 185.617,-127.231 183.613,-133.938"/>
</g>
<!-- Node3 -->
<g id="node3" class="node"><title>Node3</title>
<g id="a_node3"><a xlink:href="../../de/d8d/classprolog_1_1terms_1_1Fun_a8ce6bf0c61ef743205ada4c1dbf0b18a.html#a8ce6bf0c61ef743205ada4c1dbf0b18a" target="_top" xlink:title="prolog.terms.Fun.bind_to">
<polygon fill="none" stroke="black" points="167,-95.5 167,-114.5 292,-114.5 292,-95.5 167,-95.5"/>
<text text-anchor="middle" x="229.5" y="-102.5" font-family="Helvetica,sans-Serif" font-size="10.00">prolog.terms.Fun.bind_to</text>
</a>
</g>
</g>
<!-- Node1&#45;&gt;Node3 -->
<g id="edge2" class="edge"><title>Node1&#45;&gt;Node3</title>
<path fill="none" stroke="midnightblue" d="M128.213,-93.3459C137.518,-94.4272 147.161,-95.5478 156.625,-96.6476"/>
<polygon fill="midnightblue" stroke="midnightblue" points="156.462,-100.152 166.8,-97.8299 157.271,-93.1989 156.462,-100.152"/>
</g>
<!-- Node4 -->
<g id="node4" class="node"><title>Node4</title>
<g id="a_node4"><a xlink:href="../../de/d8d/classprolog_1_1terms_1_1Fun_a3d81ecf8879a3612ac7881f753627020.html#a3d81ecf8879a3612ac7881f753627020" target="_top" xlink:title="prolog.terms.Fun.Fun">
<polygon fill="none" stroke="black" points="343,-85.5 343,-104.5 453,-104.5 453,-85.5 343,-85.5"/>
<text text-anchor="middle" x="398" y="-92.5" font-family="Helvetica,sans-Serif" font-size="10.00">prolog.terms.Fun.Fun</text>
</a>
</g>
</g>
<!-- Node1&#45;&gt;Node4 -->
<g id="edge4" class="edge"><title>Node1&#45;&gt;Node4</title>
<path fill="none" stroke="midnightblue" d="M128.489,-84.5006C174.692,-83.7748 238.752,-83.5233 295,-86 307.141,-86.5346 320.07,-87.4254 332.502,-88.4441"/>
<polygon fill="midnightblue" stroke="midnightblue" points="332.538,-91.9598 342.8,-89.3249 333.135,-84.9853 332.538,-91.9598"/>
</g>
<!-- Node5 -->
<g id="node5" class="node"><title>Node5</title>
<g id="a_node5"><a xlink:href="../../d3/ded/classprolog_1_1terms_1_1Term_a84d8fb7e1f816d0dbe3c2c56ed28fdb9.html#a84d8fb7e1f816d0dbe3c2c56ed28fdb9" target="_top" xlink:title="Dereference and unify_to. ">
<polygon fill="none" stroke="black" points="169.5,-19.5 169.5,-38.5 289.5,-38.5 289.5,-19.5 169.5,-19.5"/>
<text text-anchor="middle" x="229.5" y="-26.5" font-family="Helvetica,sans-Serif" font-size="10.00">prolog.terms.Term.unify</text>
</a>
</g>
</g>
<!-- Node1&#45;&gt;Node5 -->
<g id="edge5" class="edge"><title>Node1&#45;&gt;Node5</title>
<path fill="none" stroke="midnightblue" d="M92.3662,-76.4595C119.482,-67.0062 161.207,-52.4598 191.317,-41.963"/>
<polygon fill="midnightblue" stroke="midnightblue" points="192.754,-45.1686 201.044,-38.5716 190.45,-38.5587 192.754,-45.1686"/>
</g>
<!-- Node3&#45;&gt;Node4 -->
<g id="edge3" class="edge"><title>Node3&#45;&gt;Node4</title>
<path fill="none" stroke="midnightblue" d="M292.025,-101.305C305.313,-100.507 319.394,-99.661 332.782,-98.8569"/>
<polygon fill="midnightblue" stroke="midnightblue" points="333.087,-102.345 342.86,-98.2517 332.668,-95.3576 333.087,-102.345"/>
</g>
<!-- Node6 -->
<g id="node6" class="node"><title>Node6</title>
<g id="a_node6"><a xlink:href="../../d3/ded/classprolog_1_1terms_1_1Term_ae140fac2c9d066dc897fcfa723060a7a.html#ae140fac2c9d066dc897fcfa723060a7a" target="_top" xlink:title="Dereferences if necessary. ">
<polygon fill="none" stroke="black" points="343,-38.5 343,-57.5 453,-57.5 453,-38.5 343,-38.5"/>
<text text-anchor="middle" x="398" y="-45.5" font-family="Helvetica,sans-Serif" font-size="10.00">prolog.terms.Term.ref</text>
</a>
</g>
</g>
<!-- Node5&#45;&gt;Node6 -->
<g id="edge6" class="edge"><title>Node5&#45;&gt;Node6</title>
<path fill="none" stroke="midnightblue" d="M289.67,-35.7522C303.585,-37.34 318.482,-39.04 332.613,-40.6525"/>
<polygon fill="midnightblue" stroke="midnightblue" points="332.41,-44.152 342.743,-41.8085 333.204,-37.1972 332.41,-44.152"/>
</g>
<!-- Node7 -->
<g id="node7" class="node"><title>Node7</title>
<g id="a_node7"><a xlink:href="../../d3/ded/classprolog_1_1terms_1_1Term_a866b2cca50e77e99b560578b2fa3a91a.html#a866b2cca50e77e99b560578b2fa3a91a" target="_top" xlink:title="Unify dereferenced. ">
<polygon fill="none" stroke="black" points="331,-0.5 331,-19.5 465,-19.5 465,-0.5 331,-0.5"/>
<text text-anchor="middle" x="398" y="-7.5" font-family="Helvetica,sans-Serif" font-size="10.00">prolog.terms.Term.unify_to</text>
</a>
</g>
</g>
<!-- Node5&#45;&gt;Node7 -->
<g id="edge7" class="edge"><title>Node5&#45;&gt;Node7</title>
<path fill="none" stroke="midnightblue" d="M289.67,-22.2478C299.8,-21.0919 310.449,-19.8767 320.945,-18.679"/>
<polygon fill="midnightblue" stroke="midnightblue" points="321.4,-22.1498 330.939,-17.5385 320.606,-15.195 321.4,-22.1498"/>
</g>
</g>
</svg>
