<?xml version="1.0" encoding="UTF-8" standalone="no"?>
<!DOCTYPE svg PUBLIC "-//W3C//DTD SVG 1.1//EN"
 "http://www.w3.org/Graphics/SVG/1.1/DTD/svg11.dtd">
<!-- Generated by graphviz version 2.38.0 (20140413.2041)
 -->
<!-- Title: prolog.terms.Fun.toString Pages: 1 -->
<svg width="663pt" height="66pt"
 viewBox="0.00 0.00 663.00 66.00" xmlns="http://www.w3.org/2000/svg" xmlns:xlink="http://www.w3.org/1999/xlink">
<g id="graph0" class="graph" transform="scale(1 1) rotate(0) translate(4 62)">
<title>prolog.terms.Fun.toString</title>
<!-- Node1 -->
<g id="node1" class="node"><title>Node1</title>
<polygon fill="#bfbfbf" stroke="black" points="0,-19.5 0,-38.5 127,-38.5 127,-19.5 0,-19.5"/>
<text text-anchor="middle" x="63.5" y="-26.5" font-family="Helvetica,sans-Serif" font-size="10.00">prolog.terms.Fun.toString</text>
</g>
<!-- Node2 -->
<g id="node2" class="node"><title>Node2</title>
<g id="a_node2"><a xlink:href="../../de/d8d/classprolog_1_1terms_1_1Fun_a6f5f0d3b6f41a3cd8ce14f847db13a3a.html#a6f5f0d3b6f41a3cd8ce14f847db13a3a" target="_top" xlink:title="prolog.terms.Fun.funToString">
<polygon fill="none" stroke="black" points="163,-19.5 163,-38.5 306,-38.5 306,-19.5 163,-19.5"/>
<text text-anchor="middle" x="234.5" y="-26.5" font-family="Helvetica,sans-Serif" font-size="10.00">prolog.terms.Fun.funToString</text>
</a>
</g>
</g>
<!-- Node1&#45;&gt;Node2 -->
<g id="edge1" class="edge"><title>Node1&#45;&gt;Node2</title>
<path fill="none" stroke="midnightblue" d="M127.429,-29C135.636,-29 144.133,-29 152.582,-29"/>
<polygon fill="midnightblue" stroke="midnightblue" points="152.842,-32.5001 162.842,-29 152.842,-25.5001 152.842,-32.5001"/>
</g>
<!-- Node3 -->
<g id="node3" class="node"><title>Node3</title>
<g id="a_node3"><a xlink:href="../../d0/d3f/classprolog_1_1terms_1_1Const_a17ea180cc943733536458fbdaf3e17f8.html#a17ea180cc943733536458fbdaf3e17f8" target="_top" xlink:title="prolog.terms.Const.qname">
<polygon fill="none" stroke="black" points="346,-38.5 346,-57.5 478,-57.5 478,-38.5 346,-38.5"/>
<text text-anchor="middle" x="412" y="-45.5" font-family="Helvetica,sans-Serif" font-size="10.00">prolog.terms.Const.qname</text>
</a>
</g>
</g>
<!-- Node2&#45;&gt;Node3 -->
<g id="edge2" class="edge"><title>Node2&#45;&gt;Node3</title>
<path fill="none" stroke="midnightblue" d="M306.124,-36.6459C315.879,-37.702 325.929,-38.79 335.764,-39.8548"/>
<polygon fill="midnightblue" stroke="midnightblue" points="335.596,-43.3569 345.914,-40.9537 336.349,-36.3976 335.596,-43.3569"/>
</g>
<!-- Node4 -->
<g id="node4" class="node"><title>Node4</title>
<g id="a_node4"><a xlink:href="../../de/d8d/classprolog_1_1terms_1_1Fun_a60d43446599c976854c44a42af398139.html#a60d43446599c976854c44a42af398139" target="_top" xlink:title="prolog.terms.Fun.show_args">
<polygon fill="none" stroke="black" points="342,-0.5 342,-19.5 482,-19.5 482,-0.5 342,-0.5"/>
<text text-anchor="middle" x="412" y="-7.5" font-family="Helvetica,sans-Serif" font-size="10.00">prolog.terms.Fun.show_args</text>
</a>
</g>
</g>
<!-- Node2&#45;&gt;Node4 -->
<g id="edge3" class="edge"><title>Node2&#45;&gt;Node4</title>
<path fill="none" stroke="midnightblue" d="M306.124,-21.3541C314.613,-20.4351 323.324,-19.492 331.924,-18.561"/>
<polygon fill="midnightblue" stroke="midnightblue" points="332.382,-22.0319 341.947,-17.4759 331.628,-15.0726 332.382,-22.0319"/>
</g>
<!-- Node5 -->
<g id="node5" class="node"><title>Node5</title>
<g id="a_node5"><a xlink:href="../../de/d8d/classprolog_1_1terms_1_1Fun_ae68c6eb755ff4f2b1d3ebe6fcc174a0b.html#ae68c6eb755ff4f2b1d3ebe6fcc174a0b" target="_top" xlink:title="prolog.terms.Fun.watchNull">
<polygon fill="none" stroke="black" points="518,-0.5 518,-19.5 655,-19.5 655,-0.5 518,-0.5"/>
<text text-anchor="middle" x="586.5" y="-7.5" font-family="Helvetica,sans-Serif" font-size="10.00">prolog.terms.Fun.watchNull</text>
</a>
</g>
</g>
<!-- Node4&#45;&gt;Node5 -->
<g id="edge4" class="edge"><title>Node4&#45;&gt;Node5</title>
<path fill="none" stroke="midnightblue" d="M482.168,-10C490.498,-10 499.049,-10 507.494,-10"/>
<polygon fill="midnightblue" stroke="midnightblue" points="507.72,-13.5001 517.72,-10 507.72,-6.5001 507.72,-13.5001"/>
</g>
</g>
</svg>
