<?xml version="1.0" encoding="UTF-8" standalone="no"?>
<!DOCTYPE svg PUBLIC "-//W3C//DTD SVG 1.1//EN"
 "http://www.w3.org/Graphics/SVG/1.1/DTD/svg11.dtd">
<!-- Generated by graphviz version 2.38.0 (20140413.2041)
 -->
<!-- Title: prolog.terms.Fun.funToString Pages: 1 -->
<svg width="500pt" height="66pt"
 viewBox="0.00 0.00 500.00 66.00" xmlns="http://www.w3.org/2000/svg" xmlns:xlink="http://www.w3.org/1999/xlink">
<g id="graph0" class="graph" transform="scale(1 1) rotate(0) translate(4 62)">
<title>prolog.terms.Fun.funToString</title>
<!-- Node1 -->
<g id="node1" class="node"><title>Node1</title>
<polygon fill="#bfbfbf" stroke="black" points="0,-19.5 0,-38.5 143,-38.5 143,-19.5 0,-19.5"/>
<text text-anchor="middle" x="71.5" y="-26.5" font-family="Helvetica,sans-Serif" font-size="10.00">prolog.terms.Fun.funToString</text>
</g>
<!-- Node2 -->
<g id="node2" class="node"><title>Node2</title>
<g id="a_node2"><a xlink:href="../../d0/d3f/classprolog_1_1terms_1_1Const_a17ea180cc943733536458fbdaf3e17f8.html#a17ea180cc943733536458fbdaf3e17f8" target="_top" xlink:title="prolog.terms.Const.qname">
<polygon fill="none" stroke="black" points="183,-38.5 183,-57.5 315,-57.5 315,-38.5 183,-38.5"/>
<text text-anchor="middle" x="249" y="-45.5" font-family="Helvetica,sans-Serif" font-size="10.00">prolog.terms.Const.qname</text>
</a>
</g>
</g>
<!-- Node1&#45;&gt;Node2 -->
<g id="edge1" class="edge"><title>Node1&#45;&gt;Node2</title>
<path fill="none" stroke="midnightblue" d="M143.124,-36.6459C152.879,-37.702 162.929,-38.79 172.764,-39.8548"/>
<polygon fill="midnightblue" stroke="midnightblue" points="172.596,-43.3569 182.914,-40.9537 173.349,-36.3976 172.596,-43.3569"/>
</g>
<!-- Node3 -->
<g id="node3" class="node"><title>Node3</title>
<g id="a_node3"><a xlink:href="../../de/d8d/classprolog_1_1terms_1_1Fun_a60d43446599c976854c44a42af398139.html#a60d43446599c976854c44a42af398139" target="_top" xlink:title="prolog.terms.Fun.show_args">
<polygon fill="none" stroke="black" points="179,-0.5 179,-19.5 319,-19.5 319,-0.5 179,-0.5"/>
<text text-anchor="middle" x="249" y="-7.5" font-family="Helvetica,sans-Serif" font-size="10.00">prolog.terms.Fun.show_args</text>
</a>
</g>
</g>
<!-- Node1&#45;&gt;Node3 -->
<g id="edge2" class="edge"><title>Node1&#45;&gt;Node3</title>
<path fill="none" stroke="midnightblue" d="M143.124,-21.3541C151.613,-20.4351 160.324,-19.492 168.924,-18.561"/>
<polygon fill="midnightblue" stroke="midnightblue" points="169.382,-22.0319 178.947,-17.4759 168.628,-15.0726 169.382,-22.0319"/>
</g>
<!-- Node4 -->
<g id="node4" class="node"><title>Node4</title>
<g id="a_node4"><a xlink:href="../../de/d8d/classprolog_1_1terms_1_1Fun_ae68c6eb755ff4f2b1d3ebe6fcc174a0b.html#ae68c6eb755ff4f2b1d3ebe6fcc174a0b" target="_top" xlink:title="prolog.terms.Fun.watchNull">
<polygon fill="none" stroke="black" points="355,-0.5 355,-19.5 492,-19.5 492,-0.5 355,-0.5"/>
<text text-anchor="middle" x="423.5" y="-7.5" font-family="Helvetica,sans-Serif" font-size="10.00">prolog.terms.Fun.watchNull</text>
</a>
</g>
</g>
<!-- Node3&#45;&gt;Node4 -->
<g id="edge3" class="edge"><title>Node3&#45;&gt;Node4</title>
<path fill="none" stroke="midnightblue" d="M319.168,-10C327.498,-10 336.049,-10 344.494,-10"/>
<polygon fill="midnightblue" stroke="midnightblue" points="344.72,-13.5001 354.72,-10 344.72,-6.5001 344.72,-13.5001"/>
</g>
</g>
</svg>
