<?xml version="1.0" encoding="UTF-8" standalone="no"?>
<!DOCTYPE svg PUBLIC "-//W3C//DTD SVG 1.1//EN"
 "http://www.w3.org/Graphics/SVG/1.1/DTD/svg11.dtd">
<!-- Generated by graphviz version 2.38.0 (20140413.2041)
 -->
<!-- Title: prolog.terms.Fun.isClause Pages: 1 -->
<svg width="302pt" height="66pt"
 viewBox="0.00 0.00 302.00 66.00" xmlns="http://www.w3.org/2000/svg" xmlns:xlink="http://www.w3.org/1999/xlink">
<g id="graph0" class="graph" transform="scale(1 1) rotate(0) translate(4 62)">
<title>prolog.terms.Fun.isClause</title>
<!-- Node1 -->
<g id="node1" class="node"><title>Node1</title>
<polygon fill="#bfbfbf" stroke="black" points="0,-19.5 0,-38.5 131,-38.5 131,-19.5 0,-19.5"/>
<text text-anchor="middle" x="65.5" y="-26.5" font-family="Helvetica,sans-Serif" font-size="10.00">prolog.terms.Fun.isClause</text>
</g>
<!-- Node2 -->
<g id="node2" class="node"><title>Node2</title>
<g id="a_node2"><a xlink:href="../../de/d8d/classprolog_1_1terms_1_1Fun_a17d595f2ab8b5c173c519ad5341015c5.html#a17d595f2ab8b5c173c519ad5341015c5" target="_top" xlink:title="prolog.terms.Fun.getArity">
<polygon fill="none" stroke="black" points="167,-38.5 167,-57.5 294,-57.5 294,-38.5 167,-38.5"/>
<text text-anchor="middle" x="230.5" y="-45.5" font-family="Helvetica,sans-Serif" font-size="10.00">prolog.terms.Fun.getArity</text>
</a>
</g>
</g>
<!-- Node1&#45;&gt;Node2 -->
<g id="edge1" class="edge"><title>Node1&#45;&gt;Node2</title>
<path fill="none" stroke="midnightblue" d="M131.39,-36.5639C139.813,-37.5457 148.483,-38.5564 157.02,-39.5514"/>
<polygon fill="midnightblue" stroke="midnightblue" points="156.619,-43.0283 166.957,-40.7097 157.43,-36.0754 156.619,-43.0283"/>
</g>
<!-- Node3 -->
<g id="node3" class="node"><title>Node3</title>
<g id="a_node3"><a xlink:href="../../d0/d3f/classprolog_1_1terms_1_1Const_a947005f966303baeb029a22d9201ea1b.html#a947005f966303baeb029a22d9201ea1b" target="_top" xlink:title="prolog.terms.Const.name">
<polygon fill="none" stroke="black" points="167,-0.5 167,-19.5 294,-19.5 294,-0.5 167,-0.5"/>
<text text-anchor="middle" x="230.5" y="-7.5" font-family="Helvetica,sans-Serif" font-size="10.00">prolog.terms.Const.name</text>
</a>
</g>
</g>
<!-- Node1&#45;&gt;Node3 -->
<g id="edge2" class="edge"><title>Node1&#45;&gt;Node3</title>
<path fill="none" stroke="midnightblue" d="M131.39,-21.4361C139.813,-20.4543 148.483,-19.4436 157.02,-18.4486"/>
<polygon fill="midnightblue" stroke="midnightblue" points="157.43,-21.9246 166.957,-17.2903 156.619,-14.9717 157.43,-21.9246"/>
</g>
</g>
</svg>
