<?xml version="1.0" encoding="UTF-8" standalone="no"?>
<!DOCTYPE svg PUBLIC "-//W3C//DTD SVG 1.1//EN"
 "http://www.w3.org/Graphics/SVG/1.1/DTD/svg11.dtd">
<!-- Generated by graphviz version 2.38.0 (20140413.2041)
 -->
<!-- Title: prolog.terms.Fun.initializedClone Pages: 1 -->
<svg width="456pt" height="66pt"
 viewBox="0.00 0.00 456.00 66.00" xmlns="http://www.w3.org/2000/svg" xmlns:xlink="http://www.w3.org/1999/xlink">
<g id="graph0" class="graph" transform="scale(1 1) rotate(0) translate(4 62)">
<title>prolog.terms.Fun.initializedClone</title>
<!-- Node1 -->
<g id="node1" class="node"><title>Node1</title>
<polygon fill="#bfbfbf" stroke="black" points="0,-14 0,-44 134,-44 134,-14 0,-14"/>
<text text-anchor="start" x="8" y="-32" font-family="Helvetica,sans-Serif" font-size="10.00">prolog.terms.Fun.initialized</text>
<text text-anchor="middle" x="67" y="-21" font-family="Helvetica,sans-Serif" font-size="10.00">Clone</text>
</g>
<!-- Node2 -->
<g id="node2" class="node"><title>Node2</title>
<g id="a_node2"><a xlink:href="../../de/d8d/classprolog_1_1terms_1_1Fun_a73b5a4f366ac3ac161f7b148f44b8cfa.html#a73b5a4f366ac3ac161f7b148f44b8cfa" target="_top" xlink:title="prolog.terms.Fun.funClone">
<polygon fill="none" stroke="black" points="170,-38.5 170,-57.5 302,-57.5 302,-38.5 170,-38.5"/>
<text text-anchor="middle" x="236" y="-45.5" font-family="Helvetica,sans-Serif" font-size="10.00">prolog.terms.Fun.funClone</text>
</a>
</g>
</g>
<!-- Node1&#45;&gt;Node2 -->
<g id="edge1" class="edge"><title>Node1&#45;&gt;Node2</title>
<path fill="none" stroke="midnightblue" d="M134.003,-36.5093C142.456,-37.471 151.16,-38.4613 159.746,-39.4382"/>
<polygon fill="midnightblue" stroke="midnightblue" points="159.418,-42.9233 169.75,-40.5763 160.209,-35.9682 159.418,-42.9233"/>
</g>
<!-- Node4 -->
<g id="node4" class="node"><title>Node4</title>
<g id="a_node4"><a xlink:href="../../de/d8d/classprolog_1_1terms_1_1Fun_ab02ff53de48b9a687ec53e0d66144eb7.html#ab02ff53de48b9a687ec53e0d66144eb7" target="_top" xlink:title="prolog.terms.Fun.init">
<polygon fill="none" stroke="black" points="183,-0.5 183,-19.5 289,-19.5 289,-0.5 183,-0.5"/>
<text text-anchor="middle" x="236" y="-7.5" font-family="Helvetica,sans-Serif" font-size="10.00">prolog.terms.Fun.init</text>
</a>
</g>
</g>
<!-- Node1&#45;&gt;Node4 -->
<g id="edge3" class="edge"><title>Node1&#45;&gt;Node4</title>
<path fill="none" stroke="midnightblue" d="M134.003,-21.4907C146.808,-20.0338 160.188,-18.5115 172.864,-17.0694"/>
<polygon fill="midnightblue" stroke="midnightblue" points="173.314,-20.5408 182.854,-15.9328 172.523,-13.5857 173.314,-20.5408"/>
</g>
<!-- Node3 -->
<g id="node3" class="node"><title>Node3</title>
<g id="a_node3"><a xlink:href="../../de/d8d/classprolog_1_1terms_1_1Fun_a3d81ecf8879a3612ac7881f753627020.html#a3d81ecf8879a3612ac7881f753627020" target="_top" xlink:title="prolog.terms.Fun.Fun">
<polygon fill="none" stroke="black" points="338,-38.5 338,-57.5 448,-57.5 448,-38.5 338,-38.5"/>
<text text-anchor="middle" x="393" y="-45.5" font-family="Helvetica,sans-Serif" font-size="10.00">prolog.terms.Fun.Fun</text>
</a>
</g>
</g>
<!-- Node2&#45;&gt;Node3 -->
<g id="edge2" class="edge"><title>Node2&#45;&gt;Node3</title>
<path fill="none" stroke="midnightblue" d="M302.285,-48C310.637,-48 319.184,-48 327.523,-48"/>
<polygon fill="midnightblue" stroke="midnightblue" points="327.566,-51.5001 337.566,-48 327.566,-44.5001 327.566,-51.5001"/>
</g>
</g>
</svg>
