<?xml version="1.0" encoding="UTF-8" standalone="no"?>
<!DOCTYPE svg PUBLIC "-//W3C//DTD SVG 1.1//EN"
 "http://www.w3.org/Graphics/SVG/1.1/DTD/svg11.dtd">
<!-- Generated by graphviz version 2.38.0 (20140413.2041)
 -->
<!-- Title: prolog.terms.Fun.getArity Pages: 1 -->
<!--zoomable 282 -->
<svg id="main" version="1.1" xmlns="http://www.w3.org/2000/svg" xmlns:xlink="http://www.w3.org/1999/xlink" xml:space="preserve" onload="init(evt)">
<style type="text/css"><![CDATA[
.edge:hover path { stroke: red; }
.edge:hover polygon { stroke: red; fill: red; }
]]></style>
<script type="text/javascript"><![CDATA[
var edges = document.getElementsByTagName('g');
if (edges && edges.length) {
  for (var i=0;i<edges.length;i++) {
    if (edges[i].id.substr(0,4)=='edge') {
      edges[i].setAttribute('class','edge');
    }
  }
}
]]></script>
        <defs>
                <circle id="rim" cx="0" cy="0" r="7"/>
                <circle id="rim2" cx="0" cy="0" r="3.5"/>
                <g id="zoomPlus">
                        <use xlink:href="#rim" fill="#404040">
                                <set attributeName="fill" to="#808080" begin="zoomplus.mouseover" end="zoomplus.mouseout"/>
                        </use>
                        <path d="M-4,0h8M0,-4v8" fill="none" stroke="white" stroke-width="1.5" pointer-events="none"/>
                </g>
                <g id="zoomMin">
                        <use xlink:href="#rim" fill="#404040">
                                <set attributeName="fill" to="#808080" begin="zoomminus.mouseover" end="zoomminus.mouseout"/>
                        </use>
                        <path d="M-4,0h8" fill="none" stroke="white" stroke-width="1.5" pointer-events="none"/>
                </g>
                <g id="dirArrow">
                        <path fill="none" stroke="white" stroke-width="1.5" d="M0,-3.0v7 M-2.5,-0.5L0,-3.0L2.5,-0.5"/>
                </g>
               <g id="resetDef">
                       <use xlink:href="#rim2" fill="#404040">
                               <set attributeName="fill" to="#808080" begin="reset.mouseover" end="reset.mouseout"/>
                       </use>
               </g>
        </defs>

<script type="text/javascript">
var viewWidth = 677;
var viewHeight = 282;
var sectionId = 'dynsection-0';
</script>
<script xlink:href="../../svgpan.js"/>
<svg id="graph" class="graph">
<g id="viewport">
<title>prolog.terms.Fun.getArity</title>
<!-- Node1 -->
<g id="node1" class="node"><title>Node1</title>
<polygon fill="#bfbfbf" stroke="black" points="0,-166.5 0,-185.5 127,-185.5 127,-166.5 0,-166.5"/>
<text text-anchor="middle" x="63.5" y="-173.5" font-family="Helvetica,sans-Serif" font-size="10.00">prolog.terms.Fun.getArity</text>
</g>
<!-- Node2 -->
<g id="node2" class="node"><title>Node2</title>
<g id="a_node2"><a xlink:href="../../d4/d5b/classprolog_1_1builtins_1_1get__arity_aa1364e78c46f46e8d72d2dc483354fec.html#aa1364e78c46f46e8d72d2dc483354fec" target="_top" xlink:title="prolog.builtins.get\l_arity.exec">
<polygon fill="none" stroke="black" points="182,-243 182,-273 275,-273 275,-243 182,-243"/>
<text text-anchor="start" x="190" y="-261" font-family="Helvetica,sans-Serif" font-size="10.00">prolog.builtins.get</text>
<text text-anchor="middle" x="228.5" y="-250" font-family="Helvetica,sans-Serif" font-size="10.00">_arity.exec</text>
</a>
</g>
</g>
<!-- Node1&#45;&gt;Node2 -->
<g id="edge1" class="edge"><title>Node1&#45;&gt;Node2</title>
<path fill="none" stroke="midnightblue" d="M88.0311,-191.004C107.644,-203.168 136.548,-220.314 163,-233 170.255,-236.48 178.131,-239.85 185.805,-242.931"/>
<polygon fill="midnightblue" stroke="midnightblue" points="89.7918,-187.977 79.4586,-185.637 86.0772,-193.91 89.7918,-187.977"/>
</g>
<!-- Node3 -->
<g id="node3" class="node"><title>Node3</title>
<g id="a_node3"><a xlink:href="../../d9/d04/classprolog_1_1builtins_1_1arg_ad311a643f2c747fa4f4789175e0f928a.html#ad311a643f2c747fa4f4789175e0f928a" target="_top" xlink:title="prolog.builtins.arg.exec">
<polygon fill="none" stroke="black" points="170,-204.5 170,-223.5 287,-223.5 287,-204.5 170,-204.5"/>
<text text-anchor="middle" x="228.5" y="-211.5" font-family="Helvetica,sans-Serif" font-size="10.00">prolog.builtins.arg.exec</text>
</a>
</g>
</g>
<!-- Node1&#45;&gt;Node3 -->
<g id="edge2" class="edge"><title>Node1&#45;&gt;Node3</title>
<path fill="none" stroke="midnightblue" d="M115.528,-187.896C138.439,-193.237 165.104,-199.454 186.664,-204.48"/>
<polygon fill="midnightblue" stroke="midnightblue" points="116.165,-184.451 105.632,-185.589 114.576,-191.268 116.165,-184.451"/>
</g>
<!-- Node4 -->
<g id="node4" class="node"><title>Node4</title>
<g id="a_node4"><a xlink:href="../../de/d8d/classprolog_1_1terms_1_1Fun_ad4dd11bca6394b30a9a29e9eac0a70aa.html#ad4dd11bca6394b30a9a29e9eac0a70aa" target="_top" xlink:title="prolog.terms.Fun.isClause">
<polygon fill="none" stroke="black" points="163,-166.5 163,-185.5 294,-185.5 294,-166.5 163,-166.5"/>
<text text-anchor="middle" x="228.5" y="-173.5" font-family="Helvetica,sans-Serif" font-size="10.00">prolog.terms.Fun.isClause</text>
</a>
</g>
</g>
<!-- Node1&#45;&gt;Node4 -->
<g id="edge3" class="edge"><title>Node1&#45;&gt;Node4</title>
<path fill="none" stroke="midnightblue" d="M137.086,-176C145.705,-176 154.458,-176 162.954,-176"/>
<polygon fill="midnightblue" stroke="midnightblue" points="137.054,-172.5 127.054,-176 137.054,-179.5 137.054,-172.5"/>
</g>
<!-- Node5 -->
<g id="node5" class="node"><title>Node5</title>
<g id="a_node5"><a xlink:href="../../d7/df1/classprolog_1_1io_1_1Parser_a6574340e5a916e3ca50b58cc999ccc69.html#a6574340e5a916e3ca50b58cc999ccc69" target="_top" xlink:title="prolog.io.Parser.isError">
<polygon fill="none" stroke="black" points="170.5,-128.5 170.5,-147.5 286.5,-147.5 286.5,-128.5 170.5,-128.5"/>
<text text-anchor="middle" x="228.5" y="-135.5" font-family="Helvetica,sans-Serif" font-size="10.00">prolog.io.Parser.isError</text>
</a>
</g>
</g>
<!-- Node1&#45;&gt;Node5 -->
<g id="edge4" class="edge"><title>Node1&#45;&gt;Node5</title>
<path fill="none" stroke="midnightblue" d="M115.528,-164.104C138.439,-158.763 165.104,-152.546 186.664,-147.52"/>
<polygon fill="midnightblue" stroke="midnightblue" points="114.576,-160.732 105.632,-166.411 116.165,-167.549 114.576,-160.732"/>
</g>
<!-- Node8 -->
<g id="node8" class="node"><title>Node8</title>
<g id="a_node8"><a xlink:href="../../d7/d2b/classprolog_1_1builtins_1_1Builtins_a03db9f009d6e9f38f61113ec03af92b4.html#a03db9f009d6e9f38f61113ec03af92b4" target="_top" xlink:title="prolog.builtins.Builtins.to\lFunBuiltin">
<polygon fill="none" stroke="black" points="167,-52 167,-82 290,-82 290,-52 167,-52"/>
<text text-anchor="start" x="175" y="-70" font-family="Helvetica,sans-Serif" font-size="10.00">prolog.builtins.Builtins.to</text>
<text text-anchor="middle" x="228.5" y="-59" font-family="Helvetica,sans-Serif" font-size="10.00">FunBuiltin</text>
</a>
</g>
</g>
<!-- Node1&#45;&gt;Node8 -->
<g id="edge7" class="edge"><title>Node1&#45;&gt;Node8</title>
<path fill="none" stroke="midnightblue" d="M87.4298,-160.667C118.556,-139.852 173.842,-102.882 204.832,-82.1587"/>
<polygon fill="midnightblue" stroke="midnightblue" points="85.3322,-157.859 78.9652,-166.327 89.2234,-163.678 85.3322,-157.859"/>
</g>
<!-- Node6 -->
<g id="node6" class="node"><title>Node6</title>
<g id="a_node6"><a xlink:href="../../da/dd9/classprolog_1_1fluents_1_1DataBase_a83885e10b61d6bf129307d9bf50d93de.html#a83885e10b61d6bf129307d9bf50d93de" target="_top" xlink:title="prolog.fluents.DataBase.apply\l_parser">
<polygon fill="none" stroke="black" points="330,-137 330,-167 478,-167 478,-137 330,-137"/>
<text text-anchor="start" x="338" y="-155" font-family="Helvetica,sans-Serif" font-size="10.00">prolog.fluents.DataBase.apply</text>
<text text-anchor="middle" x="404" y="-144" font-family="Helvetica,sans-Serif" font-size="10.00">_parser</text>
</a>
</g>
</g>
<!-- Node5&#45;&gt;Node6 -->
<g id="edge5" class="edge"><title>Node5&#45;&gt;Node6</title>
<path fill="none" stroke="midnightblue" d="M297.007,-143.447C307.821,-144.32 319.055,-145.226 329.99,-146.109"/>
<polygon fill="midnightblue" stroke="midnightblue" points="297.04,-139.939 286.791,-142.623 296.477,-146.916 297.04,-139.939"/>
</g>
<!-- Node7 -->
<g id="node7" class="node"><title>Node7</title>
<g id="a_node7"><a xlink:href="../../da/dd9/classprolog_1_1fluents_1_1DataBase_af8b26948ded7bba6386b984f463bf166.html#af8b26948ded7bba6386b984f463bf166" target="_top" xlink:title="prolog.fluents.DataBase.stream\lToProg">
<polygon fill="none" stroke="black" points="514,-137 514,-167 669,-167 669,-137 514,-137"/>
<text text-anchor="start" x="522" y="-155" font-family="Helvetica,sans-Serif" font-size="10.00">prolog.fluents.DataBase.stream</text>
<text text-anchor="middle" x="591.5" y="-144" font-family="Helvetica,sans-Serif" font-size="10.00">ToProg</text>
</a>
</g>
</g>
<!-- Node6&#45;&gt;Node7 -->
<g id="edge6" class="edge"><title>Node6&#45;&gt;Node7</title>
<path fill="none" stroke="midnightblue" d="M488.059,-152C496.645,-152 505.344,-152 513.856,-152"/>
<polygon fill="midnightblue" stroke="midnightblue" points="488.048,-148.5 478.048,-152 488.048,-155.5 488.048,-148.5"/>
</g>
<!-- Node9 -->
<g id="node9" class="node"><title>Node9</title>
<g id="a_node9"><a xlink:href="../../d9/d47/classprolog_1_1builtins_1_1new__fun_a9c9d1dcf2538ad6a86d16926d744b6a3.html#a9c9d1dcf2538ad6a86d16926d744b6a3" target="_top" xlink:title="prolog.builtins.new\l_fun.exec">
<polygon fill="none" stroke="black" points="355,-88 355,-118 453,-118 453,-88 355,-88"/>
<text text-anchor="start" x="363" y="-106" font-family="Helvetica,sans-Serif" font-size="10.00">prolog.builtins.new</text>
<text text-anchor="middle" x="404" y="-95" font-family="Helvetica,sans-Serif" font-size="10.00">_fun.exec</text>
</a>
</g>
</g>
<!-- Node8&#45;&gt;Node9 -->
<g id="edge8" class="edge"><title>Node8&#45;&gt;Node9</title>
<path fill="none" stroke="midnightblue" d="M300.012,-81.6308C318.466,-85.4597 337.935,-89.4996 354.919,-93.0235"/>
<polygon fill="midnightblue" stroke="midnightblue" points="300.684,-78.1958 290.182,-79.5911 299.262,-85.0498 300.684,-78.1958"/>
</g>
<!-- Node10 -->
<g id="node10" class="node"><title>Node10</title>
<g id="a_node10"><a xlink:href="../../d9/d47/classprolog_1_1builtins_1_1source__term_a52ab1b08efdb52116de75b9ea92fa00e.html#a52ab1b08efdb52116de75b9ea92fa00e" target="_top" xlink:title="prolog.builtins.source\l_term.exec">
<polygon fill="none" stroke="black" points="349.5,-39 349.5,-69 458.5,-69 458.5,-39 349.5,-39"/>
<text text-anchor="start" x="357.5" y="-57" font-family="Helvetica,sans-Serif" font-size="10.00">prolog.builtins.source</text>
<text text-anchor="middle" x="404" y="-46" font-family="Helvetica,sans-Serif" font-size="10.00">_term.exec</text>
</a>
</g>
</g>
<!-- Node8&#45;&gt;Node10 -->
<g id="edge9" class="edge"><title>Node8&#45;&gt;Node10</title>
<path fill="none" stroke="midnightblue" d="M300.254,-61.6986C316.628,-60.4717 333.79,-59.1858 349.295,-58.024"/>
<polygon fill="midnightblue" stroke="midnightblue" points="299.892,-58.2157 290.182,-62.4532 300.415,-65.1962 299.892,-58.2157"/>
</g>
<!-- Node11 -->
<g id="node11" class="node"><title>Node11</title>
<g id="a_node11"><a xlink:href="../../d7/df1/classprolog_1_1io_1_1Parser_a2266a192306644bbc8e9bb4b4839708e.html#a2266a192306644bbc8e9bb4b4839708e" target="_top" xlink:title="prolog.io.Parser.getTerm">
<polygon fill="none" stroke="black" points="342,-0.5 342,-19.5 466,-19.5 466,-0.5 342,-0.5"/>
<text text-anchor="middle" x="404" y="-7.5" font-family="Helvetica,sans-Serif" font-size="10.00">prolog.io.Parser.getTerm</text>
</a>
</g>
</g>
<!-- Node8&#45;&gt;Node11 -->
<g id="edge10" class="edge"><title>Node8&#45;&gt;Node11</title>
<path fill="none" stroke="midnightblue" d="M276.016,-48.2265C292.881,-41.7355 312.169,-34.6736 330,-29 340.607,-25.6248 352.219,-22.3963 362.998,-19.5892"/>
<polygon fill="midnightblue" stroke="midnightblue" points="274.446,-45.0813 266.395,-51.9676 276.983,-51.6054 274.446,-45.0813"/>
</g>
</g>
</svg>
        <g id="navigator" transform="translate(0 0)" fill="#404254">
                <rect fill="#f2f5e9" fill-opacity="0.5" stroke="#606060" stroke-width=".5" x="0" y="0" width="60" height="60"/>
                <use id="zoomplus" xlink:href="#zoomPlus" x="17" y="9" onmousedown="handleZoom(evt,'in')"/>
                <use id="zoomminus" xlink:href="#zoomMin" x="42" y="9" onmousedown="handleZoom(evt,'out')"/>
                <use id="reset" xlink:href="#resetDef" x="30" y="36" onmousedown="handleReset()"/>
                <g id="arrowUp" xlink:href="#dirArrow" transform="translate(30 24)" onmousedown="handlePan(0,-1)">
                  <use xlink:href="#rim" fill="#404040">
                        <set attributeName="fill" to="#808080" begin="arrowUp.mouseover" end="arrowUp.mouseout"/>
                  </use>
                  <path fill="none" stroke="white" stroke-width="1.5" d="M0,-3.0v7 M-2.5,-0.5L0,-3.0L2.5,-0.5"/>
                </g>
                <g id="arrowRight" xlink:href="#dirArrow" transform="rotate(90) translate(36 -43)" onmousedown="handlePan(1,0)">
                  <use xlink:href="#rim" fill="#404040">
                        <set attributeName="fill" to="#808080" begin="arrowRight.mouseover" end="arrowRight.mouseout"/>
                  </use>
                  <path fill="none" stroke="white" stroke-width="1.5" d="M0,-3.0v7 M-2.5,-0.5L0,-3.0L2.5,-0.5"/>
                </g>
                <g id="arrowDown" xlink:href="#dirArrow" transform="rotate(180) translate(-30 -48)" onmousedown="handlePan(0,1)">
                  <use xlink:href="#rim" fill="#404040">
                        <set attributeName="fill" to="#808080" begin="arrowDown.mouseover" end="arrowDown.mouseout"/>
                  </use>
                  <path fill="none" stroke="white" stroke-width="1.5" d="M0,-3.0v7 M-2.5,-0.5L0,-3.0L2.5,-0.5"/>
                </g>
                <g id="arrowLeft" xlink:href="#dirArrow" transform="rotate(270) translate(-36 17)" onmousedown="handlePan(-1,0)">
                  <use xlink:href="#rim" fill="#404040">
                        <set attributeName="fill" to="#808080" begin="arrowLeft.mouseover" end="arrowLeft.mouseout"/>
                  </use>
                  <path fill="none" stroke="white" stroke-width="1.5" d="M0,-3.0v7 M-2.5,-0.5L0,-3.0L2.5,-0.5"/>
                </g>
        </g>
        <svg viewBox="0 0 15 15" width="100%" height="30px" preserveAspectRatio="xMaxYMin meet">
         <g id="arrow_out" transform="scale(0.3 0.3)">
          <a xlink:href="classprolog_1_1terms_1_1Fun_a17d595f2ab8b5c173c519ad5341015c5_a17d595f2ab8b5c173c519ad5341015c5_icgraph_org.svg" target="_base">
           <rect id="button" ry="5" rx="5" y="6" x="6" height="38" width="38"
                fill="#f2f5e9" fill-opacity="0.5" stroke="#606060" stroke-width="1.0"/>
           <path id="arrow"
             d="M 11.500037,31.436501 C 11.940474,20.09759 22.043105,11.32322 32.158766,21.979434 L 37.068811,17.246167 C 37.068811,17.246167 37.088388,32 37.088388,32 L 22.160133,31.978069 C 22.160133,31.978069 26.997745,27.140456 26.997745,27.140456 C 18.528582,18.264221 13.291696,25.230495 11.500037,31.436501 z"
             style="fill:#404040;"/>
          </a>
         </g>
        </svg>
</svg>
