<?xml version="1.0" encoding="UTF-8" standalone="no"?>
<!DOCTYPE svg PUBLIC "-//W3C//DTD SVG 1.1//EN"
 "http://www.w3.org/Graphics/SVG/1.1/DTD/svg11.dtd">
<!-- Generated by graphviz version 2.38.0 (20140413.2041)
 -->
<!-- Title: prolog.terms.Fun.unInitializedClone Pages: 1 -->
<svg width="467pt" height="39pt"
 viewBox="0.00 0.00 467.00 39.00" xmlns="http://www.w3.org/2000/svg" xmlns:xlink="http://www.w3.org/1999/xlink">
<g id="graph0" class="graph" transform="scale(1 1) rotate(0) translate(4 35)">
<title>prolog.terms.Fun.unInitializedClone</title>
<!-- Node1 -->
<g id="node1" class="node"><title>Node1</title>
<polygon fill="#bfbfbf" stroke="black" points="0,-0.5 0,-30.5 145,-30.5 145,-0.5 0,-0.5"/>
<text text-anchor="start" x="8" y="-18.5" font-family="Helvetica,sans-Serif" font-size="10.00">prolog.terms.Fun.unInitialized</text>
<text text-anchor="middle" x="72.5" y="-7.5" font-family="Helvetica,sans-Serif" font-size="10.00">Clone</text>
</g>
<!-- Node2 -->
<g id="node2" class="node"><title>Node2</title>
<g id="a_node2"><a xlink:href="../../de/d8d/classprolog_1_1terms_1_1Fun_a73b5a4f366ac3ac161f7b148f44b8cfa.html#a73b5a4f366ac3ac161f7b148f44b8cfa" target="_top" xlink:title="prolog.terms.Fun.funClone">
<polygon fill="none" stroke="black" points="181,-6 181,-25 313,-25 313,-6 181,-6"/>
<text text-anchor="middle" x="247" y="-13" font-family="Helvetica,sans-Serif" font-size="10.00">prolog.terms.Fun.funClone</text>
</a>
</g>
</g>
<!-- Node1&#45;&gt;Node2 -->
<g id="edge1" class="edge"><title>Node1&#45;&gt;Node2</title>
<path fill="none" stroke="midnightblue" d="M145.157,-15.5C153.58,-15.5 162.195,-15.5 170.667,-15.5"/>
<polygon fill="midnightblue" stroke="midnightblue" points="170.908,-19.0001 180.908,-15.5 170.908,-12.0001 170.908,-19.0001"/>
</g>
<!-- Node3 -->
<g id="node3" class="node"><title>Node3</title>
<g id="a_node3"><a xlink:href="../../de/d8d/classprolog_1_1terms_1_1Fun_a3d81ecf8879a3612ac7881f753627020.html#a3d81ecf8879a3612ac7881f753627020" target="_top" xlink:title="prolog.terms.Fun.Fun">
<polygon fill="none" stroke="black" points="349,-6 349,-25 459,-25 459,-6 349,-6"/>
<text text-anchor="middle" x="404" y="-13" font-family="Helvetica,sans-Serif" font-size="10.00">prolog.terms.Fun.Fun</text>
</a>
</g>
</g>
<!-- Node2&#45;&gt;Node3 -->
<g id="edge2" class="edge"><title>Node2&#45;&gt;Node3</title>
<path fill="none" stroke="midnightblue" d="M313.285,-15.5C321.637,-15.5 330.184,-15.5 338.523,-15.5"/>
<polygon fill="midnightblue" stroke="midnightblue" points="338.566,-19.0001 348.566,-15.5 338.566,-12.0001 338.566,-19.0001"/>
</g>
</g>
</svg>
