<?xml version="1.0" encoding="UTF-8" standalone="no"?>
<!DOCTYPE svg PUBLIC "-//W3C//DTD SVG 1.1//EN"
 "http://www.w3.org/Graphics/SVG/1.1/DTD/svg11.dtd">
<!-- Generated by graphviz version 2.38.0 (20140413.2041)
 -->
<!-- Title: prolog.terms.Unfolder.stop Pages: 1 -->
<!--zoomable 211 -->
<svg id="main" version="1.1" xmlns="http://www.w3.org/2000/svg" xmlns:xlink="http://www.w3.org/1999/xlink" xml:space="preserve" onload="init(evt)">
<style type="text/css"><![CDATA[
.edge:hover path { stroke: red; }
.edge:hover polygon { stroke: red; fill: red; }
]]></style>
<script type="text/javascript"><![CDATA[
var edges = document.getElementsByTagName('g');
if (edges && edges.length) {
  for (var i=0;i<edges.length;i++) {
    if (edges[i].id.substr(0,4)=='edge') {
      edges[i].setAttribute('class','edge');
    }
  }
}
]]></script>
        <defs>
                <circle id="rim" cx="0" cy="0" r="7"/>
                <circle id="rim2" cx="0" cy="0" r="3.5"/>
                <g id="zoomPlus">
                        <use xlink:href="#rim" fill="#404040">
                                <set attributeName="fill" to="#808080" begin="zoomplus.mouseover" end="zoomplus.mouseout"/>
                        </use>
                        <path d="M-4,0h8M0,-4v8" fill="none" stroke="white" stroke-width="1.5" pointer-events="none"/>
                </g>
                <g id="zoomMin">
                        <use xlink:href="#rim" fill="#404040">
                                <set attributeName="fill" to="#808080" begin="zoomminus.mouseover" end="zoomminus.mouseout"/>
                        </use>
                        <path d="M-4,0h8" fill="none" stroke="white" stroke-width="1.5" pointer-events="none"/>
                </g>
                <g id="dirArrow">
                        <path fill="none" stroke="white" stroke-width="1.5" d="M0,-3.0v7 M-2.5,-0.5L0,-3.0L2.5,-0.5"/>
                </g>
               <g id="resetDef">
                       <use xlink:href="#rim2" fill="#404040">
                               <set attributeName="fill" to="#808080" begin="reset.mouseover" end="reset.mouseout"/>
                       </use>
               </g>
        </defs>

<script type="text/javascript">
var viewWidth = 1226;
var viewHeight = 211;
var sectionId = 'dynsection-0';
</script>
<script xlink:href="../../svgpan.js"/>
<svg id="graph" class="graph">
<g id="viewport">
<title>prolog.terms.Unfolder.stop</title>
<!-- Node1 -->
<g id="node1" class="node"><title>Node1</title>
<polygon fill="#bfbfbf" stroke="black" points="0,-85 0,-104 132,-104 132,-85 0,-85"/>
<text text-anchor="middle" x="66" y="-92" font-family="Helvetica,sans-Serif" font-size="10.00">prolog.terms.Unfolder.stop</text>
</g>
<!-- Node2 -->
<g id="node2" class="node"><title>Node2</title>
<g id="a_node2"><a xlink:href="../../d4/d26/classprolog_1_1terms_1_1Prog_ac5d988b907a2843fcfcba4d1fd1e0deb.html#ac5d988b907a2843fcfcba4d1fd1e0deb" target="_top" xlink:title="Here is where actual LD&#45;resolution computation happens. ">
<polygon fill="none" stroke="black" points="168,-85 168,-104 314,-104 314,-85 168,-85"/>
<text text-anchor="middle" x="241" y="-92" font-family="Helvetica,sans-Serif" font-size="10.00">prolog.terms.Prog.getElement</text>
</a>
</g>
</g>
<!-- Node1&#45;&gt;Node2 -->
<g id="edge1" class="edge"><title>Node1&#45;&gt;Node2</title>
<path fill="none" stroke="midnightblue" d="M142.557,-94.5C150.955,-94.5 159.493,-94.5 167.848,-94.5"/>
<polygon fill="midnightblue" stroke="midnightblue" points="142.404,-91.0001 132.404,-94.5 142.404,-98.0001 142.404,-91.0001"/>
</g>
<!-- Node3 -->
<g id="node3" class="node"><title>Node3</title>
<g id="a_node3"><a xlink:href="../../d4/d26/classprolog_1_1terms_1_1Prog_a696a0c92a1814ecf4f21fb09fbc854a0.html#a696a0c92a1814ecf4f21fb09fbc854a0" target="_top" xlink:title="asks a logic engine to return a solution ">
<polygon fill="none" stroke="black" points="350,-101.5 350,-131.5 463,-131.5 463,-101.5 350,-101.5"/>
<text text-anchor="start" x="358" y="-119.5" font-family="Helvetica,sans-Serif" font-size="10.00">prolog.terms.Prog.ask</text>
<text text-anchor="middle" x="406.5" y="-108.5" font-family="Helvetica,sans-Serif" font-size="10.00">_engine</text>
</a>
</g>
</g>
<!-- Node2&#45;&gt;Node3 -->
<g id="edge2" class="edge"><title>Node2&#45;&gt;Node3</title>
<path fill="none" stroke="midnightblue" d="M322.717,-105.361C331.917,-106.599 341.135,-107.839 349.904,-109.019"/>
<polygon fill="midnightblue" stroke="midnightblue" points="323.14,-101.886 312.763,-104.022 322.206,-108.824 323.14,-101.886"/>
</g>
<!-- Node17 -->
<g id="node17" class="node"><title>Node17</title>
<g id="a_node17"><a xlink:href="../../d4/d26/classprolog_1_1terms_1_1Prog_a45a00a5df54d8c378930f320020b457f.html#a45a00a5df54d8c378930f320020b457f" target="_top" xlink:title="usable for launching on a separate thread ">
<polygon fill="none" stroke="black" points="351.5,-63 351.5,-82 461.5,-82 461.5,-63 351.5,-63"/>
<text text-anchor="middle" x="406.5" y="-70" font-family="Helvetica,sans-Serif" font-size="10.00">prolog.terms.Prog.run</text>
</a>
</g>
</g>
<!-- Node2&#45;&gt;Node17 -->
<g id="edge18" class="edge"><title>Node2&#45;&gt;Node17</title>
<path fill="none" stroke="midnightblue" d="M322.827,-83.6242C332.513,-82.3209 342.216,-81.0153 351.392,-79.7806"/>
<polygon fill="midnightblue" stroke="midnightblue" points="322.206,-80.1761 312.763,-84.9784 323.14,-87.1135 322.206,-80.1761"/>
</g>
<!-- Node4 -->
<g id="node4" class="node"><title>Node4</title>
<g id="a_node4"><a xlink:href="../../d8/d35/classprolog_1_1Init_a34d43d3123bb194902cbcb1c06194cce.html#a34d43d3123bb194902cbcb1c06194cce" target="_top" xlink:title="evalutes a query ">
<polygon fill="none" stroke="black" points="713,-126 713,-145 814,-145 814,-126 713,-126"/>
<text text-anchor="middle" x="763.5" y="-133" font-family="Helvetica,sans-Serif" font-size="10.00">prolog.Init.evalGoal</text>
</a>
</g>
</g>
<!-- Node3&#45;&gt;Node4 -->
<g id="edge3" class="edge"><title>Node3&#45;&gt;Node4</title>
<path fill="none" stroke="midnightblue" d="M473.736,-120.045C543.142,-123.76 650.582,-129.51 712.976,-132.849"/>
<polygon fill="midnightblue" stroke="midnightblue" points="473.532,-116.529 463.359,-119.49 473.158,-123.519 473.532,-116.529"/>
</g>
<!-- Node8 -->
<g id="node8" class="node"><title>Node8</title>
<g id="a_node8"><a xlink:href="../../d4/d26/classprolog_1_1terms_1_1Prog_afb6f86119db8ba133de23f8bfe24ba2e.html#afb6f86119db8ba133de23f8bfe24ba2e" target="_top" xlink:title="Computes a copy of the first solution X of Goal G. ">
<polygon fill="none" stroke="black" points="499,-88 499,-107 648,-107 648,-88 499,-88"/>
<text text-anchor="middle" x="573.5" y="-95" font-family="Helvetica,sans-Serif" font-size="10.00">prolog.terms.Prog.firstSolution</text>
</a>
</g>
</g>
<!-- Node3&#45;&gt;Node8 -->
<g id="edge7" class="edge"><title>Node3&#45;&gt;Node8</title>
<path fill="none" stroke="midnightblue" d="M473.419,-108.909C481.781,-107.946 490.379,-106.956 498.852,-105.981"/>
<polygon fill="midnightblue" stroke="midnightblue" points="472.895,-105.446 463.361,-110.067 473.696,-112.4 472.895,-105.446"/>
</g>
<!-- Node5 -->
<g id="node5" class="node"><title>Node5</title>
<g id="a_node5"><a xlink:href="../../d8/d35/classprolog_1_1Init_a2471811f50fbed4de5df26ee530f1e2e.html#a2471811f50fbed4de5df26ee530f1e2e" target="_top" xlink:title="evaluates and times a Goal querying program P ">
<polygon fill="none" stroke="black" points="902.5,-164 902.5,-183 1003.5,-183 1003.5,-164 902.5,-164"/>
<text text-anchor="middle" x="953" y="-171" font-family="Helvetica,sans-Serif" font-size="10.00">prolog.Init.timeGoal</text>
</a>
</g>
</g>
<!-- Node4&#45;&gt;Node5 -->
<g id="edge4" class="edge"><title>Node4&#45;&gt;Node5</title>
<path fill="none" stroke="midnightblue" d="M821.784,-147.11C848.451,-152.514 879.781,-158.864 905.026,-163.98"/>
<polygon fill="midnightblue" stroke="midnightblue" points="822.31,-143.645 811.814,-145.089 820.92,-150.506 822.31,-143.645"/>
</g>
<!-- Node6 -->
<g id="node6" class="node"><title>Node6</title>
<g id="a_node6"><a xlink:href="../../d8/d35/classprolog_1_1Init_a0348efff7140aed75f8364f90b7c2b8b.html#a0348efff7140aed75f8364f90b7c2b8b" target="_top" xlink:title="prolog.Init.run_query">
<polygon fill="none" stroke="black" points="1088,-183 1088,-202 1193,-202 1193,-183 1088,-183"/>
<text text-anchor="middle" x="1140.5" y="-190" font-family="Helvetica,sans-Serif" font-size="10.00">prolog.Init.run_query</text>
</a>
</g>
</g>
<!-- Node5&#45;&gt;Node6 -->
<g id="edge5" class="edge"><title>Node5&#45;&gt;Node6</title>
<path fill="none" stroke="midnightblue" d="M1013.7,-179.615C1037.54,-182.056 1064.72,-184.841 1087.71,-187.195"/>
<polygon fill="midnightblue" stroke="midnightblue" points="1014.02,-176.129 1003.71,-178.592 1013.3,-183.092 1014.02,-176.129"/>
</g>
<!-- Node7 -->
<g id="node7" class="node"><title>Node7</title>
<g id="a_node7"><a xlink:href="../../d8/d35/classprolog_1_1Init_a3e8704cf8b2d909fccc79e967dd48171.html#a3e8704cf8b2d909fccc79e967dd48171" target="_top" xlink:title="prolog.Init.standardTop">
<polygon fill="none" stroke="black" points="1082.5,-145 1082.5,-164 1198.5,-164 1198.5,-145 1082.5,-145"/>
<text text-anchor="middle" x="1140.5" y="-152" font-family="Helvetica,sans-Serif" font-size="10.00">prolog.Init.standardTop</text>
</a>
</g>
</g>
<!-- Node5&#45;&gt;Node7 -->
<g id="edge6" class="edge"><title>Node5&#45;&gt;Node7</title>
<path fill="none" stroke="midnightblue" d="M1013.92,-167.363C1035.9,-165.111 1060.7,-162.571 1082.43,-160.346"/>
<polygon fill="midnightblue" stroke="midnightblue" points="1013.3,-163.908 1003.71,-168.408 1014.02,-170.871 1013.3,-163.908"/>
</g>
<!-- Node8&#45;&gt;Node4 -->
<g id="edge14" class="edge"><title>Node8&#45;&gt;Node4</title>
<path fill="none" stroke="midnightblue" d="M631.937,-109.11C658.674,-114.514 690.088,-120.864 715.401,-125.98"/>
<polygon fill="midnightblue" stroke="midnightblue" points="632.436,-105.64 621.94,-107.089 631.049,-112.501 632.436,-105.64"/>
</g>
<!-- Node9 -->
<g id="node9" class="node"><title>Node9</title>
<g id="a_node9"><a xlink:href="../../d8/d35/classprolog_1_1Init_a4a7b9ae1dc4d489e657326f3ed5a4b7e.html#a4a7b9ae1dc4d489e657326f3ed5a4b7e" target="_top" xlink:title="Asks Prolog a query Answer, Goal and returns the first solution of the form &quot;the(Answer)&quot; or the cons...">
<polygon fill="none" stroke="black" points="710.5,-88 710.5,-107 816.5,-107 816.5,-88 710.5,-88"/>
<text text-anchor="middle" x="763.5" y="-95" font-family="Helvetica,sans-Serif" font-size="10.00">prolog.Init.askProlog</text>
</a>
</g>
</g>
<!-- Node8&#45;&gt;Node9 -->
<g id="edge8" class="edge"><title>Node8&#45;&gt;Node9</title>
<path fill="none" stroke="midnightblue" d="M658.583,-97.5C676.236,-97.5 694.361,-97.5 710.43,-97.5"/>
<polygon fill="midnightblue" stroke="midnightblue" points="658.263,-94.0001 648.263,-97.5 658.263,-101 658.263,-94.0001"/>
</g>
<!-- Node14 -->
<g id="node14" class="node"><title>Node14</title>
<g id="a_node14"><a xlink:href="../../da/dd9/classprolog_1_1fluents_1_1DataBase_a6f8041bc2bcb5cdd8a376e81a3dc4dca.html#a6f8041bc2bcb5cdd8a376e81a3dc4dca" target="_top" xlink:title="adds a Clause to the joint Linda and Predicate table ">
<polygon fill="none" stroke="black" points="684,-19.5 684,-49.5 843,-49.5 843,-19.5 684,-19.5"/>
<text text-anchor="start" x="692" y="-37.5" font-family="Helvetica,sans-Serif" font-size="10.00">prolog.fluents.DataBase.process</text>
<text text-anchor="middle" x="763.5" y="-26.5" font-family="Helvetica,sans-Serif" font-size="10.00">Clause</text>
</a>
</g>
</g>
<!-- Node8&#45;&gt;Node14 -->
<g id="edge15" class="edge"><title>Node8&#45;&gt;Node14</title>
<path fill="none" stroke="midnightblue" d="M612.846,-84.6501C643.184,-74.4836 685.609,-60.2666 717.544,-49.565"/>
<polygon fill="midnightblue" stroke="midnightblue" points="611.423,-81.4356 603.053,-87.9317 613.647,-88.0728 611.423,-81.4356"/>
</g>
<!-- Node10 -->
<g id="node10" class="node"><title>Node10</title>
<g id="a_node10"><a xlink:href="../../d8/d35/classprolog_1_1Init_ae5fe9e2dc533d32690edbbec3b1c279b.html#ae5fe9e2dc533d32690edbbec3b1c279b" target="_top" xlink:title="Asks Prolog a query Goal and returns the first solution of the form &quot;the(Answer)&quot; ...">
<polygon fill="none" stroke="black" points="900,-126 900,-145 1006,-145 1006,-126 900,-126"/>
<text text-anchor="middle" x="953" y="-133" font-family="Helvetica,sans-Serif" font-size="10.00">prolog.Init.askProlog</text>
</a>
</g>
</g>
<!-- Node9&#45;&gt;Node10 -->
<g id="edge9" class="edge"><title>Node9&#45;&gt;Node10</title>
<path fill="none" stroke="midnightblue" d="M821.784,-109.11C848.451,-114.514 879.781,-120.864 905.026,-125.98"/>
<polygon fill="midnightblue" stroke="midnightblue" points="822.31,-105.645 811.814,-107.089 820.92,-112.506 822.31,-105.645"/>
</g>
<!-- Node11 -->
<g id="node11" class="node"><title>Node11</title>
<g id="a_node11"><a xlink:href="../../da/dde/classprolog_1_1Main_aca445add96cb95be654213f0e42d5b76.html#aca445add96cb95be654213f0e42d5b76" target="_top" xlink:title="prolog.Main.init">
<polygon fill="none" stroke="black" points="911.5,-88 911.5,-107 994.5,-107 994.5,-88 911.5,-88"/>
<text text-anchor="middle" x="953" y="-95" font-family="Helvetica,sans-Serif" font-size="10.00">prolog.Main.init</text>
</a>
</g>
</g>
<!-- Node9&#45;&gt;Node11 -->
<g id="edge10" class="edge"><title>Node9&#45;&gt;Node11</title>
<path fill="none" stroke="midnightblue" d="M826.775,-97.5C854.613,-97.5 886.641,-97.5 911.337,-97.5"/>
<polygon fill="midnightblue" stroke="midnightblue" points="826.729,-94.0001 816.729,-97.5 826.729,-101 826.729,-94.0001"/>
</g>
<!-- Node13 -->
<g id="node13" class="node"><title>Node13</title>
<g id="a_node13"><a xlink:href="../../d8/d35/classprolog_1_1Init_a7293b6db1f53eca4730418c54ab07109.html#a7293b6db1f53eca4730418c54ab07109" target="_top" xlink:title="prolog.Init.run">
<polygon fill="none" stroke="black" points="915,-50 915,-69 991,-69 991,-50 915,-50"/>
<text text-anchor="middle" x="953" y="-57" font-family="Helvetica,sans-Serif" font-size="10.00">prolog.Init.run</text>
</a>
</g>
</g>
<!-- Node9&#45;&gt;Node13 -->
<g id="edge12" class="edge"><title>Node9&#45;&gt;Node13</title>
<path fill="none" stroke="midnightblue" d="M821.807,-85.8859C852.014,-79.7639 888.199,-72.4303 914.746,-67.0502"/>
<polygon fill="midnightblue" stroke="midnightblue" points="820.92,-82.4944 811.814,-87.911 822.31,-89.3549 820.92,-82.4944"/>
</g>
<!-- Node12 -->
<g id="node12" class="node"><title>Node12</title>
<g id="a_node12"><a xlink:href="../../da/dde/classprolog_1_1Main_ab0b3345fa72bd3b96c565437b962efa3.html#ab0b3345fa72bd3b96c565437b962efa3" target="_top" xlink:title="prolog.Main.main">
<polygon fill="none" stroke="black" points="1095,-69 1095,-88 1186,-88 1186,-69 1095,-69"/>
<text text-anchor="middle" x="1140.5" y="-76" font-family="Helvetica,sans-Serif" font-size="10.00">prolog.Main.main</text>
</a>
</g>
</g>
<!-- Node11&#45;&gt;Node12 -->
<g id="edge11" class="edge"><title>Node11&#45;&gt;Node12</title>
<path fill="none" stroke="midnightblue" d="M1004.79,-92.2981C1033.02,-89.406 1067.83,-85.8407 1094.99,-83.0587"/>
<polygon fill="midnightblue" stroke="midnightblue" points="1004.3,-88.8296 994.709,-93.3304 1005.01,-95.7931 1004.3,-88.8296"/>
</g>
<!-- Node13&#45;&gt;Node12 -->
<g id="edge13" class="edge"><title>Node13&#45;&gt;Node12</title>
<path fill="none" stroke="midnightblue" d="M1001.32,-64.3469C1030.12,-67.2964 1066.67,-71.0405 1094.95,-73.9368"/>
<polygon fill="midnightblue" stroke="midnightblue" points="1001.4,-60.8365 991.093,-63.2993 1000.68,-67.8001 1001.4,-60.8365"/>
</g>
<!-- Node15 -->
<g id="node15" class="node"><title>Node15</title>
<g id="a_node15"><a xlink:href="../../da/dd9/classprolog_1_1fluents_1_1DataBase_a83885e10b61d6bf129307d9bf50d93de.html#a83885e10b61d6bf129307d9bf50d93de" target="_top" xlink:title="prolog.fluents.DataBase.apply\l_parser">
<polygon fill="none" stroke="black" points="879,-0.5 879,-30.5 1027,-30.5 1027,-0.5 879,-0.5"/>
<text text-anchor="start" x="887" y="-18.5" font-family="Helvetica,sans-Serif" font-size="10.00">prolog.fluents.DataBase.apply</text>
<text text-anchor="middle" x="953" y="-7.5" font-family="Helvetica,sans-Serif" font-size="10.00">_parser</text>
</a>
</g>
</g>
<!-- Node14&#45;&gt;Node15 -->
<g id="edge16" class="edge"><title>Node14&#45;&gt;Node15</title>
<path fill="none" stroke="midnightblue" d="M853.24,-25.5076C861.828,-24.6374 870.473,-23.7614 878.884,-22.9091"/>
<polygon fill="midnightblue" stroke="midnightblue" points="852.798,-22.0344 843.202,-26.5249 853.504,-28.9988 852.798,-22.0344"/>
</g>
<!-- Node16 -->
<g id="node16" class="node"><title>Node16</title>
<g id="a_node16"><a xlink:href="../../da/dd9/classprolog_1_1fluents_1_1DataBase_af8b26948ded7bba6386b984f463bf166.html#af8b26948ded7bba6386b984f463bf166" target="_top" xlink:title="prolog.fluents.DataBase.stream\lToProg">
<polygon fill="none" stroke="black" points="1063,-0.5 1063,-30.5 1218,-30.5 1218,-0.5 1063,-0.5"/>
<text text-anchor="start" x="1071" y="-18.5" font-family="Helvetica,sans-Serif" font-size="10.00">prolog.fluents.DataBase.stream</text>
<text text-anchor="middle" x="1140.5" y="-7.5" font-family="Helvetica,sans-Serif" font-size="10.00">ToProg</text>
</a>
</g>
</g>
<!-- Node15&#45;&gt;Node16 -->
<g id="edge17" class="edge"><title>Node15&#45;&gt;Node16</title>
<path fill="none" stroke="midnightblue" d="M1037.06,-15.5C1045.65,-15.5 1054.34,-15.5 1062.86,-15.5"/>
<polygon fill="midnightblue" stroke="midnightblue" points="1037.05,-12.0001 1027.05,-15.5 1037.05,-19.0001 1037.05,-12.0001"/>
</g>
</g>
</svg>
        <g id="navigator" transform="translate(0 0)" fill="#404254">
                <rect fill="#f2f5e9" fill-opacity="0.5" stroke="#606060" stroke-width=".5" x="0" y="0" width="60" height="60"/>
                <use id="zoomplus" xlink:href="#zoomPlus" x="17" y="9" onmousedown="handleZoom(evt,'in')"/>
                <use id="zoomminus" xlink:href="#zoomMin" x="42" y="9" onmousedown="handleZoom(evt,'out')"/>
                <use id="reset" xlink:href="#resetDef" x="30" y="36" onmousedown="handleReset()"/>
                <g id="arrowUp" xlink:href="#dirArrow" transform="translate(30 24)" onmousedown="handlePan(0,-1)">
                  <use xlink:href="#rim" fill="#404040">
                        <set attributeName="fill" to="#808080" begin="arrowUp.mouseover" end="arrowUp.mouseout"/>
                  </use>
                  <path fill="none" stroke="white" stroke-width="1.5" d="M0,-3.0v7 M-2.5,-0.5L0,-3.0L2.5,-0.5"/>
                </g>
                <g id="arrowRight" xlink:href="#dirArrow" transform="rotate(90) translate(36 -43)" onmousedown="handlePan(1,0)">
                  <use xlink:href="#rim" fill="#404040">
                        <set attributeName="fill" to="#808080" begin="arrowRight.mouseover" end="arrowRight.mouseout"/>
                  </use>
                  <path fill="none" stroke="white" stroke-width="1.5" d="M0,-3.0v7 M-2.5,-0.5L0,-3.0L2.5,-0.5"/>
                </g>
                <g id="arrowDown" xlink:href="#dirArrow" transform="rotate(180) translate(-30 -48)" onmousedown="handlePan(0,1)">
                  <use xlink:href="#rim" fill="#404040">
                        <set attributeName="fill" to="#808080" begin="arrowDown.mouseover" end="arrowDown.mouseout"/>
                  </use>
                  <path fill="none" stroke="white" stroke-width="1.5" d="M0,-3.0v7 M-2.5,-0.5L0,-3.0L2.5,-0.5"/>
                </g>
                <g id="arrowLeft" xlink:href="#dirArrow" transform="rotate(270) translate(-36 17)" onmousedown="handlePan(-1,0)">
                  <use xlink:href="#rim" fill="#404040">
                        <set attributeName="fill" to="#808080" begin="arrowLeft.mouseover" end="arrowLeft.mouseout"/>
                  </use>
                  <path fill="none" stroke="white" stroke-width="1.5" d="M0,-3.0v7 M-2.5,-0.5L0,-3.0L2.5,-0.5"/>
                </g>
        </g>
        <svg viewBox="0 0 15 15" width="100%" height="30px" preserveAspectRatio="xMaxYMin meet">
         <g id="arrow_out" transform="scale(0.3 0.3)">
          <a xlink:href="classprolog_1_1terms_1_1Unfolder_a71545549869608e7a300c7dbd7ed7216_a71545549869608e7a300c7dbd7ed7216_icgraph_org.svg" target="_base">
           <rect id="button" ry="5" rx="5" y="6" x="6" height="38" width="38"
                fill="#f2f5e9" fill-opacity="0.5" stroke="#606060" stroke-width="1.0"/>
           <path id="arrow"
             d="M 11.500037,31.436501 C 11.940474,20.09759 22.043105,11.32322 32.158766,21.979434 L 37.068811,17.246167 C 37.068811,17.246167 37.088388,32 37.088388,32 L 22.160133,31.978069 C 22.160133,31.978069 26.997745,27.140456 26.997745,27.140456 C 18.528582,18.264221 13.291696,25.230495 11.500037,31.436501 z"
             style="fill:#404040;"/>
          </a>
         </g>
        </svg>
</svg>
