<?xml version="1.0" encoding="UTF-8" standalone="no"?>
<!DOCTYPE svg PUBLIC "-//W3C//DTD SVG 1.1//EN"
 "http://www.w3.org/Graphics/SVG/1.1/DTD/svg11.dtd">
<!-- Generated by graphviz version 2.38.0 (20140413.2041)
 -->
<!-- Title: prolog.terms.Unfolder.Unfolder Pages: 1 -->
<!--zoomable 481 -->
<svg id="main" version="1.1" xmlns="http://www.w3.org/2000/svg" xmlns:xlink="http://www.w3.org/1999/xlink" xml:space="preserve" onload="init(evt)">
<style type="text/css"><![CDATA[
.edge:hover path { stroke: red; }
.edge:hover polygon { stroke: red; fill: red; }
]]></style>
<script type="text/javascript"><![CDATA[
var edges = document.getElementsByTagName('g');
if (edges && edges.length) {
  for (var i=0;i<edges.length;i++) {
    if (edges[i].id.substr(0,4)=='edge') {
      edges[i].setAttribute('class','edge');
    }
  }
}
]]></script>
        <defs>
                <circle id="rim" cx="0" cy="0" r="7"/>
                <circle id="rim2" cx="0" cy="0" r="3.5"/>
                <g id="zoomPlus">
                        <use xlink:href="#rim" fill="#404040">
                                <set attributeName="fill" to="#808080" begin="zoomplus.mouseover" end="zoomplus.mouseout"/>
                        </use>
                        <path d="M-4,0h8M0,-4v8" fill="none" stroke="white" stroke-width="1.5" pointer-events="none"/>
                </g>
                <g id="zoomMin">
                        <use xlink:href="#rim" fill="#404040">
                                <set attributeName="fill" to="#808080" begin="zoomminus.mouseover" end="zoomminus.mouseout"/>
                        </use>
                        <path d="M-4,0h8" fill="none" stroke="white" stroke-width="1.5" pointer-events="none"/>
                </g>
                <g id="dirArrow">
                        <path fill="none" stroke="white" stroke-width="1.5" d="M0,-3.0v7 M-2.5,-0.5L0,-3.0L2.5,-0.5"/>
                </g>
               <g id="resetDef">
                       <use xlink:href="#rim2" fill="#404040">
                               <set attributeName="fill" to="#808080" begin="reset.mouseover" end="reset.mouseout"/>
                       </use>
               </g>
        </defs>

<script type="text/javascript">
var viewWidth = 1212;
var viewHeight = 481;
var sectionId = 'dynsection-0';
</script>
<script xlink:href="../../svgpan.js"/>
<svg id="graph" class="graph">
<g id="viewport">
<title>prolog.terms.Unfolder.Unfolder</title>
<!-- Node1 -->
<g id="node1" class="node"><title>Node1</title>
<polygon fill="#bfbfbf" stroke="black" points="0,-156 0,-175 150,-175 150,-156 0,-156"/>
<text text-anchor="middle" x="75" y="-163" font-family="Helvetica,sans-Serif" font-size="10.00">prolog.terms.Unfolder.Unfolder</text>
</g>
<!-- Node2 -->
<g id="node2" class="node"><title>Node2</title>
<g id="a_node2"><a xlink:href="../../d6/dc4/classprolog_1_1terms_1_1Clause_abb4cb737b264c815c48f32a431ec6f5a.html#abb4cb737b264c815c48f32a431ec6f5a" target="_top" xlink:title="Gets the leftmost (first) goal in the body of a clause, i.e. ">
<polygon fill="none" stroke="black" points="381,-263 381,-282 521,-282 521,-263 381,-263"/>
<text text-anchor="middle" x="451" y="-270" font-family="Helvetica,sans-Serif" font-size="10.00">prolog.terms.Clause.getFirst</text>
</a>
</g>
</g>
<!-- Node1&#45;&gt;Node2 -->
<g id="edge1" class="edge"><title>Node1&#45;&gt;Node2</title>
<path fill="none" stroke="midnightblue" d="M84.1965,-175.146C101.014,-194.153 141.594,-236.108 186,-253.5 244.888,-276.564 316.762,-280.32 370.639,-278.863"/>
<polygon fill="midnightblue" stroke="midnightblue" points="370.946,-282.355 380.823,-278.52 370.711,-275.359 370.946,-282.355"/>
</g>
<!-- Node5 -->
<g id="node5" class="node"><title>Node5</title>
<g id="a_node5"><a xlink:href="../../d3/ded/classprolog_1_1terms_1_1Term_a6724b2651c5023151fee83e78956e112.html#a6724b2651c5023151fee83e78956e112" target="_top" xlink:title="Returns a string key used based on the string name of the term. ">
<polygon fill="none" stroke="black" points="200,-88 200,-107 330,-107 330,-88 200,-88"/>
<text text-anchor="middle" x="265" y="-95" font-family="Helvetica,sans-Serif" font-size="10.00">prolog.terms.Term.getKey</text>
</a>
</g>
</g>
<!-- Node1&#45;&gt;Node5 -->
<g id="edge4" class="edge"><title>Node1&#45;&gt;Node5</title>
<path fill="none" stroke="midnightblue" d="M94.6607,-155.941C116.215,-145.196 152.959,-127.78 186,-116.5 193.327,-113.999 201.146,-111.688 208.9,-109.604"/>
<polygon fill="midnightblue" stroke="midnightblue" points="209.837,-112.977 218.643,-107.087 208.086,-106.199 209.837,-112.977"/>
</g>
<!-- Node6 -->
<g id="node6" class="node"><title>Node6</title>
<g id="a_node6"><a xlink:href="../../d4/d26/classprolog_1_1terms_1_1Prog_a41eac8617a5002806d7137eb36183405.html#a41eac8617a5002806d7137eb36183405" target="_top" xlink:title="prolog.terms.Prog.getTrail">
<polygon fill="none" stroke="black" points="200.5,-50 200.5,-69 329.5,-69 329.5,-50 200.5,-50"/>
<text text-anchor="middle" x="265" y="-57" font-family="Helvetica,sans-Serif" font-size="10.00">prolog.terms.Prog.getTrail</text>
</a>
</g>
</g>
<!-- Node1&#45;&gt;Node6 -->
<g id="edge5" class="edge"><title>Node1&#45;&gt;Node6</title>
<path fill="none" stroke="midnightblue" d="M85.3103,-155.751C103.119,-137.69 143.988,-99.0046 186,-78.5 190.932,-76.0929 196.192,-73.9768 201.562,-72.1191"/>
<polygon fill="midnightblue" stroke="midnightblue" points="202.818,-75.3933 211.302,-69.0473 200.712,-68.7174 202.818,-75.3933"/>
</g>
<!-- Node7 -->
<g id="node7" class="node"><title>Node7</title>
<g id="a_node7"><a xlink:href="../../df/d94/classprolog_1_1terms_1_1Unfolder_ae1840746f212e74a2beb717c3a794d3a.html#ae1840746f212e74a2beb717c3a794d3a" target="_top" xlink:title="Reduces builtin functions after the neck of a clause, before a &quot;real&quot; atom is unfolded. ">
<polygon fill="none" stroke="black" points="193.5,-333.5 193.5,-363.5 336.5,-363.5 336.5,-333.5 193.5,-333.5"/>
<text text-anchor="start" x="201.5" y="-351.5" font-family="Helvetica,sans-Serif" font-size="10.00">prolog.terms.Unfolder.reduce</text>
<text text-anchor="middle" x="265" y="-340.5" font-family="Helvetica,sans-Serif" font-size="10.00">Builtins</text>
</a>
</g>
</g>
<!-- Node1&#45;&gt;Node7 -->
<g id="edge6" class="edge"><title>Node1&#45;&gt;Node7</title>
<path fill="none" stroke="midnightblue" d="M83.7967,-175.083C101.162,-196.193 144.751,-247.895 186,-286.5 201.452,-300.961 219.95,-315.761 235.053,-327.272"/>
<polygon fill="midnightblue" stroke="midnightblue" points="232.961,-330.079 243.053,-333.306 237.177,-324.49 232.961,-330.079"/>
</g>
<!-- Node17 -->
<g id="node17" class="node"><title>Node17</title>
<g id="a_node17"><a xlink:href="../../da/dd9/classprolog_1_1fluents_1_1DataBase_abd1dba5c111c8b5a4a577942fa046ae0.html#abd1dba5c111c8b5a4a577942fa046ae0" target="_top" xlink:title="Gives an Iterator view to the Queue of Term or Clause objects stored at key k. ">
<polygon fill="none" stroke="black" points="198.5,-0.5 198.5,-30.5 331.5,-30.5 331.5,-0.5 198.5,-0.5"/>
<text text-anchor="start" x="206.5" y="-18.5" font-family="Helvetica,sans-Serif" font-size="10.00">prolog.fluents.DataBase.to</text>
<text text-anchor="middle" x="265" y="-7.5" font-family="Helvetica,sans-Serif" font-size="10.00">EnumerationFor</text>
</a>
</g>
</g>
<!-- Node1&#45;&gt;Node17 -->
<g id="edge20" class="edge"><title>Node1&#45;&gt;Node17</title>
<path fill="none" stroke="midnightblue" d="M81.879,-155.778C96.5029,-132.409 136.903,-72.6425 186,-40.5 189.097,-38.4724 192.371,-36.5987 195.753,-34.8686"/>
<polygon fill="midnightblue" stroke="midnightblue" points="197.317,-38.0016 204.914,-30.6168 194.37,-31.6521 197.317,-38.0016"/>
</g>
<!-- Node18 -->
<g id="node18" class="node"><title>Node18</title>
<g id="a_node18"><a xlink:href="../../df/d94/classprolog_1_1terms_1_1Unfolder_aa582e02b2fe0debc9cdee377c11dc401.html#aa582e02b2fe0debc9cdee377c11dc401" target="_top" xlink:title="Tracer on exiting g. ">
<polygon fill="none" stroke="black" points="197.5,-175.5 197.5,-205.5 332.5,-205.5 332.5,-175.5 197.5,-175.5"/>
<text text-anchor="start" x="205.5" y="-193.5" font-family="Helvetica,sans-Serif" font-size="10.00">prolog.terms.Unfolder.trace</text>
<text text-anchor="middle" x="265" y="-182.5" font-family="Helvetica,sans-Serif" font-size="10.00">_failing</text>
</a>
</g>
</g>
<!-- Node1&#45;&gt;Node18 -->
<g id="edge21" class="edge"><title>Node1&#45;&gt;Node18</title>
<path fill="none" stroke="midnightblue" d="M147.611,-175.023C160.593,-176.749 174.18,-178.556 187.302,-180.301"/>
<polygon fill="midnightblue" stroke="midnightblue" points="186.853,-183.772 197.227,-181.621 187.776,-176.833 186.853,-183.772"/>
</g>
<!-- Node20 -->
<g id="node20" class="node"><title>Node20</title>
<g id="a_node20"><a xlink:href="../../df/d94/classprolog_1_1terms_1_1Unfolder_ac163a708c1c928bc040e66ed88addefc.html#ac163a708c1c928bc040e66ed88addefc" target="_top" xlink:title="Tracer on entering g. ">
<polygon fill="none" stroke="black" points="186,-225 186,-244 344,-244 344,-225 186,-225"/>
<text text-anchor="middle" x="265" y="-232" font-family="Helvetica,sans-Serif" font-size="10.00">prolog.terms.Unfolder.trace_goal</text>
</a>
</g>
</g>
<!-- Node1&#45;&gt;Node20 -->
<g id="edge25" class="edge"><title>Node1&#45;&gt;Node20</title>
<path fill="none" stroke="midnightblue" d="M95.0748,-175.179C116.703,-185.874 153.225,-203.089 186,-214.5 194.249,-217.372 203.119,-220.034 211.814,-222.416"/>
<polygon fill="midnightblue" stroke="midnightblue" points="210.952,-225.809 221.514,-224.984 212.743,-219.042 210.952,-225.809"/>
</g>
<!-- Node21 -->
<g id="node21" class="node"><title>Node21</title>
<g id="a_node21"><a xlink:href="../../df/d94/classprolog_1_1terms_1_1Unfolder_a504653c2b9cc9831c54c277cfb6c051f.html#a504653c2b9cc9831c54c277cfb6c051f" target="_top" xlink:title="Tracer for undefined predicates. ">
<polygon fill="none" stroke="black" points="197.5,-126.5 197.5,-156.5 332.5,-156.5 332.5,-126.5 197.5,-126.5"/>
<text text-anchor="start" x="205.5" y="-144.5" font-family="Helvetica,sans-Serif" font-size="10.00">prolog.terms.Unfolder.trace</text>
<text text-anchor="middle" x="265" y="-133.5" font-family="Helvetica,sans-Serif" font-size="10.00">_nomatch</text>
</a>
</g>
</g>
<!-- Node1&#45;&gt;Node21 -->
<g id="edge29" class="edge"><title>Node1&#45;&gt;Node21</title>
<path fill="none" stroke="midnightblue" d="M150.033,-156.049C162.235,-154.491 174.907,-152.874 187.176,-151.307"/>
<polygon fill="midnightblue" stroke="midnightblue" points="187.891,-154.745 197.367,-150.006 187.004,-147.801 187.891,-154.745"/>
</g>
<!-- Node3 -->
<g id="node3" class="node"><title>Node3</title>
<g id="a_node3"><a xlink:href="../../d6/dc4/classprolog_1_1terms_1_1Clause_ab690dc7c5a2d5b6007fbf559a537d262.html#ab690dc7c5a2d5b6007fbf559a537d262" target="_top" xlink:title="Extracts the body of a clause. ">
<polygon fill="none" stroke="black" points="566,-301 566,-320 709,-320 709,-301 566,-301"/>
<text text-anchor="middle" x="637.5" y="-308" font-family="Helvetica,sans-Serif" font-size="10.00">prolog.terms.Clause.getBody</text>
</a>
</g>
</g>
<!-- Node2&#45;&gt;Node3 -->
<g id="edge2" class="edge"><title>Node2&#45;&gt;Node3</title>
<path fill="none" stroke="midnightblue" d="M498.557,-282.089C523.343,-287.194 554.015,-293.511 580.139,-298.892"/>
<polygon fill="midnightblue" stroke="midnightblue" points="579.777,-302.391 590.278,-300.98 581.189,-295.535 579.777,-302.391"/>
</g>
<!-- Node4 -->
<g id="node4" class="node"><title>Node4</title>
<g id="a_node4"><a xlink:href="../../d3/ded/classprolog_1_1terms_1_1Term_ae140fac2c9d066dc897fcfa723060a7a.html#ae140fac2c9d066dc897fcfa723060a7a" target="_top" xlink:title="Dereferences if necessary. ">
<polygon fill="none" stroke="black" points="758,-415 758,-434 868,-434 868,-415 758,-415"/>
<text text-anchor="middle" x="813" y="-422" font-family="Helvetica,sans-Serif" font-size="10.00">prolog.terms.Term.ref</text>
</a>
</g>
</g>
<!-- Node3&#45;&gt;Node4 -->
<g id="edge3" class="edge"><title>Node3&#45;&gt;Node4</title>
<path fill="none" stroke="midnightblue" d="M694.423,-320.002C702.272,-322.476 710.03,-325.588 717,-329.5 751.883,-349.078 782.664,-385.06 799.183,-406.681"/>
<polygon fill="midnightblue" stroke="midnightblue" points="796.581,-409.047 805.36,-414.978 802.196,-404.867 796.581,-409.047"/>
</g>
<!-- Node7&#45;&gt;Node2 -->
<g id="edge15" class="edge"><title>Node7&#45;&gt;Node2</title>
<path fill="none" stroke="midnightblue" d="M292.498,-333.359C315.179,-320.864 348.987,-303.327 380,-291.5 386.324,-289.088 393.079,-286.851 399.804,-284.823"/>
<polygon fill="midnightblue" stroke="midnightblue" points="400.943,-288.137 409.582,-282.003 399.004,-281.411 400.943,-288.137"/>
</g>
<!-- Node8 -->
<g id="node8" class="node"><title>Node8</title>
<g id="a_node8"><a xlink:href="../../d6/dc4/classprolog_1_1terms_1_1Clause_af03de53b32948f858e2cbfeb697eaf4b.html#af03de53b32948f858e2cbfeb697eaf4b" target="_top" xlink:title="Concatenates 2 Conjunctions. ">
<polygon fill="none" stroke="black" points="558,-453 558,-472 717,-472 717,-453 558,-453"/>
<text text-anchor="middle" x="637.5" y="-460" font-family="Helvetica,sans-Serif" font-size="10.00">prolog.terms.Clause.appendConj</text>
</a>
</g>
</g>
<!-- Node7&#45;&gt;Node8 -->
<g id="edge7" class="edge"><title>Node7&#45;&gt;Node8</title>
<path fill="none" stroke="midnightblue" d="M282.252,-363.807C303.112,-382.471 341.255,-413.39 380,-428.5 433.249,-449.266 496.927,-457.789 547.515,-461.109"/>
<polygon fill="midnightblue" stroke="midnightblue" points="547.585,-464.619 557.776,-461.723 548.003,-457.632 547.585,-464.619"/>
</g>
<!-- Node9 -->
<g id="node9" class="node"><title>Node9</title>
<g id="a_node9"><a xlink:href="../../d4/dc2/classprolog_1_1io_1_1IO_ab6e0553457312c4804472cbe1c646a28.html#ab6e0553457312c4804472cbe1c646a28" target="_top" xlink:title="prolog.io.IO.errmes">
<polygon fill="none" stroke="black" points="401,-339 401,-358 501,-358 501,-339 401,-339"/>
<text text-anchor="middle" x="451" y="-346" font-family="Helvetica,sans-Serif" font-size="10.00">prolog.io.IO.errmes</text>
</a>
</g>
</g>
<!-- Node7&#45;&gt;Node9 -->
<g id="edge9" class="edge"><title>Node7&#45;&gt;Node9</title>
<path fill="none" stroke="midnightblue" d="M336.613,-348.5C354.405,-348.5 373.328,-348.5 390.513,-348.5"/>
<polygon fill="midnightblue" stroke="midnightblue" points="390.963,-352 400.963,-348.5 390.963,-345 390.963,-352"/>
</g>
<!-- Node14 -->
<g id="node14" class="node"><title>Node14</title>
<g id="a_node14"><a xlink:href="../../d3/ded/classprolog_1_1terms_1_1Term_a8e58f4382e867e4fe936c34bc3102ee8.html#a8e58f4382e867e4fe936c34bc3102ee8" target="_top" xlink:title="prolog.terms.Term.exec">
<polygon fill="none" stroke="black" points="391,-377 391,-396 511,-396 511,-377 391,-377"/>
<text text-anchor="middle" x="451" y="-384" font-family="Helvetica,sans-Serif" font-size="10.00">prolog.terms.Term.exec</text>
</a>
</g>
</g>
<!-- Node7&#45;&gt;Node14 -->
<g id="edge14" class="edge"><title>Node7&#45;&gt;Node14</title>
<path fill="none" stroke="midnightblue" d="M336.613,-363.083C355.508,-366.985 375.678,-371.151 393.688,-374.87"/>
<polygon fill="midnightblue" stroke="midnightblue" points="393.231,-378.35 403.732,-376.945 394.647,-371.494 393.231,-378.35"/>
</g>
<!-- Node15 -->
<g id="node15" class="node"><title>Node15</title>
<g id="a_node15"><a xlink:href="../../d6/dc4/classprolog_1_1terms_1_1Clause_a5e5502c9619429232fcb310406256830.html#a5e5502c9619429232fcb310406256830" target="_top" xlink:title="Extracts the head of a clause (a Term). ">
<polygon fill="none" stroke="black" points="565.5,-415 565.5,-434 709.5,-434 709.5,-415 565.5,-415"/>
<text text-anchor="middle" x="637.5" y="-422" font-family="Helvetica,sans-Serif" font-size="10.00">prolog.terms.Clause.getHead</text>
</a>
</g>
</g>
<!-- Node7&#45;&gt;Node15 -->
<g id="edge16" class="edge"><title>Node7&#45;&gt;Node15</title>
<path fill="none" stroke="midnightblue" d="M289.361,-363.601C311.668,-377.172 346.72,-396.333 380,-405.5 437.209,-421.259 504.142,-425.777 555.287,-426.477"/>
<polygon fill="midnightblue" stroke="midnightblue" points="555.267,-429.977 565.298,-426.569 555.331,-422.978 555.267,-429.977"/>
</g>
<!-- Node16 -->
<g id="node16" class="node"><title>Node16</title>
<g id="a_node16"><a xlink:href="../../d6/dc4/classprolog_1_1terms_1_1Clause_a60e4c0d7e8a9b03c5b073f3c2f023011.html#a60e4c0d7e8a9b03c5b073f3c2f023011" target="_top" xlink:title="Gets all but the leftmost goal in the body of a clause, i.e. ">
<polygon fill="none" stroke="black" points="380,-301 380,-320 522,-320 522,-301 380,-301"/>
<text text-anchor="middle" x="451" y="-308" font-family="Helvetica,sans-Serif" font-size="10.00">prolog.terms.Clause.getRest</text>
</a>
</g>
</g>
<!-- Node7&#45;&gt;Node16 -->
<g id="edge18" class="edge"><title>Node7&#45;&gt;Node16</title>
<path fill="none" stroke="midnightblue" d="M336.613,-333.917C355.508,-330.015 375.678,-325.849 393.688,-322.13"/>
<polygon fill="midnightblue" stroke="midnightblue" points="394.647,-325.506 403.732,-320.055 393.231,-318.65 394.647,-325.506"/>
</g>
<!-- Node8&#45;&gt;Node4 -->
<g id="edge8" class="edge"><title>Node8&#45;&gt;Node4</title>
<path fill="none" stroke="midnightblue" d="M682.281,-452.911C705.486,-447.829 734.178,-441.545 758.673,-436.18"/>
<polygon fill="midnightblue" stroke="midnightblue" points="759.514,-439.579 768.533,-434.02 758.016,-432.741 759.514,-439.579"/>
</g>
<!-- Node10 -->
<g id="node10" class="node"><title>Node10</title>
<g id="a_node10"><a xlink:href="../../d4/dc2/classprolog_1_1io_1_1IO_a22a9a2bfe9fa6e00257369f5bf078a44.html#a22a9a2bfe9fa6e00257369f5bf078a44" target="_top" xlink:title="prolog.io.IO.getStdOutput">
<polygon fill="none" stroke="black" points="573.5,-339 573.5,-358 701.5,-358 701.5,-339 573.5,-339"/>
<text text-anchor="middle" x="637.5" y="-346" font-family="Helvetica,sans-Serif" font-size="10.00">prolog.io.IO.getStdOutput</text>
</a>
</g>
</g>
<!-- Node9&#45;&gt;Node10 -->
<g id="edge10" class="edge"><title>Node9&#45;&gt;Node10</title>
<path fill="none" stroke="midnightblue" d="M501.443,-348.5C520.431,-348.5 542.528,-348.5 563.282,-348.5"/>
<polygon fill="midnightblue" stroke="midnightblue" points="563.342,-352 573.342,-348.5 563.342,-345 563.342,-352"/>
</g>
<!-- Node11 -->
<g id="node11" class="node"><title>Node11</title>
<g id="a_node11"><a xlink:href="../../d4/dc2/classprolog_1_1io_1_1IO_ad851906c6ebd6559eb1b1fa52e26dabb.html#ad851906c6ebd6559eb1b1fa52e26dabb" target="_top" xlink:title="prolog.io.IO.println">
<polygon fill="none" stroke="black" points="589.5,-149 589.5,-168 685.5,-168 685.5,-149 589.5,-149"/>
<text text-anchor="middle" x="637.5" y="-156" font-family="Helvetica,sans-Serif" font-size="10.00">prolog.io.IO.println</text>
</a>
</g>
</g>
<!-- Node9&#45;&gt;Node11 -->
<g id="edge11" class="edge"><title>Node9&#45;&gt;Node11</title>
<path fill="none" stroke="midnightblue" d="M501.111,-340.023C508.521,-337.406 515.761,-333.981 522,-329.5 550.891,-308.747 604.112,-216.82 626.335,-176.998"/>
<polygon fill="midnightblue" stroke="midnightblue" points="629.496,-178.514 631.283,-168.071 623.373,-175.12 629.496,-178.514"/>
</g>
<!-- Node12 -->
<g id="node12" class="node"><title>Node12</title>
<g id="a_node12"><a xlink:href="../../d4/dc2/classprolog_1_1io_1_1IO_aab64872af087c6cd9c5dd13e9f4eda00.html#aab64872af087c6cd9c5dd13e9f4eda00" target="_top" xlink:title="prolog.io.IO.print">
<polygon fill="none" stroke="black" points="768.5,-149 768.5,-168 857.5,-168 857.5,-149 768.5,-149"/>
<text text-anchor="middle" x="813" y="-156" font-family="Helvetica,sans-Serif" font-size="10.00">prolog.io.IO.print</text>
</a>
</g>
</g>
<!-- Node11&#45;&gt;Node12 -->
<g id="edge12" class="edge"><title>Node11&#45;&gt;Node12</title>
<path fill="none" stroke="midnightblue" d="M685.91,-158.5C708.284,-158.5 735.087,-158.5 758.218,-158.5"/>
<polygon fill="midnightblue" stroke="midnightblue" points="758.219,-162 768.219,-158.5 758.219,-155 758.219,-162"/>
</g>
<!-- Node13 -->
<g id="node13" class="node"><title>Node13</title>
<g id="a_node13"><a xlink:href="../../d6/d92/interfaceprolog_1_1io_1_1IOPeer_abc1f90b85b358011e2595069d38ac25f.html#abc1f90b85b358011e2595069d38ac25f" target="_top" xlink:title="prolog.io.IOPeer.print">
<polygon fill="none" stroke="black" points="921.5,-149 921.5,-168 1030.5,-168 1030.5,-149 921.5,-149"/>
<text text-anchor="middle" x="976" y="-156" font-family="Helvetica,sans-Serif" font-size="10.00">prolog.io.IOPeer.print</text>
</a>
</g>
</g>
<!-- Node12&#45;&gt;Node13 -->
<g id="edge13" class="edge"><title>Node12&#45;&gt;Node13</title>
<path fill="none" stroke="midnightblue" d="M857.569,-158.5C874.072,-158.5 893.218,-158.5 911.201,-158.5"/>
<polygon fill="midnightblue" stroke="midnightblue" points="911.336,-162 921.336,-158.5 911.336,-155 911.336,-162"/>
</g>
<!-- Node15&#45;&gt;Node4 -->
<g id="edge17" class="edge"><title>Node15&#45;&gt;Node4</title>
<path fill="none" stroke="midnightblue" d="M709.57,-424.5C722.145,-424.5 735.175,-424.5 747.555,-424.5"/>
<polygon fill="midnightblue" stroke="midnightblue" points="747.776,-428 757.776,-424.5 747.776,-421 747.776,-428"/>
</g>
<!-- Node16&#45;&gt;Node3 -->
<g id="edge19" class="edge"><title>Node16&#45;&gt;Node3</title>
<path fill="none" stroke="midnightblue" d="M522.015,-310.5C533.019,-310.5 544.473,-310.5 555.697,-310.5"/>
<polygon fill="midnightblue" stroke="midnightblue" points="555.921,-314 565.921,-310.5 555.921,-307 555.921,-314"/>
</g>
<!-- Node18&#45;&gt;Node2 -->
<g id="edge22" class="edge"><title>Node18&#45;&gt;Node2</title>
<path fill="none" stroke="midnightblue" d="M317.678,-205.588C326.561,-208.599 335.624,-211.941 344,-215.5 372.981,-227.813 404.574,-245.382 425.661,-257.752"/>
<polygon fill="midnightblue" stroke="midnightblue" points="423.903,-260.778 434.289,-262.868 427.473,-254.757 423.903,-260.778"/>
</g>
<!-- Node18&#45;&gt;Node11 -->
<g id="edge24" class="edge"><title>Node18&#45;&gt;Node11</title>
<path fill="none" stroke="midnightblue" d="M332.564,-182.461C348.118,-180.707 364.63,-178.945 380,-177.5 448.353,-171.074 527.123,-165.513 579.142,-162.096"/>
<polygon fill="midnightblue" stroke="midnightblue" points="579.427,-165.585 589.178,-161.442 578.971,-158.6 579.427,-165.585"/>
</g>
<!-- Node19 -->
<g id="node19" class="node"><title>Node19</title>
<g id="a_node19"><a xlink:href="../../d6/dc4/classprolog_1_1terms_1_1Clause_a42d56fcb3bedfc14a0ab04dacf08d9e0.html#a42d56fcb3bedfc14a0ab04dacf08d9e0" target="_top" xlink:title="Pretty prints a clause after replacing ugly variable names. ">
<polygon fill="none" stroke="black" points="385.5,-187 385.5,-206 516.5,-206 516.5,-187 385.5,-187"/>
<text text-anchor="middle" x="451" y="-194" font-family="Helvetica,sans-Serif" font-size="10.00">prolog.terms.Clause.pprint</text>
</a>
</g>
</g>
<!-- Node18&#45;&gt;Node19 -->
<g id="edge23" class="edge"><title>Node18&#45;&gt;Node19</title>
<path fill="none" stroke="midnightblue" d="M332.688,-192.675C346.509,-193.125 361.157,-193.603 375.244,-194.062"/>
<polygon fill="midnightblue" stroke="midnightblue" points="375.275,-197.565 385.384,-194.393 375.503,-190.569 375.275,-197.565"/>
</g>
<!-- Node20&#45;&gt;Node2 -->
<g id="edge26" class="edge"><title>Node20&#45;&gt;Node2</title>
<path fill="none" stroke="midnightblue" d="M312.431,-244.089C337.149,-249.194 367.739,-255.511 393.792,-260.892"/>
<polygon fill="midnightblue" stroke="midnightblue" points="393.402,-264.385 403.903,-262.98 394.817,-257.53 393.402,-264.385"/>
</g>
<!-- Node20&#45;&gt;Node11 -->
<g id="edge28" class="edge"><title>Node20&#45;&gt;Node11</title>
<path fill="none" stroke="midnightblue" d="M344.057,-236.463C395.46,-235.876 463.768,-231.49 522,-215.5 555.538,-206.291 590.897,-187.014 613.295,-173.436"/>
<polygon fill="midnightblue" stroke="midnightblue" points="615.397,-176.251 622.058,-168.012 611.713,-170.299 615.397,-176.251"/>
</g>
<!-- Node20&#45;&gt;Node19 -->
<g id="edge27" class="edge"><title>Node20&#45;&gt;Node19</title>
<path fill="none" stroke="midnightblue" d="M312.431,-224.911C337.149,-219.806 367.739,-213.489 393.792,-208.108"/>
<polygon fill="midnightblue" stroke="midnightblue" points="394.817,-211.47 403.903,-206.02 393.402,-204.615 394.817,-211.47"/>
</g>
<!-- Node21&#45;&gt;Node11 -->
<g id="edge36" class="edge"><title>Node21&#45;&gt;Node11</title>
<path fill="none" stroke="midnightblue" d="M332.649,-140.278C384.36,-139.814 457.805,-140.212 522,-144.5 540.714,-145.75 561.061,-147.959 579.34,-150.258"/>
<polygon fill="midnightblue" stroke="midnightblue" points="578.893,-153.73 589.259,-151.539 579.79,-146.787 578.893,-153.73"/>
</g>
<!-- Node22 -->
<g id="node22" class="node"><title>Node22</title>
<g id="a_node22"><a xlink:href="../../d3/ded/classprolog_1_1terms_1_1Term_af1569a19ab5774ae5658b74cbacdbc11.html#af1569a19ab5774ae5658b74cbacdbc11" target="_top" xlink:title="Prints out a term to a String with variables named in order V1, V2,.... ">
<polygon fill="none" stroke="black" points="389.5,-73 389.5,-92 512.5,-92 512.5,-73 389.5,-73"/>
<text text-anchor="middle" x="451" y="-80" font-family="Helvetica,sans-Serif" font-size="10.00">prolog.terms.Term.pprint</text>
</a>
</g>
</g>
<!-- Node21&#45;&gt;Node22 -->
<g id="edge30" class="edge"><title>Node21&#45;&gt;Node22</title>
<path fill="none" stroke="midnightblue" d="M313.022,-126.431C323.235,-123.157 333.98,-119.713 344,-116.5 366.041,-109.433 390.659,-101.537 410.619,-95.134"/>
<polygon fill="midnightblue" stroke="midnightblue" points="411.849,-98.4152 420.302,-92.0278 409.71,-91.7498 411.849,-98.4152"/>
</g>
<!-- Node23 -->
<g id="node23" class="node"><title>Node23</title>
<g id="a_node23"><a xlink:href="../../d3/ded/classprolog_1_1terms_1_1Term_a50d0b69d48782ff4bcf433c70c1472a0.html#a50d0b69d48782ff4bcf433c70c1472a0" target="_top" xlink:title="Replaces variables with uppercase constants named `V1&#39;, &#39;V2&#39;, etc. ">
<polygon fill="none" stroke="black" points="562.5,-73 562.5,-92 712.5,-92 712.5,-73 562.5,-73"/>
<text text-anchor="middle" x="637.5" y="-80" font-family="Helvetica,sans-Serif" font-size="10.00">prolog.terms.Term.numbervars</text>
</a>
</g>
</g>
<!-- Node22&#45;&gt;Node23 -->
<g id="edge31" class="edge"><title>Node22&#45;&gt;Node23</title>
<path fill="none" stroke="midnightblue" d="M512.668,-82.5C525.306,-82.5 538.843,-82.5 552.159,-82.5"/>
<polygon fill="midnightblue" stroke="midnightblue" points="552.28,-86.0001 562.28,-82.5 552.28,-79.0001 552.28,-86.0001"/>
</g>
<!-- Node24 -->
<g id="node24" class="node"><title>Node24</title>
<g id="a_node24"><a xlink:href="../../d3/ded/classprolog_1_1terms_1_1Term_a01e5a83e648ee3f89415c0142c4220d4.html#a01e5a83e648ee3f89415c0142c4220d4" target="_top" xlink:title="Returns a copy of a term with variables standardized apart (`fresh variables&#39;). ">
<polygon fill="none" stroke="black" points="753,-73 753,-92 873,-92 873,-73 753,-73"/>
<text text-anchor="middle" x="813" y="-80" font-family="Helvetica,sans-Serif" font-size="10.00">prolog.terms.Term.copy</text>
</a>
</g>
</g>
<!-- Node23&#45;&gt;Node24 -->
<g id="edge32" class="edge"><title>Node23&#45;&gt;Node24</title>
<path fill="none" stroke="midnightblue" d="M712.583,-82.5C722.563,-82.5 732.772,-82.5 742.666,-82.5"/>
<polygon fill="midnightblue" stroke="midnightblue" points="742.839,-86.0001 752.839,-82.5 742.839,-79.0001 742.839,-86.0001"/>
</g>
<!-- Node25 -->
<g id="node25" class="node"><title>Node25</title>
<g id="a_node25"><a xlink:href="../../d3/ded/classprolog_1_1terms_1_1Term_a0a660e6cd55f12e49d328e1b84b478a4.html#a0a660e6cd55f12e49d328e1b84b478a4" target="_top" xlink:title="Defines the reaction to an agent recursing over the structure of a term. ">
<polygon fill="none" stroke="black" points="909,-92 909,-111 1043,-111 1043,-92 909,-92"/>
<text text-anchor="middle" x="976" y="-99" font-family="Helvetica,sans-Serif" font-size="10.00">prolog.terms.Term.reaction</text>
</a>
</g>
</g>
<!-- Node23&#45;&gt;Node25 -->
<g id="edge35" class="edge"><title>Node23&#45;&gt;Node25</title>
<path fill="none" stroke="midnightblue" d="M685.079,-92.0126C705.78,-95.7781 730.508,-99.6465 753,-101.5 801.362,-105.485 855.853,-105.551 898.745,-104.588"/>
<polygon fill="midnightblue" stroke="midnightblue" points="898.918,-108.084 908.828,-104.338 898.744,-101.087 898.918,-108.084"/>
</g>
<!-- Node24&#45;&gt;Node25 -->
<g id="edge33" class="edge"><title>Node24&#45;&gt;Node25</title>
<path fill="none" stroke="midnightblue" d="M873.036,-89.467C881.422,-90.4566 890.143,-91.4858 898.797,-92.5071"/>
<polygon fill="midnightblue" stroke="midnightblue" points="898.56,-96.0034 908.902,-93.6996 899.381,-89.0516 898.56,-96.0034"/>
</g>
<!-- Node26 -->
<g id="node26" class="node"><title>Node26</title>
<g id="a_node26"><a xlink:href="../../d3/ded/classprolog_1_1terms_1_1Term_aa52e271c0f6784dbde9aa4f5f3ab0268.html#aa52e271c0f6784dbde9aa4f5f3ab0268" target="_top" xlink:title="Identity action. ">
<polygon fill="none" stroke="black" points="1079,-92 1079,-111 1204,-111 1204,-92 1079,-92"/>
<text text-anchor="middle" x="1141.5" y="-99" font-family="Helvetica,sans-Serif" font-size="10.00">prolog.terms.Term.action</text>
</a>
</g>
</g>
<!-- Node25&#45;&gt;Node26 -->
<g id="edge34" class="edge"><title>Node25&#45;&gt;Node26</title>
<path fill="none" stroke="midnightblue" d="M1043.03,-101.5C1051.57,-101.5 1060.34,-101.5 1068.96,-101.5"/>
<polygon fill="midnightblue" stroke="midnightblue" points="1068.98,-105 1078.98,-101.5 1068.98,-98.0001 1068.98,-105"/>
</g>
</g>
</svg>
        <g id="navigator" transform="translate(0 0)" fill="#404254">
                <rect fill="#f2f5e9" fill-opacity="0.5" stroke="#606060" stroke-width=".5" x="0" y="0" width="60" height="60"/>
                <use id="zoomplus" xlink:href="#zoomPlus" x="17" y="9" onmousedown="handleZoom(evt,'in')"/>
                <use id="zoomminus" xlink:href="#zoomMin" x="42" y="9" onmousedown="handleZoom(evt,'out')"/>
                <use id="reset" xlink:href="#resetDef" x="30" y="36" onmousedown="handleReset()"/>
                <g id="arrowUp" xlink:href="#dirArrow" transform="translate(30 24)" onmousedown="handlePan(0,-1)">
                  <use xlink:href="#rim" fill="#404040">
                        <set attributeName="fill" to="#808080" begin="arrowUp.mouseover" end="arrowUp.mouseout"/>
                  </use>
                  <path fill="none" stroke="white" stroke-width="1.5" d="M0,-3.0v7 M-2.5,-0.5L0,-3.0L2.5,-0.5"/>
                </g>
                <g id="arrowRight" xlink:href="#dirArrow" transform="rotate(90) translate(36 -43)" onmousedown="handlePan(1,0)">
                  <use xlink:href="#rim" fill="#404040">
                        <set attributeName="fill" to="#808080" begin="arrowRight.mouseover" end="arrowRight.mouseout"/>
                  </use>
                  <path fill="none" stroke="white" stroke-width="1.5" d="M0,-3.0v7 M-2.5,-0.5L0,-3.0L2.5,-0.5"/>
                </g>
                <g id="arrowDown" xlink:href="#dirArrow" transform="rotate(180) translate(-30 -48)" onmousedown="handlePan(0,1)">
                  <use xlink:href="#rim" fill="#404040">
                        <set attributeName="fill" to="#808080" begin="arrowDown.mouseover" end="arrowDown.mouseout"/>
                  </use>
                  <path fill="none" stroke="white" stroke-width="1.5" d="M0,-3.0v7 M-2.5,-0.5L0,-3.0L2.5,-0.5"/>
                </g>
                <g id="arrowLeft" xlink:href="#dirArrow" transform="rotate(270) translate(-36 17)" onmousedown="handlePan(-1,0)">
                  <use xlink:href="#rim" fill="#404040">
                        <set attributeName="fill" to="#808080" begin="arrowLeft.mouseover" end="arrowLeft.mouseout"/>
                  </use>
                  <path fill="none" stroke="white" stroke-width="1.5" d="M0,-3.0v7 M-2.5,-0.5L0,-3.0L2.5,-0.5"/>
                </g>
        </g>
        <svg viewBox="0 0 15 15" width="100%" height="30px" preserveAspectRatio="xMaxYMin meet">
         <g id="arrow_out" transform="scale(0.3 0.3)">
          <a xlink:href="classprolog_1_1terms_1_1Unfolder_a82021b31093362b5f28314f871cb3f85_a82021b31093362b5f28314f871cb3f85_cgraph_org.svg" target="_base">
           <rect id="button" ry="5" rx="5" y="6" x="6" height="38" width="38"
                fill="#f2f5e9" fill-opacity="0.5" stroke="#606060" stroke-width="1.0"/>
           <path id="arrow"
             d="M 11.500037,31.436501 C 11.940474,20.09759 22.043105,11.32322 32.158766,21.979434 L 37.068811,17.246167 C 37.068811,17.246167 37.088388,32 37.088388,32 L 22.160133,31.978069 C 22.160133,31.978069 26.997745,27.140456 26.997745,27.140456 C 18.528582,18.264221 13.291696,25.230495 11.500037,31.436501 z"
             style="fill:#404040;"/>
          </a>
         </g>
        </svg>
</svg>
