<?xml version="1.0" encoding="UTF-8" standalone="no"?>
<!DOCTYPE svg PUBLIC "-//W3C//DTD SVG 1.1//EN"
 "http://www.w3.org/Graphics/SVG/1.1/DTD/svg11.dtd">
<!-- Generated by graphviz version 2.38.0 (20140413.2041)
 -->
<!-- Title: prolog.io.realToken Pages: 1 -->
<!--zoomable 1188 -->
<svg id="main" version="1.1" xmlns="http://www.w3.org/2000/svg" xmlns:xlink="http://www.w3.org/1999/xlink" xml:space="preserve" onload="init(evt)">
<style type="text/css"><![CDATA[
.edge:hover path { stroke: red; }
.edge:hover polygon { stroke: red; fill: red; }
]]></style>
<script type="text/javascript"><![CDATA[
var edges = document.getElementsByTagName('g');
if (edges && edges.length) {
  for (var i=0;i<edges.length;i++) {
    if (edges[i].id.substr(0,4)=='edge') {
      edges[i].setAttribute('class','edge');
    }
  }
}
]]></script>
        <defs>
                <circle id="rim" cx="0" cy="0" r="7"/>
                <circle id="rim2" cx="0" cy="0" r="3.5"/>
                <g id="zoomPlus">
                        <use xlink:href="#rim" fill="#404040">
                                <set attributeName="fill" to="#808080" begin="zoomplus.mouseover" end="zoomplus.mouseout"/>
                        </use>
                        <path d="M-4,0h8M0,-4v8" fill="none" stroke="white" stroke-width="1.5" pointer-events="none"/>
                </g>
                <g id="zoomMin">
                        <use xlink:href="#rim" fill="#404040">
                                <set attributeName="fill" to="#808080" begin="zoomminus.mouseover" end="zoomminus.mouseout"/>
                        </use>
                        <path d="M-4,0h8" fill="none" stroke="white" stroke-width="1.5" pointer-events="none"/>
                </g>
                <g id="dirArrow">
                        <path fill="none" stroke="white" stroke-width="1.5" d="M0,-3.0v7 M-2.5,-0.5L0,-3.0L2.5,-0.5"/>
                </g>
               <g id="resetDef">
                       <use xlink:href="#rim2" fill="#404040">
                               <set attributeName="fill" to="#808080" begin="reset.mouseover" end="reset.mouseout"/>
                       </use>
               </g>
        </defs>

<script type="text/javascript">
var viewWidth = 245;
var viewHeight = 1188;
var sectionId = 'dynsection-1';
</script>
<script xlink:href="../../svgpan.js"/>
<svg id="graph" class="graph">
<g id="viewport">
<title>prolog.io.realToken</title>
<!-- Node1 -->
<g id="node1" class="node"><title>Node1</title>
<polygon fill="#bfbfbf" stroke="black" points="4.5,-0.5 4.5,-57.5 103.5,-57.5 103.5,-0.5 4.5,-0.5"/>
<text text-anchor="middle" x="54" y="-45.5" font-family="Helvetica,sans-Serif" font-size="10.00">prolog.io.realToken</text>
<polyline fill="none" stroke="black" points="4.5,-38.5 103.5,-38.5 "/>
<text text-anchor="middle" x="54" y="-26.5" font-family="Helvetica,sans-Serif" font-size="10.00"> </text>
<polyline fill="none" stroke="black" points="4.5,-19.5 103.5,-19.5 "/>
<text text-anchor="start" x="12.5" y="-7.5" font-family="Helvetica,sans-Serif" font-size="10.00">+ realToken()</text>
</g>
<!-- Node2 -->
<g id="node2" class="node"><title>Node2</title>
<g id="a_node2"><a xlink:href="../../de/d8d/classprolog_1_1terms_1_1Fun.html" target="_top" xlink:title="Implements compound terms. ">
<polygon fill="none" stroke="black" points="0,-95.5 0,-361.5 108,-361.5 108,-95.5 0,-95.5"/>
<text text-anchor="middle" x="54" y="-349.5" font-family="Helvetica,sans-Serif" font-size="10.00">prolog.terms.Fun</text>
<polyline fill="none" stroke="black" points="0,-342.5 108,-342.5 "/>
<text text-anchor="middle" x="54" y="-330.5" font-family="Helvetica,sans-Serif" font-size="10.00"> </text>
<polyline fill="none" stroke="black" points="0,-323.5 108,-323.5 "/>
<text text-anchor="start" x="8" y="-311.5" font-family="Helvetica,sans-Serif" font-size="10.00">+ getArity()</text>
<text text-anchor="start" x="8" y="-300.5" font-family="Helvetica,sans-Serif" font-size="10.00">+ Fun()</text>
<text text-anchor="start" x="8" y="-289.5" font-family="Helvetica,sans-Serif" font-size="10.00">+ Fun()</text>
<text text-anchor="start" x="8" y="-278.5" font-family="Helvetica,sans-Serif" font-size="10.00">+ Fun()</text>
<text text-anchor="start" x="8" y="-267.5" font-family="Helvetica,sans-Serif" font-size="10.00">+ init()</text>
<text text-anchor="start" x="8" y="-256.5" font-family="Helvetica,sans-Serif" font-size="10.00">+ getArg()</text>
<text text-anchor="start" x="8" y="-245.5" font-family="Helvetica,sans-Serif" font-size="10.00">+ getIntArg()</text>
<text text-anchor="start" x="8" y="-234.5" font-family="Helvetica,sans-Serif" font-size="10.00">+ setArg()</text>
<text text-anchor="start" x="8" y="-223.5" font-family="Helvetica,sans-Serif" font-size="10.00">+ putArg()</text>
<text text-anchor="start" x="8" y="-212.5" font-family="Helvetica,sans-Serif" font-size="10.00">+ Fun()</text>
<text text-anchor="start" x="8" y="-201.5" font-family="Helvetica,sans-Serif" font-size="10.00">and 7 more...</text>
<text text-anchor="start" x="8" y="-190.5" font-family="Helvetica,sans-Serif" font-size="10.00">~ bind_to()</text>
<text text-anchor="start" x="8" y="-179.5" font-family="Helvetica,sans-Serif" font-size="10.00">~ unify_to()</text>
<text text-anchor="start" x="8" y="-168.5" font-family="Helvetica,sans-Serif" font-size="10.00">~ reaction()</text>
<text text-anchor="start" x="8" y="-157.5" font-family="Helvetica,sans-Serif" font-size="10.00">~ isClause()</text>
<text text-anchor="start" x="8" y="-146.5" font-family="Helvetica,sans-Serif" font-size="10.00"># funToString()</text>
<text text-anchor="start" x="8" y="-135.5" font-family="Helvetica,sans-Serif" font-size="10.00"># unInitializedClone()</text>
<text text-anchor="start" x="8" y="-124.5" font-family="Helvetica,sans-Serif" font-size="10.00"># initializedClone()</text>
<text text-anchor="start" x="8" y="-113.5" font-family="Helvetica,sans-Serif" font-size="10.00"># watchNull()</text>
<text text-anchor="start" x="8" y="-102.5" font-family="Helvetica,sans-Serif" font-size="10.00">&#45; show_args()</text>
</a>
</g>
</g>
<!-- Node2&#45;&gt;Node1 -->
<g id="edge1" class="edge"><title>Node2&#45;&gt;Node1</title>
<path fill="none" stroke="midnightblue" d="M54,-85.4433C54,-75.1923 54,-65.7177 54,-57.6077"/>
<polygon fill="none" stroke="midnightblue" points="50.5001,-85.4903 54,-95.4903 57.5001,-85.4903 50.5001,-85.4903"/>
</g>
<!-- Node3 -->
<g id="node3" class="node"><title>Node3</title>
<g id="a_node3"><a xlink:href="../../d0/d3f/classprolog_1_1terms_1_1Const.html" target="_top" xlink:title="Symbolic constant, of arity 0. ">
<polygon fill="none" stroke="black" points="85,-409.5 85,-554.5 185,-554.5 185,-409.5 85,-409.5"/>
<text text-anchor="middle" x="135" y="-542.5" font-family="Helvetica,sans-Serif" font-size="10.00">prolog.terms.Const</text>
<polyline fill="none" stroke="black" points="85,-535.5 185,-535.5 "/>
<text text-anchor="start" x="93" y="-523.5" font-family="Helvetica,sans-Serif" font-size="10.00">&#45; sym</text>
<polyline fill="none" stroke="black" points="85,-516.5 185,-516.5 "/>
<text text-anchor="start" x="93" y="-504.5" font-family="Helvetica,sans-Serif" font-size="10.00">+ Const()</text>
<text text-anchor="start" x="93" y="-493.5" font-family="Helvetica,sans-Serif" font-size="10.00">+ name()</text>
<text text-anchor="start" x="93" y="-482.5" font-family="Helvetica,sans-Serif" font-size="10.00">+ qname()</text>
<text text-anchor="start" x="93" y="-471.5" font-family="Helvetica,sans-Serif" font-size="10.00">+ toString()</text>
<text text-anchor="start" x="93" y="-460.5" font-family="Helvetica,sans-Serif" font-size="10.00">+ getKey()</text>
<text text-anchor="start" x="93" y="-449.5" font-family="Helvetica,sans-Serif" font-size="10.00">+ getArity()</text>
<text text-anchor="start" x="93" y="-438.5" font-family="Helvetica,sans-Serif" font-size="10.00">+ toUnquoted()</text>
<text text-anchor="start" x="93" y="-427.5" font-family="Helvetica,sans-Serif" font-size="10.00">+ the()</text>
<text text-anchor="start" x="93" y="-416.5" font-family="Helvetica,sans-Serif" font-size="10.00">~ bind_to()</text>
</a>
</g>
</g>
<!-- Node3&#45;&gt;Node2 -->
<g id="edge2" class="edge"><title>Node3&#45;&gt;Node2</title>
<path fill="none" stroke="midnightblue" d="M108.798,-399.646C104.876,-387.466 100.748,-374.649 96.5902,-361.74"/>
<polygon fill="none" stroke="midnightblue" points="105.5,-400.821 111.897,-409.267 112.163,-398.675 105.5,-400.821"/>
</g>
<!-- Node3&#45;&gt;Node3 -->
<g id="edge9" class="edge"><title>Node3&#45;&gt;Node3</title>
<path fill="none" stroke="#404040" d="M185.114,-499.367C195.518,-497.539 203,-491.75 203,-482 203,-476.363 200.499,-472.05 196.379,-469.061"/>
<polygon fill="none" stroke="#404040" points="196.282,-469.023 189.234,-470.551 185.114,-464.633 192.161,-463.105 196.282,-469.023"/>
<text text-anchor="middle" x="220" y="-501.5" font-family="Helvetica,sans-Serif" font-size="10.00"> +aTrue</text>
<text text-anchor="middle" x="220" y="-490.5" font-family="Helvetica,sans-Serif" font-size="10.00">+aNo</text>
<text text-anchor="middle" x="220" y="-479.5" font-family="Helvetica,sans-Serif" font-size="10.00">+anEof</text>
<text text-anchor="middle" x="220" y="-468.5" font-family="Helvetica,sans-Serif" font-size="10.00">+aYes</text>
<text text-anchor="middle" x="220" y="-457.5" font-family="Helvetica,sans-Serif" font-size="10.00">+aFail</text>
</g>
<!-- Node8 -->
<g id="node8" class="node"><title>Node8</title>
<g id="a_node8"><a xlink:href="../../d8/dad/classprolog_1_1terms_1_1Nil.html" target="_top" xlink:title="Special constant terminating a list. ">
<polygon fill="none" stroke="black" points="126,-194.5 126,-262.5 212,-262.5 212,-194.5 126,-194.5"/>
<text text-anchor="middle" x="169" y="-250.5" font-family="Helvetica,sans-Serif" font-size="10.00">prolog.terms.Nil</text>
<polyline fill="none" stroke="black" points="126,-243.5 212,-243.5 "/>
<text text-anchor="middle" x="169" y="-231.5" font-family="Helvetica,sans-Serif" font-size="10.00"> </text>
<polyline fill="none" stroke="black" points="126,-224.5 212,-224.5 "/>
<text text-anchor="start" x="134" y="-212.5" font-family="Helvetica,sans-Serif" font-size="10.00">+ Nil()</text>
<text text-anchor="start" x="134" y="-201.5" font-family="Helvetica,sans-Serif" font-size="10.00">+ Nil()</text>
</a>
</g>
</g>
<!-- Node3&#45;&gt;Node8 -->
<g id="edge8" class="edge"><title>Node3&#45;&gt;Node8</title>
<path fill="none" stroke="midnightblue" d="M146.057,-399.21C152.331,-352.799 159.841,-297.25 164.517,-262.66"/>
<polygon fill="none" stroke="midnightblue" points="142.569,-398.888 144.698,-409.267 149.506,-399.826 142.569,-398.888"/>
</g>
<!-- Node4 -->
<g id="node4" class="node"><title>Node4</title>
<g id="a_node4"><a xlink:href="../../d4/de0/classprolog_1_1terms_1_1Nonvar.html" target="_top" xlink:title="Part of the Prolog Term hierarchy. ">
<polygon fill="none" stroke="black" points="82.5,-602.5 82.5,-692.5 187.5,-692.5 187.5,-602.5 82.5,-602.5"/>
<text text-anchor="middle" x="135" y="-680.5" font-family="Helvetica,sans-Serif" font-size="10.00">prolog.terms.Nonvar</text>
<polyline fill="none" stroke="black" points="82.5,-673.5 187.5,-673.5 "/>
<text text-anchor="middle" x="135" y="-661.5" font-family="Helvetica,sans-Serif" font-size="10.00"> </text>
<polyline fill="none" stroke="black" points="82.5,-654.5 187.5,-654.5 "/>
<text text-anchor="start" x="90.5" y="-642.5" font-family="Helvetica,sans-Serif" font-size="10.00">+ name()</text>
<text text-anchor="start" x="90.5" y="-631.5" font-family="Helvetica,sans-Serif" font-size="10.00">~ bind_to()</text>
<text text-anchor="start" x="90.5" y="-620.5" font-family="Helvetica,sans-Serif" font-size="10.00">~ unify_to()</text>
<text text-anchor="start" x="90.5" y="-609.5" font-family="Helvetica,sans-Serif" font-size="10.00">~ listify()</text>
</a>
</g>
</g>
<!-- Node4&#45;&gt;Node3 -->
<g id="edge3" class="edge"><title>Node4&#45;&gt;Node3</title>
<path fill="none" stroke="midnightblue" d="M135,-592.005C135,-580.05 135,-567.217 135,-554.703"/>
<polygon fill="none" stroke="midnightblue" points="131.5,-592.255 135,-602.255 138.5,-592.255 131.5,-592.255"/>
</g>
<!-- Node5 -->
<g id="node5" class="node"><title>Node5</title>
<g id="a_node5"><a xlink:href="../../d3/ded/classprolog_1_1terms_1_1Term.html" target="_top" xlink:title="Top element of the Prolog term hierarchy. ">
<polygon fill="none" stroke="black" points="17,-730.5 17,-1084.5 115,-1084.5 115,-730.5 17,-730.5"/>
<text text-anchor="middle" x="66" y="-1072.5" font-family="Helvetica,sans-Serif" font-size="10.00">prolog.terms.Term</text>
<polyline fill="none" stroke="black" points="17,-1065.5 115,-1065.5 "/>
<text text-anchor="start" x="25" y="-1053.5" font-family="Helvetica,sans-Serif" font-size="10.00">+ JAVA</text>
<text text-anchor="start" x="25" y="-1042.5" font-family="Helvetica,sans-Serif" font-size="10.00">+ REAL</text>
<text text-anchor="start" x="25" y="-1031.5" font-family="Helvetica,sans-Serif" font-size="10.00">+ INT</text>
<text text-anchor="start" x="25" y="-1020.5" font-family="Helvetica,sans-Serif" font-size="10.00">+ VAR</text>
<text text-anchor="start" x="25" y="-1009.5" font-family="Helvetica,sans-Serif" font-size="10.00">+ CONST</text>
<polyline fill="none" stroke="black" points="17,-1002.5 115,-1002.5 "/>
<text text-anchor="start" x="25" y="-990.5" font-family="Helvetica,sans-Serif" font-size="10.00">+ getArity()</text>
<text text-anchor="start" x="25" y="-979.5" font-family="Helvetica,sans-Serif" font-size="10.00">+ ref()</text>
<text text-anchor="start" x="25" y="-968.5" font-family="Helvetica,sans-Serif" font-size="10.00">+ token()</text>
<text text-anchor="start" x="25" y="-957.5" font-family="Helvetica,sans-Serif" font-size="10.00">+ toClause()</text>
<text text-anchor="start" x="25" y="-946.5" font-family="Helvetica,sans-Serif" font-size="10.00">+ matches()</text>
<text text-anchor="start" x="25" y="-935.5" font-family="Helvetica,sans-Serif" font-size="10.00">+ matches()</text>
<text text-anchor="start" x="25" y="-924.5" font-family="Helvetica,sans-Serif" font-size="10.00">+ matching_copy()</text>
<text text-anchor="start" x="25" y="-913.5" font-family="Helvetica,sans-Serif" font-size="10.00">+ copy()</text>
<text text-anchor="start" x="25" y="-902.5" font-family="Helvetica,sans-Serif" font-size="10.00">+ varsOf()</text>
<text text-anchor="start" x="25" y="-891.5" font-family="Helvetica,sans-Serif" font-size="10.00">+ numbervars()</text>
<text text-anchor="start" x="25" y="-880.5" font-family="Helvetica,sans-Serif" font-size="10.00">and 6 more...</text>
<text text-anchor="start" x="25" y="-869.5" font-family="Helvetica,sans-Serif" font-size="10.00">+ fromString()</text>
<text text-anchor="start" x="25" y="-858.5" font-family="Helvetica,sans-Serif" font-size="10.00">+ charsToString()</text>
<text text-anchor="start" x="25" y="-847.5" font-family="Helvetica,sans-Serif" font-size="10.00">~ bind_to()</text>
<text text-anchor="start" x="25" y="-836.5" font-family="Helvetica,sans-Serif" font-size="10.00">~ unify_to()</text>
<text text-anchor="start" x="25" y="-825.5" font-family="Helvetica,sans-Serif" font-size="10.00">~ toTerm()</text>
<text text-anchor="start" x="25" y="-814.5" font-family="Helvetica,sans-Serif" font-size="10.00">~ isClause()</text>
<text text-anchor="start" x="25" y="-803.5" font-family="Helvetica,sans-Serif" font-size="10.00">~ reaction()</text>
<text text-anchor="start" x="25" y="-792.5" font-family="Helvetica,sans-Serif" font-size="10.00">~ action()</text>
<text text-anchor="start" x="25" y="-781.5" font-family="Helvetica,sans-Serif" font-size="10.00">~ exec()</text>
<text text-anchor="start" x="25" y="-770.5" font-family="Helvetica,sans-Serif" font-size="10.00">~ stringToChars()</text>
<text text-anchor="start" x="25" y="-759.5" font-family="Helvetica,sans-Serif" font-size="10.00"># unify()</text>
<text text-anchor="start" x="25" y="-748.5" font-family="Helvetica,sans-Serif" font-size="10.00"># undo()</text>
<text text-anchor="start" x="25" y="-737.5" font-family="Helvetica,sans-Serif" font-size="10.00"># exec()</text>
</a>
</g>
</g>
<!-- Node5&#45;&gt;Node2 -->
<g id="edge10" class="edge"><title>Node5&#45;&gt;Node2</title>
<path fill="none" stroke="#404040" d="M62.8785,-730.394C60.9129,-619.502 58.4072,-478.139 56.5593,-373.885"/>
<polygon fill="none" stroke="#404040" points="56.5557,-373.678 52.4499,-367.75 56.3429,-361.68 60.4487,-367.608 56.5557,-373.678"/>
<text text-anchor="middle" x="75" y="-576" font-family="Helvetica,sans-Serif" font-size="10.00"> +args</text>
</g>
<!-- Node5&#45;&gt;Node4 -->
<g id="edge4" class="edge"><title>Node5&#45;&gt;Node4</title>
<path fill="none" stroke="midnightblue" d="M115.692,-720.695C118.378,-710.653 120.91,-701.186 123.201,-692.617"/>
<polygon fill="none" stroke="midnightblue" points="112.276,-719.923 113.073,-730.487 119.038,-721.731 112.276,-719.923"/>
</g>
<!-- Node6 -->
<g id="node6" class="node"><title>Node6</title>
<polygon fill="none" stroke="#bfbfbf" points="8.5,-1122.5 8.5,-1179.5 53.5,-1179.5 53.5,-1122.5 8.5,-1122.5"/>
<text text-anchor="middle" x="31" y="-1167.5" font-family="Helvetica,sans-Serif" font-size="10.00">Object</text>
<polyline fill="none" stroke="#bfbfbf" points="8.5,-1160.5 53.5,-1160.5 "/>
<text text-anchor="middle" x="31" y="-1148.5" font-family="Helvetica,sans-Serif" font-size="10.00"> </text>
<polyline fill="none" stroke="#bfbfbf" points="8.5,-1141.5 53.5,-1141.5 "/>
<text text-anchor="middle" x="31" y="-1129.5" font-family="Helvetica,sans-Serif" font-size="10.00"> </text>
</g>
<!-- Node6&#45;&gt;Node5 -->
<g id="edge5" class="edge"><title>Node6&#45;&gt;Node5</title>
<path fill="none" stroke="midnightblue" d="M36.4619,-1112.31C37.6703,-1103.97 39.0272,-1094.61 40.478,-1084.6"/>
<polygon fill="none" stroke="midnightblue" points="32.9855,-1111.9 35.0149,-1122.3 39.9131,-1112.9 32.9855,-1111.9"/>
</g>
<!-- Node7 -->
<g id="node7" class="node"><title>Node7</title>
<polygon fill="none" stroke="#bfbfbf" points="72,-1122.5 72,-1179.5 132,-1179.5 132,-1122.5 72,-1122.5"/>
<text text-anchor="middle" x="102" y="-1167.5" font-family="Helvetica,sans-Serif" font-size="10.00">Cloneable</text>
<polyline fill="none" stroke="#bfbfbf" points="72,-1160.5 132,-1160.5 "/>
<text text-anchor="middle" x="102" y="-1148.5" font-family="Helvetica,sans-Serif" font-size="10.00"> </text>
<polyline fill="none" stroke="#bfbfbf" points="72,-1141.5 132,-1141.5 "/>
<text text-anchor="middle" x="102" y="-1129.5" font-family="Helvetica,sans-Serif" font-size="10.00"> </text>
</g>
<!-- Node7&#45;&gt;Node5 -->
<g id="edge6" class="edge"><title>Node7&#45;&gt;Node5</title>
<path fill="none" stroke="midnightblue" d="M96.382,-1112.31C95.1391,-1103.97 93.7434,-1094.61 92.2512,-1084.6"/>
<polygon fill="none" stroke="midnightblue" points="92.9341,-1112.92 97.8703,-1122.3 99.8576,-1111.89 92.9341,-1112.92"/>
</g>
<!-- Node8&#45;&gt;Node3 -->
<g id="edge7" class="edge"><title>Node8&#45;&gt;Node3</title>
<path fill="none" stroke="#404040" d="M164.517,-262.66C159.91,-296.742 152.551,-351.173 146.334,-397.161"/>
<polygon fill="none" stroke="#404040" points="146.305,-397.375 149.465,-403.857 144.698,-409.267 141.537,-402.785 146.305,-397.375"/>
<text text-anchor="middle" x="161.5" y="-383" font-family="Helvetica,sans-Serif" font-size="10.00"> +aNil</text>
</g>
</g>
</svg>
        <g id="navigator" transform="translate(0 0)" fill="#404254">
                <rect fill="#f2f5e9" fill-opacity="0.5" stroke="#606060" stroke-width=".5" x="0" y="0" width="60" height="60"/>
                <use id="zoomplus" xlink:href="#zoomPlus" x="17" y="9" onmousedown="handleZoom(evt,'in')"/>
                <use id="zoomminus" xlink:href="#zoomMin" x="42" y="9" onmousedown="handleZoom(evt,'out')"/>
                <use id="reset" xlink:href="#resetDef" x="30" y="36" onmousedown="handleReset()"/>
                <g id="arrowUp" xlink:href="#dirArrow" transform="translate(30 24)" onmousedown="handlePan(0,-1)">
                  <use xlink:href="#rim" fill="#404040">
                        <set attributeName="fill" to="#808080" begin="arrowUp.mouseover" end="arrowUp.mouseout"/>
                  </use>
                  <path fill="none" stroke="white" stroke-width="1.5" d="M0,-3.0v7 M-2.5,-0.5L0,-3.0L2.5,-0.5"/>
                </g>
                <g id="arrowRight" xlink:href="#dirArrow" transform="rotate(90) translate(36 -43)" onmousedown="handlePan(1,0)">
                  <use xlink:href="#rim" fill="#404040">
                        <set attributeName="fill" to="#808080" begin="arrowRight.mouseover" end="arrowRight.mouseout"/>
                  </use>
                  <path fill="none" stroke="white" stroke-width="1.5" d="M0,-3.0v7 M-2.5,-0.5L0,-3.0L2.5,-0.5"/>
                </g>
                <g id="arrowDown" xlink:href="#dirArrow" transform="rotate(180) translate(-30 -48)" onmousedown="handlePan(0,1)">
                  <use xlink:href="#rim" fill="#404040">
                        <set attributeName="fill" to="#808080" begin="arrowDown.mouseover" end="arrowDown.mouseout"/>
                  </use>
                  <path fill="none" stroke="white" stroke-width="1.5" d="M0,-3.0v7 M-2.5,-0.5L0,-3.0L2.5,-0.5"/>
                </g>
                <g id="arrowLeft" xlink:href="#dirArrow" transform="rotate(270) translate(-36 17)" onmousedown="handlePan(-1,0)">
                  <use xlink:href="#rim" fill="#404040">
                        <set attributeName="fill" to="#808080" begin="arrowLeft.mouseover" end="arrowLeft.mouseout"/>
                  </use>
                  <path fill="none" stroke="white" stroke-width="1.5" d="M0,-3.0v7 M-2.5,-0.5L0,-3.0L2.5,-0.5"/>
                </g>
        </g>
        <svg viewBox="0 0 15 15" width="100%" height="30px" preserveAspectRatio="xMaxYMin meet">
         <g id="arrow_out" transform="scale(0.3 0.3)">
          <a xlink:href="classprolog_1_1io_1_1realToken__coll__graph_org.svg" target="_base">
           <rect id="button" ry="5" rx="5" y="6" x="6" height="38" width="38"
                fill="#f2f5e9" fill-opacity="0.5" stroke="#606060" stroke-width="1.0"/>
           <path id="arrow"
             d="M 11.500037,31.436501 C 11.940474,20.09759 22.043105,11.32322 32.158766,21.979434 L 37.068811,17.246167 C 37.068811,17.246167 37.088388,32 37.088388,32 L 22.160133,31.978069 C 22.160133,31.978069 26.997745,27.140456 26.997745,27.140456 C 18.528582,18.264221 13.291696,25.230495 11.500037,31.436501 z"
             style="fill:#404040;"/>
          </a>
         </g>
        </svg>
</svg>
