<?xml version="1.0" encoding="UTF-8" standalone="no"?>
<!DOCTYPE svg PUBLIC "-//W3C//DTD SVG 1.1//EN"
 "http://www.w3.org/Graphics/SVG/1.1/DTD/svg11.dtd">
<!-- Generated by graphviz version 2.38.0 (20140413.2041)
 -->
<!-- Title: prolog.io.Token Pages: 1 -->
<svg width="222pt" height="885pt"
 viewBox="0.00 0.00 221.50 885.00" xmlns="http://www.w3.org/2000/svg" xmlns:xlink="http://www.w3.org/1999/xlink">
<g id="graph0" class="graph" transform="scale(1 1) rotate(0) translate(4 881)">
<title>prolog.io.Token</title>
<!-- Node1 -->
<g id="node1" class="node"><title>Node1</title>
<polygon fill="#bfbfbf" stroke="black" points="0,-6 0,-63 83,-63 83,-6 0,-6"/>
<text text-anchor="middle" x="41.5" y="-51" font-family="Helvetica,sans-Serif" font-size="10.00">prolog.io.Token</text>
<polyline fill="none" stroke="black" points="0,-44 83,-44 "/>
<text text-anchor="middle" x="41.5" y="-32" font-family="Helvetica,sans-Serif" font-size="10.00"> </text>
<polyline fill="none" stroke="black" points="0,-25 83,-25 "/>
<text text-anchor="start" x="8" y="-13" font-family="Helvetica,sans-Serif" font-size="10.00">~ Token()</text>
</g>
<!-- Node2 -->
<g id="node2" class="node"><title>Node2</title>
<g id="a_node2"><a xlink:href="../../d0/d3f/classprolog_1_1terms_1_1Const.html" target="_top" xlink:title="Symbolic constant, of arity 0. ">
<polygon fill="none" stroke="black" points="61.5,-116.5 61.5,-261.5 161.5,-261.5 161.5,-116.5 61.5,-116.5"/>
<text text-anchor="middle" x="111.5" y="-249.5" font-family="Helvetica,sans-Serif" font-size="10.00">prolog.terms.Const</text>
<polyline fill="none" stroke="black" points="61.5,-242.5 161.5,-242.5 "/>
<text text-anchor="start" x="69.5" y="-230.5" font-family="Helvetica,sans-Serif" font-size="10.00">&#45; sym</text>
<polyline fill="none" stroke="black" points="61.5,-223.5 161.5,-223.5 "/>
<text text-anchor="start" x="69.5" y="-211.5" font-family="Helvetica,sans-Serif" font-size="10.00">+ Const()</text>
<text text-anchor="start" x="69.5" y="-200.5" font-family="Helvetica,sans-Serif" font-size="10.00">+ name()</text>
<text text-anchor="start" x="69.5" y="-189.5" font-family="Helvetica,sans-Serif" font-size="10.00">+ qname()</text>
<text text-anchor="start" x="69.5" y="-178.5" font-family="Helvetica,sans-Serif" font-size="10.00">+ toString()</text>
<text text-anchor="start" x="69.5" y="-167.5" font-family="Helvetica,sans-Serif" font-size="10.00">+ getKey()</text>
<text text-anchor="start" x="69.5" y="-156.5" font-family="Helvetica,sans-Serif" font-size="10.00">+ getArity()</text>
<text text-anchor="start" x="69.5" y="-145.5" font-family="Helvetica,sans-Serif" font-size="10.00">+ toUnquoted()</text>
<text text-anchor="start" x="69.5" y="-134.5" font-family="Helvetica,sans-Serif" font-size="10.00">+ the()</text>
<text text-anchor="start" x="69.5" y="-123.5" font-family="Helvetica,sans-Serif" font-size="10.00">~ bind_to()</text>
</a>
</g>
</g>
<!-- Node2&#45;&gt;Node1 -->
<g id="edge1" class="edge"><title>Node2&#45;&gt;Node1</title>
<path fill="none" stroke="midnightblue" d="M74.287,-106.929C67.056,-91.1755 59.9514,-75.6977 54.2145,-63.1995"/>
<polygon fill="none" stroke="midnightblue" points="71.1971,-108.587 78.5497,-116.216 77.5589,-105.667 71.1971,-108.587"/>
</g>
<!-- Node2&#45;&gt;Node2 -->
<g id="edge8" class="edge"><title>Node2&#45;&gt;Node2</title>
<path fill="none" stroke="#404040" d="M161.614,-205.282C172.018,-203.568 179.5,-198.141 179.5,-189 179.5,-183.716 176.999,-179.672 172.879,-176.87"/>
<polygon fill="none" stroke="#404040" points="172.874,-176.868 165.86,-178.546 161.614,-172.718 168.627,-171.04 172.874,-176.868"/>
<text text-anchor="middle" x="196.5" y="-208.5" font-family="Helvetica,sans-Serif" font-size="10.00"> +aTrue</text>
<text text-anchor="middle" x="196.5" y="-197.5" font-family="Helvetica,sans-Serif" font-size="10.00">+aNo</text>
<text text-anchor="middle" x="196.5" y="-186.5" font-family="Helvetica,sans-Serif" font-size="10.00">+anEof</text>
<text text-anchor="middle" x="196.5" y="-175.5" font-family="Helvetica,sans-Serif" font-size="10.00">+aYes</text>
<text text-anchor="middle" x="196.5" y="-164.5" font-family="Helvetica,sans-Serif" font-size="10.00">+aFail</text>
</g>
<!-- Node7 -->
<g id="node7" class="node"><title>Node7</title>
<g id="a_node7"><a xlink:href="../../d8/dad/classprolog_1_1terms_1_1Nil.html" target="_top" xlink:title="Special constant terminating a list. ">
<polygon fill="none" stroke="black" points="101.5,-0.5 101.5,-68.5 187.5,-68.5 187.5,-0.5 101.5,-0.5"/>
<text text-anchor="middle" x="144.5" y="-56.5" font-family="Helvetica,sans-Serif" font-size="10.00">prolog.terms.Nil</text>
<polyline fill="none" stroke="black" points="101.5,-49.5 187.5,-49.5 "/>
<text text-anchor="middle" x="144.5" y="-37.5" font-family="Helvetica,sans-Serif" font-size="10.00"> </text>
<polyline fill="none" stroke="black" points="101.5,-30.5 187.5,-30.5 "/>
<text text-anchor="start" x="109.5" y="-18.5" font-family="Helvetica,sans-Serif" font-size="10.00">+ Nil()</text>
<text text-anchor="start" x="109.5" y="-7.5" font-family="Helvetica,sans-Serif" font-size="10.00">+ Nil()</text>
</a>
</g>
</g>
<!-- Node2&#45;&gt;Node7 -->
<g id="edge7" class="edge"><title>Node2&#45;&gt;Node7</title>
<path fill="none" stroke="midnightblue" d="M124.323,-106.099C125.631,-99.6154 127.025,-93.1863 128.5,-87 129.933,-80.9891 131.69,-74.6545 133.51,-68.5627"/>
<polygon fill="none" stroke="midnightblue" points="120.812,-105.82 122.34,-116.304 127.684,-107.156 120.812,-105.82"/>
</g>
<!-- Node3 -->
<g id="node3" class="node"><title>Node3</title>
<g id="a_node3"><a xlink:href="../../d4/de0/classprolog_1_1terms_1_1Nonvar.html" target="_top" xlink:title="Part of the Prolog Term hierarchy. ">
<polygon fill="none" stroke="black" points="59,-299.5 59,-389.5 164,-389.5 164,-299.5 59,-299.5"/>
<text text-anchor="middle" x="111.5" y="-377.5" font-family="Helvetica,sans-Serif" font-size="10.00">prolog.terms.Nonvar</text>
<polyline fill="none" stroke="black" points="59,-370.5 164,-370.5 "/>
<text text-anchor="middle" x="111.5" y="-358.5" font-family="Helvetica,sans-Serif" font-size="10.00"> </text>
<polyline fill="none" stroke="black" points="59,-351.5 164,-351.5 "/>
<text text-anchor="start" x="67" y="-339.5" font-family="Helvetica,sans-Serif" font-size="10.00">+ name()</text>
<text text-anchor="start" x="67" y="-328.5" font-family="Helvetica,sans-Serif" font-size="10.00">~ bind_to()</text>
<text text-anchor="start" x="67" y="-317.5" font-family="Helvetica,sans-Serif" font-size="10.00">~ unify_to()</text>
<text text-anchor="start" x="67" y="-306.5" font-family="Helvetica,sans-Serif" font-size="10.00">~ listify()</text>
</a>
</g>
</g>
<!-- Node3&#45;&gt;Node2 -->
<g id="edge2" class="edge"><title>Node3&#45;&gt;Node2</title>
<path fill="none" stroke="midnightblue" d="M111.5,-288.98C111.5,-280.165 111.5,-270.921 111.5,-261.771"/>
<polygon fill="none" stroke="midnightblue" points="108,-289.101 111.5,-299.101 115,-289.101 108,-289.101"/>
</g>
<!-- Node4 -->
<g id="node4" class="node"><title>Node4</title>
<g id="a_node4"><a xlink:href="../../d3/ded/classprolog_1_1terms_1_1Term.html" target="_top" xlink:title="Top element of the Prolog term hierarchy. ">
<polygon fill="none" stroke="black" points="62.5,-427.5 62.5,-781.5 160.5,-781.5 160.5,-427.5 62.5,-427.5"/>
<text text-anchor="middle" x="111.5" y="-769.5" font-family="Helvetica,sans-Serif" font-size="10.00">prolog.terms.Term</text>
<polyline fill="none" stroke="black" points="62.5,-762.5 160.5,-762.5 "/>
<text text-anchor="start" x="70.5" y="-750.5" font-family="Helvetica,sans-Serif" font-size="10.00">+ JAVA</text>
<text text-anchor="start" x="70.5" y="-739.5" font-family="Helvetica,sans-Serif" font-size="10.00">+ REAL</text>
<text text-anchor="start" x="70.5" y="-728.5" font-family="Helvetica,sans-Serif" font-size="10.00">+ INT</text>
<text text-anchor="start" x="70.5" y="-717.5" font-family="Helvetica,sans-Serif" font-size="10.00">+ VAR</text>
<text text-anchor="start" x="70.5" y="-706.5" font-family="Helvetica,sans-Serif" font-size="10.00">+ CONST</text>
<polyline fill="none" stroke="black" points="62.5,-699.5 160.5,-699.5 "/>
<text text-anchor="start" x="70.5" y="-687.5" font-family="Helvetica,sans-Serif" font-size="10.00">+ getArity()</text>
<text text-anchor="start" x="70.5" y="-676.5" font-family="Helvetica,sans-Serif" font-size="10.00">+ ref()</text>
<text text-anchor="start" x="70.5" y="-665.5" font-family="Helvetica,sans-Serif" font-size="10.00">+ token()</text>
<text text-anchor="start" x="70.5" y="-654.5" font-family="Helvetica,sans-Serif" font-size="10.00">+ toClause()</text>
<text text-anchor="start" x="70.5" y="-643.5" font-family="Helvetica,sans-Serif" font-size="10.00">+ matches()</text>
<text text-anchor="start" x="70.5" y="-632.5" font-family="Helvetica,sans-Serif" font-size="10.00">+ matches()</text>
<text text-anchor="start" x="70.5" y="-621.5" font-family="Helvetica,sans-Serif" font-size="10.00">+ matching_copy()</text>
<text text-anchor="start" x="70.5" y="-610.5" font-family="Helvetica,sans-Serif" font-size="10.00">+ copy()</text>
<text text-anchor="start" x="70.5" y="-599.5" font-family="Helvetica,sans-Serif" font-size="10.00">+ varsOf()</text>
<text text-anchor="start" x="70.5" y="-588.5" font-family="Helvetica,sans-Serif" font-size="10.00">+ numbervars()</text>
<text text-anchor="start" x="70.5" y="-577.5" font-family="Helvetica,sans-Serif" font-size="10.00">and 6 more...</text>
<text text-anchor="start" x="70.5" y="-566.5" font-family="Helvetica,sans-Serif" font-size="10.00">+ fromString()</text>
<text text-anchor="start" x="70.5" y="-555.5" font-family="Helvetica,sans-Serif" font-size="10.00">+ charsToString()</text>
<text text-anchor="start" x="70.5" y="-544.5" font-family="Helvetica,sans-Serif" font-size="10.00">~ bind_to()</text>
<text text-anchor="start" x="70.5" y="-533.5" font-family="Helvetica,sans-Serif" font-size="10.00">~ unify_to()</text>
<text text-anchor="start" x="70.5" y="-522.5" font-family="Helvetica,sans-Serif" font-size="10.00">~ toTerm()</text>
<text text-anchor="start" x="70.5" y="-511.5" font-family="Helvetica,sans-Serif" font-size="10.00">~ isClause()</text>
<text text-anchor="start" x="70.5" y="-500.5" font-family="Helvetica,sans-Serif" font-size="10.00">~ reaction()</text>
<text text-anchor="start" x="70.5" y="-489.5" font-family="Helvetica,sans-Serif" font-size="10.00">~ action()</text>
<text text-anchor="start" x="70.5" y="-478.5" font-family="Helvetica,sans-Serif" font-size="10.00">~ exec()</text>
<text text-anchor="start" x="70.5" y="-467.5" font-family="Helvetica,sans-Serif" font-size="10.00">~ stringToChars()</text>
<text text-anchor="start" x="70.5" y="-456.5" font-family="Helvetica,sans-Serif" font-size="10.00"># unify()</text>
<text text-anchor="start" x="70.5" y="-445.5" font-family="Helvetica,sans-Serif" font-size="10.00"># undo()</text>
<text text-anchor="start" x="70.5" y="-434.5" font-family="Helvetica,sans-Serif" font-size="10.00"># exec()</text>
</a>
</g>
</g>
<!-- Node4&#45;&gt;Node3 -->
<g id="edge3" class="edge"><title>Node4&#45;&gt;Node3</title>
<path fill="none" stroke="midnightblue" d="M111.5,-417.384C111.5,-407.458 111.5,-398.098 111.5,-389.617"/>
<polygon fill="none" stroke="midnightblue" points="108,-417.487 111.5,-427.487 115,-417.487 108,-417.487"/>
</g>
<!-- Node5 -->
<g id="node5" class="node"><title>Node5</title>
<polygon fill="none" stroke="#bfbfbf" points="54,-819.5 54,-876.5 99,-876.5 99,-819.5 54,-819.5"/>
<text text-anchor="middle" x="76.5" y="-864.5" font-family="Helvetica,sans-Serif" font-size="10.00">Object</text>
<polyline fill="none" stroke="#bfbfbf" points="54,-857.5 99,-857.5 "/>
<text text-anchor="middle" x="76.5" y="-845.5" font-family="Helvetica,sans-Serif" font-size="10.00"> </text>
<polyline fill="none" stroke="#bfbfbf" points="54,-838.5 99,-838.5 "/>
<text text-anchor="middle" x="76.5" y="-826.5" font-family="Helvetica,sans-Serif" font-size="10.00"> </text>
</g>
<!-- Node5&#45;&gt;Node4 -->
<g id="edge4" class="edge"><title>Node5&#45;&gt;Node4</title>
<path fill="none" stroke="midnightblue" d="M81.9619,-809.313C83.1703,-800.975 84.5272,-791.612 85.978,-781.602"/>
<polygon fill="none" stroke="midnightblue" points="78.4855,-808.898 80.5149,-819.297 85.4131,-809.902 78.4855,-808.898"/>
</g>
<!-- Node6 -->
<g id="node6" class="node"><title>Node6</title>
<polygon fill="none" stroke="#bfbfbf" points="117.5,-819.5 117.5,-876.5 177.5,-876.5 177.5,-819.5 117.5,-819.5"/>
<text text-anchor="middle" x="147.5" y="-864.5" font-family="Helvetica,sans-Serif" font-size="10.00">Cloneable</text>
<polyline fill="none" stroke="#bfbfbf" points="117.5,-857.5 177.5,-857.5 "/>
<text text-anchor="middle" x="147.5" y="-845.5" font-family="Helvetica,sans-Serif" font-size="10.00"> </text>
<polyline fill="none" stroke="#bfbfbf" points="117.5,-838.5 177.5,-838.5 "/>
<text text-anchor="middle" x="147.5" y="-826.5" font-family="Helvetica,sans-Serif" font-size="10.00"> </text>
</g>
<!-- Node6&#45;&gt;Node4 -->
<g id="edge5" class="edge"><title>Node6&#45;&gt;Node4</title>
<path fill="none" stroke="midnightblue" d="M141.882,-809.313C140.639,-800.975 139.243,-791.612 137.751,-781.602"/>
<polygon fill="none" stroke="midnightblue" points="138.434,-809.922 143.37,-819.297 145.358,-808.89 138.434,-809.922"/>
</g>
<!-- Node7&#45;&gt;Node2 -->
<g id="edge6" class="edge"><title>Node7&#45;&gt;Node2</title>
<path fill="none" stroke="#404040" d="M137.357,-68.508C135.03,-79.2634 132.331,-91.7334 129.574,-104.477"/>
<polygon fill="none" stroke="#404040" points="129.572,-104.487 132.212,-111.197 127.034,-116.216 124.393,-109.505 129.572,-104.487"/>
<text text-anchor="middle" x="147" y="-90" font-family="Helvetica,sans-Serif" font-size="10.00"> +aNil</text>
</g>
</g>
</svg>
