<?xml version="1.0" encoding="UTF-8" standalone="no"?>
<!DOCTYPE svg PUBLIC "-//W3C//DTD SVG 1.1//EN"
 "http://www.w3.org/Graphics/SVG/1.1/DTD/svg11.dtd">
<!-- Generated by graphviz version 2.38.0 (20140413.2041)
 -->
<!-- Title: prolog.builtins.db_add.exec Pages: 1 -->
<svg width="1469pt" height="220pt"
 viewBox="0.00 0.00 1469.00 219.65" xmlns="http://www.w3.org/2000/svg" xmlns:xlink="http://www.w3.org/1999/xlink">
<g id="graph0" class="graph" transform="scale(1 1) rotate(0) translate(4 215.655)">
<title>prolog.builtins.db_add.exec</title>
<!-- Node1 -->
<g id="node1" class="node"><title>Node1</title>
<polygon fill="#bfbfbf" stroke="black" points="0,-71 0,-101 90,-101 90,-71 0,-71"/>
<text text-anchor="start" x="8" y="-89" font-family="Helvetica,sans-Serif" font-size="10.00">prolog.builtins.db</text>
<text text-anchor="middle" x="45" y="-78" font-family="Helvetica,sans-Serif" font-size="10.00">_add.exec</text>
</g>
<!-- Node2 -->
<g id="node2" class="node"><title>Node2</title>
<g id="a_node2"><a xlink:href="../../de/d8d/classprolog_1_1terms_1_1Fun_a95f487cd7555adbc0ae1a08076a0404d.html#a95f487cd7555adbc0ae1a08076a0404d" target="_top" xlink:title="prolog.terms.Fun.getArg">
<polygon fill="none" stroke="black" points="134,-133.5 134,-152.5 256,-152.5 256,-133.5 134,-133.5"/>
<text text-anchor="middle" x="195" y="-140.5" font-family="Helvetica,sans-Serif" font-size="10.00">prolog.terms.Fun.getArg</text>
</a>
</g>
</g>
<!-- Node1&#45;&gt;Node2 -->
<g id="edge1" class="edge"><title>Node1&#45;&gt;Node2</title>
<path fill="none" stroke="midnightblue" d="M74.7401,-101.119C89.7489,-108.636 108.574,-117.482 126,-124 132.325,-126.366 139.077,-128.594 145.78,-130.633"/>
<polygon fill="midnightblue" stroke="midnightblue" points="144.928,-134.03 155.508,-133.48 146.894,-127.312 144.928,-134.03"/>
</g>
<!-- Node4 -->
<g id="node4" class="node"><title>Node4</title>
<g id="a_node4"><a xlink:href="../../d3/ded/classprolog_1_1terms_1_1Term_a6724b2651c5023151fee83e78956e112.html#a6724b2651c5023151fee83e78956e112" target="_top" xlink:title="Returns a string key used based on the string name of the term. ">
<polygon fill="none" stroke="black" points="130,-57.5 130,-76.5 260,-76.5 260,-57.5 130,-57.5"/>
<text text-anchor="middle" x="195" y="-64.5" font-family="Helvetica,sans-Serif" font-size="10.00">prolog.terms.Term.getKey</text>
</a>
</g>
</g>
<!-- Node1&#45;&gt;Node4 -->
<g id="edge3" class="edge"><title>Node1&#45;&gt;Node4</title>
<path fill="none" stroke="midnightblue" d="M90.0042,-80.3508C99.3983,-79.1448 109.569,-77.8391 119.746,-76.5326"/>
<polygon fill="midnightblue" stroke="midnightblue" points="120.423,-79.9745 129.896,-75.2295 119.532,-73.0314 120.423,-79.9745"/>
</g>
<!-- Node5 -->
<g id="node5" class="node"><title>Node5</title>
<g id="a_node5"><a xlink:href="../../da/dd9/classprolog_1_1fluents_1_1DataBase_a51e4c70bda602ed87135ca094cd64eb2.html#a51e4c70bda602ed87135ca094cd64eb2" target="_top" xlink:title="Adds a Term to the blackboard. ">
<polygon fill="none" stroke="black" points="126,-19.5 126,-38.5 264,-38.5 264,-19.5 126,-19.5"/>
<text text-anchor="middle" x="195" y="-26.5" font-family="Helvetica,sans-Serif" font-size="10.00">prolog.fluents.DataBase.out</text>
</a>
</g>
</g>
<!-- Node1&#45;&gt;Node5 -->
<g id="edge4" class="edge"><title>Node1&#45;&gt;Node5</title>
<path fill="none" stroke="midnightblue" d="M74.7401,-70.8812C89.7489,-63.3643 108.574,-54.5185 126,-48 132.325,-45.6339 139.077,-43.4063 145.78,-41.367"/>
<polygon fill="midnightblue" stroke="midnightblue" points="146.894,-44.6878 155.508,-38.52 144.928,-37.9696 146.894,-44.6878"/>
</g>
<!-- Node23 -->
<g id="node23" class="node"><title>Node23</title>
<g id="a_node23"><a xlink:href="../../d3/ded/classprolog_1_1terms_1_1Term_a598d57f9fb95532b48943ce14357d003.html#a598d57f9fb95532b48943ce14357d003" target="_top" xlink:title="Java Object wrapper. ">
<polygon fill="none" stroke="black" points="127,-95.5 127,-114.5 263,-114.5 263,-95.5 127,-95.5"/>
<text text-anchor="middle" x="195" y="-102.5" font-family="Helvetica,sans-Serif" font-size="10.00">prolog.terms.Term.toObject</text>
</a>
</g>
</g>
<!-- Node1&#45;&gt;Node23 -->
<g id="edge28" class="edge"><title>Node1&#45;&gt;Node23</title>
<path fill="none" stroke="midnightblue" d="M90.0042,-91.6492C98.5143,-92.7417 107.662,-93.916 116.873,-95.0986"/>
<polygon fill="midnightblue" stroke="midnightblue" points="116.503,-98.5798 126.868,-96.3817 117.395,-91.6367 116.503,-98.5798"/>
</g>
<!-- Node3 -->
<g id="node3" class="node"><title>Node3</title>
<g id="a_node3"><a xlink:href="../../d3/ded/classprolog_1_1terms_1_1Term_ae140fac2c9d066dc897fcfa723060a7a.html#ae140fac2c9d066dc897fcfa723060a7a" target="_top" xlink:title="Dereferences if necessary. ">
<polygon fill="none" stroke="black" points="318.5,-114.5 318.5,-133.5 428.5,-133.5 428.5,-114.5 318.5,-114.5"/>
<text text-anchor="middle" x="373.5" y="-121.5" font-family="Helvetica,sans-Serif" font-size="10.00">prolog.terms.Term.ref</text>
</a>
</g>
</g>
<!-- Node2&#45;&gt;Node3 -->
<g id="edge2" class="edge"><title>Node2&#45;&gt;Node3</title>
<path fill="none" stroke="midnightblue" d="M256.248,-136.514C272.953,-134.716 291.152,-132.757 308.085,-130.934"/>
<polygon fill="midnightblue" stroke="midnightblue" points="308.873,-134.37 318.441,-129.819 308.123,-127.41 308.873,-134.37"/>
</g>
<!-- Node6 -->
<g id="node6" class="node"><title>Node6</title>
<g id="a_node6"><a xlink:href="../../d2/d8d/classprolog_1_1fluents_1_1BlackBoard_aca9281fa2c70090208e6d62d28406480.html#aca9281fa2c70090208e6d62d28406480" target="_top" xlink:title="Adds a Term or Clause to the the blackboard, to be used by Linda out/1 operation. ...">
<polygon fill="none" stroke="black" points="300,-38.5 300,-57.5 447,-57.5 447,-38.5 300,-38.5"/>
<text text-anchor="middle" x="373.5" y="-45.5" font-family="Helvetica,sans-Serif" font-size="10.00">prolog.fluents.BlackBoard.add</text>
</a>
</g>
</g>
<!-- Node5&#45;&gt;Node6 -->
<g id="edge5" class="edge"><title>Node5&#45;&gt;Node6</title>
<path fill="none" stroke="midnightblue" d="M264.24,-36.3459C272.606,-37.2466 281.226,-38.1745 289.777,-39.095"/>
<polygon fill="midnightblue" stroke="midnightblue" points="289.446,-42.5795 299.763,-40.17 290.195,-35.6197 289.446,-42.5795"/>
</g>
<!-- Node20 -->
<g id="node20" class="node"><title>Node20</title>
<g id="a_node20"><a xlink:href="../../d3/ded/classprolog_1_1terms_1_1Term_a01e5a83e648ee3f89415c0142c4220d4.html#a01e5a83e648ee3f89415c0142c4220d4" target="_top" xlink:title="Returns a copy of a term with variables standardized apart (`fresh variables&#39;). ">
<polygon fill="none" stroke="black" points="313.5,-0.5 313.5,-19.5 433.5,-19.5 433.5,-0.5 313.5,-0.5"/>
<text text-anchor="middle" x="373.5" y="-7.5" font-family="Helvetica,sans-Serif" font-size="10.00">prolog.terms.Term.copy</text>
</a>
</g>
</g>
<!-- Node5&#45;&gt;Node20 -->
<g id="edge25" class="edge"><title>Node5&#45;&gt;Node20</title>
<path fill="none" stroke="midnightblue" d="M264.24,-21.6541C277.022,-20.2781 290.396,-18.8383 303.211,-17.4589"/>
<polygon fill="midnightblue" stroke="midnightblue" points="303.778,-20.9182 313.345,-16.3679 303.028,-13.9584 303.778,-20.9182"/>
</g>
<!-- Node7 -->
<g id="node7" class="node"><title>Node7</title>
<g id="a_node7"><a xlink:href="../../de/d23/classprolog_1_1fluents_1_1Queue_ac547996ff0686a0df9b16cb070bef1be.html#ac547996ff0686a0df9b16cb070bef1be" target="_top" xlink:title="Adds an element to the end of the queue. ">
<polygon fill="none" stroke="black" points="487.5,-95.5 487.5,-114.5 612.5,-114.5 612.5,-95.5 487.5,-95.5"/>
<text text-anchor="middle" x="550" y="-102.5" font-family="Helvetica,sans-Serif" font-size="10.00">prolog.fluents.Queue.enq</text>
</a>
</g>
</g>
<!-- Node6&#45;&gt;Node7 -->
<g id="edge6" class="edge"><title>Node6&#45;&gt;Node7</title>
<path fill="none" stroke="midnightblue" d="M403.707,-57.5405C432.899,-67.076 477.956,-81.7936 510.151,-92.3099"/>
<polygon fill="midnightblue" stroke="midnightblue" points="509.105,-95.6503 519.697,-95.4284 511.278,-88.9963 509.105,-95.6503"/>
</g>
<!-- Node19 -->
<g id="node19" class="node"><title>Node19</title>
<g id="a_node19"><a xlink:href="../../d4/dc2/classprolog_1_1io_1_1IO_ab6e0553457312c4804472cbe1c646a28.html#ab6e0553457312c4804472cbe1c646a28" target="_top" xlink:title="prolog.io.IO.errmes">
<polygon fill="none" stroke="black" points="854.5,-38.5 854.5,-57.5 954.5,-57.5 954.5,-38.5 854.5,-38.5"/>
<text text-anchor="middle" x="904.5" y="-45.5" font-family="Helvetica,sans-Serif" font-size="10.00">prolog.io.IO.errmes</text>
</a>
</g>
</g>
<!-- Node6&#45;&gt;Node19 -->
<g id="edge24" class="edge"><title>Node6&#45;&gt;Node19</title>
<path fill="none" stroke="midnightblue" d="M447.223,-48C552.832,-48 746.65,-48 844.16,-48"/>
<polygon fill="midnightblue" stroke="midnightblue" points="844.426,-51.5001 854.426,-48 844.426,-44.5001 844.426,-51.5001"/>
</g>
<!-- Node8 -->
<g id="node8" class="node"><title>Node8</title>
<g id="a_node8"><a xlink:href="../../de/d23/classprolog_1_1fluents_1_1Queue_a3d1135124c700679bbd665d253dd9f0f.html#a3d1135124c700679bbd665d253dd9f0f" target="_top" xlink:title="prolog.fluents.Queue.inc">
<polygon fill="none" stroke="black" points="1194,-190.5 1194,-209.5 1316,-209.5 1316,-190.5 1194,-190.5"/>
<text text-anchor="middle" x="1255" y="-197.5" font-family="Helvetica,sans-Serif" font-size="10.00">prolog.fluents.Queue.inc</text>
</a>
</g>
</g>
<!-- Node7&#45;&gt;Node8 -->
<g id="edge7" class="edge"><title>Node7&#45;&gt;Node8</title>
<path fill="none" stroke="midnightblue" d="M574.241,-114.505C594.751,-122.689 625.566,-134.49 653,-143 869.135,-210.048 931.9,-217.405 1158,-208 1166.35,-207.653 1175.09,-207.136 1183.76,-206.53"/>
<polygon fill="midnightblue" stroke="midnightblue" points="1184.16,-210.01 1193.88,-205.782 1183.64,-203.029 1184.16,-210.01"/>
</g>
<!-- Node9 -->
<g id="node9" class="node"><title>Node9</title>
<g id="a_node9"><a xlink:href="../../de/d23/classprolog_1_1fluents_1_1Queue_a16816604313a1e73e9d8845cdd4cbf8a.html#a16816604313a1e73e9d8845cdd4cbf8a" target="_top" xlink:title="Dynamically resizes the queue. ">
<polygon fill="none" stroke="black" points="653,-114.5 653,-133.5 797,-133.5 797,-114.5 653,-114.5"/>
<text text-anchor="middle" x="725" y="-121.5" font-family="Helvetica,sans-Serif" font-size="10.00">prolog.fluents.Queue.requeue</text>
</a>
</g>
</g>
<!-- Node7&#45;&gt;Node9 -->
<g id="edge8" class="edge"><title>Node7&#45;&gt;Node9</title>
<path fill="none" stroke="midnightblue" d="M612.968,-111.806C622.64,-112.868 632.757,-113.979 642.779,-115.08"/>
<polygon fill="midnightblue" stroke="midnightblue" points="642.427,-118.562 652.75,-116.175 643.192,-111.604 642.427,-118.562"/>
</g>
<!-- Node7&#45;&gt;Node19 -->
<g id="edge21" class="edge"><title>Node7&#45;&gt;Node19</title>
<path fill="none" stroke="midnightblue" d="M610.001,-95.4595C675.021,-84.9455 779.005,-68.1311 844.161,-57.5953"/>
<polygon fill="midnightblue" stroke="midnightblue" points="844.96,-61.0117 854.273,-55.9602 843.842,-54.1014 844.96,-61.0117"/>
</g>
<!-- Node9&#45;&gt;Node8 -->
<g id="edge20" class="edge"><title>Node9&#45;&gt;Node8</title>
<path fill="none" stroke="midnightblue" d="M747.245,-133.535C768.5,-142.643 802.354,-155.99 833,-163 954.187,-190.72 1099.37,-197.955 1183.71,-199.678"/>
<polygon fill="midnightblue" stroke="midnightblue" points="1183.88,-203.182 1193.94,-199.866 1184,-196.183 1183.88,-203.182"/>
</g>
<!-- Node10 -->
<g id="node10" class="node"><title>Node10</title>
<g id="a_node10"><a xlink:href="../../de/d23/classprolog_1_1fluents_1_1Queue_a897146b8e89a4532bbd63061d1a87144.html#a897146b8e89a4532bbd63061d1a87144" target="_top" xlink:title="prolog.fluents.Queue.count">
<polygon fill="none" stroke="black" points="1018,-152.5 1018,-171.5 1152,-171.5 1152,-152.5 1018,-152.5"/>
<text text-anchor="middle" x="1085" y="-159.5" font-family="Helvetica,sans-Serif" font-size="10.00">prolog.fluents.Queue.count</text>
</a>
</g>
</g>
<!-- Node9&#45;&gt;Node10 -->
<g id="edge9" class="edge"><title>Node9&#45;&gt;Node10</title>
<path fill="none" stroke="midnightblue" d="M773.782,-133.54C792.224,-136.944 813.533,-140.541 833,-143 891.409,-150.378 957.854,-155.252 1007.7,-158.215"/>
<polygon fill="midnightblue" stroke="midnightblue" points="1007.57,-161.713 1017.76,-158.8 1007.98,-154.725 1007.57,-161.713"/>
</g>
<!-- Node11 -->
<g id="node11" class="node"><title>Node11</title>
<g id="a_node11"><a xlink:href="../../d4/dc2/classprolog_1_1io_1_1IO_aaa553b2e5bb8b5de129d38fe67293316.html#aaa553b2e5bb8b5de129d38fe67293316" target="_top" xlink:title="prolog.io.IO.trace">
<polygon fill="none" stroke="black" points="858.5,-76.5 858.5,-95.5 950.5,-95.5 950.5,-76.5 858.5,-76.5"/>
<text text-anchor="middle" x="904.5" y="-83.5" font-family="Helvetica,sans-Serif" font-size="10.00">prolog.io.IO.trace</text>
</a>
</g>
</g>
<!-- Node9&#45;&gt;Node11 -->
<g id="edge10" class="edge"><title>Node9&#45;&gt;Node11</title>
<path fill="none" stroke="midnightblue" d="M770.791,-114.411C794.53,-109.329 823.884,-103.045 848.944,-97.6797"/>
<polygon fill="midnightblue" stroke="midnightblue" points="849.986,-101.036 859.031,-95.5201 848.52,-94.1911 849.986,-101.036"/>
</g>
<!-- Node17 -->
<g id="node17" class="node"><title>Node17</title>
<g id="a_node17"><a xlink:href="../../de/d23/classprolog_1_1fluents_1_1Queue_af00e19e476afb783189f3ded5c1af564.html#af00e19e476afb783189f3ded5c1af564" target="_top" xlink:title="prolog.fluents.Queue.toString">
<polygon fill="none" stroke="black" points="833,-114.5 833,-133.5 976,-133.5 976,-114.5 833,-114.5"/>
<text text-anchor="middle" x="904.5" y="-121.5" font-family="Helvetica,sans-Serif" font-size="10.00">prolog.fluents.Queue.toString</text>
</a>
</g>
</g>
<!-- Node9&#45;&gt;Node17 -->
<g id="edge16" class="edge"><title>Node9&#45;&gt;Node17</title>
<path fill="none" stroke="midnightblue" d="M797.173,-124C805.631,-124 814.31,-124 822.887,-124"/>
<polygon fill="midnightblue" stroke="midnightblue" points="822.889,-127.5 832.889,-124 822.889,-120.5 822.889,-127.5"/>
</g>
<!-- Node12 -->
<g id="node12" class="node"><title>Node12</title>
<g id="a_node12"><a xlink:href="../../d4/dc2/classprolog_1_1io_1_1IO_ad851906c6ebd6559eb1b1fa52e26dabb.html#ad851906c6ebd6559eb1b1fa52e26dabb" target="_top" xlink:title="prolog.io.IO.println">
<polygon fill="none" stroke="black" points="1037,-0.5 1037,-19.5 1133,-19.5 1133,-0.5 1037,-0.5"/>
<text text-anchor="middle" x="1085" y="-7.5" font-family="Helvetica,sans-Serif" font-size="10.00">prolog.io.IO.println</text>
</a>
</g>
</g>
<!-- Node11&#45;&gt;Node12 -->
<g id="edge11" class="edge"><title>Node11&#45;&gt;Node12</title>
<path fill="none" stroke="midnightblue" d="M950.63,-77.7971C959.406,-75.1252 968.27,-71.6106 976,-67 995.98,-55.0822 991.989,-40.8654 1012,-29 1016.73,-26.1977 1021.87,-23.8023 1027.16,-21.7557"/>
<polygon fill="midnightblue" stroke="midnightblue" points="1028.46,-25.0068 1036.78,-18.4363 1026.18,-18.3896 1028.46,-25.0068"/>
</g>
<!-- Node15 -->
<g id="node15" class="node"><title>Node15</title>
<g id="a_node15"><a xlink:href="../../d4/dc2/classprolog_1_1io_1_1IO_a22a9a2bfe9fa6e00257369f5bf078a44.html#a22a9a2bfe9fa6e00257369f5bf078a44" target="_top" xlink:title="prolog.io.IO.getStdOutput">
<polygon fill="none" stroke="black" points="1021,-38.5 1021,-57.5 1149,-57.5 1149,-38.5 1021,-38.5"/>
<text text-anchor="middle" x="1085" y="-45.5" font-family="Helvetica,sans-Serif" font-size="10.00">prolog.io.IO.getStdOutput</text>
</a>
</g>
</g>
<!-- Node11&#45;&gt;Node15 -->
<g id="edge14" class="edge"><title>Node11&#45;&gt;Node15</title>
<path fill="none" stroke="midnightblue" d="M950.543,-76.411C974.523,-71.3061 1004.2,-64.9887 1029.47,-59.6082"/>
<polygon fill="midnightblue" stroke="midnightblue" points="1030.23,-63.0256 1039.28,-57.5201 1028.77,-56.179 1030.23,-63.0256"/>
</g>
<!-- Node16 -->
<g id="node16" class="node"><title>Node16</title>
<g id="a_node16"><a xlink:href="../../d6/d92/interfaceprolog_1_1io_1_1IOPeer_a780dd51c62dba4c266286171101b2cee.html#a780dd51c62dba4c266286171101b2cee" target="_top" xlink:title="prolog.io.IOPeer.traceln">
<polygon fill="none" stroke="black" points="1025.5,-76.5 1025.5,-95.5 1144.5,-95.5 1144.5,-76.5 1025.5,-76.5"/>
<text text-anchor="middle" x="1085" y="-83.5" font-family="Helvetica,sans-Serif" font-size="10.00">prolog.io.IOPeer.traceln</text>
</a>
</g>
</g>
<!-- Node11&#45;&gt;Node16 -->
<g id="edge15" class="edge"><title>Node11&#45;&gt;Node16</title>
<path fill="none" stroke="midnightblue" d="M950.543,-86C970.158,-86 993.584,-86 1015.3,-86"/>
<polygon fill="midnightblue" stroke="midnightblue" points="1015.46,-89.5001 1025.46,-86 1015.46,-82.5001 1015.46,-89.5001"/>
</g>
<!-- Node13 -->
<g id="node13" class="node"><title>Node13</title>
<g id="a_node13"><a xlink:href="../../d4/dc2/classprolog_1_1io_1_1IO_aab64872af087c6cd9c5dd13e9f4eda00.html#aab64872af087c6cd9c5dd13e9f4eda00" target="_top" xlink:title="prolog.io.IO.print">
<polygon fill="none" stroke="black" points="1210.5,-0.5 1210.5,-19.5 1299.5,-19.5 1299.5,-0.5 1210.5,-0.5"/>
<text text-anchor="middle" x="1255" y="-7.5" font-family="Helvetica,sans-Serif" font-size="10.00">prolog.io.IO.print</text>
</a>
</g>
</g>
<!-- Node12&#45;&gt;Node13 -->
<g id="edge12" class="edge"><title>Node12&#45;&gt;Node13</title>
<path fill="none" stroke="midnightblue" d="M1133.24,-10C1154.01,-10 1178.51,-10 1200,-10"/>
<polygon fill="midnightblue" stroke="midnightblue" points="1200.28,-13.5001 1210.28,-10 1200.28,-6.5001 1200.28,-13.5001"/>
</g>
<!-- Node14 -->
<g id="node14" class="node"><title>Node14</title>
<g id="a_node14"><a xlink:href="../../d6/d92/interfaceprolog_1_1io_1_1IOPeer_abc1f90b85b358011e2595069d38ac25f.html#abc1f90b85b358011e2595069d38ac25f" target="_top" xlink:title="prolog.io.IOPeer.print">
<polygon fill="none" stroke="black" points="1352,-0.5 1352,-19.5 1461,-19.5 1461,-0.5 1352,-0.5"/>
<text text-anchor="middle" x="1406.5" y="-7.5" font-family="Helvetica,sans-Serif" font-size="10.00">prolog.io.IOPeer.print</text>
</a>
</g>
</g>
<!-- Node13&#45;&gt;Node14 -->
<g id="edge13" class="edge"><title>Node13&#45;&gt;Node14</title>
<path fill="none" stroke="midnightblue" d="M1299.64,-10C1312.82,-10 1327.57,-10 1341.77,-10"/>
<polygon fill="midnightblue" stroke="midnightblue" points="1341.99,-13.5001 1351.99,-10 1341.99,-6.5001 1341.99,-13.5001"/>
</g>
<!-- Node17&#45;&gt;Node10 -->
<g id="edge17" class="edge"><title>Node17&#45;&gt;Node10</title>
<path fill="none" stroke="midnightblue" d="M950.543,-133.589C974.523,-138.694 1004.2,-145.011 1029.47,-150.392"/>
<polygon fill="midnightblue" stroke="midnightblue" points="1028.77,-153.821 1039.28,-152.48 1030.23,-146.974 1028.77,-153.821"/>
</g>
<!-- Node18 -->
<g id="node18" class="node"><title>Node18</title>
<g id="a_node18"><a xlink:href="../../de/d23/classprolog_1_1fluents_1_1Queue_adca2003759e9be115f6006eee370209a.html#adca2003759e9be115f6006eee370209a" target="_top" xlink:title="prolog.fluents.Queue.toVector">
<polygon fill="none" stroke="black" points="1012,-114.5 1012,-133.5 1158,-133.5 1158,-114.5 1012,-114.5"/>
<text text-anchor="middle" x="1085" y="-121.5" font-family="Helvetica,sans-Serif" font-size="10.00">prolog.fluents.Queue.toVector</text>
</a>
</g>
</g>
<!-- Node17&#45;&gt;Node18 -->
<g id="edge18" class="edge"><title>Node17&#45;&gt;Node18</title>
<path fill="none" stroke="midnightblue" d="M976.048,-124C984.523,-124 993.234,-124 1001.86,-124"/>
<polygon fill="midnightblue" stroke="midnightblue" points="1001.92,-127.5 1011.92,-124 1001.92,-120.5 1001.92,-127.5"/>
</g>
<!-- Node18&#45;&gt;Node8 -->
<g id="edge19" class="edge"><title>Node18&#45;&gt;Node8</title>
<path fill="none" stroke="midnightblue" d="M1130.05,-133.548C1139.44,-136.154 1149.18,-139.302 1158,-143 1184.88,-154.269 1213.31,-171.969 1232.19,-184.655"/>
<polygon fill="midnightblue" stroke="midnightblue" points="1230.41,-187.679 1240.64,-190.43 1234.36,-181.899 1230.41,-187.679"/>
</g>
<!-- Node19&#45;&gt;Node12 -->
<g id="edge22" class="edge"><title>Node19&#45;&gt;Node12</title>
<path fill="none" stroke="midnightblue" d="M950.543,-38.411C974.523,-33.3061 1004.2,-26.9887 1029.47,-21.6082"/>
<polygon fill="midnightblue" stroke="midnightblue" points="1030.23,-25.0256 1039.28,-19.5201 1028.77,-18.179 1030.23,-25.0256"/>
</g>
<!-- Node19&#45;&gt;Node15 -->
<g id="edge23" class="edge"><title>Node19&#45;&gt;Node15</title>
<path fill="none" stroke="midnightblue" d="M954.748,-48C972.068,-48 991.921,-48 1010.79,-48"/>
<polygon fill="midnightblue" stroke="midnightblue" points="1010.84,-51.5001 1020.84,-48 1010.84,-44.5001 1010.84,-51.5001"/>
</g>
<!-- Node21 -->
<g id="node21" class="node"><title>Node21</title>
<g id="a_node21"><a xlink:href="../../d3/ded/classprolog_1_1terms_1_1Term_a0a660e6cd55f12e49d328e1b84b478a4.html#a0a660e6cd55f12e49d328e1b84b478a4" target="_top" xlink:title="Defines the reaction to an agent recursing over the structure of a term. ">
<polygon fill="none" stroke="black" points="483,-0.5 483,-19.5 617,-19.5 617,-0.5 483,-0.5"/>
<text text-anchor="middle" x="550" y="-7.5" font-family="Helvetica,sans-Serif" font-size="10.00">prolog.terms.Term.reaction</text>
</a>
</g>
</g>
<!-- Node20&#45;&gt;Node21 -->
<g id="edge26" class="edge"><title>Node20&#45;&gt;Node21</title>
<path fill="none" stroke="midnightblue" d="M433.578,-10C446.061,-10 459.405,-10 472.428,-10"/>
<polygon fill="midnightblue" stroke="midnightblue" points="472.78,-13.5001 482.78,-10 472.78,-6.5001 472.78,-13.5001"/>
</g>
<!-- Node22 -->
<g id="node22" class="node"><title>Node22</title>
<g id="a_node22"><a xlink:href="../../d3/ded/classprolog_1_1terms_1_1Term_aa52e271c0f6784dbde9aa4f5f3ab0268.html#aa52e271c0f6784dbde9aa4f5f3ab0268" target="_top" xlink:title="Identity action. ">
<polygon fill="none" stroke="black" points="662.5,-0.5 662.5,-19.5 787.5,-19.5 787.5,-0.5 662.5,-0.5"/>
<text text-anchor="middle" x="725" y="-7.5" font-family="Helvetica,sans-Serif" font-size="10.00">prolog.terms.Term.action</text>
</a>
</g>
</g>
<!-- Node21&#45;&gt;Node22 -->
<g id="edge27" class="edge"><title>Node21&#45;&gt;Node22</title>
<path fill="none" stroke="midnightblue" d="M617.392,-10C628.815,-10 640.733,-10 652.289,-10"/>
<polygon fill="midnightblue" stroke="midnightblue" points="652.329,-13.5001 662.329,-10 652.329,-6.5001 652.329,-13.5001"/>
</g>
<!-- Node23&#45;&gt;Node3 -->
<g id="edge29" class="edge"><title>Node23&#45;&gt;Node3</title>
<path fill="none" stroke="midnightblue" d="M263.231,-112.237C278.032,-113.831 293.672,-115.514 308.348,-117.094"/>
<polygon fill="midnightblue" stroke="midnightblue" points="308.015,-120.578 318.332,-118.169 308.765,-113.619 308.015,-120.578"/>
</g>
</g>
</svg>
