<?xml version="1.0" encoding="UTF-8" standalone="no"?>
<!DOCTYPE svg PUBLIC "-//W3C//DTD SVG 1.1//EN"
 "http://www.w3.org/Graphics/SVG/1.1/DTD/svg11.dtd">
<!-- Generated by graphviz version 2.38.0 (20140413.2041)
 -->
<!-- Title: prolog.terms.Cons.toString Pages: 1 -->
<svg width="461pt" height="104pt"
 viewBox="0.00 0.00 461.00 104.00" xmlns="http://www.w3.org/2000/svg" xmlns:xlink="http://www.w3.org/1999/xlink">
<g id="graph0" class="graph" transform="scale(1 1) rotate(0) translate(4 100)">
<title>prolog.terms.Cons.toString</title>
<!-- Node1 -->
<g id="node1" class="node"><title>Node1</title>
<polygon fill="#bfbfbf" stroke="black" points="0,-38.5 0,-57.5 134,-57.5 134,-38.5 0,-38.5"/>
<text text-anchor="middle" x="67" y="-45.5" font-family="Helvetica,sans-Serif" font-size="10.00">prolog.terms.Cons.toString</text>
</g>
<!-- Node2 -->
<g id="node2" class="node"><title>Node2</title>
<g id="a_node2"><a xlink:href="../../d1/d10/classprolog_1_1terms_1_1Cons_a4b2bba4d913254e70bcefd12ef863462.html#a4b2bba4d913254e70bcefd12ef863462" target="_top" xlink:title="prolog.terms.Cons.Cons">
<polygon fill="none" stroke="black" points="177,-76.5 177,-95.5 300,-95.5 300,-76.5 177,-76.5"/>
<text text-anchor="middle" x="238.5" y="-83.5" font-family="Helvetica,sans-Serif" font-size="10.00">prolog.terms.Cons.Cons</text>
</a>
</g>
</g>
<!-- Node1&#45;&gt;Node2 -->
<g id="edge1" class="edge"><title>Node1&#45;&gt;Node2</title>
<path fill="none" stroke="midnightblue" d="M110.772,-57.589C133.341,-62.6487 161.223,-68.8996 185.083,-74.2488"/>
<polygon fill="midnightblue" stroke="midnightblue" points="184.512,-77.7075 195.036,-76.4799 186.043,-70.8771 184.512,-77.7075"/>
</g>
<!-- Node3 -->
<g id="node3" class="node"><title>Node3</title>
<g id="a_node3"><a xlink:href="../../de/d8d/classprolog_1_1terms_1_1Fun_a95f487cd7555adbc0ae1a08076a0404d.html#a95f487cd7555adbc0ae1a08076a0404d" target="_top" xlink:title="prolog.terms.Fun.getArg">
<polygon fill="none" stroke="black" points="177.5,-38.5 177.5,-57.5 299.5,-57.5 299.5,-38.5 177.5,-38.5"/>
<text text-anchor="middle" x="238.5" y="-45.5" font-family="Helvetica,sans-Serif" font-size="10.00">prolog.terms.Fun.getArg</text>
</a>
</g>
</g>
<!-- Node1&#45;&gt;Node3 -->
<g id="edge2" class="edge"><title>Node1&#45;&gt;Node3</title>
<path fill="none" stroke="midnightblue" d="M134.018,-48C144.978,-48 156.378,-48 167.434,-48"/>
<polygon fill="midnightblue" stroke="midnightblue" points="167.469,-51.5001 177.469,-48 167.469,-44.5001 167.469,-51.5001"/>
</g>
<!-- Node5 -->
<g id="node5" class="node"><title>Node5</title>
<g id="a_node5"><a xlink:href="../../de/d8d/classprolog_1_1terms_1_1Fun_ae68c6eb755ff4f2b1d3ebe6fcc174a0b.html#ae68c6eb755ff4f2b1d3ebe6fcc174a0b" target="_top" xlink:title="prolog.terms.Fun.watchNull">
<polygon fill="none" stroke="black" points="170,-0.5 170,-19.5 307,-19.5 307,-0.5 170,-0.5"/>
<text text-anchor="middle" x="238.5" y="-7.5" font-family="Helvetica,sans-Serif" font-size="10.00">prolog.terms.Fun.watchNull</text>
</a>
</g>
</g>
<!-- Node1&#45;&gt;Node5 -->
<g id="edge4" class="edge"><title>Node1&#45;&gt;Node5</title>
<path fill="none" stroke="midnightblue" d="M110.772,-38.411C133.341,-33.3513 161.223,-27.1004 185.083,-21.7512"/>
<polygon fill="midnightblue" stroke="midnightblue" points="186.043,-25.1229 195.036,-19.5201 184.512,-18.2925 186.043,-25.1229"/>
</g>
<!-- Node4 -->
<g id="node4" class="node"><title>Node4</title>
<g id="a_node4"><a xlink:href="../../d3/ded/classprolog_1_1terms_1_1Term_ae140fac2c9d066dc897fcfa723060a7a.html#ae140fac2c9d066dc897fcfa723060a7a" target="_top" xlink:title="Dereferences if necessary. ">
<polygon fill="none" stroke="black" points="343,-38.5 343,-57.5 453,-57.5 453,-38.5 343,-38.5"/>
<text text-anchor="middle" x="398" y="-45.5" font-family="Helvetica,sans-Serif" font-size="10.00">prolog.terms.Term.ref</text>
</a>
</g>
</g>
<!-- Node3&#45;&gt;Node4 -->
<g id="edge3" class="edge"><title>Node3&#45;&gt;Node4</title>
<path fill="none" stroke="midnightblue" d="M299.943,-48C310.659,-48 321.853,-48 332.672,-48"/>
<polygon fill="midnightblue" stroke="midnightblue" points="332.901,-51.5001 342.901,-48 332.901,-44.5001 332.901,-51.5001"/>
</g>
</g>
</svg>
