<?xml version="1.0" encoding="UTF-8" standalone="no"?>
<!DOCTYPE svg PUBLIC "-//W3C//DTD SVG 1.1//EN"
 "http://www.w3.org/Graphics/SVG/1.1/DTD/svg11.dtd">
<!-- Generated by graphviz version 2.38.0 (20140413.2041)
 -->
<!-- Title: prolog.builtins.answer_source.exec Pages: 1 -->
<!--zoomable 104 -->
<svg id="main" version="1.1" xmlns="http://www.w3.org/2000/svg" xmlns:xlink="http://www.w3.org/1999/xlink" xml:space="preserve" onload="init(evt)">
<style type="text/css"><![CDATA[
.edge:hover path { stroke: red; }
.edge:hover polygon { stroke: red; fill: red; }
]]></style>
<script type="text/javascript"><![CDATA[
var edges = document.getElementsByTagName('g');
if (edges && edges.length) {
  for (var i=0;i<edges.length;i++) {
    if (edges[i].id.substr(0,4)=='edge') {
      edges[i].setAttribute('class','edge');
    }
  }
}
]]></script>
        <defs>
                <circle id="rim" cx="0" cy="0" r="7"/>
                <circle id="rim2" cx="0" cy="0" r="3.5"/>
                <g id="zoomPlus">
                        <use xlink:href="#rim" fill="#404040">
                                <set attributeName="fill" to="#808080" begin="zoomplus.mouseover" end="zoomplus.mouseout"/>
                        </use>
                        <path d="M-4,0h8M0,-4v8" fill="none" stroke="white" stroke-width="1.5" pointer-events="none"/>
                </g>
                <g id="zoomMin">
                        <use xlink:href="#rim" fill="#404040">
                                <set attributeName="fill" to="#808080" begin="zoomminus.mouseover" end="zoomminus.mouseout"/>
                        </use>
                        <path d="M-4,0h8" fill="none" stroke="white" stroke-width="1.5" pointer-events="none"/>
                </g>
                <g id="dirArrow">
                        <path fill="none" stroke="white" stroke-width="1.5" d="M0,-3.0v7 M-2.5,-0.5L0,-3.0L2.5,-0.5"/>
                </g>
               <g id="resetDef">
                       <use xlink:href="#rim2" fill="#404040">
                               <set attributeName="fill" to="#808080" begin="reset.mouseover" end="reset.mouseout"/>
                       </use>
               </g>
        </defs>

<script type="text/javascript">
var viewWidth = 612;
var viewHeight = 104;
var sectionId = 'dynsection-0';
</script>
<script xlink:href="../../svgpan.js"/>
<svg id="graph" class="graph">
<g id="viewport">
<title>prolog.builtins.answer_source.exec</title>
<!-- Node1 -->
<g id="node1" class="node"><title>Node1</title>
<polygon fill="#bfbfbf" stroke="black" points="0,-52 0,-82 111,-82 111,-52 0,-52"/>
<text text-anchor="start" x="8" y="-70" font-family="Helvetica,sans-Serif" font-size="10.00">prolog.builtins.answer</text>
<text text-anchor="middle" x="55.5" y="-59" font-family="Helvetica,sans-Serif" font-size="10.00">_source.exec</text>
</g>
<!-- Node2 -->
<g id="node2" class="node"><title>Node2</title>
<g id="a_node2"><a xlink:href="../../de/d8d/classprolog_1_1terms_1_1Fun_a95f487cd7555adbc0ae1a08076a0404d.html#a95f487cd7555adbc0ae1a08076a0404d" target="_top" xlink:title="prolog.terms.Fun.getArg">
<polygon fill="none" stroke="black" points="147,-76.5 147,-95.5 269,-95.5 269,-76.5 147,-76.5"/>
<text text-anchor="middle" x="208" y="-83.5" font-family="Helvetica,sans-Serif" font-size="10.00">prolog.terms.Fun.getArg</text>
</a>
</g>
</g>
<!-- Node1&#45;&gt;Node2 -->
<g id="edge1" class="edge"><title>Node1&#45;&gt;Node2</title>
<path fill="none" stroke="midnightblue" d="M111.26,-73.9132C119.596,-74.9656 128.296,-76.0639 136.905,-77.1508"/>
<polygon fill="midnightblue" stroke="midnightblue" points="136.583,-80.6378 146.942,-78.418 137.459,-73.6929 136.583,-80.6378"/>
</g>
<!-- Node4 -->
<g id="node4" class="node"><title>Node4</title>
<g id="a_node4"><a xlink:href="../../de/d8d/classprolog_1_1terms_1_1Fun_a408f688b791b731a83c6a41a8ee32fb0.html#a408f688b791b731a83c6a41a8ee32fb0" target="_top" xlink:title="prolog.terms.Fun.putArg">
<polygon fill="none" stroke="black" points="147,-38.5 147,-57.5 269,-57.5 269,-38.5 147,-38.5"/>
<text text-anchor="middle" x="208" y="-45.5" font-family="Helvetica,sans-Serif" font-size="10.00">prolog.terms.Fun.putArg</text>
</a>
</g>
</g>
<!-- Node1&#45;&gt;Node4 -->
<g id="edge3" class="edge"><title>Node1&#45;&gt;Node4</title>
<path fill="none" stroke="midnightblue" d="M111.26,-60.0868C119.596,-59.0344 128.296,-57.9361 136.905,-56.8492"/>
<polygon fill="midnightblue" stroke="midnightblue" points="137.459,-60.3071 146.942,-55.582 136.583,-53.3622 137.459,-60.3071"/>
</g>
<!-- Node3 -->
<g id="node3" class="node"><title>Node3</title>
<g id="a_node3"><a xlink:href="../../d3/ded/classprolog_1_1terms_1_1Term_ae140fac2c9d066dc897fcfa723060a7a.html#ae140fac2c9d066dc897fcfa723060a7a" target="_top" xlink:title="Dereferences if necessary. ">
<polygon fill="none" stroke="black" points="482,-76.5 482,-95.5 592,-95.5 592,-76.5 482,-76.5"/>
<text text-anchor="middle" x="537" y="-83.5" font-family="Helvetica,sans-Serif" font-size="10.00">prolog.terms.Term.ref</text>
</a>
</g>
</g>
<!-- Node2&#45;&gt;Node3 -->
<g id="edge2" class="edge"><title>Node2&#45;&gt;Node3</title>
<path fill="none" stroke="midnightblue" d="M269.358,-86C326.807,-86 412.971,-86 471.693,-86"/>
<polygon fill="midnightblue" stroke="midnightblue" points="471.961,-89.5001 481.961,-86 471.961,-82.5001 471.961,-89.5001"/>
</g>
<!-- Node5 -->
<g id="node5" class="node"><title>Node5</title>
<g id="a_node5"><a xlink:href="../../d3/ded/classprolog_1_1terms_1_1Term_a84d8fb7e1f816d0dbe3c2c56ed28fdb9.html#a84d8fb7e1f816d0dbe3c2c56ed28fdb9" target="_top" xlink:title="Dereference and unify_to. ">
<polygon fill="none" stroke="black" points="309.5,-38.5 309.5,-57.5 429.5,-57.5 429.5,-38.5 309.5,-38.5"/>
<text text-anchor="middle" x="369.5" y="-45.5" font-family="Helvetica,sans-Serif" font-size="10.00">prolog.terms.Term.unify</text>
</a>
</g>
</g>
<!-- Node4&#45;&gt;Node5 -->
<g id="edge4" class="edge"><title>Node4&#45;&gt;Node5</title>
<path fill="none" stroke="midnightblue" d="M269.3,-48C279.056,-48 289.225,-48 299.174,-48"/>
<polygon fill="midnightblue" stroke="midnightblue" points="299.436,-51.5001 309.436,-48 299.436,-44.5001 299.436,-51.5001"/>
</g>
<!-- Node7 -->
<g id="node7" class="node"><title>Node7</title>
<g id="a_node7"><a xlink:href="../../d4/d26/classprolog_1_1terms_1_1Prog_a41eac8617a5002806d7137eb36183405.html#a41eac8617a5002806d7137eb36183405" target="_top" xlink:title="prolog.terms.Prog.getTrail">
<polygon fill="none" stroke="black" points="305,-0.5 305,-19.5 434,-19.5 434,-0.5 305,-0.5"/>
<text text-anchor="middle" x="369.5" y="-7.5" font-family="Helvetica,sans-Serif" font-size="10.00">prolog.terms.Prog.getTrail</text>
</a>
</g>
</g>
<!-- Node4&#45;&gt;Node7 -->
<g id="edge7" class="edge"><title>Node4&#45;&gt;Node7</title>
<path fill="none" stroke="midnightblue" d="M249.249,-38.411C270.296,-33.3965 296.255,-27.2119 318.573,-21.8947"/>
<polygon fill="midnightblue" stroke="midnightblue" points="319.624,-25.2424 328.541,-19.5201 318.002,-18.433 319.624,-25.2424"/>
</g>
<!-- Node5&#45;&gt;Node3 -->
<g id="edge5" class="edge"><title>Node5&#45;&gt;Node3</title>
<path fill="none" stroke="midnightblue" d="M412.263,-57.589C434.201,-62.6261 461.28,-68.8438 484.508,-74.1771"/>
<polygon fill="midnightblue" stroke="midnightblue" points="484.008,-77.6533 494.538,-76.4799 485.575,-70.8308 484.008,-77.6533"/>
</g>
<!-- Node6 -->
<g id="node6" class="node"><title>Node6</title>
<g id="a_node6"><a xlink:href="../../d3/ded/classprolog_1_1terms_1_1Term_a866b2cca50e77e99b560578b2fa3a91a.html#a866b2cca50e77e99b560578b2fa3a91a" target="_top" xlink:title="Unify dereferenced. ">
<polygon fill="none" stroke="black" points="470,-38.5 470,-57.5 604,-57.5 604,-38.5 470,-38.5"/>
<text text-anchor="middle" x="537" y="-45.5" font-family="Helvetica,sans-Serif" font-size="10.00">prolog.terms.Term.unify_to</text>
</a>
</g>
</g>
<!-- Node5&#45;&gt;Node6 -->
<g id="edge6" class="edge"><title>Node5&#45;&gt;Node6</title>
<path fill="none" stroke="midnightblue" d="M429.782,-48C439.521,-48 449.732,-48 459.813,-48"/>
<polygon fill="midnightblue" stroke="midnightblue" points="459.828,-51.5001 469.828,-48 459.828,-44.5001 459.828,-51.5001"/>
</g>
</g>
</svg>
        <g id="navigator" transform="translate(0 0)" fill="#404254">
                <rect fill="#f2f5e9" fill-opacity="0.5" stroke="#606060" stroke-width=".5" x="0" y="0" width="60" height="60"/>
                <use id="zoomplus" xlink:href="#zoomPlus" x="17" y="9" onmousedown="handleZoom(evt,'in')"/>
                <use id="zoomminus" xlink:href="#zoomMin" x="42" y="9" onmousedown="handleZoom(evt,'out')"/>
                <use id="reset" xlink:href="#resetDef" x="30" y="36" onmousedown="handleReset()"/>
                <g id="arrowUp" xlink:href="#dirArrow" transform="translate(30 24)" onmousedown="handlePan(0,-1)">
                  <use xlink:href="#rim" fill="#404040">
                        <set attributeName="fill" to="#808080" begin="arrowUp.mouseover" end="arrowUp.mouseout"/>
                  </use>
                  <path fill="none" stroke="white" stroke-width="1.5" d="M0,-3.0v7 M-2.5,-0.5L0,-3.0L2.5,-0.5"/>
                </g>
                <g id="arrowRight" xlink:href="#dirArrow" transform="rotate(90) translate(36 -43)" onmousedown="handlePan(1,0)">
                  <use xlink:href="#rim" fill="#404040">
                        <set attributeName="fill" to="#808080" begin="arrowRight.mouseover" end="arrowRight.mouseout"/>
                  </use>
                  <path fill="none" stroke="white" stroke-width="1.5" d="M0,-3.0v7 M-2.5,-0.5L0,-3.0L2.5,-0.5"/>
                </g>
                <g id="arrowDown" xlink:href="#dirArrow" transform="rotate(180) translate(-30 -48)" onmousedown="handlePan(0,1)">
                  <use xlink:href="#rim" fill="#404040">
                        <set attributeName="fill" to="#808080" begin="arrowDown.mouseover" end="arrowDown.mouseout"/>
                  </use>
                  <path fill="none" stroke="white" stroke-width="1.5" d="M0,-3.0v7 M-2.5,-0.5L0,-3.0L2.5,-0.5"/>
                </g>
                <g id="arrowLeft" xlink:href="#dirArrow" transform="rotate(270) translate(-36 17)" onmousedown="handlePan(-1,0)">
                  <use xlink:href="#rim" fill="#404040">
                        <set attributeName="fill" to="#808080" begin="arrowLeft.mouseover" end="arrowLeft.mouseout"/>
                  </use>
                  <path fill="none" stroke="white" stroke-width="1.5" d="M0,-3.0v7 M-2.5,-0.5L0,-3.0L2.5,-0.5"/>
                </g>
        </g>
        <svg viewBox="0 0 15 15" width="100%" height="30px" preserveAspectRatio="xMaxYMin meet">
         <g id="arrow_out" transform="scale(0.3 0.3)">
          <a xlink:href="classprolog_1_1builtins_1_1answer__source_a1f571f206c75f9231f01b9bbdee9c3a4_a1f571f206c75f9231f01b9bbdee9c3a4_cgraph_org.svg" target="_base">
           <rect id="button" ry="5" rx="5" y="6" x="6" height="38" width="38"
                fill="#f2f5e9" fill-opacity="0.5" stroke="#606060" stroke-width="1.0"/>
           <path id="arrow"
             d="M 11.500037,31.436501 C 11.940474,20.09759 22.043105,11.32322 32.158766,21.979434 L 37.068811,17.246167 C 37.068811,17.246167 37.088388,32 37.088388,32 L 22.160133,31.978069 C 22.160133,31.978069 26.997745,27.140456 26.997745,27.140456 C 18.528582,18.264221 13.291696,25.230495 11.500037,31.436501 z"
             style="fill:#404040;"/>
          </a>
         </g>
        </svg>
</svg>
