<?xml version="1.0" encoding="UTF-8" standalone="no"?>
<!DOCTYPE svg PUBLIC "-//W3C//DTD SVG 1.1//EN"
 "http://www.w3.org/Graphics/SVG/1.1/DTD/svg11.dtd">
<!-- Generated by graphviz version 2.38.0 (20140413.2041)
 -->
<!-- Title: prolog.builtins.Builtins.toFunBuiltin Pages: 1 -->
<svg width="473pt" height="154pt"
 viewBox="0.00 0.00 473.00 153.50" xmlns="http://www.w3.org/2000/svg" xmlns:xlink="http://www.w3.org/1999/xlink">
<g id="graph0" class="graph" transform="scale(1 1) rotate(0) translate(4 149.5)">
<title>prolog.builtins.Builtins.toFunBuiltin</title>
<!-- Node1 -->
<g id="node1" class="node"><title>Node1</title>
<polygon fill="#bfbfbf" stroke="black" points="0,-63.5 0,-93.5 123,-93.5 123,-63.5 0,-63.5"/>
<text text-anchor="start" x="8" y="-81.5" font-family="Helvetica,sans-Serif" font-size="10.00">prolog.builtins.Builtins.to</text>
<text text-anchor="middle" x="61.5" y="-70.5" font-family="Helvetica,sans-Serif" font-size="10.00">FunBuiltin</text>
</g>
<!-- Node2 -->
<g id="node2" class="node"><title>Node2</title>
<g id="a_node2"><a xlink:href="../../de/d8d/classprolog_1_1terms_1_1Fun_a73b5a4f366ac3ac161f7b148f44b8cfa.html#a73b5a4f366ac3ac161f7b148f44b8cfa" target="_top" xlink:title="prolog.terms.Fun.funClone">
<polygon fill="none" stroke="black" points="159.5,-126 159.5,-145 291.5,-145 291.5,-126 159.5,-126"/>
<text text-anchor="middle" x="225.5" y="-133" font-family="Helvetica,sans-Serif" font-size="10.00">prolog.terms.Fun.funClone</text>
</a>
</g>
</g>
<!-- Node1&#45;&gt;Node2 -->
<g id="edge1" class="edge"><title>Node1&#45;&gt;Node2</title>
<path fill="none" stroke="midnightblue" d="M98.4069,-93.5573C116.443,-100.885 138.721,-109.583 159,-116.5 165.55,-118.734 172.524,-120.939 179.387,-123.011"/>
<polygon fill="midnightblue" stroke="midnightblue" points="178.718,-126.463 189.299,-125.94 180.701,-119.75 178.718,-126.463"/>
</g>
<!-- Node4 -->
<g id="node4" class="node"><title>Node4</title>
<g id="a_node4"><a xlink:href="../../de/d8d/classprolog_1_1terms_1_1Fun_a17d595f2ab8b5c173c519ad5341015c5.html#a17d595f2ab8b5c173c519ad5341015c5" target="_top" xlink:title="prolog.terms.Fun.getArity">
<polygon fill="none" stroke="black" points="162,-88 162,-107 289,-107 289,-88 162,-88"/>
<text text-anchor="middle" x="225.5" y="-95" font-family="Helvetica,sans-Serif" font-size="10.00">prolog.terms.Fun.getArity</text>
</a>
</g>
</g>
<!-- Node1&#45;&gt;Node4 -->
<g id="edge3" class="edge"><title>Node1&#45;&gt;Node4</title>
<path fill="none" stroke="midnightblue" d="M123.284,-85.629C132.514,-86.7116 142.119,-87.8381 151.576,-88.9472"/>
<polygon fill="midnightblue" stroke="midnightblue" points="151.415,-92.4522 161.754,-90.1409 152.23,-85.4998 151.415,-92.4522"/>
</g>
<!-- Node5 -->
<g id="node5" class="node"><title>Node5</title>
<g id="a_node5"><a xlink:href="../../d0/d3f/classprolog_1_1terms_1_1Const_a947005f966303baeb029a22d9201ea1b.html#a947005f966303baeb029a22d9201ea1b" target="_top" xlink:title="prolog.terms.Const.name">
<polygon fill="none" stroke="black" points="333,-47 333,-66 460,-66 460,-47 333,-47"/>
<text text-anchor="middle" x="396.5" y="-54" font-family="Helvetica,sans-Serif" font-size="10.00">prolog.terms.Const.name</text>
</a>
</g>
</g>
<!-- Node1&#45;&gt;Node5 -->
<g id="edge4" class="edge"><title>Node1&#45;&gt;Node5</title>
<path fill="none" stroke="midnightblue" d="M123.19,-74.4904C179.406,-70.7765 263.098,-65.2473 322.847,-61.2999"/>
<polygon fill="midnightblue" stroke="midnightblue" points="323.219,-64.783 332.967,-60.6313 322.758,-57.7983 323.219,-64.783"/>
</g>
<!-- Node6 -->
<g id="node6" class="node"><title>Node6</title>
<g id="a_node6"><a xlink:href="../../d7/d2b/classprolog_1_1builtins_1_1Builtins_ab27f40fd74a009d6522fa21da5387cf3.html#ab27f40fd74a009d6522fa21da5387cf3" target="_top" xlink:title="Creates a new builtin. ">
<polygon fill="none" stroke="black" points="159,-0.5 159,-30.5 292,-30.5 292,-0.5 159,-0.5"/>
<text text-anchor="start" x="167" y="-18.5" font-family="Helvetica,sans-Serif" font-size="10.00">prolog.builtins.Builtins.new</text>
<text text-anchor="middle" x="225.5" y="-7.5" font-family="Helvetica,sans-Serif" font-size="10.00">Builtin</text>
</a>
</g>
</g>
<!-- Node1&#45;&gt;Node6 -->
<g id="edge5" class="edge"><title>Node1&#45;&gt;Node6</title>
<path fill="none" stroke="midnightblue" d="M101.303,-63.4099C123.763,-54.6755 152.228,-43.6057 176.138,-34.3076"/>
<polygon fill="midnightblue" stroke="midnightblue" points="177.682,-37.4625 185.733,-30.576 175.145,-30.9385 177.682,-37.4625"/>
</g>
<!-- Node3 -->
<g id="node3" class="node"><title>Node3</title>
<g id="a_node3"><a xlink:href="../../de/d8d/classprolog_1_1terms_1_1Fun_a3d81ecf8879a3612ac7881f753627020.html#a3d81ecf8879a3612ac7881f753627020" target="_top" xlink:title="prolog.terms.Fun.Fun">
<polygon fill="none" stroke="black" points="341.5,-126 341.5,-145 451.5,-145 451.5,-126 341.5,-126"/>
<text text-anchor="middle" x="396.5" y="-133" font-family="Helvetica,sans-Serif" font-size="10.00">prolog.terms.Fun.Fun</text>
</a>
</g>
</g>
<!-- Node2&#45;&gt;Node3 -->
<g id="edge2" class="edge"><title>Node2&#45;&gt;Node3</title>
<path fill="none" stroke="midnightblue" d="M291.84,-135.5C304.739,-135.5 318.267,-135.5 331.134,-135.5"/>
<polygon fill="midnightblue" stroke="midnightblue" points="331.286,-139 341.286,-135.5 331.286,-132 331.286,-139"/>
</g>
<!-- Node6&#45;&gt;Node5 -->
<g id="edge7" class="edge"><title>Node6&#45;&gt;Node5</title>
<path fill="none" stroke="midnightblue" d="M288.47,-30.5341C307.546,-35.1621 328.275,-40.191 346.365,-44.5798"/>
<polygon fill="midnightblue" stroke="midnightblue" points="345.574,-47.9891 356.117,-46.9455 347.224,-41.1865 345.574,-47.9891"/>
</g>
<!-- Node7 -->
<g id="node7" class="node"><title>Node7</title>
<g id="a_node7"><a xlink:href="../../d0/d3f/classprolog_1_1terms_1_1Const_a425467f0c179f71ef11b4beac97ec0b6.html#a425467f0c179f71ef11b4beac97ec0b6" target="_top" xlink:title="returns an arity normally defined as 0 ">
<polygon fill="none" stroke="black" points="328,-6 328,-25 465,-25 465,-6 328,-6"/>
<text text-anchor="middle" x="396.5" y="-13" font-family="Helvetica,sans-Serif" font-size="10.00">prolog.terms.Const.getArity</text>
</a>
</g>
</g>
<!-- Node6&#45;&gt;Node7 -->
<g id="edge6" class="edge"><title>Node6&#45;&gt;Node7</title>
<path fill="none" stroke="midnightblue" d="M292.324,-15.5C300.626,-15.5 309.181,-15.5 317.647,-15.5"/>
<polygon fill="midnightblue" stroke="midnightblue" points="317.906,-19.0001 327.906,-15.5 317.906,-12.0001 317.906,-19.0001"/>
</g>
</g>
</svg>
