<?xml version="1.0" encoding="UTF-8" standalone="no"?>
<!DOCTYPE svg PUBLIC "-//W3C//DTD SVG 1.1//EN"
 "http://www.w3.org/Graphics/SVG/1.1/DTD/svg11.dtd">
<!-- Generated by graphviz version 2.38.0 (20140413.2041)
 -->
<!-- Title: prolog.builtins.Builtins.newBuiltin Pages: 1 -->
<svg width="314pt" height="66pt"
 viewBox="0.00 0.00 314.00 66.00" xmlns="http://www.w3.org/2000/svg" xmlns:xlink="http://www.w3.org/1999/xlink">
<g id="graph0" class="graph" transform="scale(1 1) rotate(0) translate(4 62)">
<title>prolog.builtins.Builtins.newBuiltin</title>
<!-- Node1 -->
<g id="node1" class="node"><title>Node1</title>
<polygon fill="#bfbfbf" stroke="black" points="0,-14 0,-44 133,-44 133,-14 0,-14"/>
<text text-anchor="start" x="8" y="-32" font-family="Helvetica,sans-Serif" font-size="10.00">prolog.builtins.Builtins.new</text>
<text text-anchor="middle" x="66.5" y="-21" font-family="Helvetica,sans-Serif" font-size="10.00">Builtin</text>
</g>
<!-- Node2 -->
<g id="node2" class="node"><title>Node2</title>
<g id="a_node2"><a xlink:href="../../d0/d3f/classprolog_1_1terms_1_1Const_a425467f0c179f71ef11b4beac97ec0b6.html#a425467f0c179f71ef11b4beac97ec0b6" target="_top" xlink:title="returns an arity normally defined as 0 ">
<polygon fill="none" stroke="black" points="169,-38.5 169,-57.5 306,-57.5 306,-38.5 169,-38.5"/>
<text text-anchor="middle" x="237.5" y="-45.5" font-family="Helvetica,sans-Serif" font-size="10.00">prolog.terms.Const.getArity</text>
</a>
</g>
</g>
<!-- Node1&#45;&gt;Node2 -->
<g id="edge1" class="edge"><title>Node1&#45;&gt;Node2</title>
<path fill="none" stroke="midnightblue" d="M133.324,-36.4003C141.717,-37.3439 150.369,-38.3167 158.926,-39.2787"/>
<polygon fill="midnightblue" stroke="midnightblue" points="158.578,-42.7614 168.906,-40.4007 159.36,-35.8053 158.578,-42.7614"/>
</g>
<!-- Node3 -->
<g id="node3" class="node"><title>Node3</title>
<g id="a_node3"><a xlink:href="../../d0/d3f/classprolog_1_1terms_1_1Const_a947005f966303baeb029a22d9201ea1b.html#a947005f966303baeb029a22d9201ea1b" target="_top" xlink:title="prolog.terms.Const.name">
<polygon fill="none" stroke="black" points="174,-0.5 174,-19.5 301,-19.5 301,-0.5 174,-0.5"/>
<text text-anchor="middle" x="237.5" y="-7.5" font-family="Helvetica,sans-Serif" font-size="10.00">prolog.terms.Const.name</text>
</a>
</g>
</g>
<!-- Node1&#45;&gt;Node3 -->
<g id="edge2" class="edge"><title>Node1&#45;&gt;Node3</title>
<path fill="none" stroke="midnightblue" d="M133.324,-21.5997C143.333,-20.4744 153.711,-19.3077 163.856,-18.1671"/>
<polygon fill="midnightblue" stroke="midnightblue" points="164.354,-21.6332 173.901,-17.0378 163.572,-14.677 164.354,-21.6332"/>
</g>
</g>
</svg>
