<?xml version="1.0" encoding="UTF-8" standalone="no"?>
<!DOCTYPE svg PUBLIC "-//W3C//DTD SVG 1.1//EN"
 "http://www.w3.org/Graphics/SVG/1.1/DTD/svg11.dtd">
<!-- Generated by graphviz version 2.38.0 (20140413.2041)
 -->
<!-- Title: prolog.fluents.StringSink.putElement Pages: 1 -->
<svg width="1165pt" height="53pt"
 viewBox="0.00 0.00 1165.00 52.50" xmlns="http://www.w3.org/2000/svg" xmlns:xlink="http://www.w3.org/1999/xlink">
<g id="graph0" class="graph" transform="scale(1 1) rotate(0) translate(4 48.5)">
<title>prolog.fluents.StringSink.putElement</title>
<!-- Node1 -->
<g id="node1" class="node"><title>Node1</title>
<polygon fill="#bfbfbf" stroke="black" points="0,-0.5 0,-30.5 140,-30.5 140,-0.5 0,-0.5"/>
<text text-anchor="start" x="8" y="-18.5" font-family="Helvetica,sans-Serif" font-size="10.00">prolog.fluents.StringSink.put</text>
<text text-anchor="middle" x="70" y="-7.5" font-family="Helvetica,sans-Serif" font-size="10.00">Element</text>
</g>
<!-- Node2 -->
<g id="node2" class="node"><title>Node2</title>
<g id="a_node2"><a xlink:href="../../d3/ded/classprolog_1_1terms_1_1Term_ad0dfa6b55c89214714125c00533f19db.html#ad0dfa6b55c89214714125c00533f19db" target="_top" xlink:title="prolog.terms.Term.toUnquoted">
<polygon fill="none" stroke="black" points="176,-6 176,-25 325,-25 325,-6 176,-6"/>
<text text-anchor="middle" x="250.5" y="-13" font-family="Helvetica,sans-Serif" font-size="10.00">prolog.terms.Term.toUnquoted</text>
</a>
</g>
</g>
<!-- Node1&#45;&gt;Node2 -->
<g id="edge1" class="edge"><title>Node1&#45;&gt;Node2</title>
<path fill="none" stroke="midnightblue" d="M140.013,-15.5C148.474,-15.5 157.192,-15.5 165.84,-15.5"/>
<polygon fill="midnightblue" stroke="midnightblue" points="165.939,-19.0001 175.939,-15.5 165.939,-12.0001 165.939,-19.0001"/>
</g>
<!-- Node3 -->
<g id="node3" class="node"><title>Node3</title>
<g id="a_node3"><a xlink:href="../../d3/ded/classprolog_1_1terms_1_1Term_af1569a19ab5774ae5658b74cbacdbc11.html#af1569a19ab5774ae5658b74cbacdbc11" target="_top" xlink:title="Prints out a term to a String with variables named in order V1, V2,.... ">
<polygon fill="none" stroke="black" points="361,-6 361,-25 484,-25 484,-6 361,-6"/>
<text text-anchor="middle" x="422.5" y="-13" font-family="Helvetica,sans-Serif" font-size="10.00">prolog.terms.Term.pprint</text>
</a>
</g>
</g>
<!-- Node2&#45;&gt;Node3 -->
<g id="edge2" class="edge"><title>Node2&#45;&gt;Node3</title>
<path fill="none" stroke="midnightblue" d="M325.076,-15.5C333.561,-15.5 342.2,-15.5 350.648,-15.5"/>
<polygon fill="midnightblue" stroke="midnightblue" points="350.834,-19.0001 360.834,-15.5 350.834,-12.0001 350.834,-19.0001"/>
</g>
<!-- Node4 -->
<g id="node4" class="node"><title>Node4</title>
<g id="a_node4"><a xlink:href="../../d3/ded/classprolog_1_1terms_1_1Term_a50d0b69d48782ff4bcf433c70c1472a0.html#a50d0b69d48782ff4bcf433c70c1472a0" target="_top" xlink:title="Replaces variables with uppercase constants named `V1&#39;, &#39;V2&#39;, etc. ">
<polygon fill="none" stroke="black" points="520,-6 520,-25 670,-25 670,-6 520,-6"/>
<text text-anchor="middle" x="595" y="-13" font-family="Helvetica,sans-Serif" font-size="10.00">prolog.terms.Term.numbervars</text>
</a>
</g>
</g>
<!-- Node3&#45;&gt;Node4 -->
<g id="edge3" class="edge"><title>Node3&#45;&gt;Node4</title>
<path fill="none" stroke="midnightblue" d="M484.092,-15.5C492.416,-15.5 501.084,-15.5 509.738,-15.5"/>
<polygon fill="midnightblue" stroke="midnightblue" points="509.869,-19.0001 519.869,-15.5 509.869,-12.0001 509.869,-19.0001"/>
</g>
<!-- Node5 -->
<g id="node5" class="node"><title>Node5</title>
<g id="a_node5"><a xlink:href="../../d3/ded/classprolog_1_1terms_1_1Term_a01e5a83e648ee3f89415c0142c4220d4.html#a01e5a83e648ee3f89415c0142c4220d4" target="_top" xlink:title="Returns a copy of a term with variables standardized apart (`fresh variables&#39;). ">
<polygon fill="none" stroke="black" points="706,-25 706,-44 826,-44 826,-25 706,-25"/>
<text text-anchor="middle" x="766" y="-32" font-family="Helvetica,sans-Serif" font-size="10.00">prolog.terms.Term.copy</text>
</a>
</g>
</g>
<!-- Node4&#45;&gt;Node5 -->
<g id="edge4" class="edge"><title>Node4&#45;&gt;Node5</title>
<path fill="none" stroke="midnightblue" d="M670.126,-23.8337C678.638,-24.7906 687.292,-25.7636 695.737,-26.713"/>
<polygon fill="midnightblue" stroke="midnightblue" points="695.581,-30.2175 705.91,-27.8567 696.363,-23.2613 695.581,-30.2175"/>
</g>
<!-- Node6 -->
<g id="node6" class="node"><title>Node6</title>
<g id="a_node6"><a xlink:href="../../d3/ded/classprolog_1_1terms_1_1Term_a0a660e6cd55f12e49d328e1b84b478a4.html#a0a660e6cd55f12e49d328e1b84b478a4" target="_top" xlink:title="Defines the reaction to an agent recursing over the structure of a term. ">
<polygon fill="none" stroke="black" points="862,-6 862,-25 996,-25 996,-6 862,-6"/>
<text text-anchor="middle" x="929" y="-13" font-family="Helvetica,sans-Serif" font-size="10.00">prolog.terms.Term.reaction</text>
</a>
</g>
</g>
<!-- Node4&#45;&gt;Node6 -->
<g id="edge7" class="edge"><title>Node4&#45;&gt;Node6</title>
<path fill="none" stroke="midnightblue" d="M670.094,-15.5C724.045,-15.5 796.909,-15.5 851.428,-15.5"/>
<polygon fill="midnightblue" stroke="midnightblue" points="851.731,-19.0001 861.731,-15.5 851.731,-12.0001 851.731,-19.0001"/>
</g>
<!-- Node5&#45;&gt;Node6 -->
<g id="edge5" class="edge"><title>Node5&#45;&gt;Node6</title>
<path fill="none" stroke="midnightblue" d="M826.036,-27.533C834.422,-26.5434 843.143,-25.5142 851.797,-24.4929"/>
<polygon fill="midnightblue" stroke="midnightblue" points="852.381,-27.9484 861.902,-23.3004 851.56,-20.9966 852.381,-27.9484"/>
</g>
<!-- Node7 -->
<g id="node7" class="node"><title>Node7</title>
<g id="a_node7"><a xlink:href="../../d3/ded/classprolog_1_1terms_1_1Term_aa52e271c0f6784dbde9aa4f5f3ab0268.html#aa52e271c0f6784dbde9aa4f5f3ab0268" target="_top" xlink:title="Identity action. ">
<polygon fill="none" stroke="black" points="1032,-6 1032,-25 1157,-25 1157,-6 1032,-6"/>
<text text-anchor="middle" x="1094.5" y="-13" font-family="Helvetica,sans-Serif" font-size="10.00">prolog.terms.Term.action</text>
</a>
</g>
</g>
<!-- Node6&#45;&gt;Node7 -->
<g id="edge6" class="edge"><title>Node6&#45;&gt;Node7</title>
<path fill="none" stroke="midnightblue" d="M996.03,-15.5C1004.57,-15.5 1013.34,-15.5 1021.96,-15.5"/>
<polygon fill="midnightblue" stroke="midnightblue" points="1021.98,-19.0001 1031.98,-15.5 1021.98,-12.0001 1021.98,-19.0001"/>
</g>
</g>
</svg>
