<?xml version="1.0" encoding="UTF-8" standalone="no"?>
<!DOCTYPE svg PUBLIC "-//W3C//DTD SVG 1.1//EN"
 "http://www.w3.org/Graphics/SVG/1.1/DTD/svg11.dtd">
<!-- Generated by graphviz version 2.38.0 (20140413.2041)
 -->
<!-- Title: prolog.fluents.Queue.count Pages: 1 -->
<svg width="1815pt" height="173pt"
 viewBox="0.00 0.00 1815.00 172.50" xmlns="http://www.w3.org/2000/svg" xmlns:xlink="http://www.w3.org/1999/xlink">
<g id="graph0" class="graph" transform="scale(1 1) rotate(0) translate(4 168.5)">
<title>prolog.fluents.Queue.count</title>
<!-- Node1 -->
<g id="node1" class="node"><title>Node1</title>
<polygon fill="#bfbfbf" stroke="black" points="0,-55.5 0,-74.5 134,-74.5 134,-55.5 0,-55.5"/>
<text text-anchor="middle" x="67" y="-62.5" font-family="Helvetica,sans-Serif" font-size="10.00">prolog.fluents.Queue.count</text>
</g>
<!-- Node2 -->
<g id="node2" class="node"><title>Node2</title>
<g id="a_node2"><a xlink:href="../../de/d23/classprolog_1_1fluents_1_1Queue_a287302e64fec17ff6cad3f51f8c4bd12.html#a287302e64fec17ff6cad3f51f8c4bd12" target="_top" xlink:title="Removes the first element of the queue. ">
<polygon fill="none" stroke="black" points="529,-93.5 529,-112.5 654,-112.5 654,-93.5 529,-93.5"/>
<text text-anchor="middle" x="591.5" y="-100.5" font-family="Helvetica,sans-Serif" font-size="10.00">prolog.fluents.Queue.deq</text>
</a>
</g>
</g>
<!-- Node1&#45;&gt;Node2 -->
<g id="edge1" class="edge"><title>Node1&#45;&gt;Node2</title>
<path fill="none" stroke="midnightblue" d="M144.201,-75.2821C152.893,-76.2855 161.632,-77.2189 170,-78 297.246,-89.8778 446.71,-97.1887 528.767,-100.633"/>
<polygon fill="midnightblue" stroke="midnightblue" points="144.387,-71.7798 134.045,-74.0771 143.562,-78.731 144.387,-71.7798"/>
</g>
<!-- Node8 -->
<g id="node8" class="node"><title>Node8</title>
<g id="a_node8"><a xlink:href="../../de/d23/classprolog_1_1fluents_1_1Queue_a16816604313a1e73e9d8845cdd4cbf8a.html#a16816604313a1e73e9d8845cdd4cbf8a" target="_top" xlink:title="Dynamically resizes the queue. ">
<polygon fill="none" stroke="black" points="349,-52.5 349,-71.5 493,-71.5 493,-52.5 349,-52.5"/>
<text text-anchor="middle" x="421" y="-59.5" font-family="Helvetica,sans-Serif" font-size="10.00">prolog.fluents.Queue.requeue</text>
</a>
</g>
</g>
<!-- Node1&#45;&gt;Node8 -->
<g id="edge7" class="edge"><title>Node1&#45;&gt;Node8</title>
<path fill="none" stroke="midnightblue" d="M144.511,-64.3479C205.291,-63.8299 289.645,-63.111 348.951,-62.6055"/>
<polygon fill="midnightblue" stroke="midnightblue" points="144.178,-60.8505 134.209,-64.4357 144.238,-67.8503 144.178,-60.8505"/>
</g>
<!-- Node20 -->
<g id="node20" class="node"><title>Node20</title>
<g id="a_node20"><a xlink:href="../../de/d23/classprolog_1_1fluents_1_1Queue_af00e19e476afb783189f3ded5c1af564.html#af00e19e476afb783189f3ded5c1af564" target="_top" xlink:title="prolog.fluents.Queue.toString">
<polygon fill="none" stroke="black" points="170,-17.5 170,-36.5 313,-36.5 313,-17.5 170,-17.5"/>
<text text-anchor="middle" x="241.5" y="-24.5" font-family="Helvetica,sans-Serif" font-size="10.00">prolog.fluents.Queue.toString</text>
</a>
</g>
</g>
<!-- Node1&#45;&gt;Node20 -->
<g id="edge22" class="edge"><title>Node1&#45;&gt;Node20</title>
<path fill="none" stroke="midnightblue" d="M121.351,-53.2474C145.742,-47.8742 174.263,-41.5914 197.284,-36.5201"/>
<polygon fill="midnightblue" stroke="midnightblue" points="120.542,-49.8416 111.529,-55.411 122.048,-56.6776 120.542,-49.8416"/>
</g>
<!-- Node3 -->
<g id="node3" class="node"><title>Node3</title>
<g id="a_node3"><a xlink:href="../../d9/dc9/classprolog_1_1fluents_1_1SourceMerger_a0efcba19e4678b70041342889357e43b.html#a0efcba19e4678b70041342889357e43b" target="_top" xlink:title="prolog.fluents.SourceMerger.get\lElement">
<polygon fill="none" stroke="black" points="690,-88 690,-118 845,-118 845,-88 690,-88"/>
<text text-anchor="start" x="698" y="-106" font-family="Helvetica,sans-Serif" font-size="10.00">prolog.fluents.SourceMerger.get</text>
<text text-anchor="middle" x="767.5" y="-95" font-family="Helvetica,sans-Serif" font-size="10.00">Element</text>
</a>
</g>
</g>
<!-- Node2&#45;&gt;Node3 -->
<g id="edge2" class="edge"><title>Node2&#45;&gt;Node3</title>
<path fill="none" stroke="midnightblue" d="M664.471,-103C672.876,-103 681.475,-103 689.94,-103"/>
<polygon fill="midnightblue" stroke="midnightblue" points="664.336,-99.5001 654.336,-103 664.336,-106.5 664.336,-99.5001"/>
</g>
<!-- Node4 -->
<g id="node4" class="node"><title>Node4</title>
<g id="a_node4"><a xlink:href="../../d2/d8d/classprolog_1_1fluents_1_1BlackBoard_a9a02fa64d8837510e94f4ef70aa25096.html#a9a02fa64d8837510e94f4ef70aa25096" target="_top" xlink:title="Removes the first Term having key k or the first enumerated key if k is null. ">
<polygon fill="none" stroke="black" points="891.5,-137.5 891.5,-156.5 1040.5,-156.5 1040.5,-137.5 891.5,-137.5"/>
<text text-anchor="middle" x="966" y="-144.5" font-family="Helvetica,sans-Serif" font-size="10.00">prolog.fluents.BlackBoard.pick</text>
</a>
</g>
</g>
<!-- Node2&#45;&gt;Node4 -->
<g id="edge3" class="edge"><title>Node2&#45;&gt;Node4</title>
<path fill="none" stroke="midnightblue" d="M635.295,-115.191C652.206,-119.572 671.891,-124.134 690,-127 757.729,-137.72 835.768,-142.705 891.371,-145.017"/>
<polygon fill="midnightblue" stroke="midnightblue" points="635.727,-111.685 625.164,-112.504 633.932,-118.451 635.727,-111.685"/>
</g>
<!-- Node5 -->
<g id="node5" class="node"><title>Node5</title>
<g id="a_node5"><a xlink:href="../../d2/d8d/classprolog_1_1fluents_1_1BlackBoard_a4b49c266b7b7abbc698841281e426bfe.html#a4b49c266b7b7abbc698841281e426bfe" target="_top" xlink:title="Removes the first matching Term or Clause from the blackboard, to be used by Linda in/1 operation in ...">
<polygon fill="none" stroke="black" points="1087,-137.5 1087,-156.5 1237,-156.5 1237,-137.5 1087,-137.5"/>
<text text-anchor="middle" x="1162" y="-144.5" font-family="Helvetica,sans-Serif" font-size="10.00">prolog.fluents.BlackBoard.take</text>
</a>
</g>
</g>
<!-- Node4&#45;&gt;Node5 -->
<g id="edge4" class="edge"><title>Node4&#45;&gt;Node5</title>
<path fill="none" stroke="midnightblue" d="M1050.64,-147C1062.66,-147 1074.96,-147 1086.79,-147"/>
<polygon fill="midnightblue" stroke="midnightblue" points="1050.62,-143.5 1040.62,-147 1050.62,-150.5 1050.62,-143.5"/>
</g>
<!-- Node6 -->
<g id="node6" class="node"><title>Node6</title>
<g id="a_node6"><a xlink:href="../../da/dd9/classprolog_1_1fluents_1_1DataBase_a5cc308e3a32da4266de44e52764501ca.html#a5cc308e3a32da4266de44e52764501ca" target="_top" xlink:title="Removes a matching Term from the blackboards and signals failure if no such term is found...">
<polygon fill="none" stroke="black" points="1284,-137.5 1284,-156.5 1421,-156.5 1421,-137.5 1284,-137.5"/>
<text text-anchor="middle" x="1352.5" y="-144.5" font-family="Helvetica,sans-Serif" font-size="10.00">prolog.fluents.DataBase.cin</text>
</a>
</g>
</g>
<!-- Node5&#45;&gt;Node6 -->
<g id="edge5" class="edge"><title>Node5&#45;&gt;Node6</title>
<path fill="none" stroke="midnightblue" d="M1247.39,-147C1259.57,-147 1271.98,-147 1283.78,-147"/>
<polygon fill="midnightblue" stroke="midnightblue" points="1247.23,-143.5 1237.23,-147 1247.23,-150.5 1247.23,-143.5"/>
</g>
<!-- Node7 -->
<g id="node7" class="node"><title>Node7</title>
<g id="a_node7"><a xlink:href="../../d1/dd4/classprolog_1_1builtins_1_1db__remove_a5a3ab57bdfd925e9cc119d213cd23163.html#a5a3ab57bdfd925e9cc119d213cd23163" target="_top" xlink:title="prolog.builtins.db\l_remove.exec">
<polygon fill="none" stroke="black" points="1497,-134 1497,-164 1587,-164 1587,-134 1497,-134"/>
<text text-anchor="start" x="1505" y="-152" font-family="Helvetica,sans-Serif" font-size="10.00">prolog.builtins.db</text>
<text text-anchor="middle" x="1542" y="-141" font-family="Helvetica,sans-Serif" font-size="10.00">_remove.exec</text>
</a>
</g>
</g>
<!-- Node6&#45;&gt;Node7 -->
<g id="edge6" class="edge"><title>Node6&#45;&gt;Node7</title>
<path fill="none" stroke="midnightblue" d="M1431.35,-147.83C1453.68,-148.069 1477.26,-148.32 1496.8,-148.529"/>
<polygon fill="midnightblue" stroke="midnightblue" points="1431.23,-144.329 1421.19,-147.722 1431.15,-151.329 1431.23,-144.329"/>
</g>
<!-- Node8&#45;&gt;Node2 -->
<g id="edge8" class="edge"><title>Node8&#45;&gt;Node2</title>
<path fill="none" stroke="midnightblue" d="M470.954,-73.9116C496.519,-80.1323 527.379,-87.6411 551.34,-93.4714"/>
<polygon fill="midnightblue" stroke="midnightblue" points="471.625,-70.4728 461.081,-71.5093 469.97,-77.2744 471.625,-70.4728"/>
</g>
<!-- Node9 -->
<g id="node9" class="node"><title>Node9</title>
<g id="a_node9"><a xlink:href="../../de/d23/classprolog_1_1fluents_1_1Queue_ac547996ff0686a0df9b16cb070bef1be.html#ac547996ff0686a0df9b16cb070bef1be" target="_top" xlink:title="Adds an element to the end of the queue. ">
<polygon fill="none" stroke="black" points="529,-50.5 529,-69.5 654,-69.5 654,-50.5 529,-50.5"/>
<text text-anchor="middle" x="591.5" y="-57.5" font-family="Helvetica,sans-Serif" font-size="10.00">prolog.fluents.Queue.enq</text>
</a>
</g>
</g>
<!-- Node8&#45;&gt;Node9 -->
<g id="edge9" class="edge"><title>Node8&#45;&gt;Node9</title>
<path fill="none" stroke="midnightblue" d="M503.711,-61.0301C512.149,-60.93 520.62,-60.8294 528.786,-60.7325"/>
<polygon fill="midnightblue" stroke="midnightblue" points="503.417,-57.5333 493.459,-61.1518 503.5,-64.5328 503.417,-57.5333"/>
</g>
<!-- Node9&#45;&gt;Node3 -->
<g id="edge20" class="edge"><title>Node9&#45;&gt;Node3</title>
<path fill="none" stroke="midnightblue" d="M640.973,-71.9788C661.053,-76.9413 684.565,-82.7517 705.777,-87.9937"/>
<polygon fill="midnightblue" stroke="midnightblue" points="641.664,-68.5445 631.116,-69.5431 639.984,-75.34 641.664,-68.5445"/>
</g>
<!-- Node10 -->
<g id="node10" class="node"><title>Node10</title>
<g id="a_node10"><a xlink:href="../../d2/d8d/classprolog_1_1fluents_1_1BlackBoard_aca9281fa2c70090208e6d62d28406480.html#aca9281fa2c70090208e6d62d28406480" target="_top" xlink:title="Adds a Term or Clause to the the blackboard, to be used by Linda out/1 operation. ...">
<polygon fill="none" stroke="black" points="694,-49.5 694,-68.5 841,-68.5 841,-49.5 694,-49.5"/>
<text text-anchor="middle" x="767.5" y="-56.5" font-family="Helvetica,sans-Serif" font-size="10.00">prolog.fluents.BlackBoard.add</text>
</a>
</g>
</g>
<!-- Node9&#45;&gt;Node10 -->
<g id="edge10" class="edge"><title>Node9&#45;&gt;Node10</title>
<path fill="none" stroke="midnightblue" d="M664.37,-59.587C674.11,-59.531 684.111,-59.4735 693.864,-59.4174"/>
<polygon fill="midnightblue" stroke="midnightblue" points="664.316,-56.0871 654.336,-59.6446 664.356,-63.087 664.316,-56.0871"/>
</g>
<!-- Node19 -->
<g id="node19" class="node"><title>Node19</title>
<g id="a_node19"><a xlink:href="../../de/d23/classprolog_1_1fluents_1_1Queue_a1d2f34c76d3ee0eba3dc33a53aead569.html#a1d2f34c76d3ee0eba3dc33a53aead569" target="_top" xlink:title="prolog.fluents.Queue.Queue">
<polygon fill="none" stroke="black" points="698.5,-11.5 698.5,-30.5 836.5,-30.5 836.5,-11.5 698.5,-11.5"/>
<text text-anchor="middle" x="767.5" y="-18.5" font-family="Helvetica,sans-Serif" font-size="10.00">prolog.fluents.Queue.Queue</text>
</a>
</g>
</g>
<!-- Node9&#45;&gt;Node19 -->
<g id="edge21" class="edge"><title>Node9&#45;&gt;Node19</title>
<path fill="none" stroke="midnightblue" d="M644.878,-48.2602C670.202,-42.5839 700.204,-35.8594 724.073,-30.5095"/>
<polygon fill="midnightblue" stroke="midnightblue" points="644.058,-44.8571 635.065,-50.4595 645.589,-51.6876 644.058,-44.8571"/>
</g>
<!-- Node11 -->
<g id="node11" class="node"><title>Node11</title>
<g id="a_node11"><a xlink:href="../../d2/d8d/classprolog_1_1fluents_1_1BlackBoard_aac87e5ee52935ab35a1b8fd9ac463945.html#aac87e5ee52935ab35a1b8fd9ac463945" target="_top" xlink:title="prolog.fluents.BlackBoard.addBack">
<polygon fill="none" stroke="black" points="881,-91.5 881,-110.5 1051,-110.5 1051,-91.5 881,-91.5"/>
<text text-anchor="middle" x="966" y="-98.5" font-family="Helvetica,sans-Serif" font-size="10.00">prolog.fluents.BlackBoard.addBack</text>
</a>
</g>
</g>
<!-- Node10&#45;&gt;Node11 -->
<g id="edge11" class="edge"><title>Node10&#45;&gt;Node11</title>
<path fill="none" stroke="midnightblue" d="M823.17,-70.6851C853.762,-77.2239 891.424,-85.2738 920.248,-91.4347"/>
<polygon fill="midnightblue" stroke="midnightblue" points="823.6,-67.198 813.089,-68.5305 822.136,-74.0434 823.6,-67.198"/>
</g>
<!-- Node12 -->
<g id="node12" class="node"><title>Node12</title>
<g id="a_node12"><a xlink:href="../../da/dd9/classprolog_1_1fluents_1_1DataBase_a51e4c70bda602ed87135ca094cd64eb2.html#a51e4c70bda602ed87135ca094cd64eb2" target="_top" xlink:title="Adds a Term to the blackboard. ">
<polygon fill="none" stroke="black" points="897,-46.5 897,-65.5 1035,-65.5 1035,-46.5 897,-46.5"/>
<text text-anchor="middle" x="966" y="-53.5" font-family="Helvetica,sans-Serif" font-size="10.00">prolog.fluents.DataBase.out</text>
</a>
</g>
</g>
<!-- Node10&#45;&gt;Node12 -->
<g id="edge13" class="edge"><title>Node10&#45;&gt;Node12</title>
<path fill="none" stroke="midnightblue" d="M851.497,-57.7329C866.639,-57.5017 882.276,-57.263 896.923,-57.0393"/>
<polygon fill="midnightblue" stroke="midnightblue" points="851.056,-54.2391 841.111,-57.8914 851.163,-61.2383 851.056,-54.2391"/>
</g>
<!-- Node11&#45;&gt;Node5 -->
<g id="edge12" class="edge"><title>Node11&#45;&gt;Node5</title>
<path fill="none" stroke="midnightblue" d="M1017.32,-112.932C1049.56,-120.575 1090.82,-130.36 1120.85,-137.481"/>
<polygon fill="midnightblue" stroke="midnightblue" points="1017.73,-109.433 1007.2,-110.531 1016.12,-116.244 1017.73,-109.433"/>
</g>
<!-- Node13 -->
<g id="node13" class="node"><title>Node13</title>
<g id="a_node13"><a xlink:href="../../da/dd9/classprolog_1_1fluents_1_1DataBase_a7922dc4eb05ca6cccd4c8bb38563814e.html#a7922dc4eb05ca6cccd4c8bb38563814e" target="_top" xlink:title="adds a Clause to the joint Linda and Predicate table ">
<polygon fill="none" stroke="black" points="1092,-88 1092,-118 1232,-118 1232,-88 1092,-88"/>
<text text-anchor="start" x="1100" y="-106" font-family="Helvetica,sans-Serif" font-size="10.00">prolog.fluents.DataBase.add</text>
<text text-anchor="middle" x="1162" y="-95" font-family="Helvetica,sans-Serif" font-size="10.00">Clause</text>
</a>
</g>
</g>
<!-- Node12&#45;&gt;Node13 -->
<g id="edge14" class="edge"><title>Node12&#45;&gt;Node13</title>
<path fill="none" stroke="midnightblue" d="M1016.29,-67.9405C1041.39,-74.0224 1072.17,-81.48 1098.88,-87.9512"/>
<polygon fill="midnightblue" stroke="midnightblue" points="1016.8,-64.4642 1006.26,-65.5112 1015.15,-71.2674 1016.8,-64.4642"/>
</g>
<!-- Node17 -->
<g id="node17" class="node"><title>Node17</title>
<g id="a_node17"><a xlink:href="../../dc/d4a/classprolog_1_1builtins_1_1db__add_a6c55798f7122b37579a971715a7f9ab0.html#a6c55798f7122b37579a971715a7f9ab0" target="_top" xlink:title="prolog.builtins.db\l_add.exec">
<polygon fill="none" stroke="black" points="1117,-39 1117,-69 1207,-69 1207,-39 1117,-39"/>
<text text-anchor="start" x="1125" y="-57" font-family="Helvetica,sans-Serif" font-size="10.00">prolog.builtins.db</text>
<text text-anchor="middle" x="1162" y="-46" font-family="Helvetica,sans-Serif" font-size="10.00">_add.exec</text>
</a>
</g>
</g>
<!-- Node12&#45;&gt;Node17 -->
<g id="edge18" class="edge"><title>Node12&#45;&gt;Node17</title>
<path fill="none" stroke="midnightblue" d="M1045.41,-55.1916C1069.7,-54.9413 1095.6,-54.6743 1116.71,-54.4566"/>
<polygon fill="midnightblue" stroke="midnightblue" points="1045.09,-51.6947 1035.12,-55.2977 1045.16,-58.6943 1045.09,-51.6947"/>
</g>
<!-- Node18 -->
<g id="node18" class="node"><title>Node18</title>
<g id="a_node18"><a xlink:href="../../da/dd9/classprolog_1_1fluents_1_1DataBase_a5f611e8962c4b5fc2fb515048d4ad9dc.html#a5f611e8962c4b5fc2fb515048d4ad9dc" target="_top" xlink:title="Adds a copy of a Term to the blackboard. ">
<polygon fill="none" stroke="black" points="1093,-0.5 1093,-19.5 1231,-19.5 1231,-0.5 1093,-0.5"/>
<text text-anchor="middle" x="1162" y="-7.5" font-family="Helvetica,sans-Serif" font-size="10.00">prolog.fluents.DataBase.out</text>
</a>
</g>
</g>
<!-- Node12&#45;&gt;Node18 -->
<g id="edge19" class="edge"><title>Node12&#45;&gt;Node18</title>
<path fill="none" stroke="midnightblue" d="M1017.32,-44.0684C1049.56,-36.4248 1090.82,-26.6397 1120.85,-19.519"/>
<polygon fill="midnightblue" stroke="midnightblue" points="1016.12,-40.756 1007.2,-46.4688 1017.73,-47.5671 1016.12,-40.756"/>
</g>
<!-- Node14 -->
<g id="node14" class="node"><title>Node14</title>
<g id="a_node14"><a xlink:href="../../da/dd9/classprolog_1_1fluents_1_1DataBase_a6f8041bc2bcb5cdd8a376e81a3dc4dca.html#a6f8041bc2bcb5cdd8a376e81a3dc4dca" target="_top" xlink:title="adds a Clause to the joint Linda and Predicate table ">
<polygon fill="none" stroke="black" points="1273,-86 1273,-116 1432,-116 1432,-86 1273,-86"/>
<text text-anchor="start" x="1281" y="-104" font-family="Helvetica,sans-Serif" font-size="10.00">prolog.fluents.DataBase.process</text>
<text text-anchor="middle" x="1352.5" y="-93" font-family="Helvetica,sans-Serif" font-size="10.00">Clause</text>
</a>
</g>
</g>
<!-- Node13&#45;&gt;Node14 -->
<g id="edge15" class="edge"><title>Node13&#45;&gt;Node14</title>
<path fill="none" stroke="midnightblue" d="M1242.17,-102.16C1252.31,-102.052 1262.69,-101.942 1272.83,-101.835"/>
<polygon fill="midnightblue" stroke="midnightblue" points="1242.08,-98.6606 1232.12,-102.267 1242.16,-105.66 1242.08,-98.6606"/>
</g>
<!-- Node15 -->
<g id="node15" class="node"><title>Node15</title>
<g id="a_node15"><a xlink:href="../../da/dd9/classprolog_1_1fluents_1_1DataBase_a83885e10b61d6bf129307d9bf50d93de.html#a83885e10b61d6bf129307d9bf50d93de" target="_top" xlink:title="prolog.fluents.DataBase.apply\l_parser">
<polygon fill="none" stroke="black" points="1468,-85 1468,-115 1616,-115 1616,-85 1468,-85"/>
<text text-anchor="start" x="1476" y="-103" font-family="Helvetica,sans-Serif" font-size="10.00">prolog.fluents.DataBase.apply</text>
<text text-anchor="middle" x="1542" y="-92" font-family="Helvetica,sans-Serif" font-size="10.00">_parser</text>
</a>
</g>
</g>
<!-- Node14&#45;&gt;Node15 -->
<g id="edge16" class="edge"><title>Node14&#45;&gt;Node15</title>
<path fill="none" stroke="midnightblue" d="M1442.24,-100.527C1450.83,-100.481 1459.47,-100.435 1467.88,-100.39"/>
<polygon fill="midnightblue" stroke="midnightblue" points="1442.18,-97.0269 1432.2,-100.58 1442.22,-104.027 1442.18,-97.0269"/>
</g>
<!-- Node16 -->
<g id="node16" class="node"><title>Node16</title>
<g id="a_node16"><a xlink:href="../../da/dd9/classprolog_1_1fluents_1_1DataBase_af8b26948ded7bba6386b984f463bf166.html#af8b26948ded7bba6386b984f463bf166" target="_top" xlink:title="prolog.fluents.DataBase.stream\lToProg">
<polygon fill="none" stroke="black" points="1652,-85 1652,-115 1807,-115 1807,-85 1652,-85"/>
<text text-anchor="start" x="1660" y="-103" font-family="Helvetica,sans-Serif" font-size="10.00">prolog.fluents.DataBase.stream</text>
<text text-anchor="middle" x="1729.5" y="-92" font-family="Helvetica,sans-Serif" font-size="10.00">ToProg</text>
</a>
</g>
</g>
<!-- Node15&#45;&gt;Node16 -->
<g id="edge17" class="edge"><title>Node15&#45;&gt;Node16</title>
<path fill="none" stroke="midnightblue" d="M1626.06,-100C1634.65,-100 1643.34,-100 1651.86,-100"/>
<polygon fill="midnightblue" stroke="midnightblue" points="1626.05,-96.5001 1616.05,-100 1626.05,-103.5 1626.05,-96.5001"/>
</g>
<!-- Node20&#45;&gt;Node8 -->
<g id="edge23" class="edge"><title>Node20&#45;&gt;Node8</title>
<path fill="none" stroke="midnightblue" d="M300.935,-38.5225C323.814,-43.0337 349.746,-48.1472 371.556,-52.4477"/>
<polygon fill="midnightblue" stroke="midnightblue" points="301.491,-35.0647 291.003,-36.5639 300.137,-41.9324 301.491,-35.0647"/>
</g>
</g>
</svg>
