<?xml version="1.0" encoding="UTF-8" standalone="no"?>
<!DOCTYPE svg PUBLIC "-//W3C//DTD SVG 1.1//EN"
 "http://www.w3.org/Graphics/SVG/1.1/DTD/svg11.dtd">
<!-- Generated by graphviz version 2.38.0 (20140413.2041)
 -->
<!-- Title: prolog.fluents.Queue.inc Pages: 1 -->
<!--zoomable 316 -->
<svg id="main" version="1.1" xmlns="http://www.w3.org/2000/svg" xmlns:xlink="http://www.w3.org/1999/xlink" xml:space="preserve" onload="init(evt)">
<style type="text/css"><![CDATA[
.edge:hover path { stroke: red; }
.edge:hover polygon { stroke: red; fill: red; }
]]></style>
<script type="text/javascript"><![CDATA[
var edges = document.getElementsByTagName('g');
if (edges && edges.length) {
  for (var i=0;i<edges.length;i++) {
    if (edges[i].id.substr(0,4)=='edge') {
      edges[i].setAttribute('class','edge');
    }
  }
}
]]></script>
        <defs>
                <circle id="rim" cx="0" cy="0" r="7"/>
                <circle id="rim2" cx="0" cy="0" r="3.5"/>
                <g id="zoomPlus">
                        <use xlink:href="#rim" fill="#404040">
                                <set attributeName="fill" to="#808080" begin="zoomplus.mouseover" end="zoomplus.mouseout"/>
                        </use>
                        <path d="M-4,0h8M0,-4v8" fill="none" stroke="white" stroke-width="1.5" pointer-events="none"/>
                </g>
                <g id="zoomMin">
                        <use xlink:href="#rim" fill="#404040">
                                <set attributeName="fill" to="#808080" begin="zoomminus.mouseover" end="zoomminus.mouseout"/>
                        </use>
                        <path d="M-4,0h8" fill="none" stroke="white" stroke-width="1.5" pointer-events="none"/>
                </g>
                <g id="dirArrow">
                        <path fill="none" stroke="white" stroke-width="1.5" d="M0,-3.0v7 M-2.5,-0.5L0,-3.0L2.5,-0.5"/>
                </g>
               <g id="resetDef">
                       <use xlink:href="#rim2" fill="#404040">
                               <set attributeName="fill" to="#808080" begin="reset.mouseover" end="reset.mouseout"/>
                       </use>
               </g>
        </defs>

<script type="text/javascript">
var viewWidth = 2039;
var viewHeight = 316;
var sectionId = 'dynsection-0';
</script>
<script xlink:href="../../svgpan.js"/>
<svg id="graph" class="graph">
<g id="viewport">
<title>prolog.fluents.Queue.inc</title>
<!-- Node1 -->
<g id="node1" class="node"><title>Node1</title>
<polygon fill="#bfbfbf" stroke="black" points="0,-228.5 0,-247.5 122,-247.5 122,-228.5 0,-228.5"/>
<text text-anchor="middle" x="61" y="-235.5" font-family="Helvetica,sans-Serif" font-size="10.00">prolog.fluents.Queue.inc</text>
</g>
<!-- Node2 -->
<g id="node2" class="node"><title>Node2</title>
<g id="a_node2"><a xlink:href="../../de/d23/classprolog_1_1fluents_1_1Queue_a287302e64fec17ff6cad3f51f8c4bd12.html#a287302e64fec17ff6cad3f51f8c4bd12" target="_top" xlink:title="Removes the first element of the queue. ">
<polygon fill="none" stroke="black" points="741,-265.5 741,-284.5 866,-284.5 866,-265.5 741,-265.5"/>
<text text-anchor="middle" x="803.5" y="-272.5" font-family="Helvetica,sans-Serif" font-size="10.00">prolog.fluents.Queue.deq</text>
</a>
</g>
</g>
<!-- Node1&#45;&gt;Node2 -->
<g id="edge1" class="edge"><title>Node1&#45;&gt;Node2</title>
<path fill="none" stroke="midnightblue" d="M121.592,-249.191C133.607,-251.092 146.178,-252.827 158,-254 371.062,-275.132 625.484,-276.41 740.555,-275.705"/>
<polygon fill="midnightblue" stroke="midnightblue" points="122.093,-245.727 111.659,-247.565 120.961,-252.635 122.093,-245.727"/>
</g>
<!-- Node8 -->
<g id="node8" class="node"><title>Node8</title>
<g id="a_node8"><a xlink:href="../../de/d23/classprolog_1_1fluents_1_1Queue_ac547996ff0686a0df9b16cb070bef1be.html#ac547996ff0686a0df9b16cb070bef1be" target="_top" xlink:title="Adds an element to the end of the queue. ">
<polygon fill="none" stroke="black" points="741,-192.5 741,-211.5 866,-211.5 866,-192.5 741,-192.5"/>
<text text-anchor="middle" x="803.5" y="-199.5" font-family="Helvetica,sans-Serif" font-size="10.00">prolog.fluents.Queue.enq</text>
</a>
</g>
</g>
<!-- Node1&#45;&gt;Node8 -->
<g id="edge7" class="edge"><title>Node1&#45;&gt;Node8</title>
<path fill="none" stroke="midnightblue" d="M81.5358,-222.338C100.082,-208.344 129.314,-188.479 158,-178 234.749,-149.963 258.495,-157.792 340,-152 416.695,-146.549 436.392,-145.433 513,-152 601.932,-159.623 704.561,-180.189 760.602,-192.44"/>
<polygon fill="midnightblue" stroke="midnightblue" points="79.3502,-219.604 73.5731,-228.485 83.6276,-225.145 79.3502,-219.604"/>
</g>
<!-- Node19 -->
<g id="node19" class="node"><title>Node19</title>
<g id="a_node19"><a xlink:href="../../de/d23/classprolog_1_1fluents_1_1Queue_a16816604313a1e73e9d8845cdd4cbf8a.html#a16816604313a1e73e9d8845cdd4cbf8a" target="_top" xlink:title="Dynamically resizes the queue. ">
<polygon fill="none" stroke="black" points="549,-230.5 549,-249.5 693,-249.5 693,-230.5 549,-230.5"/>
<text text-anchor="middle" x="621" y="-237.5" font-family="Helvetica,sans-Serif" font-size="10.00">prolog.fluents.Queue.requeue</text>
</a>
</g>
</g>
<!-- Node1&#45;&gt;Node19 -->
<g id="edge20" class="edge"><title>Node1&#45;&gt;Node19</title>
<path fill="none" stroke="midnightblue" d="M132.394,-238.646C188.593,-239.128 269.346,-239.746 340,-240 411.093,-240.256 492.341,-240.219 548.938,-240.141"/>
<polygon fill="midnightblue" stroke="midnightblue" points="132.224,-235.145 122.194,-238.558 132.163,-242.144 132.224,-235.145"/>
</g>
<!-- Node20 -->
<g id="node20" class="node"><title>Node20</title>
<g id="a_node20"><a xlink:href="../../de/d23/classprolog_1_1fluents_1_1Queue_adca2003759e9be115f6006eee370209a.html#adca2003759e9be115f6006eee370209a" target="_top" xlink:title="prolog.fluents.Queue.toVector">
<polygon fill="none" stroke="black" points="158,-187.5 158,-206.5 304,-206.5 304,-187.5 158,-187.5"/>
<text text-anchor="middle" x="231" y="-194.5" font-family="Helvetica,sans-Serif" font-size="10.00">prolog.fluents.Queue.toVector</text>
</a>
</g>
</g>
<!-- Node1&#45;&gt;Node20 -->
<g id="edge23" class="edge"><title>Node1&#45;&gt;Node20</title>
<path fill="none" stroke="midnightblue" d="M110.808,-226.088C136.298,-219.868 167.066,-212.359 190.956,-206.529"/>
<polygon fill="midnightblue" stroke="midnightblue" points="109.85,-222.72 100.965,-228.491 111.51,-229.52 109.85,-222.72"/>
</g>
<!-- Node3 -->
<g id="node3" class="node"><title>Node3</title>
<g id="a_node3"><a xlink:href="../../d9/dc9/classprolog_1_1fluents_1_1SourceMerger_a0efcba19e4678b70041342889357e43b.html#a0efcba19e4678b70041342889357e43b" target="_top" xlink:title="prolog.fluents.SourceMerger.get\lElement">
<polygon fill="none" stroke="black" points="914,-231 914,-261 1069,-261 1069,-231 914,-231"/>
<text text-anchor="start" x="922" y="-249" font-family="Helvetica,sans-Serif" font-size="10.00">prolog.fluents.SourceMerger.get</text>
<text text-anchor="middle" x="991.5" y="-238" font-family="Helvetica,sans-Serif" font-size="10.00">Element</text>
</a>
</g>
</g>
<!-- Node2&#45;&gt;Node3 -->
<g id="edge2" class="edge"><title>Node2&#45;&gt;Node3</title>
<path fill="none" stroke="midnightblue" d="M875.905,-263.867C888.275,-261.938 901.185,-259.925 913.693,-257.975"/>
<polygon fill="midnightblue" stroke="midnightblue" points="875.002,-260.465 865.661,-265.464 876.081,-267.382 875.002,-260.465"/>
</g>
<!-- Node4 -->
<g id="node4" class="node"><title>Node4</title>
<g id="a_node4"><a xlink:href="../../d2/d8d/classprolog_1_1fluents_1_1BlackBoard_a9a02fa64d8837510e94f4ef70aa25096.html#a9a02fa64d8837510e94f4ef70aa25096" target="_top" xlink:title="Removes the first Term having key k or the first enumerated key if k is null. ">
<polygon fill="none" stroke="black" points="1115.5,-280.5 1115.5,-299.5 1264.5,-299.5 1264.5,-280.5 1115.5,-280.5"/>
<text text-anchor="middle" x="1190" y="-287.5" font-family="Helvetica,sans-Serif" font-size="10.00">prolog.fluents.BlackBoard.pick</text>
</a>
</g>
</g>
<!-- Node2&#45;&gt;Node4 -->
<g id="edge3" class="edge"><title>Node2&#45;&gt;Node4</title>
<path fill="none" stroke="midnightblue" d="M876.496,-277.809C944.644,-280.467 1046.48,-284.44 1115.21,-287.121"/>
<polygon fill="midnightblue" stroke="midnightblue" points="876.405,-274.303 866.277,-277.41 876.133,-281.297 876.405,-274.303"/>
</g>
<!-- Node5 -->
<g id="node5" class="node"><title>Node5</title>
<g id="a_node5"><a xlink:href="../../d2/d8d/classprolog_1_1fluents_1_1BlackBoard_a4b49c266b7b7abbc698841281e426bfe.html#a4b49c266b7b7abbc698841281e426bfe" target="_top" xlink:title="Removes the first matching Term or Clause from the blackboard, to be used by Linda in/1 operation in ...">
<polygon fill="none" stroke="black" points="1311,-280.5 1311,-299.5 1461,-299.5 1461,-280.5 1311,-280.5"/>
<text text-anchor="middle" x="1386" y="-287.5" font-family="Helvetica,sans-Serif" font-size="10.00">prolog.fluents.BlackBoard.take</text>
</a>
</g>
</g>
<!-- Node4&#45;&gt;Node5 -->
<g id="edge4" class="edge"><title>Node4&#45;&gt;Node5</title>
<path fill="none" stroke="midnightblue" d="M1274.64,-290C1286.66,-290 1298.96,-290 1310.79,-290"/>
<polygon fill="midnightblue" stroke="midnightblue" points="1274.62,-286.5 1264.62,-290 1274.62,-293.5 1274.62,-286.5"/>
</g>
<!-- Node6 -->
<g id="node6" class="node"><title>Node6</title>
<g id="a_node6"><a xlink:href="../../da/dd9/classprolog_1_1fluents_1_1DataBase_a5cc308e3a32da4266de44e52764501ca.html#a5cc308e3a32da4266de44e52764501ca" target="_top" xlink:title="Removes a matching Term from the blackboards and signals failure if no such term is found...">
<polygon fill="none" stroke="black" points="1508,-280.5 1508,-299.5 1645,-299.5 1645,-280.5 1508,-280.5"/>
<text text-anchor="middle" x="1576.5" y="-287.5" font-family="Helvetica,sans-Serif" font-size="10.00">prolog.fluents.DataBase.cin</text>
</a>
</g>
</g>
<!-- Node5&#45;&gt;Node6 -->
<g id="edge5" class="edge"><title>Node5&#45;&gt;Node6</title>
<path fill="none" stroke="midnightblue" d="M1471.39,-290C1483.57,-290 1495.98,-290 1507.78,-290"/>
<polygon fill="midnightblue" stroke="midnightblue" points="1471.23,-286.5 1461.23,-290 1471.23,-293.5 1471.23,-286.5"/>
</g>
<!-- Node7 -->
<g id="node7" class="node"><title>Node7</title>
<g id="a_node7"><a xlink:href="../../d1/dd4/classprolog_1_1builtins_1_1db__remove_a5a3ab57bdfd925e9cc119d213cd23163.html#a5a3ab57bdfd925e9cc119d213cd23163" target="_top" xlink:title="prolog.builtins.db\l_remove.exec">
<polygon fill="none" stroke="black" points="1721,-277 1721,-307 1811,-307 1811,-277 1721,-277"/>
<text text-anchor="start" x="1729" y="-295" font-family="Helvetica,sans-Serif" font-size="10.00">prolog.builtins.db</text>
<text text-anchor="middle" x="1766" y="-284" font-family="Helvetica,sans-Serif" font-size="10.00">_remove.exec</text>
</a>
</g>
</g>
<!-- Node6&#45;&gt;Node7 -->
<g id="edge6" class="edge"><title>Node6&#45;&gt;Node7</title>
<path fill="none" stroke="midnightblue" d="M1655.35,-290.83C1677.68,-291.069 1701.26,-291.32 1720.8,-291.529"/>
<polygon fill="midnightblue" stroke="midnightblue" points="1655.23,-287.329 1645.19,-290.722 1655.15,-294.329 1655.23,-287.329"/>
</g>
<!-- Node8&#45;&gt;Node3 -->
<g id="edge18" class="edge"><title>Node8&#45;&gt;Node3</title>
<path fill="none" stroke="midnightblue" d="M854.737,-213.884C876.926,-219.133 903.267,-225.364 926.815,-230.935"/>
<polygon fill="midnightblue" stroke="midnightblue" points="855.396,-210.443 844.859,-211.547 853.785,-217.255 855.396,-210.443"/>
</g>
<!-- Node9 -->
<g id="node9" class="node"><title>Node9</title>
<g id="a_node9"><a xlink:href="../../d2/d8d/classprolog_1_1fluents_1_1BlackBoard_aca9281fa2c70090208e6d62d28406480.html#aca9281fa2c70090208e6d62d28406480" target="_top" xlink:title="Adds a Term or Clause to the the blackboard, to be used by Linda out/1 operation. ...">
<polygon fill="none" stroke="black" points="918,-192.5 918,-211.5 1065,-211.5 1065,-192.5 918,-192.5"/>
<text text-anchor="middle" x="991.5" y="-199.5" font-family="Helvetica,sans-Serif" font-size="10.00">prolog.fluents.BlackBoard.add</text>
</a>
</g>
</g>
<!-- Node8&#45;&gt;Node9 -->
<g id="edge8" class="edge"><title>Node8&#45;&gt;Node9</title>
<path fill="none" stroke="midnightblue" d="M876.393,-202C889.941,-202 904.119,-202 917.695,-202"/>
<polygon fill="midnightblue" stroke="midnightblue" points="876.177,-198.5 866.177,-202 876.177,-205.5 876.177,-198.5"/>
</g>
<!-- Node18 -->
<g id="node18" class="node"><title>Node18</title>
<g id="a_node18"><a xlink:href="../../de/d23/classprolog_1_1fluents_1_1Queue_a1d2f34c76d3ee0eba3dc33a53aead569.html#a1d2f34c76d3ee0eba3dc33a53aead569" target="_top" xlink:title="prolog.fluents.Queue.Queue">
<polygon fill="none" stroke="black" points="922.5,-154.5 922.5,-173.5 1060.5,-173.5 1060.5,-154.5 922.5,-154.5"/>
<text text-anchor="middle" x="991.5" y="-161.5" font-family="Helvetica,sans-Serif" font-size="10.00">prolog.fluents.Queue.Queue</text>
</a>
</g>
</g>
<!-- Node8&#45;&gt;Node18 -->
<g id="edge19" class="edge"><title>Node8&#45;&gt;Node18</title>
<path fill="none" stroke="midnightblue" d="M861.325,-190.39C887.779,-184.986 918.858,-178.636 943.902,-173.52"/>
<polygon fill="midnightblue" stroke="midnightblue" points="860.533,-186.98 851.436,-192.411 861.934,-193.838 860.533,-186.98"/>
</g>
<!-- Node10 -->
<g id="node10" class="node"><title>Node10</title>
<g id="a_node10"><a xlink:href="../../d2/d8d/classprolog_1_1fluents_1_1BlackBoard_aac87e5ee52935ab35a1b8fd9ac463945.html#aac87e5ee52935ab35a1b8fd9ac463945" target="_top" xlink:title="prolog.fluents.BlackBoard.addBack">
<polygon fill="none" stroke="black" points="1105,-235.5 1105,-254.5 1275,-254.5 1275,-235.5 1105,-235.5"/>
<text text-anchor="middle" x="1190" y="-242.5" font-family="Helvetica,sans-Serif" font-size="10.00">prolog.fluents.BlackBoard.addBack</text>
</a>
</g>
</g>
<!-- Node9&#45;&gt;Node10 -->
<g id="edge9" class="edge"><title>Node9&#45;&gt;Node10</title>
<path fill="none" stroke="midnightblue" d="M1045.96,-213.699C1077.21,-220.538 1116.16,-229.059 1145.51,-235.484"/>
<polygon fill="midnightblue" stroke="midnightblue" points="1046.63,-210.262 1036.11,-211.543 1045.13,-217.1 1046.63,-210.262"/>
</g>
<!-- Node11 -->
<g id="node11" class="node"><title>Node11</title>
<g id="a_node11"><a xlink:href="../../da/dd9/classprolog_1_1fluents_1_1DataBase_a51e4c70bda602ed87135ca094cd64eb2.html#a51e4c70bda602ed87135ca094cd64eb2" target="_top" xlink:title="Adds a Term to the blackboard. ">
<polygon fill="none" stroke="black" points="1121,-189.5 1121,-208.5 1259,-208.5 1259,-189.5 1121,-189.5"/>
<text text-anchor="middle" x="1190" y="-196.5" font-family="Helvetica,sans-Serif" font-size="10.00">prolog.fluents.DataBase.out</text>
</a>
</g>
</g>
<!-- Node9&#45;&gt;Node11 -->
<g id="edge11" class="edge"><title>Node9&#45;&gt;Node11</title>
<path fill="none" stroke="midnightblue" d="M1075.5,-200.733C1090.64,-200.502 1106.28,-200.263 1120.92,-200.039"/>
<polygon fill="midnightblue" stroke="midnightblue" points="1075.06,-197.239 1065.11,-200.891 1075.16,-204.238 1075.06,-197.239"/>
</g>
<!-- Node10&#45;&gt;Node5 -->
<g id="edge10" class="edge"><title>Node10&#45;&gt;Node5</title>
<path fill="none" stroke="midnightblue" d="M1242.14,-256.861C1273.91,-264.233 1314.22,-273.583 1343.92,-280.47"/>
<polygon fill="midnightblue" stroke="midnightblue" points="1242.67,-253.394 1232.14,-254.543 1241.09,-260.212 1242.67,-253.394"/>
</g>
<!-- Node12 -->
<g id="node12" class="node"><title>Node12</title>
<g id="a_node12"><a xlink:href="../../da/dd9/classprolog_1_1fluents_1_1DataBase_a7922dc4eb05ca6cccd4c8bb38563814e.html#a7922dc4eb05ca6cccd4c8bb38563814e" target="_top" xlink:title="adds a Clause to the joint Linda and Predicate table ">
<polygon fill="none" stroke="black" points="1316,-231 1316,-261 1456,-261 1456,-231 1316,-231"/>
<text text-anchor="start" x="1324" y="-249" font-family="Helvetica,sans-Serif" font-size="10.00">prolog.fluents.DataBase.add</text>
<text text-anchor="middle" x="1386" y="-238" font-family="Helvetica,sans-Serif" font-size="10.00">Clause</text>
</a>
</g>
</g>
<!-- Node11&#45;&gt;Node12 -->
<g id="edge12" class="edge"><title>Node11&#45;&gt;Node12</title>
<path fill="none" stroke="midnightblue" d="M1240.29,-210.941C1265.39,-217.022 1296.17,-224.48 1322.88,-230.951"/>
<polygon fill="midnightblue" stroke="midnightblue" points="1240.8,-207.464 1230.26,-208.511 1239.15,-214.267 1240.8,-207.464"/>
</g>
<!-- Node16 -->
<g id="node16" class="node"><title>Node16</title>
<g id="a_node16"><a xlink:href="../../dc/d4a/classprolog_1_1builtins_1_1db__add_a6c55798f7122b37579a971715a7f9ab0.html#a6c55798f7122b37579a971715a7f9ab0" target="_top" xlink:title="prolog.builtins.db\l_add.exec">
<polygon fill="none" stroke="black" points="1341,-182 1341,-212 1431,-212 1431,-182 1341,-182"/>
<text text-anchor="start" x="1349" y="-200" font-family="Helvetica,sans-Serif" font-size="10.00">prolog.builtins.db</text>
<text text-anchor="middle" x="1386" y="-189" font-family="Helvetica,sans-Serif" font-size="10.00">_add.exec</text>
</a>
</g>
</g>
<!-- Node11&#45;&gt;Node16 -->
<g id="edge16" class="edge"><title>Node11&#45;&gt;Node16</title>
<path fill="none" stroke="midnightblue" d="M1269.41,-198.192C1293.7,-197.941 1319.6,-197.674 1340.71,-197.457"/>
<polygon fill="midnightblue" stroke="midnightblue" points="1269.09,-194.695 1259.12,-198.298 1269.16,-201.694 1269.09,-194.695"/>
</g>
<!-- Node17 -->
<g id="node17" class="node"><title>Node17</title>
<g id="a_node17"><a xlink:href="../../da/dd9/classprolog_1_1fluents_1_1DataBase_a5f611e8962c4b5fc2fb515048d4ad9dc.html#a5f611e8962c4b5fc2fb515048d4ad9dc" target="_top" xlink:title="Adds a copy of a Term to the blackboard. ">
<polygon fill="none" stroke="black" points="1317,-143.5 1317,-162.5 1455,-162.5 1455,-143.5 1317,-143.5"/>
<text text-anchor="middle" x="1386" y="-150.5" font-family="Helvetica,sans-Serif" font-size="10.00">prolog.fluents.DataBase.out</text>
</a>
</g>
</g>
<!-- Node11&#45;&gt;Node17 -->
<g id="edge17" class="edge"><title>Node11&#45;&gt;Node17</title>
<path fill="none" stroke="midnightblue" d="M1241.32,-187.068C1273.56,-179.425 1314.82,-169.64 1344.85,-162.519"/>
<polygon fill="midnightblue" stroke="midnightblue" points="1240.12,-183.756 1231.2,-189.469 1241.73,-190.567 1240.12,-183.756"/>
</g>
<!-- Node13 -->
<g id="node13" class="node"><title>Node13</title>
<g id="a_node13"><a xlink:href="../../da/dd9/classprolog_1_1fluents_1_1DataBase_a6f8041bc2bcb5cdd8a376e81a3dc4dca.html#a6f8041bc2bcb5cdd8a376e81a3dc4dca" target="_top" xlink:title="adds a Clause to the joint Linda and Predicate table ">
<polygon fill="none" stroke="black" points="1497,-229 1497,-259 1656,-259 1656,-229 1497,-229"/>
<text text-anchor="start" x="1505" y="-247" font-family="Helvetica,sans-Serif" font-size="10.00">prolog.fluents.DataBase.process</text>
<text text-anchor="middle" x="1576.5" y="-236" font-family="Helvetica,sans-Serif" font-size="10.00">Clause</text>
</a>
</g>
</g>
<!-- Node12&#45;&gt;Node13 -->
<g id="edge13" class="edge"><title>Node12&#45;&gt;Node13</title>
<path fill="none" stroke="midnightblue" d="M1466.17,-245.16C1476.31,-245.052 1486.69,-244.942 1496.83,-244.835"/>
<polygon fill="midnightblue" stroke="midnightblue" points="1466.08,-241.661 1456.12,-245.267 1466.16,-248.66 1466.08,-241.661"/>
</g>
<!-- Node14 -->
<g id="node14" class="node"><title>Node14</title>
<g id="a_node14"><a xlink:href="../../da/dd9/classprolog_1_1fluents_1_1DataBase_a83885e10b61d6bf129307d9bf50d93de.html#a83885e10b61d6bf129307d9bf50d93de" target="_top" xlink:title="prolog.fluents.DataBase.apply\l_parser">
<polygon fill="none" stroke="black" points="1692,-228 1692,-258 1840,-258 1840,-228 1692,-228"/>
<text text-anchor="start" x="1700" y="-246" font-family="Helvetica,sans-Serif" font-size="10.00">prolog.fluents.DataBase.apply</text>
<text text-anchor="middle" x="1766" y="-235" font-family="Helvetica,sans-Serif" font-size="10.00">_parser</text>
</a>
</g>
</g>
<!-- Node13&#45;&gt;Node14 -->
<g id="edge14" class="edge"><title>Node13&#45;&gt;Node14</title>
<path fill="none" stroke="midnightblue" d="M1666.24,-243.527C1674.83,-243.481 1683.47,-243.435 1691.88,-243.39"/>
<polygon fill="midnightblue" stroke="midnightblue" points="1666.18,-240.027 1656.2,-243.58 1666.22,-247.027 1666.18,-240.027"/>
</g>
<!-- Node15 -->
<g id="node15" class="node"><title>Node15</title>
<g id="a_node15"><a xlink:href="../../da/dd9/classprolog_1_1fluents_1_1DataBase_af8b26948ded7bba6386b984f463bf166.html#af8b26948ded7bba6386b984f463bf166" target="_top" xlink:title="prolog.fluents.DataBase.stream\lToProg">
<polygon fill="none" stroke="black" points="1876,-228 1876,-258 2031,-258 2031,-228 1876,-228"/>
<text text-anchor="start" x="1884" y="-246" font-family="Helvetica,sans-Serif" font-size="10.00">prolog.fluents.DataBase.stream</text>
<text text-anchor="middle" x="1953.5" y="-235" font-family="Helvetica,sans-Serif" font-size="10.00">ToProg</text>
</a>
</g>
</g>
<!-- Node14&#45;&gt;Node15 -->
<g id="edge15" class="edge"><title>Node14&#45;&gt;Node15</title>
<path fill="none" stroke="midnightblue" d="M1850.06,-243C1858.65,-243 1867.34,-243 1875.86,-243"/>
<polygon fill="midnightblue" stroke="midnightblue" points="1850.05,-239.5 1840.05,-243 1850.05,-246.5 1850.05,-239.5"/>
</g>
<!-- Node19&#45;&gt;Node2 -->
<g id="edge21" class="edge"><title>Node19&#45;&gt;Node2</title>
<path fill="none" stroke="midnightblue" d="M681.423,-251.522C704.688,-256.034 731.059,-261.147 753.237,-265.448"/>
<polygon fill="midnightblue" stroke="midnightblue" points="681.806,-248.032 671.322,-249.564 680.473,-254.904 681.806,-248.032"/>
</g>
<!-- Node19&#45;&gt;Node8 -->
<g id="edge22" class="edge"><title>Node19&#45;&gt;Node8</title>
<path fill="none" stroke="midnightblue" d="M677.485,-228.319C703.082,-222.93 733.084,-216.614 757.28,-211.52"/>
<polygon fill="midnightblue" stroke="midnightblue" points="676.612,-224.926 667.548,-230.411 678.054,-231.776 676.612,-224.926"/>
</g>
<!-- Node21 -->
<g id="node21" class="node"><title>Node21</title>
<g id="a_node21"><a xlink:href="../../de/d23/classprolog_1_1fluents_1_1Queue_aa5b9659115a717ce9a4bd1976f7bda66.html#aa5b9659115a717ce9a4bd1976f7bda66" target="_top" xlink:title="prolog.fluents.Queue.toEnumeration">
<polygon fill="none" stroke="black" points="340,-79.5 340,-98.5 513,-98.5 513,-79.5 340,-79.5"/>
<text text-anchor="middle" x="426.5" y="-86.5" font-family="Helvetica,sans-Serif" font-size="10.00">prolog.fluents.Queue.toEnumeration</text>
</a>
</g>
</g>
<!-- Node20&#45;&gt;Node21 -->
<g id="edge24" class="edge"><title>Node20&#45;&gt;Node21</title>
<path fill="none" stroke="midnightblue" d="M258.119,-182.422C298.356,-159.964 374.404,-117.519 408.367,-98.5628"/>
<polygon fill="midnightblue" stroke="midnightblue" points="256.198,-179.486 249.172,-187.416 259.61,-185.598 256.198,-179.486"/>
</g>
<!-- Node32 -->
<g id="node32" class="node"><title>Node32</title>
<g id="a_node32"><a xlink:href="../../d2/d8d/classprolog_1_1fluents_1_1BlackBoard_ac7e8ee23b675676bc744c304f543700b.html#ac7e8ee23b675676bc744c304f543700b" target="_top" xlink:title="This gives an enumeration view for the sequence of objects kept under key k. ">
<polygon fill="none" stroke="black" points="356.5,-162 356.5,-192 496.5,-192 496.5,-162 356.5,-162"/>
<text text-anchor="start" x="364.5" y="-180" font-family="Helvetica,sans-Serif" font-size="10.00">prolog.fluents.BlackBoard.to</text>
<text text-anchor="middle" x="426.5" y="-169" font-family="Helvetica,sans-Serif" font-size="10.00">EnumerationFor</text>
</a>
</g>
</g>
<!-- Node20&#45;&gt;Node32 -->
<g id="edge37" class="edge"><title>Node20&#45;&gt;Node32</title>
<path fill="none" stroke="midnightblue" d="M314.171,-188.507C328.194,-187.057 342.634,-185.565 356.278,-184.155"/>
<polygon fill="midnightblue" stroke="midnightblue" points="313.639,-185.043 304.052,-189.553 314.359,-192.006 313.639,-185.043"/>
</g>
<!-- Node33 -->
<g id="node33" class="node"><title>Node33</title>
<g id="a_node33"><a xlink:href="../../de/d23/classprolog_1_1fluents_1_1Queue_af00e19e476afb783189f3ded5c1af564.html#af00e19e476afb783189f3ded5c1af564" target="_top" xlink:title="prolog.fluents.Queue.toString">
<polygon fill="none" stroke="black" points="355,-211.5 355,-230.5 498,-230.5 498,-211.5 355,-211.5"/>
<text text-anchor="middle" x="426.5" y="-218.5" font-family="Helvetica,sans-Serif" font-size="10.00">prolog.fluents.Queue.toString</text>
</a>
</g>
</g>
<!-- Node20&#45;&gt;Node33 -->
<g id="edge38" class="edge"><title>Node20&#45;&gt;Node33</title>
<path fill="none" stroke="midnightblue" d="M314.313,-207.209C327.852,-208.889 341.778,-210.616 354.996,-212.255"/>
<polygon fill="midnightblue" stroke="midnightblue" points="314.407,-203.694 304.052,-205.937 313.545,-210.641 314.407,-203.694"/>
</g>
<!-- Node22 -->
<g id="node22" class="node"><title>Node22</title>
<g id="a_node22"><a xlink:href="../../da/dd9/classprolog_1_1fluents_1_1DataBase_a610cc1f35df4467fbb1fac1052091915.html#a610cc1f35df4467fbb1fac1052091915" target="_top" xlink:title="prolog.fluents.DataBase.all0">
<polygon fill="none" stroke="black" points="551,-35.5 551,-54.5 691,-54.5 691,-35.5 551,-35.5"/>
<text text-anchor="middle" x="621" y="-42.5" font-family="Helvetica,sans-Serif" font-size="10.00">prolog.fluents.DataBase.all0</text>
</a>
</g>
</g>
<!-- Node21&#45;&gt;Node22 -->
<g id="edge25" class="edge"><title>Node21&#45;&gt;Node22</title>
<path fill="none" stroke="midnightblue" d="M479.055,-77.2159C510.13,-70.1131 549.195,-61.184 578.312,-54.5287"/>
<polygon fill="midnightblue" stroke="midnightblue" points="478.238,-73.8123 469.27,-79.4527 479.798,-80.6363 478.238,-73.8123"/>
</g>
<!-- Node28 -->
<g id="node28" class="node"><title>Node28</title>
<g id="a_node28"><a xlink:href="../../da/dd9/classprolog_1_1fluents_1_1DataBase_a2943c1694ea86572574a57f1a31f11c2.html#a2943c1694ea86572574a57f1a31f11c2" target="_top" xlink:title="prolog.fluents.DataBase.pred\l_to_string">
<polygon fill="none" stroke="black" points="549.5,-74 549.5,-104 692.5,-104 692.5,-74 549.5,-74"/>
<text text-anchor="start" x="557.5" y="-92" font-family="Helvetica,sans-Serif" font-size="10.00">prolog.fluents.DataBase.pred</text>
<text text-anchor="middle" x="621" y="-81" font-family="Helvetica,sans-Serif" font-size="10.00">_to_string</text>
</a>
</g>
</g>
<!-- Node21&#45;&gt;Node28 -->
<g id="edge32" class="edge"><title>Node21&#45;&gt;Node28</title>
<path fill="none" stroke="midnightblue" d="M523.057,-89C531.933,-89 540.818,-89 549.408,-89"/>
<polygon fill="midnightblue" stroke="midnightblue" points="523.054,-85.5001 513.054,-89 523.054,-92.5001 523.054,-85.5001"/>
</g>
<!-- Node23 -->
<g id="node23" class="node"><title>Node23</title>
<g id="a_node23"><a xlink:href="../../da/dd9/classprolog_1_1fluents_1_1DataBase_a4b4a68ddd60d87276cd7f9befd237ad9.html#a4b4a68ddd60d87276cd7f9befd237ad9" target="_top" xlink:title="prolog.fluents.DataBase.all1">
<polygon fill="none" stroke="black" points="733.5,-0.5 733.5,-19.5 873.5,-19.5 873.5,-0.5 733.5,-0.5"/>
<text text-anchor="middle" x="803.5" y="-7.5" font-family="Helvetica,sans-Serif" font-size="10.00">prolog.fluents.DataBase.all1</text>
</a>
</g>
</g>
<!-- Node22&#45;&gt;Node23 -->
<g id="edge26" class="edge"><title>Node22&#45;&gt;Node23</title>
<path fill="none" stroke="midnightblue" d="M681.423,-33.4775C704.688,-28.9663 731.059,-23.8528 753.237,-19.5523"/>
<polygon fill="midnightblue" stroke="midnightblue" points="680.473,-30.0964 671.322,-35.4361 681.806,-36.9684 680.473,-30.0964"/>
</g>
<!-- Node24 -->
<g id="node24" class="node"><title>Node24</title>
<g id="a_node24"><a xlink:href="../../da/dd9/classprolog_1_1fluents_1_1DataBase_a16bb9f309e161ca656d8aef483ba7e5f.html#a16bb9f309e161ca656d8aef483ba7e5f" target="_top" xlink:title="prolog.fluents.DataBase.all2">
<polygon fill="none" stroke="black" points="921.5,-30.5 921.5,-49.5 1061.5,-49.5 1061.5,-30.5 921.5,-30.5"/>
<text text-anchor="middle" x="991.5" y="-37.5" font-family="Helvetica,sans-Serif" font-size="10.00">prolog.fluents.DataBase.all2</text>
</a>
</g>
</g>
<!-- Node22&#45;&gt;Node24 -->
<g id="edge31" class="edge"><title>Node22&#45;&gt;Node24</title>
<path fill="none" stroke="midnightblue" d="M701.593,-43.92C767.116,-43.031 859.06,-41.7834 921.499,-40.9362"/>
<polygon fill="midnightblue" stroke="midnightblue" points="701.264,-40.4241 691.312,-44.0595 701.359,-47.4234 701.264,-40.4241"/>
</g>
<!-- Node23&#45;&gt;Node24 -->
<g id="edge27" class="edge"><title>Node23&#45;&gt;Node24</title>
<path fill="none" stroke="midnightblue" d="M873.703,-21.1618C892.722,-24.2293 913.164,-27.5264 931.547,-30.4914"/>
<polygon fill="midnightblue" stroke="midnightblue" points="874.037,-17.6705 863.607,-19.5334 872.922,-24.5812 874.037,-17.6705"/>
</g>
<!-- Node25 -->
<g id="node25" class="node"><title>Node25</title>
<g id="a_node25"><a xlink:href="../../da/dd9/classprolog_1_1fluents_1_1DataBase_ac93f1bf928f7e64f000726f764891ea9.html#ac93f1bf928f7e64f000726f764891ea9" target="_top" xlink:title="Returns a (possibly empty) list of matching Term objects. ">
<polygon fill="none" stroke="black" points="1123,-30.5 1123,-49.5 1257,-49.5 1257,-30.5 1123,-30.5"/>
<text text-anchor="middle" x="1190" y="-37.5" font-family="Helvetica,sans-Serif" font-size="10.00">prolog.fluents.DataBase.all</text>
</a>
</g>
</g>
<!-- Node24&#45;&gt;Node25 -->
<g id="edge28" class="edge"><title>Node24&#45;&gt;Node25</title>
<path fill="none" stroke="midnightblue" d="M1071.9,-40C1088.8,-40 1106.47,-40 1122.81,-40"/>
<polygon fill="midnightblue" stroke="midnightblue" points="1071.5,-36.5001 1061.5,-40 1071.5,-43.5001 1071.5,-36.5001"/>
</g>
<!-- Node26 -->
<g id="node26" class="node"><title>Node26</title>
<g id="a_node26"><a xlink:href="../../df/dfb/classprolog_1_1builtins_1_1db__collect_a2c65ced6ccab65917066acd22e05c2ee.html#a2c65ced6ccab65917066acd22e05c2ee" target="_top" xlink:title="prolog.builtins.db\l_collect.exec">
<polygon fill="none" stroke="black" points="1341,-72 1341,-102 1431,-102 1431,-72 1341,-72"/>
<text text-anchor="start" x="1349" y="-90" font-family="Helvetica,sans-Serif" font-size="10.00">prolog.builtins.db</text>
<text text-anchor="middle" x="1386" y="-79" font-family="Helvetica,sans-Serif" font-size="10.00">_collect.exec</text>
</a>
</g>
</g>
<!-- Node25&#45;&gt;Node26 -->
<g id="edge29" class="edge"><title>Node25&#45;&gt;Node26</title>
<path fill="none" stroke="midnightblue" d="M1239.99,-51.8679C1270.97,-59.3733 1310.68,-68.9955 1340.72,-76.2716"/>
<polygon fill="midnightblue" stroke="midnightblue" points="1240.8,-48.4642 1230.26,-49.5112 1239.15,-55.2674 1240.8,-48.4642"/>
</g>
<!-- Node27 -->
<g id="node27" class="node"><title>Node27</title>
<g id="a_node27"><a xlink:href="../../de/db4/classprolog_1_1builtins_1_1at__key_acf52ce169f8e3b064dbca64fcf06fcab.html#acf52ce169f8e3b064dbca64fcf06fcab" target="_top" xlink:title="prolog.builtins.at\l_key.exec">
<polygon fill="none" stroke="black" points="1342,-23 1342,-53 1430,-53 1430,-23 1342,-23"/>
<text text-anchor="start" x="1350" y="-41" font-family="Helvetica,sans-Serif" font-size="10.00">prolog.builtins.at</text>
<text text-anchor="middle" x="1386" y="-30" font-family="Helvetica,sans-Serif" font-size="10.00">_key.exec</text>
</a>
</g>
</g>
<!-- Node25&#45;&gt;Node27 -->
<g id="edge30" class="edge"><title>Node25&#45;&gt;Node27</title>
<path fill="none" stroke="midnightblue" d="M1267.54,-39.2109C1292.81,-38.9504 1320.03,-38.6698 1341.89,-38.4444"/>
<polygon fill="midnightblue" stroke="midnightblue" points="1267.18,-35.7143 1257.22,-39.3173 1267.26,-42.7139 1267.18,-35.7143"/>
</g>
<!-- Node29 -->
<g id="node29" class="node"><title>Node29</title>
<g id="a_node29"><a xlink:href="../../d8/d56/classprolog_1_1builtins_1_1pred__to__string_a444ec2879d6ff36fff485e9fea05c43c.html#a444ec2879d6ff36fff485e9fea05c43c" target="_top" xlink:title="prolog.builtins.pred\l_to_string.exec">
<polygon fill="none" stroke="black" points="754.5,-118 754.5,-148 852.5,-148 852.5,-118 754.5,-118"/>
<text text-anchor="start" x="762.5" y="-136" font-family="Helvetica,sans-Serif" font-size="10.00">prolog.builtins.pred</text>
<text text-anchor="middle" x="803.5" y="-125" font-family="Helvetica,sans-Serif" font-size="10.00">_to_string.exec</text>
</a>
</g>
</g>
<!-- Node28&#45;&gt;Node29 -->
<g id="edge33" class="edge"><title>Node28&#45;&gt;Node29</title>
<path fill="none" stroke="midnightblue" d="M693.496,-106.428C713.887,-111.399 735.614,-116.695 754.261,-121.241"/>
<polygon fill="midnightblue" stroke="midnightblue" points="694.157,-102.987 683.613,-104.019 692.5,-109.788 694.157,-102.987"/>
</g>
<!-- Node30 -->
<g id="node30" class="node"><title>Node30</title>
<g id="a_node30"><a xlink:href="../../da/dd9/classprolog_1_1fluents_1_1DataBase_abee194bd51b63bf7758b4ae2b2795b04.html#abee194bd51b63bf7758b4ae2b2795b04" target="_top" xlink:title="Returns a formatted String representation of this PrologBlackboard object. ">
<polygon fill="none" stroke="black" points="729,-79.5 729,-98.5 878,-98.5 878,-79.5 729,-79.5"/>
<text text-anchor="middle" x="803.5" y="-86.5" font-family="Helvetica,sans-Serif" font-size="10.00">prolog.fluents.DataBase.pprint</text>
</a>
</g>
</g>
<!-- Node28&#45;&gt;Node30 -->
<g id="edge34" class="edge"><title>Node28&#45;&gt;Node30</title>
<path fill="none" stroke="midnightblue" d="M702.667,-82.2839C711.338,-82.2223 720.129,-82.2446 728.714,-82.3508"/>
<polygon fill="midnightblue" stroke="midnightblue" points="702.522,-78.7852 692.562,-82.3948 702.599,-85.7848 702.522,-78.7852"/>
</g>
<!-- Node30&#45;&gt;Node28 -->
<g id="edge36" class="edge"><title>Node30&#45;&gt;Node28</title>
<path fill="none" stroke="midnightblue" d="M718.561,-95.7353C709.864,-95.7759 701.09,-95.7325 692.562,-95.6052"/>
<polygon fill="midnightblue" stroke="midnightblue" points="718.744,-99.234 728.714,-95.6492 718.684,-92.2342 718.744,-99.234"/>
</g>
<!-- Node31 -->
<g id="node31" class="node"><title>Node31</title>
<g id="a_node31"><a xlink:href="../../d7/d12/classprolog_1_1builtins_1_1db__to__string_a9ce40787f8196bff94e7b1393e0dc51b.html#a9ce40787f8196bff94e7b1393e0dc51b" target="_top" xlink:title="prolog.builtins.db\l_to_string.exec">
<polygon fill="none" stroke="black" points="946.5,-74 946.5,-104 1036.5,-104 1036.5,-74 946.5,-74"/>
<text text-anchor="start" x="954.5" y="-92" font-family="Helvetica,sans-Serif" font-size="10.00">prolog.builtins.db</text>
<text text-anchor="middle" x="991.5" y="-81" font-family="Helvetica,sans-Serif" font-size="10.00">_to_string.exec</text>
</a>
</g>
</g>
<!-- Node30&#45;&gt;Node31 -->
<g id="edge35" class="edge"><title>Node30&#45;&gt;Node31</title>
<path fill="none" stroke="midnightblue" d="M888.138,-89C908.252,-89 928.956,-89 946.435,-89"/>
<polygon fill="midnightblue" stroke="midnightblue" points="888.012,-85.5001 878.012,-89 888.012,-92.5001 888.012,-85.5001"/>
</g>
<!-- Node33&#45;&gt;Node19 -->
<g id="edge39" class="edge"><title>Node33&#45;&gt;Node19</title>
<path fill="none" stroke="midnightblue" d="M508.273,-228.972C521.723,-230.3 535.587,-231.668 548.777,-232.97"/>
<polygon fill="midnightblue" stroke="midnightblue" points="508.382,-225.466 498.087,-227.967 507.695,-232.432 508.382,-225.466"/>
</g>
</g>
</svg>
        <g id="navigator" transform="translate(0 0)" fill="#404254">
                <rect fill="#f2f5e9" fill-opacity="0.5" stroke="#606060" stroke-width=".5" x="0" y="0" width="60" height="60"/>
                <use id="zoomplus" xlink:href="#zoomPlus" x="17" y="9" onmousedown="handleZoom(evt,'in')"/>
                <use id="zoomminus" xlink:href="#zoomMin" x="42" y="9" onmousedown="handleZoom(evt,'out')"/>
                <use id="reset" xlink:href="#resetDef" x="30" y="36" onmousedown="handleReset()"/>
                <g id="arrowUp" xlink:href="#dirArrow" transform="translate(30 24)" onmousedown="handlePan(0,-1)">
                  <use xlink:href="#rim" fill="#404040">
                        <set attributeName="fill" to="#808080" begin="arrowUp.mouseover" end="arrowUp.mouseout"/>
                  </use>
                  <path fill="none" stroke="white" stroke-width="1.5" d="M0,-3.0v7 M-2.5,-0.5L0,-3.0L2.5,-0.5"/>
                </g>
                <g id="arrowRight" xlink:href="#dirArrow" transform="rotate(90) translate(36 -43)" onmousedown="handlePan(1,0)">
                  <use xlink:href="#rim" fill="#404040">
                        <set attributeName="fill" to="#808080" begin="arrowRight.mouseover" end="arrowRight.mouseout"/>
                  </use>
                  <path fill="none" stroke="white" stroke-width="1.5" d="M0,-3.0v7 M-2.5,-0.5L0,-3.0L2.5,-0.5"/>
                </g>
                <g id="arrowDown" xlink:href="#dirArrow" transform="rotate(180) translate(-30 -48)" onmousedown="handlePan(0,1)">
                  <use xlink:href="#rim" fill="#404040">
                        <set attributeName="fill" to="#808080" begin="arrowDown.mouseover" end="arrowDown.mouseout"/>
                  </use>
                  <path fill="none" stroke="white" stroke-width="1.5" d="M0,-3.0v7 M-2.5,-0.5L0,-3.0L2.5,-0.5"/>
                </g>
                <g id="arrowLeft" xlink:href="#dirArrow" transform="rotate(270) translate(-36 17)" onmousedown="handlePan(-1,0)">
                  <use xlink:href="#rim" fill="#404040">
                        <set attributeName="fill" to="#808080" begin="arrowLeft.mouseover" end="arrowLeft.mouseout"/>
                  </use>
                  <path fill="none" stroke="white" stroke-width="1.5" d="M0,-3.0v7 M-2.5,-0.5L0,-3.0L2.5,-0.5"/>
                </g>
        </g>
        <svg viewBox="0 0 15 15" width="100%" height="30px" preserveAspectRatio="xMaxYMin meet">
         <g id="arrow_out" transform="scale(0.3 0.3)">
          <a xlink:href="classprolog_1_1fluents_1_1Queue_a3d1135124c700679bbd665d253dd9f0f_a3d1135124c700679bbd665d253dd9f0f_icgraph_org.svg" target="_base">
           <rect id="button" ry="5" rx="5" y="6" x="6" height="38" width="38"
                fill="#f2f5e9" fill-opacity="0.5" stroke="#606060" stroke-width="1.0"/>
           <path id="arrow"
             d="M 11.500037,31.436501 C 11.940474,20.09759 22.043105,11.32322 32.158766,21.979434 L 37.068811,17.246167 C 37.068811,17.246167 37.088388,32 37.088388,32 L 22.160133,31.978069 C 22.160133,31.978069 26.997745,27.140456 26.997745,27.140456 C 18.528582,18.264221 13.291696,25.230495 11.500037,31.436501 z"
             style="fill:#404040;"/>
          </a>
         </g>
        </svg>
</svg>
