<?xml version="1.0" encoding="UTF-8" standalone="no"?>
<!DOCTYPE svg PUBLIC "-//W3C//DTD SVG 1.1//EN"
 "http://www.w3.org/Graphics/SVG/1.1/DTD/svg11.dtd">
<!-- Generated by graphviz version 2.38.0 (20140413.2041)
 -->
<!-- Title: prolog.fluents.Queue.deq Pages: 1 -->
<!--zoomable 83 -->
<svg id="main" version="1.1" xmlns="http://www.w3.org/2000/svg" xmlns:xlink="http://www.w3.org/1999/xlink" xml:space="preserve" onload="init(evt)">
<style type="text/css"><![CDATA[
.edge:hover path { stroke: red; }
.edge:hover polygon { stroke: red; fill: red; }
]]></style>
<script type="text/javascript"><![CDATA[
var edges = document.getElementsByTagName('g');
if (edges && edges.length) {
  for (var i=0;i<edges.length;i++) {
    if (edges[i].id.substr(0,4)=='edge') {
      edges[i].setAttribute('class','edge');
    }
  }
}
]]></script>
        <defs>
                <circle id="rim" cx="0" cy="0" r="7"/>
                <circle id="rim2" cx="0" cy="0" r="3.5"/>
                <g id="zoomPlus">
                        <use xlink:href="#rim" fill="#404040">
                                <set attributeName="fill" to="#808080" begin="zoomplus.mouseover" end="zoomplus.mouseout"/>
                        </use>
                        <path d="M-4,0h8M0,-4v8" fill="none" stroke="white" stroke-width="1.5" pointer-events="none"/>
                </g>
                <g id="zoomMin">
                        <use xlink:href="#rim" fill="#404040">
                                <set attributeName="fill" to="#808080" begin="zoomminus.mouseover" end="zoomminus.mouseout"/>
                        </use>
                        <path d="M-4,0h8" fill="none" stroke="white" stroke-width="1.5" pointer-events="none"/>
                </g>
                <g id="dirArrow">
                        <path fill="none" stroke="white" stroke-width="1.5" d="M0,-3.0v7 M-2.5,-0.5L0,-3.0L2.5,-0.5"/>
                </g>
               <g id="resetDef">
                       <use xlink:href="#rim2" fill="#404040">
                               <set attributeName="fill" to="#808080" begin="reset.mouseover" end="reset.mouseout"/>
                       </use>
               </g>
        </defs>

<script type="text/javascript">
var viewWidth = 809;
var viewHeight = 83;
var sectionId = 'dynsection-1';
</script>
<script xlink:href="../../svgpan.js"/>
<svg id="graph" class="graph">
<g id="viewport">
<title>prolog.fluents.Queue.deq</title>
<!-- Node1 -->
<g id="node1" class="node"><title>Node1</title>
<polygon fill="#bfbfbf" stroke="black" points="0,-28 0,-47 125,-47 125,-28 0,-28"/>
<text text-anchor="middle" x="62.5" y="-35" font-family="Helvetica,sans-Serif" font-size="10.00">prolog.fluents.Queue.deq</text>
</g>
<!-- Node2 -->
<g id="node2" class="node"><title>Node2</title>
<g id="a_node2"><a xlink:href="../../d9/dc9/classprolog_1_1fluents_1_1SourceMerger_a0efcba19e4678b70041342889357e43b.html#a0efcba19e4678b70041342889357e43b" target="_top" xlink:title="prolog.fluents.SourceMerger.get\lElement">
<polygon fill="none" stroke="black" points="161,-44.5 161,-74.5 316,-74.5 316,-44.5 161,-44.5"/>
<text text-anchor="start" x="169" y="-62.5" font-family="Helvetica,sans-Serif" font-size="10.00">prolog.fluents.SourceMerger.get</text>
<text text-anchor="middle" x="238.5" y="-51.5" font-family="Helvetica,sans-Serif" font-size="10.00">Element</text>
</a>
</g>
</g>
<!-- Node1&#45;&gt;Node2 -->
<g id="edge1" class="edge"><title>Node1&#45;&gt;Node2</title>
<path fill="none" stroke="midnightblue" d="M135.471,-46.5998C143.876,-47.6625 152.475,-48.7497 160.94,-49.82"/>
<polygon fill="midnightblue" stroke="midnightblue" points="135.696,-43.1004 125.336,-45.3183 134.818,-50.0451 135.696,-43.1004"/>
</g>
<!-- Node3 -->
<g id="node3" class="node"><title>Node3</title>
<g id="a_node3"><a xlink:href="../../d2/d8d/classprolog_1_1fluents_1_1BlackBoard_a9a02fa64d8837510e94f4ef70aa25096.html#a9a02fa64d8837510e94f4ef70aa25096" target="_top" xlink:title="Removes the first Term having key k or the first enumerated key if k is null. ">
<polygon fill="none" stroke="black" points="164,-6 164,-25 313,-25 313,-6 164,-6"/>
<text text-anchor="middle" x="238.5" y="-13" font-family="Helvetica,sans-Serif" font-size="10.00">prolog.fluents.BlackBoard.pick</text>
</a>
</g>
</g>
<!-- Node1&#45;&gt;Node3 -->
<g id="edge2" class="edge"><title>Node1&#45;&gt;Node3</title>
<path fill="none" stroke="midnightblue" d="M135.438,-28.4044C144.856,-27.2136 154.517,-25.9921 163.961,-24.7981"/>
<polygon fill="midnightblue" stroke="midnightblue" points="134.818,-24.9549 125.336,-29.6817 135.696,-31.8996 134.818,-24.9549"/>
</g>
<!-- Node4 -->
<g id="node4" class="node"><title>Node4</title>
<g id="a_node4"><a xlink:href="../../d2/d8d/classprolog_1_1fluents_1_1BlackBoard_a4b49c266b7b7abbc698841281e426bfe.html#a4b49c266b7b7abbc698841281e426bfe" target="_top" xlink:title="Removes the first matching Term or Clause from the blackboard, to be used by Linda in/1 operation in ...">
<polygon fill="none" stroke="black" points="352,-6 352,-25 502,-25 502,-6 352,-6"/>
<text text-anchor="middle" x="427" y="-13" font-family="Helvetica,sans-Serif" font-size="10.00">prolog.fluents.BlackBoard.take</text>
</a>
</g>
</g>
<!-- Node3&#45;&gt;Node4 -->
<g id="edge3" class="edge"><title>Node3&#45;&gt;Node4</title>
<path fill="none" stroke="midnightblue" d="M323.44,-15.5C332.933,-15.5 342.556,-15.5 351.909,-15.5"/>
<polygon fill="midnightblue" stroke="midnightblue" points="323.21,-12.0001 313.21,-15.5 323.21,-19.0001 323.21,-12.0001"/>
</g>
<!-- Node5 -->
<g id="node5" class="node"><title>Node5</title>
<g id="a_node5"><a xlink:href="../../da/dd9/classprolog_1_1fluents_1_1DataBase_a5cc308e3a32da4266de44e52764501ca.html#a5cc308e3a32da4266de44e52764501ca" target="_top" xlink:title="Removes a matching Term from the blackboards and signals failure if no such term is found...">
<polygon fill="none" stroke="black" points="538,-6 538,-25 675,-25 675,-6 538,-6"/>
<text text-anchor="middle" x="606.5" y="-13" font-family="Helvetica,sans-Serif" font-size="10.00">prolog.fluents.DataBase.cin</text>
</a>
</g>
</g>
<!-- Node4&#45;&gt;Node5 -->
<g id="edge4" class="edge"><title>Node4&#45;&gt;Node5</title>
<path fill="none" stroke="midnightblue" d="M512.251,-15.5C520.81,-15.5 529.426,-15.5 537.778,-15.5"/>
<polygon fill="midnightblue" stroke="midnightblue" points="512.248,-12.0001 502.248,-15.5 512.247,-19.0001 512.248,-12.0001"/>
</g>
<!-- Node6 -->
<g id="node6" class="node"><title>Node6</title>
<g id="a_node6"><a xlink:href="../../d1/dd4/classprolog_1_1builtins_1_1db__remove_a5a3ab57bdfd925e9cc119d213cd23163.html#a5a3ab57bdfd925e9cc119d213cd23163" target="_top" xlink:title="prolog.builtins.db\l_remove.exec">
<polygon fill="none" stroke="black" points="711,-0.5 711,-30.5 801,-30.5 801,-0.5 711,-0.5"/>
<text text-anchor="start" x="719" y="-18.5" font-family="Helvetica,sans-Serif" font-size="10.00">prolog.builtins.db</text>
<text text-anchor="middle" x="756" y="-7.5" font-family="Helvetica,sans-Serif" font-size="10.00">_remove.exec</text>
</a>
</g>
</g>
<!-- Node5&#45;&gt;Node6 -->
<g id="edge5" class="edge"><title>Node5&#45;&gt;Node6</title>
<path fill="none" stroke="midnightblue" d="M685.453,-15.5C694.176,-15.5 702.82,-15.5 710.895,-15.5"/>
<polygon fill="midnightblue" stroke="midnightblue" points="685.206,-12.0001 675.206,-15.5 685.206,-19.0001 685.206,-12.0001"/>
</g>
</g>
</svg>
        <g id="navigator" transform="translate(0 0)" fill="#404254">
                <rect fill="#f2f5e9" fill-opacity="0.5" stroke="#606060" stroke-width=".5" x="0" y="0" width="60" height="60"/>
                <use id="zoomplus" xlink:href="#zoomPlus" x="17" y="9" onmousedown="handleZoom(evt,'in')"/>
                <use id="zoomminus" xlink:href="#zoomMin" x="42" y="9" onmousedown="handleZoom(evt,'out')"/>
                <use id="reset" xlink:href="#resetDef" x="30" y="36" onmousedown="handleReset()"/>
                <g id="arrowUp" xlink:href="#dirArrow" transform="translate(30 24)" onmousedown="handlePan(0,-1)">
                  <use xlink:href="#rim" fill="#404040">
                        <set attributeName="fill" to="#808080" begin="arrowUp.mouseover" end="arrowUp.mouseout"/>
                  </use>
                  <path fill="none" stroke="white" stroke-width="1.5" d="M0,-3.0v7 M-2.5,-0.5L0,-3.0L2.5,-0.5"/>
                </g>
                <g id="arrowRight" xlink:href="#dirArrow" transform="rotate(90) translate(36 -43)" onmousedown="handlePan(1,0)">
                  <use xlink:href="#rim" fill="#404040">
                        <set attributeName="fill" to="#808080" begin="arrowRight.mouseover" end="arrowRight.mouseout"/>
                  </use>
                  <path fill="none" stroke="white" stroke-width="1.5" d="M0,-3.0v7 M-2.5,-0.5L0,-3.0L2.5,-0.5"/>
                </g>
                <g id="arrowDown" xlink:href="#dirArrow" transform="rotate(180) translate(-30 -48)" onmousedown="handlePan(0,1)">
                  <use xlink:href="#rim" fill="#404040">
                        <set attributeName="fill" to="#808080" begin="arrowDown.mouseover" end="arrowDown.mouseout"/>
                  </use>
                  <path fill="none" stroke="white" stroke-width="1.5" d="M0,-3.0v7 M-2.5,-0.5L0,-3.0L2.5,-0.5"/>
                </g>
                <g id="arrowLeft" xlink:href="#dirArrow" transform="rotate(270) translate(-36 17)" onmousedown="handlePan(-1,0)">
                  <use xlink:href="#rim" fill="#404040">
                        <set attributeName="fill" to="#808080" begin="arrowLeft.mouseover" end="arrowLeft.mouseout"/>
                  </use>
                  <path fill="none" stroke="white" stroke-width="1.5" d="M0,-3.0v7 M-2.5,-0.5L0,-3.0L2.5,-0.5"/>
                </g>
        </g>
        <svg viewBox="0 0 15 15" width="100%" height="30px" preserveAspectRatio="xMaxYMin meet">
         <g id="arrow_out" transform="scale(0.3 0.3)">
          <a xlink:href="classprolog_1_1fluents_1_1Queue_a287302e64fec17ff6cad3f51f8c4bd12_a287302e64fec17ff6cad3f51f8c4bd12_icgraph_org.svg" target="_base">
           <rect id="button" ry="5" rx="5" y="6" x="6" height="38" width="38"
                fill="#f2f5e9" fill-opacity="0.5" stroke="#606060" stroke-width="1.0"/>
           <path id="arrow"
             d="M 11.500037,31.436501 C 11.940474,20.09759 22.043105,11.32322 32.158766,21.979434 L 37.068811,17.246167 C 37.068811,17.246167 37.088388,32 37.088388,32 L 22.160133,31.978069 C 22.160133,31.978069 26.997745,27.140456 26.997745,27.140456 C 18.528582,18.264221 13.291696,25.230495 11.500037,31.436501 z"
             style="fill:#404040;"/>
          </a>
         </g>
        </svg>
</svg>
