<?xml version="1.0" encoding="UTF-8" standalone="no"?>
<!DOCTYPE svg PUBLIC "-//W3C//DTD SVG 1.1//EN"
 "http://www.w3.org/Graphics/SVG/1.1/DTD/svg11.dtd">
<!-- Generated by graphviz version 2.38.0 (20140413.2041)
 -->
<!-- Title: prolog.fluents.Queue.toString Pages: 1 -->
<!--zoomable 174 -->
<svg id="main" version="1.1" xmlns="http://www.w3.org/2000/svg" xmlns:xlink="http://www.w3.org/1999/xlink" xml:space="preserve" onload="init(evt)">
<style type="text/css"><![CDATA[
.edge:hover path { stroke: red; }
.edge:hover polygon { stroke: red; fill: red; }
]]></style>
<script type="text/javascript"><![CDATA[
var edges = document.getElementsByTagName('g');
if (edges && edges.length) {
  for (var i=0;i<edges.length;i++) {
    if (edges[i].id.substr(0,4)=='edge') {
      edges[i].setAttribute('class','edge');
    }
  }
}
]]></script>
        <defs>
                <circle id="rim" cx="0" cy="0" r="7"/>
                <circle id="rim2" cx="0" cy="0" r="3.5"/>
                <g id="zoomPlus">
                        <use xlink:href="#rim" fill="#404040">
                                <set attributeName="fill" to="#808080" begin="zoomplus.mouseover" end="zoomplus.mouseout"/>
                        </use>
                        <path d="M-4,0h8M0,-4v8" fill="none" stroke="white" stroke-width="1.5" pointer-events="none"/>
                </g>
                <g id="zoomMin">
                        <use xlink:href="#rim" fill="#404040">
                                <set attributeName="fill" to="#808080" begin="zoomminus.mouseover" end="zoomminus.mouseout"/>
                        </use>
                        <path d="M-4,0h8" fill="none" stroke="white" stroke-width="1.5" pointer-events="none"/>
                </g>
                <g id="dirArrow">
                        <path fill="none" stroke="white" stroke-width="1.5" d="M0,-3.0v7 M-2.5,-0.5L0,-3.0L2.5,-0.5"/>
                </g>
               <g id="resetDef">
                       <use xlink:href="#rim2" fill="#404040">
                               <set attributeName="fill" to="#808080" begin="reset.mouseover" end="reset.mouseout"/>
                       </use>
               </g>
        </defs>

<script type="text/javascript">
var viewWidth = 1645;
var viewHeight = 174;
var sectionId = 'dynsection-1';
</script>
<script xlink:href="../../svgpan.js"/>
<svg id="graph" class="graph">
<g id="viewport">
<title>prolog.fluents.Queue.toString</title>
<!-- Node1 -->
<g id="node1" class="node"><title>Node1</title>
<polygon fill="#bfbfbf" stroke="black" points="0,-75.5 0,-94.5 143,-94.5 143,-75.5 0,-75.5"/>
<text text-anchor="middle" x="71.5" y="-82.5" font-family="Helvetica,sans-Serif" font-size="10.00">prolog.fluents.Queue.toString</text>
</g>
<!-- Node2 -->
<g id="node2" class="node"><title>Node2</title>
<g id="a_node2"><a xlink:href="../../de/d23/classprolog_1_1fluents_1_1Queue_a16816604313a1e73e9d8845cdd4cbf8a.html#a16816604313a1e73e9d8845cdd4cbf8a" target="_top" xlink:title="Dynamically resizes the queue. ">
<polygon fill="none" stroke="black" points="179,-75.5 179,-94.5 323,-94.5 323,-75.5 179,-75.5"/>
<text text-anchor="middle" x="251" y="-82.5" font-family="Helvetica,sans-Serif" font-size="10.00">prolog.fluents.Queue.requeue</text>
</a>
</g>
</g>
<!-- Node1&#45;&gt;Node2 -->
<g id="edge1" class="edge"><title>Node1&#45;&gt;Node2</title>
<path fill="none" stroke="midnightblue" d="M153.396,-85C161.841,-85 170.382,-85 178.71,-85"/>
<polygon fill="midnightblue" stroke="midnightblue" points="153.163,-81.5001 143.163,-85 153.163,-88.5001 153.163,-81.5001"/>
</g>
<!-- Node3 -->
<g id="node3" class="node"><title>Node3</title>
<g id="a_node3"><a xlink:href="../../de/d23/classprolog_1_1fluents_1_1Queue_a287302e64fec17ff6cad3f51f8c4bd12.html#a287302e64fec17ff6cad3f51f8c4bd12" target="_top" xlink:title="Removes the first element of the queue. ">
<polygon fill="none" stroke="black" points="359,-94.5 359,-113.5 484,-113.5 484,-94.5 359,-94.5"/>
<text text-anchor="middle" x="421.5" y="-101.5" font-family="Helvetica,sans-Serif" font-size="10.00">prolog.fluents.Queue.deq</text>
</a>
</g>
</g>
<!-- Node2&#45;&gt;Node3 -->
<g id="edge2" class="edge"><title>Node2&#45;&gt;Node3</title>
<path fill="none" stroke="midnightblue" d="M333.433,-94.1824C341.962,-95.1441 350.53,-96.1102 358.786,-97.0412"/>
<polygon fill="midnightblue" stroke="midnightblue" points="333.788,-90.7003 323.459,-93.0577 333.004,-97.6563 333.788,-90.7003"/>
</g>
<!-- Node9 -->
<g id="node9" class="node"><title>Node9</title>
<g id="a_node9"><a xlink:href="../../de/d23/classprolog_1_1fluents_1_1Queue_ac547996ff0686a0df9b16cb070bef1be.html#ac547996ff0686a0df9b16cb070bef1be" target="_top" xlink:title="Adds an element to the end of the queue. ">
<polygon fill="none" stroke="black" points="359,-53.5 359,-72.5 484,-72.5 484,-53.5 359,-53.5"/>
<text text-anchor="middle" x="421.5" y="-60.5" font-family="Helvetica,sans-Serif" font-size="10.00">prolog.fluents.Queue.enq</text>
</a>
</g>
</g>
<!-- Node2&#45;&gt;Node9 -->
<g id="edge8" class="edge"><title>Node2&#45;&gt;Node9</title>
<path fill="none" stroke="midnightblue" d="M333.433,-74.3678C341.962,-73.2542 350.53,-72.1355 358.786,-71.0576"/>
<polygon fill="midnightblue" stroke="midnightblue" points="332.922,-70.9047 323.459,-75.67 333.828,-77.8458 332.922,-70.9047"/>
</g>
<!-- Node4 -->
<g id="node4" class="node"><title>Node4</title>
<g id="a_node4"><a xlink:href="../../d9/dc9/classprolog_1_1fluents_1_1SourceMerger_a0efcba19e4678b70041342889357e43b.html#a0efcba19e4678b70041342889357e43b" target="_top" xlink:title="prolog.fluents.SourceMerger.get\lElement">
<polygon fill="none" stroke="black" points="520,-89 520,-119 675,-119 675,-89 520,-89"/>
<text text-anchor="start" x="528" y="-107" font-family="Helvetica,sans-Serif" font-size="10.00">prolog.fluents.SourceMerger.get</text>
<text text-anchor="middle" x="597.5" y="-96" font-family="Helvetica,sans-Serif" font-size="10.00">Element</text>
</a>
</g>
</g>
<!-- Node3&#45;&gt;Node4 -->
<g id="edge3" class="edge"><title>Node3&#45;&gt;Node4</title>
<path fill="none" stroke="midnightblue" d="M494.471,-104C502.876,-104 511.475,-104 519.94,-104"/>
<polygon fill="midnightblue" stroke="midnightblue" points="494.336,-100.5 484.336,-104 494.336,-107.5 494.336,-100.5"/>
</g>
<!-- Node5 -->
<g id="node5" class="node"><title>Node5</title>
<g id="a_node5"><a xlink:href="../../d2/d8d/classprolog_1_1fluents_1_1BlackBoard_a9a02fa64d8837510e94f4ef70aa25096.html#a9a02fa64d8837510e94f4ef70aa25096" target="_top" xlink:title="Removes the first Term having key k or the first enumerated key if k is null. ">
<polygon fill="none" stroke="black" points="721.5,-138.5 721.5,-157.5 870.5,-157.5 870.5,-138.5 721.5,-138.5"/>
<text text-anchor="middle" x="796" y="-145.5" font-family="Helvetica,sans-Serif" font-size="10.00">prolog.fluents.BlackBoard.pick</text>
</a>
</g>
</g>
<!-- Node3&#45;&gt;Node5 -->
<g id="edge4" class="edge"><title>Node3&#45;&gt;Node5</title>
<path fill="none" stroke="midnightblue" d="M463.58,-116.304C480.852,-121.013 501.252,-125.975 520,-129 587.679,-139.922 665.724,-144.57 721.342,-146.545"/>
<polygon fill="midnightblue" stroke="midnightblue" points="464.382,-112.894 453.809,-113.577 462.5,-119.636 464.382,-112.894"/>
</g>
<!-- Node6 -->
<g id="node6" class="node"><title>Node6</title>
<g id="a_node6"><a xlink:href="../../d2/d8d/classprolog_1_1fluents_1_1BlackBoard_a4b49c266b7b7abbc698841281e426bfe.html#a4b49c266b7b7abbc698841281e426bfe" target="_top" xlink:title="Removes the first matching Term or Clause from the blackboard, to be used by Linda in/1 operation in ...">
<polygon fill="none" stroke="black" points="917,-138.5 917,-157.5 1067,-157.5 1067,-138.5 917,-138.5"/>
<text text-anchor="middle" x="992" y="-145.5" font-family="Helvetica,sans-Serif" font-size="10.00">prolog.fluents.BlackBoard.take</text>
</a>
</g>
</g>
<!-- Node5&#45;&gt;Node6 -->
<g id="edge5" class="edge"><title>Node5&#45;&gt;Node6</title>
<path fill="none" stroke="midnightblue" d="M880.637,-148C892.66,-148 904.963,-148 916.787,-148"/>
<polygon fill="midnightblue" stroke="midnightblue" points="880.62,-144.5 870.62,-148 880.62,-151.5 880.62,-144.5"/>
</g>
<!-- Node7 -->
<g id="node7" class="node"><title>Node7</title>
<g id="a_node7"><a xlink:href="../../da/dd9/classprolog_1_1fluents_1_1DataBase_a5cc308e3a32da4266de44e52764501ca.html#a5cc308e3a32da4266de44e52764501ca" target="_top" xlink:title="Removes a matching Term from the blackboards and signals failure if no such term is found...">
<polygon fill="none" stroke="black" points="1114,-139.5 1114,-158.5 1251,-158.5 1251,-139.5 1114,-139.5"/>
<text text-anchor="middle" x="1182.5" y="-146.5" font-family="Helvetica,sans-Serif" font-size="10.00">prolog.fluents.DataBase.cin</text>
</a>
</g>
</g>
<!-- Node6&#45;&gt;Node7 -->
<g id="edge6" class="edge"><title>Node6&#45;&gt;Node7</title>
<path fill="none" stroke="midnightblue" d="M1077.39,-148.448C1089.57,-148.512 1101.98,-148.578 1113.78,-148.641"/>
<polygon fill="midnightblue" stroke="midnightblue" points="1077.25,-144.947 1067.23,-148.394 1077.21,-151.947 1077.25,-144.947"/>
</g>
<!-- Node8 -->
<g id="node8" class="node"><title>Node8</title>
<g id="a_node8"><a xlink:href="../../d1/dd4/classprolog_1_1builtins_1_1db__remove_a5a3ab57bdfd925e9cc119d213cd23163.html#a5a3ab57bdfd925e9cc119d213cd23163" target="_top" xlink:title="prolog.builtins.db\l_remove.exec">
<polygon fill="none" stroke="black" points="1327,-135 1327,-165 1417,-165 1417,-135 1327,-135"/>
<text text-anchor="start" x="1335" y="-153" font-family="Helvetica,sans-Serif" font-size="10.00">prolog.builtins.db</text>
<text text-anchor="middle" x="1372" y="-142" font-family="Helvetica,sans-Serif" font-size="10.00">_remove.exec</text>
</a>
</g>
</g>
<!-- Node7&#45;&gt;Node8 -->
<g id="edge7" class="edge"><title>Node7&#45;&gt;Node8</title>
<path fill="none" stroke="midnightblue" d="M1261.35,-149.415C1283.68,-149.534 1307.26,-149.66 1326.8,-149.764"/>
<polygon fill="midnightblue" stroke="midnightblue" points="1261.21,-145.915 1251.19,-149.361 1261.17,-152.914 1261.21,-145.915"/>
</g>
<!-- Node9&#45;&gt;Node4 -->
<g id="edge19" class="edge"><title>Node9&#45;&gt;Node4</title>
<path fill="none" stroke="midnightblue" d="M472.63,-74.8122C491.305,-79.2126 512.761,-84.2683 532.512,-88.9223"/>
<polygon fill="midnightblue" stroke="midnightblue" points="473.393,-71.3962 462.856,-72.5093 471.787,-78.2096 473.393,-71.3962"/>
</g>
<!-- Node10 -->
<g id="node10" class="node"><title>Node10</title>
<g id="a_node10"><a xlink:href="../../d2/d8d/classprolog_1_1fluents_1_1BlackBoard_aca9281fa2c70090208e6d62d28406480.html#aca9281fa2c70090208e6d62d28406480" target="_top" xlink:title="Adds a Term or Clause to the the blackboard, to be used by Linda out/1 operation. ...">
<polygon fill="none" stroke="black" points="524,-50.5 524,-69.5 671,-69.5 671,-50.5 524,-50.5"/>
<text text-anchor="middle" x="597.5" y="-57.5" font-family="Helvetica,sans-Serif" font-size="10.00">prolog.fluents.BlackBoard.add</text>
</a>
</g>
</g>
<!-- Node9&#45;&gt;Node10 -->
<g id="edge9" class="edge"><title>Node9&#45;&gt;Node10</title>
<path fill="none" stroke="midnightblue" d="M494.37,-61.7609C504.11,-61.5929 514.111,-61.4205 523.864,-61.2523"/>
<polygon fill="midnightblue" stroke="midnightblue" points="494.274,-58.2619 484.336,-61.9339 494.395,-65.2609 494.274,-58.2619"/>
</g>
<!-- Node19 -->
<g id="node19" class="node"><title>Node19</title>
<g id="a_node19"><a xlink:href="../../de/d23/classprolog_1_1fluents_1_1Queue_a1d2f34c76d3ee0eba3dc33a53aead569.html#a1d2f34c76d3ee0eba3dc33a53aead569" target="_top" xlink:title="prolog.fluents.Queue.Queue">
<polygon fill="none" stroke="black" points="528.5,-12.5 528.5,-31.5 666.5,-31.5 666.5,-12.5 528.5,-12.5"/>
<text text-anchor="middle" x="597.5" y="-19.5" font-family="Helvetica,sans-Serif" font-size="10.00">prolog.fluents.Queue.Queue</text>
</a>
</g>
</g>
<!-- Node9&#45;&gt;Node19 -->
<g id="edge20" class="edge"><title>Node9&#45;&gt;Node19</title>
<path fill="none" stroke="midnightblue" d="M472.701,-51.1709C499.17,-44.9342 531.209,-37.3847 556.061,-31.5286"/>
<polygon fill="midnightblue" stroke="midnightblue" points="471.787,-47.7904 462.856,-53.4907 473.393,-54.6038 471.787,-47.7904"/>
</g>
<!-- Node11 -->
<g id="node11" class="node"><title>Node11</title>
<g id="a_node11"><a xlink:href="../../d2/d8d/classprolog_1_1fluents_1_1BlackBoard_aac87e5ee52935ab35a1b8fd9ac463945.html#aac87e5ee52935ab35a1b8fd9ac463945" target="_top" xlink:title="prolog.fluents.BlackBoard.addBack">
<polygon fill="none" stroke="black" points="711,-94.5 711,-113.5 881,-113.5 881,-94.5 711,-94.5"/>
<text text-anchor="middle" x="796" y="-101.5" font-family="Helvetica,sans-Serif" font-size="10.00">prolog.fluents.BlackBoard.addBack</text>
</a>
</g>
</g>
<!-- Node10&#45;&gt;Node11 -->
<g id="edge10" class="edge"><title>Node10&#45;&gt;Node11</title>
<path fill="none" stroke="midnightblue" d="M651.127,-71.7841C682.847,-78.8869 722.724,-87.816 752.446,-94.4713"/>
<polygon fill="midnightblue" stroke="midnightblue" points="651.661,-68.3171 641.138,-69.5473 650.131,-75.1479 651.661,-68.3171"/>
</g>
<!-- Node12 -->
<g id="node12" class="node"><title>Node12</title>
<g id="a_node12"><a xlink:href="../../da/dd9/classprolog_1_1fluents_1_1DataBase_a51e4c70bda602ed87135ca094cd64eb2.html#a51e4c70bda602ed87135ca094cd64eb2" target="_top" xlink:title="Adds a Term to the blackboard. ">
<polygon fill="none" stroke="black" points="727,-47.5 727,-66.5 865,-66.5 865,-47.5 727,-47.5"/>
<text text-anchor="middle" x="796" y="-54.5" font-family="Helvetica,sans-Serif" font-size="10.00">prolog.fluents.DataBase.out</text>
</a>
</g>
</g>
<!-- Node10&#45;&gt;Node12 -->
<g id="edge12" class="edge"><title>Node10&#45;&gt;Node12</title>
<path fill="none" stroke="midnightblue" d="M681.497,-58.7329C696.639,-58.5017 712.276,-58.263 726.923,-58.0393"/>
<polygon fill="midnightblue" stroke="midnightblue" points="681.056,-55.2391 671.111,-58.8914 681.163,-62.2383 681.056,-55.2391"/>
</g>
<!-- Node11&#45;&gt;Node6 -->
<g id="edge11" class="edge"><title>Node11&#45;&gt;Node6</title>
<path fill="none" stroke="midnightblue" d="M848.957,-115.784C880.274,-122.887 919.643,-131.816 948.987,-138.471"/>
<polygon fill="midnightblue" stroke="midnightblue" points="849.622,-112.346 839.095,-113.547 848.073,-119.173 849.622,-112.346"/>
</g>
<!-- Node13 -->
<g id="node13" class="node"><title>Node13</title>
<g id="a_node13"><a xlink:href="../../da/dd9/classprolog_1_1fluents_1_1DataBase_a7922dc4eb05ca6cccd4c8bb38563814e.html#a7922dc4eb05ca6cccd4c8bb38563814e" target="_top" xlink:title="adds a Clause to the joint Linda and Predicate table ">
<polygon fill="none" stroke="black" points="922,-88 922,-118 1062,-118 1062,-88 922,-88"/>
<text text-anchor="start" x="930" y="-106" font-family="Helvetica,sans-Serif" font-size="10.00">prolog.fluents.DataBase.add</text>
<text text-anchor="middle" x="992" y="-95" font-family="Helvetica,sans-Serif" font-size="10.00">Clause</text>
</a>
</g>
</g>
<!-- Node12&#45;&gt;Node13 -->
<g id="edge13" class="edge"><title>Node12&#45;&gt;Node13</title>
<path fill="none" stroke="midnightblue" d="M847.02,-68.8605C871.573,-74.6823 901.42,-81.7594 927.559,-87.9573"/>
<polygon fill="midnightblue" stroke="midnightblue" points="847.735,-65.4329 837.197,-66.5312 846.12,-72.244 847.735,-65.4329"/>
</g>
<!-- Node17 -->
<g id="node17" class="node"><title>Node17</title>
<g id="a_node17"><a xlink:href="../../dc/d4a/classprolog_1_1builtins_1_1db__add_a6c55798f7122b37579a971715a7f9ab0.html#a6c55798f7122b37579a971715a7f9ab0" target="_top" xlink:title="prolog.builtins.db\l_add.exec">
<polygon fill="none" stroke="black" points="947,-39 947,-69 1037,-69 1037,-39 947,-39"/>
<text text-anchor="start" x="955" y="-57" font-family="Helvetica,sans-Serif" font-size="10.00">prolog.builtins.db</text>
<text text-anchor="middle" x="992" y="-46" font-family="Helvetica,sans-Serif" font-size="10.00">_add.exec</text>
</a>
</g>
</g>
<!-- Node12&#45;&gt;Node17 -->
<g id="edge17" class="edge"><title>Node12&#45;&gt;Node17</title>
<path fill="none" stroke="midnightblue" d="M875.414,-55.7874C899.698,-55.4119 925.596,-55.0114 946.709,-54.6849"/>
<polygon fill="midnightblue" stroke="midnightblue" points="875.069,-52.2922 865.124,-55.9465 875.177,-59.2914 875.069,-52.2922"/>
</g>
<!-- Node18 -->
<g id="node18" class="node"><title>Node18</title>
<g id="a_node18"><a xlink:href="../../da/dd9/classprolog_1_1fluents_1_1DataBase_a5f611e8962c4b5fc2fb515048d4ad9dc.html#a5f611e8962c4b5fc2fb515048d4ad9dc" target="_top" xlink:title="Adds a copy of a Term to the blackboard. ">
<polygon fill="none" stroke="black" points="923,-0.5 923,-19.5 1061,-19.5 1061,-0.5 923,-0.5"/>
<text text-anchor="middle" x="992" y="-7.5" font-family="Helvetica,sans-Serif" font-size="10.00">prolog.fluents.DataBase.out</text>
</a>
</g>
</g>
<!-- Node12&#45;&gt;Node18 -->
<g id="edge18" class="edge"><title>Node12&#45;&gt;Node18</title>
<path fill="none" stroke="midnightblue" d="M846.052,-45.1162C878.686,-37.2101 920.994,-26.9603 951.467,-19.5776"/>
<polygon fill="midnightblue" stroke="midnightblue" points="845.154,-41.7326 836.259,-47.4888 846.802,-48.5358 845.154,-41.7326"/>
</g>
<!-- Node14 -->
<g id="node14" class="node"><title>Node14</title>
<g id="a_node14"><a xlink:href="../../da/dd9/classprolog_1_1fluents_1_1DataBase_a6f8041bc2bcb5cdd8a376e81a3dc4dca.html#a6f8041bc2bcb5cdd8a376e81a3dc4dca" target="_top" xlink:title="adds a Clause to the joint Linda and Predicate table ">
<polygon fill="none" stroke="black" points="1103,-88 1103,-118 1262,-118 1262,-88 1103,-88"/>
<text text-anchor="start" x="1111" y="-106" font-family="Helvetica,sans-Serif" font-size="10.00">prolog.fluents.DataBase.process</text>
<text text-anchor="middle" x="1182.5" y="-95" font-family="Helvetica,sans-Serif" font-size="10.00">Clause</text>
</a>
</g>
</g>
<!-- Node13&#45;&gt;Node14 -->
<g id="edge14" class="edge"><title>Node13&#45;&gt;Node14</title>
<path fill="none" stroke="midnightblue" d="M1072.17,-103C1082.31,-103 1092.69,-103 1102.83,-103"/>
<polygon fill="midnightblue" stroke="midnightblue" points="1072.12,-99.5001 1062.12,-103 1072.12,-106.5 1072.12,-99.5001"/>
</g>
<!-- Node15 -->
<g id="node15" class="node"><title>Node15</title>
<g id="a_node15"><a xlink:href="../../da/dd9/classprolog_1_1fluents_1_1DataBase_a83885e10b61d6bf129307d9bf50d93de.html#a83885e10b61d6bf129307d9bf50d93de" target="_top" xlink:title="prolog.fluents.DataBase.apply\l_parser">
<polygon fill="none" stroke="black" points="1298,-86 1298,-116 1446,-116 1446,-86 1298,-86"/>
<text text-anchor="start" x="1306" y="-104" font-family="Helvetica,sans-Serif" font-size="10.00">prolog.fluents.DataBase.apply</text>
<text text-anchor="middle" x="1372" y="-93" font-family="Helvetica,sans-Serif" font-size="10.00">_parser</text>
</a>
</g>
</g>
<!-- Node14&#45;&gt;Node15 -->
<g id="edge15" class="edge"><title>Node14&#45;&gt;Node15</title>
<path fill="none" stroke="midnightblue" d="M1272.24,-102.053C1280.83,-101.962 1289.47,-101.87 1297.88,-101.78"/>
<polygon fill="midnightblue" stroke="midnightblue" points="1272.16,-98.554 1262.2,-102.161 1272.24,-105.554 1272.16,-98.554"/>
</g>
<!-- Node16 -->
<g id="node16" class="node"><title>Node16</title>
<g id="a_node16"><a xlink:href="../../da/dd9/classprolog_1_1fluents_1_1DataBase_af8b26948ded7bba6386b984f463bf166.html#af8b26948ded7bba6386b984f463bf166" target="_top" xlink:title="prolog.fluents.DataBase.stream\lToProg">
<polygon fill="none" stroke="black" points="1482,-86 1482,-116 1637,-116 1637,-86 1482,-86"/>
<text text-anchor="start" x="1490" y="-104" font-family="Helvetica,sans-Serif" font-size="10.00">prolog.fluents.DataBase.stream</text>
<text text-anchor="middle" x="1559.5" y="-93" font-family="Helvetica,sans-Serif" font-size="10.00">ToProg</text>
</a>
</g>
</g>
<!-- Node15&#45;&gt;Node16 -->
<g id="edge16" class="edge"><title>Node15&#45;&gt;Node16</title>
<path fill="none" stroke="midnightblue" d="M1456.06,-101C1464.65,-101 1473.34,-101 1481.86,-101"/>
<polygon fill="midnightblue" stroke="midnightblue" points="1456.05,-97.5001 1446.05,-101 1456.05,-104.5 1456.05,-97.5001"/>
</g>
</g>
</svg>
        <g id="navigator" transform="translate(0 0)" fill="#404254">
                <rect fill="#f2f5e9" fill-opacity="0.5" stroke="#606060" stroke-width=".5" x="0" y="0" width="60" height="60"/>
                <use id="zoomplus" xlink:href="#zoomPlus" x="17" y="9" onmousedown="handleZoom(evt,'in')"/>
                <use id="zoomminus" xlink:href="#zoomMin" x="42" y="9" onmousedown="handleZoom(evt,'out')"/>
                <use id="reset" xlink:href="#resetDef" x="30" y="36" onmousedown="handleReset()"/>
                <g id="arrowUp" xlink:href="#dirArrow" transform="translate(30 24)" onmousedown="handlePan(0,-1)">
                  <use xlink:href="#rim" fill="#404040">
                        <set attributeName="fill" to="#808080" begin="arrowUp.mouseover" end="arrowUp.mouseout"/>
                  </use>
                  <path fill="none" stroke="white" stroke-width="1.5" d="M0,-3.0v7 M-2.5,-0.5L0,-3.0L2.5,-0.5"/>
                </g>
                <g id="arrowRight" xlink:href="#dirArrow" transform="rotate(90) translate(36 -43)" onmousedown="handlePan(1,0)">
                  <use xlink:href="#rim" fill="#404040">
                        <set attributeName="fill" to="#808080" begin="arrowRight.mouseover" end="arrowRight.mouseout"/>
                  </use>
                  <path fill="none" stroke="white" stroke-width="1.5" d="M0,-3.0v7 M-2.5,-0.5L0,-3.0L2.5,-0.5"/>
                </g>
                <g id="arrowDown" xlink:href="#dirArrow" transform="rotate(180) translate(-30 -48)" onmousedown="handlePan(0,1)">
                  <use xlink:href="#rim" fill="#404040">
                        <set attributeName="fill" to="#808080" begin="arrowDown.mouseover" end="arrowDown.mouseout"/>
                  </use>
                  <path fill="none" stroke="white" stroke-width="1.5" d="M0,-3.0v7 M-2.5,-0.5L0,-3.0L2.5,-0.5"/>
                </g>
                <g id="arrowLeft" xlink:href="#dirArrow" transform="rotate(270) translate(-36 17)" onmousedown="handlePan(-1,0)">
                  <use xlink:href="#rim" fill="#404040">
                        <set attributeName="fill" to="#808080" begin="arrowLeft.mouseover" end="arrowLeft.mouseout"/>
                  </use>
                  <path fill="none" stroke="white" stroke-width="1.5" d="M0,-3.0v7 M-2.5,-0.5L0,-3.0L2.5,-0.5"/>
                </g>
        </g>
        <svg viewBox="0 0 15 15" width="100%" height="30px" preserveAspectRatio="xMaxYMin meet">
         <g id="arrow_out" transform="scale(0.3 0.3)">
          <a xlink:href="classprolog_1_1fluents_1_1Queue_af00e19e476afb783189f3ded5c1af564_af00e19e476afb783189f3ded5c1af564_icgraph_org.svg" target="_base">
           <rect id="button" ry="5" rx="5" y="6" x="6" height="38" width="38"
                fill="#f2f5e9" fill-opacity="0.5" stroke="#606060" stroke-width="1.0"/>
           <path id="arrow"
             d="M 11.500037,31.436501 C 11.940474,20.09759 22.043105,11.32322 32.158766,21.979434 L 37.068811,17.246167 C 37.068811,17.246167 37.088388,32 37.088388,32 L 22.160133,31.978069 C 22.160133,31.978069 26.997745,27.140456 26.997745,27.140456 C 18.528582,18.264221 13.291696,25.230495 11.500037,31.436501 z"
             style="fill:#404040;"/>
          </a>
         </g>
        </svg>
</svg>
