<?xml version="1.0" encoding="UTF-8" standalone="no"?>
<!DOCTYPE svg PUBLIC "-//W3C//DTD SVG 1.1//EN"
 "http://www.w3.org/Graphics/SVG/1.1/DTD/svg11.dtd">
<!-- Generated by graphviz version 2.38.0 (20140413.2041)
 -->
<!-- Title: prolog.fluents.Queue.Queue Pages: 1 -->
<svg width="1151pt" height="256pt"
 viewBox="0.00 0.00 1151.00 256.00" xmlns="http://www.w3.org/2000/svg" xmlns:xlink="http://www.w3.org/1999/xlink">
<g id="graph0" class="graph" transform="scale(1 1) rotate(0) translate(4 252)">
<title>prolog.fluents.Queue.Queue</title>
<!-- Node1 -->
<g id="node1" class="node"><title>Node1</title>
<polygon fill="#bfbfbf" stroke="black" points="0,-114.5 0,-133.5 138,-133.5 138,-114.5 0,-114.5"/>
<text text-anchor="middle" x="69" y="-121.5" font-family="Helvetica,sans-Serif" font-size="10.00">prolog.fluents.Queue.Queue</text>
</g>
<!-- Node2 -->
<g id="node2" class="node"><title>Node2</title>
<g id="a_node2"><a xlink:href="../../de/d23/classprolog_1_1fluents_1_1Queue_ac547996ff0686a0df9b16cb070bef1be.html#ac547996ff0686a0df9b16cb070bef1be" target="_top" xlink:title="Adds an element to the end of the queue. ">
<polygon fill="none" stroke="black" points="174,-114.5 174,-133.5 299,-133.5 299,-114.5 174,-114.5"/>
<text text-anchor="middle" x="236.5" y="-121.5" font-family="Helvetica,sans-Serif" font-size="10.00">prolog.fluents.Queue.enq</text>
</a>
</g>
</g>
<!-- Node1&#45;&gt;Node2 -->
<g id="edge1" class="edge"><title>Node1&#45;&gt;Node2</title>
<path fill="none" stroke="midnightblue" d="M138.271,-124C146.627,-124 155.186,-124 163.593,-124"/>
<polygon fill="midnightblue" stroke="midnightblue" points="163.749,-127.5 173.749,-124 163.749,-120.5 163.749,-127.5"/>
</g>
<!-- Node3 -->
<g id="node3" class="node"><title>Node3</title>
<g id="a_node3"><a xlink:href="../../d4/dc2/classprolog_1_1io_1_1IO_ab6e0553457312c4804472cbe1c646a28.html#ab6e0553457312c4804472cbe1c646a28" target="_top" xlink:title="prolog.io.IO.errmes">
<polygon fill="none" stroke="black" points="536.5,-190.5 536.5,-209.5 636.5,-209.5 636.5,-190.5 536.5,-190.5"/>
<text text-anchor="middle" x="586.5" y="-197.5" font-family="Helvetica,sans-Serif" font-size="10.00">prolog.io.IO.errmes</text>
</a>
</g>
</g>
<!-- Node2&#45;&gt;Node3 -->
<g id="edge2" class="edge"><title>Node2&#45;&gt;Node3</title>
<path fill="none" stroke="midnightblue" d="M281.222,-133.548C344.991,-147.475 463.382,-173.331 532.179,-188.355"/>
<polygon fill="midnightblue" stroke="midnightblue" points="531.44,-191.776 541.957,-190.491 532.934,-184.937 531.44,-191.776"/>
</g>
<!-- Node8 -->
<g id="node8" class="node"><title>Node8</title>
<g id="a_node8"><a xlink:href="../../de/d23/classprolog_1_1fluents_1_1Queue_a3d1135124c700679bbd665d253dd9f0f.html#a3d1135124c700679bbd665d253dd9f0f" target="_top" xlink:title="prolog.fluents.Queue.inc">
<polygon fill="none" stroke="black" points="876,-76.5 876,-95.5 998,-95.5 998,-76.5 876,-76.5"/>
<text text-anchor="middle" x="937" y="-83.5" font-family="Helvetica,sans-Serif" font-size="10.00">prolog.fluents.Queue.inc</text>
</a>
</g>
</g>
<!-- Node2&#45;&gt;Node8 -->
<g id="edge7" class="edge"><title>Node2&#45;&gt;Node8</title>
<path fill="none" stroke="midnightblue" d="M299.222,-123.677C408.48,-122.628 642.99,-118.238 840,-100 848.929,-99.1734 858.297,-98.085 867.534,-96.8795"/>
<polygon fill="midnightblue" stroke="midnightblue" points="868.04,-100.343 877.48,-95.5324 867.1,-93.4064 868.04,-100.343"/>
</g>
<!-- Node9 -->
<g id="node9" class="node"><title>Node9</title>
<g id="a_node9"><a xlink:href="../../de/d23/classprolog_1_1fluents_1_1Queue_a16816604313a1e73e9d8845cdd4cbf8a.html#a16816604313a1e73e9d8845cdd4cbf8a" target="_top" xlink:title="Dynamically resizes the queue. ">
<polygon fill="none" stroke="black" points="335,-76.5 335,-95.5 479,-95.5 479,-76.5 335,-76.5"/>
<text text-anchor="middle" x="407" y="-83.5" font-family="Helvetica,sans-Serif" font-size="10.00">prolog.fluents.Queue.requeue</text>
</a>
</g>
</g>
<!-- Node2&#45;&gt;Node9 -->
<g id="edge8" class="edge"><title>Node2&#45;&gt;Node9</title>
<path fill="none" stroke="midnightblue" d="M280.02,-114.411C302.455,-109.351 330.173,-103.1 353.893,-97.7512"/>
<polygon fill="midnightblue" stroke="midnightblue" points="354.801,-101.134 363.786,-95.5201 353.261,-94.3058 354.801,-101.134"/>
</g>
<!-- Node4 -->
<g id="node4" class="node"><title>Node4</title>
<g id="a_node4"><a xlink:href="../../d4/dc2/classprolog_1_1io_1_1IO_ad851906c6ebd6559eb1b1fa52e26dabb.html#ad851906c6ebd6559eb1b1fa52e26dabb" target="_top" xlink:title="prolog.io.IO.println">
<polygon fill="none" stroke="black" points="719,-190.5 719,-209.5 815,-209.5 815,-190.5 719,-190.5"/>
<text text-anchor="middle" x="767" y="-197.5" font-family="Helvetica,sans-Serif" font-size="10.00">prolog.io.IO.println</text>
</a>
</g>
</g>
<!-- Node3&#45;&gt;Node4 -->
<g id="edge3" class="edge"><title>Node3&#45;&gt;Node4</title>
<path fill="none" stroke="midnightblue" d="M636.748,-200C659.041,-200 685.533,-200 708.71,-200"/>
<polygon fill="midnightblue" stroke="midnightblue" points="708.758,-203.5 718.758,-200 708.758,-196.5 708.758,-203.5"/>
</g>
<!-- Node7 -->
<g id="node7" class="node"><title>Node7</title>
<g id="a_node7"><a xlink:href="../../d4/dc2/classprolog_1_1io_1_1IO_a22a9a2bfe9fa6e00257369f5bf078a44.html#a22a9a2bfe9fa6e00257369f5bf078a44" target="_top" xlink:title="prolog.io.IO.getStdOutput">
<polygon fill="none" stroke="black" points="703,-228.5 703,-247.5 831,-247.5 831,-228.5 703,-228.5"/>
<text text-anchor="middle" x="767" y="-235.5" font-family="Helvetica,sans-Serif" font-size="10.00">prolog.io.IO.getStdOutput</text>
</a>
</g>
</g>
<!-- Node3&#45;&gt;Node7 -->
<g id="edge6" class="edge"><title>Node3&#45;&gt;Node7</title>
<path fill="none" stroke="midnightblue" d="M632.543,-209.589C656.523,-214.694 686.198,-221.011 711.472,-226.392"/>
<polygon fill="midnightblue" stroke="midnightblue" points="710.771,-229.821 721.281,-228.48 712.229,-222.974 710.771,-229.821"/>
</g>
<!-- Node5 -->
<g id="node5" class="node"><title>Node5</title>
<g id="a_node5"><a xlink:href="../../d4/dc2/classprolog_1_1io_1_1IO_aab64872af087c6cd9c5dd13e9f4eda00.html#aab64872af087c6cd9c5dd13e9f4eda00" target="_top" xlink:title="prolog.io.IO.print">
<polygon fill="none" stroke="black" points="892.5,-190.5 892.5,-209.5 981.5,-209.5 981.5,-190.5 892.5,-190.5"/>
<text text-anchor="middle" x="937" y="-197.5" font-family="Helvetica,sans-Serif" font-size="10.00">prolog.io.IO.print</text>
</a>
</g>
</g>
<!-- Node4&#45;&gt;Node5 -->
<g id="edge4" class="edge"><title>Node4&#45;&gt;Node5</title>
<path fill="none" stroke="midnightblue" d="M815.244,-200C836.012,-200 860.513,-200 881.999,-200"/>
<polygon fill="midnightblue" stroke="midnightblue" points="882.275,-203.5 892.275,-200 882.275,-196.5 882.275,-203.5"/>
</g>
<!-- Node6 -->
<g id="node6" class="node"><title>Node6</title>
<g id="a_node6"><a xlink:href="../../d6/d92/interfaceprolog_1_1io_1_1IOPeer_abc1f90b85b358011e2595069d38ac25f.html#abc1f90b85b358011e2595069d38ac25f" target="_top" xlink:title="prolog.io.IOPeer.print">
<polygon fill="none" stroke="black" points="1034,-190.5 1034,-209.5 1143,-209.5 1143,-190.5 1034,-190.5"/>
<text text-anchor="middle" x="1088.5" y="-197.5" font-family="Helvetica,sans-Serif" font-size="10.00">prolog.io.IOPeer.print</text>
</a>
</g>
</g>
<!-- Node5&#45;&gt;Node6 -->
<g id="edge5" class="edge"><title>Node5&#45;&gt;Node6</title>
<path fill="none" stroke="midnightblue" d="M981.643,-200C994.82,-200 1009.57,-200 1023.77,-200"/>
<polygon fill="midnightblue" stroke="midnightblue" points="1023.99,-203.5 1033.99,-200 1023.99,-196.5 1023.99,-203.5"/>
</g>
<!-- Node9&#45;&gt;Node8 -->
<g id="edge10" class="edge"><title>Node9&#45;&gt;Node8</title>
<path fill="none" stroke="midnightblue" d="M479.208,-86C580.445,-86 764.847,-86 865.624,-86"/>
<polygon fill="midnightblue" stroke="midnightblue" points="865.705,-89.5001 875.705,-86 865.705,-82.5001 865.705,-89.5001"/>
</g>
<!-- Node10 -->
<g id="node10" class="node"><title>Node10</title>
<g id="a_node10"><a xlink:href="../../de/d23/classprolog_1_1fluents_1_1Queue_a897146b8e89a4532bbd63061d1a87144.html#a897146b8e89a4532bbd63061d1a87144" target="_top" xlink:title="prolog.fluents.Queue.count">
<polygon fill="none" stroke="black" points="700,-38.5 700,-57.5 834,-57.5 834,-38.5 700,-38.5"/>
<text text-anchor="middle" x="767" y="-45.5" font-family="Helvetica,sans-Serif" font-size="10.00">prolog.fluents.Queue.count</text>
</a>
</g>
</g>
<!-- Node9&#45;&gt;Node10 -->
<g id="edge9" class="edge"><title>Node9&#45;&gt;Node10</title>
<path fill="none" stroke="midnightblue" d="M477.889,-76.5C490.244,-74.9221 502.993,-73.3592 515,-72 573.599,-65.3669 640.034,-59.0687 689.829,-54.5898"/>
<polygon fill="midnightblue" stroke="midnightblue" points="690.227,-58.0682 699.876,-53.6905 689.603,-51.096 690.227,-58.0682"/>
</g>
<!-- Node11 -->
<g id="node11" class="node"><title>Node11</title>
<g id="a_node11"><a xlink:href="../../de/d23/classprolog_1_1fluents_1_1Queue_af00e19e476afb783189f3ded5c1af564.html#af00e19e476afb783189f3ded5c1af564" target="_top" xlink:title="prolog.fluents.Queue.toString">
<polygon fill="none" stroke="black" points="515,-0.5 515,-19.5 658,-19.5 658,-0.5 515,-0.5"/>
<text text-anchor="middle" x="586.5" y="-7.5" font-family="Helvetica,sans-Serif" font-size="10.00">prolog.fluents.Queue.toString</text>
</a>
</g>
</g>
<!-- Node9&#45;&gt;Node11 -->
<g id="edge11" class="edge"><title>Node9&#45;&gt;Node11</title>
<path fill="none" stroke="midnightblue" d="M425.863,-76.47C446.857,-65.4694 482.91,-47.1998 515,-34 524.596,-30.0529 535.103,-26.222 545.008,-22.8224"/>
<polygon fill="midnightblue" stroke="midnightblue" points="546.293,-26.083 554.656,-19.5781 544.062,-19.4481 546.293,-26.083"/>
</g>
<!-- Node13 -->
<g id="node13" class="node"><title>Node13</title>
<g id="a_node13"><a xlink:href="../../d4/dc2/classprolog_1_1io_1_1IO_aaa553b2e5bb8b5de129d38fe67293316.html#aaa553b2e5bb8b5de129d38fe67293316" target="_top" xlink:title="prolog.io.IO.trace">
<polygon fill="none" stroke="black" points="540.5,-152.5 540.5,-171.5 632.5,-171.5 632.5,-152.5 540.5,-152.5"/>
<text text-anchor="middle" x="586.5" y="-159.5" font-family="Helvetica,sans-Serif" font-size="10.00">prolog.io.IO.trace</text>
</a>
</g>
</g>
<!-- Node9&#45;&gt;Node13 -->
<g id="edge15" class="edge"><title>Node9&#45;&gt;Node13</title>
<path fill="none" stroke="midnightblue" d="M430.48,-95.6255C461.689,-108.988 518.299,-133.227 553.79,-148.423"/>
<polygon fill="midnightblue" stroke="midnightblue" points="552.632,-151.734 563.202,-152.453 555.387,-145.299 552.632,-151.734"/>
</g>
<!-- Node11&#45;&gt;Node10 -->
<g id="edge12" class="edge"><title>Node11&#45;&gt;Node10</title>
<path fill="none" stroke="midnightblue" d="M632.543,-19.589C656.523,-24.6939 686.198,-31.0113 711.472,-36.3918"/>
<polygon fill="midnightblue" stroke="midnightblue" points="710.771,-39.821 721.281,-38.4799 712.229,-32.9744 710.771,-39.821"/>
</g>
<!-- Node12 -->
<g id="node12" class="node"><title>Node12</title>
<g id="a_node12"><a xlink:href="../../de/d23/classprolog_1_1fluents_1_1Queue_adca2003759e9be115f6006eee370209a.html#adca2003759e9be115f6006eee370209a" target="_top" xlink:title="prolog.fluents.Queue.toVector">
<polygon fill="none" stroke="black" points="694,-0.5 694,-19.5 840,-19.5 840,-0.5 694,-0.5"/>
<text text-anchor="middle" x="767" y="-7.5" font-family="Helvetica,sans-Serif" font-size="10.00">prolog.fluents.Queue.toVector</text>
</a>
</g>
</g>
<!-- Node11&#45;&gt;Node12 -->
<g id="edge13" class="edge"><title>Node11&#45;&gt;Node12</title>
<path fill="none" stroke="midnightblue" d="M658.048,-10C666.523,-10 675.234,-10 683.855,-10"/>
<polygon fill="midnightblue" stroke="midnightblue" points="683.916,-13.5001 693.916,-10 683.916,-6.5001 683.916,-13.5001"/>
</g>
<!-- Node12&#45;&gt;Node8 -->
<g id="edge14" class="edge"><title>Node12&#45;&gt;Node8</title>
<path fill="none" stroke="midnightblue" d="M812.052,-19.5475C821.439,-22.1541 831.177,-25.3018 840,-29 866.884,-40.2687 895.312,-57.9689 914.192,-70.6552"/>
<polygon fill="midnightblue" stroke="midnightblue" points="912.414,-73.6788 922.645,-76.43 916.362,-67.8989 912.414,-73.6788"/>
</g>
<!-- Node13&#45;&gt;Node4 -->
<g id="edge16" class="edge"><title>Node13&#45;&gt;Node4</title>
<path fill="none" stroke="midnightblue" d="M632.543,-171.589C656.523,-176.694 686.198,-183.011 711.472,-188.392"/>
<polygon fill="midnightblue" stroke="midnightblue" points="710.771,-191.821 721.281,-190.48 712.229,-184.974 710.771,-191.821"/>
</g>
<!-- Node13&#45;&gt;Node7 -->
<g id="edge17" class="edge"><title>Node13&#45;&gt;Node7</title>
<path fill="none" stroke="midnightblue" d="M632.63,-170.203C641.406,-172.875 650.27,-176.389 658,-181 677.98,-192.918 673.989,-207.135 694,-219 697.69,-221.188 701.634,-223.128 705.703,-224.848"/>
<polygon fill="midnightblue" stroke="midnightblue" points="704.774,-228.237 715.366,-228.473 707.233,-221.684 704.774,-228.237"/>
</g>
<!-- Node14 -->
<g id="node14" class="node"><title>Node14</title>
<g id="a_node14"><a xlink:href="../../d6/d92/interfaceprolog_1_1io_1_1IOPeer_a780dd51c62dba4c266286171101b2cee.html#a780dd51c62dba4c266286171101b2cee" target="_top" xlink:title="prolog.io.IOPeer.traceln">
<polygon fill="none" stroke="black" points="707.5,-152.5 707.5,-171.5 826.5,-171.5 826.5,-152.5 707.5,-152.5"/>
<text text-anchor="middle" x="767" y="-159.5" font-family="Helvetica,sans-Serif" font-size="10.00">prolog.io.IOPeer.traceln</text>
</a>
</g>
</g>
<!-- Node13&#45;&gt;Node14 -->
<g id="edge18" class="edge"><title>Node13&#45;&gt;Node14</title>
<path fill="none" stroke="midnightblue" d="M632.543,-162C652.158,-162 675.584,-162 697.296,-162"/>
<polygon fill="midnightblue" stroke="midnightblue" points="697.46,-165.5 707.46,-162 697.46,-158.5 697.46,-165.5"/>
</g>
</g>
</svg>
