<?xml version="1.0" encoding="UTF-8" standalone="no"?>
<!DOCTYPE svg PUBLIC "-//W3C//DTD SVG 1.1//EN"
 "http://www.w3.org/Graphics/SVG/1.1/DTD/svg11.dtd">
<!-- Generated by graphviz version 2.38.0 (20140413.2041)
 -->
<!-- Title: prolog.fluents.Queue.enq Pages: 1 -->
<!--zoomable 256 -->
<svg id="main" version="1.1" xmlns="http://www.w3.org/2000/svg" xmlns:xlink="http://www.w3.org/1999/xlink" xml:space="preserve" onload="init(evt)">
<style type="text/css"><![CDATA[
.edge:hover path { stroke: red; }
.edge:hover polygon { stroke: red; fill: red; }
]]></style>
<script type="text/javascript"><![CDATA[
var edges = document.getElementsByTagName('g');
if (edges && edges.length) {
  for (var i=0;i<edges.length;i++) {
    if (edges[i].id.substr(0,4)=='edge') {
      edges[i].setAttribute('class','edge');
    }
  }
}
]]></script>
        <defs>
                <circle id="rim" cx="0" cy="0" r="7"/>
                <circle id="rim2" cx="0" cy="0" r="3.5"/>
                <g id="zoomPlus">
                        <use xlink:href="#rim" fill="#404040">
                                <set attributeName="fill" to="#808080" begin="zoomplus.mouseover" end="zoomplus.mouseout"/>
                        </use>
                        <path d="M-4,0h8M0,-4v8" fill="none" stroke="white" stroke-width="1.5" pointer-events="none"/>
                </g>
                <g id="zoomMin">
                        <use xlink:href="#rim" fill="#404040">
                                <set attributeName="fill" to="#808080" begin="zoomminus.mouseover" end="zoomminus.mouseout"/>
                        </use>
                        <path d="M-4,0h8" fill="none" stroke="white" stroke-width="1.5" pointer-events="none"/>
                </g>
                <g id="dirArrow">
                        <path fill="none" stroke="white" stroke-width="1.5" d="M0,-3.0v7 M-2.5,-0.5L0,-3.0L2.5,-0.5"/>
                </g>
               <g id="resetDef">
                       <use xlink:href="#rim2" fill="#404040">
                               <set attributeName="fill" to="#808080" begin="reset.mouseover" end="reset.mouseout"/>
                       </use>
               </g>
        </defs>

<script type="text/javascript">
var viewWidth = 977;
var viewHeight = 256;
var sectionId = 'dynsection-0';
</script>
<script xlink:href="../../svgpan.js"/>
<svg id="graph" class="graph">
<g id="viewport">
<title>prolog.fluents.Queue.enq</title>
<!-- Node1 -->
<g id="node1" class="node"><title>Node1</title>
<polygon fill="#bfbfbf" stroke="black" points="0,-114.5 0,-133.5 125,-133.5 125,-114.5 0,-114.5"/>
<text text-anchor="middle" x="62.5" y="-121.5" font-family="Helvetica,sans-Serif" font-size="10.00">prolog.fluents.Queue.enq</text>
</g>
<!-- Node2 -->
<g id="node2" class="node"><title>Node2</title>
<g id="a_node2"><a xlink:href="../../d4/dc2/classprolog_1_1io_1_1IO_ab6e0553457312c4804472cbe1c646a28.html#ab6e0553457312c4804472cbe1c646a28" target="_top" xlink:title="prolog.io.IO.errmes">
<polygon fill="none" stroke="black" points="362.5,-190.5 362.5,-209.5 462.5,-209.5 462.5,-190.5 362.5,-190.5"/>
<text text-anchor="middle" x="412.5" y="-197.5" font-family="Helvetica,sans-Serif" font-size="10.00">prolog.io.IO.errmes</text>
</a>
</g>
</g>
<!-- Node1&#45;&gt;Node2 -->
<g id="edge1" class="edge"><title>Node1&#45;&gt;Node2</title>
<path fill="none" stroke="midnightblue" d="M107.222,-133.548C170.991,-147.475 289.382,-173.331 358.179,-188.355"/>
<polygon fill="midnightblue" stroke="midnightblue" points="357.44,-191.776 367.957,-190.491 358.934,-184.937 357.44,-191.776"/>
</g>
<!-- Node7 -->
<g id="node7" class="node"><title>Node7</title>
<g id="a_node7"><a xlink:href="../../de/d23/classprolog_1_1fluents_1_1Queue_a3d1135124c700679bbd665d253dd9f0f.html#a3d1135124c700679bbd665d253dd9f0f" target="_top" xlink:title="prolog.fluents.Queue.inc">
<polygon fill="none" stroke="black" points="702,-76.5 702,-95.5 824,-95.5 824,-76.5 702,-76.5"/>
<text text-anchor="middle" x="763" y="-83.5" font-family="Helvetica,sans-Serif" font-size="10.00">prolog.fluents.Queue.inc</text>
</a>
</g>
</g>
<!-- Node1&#45;&gt;Node7 -->
<g id="edge6" class="edge"><title>Node1&#45;&gt;Node7</title>
<path fill="none" stroke="midnightblue" d="M125.222,-123.677C234.48,-122.628 468.99,-118.238 666,-100 674.929,-99.1734 684.297,-98.085 693.534,-96.8795"/>
<polygon fill="midnightblue" stroke="midnightblue" points="694.04,-100.343 703.48,-95.5324 693.1,-93.4064 694.04,-100.343"/>
</g>
<!-- Node8 -->
<g id="node8" class="node"><title>Node8</title>
<g id="a_node8"><a xlink:href="../../de/d23/classprolog_1_1fluents_1_1Queue_a16816604313a1e73e9d8845cdd4cbf8a.html#a16816604313a1e73e9d8845cdd4cbf8a" target="_top" xlink:title="Dynamically resizes the queue. ">
<polygon fill="none" stroke="black" points="161,-76.5 161,-95.5 305,-95.5 305,-76.5 161,-76.5"/>
<text text-anchor="middle" x="233" y="-83.5" font-family="Helvetica,sans-Serif" font-size="10.00">prolog.fluents.Queue.requeue</text>
</a>
</g>
</g>
<!-- Node1&#45;&gt;Node8 -->
<g id="edge7" class="edge"><title>Node1&#45;&gt;Node8</title>
<path fill="none" stroke="midnightblue" d="M106.02,-114.411C128.455,-109.351 156.173,-103.1 179.893,-97.7512"/>
<polygon fill="midnightblue" stroke="midnightblue" points="180.801,-101.134 189.786,-95.5201 179.261,-94.3058 180.801,-101.134"/>
</g>
<!-- Node3 -->
<g id="node3" class="node"><title>Node3</title>
<g id="a_node3"><a xlink:href="../../d4/dc2/classprolog_1_1io_1_1IO_ad851906c6ebd6559eb1b1fa52e26dabb.html#ad851906c6ebd6559eb1b1fa52e26dabb" target="_top" xlink:title="prolog.io.IO.println">
<polygon fill="none" stroke="black" points="545,-190.5 545,-209.5 641,-209.5 641,-190.5 545,-190.5"/>
<text text-anchor="middle" x="593" y="-197.5" font-family="Helvetica,sans-Serif" font-size="10.00">prolog.io.IO.println</text>
</a>
</g>
</g>
<!-- Node2&#45;&gt;Node3 -->
<g id="edge2" class="edge"><title>Node2&#45;&gt;Node3</title>
<path fill="none" stroke="midnightblue" d="M462.748,-200C485.041,-200 511.533,-200 534.71,-200"/>
<polygon fill="midnightblue" stroke="midnightblue" points="534.758,-203.5 544.758,-200 534.758,-196.5 534.758,-203.5"/>
</g>
<!-- Node6 -->
<g id="node6" class="node"><title>Node6</title>
<g id="a_node6"><a xlink:href="../../d4/dc2/classprolog_1_1io_1_1IO_a22a9a2bfe9fa6e00257369f5bf078a44.html#a22a9a2bfe9fa6e00257369f5bf078a44" target="_top" xlink:title="prolog.io.IO.getStdOutput">
<polygon fill="none" stroke="black" points="529,-228.5 529,-247.5 657,-247.5 657,-228.5 529,-228.5"/>
<text text-anchor="middle" x="593" y="-235.5" font-family="Helvetica,sans-Serif" font-size="10.00">prolog.io.IO.getStdOutput</text>
</a>
</g>
</g>
<!-- Node2&#45;&gt;Node6 -->
<g id="edge5" class="edge"><title>Node2&#45;&gt;Node6</title>
<path fill="none" stroke="midnightblue" d="M458.543,-209.589C482.523,-214.694 512.198,-221.011 537.472,-226.392"/>
<polygon fill="midnightblue" stroke="midnightblue" points="536.771,-229.821 547.281,-228.48 538.229,-222.974 536.771,-229.821"/>
</g>
<!-- Node4 -->
<g id="node4" class="node"><title>Node4</title>
<g id="a_node4"><a xlink:href="../../d4/dc2/classprolog_1_1io_1_1IO_aab64872af087c6cd9c5dd13e9f4eda00.html#aab64872af087c6cd9c5dd13e9f4eda00" target="_top" xlink:title="prolog.io.IO.print">
<polygon fill="none" stroke="black" points="718.5,-190.5 718.5,-209.5 807.5,-209.5 807.5,-190.5 718.5,-190.5"/>
<text text-anchor="middle" x="763" y="-197.5" font-family="Helvetica,sans-Serif" font-size="10.00">prolog.io.IO.print</text>
</a>
</g>
</g>
<!-- Node3&#45;&gt;Node4 -->
<g id="edge3" class="edge"><title>Node3&#45;&gt;Node4</title>
<path fill="none" stroke="midnightblue" d="M641.244,-200C662.012,-200 686.513,-200 707.999,-200"/>
<polygon fill="midnightblue" stroke="midnightblue" points="708.275,-203.5 718.275,-200 708.275,-196.5 708.275,-203.5"/>
</g>
<!-- Node5 -->
<g id="node5" class="node"><title>Node5</title>
<g id="a_node5"><a xlink:href="../../d6/d92/interfaceprolog_1_1io_1_1IOPeer_abc1f90b85b358011e2595069d38ac25f.html#abc1f90b85b358011e2595069d38ac25f" target="_top" xlink:title="prolog.io.IOPeer.print">
<polygon fill="none" stroke="black" points="860,-190.5 860,-209.5 969,-209.5 969,-190.5 860,-190.5"/>
<text text-anchor="middle" x="914.5" y="-197.5" font-family="Helvetica,sans-Serif" font-size="10.00">prolog.io.IOPeer.print</text>
</a>
</g>
</g>
<!-- Node4&#45;&gt;Node5 -->
<g id="edge4" class="edge"><title>Node4&#45;&gt;Node5</title>
<path fill="none" stroke="midnightblue" d="M807.643,-200C820.82,-200 835.567,-200 849.771,-200"/>
<polygon fill="midnightblue" stroke="midnightblue" points="849.987,-203.5 859.987,-200 849.987,-196.5 849.987,-203.5"/>
</g>
<!-- Node8&#45;&gt;Node7 -->
<g id="edge9" class="edge"><title>Node8&#45;&gt;Node7</title>
<path fill="none" stroke="midnightblue" d="M305.208,-86C406.445,-86 590.847,-86 691.624,-86"/>
<polygon fill="midnightblue" stroke="midnightblue" points="691.705,-89.5001 701.705,-86 691.705,-82.5001 691.705,-89.5001"/>
</g>
<!-- Node9 -->
<g id="node9" class="node"><title>Node9</title>
<g id="a_node9"><a xlink:href="../../de/d23/classprolog_1_1fluents_1_1Queue_a897146b8e89a4532bbd63061d1a87144.html#a897146b8e89a4532bbd63061d1a87144" target="_top" xlink:title="prolog.fluents.Queue.count">
<polygon fill="none" stroke="black" points="526,-38.5 526,-57.5 660,-57.5 660,-38.5 526,-38.5"/>
<text text-anchor="middle" x="593" y="-45.5" font-family="Helvetica,sans-Serif" font-size="10.00">prolog.fluents.Queue.count</text>
</a>
</g>
</g>
<!-- Node8&#45;&gt;Node9 -->
<g id="edge8" class="edge"><title>Node8&#45;&gt;Node9</title>
<path fill="none" stroke="midnightblue" d="M303.889,-76.5C316.244,-74.9221 328.993,-73.3592 341,-72 399.599,-65.3669 466.034,-59.0687 515.829,-54.5898"/>
<polygon fill="midnightblue" stroke="midnightblue" points="516.227,-58.0682 525.876,-53.6905 515.603,-51.096 516.227,-58.0682"/>
</g>
<!-- Node10 -->
<g id="node10" class="node"><title>Node10</title>
<g id="a_node10"><a xlink:href="../../de/d23/classprolog_1_1fluents_1_1Queue_af00e19e476afb783189f3ded5c1af564.html#af00e19e476afb783189f3ded5c1af564" target="_top" xlink:title="prolog.fluents.Queue.toString">
<polygon fill="none" stroke="black" points="341,-0.5 341,-19.5 484,-19.5 484,-0.5 341,-0.5"/>
<text text-anchor="middle" x="412.5" y="-7.5" font-family="Helvetica,sans-Serif" font-size="10.00">prolog.fluents.Queue.toString</text>
</a>
</g>
</g>
<!-- Node8&#45;&gt;Node10 -->
<g id="edge10" class="edge"><title>Node8&#45;&gt;Node10</title>
<path fill="none" stroke="midnightblue" d="M251.863,-76.47C272.857,-65.4694 308.91,-47.1998 341,-34 350.596,-30.0529 361.103,-26.222 371.008,-22.8224"/>
<polygon fill="midnightblue" stroke="midnightblue" points="372.293,-26.083 380.656,-19.5781 370.062,-19.4481 372.293,-26.083"/>
</g>
<!-- Node12 -->
<g id="node12" class="node"><title>Node12</title>
<g id="a_node12"><a xlink:href="../../d4/dc2/classprolog_1_1io_1_1IO_aaa553b2e5bb8b5de129d38fe67293316.html#aaa553b2e5bb8b5de129d38fe67293316" target="_top" xlink:title="prolog.io.IO.trace">
<polygon fill="none" stroke="black" points="366.5,-152.5 366.5,-171.5 458.5,-171.5 458.5,-152.5 366.5,-152.5"/>
<text text-anchor="middle" x="412.5" y="-159.5" font-family="Helvetica,sans-Serif" font-size="10.00">prolog.io.IO.trace</text>
</a>
</g>
</g>
<!-- Node8&#45;&gt;Node12 -->
<g id="edge14" class="edge"><title>Node8&#45;&gt;Node12</title>
<path fill="none" stroke="midnightblue" d="M256.48,-95.6255C287.689,-108.988 344.299,-133.227 379.79,-148.423"/>
<polygon fill="midnightblue" stroke="midnightblue" points="378.632,-151.734 389.202,-152.453 381.387,-145.299 378.632,-151.734"/>
</g>
<!-- Node10&#45;&gt;Node9 -->
<g id="edge11" class="edge"><title>Node10&#45;&gt;Node9</title>
<path fill="none" stroke="midnightblue" d="M458.543,-19.589C482.523,-24.6939 512.198,-31.0113 537.472,-36.3918"/>
<polygon fill="midnightblue" stroke="midnightblue" points="536.771,-39.821 547.281,-38.4799 538.229,-32.9744 536.771,-39.821"/>
</g>
<!-- Node11 -->
<g id="node11" class="node"><title>Node11</title>
<g id="a_node11"><a xlink:href="../../de/d23/classprolog_1_1fluents_1_1Queue_adca2003759e9be115f6006eee370209a.html#adca2003759e9be115f6006eee370209a" target="_top" xlink:title="prolog.fluents.Queue.toVector">
<polygon fill="none" stroke="black" points="520,-0.5 520,-19.5 666,-19.5 666,-0.5 520,-0.5"/>
<text text-anchor="middle" x="593" y="-7.5" font-family="Helvetica,sans-Serif" font-size="10.00">prolog.fluents.Queue.toVector</text>
</a>
</g>
</g>
<!-- Node10&#45;&gt;Node11 -->
<g id="edge12" class="edge"><title>Node10&#45;&gt;Node11</title>
<path fill="none" stroke="midnightblue" d="M484.048,-10C492.523,-10 501.234,-10 509.855,-10"/>
<polygon fill="midnightblue" stroke="midnightblue" points="509.916,-13.5001 519.916,-10 509.916,-6.5001 509.916,-13.5001"/>
</g>
<!-- Node11&#45;&gt;Node7 -->
<g id="edge13" class="edge"><title>Node11&#45;&gt;Node7</title>
<path fill="none" stroke="midnightblue" d="M638.052,-19.5475C647.439,-22.1541 657.177,-25.3018 666,-29 692.884,-40.2687 721.312,-57.9689 740.192,-70.6552"/>
<polygon fill="midnightblue" stroke="midnightblue" points="738.414,-73.6788 748.645,-76.43 742.362,-67.8989 738.414,-73.6788"/>
</g>
<!-- Node12&#45;&gt;Node3 -->
<g id="edge15" class="edge"><title>Node12&#45;&gt;Node3</title>
<path fill="none" stroke="midnightblue" d="M458.543,-171.589C482.523,-176.694 512.198,-183.011 537.472,-188.392"/>
<polygon fill="midnightblue" stroke="midnightblue" points="536.771,-191.821 547.281,-190.48 538.229,-184.974 536.771,-191.821"/>
</g>
<!-- Node12&#45;&gt;Node6 -->
<g id="edge16" class="edge"><title>Node12&#45;&gt;Node6</title>
<path fill="none" stroke="midnightblue" d="M458.63,-170.203C467.406,-172.875 476.27,-176.389 484,-181 503.98,-192.918 499.989,-207.135 520,-219 523.69,-221.188 527.634,-223.128 531.703,-224.848"/>
<polygon fill="midnightblue" stroke="midnightblue" points="530.774,-228.237 541.366,-228.473 533.233,-221.684 530.774,-228.237"/>
</g>
<!-- Node13 -->
<g id="node13" class="node"><title>Node13</title>
<g id="a_node13"><a xlink:href="../../d6/d92/interfaceprolog_1_1io_1_1IOPeer_a780dd51c62dba4c266286171101b2cee.html#a780dd51c62dba4c266286171101b2cee" target="_top" xlink:title="prolog.io.IOPeer.traceln">
<polygon fill="none" stroke="black" points="533.5,-152.5 533.5,-171.5 652.5,-171.5 652.5,-152.5 533.5,-152.5"/>
<text text-anchor="middle" x="593" y="-159.5" font-family="Helvetica,sans-Serif" font-size="10.00">prolog.io.IOPeer.traceln</text>
</a>
</g>
</g>
<!-- Node12&#45;&gt;Node13 -->
<g id="edge17" class="edge"><title>Node12&#45;&gt;Node13</title>
<path fill="none" stroke="midnightblue" d="M458.543,-162C478.158,-162 501.584,-162 523.296,-162"/>
<polygon fill="midnightblue" stroke="midnightblue" points="523.46,-165.5 533.46,-162 523.46,-158.5 523.46,-165.5"/>
</g>
</g>
</svg>
        <g id="navigator" transform="translate(0 0)" fill="#404254">
                <rect fill="#f2f5e9" fill-opacity="0.5" stroke="#606060" stroke-width=".5" x="0" y="0" width="60" height="60"/>
                <use id="zoomplus" xlink:href="#zoomPlus" x="17" y="9" onmousedown="handleZoom(evt,'in')"/>
                <use id="zoomminus" xlink:href="#zoomMin" x="42" y="9" onmousedown="handleZoom(evt,'out')"/>
                <use id="reset" xlink:href="#resetDef" x="30" y="36" onmousedown="handleReset()"/>
                <g id="arrowUp" xlink:href="#dirArrow" transform="translate(30 24)" onmousedown="handlePan(0,-1)">
                  <use xlink:href="#rim" fill="#404040">
                        <set attributeName="fill" to="#808080" begin="arrowUp.mouseover" end="arrowUp.mouseout"/>
                  </use>
                  <path fill="none" stroke="white" stroke-width="1.5" d="M0,-3.0v7 M-2.5,-0.5L0,-3.0L2.5,-0.5"/>
                </g>
                <g id="arrowRight" xlink:href="#dirArrow" transform="rotate(90) translate(36 -43)" onmousedown="handlePan(1,0)">
                  <use xlink:href="#rim" fill="#404040">
                        <set attributeName="fill" to="#808080" begin="arrowRight.mouseover" end="arrowRight.mouseout"/>
                  </use>
                  <path fill="none" stroke="white" stroke-width="1.5" d="M0,-3.0v7 M-2.5,-0.5L0,-3.0L2.5,-0.5"/>
                </g>
                <g id="arrowDown" xlink:href="#dirArrow" transform="rotate(180) translate(-30 -48)" onmousedown="handlePan(0,1)">
                  <use xlink:href="#rim" fill="#404040">
                        <set attributeName="fill" to="#808080" begin="arrowDown.mouseover" end="arrowDown.mouseout"/>
                  </use>
                  <path fill="none" stroke="white" stroke-width="1.5" d="M0,-3.0v7 M-2.5,-0.5L0,-3.0L2.5,-0.5"/>
                </g>
                <g id="arrowLeft" xlink:href="#dirArrow" transform="rotate(270) translate(-36 17)" onmousedown="handlePan(-1,0)">
                  <use xlink:href="#rim" fill="#404040">
                        <set attributeName="fill" to="#808080" begin="arrowLeft.mouseover" end="arrowLeft.mouseout"/>
                  </use>
                  <path fill="none" stroke="white" stroke-width="1.5" d="M0,-3.0v7 M-2.5,-0.5L0,-3.0L2.5,-0.5"/>
                </g>
        </g>
        <svg viewBox="0 0 15 15" width="100%" height="30px" preserveAspectRatio="xMaxYMin meet">
         <g id="arrow_out" transform="scale(0.3 0.3)">
          <a xlink:href="classprolog_1_1fluents_1_1Queue_ac547996ff0686a0df9b16cb070bef1be_ac547996ff0686a0df9b16cb070bef1be_cgraph_org.svg" target="_base">
           <rect id="button" ry="5" rx="5" y="6" x="6" height="38" width="38"
                fill="#f2f5e9" fill-opacity="0.5" stroke="#606060" stroke-width="1.0"/>
           <path id="arrow"
             d="M 11.500037,31.436501 C 11.940474,20.09759 22.043105,11.32322 32.158766,21.979434 L 37.068811,17.246167 C 37.068811,17.246167 37.088388,32 37.088388,32 L 22.160133,31.978069 C 22.160133,31.978069 26.997745,27.140456 26.997745,27.140456 C 18.528582,18.264221 13.291696,25.230495 11.500037,31.436501 z"
             style="fill:#404040;"/>
          </a>
         </g>
        </svg>
</svg>
