<?xml version="1.0" encoding="UTF-8" standalone="no"?>
<!DOCTYPE svg PUBLIC "-//W3C//DTD SVG 1.1//EN"
 "http://www.w3.org/Graphics/SVG/1.1/DTD/svg11.dtd">
<!-- Generated by graphviz version 2.38.0 (20140413.2041)
 -->
<!-- Title: prolog.fluents.Queue.toString Pages: 1 -->
<svg width="491pt" height="66pt"
 viewBox="0.00 0.00 491.00 66.00" xmlns="http://www.w3.org/2000/svg" xmlns:xlink="http://www.w3.org/1999/xlink">
<g id="graph0" class="graph" transform="scale(1 1) rotate(0) translate(4 62)">
<title>prolog.fluents.Queue.toString</title>
<!-- Node1 -->
<g id="node1" class="node"><title>Node1</title>
<polygon fill="#bfbfbf" stroke="black" points="0,-19.5 0,-38.5 143,-38.5 143,-19.5 0,-19.5"/>
<text text-anchor="middle" x="71.5" y="-26.5" font-family="Helvetica,sans-Serif" font-size="10.00">prolog.fluents.Queue.toString</text>
</g>
<!-- Node2 -->
<g id="node2" class="node"><title>Node2</title>
<g id="a_node2"><a xlink:href="../../de/d23/classprolog_1_1fluents_1_1Queue_a897146b8e89a4532bbd63061d1a87144.html#a897146b8e89a4532bbd63061d1a87144" target="_top" xlink:title="prolog.fluents.Queue.count">
<polygon fill="none" stroke="black" points="185,-38.5 185,-57.5 319,-57.5 319,-38.5 185,-38.5"/>
<text text-anchor="middle" x="252" y="-45.5" font-family="Helvetica,sans-Serif" font-size="10.00">prolog.fluents.Queue.count</text>
</a>
</g>
</g>
<!-- Node1&#45;&gt;Node2 -->
<g id="edge1" class="edge"><title>Node1&#45;&gt;Node2</title>
<path fill="none" stroke="midnightblue" d="M143.048,-36.5093C153.46,-37.6176 164.229,-38.7638 174.75,-39.8838"/>
<polygon fill="midnightblue" stroke="midnightblue" points="174.429,-43.3693 184.743,-40.9475 175.17,-36.4086 174.429,-43.3693"/>
</g>
<!-- Node3 -->
<g id="node3" class="node"><title>Node3</title>
<g id="a_node3"><a xlink:href="../../de/d23/classprolog_1_1fluents_1_1Queue_adca2003759e9be115f6006eee370209a.html#adca2003759e9be115f6006eee370209a" target="_top" xlink:title="prolog.fluents.Queue.toVector">
<polygon fill="none" stroke="black" points="179,-0.5 179,-19.5 325,-19.5 325,-0.5 179,-0.5"/>
<text text-anchor="middle" x="252" y="-7.5" font-family="Helvetica,sans-Serif" font-size="10.00">prolog.fluents.Queue.toVector</text>
</a>
</g>
</g>
<!-- Node1&#45;&gt;Node3 -->
<g id="edge2" class="edge"><title>Node1&#45;&gt;Node3</title>
<path fill="none" stroke="midnightblue" d="M143.048,-21.4907C151.523,-20.5886 160.234,-19.6614 168.855,-18.7437"/>
<polygon fill="midnightblue" stroke="midnightblue" points="169.342,-22.2117 178.916,-17.6728 168.601,-15.251 169.342,-22.2117"/>
</g>
<!-- Node4 -->
<g id="node4" class="node"><title>Node4</title>
<g id="a_node4"><a xlink:href="../../de/d23/classprolog_1_1fluents_1_1Queue_a3d1135124c700679bbd665d253dd9f0f.html#a3d1135124c700679bbd665d253dd9f0f" target="_top" xlink:title="prolog.fluents.Queue.inc">
<polygon fill="none" stroke="black" points="361,-0.5 361,-19.5 483,-19.5 483,-0.5 361,-0.5"/>
<text text-anchor="middle" x="422" y="-7.5" font-family="Helvetica,sans-Serif" font-size="10.00">prolog.fluents.Queue.inc</text>
</a>
</g>
</g>
<!-- Node3&#45;&gt;Node4 -->
<g id="edge3" class="edge"><title>Node3&#45;&gt;Node4</title>
<path fill="none" stroke="midnightblue" d="M325.222,-10C333.694,-10 342.33,-10 350.774,-10"/>
<polygon fill="midnightblue" stroke="midnightblue" points="350.956,-13.5001 360.956,-10 350.956,-6.5001 350.956,-13.5001"/>
</g>
</g>
</svg>
