<?xml version="1.0" encoding="UTF-8" standalone="no"?>
<!DOCTYPE svg PUBLIC "-//W3C//DTD SVG 1.1//EN"
 "http://www.w3.org/Graphics/SVG/1.1/DTD/svg11.dtd">
<!-- Generated by graphviz version 2.38.0 (20140413.2041)
 -->
<!-- Title: prolog.fluents.Queue.toVector Pages: 1 -->
<!--zoomable 348 -->
<svg id="main" version="1.1" xmlns="http://www.w3.org/2000/svg" xmlns:xlink="http://www.w3.org/1999/xlink" xml:space="preserve" onload="init(evt)">
<style type="text/css"><![CDATA[
.edge:hover path { stroke: red; }
.edge:hover polygon { stroke: red; fill: red; }
]]></style>
<script type="text/javascript"><![CDATA[
var edges = document.getElementsByTagName('g');
if (edges && edges.length) {
  for (var i=0;i<edges.length;i++) {
    if (edges[i].id.substr(0,4)=='edge') {
      edges[i].setAttribute('class','edge');
    }
  }
}
]]></script>
        <defs>
                <circle id="rim" cx="0" cy="0" r="7"/>
                <circle id="rim2" cx="0" cy="0" r="3.5"/>
                <g id="zoomPlus">
                        <use xlink:href="#rim" fill="#404040">
                                <set attributeName="fill" to="#808080" begin="zoomplus.mouseover" end="zoomplus.mouseout"/>
                        </use>
                        <path d="M-4,0h8M0,-4v8" fill="none" stroke="white" stroke-width="1.5" pointer-events="none"/>
                </g>
                <g id="zoomMin">
                        <use xlink:href="#rim" fill="#404040">
                                <set attributeName="fill" to="#808080" begin="zoomminus.mouseover" end="zoomminus.mouseout"/>
                        </use>
                        <path d="M-4,0h8" fill="none" stroke="white" stroke-width="1.5" pointer-events="none"/>
                </g>
                <g id="dirArrow">
                        <path fill="none" stroke="white" stroke-width="1.5" d="M0,-3.0v7 M-2.5,-0.5L0,-3.0L2.5,-0.5"/>
                </g>
               <g id="resetDef">
                       <use xlink:href="#rim2" fill="#404040">
                               <set attributeName="fill" to="#808080" begin="reset.mouseover" end="reset.mouseout"/>
                       </use>
               </g>
        </defs>

<script type="text/javascript">
var viewWidth = 1881;
var viewHeight = 348;
var sectionId = 'dynsection-1';
</script>
<script xlink:href="../../svgpan.js"/>
<svg id="graph" class="graph">
<g id="viewport">
<title>prolog.fluents.Queue.toVector</title>
<!-- Node1 -->
<g id="node1" class="node"><title>Node1</title>
<polygon fill="#bfbfbf" stroke="black" points="0,-138.5 0,-157.5 146,-157.5 146,-138.5 0,-138.5"/>
<text text-anchor="middle" x="73" y="-145.5" font-family="Helvetica,sans-Serif" font-size="10.00">prolog.fluents.Queue.toVector</text>
</g>
<!-- Node2 -->
<g id="node2" class="node"><title>Node2</title>
<g id="a_node2"><a xlink:href="../../de/d23/classprolog_1_1fluents_1_1Queue_aa5b9659115a717ce9a4bd1976f7bda66.html#aa5b9659115a717ce9a4bd1976f7bda66" target="_top" xlink:title="prolog.fluents.Queue.toEnumeration">
<polygon fill="none" stroke="black" points="182,-182.5 182,-201.5 355,-201.5 355,-182.5 182,-182.5"/>
<text text-anchor="middle" x="268.5" y="-189.5" font-family="Helvetica,sans-Serif" font-size="10.00">prolog.fluents.Queue.toEnumeration</text>
</a>
</g>
</g>
<!-- Node1&#45;&gt;Node2 -->
<g id="edge1" class="edge"><title>Node1&#45;&gt;Node2</title>
<path fill="none" stroke="midnightblue" d="M125.823,-159.784C157.06,-166.887 196.327,-175.816 225.595,-182.471"/>
<polygon fill="midnightblue" stroke="midnightblue" points="126.514,-156.352 115.987,-157.547 124.962,-163.178 126.514,-156.352"/>
</g>
<!-- Node13 -->
<g id="node13" class="node"><title>Node13</title>
<g id="a_node13"><a xlink:href="../../d2/d8d/classprolog_1_1fluents_1_1BlackBoard_ac7e8ee23b675676bc744c304f543700b.html#ac7e8ee23b675676bc744c304f543700b" target="_top" xlink:title="This gives an enumeration view for the sequence of objects kept under key k. ">
<polygon fill="none" stroke="black" points="198.5,-133 198.5,-163 338.5,-163 338.5,-133 198.5,-133"/>
<text text-anchor="start" x="206.5" y="-151" font-family="Helvetica,sans-Serif" font-size="10.00">prolog.fluents.BlackBoard.to</text>
<text text-anchor="middle" x="268.5" y="-140" font-family="Helvetica,sans-Serif" font-size="10.00">EnumerationFor</text>
</a>
</g>
</g>
<!-- Node1&#45;&gt;Node13 -->
<g id="edge14" class="edge"><title>Node1&#45;&gt;Node13</title>
<path fill="none" stroke="midnightblue" d="M156.171,-148C170.194,-148 184.634,-148 198.278,-148"/>
<polygon fill="midnightblue" stroke="midnightblue" points="156.052,-144.5 146.052,-148 156.052,-151.5 156.052,-144.5"/>
</g>
<!-- Node14 -->
<g id="node14" class="node"><title>Node14</title>
<g id="a_node14"><a xlink:href="../../de/d23/classprolog_1_1fluents_1_1Queue_af00e19e476afb783189f3ded5c1af564.html#af00e19e476afb783189f3ded5c1af564" target="_top" xlink:title="prolog.fluents.Queue.toString">
<polygon fill="none" stroke="black" points="197,-94.5 197,-113.5 340,-113.5 340,-94.5 197,-94.5"/>
<text text-anchor="middle" x="268.5" y="-101.5" font-family="Helvetica,sans-Serif" font-size="10.00">prolog.fluents.Queue.toString</text>
</a>
</g>
</g>
<!-- Node1&#45;&gt;Node14 -->
<g id="edge15" class="edge"><title>Node1&#45;&gt;Node14</title>
<path fill="none" stroke="midnightblue" d="M124.536,-136.205C142.652,-132.002 163.234,-127.257 182,-123 195.643,-119.905 210.522,-116.581 223.987,-113.592"/>
<polygon fill="midnightblue" stroke="midnightblue" points="123.701,-132.806 114.752,-138.477 125.284,-139.624 123.701,-132.806"/>
</g>
<!-- Node3 -->
<g id="node3" class="node"><title>Node3</title>
<g id="a_node3"><a xlink:href="../../da/dd9/classprolog_1_1fluents_1_1DataBase_a610cc1f35df4467fbb1fac1052091915.html#a610cc1f35df4467fbb1fac1052091915" target="_top" xlink:title="prolog.fluents.DataBase.all0">
<polygon fill="none" stroke="black" points="393,-270.5 393,-289.5 533,-289.5 533,-270.5 393,-270.5"/>
<text text-anchor="middle" x="463" y="-277.5" font-family="Helvetica,sans-Serif" font-size="10.00">prolog.fluents.DataBase.all0</text>
</a>
</g>
</g>
<!-- Node2&#45;&gt;Node3 -->
<g id="edge2" class="edge"><title>Node2&#45;&gt;Node3</title>
<path fill="none" stroke="midnightblue" d="M299.832,-205.866C339.216,-223.87 406.939,-254.829 441.059,-270.427"/>
<polygon fill="midnightblue" stroke="midnightblue" points="301.017,-202.56 290.467,-201.585 298.107,-208.926 301.017,-202.56"/>
</g>
<!-- Node9 -->
<g id="node9" class="node"><title>Node9</title>
<g id="a_node9"><a xlink:href="../../da/dd9/classprolog_1_1fluents_1_1DataBase_a2943c1694ea86572574a57f1a31f11c2.html#a2943c1694ea86572574a57f1a31f11c2" target="_top" xlink:title="prolog.fluents.DataBase.pred\l_to_string">
<polygon fill="none" stroke="black" points="391.5,-177 391.5,-207 534.5,-207 534.5,-177 391.5,-177"/>
<text text-anchor="start" x="399.5" y="-195" font-family="Helvetica,sans-Serif" font-size="10.00">prolog.fluents.DataBase.pred</text>
<text text-anchor="middle" x="463" y="-184" font-family="Helvetica,sans-Serif" font-size="10.00">_to_string</text>
</a>
</g>
</g>
<!-- Node2&#45;&gt;Node9 -->
<g id="edge9" class="edge"><title>Node2&#45;&gt;Node9</title>
<path fill="none" stroke="midnightblue" d="M365.057,-192C373.933,-192 382.818,-192 391.408,-192"/>
<polygon fill="midnightblue" stroke="midnightblue" points="365.054,-188.5 355.054,-192 365.054,-195.5 365.054,-188.5"/>
</g>
<!-- Node4 -->
<g id="node4" class="node"><title>Node4</title>
<g id="a_node4"><a xlink:href="../../da/dd9/classprolog_1_1fluents_1_1DataBase_a4b4a68ddd60d87276cd7f9befd237ad9.html#a4b4a68ddd60d87276cd7f9befd237ad9" target="_top" xlink:title="prolog.fluents.DataBase.all1">
<polygon fill="none" stroke="black" points="575.5,-308.5 575.5,-327.5 715.5,-327.5 715.5,-308.5 575.5,-308.5"/>
<text text-anchor="middle" x="645.5" y="-315.5" font-family="Helvetica,sans-Serif" font-size="10.00">prolog.fluents.DataBase.all1</text>
</a>
</g>
</g>
<!-- Node3&#45;&gt;Node4 -->
<g id="edge3" class="edge"><title>Node3&#45;&gt;Node4</title>
<path fill="none" stroke="midnightblue" d="M519.485,-291.681C545.082,-297.07 575.084,-303.386 599.28,-308.48"/>
<polygon fill="midnightblue" stroke="midnightblue" points="520.054,-288.224 509.548,-289.589 518.612,-295.074 520.054,-288.224"/>
</g>
<!-- Node5 -->
<g id="node5" class="node"><title>Node5</title>
<g id="a_node5"><a xlink:href="../../da/dd9/classprolog_1_1fluents_1_1DataBase_a16bb9f309e161ca656d8aef483ba7e5f.html#a16bb9f309e161ca656d8aef483ba7e5f" target="_top" xlink:title="prolog.fluents.DataBase.all2">
<polygon fill="none" stroke="black" points="763.5,-289.5 763.5,-308.5 903.5,-308.5 903.5,-289.5 763.5,-289.5"/>
<text text-anchor="middle" x="833.5" y="-296.5" font-family="Helvetica,sans-Serif" font-size="10.00">prolog.fluents.DataBase.all2</text>
</a>
</g>
</g>
<!-- Node3&#45;&gt;Node5 -->
<g id="edge8" class="edge"><title>Node3&#45;&gt;Node5</title>
<path fill="none" stroke="midnightblue" d="M543.593,-284.104C609.116,-287.482 701.06,-292.223 763.499,-295.442"/>
<polygon fill="midnightblue" stroke="midnightblue" points="543.479,-280.593 533.312,-283.574 543.119,-287.584 543.479,-280.593"/>
</g>
<!-- Node4&#45;&gt;Node5 -->
<g id="edge4" class="edge"><title>Node4&#45;&gt;Node5</title>
<path fill="none" stroke="midnightblue" d="M725.738,-309.906C738.295,-308.623 751.194,-307.305 763.492,-306.049"/>
<polygon fill="midnightblue" stroke="midnightblue" points="725.352,-306.427 715.76,-310.925 726.063,-313.391 725.352,-306.427"/>
</g>
<!-- Node6 -->
<g id="node6" class="node"><title>Node6</title>
<g id="a_node6"><a xlink:href="../../da/dd9/classprolog_1_1fluents_1_1DataBase_ac93f1bf928f7e64f000726f764891ea9.html#ac93f1bf928f7e64f000726f764891ea9" target="_top" xlink:title="Returns a (possibly empty) list of matching Term objects. ">
<polygon fill="none" stroke="black" points="965,-289.5 965,-308.5 1099,-308.5 1099,-289.5 965,-289.5"/>
<text text-anchor="middle" x="1032" y="-296.5" font-family="Helvetica,sans-Serif" font-size="10.00">prolog.fluents.DataBase.all</text>
</a>
</g>
</g>
<!-- Node5&#45;&gt;Node6 -->
<g id="edge5" class="edge"><title>Node5&#45;&gt;Node6</title>
<path fill="none" stroke="midnightblue" d="M913.903,-299C930.799,-299 948.466,-299 964.806,-299"/>
<polygon fill="midnightblue" stroke="midnightblue" points="913.502,-295.5 903.502,-299 913.502,-302.5 913.502,-295.5"/>
</g>
<!-- Node7 -->
<g id="node7" class="node"><title>Node7</title>
<g id="a_node7"><a xlink:href="../../df/dfb/classprolog_1_1builtins_1_1db__collect_a2c65ced6ccab65917066acd22e05c2ee.html#a2c65ced6ccab65917066acd22e05c2ee" target="_top" xlink:title="prolog.builtins.db\l_collect.exec">
<polygon fill="none" stroke="black" points="1183,-309 1183,-339 1273,-339 1273,-309 1183,-309"/>
<text text-anchor="start" x="1191" y="-327" font-family="Helvetica,sans-Serif" font-size="10.00">prolog.builtins.db</text>
<text text-anchor="middle" x="1228" y="-316" font-family="Helvetica,sans-Serif" font-size="10.00">_collect.exec</text>
</a>
</g>
</g>
<!-- Node6&#45;&gt;Node7 -->
<g id="edge6" class="edge"><title>Node6&#45;&gt;Node7</title>
<path fill="none" stroke="midnightblue" d="M1109.37,-308.842C1134.24,-312.047 1161.01,-315.496 1182.72,-318.294"/>
<polygon fill="midnightblue" stroke="midnightblue" points="1109.59,-305.341 1099.22,-307.534 1108.69,-312.283 1109.59,-305.341"/>
</g>
<!-- Node8 -->
<g id="node8" class="node"><title>Node8</title>
<g id="a_node8"><a xlink:href="../../de/db4/classprolog_1_1builtins_1_1at__key_acf52ce169f8e3b064dbca64fcf06fcab.html#acf52ce169f8e3b064dbca64fcf06fcab" target="_top" xlink:title="prolog.builtins.at\l_key.exec">
<polygon fill="none" stroke="black" points="1184,-260 1184,-290 1272,-290 1272,-260 1184,-260"/>
<text text-anchor="start" x="1192" y="-278" font-family="Helvetica,sans-Serif" font-size="10.00">prolog.builtins.at</text>
<text text-anchor="middle" x="1228" y="-267" font-family="Helvetica,sans-Serif" font-size="10.00">_key.exec</text>
</a>
</g>
</g>
<!-- Node6&#45;&gt;Node8 -->
<g id="edge7" class="edge"><title>Node6&#45;&gt;Node8</title>
<path fill="none" stroke="midnightblue" d="M1109.2,-289.573C1134.57,-286.435 1161.93,-283.05 1183.89,-280.333"/>
<polygon fill="midnightblue" stroke="midnightblue" points="1108.72,-286.106 1099.22,-290.808 1109.58,-293.053 1108.72,-286.106"/>
</g>
<!-- Node10 -->
<g id="node10" class="node"><title>Node10</title>
<g id="a_node10"><a xlink:href="../../d8/d56/classprolog_1_1builtins_1_1pred__to__string_a444ec2879d6ff36fff485e9fea05c43c.html#a444ec2879d6ff36fff485e9fea05c43c" target="_top" xlink:title="prolog.builtins.pred\l_to_string.exec">
<polygon fill="none" stroke="black" points="596.5,-221 596.5,-251 694.5,-251 694.5,-221 596.5,-221"/>
<text text-anchor="start" x="604.5" y="-239" font-family="Helvetica,sans-Serif" font-size="10.00">prolog.builtins.pred</text>
<text text-anchor="middle" x="645.5" y="-228" font-family="Helvetica,sans-Serif" font-size="10.00">_to_string.exec</text>
</a>
</g>
</g>
<!-- Node9&#45;&gt;Node10 -->
<g id="edge10" class="edge"><title>Node9&#45;&gt;Node10</title>
<path fill="none" stroke="midnightblue" d="M535.496,-209.428C555.887,-214.399 577.614,-219.695 596.261,-224.241"/>
<polygon fill="midnightblue" stroke="midnightblue" points="536.157,-205.987 525.613,-207.019 534.5,-212.788 536.157,-205.987"/>
</g>
<!-- Node11 -->
<g id="node11" class="node"><title>Node11</title>
<g id="a_node11"><a xlink:href="../../da/dd9/classprolog_1_1fluents_1_1DataBase_abee194bd51b63bf7758b4ae2b2795b04.html#abee194bd51b63bf7758b4ae2b2795b04" target="_top" xlink:title="Returns a formatted String representation of this PrologBlackboard object. ">
<polygon fill="none" stroke="black" points="571,-182.5 571,-201.5 720,-201.5 720,-182.5 571,-182.5"/>
<text text-anchor="middle" x="645.5" y="-189.5" font-family="Helvetica,sans-Serif" font-size="10.00">prolog.fluents.DataBase.pprint</text>
</a>
</g>
</g>
<!-- Node9&#45;&gt;Node11 -->
<g id="edge11" class="edge"><title>Node9&#45;&gt;Node11</title>
<path fill="none" stroke="midnightblue" d="M544.667,-185.284C553.338,-185.222 562.129,-185.245 570.714,-185.351"/>
<polygon fill="midnightblue" stroke="midnightblue" points="544.522,-181.785 534.562,-185.395 544.599,-188.785 544.522,-181.785"/>
</g>
<!-- Node11&#45;&gt;Node9 -->
<g id="edge13" class="edge"><title>Node11&#45;&gt;Node9</title>
<path fill="none" stroke="midnightblue" d="M560.561,-198.735C551.864,-198.776 543.09,-198.732 534.562,-198.605"/>
<polygon fill="midnightblue" stroke="midnightblue" points="560.744,-202.234 570.714,-198.649 560.684,-195.234 560.744,-202.234"/>
</g>
<!-- Node12 -->
<g id="node12" class="node"><title>Node12</title>
<g id="a_node12"><a xlink:href="../../d7/d12/classprolog_1_1builtins_1_1db__to__string_a9ce40787f8196bff94e7b1393e0dc51b.html#a9ce40787f8196bff94e7b1393e0dc51b" target="_top" xlink:title="prolog.builtins.db\l_to_string.exec">
<polygon fill="none" stroke="black" points="788.5,-177 788.5,-207 878.5,-207 878.5,-177 788.5,-177"/>
<text text-anchor="start" x="796.5" y="-195" font-family="Helvetica,sans-Serif" font-size="10.00">prolog.builtins.db</text>
<text text-anchor="middle" x="833.5" y="-184" font-family="Helvetica,sans-Serif" font-size="10.00">_to_string.exec</text>
</a>
</g>
</g>
<!-- Node11&#45;&gt;Node12 -->
<g id="edge12" class="edge"><title>Node11&#45;&gt;Node12</title>
<path fill="none" stroke="midnightblue" d="M730.138,-192C750.252,-192 770.956,-192 788.435,-192"/>
<polygon fill="midnightblue" stroke="midnightblue" points="730.012,-188.5 720.012,-192 730.012,-195.5 730.012,-188.5"/>
</g>
<!-- Node15 -->
<g id="node15" class="node"><title>Node15</title>
<g id="a_node15"><a xlink:href="../../de/d23/classprolog_1_1fluents_1_1Queue_a16816604313a1e73e9d8845cdd4cbf8a.html#a16816604313a1e73e9d8845cdd4cbf8a" target="_top" xlink:title="Dynamically resizes the queue. ">
<polygon fill="none" stroke="black" points="391,-94.5 391,-113.5 535,-113.5 535,-94.5 391,-94.5"/>
<text text-anchor="middle" x="463" y="-101.5" font-family="Helvetica,sans-Serif" font-size="10.00">prolog.fluents.Queue.requeue</text>
</a>
</g>
</g>
<!-- Node14&#45;&gt;Node15 -->
<g id="edge16" class="edge"><title>Node14&#45;&gt;Node15</title>
<path fill="none" stroke="midnightblue" d="M350.273,-104C363.723,-104 377.587,-104 390.777,-104"/>
<polygon fill="midnightblue" stroke="midnightblue" points="350.087,-100.5 340.087,-104 350.087,-107.5 350.087,-100.5"/>
</g>
<!-- Node16 -->
<g id="node16" class="node"><title>Node16</title>
<g id="a_node16"><a xlink:href="../../de/d23/classprolog_1_1fluents_1_1Queue_a287302e64fec17ff6cad3f51f8c4bd12.html#a287302e64fec17ff6cad3f51f8c4bd12" target="_top" xlink:title="Removes the first element of the queue. ">
<polygon fill="none" stroke="black" points="583,-94.5 583,-113.5 708,-113.5 708,-94.5 583,-94.5"/>
<text text-anchor="middle" x="645.5" y="-101.5" font-family="Helvetica,sans-Serif" font-size="10.00">prolog.fluents.Queue.deq</text>
</a>
</g>
</g>
<!-- Node15&#45;&gt;Node16 -->
<g id="edge17" class="edge"><title>Node15&#45;&gt;Node16</title>
<path fill="none" stroke="midnightblue" d="M545.158,-104C557.814,-104 570.711,-104 582.84,-104"/>
<polygon fill="midnightblue" stroke="midnightblue" points="545.079,-100.5 535.079,-104 545.079,-107.5 545.079,-100.5"/>
</g>
<!-- Node22 -->
<g id="node22" class="node"><title>Node22</title>
<g id="a_node22"><a xlink:href="../../de/d23/classprolog_1_1fluents_1_1Queue_ac547996ff0686a0df9b16cb070bef1be.html#ac547996ff0686a0df9b16cb070bef1be" target="_top" xlink:title="Adds an element to the end of the queue. ">
<polygon fill="none" stroke="black" points="583,-53.5 583,-72.5 708,-72.5 708,-53.5 583,-53.5"/>
<text text-anchor="middle" x="645.5" y="-60.5" font-family="Helvetica,sans-Serif" font-size="10.00">prolog.fluents.Queue.enq</text>
</a>
</g>
</g>
<!-- Node15&#45;&gt;Node22 -->
<g id="edge23" class="edge"><title>Node15&#45;&gt;Node22</title>
<path fill="none" stroke="midnightblue" d="M515.714,-92.2533C543.241,-86.0007 576.656,-78.4105 602.551,-72.5286"/>
<polygon fill="midnightblue" stroke="midnightblue" points="514.84,-88.8625 505.864,-94.4907 516.391,-95.6887 514.84,-88.8625"/>
</g>
<!-- Node17 -->
<g id="node17" class="node"><title>Node17</title>
<g id="a_node17"><a xlink:href="../../d9/dc9/classprolog_1_1fluents_1_1SourceMerger_a0efcba19e4678b70041342889357e43b.html#a0efcba19e4678b70041342889357e43b" target="_top" xlink:title="prolog.fluents.SourceMerger.get\lElement">
<polygon fill="none" stroke="black" points="756,-89 756,-119 911,-119 911,-89 756,-89"/>
<text text-anchor="start" x="764" y="-107" font-family="Helvetica,sans-Serif" font-size="10.00">prolog.fluents.SourceMerger.get</text>
<text text-anchor="middle" x="833.5" y="-96" font-family="Helvetica,sans-Serif" font-size="10.00">Element</text>
</a>
</g>
</g>
<!-- Node16&#45;&gt;Node17 -->
<g id="edge18" class="edge"><title>Node16&#45;&gt;Node17</title>
<path fill="none" stroke="midnightblue" d="M718.332,-104C730.591,-104 743.367,-104 755.748,-104"/>
<polygon fill="midnightblue" stroke="midnightblue" points="718.177,-100.5 708.177,-104 718.177,-107.5 718.177,-100.5"/>
</g>
<!-- Node18 -->
<g id="node18" class="node"><title>Node18</title>
<g id="a_node18"><a xlink:href="../../d2/d8d/classprolog_1_1fluents_1_1BlackBoard_a9a02fa64d8837510e94f4ef70aa25096.html#a9a02fa64d8837510e94f4ef70aa25096" target="_top" xlink:title="Removes the first Term having key k or the first enumerated key if k is null. ">
<polygon fill="none" stroke="black" points="957.5,-138.5 957.5,-157.5 1106.5,-157.5 1106.5,-138.5 957.5,-138.5"/>
<text text-anchor="middle" x="1032" y="-145.5" font-family="Helvetica,sans-Serif" font-size="10.00">prolog.fluents.BlackBoard.pick</text>
</a>
</g>
</g>
<!-- Node16&#45;&gt;Node18 -->
<g id="edge19" class="edge"><title>Node16&#45;&gt;Node18</title>
<path fill="none" stroke="midnightblue" d="M693.499,-115.849C712.757,-120.298 735.335,-125 756,-128 823.861,-137.853 901.884,-142.941 957.447,-145.512"/>
<polygon fill="midnightblue" stroke="midnightblue" points="694.295,-112.441 683.759,-113.555 692.691,-119.254 694.295,-112.441"/>
</g>
<!-- Node19 -->
<g id="node19" class="node"><title>Node19</title>
<g id="a_node19"><a xlink:href="../../d2/d8d/classprolog_1_1fluents_1_1BlackBoard_a4b49c266b7b7abbc698841281e426bfe.html#a4b49c266b7b7abbc698841281e426bfe" target="_top" xlink:title="Removes the first matching Term or Clause from the blackboard, to be used by Linda in/1 operation in ...">
<polygon fill="none" stroke="black" points="1153,-138.5 1153,-157.5 1303,-157.5 1303,-138.5 1153,-138.5"/>
<text text-anchor="middle" x="1228" y="-145.5" font-family="Helvetica,sans-Serif" font-size="10.00">prolog.fluents.BlackBoard.take</text>
</a>
</g>
</g>
<!-- Node18&#45;&gt;Node19 -->
<g id="edge20" class="edge"><title>Node18&#45;&gt;Node19</title>
<path fill="none" stroke="midnightblue" d="M1116.64,-148C1128.66,-148 1140.96,-148 1152.79,-148"/>
<polygon fill="midnightblue" stroke="midnightblue" points="1116.62,-144.5 1106.62,-148 1116.62,-151.5 1116.62,-144.5"/>
</g>
<!-- Node20 -->
<g id="node20" class="node"><title>Node20</title>
<g id="a_node20"><a xlink:href="../../da/dd9/classprolog_1_1fluents_1_1DataBase_a5cc308e3a32da4266de44e52764501ca.html#a5cc308e3a32da4266de44e52764501ca" target="_top" xlink:title="Removes a matching Term from the blackboards and signals failure if no such term is found...">
<polygon fill="none" stroke="black" points="1350,-139.5 1350,-158.5 1487,-158.5 1487,-139.5 1350,-139.5"/>
<text text-anchor="middle" x="1418.5" y="-146.5" font-family="Helvetica,sans-Serif" font-size="10.00">prolog.fluents.DataBase.cin</text>
</a>
</g>
</g>
<!-- Node19&#45;&gt;Node20 -->
<g id="edge21" class="edge"><title>Node19&#45;&gt;Node20</title>
<path fill="none" stroke="midnightblue" d="M1313.39,-148.448C1325.57,-148.512 1337.98,-148.578 1349.78,-148.641"/>
<polygon fill="midnightblue" stroke="midnightblue" points="1313.25,-144.947 1303.23,-148.394 1313.21,-151.947 1313.25,-144.947"/>
</g>
<!-- Node21 -->
<g id="node21" class="node"><title>Node21</title>
<g id="a_node21"><a xlink:href="../../d1/dd4/classprolog_1_1builtins_1_1db__remove_a5a3ab57bdfd925e9cc119d213cd23163.html#a5a3ab57bdfd925e9cc119d213cd23163" target="_top" xlink:title="prolog.builtins.db\l_remove.exec">
<polygon fill="none" stroke="black" points="1563,-135 1563,-165 1653,-165 1653,-135 1563,-135"/>
<text text-anchor="start" x="1571" y="-153" font-family="Helvetica,sans-Serif" font-size="10.00">prolog.builtins.db</text>
<text text-anchor="middle" x="1608" y="-142" font-family="Helvetica,sans-Serif" font-size="10.00">_remove.exec</text>
</a>
</g>
</g>
<!-- Node20&#45;&gt;Node21 -->
<g id="edge22" class="edge"><title>Node20&#45;&gt;Node21</title>
<path fill="none" stroke="midnightblue" d="M1497.35,-149.415C1519.68,-149.534 1543.26,-149.66 1562.8,-149.764"/>
<polygon fill="midnightblue" stroke="midnightblue" points="1497.21,-145.915 1487.19,-149.361 1497.17,-152.914 1497.21,-145.915"/>
</g>
<!-- Node22&#45;&gt;Node17 -->
<g id="edge34" class="edge"><title>Node22&#45;&gt;Node17</title>
<path fill="none" stroke="midnightblue" d="M699.536,-74.6907C719.627,-79.1194 742.791,-84.2254 764.099,-88.9223"/>
<polygon fill="midnightblue" stroke="midnightblue" points="700.159,-71.244 689.64,-72.5093 698.652,-78.0799 700.159,-71.244"/>
</g>
<!-- Node23 -->
<g id="node23" class="node"><title>Node23</title>
<g id="a_node23"><a xlink:href="../../d2/d8d/classprolog_1_1fluents_1_1BlackBoard_aca9281fa2c70090208e6d62d28406480.html#aca9281fa2c70090208e6d62d28406480" target="_top" xlink:title="Adds a Term or Clause to the the blackboard, to be used by Linda out/1 operation. ...">
<polygon fill="none" stroke="black" points="760,-50.5 760,-69.5 907,-69.5 907,-50.5 760,-50.5"/>
<text text-anchor="middle" x="833.5" y="-57.5" font-family="Helvetica,sans-Serif" font-size="10.00">prolog.fluents.BlackBoard.add</text>
</a>
</g>
</g>
<!-- Node22&#45;&gt;Node23 -->
<g id="edge24" class="edge"><title>Node22&#45;&gt;Node23</title>
<path fill="none" stroke="midnightblue" d="M718.393,-61.8404C731.941,-61.6219 746.119,-61.3932 759.695,-61.1743"/>
<polygon fill="midnightblue" stroke="midnightblue" points="718.119,-58.3443 708.177,-62.0052 718.232,-65.3434 718.119,-58.3443"/>
</g>
<!-- Node32 -->
<g id="node32" class="node"><title>Node32</title>
<g id="a_node32"><a xlink:href="../../de/d23/classprolog_1_1fluents_1_1Queue_a1d2f34c76d3ee0eba3dc33a53aead569.html#a1d2f34c76d3ee0eba3dc33a53aead569" target="_top" xlink:title="prolog.fluents.Queue.Queue">
<polygon fill="none" stroke="black" points="764.5,-12.5 764.5,-31.5 902.5,-31.5 902.5,-12.5 764.5,-12.5"/>
<text text-anchor="middle" x="833.5" y="-19.5" font-family="Helvetica,sans-Serif" font-size="10.00">prolog.fluents.Queue.Queue</text>
</a>
</g>
</g>
<!-- Node22&#45;&gt;Node32 -->
<g id="edge35" class="edge"><title>Node22&#45;&gt;Node32</title>
<path fill="none" stroke="midnightblue" d="M699.417,-51.3355C727.853,-45.0673 762.472,-37.4363 789.273,-31.5286"/>
<polygon fill="midnightblue" stroke="midnightblue" points="698.652,-47.9201 689.64,-53.4907 700.159,-54.756 698.652,-47.9201"/>
</g>
<!-- Node24 -->
<g id="node24" class="node"><title>Node24</title>
<g id="a_node24"><a xlink:href="../../d2/d8d/classprolog_1_1fluents_1_1BlackBoard_aac87e5ee52935ab35a1b8fd9ac463945.html#aac87e5ee52935ab35a1b8fd9ac463945" target="_top" xlink:title="prolog.fluents.BlackBoard.addBack">
<polygon fill="none" stroke="black" points="947,-94.5 947,-113.5 1117,-113.5 1117,-94.5 947,-94.5"/>
<text text-anchor="middle" x="1032" y="-101.5" font-family="Helvetica,sans-Serif" font-size="10.00">prolog.fluents.BlackBoard.addBack</text>
</a>
</g>
</g>
<!-- Node23&#45;&gt;Node24 -->
<g id="edge25" class="edge"><title>Node23&#45;&gt;Node24</title>
<path fill="none" stroke="midnightblue" d="M887.127,-71.7841C918.847,-78.8869 958.724,-87.816 988.446,-94.4713"/>
<polygon fill="midnightblue" stroke="midnightblue" points="887.661,-68.3171 877.138,-69.5473 886.131,-75.1479 887.661,-68.3171"/>
</g>
<!-- Node25 -->
<g id="node25" class="node"><title>Node25</title>
<g id="a_node25"><a xlink:href="../../da/dd9/classprolog_1_1fluents_1_1DataBase_a51e4c70bda602ed87135ca094cd64eb2.html#a51e4c70bda602ed87135ca094cd64eb2" target="_top" xlink:title="Adds a Term to the blackboard. ">
<polygon fill="none" stroke="black" points="963,-47.5 963,-66.5 1101,-66.5 1101,-47.5 963,-47.5"/>
<text text-anchor="middle" x="1032" y="-54.5" font-family="Helvetica,sans-Serif" font-size="10.00">prolog.fluents.DataBase.out</text>
</a>
</g>
</g>
<!-- Node23&#45;&gt;Node25 -->
<g id="edge27" class="edge"><title>Node23&#45;&gt;Node25</title>
<path fill="none" stroke="midnightblue" d="M917.497,-58.7329C932.639,-58.5017 948.276,-58.263 962.923,-58.0393"/>
<polygon fill="midnightblue" stroke="midnightblue" points="917.056,-55.2391 907.111,-58.8914 917.163,-62.2383 917.056,-55.2391"/>
</g>
<!-- Node24&#45;&gt;Node19 -->
<g id="edge26" class="edge"><title>Node24&#45;&gt;Node19</title>
<path fill="none" stroke="midnightblue" d="M1084.96,-115.784C1116.27,-122.887 1155.64,-131.816 1184.99,-138.471"/>
<polygon fill="midnightblue" stroke="midnightblue" points="1085.62,-112.346 1075.1,-113.547 1084.07,-119.173 1085.62,-112.346"/>
</g>
<!-- Node26 -->
<g id="node26" class="node"><title>Node26</title>
<g id="a_node26"><a xlink:href="../../da/dd9/classprolog_1_1fluents_1_1DataBase_a7922dc4eb05ca6cccd4c8bb38563814e.html#a7922dc4eb05ca6cccd4c8bb38563814e" target="_top" xlink:title="adds a Clause to the joint Linda and Predicate table ">
<polygon fill="none" stroke="black" points="1158,-88 1158,-118 1298,-118 1298,-88 1158,-88"/>
<text text-anchor="start" x="1166" y="-106" font-family="Helvetica,sans-Serif" font-size="10.00">prolog.fluents.DataBase.add</text>
<text text-anchor="middle" x="1228" y="-95" font-family="Helvetica,sans-Serif" font-size="10.00">Clause</text>
</a>
</g>
</g>
<!-- Node25&#45;&gt;Node26 -->
<g id="edge28" class="edge"><title>Node25&#45;&gt;Node26</title>
<path fill="none" stroke="midnightblue" d="M1083.02,-68.8605C1107.57,-74.6823 1137.42,-81.7594 1163.56,-87.9573"/>
<polygon fill="midnightblue" stroke="midnightblue" points="1083.73,-65.4329 1073.2,-66.5312 1082.12,-72.244 1083.73,-65.4329"/>
</g>
<!-- Node30 -->
<g id="node30" class="node"><title>Node30</title>
<g id="a_node30"><a xlink:href="../../dc/d4a/classprolog_1_1builtins_1_1db__add_a6c55798f7122b37579a971715a7f9ab0.html#a6c55798f7122b37579a971715a7f9ab0" target="_top" xlink:title="prolog.builtins.db\l_add.exec">
<polygon fill="none" stroke="black" points="1183,-39 1183,-69 1273,-69 1273,-39 1183,-39"/>
<text text-anchor="start" x="1191" y="-57" font-family="Helvetica,sans-Serif" font-size="10.00">prolog.builtins.db</text>
<text text-anchor="middle" x="1228" y="-46" font-family="Helvetica,sans-Serif" font-size="10.00">_add.exec</text>
</a>
</g>
</g>
<!-- Node25&#45;&gt;Node30 -->
<g id="edge32" class="edge"><title>Node25&#45;&gt;Node30</title>
<path fill="none" stroke="midnightblue" d="M1111.41,-55.7874C1135.7,-55.4119 1161.6,-55.0114 1182.71,-54.6849"/>
<polygon fill="midnightblue" stroke="midnightblue" points="1111.07,-52.2922 1101.12,-55.9465 1111.18,-59.2914 1111.07,-52.2922"/>
</g>
<!-- Node31 -->
<g id="node31" class="node"><title>Node31</title>
<g id="a_node31"><a xlink:href="../../da/dd9/classprolog_1_1fluents_1_1DataBase_a5f611e8962c4b5fc2fb515048d4ad9dc.html#a5f611e8962c4b5fc2fb515048d4ad9dc" target="_top" xlink:title="Adds a copy of a Term to the blackboard. ">
<polygon fill="none" stroke="black" points="1159,-0.5 1159,-19.5 1297,-19.5 1297,-0.5 1159,-0.5"/>
<text text-anchor="middle" x="1228" y="-7.5" font-family="Helvetica,sans-Serif" font-size="10.00">prolog.fluents.DataBase.out</text>
</a>
</g>
</g>
<!-- Node25&#45;&gt;Node31 -->
<g id="edge33" class="edge"><title>Node25&#45;&gt;Node31</title>
<path fill="none" stroke="midnightblue" d="M1082.05,-45.1162C1114.69,-37.2101 1156.99,-26.9603 1187.47,-19.5776"/>
<polygon fill="midnightblue" stroke="midnightblue" points="1081.15,-41.7326 1072.26,-47.4888 1082.8,-48.5358 1081.15,-41.7326"/>
</g>
<!-- Node27 -->
<g id="node27" class="node"><title>Node27</title>
<g id="a_node27"><a xlink:href="../../da/dd9/classprolog_1_1fluents_1_1DataBase_a6f8041bc2bcb5cdd8a376e81a3dc4dca.html#a6f8041bc2bcb5cdd8a376e81a3dc4dca" target="_top" xlink:title="adds a Clause to the joint Linda and Predicate table ">
<polygon fill="none" stroke="black" points="1339,-88 1339,-118 1498,-118 1498,-88 1339,-88"/>
<text text-anchor="start" x="1347" y="-106" font-family="Helvetica,sans-Serif" font-size="10.00">prolog.fluents.DataBase.process</text>
<text text-anchor="middle" x="1418.5" y="-95" font-family="Helvetica,sans-Serif" font-size="10.00">Clause</text>
</a>
</g>
</g>
<!-- Node26&#45;&gt;Node27 -->
<g id="edge29" class="edge"><title>Node26&#45;&gt;Node27</title>
<path fill="none" stroke="midnightblue" d="M1308.17,-103C1318.31,-103 1328.69,-103 1338.83,-103"/>
<polygon fill="midnightblue" stroke="midnightblue" points="1308.12,-99.5001 1298.12,-103 1308.12,-106.5 1308.12,-99.5001"/>
</g>
<!-- Node28 -->
<g id="node28" class="node"><title>Node28</title>
<g id="a_node28"><a xlink:href="../../da/dd9/classprolog_1_1fluents_1_1DataBase_a83885e10b61d6bf129307d9bf50d93de.html#a83885e10b61d6bf129307d9bf50d93de" target="_top" xlink:title="prolog.fluents.DataBase.apply\l_parser">
<polygon fill="none" stroke="black" points="1534,-86 1534,-116 1682,-116 1682,-86 1534,-86"/>
<text text-anchor="start" x="1542" y="-104" font-family="Helvetica,sans-Serif" font-size="10.00">prolog.fluents.DataBase.apply</text>
<text text-anchor="middle" x="1608" y="-93" font-family="Helvetica,sans-Serif" font-size="10.00">_parser</text>
</a>
</g>
</g>
<!-- Node27&#45;&gt;Node28 -->
<g id="edge30" class="edge"><title>Node27&#45;&gt;Node28</title>
<path fill="none" stroke="midnightblue" d="M1508.24,-102.053C1516.83,-101.962 1525.47,-101.87 1533.88,-101.78"/>
<polygon fill="midnightblue" stroke="midnightblue" points="1508.16,-98.554 1498.2,-102.161 1508.24,-105.554 1508.16,-98.554"/>
</g>
<!-- Node29 -->
<g id="node29" class="node"><title>Node29</title>
<g id="a_node29"><a xlink:href="../../da/dd9/classprolog_1_1fluents_1_1DataBase_af8b26948ded7bba6386b984f463bf166.html#af8b26948ded7bba6386b984f463bf166" target="_top" xlink:title="prolog.fluents.DataBase.stream\lToProg">
<polygon fill="none" stroke="black" points="1718,-86 1718,-116 1873,-116 1873,-86 1718,-86"/>
<text text-anchor="start" x="1726" y="-104" font-family="Helvetica,sans-Serif" font-size="10.00">prolog.fluents.DataBase.stream</text>
<text text-anchor="middle" x="1795.5" y="-93" font-family="Helvetica,sans-Serif" font-size="10.00">ToProg</text>
</a>
</g>
</g>
<!-- Node28&#45;&gt;Node29 -->
<g id="edge31" class="edge"><title>Node28&#45;&gt;Node29</title>
<path fill="none" stroke="midnightblue" d="M1692.06,-101C1700.65,-101 1709.34,-101 1717.86,-101"/>
<polygon fill="midnightblue" stroke="midnightblue" points="1692.05,-97.5001 1682.05,-101 1692.05,-104.5 1692.05,-97.5001"/>
</g>
</g>
</svg>
        <g id="navigator" transform="translate(0 0)" fill="#404254">
                <rect fill="#f2f5e9" fill-opacity="0.5" stroke="#606060" stroke-width=".5" x="0" y="0" width="60" height="60"/>
                <use id="zoomplus" xlink:href="#zoomPlus" x="17" y="9" onmousedown="handleZoom(evt,'in')"/>
                <use id="zoomminus" xlink:href="#zoomMin" x="42" y="9" onmousedown="handleZoom(evt,'out')"/>
                <use id="reset" xlink:href="#resetDef" x="30" y="36" onmousedown="handleReset()"/>
                <g id="arrowUp" xlink:href="#dirArrow" transform="translate(30 24)" onmousedown="handlePan(0,-1)">
                  <use xlink:href="#rim" fill="#404040">
                        <set attributeName="fill" to="#808080" begin="arrowUp.mouseover" end="arrowUp.mouseout"/>
                  </use>
                  <path fill="none" stroke="white" stroke-width="1.5" d="M0,-3.0v7 M-2.5,-0.5L0,-3.0L2.5,-0.5"/>
                </g>
                <g id="arrowRight" xlink:href="#dirArrow" transform="rotate(90) translate(36 -43)" onmousedown="handlePan(1,0)">
                  <use xlink:href="#rim" fill="#404040">
                        <set attributeName="fill" to="#808080" begin="arrowRight.mouseover" end="arrowRight.mouseout"/>
                  </use>
                  <path fill="none" stroke="white" stroke-width="1.5" d="M0,-3.0v7 M-2.5,-0.5L0,-3.0L2.5,-0.5"/>
                </g>
                <g id="arrowDown" xlink:href="#dirArrow" transform="rotate(180) translate(-30 -48)" onmousedown="handlePan(0,1)">
                  <use xlink:href="#rim" fill="#404040">
                        <set attributeName="fill" to="#808080" begin="arrowDown.mouseover" end="arrowDown.mouseout"/>
                  </use>
                  <path fill="none" stroke="white" stroke-width="1.5" d="M0,-3.0v7 M-2.5,-0.5L0,-3.0L2.5,-0.5"/>
                </g>
                <g id="arrowLeft" xlink:href="#dirArrow" transform="rotate(270) translate(-36 17)" onmousedown="handlePan(-1,0)">
                  <use xlink:href="#rim" fill="#404040">
                        <set attributeName="fill" to="#808080" begin="arrowLeft.mouseover" end="arrowLeft.mouseout"/>
                  </use>
                  <path fill="none" stroke="white" stroke-width="1.5" d="M0,-3.0v7 M-2.5,-0.5L0,-3.0L2.5,-0.5"/>
                </g>
        </g>
        <svg viewBox="0 0 15 15" width="100%" height="30px" preserveAspectRatio="xMaxYMin meet">
         <g id="arrow_out" transform="scale(0.3 0.3)">
          <a xlink:href="classprolog_1_1fluents_1_1Queue_adca2003759e9be115f6006eee370209a_adca2003759e9be115f6006eee370209a_icgraph_org.svg" target="_base">
           <rect id="button" ry="5" rx="5" y="6" x="6" height="38" width="38"
                fill="#f2f5e9" fill-opacity="0.5" stroke="#606060" stroke-width="1.0"/>
           <path id="arrow"
             d="M 11.500037,31.436501 C 11.940474,20.09759 22.043105,11.32322 32.158766,21.979434 L 37.068811,17.246167 C 37.068811,17.246167 37.088388,32 37.088388,32 L 22.160133,31.978069 C 22.160133,31.978069 26.997745,27.140456 26.997745,27.140456 C 18.528582,18.264221 13.291696,25.230495 11.500037,31.436501 z"
             style="fill:#404040;"/>
          </a>
         </g>
        </svg>
</svg>
