<?xml version="1.0" encoding="UTF-8" standalone="no"?>
<!DOCTYPE svg PUBLIC "-//W3C//DTD SVG 1.1//EN"
 "http://www.w3.org/Graphics/SVG/1.1/DTD/svg11.dtd">
<!-- Generated by graphviz version 2.38.0 (20140413.2041)
 -->
<!-- Title: prolog.fluents.Queue.toEnumeration Pages: 1 -->
<svg width="1017pt" height="171pt"
 viewBox="0.00 0.00 1017.00 171.00" xmlns="http://www.w3.org/2000/svg" xmlns:xlink="http://www.w3.org/1999/xlink">
<g id="graph0" class="graph" transform="scale(1 1) rotate(0) translate(4 167)">
<title>prolog.fluents.Queue.toEnumeration</title>
<!-- Node1 -->
<g id="node1" class="node"><title>Node1</title>
<polygon fill="#bfbfbf" stroke="black" points="0,-61 0,-80 173,-80 173,-61 0,-61"/>
<text text-anchor="middle" x="86.5" y="-68" font-family="Helvetica,sans-Serif" font-size="10.00">prolog.fluents.Queue.toEnumeration</text>
</g>
<!-- Node2 -->
<g id="node2" class="node"><title>Node2</title>
<g id="a_node2"><a xlink:href="../../da/dd9/classprolog_1_1fluents_1_1DataBase_a610cc1f35df4467fbb1fac1052091915.html#a610cc1f35df4467fbb1fac1052091915" target="_top" xlink:title="prolog.fluents.DataBase.all0">
<polygon fill="none" stroke="black" points="210.5,-94 210.5,-113 350.5,-113 350.5,-94 210.5,-94"/>
<text text-anchor="middle" x="280.5" y="-101" font-family="Helvetica,sans-Serif" font-size="10.00">prolog.fluents.DataBase.all0</text>
</a>
</g>
</g>
<!-- Node1&#45;&gt;Node2 -->
<g id="edge1" class="edge"><title>Node1&#45;&gt;Node2</title>
<path fill="none" stroke="midnightblue" d="M152.844,-81.7311C175.96,-85.704 201.724,-90.1322 223.949,-93.9521"/>
<polygon fill="midnightblue" stroke="midnightblue" points="153.225,-78.2453 142.777,-80.0007 152.039,-85.1441 153.225,-78.2453"/>
</g>
<!-- Node8 -->
<g id="node8" class="node"><title>Node8</title>
<g id="a_node8"><a xlink:href="../../da/dd9/classprolog_1_1fluents_1_1DataBase_a2943c1694ea86572574a57f1a31f11c2.html#a2943c1694ea86572574a57f1a31f11c2" target="_top" xlink:title="prolog.fluents.DataBase.pred\l_to_string">
<polygon fill="none" stroke="black" points="209,-22.5 209,-52.5 352,-52.5 352,-22.5 209,-22.5"/>
<text text-anchor="start" x="217" y="-40.5" font-family="Helvetica,sans-Serif" font-size="10.00">prolog.fluents.DataBase.pred</text>
<text text-anchor="middle" x="280.5" y="-29.5" font-family="Helvetica,sans-Serif" font-size="10.00">_to_string</text>
</a>
</g>
</g>
<!-- Node1&#45;&gt;Node8 -->
<g id="edge8" class="edge"><title>Node1&#45;&gt;Node8</title>
<path fill="none" stroke="midnightblue" d="M152.642,-59.3038C170.736,-56.1938 190.467,-52.8026 208.859,-49.6414"/>
<polygon fill="midnightblue" stroke="midnightblue" points="152.039,-55.8559 142.777,-60.9993 153.225,-62.7547 152.039,-55.8559"/>
</g>
<!-- Node3 -->
<g id="node3" class="node"><title>Node3</title>
<g id="a_node3"><a xlink:href="../../da/dd9/classprolog_1_1fluents_1_1DataBase_a4b4a68ddd60d87276cd7f9befd237ad9.html#a4b4a68ddd60d87276cd7f9befd237ad9" target="_top" xlink:title="prolog.fluents.DataBase.all1">
<polygon fill="none" stroke="black" points="392.5,-132 392.5,-151 532.5,-151 532.5,-132 392.5,-132"/>
<text text-anchor="middle" x="462.5" y="-139" font-family="Helvetica,sans-Serif" font-size="10.00">prolog.fluents.DataBase.all1</text>
</a>
</g>
</g>
<!-- Node2&#45;&gt;Node3 -->
<g id="edge2" class="edge"><title>Node2&#45;&gt;Node3</title>
<path fill="none" stroke="midnightblue" d="M336.831,-115.181C362.357,-120.57 392.276,-126.886 416.405,-131.98"/>
<polygon fill="midnightblue" stroke="midnightblue" points="337.429,-111.73 326.922,-113.089 335.983,-118.579 337.429,-111.73"/>
</g>
<!-- Node4 -->
<g id="node4" class="node"><title>Node4</title>
<g id="a_node4"><a xlink:href="../../da/dd9/classprolog_1_1fluents_1_1DataBase_a16bb9f309e161ca656d8aef483ba7e5f.html#a16bb9f309e161ca656d8aef483ba7e5f" target="_top" xlink:title="prolog.fluents.DataBase.all2">
<polygon fill="none" stroke="black" points="573,-113 573,-132 713,-132 713,-113 573,-113"/>
<text text-anchor="middle" x="643" y="-120" font-family="Helvetica,sans-Serif" font-size="10.00">prolog.fluents.DataBase.all2</text>
</a>
</g>
</g>
<!-- Node2&#45;&gt;Node4 -->
<g id="edge7" class="edge"><title>Node2&#45;&gt;Node4</title>
<path fill="none" stroke="midnightblue" d="M360.935,-107.687C424.349,-111.029 512.303,-115.664 572.846,-118.855"/>
<polygon fill="midnightblue" stroke="midnightblue" points="360.752,-104.172 350.581,-107.141 360.383,-111.162 360.752,-104.172"/>
</g>
<!-- Node3&#45;&gt;Node4 -->
<g id="edge3" class="edge"><title>Node3&#45;&gt;Node4</title>
<path fill="none" stroke="midnightblue" d="M542.544,-133.086C552.654,-132.01 562.941,-130.915 572.876,-129.858"/>
<polygon fill="midnightblue" stroke="midnightblue" points="542.086,-129.615 532.513,-134.154 542.827,-136.576 542.086,-129.615"/>
</g>
<!-- Node5 -->
<g id="node5" class="node"><title>Node5</title>
<g id="a_node5"><a xlink:href="../../da/dd9/classprolog_1_1fluents_1_1DataBase_ac93f1bf928f7e64f000726f764891ea9.html#ac93f1bf928f7e64f000726f764891ea9" target="_top" xlink:title="Returns a (possibly empty) list of matching Term objects. ">
<polygon fill="none" stroke="black" points="749,-113 749,-132 883,-132 883,-113 749,-113"/>
<text text-anchor="middle" x="816" y="-120" font-family="Helvetica,sans-Serif" font-size="10.00">prolog.fluents.DataBase.all</text>
</a>
</g>
</g>
<!-- Node4&#45;&gt;Node5 -->
<g id="edge4" class="edge"><title>Node4&#45;&gt;Node5</title>
<path fill="none" stroke="midnightblue" d="M723.074,-122.5C731.656,-122.5 740.325,-122.5 748.733,-122.5"/>
<polygon fill="midnightblue" stroke="midnightblue" points="723.059,-119 713.059,-122.5 723.059,-126 723.059,-119"/>
</g>
<!-- Node6 -->
<g id="node6" class="node"><title>Node6</title>
<g id="a_node6"><a xlink:href="../../df/dfb/classprolog_1_1builtins_1_1db__collect_a2c65ced6ccab65917066acd22e05c2ee.html#a2c65ced6ccab65917066acd22e05c2ee" target="_top" xlink:title="prolog.builtins.db\l_collect.exec">
<polygon fill="none" stroke="black" points="919,-132.5 919,-162.5 1009,-162.5 1009,-132.5 919,-132.5"/>
<text text-anchor="start" x="927" y="-150.5" font-family="Helvetica,sans-Serif" font-size="10.00">prolog.builtins.db</text>
<text text-anchor="middle" x="964" y="-139.5" font-family="Helvetica,sans-Serif" font-size="10.00">_collect.exec</text>
</a>
</g>
</g>
<!-- Node5&#45;&gt;Node6 -->
<g id="edge5" class="edge"><title>Node5&#45;&gt;Node6</title>
<path fill="none" stroke="midnightblue" d="M882.786,-133.765C895.009,-135.858 907.505,-137.997 918.884,-139.946"/>
<polygon fill="midnightblue" stroke="midnightblue" points="883.06,-130.261 872.613,-132.023 881.879,-137.16 883.06,-130.261"/>
</g>
<!-- Node7 -->
<g id="node7" class="node"><title>Node7</title>
<g id="a_node7"><a xlink:href="../../de/db4/classprolog_1_1builtins_1_1at__key_acf52ce169f8e3b064dbca64fcf06fcab.html#acf52ce169f8e3b064dbca64fcf06fcab" target="_top" xlink:title="prolog.builtins.at\l_key.exec">
<polygon fill="none" stroke="black" points="920,-83.5 920,-113.5 1008,-113.5 1008,-83.5 920,-83.5"/>
<text text-anchor="start" x="928" y="-101.5" font-family="Helvetica,sans-Serif" font-size="10.00">prolog.builtins.at</text>
<text text-anchor="middle" x="964" y="-90.5" font-family="Helvetica,sans-Serif" font-size="10.00">_key.exec</text>
</a>
</g>
</g>
<!-- Node5&#45;&gt;Node7 -->
<g id="edge6" class="edge"><title>Node5&#45;&gt;Node7</title>
<path fill="none" stroke="midnightblue" d="M885.03,-111.317C896.908,-109.364 908.962,-107.383 919.926,-105.581"/>
<polygon fill="midnightblue" stroke="midnightblue" points="884.422,-107.87 875.123,-112.946 885.558,-114.777 884.422,-107.87"/>
</g>
<!-- Node9 -->
<g id="node9" class="node"><title>Node9</title>
<g id="a_node9"><a xlink:href="../../d8/d56/classprolog_1_1builtins_1_1pred__to__string_a444ec2879d6ff36fff485e9fea05c43c.html#a444ec2879d6ff36fff485e9fea05c43c" target="_top" xlink:title="prolog.builtins.pred\l_to_string.exec">
<polygon fill="none" stroke="black" points="413.5,-44.5 413.5,-74.5 511.5,-74.5 511.5,-44.5 413.5,-44.5"/>
<text text-anchor="start" x="421.5" y="-62.5" font-family="Helvetica,sans-Serif" font-size="10.00">prolog.builtins.pred</text>
<text text-anchor="middle" x="462.5" y="-51.5" font-family="Helvetica,sans-Serif" font-size="10.00">_to_string.exec</text>
</a>
</g>
</g>
<!-- Node8&#45;&gt;Node9 -->
<g id="edge9" class="edge"><title>Node8&#45;&gt;Node9</title>
<path fill="none" stroke="midnightblue" d="M362.301,-47.3757C379.71,-49.5035 397.583,-51.688 413.278,-53.6062"/>
<polygon fill="midnightblue" stroke="midnightblue" points="362.475,-43.871 352.124,-46.1318 361.626,-50.8193 362.475,-43.871"/>
</g>
<!-- Node10 -->
<g id="node10" class="node"><title>Node10</title>
<g id="a_node10"><a xlink:href="../../da/dd9/classprolog_1_1fluents_1_1DataBase_abee194bd51b63bf7758b4ae2b2795b04.html#abee194bd51b63bf7758b4ae2b2795b04" target="_top" xlink:title="Returns a formatted String representation of this PrologBlackboard object. ">
<polygon fill="none" stroke="black" points="388,-6 388,-25 537,-25 537,-6 388,-6"/>
<text text-anchor="middle" x="462.5" y="-13" font-family="Helvetica,sans-Serif" font-size="10.00">prolog.fluents.DataBase.pprint</text>
</a>
</g>
</g>
<!-- Node8&#45;&gt;Node10 -->
<g id="edge10" class="edge"><title>Node8&#45;&gt;Node10</title>
<path fill="none" stroke="midnightblue" d="M360.683,-21.1156C369.706,-19.9398 378.877,-18.8377 387.825,-17.8545"/>
<polygon fill="midnightblue" stroke="midnightblue" points="360.023,-17.6727 350.578,-22.4719 360.955,-24.6104 360.023,-17.6727"/>
</g>
<!-- Node10&#45;&gt;Node8 -->
<g id="edge12" class="edge"><title>Node10&#45;&gt;Node8</title>
<path fill="none" stroke="midnightblue" d="M417.767,-26.7299C398.051,-29.9493 374.266,-33.0977 352.124,-35.4772"/>
<polygon fill="midnightblue" stroke="midnightblue" points="418.405,-30.1717 427.676,-25.0436 417.231,-23.271 418.405,-30.1717"/>
</g>
<!-- Node11 -->
<g id="node11" class="node"><title>Node11</title>
<g id="a_node11"><a xlink:href="../../d7/d12/classprolog_1_1builtins_1_1db__to__string_a9ce40787f8196bff94e7b1393e0dc51b.html#a9ce40787f8196bff94e7b1393e0dc51b" target="_top" xlink:title="prolog.builtins.db\l_to_string.exec">
<polygon fill="none" stroke="black" points="598,-0.5 598,-30.5 688,-30.5 688,-0.5 598,-0.5"/>
<text text-anchor="start" x="606" y="-18.5" font-family="Helvetica,sans-Serif" font-size="10.00">prolog.builtins.db</text>
<text text-anchor="middle" x="643" y="-7.5" font-family="Helvetica,sans-Serif" font-size="10.00">_to_string.exec</text>
</a>
</g>
</g>
<!-- Node10&#45;&gt;Node11 -->
<g id="edge11" class="edge"><title>Node10&#45;&gt;Node11</title>
<path fill="none" stroke="midnightblue" d="M547.368,-15.5C564.84,-15.5 582.588,-15.5 597.921,-15.5"/>
<polygon fill="midnightblue" stroke="midnightblue" points="547.133,-12.0001 537.133,-15.5 547.133,-19.0001 547.133,-12.0001"/>
</g>
</g>
</svg>
