<?xml version="1.0" encoding="UTF-8" standalone="no"?>
<!DOCTYPE svg PUBLIC "-//W3C//DTD SVG 1.1//EN"
 "http://www.w3.org/Graphics/SVG/1.1/DTD/svg11.dtd">
<!-- Generated by graphviz version 2.38.0 (20140413.2041)
 -->
<!-- Title: prolog.terms.Var.name Pages: 1 -->
<svg width="2113pt" height="319pt"
 viewBox="0.00 0.00 2113.00 318.50" xmlns="http://www.w3.org/2000/svg" xmlns:xlink="http://www.w3.org/1999/xlink">
<g id="graph0" class="graph" transform="scale(1 1) rotate(0) translate(4 314.5)">
<title>prolog.terms.Var.name</title>
<!-- Node1 -->
<g id="node1" class="node"><title>Node1</title>
<polygon fill="#bfbfbf" stroke="black" points="0,-114.5 0,-133.5 116,-133.5 116,-114.5 0,-114.5"/>
<text text-anchor="middle" x="58" y="-121.5" font-family="Helvetica,sans-Serif" font-size="10.00">prolog.terms.Var.name</text>
</g>
<!-- Node2 -->
<g id="node2" class="node"><title>Node2</title>
<g id="a_node2"><a xlink:href="../../d1/d12/classprolog_1_1terms_1_1Var_acfca7d3a30509a6a0761be57e408cfad.html#acfca7d3a30509a6a0761be57e408cfad" target="_top" xlink:title="prolog.terms.Var.toString">
<polygon fill="none" stroke="black" points="152,-114.5 152,-133.5 277,-133.5 277,-114.5 152,-114.5"/>
<text text-anchor="middle" x="214.5" y="-121.5" font-family="Helvetica,sans-Serif" font-size="10.00">prolog.terms.Var.toString</text>
</a>
</g>
</g>
<!-- Node1&#45;&gt;Node2 -->
<g id="edge1" class="edge"><title>Node1&#45;&gt;Node2</title>
<path fill="none" stroke="midnightblue" d="M126.367,-124C134.88,-124 143.556,-124 151.973,-124"/>
<polygon fill="midnightblue" stroke="midnightblue" points="126.091,-120.5 116.091,-124 126.091,-127.5 126.091,-120.5"/>
</g>
<!-- Node3 -->
<g id="node3" class="node"><title>Node3</title>
<g id="a_node3"><a xlink:href="../../d9/d79/classprolog_1_1io_1_1Lexer_acdaa35637088cc7ae8decb0f6e0f8caa.html#acdaa35637088cc7ae8decb0f6e0f8caa" target="_top" xlink:title="prolog.io.Lexer.make_var">
<polygon fill="none" stroke="black" points="313,-114.5 313,-133.5 439,-133.5 439,-114.5 313,-114.5"/>
<text text-anchor="middle" x="376" y="-121.5" font-family="Helvetica,sans-Serif" font-size="10.00">prolog.io.Lexer.make_var</text>
</a>
</g>
</g>
<!-- Node2&#45;&gt;Node3 -->
<g id="edge2" class="edge"><title>Node2&#45;&gt;Node3</title>
<path fill="none" stroke="midnightblue" d="M287.185,-124C295.789,-124 304.52,-124 312.971,-124"/>
<polygon fill="midnightblue" stroke="midnightblue" points="287.167,-120.5 277.167,-124 287.167,-127.5 287.167,-120.5"/>
</g>
<!-- Node4 -->
<g id="node4" class="node"><title>Node4</title>
<g id="a_node4"><a xlink:href="../../d9/d79/classprolog_1_1io_1_1Lexer_a9fbdd67572706c48a026047f818f2e7a.html#a9fbdd67572706c48a026047f818f2e7a" target="_top" xlink:title="prolog.io.Lexer.getWord">
<polygon fill="none" stroke="black" points="475,-114.5 475,-133.5 595,-133.5 595,-114.5 475,-114.5"/>
<text text-anchor="middle" x="535" y="-121.5" font-family="Helvetica,sans-Serif" font-size="10.00">prolog.io.Lexer.getWord</text>
</a>
</g>
</g>
<!-- Node3&#45;&gt;Node4 -->
<g id="edge3" class="edge"><title>Node3&#45;&gt;Node4</title>
<path fill="none" stroke="midnightblue" d="M449.129,-124C457.777,-124 466.528,-124 474.96,-124"/>
<polygon fill="midnightblue" stroke="midnightblue" points="449.051,-120.5 439.051,-124 449.051,-127.5 449.051,-120.5"/>
</g>
<!-- Node5 -->
<g id="node5" class="node"><title>Node5</title>
<g id="a_node5"><a xlink:href="../../d9/d79/classprolog_1_1io_1_1Lexer_af90567b8e92b07af09c8f60a587d8404.html#af90567b8e92b07af09c8f60a587d8404" target="_top" xlink:title="prolog.io.Lexer.next">
<polygon fill="none" stroke="black" points="631,-114.5 631,-133.5 733,-133.5 733,-114.5 631,-114.5"/>
<text text-anchor="middle" x="682" y="-121.5" font-family="Helvetica,sans-Serif" font-size="10.00">prolog.io.Lexer.next</text>
</a>
</g>
</g>
<!-- Node4&#45;&gt;Node5 -->
<g id="edge4" class="edge"><title>Node4&#45;&gt;Node5</title>
<path fill="none" stroke="midnightblue" d="M605.657,-124C614.115,-124 622.626,-124 630.726,-124"/>
<polygon fill="midnightblue" stroke="midnightblue" points="605.395,-120.5 595.395,-124 605.395,-127.5 605.395,-120.5"/>
</g>
<!-- Node6 -->
<g id="node6" class="node"><title>Node6</title>
<g id="a_node6"><a xlink:href="../../d7/df1/classprolog_1_1io_1_1Parser_a65d208b0e30e3ff19d769fbb3b0f7247.html#a65d208b0e30e3ff19d769fbb3b0f7247" target="_top" xlink:title="prolog.io.Parser.getArgs">
<polygon fill="none" stroke="black" points="939.5,-0.5 939.5,-19.5 1061.5,-19.5 1061.5,-0.5 939.5,-0.5"/>
<text text-anchor="middle" x="1000.5" y="-7.5" font-family="Helvetica,sans-Serif" font-size="10.00">prolog.io.Parser.getArgs</text>
</a>
</g>
</g>
<!-- Node5&#45;&gt;Node6 -->
<g id="edge5" class="edge"><title>Node5&#45;&gt;Node6</title>
<path fill="none" stroke="midnightblue" d="M694.462,-105.779C708.956,-84.5015 736.04,-50.1636 769,-34 822.283,-7.87043 890.685,-3.88373 939.096,-5.19804"/>
<polygon fill="midnightblue" stroke="midnightblue" points="691.451,-103.988 688.877,-114.266 697.298,-107.837 691.451,-103.988"/>
</g>
<!-- Node8 -->
<g id="node8" class="node"><title>Node8</title>
<g id="a_node8"><a xlink:href="../../d7/df1/classprolog_1_1io_1_1Parser_aa7e461fd858ff34bac99d032f61e52da.html#aa7e461fd858ff34bac99d032f61e52da" target="_top" xlink:title="prolog.io.Parser.getConjCont">
<polygon fill="none" stroke="black" points="929,-190.5 929,-209.5 1072,-209.5 1072,-190.5 929,-190.5"/>
<text text-anchor="middle" x="1000.5" y="-197.5" font-family="Helvetica,sans-Serif" font-size="10.00">prolog.io.Parser.getConjCont</text>
</a>
</g>
</g>
<!-- Node5&#45;&gt;Node8 -->
<g id="edge7" class="edge"><title>Node5&#45;&gt;Node8</title>
<path fill="none" stroke="midnightblue" d="M732.817,-135.962C795.539,-151.024 902.039,-176.597 959.649,-190.431"/>
<polygon fill="midnightblue" stroke="midnightblue" points="733.305,-132.48 722.764,-133.548 731.671,-139.287 733.305,-132.48"/>
</g>
<!-- Node9 -->
<g id="node9" class="node"><title>Node9</title>
<g id="a_node9"><a xlink:href="../../d7/df1/classprolog_1_1io_1_1Parser_a79322090cfbd908b02c83db6c65806d2.html#a79322090cfbd908b02c83db6c65806d2" target="_top" xlink:title="prolog.io.Parser.readClause\lOrEOF">
<polygon fill="none" stroke="black" points="1108,-201 1108,-231 1245,-231 1245,-201 1108,-201"/>
<text text-anchor="start" x="1116" y="-219" font-family="Helvetica,sans-Serif" font-size="10.00">prolog.io.Parser.readClause</text>
<text text-anchor="middle" x="1176.5" y="-208" font-family="Helvetica,sans-Serif" font-size="10.00">OrEOF</text>
</a>
</g>
</g>
<!-- Node5&#45;&gt;Node9 -->
<g id="edge30" class="edge"><title>Node5&#45;&gt;Node9</title>
<path fill="none" stroke="midnightblue" d="M705.627,-139.285C722.51,-150.153 746.455,-164.458 769,-174 837.027,-202.793 855.823,-208.905 929,-219 991.959,-227.685 1008.45,-219.921 1072,-219 1083.59,-218.832 1095.92,-218.558 1107.86,-218.243"/>
<polygon fill="midnightblue" stroke="midnightblue" points="707.311,-136.205 697.028,-133.654 703.476,-142.06 707.311,-136.205"/>
</g>
<!-- Node10 -->
<g id="node10" class="node"><title>Node10</title>
<g id="a_node10"><a xlink:href="../../d7/df1/classprolog_1_1io_1_1Parser_ad0255f716753ec63c0f4e7cf9a8d2d38.html#ad0255f716753ec63c0f4e7cf9a8d2d38" target="_top" xlink:title="Main Parser interface: reads a clause together with variable name information. ">
<polygon fill="none" stroke="black" points="1281,-236.5 1281,-255.5 1418,-255.5 1418,-236.5 1281,-236.5"/>
<text text-anchor="middle" x="1349.5" y="-243.5" font-family="Helvetica,sans-Serif" font-size="10.00">prolog.io.Parser.readClause</text>
</a>
</g>
</g>
<!-- Node5&#45;&gt;Node10 -->
<g id="edge29" class="edge"><title>Node5&#45;&gt;Node10</title>
<path fill="none" stroke="midnightblue" d="M695.844,-141.812C710.996,-161.389 738.072,-192.156 769,-208 944.878,-298.102 1191.14,-272.51 1296.91,-255.565"/>
<polygon fill="midnightblue" stroke="midnightblue" points="698.555,-139.593 689.75,-133.699 692.957,-143.797 698.555,-139.593"/>
</g>
<!-- Node20 -->
<g id="node20" class="node"><title>Node20</title>
<g id="a_node20"><a xlink:href="../../d7/df1/classprolog_1_1io_1_1Parser_ab9dcde7b1480cd18c6a21e5c88e1a2bd.html#ab9dcde7b1480cd18c6a21e5c88e1a2bd" target="_top" xlink:title="prolog.io.Parser.getList">
<polygon fill="none" stroke="black" points="1118,-67.5 1118,-86.5 1235,-86.5 1235,-67.5 1118,-67.5"/>
<text text-anchor="middle" x="1176.5" y="-74.5" font-family="Helvetica,sans-Serif" font-size="10.00">prolog.io.Parser.getList</text>
</a>
</g>
</g>
<!-- Node5&#45;&gt;Node20 -->
<g id="edge19" class="edge"><title>Node5&#45;&gt;Node20</title>
<path fill="none" stroke="midnightblue" d="M712.203,-109.986C728.56,-102.684 749.529,-94.2127 769,-89 899.428,-54.0833 937.135,-60.4999 1072,-67 1086.88,-67.717 1102.91,-69.0104 1117.82,-70.4342"/>
<polygon fill="midnightblue" stroke="midnightblue" points="710.309,-107.003 702.668,-114.343 713.218,-113.37 710.309,-107.003"/>
</g>
<!-- Node21 -->
<g id="node21" class="node"><title>Node21</title>
<g id="a_node21"><a xlink:href="../../d7/df1/classprolog_1_1io_1_1Parser_aa2150bc0ca63050e058a5041b719dd7b.html#aa2150bc0ca63050e058a5041b719dd7b" target="_top" xlink:title="prolog.io.Parser.getListCont">
<polygon fill="none" stroke="black" points="931.5,-76.5 931.5,-95.5 1069.5,-95.5 1069.5,-76.5 931.5,-76.5"/>
<text text-anchor="middle" x="1000.5" y="-83.5" font-family="Helvetica,sans-Serif" font-size="10.00">prolog.io.Parser.getListCont</text>
</a>
</g>
</g>
<!-- Node5&#45;&gt;Node21 -->
<g id="edge21" class="edge"><title>Node5&#45;&gt;Node21</title>
<path fill="none" stroke="midnightblue" d="M730.985,-112.197C743.313,-109.496 756.597,-106.872 769,-105 823.294,-96.8031 885.355,-91.9418 931.393,-89.1915"/>
<polygon fill="midnightblue" stroke="midnightblue" points="729.882,-108.857 720.895,-114.469 731.42,-115.686 729.882,-108.857"/>
</g>
<!-- Node22 -->
<g id="node22" class="node"><title>Node22</title>
<g id="a_node22"><a xlink:href="../../d7/df1/classprolog_1_1io_1_1Parser_ae301f1d607ff1269917a097eda95199a.html#ae301f1d607ff1269917a097eda95199a" target="_top" xlink:title="prolog.io.Parser.getTerm">
<polygon fill="none" stroke="black" points="769,-114.5 769,-133.5 893,-133.5 893,-114.5 769,-114.5"/>
<text text-anchor="middle" x="831" y="-121.5" font-family="Helvetica,sans-Serif" font-size="10.00">prolog.io.Parser.getTerm</text>
</a>
</g>
</g>
<!-- Node5&#45;&gt;Node22 -->
<g id="edge23" class="edge"><title>Node5&#45;&gt;Node22</title>
<path fill="none" stroke="midnightblue" d="M743.312,-124C751.744,-124 760.415,-124 768.861,-124"/>
<polygon fill="midnightblue" stroke="midnightblue" points="743.178,-120.5 733.178,-124 743.178,-127.5 743.178,-120.5"/>
</g>
<!-- Node7 -->
<g id="node7" class="node"><title>Node7</title>
<g id="a_node7"><a xlink:href="../../d7/df1/classprolog_1_1io_1_1Parser_a2266a192306644bbc8e9bb4b4839708e.html#a2266a192306644bbc8e9bb4b4839708e" target="_top" xlink:title="prolog.io.Parser.getTerm">
<polygon fill="none" stroke="black" points="1287.5,-39.5 1287.5,-58.5 1411.5,-58.5 1411.5,-39.5 1287.5,-39.5"/>
<text text-anchor="middle" x="1349.5" y="-46.5" font-family="Helvetica,sans-Serif" font-size="10.00">prolog.io.Parser.getTerm</text>
</a>
</g>
</g>
<!-- Node6&#45;&gt;Node7 -->
<g id="edge6" class="edge"><title>Node6&#45;&gt;Node7</title>
<path fill="none" stroke="midnightblue" d="M1071.84,-17.9055C1135.13,-25.019 1227.18,-35.3647 1287.44,-42.1375"/>
<polygon fill="midnightblue" stroke="midnightblue" points="1071.88,-14.3876 1061.55,-16.7488 1071.09,-21.3438 1071.88,-14.3876"/>
</g>
<!-- Node8&#45;&gt;Node9 -->
<g id="edge8" class="edge"><title>Node8&#45;&gt;Node9</title>
<path fill="none" stroke="midnightblue" d="M1082.12,-207.413C1090.77,-208.208 1099.5,-209.012 1107.98,-209.791"/>
<polygon fill="midnightblue" stroke="midnightblue" points="1082.3,-203.915 1072.02,-206.485 1081.66,-210.886 1082.3,-203.915"/>
</g>
<!-- Node9&#45;&gt;Node10 -->
<g id="edge9" class="edge"><title>Node9&#45;&gt;Node10</title>
<path fill="none" stroke="midnightblue" d="M1255.13,-229.619C1268.36,-231.941 1281.85,-234.306 1294.3,-236.492"/>
<polygon fill="midnightblue" stroke="midnightblue" points="1255.54,-226.138 1245.08,-227.857 1254.33,-233.032 1255.54,-226.138"/>
</g>
<!-- Node11 -->
<g id="node11" class="node"><title>Node11</title>
<g id="a_node11"><a xlink:href="../../da/dd9/classprolog_1_1fluents_1_1DataBase_a83885e10b61d6bf129307d9bf50d93de.html#a83885e10b61d6bf129307d9bf50d93de" target="_top" xlink:title="prolog.fluents.DataBase.apply\l_parser">
<polygon fill="none" stroke="black" points="1454,-280 1454,-310 1602,-310 1602,-280 1454,-280"/>
<text text-anchor="start" x="1462" y="-298" font-family="Helvetica,sans-Serif" font-size="10.00">prolog.fluents.DataBase.apply</text>
<text text-anchor="middle" x="1528" y="-287" font-family="Helvetica,sans-Serif" font-size="10.00">_parser</text>
</a>
</g>
</g>
<!-- Node10&#45;&gt;Node11 -->
<g id="edge10" class="edge"><title>Node10&#45;&gt;Node11</title>
<path fill="none" stroke="midnightblue" d="M1394.72,-258.278C1418.41,-264.854 1447.79,-273.009 1472.84,-279.963"/>
<polygon fill="midnightblue" stroke="midnightblue" points="1395.52,-254.867 1384.95,-255.564 1393.65,-261.612 1395.52,-254.867"/>
</g>
<!-- Node13 -->
<g id="node13" class="node"><title>Node13</title>
<g id="a_node13"><a xlink:href="../../d7/df1/classprolog_1_1io_1_1Parser_acd7f700bcb96620b8c6770c2fcae5802.html#acd7f700bcb96620b8c6770c2fcae5802" target="_top" xlink:title="prolog.io.Parser.clsFrom\lString">
<polygon fill="none" stroke="black" points="1466.5,-231 1466.5,-261 1589.5,-261 1589.5,-231 1466.5,-231"/>
<text text-anchor="start" x="1474.5" y="-249" font-family="Helvetica,sans-Serif" font-size="10.00">prolog.io.Parser.clsFrom</text>
<text text-anchor="middle" x="1528" y="-238" font-family="Helvetica,sans-Serif" font-size="10.00">String</text>
</a>
</g>
</g>
<!-- Node10&#45;&gt;Node13 -->
<g id="edge12" class="edge"><title>Node10&#45;&gt;Node13</title>
<path fill="none" stroke="midnightblue" d="M1428.37,-246C1441.1,-246 1454.13,-246 1466.37,-246"/>
<polygon fill="midnightblue" stroke="midnightblue" points="1428.23,-242.5 1418.23,-246 1428.23,-249.5 1428.23,-242.5"/>
</g>
<!-- Node19 -->
<g id="node19" class="node"><title>Node19</title>
<g id="a_node19"><a xlink:href="../../d4/d09/classprolog_1_1io_1_1ClauseReader_a805e9a5ebc401e1099f39af9b3f6fb47.html#a805e9a5ebc401e1099f39af9b3f6fb47" target="_top" xlink:title="prolog.io.ClauseReader.get\lElement">
<polygon fill="none" stroke="black" points="1460.5,-182 1460.5,-212 1595.5,-212 1595.5,-182 1460.5,-182"/>
<text text-anchor="start" x="1468.5" y="-200" font-family="Helvetica,sans-Serif" font-size="10.00">prolog.io.ClauseReader.get</text>
<text text-anchor="middle" x="1528" y="-189" font-family="Helvetica,sans-Serif" font-size="10.00">Element</text>
</a>
</g>
</g>
<!-- Node10&#45;&gt;Node19 -->
<g id="edge18" class="edge"><title>Node10&#45;&gt;Node19</title>
<path fill="none" stroke="midnightblue" d="M1394.72,-233.722C1418.41,-227.146 1447.79,-218.991 1472.84,-212.037"/>
<polygon fill="midnightblue" stroke="midnightblue" points="1393.65,-230.388 1384.95,-236.436 1395.52,-237.133 1393.65,-230.388"/>
</g>
<!-- Node12 -->
<g id="node12" class="node"><title>Node12</title>
<g id="a_node12"><a xlink:href="../../da/dd9/classprolog_1_1fluents_1_1DataBase_af8b26948ded7bba6386b984f463bf166.html#af8b26948ded7bba6386b984f463bf166" target="_top" xlink:title="prolog.fluents.DataBase.stream\lToProg">
<polygon fill="none" stroke="black" points="1638,-280 1638,-310 1793,-310 1793,-280 1638,-280"/>
<text text-anchor="start" x="1646" y="-298" font-family="Helvetica,sans-Serif" font-size="10.00">prolog.fluents.DataBase.stream</text>
<text text-anchor="middle" x="1715.5" y="-287" font-family="Helvetica,sans-Serif" font-size="10.00">ToProg</text>
</a>
</g>
</g>
<!-- Node11&#45;&gt;Node12 -->
<g id="edge11" class="edge"><title>Node11&#45;&gt;Node12</title>
<path fill="none" stroke="midnightblue" d="M1612.06,-295C1620.65,-295 1629.34,-295 1637.86,-295"/>
<polygon fill="midnightblue" stroke="midnightblue" points="1612.05,-291.5 1602.05,-295 1612.05,-298.5 1612.05,-291.5"/>
</g>
<!-- Node14 -->
<g id="node14" class="node"><title>Node14</title>
<g id="a_node14"><a xlink:href="../../d6/dc4/classprolog_1_1terms_1_1Clause_a253e30217e7c206f42b947ba0dc7d754.html#a253e30217e7c206f42b947ba0dc7d754" target="_top" xlink:title="Extracts a clause from its String representation. ">
<polygon fill="none" stroke="black" points="1647.5,-231 1647.5,-261 1783.5,-261 1783.5,-231 1647.5,-231"/>
<text text-anchor="start" x="1655.5" y="-249" font-family="Helvetica,sans-Serif" font-size="10.00">prolog.terms.Clause.clause</text>
<text text-anchor="middle" x="1715.5" y="-238" font-family="Helvetica,sans-Serif" font-size="10.00">FromString</text>
</a>
</g>
</g>
<!-- Node13&#45;&gt;Node14 -->
<g id="edge13" class="edge"><title>Node13&#45;&gt;Node14</title>
<path fill="none" stroke="midnightblue" d="M1599.82,-246C1615.37,-246 1631.8,-246 1647.21,-246"/>
<polygon fill="midnightblue" stroke="midnightblue" points="1599.74,-242.5 1589.74,-246 1599.74,-249.5 1599.74,-242.5"/>
</g>
<!-- Node15 -->
<g id="node15" class="node"><title>Node15</title>
<g id="a_node15"><a xlink:href="../../d6/dc4/classprolog_1_1terms_1_1Clause_a59a965be3fc2e88226d5202dca1b2a26.html#a59a965be3fc2e88226d5202dca1b2a26" target="_top" xlink:title="Constructs a clause by parsing its string representation. ">
<polygon fill="none" stroke="black" points="1832,-274.5 1832,-293.5 1970,-293.5 1970,-274.5 1832,-274.5"/>
<text text-anchor="middle" x="1901" y="-281.5" font-family="Helvetica,sans-Serif" font-size="10.00">prolog.terms.Clause.Clause</text>
</a>
</g>
</g>
<!-- Node14&#45;&gt;Node15 -->
<g id="edge14" class="edge"><title>Node14&#45;&gt;Node15</title>
<path fill="none" stroke="midnightblue" d="M1793.54,-261.953C1814.13,-266.218 1835.74,-270.694 1854.07,-274.489"/>
<polygon fill="midnightblue" stroke="midnightblue" points="1794.03,-258.481 1783.53,-259.88 1792.61,-265.335 1794.03,-258.481"/>
</g>
<!-- Node16 -->
<g id="node16" class="node"><title>Node16</title>
<g id="a_node16"><a xlink:href="../../d3/ded/classprolog_1_1terms_1_1Term_a837eb66c18c36b2a0a4ecce8ad7cd144.html#a837eb66c18c36b2a0a4ecce8ad7cd144" target="_top" xlink:title="prolog.terms.Term.fromString">
<polygon fill="none" stroke="black" points="1829,-236.5 1829,-255.5 1973,-255.5 1973,-236.5 1829,-236.5"/>
<text text-anchor="middle" x="1901" y="-243.5" font-family="Helvetica,sans-Serif" font-size="10.00">prolog.terms.Term.fromString</text>
</a>
</g>
</g>
<!-- Node14&#45;&gt;Node16 -->
<g id="edge15" class="edge"><title>Node14&#45;&gt;Node16</title>
<path fill="none" stroke="midnightblue" d="M1793.67,-246C1805.33,-246 1817.31,-246 1828.83,-246"/>
<polygon fill="midnightblue" stroke="midnightblue" points="1793.53,-242.5 1783.53,-246 1793.53,-249.5 1793.53,-242.5"/>
</g>
<!-- Node17 -->
<g id="node17" class="node"><title>Node17</title>
<g id="a_node17"><a xlink:href="../../d6/dc4/classprolog_1_1terms_1_1Clause_aff298dbb79a27341afb0860f82ad1464.html#aff298dbb79a27341afb0860f82ad1464" target="_top" xlink:title="prolog.terms.Clause.goal\lFromString">
<polygon fill="none" stroke="black" points="1838.5,-187 1838.5,-217 1963.5,-217 1963.5,-187 1838.5,-187"/>
<text text-anchor="start" x="1846.5" y="-205" font-family="Helvetica,sans-Serif" font-size="10.00">prolog.terms.Clause.goal</text>
<text text-anchor="middle" x="1901" y="-194" font-family="Helvetica,sans-Serif" font-size="10.00">FromString</text>
</a>
</g>
</g>
<!-- Node14&#45;&gt;Node17 -->
<g id="edge16" class="edge"><title>Node14&#45;&gt;Node17</title>
<path fill="none" stroke="midnightblue" d="M1789.13,-228.584C1805.4,-224.684 1822.5,-220.584 1838.27,-216.802"/>
<polygon fill="midnightblue" stroke="midnightblue" points="1788.05,-225.245 1779.14,-230.981 1789.68,-232.052 1788.05,-225.245"/>
</g>
<!-- Node18 -->
<g id="node18" class="node"><title>Node18</title>
<g id="a_node18"><a xlink:href="../../d8/d35/classprolog_1_1Init_a0f6db95b70444cd1b933f24ec44814e4.html#a0f6db95b70444cd1b933f24ec44814e4" target="_top" xlink:title="prolog.Init.getGoal">
<polygon fill="none" stroke="black" points="2009,-192.5 2009,-211.5 2105,-211.5 2105,-192.5 2009,-192.5"/>
<text text-anchor="middle" x="2057" y="-199.5" font-family="Helvetica,sans-Serif" font-size="10.00">prolog.Init.getGoal</text>
</a>
</g>
</g>
<!-- Node17&#45;&gt;Node18 -->
<g id="edge17" class="edge"><title>Node17&#45;&gt;Node18</title>
<path fill="none" stroke="midnightblue" d="M1974.08,-202C1985.92,-202 1997.92,-202 2008.94,-202"/>
<polygon fill="midnightblue" stroke="midnightblue" points="1973.75,-198.5 1963.75,-202 1973.75,-205.5 1973.75,-198.5"/>
</g>
<!-- Node20&#45;&gt;Node7 -->
<g id="edge20" class="edge"><title>Node20&#45;&gt;Node7</title>
<path fill="none" stroke="midnightblue" d="M1245.53,-65.8605C1260.38,-63.4295 1275.96,-60.8784 1290.38,-58.5174"/>
<polygon fill="midnightblue" stroke="midnightblue" points="1244.7,-62.4505 1235.39,-67.5205 1245.83,-69.3585 1244.7,-62.4505"/>
</g>
<!-- Node21&#45;&gt;Node20 -->
<g id="edge22" class="edge"><title>Node21&#45;&gt;Node20</title>
<path fill="none" stroke="midnightblue" d="M1079.93,-81.9434C1092.69,-81.2835 1105.69,-80.6107 1117.84,-79.9827"/>
<polygon fill="midnightblue" stroke="midnightblue" points="1079.58,-78.4568 1069.77,-82.4688 1079.94,-85.4475 1079.58,-78.4568"/>
</g>
<!-- Node22&#45;&gt;Node6 -->
<g id="edge24" class="edge"><title>Node22&#45;&gt;Node6</title>
<path fill="none" stroke="midnightblue" d="M854.583,-108.63C889.615,-84.7875 956.05,-39.5719 985.192,-19.738"/>
<polygon fill="midnightblue" stroke="midnightblue" points="852.291,-105.957 845.993,-114.477 856.229,-111.743 852.291,-105.957"/>
</g>
<!-- Node22&#45;&gt;Node8 -->
<g id="edge25" class="edge"><title>Node22&#45;&gt;Node8</title>
<path fill="none" stroke="midnightblue" d="M856.814,-138.764C876.086,-149.869 903.701,-165.001 929,-176 941.45,-181.413 955.547,-186.423 967.846,-190.45"/>
<polygon fill="midnightblue" stroke="midnightblue" points="858.473,-135.68 848.07,-133.672 854.95,-141.729 858.473,-135.68"/>
</g>
<!-- Node22&#45;&gt;Node9 -->
<g id="edge28" class="edge"><title>Node22&#45;&gt;Node9</title>
<path fill="none" stroke="midnightblue" d="M887.949,-135.744C936.834,-146.371 1009.55,-163.068 1072,-181 1092.6,-186.916 1115.18,-194.429 1133.98,-200.976"/>
<polygon fill="midnightblue" stroke="midnightblue" points="888.405,-132.262 877.891,-133.57 886.926,-139.104 888.405,-132.262"/>
</g>
<!-- Node22&#45;&gt;Node20 -->
<g id="edge26" class="edge"><title>Node22&#45;&gt;Node20</title>
<path fill="none" stroke="midnightblue" d="M903.332,-121.813C951.299,-119.496 1015.79,-114.742 1072,-105 1097.31,-100.613 1125.41,-92.8196 1145.94,-86.5667"/>
<polygon fill="midnightblue" stroke="midnightblue" points="902.88,-118.33 893.05,-122.284 903.2,-125.322 902.88,-118.33"/>
</g>
<!-- Node22&#45;&gt;Node21 -->
<g id="edge27" class="edge"><title>Node22&#45;&gt;Node21</title>
<path fill="none" stroke="midnightblue" d="M884.12,-112.176C907.735,-106.818 935.282,-100.569 957.537,-95.5201"/>
<polygon fill="midnightblue" stroke="midnightblue" points="883.245,-108.785 874.267,-114.411 884.794,-115.612 883.245,-108.785"/>
</g>
</g>
</svg>
