<?xml version="1.0" encoding="UTF-8" standalone="no"?>
<!DOCTYPE svg PUBLIC "-//W3C//DTD SVG 1.1//EN"
 "http://www.w3.org/Graphics/SVG/1.1/DTD/svg11.dtd">
<!-- Generated by graphviz version 2.38.0 (20140413.2041)
 -->
<!-- Title: prolog.terms.Var.reaction Pages: 1 -->
<svg width="468pt" height="113pt"
 viewBox="0.00 0.00 468.00 113.00" xmlns="http://www.w3.org/2000/svg" xmlns:xlink="http://www.w3.org/1999/xlink">
<g id="graph0" class="graph" transform="scale(1 1) rotate(0) translate(4 109)">
<title>prolog.terms.Var.reaction</title>
<!-- Node1 -->
<g id="node1" class="node"><title>Node1</title>
<polygon fill="#bfbfbf" stroke="black" points="0,-57.5 0,-76.5 126,-76.5 126,-57.5 0,-57.5"/>
<text text-anchor="middle" x="63" y="-64.5" font-family="Helvetica,sans-Serif" font-size="10.00">prolog.terms.Var.reaction</text>
</g>
<!-- Node2 -->
<g id="node2" class="node"><title>Node2</title>
<g id="a_node2"><a xlink:href="../../d3/ded/classprolog_1_1terms_1_1Term_aa52e271c0f6784dbde9aa4f5f3ab0268.html#aa52e271c0f6784dbde9aa4f5f3ab0268" target="_top" xlink:title="Identity action. ">
<polygon fill="none" stroke="black" points="333.5,-85.5 333.5,-104.5 458.5,-104.5 458.5,-85.5 333.5,-85.5"/>
<text text-anchor="middle" x="396" y="-92.5" font-family="Helvetica,sans-Serif" font-size="10.00">prolog.terms.Term.action</text>
</a>
</g>
</g>
<!-- Node1&#45;&gt;Node2 -->
<g id="edge1" class="edge"><title>Node1&#45;&gt;Node2</title>
<path fill="none" stroke="midnightblue" d="M105.748,-76.5539C123.059,-80.1339 143.407,-83.8513 162,-86 215.836,-92.2216 277.085,-94.3973 323.271,-95.0573"/>
<polygon fill="midnightblue" stroke="midnightblue" points="323.44,-98.5595 333.482,-95.1821 323.525,-91.56 323.44,-98.5595"/>
</g>
<!-- Node3 -->
<g id="node3" class="node"><title>Node3</title>
<g id="a_node3"><a xlink:href="../../d3/ded/classprolog_1_1terms_1_1Term_a0a660e6cd55f12e49d328e1b84b478a4.html#a0a660e6cd55f12e49d328e1b84b478a4" target="_top" xlink:title="Defines the reaction to an agent recursing over the structure of a term. ">
<polygon fill="none" stroke="black" points="162,-57.5 162,-76.5 296,-76.5 296,-57.5 162,-57.5"/>
<text text-anchor="middle" x="229" y="-64.5" font-family="Helvetica,sans-Serif" font-size="10.00">prolog.terms.Term.reaction</text>
</a>
</g>
</g>
<!-- Node1&#45;&gt;Node3 -->
<g id="edge2" class="edge"><title>Node1&#45;&gt;Node3</title>
<path fill="none" stroke="midnightblue" d="M126.001,-67C134.412,-67 143.121,-67 151.745,-67"/>
<polygon fill="midnightblue" stroke="midnightblue" points="151.806,-70.5001 161.806,-67 151.806,-63.5001 151.806,-70.5001"/>
</g>
<!-- Node4 -->
<g id="node4" class="node"><title>Node4</title>
<g id="a_node4"><a xlink:href="../../d1/d12/classprolog_1_1terms_1_1Var_a87e5778e2b3535a88d8750f0776fb900.html#a87e5778e2b3535a88d8750f0776fb900" target="_top" xlink:title="prolog.terms.Var.ref">
<polygon fill="none" stroke="black" points="177.5,-19.5 177.5,-38.5 280.5,-38.5 280.5,-19.5 177.5,-19.5"/>
<text text-anchor="middle" x="229" y="-26.5" font-family="Helvetica,sans-Serif" font-size="10.00">prolog.terms.Var.ref</text>
</a>
</g>
</g>
<!-- Node1&#45;&gt;Node4 -->
<g id="edge4" class="edge"><title>Node1&#45;&gt;Node4</title>
<path fill="none" stroke="midnightblue" d="M105.384,-57.411C127.123,-52.3739 153.957,-46.1562 176.975,-40.8229"/>
<polygon fill="midnightblue" stroke="midnightblue" points="177.962,-44.1871 186.913,-38.5201 176.381,-37.3677 177.962,-44.1871"/>
</g>
<!-- Node3&#45;&gt;Node2 -->
<g id="edge3" class="edge"><title>Node3&#45;&gt;Node2</title>
<path fill="none" stroke="midnightblue" d="M286.322,-76.5577C299.995,-78.8779 314.737,-81.3797 328.819,-83.7693"/>
<polygon fill="midnightblue" stroke="midnightblue" points="328.487,-87.2629 338.932,-85.4854 329.658,-80.3616 328.487,-87.2629"/>
</g>
<!-- Node5 -->
<g id="node5" class="node"><title>Node5</title>
<g id="a_node5"><a xlink:href="../../d3/ded/classprolog_1_1terms_1_1Term_ae140fac2c9d066dc897fcfa723060a7a.html#ae140fac2c9d066dc897fcfa723060a7a" target="_top" xlink:title="Dereferences if necessary. ">
<polygon fill="none" stroke="black" points="341,-38.5 341,-57.5 451,-57.5 451,-38.5 341,-38.5"/>
<text text-anchor="middle" x="396" y="-45.5" font-family="Helvetica,sans-Serif" font-size="10.00">prolog.terms.Term.ref</text>
</a>
</g>
</g>
<!-- Node4&#45;&gt;Node5 -->
<g id="edge5" class="edge"><title>Node4&#45;&gt;Node5</title>
<path fill="none" stroke="midnightblue" d="M280.852,-34.8557C296.613,-36.6706 314.191,-38.6947 330.738,-40.6002"/>
<polygon fill="midnightblue" stroke="midnightblue" points="330.548,-44.1013 340.883,-41.7683 331.349,-37.1472 330.548,-44.1013"/>
</g>
<!-- Node6 -->
<g id="node6" class="node"><title>Node6</title>
<g id="a_node6"><a xlink:href="../../d1/d12/classprolog_1_1terms_1_1Var_a2194ec6eec940cc349b828f6fefcf242.html#a2194ec6eec940cc349b828f6fefcf242" target="_top" xlink:title="prolog.terms.Var.unbound">
<polygon fill="none" stroke="black" points="332,-0.5 332,-19.5 460,-19.5 460,-0.5 332,-0.5"/>
<text text-anchor="middle" x="396" y="-7.5" font-family="Helvetica,sans-Serif" font-size="10.00">prolog.terms.Var.unbound</text>
</a>
</g>
</g>
<!-- Node4&#45;&gt;Node6 -->
<g id="edge6" class="edge"><title>Node4&#45;&gt;Node6</title>
<path fill="none" stroke="midnightblue" d="M280.852,-23.1443C293.805,-21.6528 307.985,-20.0199 321.812,-18.4277"/>
<polygon fill="midnightblue" stroke="midnightblue" points="322.261,-21.8993 331.795,-17.2782 321.46,-14.9452 322.261,-21.8993"/>
</g>
</g>
</svg>
