<?xml version="1.0" encoding="UTF-8" standalone="no"?>
<!DOCTYPE svg PUBLIC "-//W3C//DTD SVG 1.1//EN"
 "http://www.w3.org/Graphics/SVG/1.1/DTD/svg11.dtd">
<!-- Generated by graphviz version 2.38.0 (20140413.2041)
 -->
<!-- Title: prolog.terms.Trail.unwind Pages: 1 -->
<svg width="1475pt" height="462pt"
 viewBox="0.00 0.00 1475.00 461.50" xmlns="http://www.w3.org/2000/svg" xmlns:xlink="http://www.w3.org/1999/xlink">
<g id="graph0" class="graph" transform="scale(1 1) rotate(0) translate(4 457.5)">
<title>prolog.terms.Trail.unwind</title>
<!-- Node1 -->
<g id="node1" class="node"><title>Node1</title>
<polygon fill="#bfbfbf" stroke="black" points="0,-132 0,-151 126,-151 126,-132 0,-132"/>
<text text-anchor="middle" x="63" y="-139" font-family="Helvetica,sans-Serif" font-size="10.00">prolog.terms.Trail.unwind</text>
</g>
<!-- Node2 -->
<g id="node2" class="node"><title>Node2</title>
<g id="a_node2"><a xlink:href="../../d6/dc4/classprolog_1_1terms_1_1Clause_a616eb2dbf395587a4029c19bdc492745.html#a616eb2dbf395587a4029c19bdc492745" target="_top" xlink:title="Replaces varibles with nice looking upper case constants for printing purposes. ">
<polygon fill="none" stroke="black" points="162.5,-132 162.5,-151 326.5,-151 326.5,-132 162.5,-132"/>
<text text-anchor="middle" x="244.5" y="-139" font-family="Helvetica,sans-Serif" font-size="10.00">prolog.terms.Clause.cnumbervars</text>
</a>
</g>
</g>
<!-- Node1&#45;&gt;Node2 -->
<g id="edge1" class="edge"><title>Node1&#45;&gt;Node2</title>
<path fill="none" stroke="midnightblue" d="M136.09,-141.5C144.771,-141.5 153.681,-141.5 162.478,-141.5"/>
<polygon fill="midnightblue" stroke="midnightblue" points="136.025,-138 126.025,-141.5 136.025,-145 136.025,-138"/>
</g>
<!-- Node10 -->
<g id="node10" class="node"><title>Node10</title>
<g id="a_node10"><a xlink:href="../../df/d94/classprolog_1_1terms_1_1Unfolder_a261a28665ab541b974afb636c3fec84b.html#a261a28665ab541b974afb636c3fec84b" target="_top" xlink:title="Returns a new clause by unfolding the goal with a matching clause in the database, or null if no such clause exists. ">
<polygon fill="none" stroke="black" points="181,-189.5 181,-219.5 308,-219.5 308,-189.5 181,-189.5"/>
<text text-anchor="start" x="189" y="-207.5" font-family="Helvetica,sans-Serif" font-size="10.00">prolog.terms.Unfolder.get</text>
<text text-anchor="middle" x="244.5" y="-196.5" font-family="Helvetica,sans-Serif" font-size="10.00">Element</text>
</a>
</g>
</g>
<!-- Node1&#45;&gt;Node10 -->
<g id="edge9" class="edge"><title>Node1&#45;&gt;Node10</title>
<path fill="none" stroke="midnightblue" d="M100.991,-154.483C129.931,-164.64 170.218,-178.78 200.577,-189.435"/>
<polygon fill="midnightblue" stroke="midnightblue" points="101.857,-151.078 91.2622,-151.068 99.5388,-157.683 101.857,-151.078"/>
</g>
<!-- Node23 -->
<g id="node23" class="node"><title>Node23</title>
<g id="a_node23"><a xlink:href="../../d3/ded/classprolog_1_1terms_1_1Term_afa1571a4fe304fc39d789d481e68b83c.html#afa1571a4fe304fc39d789d481e68b83c" target="_top" xlink:title="prolog.terms.Term.matches">
<polygon fill="none" stroke="black" points="176,-94 176,-113 313,-113 313,-94 176,-94"/>
<text text-anchor="middle" x="244.5" y="-101" font-family="Helvetica,sans-Serif" font-size="10.00">prolog.terms.Term.matches</text>
</a>
</g>
</g>
<!-- Node1&#45;&gt;Node23 -->
<g id="edge25" class="edge"><title>Node1&#45;&gt;Node23</title>
<path fill="none" stroke="midnightblue" d="M119.177,-129.819C144.633,-124.43 174.468,-118.114 198.53,-113.02"/>
<polygon fill="midnightblue" stroke="midnightblue" points="118.354,-126.416 109.295,-131.911 119.804,-133.264 118.354,-126.416"/>
</g>
<!-- Node24 -->
<g id="node24" class="node"><title>Node24</title>
<g id="a_node24"><a xlink:href="../../d3/ded/classprolog_1_1terms_1_1Term_ae44d814e035858ebc67573a97886511d.html#ae44d814e035858ebc67573a97886511d" target="_top" xlink:title="Returns a copy of the result if the unification of this and that. ">
<polygon fill="none" stroke="black" points="162,-51 162,-70 327,-70 327,-51 162,-51"/>
<text text-anchor="middle" x="244.5" y="-58" font-family="Helvetica,sans-Serif" font-size="10.00">prolog.terms.Term.matching_copy</text>
</a>
</g>
</g>
<!-- Node1&#45;&gt;Node24 -->
<g id="edge26" class="edge"><title>Node1&#45;&gt;Node24</title>
<path fill="none" stroke="midnightblue" d="M86.4627,-126.334C105.817,-113.788 134.845,-96.1926 162,-84.5 175.277,-78.7833 190.332,-73.9263 203.858,-70.1086"/>
<polygon fill="midnightblue" stroke="midnightblue" points="84.474,-123.452 78.0411,-131.871 88.3197,-129.302 84.474,-123.452"/>
</g>
<!-- Node31 -->
<g id="node31" class="node"><title>Node31</title>
<g id="a_node31"><a xlink:href="../../d4/d26/classprolog_1_1terms_1_1Prog_a58deb818dfa50ebe37ac32eb2aae9ac9.html#a58deb818dfa50ebe37ac32eb2aae9ac9" target="_top" xlink:title="prolog.terms.Prog.stop">
<polygon fill="none" stroke="black" points="186.5,-248 186.5,-267 302.5,-267 302.5,-248 186.5,-248"/>
<text text-anchor="middle" x="244.5" y="-255" font-family="Helvetica,sans-Serif" font-size="10.00">prolog.terms.Prog.stop</text>
</a>
</g>
</g>
<!-- Node1&#45;&gt;Node31 -->
<g id="edge34" class="edge"><title>Node1&#45;&gt;Node31</title>
<path fill="none" stroke="midnightblue" d="M79.3988,-158.68C97.5076,-177.986 129.27,-209.149 162,-228.5 175.962,-236.755 192.649,-243.206 207.277,-247.906"/>
<polygon fill="midnightblue" stroke="midnightblue" points="81.8599,-156.186 72.5109,-151.201 76.7109,-160.928 81.8599,-156.186"/>
</g>
<!-- Node3 -->
<g id="node3" class="node"><title>Node3</title>
<g id="a_node3"><a xlink:href="../../d8/d35/classprolog_1_1Init_a34d43d3123bb194902cbcb1c06194cce.html#a34d43d3123bb194902cbcb1c06194cce" target="_top" xlink:title="evalutes a query ">
<polygon fill="none" stroke="black" points="962,-251 962,-270 1063,-270 1063,-251 962,-251"/>
<text text-anchor="middle" x="1012.5" y="-258" font-family="Helvetica,sans-Serif" font-size="10.00">prolog.Init.evalGoal</text>
</a>
</g>
</g>
<!-- Node2&#45;&gt;Node3 -->
<g id="edge2" class="edge"><title>Node2&#45;&gt;Node3</title>
<path fill="none" stroke="midnightblue" d="M336.616,-150.983C467.155,-164.61 693.786,-188.437 712,-191.5 808.557,-207.737 920.573,-236.149 976.275,-250.939"/>
<polygon fill="midnightblue" stroke="midnightblue" points="336.924,-147.496 326.615,-149.939 336.198,-154.458 336.924,-147.496"/>
</g>
<!-- Node7 -->
<g id="node7" class="node"><title>Node7</title>
<g id="a_node7"><a xlink:href="../../d4/d09/classprolog_1_1io_1_1ClauseReader_ac713387538e0471c0795c8a664f398d1.html#ac713387538e0471c0795c8a664f398d1" target="_top" xlink:title="prolog.io.ClauseReader.extract_info">
<polygon fill="none" stroke="black" points="363,-87 363,-106 536,-106 536,-87 363,-87"/>
<text text-anchor="middle" x="449.5" y="-94" font-family="Helvetica,sans-Serif" font-size="10.00">prolog.io.ClauseReader.extract_info</text>
</a>
</g>
</g>
<!-- Node2&#45;&gt;Node7 -->
<g id="edge6" class="edge"><title>Node2&#45;&gt;Node7</title>
<path fill="none" stroke="midnightblue" d="M298.577,-129.734C331.895,-122.348 374.306,-112.947 405.511,-106.03"/>
<polygon fill="midnightblue" stroke="midnightblue" points="297.557,-126.375 288.551,-131.957 299.072,-133.209 297.557,-126.375"/>
</g>
<!-- Node9 -->
<g id="node9" class="node"><title>Node9</title>
<g id="a_node9"><a xlink:href="../../d6/dc4/classprolog_1_1terms_1_1Clause_ac13bc534da7f02536d4741318443dd27.html#ac13bc534da7f02536d4741318443dd27" target="_top" xlink:title="Pretty prints a clause after replacing ugly variable names. ">
<polygon fill="none" stroke="black" points="384,-125 384,-144 515,-144 515,-125 384,-125"/>
<text text-anchor="middle" x="449.5" y="-132" font-family="Helvetica,sans-Serif" font-size="10.00">prolog.terms.Clause.pprint</text>
</a>
</g>
</g>
<!-- Node2&#45;&gt;Node9 -->
<g id="edge8" class="edge"><title>Node2&#45;&gt;Node9</title>
<path fill="none" stroke="midnightblue" d="M336.926,-138.347C352.726,-137.803 368.855,-137.246 383.762,-136.732"/>
<polygon fill="midnightblue" stroke="midnightblue" points="336.48,-134.861 326.606,-138.703 336.721,-141.856 336.48,-134.861"/>
</g>
<!-- Node4 -->
<g id="node4" class="node"><title>Node4</title>
<g id="a_node4"><a xlink:href="../../d8/d35/classprolog_1_1Init_a2471811f50fbed4de5df26ee530f1e2e.html#a2471811f50fbed4de5df26ee530f1e2e" target="_top" xlink:title="evaluates and times a Goal querying program P ">
<polygon fill="none" stroke="black" points="1151.5,-251 1151.5,-270 1252.5,-270 1252.5,-251 1151.5,-251"/>
<text text-anchor="middle" x="1202" y="-258" font-family="Helvetica,sans-Serif" font-size="10.00">prolog.Init.timeGoal</text>
</a>
</g>
</g>
<!-- Node3&#45;&gt;Node4 -->
<g id="edge3" class="edge"><title>Node3&#45;&gt;Node4</title>
<path fill="none" stroke="midnightblue" d="M1073.41,-260.5C1098.54,-260.5 1127.42,-260.5 1151.34,-260.5"/>
<polygon fill="midnightblue" stroke="midnightblue" points="1073.25,-257 1063.25,-260.5 1073.25,-264 1073.25,-257"/>
</g>
<!-- Node5 -->
<g id="node5" class="node"><title>Node5</title>
<g id="a_node5"><a xlink:href="../../d8/d35/classprolog_1_1Init_a0348efff7140aed75f8364f90b7c2b8b.html#a0348efff7140aed75f8364f90b7c2b8b" target="_top" xlink:title="prolog.Init.run_query">
<polygon fill="none" stroke="black" points="1337,-264 1337,-283 1442,-283 1442,-264 1337,-264"/>
<text text-anchor="middle" x="1389.5" y="-271" font-family="Helvetica,sans-Serif" font-size="10.00">prolog.Init.run_query</text>
</a>
</g>
</g>
<!-- Node4&#45;&gt;Node5 -->
<g id="edge4" class="edge"><title>Node4&#45;&gt;Node5</title>
<path fill="none" stroke="midnightblue" d="M1262.7,-264.684C1286.54,-266.354 1313.72,-268.259 1336.71,-269.87"/>
<polygon fill="midnightblue" stroke="midnightblue" points="1262.93,-261.192 1252.71,-263.984 1262.44,-268.174 1262.93,-261.192"/>
</g>
<!-- Node6 -->
<g id="node6" class="node"><title>Node6</title>
<g id="a_node6"><a xlink:href="../../d8/d35/classprolog_1_1Init_a3e8704cf8b2d909fccc79e967dd48171.html#a3e8704cf8b2d909fccc79e967dd48171" target="_top" xlink:title="prolog.Init.standardTop">
<polygon fill="none" stroke="black" points="1331.5,-226 1331.5,-245 1447.5,-245 1447.5,-226 1331.5,-226"/>
<text text-anchor="middle" x="1389.5" y="-233" font-family="Helvetica,sans-Serif" font-size="10.00">prolog.Init.standardTop</text>
</a>
</g>
</g>
<!-- Node4&#45;&gt;Node6 -->
<g id="edge5" class="edge"><title>Node4&#45;&gt;Node6</title>
<path fill="none" stroke="midnightblue" d="M1262.92,-252.425C1284.9,-249.462 1309.7,-246.119 1331.43,-243.191"/>
<polygon fill="midnightblue" stroke="midnightblue" points="1262.15,-248.996 1252.71,-253.8 1263.09,-255.933 1262.15,-248.996"/>
</g>
<!-- Node8 -->
<g id="node8" class="node"><title>Node8</title>
<g id="a_node8"><a xlink:href="../../d4/d09/classprolog_1_1io_1_1ClauseReader_a805e9a5ebc401e1099f39af9b3f6fb47.html#a805e9a5ebc401e1099f39af9b3f6fb47" target="_top" xlink:title="prolog.io.ClauseReader.get\lElement">
<polygon fill="none" stroke="black" points="574.5,-87.5 574.5,-117.5 709.5,-117.5 709.5,-87.5 574.5,-87.5"/>
<text text-anchor="start" x="582.5" y="-105.5" font-family="Helvetica,sans-Serif" font-size="10.00">prolog.io.ClauseReader.get</text>
<text text-anchor="middle" x="642" y="-94.5" font-family="Helvetica,sans-Serif" font-size="10.00">Element</text>
</a>
</g>
</g>
<!-- Node7&#45;&gt;Node8 -->
<g id="edge7" class="edge"><title>Node7&#45;&gt;Node8</title>
<path fill="none" stroke="midnightblue" d="M546.459,-99.5223C555.856,-99.8183 565.244,-100.114 574.256,-100.398"/>
<polygon fill="midnightblue" stroke="midnightblue" points="546.381,-96.0182 536.276,-99.2016 546.161,-103.015 546.381,-96.0182"/>
</g>
<!-- Node11 -->
<g id="node11" class="node"><title>Node11</title>
<g id="a_node11"><a xlink:href="../../d4/d26/classprolog_1_1terms_1_1Prog_ac5d988b907a2843fcfcba4d1fd1e0deb.html#ac5d988b907a2843fcfcba4d1fd1e0deb" target="_top" xlink:title="Here is where actual LD&#45;resolution computation happens. ">
<polygon fill="none" stroke="black" points="376.5,-242 376.5,-261 522.5,-261 522.5,-242 376.5,-242"/>
<text text-anchor="middle" x="449.5" y="-249" font-family="Helvetica,sans-Serif" font-size="10.00">prolog.terms.Prog.getElement</text>
</a>
</g>
</g>
<!-- Node10&#45;&gt;Node11 -->
<g id="edge10" class="edge"><title>Node10&#45;&gt;Node11</title>
<path fill="none" stroke="midnightblue" d="M318.07,-221.302C348.042,-228.241 381.686,-236.031 407.297,-241.96"/>
<polygon fill="midnightblue" stroke="midnightblue" points="318.595,-217.831 308.063,-218.985 317.016,-224.651 318.595,-217.831"/>
</g>
<!-- Node12 -->
<g id="node12" class="node"><title>Node12</title>
<g id="a_node12"><a xlink:href="../../d4/d26/classprolog_1_1terms_1_1Prog_a696a0c92a1814ecf4f21fb09fbc854a0.html#a696a0c92a1814ecf4f21fb09fbc854a0" target="_top" xlink:title="asks a logic engine to return a solution ">
<polygon fill="none" stroke="black" points="585.5,-239.5 585.5,-269.5 698.5,-269.5 698.5,-239.5 585.5,-239.5"/>
<text text-anchor="start" x="593.5" y="-257.5" font-family="Helvetica,sans-Serif" font-size="10.00">prolog.terms.Prog.ask</text>
<text text-anchor="middle" x="642" y="-246.5" font-family="Helvetica,sans-Serif" font-size="10.00">_engine</text>
</a>
</g>
</g>
<!-- Node11&#45;&gt;Node12 -->
<g id="edge11" class="edge"><title>Node11&#45;&gt;Node12</title>
<path fill="none" stroke="midnightblue" d="M532.844,-252.797C550.529,-253.075 568.818,-253.363 585.213,-253.621"/>
<polygon fill="midnightblue" stroke="midnightblue" points="532.574,-249.292 522.52,-252.634 532.463,-256.291 532.574,-249.292"/>
</g>
<!-- Node22 -->
<g id="node22" class="node"><title>Node22</title>
<g id="a_node22"><a xlink:href="../../d4/d26/classprolog_1_1terms_1_1Prog_a45a00a5df54d8c378930f320020b457f.html#a45a00a5df54d8c378930f320020b457f" target="_top" xlink:title="usable for launching on a separate thread ">
<polygon fill="none" stroke="black" points="587,-201 587,-220 697,-220 697,-201 587,-201"/>
<text text-anchor="middle" x="642" y="-208" font-family="Helvetica,sans-Serif" font-size="10.00">prolog.terms.Prog.run</text>
</a>
</g>
</g>
<!-- Node11&#45;&gt;Node22 -->
<g id="edge24" class="edge"><title>Node11&#45;&gt;Node22</title>
<path fill="none" stroke="midnightblue" d="M504.697,-239.835C533.821,-233.567 569.278,-225.936 596.727,-220.029"/>
<polygon fill="midnightblue" stroke="midnightblue" points="503.723,-236.465 494.683,-241.991 505.196,-243.308 503.723,-236.465"/>
</g>
<!-- Node12&#45;&gt;Node3 -->
<g id="edge12" class="edge"><title>Node12&#45;&gt;Node3</title>
<path fill="none" stroke="midnightblue" d="M708.963,-255.574C781.587,-256.757 896.687,-258.631 961.985,-259.694"/>
<polygon fill="midnightblue" stroke="midnightblue" points="708.623,-252.068 698.567,-255.405 708.509,-259.067 708.623,-252.068"/>
</g>
<!-- Node13 -->
<g id="node13" class="node"><title>Node13</title>
<g id="a_node13"><a xlink:href="../../d4/d26/classprolog_1_1terms_1_1Prog_afb6f86119db8ba133de23f8bfe24ba2e.html#afb6f86119db8ba133de23f8bfe24ba2e" target="_top" xlink:title="Computes a copy of the first solution X of Goal G. ">
<polygon fill="none" stroke="black" points="748,-327 748,-346 897,-346 897,-327 748,-327"/>
<text text-anchor="middle" x="822.5" y="-334" font-family="Helvetica,sans-Serif" font-size="10.00">prolog.terms.Prog.firstSolution</text>
</a>
</g>
</g>
<!-- Node12&#45;&gt;Node13 -->
<g id="edge13" class="edge"><title>Node12&#45;&gt;Node13</title>
<path fill="none" stroke="midnightblue" d="M685.11,-273.845C721.471,-290.548 772.473,-313.978 800.68,-326.936"/>
<polygon fill="midnightblue" stroke="midnightblue" points="686.288,-270.534 675.74,-269.54 683.366,-276.895 686.288,-270.534"/>
</g>
<!-- Node13&#45;&gt;Node3 -->
<g id="edge20" class="edge"><title>Node13&#45;&gt;Node3</title>
<path fill="none" stroke="midnightblue" d="M865.05,-323.82C875.556,-320.372 886.761,-316.483 897,-312.5 930.98,-299.283 969.353,-281.181 991.926,-270.192"/>
<polygon fill="midnightblue" stroke="midnightblue" points="863.69,-320.581 855.246,-326.98 865.837,-327.244 863.69,-320.581"/>
</g>
<!-- Node14 -->
<g id="node14" class="node"><title>Node14</title>
<g id="a_node14"><a xlink:href="../../d8/d35/classprolog_1_1Init_a4a7b9ae1dc4d489e657326f3ed5a4b7e.html#a4a7b9ae1dc4d489e657326f3ed5a4b7e" target="_top" xlink:title="Asks Prolog a query Answer, Goal and returns the first solution of the form &quot;the(Answer)&quot; or the cons...">
<polygon fill="none" stroke="black" points="959.5,-386 959.5,-405 1065.5,-405 1065.5,-386 959.5,-386"/>
<text text-anchor="middle" x="1012.5" y="-393" font-family="Helvetica,sans-Serif" font-size="10.00">prolog.Init.askProlog</text>
</a>
</g>
</g>
<!-- Node13&#45;&gt;Node14 -->
<g id="edge14" class="edge"><title>Node13&#45;&gt;Node14</title>
<path fill="none" stroke="midnightblue" d="M864.076,-349.234C899.266,-360.278 949.412,-376.015 981.201,-385.991"/>
<polygon fill="midnightblue" stroke="midnightblue" points="864.713,-345.766 854.124,-346.111 862.617,-352.444 864.713,-345.766"/>
</g>
<!-- Node19 -->
<g id="node19" class="node"><title>Node19</title>
<g id="a_node19"><a xlink:href="../../da/dd9/classprolog_1_1fluents_1_1DataBase_a6f8041bc2bcb5cdd8a376e81a3dc4dca.html#a6f8041bc2bcb5cdd8a376e81a3dc4dca" target="_top" xlink:title="adds a Clause to the joint Linda and Predicate table ">
<polygon fill="none" stroke="black" points="933,-317.5 933,-347.5 1092,-347.5 1092,-317.5 933,-317.5"/>
<text text-anchor="start" x="941" y="-335.5" font-family="Helvetica,sans-Serif" font-size="10.00">prolog.fluents.DataBase.process</text>
<text text-anchor="middle" x="1012.5" y="-324.5" font-family="Helvetica,sans-Serif" font-size="10.00">Clause</text>
</a>
</g>
</g>
<!-- Node13&#45;&gt;Node19 -->
<g id="edge21" class="edge"><title>Node13&#45;&gt;Node19</title>
<path fill="none" stroke="midnightblue" d="M907.524,-334.712C915.997,-334.532 924.579,-334.349 932.99,-334.17"/>
<polygon fill="midnightblue" stroke="midnightblue" points="907.186,-331.219 897.263,-334.931 907.335,-338.217 907.186,-331.219"/>
</g>
<!-- Node15 -->
<g id="node15" class="node"><title>Node15</title>
<g id="a_node15"><a xlink:href="../../d8/d35/classprolog_1_1Init_ae5fe9e2dc533d32690edbbec3b1c279b.html#ae5fe9e2dc533d32690edbbec3b1c279b" target="_top" xlink:title="Asks Prolog a query Goal and returns the first solution of the form &quot;the(Answer)&quot; ...">
<polygon fill="none" stroke="black" points="1149,-434 1149,-453 1255,-453 1255,-434 1149,-434"/>
<text text-anchor="middle" x="1202" y="-441" font-family="Helvetica,sans-Serif" font-size="10.00">prolog.Init.askProlog</text>
</a>
</g>
</g>
<!-- Node14&#45;&gt;Node15 -->
<g id="edge15" class="edge"><title>Node14&#45;&gt;Node15</title>
<path fill="none" stroke="midnightblue" d="M1060.96,-407.65C1092.77,-415.794 1134.08,-426.369 1163.57,-433.918"/>
<polygon fill="midnightblue" stroke="midnightblue" points="1061.55,-404.188 1050.99,-405.098 1059.81,-410.969 1061.55,-404.188"/>
</g>
<!-- Node16 -->
<g id="node16" class="node"><title>Node16</title>
<g id="a_node16"><a xlink:href="../../da/dde/classprolog_1_1Main_aca445add96cb95be654213f0e42d5b76.html#aca445add96cb95be654213f0e42d5b76" target="_top" xlink:title="prolog.Main.init">
<polygon fill="none" stroke="black" points="1160.5,-358 1160.5,-377 1243.5,-377 1243.5,-358 1160.5,-358"/>
<text text-anchor="middle" x="1202" y="-365" font-family="Helvetica,sans-Serif" font-size="10.00">prolog.Main.init</text>
</a>
</g>
</g>
<!-- Node14&#45;&gt;Node16 -->
<g id="edge16" class="edge"><title>Node14&#45;&gt;Node16</title>
<path fill="none" stroke="midnightblue" d="M1075.77,-386.2C1103.61,-382.043 1135.64,-377.26 1160.34,-373.572"/>
<polygon fill="midnightblue" stroke="midnightblue" points="1075.1,-382.762 1065.73,-387.7 1076.14,-389.685 1075.1,-382.762"/>
</g>
<!-- Node18 -->
<g id="node18" class="node"><title>Node18</title>
<g id="a_node18"><a xlink:href="../../d8/d35/classprolog_1_1Init_a7293b6db1f53eca4730418c54ab07109.html#a7293b6db1f53eca4730418c54ab07109" target="_top" xlink:title="prolog.Init.run">
<polygon fill="none" stroke="black" points="1164,-396 1164,-415 1240,-415 1240,-396 1164,-396"/>
<text text-anchor="middle" x="1202" y="-403" font-family="Helvetica,sans-Serif" font-size="10.00">prolog.Init.run</text>
</a>
</g>
</g>
<!-- Node14&#45;&gt;Node18 -->
<g id="edge18" class="edge"><title>Node14&#45;&gt;Node18</title>
<path fill="none" stroke="midnightblue" d="M1075.84,-398.825C1105.02,-400.381 1138.8,-402.182 1163.9,-403.521"/>
<polygon fill="midnightblue" stroke="midnightblue" points="1075.9,-395.323 1065.73,-398.286 1075.53,-402.313 1075.9,-395.323"/>
</g>
<!-- Node17 -->
<g id="node17" class="node"><title>Node17</title>
<g id="a_node17"><a xlink:href="../../da/dde/classprolog_1_1Main_ab0b3345fa72bd3b96c565437b962efa3.html#ab0b3345fa72bd3b96c565437b962efa3" target="_top" xlink:title="prolog.Main.main">
<polygon fill="none" stroke="black" points="1344,-377 1344,-396 1435,-396 1435,-377 1344,-377"/>
<text text-anchor="middle" x="1389.5" y="-384" font-family="Helvetica,sans-Serif" font-size="10.00">prolog.Main.main</text>
</a>
</g>
</g>
<!-- Node16&#45;&gt;Node17 -->
<g id="edge17" class="edge"><title>Node16&#45;&gt;Node17</title>
<path fill="none" stroke="midnightblue" d="M1253.79,-372.702C1282.02,-375.594 1316.83,-379.159 1343.99,-381.941"/>
<polygon fill="midnightblue" stroke="midnightblue" points="1254.01,-369.207 1243.71,-371.67 1253.3,-376.17 1254.01,-369.207"/>
</g>
<!-- Node18&#45;&gt;Node17 -->
<g id="edge19" class="edge"><title>Node18&#45;&gt;Node17</title>
<path fill="none" stroke="midnightblue" d="M1250.32,-400.653C1279.12,-397.704 1315.67,-393.959 1343.95,-391.063"/>
<polygon fill="midnightblue" stroke="midnightblue" points="1249.68,-397.2 1240.09,-401.701 1250.4,-404.164 1249.68,-397.2"/>
</g>
<!-- Node20 -->
<g id="node20" class="node"><title>Node20</title>
<g id="a_node20"><a xlink:href="../../da/dd9/classprolog_1_1fluents_1_1DataBase_a83885e10b61d6bf129307d9bf50d93de.html#a83885e10b61d6bf129307d9bf50d93de" target="_top" xlink:title="prolog.fluents.DataBase.apply\l_parser">
<polygon fill="none" stroke="black" points="1128,-308.5 1128,-338.5 1276,-338.5 1276,-308.5 1128,-308.5"/>
<text text-anchor="start" x="1136" y="-326.5" font-family="Helvetica,sans-Serif" font-size="10.00">prolog.fluents.DataBase.apply</text>
<text text-anchor="middle" x="1202" y="-315.5" font-family="Helvetica,sans-Serif" font-size="10.00">_parser</text>
</a>
</g>
</g>
<!-- Node19&#45;&gt;Node20 -->
<g id="edge22" class="edge"><title>Node19&#45;&gt;Node20</title>
<path fill="none" stroke="midnightblue" d="M1102.24,-328.24C1110.83,-327.828 1119.47,-327.413 1127.88,-327.01"/>
<polygon fill="midnightblue" stroke="midnightblue" points="1102.02,-324.747 1092.2,-328.722 1102.36,-331.739 1102.02,-324.747"/>
</g>
<!-- Node21 -->
<g id="node21" class="node"><title>Node21</title>
<g id="a_node21"><a xlink:href="../../da/dd9/classprolog_1_1fluents_1_1DataBase_af8b26948ded7bba6386b984f463bf166.html#af8b26948ded7bba6386b984f463bf166" target="_top" xlink:title="prolog.fluents.DataBase.stream\lToProg">
<polygon fill="none" stroke="black" points="1312,-308.5 1312,-338.5 1467,-338.5 1467,-308.5 1312,-308.5"/>
<text text-anchor="start" x="1320" y="-326.5" font-family="Helvetica,sans-Serif" font-size="10.00">prolog.fluents.DataBase.stream</text>
<text text-anchor="middle" x="1389.5" y="-315.5" font-family="Helvetica,sans-Serif" font-size="10.00">ToProg</text>
</a>
</g>
</g>
<!-- Node20&#45;&gt;Node21 -->
<g id="edge23" class="edge"><title>Node20&#45;&gt;Node21</title>
<path fill="none" stroke="midnightblue" d="M1286.06,-323.5C1294.65,-323.5 1303.34,-323.5 1311.86,-323.5"/>
<polygon fill="midnightblue" stroke="midnightblue" points="1286.05,-320 1276.05,-323.5 1286.05,-327 1286.05,-320"/>
</g>
<!-- Node25 -->
<g id="node25" class="node"><title>Node25</title>
<g id="a_node25"><a xlink:href="../../da/dd9/classprolog_1_1fluents_1_1DataBase_a610cc1f35df4467fbb1fac1052091915.html#a610cc1f35df4467fbb1fac1052091915" target="_top" xlink:title="prolog.fluents.DataBase.all0">
<polygon fill="none" stroke="black" points="379.5,-49 379.5,-68 519.5,-68 519.5,-49 379.5,-49"/>
<text text-anchor="middle" x="449.5" y="-56" font-family="Helvetica,sans-Serif" font-size="10.00">prolog.fluents.DataBase.all0</text>
</a>
</g>
</g>
<!-- Node24&#45;&gt;Node25 -->
<g id="edge27" class="edge"><title>Node24&#45;&gt;Node25</title>
<path fill="none" stroke="midnightblue" d="M337.401,-59.5946C351.506,-59.4556 365.86,-59.3142 379.361,-59.1812"/>
<polygon fill="midnightblue" stroke="midnightblue" points="337.155,-56.0967 327.19,-59.6952 337.224,-63.0964 337.155,-56.0967"/>
</g>
<!-- Node26 -->
<g id="node26" class="node"><title>Node26</title>
<g id="a_node26"><a xlink:href="../../da/dd9/classprolog_1_1fluents_1_1DataBase_a4b4a68ddd60d87276cd7f9befd237ad9.html#a4b4a68ddd60d87276cd7f9befd237ad9" target="_top" xlink:title="prolog.fluents.DataBase.all1">
<polygon fill="none" stroke="black" points="572,-11 572,-30 712,-30 712,-11 572,-11"/>
<text text-anchor="middle" x="642" y="-18" font-family="Helvetica,sans-Serif" font-size="10.00">prolog.fluents.DataBase.all1</text>
</a>
</g>
</g>
<!-- Node25&#45;&gt;Node26 -->
<g id="edge28" class="edge"><title>Node25&#45;&gt;Node26</title>
<path fill="none" stroke="midnightblue" d="M508.7,-46.8905C535.794,-41.486 567.625,-35.1365 593.274,-30.0201"/>
<polygon fill="midnightblue" stroke="midnightblue" points="507.693,-43.5223 498.571,-48.911 509.063,-50.3871 507.693,-43.5223"/>
</g>
<!-- Node27 -->
<g id="node27" class="node"><title>Node27</title>
<g id="a_node27"><a xlink:href="../../da/dd9/classprolog_1_1fluents_1_1DataBase_a16bb9f309e161ca656d8aef483ba7e5f.html#a16bb9f309e161ca656d8aef483ba7e5f" target="_top" xlink:title="prolog.fluents.DataBase.all2">
<polygon fill="none" stroke="black" points="752.5,-30 752.5,-49 892.5,-49 892.5,-30 752.5,-30"/>
<text text-anchor="middle" x="822.5" y="-37" font-family="Helvetica,sans-Serif" font-size="10.00">prolog.fluents.DataBase.all2</text>
</a>
</g>
</g>
<!-- Node25&#45;&gt;Node27 -->
<g id="edge33" class="edge"><title>Node25&#45;&gt;Node27</title>
<path fill="none" stroke="midnightblue" d="M530.224,-54.4171C596.38,-51.0291 689.494,-46.2604 752.493,-43.034"/>
<polygon fill="midnightblue" stroke="midnightblue" points="529.655,-50.9416 519.847,-54.9485 530.013,-57.9324 529.655,-50.9416"/>
</g>
<!-- Node26&#45;&gt;Node27 -->
<g id="edge29" class="edge"><title>Node26&#45;&gt;Node27</title>
<path fill="none" stroke="midnightblue" d="M722.044,-28.9137C732.154,-29.9898 742.441,-31.0847 752.376,-32.1423"/>
<polygon fill="midnightblue" stroke="midnightblue" points="722.327,-25.4241 712.013,-27.8459 721.586,-32.3848 722.327,-25.4241"/>
</g>
<!-- Node28 -->
<g id="node28" class="node"><title>Node28</title>
<g id="a_node28"><a xlink:href="../../da/dd9/classprolog_1_1fluents_1_1DataBase_ac93f1bf928f7e64f000726f764891ea9.html#ac93f1bf928f7e64f000726f764891ea9" target="_top" xlink:title="Returns a (possibly empty) list of matching Term objects. ">
<polygon fill="none" stroke="black" points="945.5,-30 945.5,-49 1079.5,-49 1079.5,-30 945.5,-30"/>
<text text-anchor="middle" x="1012.5" y="-37" font-family="Helvetica,sans-Serif" font-size="10.00">prolog.fluents.DataBase.all</text>
</a>
</g>
</g>
<!-- Node27&#45;&gt;Node28 -->
<g id="edge30" class="edge"><title>Node27&#45;&gt;Node28</title>
<path fill="none" stroke="midnightblue" d="M902.881,-39.5C916.994,-39.5 931.558,-39.5 945.257,-39.5"/>
<polygon fill="midnightblue" stroke="midnightblue" points="902.703,-36.0001 892.703,-39.5 902.703,-43.0001 902.703,-36.0001"/>
</g>
<!-- Node29 -->
<g id="node29" class="node"><title>Node29</title>
<g id="a_node29"><a xlink:href="../../df/dfb/classprolog_1_1builtins_1_1db__collect_a2c65ced6ccab65917066acd22e05c2ee.html#a2c65ced6ccab65917066acd22e05c2ee" target="_top" xlink:title="prolog.builtins.db\l_collect.exec">
<polygon fill="none" stroke="black" points="1157,-0.5 1157,-30.5 1247,-30.5 1247,-0.5 1157,-0.5"/>
<text text-anchor="start" x="1165" y="-18.5" font-family="Helvetica,sans-Serif" font-size="10.00">prolog.builtins.db</text>
<text text-anchor="middle" x="1202" y="-7.5" font-family="Helvetica,sans-Serif" font-size="10.00">_collect.exec</text>
</a>
</g>
</g>
<!-- Node28&#45;&gt;Node29 -->
<g id="edge31" class="edge"><title>Node28&#45;&gt;Node29</title>
<path fill="none" stroke="midnightblue" d="M1089.65,-29.7533C1112.52,-26.8257 1136.84,-23.7125 1156.9,-21.1448"/>
<polygon fill="midnightblue" stroke="midnightblue" points="1089.08,-26.2971 1079.61,-31.0385 1089.97,-33.2404 1089.08,-26.2971"/>
</g>
<!-- Node30 -->
<g id="node30" class="node"><title>Node30</title>
<g id="a_node30"><a xlink:href="../../de/db4/classprolog_1_1builtins_1_1at__key_acf52ce169f8e3b064dbca64fcf06fcab.html#acf52ce169f8e3b064dbca64fcf06fcab" target="_top" xlink:title="prolog.builtins.at\l_key.exec">
<polygon fill="none" stroke="black" points="1158,-49.5 1158,-79.5 1246,-79.5 1246,-49.5 1158,-49.5"/>
<text text-anchor="start" x="1166" y="-67.5" font-family="Helvetica,sans-Serif" font-size="10.00">prolog.builtins.at</text>
<text text-anchor="middle" x="1202" y="-56.5" font-family="Helvetica,sans-Serif" font-size="10.00">_key.exec</text>
</a>
</g>
</g>
<!-- Node28&#45;&gt;Node30 -->
<g id="edge32" class="edge"><title>Node28&#45;&gt;Node30</title>
<path fill="none" stroke="midnightblue" d="M1089.77,-49.6695C1112.93,-52.7575 1137.57,-56.0422 1157.75,-58.7333"/>
<polygon fill="midnightblue" stroke="midnightblue" points="1089.98,-46.1665 1079.61,-48.3141 1089.06,-53.1051 1089.98,-46.1665"/>
</g>
<!-- Node31&#45;&gt;Node3 -->
<g id="edge35" class="edge"><title>Node31&#45;&gt;Node3</title>
<path fill="none" stroke="midnightblue" d="M312.839,-265.792C329.232,-267.578 346.729,-269.29 363,-270.5 599.68,-288.1 660.196,-287.342 897,-271.5 918.32,-270.074 941.821,-267.918 961.955,-265.892"/>
<polygon fill="midnightblue" stroke="midnightblue" points="313.122,-262.302 302.797,-264.675 312.348,-269.259 313.122,-262.302"/>
</g>
<!-- Node31&#45;&gt;Node11 -->
<g id="edge37" class="edge"><title>Node31&#45;&gt;Node11</title>
<path fill="none" stroke="midnightblue" d="M312.718,-255.513C333.097,-254.911 355.565,-254.247 376.259,-253.635"/>
<polygon fill="midnightblue" stroke="midnightblue" points="312.479,-252.019 302.587,-255.813 312.686,-259.016 312.479,-252.019"/>
</g>
<!-- Node31&#45;&gt;Node13 -->
<g id="edge36" class="edge"><title>Node31&#45;&gt;Node13</title>
<path fill="none" stroke="midnightblue" d="M269.869,-272.329C292.938,-285.52 329.008,-304 363,-312.5 495.618,-345.664 656.321,-345.164 747.962,-341.221"/>
<polygon fill="midnightblue" stroke="midnightblue" points="271.514,-269.236 261.113,-267.217 267.985,-275.282 271.514,-269.236"/>
</g>
</g>
</svg>
