<?xml version="1.0" encoding="UTF-8" standalone="no"?>
<!DOCTYPE svg PUBLIC "-//W3C//DTD SVG 1.1//EN"
 "http://www.w3.org/Graphics/SVG/1.1/DTD/svg11.dtd">
<!-- Generated by graphviz version 2.38.0 (20140413.2041)
 -->
<!-- Title: prolog.terms.Source Pages: 1 -->
<svg width="940pt" height="1417pt"
 viewBox="0.00 0.00 939.50 1417.00" xmlns="http://www.w3.org/2000/svg" xmlns:xlink="http://www.w3.org/1999/xlink">
<g id="graph0" class="graph" transform="scale(1 1) rotate(0) translate(4 1413)">
<title>prolog.terms.Source</title>
<!-- Node1 -->
<g id="node1" class="node"><title>Node1</title>
<polygon fill="#bfbfbf" stroke="black" points="456.5,-408.5 456.5,-498.5 560.5,-498.5 560.5,-408.5 456.5,-408.5"/>
<text text-anchor="middle" x="508.5" y="-486.5" font-family="Helvetica,sans-Serif" font-size="10.00">prolog.terms.Source</text>
<polyline fill="none" stroke="black" points="456.5,-479.5 560.5,-479.5 "/>
<text text-anchor="middle" x="508.5" y="-467.5" font-family="Helvetica,sans-Serif" font-size="10.00"> </text>
<polyline fill="none" stroke="black" points="456.5,-460.5 560.5,-460.5 "/>
<text text-anchor="start" x="464.5" y="-448.5" font-family="Helvetica,sans-Serif" font-size="10.00">+ Source()</text>
<text text-anchor="start" x="464.5" y="-437.5" font-family="Helvetica,sans-Serif" font-size="10.00">+ getElement()</text>
<text text-anchor="start" x="464.5" y="-426.5" font-family="Helvetica,sans-Serif" font-size="10.00">+ toList()</text>
<text text-anchor="start" x="464.5" y="-415.5" font-family="Helvetica,sans-Serif" font-size="10.00">+ toFun()</text>
</g>
<!-- Node8 -->
<g id="node8" class="node"><title>Node8</title>
<g id="a_node8"><a xlink:href="../../d1/d91/classprolog_1_1fluents_1_1IntegerSource.html" target="_top" xlink:title="creates a source of integers based on x=a*x+b formula ">
<polygon fill="none" stroke="black" points="0,-210 0,-333 139,-333 139,-210 0,-210"/>
<text text-anchor="middle" x="69.5" y="-321" font-family="Helvetica,sans-Serif" font-size="10.00">prolog.fluents.IntegerSource</text>
<polyline fill="none" stroke="black" points="0,-314 139,-314 "/>
<text text-anchor="start" x="8" y="-302" font-family="Helvetica,sans-Serif" font-size="10.00">&#45; fuel</text>
<text text-anchor="start" x="8" y="-291" font-family="Helvetica,sans-Serif" font-size="10.00">&#45; a</text>
<text text-anchor="start" x="8" y="-280" font-family="Helvetica,sans-Serif" font-size="10.00">&#45; b</text>
<text text-anchor="start" x="8" y="-269" font-family="Helvetica,sans-Serif" font-size="10.00">&#45; x</text>
<polyline fill="none" stroke="black" points="0,-262 139,-262 "/>
<text text-anchor="start" x="8" y="-250" font-family="Helvetica,sans-Serif" font-size="10.00">+ IntegerSource()</text>
<text text-anchor="start" x="8" y="-239" font-family="Helvetica,sans-Serif" font-size="10.00">+ getElement()</text>
<text text-anchor="start" x="8" y="-228" font-family="Helvetica,sans-Serif" font-size="10.00">+ stop()</text>
<text text-anchor="start" x="8" y="-217" font-family="Helvetica,sans-Serif" font-size="10.00">+ toString()</text>
</a>
</g>
</g>
<!-- Node1&#45;&gt;Node8 -->
<g id="edge7" class="edge"><title>Node1&#45;&gt;Node8</title>
<path fill="none" stroke="midnightblue" d="M446.109,-450.983C370.323,-446.486 241.142,-430.065 148.5,-372 132.614,-362.043 118.568,-347.729 106.891,-333.049"/>
<polygon fill="none" stroke="midnightblue" points="446.265,-454.496 456.439,-451.541 446.643,-447.506 446.265,-454.496"/>
</g>
<!-- Node9 -->
<g id="node9" class="node"><title>Node9</title>
<g id="a_node9"><a xlink:href="../../d3/d7c/classprolog_1_1fluents_1_1JavaSource.html" target="_top" xlink:title="Builds Prolog Iterators from Java Sequences and Iterator type classes. ">
<polygon fill="none" stroke="black" points="157.5,-221 157.5,-322 287.5,-322 287.5,-221 157.5,-221"/>
<text text-anchor="middle" x="222.5" y="-310" font-family="Helvetica,sans-Serif" font-size="10.00">prolog.fluents.JavaSource</text>
<polyline fill="none" stroke="black" points="157.5,-303 287.5,-303 "/>
<text text-anchor="start" x="165.5" y="-291" font-family="Helvetica,sans-Serif" font-size="10.00">&#45; e</text>
<polyline fill="none" stroke="black" points="157.5,-284 287.5,-284 "/>
<text text-anchor="start" x="165.5" y="-272" font-family="Helvetica,sans-Serif" font-size="10.00">+ JavaSource()</text>
<text text-anchor="start" x="165.5" y="-261" font-family="Helvetica,sans-Serif" font-size="10.00">+ JavaSource()</text>
<text text-anchor="start" x="165.5" y="-250" font-family="Helvetica,sans-Serif" font-size="10.00">+ JavaSource()</text>
<text text-anchor="start" x="165.5" y="-239" font-family="Helvetica,sans-Serif" font-size="10.00">+ getElement()</text>
<text text-anchor="start" x="165.5" y="-228" font-family="Helvetica,sans-Serif" font-size="10.00">+ stop()</text>
</a>
</g>
</g>
<!-- Node1&#45;&gt;Node9 -->
<g id="edge8" class="edge"><title>Node1&#45;&gt;Node9</title>
<path fill="none" stroke="midnightblue" d="M446.585,-438.94C401.658,-426.858 341.179,-405.762 296.5,-372 278.723,-358.567 263.225,-339.732 251.068,-322.058"/>
<polygon fill="none" stroke="midnightblue" points="445.939,-442.388 456.499,-441.528 447.707,-435.615 445.939,-442.388"/>
</g>
<!-- Node12 -->
<g id="node12" class="node"><title>Node12</title>
<g id="a_node12"><a xlink:href="../../d6/d98/classprolog_1_1fluents_1_1SourceLoop.html" target="_top" xlink:title="An Infinite Source. ">
<polygon fill="none" stroke="black" points="305.5,-215.5 305.5,-327.5 435.5,-327.5 435.5,-215.5 305.5,-215.5"/>
<text text-anchor="middle" x="370.5" y="-315.5" font-family="Helvetica,sans-Serif" font-size="10.00">prolog.fluents.SourceLoop</text>
<polyline fill="none" stroke="black" points="305.5,-308.5 435.5,-308.5 "/>
<text text-anchor="start" x="313.5" y="-296.5" font-family="Helvetica,sans-Serif" font-size="10.00">~ s</text>
<text text-anchor="start" x="313.5" y="-285.5" font-family="Helvetica,sans-Serif" font-size="10.00">&#45; v</text>
<text text-anchor="start" x="313.5" y="-274.5" font-family="Helvetica,sans-Serif" font-size="10.00">&#45; i</text>
<polyline fill="none" stroke="black" points="305.5,-267.5 435.5,-267.5 "/>
<text text-anchor="start" x="313.5" y="-255.5" font-family="Helvetica,sans-Serif" font-size="10.00">+ SourceLoop()</text>
<text text-anchor="start" x="313.5" y="-244.5" font-family="Helvetica,sans-Serif" font-size="10.00">+ getElement()</text>
<text text-anchor="start" x="313.5" y="-233.5" font-family="Helvetica,sans-Serif" font-size="10.00">+ stop()</text>
<text text-anchor="start" x="313.5" y="-222.5" font-family="Helvetica,sans-Serif" font-size="10.00">&#45; getMemoized()</text>
</a>
</g>
</g>
<!-- Node1&#45;&gt;Node12 -->
<g id="edge11" class="edge"><title>Node1&#45;&gt;Node12</title>
<path fill="none" stroke="midnightblue" d="M466.811,-400.567C459.329,-391.104 451.643,-381.288 444.5,-372 433.541,-357.751 421.859,-342.211 411.091,-327.739"/>
<polygon fill="none" stroke="midnightblue" points="464.077,-402.751 473.032,-408.414 469.562,-398.403 464.077,-402.751"/>
</g>
<!-- Node13 -->
<g id="node13" class="node"><title>Node13</title>
<g id="a_node13"><a xlink:href="../../d5/db0/classprolog_1_1io_1_1CharReader.html" target="_top" xlink:title="Builds Fluents from Java Streams. ">
<polygon fill="none" stroke="black" points="454,-210 454,-333 563,-333 563,-210 454,-210"/>
<text text-anchor="middle" x="508.5" y="-321" font-family="Helvetica,sans-Serif" font-size="10.00">prolog.io.CharReader</text>
<polyline fill="none" stroke="black" points="454,-314 563,-314 "/>
<text text-anchor="start" x="462" y="-302" font-family="Helvetica,sans-Serif" font-size="10.00">+ reader</text>
<polyline fill="none" stroke="black" points="454,-295 563,-295 "/>
<text text-anchor="start" x="462" y="-283" font-family="Helvetica,sans-Serif" font-size="10.00">+ CharReader()</text>
<text text-anchor="start" x="462" y="-272" font-family="Helvetica,sans-Serif" font-size="10.00">+ CharReader()</text>
<text text-anchor="start" x="462" y="-261" font-family="Helvetica,sans-Serif" font-size="10.00">+ CharReader()</text>
<text text-anchor="start" x="462" y="-250" font-family="Helvetica,sans-Serif" font-size="10.00">+ CharReader()</text>
<text text-anchor="start" x="462" y="-239" font-family="Helvetica,sans-Serif" font-size="10.00">+ getElement()</text>
<text text-anchor="start" x="462" y="-228" font-family="Helvetica,sans-Serif" font-size="10.00">+ stop()</text>
<text text-anchor="start" x="462" y="-217" font-family="Helvetica,sans-Serif" font-size="10.00"># makeReader()</text>
</a>
</g>
</g>
<!-- Node1&#45;&gt;Node13 -->
<g id="edge12" class="edge"><title>Node1&#45;&gt;Node13</title>
<path fill="none" stroke="midnightblue" d="M508.5,-398.321C508.5,-377.748 508.5,-354.191 508.5,-333.065"/>
<polygon fill="none" stroke="midnightblue" points="505,-398.467 508.5,-408.467 512,-398.467 505,-398.467"/>
</g>
<!-- Node15 -->
<g id="node15" class="node"><title>Node15</title>
<g id="a_node15"><a xlink:href="../../d9/d07/classprolog_1_1io_1_1TermSource.html" target="_top" xlink:title="Maps a Term to an Source for iterating over its arguments. ">
<polygon fill="none" stroke="black" points="581.5,-226.5 581.5,-316.5 691.5,-316.5 691.5,-226.5 581.5,-226.5"/>
<text text-anchor="middle" x="636.5" y="-304.5" font-family="Helvetica,sans-Serif" font-size="10.00">prolog.io.TermSource</text>
<polyline fill="none" stroke="black" points="581.5,-297.5 691.5,-297.5 "/>
<text text-anchor="start" x="589.5" y="-285.5" font-family="Helvetica,sans-Serif" font-size="10.00">&#45; val</text>
<text text-anchor="start" x="589.5" y="-274.5" font-family="Helvetica,sans-Serif" font-size="10.00">&#45; pos</text>
<polyline fill="none" stroke="black" points="581.5,-267.5 691.5,-267.5 "/>
<text text-anchor="start" x="589.5" y="-255.5" font-family="Helvetica,sans-Serif" font-size="10.00">+ TermSource()</text>
<text text-anchor="start" x="589.5" y="-244.5" font-family="Helvetica,sans-Serif" font-size="10.00">+ getElement()</text>
<text text-anchor="start" x="589.5" y="-233.5" font-family="Helvetica,sans-Serif" font-size="10.00">+ stop()</text>
</a>
</g>
</g>
<!-- Node1&#45;&gt;Node15 -->
<g id="edge14" class="edge"><title>Node1&#45;&gt;Node15</title>
<path fill="none" stroke="midnightblue" d="M550.433,-400.247C557.6,-390.943 564.868,-381.263 571.5,-372 584.232,-354.216 597.565,-334.101 608.818,-316.633"/>
<polygon fill="none" stroke="midnightblue" points="547.544,-398.261 544.179,-408.307 553.075,-402.552 547.544,-398.261"/>
</g>
<!-- Node16 -->
<g id="node16" class="node"><title>Node16</title>
<g id="a_node16"><a xlink:href="../../d4/d26/classprolog_1_1terms_1_1Prog.html" target="_top" xlink:title="Basic toplevel Prolog Engine. ">
<polygon fill="none" stroke="black" points="709.5,-182.5 709.5,-360.5 803.5,-360.5 803.5,-182.5 709.5,-182.5"/>
<text text-anchor="middle" x="756.5" y="-348.5" font-family="Helvetica,sans-Serif" font-size="10.00">prolog.terms.Prog</text>
<polyline fill="none" stroke="black" points="709.5,-341.5 803.5,-341.5 "/>
<text text-anchor="start" x="717.5" y="-329.5" font-family="Helvetica,sans-Serif" font-size="10.00">+ tracing</text>
<text text-anchor="start" x="717.5" y="-318.5" font-family="Helvetica,sans-Serif" font-size="10.00">&#45; trail</text>
<text text-anchor="start" x="717.5" y="-307.5" font-family="Helvetica,sans-Serif" font-size="10.00">&#45; orStack</text>
<text text-anchor="start" x="717.5" y="-296.5" font-family="Helvetica,sans-Serif" font-size="10.00">&#45; parent</text>
<polyline fill="none" stroke="black" points="709.5,-289.5 803.5,-289.5 "/>
<text text-anchor="start" x="717.5" y="-277.5" font-family="Helvetica,sans-Serif" font-size="10.00">+ Prog()</text>
<text text-anchor="start" x="717.5" y="-266.5" font-family="Helvetica,sans-Serif" font-size="10.00">+ getTrail()</text>
<text text-anchor="start" x="717.5" y="-255.5" font-family="Helvetica,sans-Serif" font-size="10.00">+ getParent()</text>
<text text-anchor="start" x="717.5" y="-244.5" font-family="Helvetica,sans-Serif" font-size="10.00">+ getElement()</text>
<text text-anchor="start" x="717.5" y="-233.5" font-family="Helvetica,sans-Serif" font-size="10.00">+ stop()</text>
<text text-anchor="start" x="717.5" y="-222.5" font-family="Helvetica,sans-Serif" font-size="10.00">+ run()</text>
<text text-anchor="start" x="717.5" y="-211.5" font-family="Helvetica,sans-Serif" font-size="10.00">+ firstSolution()</text>
<text text-anchor="start" x="717.5" y="-200.5" font-family="Helvetica,sans-Serif" font-size="10.00">+ new_engine()</text>
<text text-anchor="start" x="717.5" y="-189.5" font-family="Helvetica,sans-Serif" font-size="10.00">+ ask_engine()</text>
</a>
</g>
</g>
<!-- Node1&#45;&gt;Node16 -->
<g id="edge15" class="edge"><title>Node1&#45;&gt;Node16</title>
<path fill="none" stroke="midnightblue" d="M570.664,-437.764C611.343,-425.589 663.595,-404.867 700.5,-372 704.349,-368.572 707.993,-364.815 711.436,-360.829"/>
<polygon fill="none" stroke="midnightblue" points="569.486,-434.461 560.853,-440.603 571.432,-441.185 569.486,-434.461"/>
</g>
<!-- Node17 -->
<g id="node17" class="node"><title>Node17</title>
<g id="a_node17"><a xlink:href="../../df/d94/classprolog_1_1terms_1_1Unfolder.html" target="_top" xlink:title="depends ">
<polygon fill="none" stroke="black" points="821.5,-171.5 821.5,-371.5 931.5,-371.5 931.5,-171.5 821.5,-171.5"/>
<text text-anchor="middle" x="876.5" y="-359.5" font-family="Helvetica,sans-Serif" font-size="10.00">prolog.terms.Unfolder</text>
<polyline fill="none" stroke="black" points="821.5,-352.5 931.5,-352.5 "/>
<text text-anchor="start" x="829.5" y="-340.5" font-family="Helvetica,sans-Serif" font-size="10.00">&#45; oldtop</text>
<text text-anchor="start" x="829.5" y="-329.5" font-family="Helvetica,sans-Serif" font-size="10.00">&#45; e</text>
<text text-anchor="start" x="829.5" y="-318.5" font-family="Helvetica,sans-Serif" font-size="10.00">&#45; goal</text>
<text text-anchor="start" x="829.5" y="-307.5" font-family="Helvetica,sans-Serif" font-size="10.00">&#45; prog</text>
<polyline fill="none" stroke="black" points="821.5,-300.5 931.5,-300.5 "/>
<text text-anchor="start" x="829.5" y="-288.5" font-family="Helvetica,sans-Serif" font-size="10.00">+ Unfolder()</text>
<text text-anchor="start" x="829.5" y="-277.5" font-family="Helvetica,sans-Serif" font-size="10.00">+ getElement()</text>
<text text-anchor="start" x="829.5" y="-266.5" font-family="Helvetica,sans-Serif" font-size="10.00">+ stop()</text>
<text text-anchor="start" x="829.5" y="-255.5" font-family="Helvetica,sans-Serif" font-size="10.00">+ toString()</text>
<text text-anchor="start" x="829.5" y="-244.5" font-family="Helvetica,sans-Serif" font-size="10.00">~ getAnswer()</text>
<text text-anchor="start" x="829.5" y="-233.5" font-family="Helvetica,sans-Serif" font-size="10.00">~ notLastClause()</text>
<text text-anchor="start" x="829.5" y="-222.5" font-family="Helvetica,sans-Serif" font-size="10.00">~ reduceBuiltins()</text>
<text text-anchor="start" x="829.5" y="-211.5" font-family="Helvetica,sans-Serif" font-size="10.00">~ trace_goal()</text>
<text text-anchor="start" x="829.5" y="-200.5" font-family="Helvetica,sans-Serif" font-size="10.00">~ trace_failing()</text>
<text text-anchor="start" x="829.5" y="-189.5" font-family="Helvetica,sans-Serif" font-size="10.00">~ trace_nomatch()</text>
<text text-anchor="start" x="829.5" y="-178.5" font-family="Helvetica,sans-Serif" font-size="10.00"># trailMe()</text>
</a>
</g>
</g>
<!-- Node1&#45;&gt;Node17 -->
<g id="edge16" class="edge"><title>Node1&#45;&gt;Node17</title>
<path fill="none" stroke="midnightblue" d="M570.899,-449.109C636.635,-442.738 740.423,-424.445 812.5,-372 815.489,-369.825 818.375,-367.464 821.156,-364.953"/>
<polygon fill="none" stroke="midnightblue" points="570.33,-445.646 560.686,-450.032 570.961,-452.618 570.33,-445.646"/>
</g>
<!-- Node2 -->
<g id="node2" class="node"><title>Node2</title>
<g id="a_node2"><a xlink:href="../../d9/d3b/classprolog_1_1terms_1_1Fluent.html" target="_top" xlink:title="A Fluent is a Prolog Object which has its own state, subject to changes over time. ">
<polygon fill="none" stroke="black" points="458,-535.5 458,-647.5 559,-647.5 559,-535.5 458,-535.5"/>
<text text-anchor="middle" x="508.5" y="-635.5" font-family="Helvetica,sans-Serif" font-size="10.00">prolog.terms.Fluent</text>
<polyline fill="none" stroke="black" points="458,-628.5 559,-628.5 "/>
<text text-anchor="start" x="466" y="-616.5" font-family="Helvetica,sans-Serif" font-size="10.00">&#45; persistent</text>
<polyline fill="none" stroke="black" points="458,-609.5 559,-609.5 "/>
<text text-anchor="start" x="466" y="-597.5" font-family="Helvetica,sans-Serif" font-size="10.00">+ Fluent()</text>
<text text-anchor="start" x="466" y="-586.5" font-family="Helvetica,sans-Serif" font-size="10.00">+ setPersistent()</text>
<text text-anchor="start" x="466" y="-575.5" font-family="Helvetica,sans-Serif" font-size="10.00">+ getPersistent()</text>
<text text-anchor="start" x="466" y="-564.5" font-family="Helvetica,sans-Serif" font-size="10.00">+ stop()</text>
<text text-anchor="start" x="466" y="-553.5" font-family="Helvetica,sans-Serif" font-size="10.00"># trailMe()</text>
<text text-anchor="start" x="466" y="-542.5" font-family="Helvetica,sans-Serif" font-size="10.00"># undo()</text>
</a>
</g>
</g>
<!-- Node2&#45;&gt;Node1 -->
<g id="edge1" class="edge"><title>Node2&#45;&gt;Node1</title>
<path fill="none" stroke="midnightblue" d="M508.5,-525.076C508.5,-516.072 508.5,-507.007 508.5,-498.514"/>
<polygon fill="none" stroke="midnightblue" points="505,-525.184 508.5,-535.184 512,-525.184 505,-525.184"/>
</g>
<!-- Node3 -->
<g id="node3" class="node"><title>Node3</title>
<g id="a_node3"><a xlink:href="../../d6/dc1/classprolog_1_1terms_1_1SystemObject.html" target="_top" xlink:title="A SystemObject is a Nonvar with system assigned name. ">
<polygon fill="none" stroke="black" points="440.5,-684.5 440.5,-796.5 576.5,-796.5 576.5,-684.5 440.5,-684.5"/>
<text text-anchor="middle" x="508.5" y="-784.5" font-family="Helvetica,sans-Serif" font-size="10.00">prolog.terms.SystemObject</text>
<polyline fill="none" stroke="black" points="440.5,-777.5 576.5,-777.5 "/>
<text text-anchor="start" x="448.5" y="-765.5" font-family="Helvetica,sans-Serif" font-size="10.00">~ ctr</text>
<text text-anchor="start" x="448.5" y="-754.5" font-family="Helvetica,sans-Serif" font-size="10.00">&#45; ordinal</text>
<polyline fill="none" stroke="black" points="440.5,-747.5 576.5,-747.5 "/>
<text text-anchor="start" x="448.5" y="-735.5" font-family="Helvetica,sans-Serif" font-size="10.00">+ SystemObject()</text>
<text text-anchor="start" x="448.5" y="-724.5" font-family="Helvetica,sans-Serif" font-size="10.00">+ name()</text>
<text text-anchor="start" x="448.5" y="-713.5" font-family="Helvetica,sans-Serif" font-size="10.00">+ toString()</text>
<text text-anchor="start" x="448.5" y="-702.5" font-family="Helvetica,sans-Serif" font-size="10.00">+ getArity()</text>
<text text-anchor="start" x="448.5" y="-691.5" font-family="Helvetica,sans-Serif" font-size="10.00">~ bind_to()</text>
</a>
</g>
</g>
<!-- Node3&#45;&gt;Node2 -->
<g id="edge2" class="edge"><title>Node3&#45;&gt;Node2</title>
<path fill="none" stroke="midnightblue" d="M508.5,-674.176C508.5,-665.427 508.5,-656.522 508.5,-647.965"/>
<polygon fill="none" stroke="midnightblue" points="505,-674.344 508.5,-684.344 512,-674.344 505,-674.344"/>
</g>
<!-- Node4 -->
<g id="node4" class="node"><title>Node4</title>
<g id="a_node4"><a xlink:href="../../d4/de0/classprolog_1_1terms_1_1Nonvar.html" target="_top" xlink:title="Part of the Prolog Term hierarchy. ">
<polygon fill="none" stroke="black" points="456,-833.5 456,-923.5 561,-923.5 561,-833.5 456,-833.5"/>
<text text-anchor="middle" x="508.5" y="-911.5" font-family="Helvetica,sans-Serif" font-size="10.00">prolog.terms.Nonvar</text>
<polyline fill="none" stroke="black" points="456,-904.5 561,-904.5 "/>
<text text-anchor="middle" x="508.5" y="-892.5" font-family="Helvetica,sans-Serif" font-size="10.00"> </text>
<polyline fill="none" stroke="black" points="456,-885.5 561,-885.5 "/>
<text text-anchor="start" x="464" y="-873.5" font-family="Helvetica,sans-Serif" font-size="10.00">+ name()</text>
<text text-anchor="start" x="464" y="-862.5" font-family="Helvetica,sans-Serif" font-size="10.00">~ bind_to()</text>
<text text-anchor="start" x="464" y="-851.5" font-family="Helvetica,sans-Serif" font-size="10.00">~ unify_to()</text>
<text text-anchor="start" x="464" y="-840.5" font-family="Helvetica,sans-Serif" font-size="10.00">~ listify()</text>
</a>
</g>
</g>
<!-- Node4&#45;&gt;Node3 -->
<g id="edge3" class="edge"><title>Node4&#45;&gt;Node3</title>
<path fill="none" stroke="midnightblue" d="M508.5,-823.312C508.5,-814.611 508.5,-805.595 508.5,-796.867"/>
<polygon fill="none" stroke="midnightblue" points="505,-823.345 508.5,-833.345 512,-823.345 505,-823.345"/>
</g>
<!-- Node5 -->
<g id="node5" class="node"><title>Node5</title>
<g id="a_node5"><a xlink:href="../../d3/ded/classprolog_1_1terms_1_1Term.html" target="_top" xlink:title="Top element of the Prolog term hierarchy. ">
<polygon fill="none" stroke="black" points="459.5,-960.5 459.5,-1314.5 557.5,-1314.5 557.5,-960.5 459.5,-960.5"/>
<text text-anchor="middle" x="508.5" y="-1302.5" font-family="Helvetica,sans-Serif" font-size="10.00">prolog.terms.Term</text>
<polyline fill="none" stroke="black" points="459.5,-1295.5 557.5,-1295.5 "/>
<text text-anchor="start" x="467.5" y="-1283.5" font-family="Helvetica,sans-Serif" font-size="10.00">+ JAVA</text>
<text text-anchor="start" x="467.5" y="-1272.5" font-family="Helvetica,sans-Serif" font-size="10.00">+ REAL</text>
<text text-anchor="start" x="467.5" y="-1261.5" font-family="Helvetica,sans-Serif" font-size="10.00">+ INT</text>
<text text-anchor="start" x="467.5" y="-1250.5" font-family="Helvetica,sans-Serif" font-size="10.00">+ VAR</text>
<text text-anchor="start" x="467.5" y="-1239.5" font-family="Helvetica,sans-Serif" font-size="10.00">+ CONST</text>
<polyline fill="none" stroke="black" points="459.5,-1232.5 557.5,-1232.5 "/>
<text text-anchor="start" x="467.5" y="-1220.5" font-family="Helvetica,sans-Serif" font-size="10.00">+ getArity()</text>
<text text-anchor="start" x="467.5" y="-1209.5" font-family="Helvetica,sans-Serif" font-size="10.00">+ ref()</text>
<text text-anchor="start" x="467.5" y="-1198.5" font-family="Helvetica,sans-Serif" font-size="10.00">+ token()</text>
<text text-anchor="start" x="467.5" y="-1187.5" font-family="Helvetica,sans-Serif" font-size="10.00">+ toClause()</text>
<text text-anchor="start" x="467.5" y="-1176.5" font-family="Helvetica,sans-Serif" font-size="10.00">+ matches()</text>
<text text-anchor="start" x="467.5" y="-1165.5" font-family="Helvetica,sans-Serif" font-size="10.00">+ matches()</text>
<text text-anchor="start" x="467.5" y="-1154.5" font-family="Helvetica,sans-Serif" font-size="10.00">+ matching_copy()</text>
<text text-anchor="start" x="467.5" y="-1143.5" font-family="Helvetica,sans-Serif" font-size="10.00">+ copy()</text>
<text text-anchor="start" x="467.5" y="-1132.5" font-family="Helvetica,sans-Serif" font-size="10.00">+ varsOf()</text>
<text text-anchor="start" x="467.5" y="-1121.5" font-family="Helvetica,sans-Serif" font-size="10.00">+ numbervars()</text>
<text text-anchor="start" x="467.5" y="-1110.5" font-family="Helvetica,sans-Serif" font-size="10.00">and 6 more...</text>
<text text-anchor="start" x="467.5" y="-1099.5" font-family="Helvetica,sans-Serif" font-size="10.00">+ fromString()</text>
<text text-anchor="start" x="467.5" y="-1088.5" font-family="Helvetica,sans-Serif" font-size="10.00">+ charsToString()</text>
<text text-anchor="start" x="467.5" y="-1077.5" font-family="Helvetica,sans-Serif" font-size="10.00">~ bind_to()</text>
<text text-anchor="start" x="467.5" y="-1066.5" font-family="Helvetica,sans-Serif" font-size="10.00">~ unify_to()</text>
<text text-anchor="start" x="467.5" y="-1055.5" font-family="Helvetica,sans-Serif" font-size="10.00">~ toTerm()</text>
<text text-anchor="start" x="467.5" y="-1044.5" font-family="Helvetica,sans-Serif" font-size="10.00">~ isClause()</text>
<text text-anchor="start" x="467.5" y="-1033.5" font-family="Helvetica,sans-Serif" font-size="10.00">~ reaction()</text>
<text text-anchor="start" x="467.5" y="-1022.5" font-family="Helvetica,sans-Serif" font-size="10.00">~ action()</text>
<text text-anchor="start" x="467.5" y="-1011.5" font-family="Helvetica,sans-Serif" font-size="10.00">~ exec()</text>
<text text-anchor="start" x="467.5" y="-1000.5" font-family="Helvetica,sans-Serif" font-size="10.00">~ stringToChars()</text>
<text text-anchor="start" x="467.5" y="-989.5" font-family="Helvetica,sans-Serif" font-size="10.00"># unify()</text>
<text text-anchor="start" x="467.5" y="-978.5" font-family="Helvetica,sans-Serif" font-size="10.00"># undo()</text>
<text text-anchor="start" x="467.5" y="-967.5" font-family="Helvetica,sans-Serif" font-size="10.00"># exec()</text>
</a>
</g>
</g>
<!-- Node5&#45;&gt;Node4 -->
<g id="edge4" class="edge"><title>Node5&#45;&gt;Node4</title>
<path fill="none" stroke="midnightblue" d="M508.5,-950.431C508.5,-940.975 508.5,-932.043 508.5,-923.912"/>
<polygon fill="none" stroke="midnightblue" points="505,-950.464 508.5,-960.464 512,-950.464 505,-950.464"/>
</g>
<!-- Node6 -->
<g id="node6" class="node"><title>Node6</title>
<polygon fill="none" stroke="#bfbfbf" points="451,-1351.5 451,-1408.5 496,-1408.5 496,-1351.5 451,-1351.5"/>
<text text-anchor="middle" x="473.5" y="-1396.5" font-family="Helvetica,sans-Serif" font-size="10.00">Object</text>
<polyline fill="none" stroke="#bfbfbf" points="451,-1389.5 496,-1389.5 "/>
<text text-anchor="middle" x="473.5" y="-1377.5" font-family="Helvetica,sans-Serif" font-size="10.00"> </text>
<polyline fill="none" stroke="#bfbfbf" points="451,-1370.5 496,-1370.5 "/>
<text text-anchor="middle" x="473.5" y="-1358.5" font-family="Helvetica,sans-Serif" font-size="10.00"> </text>
</g>
<!-- Node6&#45;&gt;Node5 -->
<g id="edge5" class="edge"><title>Node6&#45;&gt;Node5</title>
<path fill="none" stroke="midnightblue" d="M478.965,-1341.45C480.132,-1333.43 481.438,-1324.46 482.833,-1314.87"/>
<polygon fill="none" stroke="midnightblue" points="475.492,-1341.01 477.515,-1351.41 482.419,-1342.02 475.492,-1341.01"/>
</g>
<!-- Node7 -->
<g id="node7" class="node"><title>Node7</title>
<polygon fill="none" stroke="#bfbfbf" points="514.5,-1351.5 514.5,-1408.5 574.5,-1408.5 574.5,-1351.5 514.5,-1351.5"/>
<text text-anchor="middle" x="544.5" y="-1396.5" font-family="Helvetica,sans-Serif" font-size="10.00">Cloneable</text>
<polyline fill="none" stroke="#bfbfbf" points="514.5,-1389.5 574.5,-1389.5 "/>
<text text-anchor="middle" x="544.5" y="-1377.5" font-family="Helvetica,sans-Serif" font-size="10.00"> </text>
<polyline fill="none" stroke="#bfbfbf" points="514.5,-1370.5 574.5,-1370.5 "/>
<text text-anchor="middle" x="544.5" y="-1358.5" font-family="Helvetica,sans-Serif" font-size="10.00"> </text>
</g>
<!-- Node7&#45;&gt;Node5 -->
<g id="edge6" class="edge"><title>Node7&#45;&gt;Node5</title>
<path fill="none" stroke="midnightblue" d="M538.879,-1341.45C537.678,-1333.43 536.335,-1324.46 534.901,-1314.87"/>
<polygon fill="none" stroke="midnightblue" points="535.428,-1342.04 540.37,-1351.41 542.351,-1341 535.428,-1342.04"/>
</g>
<!-- Node10 -->
<g id="node10" class="node"><title>Node10</title>
<g id="a_node10"><a xlink:href="../../da/d30/classprolog_1_1fluents_1_1ListSource.html" target="_top" xlink:title="Builds an iterator from a list. ">
<polygon fill="none" stroke="black" points="80,-39 80,-96 205,-96 205,-39 80,-39"/>
<text text-anchor="middle" x="142.5" y="-84" font-family="Helvetica,sans-Serif" font-size="10.00">prolog.fluents.ListSource</text>
<polyline fill="none" stroke="black" points="80,-77 205,-77 "/>
<text text-anchor="middle" x="142.5" y="-65" font-family="Helvetica,sans-Serif" font-size="10.00"> </text>
<polyline fill="none" stroke="black" points="80,-58 205,-58 "/>
<text text-anchor="start" x="88" y="-46" font-family="Helvetica,sans-Serif" font-size="10.00">+ ListSource()</text>
</a>
</g>
</g>
<!-- Node9&#45;&gt;Node10 -->
<g id="edge9" class="edge"><title>Node9&#45;&gt;Node10</title>
<path fill="none" stroke="midnightblue" d="M199.089,-211.386C184.034,-173.372 165.168,-125.738 153.474,-96.2099"/>
<polygon fill="none" stroke="midnightblue" points="195.891,-212.818 202.827,-220.827 202.399,-210.24 195.891,-212.818"/>
</g>
<!-- Node11 -->
<g id="node11" class="node"><title>Node11</title>
<g id="a_node11"><a xlink:href="../../d9/dc9/classprolog_1_1fluents_1_1SourceMerger.html" target="_top" xlink:title="Merges a List of Sources into a new Source which (fairly) iterates over them breadth first...">
<polygon fill="none" stroke="black" points="223,-33.5 223,-101.5 362,-101.5 362,-33.5 223,-33.5"/>
<text text-anchor="middle" x="292.5" y="-89.5" font-family="Helvetica,sans-Serif" font-size="10.00">prolog.fluents.SourceMerger</text>
<polyline fill="none" stroke="black" points="223,-82.5 362,-82.5 "/>
<text text-anchor="start" x="231" y="-70.5" font-family="Helvetica,sans-Serif" font-size="10.00">&#45; Q</text>
<polyline fill="none" stroke="black" points="223,-63.5 362,-63.5 "/>
<text text-anchor="start" x="231" y="-51.5" font-family="Helvetica,sans-Serif" font-size="10.00">+ SourceMerger()</text>
<text text-anchor="start" x="231" y="-40.5" font-family="Helvetica,sans-Serif" font-size="10.00">+ getElement()</text>
</a>
</g>
</g>
<!-- Node9&#45;&gt;Node11 -->
<g id="edge10" class="edge"><title>Node9&#45;&gt;Node11</title>
<path fill="none" stroke="midnightblue" d="M243.123,-210.989C255.506,-175.254 270.796,-131.132 281.052,-101.536"/>
<polygon fill="none" stroke="midnightblue" points="239.681,-210.232 239.714,-220.827 246.295,-212.524 239.681,-210.232"/>
</g>
<!-- Node14 -->
<g id="node14" class="node"><title>Node14</title>
<g id="a_node14"><a xlink:href="../../d4/d09/classprolog_1_1io_1_1ClauseReader.html" target="_top" xlink:title="Builds Fluents from Java Streams. ">
<polygon fill="none" stroke="black" points="449,-0.5 449,-134.5 568,-134.5 568,-0.5 449,-0.5"/>
<text text-anchor="middle" x="508.5" y="-122.5" font-family="Helvetica,sans-Serif" font-size="10.00">prolog.io.ClauseReader</text>
<polyline fill="none" stroke="black" points="449,-115.5 568,-115.5 "/>
<text text-anchor="start" x="457" y="-103.5" font-family="Helvetica,sans-Serif" font-size="10.00"># parser</text>
<polyline fill="none" stroke="black" points="449,-96.5 568,-96.5 "/>
<text text-anchor="start" x="457" y="-84.5" font-family="Helvetica,sans-Serif" font-size="10.00">+ ClauseReader()</text>
<text text-anchor="start" x="457" y="-73.5" font-family="Helvetica,sans-Serif" font-size="10.00">+ ClauseReader()</text>
<text text-anchor="start" x="457" y="-62.5" font-family="Helvetica,sans-Serif" font-size="10.00">+ ClauseReader()</text>
<text text-anchor="start" x="457" y="-51.5" font-family="Helvetica,sans-Serif" font-size="10.00">+ ClauseReader()</text>
<text text-anchor="start" x="457" y="-40.5" font-family="Helvetica,sans-Serif" font-size="10.00">+ getElement()</text>
<text text-anchor="start" x="457" y="-29.5" font-family="Helvetica,sans-Serif" font-size="10.00">+ stop()</text>
<text text-anchor="start" x="457" y="-18.5" font-family="Helvetica,sans-Serif" font-size="10.00">~ make_parser()</text>
<text text-anchor="start" x="457" y="-7.5" font-family="Helvetica,sans-Serif" font-size="10.00">~ extract_info()</text>
</a>
</g>
</g>
<!-- Node13&#45;&gt;Node14 -->
<g id="edge13" class="edge"><title>Node13&#45;&gt;Node14</title>
<path fill="none" stroke="midnightblue" d="M508.5,-199.699C508.5,-178.579 508.5,-155.518 508.5,-134.704"/>
<polygon fill="none" stroke="midnightblue" points="505,-199.893 508.5,-209.893 512,-199.893 505,-199.893"/>
</g>
</g>
</svg>
