<?xml version="1.0" encoding="UTF-8" standalone="no"?>
<!DOCTYPE svg PUBLIC "-//W3C//DTD SVG 1.1//EN"
 "http://www.w3.org/Graphics/SVG/1.1/DTD/svg11.dtd">
<!-- Generated by graphviz version 2.38.0 (20140413.2041)
 -->
<!-- Title: prolog.Init.askProlog Pages: 1 -->
<svg width="2024pt" height="393pt"
 viewBox="0.00 0.00 2024.00 392.71" xmlns="http://www.w3.org/2000/svg" xmlns:xlink="http://www.w3.org/1999/xlink">
<g id="graph0" class="graph" transform="scale(1 1) rotate(0) translate(4 388.713)">
<title>prolog.Init.askProlog</title>
<!-- Node1 -->
<g id="node1" class="node"><title>Node1</title>
<polygon fill="#bfbfbf" stroke="black" points="0,-175.213 0,-194.213 106,-194.213 106,-175.213 0,-175.213"/>
<text text-anchor="middle" x="53" y="-182.213" font-family="Helvetica,sans-Serif" font-size="10.00">prolog.Init.askProlog</text>
</g>
<!-- Node2 -->
<g id="node2" class="node"><title>Node2</title>
<g id="a_node2"><a xlink:href="../../d8/d35/classprolog_1_1Init_a4a7b9ae1dc4d489e657326f3ed5a4b7e.html#a4a7b9ae1dc4d489e657326f3ed5a4b7e" target="_top" xlink:title="Asks Prolog a query Answer, Goal and returns the first solution of the form &quot;the(Answer)&quot; or the cons...">
<polygon fill="none" stroke="black" points="142,-175.213 142,-194.213 248,-194.213 248,-175.213 142,-175.213"/>
<text text-anchor="middle" x="195" y="-182.213" font-family="Helvetica,sans-Serif" font-size="10.00">prolog.Init.askProlog</text>
</a>
</g>
</g>
<!-- Node1&#45;&gt;Node2 -->
<g id="edge1" class="edge"><title>Node1&#45;&gt;Node2</title>
<path fill="none" stroke="midnightblue" d="M106.131,-184.713C114.421,-184.713 123.07,-184.713 131.568,-184.713"/>
<polygon fill="midnightblue" stroke="midnightblue" points="131.826,-188.213 141.826,-184.713 131.826,-181.213 131.826,-188.213"/>
</g>
<!-- Node3 -->
<g id="node3" class="node"><title>Node3</title>
<g id="a_node3"><a xlink:href="../../d4/d26/classprolog_1_1terms_1_1Prog_afb6f86119db8ba133de23f8bfe24ba2e.html#afb6f86119db8ba133de23f8bfe24ba2e" target="_top" xlink:title="Computes a copy of the first solution X of Goal G. ">
<polygon fill="none" stroke="black" points="284,-175.213 284,-194.213 433,-194.213 433,-175.213 284,-175.213"/>
<text text-anchor="middle" x="358.5" y="-182.213" font-family="Helvetica,sans-Serif" font-size="10.00">prolog.terms.Prog.firstSolution</text>
</a>
</g>
</g>
<!-- Node2&#45;&gt;Node3 -->
<g id="edge2" class="edge"><title>Node2&#45;&gt;Node3</title>
<path fill="none" stroke="midnightblue" d="M248.434,-184.713C256.577,-184.713 265.159,-184.713 273.787,-184.713"/>
<polygon fill="midnightblue" stroke="midnightblue" points="273.912,-188.213 283.912,-184.713 273.912,-181.213 273.912,-188.213"/>
</g>
<!-- Node4 -->
<g id="node4" class="node"><title>Node4</title>
<g id="a_node4"><a xlink:href="../../d4/d26/classprolog_1_1terms_1_1Prog_afb9691e6cce6f75afc1c67ac0b28d107.html#afb9691e6cce6f75afc1c67ac0b28d107" target="_top" xlink:title="creates a new logic engine ">
<polygon fill="none" stroke="black" points="469,-278.713 469,-308.713 584,-308.713 584,-278.713 469,-278.713"/>
<text text-anchor="start" x="477" y="-296.713" font-family="Helvetica,sans-Serif" font-size="10.00">prolog.terms.Prog.new</text>
<text text-anchor="middle" x="526.5" y="-285.713" font-family="Helvetica,sans-Serif" font-size="10.00">_engine</text>
</a>
</g>
</g>
<!-- Node3&#45;&gt;Node4 -->
<g id="edge3" class="edge"><title>Node3&#45;&gt;Node4</title>
<path fill="none" stroke="midnightblue" d="M374.231,-194.386C400.931,-211.918 457.871,-249.306 493.772,-272.879"/>
<polygon fill="midnightblue" stroke="midnightblue" points="492.134,-275.991 502.414,-278.555 495.976,-270.14 492.134,-275.991"/>
</g>
<!-- Node12 -->
<g id="node12" class="node"><title>Node12</title>
<g id="a_node12"><a xlink:href="../../d4/d26/classprolog_1_1terms_1_1Prog_a696a0c92a1814ecf4f21fb09fbc854a0.html#a696a0c92a1814ecf4f21fb09fbc854a0" target="_top" xlink:title="asks a logic engine to return a solution ">
<polygon fill="none" stroke="black" points="470,-169.713 470,-199.713 583,-199.713 583,-169.713 470,-169.713"/>
<text text-anchor="start" x="478" y="-187.713" font-family="Helvetica,sans-Serif" font-size="10.00">prolog.terms.Prog.ask</text>
<text text-anchor="middle" x="526.5" y="-176.713" font-family="Helvetica,sans-Serif" font-size="10.00">_engine</text>
</a>
</g>
</g>
<!-- Node3&#45;&gt;Node12 -->
<g id="edge11" class="edge"><title>Node3&#45;&gt;Node12</title>
<path fill="none" stroke="midnightblue" d="M433.277,-184.713C442.114,-184.713 451.093,-184.713 459.806,-184.713"/>
<polygon fill="midnightblue" stroke="midnightblue" points="459.887,-188.213 469.887,-184.713 459.887,-181.213 459.887,-188.213"/>
</g>
<!-- Node34 -->
<g id="node34" class="node"><title>Node34</title>
<g id="a_node34"><a xlink:href="../../d4/d26/classprolog_1_1terms_1_1Prog_a58deb818dfa50ebe37ac32eb2aae9ac9.html#a58deb818dfa50ebe37ac32eb2aae9ac9" target="_top" xlink:title="prolog.terms.Prog.stop">
<polygon fill="none" stroke="black" points="820,-71.2132 820,-90.2132 936,-90.2132 936,-71.2132 820,-71.2132"/>
<text text-anchor="middle" x="878" y="-78.2132" font-family="Helvetica,sans-Serif" font-size="10.00">prolog.terms.Prog.stop</text>
</a>
</g>
</g>
<!-- Node3&#45;&gt;Node34 -->
<g id="edge47" class="edge"><title>Node3&#45;&gt;Node34</title>
<path fill="none" stroke="midnightblue" d="M399.733,-175.191C420.401,-170.385 446.009,-164.562 469,-159.713 591.199,-133.94 734.68,-106.903 814.795,-92.0934"/>
<polygon fill="midnightblue" stroke="midnightblue" points="815.521,-95.5185 824.72,-90.2615 814.251,-88.6348 815.521,-95.5185"/>
</g>
<!-- Node5 -->
<g id="node5" class="node"><title>Node5</title>
<g id="a_node5"><a xlink:href="../../d4/d26/classprolog_1_1terms_1_1Prog_a9e9f1fcf979c833292d594d709d0f689.html#a9e9f1fcf979c833292d594d709d0f689" target="_top" xlink:title="Creates a Prog starting execution with argument &quot;goal&quot;. ">
<polygon fill="none" stroke="black" points="634.5,-323.213 634.5,-342.213 751.5,-342.213 751.5,-323.213 634.5,-323.213"/>
<text text-anchor="middle" x="693" y="-330.213" font-family="Helvetica,sans-Serif" font-size="10.00">prolog.terms.Prog.Prog</text>
</a>
</g>
</g>
<!-- Node4&#45;&gt;Node5 -->
<g id="edge4" class="edge"><title>Node4&#45;&gt;Node5</title>
<path fill="none" stroke="midnightblue" d="M584.112,-307.135C602.931,-311.597 623.741,-316.53 642.023,-320.864"/>
<polygon fill="midnightblue" stroke="midnightblue" points="641.353,-324.303 651.89,-323.204 642.967,-317.491 641.353,-324.303"/>
</g>
<!-- Node6 -->
<g id="node6" class="node"><title>Node6</title>
<g id="a_node6"><a xlink:href="../../d6/dc4/classprolog_1_1terms_1_1Clause_ad1a287e7c18ca6880e5d8f7d97c6acd9.html#ad1a287e7c18ca6880e5d8f7d97c6acd9" target="_top" xlink:title="Creates a copy of the clause with variables standardized apart, i.e. ">
<polygon fill="none" stroke="black" points="1351,-365.213 1351,-384.213 1485,-384.213 1485,-365.213 1351,-365.213"/>
<text text-anchor="middle" x="1418" y="-372.213" font-family="Helvetica,sans-Serif" font-size="10.00">prolog.terms.Clause.ccopy</text>
</a>
</g>
</g>
<!-- Node5&#45;&gt;Node6 -->
<g id="edge5" class="edge"><title>Node5&#45;&gt;Node6</title>
<path fill="none" stroke="midnightblue" d="M740.052,-342.245C759.138,-345.822 781.554,-349.543 802,-351.713 995.122,-372.215 1224.04,-375.198 1340.57,-375.205"/>
<polygon fill="midnightblue" stroke="midnightblue" points="1340.81,-378.705 1350.8,-375.197 1340.8,-371.705 1340.81,-378.705"/>
</g>
<!-- Node11 -->
<g id="node11" class="node"><title>Node11</title>
<g id="a_node11"><a xlink:href="../../da/d93/classprolog_1_1terms_1_1ObjectStack_a058b4b33eb3234f7d3426058bcbcace0.html#a058b4b33eb3234f7d3426058bcbcace0" target="_top" xlink:title="prolog.terms.ObjectStack.push">
<polygon fill="none" stroke="black" points="802,-323.213 802,-342.213 954,-342.213 954,-323.213 802,-323.213"/>
<text text-anchor="middle" x="878" y="-330.213" font-family="Helvetica,sans-Serif" font-size="10.00">prolog.terms.ObjectStack.push</text>
</a>
</g>
</g>
<!-- Node5&#45;&gt;Node11 -->
<g id="edge10" class="edge"><title>Node5&#45;&gt;Node11</title>
<path fill="none" stroke="midnightblue" d="M751.651,-332.713C764.341,-332.713 778.042,-332.713 791.566,-332.713"/>
<polygon fill="midnightblue" stroke="midnightblue" points="791.853,-336.213 801.853,-332.713 791.853,-329.213 791.853,-336.213"/>
</g>
<!-- Node7 -->
<g id="node7" class="node"><title>Node7</title>
<g id="a_node7"><a xlink:href="../../d6/dc4/classprolog_1_1terms_1_1Clause_a414492a8d9d648788aadfd423ee32fb0.html#a414492a8d9d648788aadfd423ee32fb0" target="_top" xlink:title="Builds a clause given its head and its body. ">
<polygon fill="none" stroke="black" points="1536.5,-327.213 1536.5,-346.213 1674.5,-346.213 1674.5,-327.213 1536.5,-327.213"/>
<text text-anchor="middle" x="1605.5" y="-334.213" font-family="Helvetica,sans-Serif" font-size="10.00">prolog.terms.Clause.Clause</text>
</a>
</g>
</g>
<!-- Node6&#45;&gt;Node7 -->
<g id="edge6" class="edge"><title>Node6&#45;&gt;Node7</title>
<path fill="none" stroke="midnightblue" d="M1465.81,-365.124C1490.84,-359.997 1521.84,-353.646 1548.18,-348.25"/>
<polygon fill="midnightblue" stroke="midnightblue" points="1548.93,-351.669 1558.03,-346.233 1547.53,-344.811 1548.93,-351.669"/>
</g>
<!-- Node8 -->
<g id="node8" class="node"><title>Node8</title>
<g id="a_node8"><a xlink:href="../../d3/ded/classprolog_1_1terms_1_1Term_a01e5a83e648ee3f89415c0142c4220d4.html#a01e5a83e648ee3f89415c0142c4220d4" target="_top" xlink:title="Returns a copy of a term with variables standardized apart (`fresh variables&#39;). ">
<polygon fill="none" stroke="black" points="1545.5,-365.213 1545.5,-384.213 1665.5,-384.213 1665.5,-365.213 1545.5,-365.213"/>
<text text-anchor="middle" x="1605.5" y="-372.213" font-family="Helvetica,sans-Serif" font-size="10.00">prolog.terms.Term.copy</text>
</a>
</g>
</g>
<!-- Node6&#45;&gt;Node8 -->
<g id="edge7" class="edge"><title>Node6&#45;&gt;Node8</title>
<path fill="none" stroke="midnightblue" d="M1485.18,-374.713C1501.47,-374.713 1518.95,-374.713 1535.37,-374.713"/>
<polygon fill="midnightblue" stroke="midnightblue" points="1535.44,-378.213 1545.44,-374.713 1535.44,-371.213 1535.44,-378.213"/>
</g>
<!-- Node9 -->
<g id="node9" class="node"><title>Node9</title>
<g id="a_node9"><a xlink:href="../../d3/ded/classprolog_1_1terms_1_1Term_a0a660e6cd55f12e49d328e1b84b478a4.html#a0a660e6cd55f12e49d328e1b84b478a4" target="_top" xlink:title="Defines the reaction to an agent recursing over the structure of a term. ">
<polygon fill="none" stroke="black" points="1721,-365.213 1721,-384.213 1855,-384.213 1855,-365.213 1721,-365.213"/>
<text text-anchor="middle" x="1788" y="-372.213" font-family="Helvetica,sans-Serif" font-size="10.00">prolog.terms.Term.reaction</text>
</a>
</g>
</g>
<!-- Node8&#45;&gt;Node9 -->
<g id="edge8" class="edge"><title>Node8&#45;&gt;Node9</title>
<path fill="none" stroke="midnightblue" d="M1665.6,-374.713C1679.97,-374.713 1695.54,-374.713 1710.58,-374.713"/>
<polygon fill="midnightblue" stroke="midnightblue" points="1710.89,-378.213 1720.89,-374.713 1710.89,-371.213 1710.89,-378.213"/>
</g>
<!-- Node10 -->
<g id="node10" class="node"><title>Node10</title>
<g id="a_node10"><a xlink:href="../../d3/ded/classprolog_1_1terms_1_1Term_aa52e271c0f6784dbde9aa4f5f3ab0268.html#aa52e271c0f6784dbde9aa4f5f3ab0268" target="_top" xlink:title="Identity action. ">
<polygon fill="none" stroke="black" points="1891,-365.213 1891,-384.213 2016,-384.213 2016,-365.213 1891,-365.213"/>
<text text-anchor="middle" x="1953.5" y="-372.213" font-family="Helvetica,sans-Serif" font-size="10.00">prolog.terms.Term.action</text>
</a>
</g>
</g>
<!-- Node9&#45;&gt;Node10 -->
<g id="edge9" class="edge"><title>Node9&#45;&gt;Node10</title>
<path fill="none" stroke="midnightblue" d="M1855.03,-374.713C1863.57,-374.713 1872.34,-374.713 1880.96,-374.713"/>
<polygon fill="midnightblue" stroke="midnightblue" points="1880.98,-378.213 1890.98,-374.713 1880.98,-371.213 1880.98,-378.213"/>
</g>
<!-- Node13 -->
<g id="node13" class="node"><title>Node13</title>
<g id="a_node13"><a xlink:href="../../d4/d26/classprolog_1_1terms_1_1Prog_ac5d988b907a2843fcfcba4d1fd1e0deb.html#ac5d988b907a2843fcfcba4d1fd1e0deb" target="_top" xlink:title="Here is where actual LD&#45;resolution computation happens. ">
<polygon fill="none" stroke="black" points="620,-175.213 620,-194.213 766,-194.213 766,-175.213 620,-175.213"/>
<text text-anchor="middle" x="693" y="-182.213" font-family="Helvetica,sans-Serif" font-size="10.00">prolog.terms.Prog.getElement</text>
</a>
</g>
</g>
<!-- Node12&#45;&gt;Node13 -->
<g id="edge12" class="edge"><title>Node12&#45;&gt;Node13</title>
<path fill="none" stroke="midnightblue" d="M583.192,-184.713C591.725,-184.713 600.685,-184.713 609.647,-184.713"/>
<polygon fill="midnightblue" stroke="midnightblue" points="609.743,-188.213 619.743,-184.713 609.743,-181.213 609.743,-188.213"/>
</g>
<!-- Node13&#45;&gt;Node11 -->
<g id="edge42" class="edge"><title>Node13&#45;&gt;Node11</title>
<path fill="none" stroke="midnightblue" d="M699.745,-194.361C714.044,-217.552 753.587,-276.858 802,-308.713 808.739,-313.147 816.356,-316.813 824.089,-319.828"/>
<polygon fill="midnightblue" stroke="midnightblue" points="822.931,-323.131 833.526,-323.191 825.281,-316.537 822.931,-323.131"/>
</g>
<!-- Node14 -->
<g id="node14" class="node"><title>Node14</title>
<g id="a_node14"><a xlink:href="../../da/d93/classprolog_1_1terms_1_1ObjectStack_aaa01178e10f20beab62b1410ba720606.html#aaa01178e10f20beab62b1410ba720606" target="_top" xlink:title="prolog.terms.ObjectStack.pop">
<polygon fill="none" stroke="black" points="1164,-109.213 1164,-128.213 1310,-128.213 1310,-109.213 1164,-109.213"/>
<text text-anchor="middle" x="1237" y="-116.213" font-family="Helvetica,sans-Serif" font-size="10.00">prolog.terms.ObjectStack.pop</text>
</a>
</g>
</g>
<!-- Node13&#45;&gt;Node14 -->
<g id="edge13" class="edge"><title>Node13&#45;&gt;Node14</title>
<path fill="none" stroke="midnightblue" d="M710.909,-175.014C731.618,-163.698 768.13,-145.54 802,-137.713 921.986,-109.985 1065.47,-109.899 1153.67,-113.473"/>
<polygon fill="midnightblue" stroke="midnightblue" points="1153.74,-116.98 1163.88,-113.914 1154.04,-109.986 1153.74,-116.98"/>
</g>
<!-- Node15 -->
<g id="node15" class="node"><title>Node15</title>
<g id="a_node15"><a xlink:href="../../df/d94/classprolog_1_1terms_1_1Unfolder_aecb7a5d616b5375d40405f66c9401637.html#aecb7a5d616b5375d40405f66c9401637" target="_top" xlink:title="Extracts an answer at the end of an AND&#45;derivation. ">
<polygon fill="none" stroke="black" points="1173.5,-283.713 1173.5,-313.713 1300.5,-313.713 1300.5,-283.713 1173.5,-283.713"/>
<text text-anchor="start" x="1181.5" y="-301.713" font-family="Helvetica,sans-Serif" font-size="10.00">prolog.terms.Unfolder.get</text>
<text text-anchor="middle" x="1237" y="-290.713" font-family="Helvetica,sans-Serif" font-size="10.00">Answer</text>
</a>
</g>
</g>
<!-- Node13&#45;&gt;Node15 -->
<g id="edge14" class="edge"><title>Node13&#45;&gt;Node15</title>
<path fill="none" stroke="midnightblue" d="M701.681,-194.34C717.827,-213.744 757.486,-257.192 802,-274.713 921.844,-321.886 1074.79,-316.827 1163.44,-308.214"/>
<polygon fill="midnightblue" stroke="midnightblue" points="1163.8,-311.695 1173.39,-307.205 1163.09,-304.731 1163.8,-311.695"/>
</g>
<!-- Node18 -->
<g id="node18" class="node"><title>Node18</title>
<g id="a_node18"><a xlink:href="../../df/d94/classprolog_1_1terms_1_1Unfolder_a261a28665ab541b974afb636c3fec84b.html#a261a28665ab541b974afb636c3fec84b" target="_top" xlink:title="Returns a new clause by unfolding the goal with a matching clause in the database, or null if no such clause exists. ">
<polygon fill="none" stroke="black" points="814.5,-147.713 814.5,-177.713 941.5,-177.713 941.5,-147.713 814.5,-147.713"/>
<text text-anchor="start" x="822.5" y="-165.713" font-family="Helvetica,sans-Serif" font-size="10.00">prolog.terms.Unfolder.get</text>
<text text-anchor="middle" x="878" y="-154.713" font-family="Helvetica,sans-Serif" font-size="10.00">Element</text>
</a>
</g>
</g>
<!-- Node13&#45;&gt;Node18 -->
<g id="edge18" class="edge"><title>Node13&#45;&gt;Node18</title>
<path fill="none" stroke="midnightblue" d="M766.064,-176.05C778.691,-174.532 791.837,-172.951 804.477,-171.432"/>
<polygon fill="midnightblue" stroke="midnightblue" points="804.975,-174.897 814.486,-170.229 804.139,-167.947 804.975,-174.897"/>
</g>
<!-- Node26 -->
<g id="node26" class="node"><title>Node26</title>
<g id="a_node26"><a xlink:href="../../d6/dc4/classprolog_1_1terms_1_1Clause_a5e5502c9619429232fcb310406256830.html#a5e5502c9619429232fcb310406256830" target="_top" xlink:title="Extracts the head of a clause (a Term). ">
<polygon fill="none" stroke="black" points="1346,-23.2132 1346,-42.2132 1490,-42.2132 1490,-23.2132 1346,-23.2132"/>
<text text-anchor="middle" x="1418" y="-30.2132" font-family="Helvetica,sans-Serif" font-size="10.00">prolog.terms.Clause.getHead</text>
</a>
</g>
</g>
<!-- Node13&#45;&gt;Node26 -->
<g id="edge46" class="edge"><title>Node13&#45;&gt;Node26</title>
<path fill="none" stroke="midnightblue" d="M698.901,-175.022C711.831,-150.656 749.51,-86.9834 802,-61.7132 989.488,28.5492 1247.46,-1.69686 1360.31,-21.3684"/>
<polygon fill="midnightblue" stroke="midnightblue" points="1359.98,-24.8662 1370.44,-23.1759 1361.21,-17.9749 1359.98,-24.8662"/>
</g>
<!-- Node32 -->
<g id="node32" class="node"><title>Node32</title>
<g id="a_node32"><a xlink:href="../../df/d94/classprolog_1_1terms_1_1Unfolder_adb4a243f464b333dfdd915b2929f6b40.html#adb4a243f464b333dfdd915b2929f6b40" target="_top" xlink:title="Checks if this clause is the last one, allowing LCO. ">
<polygon fill="none" stroke="black" points="814.5,-235.713 814.5,-265.713 941.5,-265.713 941.5,-235.713 814.5,-235.713"/>
<text text-anchor="start" x="822.5" y="-253.713" font-family="Helvetica,sans-Serif" font-size="10.00">prolog.terms.Unfolder.not</text>
<text text-anchor="middle" x="878" y="-242.713" font-family="Helvetica,sans-Serif" font-size="10.00">LastClause</text>
</a>
</g>
</g>
<!-- Node13&#45;&gt;Node32 -->
<g id="edge41" class="edge"><title>Node13&#45;&gt;Node32</title>
<path fill="none" stroke="midnightblue" d="M718.343,-194.282C740.164,-202.781 773.095,-215.414 802,-225.713 808.254,-227.942 814.823,-230.221 821.364,-232.451"/>
<polygon fill="midnightblue" stroke="midnightblue" points="820.293,-235.784 830.888,-235.674 822.537,-229.153 820.293,-235.784"/>
</g>
<!-- Node33 -->
<g id="node33" class="node"><title>Node33</title>
<g id="a_node33"><a xlink:href="../../df/d94/classprolog_1_1terms_1_1Unfolder_a71545549869608e7a300c7dbd7ed7216.html#a71545549869608e7a300c7dbd7ed7216" target="_top" xlink:title="Stops production of more alternatives by setting the clause enumerator to null. ">
<polygon fill="none" stroke="black" points="812,-197.213 812,-216.213 944,-216.213 944,-197.213 812,-197.213"/>
<text text-anchor="middle" x="878" y="-204.213" font-family="Helvetica,sans-Serif" font-size="10.00">prolog.terms.Unfolder.stop</text>
</a>
</g>
</g>
<!-- Node13&#45;&gt;Node33 -->
<g id="edge43" class="edge"><title>Node13&#45;&gt;Node33</title>
<path fill="none" stroke="midnightblue" d="M766.064,-193.377C777.745,-194.781 789.869,-196.238 801.627,-197.652"/>
<polygon fill="midnightblue" stroke="midnightblue" points="801.498,-201.162 811.844,-198.88 802.334,-194.212 801.498,-201.162"/>
</g>
<!-- Node13&#45;&gt;Node34 -->
<g id="edge44" class="edge"><title>Node13&#45;&gt;Node34</title>
<path fill="none" stroke="midnightblue" d="M709.241,-175.06C724.06,-165.509 747.043,-150.251 766,-135.713 782.755,-122.864 783.575,-115.026 802,-104.713 809.801,-100.347 818.51,-96.6449 827.154,-93.5532"/>
<polygon fill="midnightblue" stroke="midnightblue" points="828.459,-96.8075 836.835,-90.319 826.241,-90.1683 828.459,-96.8075"/>
</g>
<!-- Node15&#45;&gt;Node6 -->
<g id="edge17" class="edge"><title>Node15&#45;&gt;Node6</title>
<path fill="none" stroke="midnightblue" d="M1266.9,-313.824C1288.4,-324.773 1318.64,-339.551 1346,-350.713 1355.67,-354.657 1366.25,-358.487 1376.23,-361.887"/>
<polygon fill="midnightblue" stroke="midnightblue" points="1375.35,-365.283 1385.94,-365.131 1377.57,-358.644 1375.35,-365.283"/>
</g>
<!-- Node16 -->
<g id="node16" class="node"><title>Node16</title>
<g id="a_node16"><a xlink:href="../../d6/dc4/classprolog_1_1terms_1_1Clause_ab690dc7c5a2d5b6007fbf559a537d262.html#ab690dc7c5a2d5b6007fbf559a537d262" target="_top" xlink:title="Extracts the body of a clause. ">
<polygon fill="none" stroke="black" points="1534,-137.213 1534,-156.213 1677,-156.213 1677,-137.213 1534,-137.213"/>
<text text-anchor="middle" x="1605.5" y="-144.213" font-family="Helvetica,sans-Serif" font-size="10.00">prolog.terms.Clause.getBody</text>
</a>
</g>
</g>
<!-- Node15&#45;&gt;Node16 -->
<g id="edge15" class="edge"><title>Node15&#45;&gt;Node16</title>
<path fill="none" stroke="midnightblue" d="M1300.7,-294.721C1354.04,-289.028 1431.14,-275.217 1490,-241.713 1510.22,-230.205 1508.51,-219.057 1526,-203.713 1543.62,-188.248 1565.3,-172.746 1581.4,-161.821"/>
<polygon fill="midnightblue" stroke="midnightblue" points="1583.35,-164.726 1589.71,-156.252 1579.46,-158.91 1583.35,-164.726"/>
</g>
<!-- Node17 -->
<g id="node17" class="node"><title>Node17</title>
<g id="a_node17"><a xlink:href="../../d3/ded/classprolog_1_1terms_1_1Term_ae140fac2c9d066dc897fcfa723060a7a.html#ae140fac2c9d066dc897fcfa723060a7a" target="_top" xlink:title="Dereferences if necessary. ">
<polygon fill="none" stroke="black" points="1733,-99.2132 1733,-118.213 1843,-118.213 1843,-99.2132 1733,-99.2132"/>
<text text-anchor="middle" x="1788" y="-106.213" font-family="Helvetica,sans-Serif" font-size="10.00">prolog.terms.Term.ref</text>
</a>
</g>
</g>
<!-- Node16&#45;&gt;Node17 -->
<g id="edge16" class="edge"><title>Node16&#45;&gt;Node17</title>
<path fill="none" stroke="midnightblue" d="M1652.05,-137.124C1676.3,-132.019 1706.3,-125.702 1731.86,-120.321"/>
<polygon fill="midnightblue" stroke="midnightblue" points="1732.72,-123.718 1741.78,-118.233 1731.27,-116.868 1732.72,-123.718"/>
</g>
<!-- Node19 -->
<g id="node19" class="node"><title>Node19</title>
<g id="a_node19"><a xlink:href="../../d4/d26/classprolog_1_1terms_1_1Prog_a41eac8617a5002806d7137eb36183405.html#a41eac8617a5002806d7137eb36183405" target="_top" xlink:title="prolog.terms.Prog.getTrail">
<polygon fill="none" stroke="black" points="994.5,-147.213 994.5,-166.213 1123.5,-166.213 1123.5,-147.213 994.5,-147.213"/>
<text text-anchor="middle" x="1059" y="-154.213" font-family="Helvetica,sans-Serif" font-size="10.00">prolog.terms.Prog.getTrail</text>
</a>
</g>
</g>
<!-- Node18&#45;&gt;Node19 -->
<g id="edge19" class="edge"><title>Node18&#45;&gt;Node19</title>
<path fill="none" stroke="midnightblue" d="M941.606,-160.615C955.316,-160.155 969.954,-159.664 984.061,-159.192"/>
<polygon fill="midnightblue" stroke="midnightblue" points="984.341,-162.684 994.218,-158.851 984.106,-155.688 984.341,-162.684"/>
</g>
<!-- Node20 -->
<g id="node20" class="node"><title>Node20</title>
<g id="a_node20"><a xlink:href="../../dd/dad/classprolog_1_1terms_1_1Trail_adab6fa04fe8e0da6e1870bd1b37a654b.html#adab6fa04fe8e0da6e1870bd1b37a654b" target="_top" xlink:title="Used to undo bindings after unification, if we intend to leave no side effects. ">
<polygon fill="none" stroke="black" points="996,-71.2132 996,-90.2132 1122,-90.2132 1122,-71.2132 996,-71.2132"/>
<text text-anchor="middle" x="1059" y="-78.2132" font-family="Helvetica,sans-Serif" font-size="10.00">prolog.terms.Trail.unwind</text>
</a>
</g>
</g>
<!-- Node18&#45;&gt;Node20 -->
<g id="edge20" class="edge"><title>Node18&#45;&gt;Node20</title>
<path fill="none" stroke="midnightblue" d="M911.831,-147.673C944.942,-132.505 995.632,-109.284 1027.78,-94.557"/>
<polygon fill="midnightblue" stroke="midnightblue" points="1029.49,-97.6245 1037.12,-90.2776 1026.57,-91.2604 1029.49,-97.6245"/>
</g>
<!-- Node22 -->
<g id="node22" class="node"><title>Node22</title>
<g id="a_node22"><a xlink:href="../../d3/ded/classprolog_1_1terms_1_1Term_a8ea1883429587f5ffa2d7aa6c272039c.html#a8ea1883429587f5ffa2d7aa6c272039c" target="_top" xlink:title="prolog.terms.Term.toClause">
<polygon fill="none" stroke="black" points="990,-185.213 990,-204.213 1128,-204.213 1128,-185.213 990,-185.213"/>
<text text-anchor="middle" x="1059" y="-192.213" font-family="Helvetica,sans-Serif" font-size="10.00">prolog.terms.Term.toClause</text>
</a>
</g>
</g>
<!-- Node18&#45;&gt;Node22 -->
<g id="edge23" class="edge"><title>Node18&#45;&gt;Node22</title>
<path fill="none" stroke="midnightblue" d="M941.606,-173.905C958.798,-176.979 977.45,-180.313 994.682,-183.394"/>
<polygon fill="midnightblue" stroke="midnightblue" points="994.183,-186.86 1004.64,-185.174 995.415,-179.969 994.183,-186.86"/>
</g>
<!-- Node23 -->
<g id="node23" class="node"><title>Node23</title>
<g id="a_node23"><a xlink:href="../../d6/dc4/classprolog_1_1terms_1_1Clause_a0d8b6d3c8de70326ab416be12688896b.html#a0d8b6d3c8de70326ab416be12688896b" target="_top" xlink:title="prolog.terms.Clause.unfold\l_with_goal">
<polygon fill="none" stroke="black" points="992,-223.713 992,-253.713 1126,-253.713 1126,-223.713 992,-223.713"/>
<text text-anchor="start" x="1000" y="-241.713" font-family="Helvetica,sans-Serif" font-size="10.00">prolog.terms.Clause.unfold</text>
<text text-anchor="middle" x="1059" y="-230.713" font-family="Helvetica,sans-Serif" font-size="10.00">_with_goal</text>
</a>
</g>
</g>
<!-- Node18&#45;&gt;Node23 -->
<g id="edge24" class="edge"><title>Node18&#45;&gt;Node23</title>
<path fill="none" stroke="midnightblue" d="M931.083,-177.78C938.925,-180.701 946.794,-184.02 954,-187.713 971.564,-196.715 972.576,-204.444 990,-213.713 993.98,-215.831 998.179,-217.845 1002.46,-219.744"/>
<polygon fill="midnightblue" stroke="midnightblue" points="1001.32,-223.063 1011.9,-223.712 1004.03,-216.61 1001.32,-223.063"/>
</g>
<!-- Node20&#45;&gt;Node14 -->
<g id="edge21" class="edge"><title>Node20&#45;&gt;Node14</title>
<path fill="none" stroke="midnightblue" d="M1104.41,-90.3022C1127.95,-95.3845 1157.06,-101.669 1181.9,-107.034"/>
<polygon fill="midnightblue" stroke="midnightblue" points="1181.39,-110.504 1191.91,-109.193 1182.87,-103.661 1181.39,-110.504"/>
</g>
<!-- Node21 -->
<g id="node21" class="node"><title>Node21</title>
<g id="a_node21"><a xlink:href="../../d3/ded/classprolog_1_1terms_1_1Term_ac710eec3650309d160ca04e364804e47.html#ac710eec3650309d160ca04e364804e47" target="_top" xlink:title="prolog.terms.Term.undo">
<polygon fill="none" stroke="black" points="1177,-71.2132 1177,-90.2132 1297,-90.2132 1297,-71.2132 1177,-71.2132"/>
<text text-anchor="middle" x="1237" y="-78.2132" font-family="Helvetica,sans-Serif" font-size="10.00">prolog.terms.Term.undo</text>
</a>
</g>
</g>
<!-- Node20&#45;&gt;Node21 -->
<g id="edge22" class="edge"><title>Node20&#45;&gt;Node21</title>
<path fill="none" stroke="midnightblue" d="M1122.05,-80.7132C1136.53,-80.7132 1152.03,-80.7132 1166.79,-80.7132"/>
<polygon fill="midnightblue" stroke="midnightblue" points="1166.87,-84.2133 1176.87,-80.7132 1166.87,-77.2133 1166.87,-84.2133"/>
</g>
<!-- Node24 -->
<g id="node24" class="node"><title>Node24</title>
<g id="a_node24"><a xlink:href="../../d6/dc4/classprolog_1_1terms_1_1Clause_a9c5f957d0240113f4328ebbc73d3b31d.html#a9c5f957d0240113f4328ebbc73d3b31d" target="_top" xlink:title="Algebraic composition operation of 2 Clauses, doing the basic resolution step Prolog is based on...">
<polygon fill="none" stroke="black" points="1170,-194.213 1170,-213.213 1304,-213.213 1304,-194.213 1170,-194.213"/>
<text text-anchor="middle" x="1237" y="-201.213" font-family="Helvetica,sans-Serif" font-size="10.00">prolog.terms.Clause.unfold</text>
</a>
</g>
</g>
<!-- Node23&#45;&gt;Node24 -->
<g id="edge25" class="edge"><title>Node23&#45;&gt;Node24</title>
<path fill="none" stroke="midnightblue" d="M1126.04,-225.581C1143.08,-222.192 1161.3,-218.569 1177.9,-215.266"/>
<polygon fill="midnightblue" stroke="midnightblue" points="1178.88,-218.64 1188.01,-213.257 1177.52,-211.774 1178.88,-218.64"/>
</g>
<!-- Node24&#45;&gt;Node6 -->
<g id="edge31" class="edge"><title>Node24&#45;&gt;Node6</title>
<path fill="none" stroke="midnightblue" d="M1250.28,-213.267C1265.78,-225.81 1292.51,-249.138 1310,-273.713 1331.9,-304.495 1317.84,-325.528 1346,-350.713 1350.54,-354.77 1355.78,-358.145 1361.33,-360.953"/>
<polygon fill="midnightblue" stroke="midnightblue" points="1360.32,-364.331 1370.88,-365.162 1363.14,-357.926 1360.32,-364.331"/>
</g>
<!-- Node24&#45;&gt;Node7 -->
<g id="edge40" class="edge"><title>Node24&#45;&gt;Node7</title>
<path fill="none" stroke="midnightblue" d="M1254.41,-213.234C1275.21,-225.031 1312.42,-245.221 1346,-258.713 1417.1,-287.281 1502.8,-311.168 1555.46,-324.705"/>
<polygon fill="midnightblue" stroke="midnightblue" points="1554.67,-328.113 1565.22,-327.191 1556.39,-321.33 1554.67,-328.113"/>
</g>
<!-- Node24&#45;&gt;Node16 -->
<g id="edge37" class="edge"><title>Node24&#45;&gt;Node16</title>
<path fill="none" stroke="midnightblue" d="M1247.28,-194.059C1264.68,-176.731 1304.25,-140.93 1346,-127.713 1407.02,-108.397 1426.22,-122.457 1490,-127.713 1508.98,-129.277 1529.55,-132.275 1547.95,-135.436"/>
<polygon fill="midnightblue" stroke="midnightblue" points="1547.46,-138.905 1557.92,-137.201 1548.68,-132.012 1547.46,-138.905"/>
</g>
<!-- Node25 -->
<g id="node25" class="node"><title>Node25</title>
<g id="a_node25"><a xlink:href="../../d6/dc4/classprolog_1_1terms_1_1Clause_abb4cb737b264c815c48f32a431ec6f5a.html#abb4cb737b264c815c48f32a431ec6f5a" target="_top" xlink:title="Gets the leftmost (first) goal in the body of a clause, i.e. ">
<polygon fill="none" stroke="black" points="1348,-213.213 1348,-232.213 1488,-232.213 1488,-213.213 1348,-213.213"/>
<text text-anchor="middle" x="1418" y="-220.213" font-family="Helvetica,sans-Serif" font-size="10.00">prolog.terms.Clause.getFirst</text>
</a>
</g>
</g>
<!-- Node24&#45;&gt;Node25 -->
<g id="edge26" class="edge"><title>Node24&#45;&gt;Node25</title>
<path fill="none" stroke="midnightblue" d="M1304.14,-210.734C1315.05,-211.891 1326.45,-213.102 1337.64,-214.289"/>
<polygon fill="midnightblue" stroke="midnightblue" points="1337.52,-217.796 1347.83,-215.371 1338.25,-210.835 1337.52,-217.796"/>
</g>
<!-- Node24&#45;&gt;Node26 -->
<g id="edge28" class="edge"><title>Node24&#45;&gt;Node26</title>
<path fill="none" stroke="midnightblue" d="M1251.59,-194.15C1267.42,-182.412 1293.52,-161.159 1310,-137.713 1333.83,-103.813 1314.79,-78.9705 1346,-51.7132 1347.93,-50.0239 1350,-48.4828 1352.17,-47.0771"/>
<polygon fill="midnightblue" stroke="midnightblue" points="1353.86,-50.1448 1360.98,-42.2986 1350.52,-43.9925 1353.86,-50.1448"/>
</g>
<!-- Node27 -->
<g id="node27" class="node"><title>Node27</title>
<g id="a_node27"><a xlink:href="../../d3/ded/classprolog_1_1terms_1_1Term_a0a9b83bb831ed6ac6dd508c099007ac0.html#a0a9b83bb831ed6ac6dd508c099007ac0" target="_top" xlink:title="Tests if this term unifies with that. ">
<polygon fill="none" stroke="black" points="1349.5,-175.213 1349.5,-194.213 1486.5,-194.213 1486.5,-175.213 1349.5,-175.213"/>
<text text-anchor="middle" x="1418" y="-182.213" font-family="Helvetica,sans-Serif" font-size="10.00">prolog.terms.Term.matches</text>
</a>
</g>
</g>
<!-- Node24&#45;&gt;Node27 -->
<g id="edge30" class="edge"><title>Node24&#45;&gt;Node27</title>
<path fill="none" stroke="midnightblue" d="M1304.14,-196.692C1315.54,-195.482 1327.49,-194.214 1339.16,-192.975"/>
<polygon fill="midnightblue" stroke="midnightblue" points="1339.76,-196.432 1349.33,-191.896 1339.02,-189.471 1339.76,-196.432"/>
</g>
<!-- Node28 -->
<g id="node28" class="node"><title>Node28</title>
<g id="a_node28"><a xlink:href="../../d3/ded/classprolog_1_1terms_1_1Term_a84d8fb7e1f816d0dbe3c2c56ed28fdb9.html#a84d8fb7e1f816d0dbe3c2c56ed28fdb9" target="_top" xlink:title="Dereference and unify_to. ">
<polygon fill="none" stroke="black" points="1358,-61.2132 1358,-80.2132 1478,-80.2132 1478,-61.2132 1358,-61.2132"/>
<text text-anchor="middle" x="1418" y="-68.2132" font-family="Helvetica,sans-Serif" font-size="10.00">prolog.terms.Term.unify</text>
</a>
</g>
</g>
<!-- Node24&#45;&gt;Node28 -->
<g id="edge32" class="edge"><title>Node24&#45;&gt;Node28</title>
<path fill="none" stroke="midnightblue" d="M1249.4,-194.085C1263.97,-181.604 1289.73,-158.917 1310,-137.713 1327.22,-119.697 1325.43,-108.784 1346,-94.7132 1352.2,-90.4711 1359.22,-86.9217 1366.37,-83.9681"/>
<polygon fill="midnightblue" stroke="midnightblue" points="1368,-87.0931 1376.13,-80.3009 1365.54,-80.5399 1368,-87.0931"/>
</g>
<!-- Node30 -->
<g id="node30" class="node"><title>Node30</title>
<g id="a_node30"><a xlink:href="../../d6/dc4/classprolog_1_1terms_1_1Clause_af03de53b32948f858e2cbfeb697eaf4b.html#af03de53b32948f858e2cbfeb697eaf4b" target="_top" xlink:title="Concatenates 2 Conjunctions. ">
<polygon fill="none" stroke="black" points="1526,-213.213 1526,-232.213 1685,-232.213 1685,-213.213 1526,-213.213"/>
<text text-anchor="middle" x="1605.5" y="-220.213" font-family="Helvetica,sans-Serif" font-size="10.00">prolog.terms.Clause.appendConj</text>
</a>
</g>
</g>
<!-- Node24&#45;&gt;Node30 -->
<g id="edge35" class="edge"><title>Node24&#45;&gt;Node30</title>
<path fill="none" stroke="midnightblue" d="M1258.55,-213.303C1279.87,-222.685 1314.46,-236.326 1346,-241.713 1416.28,-253.716 1498.58,-243.584 1551.1,-234.119"/>
<polygon fill="midnightblue" stroke="midnightblue" points="1552.01,-237.51 1561.2,-232.241 1550.73,-230.628 1552.01,-237.51"/>
</g>
<!-- Node31 -->
<g id="node31" class="node"><title>Node31</title>
<g id="a_node31"><a xlink:href="../../d6/dc4/classprolog_1_1terms_1_1Clause_a60e4c0d7e8a9b03c5b073f3c2f023011.html#a60e4c0d7e8a9b03c5b073f3c2f023011" target="_top" xlink:title="Gets all but the leftmost goal in the body of a clause, i.e. ">
<polygon fill="none" stroke="black" points="1347,-137.213 1347,-156.213 1489,-156.213 1489,-137.213 1347,-137.213"/>
<text text-anchor="middle" x="1418" y="-144.213" font-family="Helvetica,sans-Serif" font-size="10.00">prolog.terms.Clause.getRest</text>
</a>
</g>
</g>
<!-- Node24&#45;&gt;Node31 -->
<g id="edge38" class="edge"><title>Node24&#45;&gt;Node31</title>
<path fill="none" stroke="midnightblue" d="M1263.56,-194.094C1285.33,-186.054 1317.52,-174.521 1346,-165.713 1353.54,-163.381 1361.59,-161.066 1369.45,-158.896"/>
<polygon fill="midnightblue" stroke="midnightblue" points="1370.53,-162.231 1379.26,-156.235 1368.69,-155.475 1370.53,-162.231"/>
</g>
<!-- Node25&#45;&gt;Node16 -->
<g id="edge27" class="edge"><title>Node25&#45;&gt;Node16</title>
<path fill="none" stroke="midnightblue" d="M1460.37,-213.14C1470.2,-210.455 1480.57,-207.28 1490,-203.713 1521.62,-191.75 1556.13,-173.856 1578.91,-161.316"/>
<polygon fill="midnightblue" stroke="midnightblue" points="1580.87,-164.227 1587.91,-156.303 1577.47,-158.111 1580.87,-164.227"/>
</g>
<!-- Node26&#45;&gt;Node17 -->
<g id="edge29" class="edge"><title>Node26&#45;&gt;Node17</title>
<path fill="none" stroke="midnightblue" d="M1490.05,-39.1787C1544.07,-45.0428 1619.94,-55.3231 1685,-71.7132 1709.06,-77.7755 1735.37,-87.3971 1755.24,-95.309"/>
<polygon fill="midnightblue" stroke="midnightblue" points="1754.14,-98.6378 1764.72,-99.1474 1756.77,-92.1497 1754.14,-98.6378"/>
</g>
<!-- Node28&#45;&gt;Node17 -->
<g id="edge33" class="edge"><title>Node28&#45;&gt;Node17</title>
<path fill="none" stroke="midnightblue" d="M1478.09,-73.0203C1532.12,-75.5834 1614.17,-80.6157 1685,-89.7132 1700.24,-91.6708 1716.65,-94.4337 1731.76,-97.2478"/>
<polygon fill="midnightblue" stroke="midnightblue" points="1731.5,-100.762 1741.98,-99.195 1732.81,-93.8853 1731.5,-100.762"/>
</g>
<!-- Node29 -->
<g id="node29" class="node"><title>Node29</title>
<g id="a_node29"><a xlink:href="../../d3/ded/classprolog_1_1terms_1_1Term_a866b2cca50e77e99b560578b2fa3a91a.html#a866b2cca50e77e99b560578b2fa3a91a" target="_top" xlink:title="Unify dereferenced. ">
<polygon fill="none" stroke="black" points="1538.5,-99.2132 1538.5,-118.213 1672.5,-118.213 1672.5,-99.2132 1538.5,-99.2132"/>
<text text-anchor="middle" x="1605.5" y="-106.213" font-family="Helvetica,sans-Serif" font-size="10.00">prolog.terms.Term.unify_to</text>
</a>
</g>
</g>
<!-- Node28&#45;&gt;Node29 -->
<g id="edge34" class="edge"><title>Node28&#45;&gt;Node29</title>
<path fill="none" stroke="midnightblue" d="M1465.81,-80.3022C1490.84,-85.4296 1521.84,-91.7804 1548.18,-97.1764"/>
<polygon fill="midnightblue" stroke="midnightblue" points="1547.53,-100.615 1558.03,-99.1931 1548.93,-93.7574 1547.53,-100.615"/>
</g>
<!-- Node30&#45;&gt;Node17 -->
<g id="edge36" class="edge"><title>Node30&#45;&gt;Node17</title>
<path fill="none" stroke="midnightblue" d="M1621.58,-213.19C1652.9,-193.407 1725.23,-147.727 1763.02,-123.859"/>
<polygon fill="midnightblue" stroke="midnightblue" points="1765.25,-126.589 1771.84,-118.29 1761.51,-120.671 1765.25,-126.589"/>
</g>
<!-- Node31&#45;&gt;Node16 -->
<g id="edge39" class="edge"><title>Node31&#45;&gt;Node16</title>
<path fill="none" stroke="midnightblue" d="M1489.13,-146.713C1500.48,-146.713 1512.31,-146.713 1523.88,-146.713"/>
<polygon fill="midnightblue" stroke="midnightblue" points="1523.96,-150.213 1533.96,-146.713 1523.96,-143.213 1523.96,-150.213"/>
</g>
<!-- Node34&#45;&gt;Node20 -->
<g id="edge45" class="edge"><title>Node34&#45;&gt;Node20</title>
<path fill="none" stroke="midnightblue" d="M936.129,-80.7132C951.889,-80.7132 969.196,-80.7132 985.694,-80.7132"/>
<polygon fill="midnightblue" stroke="midnightblue" points="985.84,-84.2133 995.84,-80.7132 985.84,-77.2133 985.84,-84.2133"/>
</g>
</g>
</svg>
