<?xml version="1.0" encoding="UTF-8" standalone="no"?>
<!DOCTYPE svg PUBLIC "-//W3C//DTD SVG 1.1//EN"
 "http://www.w3.org/Graphics/SVG/1.1/DTD/svg11.dtd">
<!-- Generated by graphviz version 2.38.0 (20140413.2041)
 -->
<!-- Title: prolog.Init.getGoal Pages: 1 -->
<svg width="535pt" height="104pt"
 viewBox="0.00 0.00 535.00 104.00" xmlns="http://www.w3.org/2000/svg" xmlns:xlink="http://www.w3.org/1999/xlink">
<g id="graph0" class="graph" transform="scale(1 1) rotate(0) translate(4 100)">
<title>prolog.Init.getGoal</title>
<!-- Node1 -->
<g id="node1" class="node"><title>Node1</title>
<polygon fill="#bfbfbf" stroke="black" points="0,-57.5 0,-76.5 96,-76.5 96,-57.5 0,-57.5"/>
<text text-anchor="middle" x="48" y="-64.5" font-family="Helvetica,sans-Serif" font-size="10.00">prolog.Init.getGoal</text>
</g>
<!-- Node2 -->
<g id="node2" class="node"><title>Node2</title>
<g id="a_node2"><a xlink:href="../../d4/dc2/classprolog_1_1io_1_1IO_a09da8fec5af0245e24996fe5a0addfdd.html#a09da8fec5af0245e24996fe5a0addfdd" target="_top" xlink:title="prolog.io.IO.promptln">
<polygon fill="none" stroke="black" points="132,-57.5 132,-76.5 239,-76.5 239,-57.5 132,-57.5"/>
<text text-anchor="middle" x="185.5" y="-64.5" font-family="Helvetica,sans-Serif" font-size="10.00">prolog.io.IO.promptln</text>
</a>
</g>
</g>
<!-- Node1&#45;&gt;Node2 -->
<g id="edge1" class="edge"><title>Node1&#45;&gt;Node2</title>
<path fill="none" stroke="midnightblue" d="M96.011,-67C104.252,-67 112.946,-67 121.537,-67"/>
<polygon fill="midnightblue" stroke="midnightblue" points="121.541,-70.5001 131.541,-67 121.541,-63.5001 121.541,-70.5001"/>
</g>
<!-- Node3 -->
<g id="node3" class="node"><title>Node3</title>
<g id="a_node3"><a xlink:href="../../d4/dc2/classprolog_1_1io_1_1IO_aab64872af087c6cd9c5dd13e9f4eda00.html#aab64872af087c6cd9c5dd13e9f4eda00" target="_top" xlink:title="prolog.io.IO.print">
<polygon fill="none" stroke="black" points="278.5,-76.5 278.5,-95.5 367.5,-95.5 367.5,-76.5 278.5,-76.5"/>
<text text-anchor="middle" x="323" y="-83.5" font-family="Helvetica,sans-Serif" font-size="10.00">prolog.io.IO.print</text>
</a>
</g>
</g>
<!-- Node2&#45;&gt;Node3 -->
<g id="edge2" class="edge"><title>Node2&#45;&gt;Node3</title>
<path fill="none" stroke="midnightblue" d="M239.276,-74.4003C248.771,-75.7317 258.679,-77.1211 268.203,-78.4565"/>
<polygon fill="midnightblue" stroke="midnightblue" points="267.96,-81.9566 278.349,-79.8792 268.932,-75.0244 267.96,-81.9566"/>
</g>
<!-- Node5 -->
<g id="node5" class="node"><title>Node5</title>
<g id="a_node5"><a xlink:href="../../d4/dc2/classprolog_1_1io_1_1IO_a4604d4d86f3043f525dd9362720b9264.html#a4604d4d86f3043f525dd9362720b9264" target="_top" xlink:title="prolog.io.IO.readln">
<polygon fill="none" stroke="black" points="275,-38.5 275,-57.5 371,-57.5 371,-38.5 275,-38.5"/>
<text text-anchor="middle" x="323" y="-45.5" font-family="Helvetica,sans-Serif" font-size="10.00">prolog.io.IO.readln</text>
</a>
</g>
</g>
<!-- Node2&#45;&gt;Node5 -->
<g id="edge4" class="edge"><title>Node2&#45;&gt;Node5</title>
<path fill="none" stroke="midnightblue" d="M239.276,-59.5997C247.623,-58.4293 256.289,-57.2141 264.733,-56.0301"/>
<polygon fill="midnightblue" stroke="midnightblue" points="265.468,-59.4613 274.885,-54.6065 264.496,-52.5291 265.468,-59.4613"/>
</g>
<!-- Node4 -->
<g id="node4" class="node"><title>Node4</title>
<g id="a_node4"><a xlink:href="../../d6/d92/interfaceprolog_1_1io_1_1IOPeer_abc1f90b85b358011e2595069d38ac25f.html#abc1f90b85b358011e2595069d38ac25f" target="_top" xlink:title="prolog.io.IOPeer.print">
<polygon fill="none" stroke="black" points="412.5,-76.5 412.5,-95.5 521.5,-95.5 521.5,-76.5 412.5,-76.5"/>
<text text-anchor="middle" x="467" y="-83.5" font-family="Helvetica,sans-Serif" font-size="10.00">prolog.io.IOPeer.print</text>
</a>
</g>
</g>
<!-- Node3&#45;&gt;Node4 -->
<g id="edge3" class="edge"><title>Node3&#45;&gt;Node4</title>
<path fill="none" stroke="midnightblue" d="M367.763,-86C378.667,-86 390.581,-86 402.232,-86"/>
<polygon fill="midnightblue" stroke="midnightblue" points="402.372,-89.5001 412.372,-86 402.372,-82.5001 402.372,-89.5001"/>
</g>
<!-- Node6 -->
<g id="node6" class="node"><title>Node6</title>
<g id="a_node6"><a xlink:href="../../d4/dc2/classprolog_1_1io_1_1IO_ae19ebeb7bc391789b75de6e0b0097908.html#ae19ebeb7bc391789b75de6e0b0097908" target="_top" xlink:title="prolog.io.IO.getStdInput">
<polygon fill="none" stroke="black" points="407,-38.5 407,-57.5 527,-57.5 527,-38.5 407,-38.5"/>
<text text-anchor="middle" x="467" y="-45.5" font-family="Helvetica,sans-Serif" font-size="10.00">prolog.io.IO.getStdInput</text>
</a>
</g>
</g>
<!-- Node5&#45;&gt;Node6 -->
<g id="edge5" class="edge"><title>Node5&#45;&gt;Node6</title>
<path fill="none" stroke="midnightblue" d="M371.284,-48C379.46,-48 388.111,-48 396.727,-48"/>
<polygon fill="midnightblue" stroke="midnightblue" points="396.796,-51.5001 406.796,-48 396.796,-44.5001 396.796,-51.5001"/>
</g>
<!-- Node7 -->
<g id="node7" class="node"><title>Node7</title>
<g id="a_node7"><a xlink:href="../../d6/d92/interfaceprolog_1_1io_1_1IOPeer_a636209ebcf005b2551e057fa57a6eb49.html#a636209ebcf005b2551e057fa57a6eb49" target="_top" xlink:title="prolog.io.IOPeer.readln">
<polygon fill="none" stroke="black" points="409,-0.5 409,-19.5 525,-19.5 525,-0.5 409,-0.5"/>
<text text-anchor="middle" x="467" y="-7.5" font-family="Helvetica,sans-Serif" font-size="10.00">prolog.io.IOPeer.readln</text>
</a>
</g>
</g>
<!-- Node5&#45;&gt;Node7 -->
<g id="edge6" class="edge"><title>Node5&#45;&gt;Node7</title>
<path fill="none" stroke="midnightblue" d="M359.833,-38.411C378.163,-33.5056 400.678,-27.4804 420.25,-22.2429"/>
<polygon fill="midnightblue" stroke="midnightblue" points="421.424,-25.5521 430.179,-19.5859 419.614,-18.7901 421.424,-25.5521"/>
</g>
</g>
</svg>
