<?xml version="1.0" encoding="UTF-8" standalone="no"?>
<!DOCTYPE svg PUBLIC "-//W3C//DTD SVG 1.1//EN"
 "http://www.w3.org/Graphics/SVG/1.1/DTD/svg11.dtd">
<!-- Generated by graphviz version 2.38.0 (20140413.2041)
 -->
<!-- Title: prolog.Init.evalGoal Pages: 1 -->
<svg width="398pt" height="66pt"
 viewBox="0.00 0.00 398.00 66.00" xmlns="http://www.w3.org/2000/svg" xmlns:xlink="http://www.w3.org/1999/xlink">
<g id="graph0" class="graph" transform="scale(1 1) rotate(0) translate(4 62)">
<title>prolog.Init.evalGoal</title>
<!-- Node1 -->
<g id="node1" class="node"><title>Node1</title>
<polygon fill="#bfbfbf" stroke="black" points="0,-19.5 0,-38.5 101,-38.5 101,-19.5 0,-19.5"/>
<text text-anchor="middle" x="50.5" y="-26.5" font-family="Helvetica,sans-Serif" font-size="10.00">prolog.Init.evalGoal</text>
</g>
<!-- Node2 -->
<g id="node2" class="node"><title>Node2</title>
<g id="a_node2"><a xlink:href="../../d8/d35/classprolog_1_1Init_a2471811f50fbed4de5df26ee530f1e2e.html#a2471811f50fbed4de5df26ee530f1e2e" target="_top" xlink:title="evaluates and times a Goal querying program P ">
<polygon fill="none" stroke="black" points="137,-19.5 137,-38.5 238,-38.5 238,-19.5 137,-19.5"/>
<text text-anchor="middle" x="187.5" y="-26.5" font-family="Helvetica,sans-Serif" font-size="10.00">prolog.Init.timeGoal</text>
</a>
</g>
</g>
<!-- Node1&#45;&gt;Node2 -->
<g id="edge1" class="edge"><title>Node1&#45;&gt;Node2</title>
<path fill="none" stroke="midnightblue" d="M111.207,-29C119.67,-29 128.299,-29 136.552,-29"/>
<polygon fill="midnightblue" stroke="midnightblue" points="111.002,-25.5001 101.002,-29 111.002,-32.5001 111.002,-25.5001"/>
</g>
<!-- Node3 -->
<g id="node3" class="node"><title>Node3</title>
<g id="a_node3"><a xlink:href="../../d8/d35/classprolog_1_1Init_a0348efff7140aed75f8364f90b7c2b8b.html#a0348efff7140aed75f8364f90b7c2b8b" target="_top" xlink:title="prolog.Init.run_query">
<polygon fill="none" stroke="black" points="279.5,-38.5 279.5,-57.5 384.5,-57.5 384.5,-38.5 279.5,-38.5"/>
<text text-anchor="middle" x="332" y="-45.5" font-family="Helvetica,sans-Serif" font-size="10.00">prolog.Init.run_query</text>
</a>
</g>
</g>
<!-- Node2&#45;&gt;Node3 -->
<g id="edge2" class="edge"><title>Node2&#45;&gt;Node3</title>
<path fill="none" stroke="midnightblue" d="M248.505,-37.0007C258.811,-38.3749 269.44,-39.7919 279.498,-41.133"/>
<polygon fill="midnightblue" stroke="midnightblue" points="248.714,-33.4977 238.34,-35.6453 247.789,-40.4363 248.714,-33.4977"/>
</g>
<!-- Node4 -->
<g id="node4" class="node"><title>Node4</title>
<g id="a_node4"><a xlink:href="../../d8/d35/classprolog_1_1Init_a3e8704cf8b2d909fccc79e967dd48171.html#a3e8704cf8b2d909fccc79e967dd48171" target="_top" xlink:title="prolog.Init.standardTop">
<polygon fill="none" stroke="black" points="274,-0.5 274,-19.5 390,-19.5 390,-0.5 274,-0.5"/>
<text text-anchor="middle" x="332" y="-7.5" font-family="Helvetica,sans-Serif" font-size="10.00">prolog.Init.standardTop</text>
</a>
</g>
</g>
<!-- Node2&#45;&gt;Node4 -->
<g id="edge3" class="edge"><title>Node2&#45;&gt;Node4</title>
<path fill="none" stroke="midnightblue" d="M248.393,-21.0143C256.748,-19.9003 265.317,-18.7578 273.624,-17.6502"/>
<polygon fill="midnightblue" stroke="midnightblue" points="247.789,-17.5637 238.34,-22.3547 248.714,-24.5023 247.789,-17.5637"/>
</g>
</g>
</svg>
