<?xml version="1.0" encoding="UTF-8" standalone="no"?>
<!DOCTYPE svg PUBLIC "-//W3C//DTD SVG 1.1//EN"
 "http://www.w3.org/Graphics/SVG/1.1/DTD/svg11.dtd">
<!-- Generated by graphviz version 2.38.0 (20140413.2041)
 -->
<!-- Title: prolog.Init.run Pages: 1 -->
<svg width="1994pt" height="392pt"
 viewBox="0.00 0.00 1994.00 392.00" xmlns="http://www.w3.org/2000/svg" xmlns:xlink="http://www.w3.org/1999/xlink">
<g id="graph0" class="graph" transform="scale(1 1) rotate(0) translate(4 388)">
<title>prolog.Init.run</title>
<!-- Node1 -->
<g id="node1" class="node"><title>Node1</title>
<polygon fill="#bfbfbf" stroke="black" points="0,-135.5 0,-154.5 76,-154.5 76,-135.5 0,-135.5"/>
<text text-anchor="middle" x="38" y="-142.5" font-family="Helvetica,sans-Serif" font-size="10.00">prolog.Init.run</text>
</g>
<!-- Node2 -->
<g id="node2" class="node"><title>Node2</title>
<g id="a_node2"><a xlink:href="../../d8/d35/classprolog_1_1Init_a4a7b9ae1dc4d489e657326f3ed5a4b7e.html#a4a7b9ae1dc4d489e657326f3ed5a4b7e" target="_top" xlink:title="Asks Prolog a query Answer, Goal and returns the first solution of the form &quot;the(Answer)&quot; or the cons...">
<polygon fill="none" stroke="black" points="112,-174.5 112,-193.5 218,-193.5 218,-174.5 112,-174.5"/>
<text text-anchor="middle" x="165" y="-181.5" font-family="Helvetica,sans-Serif" font-size="10.00">prolog.Init.askProlog</text>
</a>
</g>
</g>
<!-- Node1&#45;&gt;Node2 -->
<g id="edge1" class="edge"><title>Node1&#45;&gt;Node2</title>
<path fill="none" stroke="midnightblue" d="M69.5784,-154.54C85.7709,-159.593 105.871,-165.864 123.359,-171.32"/>
<polygon fill="midnightblue" stroke="midnightblue" points="122.715,-174.786 133.304,-174.423 124.8,-168.103 122.715,-174.786"/>
</g>
<!-- Node35 -->
<g id="node35" class="node"><title>Node35</title>
<g id="a_node35"><a xlink:href="../../d4/dc2/classprolog_1_1io_1_1IO_ab6e0553457312c4804472cbe1c646a28.html#ab6e0553457312c4804472cbe1c646a28" target="_top" xlink:title="prolog.io.IO.errmes">
<polygon fill="none" stroke="black" points="115,-135.5 115,-154.5 215,-154.5 215,-135.5 115,-135.5"/>
<text text-anchor="middle" x="165" y="-142.5" font-family="Helvetica,sans-Serif" font-size="10.00">prolog.io.IO.errmes</text>
</a>
</g>
</g>
<!-- Node1&#45;&gt;Node35 -->
<g id="edge48" class="edge"><title>Node1&#45;&gt;Node35</title>
<path fill="none" stroke="midnightblue" d="M76.1657,-145C85.1389,-145 94.9509,-145 104.661,-145"/>
<polygon fill="midnightblue" stroke="midnightblue" points="104.703,-148.5 114.703,-145 104.703,-141.5 104.703,-148.5"/>
</g>
<!-- Node40 -->
<g id="node40" class="node"><title>Node40</title>
<g id="a_node40"><a xlink:href="../../d4/dc2/classprolog_1_1io_1_1IO_aaa553b2e5bb8b5de129d38fe67293316.html#aaa553b2e5bb8b5de129d38fe67293316" target="_top" xlink:title="prolog.io.IO.trace">
<polygon fill="none" stroke="black" points="119,-97.5 119,-116.5 211,-116.5 211,-97.5 119,-97.5"/>
<text text-anchor="middle" x="165" y="-104.5" font-family="Helvetica,sans-Serif" font-size="10.00">prolog.io.IO.trace</text>
</a>
</g>
</g>
<!-- Node1&#45;&gt;Node40 -->
<g id="edge53" class="edge"><title>Node1&#45;&gt;Node40</title>
<path fill="none" stroke="midnightblue" d="M70.5428,-135.411C86.383,-130.596 105.773,-124.701 122.776,-119.532"/>
<polygon fill="midnightblue" stroke="midnightblue" points="123.918,-122.843 132.467,-116.586 121.882,-116.146 123.918,-122.843"/>
</g>
<!-- Node3 -->
<g id="node3" class="node"><title>Node3</title>
<g id="a_node3"><a xlink:href="../../d4/d26/classprolog_1_1terms_1_1Prog_afb6f86119db8ba133de23f8bfe24ba2e.html#afb6f86119db8ba133de23f8bfe24ba2e" target="_top" xlink:title="Computes a copy of the first solution X of Goal G. ">
<polygon fill="none" stroke="black" points="254,-177.5 254,-196.5 403,-196.5 403,-177.5 254,-177.5"/>
<text text-anchor="middle" x="328.5" y="-184.5" font-family="Helvetica,sans-Serif" font-size="10.00">prolog.terms.Prog.firstSolution</text>
</a>
</g>
</g>
<!-- Node2&#45;&gt;Node3 -->
<g id="edge2" class="edge"><title>Node2&#45;&gt;Node3</title>
<path fill="none" stroke="midnightblue" d="M218.434,-184.974C226.577,-185.125 235.159,-185.285 243.787,-185.445"/>
<polygon fill="midnightblue" stroke="midnightblue" points="243.848,-188.947 253.912,-185.633 243.979,-181.948 243.848,-188.947"/>
</g>
<!-- Node4 -->
<g id="node4" class="node"><title>Node4</title>
<g id="a_node4"><a xlink:href="../../d4/d26/classprolog_1_1terms_1_1Prog_afb9691e6cce6f75afc1c67ac0b28d107.html#afb9691e6cce6f75afc1c67ac0b28d107" target="_top" xlink:title="creates a new logic engine ">
<polygon fill="none" stroke="black" points="439,-261 439,-291 554,-291 554,-261 439,-261"/>
<text text-anchor="start" x="447" y="-279" font-family="Helvetica,sans-Serif" font-size="10.00">prolog.terms.Prog.new</text>
<text text-anchor="middle" x="496.5" y="-268" font-family="Helvetica,sans-Serif" font-size="10.00">_engine</text>
</a>
</g>
</g>
<!-- Node3&#45;&gt;Node4 -->
<g id="edge3" class="edge"><title>Node3&#45;&gt;Node4</title>
<path fill="none" stroke="midnightblue" d="M347.265,-196.525C373.677,-210.685 423.897,-237.61 458.51,-256.168"/>
<polygon fill="midnightblue" stroke="midnightblue" points="456.92,-259.287 467.387,-260.928 460.228,-253.118 456.92,-259.287"/>
</g>
<!-- Node12 -->
<g id="node12" class="node"><title>Node12</title>
<g id="a_node12"><a xlink:href="../../d4/d26/classprolog_1_1terms_1_1Prog_a696a0c92a1814ecf4f21fb09fbc854a0.html#a696a0c92a1814ecf4f21fb09fbc854a0" target="_top" xlink:title="asks a logic engine to return a solution ">
<polygon fill="none" stroke="black" points="440,-173 440,-203 553,-203 553,-173 440,-173"/>
<text text-anchor="start" x="448" y="-191" font-family="Helvetica,sans-Serif" font-size="10.00">prolog.terms.Prog.ask</text>
<text text-anchor="middle" x="496.5" y="-180" font-family="Helvetica,sans-Serif" font-size="10.00">_engine</text>
</a>
</g>
</g>
<!-- Node3&#45;&gt;Node12 -->
<g id="edge11" class="edge"><title>Node3&#45;&gt;Node12</title>
<path fill="none" stroke="midnightblue" d="M403.277,-187.444C412.114,-187.498 421.093,-187.552 429.806,-187.604"/>
<polygon fill="midnightblue" stroke="midnightblue" points="429.866,-191.105 439.887,-187.665 429.908,-184.105 429.866,-191.105"/>
</g>
<!-- Node34 -->
<g id="node34" class="node"><title>Node34</title>
<g id="a_node34"><a xlink:href="../../d4/d26/classprolog_1_1terms_1_1Prog_a58deb818dfa50ebe37ac32eb2aae9ac9.html#a58deb818dfa50ebe37ac32eb2aae9ac9" target="_top" xlink:title="prolog.terms.Prog.stop">
<polygon fill="none" stroke="black" points="790,-0.5 790,-19.5 906,-19.5 906,-0.5 790,-0.5"/>
<text text-anchor="middle" x="848" y="-7.5" font-family="Helvetica,sans-Serif" font-size="10.00">prolog.terms.Prog.stop</text>
</a>
</g>
</g>
<!-- Node3&#45;&gt;Node34 -->
<g id="edge47" class="edge"><title>Node3&#45;&gt;Node34</title>
<path fill="none" stroke="midnightblue" d="M368.867,-177.488C389.64,-172.693 415.605,-167.052 439,-163 570.124,-140.288 630.926,-206.662 736,-125 770.342,-98.3099 740.232,-63.7076 772,-34 776.35,-29.9322 781.391,-26.5539 786.762,-23.7481"/>
<polygon fill="midnightblue" stroke="midnightblue" points="788.382,-26.8572 796.05,-19.5462 785.496,-20.4795 788.382,-26.8572"/>
</g>
<!-- Node5 -->
<g id="node5" class="node"><title>Node5</title>
<g id="a_node5"><a xlink:href="../../d4/d26/classprolog_1_1terms_1_1Prog_a9e9f1fcf979c833292d594d709d0f689.html#a9e9f1fcf979c833292d594d709d0f689" target="_top" xlink:title="Creates a Prog starting execution with argument &quot;goal&quot;. ">
<polygon fill="none" stroke="black" points="604.5,-326.5 604.5,-345.5 721.5,-345.5 721.5,-326.5 604.5,-326.5"/>
<text text-anchor="middle" x="663" y="-333.5" font-family="Helvetica,sans-Serif" font-size="10.00">prolog.terms.Prog.Prog</text>
</a>
</g>
</g>
<!-- Node4&#45;&gt;Node5 -->
<g id="edge4" class="edge"><title>Node4&#45;&gt;Node5</title>
<path fill="none" stroke="midnightblue" d="M539.01,-291.141C565.898,-300.948 600.558,-313.589 626.227,-322.952"/>
<polygon fill="midnightblue" stroke="midnightblue" points="625.341,-326.354 635.934,-326.493 627.739,-319.778 625.341,-326.354"/>
</g>
<!-- Node6 -->
<g id="node6" class="node"><title>Node6</title>
<g id="a_node6"><a xlink:href="../../d6/dc4/classprolog_1_1terms_1_1Clause_ad1a287e7c18ca6880e5d8f7d97c6acd9.html#ad1a287e7c18ca6880e5d8f7d97c6acd9" target="_top" xlink:title="Creates a copy of the clause with variables standardized apart, i.e. ">
<polygon fill="none" stroke="black" points="1321,-364.5 1321,-383.5 1455,-383.5 1455,-364.5 1321,-364.5"/>
<text text-anchor="middle" x="1388" y="-371.5" font-family="Helvetica,sans-Serif" font-size="10.00">prolog.terms.Clause.ccopy</text>
</a>
</g>
</g>
<!-- Node5&#45;&gt;Node6 -->
<g id="edge5" class="edge"><title>Node5&#45;&gt;Node6</title>
<path fill="none" stroke="midnightblue" d="M709.78,-345.549C728.922,-349.151 751.452,-352.886 772,-355 965.144,-374.87 1194.05,-376.102 1310.57,-375.146"/>
<polygon fill="midnightblue" stroke="midnightblue" points="1310.84,-378.644 1320.81,-375.054 1310.78,-371.644 1310.84,-378.644"/>
</g>
<!-- Node11 -->
<g id="node11" class="node"><title>Node11</title>
<g id="a_node11"><a xlink:href="../../da/d93/classprolog_1_1terms_1_1ObjectStack_a058b4b33eb3234f7d3426058bcbcace0.html#a058b4b33eb3234f7d3426058bcbcace0" target="_top" xlink:title="prolog.terms.ObjectStack.push">
<polygon fill="none" stroke="black" points="772,-326.5 772,-345.5 924,-345.5 924,-326.5 772,-326.5"/>
<text text-anchor="middle" x="848" y="-333.5" font-family="Helvetica,sans-Serif" font-size="10.00">prolog.terms.ObjectStack.push</text>
</a>
</g>
</g>
<!-- Node5&#45;&gt;Node11 -->
<g id="edge10" class="edge"><title>Node5&#45;&gt;Node11</title>
<path fill="none" stroke="midnightblue" d="M721.651,-336C734.341,-336 748.042,-336 761.566,-336"/>
<polygon fill="midnightblue" stroke="midnightblue" points="761.853,-339.5 771.853,-336 761.853,-332.5 761.853,-339.5"/>
</g>
<!-- Node7 -->
<g id="node7" class="node"><title>Node7</title>
<g id="a_node7"><a xlink:href="../../d6/dc4/classprolog_1_1terms_1_1Clause_a414492a8d9d648788aadfd423ee32fb0.html#a414492a8d9d648788aadfd423ee32fb0" target="_top" xlink:title="Builds a clause given its head and its body. ">
<polygon fill="none" stroke="black" points="1506.5,-326.5 1506.5,-345.5 1644.5,-345.5 1644.5,-326.5 1506.5,-326.5"/>
<text text-anchor="middle" x="1575.5" y="-333.5" font-family="Helvetica,sans-Serif" font-size="10.00">prolog.terms.Clause.Clause</text>
</a>
</g>
</g>
<!-- Node6&#45;&gt;Node7 -->
<g id="edge6" class="edge"><title>Node6&#45;&gt;Node7</title>
<path fill="none" stroke="midnightblue" d="M1435.81,-364.411C1460.84,-359.284 1491.84,-352.933 1518.18,-347.537"/>
<polygon fill="midnightblue" stroke="midnightblue" points="1518.93,-350.956 1528.03,-345.52 1517.53,-344.098 1518.93,-350.956"/>
</g>
<!-- Node8 -->
<g id="node8" class="node"><title>Node8</title>
<g id="a_node8"><a xlink:href="../../d3/ded/classprolog_1_1terms_1_1Term_a01e5a83e648ee3f89415c0142c4220d4.html#a01e5a83e648ee3f89415c0142c4220d4" target="_top" xlink:title="Returns a copy of a term with variables standardized apart (`fresh variables&#39;). ">
<polygon fill="none" stroke="black" points="1515.5,-364.5 1515.5,-383.5 1635.5,-383.5 1635.5,-364.5 1515.5,-364.5"/>
<text text-anchor="middle" x="1575.5" y="-371.5" font-family="Helvetica,sans-Serif" font-size="10.00">prolog.terms.Term.copy</text>
</a>
</g>
</g>
<!-- Node6&#45;&gt;Node8 -->
<g id="edge7" class="edge"><title>Node6&#45;&gt;Node8</title>
<path fill="none" stroke="midnightblue" d="M1455.18,-374C1471.47,-374 1488.95,-374 1505.37,-374"/>
<polygon fill="midnightblue" stroke="midnightblue" points="1505.44,-377.5 1515.44,-374 1505.44,-370.5 1505.44,-377.5"/>
</g>
<!-- Node9 -->
<g id="node9" class="node"><title>Node9</title>
<g id="a_node9"><a xlink:href="../../d3/ded/classprolog_1_1terms_1_1Term_a0a660e6cd55f12e49d328e1b84b478a4.html#a0a660e6cd55f12e49d328e1b84b478a4" target="_top" xlink:title="Defines the reaction to an agent recursing over the structure of a term. ">
<polygon fill="none" stroke="black" points="1691,-364.5 1691,-383.5 1825,-383.5 1825,-364.5 1691,-364.5"/>
<text text-anchor="middle" x="1758" y="-371.5" font-family="Helvetica,sans-Serif" font-size="10.00">prolog.terms.Term.reaction</text>
</a>
</g>
</g>
<!-- Node8&#45;&gt;Node9 -->
<g id="edge8" class="edge"><title>Node8&#45;&gt;Node9</title>
<path fill="none" stroke="midnightblue" d="M1635.6,-374C1649.97,-374 1665.54,-374 1680.58,-374"/>
<polygon fill="midnightblue" stroke="midnightblue" points="1680.89,-377.5 1690.89,-374 1680.89,-370.5 1680.89,-377.5"/>
</g>
<!-- Node10 -->
<g id="node10" class="node"><title>Node10</title>
<g id="a_node10"><a xlink:href="../../d3/ded/classprolog_1_1terms_1_1Term_aa52e271c0f6784dbde9aa4f5f3ab0268.html#aa52e271c0f6784dbde9aa4f5f3ab0268" target="_top" xlink:title="Identity action. ">
<polygon fill="none" stroke="black" points="1861,-364.5 1861,-383.5 1986,-383.5 1986,-364.5 1861,-364.5"/>
<text text-anchor="middle" x="1923.5" y="-371.5" font-family="Helvetica,sans-Serif" font-size="10.00">prolog.terms.Term.action</text>
</a>
</g>
</g>
<!-- Node9&#45;&gt;Node10 -->
<g id="edge9" class="edge"><title>Node9&#45;&gt;Node10</title>
<path fill="none" stroke="midnightblue" d="M1825.03,-374C1833.57,-374 1842.34,-374 1850.96,-374"/>
<polygon fill="midnightblue" stroke="midnightblue" points="1850.98,-377.5 1860.98,-374 1850.98,-370.5 1850.98,-377.5"/>
</g>
<!-- Node13 -->
<g id="node13" class="node"><title>Node13</title>
<g id="a_node13"><a xlink:href="../../d4/d26/classprolog_1_1terms_1_1Prog_ac5d988b907a2843fcfcba4d1fd1e0deb.html#ac5d988b907a2843fcfcba4d1fd1e0deb" target="_top" xlink:title="Here is where actual LD&#45;resolution computation happens. ">
<polygon fill="none" stroke="black" points="590,-178.5 590,-197.5 736,-197.5 736,-178.5 590,-178.5"/>
<text text-anchor="middle" x="663" y="-185.5" font-family="Helvetica,sans-Serif" font-size="10.00">prolog.terms.Prog.getElement</text>
</a>
</g>
</g>
<!-- Node12&#45;&gt;Node13 -->
<g id="edge12" class="edge"><title>Node12&#45;&gt;Node13</title>
<path fill="none" stroke="midnightblue" d="M553.192,-188C561.725,-188 570.685,-188 579.647,-188"/>
<polygon fill="midnightblue" stroke="midnightblue" points="579.743,-191.5 589.743,-188 579.743,-184.5 579.743,-191.5"/>
</g>
<!-- Node13&#45;&gt;Node11 -->
<g id="edge42" class="edge"><title>Node13&#45;&gt;Node11</title>
<path fill="none" stroke="midnightblue" d="M669.358,-197.766C683.071,-221.812 721.913,-284.229 772,-316 776.054,-318.572 780.432,-320.815 784.966,-322.771"/>
<polygon fill="midnightblue" stroke="midnightblue" points="783.845,-326.09 794.435,-326.397 786.348,-319.552 783.845,-326.09"/>
</g>
<!-- Node14 -->
<g id="node14" class="node"><title>Node14</title>
<g id="a_node14"><a xlink:href="../../da/d93/classprolog_1_1terms_1_1ObjectStack_aaa01178e10f20beab62b1410ba720606.html#aaa01178e10f20beab62b1410ba720606" target="_top" xlink:title="prolog.terms.ObjectStack.pop">
<polygon fill="none" stroke="black" points="1134,-95.5 1134,-114.5 1280,-114.5 1280,-95.5 1134,-95.5"/>
<text text-anchor="middle" x="1207" y="-102.5" font-family="Helvetica,sans-Serif" font-size="10.00">prolog.terms.ObjectStack.pop</text>
</a>
</g>
</g>
<!-- Node13&#45;&gt;Node14 -->
<g id="edge13" class="edge"><title>Node13&#45;&gt;Node14</title>
<path fill="none" stroke="midnightblue" d="M687.791,-178.411C701.878,-172.653 720.035,-165.091 736,-158 752.171,-150.818 754.927,-145.646 772,-141 891.297,-108.538 1035.27,-102.858 1123.72,-102.991"/>
<polygon fill="midnightblue" stroke="midnightblue" points="1123.95,-106.492 1133.96,-103.033 1123.97,-99.492 1123.95,-106.492"/>
</g>
<!-- Node15 -->
<g id="node15" class="node"><title>Node15</title>
<g id="a_node15"><a xlink:href="../../df/d94/classprolog_1_1terms_1_1Unfolder_aecb7a5d616b5375d40405f66c9401637.html#aecb7a5d616b5375d40405f66c9401637" target="_top" xlink:title="Extracts an answer at the end of an AND&#45;derivation. ">
<polygon fill="none" stroke="black" points="1143.5,-254 1143.5,-284 1270.5,-284 1270.5,-254 1143.5,-254"/>
<text text-anchor="start" x="1151.5" y="-272" font-family="Helvetica,sans-Serif" font-size="10.00">prolog.terms.Unfolder.get</text>
<text text-anchor="middle" x="1207" y="-261" font-family="Helvetica,sans-Serif" font-size="10.00">Answer</text>
</a>
</g>
</g>
<!-- Node13&#45;&gt;Node15 -->
<g id="edge14" class="edge"><title>Node13&#45;&gt;Node15</title>
<path fill="none" stroke="midnightblue" d="M736.112,-192.17C789.305,-196.954 862.766,-207.185 924,-229 941.449,-235.216 942.318,-244.48 960,-250 1016.42,-267.614 1083.5,-271.759 1133.34,-271.838"/>
<polygon fill="midnightblue" stroke="midnightblue" points="1133.41,-275.338 1143.39,-271.8 1133.38,-268.338 1133.41,-275.338"/>
</g>
<!-- Node18 -->
<g id="node18" class="node"><title>Node18</title>
<g id="a_node18"><a xlink:href="../../df/d94/classprolog_1_1terms_1_1Unfolder_a261a28665ab541b974afb636c3fec84b.html#a261a28665ab541b974afb636c3fec84b" target="_top" xlink:title="Returns a new clause by unfolding the goal with a matching clause in the database, or null if no such clause exists. ">
<polygon fill="none" stroke="black" points="784.5,-151 784.5,-181 911.5,-181 911.5,-151 784.5,-151"/>
<text text-anchor="start" x="792.5" y="-169" font-family="Helvetica,sans-Serif" font-size="10.00">prolog.terms.Unfolder.get</text>
<text text-anchor="middle" x="848" y="-158" font-family="Helvetica,sans-Serif" font-size="10.00">Element</text>
</a>
</g>
</g>
<!-- Node13&#45;&gt;Node18 -->
<g id="edge18" class="edge"><title>Node13&#45;&gt;Node18</title>
<path fill="none" stroke="midnightblue" d="M736.064,-179.337C748.691,-177.819 761.837,-176.238 774.477,-174.719"/>
<polygon fill="midnightblue" stroke="midnightblue" points="774.975,-178.184 784.486,-173.515 774.139,-171.234 774.975,-178.184"/>
</g>
<!-- Node26 -->
<g id="node26" class="node"><title>Node26</title>
<g id="a_node26"><a xlink:href="../../d6/dc4/classprolog_1_1terms_1_1Clause_a5e5502c9619429232fcb310406256830.html#a5e5502c9619429232fcb310406256830" target="_top" xlink:title="Extracts the head of a clause (a Term). ">
<polygon fill="none" stroke="black" points="1316,-22.5 1316,-41.5 1460,-41.5 1460,-22.5 1316,-22.5"/>
<text text-anchor="middle" x="1388" y="-29.5" font-family="Helvetica,sans-Serif" font-size="10.00">prolog.terms.Clause.getHead</text>
</a>
</g>
</g>
<!-- Node13&#45;&gt;Node26 -->
<g id="edge46" class="edge"><title>Node13&#45;&gt;Node26</title>
<path fill="none" stroke="midnightblue" d="M702.073,-178.46C713.721,-174.346 726.067,-168.669 736,-161 757.962,-144.045 749.702,-126.51 772,-110 937.783,12.7499 1200.05,-4.58117 1321.41,-21.0449"/>
<polygon fill="midnightblue" stroke="midnightblue" points="1321.27,-24.5589 1331.65,-22.4787 1322.24,-17.6265 1321.27,-24.5589"/>
</g>
<!-- Node32 -->
<g id="node32" class="node"><title>Node32</title>
<g id="a_node32"><a xlink:href="../../df/d94/classprolog_1_1terms_1_1Unfolder_adb4a243f464b333dfdd915b2929f6b40.html#adb4a243f464b333dfdd915b2929f6b40" target="_top" xlink:title="Checks if this clause is the last one, allowing LCO. ">
<polygon fill="none" stroke="black" points="784.5,-277 784.5,-307 911.5,-307 911.5,-277 784.5,-277"/>
<text text-anchor="start" x="792.5" y="-295" font-family="Helvetica,sans-Serif" font-size="10.00">prolog.terms.Unfolder.not</text>
<text text-anchor="middle" x="848" y="-284" font-family="Helvetica,sans-Serif" font-size="10.00">LastClause</text>
</a>
</g>
</g>
<!-- Node13&#45;&gt;Node32 -->
<g id="edge41" class="edge"><title>Node13&#45;&gt;Node32</title>
<path fill="none" stroke="midnightblue" d="M674.598,-197.519C693.139,-213.75 733.194,-246.962 772,-267 776.272,-269.206 780.78,-271.276 785.378,-273.207"/>
<polygon fill="midnightblue" stroke="midnightblue" points="784.311,-276.549 794.897,-276.972 786.886,-270.039 784.311,-276.549"/>
</g>
<!-- Node33 -->
<g id="node33" class="node"><title>Node33</title>
<g id="a_node33"><a xlink:href="../../df/d94/classprolog_1_1terms_1_1Unfolder_a71545549869608e7a300c7dbd7ed7216.html#a71545549869608e7a300c7dbd7ed7216" target="_top" xlink:title="Stops production of more alternatives by setting the clause enumerator to null. ">
<polygon fill="none" stroke="black" points="782,-238.5 782,-257.5 914,-257.5 914,-238.5 782,-238.5"/>
<text text-anchor="middle" x="848" y="-245.5" font-family="Helvetica,sans-Serif" font-size="10.00">prolog.terms.Unfolder.stop</text>
</a>
</g>
</g>
<!-- Node13&#45;&gt;Node33 -->
<g id="edge43" class="edge"><title>Node13&#45;&gt;Node33</title>
<path fill="none" stroke="midnightblue" d="M692.393,-197.568C714.156,-204.877 744.946,-215.163 772,-224 783.358,-227.71 795.702,-231.684 807.035,-235.31"/>
<polygon fill="midnightblue" stroke="midnightblue" points="806.094,-238.683 816.685,-238.391 808.223,-232.015 806.094,-238.683"/>
</g>
<!-- Node13&#45;&gt;Node34 -->
<g id="edge44" class="edge"><title>Node13&#45;&gt;Node34</title>
<path fill="none" stroke="midnightblue" d="M704.191,-178.422C715.812,-173.918 727.608,-167.391 736,-158 774.239,-115.209 731.976,-75.1256 772,-34 775.874,-30.0198 780.406,-26.6985 785.292,-23.9271"/>
<polygon fill="midnightblue" stroke="midnightblue" points="786.93,-27.0226 794.4,-19.5092 783.875,-20.7244 786.93,-27.0226"/>
</g>
<!-- Node15&#45;&gt;Node6 -->
<g id="edge17" class="edge"><title>Node15&#45;&gt;Node6</title>
<path fill="none" stroke="midnightblue" d="M1224.8,-284.312C1245.11,-302.155 1280.95,-331.543 1316,-350 1324.03,-354.229 1332.96,-357.935 1341.69,-361.089"/>
<polygon fill="midnightblue" stroke="midnightblue" points="1340.82,-364.491 1351.42,-364.415 1343.09,-357.868 1340.82,-364.491"/>
</g>
<!-- Node16 -->
<g id="node16" class="node"><title>Node16</title>
<g id="a_node16"><a xlink:href="../../d6/dc4/classprolog_1_1terms_1_1Clause_ab690dc7c5a2d5b6007fbf559a537d262.html#ab690dc7c5a2d5b6007fbf559a537d262" target="_top" xlink:title="Extracts the body of a clause. ">
<polygon fill="none" stroke="black" points="1504,-174.5 1504,-193.5 1647,-193.5 1647,-174.5 1504,-174.5"/>
<text text-anchor="middle" x="1575.5" y="-181.5" font-family="Helvetica,sans-Serif" font-size="10.00">prolog.terms.Clause.getBody</text>
</a>
</g>
</g>
<!-- Node15&#45;&gt;Node16 -->
<g id="edge15" class="edge"><title>Node15&#45;&gt;Node16</title>
<path fill="none" stroke="midnightblue" d="M1270.56,-268.11C1322.29,-265.946 1397.19,-259.49 1460,-241 1493.18,-231.234 1528.37,-212.253 1550.84,-198.884"/>
<polygon fill="midnightblue" stroke="midnightblue" points="1552.91,-201.72 1559.65,-193.542 1549.28,-195.734 1552.91,-201.72"/>
</g>
<!-- Node17 -->
<g id="node17" class="node"><title>Node17</title>
<g id="a_node17"><a xlink:href="../../d3/ded/classprolog_1_1terms_1_1Term_ae140fac2c9d066dc897fcfa723060a7a.html#ae140fac2c9d066dc897fcfa723060a7a" target="_top" xlink:title="Dereferences if necessary. ">
<polygon fill="none" stroke="black" points="1703,-145.5 1703,-164.5 1813,-164.5 1813,-145.5 1703,-145.5"/>
<text text-anchor="middle" x="1758" y="-152.5" font-family="Helvetica,sans-Serif" font-size="10.00">prolog.terms.Term.ref</text>
</a>
</g>
</g>
<!-- Node16&#45;&gt;Node17 -->
<g id="edge16" class="edge"><title>Node16&#45;&gt;Node17</title>
<path fill="none" stroke="midnightblue" d="M1635.85,-174.464C1654.06,-171.539 1674.17,-168.307 1692.69,-165.332"/>
<polygon fill="midnightblue" stroke="midnightblue" points="1693.48,-168.751 1702.8,-163.708 1692.37,-161.839 1693.48,-168.751"/>
</g>
<!-- Node19 -->
<g id="node19" class="node"><title>Node19</title>
<g id="a_node19"><a xlink:href="../../d4/d26/classprolog_1_1terms_1_1Prog_a41eac8617a5002806d7137eb36183405.html#a41eac8617a5002806d7137eb36183405" target="_top" xlink:title="prolog.terms.Prog.getTrail">
<polygon fill="none" stroke="black" points="964.5,-221.5 964.5,-240.5 1093.5,-240.5 1093.5,-221.5 964.5,-221.5"/>
<text text-anchor="middle" x="1029" y="-228.5" font-family="Helvetica,sans-Serif" font-size="10.00">prolog.terms.Prog.getTrail</text>
</a>
</g>
</g>
<!-- Node18&#45;&gt;Node19 -->
<g id="edge19" class="edge"><title>Node18&#45;&gt;Node19</title>
<path fill="none" stroke="midnightblue" d="M886.812,-181.003C898.726,-185.763 911.926,-191.07 924,-196 940.047,-202.552 943.661,-205.213 960,-211 967.422,-213.629 975.382,-216.193 983.147,-218.561"/>
<polygon fill="midnightblue" stroke="midnightblue" points="982.24,-221.943 992.823,-221.444 984.239,-215.234 982.24,-221.943"/>
</g>
<!-- Node20 -->
<g id="node20" class="node"><title>Node20</title>
<g id="a_node20"><a xlink:href="../../dd/dad/classprolog_1_1terms_1_1Trail_adab6fa04fe8e0da6e1870bd1b37a654b.html#adab6fa04fe8e0da6e1870bd1b37a654b" target="_top" xlink:title="Used to undo bindings after unification, if we intend to leave no side effects. ">
<polygon fill="none" stroke="black" points="966,-57.5 966,-76.5 1092,-76.5 1092,-57.5 966,-57.5"/>
<text text-anchor="middle" x="1029" y="-64.5" font-family="Helvetica,sans-Serif" font-size="10.00">prolog.terms.Trail.unwind</text>
</a>
</g>
</g>
<!-- Node18&#45;&gt;Node20 -->
<g id="edge20" class="edge"><title>Node18&#45;&gt;Node20</title>
<path fill="none" stroke="midnightblue" d="M876.186,-150.964C910.157,-132.176 967.906,-100.236 1001.54,-81.6366"/>
<polygon fill="midnightblue" stroke="midnightblue" points="1003.28,-84.6689 1010.34,-76.7663 999.897,-78.5434 1003.28,-84.6689"/>
</g>
<!-- Node22 -->
<g id="node22" class="node"><title>Node22</title>
<g id="a_node22"><a xlink:href="../../d3/ded/classprolog_1_1terms_1_1Term_a8ea1883429587f5ffa2d7aa6c272039c.html#a8ea1883429587f5ffa2d7aa6c272039c" target="_top" xlink:title="prolog.terms.Term.toClause">
<polygon fill="none" stroke="black" points="960,-133.5 960,-152.5 1098,-152.5 1098,-133.5 960,-133.5"/>
<text text-anchor="middle" x="1029" y="-140.5" font-family="Helvetica,sans-Serif" font-size="10.00">prolog.terms.Term.toClause</text>
</a>
</g>
</g>
<!-- Node18&#45;&gt;Node22 -->
<g id="edge23" class="edge"><title>Node18&#45;&gt;Node22</title>
<path fill="none" stroke="midnightblue" d="M911.606,-157.956C923.936,-156.371 937.017,-154.691 949.787,-153.05"/>
<polygon fill="midnightblue" stroke="midnightblue" points="950.468,-156.491 959.941,-151.745 949.576,-149.548 950.468,-156.491"/>
</g>
<!-- Node23 -->
<g id="node23" class="node"><title>Node23</title>
<g id="a_node23"><a xlink:href="../../d6/dc4/classprolog_1_1terms_1_1Clause_a0d8b6d3c8de70326ab416be12688896b.html#a0d8b6d3c8de70326ab416be12688896b" target="_top" xlink:title="prolog.terms.Clause.unfold\l_with_goal">
<polygon fill="none" stroke="black" points="962,-172 962,-202 1096,-202 1096,-172 962,-172"/>
<text text-anchor="start" x="970" y="-190" font-family="Helvetica,sans-Serif" font-size="10.00">prolog.terms.Clause.unfold</text>
<text text-anchor="middle" x="1029" y="-179" font-family="Helvetica,sans-Serif" font-size="10.00">_with_goal</text>
</a>
</g>
</g>
<!-- Node18&#45;&gt;Node23 -->
<g id="edge24" class="edge"><title>Node18&#45;&gt;Node23</title>
<path fill="none" stroke="midnightblue" d="M911.606,-173.345C924.54,-174.862 938.301,-176.477 951.661,-178.044"/>
<polygon fill="midnightblue" stroke="midnightblue" points="951.44,-181.542 961.78,-179.231 952.256,-174.59 951.44,-181.542"/>
</g>
<!-- Node20&#45;&gt;Node14 -->
<g id="edge21" class="edge"><title>Node20&#45;&gt;Node14</title>
<path fill="none" stroke="midnightblue" d="M1074.41,-76.589C1097.95,-81.6713 1127.06,-87.9554 1151.9,-93.3203"/>
<polygon fill="midnightblue" stroke="midnightblue" points="1151.39,-96.7906 1161.91,-95.4799 1152.87,-89.9482 1151.39,-96.7906"/>
</g>
<!-- Node21 -->
<g id="node21" class="node"><title>Node21</title>
<g id="a_node21"><a xlink:href="../../d3/ded/classprolog_1_1terms_1_1Term_ac710eec3650309d160ca04e364804e47.html#ac710eec3650309d160ca04e364804e47" target="_top" xlink:title="prolog.terms.Term.undo">
<polygon fill="none" stroke="black" points="1147,-57.5 1147,-76.5 1267,-76.5 1267,-57.5 1147,-57.5"/>
<text text-anchor="middle" x="1207" y="-64.5" font-family="Helvetica,sans-Serif" font-size="10.00">prolog.terms.Term.undo</text>
</a>
</g>
</g>
<!-- Node20&#45;&gt;Node21 -->
<g id="edge22" class="edge"><title>Node20&#45;&gt;Node21</title>
<path fill="none" stroke="midnightblue" d="M1092.05,-67C1106.53,-67 1122.03,-67 1136.79,-67"/>
<polygon fill="midnightblue" stroke="midnightblue" points="1136.87,-70.5001 1146.87,-67 1136.87,-63.5001 1136.87,-70.5001"/>
</g>
<!-- Node24 -->
<g id="node24" class="node"><title>Node24</title>
<g id="a_node24"><a xlink:href="../../d6/dc4/classprolog_1_1terms_1_1Clause_a9c5f957d0240113f4328ebbc73d3b31d.html#a9c5f957d0240113f4328ebbc73d3b31d" target="_top" xlink:title="Algebraic composition operation of 2 Clauses, doing the basic resolution step Prolog is based on...">
<polygon fill="none" stroke="black" points="1140,-175.5 1140,-194.5 1274,-194.5 1274,-175.5 1140,-175.5"/>
<text text-anchor="middle" x="1207" y="-182.5" font-family="Helvetica,sans-Serif" font-size="10.00">prolog.terms.Clause.unfold</text>
</a>
</g>
</g>
<!-- Node23&#45;&gt;Node24 -->
<g id="edge25" class="edge"><title>Node23&#45;&gt;Node24</title>
<path fill="none" stroke="midnightblue" d="M1096.04,-186.25C1107.01,-186.125 1118.48,-185.995 1129.69,-185.867"/>
<polygon fill="midnightblue" stroke="midnightblue" points="1129.93,-189.365 1139.89,-185.751 1129.85,-182.365 1129.93,-189.365"/>
</g>
<!-- Node24&#45;&gt;Node6 -->
<g id="edge31" class="edge"><title>Node24&#45;&gt;Node6</title>
<path fill="none" stroke="midnightblue" d="M1224.27,-194.509C1240.53,-204.79 1265.18,-222.612 1280,-244 1308.33,-284.899 1280.79,-314.844 1316,-350 1319.97,-353.965 1324.62,-357.275 1329.6,-360.039"/>
<polygon fill="midnightblue" stroke="midnightblue" points="1328.33,-363.309 1338.86,-364.446 1331.34,-356.988 1328.33,-363.309"/>
</g>
<!-- Node24&#45;&gt;Node7 -->
<g id="edge40" class="edge"><title>Node24&#45;&gt;Node7</title>
<path fill="none" stroke="midnightblue" d="M1223.12,-194.535C1238.91,-205.094 1263.62,-223.373 1280,-244 1302.5,-272.327 1286,-296.783 1316,-317 1375.55,-357.129 1461.29,-354.614 1517.44,-347.025"/>
<polygon fill="midnightblue" stroke="midnightblue" points="1518.17,-350.456 1527.57,-345.558 1517.17,-343.528 1518.17,-350.456"/>
</g>
<!-- Node24&#45;&gt;Node16 -->
<g id="edge37" class="edge"><title>Node24&#45;&gt;Node16</title>
<path fill="none" stroke="midnightblue" d="M1249.55,-175.465C1269.52,-171.355 1293.88,-167.031 1316,-165 1379.73,-159.149 1396.22,-159.744 1460,-165 1478.98,-166.564 1499.55,-169.562 1517.95,-172.723"/>
<polygon fill="midnightblue" stroke="midnightblue" points="1517.46,-176.192 1527.92,-174.487 1518.68,-169.299 1517.46,-176.192"/>
</g>
<!-- Node25 -->
<g id="node25" class="node"><title>Node25</title>
<g id="a_node25"><a xlink:href="../../d6/dc4/classprolog_1_1terms_1_1Clause_abb4cb737b264c815c48f32a431ec6f5a.html#abb4cb737b264c815c48f32a431ec6f5a" target="_top" xlink:title="Gets the leftmost (first) goal in the body of a clause, i.e. ">
<polygon fill="none" stroke="black" points="1318,-212.5 1318,-231.5 1458,-231.5 1458,-212.5 1318,-212.5"/>
<text text-anchor="middle" x="1388" y="-219.5" font-family="Helvetica,sans-Serif" font-size="10.00">prolog.terms.Clause.getFirst</text>
</a>
</g>
</g>
<!-- Node24&#45;&gt;Node25 -->
<g id="edge26" class="edge"><title>Node24&#45;&gt;Node25</title>
<path fill="none" stroke="midnightblue" d="M1254.1,-194.528C1277.5,-199.365 1306.12,-205.281 1330.8,-210.382"/>
<polygon fill="midnightblue" stroke="midnightblue" points="1330.25,-213.843 1340.75,-212.44 1331.66,-206.988 1330.25,-213.843"/>
</g>
<!-- Node24&#45;&gt;Node26 -->
<g id="edge28" class="edge"><title>Node24&#45;&gt;Node26</title>
<path fill="none" stroke="midnightblue" d="M1222.4,-175.341C1238.04,-164.315 1263.06,-145.063 1280,-124 1301.43,-97.3543 1289.95,-78.1586 1316,-56 1320.88,-51.8502 1326.5,-48.409 1332.41,-45.5572"/>
<polygon fill="midnightblue" stroke="midnightblue" points="1334.02,-48.6756 1341.86,-41.544 1331.29,-42.2329 1334.02,-48.6756"/>
</g>
<!-- Node27 -->
<g id="node27" class="node"><title>Node27</title>
<g id="a_node27"><a xlink:href="../../d3/ded/classprolog_1_1terms_1_1Term_a0a9b83bb831ed6ac6dd508c099007ac0.html#a0a9b83bb831ed6ac6dd508c099007ac0" target="_top" xlink:title="Tests if this term unifies with that. ">
<polygon fill="none" stroke="black" points="1319.5,-98.5 1319.5,-117.5 1456.5,-117.5 1456.5,-98.5 1319.5,-98.5"/>
<text text-anchor="middle" x="1388" y="-105.5" font-family="Helvetica,sans-Serif" font-size="10.00">prolog.terms.Term.matches</text>
</a>
</g>
</g>
<!-- Node24&#45;&gt;Node27 -->
<g id="edge30" class="edge"><title>Node24&#45;&gt;Node27</title>
<path fill="none" stroke="midnightblue" d="M1225.64,-175.459C1246.75,-164.243 1283.37,-145.455 1316,-132 1325.65,-128.02 1336.23,-124.176 1346.21,-120.775"/>
<polygon fill="midnightblue" stroke="midnightblue" points="1347.54,-124.018 1355.92,-117.533 1345.33,-117.378 1347.54,-124.018"/>
</g>
<!-- Node28 -->
<g id="node28" class="node"><title>Node28</title>
<g id="a_node28"><a xlink:href="../../d3/ded/classprolog_1_1terms_1_1Term_a84d8fb7e1f816d0dbe3c2c56ed28fdb9.html#a84d8fb7e1f816d0dbe3c2c56ed28fdb9" target="_top" xlink:title="Dereference and unify_to. ">
<polygon fill="none" stroke="black" points="1328,-288.5 1328,-307.5 1448,-307.5 1448,-288.5 1328,-288.5"/>
<text text-anchor="middle" x="1388" y="-295.5" font-family="Helvetica,sans-Serif" font-size="10.00">prolog.terms.Term.unify</text>
</a>
</g>
</g>
<!-- Node24&#45;&gt;Node28 -->
<g id="edge32" class="edge"><title>Node24&#45;&gt;Node28</title>
<path fill="none" stroke="midnightblue" d="M1223.26,-194.634C1254.44,-214.315 1325.64,-259.264 1363.04,-282.875"/>
<polygon fill="midnightblue" stroke="midnightblue" points="1361.45,-286.011 1371.78,-288.39 1365.19,-280.092 1361.45,-286.011"/>
</g>
<!-- Node30 -->
<g id="node30" class="node"><title>Node30</title>
<g id="a_node30"><a xlink:href="../../d6/dc4/classprolog_1_1terms_1_1Clause_af03de53b32948f858e2cbfeb697eaf4b.html#af03de53b32948f858e2cbfeb697eaf4b" target="_top" xlink:title="Concatenates 2 Conjunctions. ">
<polygon fill="none" stroke="black" points="1496,-117.5 1496,-136.5 1655,-136.5 1655,-117.5 1496,-117.5"/>
<text text-anchor="middle" x="1575.5" y="-124.5" font-family="Helvetica,sans-Serif" font-size="10.00">prolog.terms.Clause.appendConj</text>
</a>
</g>
</g>
<!-- Node24&#45;&gt;Node30 -->
<g id="edge35" class="edge"><title>Node24&#45;&gt;Node30</title>
<path fill="none" stroke="midnightblue" d="M1219.94,-175.311C1234.39,-163.477 1259.38,-142.72 1280,-124 1296.52,-109.001 1295.32,-97.3943 1316,-89 1394.64,-57.073 1496.42,-92.1166 1545.5,-113.289"/>
<polygon fill="midnightblue" stroke="midnightblue" points="1544.31,-116.59 1554.87,-117.441 1547.15,-110.19 1544.31,-116.59"/>
</g>
<!-- Node31 -->
<g id="node31" class="node"><title>Node31</title>
<g id="a_node31"><a xlink:href="../../d6/dc4/classprolog_1_1terms_1_1Clause_a60e4c0d7e8a9b03c5b073f3c2f023011.html#a60e4c0d7e8a9b03c5b073f3c2f023011" target="_top" xlink:title="Gets all but the leftmost goal in the body of a clause, i.e. ">
<polygon fill="none" stroke="black" points="1317,-174.5 1317,-193.5 1459,-193.5 1459,-174.5 1317,-174.5"/>
<text text-anchor="middle" x="1388" y="-181.5" font-family="Helvetica,sans-Serif" font-size="10.00">prolog.terms.Clause.getRest</text>
</a>
</g>
</g>
<!-- Node24&#45;&gt;Node31 -->
<g id="edge38" class="edge"><title>Node24&#45;&gt;Node31</title>
<path fill="none" stroke="midnightblue" d="M1274.14,-184.63C1284.71,-184.571 1295.74,-184.51 1306.6,-184.449"/>
<polygon fill="midnightblue" stroke="midnightblue" points="1306.94,-187.947 1316.92,-184.391 1306.91,-180.947 1306.94,-187.947"/>
</g>
<!-- Node25&#45;&gt;Node16 -->
<g id="edge27" class="edge"><title>Node25&#45;&gt;Node16</title>
<path fill="none" stroke="midnightblue" d="M1435.81,-212.411C1460.84,-207.284 1491.84,-200.933 1518.18,-195.537"/>
<polygon fill="midnightblue" stroke="midnightblue" points="1518.93,-198.956 1528.03,-193.52 1517.53,-192.098 1518.93,-198.956"/>
</g>
<!-- Node26&#45;&gt;Node17 -->
<g id="edge29" class="edge"><title>Node26&#45;&gt;Node17</title>
<path fill="none" stroke="midnightblue" d="M1429.73,-41.5663C1482.46,-54.4207 1576.87,-79.0321 1655,-108 1680.88,-117.596 1709.33,-130.953 1729.6,-140.976"/>
<polygon fill="midnightblue" stroke="midnightblue" points="1728.06,-144.119 1738.56,-145.46 1731.19,-137.858 1728.06,-144.119"/>
</g>
<!-- Node28&#45;&gt;Node17 -->
<g id="edge33" class="edge"><title>Node28&#45;&gt;Node17</title>
<path fill="none" stroke="midnightblue" d="M1448.06,-306.591C1504.46,-311.948 1590.22,-312.47 1655,-279 1700.41,-255.537 1733.1,-202.061 1748,-173.61"/>
<polygon fill="midnightblue" stroke="midnightblue" points="1751.12,-175.183 1752.51,-164.68 1744.88,-172.024 1751.12,-175.183"/>
</g>
<!-- Node29 -->
<g id="node29" class="node"><title>Node29</title>
<g id="a_node29"><a xlink:href="../../d3/ded/classprolog_1_1terms_1_1Term_a866b2cca50e77e99b560578b2fa3a91a.html#a866b2cca50e77e99b560578b2fa3a91a" target="_top" xlink:title="Unify dereferenced. ">
<polygon fill="none" stroke="black" points="1508.5,-250.5 1508.5,-269.5 1642.5,-269.5 1642.5,-250.5 1508.5,-250.5"/>
<text text-anchor="middle" x="1575.5" y="-257.5" font-family="Helvetica,sans-Serif" font-size="10.00">prolog.terms.Term.unify_to</text>
</a>
</g>
</g>
<!-- Node28&#45;&gt;Node29 -->
<g id="edge34" class="edge"><title>Node28&#45;&gt;Node29</title>
<path fill="none" stroke="midnightblue" d="M1435.81,-288.411C1460.84,-283.284 1491.84,-276.933 1518.18,-271.537"/>
<polygon fill="midnightblue" stroke="midnightblue" points="1518.93,-274.956 1528.03,-269.52 1517.53,-268.098 1518.93,-274.956"/>
</g>
<!-- Node30&#45;&gt;Node17 -->
<g id="edge36" class="edge"><title>Node30&#45;&gt;Node17</title>
<path fill="none" stroke="midnightblue" d="M1637.86,-136.519C1655.46,-139.249 1674.7,-142.233 1692.48,-144.992"/>
<polygon fill="midnightblue" stroke="midnightblue" points="1692.34,-148.512 1702.76,-146.586 1693.42,-141.595 1692.34,-148.512"/>
</g>
<!-- Node31&#45;&gt;Node16 -->
<g id="edge39" class="edge"><title>Node31&#45;&gt;Node16</title>
<path fill="none" stroke="midnightblue" d="M1459.13,-184C1470.48,-184 1482.31,-184 1493.88,-184"/>
<polygon fill="midnightblue" stroke="midnightblue" points="1493.96,-187.5 1503.96,-184 1493.96,-180.5 1493.96,-187.5"/>
</g>
<!-- Node34&#45;&gt;Node20 -->
<g id="edge45" class="edge"><title>Node34&#45;&gt;Node20</title>
<path fill="none" stroke="midnightblue" d="M878.961,-19.5405C908.905,-29.076 955.124,-43.7936 988.149,-54.3099"/>
<polygon fill="midnightblue" stroke="midnightblue" points="987.351,-57.7291 997.942,-57.4284 989.475,-51.0591 987.351,-57.7291"/>
</g>
<!-- Node36 -->
<g id="node36" class="node"><title>Node36</title>
<g id="a_node36"><a xlink:href="../../d4/dc2/classprolog_1_1io_1_1IO_ad851906c6ebd6559eb1b1fa52e26dabb.html#ad851906c6ebd6559eb1b1fa52e26dabb" target="_top" xlink:title="prolog.io.IO.println">
<polygon fill="none" stroke="black" points="280.5,-97.5 280.5,-116.5 376.5,-116.5 376.5,-97.5 280.5,-97.5"/>
<text text-anchor="middle" x="328.5" y="-104.5" font-family="Helvetica,sans-Serif" font-size="10.00">prolog.io.IO.println</text>
</a>
</g>
</g>
<!-- Node35&#45;&gt;Node36 -->
<g id="edge49" class="edge"><title>Node35&#45;&gt;Node36</title>
<path fill="none" stroke="midnightblue" d="M206.753,-135.411C228.161,-130.374 254.586,-124.156 277.253,-118.823"/>
<polygon fill="midnightblue" stroke="midnightblue" points="278.107,-122.217 287.04,-116.52 276.504,-115.404 278.107,-122.217"/>
</g>
<!-- Node39 -->
<g id="node39" class="node"><title>Node39</title>
<g id="a_node39"><a xlink:href="../../d4/dc2/classprolog_1_1io_1_1IO_a22a9a2bfe9fa6e00257369f5bf078a44.html#a22a9a2bfe9fa6e00257369f5bf078a44" target="_top" xlink:title="prolog.io.IO.getStdOutput">
<polygon fill="none" stroke="black" points="264.5,-135.5 264.5,-154.5 392.5,-154.5 392.5,-135.5 264.5,-135.5"/>
<text text-anchor="middle" x="328.5" y="-142.5" font-family="Helvetica,sans-Serif" font-size="10.00">prolog.io.IO.getStdOutput</text>
</a>
</g>
</g>
<!-- Node35&#45;&gt;Node39 -->
<g id="edge52" class="edge"><title>Node35&#45;&gt;Node39</title>
<path fill="none" stroke="midnightblue" d="M215.333,-145C227.677,-145 241.183,-145 254.411,-145"/>
<polygon fill="midnightblue" stroke="midnightblue" points="254.449,-148.5 264.449,-145 254.449,-141.5 254.449,-148.5"/>
</g>
<!-- Node37 -->
<g id="node37" class="node"><title>Node37</title>
<g id="a_node37"><a xlink:href="../../d4/dc2/classprolog_1_1io_1_1IO_aab64872af087c6cd9c5dd13e9f4eda00.html#aab64872af087c6cd9c5dd13e9f4eda00" target="_top" xlink:title="prolog.io.IO.print">
<polygon fill="none" stroke="black" points="452,-96.5 452,-115.5 541,-115.5 541,-96.5 452,-96.5"/>
<text text-anchor="middle" x="496.5" y="-103.5" font-family="Helvetica,sans-Serif" font-size="10.00">prolog.io.IO.print</text>
</a>
</g>
</g>
<!-- Node36&#45;&gt;Node37 -->
<g id="edge50" class="edge"><title>Node36&#45;&gt;Node37</title>
<path fill="none" stroke="midnightblue" d="M376.625,-106.716C396.971,-106.594 420.879,-106.45 441.898,-106.323"/>
<polygon fill="midnightblue" stroke="midnightblue" points="441.978,-109.823 451.957,-106.262 441.936,-102.823 441.978,-109.823"/>
</g>
<!-- Node38 -->
<g id="node38" class="node"><title>Node38</title>
<g id="a_node38"><a xlink:href="../../d6/d92/interfaceprolog_1_1io_1_1IOPeer_abc1f90b85b358011e2595069d38ac25f.html#abc1f90b85b358011e2595069d38ac25f" target="_top" xlink:title="prolog.io.IOPeer.print">
<polygon fill="none" stroke="black" points="608.5,-96.5 608.5,-115.5 717.5,-115.5 717.5,-96.5 608.5,-96.5"/>
<text text-anchor="middle" x="663" y="-103.5" font-family="Helvetica,sans-Serif" font-size="10.00">prolog.io.IOPeer.print</text>
</a>
</g>
</g>
<!-- Node37&#45;&gt;Node38 -->
<g id="edge51" class="edge"><title>Node37&#45;&gt;Node38</title>
<path fill="none" stroke="midnightblue" d="M541.151,-106C558.659,-106 579.185,-106 598.301,-106"/>
<polygon fill="midnightblue" stroke="midnightblue" points="598.445,-109.5 608.445,-106 598.445,-102.5 598.445,-109.5"/>
</g>
<!-- Node40&#45;&gt;Node36 -->
<g id="edge54" class="edge"><title>Node40&#45;&gt;Node36</title>
<path fill="none" stroke="midnightblue" d="M211.417,-107C229.685,-107 250.958,-107 270.267,-107"/>
<polygon fill="midnightblue" stroke="midnightblue" points="270.458,-110.5 280.458,-107 270.458,-103.5 270.458,-110.5"/>
</g>
<!-- Node40&#45;&gt;Node39 -->
<g id="edge55" class="edge"><title>Node40&#45;&gt;Node39</title>
<path fill="none" stroke="midnightblue" d="M206.753,-116.589C228.161,-121.626 254.586,-127.844 277.253,-133.177"/>
<polygon fill="midnightblue" stroke="midnightblue" points="276.504,-136.596 287.04,-135.48 278.107,-129.783 276.504,-136.596"/>
</g>
<!-- Node41 -->
<g id="node41" class="node"><title>Node41</title>
<g id="a_node41"><a xlink:href="../../d6/d92/interfaceprolog_1_1io_1_1IOPeer_a780dd51c62dba4c266286171101b2cee.html#a780dd51c62dba4c266286171101b2cee" target="_top" xlink:title="prolog.io.IOPeer.traceln">
<polygon fill="none" stroke="black" points="269,-59.5 269,-78.5 388,-78.5 388,-59.5 269,-59.5"/>
<text text-anchor="middle" x="328.5" y="-66.5" font-family="Helvetica,sans-Serif" font-size="10.00">prolog.io.IOPeer.traceln</text>
</a>
</g>
</g>
<!-- Node40&#45;&gt;Node41 -->
<g id="edge56" class="edge"><title>Node40&#45;&gt;Node41</title>
<path fill="none" stroke="midnightblue" d="M206.753,-97.411C228.161,-92.3739 254.586,-86.1562 277.253,-80.8229"/>
<polygon fill="midnightblue" stroke="midnightblue" points="278.107,-84.2175 287.04,-78.5201 276.504,-77.4036 278.107,-84.2175"/>
</g>
</g>
</svg>
