<?xml version="1.0" encoding="UTF-8" standalone="no"?>
<!DOCTYPE svg PUBLIC "-//W3C//DTD SVG 1.1//EN"
 "http://www.w3.org/Graphics/SVG/1.1/DTD/svg11.dtd">
<!-- Generated by graphviz version 2.38.0 (20140413.2041)
 -->
<!-- Title: prolog.Init.getGoal Pages: 1 -->
<svg width="256pt" height="104pt"
 viewBox="0.00 0.00 256.00 104.00" xmlns="http://www.w3.org/2000/svg" xmlns:xlink="http://www.w3.org/1999/xlink">
<g id="graph0" class="graph" transform="scale(1 1) rotate(0) translate(4 100)">
<title>prolog.Init.getGoal</title>
<!-- Node1 -->
<g id="node1" class="node"><title>Node1</title>
<polygon fill="#bfbfbf" stroke="black" points="0,-38.5 0,-57.5 96,-57.5 96,-38.5 0,-38.5"/>
<text text-anchor="middle" x="48" y="-45.5" font-family="Helvetica,sans-Serif" font-size="10.00">prolog.Init.getGoal</text>
</g>
<!-- Node2 -->
<g id="node2" class="node"><title>Node2</title>
<g id="a_node2"><a xlink:href="../../d8/d35/classprolog_1_1Init_a4a827a2cfd90b291c538b46573b83d2f.html#a4a827a2cfd90b291c538b46573b83d2f" target="_top" xlink:title="Asks Prolog a String query and gets back a string Answer of the form &quot;the(&#39;[]&#39;(VarsOfQuery))&quot; contain...">
<polygon fill="none" stroke="black" points="137,-76.5 137,-95.5 243,-95.5 243,-76.5 137,-76.5"/>
<text text-anchor="middle" x="190" y="-83.5" font-family="Helvetica,sans-Serif" font-size="10.00">prolog.Init.askProlog</text>
</a>
</g>
</g>
<!-- Node1&#45;&gt;Node2 -->
<g id="edge1" class="edge"><title>Node1&#45;&gt;Node2</title>
<path fill="none" stroke="midnightblue" d="M94.1176,-60.2462C113.415,-65.484 135.612,-71.5091 153.683,-76.4141"/>
<polygon fill="midnightblue" stroke="midnightblue" points="94.8956,-56.8308 84.3279,-57.589 93.0619,-63.5864 94.8956,-56.8308"/>
</g>
<!-- Node3 -->
<g id="node3" class="node"><title>Node3</title>
<g id="a_node3"><a xlink:href="../../d8/d35/classprolog_1_1Init_a0348efff7140aed75f8364f90b7c2b8b.html#a0348efff7140aed75f8364f90b7c2b8b" target="_top" xlink:title="prolog.Init.run_query">
<polygon fill="none" stroke="black" points="137.5,-38.5 137.5,-57.5 242.5,-57.5 242.5,-38.5 137.5,-38.5"/>
<text text-anchor="middle" x="190" y="-45.5" font-family="Helvetica,sans-Serif" font-size="10.00">prolog.Init.run_query</text>
</a>
</g>
</g>
<!-- Node1&#45;&gt;Node3 -->
<g id="edge2" class="edge"><title>Node1&#45;&gt;Node3</title>
<path fill="none" stroke="midnightblue" d="M106.093,-48C116.34,-48 126.969,-48 137.06,-48"/>
<polygon fill="midnightblue" stroke="midnightblue" points="106.007,-44.5001 96.0074,-48 106.007,-51.5001 106.007,-44.5001"/>
</g>
<!-- Node4 -->
<g id="node4" class="node"><title>Node4</title>
<g id="a_node4"><a xlink:href="../../d8/d35/classprolog_1_1Init_a3e8704cf8b2d909fccc79e967dd48171.html#a3e8704cf8b2d909fccc79e967dd48171" target="_top" xlink:title="prolog.Init.standardTop">
<polygon fill="none" stroke="black" points="132,-0.5 132,-19.5 248,-19.5 248,-0.5 132,-0.5"/>
<text text-anchor="middle" x="190" y="-7.5" font-family="Helvetica,sans-Serif" font-size="10.00">prolog.Init.standardTop</text>
</a>
</g>
</g>
<!-- Node1&#45;&gt;Node4 -->
<g id="edge3" class="edge"><title>Node1&#45;&gt;Node4</title>
<path fill="none" stroke="midnightblue" d="M94.1176,-35.7538C113.415,-30.516 135.612,-24.4909 153.683,-19.5859"/>
<polygon fill="midnightblue" stroke="midnightblue" points="93.0619,-32.4136 84.3279,-38.411 94.8956,-39.1692 93.0619,-32.4136"/>
</g>
</g>
</svg>
