<?xml version="1.0" encoding="UTF-8" standalone="no"?>
<!DOCTYPE svg PUBLIC "-//W3C//DTD SVG 1.1//EN"
 "http://www.w3.org/Graphics/SVG/1.1/DTD/svg11.dtd">
<!-- Generated by graphviz version 2.38.0 (20140413.2041)
 -->
<!-- Title: prolog.Init.askProlog Pages: 1 -->
<!--zoomable 393 -->
<svg id="main" version="1.1" xmlns="http://www.w3.org/2000/svg" xmlns:xlink="http://www.w3.org/1999/xlink" xml:space="preserve" onload="init(evt)">
<style type="text/css"><![CDATA[
.edge:hover path { stroke: red; }
.edge:hover polygon { stroke: red; fill: red; }
]]></style>
<script type="text/javascript"><![CDATA[
var edges = document.getElementsByTagName('g');
if (edges && edges.length) {
  for (var i=0;i<edges.length;i++) {
    if (edges[i].id.substr(0,4)=='edge') {
      edges[i].setAttribute('class','edge');
    }
  }
}
]]></script>
        <defs>
                <circle id="rim" cx="0" cy="0" r="7"/>
                <circle id="rim2" cx="0" cy="0" r="3.5"/>
                <g id="zoomPlus">
                        <use xlink:href="#rim" fill="#404040">
                                <set attributeName="fill" to="#808080" begin="zoomplus.mouseover" end="zoomplus.mouseout"/>
                        </use>
                        <path d="M-4,0h8M0,-4v8" fill="none" stroke="white" stroke-width="1.5" pointer-events="none"/>
                </g>
                <g id="zoomMin">
                        <use xlink:href="#rim" fill="#404040">
                                <set attributeName="fill" to="#808080" begin="zoomminus.mouseover" end="zoomminus.mouseout"/>
                        </use>
                        <path d="M-4,0h8" fill="none" stroke="white" stroke-width="1.5" pointer-events="none"/>
                </g>
                <g id="dirArrow">
                        <path fill="none" stroke="white" stroke-width="1.5" d="M0,-3.0v7 M-2.5,-0.5L0,-3.0L2.5,-0.5"/>
                </g>
               <g id="resetDef">
                       <use xlink:href="#rim2" fill="#404040">
                               <set attributeName="fill" to="#808080" begin="reset.mouseover" end="reset.mouseout"/>
                       </use>
               </g>
        </defs>

<script type="text/javascript">
var viewWidth = 1882;
var viewHeight = 393;
var sectionId = 'dynsection-0';
</script>
<script xlink:href="../../svgpan.js"/>
<svg id="graph" class="graph">
<g id="viewport">
<title>prolog.Init.askProlog</title>
<!-- Node1 -->
<g id="node1" class="node"><title>Node1</title>
<polygon fill="#bfbfbf" stroke="black" points="0,-175.213 0,-194.213 106,-194.213 106,-175.213 0,-175.213"/>
<text text-anchor="middle" x="53" y="-182.213" font-family="Helvetica,sans-Serif" font-size="10.00">prolog.Init.askProlog</text>
</g>
<!-- Node2 -->
<g id="node2" class="node"><title>Node2</title>
<g id="a_node2"><a xlink:href="../../d4/d26/classprolog_1_1terms_1_1Prog_afb6f86119db8ba133de23f8bfe24ba2e.html#afb6f86119db8ba133de23f8bfe24ba2e" target="_top" xlink:title="Computes a copy of the first solution X of Goal G. ">
<polygon fill="none" stroke="black" points="142,-175.213 142,-194.213 291,-194.213 291,-175.213 142,-175.213"/>
<text text-anchor="middle" x="216.5" y="-182.213" font-family="Helvetica,sans-Serif" font-size="10.00">prolog.terms.Prog.firstSolution</text>
</a>
</g>
</g>
<!-- Node1&#45;&gt;Node2 -->
<g id="edge1" class="edge"><title>Node1&#45;&gt;Node2</title>
<path fill="none" stroke="midnightblue" d="M106.434,-184.713C114.577,-184.713 123.159,-184.713 131.787,-184.713"/>
<polygon fill="midnightblue" stroke="midnightblue" points="131.912,-188.213 141.912,-184.713 131.912,-181.213 131.912,-188.213"/>
</g>
<!-- Node3 -->
<g id="node3" class="node"><title>Node3</title>
<g id="a_node3"><a xlink:href="../../d4/d26/classprolog_1_1terms_1_1Prog_afb9691e6cce6f75afc1c67ac0b28d107.html#afb9691e6cce6f75afc1c67ac0b28d107" target="_top" xlink:title="creates a new logic engine ">
<polygon fill="none" stroke="black" points="327,-278.713 327,-308.713 442,-308.713 442,-278.713 327,-278.713"/>
<text text-anchor="start" x="335" y="-296.713" font-family="Helvetica,sans-Serif" font-size="10.00">prolog.terms.Prog.new</text>
<text text-anchor="middle" x="384.5" y="-285.713" font-family="Helvetica,sans-Serif" font-size="10.00">_engine</text>
</a>
</g>
</g>
<!-- Node2&#45;&gt;Node3 -->
<g id="edge2" class="edge"><title>Node2&#45;&gt;Node3</title>
<path fill="none" stroke="midnightblue" d="M232.231,-194.386C258.931,-211.918 315.871,-249.306 351.772,-272.879"/>
<polygon fill="midnightblue" stroke="midnightblue" points="350.134,-275.991 360.414,-278.555 353.976,-270.14 350.134,-275.991"/>
</g>
<!-- Node11 -->
<g id="node11" class="node"><title>Node11</title>
<g id="a_node11"><a xlink:href="../../d4/d26/classprolog_1_1terms_1_1Prog_a696a0c92a1814ecf4f21fb09fbc854a0.html#a696a0c92a1814ecf4f21fb09fbc854a0" target="_top" xlink:title="asks a logic engine to return a solution ">
<polygon fill="none" stroke="black" points="328,-169.713 328,-199.713 441,-199.713 441,-169.713 328,-169.713"/>
<text text-anchor="start" x="336" y="-187.713" font-family="Helvetica,sans-Serif" font-size="10.00">prolog.terms.Prog.ask</text>
<text text-anchor="middle" x="384.5" y="-176.713" font-family="Helvetica,sans-Serif" font-size="10.00">_engine</text>
</a>
</g>
</g>
<!-- Node2&#45;&gt;Node11 -->
<g id="edge10" class="edge"><title>Node2&#45;&gt;Node11</title>
<path fill="none" stroke="midnightblue" d="M291.277,-184.713C300.114,-184.713 309.093,-184.713 317.806,-184.713"/>
<polygon fill="midnightblue" stroke="midnightblue" points="317.887,-188.213 327.887,-184.713 317.887,-181.213 317.887,-188.213"/>
</g>
<!-- Node33 -->
<g id="node33" class="node"><title>Node33</title>
<g id="a_node33"><a xlink:href="../../d4/d26/classprolog_1_1terms_1_1Prog_a58deb818dfa50ebe37ac32eb2aae9ac9.html#a58deb818dfa50ebe37ac32eb2aae9ac9" target="_top" xlink:title="prolog.terms.Prog.stop">
<polygon fill="none" stroke="black" points="678,-71.2132 678,-90.2132 794,-90.2132 794,-71.2132 678,-71.2132"/>
<text text-anchor="middle" x="736" y="-78.2132" font-family="Helvetica,sans-Serif" font-size="10.00">prolog.terms.Prog.stop</text>
</a>
</g>
</g>
<!-- Node2&#45;&gt;Node33 -->
<g id="edge46" class="edge"><title>Node2&#45;&gt;Node33</title>
<path fill="none" stroke="midnightblue" d="M257.733,-175.191C278.401,-170.385 304.009,-164.562 327,-159.713 449.199,-133.94 592.68,-106.903 672.795,-92.0934"/>
<polygon fill="midnightblue" stroke="midnightblue" points="673.521,-95.5185 682.72,-90.2615 672.251,-88.6348 673.521,-95.5185"/>
</g>
<!-- Node4 -->
<g id="node4" class="node"><title>Node4</title>
<g id="a_node4"><a xlink:href="../../d4/d26/classprolog_1_1terms_1_1Prog_a9e9f1fcf979c833292d594d709d0f689.html#a9e9f1fcf979c833292d594d709d0f689" target="_top" xlink:title="Creates a Prog starting execution with argument &quot;goal&quot;. ">
<polygon fill="none" stroke="black" points="492.5,-323.213 492.5,-342.213 609.5,-342.213 609.5,-323.213 492.5,-323.213"/>
<text text-anchor="middle" x="551" y="-330.213" font-family="Helvetica,sans-Serif" font-size="10.00">prolog.terms.Prog.Prog</text>
</a>
</g>
</g>
<!-- Node3&#45;&gt;Node4 -->
<g id="edge3" class="edge"><title>Node3&#45;&gt;Node4</title>
<path fill="none" stroke="midnightblue" d="M442.112,-307.135C460.931,-311.597 481.741,-316.53 500.023,-320.864"/>
<polygon fill="midnightblue" stroke="midnightblue" points="499.353,-324.303 509.89,-323.204 500.967,-317.491 499.353,-324.303"/>
</g>
<!-- Node5 -->
<g id="node5" class="node"><title>Node5</title>
<g id="a_node5"><a xlink:href="../../d6/dc4/classprolog_1_1terms_1_1Clause_ad1a287e7c18ca6880e5d8f7d97c6acd9.html#ad1a287e7c18ca6880e5d8f7d97c6acd9" target="_top" xlink:title="Creates a copy of the clause with variables standardized apart, i.e. ">
<polygon fill="none" stroke="black" points="1209,-365.213 1209,-384.213 1343,-384.213 1343,-365.213 1209,-365.213"/>
<text text-anchor="middle" x="1276" y="-372.213" font-family="Helvetica,sans-Serif" font-size="10.00">prolog.terms.Clause.ccopy</text>
</a>
</g>
</g>
<!-- Node4&#45;&gt;Node5 -->
<g id="edge4" class="edge"><title>Node4&#45;&gt;Node5</title>
<path fill="none" stroke="midnightblue" d="M598.052,-342.245C617.138,-345.822 639.554,-349.543 660,-351.713 853.122,-372.215 1082.04,-375.198 1198.57,-375.205"/>
<polygon fill="midnightblue" stroke="midnightblue" points="1198.81,-378.705 1208.8,-375.197 1198.8,-371.705 1198.81,-378.705"/>
</g>
<!-- Node10 -->
<g id="node10" class="node"><title>Node10</title>
<g id="a_node10"><a xlink:href="../../da/d93/classprolog_1_1terms_1_1ObjectStack_a058b4b33eb3234f7d3426058bcbcace0.html#a058b4b33eb3234f7d3426058bcbcace0" target="_top" xlink:title="prolog.terms.ObjectStack.push">
<polygon fill="none" stroke="black" points="660,-323.213 660,-342.213 812,-342.213 812,-323.213 660,-323.213"/>
<text text-anchor="middle" x="736" y="-330.213" font-family="Helvetica,sans-Serif" font-size="10.00">prolog.terms.ObjectStack.push</text>
</a>
</g>
</g>
<!-- Node4&#45;&gt;Node10 -->
<g id="edge9" class="edge"><title>Node4&#45;&gt;Node10</title>
<path fill="none" stroke="midnightblue" d="M609.651,-332.713C622.341,-332.713 636.042,-332.713 649.566,-332.713"/>
<polygon fill="midnightblue" stroke="midnightblue" points="649.853,-336.213 659.853,-332.713 649.853,-329.213 649.853,-336.213"/>
</g>
<!-- Node6 -->
<g id="node6" class="node"><title>Node6</title>
<g id="a_node6"><a xlink:href="../../d6/dc4/classprolog_1_1terms_1_1Clause_a414492a8d9d648788aadfd423ee32fb0.html#a414492a8d9d648788aadfd423ee32fb0" target="_top" xlink:title="Builds a clause given its head and its body. ">
<polygon fill="none" stroke="black" points="1394.5,-327.213 1394.5,-346.213 1532.5,-346.213 1532.5,-327.213 1394.5,-327.213"/>
<text text-anchor="middle" x="1463.5" y="-334.213" font-family="Helvetica,sans-Serif" font-size="10.00">prolog.terms.Clause.Clause</text>
</a>
</g>
</g>
<!-- Node5&#45;&gt;Node6 -->
<g id="edge5" class="edge"><title>Node5&#45;&gt;Node6</title>
<path fill="none" stroke="midnightblue" d="M1323.81,-365.124C1348.84,-359.997 1379.84,-353.646 1406.18,-348.25"/>
<polygon fill="midnightblue" stroke="midnightblue" points="1406.93,-351.669 1416.03,-346.233 1405.53,-344.811 1406.93,-351.669"/>
</g>
<!-- Node7 -->
<g id="node7" class="node"><title>Node7</title>
<g id="a_node7"><a xlink:href="../../d3/ded/classprolog_1_1terms_1_1Term_a01e5a83e648ee3f89415c0142c4220d4.html#a01e5a83e648ee3f89415c0142c4220d4" target="_top" xlink:title="Returns a copy of a term with variables standardized apart (`fresh variables&#39;). ">
<polygon fill="none" stroke="black" points="1403.5,-365.213 1403.5,-384.213 1523.5,-384.213 1523.5,-365.213 1403.5,-365.213"/>
<text text-anchor="middle" x="1463.5" y="-372.213" font-family="Helvetica,sans-Serif" font-size="10.00">prolog.terms.Term.copy</text>
</a>
</g>
</g>
<!-- Node5&#45;&gt;Node7 -->
<g id="edge6" class="edge"><title>Node5&#45;&gt;Node7</title>
<path fill="none" stroke="midnightblue" d="M1343.18,-374.713C1359.47,-374.713 1376.95,-374.713 1393.37,-374.713"/>
<polygon fill="midnightblue" stroke="midnightblue" points="1393.44,-378.213 1403.44,-374.713 1393.44,-371.213 1393.44,-378.213"/>
</g>
<!-- Node8 -->
<g id="node8" class="node"><title>Node8</title>
<g id="a_node8"><a xlink:href="../../d3/ded/classprolog_1_1terms_1_1Term_a0a660e6cd55f12e49d328e1b84b478a4.html#a0a660e6cd55f12e49d328e1b84b478a4" target="_top" xlink:title="Defines the reaction to an agent recursing over the structure of a term. ">
<polygon fill="none" stroke="black" points="1579,-365.213 1579,-384.213 1713,-384.213 1713,-365.213 1579,-365.213"/>
<text text-anchor="middle" x="1646" y="-372.213" font-family="Helvetica,sans-Serif" font-size="10.00">prolog.terms.Term.reaction</text>
</a>
</g>
</g>
<!-- Node7&#45;&gt;Node8 -->
<g id="edge7" class="edge"><title>Node7&#45;&gt;Node8</title>
<path fill="none" stroke="midnightblue" d="M1523.6,-374.713C1537.97,-374.713 1553.54,-374.713 1568.58,-374.713"/>
<polygon fill="midnightblue" stroke="midnightblue" points="1568.89,-378.213 1578.89,-374.713 1568.89,-371.213 1568.89,-378.213"/>
</g>
<!-- Node9 -->
<g id="node9" class="node"><title>Node9</title>
<g id="a_node9"><a xlink:href="../../d3/ded/classprolog_1_1terms_1_1Term_aa52e271c0f6784dbde9aa4f5f3ab0268.html#aa52e271c0f6784dbde9aa4f5f3ab0268" target="_top" xlink:title="Identity action. ">
<polygon fill="none" stroke="black" points="1749,-365.213 1749,-384.213 1874,-384.213 1874,-365.213 1749,-365.213"/>
<text text-anchor="middle" x="1811.5" y="-372.213" font-family="Helvetica,sans-Serif" font-size="10.00">prolog.terms.Term.action</text>
</a>
</g>
</g>
<!-- Node8&#45;&gt;Node9 -->
<g id="edge8" class="edge"><title>Node8&#45;&gt;Node9</title>
<path fill="none" stroke="midnightblue" d="M1713.03,-374.713C1721.57,-374.713 1730.34,-374.713 1738.96,-374.713"/>
<polygon fill="midnightblue" stroke="midnightblue" points="1738.98,-378.213 1748.98,-374.713 1738.98,-371.213 1738.98,-378.213"/>
</g>
<!-- Node12 -->
<g id="node12" class="node"><title>Node12</title>
<g id="a_node12"><a xlink:href="../../d4/d26/classprolog_1_1terms_1_1Prog_ac5d988b907a2843fcfcba4d1fd1e0deb.html#ac5d988b907a2843fcfcba4d1fd1e0deb" target="_top" xlink:title="Here is where actual LD&#45;resolution computation happens. ">
<polygon fill="none" stroke="black" points="478,-175.213 478,-194.213 624,-194.213 624,-175.213 478,-175.213"/>
<text text-anchor="middle" x="551" y="-182.213" font-family="Helvetica,sans-Serif" font-size="10.00">prolog.terms.Prog.getElement</text>
</a>
</g>
</g>
<!-- Node11&#45;&gt;Node12 -->
<g id="edge11" class="edge"><title>Node11&#45;&gt;Node12</title>
<path fill="none" stroke="midnightblue" d="M441.192,-184.713C449.725,-184.713 458.685,-184.713 467.647,-184.713"/>
<polygon fill="midnightblue" stroke="midnightblue" points="467.743,-188.213 477.743,-184.713 467.743,-181.213 467.743,-188.213"/>
</g>
<!-- Node12&#45;&gt;Node10 -->
<g id="edge41" class="edge"><title>Node12&#45;&gt;Node10</title>
<path fill="none" stroke="midnightblue" d="M557.745,-194.361C572.044,-217.552 611.587,-276.858 660,-308.713 666.739,-313.147 674.356,-316.813 682.089,-319.828"/>
<polygon fill="midnightblue" stroke="midnightblue" points="680.931,-323.131 691.526,-323.191 683.281,-316.537 680.931,-323.131"/>
</g>
<!-- Node13 -->
<g id="node13" class="node"><title>Node13</title>
<g id="a_node13"><a xlink:href="../../da/d93/classprolog_1_1terms_1_1ObjectStack_aaa01178e10f20beab62b1410ba720606.html#aaa01178e10f20beab62b1410ba720606" target="_top" xlink:title="prolog.terms.ObjectStack.pop">
<polygon fill="none" stroke="black" points="1022,-109.213 1022,-128.213 1168,-128.213 1168,-109.213 1022,-109.213"/>
<text text-anchor="middle" x="1095" y="-116.213" font-family="Helvetica,sans-Serif" font-size="10.00">prolog.terms.ObjectStack.pop</text>
</a>
</g>
</g>
<!-- Node12&#45;&gt;Node13 -->
<g id="edge12" class="edge"><title>Node12&#45;&gt;Node13</title>
<path fill="none" stroke="midnightblue" d="M568.909,-175.014C589.618,-163.698 626.13,-145.54 660,-137.713 779.986,-109.985 923.474,-109.899 1011.67,-113.473"/>
<polygon fill="midnightblue" stroke="midnightblue" points="1011.74,-116.98 1021.88,-113.914 1012.04,-109.986 1011.74,-116.98"/>
</g>
<!-- Node14 -->
<g id="node14" class="node"><title>Node14</title>
<g id="a_node14"><a xlink:href="../../df/d94/classprolog_1_1terms_1_1Unfolder_aecb7a5d616b5375d40405f66c9401637.html#aecb7a5d616b5375d40405f66c9401637" target="_top" xlink:title="Extracts an answer at the end of an AND&#45;derivation. ">
<polygon fill="none" stroke="black" points="1031.5,-283.713 1031.5,-313.713 1158.5,-313.713 1158.5,-283.713 1031.5,-283.713"/>
<text text-anchor="start" x="1039.5" y="-301.713" font-family="Helvetica,sans-Serif" font-size="10.00">prolog.terms.Unfolder.get</text>
<text text-anchor="middle" x="1095" y="-290.713" font-family="Helvetica,sans-Serif" font-size="10.00">Answer</text>
</a>
</g>
</g>
<!-- Node12&#45;&gt;Node14 -->
<g id="edge13" class="edge"><title>Node12&#45;&gt;Node14</title>
<path fill="none" stroke="midnightblue" d="M559.681,-194.34C575.827,-213.744 615.486,-257.192 660,-274.713 779.844,-321.886 932.792,-316.827 1021.44,-308.214"/>
<polygon fill="midnightblue" stroke="midnightblue" points="1021.8,-311.695 1031.39,-307.205 1021.09,-304.731 1021.8,-311.695"/>
</g>
<!-- Node17 -->
<g id="node17" class="node"><title>Node17</title>
<g id="a_node17"><a xlink:href="../../df/d94/classprolog_1_1terms_1_1Unfolder_a261a28665ab541b974afb636c3fec84b.html#a261a28665ab541b974afb636c3fec84b" target="_top" xlink:title="Returns a new clause by unfolding the goal with a matching clause in the database, or null if no such clause exists. ">
<polygon fill="none" stroke="black" points="672.5,-147.713 672.5,-177.713 799.5,-177.713 799.5,-147.713 672.5,-147.713"/>
<text text-anchor="start" x="680.5" y="-165.713" font-family="Helvetica,sans-Serif" font-size="10.00">prolog.terms.Unfolder.get</text>
<text text-anchor="middle" x="736" y="-154.713" font-family="Helvetica,sans-Serif" font-size="10.00">Element</text>
</a>
</g>
</g>
<!-- Node12&#45;&gt;Node17 -->
<g id="edge17" class="edge"><title>Node12&#45;&gt;Node17</title>
<path fill="none" stroke="midnightblue" d="M624.064,-176.05C636.691,-174.532 649.837,-172.951 662.477,-171.432"/>
<polygon fill="midnightblue" stroke="midnightblue" points="662.975,-174.897 672.486,-170.229 662.139,-167.947 662.975,-174.897"/>
</g>
<!-- Node25 -->
<g id="node25" class="node"><title>Node25</title>
<g id="a_node25"><a xlink:href="../../d6/dc4/classprolog_1_1terms_1_1Clause_a5e5502c9619429232fcb310406256830.html#a5e5502c9619429232fcb310406256830" target="_top" xlink:title="Extracts the head of a clause (a Term). ">
<polygon fill="none" stroke="black" points="1204,-23.2132 1204,-42.2132 1348,-42.2132 1348,-23.2132 1204,-23.2132"/>
<text text-anchor="middle" x="1276" y="-30.2132" font-family="Helvetica,sans-Serif" font-size="10.00">prolog.terms.Clause.getHead</text>
</a>
</g>
</g>
<!-- Node12&#45;&gt;Node25 -->
<g id="edge45" class="edge"><title>Node12&#45;&gt;Node25</title>
<path fill="none" stroke="midnightblue" d="M556.901,-175.022C569.831,-150.656 607.51,-86.9834 660,-61.7132 847.488,28.5492 1105.46,-1.69686 1218.31,-21.3684"/>
<polygon fill="midnightblue" stroke="midnightblue" points="1217.98,-24.8662 1228.44,-23.1759 1219.21,-17.9749 1217.98,-24.8662"/>
</g>
<!-- Node31 -->
<g id="node31" class="node"><title>Node31</title>
<g id="a_node31"><a xlink:href="../../df/d94/classprolog_1_1terms_1_1Unfolder_adb4a243f464b333dfdd915b2929f6b40.html#adb4a243f464b333dfdd915b2929f6b40" target="_top" xlink:title="Checks if this clause is the last one, allowing LCO. ">
<polygon fill="none" stroke="black" points="672.5,-235.713 672.5,-265.713 799.5,-265.713 799.5,-235.713 672.5,-235.713"/>
<text text-anchor="start" x="680.5" y="-253.713" font-family="Helvetica,sans-Serif" font-size="10.00">prolog.terms.Unfolder.not</text>
<text text-anchor="middle" x="736" y="-242.713" font-family="Helvetica,sans-Serif" font-size="10.00">LastClause</text>
</a>
</g>
</g>
<!-- Node12&#45;&gt;Node31 -->
<g id="edge40" class="edge"><title>Node12&#45;&gt;Node31</title>
<path fill="none" stroke="midnightblue" d="M576.343,-194.282C598.164,-202.781 631.095,-215.414 660,-225.713 666.254,-227.942 672.823,-230.221 679.364,-232.451"/>
<polygon fill="midnightblue" stroke="midnightblue" points="678.293,-235.784 688.888,-235.674 680.537,-229.153 678.293,-235.784"/>
</g>
<!-- Node32 -->
<g id="node32" class="node"><title>Node32</title>
<g id="a_node32"><a xlink:href="../../df/d94/classprolog_1_1terms_1_1Unfolder_a71545549869608e7a300c7dbd7ed7216.html#a71545549869608e7a300c7dbd7ed7216" target="_top" xlink:title="Stops production of more alternatives by setting the clause enumerator to null. ">
<polygon fill="none" stroke="black" points="670,-197.213 670,-216.213 802,-216.213 802,-197.213 670,-197.213"/>
<text text-anchor="middle" x="736" y="-204.213" font-family="Helvetica,sans-Serif" font-size="10.00">prolog.terms.Unfolder.stop</text>
</a>
</g>
</g>
<!-- Node12&#45;&gt;Node32 -->
<g id="edge42" class="edge"><title>Node12&#45;&gt;Node32</title>
<path fill="none" stroke="midnightblue" d="M624.064,-193.377C635.745,-194.781 647.869,-196.238 659.627,-197.652"/>
<polygon fill="midnightblue" stroke="midnightblue" points="659.498,-201.162 669.844,-198.88 660.334,-194.212 659.498,-201.162"/>
</g>
<!-- Node12&#45;&gt;Node33 -->
<g id="edge43" class="edge"><title>Node12&#45;&gt;Node33</title>
<path fill="none" stroke="midnightblue" d="M567.241,-175.06C582.06,-165.509 605.043,-150.251 624,-135.713 640.755,-122.864 641.575,-115.026 660,-104.713 667.801,-100.347 676.51,-96.6449 685.154,-93.5532"/>
<polygon fill="midnightblue" stroke="midnightblue" points="686.459,-96.8075 694.835,-90.319 684.241,-90.1683 686.459,-96.8075"/>
</g>
<!-- Node14&#45;&gt;Node5 -->
<g id="edge16" class="edge"><title>Node14&#45;&gt;Node5</title>
<path fill="none" stroke="midnightblue" d="M1124.9,-313.824C1146.4,-324.773 1176.64,-339.551 1204,-350.713 1213.67,-354.657 1224.25,-358.487 1234.23,-361.887"/>
<polygon fill="midnightblue" stroke="midnightblue" points="1233.35,-365.283 1243.94,-365.131 1235.57,-358.644 1233.35,-365.283"/>
</g>
<!-- Node15 -->
<g id="node15" class="node"><title>Node15</title>
<g id="a_node15"><a xlink:href="../../d6/dc4/classprolog_1_1terms_1_1Clause_ab690dc7c5a2d5b6007fbf559a537d262.html#ab690dc7c5a2d5b6007fbf559a537d262" target="_top" xlink:title="Extracts the body of a clause. ">
<polygon fill="none" stroke="black" points="1392,-137.213 1392,-156.213 1535,-156.213 1535,-137.213 1392,-137.213"/>
<text text-anchor="middle" x="1463.5" y="-144.213" font-family="Helvetica,sans-Serif" font-size="10.00">prolog.terms.Clause.getBody</text>
</a>
</g>
</g>
<!-- Node14&#45;&gt;Node15 -->
<g id="edge14" class="edge"><title>Node14&#45;&gt;Node15</title>
<path fill="none" stroke="midnightblue" d="M1158.7,-294.721C1212.04,-289.028 1289.14,-275.217 1348,-241.713 1368.22,-230.205 1366.51,-219.057 1384,-203.713 1401.62,-188.248 1423.3,-172.746 1439.4,-161.821"/>
<polygon fill="midnightblue" stroke="midnightblue" points="1441.35,-164.726 1447.71,-156.252 1437.46,-158.91 1441.35,-164.726"/>
</g>
<!-- Node16 -->
<g id="node16" class="node"><title>Node16</title>
<g id="a_node16"><a xlink:href="../../d3/ded/classprolog_1_1terms_1_1Term_ae140fac2c9d066dc897fcfa723060a7a.html#ae140fac2c9d066dc897fcfa723060a7a" target="_top" xlink:title="Dereferences if necessary. ">
<polygon fill="none" stroke="black" points="1591,-99.2132 1591,-118.213 1701,-118.213 1701,-99.2132 1591,-99.2132"/>
<text text-anchor="middle" x="1646" y="-106.213" font-family="Helvetica,sans-Serif" font-size="10.00">prolog.terms.Term.ref</text>
</a>
</g>
</g>
<!-- Node15&#45;&gt;Node16 -->
<g id="edge15" class="edge"><title>Node15&#45;&gt;Node16</title>
<path fill="none" stroke="midnightblue" d="M1510.05,-137.124C1534.3,-132.019 1564.3,-125.702 1589.86,-120.321"/>
<polygon fill="midnightblue" stroke="midnightblue" points="1590.72,-123.718 1599.78,-118.233 1589.27,-116.868 1590.72,-123.718"/>
</g>
<!-- Node18 -->
<g id="node18" class="node"><title>Node18</title>
<g id="a_node18"><a xlink:href="../../d4/d26/classprolog_1_1terms_1_1Prog_a41eac8617a5002806d7137eb36183405.html#a41eac8617a5002806d7137eb36183405" target="_top" xlink:title="prolog.terms.Prog.getTrail">
<polygon fill="none" stroke="black" points="852.5,-147.213 852.5,-166.213 981.5,-166.213 981.5,-147.213 852.5,-147.213"/>
<text text-anchor="middle" x="917" y="-154.213" font-family="Helvetica,sans-Serif" font-size="10.00">prolog.terms.Prog.getTrail</text>
</a>
</g>
</g>
<!-- Node17&#45;&gt;Node18 -->
<g id="edge18" class="edge"><title>Node17&#45;&gt;Node18</title>
<path fill="none" stroke="midnightblue" d="M799.606,-160.615C813.316,-160.155 827.954,-159.664 842.061,-159.192"/>
<polygon fill="midnightblue" stroke="midnightblue" points="842.341,-162.684 852.218,-158.851 842.106,-155.688 842.341,-162.684"/>
</g>
<!-- Node19 -->
<g id="node19" class="node"><title>Node19</title>
<g id="a_node19"><a xlink:href="../../dd/dad/classprolog_1_1terms_1_1Trail_adab6fa04fe8e0da6e1870bd1b37a654b.html#adab6fa04fe8e0da6e1870bd1b37a654b" target="_top" xlink:title="Used to undo bindings after unification, if we intend to leave no side effects. ">
<polygon fill="none" stroke="black" points="854,-71.2132 854,-90.2132 980,-90.2132 980,-71.2132 854,-71.2132"/>
<text text-anchor="middle" x="917" y="-78.2132" font-family="Helvetica,sans-Serif" font-size="10.00">prolog.terms.Trail.unwind</text>
</a>
</g>
</g>
<!-- Node17&#45;&gt;Node19 -->
<g id="edge19" class="edge"><title>Node17&#45;&gt;Node19</title>
<path fill="none" stroke="midnightblue" d="M769.831,-147.673C802.942,-132.505 853.632,-109.284 885.78,-94.557"/>
<polygon fill="midnightblue" stroke="midnightblue" points="887.488,-97.6245 895.122,-90.2776 884.572,-91.2604 887.488,-97.6245"/>
</g>
<!-- Node21 -->
<g id="node21" class="node"><title>Node21</title>
<g id="a_node21"><a xlink:href="../../d3/ded/classprolog_1_1terms_1_1Term_a8ea1883429587f5ffa2d7aa6c272039c.html#a8ea1883429587f5ffa2d7aa6c272039c" target="_top" xlink:title="prolog.terms.Term.toClause">
<polygon fill="none" stroke="black" points="848,-185.213 848,-204.213 986,-204.213 986,-185.213 848,-185.213"/>
<text text-anchor="middle" x="917" y="-192.213" font-family="Helvetica,sans-Serif" font-size="10.00">prolog.terms.Term.toClause</text>
</a>
</g>
</g>
<!-- Node17&#45;&gt;Node21 -->
<g id="edge22" class="edge"><title>Node17&#45;&gt;Node21</title>
<path fill="none" stroke="midnightblue" d="M799.606,-173.905C816.798,-176.979 835.45,-180.313 852.682,-183.394"/>
<polygon fill="midnightblue" stroke="midnightblue" points="852.183,-186.86 862.643,-185.174 853.415,-179.969 852.183,-186.86"/>
</g>
<!-- Node22 -->
<g id="node22" class="node"><title>Node22</title>
<g id="a_node22"><a xlink:href="../../d6/dc4/classprolog_1_1terms_1_1Clause_a0d8b6d3c8de70326ab416be12688896b.html#a0d8b6d3c8de70326ab416be12688896b" target="_top" xlink:title="prolog.terms.Clause.unfold\l_with_goal">
<polygon fill="none" stroke="black" points="850,-223.713 850,-253.713 984,-253.713 984,-223.713 850,-223.713"/>
<text text-anchor="start" x="858" y="-241.713" font-family="Helvetica,sans-Serif" font-size="10.00">prolog.terms.Clause.unfold</text>
<text text-anchor="middle" x="917" y="-230.713" font-family="Helvetica,sans-Serif" font-size="10.00">_with_goal</text>
</a>
</g>
</g>
<!-- Node17&#45;&gt;Node22 -->
<g id="edge23" class="edge"><title>Node17&#45;&gt;Node22</title>
<path fill="none" stroke="midnightblue" d="M789.083,-177.78C796.925,-180.701 804.794,-184.02 812,-187.713 829.564,-196.715 830.576,-204.444 848,-213.713 851.98,-215.831 856.179,-217.845 860.457,-219.744"/>
<polygon fill="midnightblue" stroke="midnightblue" points="859.32,-223.063 869.895,-223.712 862.033,-216.61 859.32,-223.063"/>
</g>
<!-- Node19&#45;&gt;Node13 -->
<g id="edge20" class="edge"><title>Node19&#45;&gt;Node13</title>
<path fill="none" stroke="midnightblue" d="M962.412,-90.3022C985.951,-95.3845 1015.06,-101.669 1039.9,-107.034"/>
<polygon fill="midnightblue" stroke="midnightblue" points="1039.39,-110.504 1049.91,-109.193 1040.87,-103.661 1039.39,-110.504"/>
</g>
<!-- Node20 -->
<g id="node20" class="node"><title>Node20</title>
<g id="a_node20"><a xlink:href="../../d3/ded/classprolog_1_1terms_1_1Term_ac710eec3650309d160ca04e364804e47.html#ac710eec3650309d160ca04e364804e47" target="_top" xlink:title="prolog.terms.Term.undo">
<polygon fill="none" stroke="black" points="1035,-71.2132 1035,-90.2132 1155,-90.2132 1155,-71.2132 1035,-71.2132"/>
<text text-anchor="middle" x="1095" y="-78.2132" font-family="Helvetica,sans-Serif" font-size="10.00">prolog.terms.Term.undo</text>
</a>
</g>
</g>
<!-- Node19&#45;&gt;Node20 -->
<g id="edge21" class="edge"><title>Node19&#45;&gt;Node20</title>
<path fill="none" stroke="midnightblue" d="M980.051,-80.7132C994.525,-80.7132 1010.03,-80.7132 1024.79,-80.7132"/>
<polygon fill="midnightblue" stroke="midnightblue" points="1024.87,-84.2133 1034.87,-80.7132 1024.87,-77.2133 1024.87,-84.2133"/>
</g>
<!-- Node23 -->
<g id="node23" class="node"><title>Node23</title>
<g id="a_node23"><a xlink:href="../../d6/dc4/classprolog_1_1terms_1_1Clause_a9c5f957d0240113f4328ebbc73d3b31d.html#a9c5f957d0240113f4328ebbc73d3b31d" target="_top" xlink:title="Algebraic composition operation of 2 Clauses, doing the basic resolution step Prolog is based on...">
<polygon fill="none" stroke="black" points="1028,-194.213 1028,-213.213 1162,-213.213 1162,-194.213 1028,-194.213"/>
<text text-anchor="middle" x="1095" y="-201.213" font-family="Helvetica,sans-Serif" font-size="10.00">prolog.terms.Clause.unfold</text>
</a>
</g>
</g>
<!-- Node22&#45;&gt;Node23 -->
<g id="edge24" class="edge"><title>Node22&#45;&gt;Node23</title>
<path fill="none" stroke="midnightblue" d="M984.037,-225.581C1001.08,-222.192 1019.3,-218.569 1035.9,-215.266"/>
<polygon fill="midnightblue" stroke="midnightblue" points="1036.88,-218.64 1046.01,-213.257 1035.52,-211.774 1036.88,-218.64"/>
</g>
<!-- Node23&#45;&gt;Node5 -->
<g id="edge30" class="edge"><title>Node23&#45;&gt;Node5</title>
<path fill="none" stroke="midnightblue" d="M1108.28,-213.267C1123.78,-225.81 1150.51,-249.138 1168,-273.713 1189.9,-304.495 1175.84,-325.528 1204,-350.713 1208.54,-354.77 1213.78,-358.145 1219.33,-360.953"/>
<polygon fill="midnightblue" stroke="midnightblue" points="1218.32,-364.331 1228.88,-365.162 1221.14,-357.926 1218.32,-364.331"/>
</g>
<!-- Node23&#45;&gt;Node6 -->
<g id="edge39" class="edge"><title>Node23&#45;&gt;Node6</title>
<path fill="none" stroke="midnightblue" d="M1112.41,-213.234C1133.21,-225.031 1170.42,-245.221 1204,-258.713 1275.1,-287.281 1360.8,-311.168 1413.46,-324.705"/>
<polygon fill="midnightblue" stroke="midnightblue" points="1412.67,-328.113 1423.22,-327.191 1414.39,-321.33 1412.67,-328.113"/>
</g>
<!-- Node23&#45;&gt;Node15 -->
<g id="edge36" class="edge"><title>Node23&#45;&gt;Node15</title>
<path fill="none" stroke="midnightblue" d="M1105.28,-194.059C1122.68,-176.731 1162.25,-140.93 1204,-127.713 1265.02,-108.397 1284.22,-122.457 1348,-127.713 1366.98,-129.277 1387.55,-132.275 1405.95,-135.436"/>
<polygon fill="midnightblue" stroke="midnightblue" points="1405.46,-138.905 1415.92,-137.201 1406.68,-132.012 1405.46,-138.905"/>
</g>
<!-- Node24 -->
<g id="node24" class="node"><title>Node24</title>
<g id="a_node24"><a xlink:href="../../d6/dc4/classprolog_1_1terms_1_1Clause_abb4cb737b264c815c48f32a431ec6f5a.html#abb4cb737b264c815c48f32a431ec6f5a" target="_top" xlink:title="Gets the leftmost (first) goal in the body of a clause, i.e. ">
<polygon fill="none" stroke="black" points="1206,-213.213 1206,-232.213 1346,-232.213 1346,-213.213 1206,-213.213"/>
<text text-anchor="middle" x="1276" y="-220.213" font-family="Helvetica,sans-Serif" font-size="10.00">prolog.terms.Clause.getFirst</text>
</a>
</g>
</g>
<!-- Node23&#45;&gt;Node24 -->
<g id="edge25" class="edge"><title>Node23&#45;&gt;Node24</title>
<path fill="none" stroke="midnightblue" d="M1162.14,-210.734C1173.05,-211.891 1184.45,-213.102 1195.64,-214.289"/>
<polygon fill="midnightblue" stroke="midnightblue" points="1195.52,-217.796 1205.83,-215.371 1196.25,-210.835 1195.52,-217.796"/>
</g>
<!-- Node23&#45;&gt;Node25 -->
<g id="edge27" class="edge"><title>Node23&#45;&gt;Node25</title>
<path fill="none" stroke="midnightblue" d="M1109.59,-194.15C1125.42,-182.412 1151.52,-161.159 1168,-137.713 1191.83,-103.813 1172.79,-78.9705 1204,-51.7132 1205.93,-50.0239 1208,-48.4828 1210.17,-47.0771"/>
<polygon fill="midnightblue" stroke="midnightblue" points="1211.86,-50.1448 1218.98,-42.2986 1208.52,-43.9925 1211.86,-50.1448"/>
</g>
<!-- Node26 -->
<g id="node26" class="node"><title>Node26</title>
<g id="a_node26"><a xlink:href="../../d3/ded/classprolog_1_1terms_1_1Term_a0a9b83bb831ed6ac6dd508c099007ac0.html#a0a9b83bb831ed6ac6dd508c099007ac0" target="_top" xlink:title="Tests if this term unifies with that. ">
<polygon fill="none" stroke="black" points="1207.5,-175.213 1207.5,-194.213 1344.5,-194.213 1344.5,-175.213 1207.5,-175.213"/>
<text text-anchor="middle" x="1276" y="-182.213" font-family="Helvetica,sans-Serif" font-size="10.00">prolog.terms.Term.matches</text>
</a>
</g>
</g>
<!-- Node23&#45;&gt;Node26 -->
<g id="edge29" class="edge"><title>Node23&#45;&gt;Node26</title>
<path fill="none" stroke="midnightblue" d="M1162.14,-196.692C1173.54,-195.482 1185.49,-194.214 1197.16,-192.975"/>
<polygon fill="midnightblue" stroke="midnightblue" points="1197.76,-196.432 1207.33,-191.896 1197.02,-189.471 1197.76,-196.432"/>
</g>
<!-- Node27 -->
<g id="node27" class="node"><title>Node27</title>
<g id="a_node27"><a xlink:href="../../d3/ded/classprolog_1_1terms_1_1Term_a84d8fb7e1f816d0dbe3c2c56ed28fdb9.html#a84d8fb7e1f816d0dbe3c2c56ed28fdb9" target="_top" xlink:title="Dereference and unify_to. ">
<polygon fill="none" stroke="black" points="1216,-61.2132 1216,-80.2132 1336,-80.2132 1336,-61.2132 1216,-61.2132"/>
<text text-anchor="middle" x="1276" y="-68.2132" font-family="Helvetica,sans-Serif" font-size="10.00">prolog.terms.Term.unify</text>
</a>
</g>
</g>
<!-- Node23&#45;&gt;Node27 -->
<g id="edge31" class="edge"><title>Node23&#45;&gt;Node27</title>
<path fill="none" stroke="midnightblue" d="M1107.4,-194.085C1121.97,-181.604 1147.73,-158.917 1168,-137.713 1185.22,-119.697 1183.43,-108.784 1204,-94.7132 1210.2,-90.4711 1217.22,-86.9217 1224.37,-83.9681"/>
<polygon fill="midnightblue" stroke="midnightblue" points="1226,-87.0931 1234.13,-80.3009 1223.54,-80.5399 1226,-87.0931"/>
</g>
<!-- Node29 -->
<g id="node29" class="node"><title>Node29</title>
<g id="a_node29"><a xlink:href="../../d6/dc4/classprolog_1_1terms_1_1Clause_af03de53b32948f858e2cbfeb697eaf4b.html#af03de53b32948f858e2cbfeb697eaf4b" target="_top" xlink:title="Concatenates 2 Conjunctions. ">
<polygon fill="none" stroke="black" points="1384,-213.213 1384,-232.213 1543,-232.213 1543,-213.213 1384,-213.213"/>
<text text-anchor="middle" x="1463.5" y="-220.213" font-family="Helvetica,sans-Serif" font-size="10.00">prolog.terms.Clause.appendConj</text>
</a>
</g>
</g>
<!-- Node23&#45;&gt;Node29 -->
<g id="edge34" class="edge"><title>Node23&#45;&gt;Node29</title>
<path fill="none" stroke="midnightblue" d="M1116.55,-213.303C1137.87,-222.685 1172.46,-236.326 1204,-241.713 1274.28,-253.716 1356.58,-243.584 1409.1,-234.119"/>
<polygon fill="midnightblue" stroke="midnightblue" points="1410.01,-237.51 1419.2,-232.241 1408.73,-230.628 1410.01,-237.51"/>
</g>
<!-- Node30 -->
<g id="node30" class="node"><title>Node30</title>
<g id="a_node30"><a xlink:href="../../d6/dc4/classprolog_1_1terms_1_1Clause_a60e4c0d7e8a9b03c5b073f3c2f023011.html#a60e4c0d7e8a9b03c5b073f3c2f023011" target="_top" xlink:title="Gets all but the leftmost goal in the body of a clause, i.e. ">
<polygon fill="none" stroke="black" points="1205,-137.213 1205,-156.213 1347,-156.213 1347,-137.213 1205,-137.213"/>
<text text-anchor="middle" x="1276" y="-144.213" font-family="Helvetica,sans-Serif" font-size="10.00">prolog.terms.Clause.getRest</text>
</a>
</g>
</g>
<!-- Node23&#45;&gt;Node30 -->
<g id="edge37" class="edge"><title>Node23&#45;&gt;Node30</title>
<path fill="none" stroke="midnightblue" d="M1121.56,-194.094C1143.33,-186.054 1175.52,-174.521 1204,-165.713 1211.54,-163.381 1219.59,-161.066 1227.45,-158.896"/>
<polygon fill="midnightblue" stroke="midnightblue" points="1228.53,-162.231 1237.26,-156.235 1226.69,-155.475 1228.53,-162.231"/>
</g>
<!-- Node24&#45;&gt;Node15 -->
<g id="edge26" class="edge"><title>Node24&#45;&gt;Node15</title>
<path fill="none" stroke="midnightblue" d="M1318.37,-213.14C1328.2,-210.455 1338.57,-207.28 1348,-203.713 1379.62,-191.75 1414.13,-173.856 1436.91,-161.316"/>
<polygon fill="midnightblue" stroke="midnightblue" points="1438.87,-164.227 1445.91,-156.303 1435.47,-158.111 1438.87,-164.227"/>
</g>
<!-- Node25&#45;&gt;Node16 -->
<g id="edge28" class="edge"><title>Node25&#45;&gt;Node16</title>
<path fill="none" stroke="midnightblue" d="M1348.05,-39.1787C1402.07,-45.0428 1477.94,-55.3231 1543,-71.7132 1567.06,-77.7755 1593.37,-87.3971 1613.24,-95.309"/>
<polygon fill="midnightblue" stroke="midnightblue" points="1612.14,-98.6378 1622.72,-99.1474 1614.77,-92.1497 1612.14,-98.6378"/>
</g>
<!-- Node27&#45;&gt;Node16 -->
<g id="edge32" class="edge"><title>Node27&#45;&gt;Node16</title>
<path fill="none" stroke="midnightblue" d="M1336.09,-73.0203C1390.12,-75.5834 1472.17,-80.6157 1543,-89.7132 1558.24,-91.6708 1574.65,-94.4337 1589.76,-97.2478"/>
<polygon fill="midnightblue" stroke="midnightblue" points="1589.5,-100.762 1599.98,-99.195 1590.81,-93.8853 1589.5,-100.762"/>
</g>
<!-- Node28 -->
<g id="node28" class="node"><title>Node28</title>
<g id="a_node28"><a xlink:href="../../d3/ded/classprolog_1_1terms_1_1Term_a866b2cca50e77e99b560578b2fa3a91a.html#a866b2cca50e77e99b560578b2fa3a91a" target="_top" xlink:title="Unify dereferenced. ">
<polygon fill="none" stroke="black" points="1396.5,-99.2132 1396.5,-118.213 1530.5,-118.213 1530.5,-99.2132 1396.5,-99.2132"/>
<text text-anchor="middle" x="1463.5" y="-106.213" font-family="Helvetica,sans-Serif" font-size="10.00">prolog.terms.Term.unify_to</text>
</a>
</g>
</g>
<!-- Node27&#45;&gt;Node28 -->
<g id="edge33" class="edge"><title>Node27&#45;&gt;Node28</title>
<path fill="none" stroke="midnightblue" d="M1323.81,-80.3022C1348.84,-85.4296 1379.84,-91.7804 1406.18,-97.1764"/>
<polygon fill="midnightblue" stroke="midnightblue" points="1405.53,-100.615 1416.03,-99.1931 1406.93,-93.7574 1405.53,-100.615"/>
</g>
<!-- Node29&#45;&gt;Node16 -->
<g id="edge35" class="edge"><title>Node29&#45;&gt;Node16</title>
<path fill="none" stroke="midnightblue" d="M1479.58,-213.19C1510.9,-193.407 1583.23,-147.727 1621.02,-123.859"/>
<polygon fill="midnightblue" stroke="midnightblue" points="1623.25,-126.589 1629.84,-118.29 1619.51,-120.671 1623.25,-126.589"/>
</g>
<!-- Node30&#45;&gt;Node15 -->
<g id="edge38" class="edge"><title>Node30&#45;&gt;Node15</title>
<path fill="none" stroke="midnightblue" d="M1347.13,-146.713C1358.48,-146.713 1370.31,-146.713 1381.88,-146.713"/>
<polygon fill="midnightblue" stroke="midnightblue" points="1381.96,-150.213 1391.96,-146.713 1381.96,-143.213 1381.96,-150.213"/>
</g>
<!-- Node33&#45;&gt;Node19 -->
<g id="edge44" class="edge"><title>Node33&#45;&gt;Node19</title>
<path fill="none" stroke="midnightblue" d="M794.129,-80.7132C809.889,-80.7132 827.196,-80.7132 843.694,-80.7132"/>
<polygon fill="midnightblue" stroke="midnightblue" points="843.84,-84.2133 853.84,-80.7132 843.84,-77.2133 843.84,-84.2133"/>
</g>
</g>
</svg>
        <g id="navigator" transform="translate(0 0)" fill="#404254">
                <rect fill="#f2f5e9" fill-opacity="0.5" stroke="#606060" stroke-width=".5" x="0" y="0" width="60" height="60"/>
                <use id="zoomplus" xlink:href="#zoomPlus" x="17" y="9" onmousedown="handleZoom(evt,'in')"/>
                <use id="zoomminus" xlink:href="#zoomMin" x="42" y="9" onmousedown="handleZoom(evt,'out')"/>
                <use id="reset" xlink:href="#resetDef" x="30" y="36" onmousedown="handleReset()"/>
                <g id="arrowUp" xlink:href="#dirArrow" transform="translate(30 24)" onmousedown="handlePan(0,-1)">
                  <use xlink:href="#rim" fill="#404040">
                        <set attributeName="fill" to="#808080" begin="arrowUp.mouseover" end="arrowUp.mouseout"/>
                  </use>
                  <path fill="none" stroke="white" stroke-width="1.5" d="M0,-3.0v7 M-2.5,-0.5L0,-3.0L2.5,-0.5"/>
                </g>
                <g id="arrowRight" xlink:href="#dirArrow" transform="rotate(90) translate(36 -43)" onmousedown="handlePan(1,0)">
                  <use xlink:href="#rim" fill="#404040">
                        <set attributeName="fill" to="#808080" begin="arrowRight.mouseover" end="arrowRight.mouseout"/>
                  </use>
                  <path fill="none" stroke="white" stroke-width="1.5" d="M0,-3.0v7 M-2.5,-0.5L0,-3.0L2.5,-0.5"/>
                </g>
                <g id="arrowDown" xlink:href="#dirArrow" transform="rotate(180) translate(-30 -48)" onmousedown="handlePan(0,1)">
                  <use xlink:href="#rim" fill="#404040">
                        <set attributeName="fill" to="#808080" begin="arrowDown.mouseover" end="arrowDown.mouseout"/>
                  </use>
                  <path fill="none" stroke="white" stroke-width="1.5" d="M0,-3.0v7 M-2.5,-0.5L0,-3.0L2.5,-0.5"/>
                </g>
                <g id="arrowLeft" xlink:href="#dirArrow" transform="rotate(270) translate(-36 17)" onmousedown="handlePan(-1,0)">
                  <use xlink:href="#rim" fill="#404040">
                        <set attributeName="fill" to="#808080" begin="arrowLeft.mouseover" end="arrowLeft.mouseout"/>
                  </use>
                  <path fill="none" stroke="white" stroke-width="1.5" d="M0,-3.0v7 M-2.5,-0.5L0,-3.0L2.5,-0.5"/>
                </g>
        </g>
        <svg viewBox="0 0 15 15" width="100%" height="30px" preserveAspectRatio="xMaxYMin meet">
         <g id="arrow_out" transform="scale(0.3 0.3)">
          <a xlink:href="classprolog_1_1Init_a4a7b9ae1dc4d489e657326f3ed5a4b7e_a4a7b9ae1dc4d489e657326f3ed5a4b7e_cgraph_org.svg" target="_base">
           <rect id="button" ry="5" rx="5" y="6" x="6" height="38" width="38"
                fill="#f2f5e9" fill-opacity="0.5" stroke="#606060" stroke-width="1.0"/>
           <path id="arrow"
             d="M 11.500037,31.436501 C 11.940474,20.09759 22.043105,11.32322 32.158766,21.979434 L 37.068811,17.246167 C 37.068811,17.246167 37.088388,32 37.088388,32 L 22.160133,31.978069 C 22.160133,31.978069 26.997745,27.140456 26.997745,27.140456 C 18.528582,18.264221 13.291696,25.230495 11.500037,31.436501 z"
             style="fill:#404040;"/>
          </a>
         </g>
        </svg>
</svg>
