<?xml version="1.0" encoding="UTF-8" standalone="no"?>
<!DOCTYPE svg PUBLIC "-//W3C//DTD SVG 1.1//EN"
 "http://www.w3.org/Graphics/SVG/1.1/DTD/svg11.dtd">
<!-- Generated by graphviz version 2.38.0 (20140413.2041)
 -->
<!-- Title: prolog.builtins.name_to_chars.exec Pages: 1 -->
<!--zoomable 192 -->
<svg id="main" version="1.1" xmlns="http://www.w3.org/2000/svg" xmlns:xlink="http://www.w3.org/1999/xlink" xml:space="preserve" onload="init(evt)">
<style type="text/css"><![CDATA[
.edge:hover path { stroke: red; }
.edge:hover polygon { stroke: red; fill: red; }
]]></style>
<script type="text/javascript"><![CDATA[
var edges = document.getElementsByTagName('g');
if (edges && edges.length) {
  for (var i=0;i<edges.length;i++) {
    if (edges[i].id.substr(0,4)=='edge') {
      edges[i].setAttribute('class','edge');
    }
  }
}
]]></script>
        <defs>
                <circle id="rim" cx="0" cy="0" r="7"/>
                <circle id="rim2" cx="0" cy="0" r="3.5"/>
                <g id="zoomPlus">
                        <use xlink:href="#rim" fill="#404040">
                                <set attributeName="fill" to="#808080" begin="zoomplus.mouseover" end="zoomplus.mouseout"/>
                        </use>
                        <path d="M-4,0h8M0,-4v8" fill="none" stroke="white" stroke-width="1.5" pointer-events="none"/>
                </g>
                <g id="zoomMin">
                        <use xlink:href="#rim" fill="#404040">
                                <set attributeName="fill" to="#808080" begin="zoomminus.mouseover" end="zoomminus.mouseout"/>
                        </use>
                        <path d="M-4,0h8" fill="none" stroke="white" stroke-width="1.5" pointer-events="none"/>
                </g>
                <g id="dirArrow">
                        <path fill="none" stroke="white" stroke-width="1.5" d="M0,-3.0v7 M-2.5,-0.5L0,-3.0L2.5,-0.5"/>
                </g>
               <g id="resetDef">
                       <use xlink:href="#rim2" fill="#404040">
                               <set attributeName="fill" to="#808080" begin="reset.mouseover" end="reset.mouseout"/>
                       </use>
               </g>
        </defs>

<script type="text/javascript">
var viewWidth = 1310;
var viewHeight = 192;
var sectionId = 'dynsection-0';
</script>
<script xlink:href="../../svgpan.js"/>
<svg id="graph" class="graph">
<g id="viewport">
<title>prolog.builtins.name_to_chars.exec</title>
<!-- Node1 -->
<g id="node1" class="node"><title>Node1</title>
<polygon fill="#bfbfbf" stroke="black" points="0,-92 0,-122 104,-122 104,-92 0,-92"/>
<text text-anchor="start" x="8" y="-110" font-family="Helvetica,sans-Serif" font-size="10.00">prolog.builtins.name</text>
<text text-anchor="middle" x="52" y="-99" font-family="Helvetica,sans-Serif" font-size="10.00">_to_chars.exec</text>
</g>
<!-- Node2 -->
<g id="node2" class="node"><title>Node2</title>
<g id="a_node2"><a xlink:href="../../de/d8d/classprolog_1_1terms_1_1Fun_a95f487cd7555adbc0ae1a08076a0404d.html#a95f487cd7555adbc0ae1a08076a0404d" target="_top" xlink:title="prolog.terms.Fun.getArg">
<polygon fill="none" stroke="black" points="146,-154.5 146,-173.5 268,-173.5 268,-154.5 146,-154.5"/>
<text text-anchor="middle" x="207" y="-161.5" font-family="Helvetica,sans-Serif" font-size="10.00">prolog.terms.Fun.getArg</text>
</a>
</g>
</g>
<!-- Node1&#45;&gt;Node2 -->
<g id="edge1" class="edge"><title>Node1&#45;&gt;Node2</title>
<path fill="none" stroke="midnightblue" d="M93.5995,-122.125C117.613,-131.072 147.73,-142.292 170.744,-150.865"/>
<polygon fill="midnightblue" stroke="midnightblue" points="169.541,-154.152 180.134,-154.363 171.985,-147.593 169.541,-154.152"/>
</g>
<!-- Node4 -->
<g id="node4" class="node"><title>Node4</title>
<g id="a_node4"><a xlink:href="../../de/d8d/classprolog_1_1terms_1_1Fun_a408f688b791b731a83c6a41a8ee32fb0.html#a408f688b791b731a83c6a41a8ee32fb0" target="_top" xlink:title="prolog.terms.Fun.putArg">
<polygon fill="none" stroke="black" points="146,-97.5 146,-116.5 268,-116.5 268,-97.5 146,-97.5"/>
<text text-anchor="middle" x="207" y="-104.5" font-family="Helvetica,sans-Serif" font-size="10.00">prolog.terms.Fun.putArg</text>
</a>
</g>
</g>
<!-- Node1&#45;&gt;Node4 -->
<g id="edge3" class="edge"><title>Node1&#45;&gt;Node4</title>
<path fill="none" stroke="midnightblue" d="M104.372,-107C114.438,-107 125.156,-107 135.716,-107"/>
<polygon fill="midnightblue" stroke="midnightblue" points="135.765,-110.5 145.765,-107 135.765,-103.5 135.765,-110.5"/>
</g>
<!-- Node8 -->
<g id="node8" class="node"><title>Node8</title>
<g id="a_node8"><a xlink:href="../../d3/ded/classprolog_1_1terms_1_1Term_ae8200608f033511843ee4eae348103ed.html#ae8200608f033511843ee4eae348103ed" target="_top" xlink:title="prolog.terms.Term.toChars">
<polygon fill="none" stroke="black" points="140,-44.5 140,-63.5 274,-63.5 274,-44.5 140,-44.5"/>
<text text-anchor="middle" x="207" y="-51.5" font-family="Helvetica,sans-Serif" font-size="10.00">prolog.terms.Term.toChars</text>
</a>
</g>
</g>
<!-- Node1&#45;&gt;Node8 -->
<g id="edge8" class="edge"><title>Node1&#45;&gt;Node8</title>
<path fill="none" stroke="midnightblue" d="M96.4344,-91.9541C119.265,-84.0454 146.961,-74.4513 168.795,-66.8879"/>
<polygon fill="midnightblue" stroke="midnightblue" points="170.072,-70.1496 178.376,-63.5691 167.781,-63.5352 170.072,-70.1496"/>
</g>
<!-- Node3 -->
<g id="node3" class="node"><title>Node3</title>
<g id="a_node3"><a xlink:href="../../d3/ded/classprolog_1_1terms_1_1Term_ae140fac2c9d066dc897fcfa723060a7a.html#ae140fac2c9d066dc897fcfa723060a7a" target="_top" xlink:title="Dereferences if necessary. ">
<polygon fill="none" stroke="black" points="507,-164.5 507,-183.5 617,-183.5 617,-164.5 507,-164.5"/>
<text text-anchor="middle" x="562" y="-171.5" font-family="Helvetica,sans-Serif" font-size="10.00">prolog.terms.Term.ref</text>
</a>
</g>
</g>
<!-- Node2&#45;&gt;Node3 -->
<g id="edge2" class="edge"><title>Node2&#45;&gt;Node3</title>
<path fill="none" stroke="midnightblue" d="M268.282,-165.708C331.833,-167.508 431.572,-170.333 496.627,-172.176"/>
<polygon fill="midnightblue" stroke="midnightblue" points="496.664,-175.679 506.759,-172.463 496.862,-168.682 496.664,-175.679"/>
</g>
<!-- Node5 -->
<g id="node5" class="node"><title>Node5</title>
<g id="a_node5"><a xlink:href="../../d3/ded/classprolog_1_1terms_1_1Term_a84d8fb7e1f816d0dbe3c2c56ed28fdb9.html#a84d8fb7e1f816d0dbe3c2c56ed28fdb9" target="_top" xlink:title="Dereference and unify_to. ">
<polygon fill="none" stroke="black" points="324.5,-126.5 324.5,-145.5 444.5,-145.5 444.5,-126.5 324.5,-126.5"/>
<text text-anchor="middle" x="384.5" y="-133.5" font-family="Helvetica,sans-Serif" font-size="10.00">prolog.terms.Term.unify</text>
</a>
</g>
</g>
<!-- Node4&#45;&gt;Node5 -->
<g id="edge4" class="edge"><title>Node4&#45;&gt;Node5</title>
<path fill="none" stroke="midnightblue" d="M265.952,-116.576C281.909,-119.213 299.359,-122.096 315.814,-124.815"/>
<polygon fill="midnightblue" stroke="midnightblue" points="315.472,-128.306 325.908,-126.483 316.613,-121.4 315.472,-128.306"/>
</g>
<!-- Node7 -->
<g id="node7" class="node"><title>Node7</title>
<g id="a_node7"><a xlink:href="../../d4/d26/classprolog_1_1terms_1_1Prog_a41eac8617a5002806d7137eb36183405.html#a41eac8617a5002806d7137eb36183405" target="_top" xlink:title="prolog.terms.Prog.getTrail">
<polygon fill="none" stroke="black" points="320,-88.5 320,-107.5 449,-107.5 449,-88.5 320,-88.5"/>
<text text-anchor="middle" x="384.5" y="-95.5" font-family="Helvetica,sans-Serif" font-size="10.00">prolog.terms.Prog.getTrail</text>
</a>
</g>
</g>
<!-- Node4&#45;&gt;Node7 -->
<g id="edge7" class="edge"><title>Node4&#45;&gt;Node7</title>
<path fill="none" stroke="midnightblue" d="M268.397,-103.903C281.592,-103.226 295.704,-102.502 309.365,-101.802"/>
<polygon fill="midnightblue" stroke="midnightblue" points="309.893,-105.279 319.7,-101.272 309.534,-98.2886 309.893,-105.279"/>
</g>
<!-- Node5&#45;&gt;Node3 -->
<g id="edge5" class="edge"><title>Node5&#45;&gt;Node3</title>
<path fill="none" stroke="midnightblue" d="M429.786,-145.589C453.258,-150.671 482.281,-156.955 507.058,-162.32"/>
<polygon fill="midnightblue" stroke="midnightblue" points="506.518,-165.784 517.032,-164.48 508,-158.943 506.518,-165.784"/>
</g>
<!-- Node6 -->
<g id="node6" class="node"><title>Node6</title>
<g id="a_node6"><a xlink:href="../../d3/ded/classprolog_1_1terms_1_1Term_a866b2cca50e77e99b560578b2fa3a91a.html#a866b2cca50e77e99b560578b2fa3a91a" target="_top" xlink:title="Unify dereferenced. ">
<polygon fill="none" stroke="black" points="495,-126.5 495,-145.5 629,-145.5 629,-126.5 495,-126.5"/>
<text text-anchor="middle" x="562" y="-133.5" font-family="Helvetica,sans-Serif" font-size="10.00">prolog.terms.Term.unify_to</text>
</a>
</g>
</g>
<!-- Node5&#45;&gt;Node6 -->
<g id="edge6" class="edge"><title>Node5&#45;&gt;Node6</title>
<path fill="none" stroke="midnightblue" d="M444.916,-136C457.674,-136 471.327,-136 484.626,-136"/>
<polygon fill="midnightblue" stroke="midnightblue" points="484.706,-139.5 494.706,-136 484.706,-132.5 484.706,-139.5"/>
</g>
<!-- Node9 -->
<g id="node9" class="node"><title>Node9</title>
<g id="a_node9"><a xlink:href="../../d3/ded/classprolog_1_1terms_1_1Term_a3dae9908b121dbd8d0f95f058c1a4e63.html#a3dae9908b121dbd8d0f95f058c1a4e63" target="_top" xlink:title="prolog.terms.Term.string\lToChars">
<polygon fill="none" stroke="black" points="323,-39 323,-69 446,-69 446,-39 323,-39"/>
<text text-anchor="start" x="331" y="-57" font-family="Helvetica,sans-Serif" font-size="10.00">prolog.terms.Term.string</text>
<text text-anchor="middle" x="384.5" y="-46" font-family="Helvetica,sans-Serif" font-size="10.00">ToChars</text>
</a>
</g>
</g>
<!-- Node8&#45;&gt;Node9 -->
<g id="edge9" class="edge"><title>Node8&#45;&gt;Node9</title>
<path fill="none" stroke="midnightblue" d="M274.349,-54C286.91,-54 300.094,-54 312.784,-54"/>
<polygon fill="midnightblue" stroke="midnightblue" points="312.834,-57.5001 322.834,-54 312.834,-50.5001 312.834,-57.5001"/>
</g>
<!-- Node10 -->
<g id="node10" class="node"><title>Node10</title>
<g id="a_node10"><a xlink:href="../../d3/ded/classprolog_1_1terms_1_1Term_ad0dfa6b55c89214714125c00533f19db.html#ad0dfa6b55c89214714125c00533f19db" target="_top" xlink:title="prolog.terms.Term.toUnquoted">
<polygon fill="none" stroke="black" points="310,-0.5 310,-19.5 459,-19.5 459,-0.5 310,-0.5"/>
<text text-anchor="middle" x="384.5" y="-7.5" font-family="Helvetica,sans-Serif" font-size="10.00">prolog.terms.Term.toUnquoted</text>
</a>
</g>
</g>
<!-- Node8&#45;&gt;Node10 -->
<g id="edge10" class="edge"><title>Node8&#45;&gt;Node10</title>
<path fill="none" stroke="midnightblue" d="M246.081,-44.4527C272.298,-37.8796 307.336,-29.0952 335.47,-22.0417"/>
<polygon fill="midnightblue" stroke="midnightblue" points="336.645,-25.3556 345.493,-19.5287 334.942,-18.5657 336.645,-25.3556"/>
</g>
<!-- Node11 -->
<g id="node11" class="node"><title>Node11</title>
<g id="a_node11"><a xlink:href="../../d3/ded/classprolog_1_1terms_1_1Term_af1569a19ab5774ae5658b74cbacdbc11.html#af1569a19ab5774ae5658b74cbacdbc11" target="_top" xlink:title="Prints out a term to a String with variables named in order V1, V2,.... ">
<polygon fill="none" stroke="black" points="500.5,-0.5 500.5,-19.5 623.5,-19.5 623.5,-0.5 500.5,-0.5"/>
<text text-anchor="middle" x="562" y="-7.5" font-family="Helvetica,sans-Serif" font-size="10.00">prolog.terms.Term.pprint</text>
</a>
</g>
</g>
<!-- Node10&#45;&gt;Node11 -->
<g id="edge11" class="edge"><title>Node10&#45;&gt;Node11</title>
<path fill="none" stroke="midnightblue" d="M459.165,-10C469.436,-10 479.972,-10 490.19,-10"/>
<polygon fill="midnightblue" stroke="midnightblue" points="490.279,-13.5001 500.279,-10 490.279,-6.5001 490.279,-13.5001"/>
</g>
<!-- Node12 -->
<g id="node12" class="node"><title>Node12</title>
<g id="a_node12"><a xlink:href="../../d3/ded/classprolog_1_1terms_1_1Term_a50d0b69d48782ff4bcf433c70c1472a0.html#a50d0b69d48782ff4bcf433c70c1472a0" target="_top" xlink:title="Replaces variables with uppercase constants named `V1&#39;, &#39;V2&#39;, etc. ">
<polygon fill="none" stroke="black" points="665,-0.5 665,-19.5 815,-19.5 815,-0.5 665,-0.5"/>
<text text-anchor="middle" x="740" y="-7.5" font-family="Helvetica,sans-Serif" font-size="10.00">prolog.terms.Term.numbervars</text>
</a>
</g>
</g>
<!-- Node11&#45;&gt;Node12 -->
<g id="edge12" class="edge"><title>Node11&#45;&gt;Node12</title>
<path fill="none" stroke="midnightblue" d="M623.569,-10C633.666,-10 644.299,-10 654.858,-10"/>
<polygon fill="midnightblue" stroke="midnightblue" points="654.938,-13.5001 664.938,-10 654.938,-6.5001 654.938,-13.5001"/>
</g>
<!-- Node13 -->
<g id="node13" class="node"><title>Node13</title>
<g id="a_node13"><a xlink:href="../../d3/ded/classprolog_1_1terms_1_1Term_a01e5a83e648ee3f89415c0142c4220d4.html#a01e5a83e648ee3f89415c0142c4220d4" target="_top" xlink:title="Returns a copy of a term with variables standardized apart (`fresh variables&#39;). ">
<polygon fill="none" stroke="black" points="851,-19.5 851,-38.5 971,-38.5 971,-19.5 851,-19.5"/>
<text text-anchor="middle" x="911" y="-26.5" font-family="Helvetica,sans-Serif" font-size="10.00">prolog.terms.Term.copy</text>
</a>
</g>
</g>
<!-- Node12&#45;&gt;Node13 -->
<g id="edge13" class="edge"><title>Node12&#45;&gt;Node13</title>
<path fill="none" stroke="midnightblue" d="M815.126,-18.3337C823.638,-19.2906 832.292,-20.2636 840.737,-21.213"/>
<polygon fill="midnightblue" stroke="midnightblue" points="840.581,-24.7175 850.91,-22.3567 841.363,-17.7613 840.581,-24.7175"/>
</g>
<!-- Node14 -->
<g id="node14" class="node"><title>Node14</title>
<g id="a_node14"><a xlink:href="../../d3/ded/classprolog_1_1terms_1_1Term_a0a660e6cd55f12e49d328e1b84b478a4.html#a0a660e6cd55f12e49d328e1b84b478a4" target="_top" xlink:title="Defines the reaction to an agent recursing over the structure of a term. ">
<polygon fill="none" stroke="black" points="1007,-0.5 1007,-19.5 1141,-19.5 1141,-0.5 1007,-0.5"/>
<text text-anchor="middle" x="1074" y="-7.5" font-family="Helvetica,sans-Serif" font-size="10.00">prolog.terms.Term.reaction</text>
</a>
</g>
</g>
<!-- Node12&#45;&gt;Node14 -->
<g id="edge16" class="edge"><title>Node12&#45;&gt;Node14</title>
<path fill="none" stroke="midnightblue" d="M815.094,-10C869.045,-10 941.909,-10 996.428,-10"/>
<polygon fill="midnightblue" stroke="midnightblue" points="996.731,-13.5001 1006.73,-10 996.731,-6.5001 996.731,-13.5001"/>
</g>
<!-- Node13&#45;&gt;Node14 -->
<g id="edge14" class="edge"><title>Node13&#45;&gt;Node14</title>
<path fill="none" stroke="midnightblue" d="M971.036,-22.033C979.422,-21.0434 988.143,-20.0142 996.797,-18.9929"/>
<polygon fill="midnightblue" stroke="midnightblue" points="997.381,-22.4484 1006.9,-17.8004 996.56,-15.4966 997.381,-22.4484"/>
</g>
<!-- Node15 -->
<g id="node15" class="node"><title>Node15</title>
<g id="a_node15"><a xlink:href="../../d3/ded/classprolog_1_1terms_1_1Term_aa52e271c0f6784dbde9aa4f5f3ab0268.html#aa52e271c0f6784dbde9aa4f5f3ab0268" target="_top" xlink:title="Identity action. ">
<polygon fill="none" stroke="black" points="1177,-0.5 1177,-19.5 1302,-19.5 1302,-0.5 1177,-0.5"/>
<text text-anchor="middle" x="1239.5" y="-7.5" font-family="Helvetica,sans-Serif" font-size="10.00">prolog.terms.Term.action</text>
</a>
</g>
</g>
<!-- Node14&#45;&gt;Node15 -->
<g id="edge15" class="edge"><title>Node14&#45;&gt;Node15</title>
<path fill="none" stroke="midnightblue" d="M1141.03,-10C1149.57,-10 1158.34,-10 1166.96,-10"/>
<polygon fill="midnightblue" stroke="midnightblue" points="1166.98,-13.5001 1176.98,-10 1166.98,-6.5001 1166.98,-13.5001"/>
</g>
</g>
</svg>
        <g id="navigator" transform="translate(0 0)" fill="#404254">
                <rect fill="#f2f5e9" fill-opacity="0.5" stroke="#606060" stroke-width=".5" x="0" y="0" width="60" height="60"/>
                <use id="zoomplus" xlink:href="#zoomPlus" x="17" y="9" onmousedown="handleZoom(evt,'in')"/>
                <use id="zoomminus" xlink:href="#zoomMin" x="42" y="9" onmousedown="handleZoom(evt,'out')"/>
                <use id="reset" xlink:href="#resetDef" x="30" y="36" onmousedown="handleReset()"/>
                <g id="arrowUp" xlink:href="#dirArrow" transform="translate(30 24)" onmousedown="handlePan(0,-1)">
                  <use xlink:href="#rim" fill="#404040">
                        <set attributeName="fill" to="#808080" begin="arrowUp.mouseover" end="arrowUp.mouseout"/>
                  </use>
                  <path fill="none" stroke="white" stroke-width="1.5" d="M0,-3.0v7 M-2.5,-0.5L0,-3.0L2.5,-0.5"/>
                </g>
                <g id="arrowRight" xlink:href="#dirArrow" transform="rotate(90) translate(36 -43)" onmousedown="handlePan(1,0)">
                  <use xlink:href="#rim" fill="#404040">
                        <set attributeName="fill" to="#808080" begin="arrowRight.mouseover" end="arrowRight.mouseout"/>
                  </use>
                  <path fill="none" stroke="white" stroke-width="1.5" d="M0,-3.0v7 M-2.5,-0.5L0,-3.0L2.5,-0.5"/>
                </g>
                <g id="arrowDown" xlink:href="#dirArrow" transform="rotate(180) translate(-30 -48)" onmousedown="handlePan(0,1)">
                  <use xlink:href="#rim" fill="#404040">
                        <set attributeName="fill" to="#808080" begin="arrowDown.mouseover" end="arrowDown.mouseout"/>
                  </use>
                  <path fill="none" stroke="white" stroke-width="1.5" d="M0,-3.0v7 M-2.5,-0.5L0,-3.0L2.5,-0.5"/>
                </g>
                <g id="arrowLeft" xlink:href="#dirArrow" transform="rotate(270) translate(-36 17)" onmousedown="handlePan(-1,0)">
                  <use xlink:href="#rim" fill="#404040">
                        <set attributeName="fill" to="#808080" begin="arrowLeft.mouseover" end="arrowLeft.mouseout"/>
                  </use>
                  <path fill="none" stroke="white" stroke-width="1.5" d="M0,-3.0v7 M-2.5,-0.5L0,-3.0L2.5,-0.5"/>
                </g>
        </g>
        <svg viewBox="0 0 15 15" width="100%" height="30px" preserveAspectRatio="xMaxYMin meet">
         <g id="arrow_out" transform="scale(0.3 0.3)">
          <a xlink:href="classprolog_1_1builtins_1_1name__to__chars_a7e21a55985c27994587765755c2d3744_a7e21a55985c27994587765755c2d3744_cgraph_org.svg" target="_base">
           <rect id="button" ry="5" rx="5" y="6" x="6" height="38" width="38"
                fill="#f2f5e9" fill-opacity="0.5" stroke="#606060" stroke-width="1.0"/>
           <path id="arrow"
             d="M 11.500037,31.436501 C 11.940474,20.09759 22.043105,11.32322 32.158766,21.979434 L 37.068811,17.246167 C 37.068811,17.246167 37.088388,32 37.088388,32 L 22.160133,31.978069 C 22.160133,31.978069 26.997745,27.140456 26.997745,27.140456 C 18.528582,18.264221 13.291696,25.230495 11.500037,31.436501 z"
             style="fill:#404040;"/>
          </a>
         </g>
        </svg>
</svg>
