<?xml version="1.0" encoding="UTF-8" standalone="no"?>
<!DOCTYPE svg PUBLIC "-//W3C//DTD SVG 1.1//EN"
 "http://www.w3.org/Graphics/SVG/1.1/DTD/svg11.dtd">
<!-- Generated by graphviz version 2.38.0 (20140413.2041)
 -->
<!-- Title: prolog.fluents.BBoardEnumerator Pages: 1 -->
<svg width="169pt" height="215pt"
 viewBox="0.00 0.00 169.00 215.00" xmlns="http://www.w3.org/2000/svg" xmlns:xlink="http://www.w3.org/1999/xlink">
<g id="graph0" class="graph" transform="scale(1 1) rotate(0) translate(4 211)">
<title>prolog.fluents.BBoardEnumerator</title>
<!-- Node1 -->
<g id="node1" class="node"><title>Node1</title>
<polygon fill="#bfbfbf" stroke="black" points="0,-0.5 0,-90.5 161,-90.5 161,-0.5 0,-0.5"/>
<text text-anchor="middle" x="80.5" y="-78.5" font-family="Helvetica,sans-Serif" font-size="10.00">prolog.fluents.BBoardEnumerator</text>
<polyline fill="none" stroke="black" points="0,-71.5 161,-71.5 "/>
<text text-anchor="middle" x="80.5" y="-59.5" font-family="Helvetica,sans-Serif" font-size="10.00"> </text>
<polyline fill="none" stroke="black" points="0,-52.5 161,-52.5 "/>
<text text-anchor="start" x="8" y="-40.5" font-family="Helvetica,sans-Serif" font-size="10.00">+ hasNext()</text>
<text text-anchor="start" x="8" y="-29.5" font-family="Helvetica,sans-Serif" font-size="10.00">+ next()</text>
<text text-anchor="start" x="8" y="-18.5" font-family="Helvetica,sans-Serif" font-size="10.00">+ remove()</text>
<text text-anchor="start" x="8" y="-7.5" font-family="Helvetica,sans-Serif" font-size="10.00">~ BBoardEnumerator()</text>
</g>
<!-- Node2 -->
<g id="node2" class="node"><title>Node2</title>
<polygon fill="none" stroke="#bfbfbf" points="57,-149.5 57,-206.5 104,-206.5 104,-149.5 57,-149.5"/>
<text text-anchor="middle" x="80.5" y="-194.5" font-family="Helvetica,sans-Serif" font-size="10.00">Iterator</text>
<polyline fill="none" stroke="#bfbfbf" points="57,-187.5 104,-187.5 "/>
<text text-anchor="middle" x="80.5" y="-175.5" font-family="Helvetica,sans-Serif" font-size="10.00"> </text>
<polyline fill="none" stroke="#bfbfbf" points="57,-168.5 104,-168.5 "/>
<text text-anchor="middle" x="80.5" y="-156.5" font-family="Helvetica,sans-Serif" font-size="10.00"> </text>
</g>
<!-- Node2&#45;&gt;Node1 -->
<g id="edge1" class="edge"><title>Node2&#45;&gt;Node1</title>
<path fill="none" stroke="midnightblue" d="M78.7259,-139.232C78.6355,-136.447 78.5582,-133.68 78.5,-131 78.2163,-117.943 78.3716,-103.752 78.6949,-90.7927"/>
<polygon fill="none" stroke="midnightblue" points="75.2301,-139.413 79.0996,-149.276 82.2252,-139.153 75.2301,-139.413"/>
</g>
<!-- Node2&#45;&gt;Node1 -->
<g id="edge2" class="edge"><title>Node2&#45;&gt;Node1</title>
<path fill="none" stroke="#404040" d="M80.5,-149.324C80.5,-135.731 80.5,-118.837 80.5,-102.696"/>
<polygon fill="none" stroke="#404040" points="80.5001,-102.568 76.5,-96.5677 80.5,-90.5676 84.5,-96.5676 80.5001,-102.568"/>
<text text-anchor="middle" x="91" y="-123" font-family="Helvetica,sans-Serif" font-size="10.00"> &#45;EQ</text>
<text text-anchor="middle" x="91" y="-112" font-family="Helvetica,sans-Serif" font-size="10.00">&#45;EH</text>
</g>
</g>
</svg>
