<?xml version="1.0" encoding="UTF-8" standalone="no"?>
<!DOCTYPE svg PUBLIC "-//W3C//DTD SVG 1.1//EN"
 "http://www.w3.org/Graphics/SVG/1.1/DTD/svg11.dtd">
<!-- Generated by graphviz version 2.38.0 (20140413.2041)
 -->
<!-- Title: prolog.io.ClauseReader Pages: 1 -->
<svg width="445pt" height="1620pt"
 viewBox="0.00 0.00 444.50 1620.00" xmlns="http://www.w3.org/2000/svg" xmlns:xlink="http://www.w3.org/1999/xlink">
<g id="graph0" class="graph" transform="scale(1 1) rotate(0) translate(4 1616)">
<title>prolog.io.ClauseReader</title>
<!-- Node1 -->
<g id="node1" class="node"><title>Node1</title>
<polygon fill="#bfbfbf" stroke="black" points="144.5,-0.5 144.5,-134.5 263.5,-134.5 263.5,-0.5 144.5,-0.5"/>
<text text-anchor="middle" x="204" y="-122.5" font-family="Helvetica,sans-Serif" font-size="10.00">prolog.io.ClauseReader</text>
<polyline fill="none" stroke="black" points="144.5,-115.5 263.5,-115.5 "/>
<text text-anchor="middle" x="204" y="-103.5" font-family="Helvetica,sans-Serif" font-size="10.00"> </text>
<polyline fill="none" stroke="black" points="144.5,-96.5 263.5,-96.5 "/>
<text text-anchor="start" x="152.5" y="-84.5" font-family="Helvetica,sans-Serif" font-size="10.00">+ ClauseReader()</text>
<text text-anchor="start" x="152.5" y="-73.5" font-family="Helvetica,sans-Serif" font-size="10.00">+ ClauseReader()</text>
<text text-anchor="start" x="152.5" y="-62.5" font-family="Helvetica,sans-Serif" font-size="10.00">+ ClauseReader()</text>
<text text-anchor="start" x="152.5" y="-51.5" font-family="Helvetica,sans-Serif" font-size="10.00">+ ClauseReader()</text>
<text text-anchor="start" x="152.5" y="-40.5" font-family="Helvetica,sans-Serif" font-size="10.00">+ getElement()</text>
<text text-anchor="start" x="152.5" y="-29.5" font-family="Helvetica,sans-Serif" font-size="10.00">+ stop()</text>
<text text-anchor="start" x="152.5" y="-18.5" font-family="Helvetica,sans-Serif" font-size="10.00">~ make_parser()</text>
<text text-anchor="start" x="152.5" y="-7.5" font-family="Helvetica,sans-Serif" font-size="10.00">~ extract_info()</text>
</g>
<!-- Node2 -->
<g id="node2" class="node"><title>Node2</title>
<g id="a_node2"><a xlink:href="../../d5/db0/classprolog_1_1io_1_1CharReader.html" target="_top" xlink:title="Builds Fluents from Java Streams. ">
<polygon fill="none" stroke="black" points="74.5,-237.5 74.5,-360.5 183.5,-360.5 183.5,-237.5 74.5,-237.5"/>
<text text-anchor="middle" x="129" y="-348.5" font-family="Helvetica,sans-Serif" font-size="10.00">prolog.io.CharReader</text>
<polyline fill="none" stroke="black" points="74.5,-341.5 183.5,-341.5 "/>
<text text-anchor="middle" x="129" y="-329.5" font-family="Helvetica,sans-Serif" font-size="10.00"> </text>
<polyline fill="none" stroke="black" points="74.5,-322.5 183.5,-322.5 "/>
<text text-anchor="start" x="82.5" y="-310.5" font-family="Helvetica,sans-Serif" font-size="10.00">+ CharReader()</text>
<text text-anchor="start" x="82.5" y="-299.5" font-family="Helvetica,sans-Serif" font-size="10.00">+ CharReader()</text>
<text text-anchor="start" x="82.5" y="-288.5" font-family="Helvetica,sans-Serif" font-size="10.00">+ CharReader()</text>
<text text-anchor="start" x="82.5" y="-277.5" font-family="Helvetica,sans-Serif" font-size="10.00">+ CharReader()</text>
<text text-anchor="start" x="82.5" y="-266.5" font-family="Helvetica,sans-Serif" font-size="10.00">+ getElement()</text>
<text text-anchor="start" x="82.5" y="-255.5" font-family="Helvetica,sans-Serif" font-size="10.00">+ stop()</text>
<text text-anchor="start" x="82.5" y="-244.5" font-family="Helvetica,sans-Serif" font-size="10.00"># makeReader()</text>
</a>
</g>
</g>
<!-- Node2&#45;&gt;Node1 -->
<g id="edge1" class="edge"><title>Node2&#45;&gt;Node1</title>
<path fill="none" stroke="midnightblue" d="M152.018,-227.565C161.681,-197.995 172.861,-163.787 182.37,-134.687"/>
<polygon fill="none" stroke="midnightblue" points="148.583,-226.809 148.803,-237.401 155.237,-228.983 148.583,-226.809"/>
</g>
<!-- Node3 -->
<g id="node3" class="node"><title>Node3</title>
<g id="a_node3"><a xlink:href="../../d2/d07/classprolog_1_1terms_1_1Source.html" target="_top" xlink:title="{prolog.terms.Source\n||+ Source()\l+ getElement()\l+ toList()\l+ toFun()\l}">
<polygon fill="none" stroke="black" points="16,-525 16,-615 120,-615 120,-525 16,-525"/>
<text text-anchor="middle" x="68" y="-603" font-family="Helvetica,sans-Serif" font-size="10.00">prolog.terms.Source</text>
<polyline fill="none" stroke="black" points="16,-596 120,-596 "/>
<text text-anchor="middle" x="68" y="-584" font-family="Helvetica,sans-Serif" font-size="10.00"> </text>
<polyline fill="none" stroke="black" points="16,-577 120,-577 "/>
<text text-anchor="start" x="24" y="-565" font-family="Helvetica,sans-Serif" font-size="10.00">+ Source()</text>
<text text-anchor="start" x="24" y="-554" font-family="Helvetica,sans-Serif" font-size="10.00">+ getElement()</text>
<text text-anchor="start" x="24" y="-543" font-family="Helvetica,sans-Serif" font-size="10.00">+ toList()</text>
<text text-anchor="start" x="24" y="-532" font-family="Helvetica,sans-Serif" font-size="10.00">+ toFun()</text>
</a>
</g>
</g>
<!-- Node3&#45;&gt;Node2 -->
<g id="edge2" class="edge"><title>Node3&#45;&gt;Node2</title>
<path fill="none" stroke="midnightblue" d="M80.2234,-515.097C90.3395,-470.486 104.705,-407.135 115.227,-360.738"/>
<polygon fill="none" stroke="midnightblue" points="76.8029,-514.355 78.0046,-524.881 83.6295,-515.903 76.8029,-514.355"/>
</g>
<!-- Node4 -->
<g id="node4" class="node"><title>Node4</title>
<g id="a_node4"><a xlink:href="../../d9/d3b/classprolog_1_1terms_1_1Fluent.html" target="_top" xlink:title="A Fluent is a Prolog Object which has its own state, subject to changes over time. ">
<polygon fill="none" stroke="black" points="17.5,-734.5 17.5,-846.5 118.5,-846.5 118.5,-734.5 17.5,-734.5"/>
<text text-anchor="middle" x="68" y="-834.5" font-family="Helvetica,sans-Serif" font-size="10.00">prolog.terms.Fluent</text>
<polyline fill="none" stroke="black" points="17.5,-827.5 118.5,-827.5 "/>
<text text-anchor="start" x="25.5" y="-815.5" font-family="Helvetica,sans-Serif" font-size="10.00">&#45; persistent</text>
<polyline fill="none" stroke="black" points="17.5,-808.5 118.5,-808.5 "/>
<text text-anchor="start" x="25.5" y="-796.5" font-family="Helvetica,sans-Serif" font-size="10.00">+ Fluent()</text>
<text text-anchor="start" x="25.5" y="-785.5" font-family="Helvetica,sans-Serif" font-size="10.00">+ setPersistent()</text>
<text text-anchor="start" x="25.5" y="-774.5" font-family="Helvetica,sans-Serif" font-size="10.00">+ getPersistent()</text>
<text text-anchor="start" x="25.5" y="-763.5" font-family="Helvetica,sans-Serif" font-size="10.00">+ stop()</text>
<text text-anchor="start" x="25.5" y="-752.5" font-family="Helvetica,sans-Serif" font-size="10.00"># trailMe()</text>
<text text-anchor="start" x="25.5" y="-741.5" font-family="Helvetica,sans-Serif" font-size="10.00"># undo()</text>
</a>
</g>
</g>
<!-- Node4&#45;&gt;Node3 -->
<g id="edge3" class="edge"><title>Node4&#45;&gt;Node3</title>
<path fill="none" stroke="midnightblue" d="M68,-724.164C68,-688.942 68,-646.415 68,-615.118"/>
<polygon fill="none" stroke="midnightblue" points="64.5001,-724.363 68,-734.363 71.5001,-724.363 64.5001,-724.363"/>
</g>
<!-- Node5 -->
<g id="node5" class="node"><title>Node5</title>
<g id="a_node5"><a xlink:href="../../d6/dc1/classprolog_1_1terms_1_1SystemObject.html" target="_top" xlink:title="A SystemObject is a Nonvar with system assigned name. ">
<polygon fill="none" stroke="black" points="0,-884.5 0,-996.5 136,-996.5 136,-884.5 0,-884.5"/>
<text text-anchor="middle" x="68" y="-984.5" font-family="Helvetica,sans-Serif" font-size="10.00">prolog.terms.SystemObject</text>
<polyline fill="none" stroke="black" points="0,-977.5 136,-977.5 "/>
<text text-anchor="start" x="8" y="-965.5" font-family="Helvetica,sans-Serif" font-size="10.00">~ ctr</text>
<text text-anchor="start" x="8" y="-954.5" font-family="Helvetica,sans-Serif" font-size="10.00">&#45; ordinal</text>
<polyline fill="none" stroke="black" points="0,-947.5 136,-947.5 "/>
<text text-anchor="start" x="8" y="-935.5" font-family="Helvetica,sans-Serif" font-size="10.00">+ SystemObject()</text>
<text text-anchor="start" x="8" y="-924.5" font-family="Helvetica,sans-Serif" font-size="10.00">+ name()</text>
<text text-anchor="start" x="8" y="-913.5" font-family="Helvetica,sans-Serif" font-size="10.00">+ toString()</text>
<text text-anchor="start" x="8" y="-902.5" font-family="Helvetica,sans-Serif" font-size="10.00">+ getArity()</text>
<text text-anchor="start" x="8" y="-891.5" font-family="Helvetica,sans-Serif" font-size="10.00">~ bind_to()</text>
</a>
</g>
</g>
<!-- Node5&#45;&gt;Node4 -->
<g id="edge4" class="edge"><title>Node5&#45;&gt;Node4</title>
<path fill="none" stroke="midnightblue" d="M68,-874.14C68,-864.967 68,-855.614 68,-846.656"/>
<polygon fill="none" stroke="midnightblue" points="64.5001,-874.39 68,-884.39 71.5001,-874.39 64.5001,-874.39"/>
</g>
<!-- Node6 -->
<g id="node6" class="node"><title>Node6</title>
<g id="a_node6"><a xlink:href="../../d4/de0/classprolog_1_1terms_1_1Nonvar.html" target="_top" xlink:title="Part of the Prolog Term hierarchy. ">
<polygon fill="none" stroke="black" points="15.5,-1034.5 15.5,-1124.5 120.5,-1124.5 120.5,-1034.5 15.5,-1034.5"/>
<text text-anchor="middle" x="68" y="-1112.5" font-family="Helvetica,sans-Serif" font-size="10.00">prolog.terms.Nonvar</text>
<polyline fill="none" stroke="black" points="15.5,-1105.5 120.5,-1105.5 "/>
<text text-anchor="middle" x="68" y="-1093.5" font-family="Helvetica,sans-Serif" font-size="10.00"> </text>
<polyline fill="none" stroke="black" points="15.5,-1086.5 120.5,-1086.5 "/>
<text text-anchor="start" x="23.5" y="-1074.5" font-family="Helvetica,sans-Serif" font-size="10.00">+ name()</text>
<text text-anchor="start" x="23.5" y="-1063.5" font-family="Helvetica,sans-Serif" font-size="10.00">~ bind_to()</text>
<text text-anchor="start" x="23.5" y="-1052.5" font-family="Helvetica,sans-Serif" font-size="10.00">~ unify_to()</text>
<text text-anchor="start" x="23.5" y="-1041.5" font-family="Helvetica,sans-Serif" font-size="10.00">~ listify()</text>
</a>
</g>
</g>
<!-- Node6&#45;&gt;Node5 -->
<g id="edge5" class="edge"><title>Node6&#45;&gt;Node5</title>
<path fill="none" stroke="midnightblue" d="M68,-1024.29C68,-1015.18 68,-1005.71 68,-996.572"/>
<polygon fill="none" stroke="midnightblue" points="64.5001,-1024.4 68,-1034.4 71.5001,-1024.4 64.5001,-1024.4"/>
</g>
<!-- Node7 -->
<g id="node7" class="node"><title>Node7</title>
<g id="a_node7"><a xlink:href="../../d3/ded/classprolog_1_1terms_1_1Term.html" target="_top" xlink:title="Top element of the Prolog term hierarchy. ">
<polygon fill="none" stroke="black" points="19,-1162.5 19,-1516.5 117,-1516.5 117,-1162.5 19,-1162.5"/>
<text text-anchor="middle" x="68" y="-1504.5" font-family="Helvetica,sans-Serif" font-size="10.00">prolog.terms.Term</text>
<polyline fill="none" stroke="black" points="19,-1497.5 117,-1497.5 "/>
<text text-anchor="start" x="27" y="-1485.5" font-family="Helvetica,sans-Serif" font-size="10.00">+ JAVA</text>
<text text-anchor="start" x="27" y="-1474.5" font-family="Helvetica,sans-Serif" font-size="10.00">+ REAL</text>
<text text-anchor="start" x="27" y="-1463.5" font-family="Helvetica,sans-Serif" font-size="10.00">+ INT</text>
<text text-anchor="start" x="27" y="-1452.5" font-family="Helvetica,sans-Serif" font-size="10.00">+ VAR</text>
<text text-anchor="start" x="27" y="-1441.5" font-family="Helvetica,sans-Serif" font-size="10.00">+ CONST</text>
<polyline fill="none" stroke="black" points="19,-1434.5 117,-1434.5 "/>
<text text-anchor="start" x="27" y="-1422.5" font-family="Helvetica,sans-Serif" font-size="10.00">+ getArity()</text>
<text text-anchor="start" x="27" y="-1411.5" font-family="Helvetica,sans-Serif" font-size="10.00">+ ref()</text>
<text text-anchor="start" x="27" y="-1400.5" font-family="Helvetica,sans-Serif" font-size="10.00">+ token()</text>
<text text-anchor="start" x="27" y="-1389.5" font-family="Helvetica,sans-Serif" font-size="10.00">+ toClause()</text>
<text text-anchor="start" x="27" y="-1378.5" font-family="Helvetica,sans-Serif" font-size="10.00">+ matches()</text>
<text text-anchor="start" x="27" y="-1367.5" font-family="Helvetica,sans-Serif" font-size="10.00">+ matches()</text>
<text text-anchor="start" x="27" y="-1356.5" font-family="Helvetica,sans-Serif" font-size="10.00">+ matching_copy()</text>
<text text-anchor="start" x="27" y="-1345.5" font-family="Helvetica,sans-Serif" font-size="10.00">+ copy()</text>
<text text-anchor="start" x="27" y="-1334.5" font-family="Helvetica,sans-Serif" font-size="10.00">+ varsOf()</text>
<text text-anchor="start" x="27" y="-1323.5" font-family="Helvetica,sans-Serif" font-size="10.00">+ numbervars()</text>
<text text-anchor="start" x="27" y="-1312.5" font-family="Helvetica,sans-Serif" font-size="10.00">and 6 more...</text>
<text text-anchor="start" x="27" y="-1301.5" font-family="Helvetica,sans-Serif" font-size="10.00">+ fromString()</text>
<text text-anchor="start" x="27" y="-1290.5" font-family="Helvetica,sans-Serif" font-size="10.00">+ charsToString()</text>
<text text-anchor="start" x="27" y="-1279.5" font-family="Helvetica,sans-Serif" font-size="10.00">~ bind_to()</text>
<text text-anchor="start" x="27" y="-1268.5" font-family="Helvetica,sans-Serif" font-size="10.00">~ unify_to()</text>
<text text-anchor="start" x="27" y="-1257.5" font-family="Helvetica,sans-Serif" font-size="10.00">~ toTerm()</text>
<text text-anchor="start" x="27" y="-1246.5" font-family="Helvetica,sans-Serif" font-size="10.00">~ isClause()</text>
<text text-anchor="start" x="27" y="-1235.5" font-family="Helvetica,sans-Serif" font-size="10.00">~ reaction()</text>
<text text-anchor="start" x="27" y="-1224.5" font-family="Helvetica,sans-Serif" font-size="10.00">~ action()</text>
<text text-anchor="start" x="27" y="-1213.5" font-family="Helvetica,sans-Serif" font-size="10.00">~ exec()</text>
<text text-anchor="start" x="27" y="-1202.5" font-family="Helvetica,sans-Serif" font-size="10.00">~ stringToChars()</text>
<text text-anchor="start" x="27" y="-1191.5" font-family="Helvetica,sans-Serif" font-size="10.00"># unify()</text>
<text text-anchor="start" x="27" y="-1180.5" font-family="Helvetica,sans-Serif" font-size="10.00"># undo()</text>
<text text-anchor="start" x="27" y="-1169.5" font-family="Helvetica,sans-Serif" font-size="10.00"># exec()</text>
</a>
</g>
</g>
<!-- Node7&#45;&gt;Node6 -->
<g id="edge6" class="edge"><title>Node7&#45;&gt;Node6</title>
<path fill="none" stroke="midnightblue" d="M68,-1152.38C68,-1142.46 68,-1133.1 68,-1124.62"/>
<polygon fill="none" stroke="midnightblue" points="64.5001,-1152.49 68,-1162.49 71.5001,-1152.49 64.5001,-1152.49"/>
</g>
<!-- Node8 -->
<g id="node8" class="node"><title>Node8</title>
<polygon fill="none" stroke="#bfbfbf" points="10.5,-1554.5 10.5,-1611.5 55.5,-1611.5 55.5,-1554.5 10.5,-1554.5"/>
<text text-anchor="middle" x="33" y="-1599.5" font-family="Helvetica,sans-Serif" font-size="10.00">Object</text>
<polyline fill="none" stroke="#bfbfbf" points="10.5,-1592.5 55.5,-1592.5 "/>
<text text-anchor="middle" x="33" y="-1580.5" font-family="Helvetica,sans-Serif" font-size="10.00"> </text>
<polyline fill="none" stroke="#bfbfbf" points="10.5,-1573.5 55.5,-1573.5 "/>
<text text-anchor="middle" x="33" y="-1561.5" font-family="Helvetica,sans-Serif" font-size="10.00"> </text>
</g>
<!-- Node8&#45;&gt;Node7 -->
<g id="edge7" class="edge"><title>Node8&#45;&gt;Node7</title>
<path fill="none" stroke="midnightblue" d="M38.4619,-1544.31C39.6703,-1535.97 41.0272,-1526.61 42.478,-1516.6"/>
<polygon fill="none" stroke="midnightblue" points="34.9855,-1543.9 37.0149,-1554.3 41.9131,-1544.9 34.9855,-1543.9"/>
</g>
<!-- Node9 -->
<g id="node9" class="node"><title>Node9</title>
<polygon fill="none" stroke="#bfbfbf" points="74,-1554.5 74,-1611.5 134,-1611.5 134,-1554.5 74,-1554.5"/>
<text text-anchor="middle" x="104" y="-1599.5" font-family="Helvetica,sans-Serif" font-size="10.00">Cloneable</text>
<polyline fill="none" stroke="#bfbfbf" points="74,-1592.5 134,-1592.5 "/>
<text text-anchor="middle" x="104" y="-1580.5" font-family="Helvetica,sans-Serif" font-size="10.00"> </text>
<polyline fill="none" stroke="#bfbfbf" points="74,-1573.5 134,-1573.5 "/>
<text text-anchor="middle" x="104" y="-1561.5" font-family="Helvetica,sans-Serif" font-size="10.00"> </text>
</g>
<!-- Node9&#45;&gt;Node7 -->
<g id="edge8" class="edge"><title>Node9&#45;&gt;Node7</title>
<path fill="none" stroke="midnightblue" d="M98.382,-1544.31C97.1391,-1535.97 95.7434,-1526.61 94.2512,-1516.6"/>
<polygon fill="none" stroke="midnightblue" points="94.9341,-1544.92 99.8703,-1554.3 101.858,-1543.89 94.9341,-1544.92"/>
</g>
<!-- Node10 -->
<g id="node10" class="node"><title>Node10</title>
<polygon fill="none" stroke="#bfbfbf" points="140,-762 140,-819 188,-819 188,-762 140,-762"/>
<text text-anchor="middle" x="164" y="-807" font-family="Helvetica,sans-Serif" font-size="10.00">Reader</text>
<polyline fill="none" stroke="#bfbfbf" points="140,-800 188,-800 "/>
<text text-anchor="middle" x="164" y="-788" font-family="Helvetica,sans-Serif" font-size="10.00"> </text>
<polyline fill="none" stroke="#bfbfbf" points="140,-781 188,-781 "/>
<text text-anchor="middle" x="164" y="-769" font-family="Helvetica,sans-Serif" font-size="10.00"> </text>
</g>
<!-- Node10&#45;&gt;Node2 -->
<g id="edge9" class="edge"><title>Node10&#45;&gt;Node2</title>
<path fill="none" stroke="#404040" d="M162.018,-761.78C156.714,-687.605 142.067,-482.755 134.184,-372.497"/>
<polygon fill="none" stroke="#404040" points="134.182,-372.477 129.765,-366.778 133.326,-360.507 137.744,-366.207 134.182,-372.477"/>
<text text-anchor="middle" x="175.5" y="-567.5" font-family="Helvetica,sans-Serif" font-size="10.00"> +reader</text>
</g>
<!-- Node12 -->
<g id="node12" class="node"><title>Node12</title>
<g id="a_node12"><a xlink:href="../../d9/d79/classprolog_1_1io_1_1Lexer.html" target="_top" xlink:title="Lexicographic analyser reading from a stream. ">
<polygon fill="none" stroke="black" points="211,-453.5 211,-686.5 301,-686.5 301,-453.5 211,-453.5"/>
<text text-anchor="middle" x="256" y="-674.5" font-family="Helvetica,sans-Serif" font-size="10.00">prolog.io.Lexer</text>
<polyline fill="none" stroke="black" points="211,-667.5 301,-667.5 "/>
<text text-anchor="start" x="219" y="-655.5" font-family="Helvetica,sans-Serif" font-size="10.00">&#45; inClause</text>
<text text-anchor="start" x="219" y="-644.5" font-family="Helvetica,sans-Serif" font-size="10.00">&#45; anonymous</text>
<polyline fill="none" stroke="black" points="211,-637.5 301,-637.5 "/>
<text text-anchor="start" x="219" y="-625.5" font-family="Helvetica,sans-Serif" font-size="10.00">+ Lexer()</text>
<text text-anchor="start" x="219" y="-614.5" font-family="Helvetica,sans-Serif" font-size="10.00">+ Lexer()</text>
<text text-anchor="start" x="219" y="-603.5" font-family="Helvetica,sans-Serif" font-size="10.00">+ Lexer()</text>
<text text-anchor="start" x="219" y="-592.5" font-family="Helvetica,sans-Serif" font-size="10.00">+ Lexer()</text>
<text text-anchor="start" x="219" y="-581.5" font-family="Helvetica,sans-Serif" font-size="10.00">+ atEOF()</text>
<text text-anchor="start" x="219" y="-570.5" font-family="Helvetica,sans-Serif" font-size="10.00">~ atEOC()</text>
<text text-anchor="start" x="219" y="-559.5" font-family="Helvetica,sans-Serif" font-size="10.00"># next()</text>
<text text-anchor="start" x="219" y="-548.5" font-family="Helvetica,sans-Serif" font-size="10.00"># make_const()</text>
<text text-anchor="start" x="219" y="-537.5" font-family="Helvetica,sans-Serif" font-size="10.00">&#45; make_var()</text>
<text text-anchor="start" x="219" y="-526.5" font-family="Helvetica,sans-Serif" font-size="10.00">&#45; wordChar()</text>
<text text-anchor="start" x="219" y="-515.5" font-family="Helvetica,sans-Serif" font-size="10.00">&#45; getWord()</text>
<text text-anchor="start" x="219" y="-504.5" font-family="Helvetica,sans-Serif" font-size="10.00">&#45; char2string()</text>
<text text-anchor="start" x="219" y="-493.5" font-family="Helvetica,sans-Serif" font-size="10.00">&#45; make_fun()</text>
<text text-anchor="start" x="219" y="-482.5" font-family="Helvetica,sans-Serif" font-size="10.00">&#45; make_int()</text>
<text text-anchor="start" x="219" y="-471.5" font-family="Helvetica,sans-Serif" font-size="10.00">&#45; make_real()</text>
<text text-anchor="start" x="219" y="-460.5" font-family="Helvetica,sans-Serif" font-size="10.00">&#45; make_number()</text>
</a>
</g>
</g>
<!-- Node10&#45;&gt;Node12 -->
<g id="edge15" class="edge"><title>Node10&#45;&gt;Node12</title>
<path fill="none" stroke="#404040" d="M175.652,-761.827C183.599,-742.953 194.723,-716.533 206.166,-689.356"/>
<polygon fill="none" stroke="#404040" points="206.25,-689.157 204.892,-682.075 210.906,-678.097 212.265,-685.179 206.25,-689.157"/>
<text text-anchor="middle" x="215" y="-708" font-family="Helvetica,sans-Serif" font-size="10.00"> #input</text>
</g>
<!-- Node11 -->
<g id="node11" class="node"><title>Node11</title>
<g id="a_node11"><a xlink:href="../../d7/df1/classprolog_1_1io_1_1Parser.html" target="_top" xlink:title="Simplified Prolog parser: Synatax supported: a0:&#45;a1,...,an. ">
<polygon fill="none" stroke="black" points="201.5,-182.5 201.5,-415.5 310.5,-415.5 310.5,-182.5 201.5,-182.5"/>
<text text-anchor="middle" x="256" y="-403.5" font-family="Helvetica,sans-Serif" font-size="10.00">prolog.io.Parser</text>
<polyline fill="none" stroke="black" points="201.5,-396.5 310.5,-396.5 "/>
<text text-anchor="middle" x="256" y="-384.5" font-family="Helvetica,sans-Serif" font-size="10.00"> </text>
<polyline fill="none" stroke="black" points="201.5,-377.5 310.5,-377.5 "/>
<text text-anchor="start" x="209.5" y="-365.5" font-family="Helvetica,sans-Serif" font-size="10.00">+ Parser()</text>
<text text-anchor="start" x="209.5" y="-354.5" font-family="Helvetica,sans-Serif" font-size="10.00">+ Parser()</text>
<text text-anchor="start" x="209.5" y="-343.5" font-family="Helvetica,sans-Serif" font-size="10.00">+ Parser()</text>
<text text-anchor="start" x="209.5" y="-332.5" font-family="Helvetica,sans-Serif" font-size="10.00">+ readClause()</text>
<text text-anchor="start" x="209.5" y="-321.5" font-family="Helvetica,sans-Serif" font-size="10.00">+ isError()</text>
<text text-anchor="start" x="209.5" y="-310.5" font-family="Helvetica,sans-Serif" font-size="10.00">+ showError()</text>
<text text-anchor="start" x="209.5" y="-299.5" font-family="Helvetica,sans-Serif" font-size="10.00">+ clsFromString()</text>
<text text-anchor="start" x="209.5" y="-288.5" font-family="Helvetica,sans-Serif" font-size="10.00">~ errorClause()</text>
<text text-anchor="start" x="209.5" y="-277.5" font-family="Helvetica,sans-Serif" font-size="10.00"># getTerm()</text>
<text text-anchor="start" x="209.5" y="-266.5" font-family="Helvetica,sans-Serif" font-size="10.00"># getTerm()</text>
<text text-anchor="start" x="209.5" y="-255.5" font-family="Helvetica,sans-Serif" font-size="10.00"># toClause()</text>
<text text-anchor="start" x="209.5" y="-244.5" font-family="Helvetica,sans-Serif" font-size="10.00">&#45; readClauseOrEOF()</text>
<text text-anchor="start" x="209.5" y="-233.5" font-family="Helvetica,sans-Serif" font-size="10.00">&#45; getConjCont()</text>
<text text-anchor="start" x="209.5" y="-222.5" font-family="Helvetica,sans-Serif" font-size="10.00">&#45; getArgs()</text>
<text text-anchor="start" x="209.5" y="-211.5" font-family="Helvetica,sans-Serif" font-size="10.00">&#45; getList()</text>
<text text-anchor="start" x="209.5" y="-200.5" font-family="Helvetica,sans-Serif" font-size="10.00">&#45; getListCont()</text>
<text text-anchor="start" x="209.5" y="-189.5" font-family="Helvetica,sans-Serif" font-size="10.00">&#45; patchEOFString()</text>
</a>
</g>
</g>
<!-- Node11&#45;&gt;Node1 -->
<g id="edge10" class="edge"><title>Node11&#45;&gt;Node1</title>
<path fill="none" stroke="#404040" d="M229.771,-182.241C227.018,-170.088 224.267,-157.949 221.644,-146.37"/>
<polygon fill="none" stroke="#404040" points="221.613,-146.234 216.386,-141.266 218.961,-134.53 224.188,-139.498 221.613,-146.234"/>
<text text-anchor="middle" x="244" y="-156" font-family="Helvetica,sans-Serif" font-size="10.00"> #parser</text>
</g>
<!-- Node12&#45;&gt;Node11 -->
<g id="edge11" class="edge"><title>Node12&#45;&gt;Node11</title>
<path fill="none" stroke="midnightblue" d="M256,-443.334C256,-434.068 256,-424.745 256,-415.544"/>
<polygon fill="none" stroke="midnightblue" points="252.5,-443.359 256,-453.359 259.5,-443.359 252.5,-443.359"/>
</g>
<!-- Node13 -->
<g id="node13" class="node"><title>Node13</title>
<polygon fill="none" stroke="#bfbfbf" points="208.5,-762 208.5,-819 299.5,-819 299.5,-762 208.5,-762"/>
<text text-anchor="middle" x="254" y="-807" font-family="Helvetica,sans-Serif" font-size="10.00">StreamTokenizer</text>
<polyline fill="none" stroke="#bfbfbf" points="208.5,-800 299.5,-800 "/>
<text text-anchor="middle" x="254" y="-788" font-family="Helvetica,sans-Serif" font-size="10.00"> </text>
<polyline fill="none" stroke="#bfbfbf" points="208.5,-781 299.5,-781 "/>
<text text-anchor="middle" x="254" y="-769" font-family="Helvetica,sans-Serif" font-size="10.00"> </text>
</g>
<!-- Node13&#45;&gt;Node12 -->
<g id="edge12" class="edge"><title>Node13&#45;&gt;Node12</title>
<path fill="none" stroke="midnightblue" d="M254.347,-751.6C254.515,-733.235 254.727,-710.09 254.942,-686.553"/>
<polygon fill="none" stroke="midnightblue" points="250.845,-751.795 254.253,-761.827 257.845,-751.859 250.845,-751.795"/>
</g>
<!-- Node14 -->
<g id="node14" class="node"><title>Node14</title>
<g id="a_node14"><a xlink:href="../../de/dd4/classprolog_1_1fluents_1_1HashDict.html" target="_top" xlink:title="General purpose dictionary. ">
<polygon fill="none" stroke="black" points="317.5,-756.5 317.5,-824.5 436.5,-824.5 436.5,-756.5 317.5,-756.5"/>
<text text-anchor="middle" x="377" y="-812.5" font-family="Helvetica,sans-Serif" font-size="10.00">prolog.fluents.HashDict</text>
<polyline fill="none" stroke="black" points="317.5,-805.5 436.5,-805.5 "/>
<text text-anchor="middle" x="377" y="-793.5" font-family="Helvetica,sans-Serif" font-size="10.00"> </text>
<polyline fill="none" stroke="black" points="317.5,-786.5 436.5,-786.5 "/>
<text text-anchor="start" x="325.5" y="-774.5" font-family="Helvetica,sans-Serif" font-size="10.00">+ name()</text>
<text text-anchor="start" x="325.5" y="-763.5" font-family="Helvetica,sans-Serif" font-size="10.00">+ stat()</text>
</a>
</g>
</g>
<!-- Node14&#45;&gt;Node12 -->
<g id="edge13" class="edge"><title>Node14&#45;&gt;Node12</title>
<path fill="none" stroke="#404040" d="M358.623,-756.315C344.842,-731.43 325.273,-696.093 306.913,-662.938"/>
<polygon fill="none" stroke="#404040" points="306.817,-662.765 300.411,-659.453 301.004,-652.267 307.41,-655.578 306.817,-662.765"/>
<text text-anchor="middle" x="347.5" y="-708" font-family="Helvetica,sans-Serif" font-size="10.00"> ~dict</text>
</g>
<!-- Node15 -->
<g id="node15" class="node"><title>Node15</title>
<polygon fill="none" stroke="#bfbfbf" points="347.5,-912 347.5,-969 406.5,-969 406.5,-912 347.5,-912"/>
<text text-anchor="middle" x="377" y="-957" font-family="Helvetica,sans-Serif" font-size="10.00">HashMap</text>
<polyline fill="none" stroke="#bfbfbf" points="347.5,-950 406.5,-950 "/>
<text text-anchor="middle" x="377" y="-938" font-family="Helvetica,sans-Serif" font-size="10.00"> </text>
<polyline fill="none" stroke="#bfbfbf" points="347.5,-931 406.5,-931 "/>
<text text-anchor="middle" x="377" y="-919" font-family="Helvetica,sans-Serif" font-size="10.00"> </text>
</g>
<!-- Node15&#45;&gt;Node14 -->
<g id="edge14" class="edge"><title>Node15&#45;&gt;Node14</title>
<path fill="none" stroke="midnightblue" d="M377,-901.586C377,-877.812 377,-847.457 377,-824.646"/>
<polygon fill="none" stroke="midnightblue" points="373.5,-901.662 377,-911.662 380.5,-901.662 373.5,-901.662"/>
</g>
</g>
</svg>
