<?xml version="1.0" encoding="UTF-8" standalone="no"?>
<!DOCTYPE svg PUBLIC "-//W3C//DTD SVG 1.1//EN"
 "http://www.w3.org/Graphics/SVG/1.1/DTD/svg11.dtd">
<!-- Generated by graphviz version 2.38.0 (20140413.2041)
 -->
<!-- Title: prolog.fluents.JavaSource Pages: 1 -->
<svg width="290pt" height="1252pt"
 viewBox="0.00 0.00 290.00 1252.00" xmlns="http://www.w3.org/2000/svg" xmlns:xlink="http://www.w3.org/1999/xlink">
<g id="graph0" class="graph" transform="scale(1 1) rotate(0) translate(4 1248)">
<title>prolog.fluents.JavaSource</title>
<!-- Node1 -->
<g id="node1" class="node"><title>Node1</title>
<polygon fill="#bfbfbf" stroke="black" points="72.5,-105.5 72.5,-206.5 202.5,-206.5 202.5,-105.5 72.5,-105.5"/>
<text text-anchor="middle" x="137.5" y="-194.5" font-family="Helvetica,sans-Serif" font-size="10.00">prolog.fluents.JavaSource</text>
<polyline fill="none" stroke="black" points="72.5,-187.5 202.5,-187.5 "/>
<text text-anchor="start" x="80.5" y="-175.5" font-family="Helvetica,sans-Serif" font-size="10.00">&#45; e</text>
<polyline fill="none" stroke="black" points="72.5,-168.5 202.5,-168.5 "/>
<text text-anchor="start" x="80.5" y="-156.5" font-family="Helvetica,sans-Serif" font-size="10.00">+ JavaSource()</text>
<text text-anchor="start" x="80.5" y="-145.5" font-family="Helvetica,sans-Serif" font-size="10.00">+ JavaSource()</text>
<text text-anchor="start" x="80.5" y="-134.5" font-family="Helvetica,sans-Serif" font-size="10.00">+ JavaSource()</text>
<text text-anchor="start" x="80.5" y="-123.5" font-family="Helvetica,sans-Serif" font-size="10.00">+ getElement()</text>
<text text-anchor="start" x="80.5" y="-112.5" font-family="Helvetica,sans-Serif" font-size="10.00">+ stop()</text>
</g>
<!-- Node9 -->
<g id="node9" class="node"><title>Node9</title>
<g id="a_node9"><a xlink:href="../../da/d30/classprolog_1_1fluents_1_1ListSource.html" target="_top" xlink:title="Builds an iterator from a list. ">
<polygon fill="none" stroke="black" points="0,-6 0,-63 125,-63 125,-6 0,-6"/>
<text text-anchor="middle" x="62.5" y="-51" font-family="Helvetica,sans-Serif" font-size="10.00">prolog.fluents.ListSource</text>
<polyline fill="none" stroke="black" points="0,-44 125,-44 "/>
<text text-anchor="middle" x="62.5" y="-32" font-family="Helvetica,sans-Serif" font-size="10.00"> </text>
<polyline fill="none" stroke="black" points="0,-25 125,-25 "/>
<text text-anchor="start" x="8" y="-13" font-family="Helvetica,sans-Serif" font-size="10.00">+ ListSource()</text>
</a>
</g>
</g>
<!-- Node1&#45;&gt;Node9 -->
<g id="edge8" class="edge"><title>Node1&#45;&gt;Node9</title>
<path fill="none" stroke="midnightblue" d="M101.021,-96.8767C93.6747,-85.1716 86.2761,-73.3832 79.9541,-63.3101"/>
<polygon fill="none" stroke="midnightblue" points="98.0643,-98.75 106.345,-105.359 103.993,-95.0288 98.0643,-98.75"/>
</g>
<!-- Node10 -->
<g id="node10" class="node"><title>Node10</title>
<g id="a_node10"><a xlink:href="../../d9/dc9/classprolog_1_1fluents_1_1SourceMerger.html" target="_top" xlink:title="Merges a List of Sources into a new Source which (fairly) iterates over them breadth first...">
<polygon fill="none" stroke="black" points="143,-0.5 143,-68.5 282,-68.5 282,-0.5 143,-0.5"/>
<text text-anchor="middle" x="212.5" y="-56.5" font-family="Helvetica,sans-Serif" font-size="10.00">prolog.fluents.SourceMerger</text>
<polyline fill="none" stroke="black" points="143,-49.5 282,-49.5 "/>
<text text-anchor="start" x="151" y="-37.5" font-family="Helvetica,sans-Serif" font-size="10.00">&#45; Q</text>
<polyline fill="none" stroke="black" points="143,-30.5 282,-30.5 "/>
<text text-anchor="start" x="151" y="-18.5" font-family="Helvetica,sans-Serif" font-size="10.00">+ SourceMerger()</text>
<text text-anchor="start" x="151" y="-7.5" font-family="Helvetica,sans-Serif" font-size="10.00">+ getElement()</text>
</a>
</g>
</g>
<!-- Node1&#45;&gt;Node10 -->
<g id="edge9" class="edge"><title>Node1&#45;&gt;Node10</title>
<path fill="none" stroke="midnightblue" d="M174.132,-96.6332C180.124,-87.0864 186.145,-77.4925 191.583,-68.8271"/>
<polygon fill="none" stroke="midnightblue" points="171.007,-95.0288 168.655,-105.359 176.936,-98.75 171.007,-95.0288"/>
</g>
<!-- Node2 -->
<g id="node2" class="node"><title>Node2</title>
<g id="a_node2"><a xlink:href="../../d2/d07/classprolog_1_1terms_1_1Source.html" target="_top" xlink:title="{prolog.terms.Source\n||+ Source()\l+ getElement()\l+ toList()\l+ toFun()\l}">
<polygon fill="none" stroke="black" points="85.5,-243.5 85.5,-333.5 189.5,-333.5 189.5,-243.5 85.5,-243.5"/>
<text text-anchor="middle" x="137.5" y="-321.5" font-family="Helvetica,sans-Serif" font-size="10.00">prolog.terms.Source</text>
<polyline fill="none" stroke="black" points="85.5,-314.5 189.5,-314.5 "/>
<text text-anchor="middle" x="137.5" y="-302.5" font-family="Helvetica,sans-Serif" font-size="10.00"> </text>
<polyline fill="none" stroke="black" points="85.5,-295.5 189.5,-295.5 "/>
<text text-anchor="start" x="93.5" y="-283.5" font-family="Helvetica,sans-Serif" font-size="10.00">+ Source()</text>
<text text-anchor="start" x="93.5" y="-272.5" font-family="Helvetica,sans-Serif" font-size="10.00">+ getElement()</text>
<text text-anchor="start" x="93.5" y="-261.5" font-family="Helvetica,sans-Serif" font-size="10.00">+ toList()</text>
<text text-anchor="start" x="93.5" y="-250.5" font-family="Helvetica,sans-Serif" font-size="10.00">+ toFun()</text>
</a>
</g>
</g>
<!-- Node2&#45;&gt;Node1 -->
<g id="edge1" class="edge"><title>Node2&#45;&gt;Node1</title>
<path fill="none" stroke="midnightblue" d="M137.5,-233.131C137.5,-224.311 137.5,-215.219 137.5,-206.523"/>
<polygon fill="none" stroke="midnightblue" points="134,-233.319 137.5,-243.319 141,-233.319 134,-233.319"/>
</g>
<!-- Node3 -->
<g id="node3" class="node"><title>Node3</title>
<g id="a_node3"><a xlink:href="../../d9/d3b/classprolog_1_1terms_1_1Fluent.html" target="_top" xlink:title="A Fluent is a Prolog Object which has its own state, subject to changes over time. ">
<polygon fill="none" stroke="black" points="87,-370.5 87,-482.5 188,-482.5 188,-370.5 87,-370.5"/>
<text text-anchor="middle" x="137.5" y="-470.5" font-family="Helvetica,sans-Serif" font-size="10.00">prolog.terms.Fluent</text>
<polyline fill="none" stroke="black" points="87,-463.5 188,-463.5 "/>
<text text-anchor="start" x="95" y="-451.5" font-family="Helvetica,sans-Serif" font-size="10.00">&#45; persistent</text>
<polyline fill="none" stroke="black" points="87,-444.5 188,-444.5 "/>
<text text-anchor="start" x="95" y="-432.5" font-family="Helvetica,sans-Serif" font-size="10.00">+ Fluent()</text>
<text text-anchor="start" x="95" y="-421.5" font-family="Helvetica,sans-Serif" font-size="10.00">+ setPersistent()</text>
<text text-anchor="start" x="95" y="-410.5" font-family="Helvetica,sans-Serif" font-size="10.00">+ getPersistent()</text>
<text text-anchor="start" x="95" y="-399.5" font-family="Helvetica,sans-Serif" font-size="10.00">+ stop()</text>
<text text-anchor="start" x="95" y="-388.5" font-family="Helvetica,sans-Serif" font-size="10.00"># trailMe()</text>
<text text-anchor="start" x="95" y="-377.5" font-family="Helvetica,sans-Serif" font-size="10.00"># undo()</text>
</a>
</g>
</g>
<!-- Node3&#45;&gt;Node2 -->
<g id="edge2" class="edge"><title>Node3&#45;&gt;Node2</title>
<path fill="none" stroke="midnightblue" d="M137.5,-360.076C137.5,-351.072 137.5,-342.007 137.5,-333.514"/>
<polygon fill="none" stroke="midnightblue" points="134,-360.184 137.5,-370.184 141,-360.184 134,-360.184"/>
</g>
<!-- Node4 -->
<g id="node4" class="node"><title>Node4</title>
<g id="a_node4"><a xlink:href="../../d6/dc1/classprolog_1_1terms_1_1SystemObject.html" target="_top" xlink:title="A SystemObject is a Nonvar with system assigned name. ">
<polygon fill="none" stroke="black" points="69.5,-519.5 69.5,-631.5 205.5,-631.5 205.5,-519.5 69.5,-519.5"/>
<text text-anchor="middle" x="137.5" y="-619.5" font-family="Helvetica,sans-Serif" font-size="10.00">prolog.terms.SystemObject</text>
<polyline fill="none" stroke="black" points="69.5,-612.5 205.5,-612.5 "/>
<text text-anchor="start" x="77.5" y="-600.5" font-family="Helvetica,sans-Serif" font-size="10.00">~ ctr</text>
<text text-anchor="start" x="77.5" y="-589.5" font-family="Helvetica,sans-Serif" font-size="10.00">&#45; ordinal</text>
<polyline fill="none" stroke="black" points="69.5,-582.5 205.5,-582.5 "/>
<text text-anchor="start" x="77.5" y="-570.5" font-family="Helvetica,sans-Serif" font-size="10.00">+ SystemObject()</text>
<text text-anchor="start" x="77.5" y="-559.5" font-family="Helvetica,sans-Serif" font-size="10.00">+ name()</text>
<text text-anchor="start" x="77.5" y="-548.5" font-family="Helvetica,sans-Serif" font-size="10.00">+ toString()</text>
<text text-anchor="start" x="77.5" y="-537.5" font-family="Helvetica,sans-Serif" font-size="10.00">+ getArity()</text>
<text text-anchor="start" x="77.5" y="-526.5" font-family="Helvetica,sans-Serif" font-size="10.00">~ bind_to()</text>
</a>
</g>
</g>
<!-- Node4&#45;&gt;Node3 -->
<g id="edge3" class="edge"><title>Node4&#45;&gt;Node3</title>
<path fill="none" stroke="midnightblue" d="M137.5,-509.176C137.5,-500.427 137.5,-491.522 137.5,-482.965"/>
<polygon fill="none" stroke="midnightblue" points="134,-509.344 137.5,-519.344 141,-509.344 134,-509.344"/>
</g>
<!-- Node5 -->
<g id="node5" class="node"><title>Node5</title>
<g id="a_node5"><a xlink:href="../../d4/de0/classprolog_1_1terms_1_1Nonvar.html" target="_top" xlink:title="Part of the Prolog Term hierarchy. ">
<polygon fill="none" stroke="black" points="85,-668.5 85,-758.5 190,-758.5 190,-668.5 85,-668.5"/>
<text text-anchor="middle" x="137.5" y="-746.5" font-family="Helvetica,sans-Serif" font-size="10.00">prolog.terms.Nonvar</text>
<polyline fill="none" stroke="black" points="85,-739.5 190,-739.5 "/>
<text text-anchor="middle" x="137.5" y="-727.5" font-family="Helvetica,sans-Serif" font-size="10.00"> </text>
<polyline fill="none" stroke="black" points="85,-720.5 190,-720.5 "/>
<text text-anchor="start" x="93" y="-708.5" font-family="Helvetica,sans-Serif" font-size="10.00">+ name()</text>
<text text-anchor="start" x="93" y="-697.5" font-family="Helvetica,sans-Serif" font-size="10.00">~ bind_to()</text>
<text text-anchor="start" x="93" y="-686.5" font-family="Helvetica,sans-Serif" font-size="10.00">~ unify_to()</text>
<text text-anchor="start" x="93" y="-675.5" font-family="Helvetica,sans-Serif" font-size="10.00">~ listify()</text>
</a>
</g>
</g>
<!-- Node5&#45;&gt;Node4 -->
<g id="edge4" class="edge"><title>Node5&#45;&gt;Node4</title>
<path fill="none" stroke="midnightblue" d="M137.5,-658.312C137.5,-649.611 137.5,-640.595 137.5,-631.867"/>
<polygon fill="none" stroke="midnightblue" points="134,-658.345 137.5,-668.345 141,-658.345 134,-658.345"/>
</g>
<!-- Node6 -->
<g id="node6" class="node"><title>Node6</title>
<g id="a_node6"><a xlink:href="../../d3/ded/classprolog_1_1terms_1_1Term.html" target="_top" xlink:title="Top element of the Prolog term hierarchy. ">
<polygon fill="none" stroke="black" points="88.5,-795.5 88.5,-1149.5 186.5,-1149.5 186.5,-795.5 88.5,-795.5"/>
<text text-anchor="middle" x="137.5" y="-1137.5" font-family="Helvetica,sans-Serif" font-size="10.00">prolog.terms.Term</text>
<polyline fill="none" stroke="black" points="88.5,-1130.5 186.5,-1130.5 "/>
<text text-anchor="start" x="96.5" y="-1118.5" font-family="Helvetica,sans-Serif" font-size="10.00">+ JAVA</text>
<text text-anchor="start" x="96.5" y="-1107.5" font-family="Helvetica,sans-Serif" font-size="10.00">+ REAL</text>
<text text-anchor="start" x="96.5" y="-1096.5" font-family="Helvetica,sans-Serif" font-size="10.00">+ INT</text>
<text text-anchor="start" x="96.5" y="-1085.5" font-family="Helvetica,sans-Serif" font-size="10.00">+ VAR</text>
<text text-anchor="start" x="96.5" y="-1074.5" font-family="Helvetica,sans-Serif" font-size="10.00">+ CONST</text>
<polyline fill="none" stroke="black" points="88.5,-1067.5 186.5,-1067.5 "/>
<text text-anchor="start" x="96.5" y="-1055.5" font-family="Helvetica,sans-Serif" font-size="10.00">+ getArity()</text>
<text text-anchor="start" x="96.5" y="-1044.5" font-family="Helvetica,sans-Serif" font-size="10.00">+ ref()</text>
<text text-anchor="start" x="96.5" y="-1033.5" font-family="Helvetica,sans-Serif" font-size="10.00">+ token()</text>
<text text-anchor="start" x="96.5" y="-1022.5" font-family="Helvetica,sans-Serif" font-size="10.00">+ toClause()</text>
<text text-anchor="start" x="96.5" y="-1011.5" font-family="Helvetica,sans-Serif" font-size="10.00">+ matches()</text>
<text text-anchor="start" x="96.5" y="-1000.5" font-family="Helvetica,sans-Serif" font-size="10.00">+ matches()</text>
<text text-anchor="start" x="96.5" y="-989.5" font-family="Helvetica,sans-Serif" font-size="10.00">+ matching_copy()</text>
<text text-anchor="start" x="96.5" y="-978.5" font-family="Helvetica,sans-Serif" font-size="10.00">+ copy()</text>
<text text-anchor="start" x="96.5" y="-967.5" font-family="Helvetica,sans-Serif" font-size="10.00">+ varsOf()</text>
<text text-anchor="start" x="96.5" y="-956.5" font-family="Helvetica,sans-Serif" font-size="10.00">+ numbervars()</text>
<text text-anchor="start" x="96.5" y="-945.5" font-family="Helvetica,sans-Serif" font-size="10.00">and 6 more...</text>
<text text-anchor="start" x="96.5" y="-934.5" font-family="Helvetica,sans-Serif" font-size="10.00">+ fromString()</text>
<text text-anchor="start" x="96.5" y="-923.5" font-family="Helvetica,sans-Serif" font-size="10.00">+ charsToString()</text>
<text text-anchor="start" x="96.5" y="-912.5" font-family="Helvetica,sans-Serif" font-size="10.00">~ bind_to()</text>
<text text-anchor="start" x="96.5" y="-901.5" font-family="Helvetica,sans-Serif" font-size="10.00">~ unify_to()</text>
<text text-anchor="start" x="96.5" y="-890.5" font-family="Helvetica,sans-Serif" font-size="10.00">~ toTerm()</text>
<text text-anchor="start" x="96.5" y="-879.5" font-family="Helvetica,sans-Serif" font-size="10.00">~ isClause()</text>
<text text-anchor="start" x="96.5" y="-868.5" font-family="Helvetica,sans-Serif" font-size="10.00">~ reaction()</text>
<text text-anchor="start" x="96.5" y="-857.5" font-family="Helvetica,sans-Serif" font-size="10.00">~ action()</text>
<text text-anchor="start" x="96.5" y="-846.5" font-family="Helvetica,sans-Serif" font-size="10.00">~ exec()</text>
<text text-anchor="start" x="96.5" y="-835.5" font-family="Helvetica,sans-Serif" font-size="10.00">~ stringToChars()</text>
<text text-anchor="start" x="96.5" y="-824.5" font-family="Helvetica,sans-Serif" font-size="10.00"># unify()</text>
<text text-anchor="start" x="96.5" y="-813.5" font-family="Helvetica,sans-Serif" font-size="10.00"># undo()</text>
<text text-anchor="start" x="96.5" y="-802.5" font-family="Helvetica,sans-Serif" font-size="10.00"># exec()</text>
</a>
</g>
</g>
<!-- Node6&#45;&gt;Node5 -->
<g id="edge5" class="edge"><title>Node6&#45;&gt;Node5</title>
<path fill="none" stroke="midnightblue" d="M137.5,-785.431C137.5,-775.975 137.5,-767.043 137.5,-758.912"/>
<polygon fill="none" stroke="midnightblue" points="134,-785.464 137.5,-795.464 141,-785.464 134,-785.464"/>
</g>
<!-- Node7 -->
<g id="node7" class="node"><title>Node7</title>
<polygon fill="none" stroke="#bfbfbf" points="80,-1186.5 80,-1243.5 125,-1243.5 125,-1186.5 80,-1186.5"/>
<text text-anchor="middle" x="102.5" y="-1231.5" font-family="Helvetica,sans-Serif" font-size="10.00">Object</text>
<polyline fill="none" stroke="#bfbfbf" points="80,-1224.5 125,-1224.5 "/>
<text text-anchor="middle" x="102.5" y="-1212.5" font-family="Helvetica,sans-Serif" font-size="10.00"> </text>
<polyline fill="none" stroke="#bfbfbf" points="80,-1205.5 125,-1205.5 "/>
<text text-anchor="middle" x="102.5" y="-1193.5" font-family="Helvetica,sans-Serif" font-size="10.00"> </text>
</g>
<!-- Node7&#45;&gt;Node6 -->
<g id="edge6" class="edge"><title>Node7&#45;&gt;Node6</title>
<path fill="none" stroke="midnightblue" d="M107.965,-1176.45C109.132,-1168.43 110.438,-1159.46 111.833,-1149.87"/>
<polygon fill="none" stroke="midnightblue" points="104.492,-1176.01 106.515,-1186.41 111.419,-1177.02 104.492,-1176.01"/>
</g>
<!-- Node8 -->
<g id="node8" class="node"><title>Node8</title>
<polygon fill="none" stroke="#bfbfbf" points="143.5,-1186.5 143.5,-1243.5 203.5,-1243.5 203.5,-1186.5 143.5,-1186.5"/>
<text text-anchor="middle" x="173.5" y="-1231.5" font-family="Helvetica,sans-Serif" font-size="10.00">Cloneable</text>
<polyline fill="none" stroke="#bfbfbf" points="143.5,-1224.5 203.5,-1224.5 "/>
<text text-anchor="middle" x="173.5" y="-1212.5" font-family="Helvetica,sans-Serif" font-size="10.00"> </text>
<polyline fill="none" stroke="#bfbfbf" points="143.5,-1205.5 203.5,-1205.5 "/>
<text text-anchor="middle" x="173.5" y="-1193.5" font-family="Helvetica,sans-Serif" font-size="10.00"> </text>
</g>
<!-- Node8&#45;&gt;Node6 -->
<g id="edge7" class="edge"><title>Node8&#45;&gt;Node6</title>
<path fill="none" stroke="midnightblue" d="M167.879,-1176.45C166.678,-1168.43 165.335,-1159.46 163.901,-1149.87"/>
<polygon fill="none" stroke="midnightblue" points="164.428,-1177.04 169.37,-1186.41 171.351,-1176 164.428,-1177.04"/>
</g>
</g>
</svg>
