<?xml version="1.0" encoding="UTF-8" standalone="no"?>
<!DOCTYPE svg PUBLIC "-//W3C//DTD SVG 1.1//EN"
 "http://www.w3.org/Graphics/SVG/1.1/DTD/svg11.dtd">
<!-- Generated by graphviz version 2.38.0 (20140413.2041)
 -->
<!-- Title: prolog.terms.Const.qname Pages: 1 -->
<svg width="486pt" height="85pt"
 viewBox="0.00 0.00 486.00 85.00" xmlns="http://www.w3.org/2000/svg" xmlns:xlink="http://www.w3.org/1999/xlink">
<g id="graph0" class="graph" transform="scale(1 1) rotate(0) translate(4 81)">
<title>prolog.terms.Const.qname</title>
<!-- Node1 -->
<g id="node1" class="node"><title>Node1</title>
<polygon fill="#bfbfbf" stroke="black" points="0,-19.5 0,-38.5 132,-38.5 132,-19.5 0,-19.5"/>
<text text-anchor="middle" x="66" y="-26.5" font-family="Helvetica,sans-Serif" font-size="10.00">prolog.terms.Const.qname</text>
</g>
<!-- Node2 -->
<g id="node2" class="node"><title>Node2</title>
<g id="a_node2"><a xlink:href="../../de/d8d/classprolog_1_1terms_1_1Fun_a6f5f0d3b6f41a3cd8ce14f847db13a3a.html#a6f5f0d3b6f41a3cd8ce14f847db13a3a" target="_top" xlink:title="prolog.terms.Fun.funToString">
<polygon fill="none" stroke="black" points="168,-38.5 168,-57.5 311,-57.5 311,-38.5 168,-38.5"/>
<text text-anchor="middle" x="239.5" y="-45.5" font-family="Helvetica,sans-Serif" font-size="10.00">prolog.terms.Fun.funToString</text>
</a>
</g>
</g>
<!-- Node1&#45;&gt;Node2 -->
<g id="edge1" class="edge"><title>Node1&#45;&gt;Node2</title>
<path fill="none" stroke="midnightblue" d="M142.534,-37.3682C150.976,-38.3034 159.551,-39.2535 167.927,-40.1815"/>
<polygon fill="midnightblue" stroke="midnightblue" points="142.651,-33.8598 132.326,-36.2373 141.88,-40.8172 142.651,-33.8598"/>
</g>
<!-- Node5 -->
<g id="node5" class="node"><title>Node5</title>
<g id="a_node5"><a xlink:href="../../d0/d3f/classprolog_1_1terms_1_1Const_a4c44c9d00d5def9e4853d60cfc655d6a.html#a4c44c9d00d5def9e4853d60cfc655d6a" target="_top" xlink:title="prolog.terms.Const.toString">
<polygon fill="none" stroke="black" points="171,-0.5 171,-19.5 308,-19.5 308,-0.5 171,-0.5"/>
<text text-anchor="middle" x="239.5" y="-7.5" font-family="Helvetica,sans-Serif" font-size="10.00">prolog.terms.Const.toString</text>
</a>
</g>
</g>
<!-- Node1&#45;&gt;Node5 -->
<g id="edge4" class="edge"><title>Node1&#45;&gt;Node5</title>
<path fill="none" stroke="midnightblue" d="M142.469,-20.6391C151.897,-19.5945 161.493,-18.5314 170.793,-17.5011"/>
<polygon fill="midnightblue" stroke="midnightblue" points="141.88,-17.1828 132.326,-21.7627 142.651,-24.1402 141.88,-17.1828"/>
</g>
<!-- Node3 -->
<g id="node3" class="node"><title>Node3</title>
<g id="a_node3"><a xlink:href="../../d2/dce/classprolog_1_1terms_1_1Conj_a10d2887ec10c242c3970f570bf465c81.html#a10d2887ec10c242c3970f570bf465c81" target="_top" xlink:title="prolog.terms.Conj.toString">
<polygon fill="none" stroke="black" points="347,-57.5 347,-76.5 478,-76.5 478,-57.5 347,-57.5"/>
<text text-anchor="middle" x="412.5" y="-64.5" font-family="Helvetica,sans-Serif" font-size="10.00">prolog.terms.Conj.toString</text>
</a>
</g>
</g>
<!-- Node2&#45;&gt;Node3 -->
<g id="edge2" class="edge"><title>Node2&#45;&gt;Node3</title>
<path fill="none" stroke="midnightblue" d="M321.126,-56.9585C329.762,-57.9181 338.465,-58.885 346.881,-59.8201"/>
<polygon fill="midnightblue" stroke="midnightblue" points="321.365,-53.4635 311.04,-55.8377 320.592,-60.4207 321.365,-53.4635"/>
</g>
<!-- Node4 -->
<g id="node4" class="node"><title>Node4</title>
<g id="a_node4"><a xlink:href="../../de/d8d/classprolog_1_1terms_1_1Fun_affde05705cfeb010a2373c7c093c7a91.html#affde05705cfeb010a2373c7c093c7a91" target="_top" xlink:title="prolog.terms.Fun.toString">
<polygon fill="none" stroke="black" points="349,-19.5 349,-38.5 476,-38.5 476,-19.5 349,-19.5"/>
<text text-anchor="middle" x="412.5" y="-26.5" font-family="Helvetica,sans-Serif" font-size="10.00">prolog.terms.Fun.toString</text>
</a>
</g>
</g>
<!-- Node2&#45;&gt;Node4 -->
<g id="edge3" class="edge"><title>Node2&#45;&gt;Node4</title>
<path fill="none" stroke="midnightblue" d="M321.082,-39.0464C330.385,-38.0128 339.766,-36.9705 348.782,-35.9687"/>
<polygon fill="midnightblue" stroke="midnightblue" points="320.592,-35.5793 311.04,-40.1623 321.365,-42.5365 320.592,-35.5793"/>
</g>
</g>
</svg>
