<?xml version="1.0" encoding="UTF-8" standalone="no"?>
<!DOCTYPE svg PUBLIC "-//W3C//DTD SVG 1.1//EN"
 "http://www.w3.org/Graphics/SVG/1.1/DTD/svg11.dtd">
<!-- Generated by graphviz version 2.38.0 (20140413.2041)
 -->
<!-- Title: prolog.terms.Nonvar.name Pages: 1 -->
<svg width="307pt" height="78pt"
 viewBox="0.00 0.00 307.00 77.50" xmlns="http://www.w3.org/2000/svg" xmlns:xlink="http://www.w3.org/1999/xlink">
<g id="graph0" class="graph" transform="scale(1 1) rotate(0) translate(4 73.5)">
<title>prolog.terms.Nonvar.name</title>
<!-- Node1 -->
<g id="node1" class="node"><title>Node1</title>
<polygon fill="#bfbfbf" stroke="black" points="0,-22.5 0,-41.5 132,-41.5 132,-22.5 0,-22.5"/>
<text text-anchor="middle" x="66" y="-29.5" font-family="Helvetica,sans-Serif" font-size="10.00">prolog.terms.Nonvar.name</text>
</g>
<!-- Node2 -->
<g id="node2" class="node"><title>Node2</title>
<g id="a_node2"><a xlink:href="../../d9/d07/classprolog_1_1io_1_1TermSource_a7fb09ce5955adbee4c76eff815b094b6.html#a7fb09ce5955adbee4c76eff815b094b6" target="_top" xlink:title="prolog.io.TermSource.get\lElement">
<polygon fill="none" stroke="black" points="170.5,-39 170.5,-69 296.5,-69 296.5,-39 170.5,-39"/>
<text text-anchor="start" x="178.5" y="-57" font-family="Helvetica,sans-Serif" font-size="10.00">prolog.io.TermSource.get</text>
<text text-anchor="middle" x="233.5" y="-46" font-family="Helvetica,sans-Serif" font-size="10.00">Element</text>
</a>
</g>
</g>
<!-- Node1&#45;&gt;Node2 -->
<g id="edge1" class="edge"><title>Node1&#45;&gt;Node2</title>
<path fill="none" stroke="midnightblue" d="M142.44,-42.0282C151.749,-43.2657 161.182,-44.5196 170.263,-45.7268"/>
<polygon fill="midnightblue" stroke="midnightblue" points="142.784,-38.5433 132.41,-40.695 141.862,-45.4823 142.784,-38.5433"/>
</g>
<!-- Node3 -->
<g id="node3" class="node"><title>Node3</title>
<g id="a_node3"><a xlink:href="../../d8/d32/classprolog_1_1terms_1_1Num_ada32ca84115cc8699956c486580cb0e2.html#ada32ca84115cc8699956c486580cb0e2" target="_top" xlink:title="prolog.terms.Num.toString">
<polygon fill="none" stroke="black" points="168,-0.5 168,-19.5 299,-19.5 299,-0.5 168,-0.5"/>
<text text-anchor="middle" x="233.5" y="-7.5" font-family="Helvetica,sans-Serif" font-size="10.00">prolog.terms.Num.toString</text>
</a>
</g>
</g>
<!-- Node1&#45;&gt;Node3 -->
<g id="edge2" class="edge"><title>Node1&#45;&gt;Node3</title>
<path fill="none" stroke="midnightblue" d="M142.336,-21.9855C150.852,-20.8535 159.473,-19.7075 167.836,-18.5959"/>
<polygon fill="midnightblue" stroke="midnightblue" points="141.862,-18.5177 132.41,-23.305 142.784,-25.4567 141.862,-18.5177"/>
</g>
</g>
</svg>
